<svg xmlns="http://www.w3.org/2000/svg" width="1160" height="960">
    <path d="M714.122 623.557c-4.184 8.368-1.394 19.525 6.973 23.708 20.919 13.946 34.865-4.183 16.735-22.313-9.762-9.762-18.13-9.762-23.708-1.395M528.643 485.494c-40.443 34.865-44.627 125.512-6.973 158.982 41.838 37.654 107.383 30.68 140.853-16.735 39.048-54.388 36.259-73.913-11.157-125.512-46.021-48.81-78.096-52.994-122.723-16.735M440.784 12.731c-11.156 6.973-50.204 26.497-87.858 43.232-69.73 33.47-168.744 129.696-207.793 206.398-27.891 50.205-33.47 112.961-11.156 112.961 16.735 0 16.735 78.097 1.394 118.54-11.156 26.497 18.13 175.717 41.838 216.16 6.973 11.156 18.13 33.47 25.102 48.81 16.735 36.259 93.437 118.539 110.172 118.539 6.973 0 20.919 9.762 30.68 20.919 9.763 11.156 34.865 20.919 54.39 20.919 20.918 0 50.204 9.762 65.545 20.918 34.864 26.497 182.69 26.497 228.71 0 19.525-11.156 48.811-19.524 66.94-20.918 54.39 0 167.35-90.648 199.426-160.377 6.973-15.34 18.13-37.654 25.102-48.81 26.497-44.627 55.783-199.426 41.838-224.528-16.735-32.075-16.735-110.172 1.394-110.172 20.919 0 16.735-59.967-9.762-112.96-32.075-66.94-139.458-171.534-213.37-207.793-34.865-16.735-73.913-36.26-86.465-43.232-30.68-15.34-248.235-15.34-276.127 1.394m6.973 97.62c-4.183 6.974-16.735 13.947-27.891 13.947s-23.708-6.973-27.892-13.946c-5.578-8.368 6.973-13.946 27.892-13.946s33.47 5.578 27.891 13.946m320.754 0c-4.184 6.974-16.735 13.947-27.892 13.947s-23.708-6.973-27.891-13.946c-5.579-8.368 6.973-13.946 27.891-13.946 20.919 0 33.47 5.578 27.892 13.946m-408.612 44.627c-12.551 12.552-20.919 12.552-33.47 0s-9.762-16.735 16.735-16.735 29.286 4.184 16.735 16.735m386.299 30.681c13.945 12.551 30.68 22.313 40.442 22.313 19.525 0 128.302 128.302 128.302 152.01 0 11.156 9.762 30.68 22.313 44.626 16.735 18.13 19.524 39.049 12.551 83.675-11.156 65.545-34.864 50.205-34.864-23.708 0-23.708-9.762-51.6-20.919-61.361-11.157-9.762-20.919-25.103-20.919-33.47 0-51.6-198.03-161.772-292.862-161.772S287.381 318.144 287.381 369.744c0 8.367-9.762 23.708-20.92 33.47-11.156 9.762-20.918 37.653-20.918 61.361 0 59.967-20.919 90.648-32.075 47.416-15.34-52.994-11.157-90.648 11.156-108.777 11.157-9.762 20.92-27.892 20.92-41.838 0-29.286 107.382-153.404 132.484-153.404 9.762 0 25.103-8.367 34.865-19.524 22.313-27.891 69.729-34.864 199.425-29.286 75.307 2.79 117.145 11.157 133.88 26.497M192.549 312.566c0 6.973-6.973 15.34-15.34 18.13s-15.34-5.579-15.34-18.13 6.972-20.919 15.34-18.13 15.34 11.157 15.34 18.13m451.844 0c13.946 11.157 36.26 20.919 47.416 20.919 27.892 1.394 85.07 52.994 118.54 104.593 20.918 32.076 26.496 65.546 25.102 142.247-1.395 92.043-4.184 103.2-44.627 142.248-23.708 23.708-43.232 48.81-43.232 57.177 0 22.314-41.837 16.735-50.205-6.972-6.973-15.34-30.68-20.92-87.858-20.92-69.73 0-85.07-5.577-115.75-39.047-18.13-20.92-46.022-61.362-58.573-90.648-23.708-51.6-23.708-54.389 0-80.886 16.735-19.524 19.524-32.075 9.762-41.837-11.156-11.157-20.919-1.395-37.653 30.68-25.103 50.205-29.287 104.594-8.368 117.145 8.368 4.184 13.946 18.13 13.946 29.287 0 20.918 48.81 75.307 68.334 75.307 6.973 0 15.34 9.762 19.524 19.524 5.579 13.946 34.865 22.313 89.254 25.102 99.015 5.579 107.382 30.681 11.156 36.26-89.253 5.578-179.9-40.443-232.895-117.145-32.075-46.021-37.653-69.73-39.048-147.826 0-51.6 6.973-97.62 15.34-101.804 6.973-5.578 20.92-25.103 27.892-44.627 11.157-30.68 19.524-34.864 65.545-27.891 27.892 4.183 40.443 4.183 27.892 1.394-32.075-9.762-32.075-46.02-2.79-57.178 13.947-5.578 27.892 0 36.26 13.946 8.367 15.34 30.68 23.708 61.361 23.708 51.6 0 145.037 58.573 145.037 90.648 0 9.762 9.762 25.102 20.918 34.864s20.92 34.865 20.92 57.178c0 47.416 22.312 54.389 34.864 11.157 18.13-54.389-62.756-193.847-111.567-193.847-12.551 0-25.102-9.762-29.286-20.919-5.578-11.156-23.708-20.918-40.443-20.918-18.13 0-43.232-4.184-55.783-8.368-18.13-6.973-19.524-11.156-4.184-20.918 27.892-18.13 72.518-15.34 103.2 8.367m354.224 0c0 11.157-5.579 20.919-12.552 20.919-18.13 0-30.68-22.314-19.524-33.47 15.34-15.34 32.076-8.368 32.076 12.551" style="stroke-width:1.39458"/>
</svg>
