<svg xmlns="http://www.w3.org/2000/svg" width="1407" height="960">
    <path d="m770.82 0-.214 3.776h.071c.093-1.248.046-2.529.143-3.776m-.143 3.776c-2.037 27.482-3.206 55.153-3.206 83.134 0 32.826 1.402 65.311 3.919 93.25 24.437 135.828 103.643 217.954 239.216 234.586 90.71 11.27 170.681 2.137 272.698 2.137-1.897-48.072 2.7-85.591 0-131.22-82.139 0-145.736 5.362-216.349 0-106.284-7.513-151.418-53.99-163.49-159.216-4.56-38.917-5.351-78.1-8.05-122.671zm-122.742.07c-41.58 2.408-90.983.02-131.505 3.776-1.605 36.51 2.954 58.997 0 85.842-16.377 148.703-60.968 190.835-204.31 194.337-61.495 1.349-123.187 0-190.846 0v141.763c109.239-7.259 211.23-7.3 311.095-22.583 106.832-16.376 173.191-87.733 200.036-192.413C645.3 169.034 652.35 121.04 652.35 71.38c0-23.817-1.644-47.254-4.416-67.533m62.76 337.454c-4.158 0-8.216.17-11.754.499h-.143c-73.202 1.057-132.217 60.754-132.217 134.212 0 6.638.515 13.153 1.354 18.806v.214c2.48 70.43 60.382 126.803 131.433 126.803 4.377 0 8.747-.276 12.467-.64v.07c72.619 0 131.433-58.885 131.433-131.504 0-2.61-.08-5.15-.213-7.41.003-.046-.003-.095 0-.142-.004-.064.004-.15 0-.213.166-2.659.285-5.396.285-8.122 0-73.239-59.406-132.573-132.645-132.573m384.185 198.041C841.205 543.901 767.603 671.711 771.105 960c36.255-2.407 87.578.788 125.948-2.422 2.152-37.057 3.161-63.912 5.058-90.757 10.723-144.691 55.891-188.413 200.036-191.914h184.933V539.34zm-831.344 1.781c-45.602.839-92.607 3.063-143.616 3.063 3.502 50.188.008 86.972 2.707 129.938h170.187c160.23 2.954 206.695 46.447 217.418 202.956 1.35 22.833 2.929 44.791 5.628 80.499l132.075.071c0-42.966-5.632-77.87-6.982-112.484v-.641c-.73-23.234-3.534-45.99-7.765-65.468-27.391-133.165-100.149-216.102-234.372-232.734-45.5-5.507-89.68-6.039-135.28-5.2" style="stroke-width:36.4737"/>
</svg>
