<svg xmlns="http://www.w3.org/2000/svg" width="1413" height="960">
    <path d="M549.033 620.578c-10.602 27.566 37.109 98.072 80.578 118.217 80.049 36.578 214.7 36.578 283.615-.53 46.12-25.446 79.518-69.446 79.518-107.085v-19.614h-220c-200.916 0-220.53.53-223.71 9.012m-31.807-154.265c-1.06 2.65-1.06 31.277-.53 63.615l1.59 57.783h503.615V462.602l-251.278-1.06c-173.349-.53-251.807.53-253.397 4.771m129.35-190.843c-2.121 2.12-3.712 9.012-3.712 14.843 0 7.422-6.361 14.843-19.084 21.735-31.277 16.434-57.783 47.18-68.385 78.458-16.964 49.831-33.398 46.65 215.759 45.06l218.94-1.59 1.59-16.964c1.06-9.542-3.181-25.976-9.543-38.699C969.95 353.928 941.322 320 932.841 320c-9.013 0-32.868-22.265-35.519-33.398-3.18-11.662-4.77-11.662-125.108-13.253-67.325-.53-123.518.53-125.639 2.12m-116.097-94.362c-10.602 8.482-32.867 27.567-48.771 42.41-28.627 25.976-29.687 27.566-29.687 54.072 0 25.446-3.18 36.048-23.855 82.169-31.277 68.916-34.458 84.82-34.458 156.385 0 42.41 2.65 74.217 6.361 81.109 12.193 23.855 53.012 72.626 59.904 72.626 14.843 0 13.253-11.132-4.771-45.06-19.084-33.928-19.084-34.458-19.084-99.663V459.42l31.277-44.53c17.494-24.385 41.349-57.253 53.012-73.156 16.433-21.735 21.735-33.928 21.735-48.771 0-27.036 10.602-33.398 57.783-36.579l40.289-2.65v-84.82l-45.59-1.59c-42.94-1.59-46.121-.53-64.145 13.783M675.732 144c-16.964 14.313-16.964 14.313-16.964 63.084v49.301h111.325c70.506 0 111.326-2.12 111.856-5.3v-89.591c-.53-5.831-8.482-15.374-18.554-21.205-15.904-10.072-25.976-11.132-93.832-11.132-75.277.53-76.337.53-93.831 14.843M390.527 22.072c-2.12 6.362-5.301 11.663-7.952 11.663-3.18 0-6.891 4.24-8.482 9.012-2.12 5.301-10.072 19.084-17.493 30.747-24.386 38.169-26.507 42.41-31.808 54.602-2.65 6.892-11.662 25.976-19.084 42.41-36.048 78.988-51.422 127.229-63.084 197.205-19.615 117.686-1.06 227.421 59.373 345.638 6.362 12.723 9.542 30.747 4.771 30.747-6.891 0-67.855-38.169-90.65-56.723-8.482-7.421-32.338-28.626-51.952-47.71-24.916-23.856-38.169-32.868-41.88-29.157-3.71 3.71-3.18 9.012.53 16.434 3.711 5.83 7.952 21.204 10.603 33.397 11.662 57.253 48.77 138.362 93.301 205.687 32.867 49.301 99.133 119.277 145.253 153.204 38.169 28.097 104.434 64.675 108.675 60.434 1.59-1.59-19.085-23.325-45.59-48.77-48.772-46.121-97.013-104.965-125.64-153.206-8.481-14.843-14.312-28.096-12.722-29.156 1.59-1.59 10.072 0 19.614 3.71 45.59 19.085 214.699 56.194 256.579 56.194 20.674 0 16.963-9.543-9.543-23.326-100.722-52.482-201.445-181.831-243.855-312.77-34.988-108.676-35.518-239.085-1.59-358.362 10.072-34.458 42.94-117.157 49.831-124.578 2.65-2.651 4.771-9.013 4.771-13.784 0-4.77 3.71-11.662 7.952-15.373 4.24-3.71 7.952-10.072 7.952-14.843 0-4.241 4.24-11.133 9.542-14.844 7.422-5.301 7.952-7.952 2.12-13.783-5.3-5.301-7.421-4.771-9.542 5.301M986.382-99.855C1044.696-39.952 1090.816 17.3 1105.66 49.639c2.12 4.24 9.542 18.554 16.963 31.277 21.205 37.638 17.494 44-18.554 30.216-73.687-27.566-203.566-62.024-234.313-61.493-12.723 0-16.964 10.072-5.831 14.313 14.843 5.301 65.204 45.59 89.59 71.566 69.976 73.687 116.096 164.867 142.072 277.783 16.964 74.217 7.952 230.602-15.903 287.325-4.241 9.542-7.422 20.145-7.422 24.386 0 8.482-34.988 89.06-48.241 111.325-5.301 9.012-15.374 28.627-22.795 44-7.422 14.843-15.374 28.096-17.494 29.157-5.831 2.65-23.856 36.048-19.615 36.048 9.543 0 71.567-81.639 96.482-127.229 79.518-144.193 107.085-233.253 107.085-344.048 0-67.856-5.832-101.783-30.217-172.82-20.675-58.843-22.796-71.566-13.783-71.566 16.963 0 103.903 75.808 144.192 126.17 25.446 31.806 31.277 23.324 19.615-31.808-22.265-107.084-48.771-173.35-102.844-256.048-42.94-65.735-164.867-177.59-194.024-177.59-4.77 0-8.482-2.651-8.482-5.302 0-3.18-3.71-5.301-7.951-5.301-4.771 0-.53 7.422 12.192 20.145" style="stroke-width:.53012"/>
</svg>
