<svg xmlns="http://www.w3.org/2000/svg" width="1392" height="960">
    <path d="M649.17 746.688c-2.627 7.01 10.076 106.888 14.457 113.897 1.752 2.629 4.38 12.704 6.133 22.78 3.943 21.027 13.58 53.005 24.532 83.232 9.637 25.408 21.465 31.102 25.407 12.266 1.753-6.571 4.819-17.085 7.447-23.218s6.133-17.96 8.324-26.284c1.752-8.323 5.256-23.217 7.885-32.854 10.951-42.493 17.96-85.861 18.837-118.278l1.314-35.045-56.072-1.314c-43.807-.876-56.51 0-58.263 4.818m293.942-99.44c-31.54 33.73-44.244 54.32-34.169 54.32 1.752 0 8.323 4.38 14.456 10.075 18.399 16.647 74.91 56.073 98.565 68.776 69.652 37.236 101.193 51.692 104.697 48.188 2.629-2.629 1.752-7.01-2.19-11.828-3.505-4.38-13.142-21.465-21.465-38.55-8.323-16.646-23.656-42.93-33.731-58.263-10.514-15.332-18.837-28.912-18.837-30.226 0-7.009-62.643-80.166-68.776-80.166-2.19 0-19.275 17.085-38.55 37.674m-557.218 2.628c-16.646 22.342-31.54 43.807-33.293 47.311-1.752 3.505-7.009 12.266-11.39 19.713-14.894 22.78-53.005 99.003-53.005 105.574 0 8.76 4.38 7.885 35.483-9.2 15.332-8.323 31.979-17.084 36.797-19.275s16.209-9.199 25.408-15.332 17.523-11.39 18.837-11.39c5.695 0 89.803-67.023 94.184-74.909 4.38-8.323.876-13.141-31.54-45.996-20.152-20.151-39.865-36.798-43.807-36.798s-20.59 17.96-37.674 40.302m-64.833-265.029c-31.541 2.19-107.326 19.713-146.752 34.607-8.323 3.067-20.151 6.571-26.284 7.885-15.77 3.943-34.607 19.275-26.284 21.466 3.505.876 16.647 4.818 28.474 8.323 76.224 22.78 119.154 32.417 173.036 37.673 52.568 5.695 52.568 5.695 52.568-47.31 0-53.444-3.943-66.148-20.59-64.834-7.008.438-21.903 1.314-34.168 2.19m698.713-.876c-7.448 8.761-4.381 102.069 3.504 106.888 14.456 8.761 143.685-13.58 188.368-32.855 7.885-3.505 17.084-6.133 21.027-6.133 9.2 0 42.492-17.523 39.426-21.027-3.943-3.505-32.417-14.018-50.816-18.399-8.323-1.752-21.027-5.257-28.474-7.885-21.903-7.009-76.661-17.96-116.087-22.78-47.75-5.694-50.377-5.694-56.948 2.191m-350.89-45.997c-10.514 17.085-21.027 34.607-23.656 38.55-2.19 3.943-15.77 24.97-30.226 46.435-42.492 64.395-50.816 84.546-50.816 123.096 0 27.598 1.753 35.921 10.952 49.94 22.78 36.797 54.758 59.138 99.44 71.404 45.997 11.827 109.079-19.713 141.496-71.405 9.199-14.018 10.951-22.341 10.951-49.94 0-38.549-8.323-58.7-50.815-123.095-14.456-21.465-27.598-42.493-30.227-46.435-27.598-46.873-43.806-69.214-50.377-69.214-4.819 0-14.894 11.39-26.722 30.664M1065.77 62.432c-16.646 9.199-34.607 18.836-39.425 21.465-4.82 2.19-12.704 7.009-17.085 9.637-69.652 45.12-114.773 80.166-119.154 92.87-3.942 11.39 71.843 84.108 81.48 78.413 10.514-6.57 46.435-53.005 67.024-85.86 25.846-42.054 64.396-117.84 64.396-127.039 0-10.075-1.752-9.637-37.236 10.514M264.55 48.414c-1.314 2.19 2.629 13.58 8.762 24.97 21.903 41.177 33.292 60.89 41.616 74.032 4.38 7.01 9.637 16.208 11.39 19.713 3.942 9.2 50.377 69.214 66.585 86.737 7.447 8.323 15.332 14.018 17.085 13.142 8.323-3.943 75.347-77.1 75.347-82.794-.438-9.2-91.556-75.348-131.42-95.498-10.951-5.257-28.474-14.457-38.987-20.59-10.514-5.694-21.904-10.513-24.532-10.513-3.066 0-7.885-3.066-10.952-6.571-6.132-7.447-11.39-8.323-14.894-2.628m417.914-68.777c-2.629 5.695-7.885 15.333-12.266 21.904-3.943 6.133-13.142 21.027-20.151 32.854-7.009 11.39-25.846 40.74-41.616 64.834s-29.788 45.559-30.665 48.187c-.876 2.19-7.447 11.39-14.018 20.151-7.009 8.761-12.704 17.085-12.704 18.399s-10.513 17.96-23.217 36.797c-30.226 44.245-68.776 109.516-68.776 116.525 0 3.067-1.752 7.448-3.943 9.638-12.265 12.704-22.341 60.453-22.341 103.821 0 45.559 4.38 64.396 24.532 103.821 17.084 33.731 97.25 105.574 117.4 105.574 10.515 0 8.762-3.504-11.827-23.217-39.426-38.55-52.13-67.462-52.568-120.03-.438-52.13-1.314-49.94 77.976-180.045 2.628-4.38 12.704-19.713 23.217-35.045 10.076-15.332 18.4-28.912 18.4-30.226s5.256-9.638 12.265-18.399c14.018-18.837 21.465-30.226 26.722-42.054 2.628-4.819 9.2-14.894 15.332-21.903l11.39-13.142 11.39 13.142c6.132 7.009 12.703 17.084 15.332 21.903 5.257 11.828 12.704 23.217 27.16 42.054 6.57 8.761 11.827 17.523 11.827 18.837s8.762 15.332 19.713 31.54c10.952 15.77 19.713 29.35 19.713 29.789 0 .876 8.324 14.018 18.837 29.35 22.341 33.731 34.607 55.196 49.501 87.175 9.638 20.589 11.39 30.227 11.39 65.71.438 53.882-11.828 82.356-52.13 121.344-20.589 19.712-22.341 23.217-11.827 23.217 22.34 0 102.507-74.033 118.715-109.954 22.341-49.063 23.218-51.692 23.218-98.565 0-44.244-10.076-91.993-22.342-104.697-2.19-2.19-3.942-6.571-3.942-9.638 0-7.009-38.55-72.28-68.776-116.525-12.704-18.837-23.218-35.483-23.218-36.797s-5.695-9.638-12.704-18.399c-6.57-8.761-13.142-17.96-14.018-20.15-1.752-4.382-53.882-84.985-69.214-107.327-4.38-6.133-8.761-14.018-10.514-17.522-1.752-3.505-7.009-12.704-11.827-19.713-4.82-7.447-10.514-17.523-13.142-23.218-2.19-5.256-7.885-9.637-13.142-9.637s-10.952 4.38-13.142 9.637" style="stroke-width:.438065"/>
</svg>
