<svg xmlns="http://www.w3.org/2000/svg" width="1200" height="960">
    <path d="M875.182 825.6c-7.212 5.74-13.246 11.775-13.688 13.54-.441 1.767-.588 12.805-.441 24.58.441 18.25.736 21.34 2.796 21.782 2.06.295 32.821-21.193 39.591-27.817 1.178-1.177 5.004-4.268 8.537-6.917 3.385-2.796 6.181-6.034 6.181-7.359 0-3.09-24.873-28.258-27.964-28.258-1.177 0-7.947 4.71-15.012 10.45m-581.502 2.65c-7.065 7.359-12.805 13.835-12.805 14.718 0 3.826 49.452 42.829 54.456 42.829 2.355 0 2.944-5.005 2.944-26.051v-21.34l-5.593-5.447c-10.744-10.302-20.752-17.808-23.549-17.808-1.619 0-8.242 5.74-15.453 13.099m18.397-158.07c-11.627 6.917-21.341 12.51-21.783 12.51-1.324 0-20.605 12.363-21.488 13.835-1.471 2.208 2.208 7.948 17.662 28.405 15.895 20.9 45.184 51.954 49.01 51.954 2.797 0 2.797-2.06 2.502-59.165-.441-51.366-.736-59.313-2.649-59.608-1.177-.294-11.627 5.152-23.254 12.069m549.712-12.952c-1.766 1.62-1.178 119.362.589 120.392 3.973 2.502 41.798-39.002 61.667-67.408 8.39-12.068 8.684-14.276 2.06-17.808-1.47-.883-5.592-3.385-9.124-5.74-3.532-2.208-6.623-3.974-7.065-3.974-.588 0-27.08-15.454-32.968-19.133-3.238-2.06-13.099-7.359-13.687-7.359-.295 0-1.03.442-1.472 1.03m46.95-150.858c-.295 2.65-1.472 10.744-2.355 18.103-.883 7.212-2.796 17.809-3.974 23.549-2.355 10.597-11.774 42.387-13.835 46.36-3.826 7.801-10.155 24.433-10.155 26.64 0 1.62 3.09 4.416 8.536 7.506 4.563 2.65 9.714 5.593 11.333 6.623 1.62 1.03 3.974 2.208 5.151 2.797 1.178.589 6.918 3.974 12.805 7.506 5.74 3.532 11.038 6.329 11.627 6.329s2.208.883 3.385 2.06c3.68 3.09 16.19 9.714 18.545 9.714 3.68 0 18.839-34.293 27.67-62.551 8.094-25.609 15.306-64.759 16.042-86.1l.441-12.51-42.24-.441-42.24-.295zm-700.423-5.004c-3.532.736-3.68 2.65-1.766 22.371 2.943 29.73 11.48 68.733 20.605 92.723 7.8 20.9 20.458 48.569 22.224 48.569.589 0 15.16-8.242 25.609-14.424 10.597-6.328 39.444-22.96 43.418-25.02 4.71-2.502 4.562-4.121-.59-15.307-8.241-17.808-17.808-45.184-17.808-51.07 0-1.767-.588-4.563-1.472-6.035-1.177-2.355-6.623-34.587-7.653-46.361l-.441-4.416-39.886-.736c-21.93-.441-40.915-.588-42.24-.294M935.82 308.268a394 394 0 0 1-13.982 8.095c-1.62.736-4.268 2.207-5.887 3.238-1.62 1.03-10.744 6.328-20.311 11.774-19.722 11.627-19.722 11.627-13.099 26.345 9.42 20.752 12.363 29.583 19.87 60.785 1.177 4.857 2.943 15.159 3.973 22.812 2.65 22.077 2.944 23.255 5.298 24.138 4.121 1.619 77.122 1.03 80.213-.59 2.649-1.471 2.796-2.796 2.06-13.687-.883-12.216-3.974-33.998-6.917-47.391-.736-4.121-2.06-10.303-2.797-13.982-1.324-6.918-7.506-27.817-10.89-36.795-11.775-32.085-20.9-51.512-24.138-51.512-1.325.147-7.359 3.09-13.393 6.77m-689.238-3.385c-7.358 11.332-21.34 47.686-28.11 73.147-1.472 5.299-3.533 12.952-4.71 17.073s-2.06 9.272-2.06 11.48c0 2.355-.884 7.948-2.061 12.51-1.178 4.563-2.502 14.13-3.091 21.488-.442 7.212-1.178 15.013-1.62 17.073-.44 2.502.148 4.857 1.62 6.329 2.06 2.06 7.212 2.355 39.738 2.355 20.752 0 39.002-.59 41.063-1.472 3.238-1.178 3.827-2.355 3.827-6.918 0-7.506 4.12-33.41 6.623-42.534 1.177-4.121 2.207-8.39 2.207-9.567 0-5.887 16.926-51.954 20.9-56.81 3.385-4.269-.148-8.537-13.1-15.896-7.064-4.121-15.747-9.125-19.427-11.333-3.827-2.207-7.8-4.562-8.978-5.151s-7.653-4.268-14.276-8.095c-6.476-3.826-12.952-7.064-14.13-7.064-1.177 0-3.09 1.471-4.415 3.385m313.932-51.807c-19.133 3.532-32.526 7.359-44.89 12.51-30.465 12.657-55.485 28.994-76.385 49.746-35.764 35.47-55.486 71.235-66.525 121.57-2.649 11.921-2.796 22.665-2.796 237.693V899.78l14.718 9.713c19.722 13.1 37.972 22.666 40.916 21.488 2.354-.883 2.502-12.51 2.502-147.473 0-99.492.441-146.442 1.471-146.442.884 0 3.533 2.355 6.035 5.151 6.328 7.065 24.726 22.224 38.855 31.79 41.21 27.965 94.489 41.505 144.676 36.795 30.32-2.943 55.781-10.008 80.507-22.37 24.873-12.511 38.266-21.636 56.811-39.298 7.8-7.359 14.57-13.098 15.16-12.51.44.442.882 66.966.882 147.62s.442 147.032.884 147.62c.441.442 2.649 0 4.71-.883 7.064-3.09 36.205-20.457 44.153-26.345l7.653-5.74V676.361c0-212.378-.147-223.122-2.796-236.516-5.151-25.903-9.125-37.677-21.194-63.286-21.047-44.301-67.113-87.572-114.652-107.735-20.016-8.536-29.436-11.333-53.426-16.042-19.427-3.68-56.958-3.68-77.269.294m75.797 92.428c10.744 3.238 11.48 3.385 23.549 8.978 30.319 13.982 57.4 43.712 69.321 75.797 6.917 18.544 8.39 27.67 8.39 50.04 0 25.61-2.356 36.5-12.953 60.344-8.094 18.544-30.76 44.448-48.569 55.928-41.062 26.345-91.545 30.024-134.52 10.008-35.912-16.779-65.348-51.66-75.65-89.485-7.212-26.786-5.446-62.11 4.415-86.835 18.103-45.773 59.902-80.36 105.527-87.719 13.688-2.207 49.01-.441 60.49 2.944m306.426-169.403c-7.064 7.065-12.804 13.982-12.804 15.454 0 1.325 2.207 5.004 4.856 7.948 11.333 12.804 40.769 54.162 40.769 57.4 0 .588.883 2.06 2.06 3.237 3.386 4.121 18.545 33.999 25.904 51.66 16.042 38.708 25.02 71.823 31.643 117.154 2.797 19.28 3.238 84.922.736 101.406-.883 5.593-1.913 13.54-2.355 17.662-.736 7.506-2.502 16.337-7.947 39.738-8.831 37.236-26.934 82.714-45.331 113.769-2.65 4.268-4.71 8.095-4.71 8.39 0 2.648-31.055 46.066-40.769 57.104-2.649 2.944-4.856 6.624-4.856 8.095 0 3.238 25.02 28.259 28.11 28.259 1.325 0 3.386-1.178 4.416-2.797 1.177-1.472 7.065-8.83 13.099-16.484 6.034-7.506 12.804-16.337 15.16-19.722 8.683-12.363 20.163-30.024 23.106-35.47 1.767-3.09 4.269-7.8 5.74-10.155 3.827-6.476 13.982-26.64 18.25-36.059 22.077-49.6 35.029-98.168 40.769-151.888 1.913-18.692 1.913-75.356-.147-96.108-3.532-37.53-15.16-87.277-27.817-119.95-1.766-4.416-3.68-9.714-4.415-11.775-2.06-6.623-18.84-41.798-25.61-53.72-19.133-34.145-56.958-86.1-62.55-86.1-1.325 0-8.242 5.74-15.307 12.953m-704.69-11.627c-1.178 1.472-7.36 9.273-13.836 17.22-10.45 12.952-19.133 24.726-25.756 35.176-17.956 28.258-31.643 53.867-43.123 81.684-10.303 24.726-20.31 56.517-25.168 79.476-8.683 41.8-10.302 57.694-10.155 105.233 0 40.474 1.177 58.577 5.74 82.42 3.532 17.809 10.744 49.158 13.393 57.4 15.601 48.274 30.025 79.329 58.283 125.102 1.03 1.471 8.389 11.774 16.484 22.812 15.748 21.488 25.167 32.38 27.817 32.38.883 0 7.358-5.74 14.423-12.805 13.099-13.099 15.307-17.22 10.744-21.047-3.385-2.796-27.522-35.028-33.998-45.33-10.008-16.19-10.597-17.073-14.424-23.843-3.68-6.33-18.103-35.47-22.37-44.89-6.918-15.6-17.22-46.508-21.636-65.494-11.038-46.656-12.069-55.192-12.069-105.969 0-52.837.883-60.49 12.658-109.648 3.532-15.012 15.6-52.248 17.661-54.456.736-.736 1.325-2.208 1.325-3.385 0-2.502 20.605-44.89 26.933-55.34 9.567-15.895 23.402-36.058 34.44-50.04 17.514-22.077 17.367-18.397.736-35.176-7.8-7.8-14.718-14.276-15.16-14.276-.588 0-1.913 1.325-2.943 2.796m573.848-14.129c-1.177 1.03-6.181 8.684-11.038 17.22s-13.246 22.96-18.692 32.232c-5.298 9.125-10.155 18.25-10.597 20.017-.735 2.943 1.325 5.004 14.424 14.865 19.133 14.423 47.391 42.976 60.785 61.373 5.74 7.8 11.185 14.276 12.363 14.276s8.83-3.826 16.925-8.683c8.242-4.71 17.514-10.156 20.752-11.922s11.333-6.476 18.103-10.45c6.623-3.973 12.805-7.211 13.54-7.211.737 0 1.62-1.325 2.208-2.796.59-1.914-1.471-6.035-6.034-12.805-24.284-35.912-65.053-76.827-100.964-101.112-7.8-5.445-10.156-6.328-11.775-5.004M372.125 158c-37.088 26.345-73.883 63.58-97.284 98.315-6.182 9.42-7.212 13.835-3.091 15.306 1.325.59 10.45 5.74 20.163 11.48s18.692 10.892 19.87 11.48c1.177.589 3.532 1.914 5.15 2.944 10.892 6.623 22.96 12.952 24.138 12.51.736-.147 6.034-6.623 11.774-14.13 11.039-14.57 16.632-20.899 29.436-33.85 10.008-10.008 32.82-29.436 40.327-33.998 2.944-1.767 5.446-4.416 5.446-5.74 0-1.472-2.65-7.212-6.035-12.805-3.385-5.74-6.623-11.627-7.359-13.246-.883-1.619-2.207-4.268-3.238-5.887-1.03-1.62-4.415-7.506-7.653-13.246-3.238-5.593-6.623-11.627-7.653-13.246-.883-1.62-2.797-5.004-4.121-7.654-4.563-8.683-5.151-8.536-19.87 1.767m245.789-29.583c0 25.461.589 42.24 1.472 42.829.736.441 7.212 1.471 14.276 2.354 15.454 1.767 29.73 4.71 50.482 10.45 16.779 4.563 19.28 5.446 38.561 13.688 6.918 2.943 13.835 5.15 15.16 4.857 1.324-.148 4.856-4.71 7.8-10.009 6.77-11.921 23.254-40.474 28.7-49.746 5.445-9.42 5.887-10.302 5.004-12.657-1.178-3.091-19.428-11.333-52.543-23.696-24.726-9.272-77.269-19.87-98.315-19.87h-10.597zm-73.59-39.297c-22.665 3.827-41.21 8.095-65.494 15.16-18.691 5.445-59.607 23.695-59.607 26.491 0 .884 1.619 4.416 3.385 7.8 17.073 30.467 27.817 49.159 28.994 51.072.736 1.177 2.502 4.268 3.827 6.917 3.974 8.095 5.298 8.39 14.865 4.121 19.427-8.978 27.08-11.921 42.387-16.19 18.986-5.445 31.644-7.947 49.6-10.155 8.683-1.03 16.778-2.796 18.102-3.826 1.914-1.62 2.208-7.654 2.208-40.474 0-21.341-.441-39.739-.883-41.063-1.177-2.944-19.133-2.944-37.383.147m10.303-87.718c-38.12 3.532-86.246 14.57-120.686 27.816-4.416 1.766-9.714 3.68-11.775 4.416-18.102 5.887-63.728 30.024-87.57 46.36-14.13 9.567-18.25 12.658-32.38 23.697-16.19 12.804-21.34 17.661-21.34 19.722 0 2.354 25.903 27.963 28.257 27.963 1.03 0 8.537-5.298 16.631-11.921 13.1-10.45 48.128-35.176 50.041-35.176.442 0 3.533-1.766 7.065-3.974 7.506-4.71 37.089-19.427 48.127-23.99 4.416-1.766 10.156-4.268 12.805-5.298 2.502-1.177 5.298-2.06 6.181-2.06s3.68-.884 6.329-2.061c18.839-7.8 53.279-16.043 90.22-21.635 20.458-3.091 74.914-3.385 98.463-.736 24.431 2.796 56.958 9.125 73.736 14.276 15.748 4.857 40.327 13.54 52.543 18.692 15.601 6.77 44.742 21.635 48.422 24.726 1.177 1.177 2.65 2.06 3.238 2.06 3.238 0 43.712 28.847 58.282 41.505 3.533 3.09 7.507 5.592 8.684 5.592 3.09 0 28.258-25.02 28.258-28.11 0-1.325-3.532-5.3-7.653-8.831-4.268-3.385-8.39-6.918-9.272-7.8-2.06-2.208-15.601-12.511-27.228-20.606-24.138-16.778-61.374-37.53-86.1-47.833-6.476-2.65-12.804-5.445-14.276-6.034-2.06-1.178-20.31-7.36-40.916-13.835-21.488-6.77-62.698-14.423-91.398-17.073-19.722-1.766-66.377-1.619-86.688.148" style="stroke-width:.147178"/>
</svg>
