<svg xmlns="http://www.w3.org/2000/svg" width="2476" height="960">
    <path d="M2088.442 60v126.204h122.198V97.06A37.06 37.06 0 0 0 2173.58 60zm145.54 0v126.204h122.198V97.06A37.06 37.06 0 0 0 2319.12 60zm16.026 16.552h62.807a27.34 27.34 0 0 1 27.34 27.34v65.76h-90.147zM2356.18 221.59l-247.707.004c-19.952.07-39.458 1.904-56.41 4.904l-1.498.139c-106.158 16.08-192.346 97.615-211.192 204.244-7.594 42.97-7.002 79.236-7.084 119.086-.089 43.72-.777 90.408 4.365 130.666 15.518 121.491 118.666 215.537 244.028 219.095h275.498V760.203l-265.148.413c-65.854 0-116.882-52.309-122.084-117.587-4.516-56.672-.212-108.94 0-162.558.183-46.32 26.8-86.265 66.356-105.868 20.874-10.835 44.551-17.096 69.76-17.44h251.116zm-579.756 1.498-133.938.004v389.955h-214.87V223.773h-134.62V613.73h-105.735c-34.602-3.349-63.287-26.499-74.938-58.589-7.655-20.041-11.85-41.74-11.85-64.448V223.229H960.947v263.375c.767 27.347 4.826 53.963 11.174 76.984l.272 1.362c21.278 105.13 114.226 184.35 225.636 184.35l578.395-.139zm-862.21.137-561.11.006c-57.912 2.843-117.287 15.6-161.094 55.655-50.151 42.686-75.906 109.613-71.757 174.874-.119 148.747.15 297.493.15 446.24h399.63V629.944h395.542v-137.48H521.397v-64.315c1.322-27.491 18.725-50.816 43.328-61.178 15.32-7.199 32.393-11.309 50.413-11.309h299.076zM392.62 239.781h131.003c-.738.264-1.485.522-2.215.792-79.491 29.669-136.128 106.198-136.128 196.03l.13 446.845H251.494c.178-152.824-.485-305.662.366-458.473 3.877-82.26 61.589-158.339 139.505-184.744.417-.155.838-.298 1.256-.45"/>
</svg>
