<svg xmlns="http://www.w3.org/2000/svg" width="722" height="960">
    <path d="M361-30c-36.29 22.887-67.06 53.1-93.954 86.368-68.006 88.171-104.311 197.2-123.862 305.978-25.471 145.374-28.58 295.837-16.03 442.578h467.692c12.55-146.741 9.441-297.204-16.03-442.578-19.55-108.778-55.856-217.807-123.862-305.978C428.06 23.101 397.29-7.113 361-30m0 80.199c47.796 37.62 80.645 91.807 106.145 146.334 49.468 113.604 65.249 238.786 67.837 361.723-.376 62.028 3.171 123.598-2.584 185.393H189.602c-5.755-61.795-2.208-123.362-2.584-185.39 2.588-122.938 18.37-248.122 67.837-361.726C280.355 142.006 313.204 87.82 361 50.2M127.154 836.187v63.776h467.692v-63.776zm0 90.037V990h467.692v-63.776z" style="stroke-width:1.25051"/>
</svg>
