<svg xmlns="http://www.w3.org/2000/svg" width="1120" height="960">
    <path d="M239.24-120c-3.91 0-5.862 1.957-4.396 4.89 1.466 2.443 6.356 4.888 10.266 4.888s5.861-2.445 4.395-4.889c-1.466-2.932-6.356-4.889-10.265-4.889m587.138 20.56c-3.421.1-8.9.945-17.33 2.412-6.842.977-14.17 4.885-17.102 7.817-2.443 3.42-18.084 14.663-34.21 24.925-35.674 23.457-36.162 23.947-101.157 89.431-29.321 28.833-52.78 54.243-52.78 57.175 0 2.444-2.926 8.303-6.836 12.213-8.796 9.773-12.221 40.564-4.402 43.008 7.819 2.932 40.56-26.876 40.56-37.139 0-12.217 26.392-48.385 52.293-71.842 13.194-11.729 28.829-26.383 35.67-32.736 25.9-23.945 71.84-60.6 88.944-70.862 9.774-5.864 19.058-14.172 20.524-18.082 1.527-4.581 1.53-6.488-4.174-6.32m-538.024 4c-8.674 0-16.858 1.585-16.858 4.761 0 2.444 7.332 8.308 16.128 12.706 15.15 8.308 23.453 14.664 76.23 59.623 55.222 47.403 82.588 77.212 97.249 106.533 31.275 62.552 72.819 69.878 44.475 8.304C494.828 73.03 399.041-26.66 365.322-49.138c-9.774-6.842-25.902-17.59-36.165-24.432-9.773-6.353-19.055-14.177-21.01-17.109-1.954-3.176-11.119-4.76-19.793-4.76M187.641 75.642c-3.072.232-3.987 2.705-2.154 7.653 1.466 4.398 2.935 9.776 2.935 12.22 0 6.84 44.468 48.378 61.083 57.174 28.832 14.66 64.997 44.47 82.1 67.927 9.286 12.706 25.413 31.277 34.698 40.073 21.99 21.502 22.48 35.188 1.467 54.247-8.796 7.819-23.46 28.832-32.256 45.936-17.593 33.23-36.162 56.688-45.936 56.688-3.42 0-20.034 13.194-37.138 29.321-17.104 15.638-40.564 32.738-52.293 37.625-27.855 11.24-26.874 22.971.981 24.926 18.081 1.466 23.452-.977 50.818-23.945 27.366-22.48 32.258-24.928 48.384-22.485 10.263.977 21.99.49 25.9-1.954 4.886-2.444 17.591-1.465 33.23 3.421 14.66 4.399 27.364 5.866 29.807 3.422 2.444-2.443 2.446-15.634-.487-30.294-7.33-39.095-5.863-54.737 5.376-66.954 5.865-6.353 11.726-18.083 13.68-26.88 2.444-12.217 8.314-18.567 25.907-28.34 12.706-6.842 27.362-18.084 32.249-24.926 11.24-14.172 31.767-24.923 68.907-36.651 26.39-7.82 26.388-7.817 55.22 4.889 33.72 15.149 88.94 67.44 112.396 106.045 15.15 25.9 16.618 36.16 12.22 86.983-.978 11.24.49 12.216 16.128 11.239 9.285-.489 33.225-.974 52.772-.974 33.23-.488 36.651.975 58.642 17.102 12.706 9.774 23.462 19.548 24.44 21.99 2.443 5.865 33.231 10.752 47.403 7.331 18.57-4.887 14.656-11.726-11.733-24.432-13.194-5.864-37.63-22.971-54.734-37.632-16.615-14.172-34.695-28.343-40.56-31.275-10.262-5.376-29.806-31.276-44.955-60.597-4.887-9.773-17.104-26.879-27.367-38.119-20.036-21.99-22.482-31.27-12.22-41.533 3.422-3.421 22.48-24.922 42.028-47.89 30.299-35.186 76.235-73.303 87.964-73.303 8.796 0 58.153-52.782 60.596-65 2.932-17.592-4.886-17.104-31.275 3.91-22.48 17.592-43.98 29.81-95.78 56.687-28.833 14.66-99.203 79.655-99.203 91.872 0 2.444-4.401 7.333-10.265 10.265-14.66 7.82-30.298-3.909-38.606-29.32-4.398-13.195-14.17-26.393-27.854-37.633-11.728-9.773-22.479-22.476-23.945-28.34-2.443-10.263-4.396-10.755-35.184-8.311-18.081 1.466-33.72 4.892-34.697 7.824s-12.22 15.15-24.926 27.367c-22.48 21.502-24.922 26.39-31.275 54.734-5.864 25.9-34.209 23.45-49.358-3.916-12.706-23.946-61.085-66.456-91.872-82.094-44.959-22.48-78.679-42.03-100.67-59.623-14.355-10.995-25.467-16.836-30.588-16.45m362.406 268.615c-20.036 0-26.876 2.928-44.469 17.588-30.298 25.412-35.678 34.7-35.678 63.532 0 29.81 5.867 42.512 32.256 64.992 25.9 22.48 60.593 26.882 83.561 9.778 34.697-25.411 42.029-34.699 45.45-56.2 5.375-37.63-.485-52.29-30.295-77.212-24.434-19.548-30.3-22.478-50.825-22.478M342.844 534.843c-10.75.49-24.437 2.93-30.301 6.35-43.005 25.412-59.62 61.09-47.89 101.65 5.864 20.037 11.24 26.875 32.742 41.047 30.787 20.525 49.847 21.993 78.68 4.89 28.343-16.616 35.672-25.412 42.513-51.313 8.797-34.696 0-58.153-30.788-82.587-20.036-16.127-28.34-20.037-44.956-20.037m414.892 0c-16.616 0-25.407 3.911-43.488 18.083-37.14 30.298-45.448 76.234-20.037 111.908 10.751 16.127 48.376 36.158 66.946 36.158 35.186-.489 82.101-47.402 82.101-82.588 0-38.606-45.939-83.56-85.522-83.56m-160.171 44.068c-3.954-.392-9.19 1.864-15.756 6.75-9.774 6.842-9.772 5.866-7.817 98.716 1.466 67.927 5.863 79.655 40.56 104.578 11.728 8.308 21.992 20.035 23.458 25.9 2.444 8.796 6.844 10.753 26.88 12.22 13.683.977 26.876 4.4 29.808 8.31s16.127 9.28 29.321 12.213 31.767 10.75 41.54 16.614c9.286 6.353 27.851 12.708 41.534 14.174 13.195 1.466 39.097 5.379 58.156 8.311 38.606 6.353 49.846 2.44 78.679-26.393 8.307-8.308 21.012-19.543 27.853-24.919 36.652-26.878 36.655-35.188.981-70.862-15.15-14.66-28.347-32.25-30.302-39.092-6.353-28.344-40.56-47.408-40.56-22.485 0 19.548-5.373 27.367-22.477 34.697-18.57 7.82-21.502 20.527-9.285 41.541 6.842 12.217 9.77 34.21 4.395 34.21-2.932 0-12.216-6.846-45.936-33.723-17.592-13.683-31.761-10.75-26.386 5.376 6.353 21.013 4.886 25.9-8.797 27.367-9.774.977-13.687-.488-13.687-5.863 0-7.82-18.082-22.478-27.367-22.478-2.932 0-13.683 5.865-23.945 12.706l-18.57 12.213-12.706-11.726c-6.841-6.841-17.594-14.663-23.458-17.595-6.353-2.932-11.24-8.795-11.24-13.193 0-3.91-5.37-12.709-12.211-19.55-14.172-14.172-21.991-27.855-21.991-38.606 0-4.398-5.865-20.035-12.707-35.184-10.75-22.48-12.71-31.277-9.778-52.78 3.024-26.877.51-40.583-8.19-41.447m-89.567.422c-3.913.082-7.856 2.333-11.704 6.822-3.91 4.399-5.38 22.476-4.403 52.286 1.466 53.755-.975 63.04-24.432 91.872-24.434 30.299-24.926 31.276-46.916 42.027-16.127 7.33-20.033 12.22-21.01 24.926-1.955 21.991-11.238 28.346-31.763 21.504-9.285-3.42-21.996-11.242-27.86-17.595-13.195-13.683-27.856-15.64-42.028-4.89-13.683 10.263-20.037 8.798-27.367-5.862-3.42-7.33-12.214-14.66-19.056-16.615-16.615-4.398-58.155-44.958-58.155-57.175 0-5.375 3.42-12.22 7.33-15.641 11.24-9.285 8.797-19.543-3.908-19.543-14.172 0-23.942 10.26-37.625 39.093-5.865 12.217-16.62 34.21-24.44 48.87-21.013 40.073-19.543 50.822 11.733 81.12 38.606 37.63 48.865 42.024 88.937 35.671 18.57-2.443 45.936-6.836 60.597-8.79 14.66-1.955 36.163-8.797 47.403-14.661 11.24-5.375 23.944-10.265 27.854-10.265s13.687-5.373 21.017-11.726c10.751-8.796 21.5-12.71 41.047-13.687 22.968-1.466 26.387-2.934 27.854-12.22.977-6.352 8.798-15.143 19.55-21.496 9.773-5.376 23.46-17.105 30.301-25.413 11.24-14.172 12.214-20.039 15.634-90.898 2.444-62.552 1.956-78.185-3.908-87.47-4.673-6.872-9.652-10.349-14.682-10.244m78.636 268.207c-6.414.306-12.398 3.237-12.642 8.369-2.932 37.628 8.798 74.77 23.458 74.77 4.398 0 12.707 3.909 18.082 9.284C631.66 954.135 655.606 960 697.633 960c44.47 0 68.903-9.776 66.46-26.88-1.467-8.308-6.356-10.261-32.257-13.193-17.104-1.955-36.158-6.356-41.533-10.266-5.864-3.909-17.105-8.303-25.413-10.258-16.615-4.398-58.646-33.724-63.045-44.475-1.954-5.376-8.797-7.693-15.211-7.388m-77.212.745c-4.948.137-8.246 1.516-8.246 3.715 0 7.819-58.15 49.358-68.9 49.358-5.376 0-14.663 3.419-21.505 7.817-6.353 3.91-23.945 8.8-38.605 10.265C303.26 926.77 338.445 960 414.68 960c37.629 0 43.495-1.468 56.201-12.22 8.308-6.841 21.5-14.663 29.808-17.595 12.706-4.398 16.619-9.771 22.971-31.762 10.263-35.674 7.818-47.89-8.797-49.845-1.955-.244-3.791-.34-5.44-.293z" style="stroke-width:.488684"/>
</svg>
