<svg xmlns="http://www.w3.org/2000/svg" width="1036" height="960">
    <path d="M753.88-29.906c-1.84-.18-3.521-.157-4.669.56-29.483 19.443-26.19 58.638-52.231 82.798-74.936 14.885-114.748 71.932-152.647 138.453L732.03 297.736c26.902-36.177 63.795-40.61 102.968-37.04 3.295.535 6.705.87 10.147.87 24.511 0 45.621-14.473 55.406-35.733 2.291-4.423 7.239-7.618 15.502-15.875-9.595-67.668-31.567-129.457-101.786-149.347-41.18-10.869-41.63-37.58-50.363-65.055-2.582-8.032 3.453-17.762-4.42-24.902-1.785 0-3.762-.38-5.603-.56m74.145 162.732h29.881c.989 5.418 1.841 24.49 2.989 30.068-14.312 8.32-33.859-6.195-32.87-30.068m-293.34 83.545c-5.451 5.705-15.288 11.29-16.436 18.302-4.877 29.452-30.907 39.367-50.924 45.072-14.311 4.144-28.581 10.686-42.893 14.256-80.96 17.02-146.464 60.508-204.38 117.722-14.31 14.312-23.5 33.616-36.791 49.617-34.106 42.36-55.363 96.36-57.212 155.199v.435c-4.43 78.379-6.1 157.34-6.1 236.005V990h364.683V677.921l50.052-73.958c3.727 20.975 11.692 39.625 22.91 55.78 2.709 9.02 2.887 20.322-2.117 20.481-.287 5.61-.498 12.171-.498 18.801 0 17.786 1.193 35.3 3.424 52.48l-.25-2.054c.702 45.612 20 89.13 12.7 135.029a59 59 0 0 0 4.047 19.983c5.106 32.408 24.916 56.939 38.598 85.412h107.139V949.66c-10.455-37.77-47.613-27.324-65.367-52.79 8.16-68.084-11.693-141.013 11.766-211.104-7.14-30.185 9.555-57.209 12.264-86.533 2.645-28.049 13.585-53.128 30.255-73.273l-.186.187h-.063c28.591-31.173 55.772-60.188 60.075-104.524 0-3.857 5.49-8.31 5.043-12.327l-34.053-79.934c-72.386-34.169-134.162-81.658-205.687-112.99" style="stroke-width:31.874"/>
</svg>
