<svg xmlns="http://www.w3.org/2000/svg" width="960" height="960">
    <path d="M467.272 739.71c-5.577 3.252-13.943 7.435-17.66 9.294-3.719 1.86-19.52 12.084-34.857 22.308-41.363 27.885-45.545 30.209-55.77 34.856-5.112 2.324-14.872 9.295-21.843 15.802-13.013 12.083-13.013 12.548-13.013 75.289 0 60.882.465 62.741 9.76 62.741 5.577 0 17.66-6.042 27.42-13.942 9.76-7.436 19.055-13.943 20.914-13.943s11.154-6.042 20.913-13.942 19.055-13.943 20.914-13.943 11.619-6.506 22.308-14.872c24.632-19.52 42.292-19.52 66.924 0 10.689 8.366 20.449 14.872 22.308 14.872s11.154 6.507 20.913 13.943c9.76 7.9 19.055 13.942 20.914 13.942s11.154 6.042 20.914 13.943c9.76 7.436 21.843 13.942 27.42 13.942 9.295 0 9.76-1.859 9.76-62.741 0-62.741 0-63.206-12.549-75.29-7.436-6.506-17.195-13.477-22.308-15.8-10.224-4.648-14.407-6.972-57.164-35.786-16.266-10.69-31.138-19.52-32.997-19.52-2.324 0-6.506-2.788-9.295-6.506-8.365-9.76-21.843-11.62-33.926-4.648M431.95 284.254c-16.266 11.154-30.209 20.45-30.674 20.45-.93 0-34.391 21.843-74.824 48.798-39.969 26.955-74.36 48.799-75.29 48.799-1.394 0-10.224 6.041-19.984 13.942-9.76 7.436-18.59 13.943-19.984 13.943-8.83 0-85.049 57.628-87.837 66.459-1.395 5.577-2.789 95.738-3.254 199.842-.464 160.338.465 189.617 6.042 191.94 3.718 1.395 25.096-9.759 47.87-24.631 22.307-14.872 42.756-27.885 45.08-28.814 1.859-.93 17.196-10.69 33.462-21.844s30.673-20.449 32.067-20.449 15.802-9.294 32.997-20.913c16.731-11.619 31.139-20.914 32.068-20.914.93 0 15.337-9.295 32.068-20.914 17.196-11.618 31.603-20.913 32.532-20.913 1.395 0 15.802-9.295 32.533-20.914 33.462-22.773 40.433-24.632 49.263-13.942 3.253 3.718 7.9 6.97 10.224 6.97 2.789 0 12.549 6.043 22.308 13.943 9.76 7.436 19.055 13.943 20.45 13.943s16.266 9.295 33.461 20.913c16.731 11.62 31.603 20.914 32.997 20.914 1.395 0 10.225 6.507 19.985 13.943s18.59 13.942 19.984 13.942c.93 0 35.32 21.843 75.29 48.799 40.432 26.955 74.359 48.798 75.753 48.798s6.042 3.253 10.69 7.436 11.618 6.507 15.8 5.112c6.043-2.788 6.972-26.49 6.972-193.335 0-109.216-1.859-195.194-4.648-202.166-3.253-8.83-54.84-49.263-63.205-49.263-.93 0-15.337-9.295-32.533-20.914-16.73-11.618-31.138-20.913-32.067-20.913-.465 0-24.632-15.802-53.446-34.857-28.815-19.054-52.982-34.856-53.447-34.856-.93 0-24.631-15.801-52.98-34.856-64.136-42.757-72.502-44.151-115.723-13.478M562.08 389.29c43.22 26.49 84.119 51.587 91.09 55.77 6.971 4.647 16.731 10.224 21.843 13.012 5.113 2.789 15.802 8.83 23.238 13.943 7.9 5.112 18.125 11.154 23.237 13.942s15.802 8.83 23.238 13.943c7.9 5.112 17.195 10.689 20.913 12.083 3.718 1.86 11.619 7.436 17.66 12.549 10.225 9.294 10.225 10.689 10.225 140.354 0 72.036-1.394 131.988-2.788 133.382-1.395 1.86-69.713-41.827-151.508-96.667-82.26-54.84-152.438-99.456-156.156-99.456s-13.942 5.112-22.308 11.618-16.73 11.619-18.125 11.619c-1.86 0-11.154 6.042-20.914 13.942-9.76 7.436-19.054 13.943-20.913 13.943s-11.154 6.042-20.914 13.942c-9.76 7.436-18.59 13.943-19.984 13.943-.93 0-34.857 21.843-74.36 48.334-39.969 26.49-81.796 53.91-92.95 60.882l-20.914 12.083-2.323-13.013c-1.395-6.971-1.86-65.53-1.395-129.665.465-133.847-2.323-123.623 46.01-155.69 14.873-10.225 27.886-18.126 28.815-18.126s14.872-8.83 31.138-19.52c16.266-11.153 32.997-21.842 37.18-24.63 8.83-5.113 67.389-41.828 86.443-54.376 6.971-4.648 15.337-9.76 19.055-11.154 3.253-1.86 16.73-10.225 29.28-19.055 13.012-8.366 26.49-15.337 30.208-15.337 4.183 0 42.757 21.379 85.978 47.405M470.99-30.844c-5.113.93-17.66 7.436-27.885 13.942C432.415-9.93 420.332-2.494 416.149.294c-4.183 2.324-22.772 13.943-40.898 25.561-18.125 11.619-36.715 23.238-40.898 25.561-4.182 2.789-20.913 13.478-37.18 24.632-16.266 10.69-30.208 19.52-31.602 19.52-5.113 0-49.264 34.856-52.982 41.827-5.577 10.224-6.041 217.967-.93 225.868 2.325 3.718 7.437 2.324 17.197-3.253 7.9-5.113 17.195-10.225 20.913-12.084 3.718-1.394 14.407-8.83 23.702-16.266 9.295-6.971 18.59-13.013 20.45-13.013 1.858 0 11.153-6.507 20.913-13.943 9.76-7.9 19.055-13.942 20.914-13.942s11.154-6.042 20.449-13.478c9.295-6.971 19.054-13.942 21.378-14.872 2.789-.93 26.026-15.801 52.052-33.462 25.561-17.195 48.334-31.138 50.193-31.138s24.631 13.943 50.193 31.138c26.026 17.66 49.728 32.533 52.051 33.462 2.789.93 12.084 7.901 21.379 14.872 9.295 7.436 18.59 13.478 20.449 13.478s11.154 6.042 20.914 13.942c9.76 7.436 18.59 13.943 19.984 13.943s15.801 8.83 32.067 19.52c46.94 31.137 48.799 32.532 52.052 24.166 4.648-12.083 3.254-215.643-1.859-224.938-3.718-6.971-47.869-41.827-52.981-41.827-1.394 0-15.337-8.83-31.603-19.52-16.266-11.154-32.997-21.843-37.18-24.632-4.183-2.323-22.773-13.942-40.898-25.56C566.263 14.235 547.673 2.617 543.49.293 539.308-2.494 527.224-9.93 517-16.436c-20.914-13.479-32.997-17.197-46.01-14.408" style="stroke-width:.464749"/>
</svg>
