<svg xmlns="http://www.w3.org/2000/svg" width="950" height="960">
    <path d="M474.059 989.999c-7.597.012-14.9-.258-21.807-.828-43.412-3.491-95.629-13.965-123.254-24.438-4.554-1.822-10.17-3.795-12.6-4.554-6.374-1.973-30.813-14.572-38.402-19.885-3.795-2.58-9.563-7.438-12.902-10.929-6.224-6.527-8.653-11.384-80.146-156.648a20258 20258 0 0 0-30.662-61.93c-.91-1.67-1.366-3.036-1.063-3.34 1.367-1.366 8.045 6.223 21.1 23.528 36.278 48.573 75.288 89.404 107.012 111.87 13.054 9.259 21.554 14.116 24.894 14.116 1.214 0 3.946 1.366 6.071 3.036 2.126 1.67 5.92 3.036 8.5 3.036 4.858 0 14.117-2.58 16.243-4.554 3.339-3.036-15.939-28.992-39.77-53.886-29.6-30.813-42.956-54.19-51.76-91.226-3.947-17-4.402-57.832-.76-74.378 4.25-18.822 8.197-32.938 13.814-48.421 2.884-8.349 6.83-19.581 8.5-25.046s3.946-12.294 5.009-15.178c7.286-19.581 22.465-78.78 25.804-100.638 1.063-6.679 3.188-7.134 7.742-1.518l3.339 4.25 1.063-4.553c2.58-11.688 20.036-63.6 26.108-77.262 11.536-26.563 13.206-25.5 12.295 7.893-.456 15.938-1.366 23.831-3.036 27.626-3.643 8.045-6.527 15.938-11.991 33.394-5.161 16.242-7.287 20.492-8.501 17-1.366-3.49-4.706-1.82-6.375 3.037-.91 2.732-2.732 10.17-4.099 16.393-4.25 19.885-5.008 23.376-8.348 34.153a811 811 0 0 0-4.402 15.938c-.607 2.884-1.973 7.286-2.884 9.866-3.795 10.17-23.376 70.583-26.26 81.208-2.732 9.715-3.187 15.787-3.339 40.225-.152 30.055-.304 28.385 7.741 53.127 3.947 12.143 13.358 30.054 18.519 34.912 2.732 2.428 6.527 7.59 8.804 11.384 2.125 3.795 6.678 9.866 10.17 13.661 3.49 3.947 10.018 11.688 14.572 17.456 15.33 18.974 16.09 19.885 18.67 17.76 3.035-2.58 6.223-1.063 11.08 5.464 9.715 12.902 25.198 30.662 26.716 30.662 1.062 0 1.214-3.188.455-9.866-.759-7.287-.455-9.867.91-9.867.912 0 7.59 6.072 14.573 13.661 7.134 7.438 14.268 13.965 15.786 14.42 1.67.607 5.768.607 8.956 0 5.16-.91 6.071-1.67 6.071-4.705 0-4.705 1.67-4.554 5.768.152 2.733 3.036 4.706 3.795 10.778 3.795 4.098 0 8.045-.911 8.955-1.974 1.063-1.366 1.215-8.5.304-23.072-3.491-52.52-5.92-137.22-9.108-315.725-.91-52.672-2.125-126.745-2.884-164.693s-1.062-69.52-.607-70.28c.304-.607 5.617-1.062 11.84-1.062s11.536.455 11.84 1.063c.455.758 1.062 66.029 1.67 145.415.455 79.235 1.365 163.176 1.82 186.4.912 39.617 2.43 52.064 4.251 37.188.455-3.643 1.366-88.19 1.973-187.917l1.215-181.39 11.232-.455c6.223-.304 11.84.151 12.447.759.759.758.607 35.367-.152 77.11-.759 41.742-2.277 117.94-3.187 169.246-2.885 168.336-5.465 257.893-8.804 305.859-.76 10.625-.76 19.277.151 20.795 1.822 3.491 17.608 3.947 18.823.608.455-1.215 2.428-3.188 4.25-4.403 3.187-2.125 3.339-2.125 2.732 1.974-.607 4.098-.304 4.402 6.223 5.312 3.795.607 8.045.456 9.563-.455 1.67-.91 8.5-7.438 15.483-14.572 6.982-7.134 13.357-13.054 14.268-13.054 1.063 0 1.214 3.188.455 9.867-1.517 14.875-.758 14.42 20.492-12.144 12.295-15.482 14.269-17 17.76-14.268 2.58 2.277.607 4.25 24.438-24.135 14.269-16.849 21.554-26.715 21.554-28.84 0-.759 2.43-3.643 5.465-6.527 5.768-5.465 9.26-11.384 16.242-27.17 10.321-23.376 13.813-48.877 10.777-78.477-2.125-20.947-4.099-28.991-15.483-62.689-14.875-43.412-30.662-97.905-30.662-105.647 0-3.643-2.58-12.75-4.402-15.634-.91-1.518-1.973-1.518-4.25-.304-2.884 1.366-3.34.76-6.375-7.893-1.822-5.16-3.947-11.536-4.857-13.964-.911-2.581-2.125-6.68-2.884-9.108-.76-2.58-2.733-8.349-4.554-12.902-5.01-12.75-6.224-20.796-5.768-41.287.303-14.117.91-18.67 2.429-18.67 3.794 0 23.83 51.912 34.456 89.1 1.366 4.858 3.036 8.805 3.795 8.805.607 0 2.277-1.67 3.643-3.795 3.491-5.313 5.16-4.706 6.223 1.821 3.795 25.653 22.01 94.566 30.207 115.058 4.25 10.625 20.491 63.145 22.92 74.074 3.643 16.393 3.643 58.287 0 73.163-9.411 39.617-22.01 62.69-51.305 92.896-24.59 25.653-44.323 52.064-40.984 55.1 2.277 1.973 11.385 4.554 16.394 4.554 2.732 0 6.527-1.215 8.5-2.732 1.973-1.67 5.616-3.34 8.197-3.947 7.286-1.822 27.777-16.09 46.448-32.331 25.956-22.77 54.948-54.949 83.181-92.593 13.661-18.215 19.733-25.349 21.099-24.135.607.76-8.045 18.367-70.43 144.505-37.19 75.44-38.708 77.869-54.494 88.646-39.958 27.548-130.028 49.46-197.227 49.553m1.222-9.773c19.288.037 38.745-1.272 52.866-4.109 16.394-3.34 35.368-17.304 56.011-41.135 22.01-25.501 44.323-56.77 43.564-61.02-.303-1.974-4.402-3.491-15.33-6.224-8.198-1.821-16.242-3.188-18.216-2.58-1.821.455-6.982 5.616-11.384 11.536s-8.956 10.474-9.866 10.17c-1.063-.455-1.518-1.67-1.367-2.732 2.277-8.652 3.643-19.582 2.884-21.707-2.125-5.464-6.982-2.428-17.91 11.385-18.368 23.224-37.19 45.234-38.86 45.385-4.098 0-1.669-13.813 5.92-35.215 2.581-7.286 2.733-9.26 1.215-11.081-1.822-2.125-2.429-1.973-5.465.91-11.384 10.626-40.072 63.146-40.072 73.316-.152 8.045-6.68 9.259-8.349 1.366-3.036-13.661-18.518-44.778-31.42-62.69-9.412-13.206-12.448-15.938-14.572-13.206-1.215 1.518-.304 6.224 3.49 18.519 5.465 17.304 6.831 28.081 3.492 27.93-1.822 0-7.742-6.983-36.126-42.047-3.795-4.705-8.652-10.473-10.93-12.75-4.553-4.857-6.071-5.16-8.803-1.973-1.518 1.821-1.518 4.098 0 11.08 2.428 11.992 2.58 12.751.455 13.51-.91.304-5.616-4.554-10.473-10.777-5.92-8.045-9.563-11.536-11.84-11.536-6.527 0-31.573 6.527-32.332 8.5-.759 2.125 10.777 20.492 23.68 37.796 21.25 28.385 45.992 52.368 63.448 61.172 10.275 5.227 38.101 8.153 66.29 8.207M606 958.849c6.217.077 19.541-6.127 35.688-17.037 16.697-11.08 23.527-18.215 27.17-27.778 2.277-6.223 3.492-7.741 6.072-7.437 3.795.455 3.947-1.67.91-9.108-2.883-6.982-9.714-12.447-22.616-17.911-5.616-2.429-12.143-4.402-14.42-4.402-4.554 0-3.795-1.518-18.063 33.394a3048 3048 0 0 1-7.135 17.456c-7.59 17.608-11.384 27.322-11.384 29.75 0 2.05 1.345 3.043 3.778 3.073m-260.98-.264c1.907-.013 2.193-.768 2.193-2.96 0-1.821-1.062-5.768-2.428-8.804-1.215-3.187-3.188-7.741-4.25-10.17-3.188-7.286-5.313-12.295-13.965-34.153-4.554-11.232-9.108-22.01-10.018-23.983-2.277-4.402-7.134-4.25-18.67.456-12.447 5.16-20.796 11.232-23.832 17.456-3.643 7.438-3.491 10.625.607 10.17 2.733-.304 3.795 1.062 6.224 7.286 3.491 9.714 10.777 17.152 26.867 27.93 15.938 10.625 25.652 15.33 33.545 16.393 1.66.237 2.861.385 3.728.38m114.67-81.891c2.43 0 1.519-16.242-1.062-18.822-3.036-3.036-9.563-3.188-10.777 0-.911 2.428 9.41 18.822 11.84 18.822m30.343-.83c2.661.025 12.573-15.227 11.552-18.144-1.063-2.429-6.679-3.036-10.018-.91-2.733 1.669-4.25 17.607-1.822 18.973q.125.08.288.082zm23.476-4.318c1.887.089 11.3-10.978 11.3-13.219 0-.759-1.974-1.366-4.554-1.366-3.036 0-5.312 1.214-6.982 3.643-2.429 3.946-2.429 10.322.151 10.929.027.012.054.012.085.013m-76.9-.232a.55.55 0 0 0 .313-.085c1.821-1.062 1.67-7.741-.152-11.384-1.67-3.036-9.714-4.098-11.384-1.366-1.013 1.736 8.73 12.849 11.223 12.835M223.199 734.01c-3.036-.303-30.965-23.072-44.93-36.885-19.733-19.43-39.314-46.903-47.055-66.029-10.17-25.045-10.929-29.295-10.929-59.502 0-27.93 1.214-35.974 7.893-55.403 2.125-5.92 4.25-12.751 4.857-15.18 1.67-6.982 3.795-4.857 4.858 4.858 1.062 10.17 5.616 20.947 8.955 20.947 1.822 0 2.58-3.036 3.34-13.965 1.214-14.724 4.402-28.992 11.688-51.305 5.16-16.09 8.348-17.912 8.803-5.313.304 8.349 2.885 34.457 4.402 43.564.607 4.554 3.947 6.679 5.617 3.795.455-.607 2.277-13.661 4.098-29.144 4.098-35.823 8.5-53.734 16.09-66.333 2.429-4.098 3.036-4.402 3.947-2.277.607 1.367 1.062 4.25 1.062 6.376.152 6.223 4.706 17.607 16.545 41.742a3118 3118 0 0 0 12.599 25.501c.91 1.518 3.036 7.438 4.705 12.902 5.769 18.063 4.402 48.573-3.643 78.476-.91 3.34-2.276 8.804-2.883 12.143s-3.492 15.483-6.528 27.02c-10.018 39.01-12.75 62.234-10.018 85.306.91 8.348 3.036 19.125 4.706 23.83 3.036 9.108 3.643 14.876 1.821 14.876m502.732-3.035c-1.366 0-.152-7.134 3.795-21.251 7.134-25.956 5.312-56.314-6.376-101.7-3.34-12.902-6.527-26.26-7.134-29.6-.759-3.339-1.973-8.803-2.884-12.142-5.009-18.67-6.679-31.27-6.679-48.574-.151-22.465.76-25.5 17.456-59.957 13.054-27.019 19.278-42.502 19.278-47.966 0-1.821.455-4.554.91-5.768 1.367-3.643 4.858-.304 8.5 8.197 5.92 13.51 8.653 27.019 12.6 62.993 1.214 11.688 2.732 22.465 3.187 23.831 1.214 3.795 5.01 3.34 5.768-.759 1.67-8.652 3.947-32.028 3.947-40.68 0-10.018 1.821-15.483 4.25-12.75 1.518 1.821 8.5 22.617 12.599 37.644 1.517 6.072 3.339 17 3.794 24.59 1.366 18.67 4.25 21.858 9.411 10.018 1.215-3.035 2.733-9.41 3.188-14.268.455-4.857 1.518-8.956 2.125-9.108 1.214-.303 4.25 6.376 7.134 16.394 7.59 25.045 8.045 27.626 8.652 53.127.607 22.616.304 27.474-2.428 39.01-7.438 30.358-26.26 61.93-52.672 88.342-17 17-45.082 40.377-48.421 40.377M587.194 451.679c-2.277 0-6.982-7.74-18.367-30.358-10.321-20.492-17.152-42.198-23.376-73.618-3.187-16.09-3.339-61.78-.303-70.128 1.214-3.187 2.58-7.134 3.188-8.804 2.125-6.678 3.794 2.125 3.794 21.251 0 26.867 4.554 53.279 14.42 83.485 4.402 13.358 5.768 16.545 15.331 36.582 6.376 13.205 6.679 14.42 6.679 27.626 0 7.74-.607 13.964-1.366 13.964m-224.584-.807a.67.67 0 0 1-.37-.103c-.76-.455-1.366-6.375-1.366-13.357 0-10.777.607-13.813 4.402-21.555 8.955-18.518 12.446-26.563 16.697-39.617 10.321-30.965 15.33-58.743 15.33-85.762 0-10.474.456-20.34.911-21.706 1.366-3.188 2.125-2.125 5.465 7.134 2.276 6.527 2.732 12.599 2.732 33.85 0 32.18-3.036 50.09-14.117 83.485-7.793 23.38-25.416 57.587-29.684 57.632zm112.563-187.164c-11.335 0-23.015-.955-25.046-2.83-1.518-1.366-2.733-3.036-2.733-3.643 0-.759-3.643-8.955-8.196-18.366-11.84-24.742-16.394-36.127-15.483-38.556 1.366-3.339 4.857-2.428 7.741 1.974 8.5 13.51 23.376 20.644 43.26 20.644 20.037 0 34.913-7.286 44.172-21.555 1.518-2.58 3.188-3.34 4.857-2.732 4.706 1.821 4.706 1.821-15.938 44.778-4.098 8.5-8.5 16.545-9.866 17.76-1.637 1.636-11.378 2.472-21.672 2.524h-1.096zm-37.948-4.803c-1.518 0-3.492-.607-4.25-1.366-.911-.759-11.689-6.527-24.287-13.054-54.493-28.082-52.216-26.715-55.404-33.394-8.5-17.911-19.733-45.69-18.974-47.51.76-2.126 6.072-1.67 19.733 1.973 12.447 3.339 22.313 5.616 29.6 6.982 17.91 3.34 20.036 4.705 25.5 15.179 2.884 5.313 8.804 18.215 13.206 28.688 4.554 10.474 9.866 22.465 11.991 26.867 5.768 11.688 6.376 15.635 2.885 15.635m73.946-.219c-2.735-.072-1.438-3.813 2.404-11.924 2.125-4.554 6.376-13.813 9.26-20.492 7.134-16.697 14.116-31.876 18.67-40.832 3.491-6.982 4.402-7.741 12.902-10.17 5.01-1.518 10.474-2.884 11.992-2.884 1.67 0 6.375-.91 10.625-2.125s13.51-3.643 20.643-5.313c7.135-1.67 13.814-3.035 14.876-3.035 3.188-.152 3.795 4.25 1.366 9.41-3.491 6.983-10.625 23.073-14.876 33.546-1.973 4.858-5.008 10.17-6.678 11.84s-14.724 8.956-28.84 16.242a5506 5506 0 0 0-37.948 19.58c-7.704 4.052-12.27 6.214-14.396 6.157m32.936-27.85c1.06.023 2.483-.487 4.38-1.53 2.429-1.215 10.474-5.01 17.76-8.349 10.17-4.554 13.357-6.679 12.902-8.5-.607-3.643-3.34-4.25-5.768-1.366-1.063 1.214-3.036 2.277-4.554 2.277s-3.49 1.062-4.553 2.277c-1.063 1.214-3.036 2.277-4.402 2.277s-3.795 1.062-5.313 2.276c-1.67 1.215-4.098 2.277-5.465 2.277-3.643 0-8.5 5.768-6.527 7.741.399.399.904.605 1.54.62m-138.25-.078c.576.012 1.08-.068 1.465-.238 1.973-.76 1.821-1.366-1.063-4.402-1.821-1.973-4.554-3.643-5.768-3.643-1.366 0-3.795-1.063-5.313-2.277-1.67-1.214-4.098-2.277-5.616-2.277-1.366 0-3.34-1.062-4.402-2.277-1.062-1.214-3.036-2.277-4.554-2.277-1.517 0-3.49-1.062-4.553-2.276-2.125-2.429-3.491-2.884-5.01-1.215-2.884 2.884.152 5.617 12.296 11.081a670 670 0 0 1 17.456 8.349c1.636.872 3.586 1.431 5.061 1.452m-3.545-12.837c1.367 0 2.733-.607 3.34-1.366.91-1.67-7.134-7.741-10.322-7.741-1.214 0-3.036-1.063-4.098-2.277-1.063-1.214-3.036-2.277-4.554-2.277s-3.491-1.062-4.554-2.277c-1.062-1.214-2.884-2.277-4.098-2.277-1.062 0-3.795-1.062-5.768-2.428-3.34-2.277-3.795-2.277-4.705-.152-.456 1.366-.456 3.036 0 3.795 1.214 1.973 31.875 17 34.76 17m144.809 0c3.795 0 34.001-15.482 34.912-17.911 1.366-3.491-1.67-5.16-5.01-2.58-1.517 1.214-3.946 2.276-5.312 2.276s-3.34 1.063-4.402 2.277-3.036 2.277-4.553 2.277c-1.518 0-3.492 1.063-4.554 2.277s-2.884 2.277-4.099 2.277c-3.187 0-11.232 6.071-10.321 7.741.607.76 1.973 1.366 3.339 1.366m-72.063-1.67c-11.042.076-22.123-2.96-29.637-9.107-9.41-7.741-10.929-12.75-10.777-36.733.152-11.385.91-22.769 1.821-25.046.76-2.277 2.733-8.5 4.099-13.965 1.518-5.464 2.884-10.777 3.187-11.84.304-.91 2.125-1.82 4.25-1.82h3.644l.607 27.625c.455 26.867.607 27.93 4.098 31.876 2.125 2.429 5.01 4.25 6.375 4.25 1.518 0 3.188.607 3.643 1.518.456.76 4.25 1.518 8.349 1.518 4.098 0 7.893-.759 8.348-1.518.456-.91 2.125-1.518 3.643-1.518 3.643 0 9.411-6.982 10.322-12.598.304-2.733.759-15.18.91-27.626l.304-22.769h3.643c3.036 0 3.947 1.214 5.465 6.83 1.063 3.795 3.188 10.626 4.554 15.18 1.67 5.313 2.884 15.33 3.339 27.019.91 22.768-1.518 31.269-10.777 39.162-7.362 6.299-18.367 9.486-29.41 9.562m79.184-12.739c.734-.013 1.588-.504 2.442-1.529 1.062-1.214 3.036-2.277 4.554-2.277s3.49-1.062 4.553-2.276c1.063-1.215 3.492-2.277 5.313-2.277 1.822 0 4.25-1.063 5.313-2.277s3.036-2.277 4.553-2.277c1.367 0 3.795-1.366 5.313-3.036 5.01-5.616.304-5.768-11.384-.455-6.224 2.884-13.965 6.223-17 7.59-3.644 1.517-5.769 3.49-5.769 5.16 0 2.372.89 3.676 2.112 3.654m-158.793-1.1c2.098.035 3.425-1.629 2.006-3.92-1.821-2.884-34.912-17-35.974-15.33-1.366 2.276 2.125 5.615 7.893 7.437 2.884.91 5.16 2.428 5.16 3.187s1.67 1.367 3.644 1.367c1.973 0 4.402 1.062 5.464 2.277 1.063 1.214 2.884 2.276 3.947 2.276 1.214 0 3.491.911 5.16 1.822.94.598 1.88.87 2.7.884m68.187-25.474c-2.732 0-5.616-3.188-5.616-6.072 0-1.366.455-1.67 1.214-.607.607.91 2.277 1.973 3.795 2.58 3.036 1.063 3.491 4.099.607 4.099m23.124-.194c-.538-.012-1.057-.357-1.721-1.02-1.518-1.519-1.215-2.126 1.517-2.733 1.822-.607 3.34-1.67 3.492-2.732 0-.911.455-.759.91.303.456 1.215-.303 3.188-1.67 4.554-1.11 1.11-1.835 1.644-2.528 1.628m-29.064-26.293h-.092c-.506-.022-.89-.361-1.254-.987-1.518-2.429-1.822-170.31-.304-171.98.607-.454 9.26-.758 19.277-.606l18.367.455.456 84.851c.151 60.413-.152 85.458-1.367 86.825-1.366 1.67-2.58 1.214-6.223-2.43-7.893-8.044-15.786-7.892-23.983.304-2.509 2.413-3.914 3.537-4.877 3.568m32.44-184.705h-2.814c-3.632-.012-7.9-.044-12.909-.1l-32.331-.456.455-3.795c.456-4.098 17.912-46.448 20.492-49.787 1.063-1.366 4.857-1.822 12.295-1.518 10.625.455 10.777.455 13.358 5.768 6.982 13.965 19.58 46.144 18.822 47.966-.578 1.387-3.975 1.894-17.367 1.923z" style="stroke-width:1.2"/>
</svg>
