<svg xmlns="http://www.w3.org/2000/svg" width="1845" height="960">
    <path d="M545.88 900.477c-63.379 23.188-74.27 46.535-29.583 58.509 33.155 8.884 116.563-42.927 103.9-64.86-6.332-10.967-34.596-9.27-74.317 6.351m127.463-475.699c-6.925 2.78-17.43 24.685-23.224 46.308-13.132 49.011-35.734 58.405-52.515 23.009-18.505-40.494-40.155-23.12-58.31 44.631-30.513 113.88-150.428 226.98-243.872 229.751-20.284.745-45.873 15.519-58.102 32.327s-29.451 29.189-38.1 26.871c-7.208-1.931-18.664 11.994-23.685 30.734s-21.292 39.1-35.528 46.1c-19.333 8.726-24.92 18.044-16.478 32.666 7.387 12.794 17.864 14.056 32.486 5.614 12.795-7.387 32.024-9.96 44.998-6.483s39.514-3.317 58.178-15.311 35.782-18.223 38.948-12.74c9.884 15.01 52.695-12.145 59.261-36.65 8.498-31.714 125.757-94.54 203.061-106.271 33.748-4.863 82.966-4.035 110.355 3.304 25.947 6.953 60.26 11.512 74.78 9.222 23.553-1.414 24.712-5.738.62-36.914l-28.03-33.775 45.95 1.497c108.527 4.36 110.844-4.29 33.162-77.635-39.562-36.866-63.937-72.752-70.523-111.597-10.884-63.172-35.155-105.21-53.432-94.658m857.004-73.187c-146.041 95.284-161.257 117.472-89.643 121.21 64.02 3.25 124.411-14.559 141.558-43.954 7.8-11.815 28.886-38.61 46.212-57.143 33.596-38.894 53.267-89.243 34.528-94.264-7.208-1.932-65.696 31.837-132.655 74.15M1151.866 40.056c-13.181 8.828-34.624 13.897-49.04 10.035s-35.858 1.207-49.039 10.035c-13.18 8.828-28.858 15.443-36.065 13.511-20.181-5.407-83.38 28.644-88.788 48.825-9.656 36.038 60.233 34.68 131.412-.323 39.438-20.333 88.685-42.673 109.073-49.57 21.83-6.51 36.169-19.663 33.776-28.03-6.511-21.83-24.582-23.581-51.33-4.483zM1512.12 79.42c-109.356 44.859-222.366 91.828-249.397 106.216-28.471 14-80.318 40.279-116.1 58.5-36.839 16.395-79.829 32.686-96.844 32.762-38.742.434-202.289 103.388-224.25 139.218-8.573 14.698-11.408 54.109-6.546 87.857 6.766 49.708 14.54 61.06 52.019 71.103 51.894 13.906 91.125 5.877 187.404-36.305 43.762-19.174 80.807-47.873 91.312-69.779s45.825-55.701 77.67-76.524c31.844-20.822 138.165-100.484 235.733-176.311s186.667-143.109 197.247-147.999c30.3-15.056 74.58-64.992 63.048-68.082-7.208-1.931-101.555 33.044-211.296 79.344" style="stroke-width:1.49236"/>
</svg>
