<svg xmlns="http://www.w3.org/2000/svg" width="1368" height="960">
    <path d="M142.377.021a57.7 57.7 0 0 0-10.114.882 13.585 13.585 0 0 0-12.141 14.94c-.25 7.567-.347 15.159.022 22.717a13.753 13.753 0 0 0 14.146 14.5c3.758.345 7.56.088 11.348.088h538.383c179.454.002 541.504.11 543.208.11 2.789 0 5.539-.114 7.911-.309h.022a13.283 13.283 0 0 0 12.648-13c.487-8.97.272-17.983 0-26.971v-.022a11.4 11.4 0 0 0-8.087-10.643 40.4 40.4 0 0 0-12.406-2.16c-13.727-.26-27.452-.11-41.183-.11C839.111.031 492.089.054 145.066.087a61 61 0 0 0-2.689-.066m15.028 104.424-.022.11h.022c.003-.036-.003-.074 0-.11m0 .11c-.076.9-.132 1.813-.132 2.733a31 31 0 0 0 .154 3.217 354.4 354.4 0 0 0 20.713 70.336A289.03 289.03 0 0 0 310.66 321.6l-2.27-1.124a486.9 486.9 0 0 0 232.998 59.781c89.437.81 267.99.353 267.99.353q3.367.043 6.743.044a517.7 517.7 0 0 0 99.202-9.321 483.7 483.7 0 0 0 143.47-50.372l1.609-.815a311.5 311.5 0 0 0 93.473-78.666 281.24 281.24 0 0 0 54.294-120.069c1.077-5.352 1.867-10.773 2.909-16.857zm400.421 326.252c-5.444.03-10.897.129-16.328.418a20.703 20.703 0 0 0-20.757 24.613l.066.243a35.5 35.5 0 0 0 6.655 11.965l.926 1.256a538.7 538.7 0 0 0 60.09 65.863l.043.022a15.96 15.96 0 0 1 5.862 12.383 15.6 15.6 0 0 1-.463 3.856c-4.93 24.95-9.42 49.987-14.213 74.964-1.293 6.743-3.094 13.38-4.429 19.038a16 16 0 0 1-2.953 1.19c-3.783.097-7.564.089-11.348.198-10.979.318-11.922 1.113-11.965 12.472-.13 28.876-.124 57.744.022 86.62.034 6.75-2.431 14.603 6.435 18.531.855.379 1.355 2.479 1.344 3.768-.064 7.416-.33 14.826-.53 22.3-7.254 1.663-13.213 2.893-19.103 4.407-35.55 9.139-69.946 20.459-94.09 51.342h-15.38a36.2 36.2 0 0 0-6.721 21.065l.022.771a131.2 131.2 0 0 0 34.903 85.937 20.77 20.77 0 0 0 18.135 5.663c138.7-.07 277.41-.129 416.11-.176 2.818 0 5.645-.21 8.44.044h.066a13 13 0 0 0 1.674.11 13.25 13.25 0 0 0 10.643-5.354 157.25 157.25 0 0 0 34.661-64.277 54.95 54.95 0 0 0-4.891-43.938h-15.888c-28.872-36.156-70.602-45.58-112.82-55.682v-25.936c6.805-2.17 7.116-8.034 7.074-14.565-.191-29.348-.087-58.702-.088-88.052 0-2.359.019-4.737-.044-7.095a7.235 7.235 0 0 0-7.184-7.955 7 7 0 0 0-.749.044c-6.01-.115-12.025-.203-18.663-.308-6.7-35.796-13.174-70.434-19.435-103.895 14.35-13.838 28.184-25.942 40.522-39.421a323.6 323.6 0 0 0 30.695-39.289 20.84 20.84 0 0 0-15.6-32.678 56 56 0 0 0-5.003-.22c-.81 0-1.625.013-2.313.044-82.366-.116-164.736-.222-247.102-.286-5.442-.004-10.883-.03-16.328 0m126.13 229.407a26 26 0 0 1 17.142 6.456 9239 9239 0 0 1 53.193 40.038l.22.154a71.6 71.6 0 0 1 9.387 8.24l.022.023a18.65 18.65 0 0 1 5.795 13.53 18.4 18.4 0 0 1-1.476 7.249l-.044.132a20.64 20.64 0 0 1-16.394 13.552l-.088.022a62 62 0 0 1-8.175.529c-1.104 0-2.214-.016-3.151-.067-18.918.012-37.844 0-56.762 0-18.919 0-37.823.028-56.74-.022-.748.024-1.496.045-2.248.045a69 69 0 0 1-9.079-.573 20.556 20.556 0 0 1-11.899-33.912l.022-.022a82.5 82.5 0 0 1 10.621-9.321 7712 7712 0 0 1 52.047-39.178 26 26 0 0 1 17.606-6.875M580.72 845.749c4.737.457 5.172 5.374 5.178 17.341a5007 5007 0 0 1-.088 32.634l-.022.155a26 26 0 0 1-.992 4.12c-18.03 0-35.47.005-52.928 0-3.312 0-6.64-.225-9.938-.022a16.78 16.78 0 0 0-17.936 17.694c-.337 6.033-.044 12.097-.044 18.62a17.11 17.11 0 0 1-14.323-19.567l.022-.309a121.4 121.4 0 0 1 3.46-23.379l.044-.264a36.52 36.52 0 0 1 22.057-24.129c17.04-6.82 34.162-13.45 51.496-19.479 6.779-2.358 11.171-3.69 14.014-3.415m207.372.044c1.277-.078 2.754.109 4.45.573 8.621 2.357 17.145 5.211 25.517 8.351 11.903 4.464 23.785 9.06 35.41 14.19 23.744 10.479 26.232 37.184 24.57 54.163a15.17 15.17 0 0 1-12.692 12.846 40.4 40.4 0 0 1-1.234-16.13c-.608-13.844-6.177-19.652-20.162-19.809-16.558-.184-33.13.044-49.69.088-3.662.01-7.305 0-12.14 0 0-16.163-.224-31.183.087-46.207.107-5.155 2.053-7.833 5.884-8.065m-396.61 57.027c-26.854 2.092-53.219 3.302-79.37 6.434-25.935 3.106-52.29 2.875-78.819 7.932v22.256c-13.389.667-18.625 11.292-28.58 19.523h206.469zm586.882 0-20.118 55.352c14.943 2.27 192.789 1.802 203.627-.683l-.044-.045a142 142 0 0 0-12.693-11.81 135 135 0 0 0-15.358-8.462V916.13c-52.386-4.487-103.914-8.898-155.414-13.31" style="stroke-width:11.282"/>
</svg>
