<svg xmlns="http://www.w3.org/2000/svg" width="1290" height="960">
    <path d="M343.942 860.418c-8.239 5.664-20.082 10.299-26.26 10.299-16.478 0-18.537 5.664-6.18 19.051 14.933 15.962 19.567 14.933 41.708-7.723 28.835-29.865 23.171-43.253-9.268-21.627M665.246 617.38c-31.924 21.112-344.475 342.416-344.475 353.744 0 16.992 18.537 5.15 65.909-42.737 188.457-189.488 289.38-293.5 289.38-298.134 0-3.09 3.604-6.694 7.723-8.753 9.269-3.605 10.298-13.388 1.545-13.388-3.604 0-12.873 4.12-20.082 9.268m192.062-26.26c-5.664 2.06-57.67 53.036-126.668 124.093-16.477 17.507-24.2 28.835-22.141 33.985 5.149 13.387 18.537 2.574 94.229-74.148 68.483-69.513 86.505-96.803 54.58-83.93m-51.491-69.513c-145.72 145.205-196.181 201.33-186.398 207.51 7.209 4.118 10.298 1.544 119.974-105.558C841.861 523.152 969.56 388.76 969.56 381.036c0-16.992-34.5 12.358-163.742 140.571m280.112-203.39c-28.32 29.35-33.985 37.074-31.41 47.887 14.932 66.423 14.418 190.002-.515 225.53-4.12 9.784-7.209 21.112-7.209 24.717 0 6.693-29.865 72.087-42.737 92.169-84.446 136.451-251.792 218.837-404.205 198.24-24.716-3.09-54.066-8.753-65.394-12.872-51.491-17.507-52.006-17.507-88.05 21.111-18.022 19.567-32.954 37.074-32.954 39.133 0 7.724 67.968 34.5 119.46 47.372 47.371 11.328 177.129 11.328 224.5 0 43.253-10.813 93.2-28.835 119.46-43.767 4.12-2.06 16.477-8.754 27.805-14.933 10.813-5.664 37.588-24.2 59.215-40.678 176.1-133.877 249.217-372.28 180.734-585.454-3.605-11.328-7.21-23.17-8.239-26.775-3.604-12.873-16.992-5.15-50.461 28.32m-389.273-71.573c-12.358 8.754-247.672 247.673-261.06 265.18-9.268 11.328-8.239 19.051 1.545 19.051 12.873 0 285.26-275.477 285.26-288.35 0-7.723-11.328-6.179-25.745 4.12m-164.772-12.872c-4.119 3.604-37.073 37.073-73.117 73.632-61.274 62.82-76.722 84.445-58.7 84.445 10.298 0 150.354-140.57 153.959-153.958 3.09-12.358-9.269-14.418-22.142-4.12m100.408-46.857c-8.239 6.179-31.924 27.805-52.006 47.372-20.081 20.081-45.312 43.767-55.61 53.036-10.299 8.753-18.537 16.992-18.537 18.536 0 1.03-45.312 48.402-100.408 105.042-97.318 99.893-133.877 141.6-127.698 147.78 6.694 6.178 58.7-42.738 202.36-188.973 136.967-140.056 175.07-181.763 175.07-191.032 0-5.664-7.724-3.09-23.17 8.239m406.78-40.163c-14.418 15.962-31.925 25.23-36.044 18.537-1.545-2.575-13.903-5.15-27.805-5.15-21.627 0-26.26 2.06-46.857 23.171-24.201 24.716-41.193 29.865-41.193 12.873 0-5.664-2.575-10.298-5.664-10.298-3.604 0-30.895 25.23-61.79 56.125-52.52 53.036-86.504 82.901-93.713 82.901s20.596-39.133 46.342-65.394c25.745-26.775 32.44-37.588 23.17-37.588-4.118 0-58.184 48.401-89.594 80.84-10.813 10.814-19.566 24.716-19.566 30.895 0 7.724-3.09 11.843-9.269 11.843-10.298 0-52.006 45.828-61.274 67.454-3.09 7.723-13.388 18.022-22.141 22.656-14.418 7.209-34.5 27.29-97.833 95.258-33.47 36.56-113.28 135.937-113.28 141.6 0 5.15-22.142 28.321-26.776 28.321-2.575 0-4.12-3.604-4.12-7.724 0-4.119 2.575-7.723 5.15-7.723 3.09 0 7.723-5.15 10.298-11.843 6.179-13.388 14.932-27.29 25.746-40.163 17.506-20.597 20.596-25.231 20.596-29.865 0-3.09 4.12-7.209 9.268-10.298 6.694-3.605 7.209-6.694 2.575-11.328-16.992-16.993-212.658 217.807-212.658 255.91 0 10.299 2.574 12.358 16.477 12.358 9.268 0 23.17-5.664 32.954-12.873 19.052-14.932 27.805-16.477 27.805-5.149 0 5.15 5.15 7.724 16.477 7.724 14.933 0 27.29-10.813 107.102-90.11 93.199-93.198 111.22-109.16 117.4-102.982 2.06 2.06.514 5.15-2.575 6.18-3.604 1.544-6.694 5.148-6.694 8.753 0 3.09-28.835 36.044-63.849 72.602-35.529 37.074-62.304 67.454-59.73 68.483 4.12 1.545 48.402-21.626 61.79-32.44 4.12-3.089 11.328-7.723 15.447-9.267 15.963-6.18 122.034-98.863 185.883-163.227 54.58-54.066 70.028-66.939 81.356-66.939 22.656 0 55.096-35.014 59.215-63.849 4.119-24.715 0-47.886-9.783-59.73-5.15-6.178-2.575-10.812 14.932-26.775 35.014-31.924 90.624-71.057 100.408-71.057 5.149 0 12.357 3.604 16.477 8.238 11.328 13.388 34.499 23.171 61.789 24.716l26.26 2.06 40.678-38.619c37.074-35.529 46.342-50.461 37.074-59.73-1.545-2.06-6.179-1.03-9.783 2.06-10.299 8.239-23.171 2.06-19.052-9.268 1.545-5.15 13.388-19.052 25.746-30.895 20.596-20.596 29.35-42.737 16.477-42.737-3.09 0-14.933 8.238-26.26 18.021-11.844 9.784-23.172 16.478-25.231 14.933-8.239-5.15-4.635-26.26 5.664-35.529 12.872-11.843 13.387-28.32 1.544-28.32-5.149 0-13.902 5.664-19.566 12.358m-41.708 75.692c26.775 12.358 30.895 62.304 5.664 78.781-19.567 12.873-42.223 10.298-59.73-6.694q-29.349-30.122 0-61.79c15.963-16.991 31.925-20.08 54.066-10.297m-292.47 130.272c1.545 4.12 7.724 8.754 13.903 10.298 8.239 2.06 9.783 4.12 5.15 8.754-4.12 4.12-9.27 3.604-19.052-3.605-13.388-9.783-18.022-22.656-8.24-22.656 3.09 0 6.695 3.09 8.24 7.21m35.014 49.947c16.478 7.723 31.41 35.528 27.29 52.006-2.059 7.208-10.812 20.081-20.08 29.35-22.142 21.626-42.738 21.626-64.88 0-23.17-22.657-22.14-40.164 4.12-66.424 21.626-21.626 32.44-24.716 53.55-14.932m-166.316 142.63c22.656 18.537 8.754 62.819-20.081 62.819-12.873 0-31.925-21.111-31.925-35.529 0-15.962 4.12-22.656 18.022-30.38 14.418-8.238 20.082-7.723 33.984 3.09m292.47-530.358c-18.537 11.842-297.619 295.044-322.335 326.968-14.417 18.537-4.634 25.23 14.933 9.783C580.8 335.21 874.3 35.016 875.845 28.322c1.03-4.119 4.12-7.209 6.694-7.209s4.634-3.604 4.634-7.723c0-9.783-4.12-9.269-21.111 1.545M573.077-121.517c0 73.632-2.574 80.841-25.23 80.841-36.559 0-151.384 48.917-203.905 86.505-66.938 48.402-135.937 129.758-167.346 196.696-6.18 12.873-14.418 29.865-18.022 37.589-4.12 8.238-7.724 18.022-7.724 21.626 0 4.12-3.09 14.932-7.208 24.2-12.873 30.38-23.686 103.498-23.686 158.078 0 75.692 16.992 149.325 52.006 224.502 22.14 47.886 30.894 60.244 38.103 55.095 8.239-5.664 59.215-76.207 59.215-81.87 0-2.575-5.664-16.993-12.873-31.41-7.209-14.933-12.873-29.865-12.873-33.984 0-3.605-4.119-15.963-8.753-26.776-6.694-15.962-8.754-36.558-8.754-105.042 0-73.117 1.545-89.594 10.813-119.459 39.649-122.549 117.4-217.292 217.808-265.18 52.006-25.23 73.117-32.439 95.258-33.983l20.597-1.03 1.544 60.76c1.545 69.512-2.574 67.453 54.066 26.26 16.477-12.358 33.47-22.656 36.559-22.656 8.238 0 117.4-112.25 115.34-118.43C775.437 3.607 582.346-190 577.197-190c-2.06 0-4.12 30.895-4.12 68.483" style="stroke-width:.514911"/>
</svg>
