<svg xmlns="http://www.w3.org/2000/svg" width="1013" height="960">
    <path d="M328.969 1020c-5.077 0-22.486-23.755-32.278-43.884-8.705-18.134-11.243-25.206-13.42-35.905-.906-4.534-2.357-11.425-3.264-15.414-1.269-4.715-1.995-82.69-1.995-216.338 0-202.556-.18-209.265-3.445-215.793-9.067-17.59-23.211-24.3-43.521-20.31-6.528 1.27-14.326 3.445-17.409 4.715-2.901 1.269-6.71 2.72-8.16 3.264-1.45.725-5.078 2.72-8.16 4.715-2.902 1.994-6.71 4.17-8.16 4.896-1.451.544-3.084 1.632-3.627 2.357-.545.544-4.171 3.445-7.98 6.528-7.797 5.803-33.184 33.91-35.904 39.713-3.809 8.342-7.254 13.6-8.523 13.6-.907 0-1.995 1.814-2.72 3.99-.726 3.083-1.451 3.446-2.54 1.814-1.994-3.083 5.078-34.455 11.969-52.045 2.539-6.89 12.694-28.107 18.315-38.443 1.27-2.72 9.43-11.788 18.134-20.31 15.595-15.596 26.294-22.305 47.33-29.74 6.165-2.176 15.776-2.902 38.988-2.902 38.262-.18 49.143 2.54 68.909 16.865 9.248 6.71 55.308 52.044 55.308 54.402 0 1.088-2.357 4.352-5.259 7.435-6.71 7.072-13.781 19.947-18.315 33.547-3.445 9.974-3.627 15.596-3.627 77.07v66.551l-7.797 10.155c-4.171 5.622-9.067 13.238-10.7 16.683-1.631 3.446-4.351 9.611-6.165 13.6-3.264 6.892-3.445 15.415-3.99 158.129-.362 83.053-1.087 151.055-1.994 151.055m355.062 0c-.907 0-1.632-68.002-1.995-151.055-.544-142.714-.725-151.237-3.99-158.128-1.813-3.99-4.533-10.155-6.165-13.6s-6.528-11.062-10.699-16.684l-7.797-10.155v-66.551c0-61.474-.182-67.096-3.627-77.07-4.534-13.6-11.606-26.475-18.315-33.547-2.902-3.083-5.26-6.347-5.26-7.254 0-2.539 41.89-44.247 52.59-52.407 10.88-8.342 18.314-12.15 30.827-16.32 12.331-3.99 66.733-3.99 78.882 0 21.036 7.072 32.279 13.963 48.237 29.92 8.704 8.523 16.864 17.59 18.134 20.31 5.621 10.337 15.776 31.554 18.315 38.444 6.89 17.59 13.963 48.962 11.968 52.045-1.088 1.632-1.813 1.27-2.539-1.814-.725-2.176-1.813-3.99-2.72-3.99-.906 0-2.538-1.812-3.626-4.17-.907-2.176-3.083-6.165-4.352-8.704-4.171-7.435-28.47-34.636-36.45-40.439-3.808-3.083-7.435-5.984-7.979-6.528-.544-.725-2.176-1.813-3.626-2.357-1.451-.726-5.078-2.902-8.16-4.896-2.902-1.995-6.71-3.99-8.16-4.715-1.452-.544-5.078-1.995-8.161-3.264-2.902-1.27-10.88-3.446-17.409-4.715-20.31-3.99-34.454 2.72-43.521 20.31-3.264 6.528-3.446 13.237-3.446 215.793 0 133.647-.725 211.623-1.994 216.338-.907 3.99-2.358 10.88-3.264 15.414-2.177 10.699-4.715 17.771-13.42 35.905-9.792 20.129-27.2 43.884-32.278 43.884m-148.88-253.875c-1.813 0-1.994-824.005 0-825.818 3.99-4.171 29.74 35.18 38.989 59.66 9.973 26.657 9.43 15.051 10.336 196.572.544 110.617 1.45 167.739 2.72 168.283 1.088.362 11.606-9.249 23.574-21.217l21.76-21.76.545-21.761.725-21.58 25.932-26.113c33.003-33.185 38.806-42.252 42.796-64.556 2.538-14.508 1.632-15.052-24.119-14.326l-21.397.544-10.156 10.336c-5.621 5.803-11.424 10.518-12.693 10.518-1.995 0-2.539-4.171-2.539-19.04 0-24.663 2.72-32.823 16.14-47.512 18.496-20.128 19.403-36.993 2.72-53.495-5.44-5.621-6.166-7.072-3.809-7.979 1.632-.544 7.254.363 12.513 1.995 16.683 5.259 25.206 15.595 28.47 34.454 4.17 23.393 2.72 21.761 19.947 21.942l15.051.182 14.326 14.507 14.326 14.507v23.03c0 12.513.544 22.849 1.27 22.849.543 0 6.346-4.896 12.693-11.062l11.425-11.061 57.665.725 57.485.544 12.512 6.347c8.523 4.17 15.414 9.61 22.123 17.046 5.44 5.984 9.793 11.605 9.793 12.512 0 1.088 1.088 3.264 2.539 4.715 1.27 1.632 2.901 5.259 3.626 7.979 1.088 4.715.907 4.896-2.901 2.901-2.176-1.088-5.44-3.445-7.253-5.259-5.622-5.258-19.948-12.15-29.74-14.325-8.16-1.995-10.155-1.814-16.32 1.088-4.353 1.994-8.524 5.984-11.062 10.517-3.808 6.891-4.171 9.249-4.171 41.708 0 35.362-1.27 43.703-9.43 58.935-12.33 23.575-36.45 42.071-62.925 48.055-8.16 1.995-39.713 3.627-55.852 2.902-5.259-.363-1.45-5.803 13.782-20.673 15.776-15.595 16.139-15.776 25.025-15.776 17.59 0 37.537-13.782 47.51-32.641 3.99-7.435 4.534-11.062 5.26-37.9.725-23.937.362-29.921-1.633-31.19-3.082-1.995-36.268-2.177-38.806-.182-.907.725-48.237 48.055-105.177 105.177L585.382 445.336l-.906 114.607c-.907 123.129-.544 117.326-10.336 143.62-2.902 7.616-13.601 29.921-17.409 36.268-4.17 6.89-20.129 26.294-21.58 26.294m-57.642-1.056c-2.031-.205-16.145-16.806-21.24-25.238-3.808-6.347-14.507-28.652-17.409-36.268-9.792-26.294-9.43-20.491-10.336-143.62l-.907-114.607L324.254 341.43c-56.94-57.122-104.089-104.452-105.177-105.177-2.538-1.995-35.723-1.813-38.806.181-1.995 1.27-2.358 7.254-1.632 31.19.725 26.839 1.269 30.466 5.258 37.9 9.974 18.86 29.922 32.642 47.511 32.642 8.886 0 9.249.181 25.025 15.776 15.233 14.87 19.04 20.31 13.963 20.673-16.32.725-47.873-.907-56.034-2.902-26.475-5.984-50.593-24.48-62.924-48.055-8.16-15.232-9.43-23.573-9.43-58.935 0-32.46-.362-34.817-4.17-41.708-2.54-4.533-6.71-8.523-11.062-10.517-6.166-2.902-8.16-3.083-16.321-1.088-9.792 2.176-24.118 9.066-29.74 14.325-1.813 1.814-5.077 4.171-7.253 5.26-3.808 1.994-3.99 1.813-2.901-2.902.725-2.72 2.357-6.347 3.626-7.979 1.451-1.45 2.539-3.627 2.539-4.715 0-.907 4.352-6.528 9.792-12.512 6.71-7.435 13.6-12.875 22.124-17.046l12.512-6.347 57.485-.544 57.666-.725 11.424 11.061c6.347 6.166 12.15 11.062 12.694 11.062.725 0 1.269-10.336 1.269-22.849v-23.03l14.326-14.507 14.326-14.507 15.05-.182c17.41-.18 15.959 1.27 19.948-22.304 1.813-11.243 3.264-14.145 9.974-21.942 5.984-6.891 9.973-9.611 17.952-11.969 5.44-1.813 11.425-2.72 13.057-2.176 2.357.907 1.632 2.358-3.808 7.98-16.684 16.501-15.777 33.366 2.72 53.494 13.419 14.689 16.139 22.849 16.139 47.511 0 14.689-.544 19.04-2.357 19.04-1.451 0-7.254-4.714-12.876-10.517l-10.517-10.336-21.217-.544c-25.569-.726-26.475-.182-23.937 14.326 3.99 22.304 9.793 31.371 42.796 64.556l25.932 26.113.725 21.58.544 21.76 21.761 21.76c11.968 11.97 22.486 21.58 23.574 21.218 1.27-.544 2.176-57.666 2.72-168.283.907-157.04 1.088-168.283 4.352-178.438 9.067-29.196 19.04-48.78 35.361-69.453 4.171-5.259 8.342-9.067 9.249-8.523 2.357 1.45 2.538 823.643.18 824.912q-.058.044-.157.032z" style="stroke-width:.181339"/>
</svg>
