<svg xmlns="http://www.w3.org/2000/svg" width="1200" height="960">
    <path d="M303.43 716.94c-3.473 2.671-12.021 7.747-18.967 11.22-7.212 3.74-12.822 8.28-12.822 10.15 0 5.878 34.46 42.208 62.777 66.25C371.55 835.817 439.67 873.216 476 882.03c2.939.802 11.487 2.939 18.7 5.076 61.975 17.364 163.754 17.364 216.38 0 5.877-1.87 14.693-4.274 19.234-5.343 4.808-1.069 9.35-2.939 10.151-4.274 1.069-1.336 4.007-2.404 7.213-2.404 2.938 0 8.548-1.603 12.288-3.74 4.007-1.87 16.295-8.014 27.248-13.357 10.953-5.61 23.775-12.288 28.05-14.96 4.54-2.938 9.883-6.144 12.02-7.212 2.138-.802 9.35-5.877 16.029-10.686 6.678-4.808 15.76-11.487 20.035-14.692 16.028-11.487 68.387-66.25 67.585-70.524-.534-2.405-7.48-8.015-15.494-12.289s-15.76-8.815-17.096-10.418c-5.877-5.61-13.624-1.336-34.46 19.234-18.166 18.432-54.764 47.55-75.6 60.373-16.83 10.685-45.68 23.24-73.196 32.59-104.45 34.728-222.524 18.433-315.755-43.543-18.967-12.555-56.099-44.612-70.524-61.174-12.288-13.891-16.028-14.96-25.378-7.747m383.875-145.857c-7.48 12.556-6.411 16.296 7.747 22.707 4.541 1.87 11.754 5.877 16.028 8.815 4.541 2.939 9.884 6.145 12.021 7.213s15.494 8.549 29.385 16.83 27.248 15.76 29.385 16.83c2.137 1.068 7.747 4.274 12.021 7.212 4.542 2.939 9.884 6.144 12.022 7.213s13.89 7.747 25.912 14.692c11.754 6.946 22.974 12.823 24.843 12.823 3.74 0 18.7-16.296 18.7-20.57 0-1.87-10.418-9.35-23.24-16.83-13.09-7.48-25.379-14.692-27.516-16.028-2.137-1.602-5.877-3.472-8.014-4.54-2.137-1.07-14.692-8.282-28.05-16.296-13.089-8.014-26.179-15.494-29.384-16.83-2.939-1.603-7.747-4.007-10.686-5.877-25.11-14.96-49.687-28.583-51.824-28.583-1.336 0-5.61 5.075-9.35 11.22m-196.078-13.356c-3.473 3.472-24.844 16.562-33.926 20.57-4.809 2.136-76.936 44.61-86.82 51.022-2.137 1.603-6.411 4.007-9.35 5.343-20.035 10.151-37.399 21.37-38.2 24.576-1.069 5.877 10.685 23.241 16.028 23.508 2.404 0 9.617-3.472 16.028-7.747s16.296-10.418 22.173-13.624c5.877-3.205 14.425-8.014 18.7-10.952 4.54-2.671 10.418-6.144 13.356-7.747 2.939-1.336 7.213-3.74 9.35-5.343 8.281-5.343 72.66-42.742 73.462-42.742 2.137 0 25.378-16.562 25.378-17.898 0-.801-2.671-6.144-5.877-11.754-6.144-10.952-13.89-13.624-20.302-7.212m34.193-26.18c0 5.877 20.837 22.974 37.132 30.454 12.556 5.877 18.7 6.945 37.667 6.945 19.233 0 25.11-1.068 37.399-7.212 17.363-8.549 38.734-26.714 36.33-30.988-1.336-2.137-24.31-2.939-75.332-2.939-60.64 0-73.196.535-73.196 3.74m197.147-20.57c-5.076 5.878-10.151 15.495-10.151 19.235 0 1.335 8.014 7.212 17.898 12.822 10.151 5.61 20.57 11.487 23.508 13.357s7.213 4.007 9.35 5.343c2.137 1.068 14.692 8.28 28.049 16.295 13.09 8.014 26.18 15.494 29.385 16.83 2.939 1.335 9.083 4.808 13.357 7.48 4.541 2.938 12.822 7.746 18.7 10.952 5.876 3.206 15.76 9.35 22.172 13.624s13.09 7.747 14.96 7.747c4.808 0 9.616-5.61 9.616-11.22 0-2.671 1.336-4.808 2.672-4.808 1.602 0 2.671-2.672 2.671-6.144 0-4.542-3.74-8.015-15.227-14.693-34.727-19.234-45.947-25.645-67.051-38.2-12.021-7.213-22.707-13.09-23.24-13.09s-13.09-7.213-27.516-16.028c-14.692-8.816-27.515-16.029-28.584-16.029-.801 0-3.472-1.87-5.61-4.007-5.342-5.342-9.883-5.075-14.96.535m-298.658 14.426c-24.31 14.693-46.482 27.782-49.42 29.385-2.94 1.336-8.816 4.809-13.358 7.747-4.274 2.939-9.884 6.144-12.02 6.946-9.885 4.54-53.428 31.255-56.366 34.727-2.405 2.939-2.138 4.809 1.068 8.549 2.137 2.404 4.541 6.945 5.076 9.884 1.603 9.617 9.884 7.212 43.009-12.289 17.898-10.685 35.529-21.103 39.269-22.973 3.74-2.137 10.418-6.144 14.692-8.816 4.542-2.938 10.419-6.411 13.357-7.747s9.884-5.61 15.494-9.35 10.685-6.945 11.22-6.945c.801 0 9.884-5.076 20.57-11.487s21.637-12.288 24.309-13.357c2.404-.801 5.342-3.473 6.144-5.61 1.603-4.54-12.021-25.645-16.296-25.378-1.335 0-22.44 12.022-46.748 26.714m180.05-135.972c-.802 1.335 1.87 7.48 5.876 13.624s10.419 16.562 14.159 23.24c10.418 19.501 13.624 24.844 18.966 33.393 2.939 4.274 6.679 10.952 8.014 14.692 1.603 3.473 3.74 7.213 4.809 8.014 1.068.802 4.808 6.946 8.281 13.891 3.74 6.679 8.548 15.227 11.22 18.433l4.541 5.877 4.809-9.083c6.144-10.953 7.212-56.099 1.87-61.709-1.87-1.602-3.473-4.808-3.473-6.41 0-5.344-14.96-26.18-24.31-33.927-16.295-13.357-51.023-26.18-54.763-20.035m-29.118 1.602c-23.508 8.015-35.797 16.83-50.49 35.797-15.493 20.57-20.836 60.373-10.952 83.346l4.274 10.151 5.343-5.61c2.939-2.938 6.411-8.28 7.747-11.486 1.603-3.473 5.076-9.884 7.747-14.158 5.343-8.282 11.754-19.234 20.57-36.064 2.938-5.075 5.877-9.884 6.945-10.685s3.206-4.542 4.809-8.014c1.335-3.74 5.075-10.419 8.014-14.693 2.938-4.541 6.144-9.884 7.212-12.021 1.069-2.137 3.473-5.61 5.343-7.747 4.007-4.007 3.74-11.487-.534-12.555-1.336-.268-8.549 1.335-16.028 3.74m41.94-243.094c-2.404 1.603-3.206 25.111-2.671 107.656l.801 105.252h29.385L644.83 258c.535-56.633-.267-104.184-1.335-106.054-2.672-4.007-22.173-6.945-26.714-4.007m-52.626-.267c-2.938.802-6.411 2.137-7.48 3.206-1.603 1.603-2.671 128.76-1.87 209.435 0 1.068 6.412 1.87 14.159 1.335l13.89-.8v-213.71l-6.678-.534c-3.74 0-9.082.267-12.02 1.068M513.4 71.538c-5.877 1.336-16.028 4.007-22.706 6.144-6.679 1.87-16.029 4.275-20.57 5.343-4.808 1.069-9.35 2.939-10.151 4.274-1.069 1.336-3.473 2.405-5.61 2.405-10.151 0-91.895 43.81-99.909 53.427-.801.801-8.548 7.213-17.364 13.891-18.165 13.891-49.42 45.413-63.044 63.578-4.808 6.679-9.617 12.556-10.418 13.357-3.206 2.672-26.447 39.27-29.385 45.68-1.336 3.473-3.74 8.282-5.343 10.419-5.076 8.014-18.7 39.269-18.7 43.543 0 2.404-1.068 4.809-2.404 5.877-1.336.802-3.205 5.343-4.274 10.151-1.069 4.542-3.473 13.891-5.343 20.57-12.288 40.605-13.357 50.489-13.09 114.868.268 51.024 1.07 64.915 4.542 74.799 2.404 6.678 4.541 15.494 4.541 20.035 0 4.274 1.87 10.952 4.007 14.692s3.74 9.35 4.007 12.556c0 7.48 8.014 24.843 11.487 24.843 1.336 0 5.61-2.137 9.35-5.075 4.007-2.671 13.624-8.281 21.37-12.288 14.693-7.747 16.296-10.953 10.152-22.173-2.137-4.007-5.61-14.96-8.014-24.576-17.097-71.326-10.953-157.344 16.295-221.723 6.144-14.426 12.021-27.516 14.426-32.057 1.335-2.137 3.74-6.411 5.075-9.35 1.603-2.938 5.076-9.082 8.014-13.356 2.939-4.542 6.144-9.884 7.213-12.022.801-2.137 2.404-4.54 3.206-5.342s4.808-6.144 8.815-12.021c8.549-12.556 43.81-48.886 62.51-64.113 25.912-21.104 62.777-42.742 98.573-57.434 7.48-2.939 28.851-9.885 49.42-15.494l17.364-4.809V94.78c0-24.843 0-25.11-6.678-25.378-3.74-.267-11.487.535-17.364 2.137m145.59-4.007c-1.07 22.173-.535 48.352 1.068 51.023 1.069 1.87 4.274 3.206 7.213 3.206 7.212 0 51.29 12.555 67.852 19.234 89.224 36.063 157.344 99.909 197.414 185.125 15.761 33.392 15.227 32.324 24.31 66.784 9.884 38.735 13.356 83.881 9.617 121.013-3.473 32.324-12.289 74.798-16.563 79.073-1.336 1.602-2.404 5.342-2.404 8.548 0 4.541 4.808 8.815 20.035 18.165 21.905 13.357 28.05 14.96 28.05 7.48 0-2.671 1.068-5.877 2.404-7.48 1.602-1.335 3.74-7.212 5.342-13.09 15.761-61.975 16.83-70.523 16.83-123.416 0-47.818-3.74-83.614-11.754-106.32-1.336-4.542-3.74-12.289-4.809-17.365s-4.808-16.028-8.014-24.042-6.41-17.364-7.212-20.57-2.939-7.48-5.076-9.082-3.74-5.076-3.74-7.747-1.87-6.144-4.007-8.014-4.007-4.809-4.007-6.946c0-4.808-30.186-49.687-46.482-69.188-24.576-29.385-77.736-76.935-95.1-84.95-2.137-1.068-9.884-5.61-17.364-9.883-7.213-4.542-20.035-11.22-28.05-14.96s-17.63-8.281-21.37-10.151-13.891-5.61-22.707-8.014c-8.815-2.672-20.035-6.679-24.844-8.549-4.808-2.137-12.288-3.74-16.83-3.74s-10.15-1.068-12.555-2.404c-6.678-3.473-27.247-6.411-27.247-3.74M542.784 1.281c-13.09 1.07-29.385 3.473-36.063 5.076-15.494 3.74-33.392 8.014-46.75 11.487-5.876 1.603-11.753 3.74-13.089 5.343-1.603 1.335-4.808 2.404-7.212 2.404-6.412 0-63.579 26.18-83.881 38.2-53.962 32.591-103.65 77.203-140.781 126.623-10.953 14.425-20.57 28.05-21.638 30.186-1.069 2.138-4.274 7.48-7.213 12.022-12.555 19.768-40.07 78.805-40.07 86.552 0 2.404-1.336 5.877-2.939 7.48s-4.007 7.747-5.343 13.356c-2.137 9.884-4.274 19.501-10.418 43.544-9.884 39.269-9.884 149.863-.267 188.865 3.206 12.288 7.213 28.584 10.953 43.543 2.137 9.083 8.548 27.515 13.09 38.735 3.74 9.083 19.233 42.475 21.904 46.749 1.336 2.137 4.007 7.48 5.877 12.021 4.542 9.617 37.4 58.236 47.016 69.456 28.851 33.392 93.765 92.162 101.512 92.162 1.603 0 2.939.801 2.939 1.87 0 4.54 48.886 31.254 81.744 44.878 13.09 5.343 27.782 11.487 32.59 13.624s11.754 3.74 15.227 3.74 6.945 1.069 8.014 2.405c.801 1.602 7.213 3.472 14.158 4.274 6.946 1.068 18.7 3.472 25.912 5.342 19.234 5.343 88.423 10.419 111.396 8.282 56.099-5.076 71.059-6.946 78.271-9.35 4.542-1.336 14.159-4.007 21.371-5.61 24.577-5.343 34.728-8.281 37.132-10.953 1.603-1.335 4.274-2.404 6.411-2.404 6.412 0 67.319-28.85 84.683-40.07 4.541-2.939 9.884-6.144 12.02-7.213 11.22-5.076 59.038-44.077 80.142-64.914 25.11-25.378 62.243-72.661 72.127-92.162 1.602-2.939 5.075-9.083 8.014-13.357 2.938-4.541 6.144-9.884 6.945-12.021 2.404-6.144 17.364-37.933 21.371-45.948 2.137-3.74 3.74-8.815 3.74-10.952s1.87-7.48 4.007-11.487c2.137-4.274 4.007-9.884 4.007-12.555 0-2.672 1.336-7.48 2.939-10.419s4.007-11.754 5.075-19.234c1.336-7.48 3.473-18.432 5.076-24.309 1.335-5.877 4.007-28.316 5.877-49.687 3.472-43.276.267-103.65-7.213-129.561-1.87-7.48-3.74-17.097-3.74-21.371s-1.87-11.22-4.007-15.494c-2.137-4.007-4.007-9.884-4.007-12.556s-1.603-8.815-3.74-13.624c-2.137-4.808-5.877-14.158-8.281-20.836-9.35-24.844-39.002-80.943-49.955-94.834-1.068-1.603-7.48-9.884-13.89-18.966-14.96-20.837-55.565-63.312-78.539-82.011-44.611-36.598-108.19-71.326-156.809-86.018-8.815-2.672-20.57-6.411-26.18-8.281-5.342-2.137-13.356-3.74-17.363-3.74s-13.09-1.87-20.302-4.007C669.14.747 580.184-1.657 542.784 1.28m97.505 12.556c21.37 2.404 44.612 5.877 51.824 8.014 6.946 2.137 15.761 3.74 18.967 3.74 3.473 0 9.617 1.336 13.891 2.938 4.007 1.603 11.22 4.007 15.494 5.076 23.775 6.678 63.044 24.042 89.49 39.803 5.076 2.939 10.953 6.412 13.09 7.48 16.563 7.747 62.243 43.81 86.018 67.318 23.508 23.508 59.305 69.456 67.586 86.018.801 2.137 4.007 7.213 6.678 11.754 2.939 4.275 9.617 17.097 14.96 28.05s11.22 23.508 13.357 27.515c2.137 4.274 4.007 9.35 4.007 11.754 0 2.137 1.603 7.212 3.74 10.952 3.205 6.679 7.212 18.967 14.96 48.62 1.602 6.678 4.273 21.103 5.342 32.323 1.336 10.952 3.74 25.378 5.076 32.056 5.877 25.645 1.602 95.635-8.014 134.637-1.603 5.877-3.74 16.028-5.076 22.706-2.137 12.022-5.61 23.241-12.288 39.537-2.137 4.808-3.74 9.884-3.74 11.22 0 1.602-3.473 10.15-7.747 19.233-4.274 9.35-8.281 18.7-9.35 20.837-.801 2.137-5.343 9.884-9.617 17.364-4.541 7.212-9.617 16.295-11.487 20.035-1.602 3.74-4.007 7.747-5.342 9.35-1.069 1.335-10.419 14.158-20.837 28.049-22.172 30.186-59.839 67.853-89.224 90.025-43.543 32.323-99.641 61.708-138.91 72.928-4.275 1.069-11.487 3.473-16.029 5.076-12.822 4.274-33.125 8.548-54.763 11.22-10.952 1.335-25.912 3.472-32.857 5.075-16.83 3.473-60.908 3.473-80.141 0-8.282-1.603-23.775-4.007-34.461-5.343-10.685-1.335-24.844-3.74-31.522-5.61-22.707-5.61-41.406-11.22-49.955-14.96-4.54-1.87-9.616-3.472-10.952-3.472-1.603 0-6.144-1.87-10.418-4.007-4.007-2.137-16.563-8.014-27.515-13.357s-22.44-11.22-25.378-12.822c-53.16-32.057-89.758-62.51-124.219-103.382-8.014-9.35-16.295-18.967-18.165-20.837-4.809-5.343-27.515-40.07-31.79-48.619-1.068-2.137-4.808-9.35-8.815-16.028-14.692-25.645-40.07-93.23-40.07-106.854 0-3.74-1.603-12.021-3.74-18.7-4.007-12.288-13.09-90.56-11.22-96.703.534-1.87 2.404-19.768 4.274-39.536s4.809-41.407 6.946-47.818c2.137-6.678 3.74-15.494 3.74-19.5 0-4.275 1.335-10.42 3.205-13.625 1.603-3.205 4.007-9.35 5.076-13.89 4.007-16.029 10.418-32.592 24.31-61.442C224.09 182.4 305.3 101.725 401.201 56.579c11.754-5.343 23.508-10.953 25.912-12.556 2.672-1.335 6.411-2.404 8.549-2.404 1.87 0 7.212-1.87 11.22-4.007 4.273-2.137 9.883-4.007 12.288-4.007 2.67 0 8.548-1.603 13.356-3.74 12.021-5.076 33.392-9.35 61.175-12.288 12.555-1.336 29.385-3.74 37.399-5.076 21.37-3.473 26.98-3.473 69.188 1.336" style="stroke-width:.267136"/>
</svg>
