<svg xmlns="http://www.w3.org/2000/svg" width="1134" height="960">
    <path d="M783.14 1014.225c-5.73 2.604-18.23 4.688-27.083 4.688-22.916.52-102.08 16.666-107.81 21.353-6.25 6.25 38.02 11.98 70.311 8.854 29.166-2.083 65.623-14.062 71.873-22.916 1.562-2.604 7.812-7.812 13.541-10.937 10.417-5.729 10.417-5.729 0-5.729-5.729 0-15.104 2.083-20.833 4.687M308.152 781.941c-11.978 3.125-24.999 8.854-28.644 12.5-3.125 3.124-8.854 6.25-11.458 6.25-18.23 0-60.415 75.518-60.415 108.85s41.144 109.893 58.852 109.893c3.125 0 9.375 3.124 13.541 6.77 4.688 4.167 21.875 9.896 38.54 13.541 51.562 10.938 105.206-8.333 137.497-49.998 15.103-19.27 18.228-26.041 27.603-64.06 5.208-19.27-1.042-54.166-10.937-59.895-2.604-2.083-10.937 2.084-17.708 8.854-9.895 8.854-13.02 17.708-13.02 34.374 0 21.875-11.458 49.999-26.562 65.102-13.541 13.02-50.52 29.687-66.144 29.687-26.04 0-62.498-19.791-79.164-42.707-13.02-17.708-15.625-26.562-15.625-51.04 0-24.479 2.604-33.332 15.104-50.52 18.75-26.04 51.04-43.227 81.248-43.227 23.436 0 44.27-11.458 44.27-23.958 0-8.333-28.125-17.708-48.958-17.187-8.854.52-26.04 3.646-38.02 6.77m668.73-282.284c-2.083 6.25-3.645 20.833-3.645 31.25 0 28.644-24.479 93.226-48.436 126.558-35.416 50.52-118.226 130.726-149.475 144.788-4.166 2.083-14.583 8.333-23.437 14.062-8.333 5.208-26.04 15.103-39.061 21.874-13.02 6.25-27.083 14.583-31.249 17.708-4.167 3.646-13.541 7.291-20.833 8.333-20.312 2.604-12.5 11.979 9.375 11.458 23.958-1.042 91.143-20.833 122.913-36.978 26.04-12.5 25.52.52-.52 19.79-31.25 22.396-33.854 23.958-83.332 47.916-22.395 11.458-47.394 23.437-55.206 27.603-8.334 4.167-19.27 7.292-24.479 7.292-15.624 0-58.331 20.312-54.686 26.04 1.563 2.605 6.77 5.209 10.937 5.209s13.02 3.646 20.312 8.333c17.187 10.937 116.143 10.937 147.913 0 12.5-4.687 26.561-8.333 31.77-8.333 4.687 0 23.436-7.812 41.144-17.187 58.332-30.728 112.497-93.747 151.558-175.516 5.73-13.02 14.583-30.207 18.229-38.02 8.854-16.665 10.416-40.102 3.125-40.102-2.604 0-13.542 13.02-23.958 29.165-21.353 31.77-81.768 95.831-90.622 95.831-6.771 0-7.813-8.854-1.563-11.458 7.292-3.125 51.04-68.748 61.978-92.706 29.686-64.58 43.227-120.83 43.227-178.12 0-45.31-6.25-67.706-11.978-44.79M775.328 300.184c0 5.73 2.604 11.979 5.208 13.541 3.125 1.563 5.208 11.98 5.208 22.916 0 19.27-4.166 24.479-104.163 120.83-57.29 55.207-104.164 103.643-104.164 107.289 0 5.208 9.896 6.77 38.02 6.77 42.186 0 68.227 11.458 76.56 33.853 10.417 27.083 1.042 42.187-60.935 101.56-32.812 31.249-58.332 59.373-56.249 62.498 2.084 3.125 14.583 4.167 32.812 2.083 45.311-4.166 95.31-22.916 130.204-48.436 14.583-10.937 16.666-15.103 16.666-37.499 0-27.603-.52-27.082 33.854-25.52 17.707.521 22.916-2.083 31.77-14.062 42.707-58.331 61.977-147.912 47.394-220.306-9.375-44.27-19.791-75.518-28.645-84.372-3.646-3.646-6.25-8.854-6.25-11.979s-6.77-13.02-15.104-22.395c-18.228-19.27-42.186-23.437-42.186-6.77m-123.954-57.81c-20.833 19.27-36.458 36.977-34.375 39.06 2.084 2.084 33.854 3.646 70.832 3.646h66.664v-21.353c0-20.833-14.062-40.624-29.165-41.145-3.125 0-8.854-3.645-12.5-7.812-11.458-13.541-22.395-8.333-61.456 27.603M522.73 181.437c-11.458 2.604-29.165 6.25-39.06 7.812-9.896 2.083-22.917 6.77-28.646 10.416-5.729 4.167-13.02 7.292-17.187 7.292-3.646 0-18.228 7.812-32.811 16.666-21.875 14.583-25.52 19.27-25.52 33.853 0 27.603-4.167 32.812-27.083 32.812-20.833 0-41.145 15.103-51.56 39.061-2.605 5.729-6.772 14.062-9.376 18.229-10.937 18.228-21.353 52.081-27.082 89.58-8.854 52.603.52 111.455 24.478 163.016s33.333 59.894 64.582 59.894h26.04v25.52c0 22.916 1.563 26.562 18.23 39.062 10.416 7.812 26.04 15.103 35.415 16.666 14.583 2.083 20.833-1.563 50.52-29.166 39.581-36.978 38.019-41.665-17.188-41.665-43.749 0-63.019-9.375-71.352-33.333-7.812-23.957 2.083-46.352 31.77-72.914 12.5-10.937 59.373-55.728 103.643-98.956l80.727-78.643-71.873-3.125c-69.27-2.604-71.873-3.125-85.935-16.666-10.937-10.937-13.542-18.75-13.542-35.937.521-20.832 3.646-24.478 64.061-83.33 34.895-33.854 61.977-64.061 60.415-66.665-3.646-5.73-12.5-5.73-41.666.52m228.12-134.89c-13.542 12.5-35.937 33.853-50.52 48.436-14.583 14.062-73.956 71.352-132.287 127.08-57.811 55.206-105.206 104.684-105.206 109.892 0 4.687 4.167 12.5 9.375 17.187 8.333 7.291 22.916 8.854 95.31 8.854 46.873 0 88.539 2.083 92.705 4.687 7.292 4.688-13.02 25-201.035 207.807-23.958 22.916-43.228 44.79-43.228 48.956s4.166 11.458 9.375 16.146c7.812 7.291 21.874 8.854 80.205 8.854 38.541 0 71.873 1.562 73.957 3.645 3.645 3.646-24.479 31.77-175.516 174.995-36.978 34.895-69.269 67.707-72.394 72.915-6.25 12.5-.52 28.645 11.98 32.29 13.02 4.167 29.165-6.25 64.58-41.144 15.104-14.583 79.165-76.56 142.184-138.017 63.54-61.456 116.663-116.142 118.746-121.35 1.563-6.25-.52-14.062-6.25-20.312-7.812-8.854-16.145-9.896-80.206-9.896-39.06 0-72.393-1.562-74.476-3.125-2.605-2.604 44.27-48.957 189.056-186.973 56.249-53.645 64.582-65.103 59.894-80.727-4.166-13.02-23.957-15.625-117.704-15.625-46.353 0-82.81-2.083-82.81-4.687 0-4.687 69.79-74.477 194.265-194.265 30.728-29.687 55.727-57.81 55.727-62.498 0-10.417-13.541-25-23.957-25-4.167 0-18.229 9.896-31.77 21.875M405.546-14.39c-41.144 7.812-79.685 19.27-104.163 31.77-20.833 10.416-101.56 89.58-109.372 107.289-3.125 6.77-9.895 18.749-15.104 27.603-5.729 8.333-15.103 26.04-21.353 39.061-5.73 13.02-14.583 30.208-18.229 38.02-8.854 16.666-10.416 40.103-3.125 40.103 2.604 0 10.417-9.896 17.708-22.395 14.062-23.437 89.06-102.601 97.393-102.601s6.25 6.77-6.25 20.832c-58.331 65.103-97.913 171.35-97.913 261.45 0 45.312 6.25 67.707 11.978 44.791 2.084-6.25 3.646-20.832 3.646-31.249 0-34.374 32.29-111.455 59.894-142.704 86.456-97.914 126.559-129.684 222.39-175.516 19.79-8.853 35.415-18.228 35.415-20.832 0-10.937-58.852 0-108.33 20.312-22.395 9.374-37.499 9.374-37.499-.521 0-4.167 2.083-7.812 4.687-7.812s16.146-7.813 30.729-17.187c51.04-34.895 149.995-76.56 180.723-76.56 19.27 0 15.625-11.98-6.77-21.875-48.436-21.354-73.956-23.958-136.455-11.979m-18.228-60.415c-5.73 2.084-16.146 6.25-23.437 9.375s-17.187 7.291-21.874 8.854c-14.583 4.166-10.938 13.541 5.208 13.541 7.812 0 30.728-3.646 50.52-7.812 20.311-4.167 49.477-7.812 65.101-7.812 32.812 0 52.082-7.813 30.729-12.5-23.437-4.687-95.83-7.291-106.247-3.646m346.865-5.208C700.85-66.472 668.559-32.618 657.623.193c-11.98 36.457-11.98 68.227 1.04 82.29l9.896 10.936 11.458-14.062c8.334-9.374 11.98-20.312 11.98-34.374 0-27.082 15.624-56.769 39.581-74.997 16.146-12.5 23.958-14.583 53.645-14.583 39.582-.521 56.248 7.812 79.164 40.103 11.979 16.145 15.104 26.04 15.104 47.915 0 51.04-31.25 84.373-83.852 89.06-22.395 2.083-34.374 6.25-44.27 15.624-20.311 18.75-14.062 25 29.687 26.562 48.436 1.563 78.644-9.895 107.289-42.707 20.832-23.437 38.02-63.54 38.02-86.977 0-28.124-17.188-68.227-39.062-90.622-41.145-42.186-101.039-55.727-153.12-34.374" style="stroke-width:.520817"/>
</svg>
