<svg xmlns="http://www.w3.org/2000/svg" width="1176" height="960">
    <path d="M474.711 33.319v519.768a33.32 33.32 0 0 0 33.319 33.319h159.929a33.32 33.32 0 0 0 33.318-33.319V33.32A33.32 33.32 0 0 0 667.96 0H508.03a33.32 33.32 0 0 0-33.318 33.319M275.943 159.323 176.226 284.36a33.32 33.32 0 0 0 5.276 46.822L307.084 431.33a16.045 16.045 0 0 1-6.434 28.187l-155.092 35.398a33.32 33.32 0 0 0-25.07 39.897l35.581 155.912a33.32 33.32 0 0 0 39.897 25.07l157.33-35.906a16.046 16.046 0 0 1 18.028 22.606l-67.582 140.34a33.32 33.32 0 0 0 15.563 44.476l144.09 69.39a33.32 33.32 0 0 0 44.475-15.562l65.668-136.36a16.045 16.045 0 0 1 28.913 0l65.667 136.36a33.32 33.32 0 0 0 44.476 15.562l144.09-69.39a33.32 33.32 0 0 0 15.563-44.475L804.664 702.48a16.046 16.046 0 0 1 18.028-22.604l157.331 35.915a33.32 33.32 0 0 0 39.898-25.068l35.59-155.912a33.317 33.317 0 0 0-25.068-39.897l-155.092-35.398a16.045 16.045 0 0 1-6.434-28.187L994.5 331.182a33.32 33.32 0 0 0 5.275-46.822l-99.717-125.037a33.32 33.32 0 0 0-46.823-5.275l-79.263 63.21a69.19 69.19 0 0 0-26.049 54.093v101.816a220.3 220.3 0 0 0 9.852 65.148l23.61 76.28a66.5 66.5 0 0 1-9.745 58.775l-67.425 92.71a65.43 65.43 0 0 1-52.916 26.945H524.69a65.43 65.43 0 0 1-52.915-26.946l-67.426-92.71a66.5 66.5 0 0 1-9.745-58.774l23.61-76.28a220.3 220.3 0 0 0 9.852-65.148v-101.83a69.19 69.19 0 0 0-26.05-54.091l-79.248-63.198a33.32 33.32 0 0 0-46.824 5.275" style="stroke-width:6.6637"/>
</svg>
