<svg xmlns="http://www.w3.org/2000/svg" width="1507" height="960">
    <path d="m729.39 1021.294-19.438 17.081 14.725 21.205c15.903 23.56 30.629 26.506 51.244 10.013 16.492-14.725 16.492-31.218-1.178-50.066-17.67-19.437-21.204-18.848-45.354 1.767M166.293 458.788c-7.657 7.657-13.548 17.67-13.548 21.793 0 11.191 25.917 34.752 37.697 34.752 12.958 0 32.985-21.205 32.985-35.34 0-14.726-20.027-35.342-33.574-35.342-5.89 0-16.492 6.48-23.56 14.137m1127.958-5.301c-9.424 7.657-16.493 18.848-16.493 25.327 0 14.725 32.396 44.765 42.41 39.464 16.492-10.013 34.162-28.862 34.162-38.286 0-8.835-31.807-41.23-40.642-41.23-1.767 0-10.602 7.067-19.437 14.725m-584.89-7.658c-12.958 15.315-14.725 22.383-11.78 39.464 4.713 27.095 27.095 47.71 51.834 47.71 20.615-.589 31.806-7.068 47.12-29.45 13.548-20.027 12.37-33.574-5.3-57.135-12.959-16.492-18.26-19.437-40.642-19.437-21.205 0-27.684 2.945-41.231 18.848M367.737-77.802c-3.534 7.657 18.26 53.01 51.244 107.2 5.89 9.424 12.37 21.793 14.725 26.505 1.767 4.713 11.191 18.26 20.616 30.04 8.835 11.78 16.492 24.15 16.492 27.095s-18.26 23.56-40.053 45.943c-22.382 22.971-51.833 60.668-65.97 84.228-13.547 23.56-28.272 41.82-31.806 40.642-3.534-1.767-22.382-9.424-41.82-17.67-44.176-17.67-91.886-33.574-101.899-33.574-4.712 0-17.081-4.123-27.683-9.424-20.616-9.424-38.875-9.424-38.875.589 0 2.945 4.712 7.068 10.602 8.835s21.204 9.424 34.163 17.67c23.56 14.726 75.982 41.231 128.404 65.38 21.794 9.425 27.684 14.726 24.739 22.383-18.26 45.354-24.739 164.924-12.958 227.359 5.3 25.916 11.19 51.244 12.958 56.545 2.945 7.657-2.945 12.958-24.739 22.972-52.422 24.738-110.734 54.189-128.404 65.38-18.26 11.191-25.328 14.725-41.82 20.026-4.712 1.767-7.068 5.301-5.301 8.835 4.712 7.658 30.628 7.658 35.34.59 1.768-2.946 11.78-7.069 22.383-9.425 27.095-5.3 72.448-20.026 113.09-36.518 19.438-8.247 38.286-15.904 41.82-17.67 3.534-1.179 18.26 17.08 31.807 40.64 14.136 23.561 43.587 61.258 65.97 84.23 21.793 22.382 40.052 42.998 40.052 45.943s-7.657 15.314-16.492 27.094c-9.425 11.78-18.849 25.328-21.205 30.04-1.767 4.712-12.958 24.738-24.15 44.176-37.696 64.791-46.531 85.406-40.641 91.297 4.123 4.123 13.547-3.535 27.683-22.383 11.78-15.314 31.218-38.286 42.998-51.244s30.04-37.108 40.642-53.011c26.506-41.23 35.93-48.299 48.888-37.697 11.191 9.424 38.875 22.972 74.805 36.519 71.27 27.095 175.525 35.34 230.303 18.848 15.904-4.712 35.341-8.835 42.41-8.835 7.656 0 21.204-3.534 29.45-8.246 8.835-4.123 32.395-15.903 52.422-25.328l36.519-17.67 11.78 12.37c7.068 7.068 12.37 15.314 12.37 17.67 0 5.3 30.039 44.176 54.777 71.27 8.835 9.424 26.506 30.04 38.286 45.354 28.862 38.286 40.053 28.273 16.492-14.725-36.518-68.326-42.997-78.928-66.558-114.858-14.136-20.615-25.327-38.874-25.327-41.23s20.026-23.56 44.175-47.71 44.176-45.943 44.176-48.3c0-2.944 7.657-16.492 17.67-30.628 10.014-14.725 17.671-28.862 17.671-32.396 0-12.369 15.314-10.602 53.011 4.712 42.409 17.67 87.174 32.396 116.035 38.286 10.603 2.356 20.616 6.48 22.383 9.424 4.712 7.069 30.629 7.069 35.34-.589 1.768-3.534-1.177-7.657-7.068-9.424-16.492-5.3-21.204-7.657-40.052-18.848-39.464-24.15-94.831-52.422-108.968-55.956-8.246-2.356-20.615-8.835-28.272-14.726l-13.547-10.602 11.78-58.312c15.314-72.448 15.314-109.556.589-182.005-6.48-31.217-11.191-58.9-9.424-61.257 1.178-2.356 11.19-8.246 22.382-13.547 84.818-40.642 104.844-50.655 125.46-64.203 12.958-8.246 28.272-15.903 34.162-17.67s10.603-5.89 10.603-8.835c0-10.013-18.26-10.013-38.875-.59-10.602 5.302-22.972 9.425-27.684 9.425-10.602 0-59.49 15.903-104.844 35.34-37.697 15.315-53.011 17.082-53.011 4.713 0-3.534-7.657-17.67-17.67-32.396-10.014-14.136-17.67-27.683-17.67-30.628 0-2.356-20.027-24.15-44.177-48.3s-44.176-45.353-44.176-47.12c0-2.356 11.192-20.616 24.739-41.231 14.136-20.616 32.396-50.655 41.23-67.148 8.247-15.903 21.794-40.641 28.862-54.778 8.247-15.314 11.192-27.094 7.658-30.04-4.713-5.3-101.31 104.845-116.036 132.528-2.945 5.89-10.602 17.082-17.081 23.56l-11.191 12.37-33.574-15.903C857.794 22.919 762.963 8.783 668.72 29.987c-57.134 12.958-117.802 36.519-140.185 54.778-12.958 10.013-22.971 2.945-44.176-30.629-7.657-12.369-35.34-47.71-61.846-79.516-25.917-31.218-48.299-58.312-49.477-59.49s-3.534 1.767-5.301 7.068M817.74 85.943c62.435 10.013 136.062 41.23 136.062 57.723 0 5.89-9.424 22.972-20.616 37.697-11.19 14.725-20.615 28.862-20.615 31.807 0 2.356-8.246 14.136-17.67 25.327l-17.082 20.616-28.272-11.192c-15.315-6.479-41.231-11.78-57.724-11.78l-29.45-.589-1.767 48.3-1.767 48.298 23.56 12.37c31.218 15.314 45.354 14.725 56.545-2.357 9.425-14.136 25.917-24.15 30.63-18.848 3.533 3.534-11.192 28.861-20.027 34.752-12.37 7.657-8.836 16.492 12.958 37.696 19.437 18.849 21.793 19.438 42.409 14.137 11.78-3.534 22.382-5.301 23.56-4.123 5.301 5.3-6.479 19.437-23.56 27.094-18.26 8.835-18.849 9.424-20.027 51.833-.589 35.93.59 43.587 8.836 45.943 23.56 7.068 48.298 22.383 48.298 30.04 0 10.013-17.67 9.424-31.806-1.178-14.725-11.192-44.765-11.78-44.765-1.178 0 4.123 3.534 11.19 7.657 15.314 5.89 6.48 4.123 7.068-9.424 4.123-19.438-4.712-27.684 9.424-14.725 24.739 24.15 28.272 12.369 42.997-12.959 15.903-16.492-17.67-26.505-18.26-51.833-2.945l-19.437 12.37 2.945 45.353c1.767 24.739 2.945 47.121 3.534 49.477 0 8.835 40.053 4.712 67.147-7.657 15.315-6.48 32.396-10.602 37.697-8.246 13.547 4.123 34.752 32.395 39.464 51.833 3.534 12.958.589 15.903-21.793 26.505-90.708 41.82-182.005 41.82-283.315-1.767-20.027-8.246-22.383-11.19-19.438-24.738 5.301-19.438 26.506-47.71 39.464-51.833 5.89-1.767 23.56 2.356 39.464 8.835 17.67 7.657 38.286 11.78 51.833 10.602l22.971-1.767 1.768-48.888c1.767-48.299 1.767-48.299-14.726-54.778-8.835-3.534-21.204-8.835-27.094-11.78-7.658-4.123-15.315-1.767-30.04 9.424-21.204 16.492-32.396 12.37-18.26-6.48 12.37-15.903 10.603-24.738-4.122-27.094-8.836-1.178-14.137-6.479-15.315-15.314-2.356-16.492-15.903-22.972-27.094-13.547-4.712 4.123-16.493 9.424-26.506 12.369-27.683 7.657-23.56-7.657 7.068-25.917l25.917-14.725-2.356-34.163c-3.534-50.655-5.89-57.723-22.383-65.38-22.382-10.013-12.369-20.615 15.315-15.903 15.903 2.945 22.971 1.767 22.971-2.945 0-4.123 6.48-15.315 14.725-24.739l15.315-17.67-15.315-19.438c-17.08-22.971-17.67-26.505-5.89-26.505 4.712 0 14.137 7.657 21.794 17.67 15.314 21.205 23.56 21.794 57.134 5.301l25.327-11.78-2.945-48.299c-1.767-26.505-3.534-48.888-3.534-50.066-1.767-5.89-44.176 1.178-68.914 11.191-17.081 7.068-34.163 11.191-38.875 9.424-11.191-4.123-75.393-100.132-75.393-111.912 0-14.136 63.613-41.82 123.692-53.6 49.477-10.013 92.475-11.191 140.774-2.945M528.536 191.376c7.068 9.424 12.958 18.849 12.958 20.616s10.603 17.67 23.56 34.751c12.96 17.082 23.561 34.752 23.561 39.464s-10.602 19.438-23.56 31.807-23.56 26.505-23.56 30.628c0 4.713-7.069 7.658-15.904 7.658-21.204 0-66.558-18.849-66.558-27.095 0-3.534 6.479-16.492 14.725-28.272s14.725-24.15 14.725-26.506c0-2.945 4.123-7.068 9.424-8.835 4.713-1.767 7.069-6.48 4.713-10.013-2.946-5.302-6.48-4.124-11.192 2.356-4.123 5.89-8.835 10.013-11.19 10.013-5.302 0-44.766 42.998-44.766 48.888 0 8.835-25.327 1.767-31.217-8.835-4.713-7.069-3.535-15.315 5.3-31.218 15.904-30.629 83.64-103.077 96.01-103.077 5.89 0 15.903 7.657 22.971 17.67m524.81 21.794c20.026 21.793 35.93 42.997 35.93 46.532s4.123 10.013 9.424 14.136c11.191 10.013 8.835 35.34-4.712 43.587-8.835 5.3-16.493 0-46.532-30.629-20.027-20.026-37.697-35.93-38.875-34.162-1.767 1.178 8.246 18.259 21.204 37.696 13.548 19.438 24.15 36.519 24.15 38.286s-12.37 8.835-27.095 15.903c-27.683 11.78-61.257 15.904-61.257 6.48 0-2.357-10.602-17.082-23.56-31.807-12.959-14.726-23.56-30.04-23.56-34.163s10.601-21.204 23.56-38.286c12.958-17.081 23.56-32.984 23.56-34.751s5.89-11.192 12.958-20.616c20.027-27.094 34.163-22.971 74.805 21.794m96.598 188.484c10.602 39.463 12.958 88.351 4.712 100.72-6.48 10.603-12.37-4.123-12.37-31.217 0-18.848-7.656-42.998-27.094-81.284-11.191-22.382-10.602-32.395 2.356-35.34 14.725-3.535 21.794 6.479 32.396 47.12m-751.58-29.451c-1.178 9.424-8.835 31.218-15.903 48.888s-14.725 43.587-17.081 57.723c-5.89 31.807-10.602 36.519-15.904 15.314-2.356-9.424 0-37.696 5.89-67.147 14.726-71.27 14.137-70.681 31.218-70.681 12.958 0 14.725 1.767 11.78 15.903m63.614 10.013c6.479 4.123 18.848 9.424 28.272 11.78 8.835 1.767 15.904 7.069 15.904 11.192 2.945 154.91 1.767 162.567-22.383 163.156-4.123 0-14.136 4.123-22.382 9.424-18.26 12.37-22.383 8.246-34.163-32.396-11.78-40.641-11.78-82.461-.589-126.637 12.958-49.477 14.725-51.244 35.34-36.519m617.873 19.437c18.26 54.19 6.48 184.361-16.492 184.361-4.123 0-12.37-4.123-18.848-8.835-5.89-4.712-15.315-8.835-20.027-8.835-22.971-.59-25.327-8.246-25.327-88.352s2.356-87.763 25.327-88.352c4.712 0 14.137-4.123 20.027-8.835 18.848-14.136 25.327-10.602 35.34 18.849m-538.356 209.69c0 4.123 10.603 18.26 23.56 30.628 12.96 12.37 23.561 26.506 23.561 31.218 0 12.37-36.518 60.08-45.943 60.08-15.314 0-83.64-83.64-83.64-102.489 0-3.534 10.014-10.602 22.383-16.492 27.095-11.78 60.08-13.547 60.08-2.945m485.346 4.123c14.726 7.068 27.095 14.725 27.095 17.081 0 16.493-73.627 100.721-88.352 100.721-10.602 0-47.12-47.12-47.12-60.079 0-4.712 10.601-18.848 23.56-31.218 12.958-12.369 23.56-26.505 23.56-30.628 0-11.78 30.04-9.424 61.257 4.123M731.745-109.61c-17.081 14.136-17.081 30.629 0 46.532 17.67 16.492 28.273 16.492 44.176-.589 16.492-17.67 16.492-28.273-.589-44.176-16.492-15.903-26.505-15.903-43.587-1.767" style="stroke-width:.589012"/>
</svg>
