<svg xmlns="http://www.w3.org/2000/svg" width="852" height="960">
    <path d="m427.296-30-36.38 38.794 36.38 38.795 36.381-38.795zM375.63 24.348 259.694 158.25 375.63 292.243l35.398-37.721-84.83-96.271 84.83-96.181zm100.65 0L440.884 62.07l84.83 96.18-84.83 96.272 35.398 37.721 115.936-133.992zm-48.984 79.466-51.13 54.437 51.13 54.526 51.13-54.526zm-244.118 21.542-32.09 29.14 29.855 36.292 32.805-29.766zm485.644 0-30.57 35.666 32.805 29.766 29.766-36.291zm-443.096 51.398-32 29.051L353.819 400.85a323.8 323.8 0 0 1 48.985 112.807 447.8 447.8 0 0 0-34.414-162.239c-29.108-43.661-142.664-174.664-142.664-174.664m400.458 0S512.63 307.757 483.521 351.418a448.7 448.7 0 0 0-34.325 162.239 323.8 323.8 0 0 1 48.895-112.807l160.183-195.045zm-474.56 78.93-32 29.14 234.195 282.198a323.8 323.8 0 0 1 48.985 112.807A447.8 447.8 0 0 0 368.39 517.59c-29.108-43.661-216.766-261.906-216.766-261.906m548.663 0S512.629 473.929 483.52 517.59a448.7 448.7 0 0 0-34.325 162.24 323.8 323.8 0 0 1 48.895-112.808l234.286-282.198zm-272.99 13.229-36.382 38.884 36.381 38.794 36.381-38.794zM205.345 474.237l-32 29.14 180.473 215.425s1.333 2.018 3.576 5.542l5.81 9.297c2.471 4.119 5.384 8.947 8.313 14.302a300.4 300.4 0 0 1 20.202 89.656L403.34 1050V841.174s-1.268-16.063-.536-9.564a447.8 447.8 0 0 0-34.414-162.24l.089-.09c-29.108-43.662-163.133-195.045-163.133-195.045zm441.308 0S512.629 625.62 483.52 669.281v.092a448.7 448.7 0 0 0-34.325 162.239c.732-6.499-.536 9.564-.536 9.564V1050l11.62-212.401a300.4 300.4 0 0 1 20.202-89.656c2.929-5.355 5.842-10.183 8.313-14.302l5.81-9.297c2.243-3.524 3.576-5.542 3.576-5.542l180.474-215.425z"/>
</svg>
