<svg xmlns="http://www.w3.org/2000/svg" width="1728" height="960">
    <path d="m824.397-30-248.651.317c-27.773.81-34.224 5.252-37.572 12.301s1.941 20.232 1.941 20.232 52.128 131.75 52.586 132.947 2.148 2.926 2.148 2.926l2.643 3.098s27.56-72.497 33.235-85.291c5.64-12.794 14.803-21.61 25.87-25.099s26.926-3.594 36.76 2.61 13.323 16.393 14.628 24.499 3.703 44.862 3.703 44.862 41.766 558.005 41.097 558.005-38.352 3-95.273-31.611-66.926-60.872-80.39-86.213c-13.498-25.306-16.287-69.465-16.287-69.465-2.009-21.324 3.737-70.882 3.49-82.971-.246-12.09-3.487-16.037-7.434-19.984s-91.569-60.2-91.569-60.2L121.012 87.687l-1.48 2.182L824.398 990zm79.233 0V990l704.837-900.132-1.48-2.182-344.31 223.278s-87.62 56.251-91.568 60.199c-3.947 3.947-7.188 7.895-7.435 19.984s5.493 61.647 3.484 82.97c0 0-2.782 44.16-16.28 69.466-13.464 25.341-23.476 51.602-80.397 86.213s-94.596 31.61-95.266 31.61 41.131-557.97 41.131-557.97 2.4-36.755 3.704-44.862 4.788-18.296 14.621-24.5 25.7-6.097 36.767-2.608 20.23 12.304 25.87 25.098c5.674 12.794 33.235 85.291 33.235 85.291l2.643-3.098s1.69-1.727 2.148-2.925c.458-1.199 52.585-132.948 52.585-132.948s5.29-13.182 1.942-20.231-9.8-11.491-37.572-12.302z" style="stroke-width:3.52453"/>
</svg>
