<svg xmlns="http://www.w3.org/2000/svg" width="998" height="960">
    <path d="m391.69 918.806-102.09 102.09 29.015 29.552c16.12 16.12 31.702 29.552 34.926 29.552s37.074-31.701 75.224-69.85c38.149-38.687 72-69.851 74.686-69.851s36.538 31.164 75.761 69.85C617.9 1048.836 652.287 1080 655.511 1080c5.91 0 60.716-52.657 60.716-58.567 0-9.134-203.104-204.717-212.238-204.717-6.448 0-51.045 40.836-112.299 102.09m308.418-185.373v89.194l23.104-1.612 22.568-1.612 1.612-57.493c1.612-69.85 1.612-69.313 71.462-68.238 26.866.537 51.045-1.612 54.269-4.836 2.687-2.687 4.298-13.433 3.224-23.105l-1.612-18.268-87.045-1.612-87.582-1.075zm-564.18-64.478c0 15.582 2.15 24.18 6.986 24.717 3.224.537 26.866 0 52.12 0 25.253-.538 48.895 1.612 53.193 3.76 5.374 3.762 6.985 18.807 6.448 58.568-1.074 61.254 2.687 67.702 35.463 65.015l20.418-1.612 1.612-80.06c1.074-54.268-.538-82.209-4.836-87.044-4.836-5.91-24.717-7.523-88.657-7.523H135.93zM471.213 17.731c-8.597 10.21-29.014 34.388-45.134 54.806-33.85 41.91-65.552 80.06-82.746 99.403-6.448 7.523-19.88 24.18-30.09 37.612-10.209 13.433-43.522 53.732-73.612 89.732-51.044 60.716-63.94 82.209-49.97 82.209 3.224 0 9.672-2.15 15.045-4.836 29.552-15.582 81.134-38.15 95.105-41.373l15.582-3.762-10.21 15.582c-5.372 8.597-34.387 44.597-64.477 80.06s-63.94 77.373-75.224 92.955c-11.82 15.045-23.104 27.94-25.254 27.94-2.149 0-4.298 3.225-4.298 7.523 0 4.299-3.761 8.597-8.06 10.746-8.06 3.224-11.283 13.97-3.761 13.97 4.836 0 18.806-12.358 115.522-105.85 43.523-42.448 81.672-75.761 84.896-74.15 2.686 2.15 4.836 38.687 4.836 83.821v80.06h13.433c9.671 0 16.656-5.91 27.403-24.179 7.522-13.433 17.194-24.18 21.492-24.18 15.582 0 18.806 28.478 17.731 157.971-.537 94.03.538 129.493 5.374 131.105 3.223 1.074 24.179-16.657 46.209-40.299l39.76-41.91 47.822 47.283c25.79 25.791 48.895 45.134 51.044 43.523 2.15-2.15 3.762-69.851 3.762-150.986 0-108 1.612-146.686 6.447-146.686 6.448 0 41.91 37.612 41.91 44.06 0 2.686 4.837 4.298 10.747 4.298 10.209 0 10.746-3.761 10.746-83.283 0-45.672 2.15-83.284 4.836-83.284 5.91 0 29.015 18.269 59.105 47.82C851.093 556.658 872.048 576 877.42 573.852c5.374-1.612-20.417-40.299-42.447-63.403-4.836-4.836-22.03-25.254-38.15-45.135-16.119-20.417-34.925-41.91-40.835-48.895-6.448-6.985-19.881-23.642-29.553-37.075-9.671-13.433-19.343-24.716-22.03-24.716-2.149 0-4.298-3.224-4.298-7.523s-3.224-8.597-6.448-10.208c-3.761-1.075-5.373-3.762-3.224-5.91 3.224-3.762 22.03 3.76 94.03 37.611 27.403 12.896 39.224 15.582 39.224 9.672 0-6.448-13.433-27.403-29.015-45.672-19.343-22.03-30.09-35.463-59.642-72-33.313-41.373-104.238-127.343-117.671-142.388-6.448-7.522-19.88-24.18-30.09-37.612C537.302 15.582 521.182 0 503.452 0c-12.896 0-20.956 4.299-32.24 17.731" style="stroke-width:.537314"/>
</svg>
