<svg xmlns="http://www.w3.org/2000/svg" width="1320" height="960">
    <path d="M915.235 285.111c-7.77 11.748-23.875 35.433-35.623 52.676-19.896 29.37-59.877 88.49-120.133 178.115-14.4 21.412-27.475 40.36-28.991 42.255-1.895 2.274-2.274 3.98-.947 5.305 1.136 1.137 6.063-.757 14.969-5.874 7.2-4.168 14.022-7.579 15.348-7.579 3.221 0 3.032 6.253-.569 24.065-5.874 29.37-9.095 39.791-19.327 60.255-22.738 46.234-33.538 68.593-36.76 77.689-3.6 10.232-4.737 36.002-1.705 37.896 1.137.569 11.369-18.38 22.927-42.065 41.687-85.268 43.203-88.11 63.478-111.606 11.558-13.453 19.706-21.6 21.6-21.222 2.274.379 3.6 4.358 4.927 15.159 1.137 7.958 2.463 14.969 3.032 15.537 2.084 2.085 6.632-5.495 10.043-16.864 1.894-6.253 4.547-14.4 6.063-18 1.326-3.6 7.769-22.928 14.022-42.634 6.442-19.896 13.832-42.066 16.485-49.266 2.463-7.39 5.305-15.917 6.253-18.949 1.516-5.495 3.6-11.937 8.716-25.58 2.274-6.632 52.298-158.219 54.76-166.367.759-3.031.38-4.168-1.515-4.168-1.516 0-9.285 9.663-17.054 21.222m-73.9 169.777c-1.325 3.222-5.873 13.075-8.147 18.38a6189 6189 0 0 0-7.01 16.106c-2.654 5.685-10.801 24.444-18.002 41.687-7.39 17.243-15.727 35.812-18.38 41.118-4.926 10.421-17.053 25.201-20.464 25.201-1.137 0-1.516-3.79-.758-10.232.948-9.474 8.148-25.77 22.36-50.024 1.894-3.41 7.958-14.4 13.453-24.633 5.495-10.042 11.748-21.79 14.21-25.959 2.275-4.169 5.117-9.285 6.254-11.369s3.6-6.442 5.684-9.474c2.085-3.221 4.548-7.58 5.685-10.043.947-2.463 2.842-3.79 3.79-3.22 1.136.757 1.705 1.704 1.326 2.462m-455.139-186.83c2.842 9.284 52.487 160.113 54.76 166.366 4.738 12.696 7.201 19.896 8.717 25.58.948 3.032 3.79 11.559 6.253 18.949 2.653 7.2 10.043 29.37 16.485 49.266 6.253 19.706 12.696 39.033 14.022 42.633 1.516 3.6 4.169 11.748 6.063 18.001 3.411 11.37 7.959 18.949 10.043 16.864.569-.568 2.084-7.579 3.032-15.537 1.326-10.8 2.653-14.78 4.926-15.159 1.895-.379 10.043 7.769 21.602 21.222 20.274 23.496 21.79 26.338 63.477 111.606 11.558 23.685 21.79 42.634 22.927 42.065 3.032-1.894 1.895-27.664-1.705-37.896-1.895-5.306-13.264-29.56-25.202-54.003-12.505-25.39-23.117-49.834-24.822-56.845-8.906-36.192-10.99-51.16-7.2-51.16 1.326 0 8.526 3.41 16.295 7.578 8.906 5.117 14.212 7.011 14.97 5.685.757-1.137 0-3.6-1.516-5.306s-14.401-20.653-28.802-42.065c-44.15-65.561-86.404-128.28-107.437-159.166-10.8-16.106-29.56-43.581-41.308-61.203-11.748-17.433-22.548-31.644-24.064-31.644-1.895 0-2.274 1.326-1.516 4.168m97.584 187.588c1.137 2.464 3.6 6.822 5.685 10.043 2.084 3.032 4.547 7.39 5.684 9.474s3.98 7.2 6.253 11.37c2.464 4.168 8.716 15.916 14.212 25.958a2286 2286 0 0 0 13.453 24.633c14.211 24.254 21.411 40.55 22.359 50.024.758 6.442.379 10.232-.758 10.232-3.79 0-15.727-15.159-21.222-26.907-5.874-12.885-5.874-12.695-21.98-49.834-5.874-13.643-12.317-28.422-14.401-33.16s-4.927-11.179-6.253-14.21c-1.516-3.222-3.98-8.717-5.495-12.317-2.653-5.874-2.653-9.474-.19-9.474.38 0 1.706 1.894 2.653 4.168M590.27-57.097c-33.35 7.2-60.824 19.707-87.162 39.224C493.064-10.483 483.78.507 487.38.507c1.137 0 2.085-.948 2.085-1.895 0-1.137.758-1.895 1.894-1.895.948 0 9.285-3.6 18.38-8.148 18.57-8.906 25.58-11.748 39.413-15.727 11.937-3.41 46.234-8.337 58.74-8.337 14.78 0 48.508 5.116 56.466 8.337 6.064 2.653 7.011 3.98 7.011 9.474 0 10.8-3.032 11.938-39.792 14.211-32.78 1.895-42.254 3.222-70.109 8.906-35.054 7.2-84.32 24.254-115.585 39.792-14.021 7.01-14.21 7.01-41.118 7.58-26.338.757-36.19 2.273-63.098 10.8-50.402 16.106-97.963 57.413-123.164 107.437-10.232 20.464-15.538 36.76-19.896 62.53-2.463 14.59-3.79 40.36-1.516 31.264.569-2.084 2.653-7.39 4.548-11.748s3.6-9.284 3.6-10.99 2.653-9.663 6.064-17.622c17.053-41.118 45.665-75.793 82.236-99.858 14.021-9.284 19.327-10.421 24.064-5.116 6.442 7.2 4.169 12.317-14.97 33.918-26.527 29.56-45.854 55.898-61.96 83.941-9.285 16.296-25.77 50.213-30.697 63.477-8.716 23.307-9.853 26.338-11.558 31.644-.948 2.842-8.527 12.127-16.864 20.843-31.076 32.023-48.508 63.667-57.793 105.732-5.116 22.549-5.116 70.109-.19 92.847 4.17 18.19 12.886 43.202 18.76 53.055 2.084 3.6 5.684 10.043 7.958 14.212 8.337 15.158 30.317 40.17 30.317 34.296 0-1.705-.758-3.032-1.895-3.032-.947 0-1.894-.757-1.894-1.894 0-.948-3.6-9.285-8.148-18.38-8.906-18.57-11.748-25.58-15.727-39.413-3.411-11.937-8.338-46.234-8.338-58.74 0-14.78 5.116-48.508 8.338-56.466 2.652-6.063 3.979-7.01 9.474-7.01 10.8 0 11.937 3.03 14.211 39.79 1.895 32.781 3.221 42.256 8.906 70.11 7.2 34.486 22.17 78.446 39.034 113.69l7.768 16.106.569 26.528c.758 41.118 11.558 76.362 33.538 110.469 11.37 17.622 14.59 21.6 32.402 38.844 32.023 31.265 68.404 49.266 114.827 57.224 14.59 2.463 40.36 3.79 31.265 1.516-2.084-.569-7.39-2.653-11.748-4.548s-9.285-3.6-10.99-3.6c-5.306 0-34.107-12.695-47.75-21.033-18-10.99-34.486-24.443-48.129-39.223-14.022-15.348-30.128-39.412-30.128-44.907 0-6.443 6.822-11.37 14.59-10.612 1.137 0 11.37 8.338 22.739 18.38 45.855 40.929 94.741 71.815 143.06 90.763 9.663 3.79 20.464 7.958 23.875 9.474 3.41 1.516 7.958 2.842 10.042 2.842 2.464 0 10.99 6.822 21.223 16.675 33.917 32.591 64.803 49.645 107.437 59.119 22.548 5.116 70.109 5.116 92.847.19 18.19-4.17 43.202-12.885 53.055-18.76 3.6-2.084 10.043-5.684 14.022-7.958 16.485-8.906 39.981-30.317 33.35-30.317-.948 0-1.896.758-1.896 1.895 0 .947-.758 1.894-1.895 1.894-.947 0-9.284 3.6-18.38 8.148-18.569 8.906-25.58 11.748-39.412 15.727-11.938 3.411-46.234 8.338-58.74 8.338-14.78 0-48.508-5.116-56.277-8.338-6.253-2.652-7.2-3.979-7.2-9.474 0-10.8 3.032-11.937 39.791-14.211 32.781-1.895 42.255-3.221 70.11-8.906 35.243-7.39 76.172-21.222 109.9-37.139l19.706-9.474 27.096-.758c26.528-.758 36.381-2.463 63.098-10.8 57.225-18.19 111.038-70.11 132.07-127.144 7.58-20.843 13.833-52.108 13.643-68.403l-.189-9.475-1.895 6.632c-.947 3.6-2.463 7.39-3.41 8.527-.759.948-3.222 8.337-5.685 16.106-8.906 30.128-26.717 58.93-52.108 84.51-17.622 17.811-44.15 36.76-51.16 36.76-2.275 0-5.496-1.516-7.201-3.41-6.443-7.201-4.169-12.317 14.97-33.918 26.527-29.56 45.854-55.898 61.96-83.942 9.285-16.295 25.77-50.213 30.697-63.477 8.716-23.306 9.853-26.338 11.558-31.644.948-2.842 8.527-12.126 16.864-20.843 31.075-32.022 48.508-63.666 57.793-105.732 5.116-22.548 5.116-70.109.19-92.847-4.17-18.19-12.886-43.202-18.76-53.055-2.084-3.6-5.684-10.043-7.958-14.211-7.958-14.401-27.475-36.76-29.938-34.297-.569.758-.38 1.895.568 2.653 4.358 3.032 21.222 41.118 26.717 60.066 3.411 11.938 8.337 46.234 8.337 58.74 0 14.78-5.116 48.508-8.337 56.277-2.653 6.442-3.79 7.2-9.663 7.2-10.422 0-11.748-3.979-14.022-40.739-1.895-31.833-3.221-41.497-8.906-69.161-7.01-34.297-24.443-84.7-39.602-115.206-6.632-13.454-6.821-14.212-7.58-40.929-1.136-42.634-11.368-75.983-34.106-111.227-10.99-16.864-14.401-21.032-32.023-38.275-32.023-31.265-68.404-49.266-114.827-57.225-14.59-2.463-40.36-3.79-31.265-1.515 2.084.568 7.39 2.652 11.748 4.547s9.095 3.6 10.611 3.6c5.116 0 32.402 11.938 46.613 20.275 18.759 10.99 35.433 24.444 49.645 39.981 14.021 15.348 30.128 39.413 30.128 44.908 0 6.442-6.822 11.369-14.59 10.611-1.138 0-11.37-8.337-22.739-18.38-53.434-47.75-108.195-80.152-170.914-101.184-10.422-3.41-14.97-6.632-28.99-20.086-33.54-31.833-63.667-48.128-105.733-57.603-19.896-4.547-71.625-4.926-90.573-.758m26.149 100.995c0 2.085-7.011 6.632-22.738 14.97-16.864 9.095-53.056 33.349-71.246 47.939-32.591 26.338-65.561 62.908-77.688 86.594-2.653 5.305 1.705 4.737 5.495-.569 13.074-17.811 49.644-52.108 74.277-69.35 9.853-6.822 38.465-24.444 39.792-24.444.379 0 4.926-2.463 9.853-5.306 9.664-5.684 46.044-21.411 67.835-29.37 32.212-11.747 46.613-14.969 73.52-16.106 22.927-.947 51.35 2.653 65.75 8.148 3.6 1.516 21.223 8.148 38.845 14.97 28.801 11.179 47.75 19.706 58.74 26.338 64.803 39.412 111.416 83.183 147.607 138.702 17.622 26.906 20.275 32.022 27.665 49.265.947 2.085 3.41 7.58 5.306 12.317 18 40.928 24.254 58.55 29.37 80.53 17.622 78.068 15.916 152.156-5.495 221.696-5.685 18.001-22.36 57.793-23.686 56.466-.758-.947-1.705-20.274-2.274-43.202-.568-22.927-1.895-47.75-3.031-54.95-3.222-19.706-7.58-40.55-10.612-50.403-1.515-4.926-2.842-10.232-2.842-11.937 0-1.516-1.137-5.685-2.653-9.095s-4.168-10.043-5.874-14.78c-5.116-13.643-16.674-36.002-18.569-36.002-.947 0-1.137 1.516-.379 3.221 3.6 8.716 14.78 49.076 18.57 66.888 3.6 17.622 3.979 25.96 3.979 72.004 0 53.055-.948 64.614-9.664 107.058-8.716 44.15-26.149 75.983-59.877 109.521-25.012 25.202-51.54 45.477-87.541 67.078-3.79 2.274-17.622 8.905-24.633 11.937-2.085.948-8.527 3.79-14.212 6.253-44.907 19.896-49.076 21.033-69.161 21.033-16.675-.19-20.275-.758-29.749-5.495-6.064-2.842-14.78-8.527-19.327-12.506-9.096-8.148-20.844-24.633-22.549-32.023-.568-2.653-3.79-14.59-7.01-26.528-15.538-58.55-20.655-108.384-22.17-217.906-1.137-91.9-1.137-90.573 8.716-127.901 6.442-24.065 8.716-26.149 16.485-13.833 6.253 9.854 12.127 16.675 14.4 16.675s1.896-11.937-1.326-30.128c-1.515-8.906-3.979-25.96-5.684-37.707-3.41-25.96-7.58-55.33-11.37-81.857-1.515-10.99-3.978-29.749-5.494-41.686-4.927-37.518-14.211-106.3-17.243-126.955-1.516-10.99-3.41-24.632-4.169-30.317-1.137-7.39-2.274-10.422-4.358-10.422s-3.221 3.032-4.358 10.422c-1.327 10.611-6.064 43.96-7.958 57.793-.569 4.168-3.98 29.749-7.58 56.845-3.79 27.096-7.958 58.55-9.664 70.109-1.515 11.369-3.6 26.717-4.547 34.107-.758 7.2-2.274 18.759-3.41 25.58-1.138 6.821-3.411 22.549-4.927 35.054-1.706 12.506-4.359 30.128-5.874 39.034-3.222 18.001-3.6 30.128-1.327 30.128 2.085 0 7.58-6.442 14.212-16.675 8.526-13.074 10.232-10.99 18.758 22.36l7.58 29.37-1.137 88.11c-.758 70.298-1.706 94.741-4.737 121.269-6.253 54.192-13.643 92.089-23.686 122.027-10.042 29.75-41.876 52.298-73.52 52.298-11.179 0-17.81-1.326-32.022-6.443-66.698-24.064-120.701-57.792-168.64-105.352-22.739-22.739-43.96-48.319-43.013-52.108.568-3.032.758-3.032 21.79 9.663 12.127 7.39 48.698 26.338 63.098 32.591 3.6 1.516 8.148 3.6 9.853 4.359 1.706.947 9.285 3.79 16.865 6.442 37.328 12.885 76.93 20.464 96.447 18 6.821-.757 9.853-1.515 6.821-1.704-7.769-.38-42.823-9.096-62.719-15.538-69.35-22.738-165.04-90.952-197.063-140.029-13.453-21.032-21.412-40.36-28.044-69.161-10.8-47.56-14.21-88.678-10.99-130.175 4.17-53.056 10.422-78.636 33.918-137.944 14.97-37.897 16.485-40.929 35.623-71.057 16.485-25.959 34.675-48.318 60.256-73.898 29.56-29.37 52.487-47.182 91.141-70.488 3.79-2.274 17.433-8.906 24.633-11.938 2.085-.947 7.58-3.41 12.317-5.305 37.707-16.485 65.372-26.907 71.245-26.907 1.895 0 7.58-1.326 12.885-2.842 23.117-6.632 54.193-10.611 54.193-6.822m46.234 303.743c.758 3.41 2.084 31.454 3.221 62.15.947 30.697 2.084 57.224 2.274 58.74s-.758 8.148-2.084 14.59c-1.895 9.475-3.222 11.938-5.874 11.938-2.843 0-4.17-2.842-6.632-13.453-1.706-7.39-2.653-14.022-2.085-14.97.38-.758 1.706-27.096 2.843-58.55 1.894-56.087 2.652-66.509 5.684-66.509.758 0 1.895 2.842 2.653 6.064"/>
</svg>
