<svg xmlns="http://www.w3.org/2000/svg" width="1207" height="960">
    <path d="M765.907 711.345c-12.807 12.806-54.429 16.008-201.705 16.008H462.205l-10.977-11.892c-6.86-7.318-14.178-10.977-18.295-9.148-13.721 5.032-12.35 15.551 5.489 32.475l17.38 16.465 157.34-2.744c162.37-2.744 172.432-4.116 187.983-22.87 4.574-5.488 4.574-9.604.915-18.294-6.404-14.18-22.412-14.18-36.133 0M625.033 561.78c-7.318 4.117-24.698 7.776-37.962 7.776l-24.7.457-59.916 60.374-59.917 60.832 13.264 11.434 13.264 10.978h135.385l135.842-.458 16.466-11.434c9.605-6.404 16.923-13.722 16.923-16.466 0-6.86-123.95-131.726-130.354-131.268-2.286.457-10.52 3.659-18.295 7.775m-174.72 30.645c-39.334 39.334-56.257 59.916-56.257 67.235s-15.551 26.07-50.77 61.289c-36.133 36.133-50.312 53.513-48.482 58.544 5.946 15.094 20.582 5.946 69.522-42.993 27.443-27.9 52.599-50.312 55.343-50.312 9.148 0 120.749-114.346 120.749-123.493 0-11.435-15.551-27.443-26.071-27.443-4.574.457-33.389 26.07-64.033 57.173M573.808 436c-23.327 8.69-33.39 23.784-33.39 51.227 0 18.752 2.288 26.528 11.435 36.59 9.605 11.435 14.18 13.264 35.219 13.264 35.218.458 58.544-21.04 58.544-54.885 0-15.094-17.838-38.878-34.303-45.738-18.295-7.319-18.295-7.319-37.505-.458m155.51-36.59L672.6 456.126l2.744 17.838c2.287 12.806.458 24.698-6.403 42.536l-10.063 24.241 60.832 62.662c33.389 34.303 64.033 62.661 68.15 63.576 4.116.914 11.892-4.117 17.38-10.977 9.148-11.892 9.605-16.466 9.605-155.053 0-132.183-.457-143.16-8.232-150.02-4.574-4.574-11.435-7.776-14.637-7.776-3.659 0-32.016 25.156-62.66 56.258m84.157-80.5c-5.946 5.49-3.201 16.924 6.404 26.986 9.147 9.605 9.605 14.179 8.69 157.797l-.458 148.191-13.721 12.35c-10.062 9.147-13.264 15.55-10.977 21.954 4.574 14.178 17.38 19.21 29.272 10.977 22.412-16.009 23.327-21.954 23.327-192.1l.457-158.711-14.636-15.552c-14.636-14.636-22.412-18.295-28.358-11.891m-430.853-7.775c-10.977 12.35-15.55 55.343-18.752 185.24l-2.745 109.771 10.977 12.35c5.946 7.317 13.722 12.806 16.924 12.806 3.659 0 31.559-25.613 62.203-56.258l55.8-56.715 2.745-32.474c1.372-18.296 5.946-37.506 9.605-42.537 6.403-9.605 4.117-12.349-53.513-71.351-33.39-33.846-60.832-63.119-61.747-65.406-2.744-7.318-12.807-5.03-21.497 4.574m41.622-39.792c-7.318 5.946-12.35 13.721-11.435 18.295.915 4.117 28.815 34.761 61.29 67.693l59.459 59.917 18.295-5.489c10.063-2.744 30.645-6.86 45.738-8.69l27.443-3.202 52.6-53.514c28.814-29.73 53.513-57.172 53.97-60.831.915-4.117-1.83-10.977-6.403-16.009-7.318-8.232-15.551-8.69-147.734-8.69-139.044 0-139.959 0-153.223 10.52M478.67 6.978c-10.062 3.659-21.954 6.86-26.07 6.86-7.319 0-15.551 3.202-63.12 24.699-25.612 11.435-61.746 34.76-80.498 51.684-19.21 17.38-75.468 93.763-82.329 111.144-1.372 3.659-4.574 10.52-7.318 15.55-14.636 26.986-31.102 104.283-31.102 146.82 0 27.9 10.52 87.817 18.295 101.996 1.83 4.116 5.032 10.977 6.861 14.636 15.094 37.505 61.747 79.584 91.934 83.244 12.806 1.372 13.264 2.286 15.55 29.73 1.83 24.698 4.575 30.186 19.668 46.652 16.923 18.295 27.443 20.582 32.474 6.404 1.83-4.117-2.744-12.35-10.977-21.04-13.264-13.721-13.721-15.094-13.721-59.917 0-25.156 2.286-90.104 5.03-144.532 4.117-86.445 5.49-99.71 13.722-109.772 5.031-6.403 10.977-16.923 13.722-24.241 2.744-6.86 8.233-12.35 11.892-12.35 4.116 0 14.178-6.403 22.869-13.72l15.55-13.722H578.38c141.788 0 147.734.457 155.51 9.147 9.605 11.435 26.07 12.35 26.07.915 0-4.574-6.86-15.093-15.093-22.869l-15.55-15.093-136.758.457c-75.01 0-139.501.457-142.245 0-18.753-.457 8.232-24.699 52.598-47.11 7.776-4.574 20.583-10.977 27.9-14.637 7.319-3.659 16.924-6.86 21.955-6.86 4.574 0 16.466-3.202 26.528-6.861 28.358-10.062 128.524-9.148 170.146 2.287 38.42 10.062 96.965 36.133 106.112 47.567 5.489 6.861 5.032 9.148-6.403 21.04-12.807 13.722-31.102 17.838-36.59 9.148-3.66-5.946-34.304-5.946-34.304 0 0 2.287 6.86 5.946 15.093 8.233 21.497 5.488 21.497 18.752-1.372 38.877-10.062 9.605-22.411 16.923-27.9 16.923-5.946 0-30.644 21.04-69.064 59.46l-59.46 59.46 7.318 11.891c4.574 6.403 12.807 13.722 18.295 16.466 10.063 4.116 15.094 0 68.607-53.971 31.56-32.474 57.63-61.747 57.63-65.406 0-6.86 47.11-55.343 53.972-55.343 7.775 0 62.66 55.343 79.584 80.042 19.21 28.815 38.877 69.522 48.025 100.166 10.977 36.59 13.264 148.65 3.659 183.41-19.667 69.522-53.514 135.842-87.817 171.06-11.435 11.893-20.125 10.063-10.063-2.286 6.404-8.233 15.551-22.87 20.582-33.846 1.83-3.66 8.69-19.668 16.009-35.676 7.318-15.551 13.264-31.102 13.264-34.761 0-3.202 3.202-15.094 7.318-26.07 7.318-21.04 10.062-114.803 3.659-139.502-3.202-11.434-3.66-11.892-6.86-4.116-1.83 5.03-3.66 25.156-3.66 44.823-.457 20.582-3.201 42.536-7.318 52.141-3.659 8.69-6.86 19.21-6.86 22.412 0 24.241-57.173 113.43-96.965 150.936-34.761 32.931-131.269 88.732-152.766 88.732-3.659 0-10.977 2.287-15.55 4.574-15.552 8.232-115.26 23.326-134.013 20.582-9.605-1.83-16.923-4.117-15.551-5.031.914-.915 13.721-3.66 28.815-5.946 14.636-2.287 33.389-5.946 40.707-8.69 7.775-2.288 25.156-8.234 38.877-12.35 21.954-6.403 69.98-28.815 98.337-44.823 15.55-9.148 31.56-25.614 27.9-29.273-1.83-1.83-6.86-.914-10.977 2.287-4.116 3.202-10.977 6.861-14.636 8.233-3.66 1.372-12.807 5.489-20.582 8.69-95.136 41.622-177.007 45.281-301.872 12.807-15.093-3.659-34.303-10.062-42.079-13.264-8.233-3.66-21.954-9.148-29.73-12.807-8.233-3.659-18.295-7.775-21.954-9.147-3.66-1.373-12.807-6.861-20.582-11.892-7.318-5.031-16.923-10.52-20.582-12.35-21.497-9.605-105.198-84.615-105.198-93.763 0-1.83-3.202-3.659-6.86-3.659-3.202 0-8.69-3.659-10.978-8.233-5.946-9.605-6.403-3.659-.915 7.319 2.287 4.116 8.233 16.923 13.722 28.357 41.164 85.988 140.416 180.208 229.148 217.714 3.659 1.372 13.264 5.488 20.582 8.69 62.661 27.443 83.7 31.102 189.813 32.931 80.957 1.83 103.368.458 128.067-5.488 33.389-8.69 78.67-23.327 90.561-29.273 18.296-9.147 49.398-25.156 58.088-29.73 18.295-10.062 78.67-57.172 99.709-78.669 25.156-24.699 53.514-58.545 53.514-63.119 0-1.83 5.03-10.062 10.977-17.837 21.497-29.73 48.025-89.647 62.66-142.703 8.691-31.56 8.691-197.132 0-228.691-10.062-37.505-37.504-101.539-56.714-132.64-27.9-45.739-95.136-116.633-135.843-143.16-59.002-38.878-114.802-64.949-157.796-74.097-10.063-2.287-24.241-5.946-31.102-8.69-20.582-7.775-197.589-6.403-220.458 1.83M700.044 62.32c.914.915-3.202 2.287-9.148 3.659s-27.443 5.488-47.568 9.605c-65.405 13.264-128.066 36.59-149.106 55.343-3.659 3.659-9.147 6.403-11.892 6.403-5.03 0-56.715 53.514-87.36 91.02-16.465 19.21-19.667 26.07-16.923 35.675 2.745 10.977 1.83 11.434-10.977 9.147-11.434-2.286-15.55-.457-25.156 10.978-10.52 12.349-11.892 18.295-12.349 53.513-.457 21.954-1.83 77.755-3.659 124.408-3.202 95.135-5.946 101.539-30.187 67.692-70.437-99.251-40.707-256.133 67.692-359.044 21.954-20.582 80.042-60.832 88.275-60.832 2.287 0 6.86-2.287 10.062-5.488 2.744-2.745 12.807-7.776 22.412-11.435 52.599-18.752 71.809-23.783 111.143-28.357 23.784-2.745 48.483-5.946 54.886-6.861 11.435-1.372 46.653 1.83 49.855 4.574m215.884 173.347c21.497 19.21 63.576 68.15 63.576 74.096 0 2.744 2.744 6.86 5.946 9.605 5.03 4.574 25.156 42.536 41.164 80.042 9.148 20.582 10.52 46.195 2.287 43.45-3.202-1.371-6.403-7.317-7.318-14.178-.915-6.403-4.574-14.179-8.233-16.923-3.66-3.202-6.403-7.776-6.403-10.062 0-2.745-7.776-17.38-16.924-32.932-19.667-32.017-76.382-90.104-107.942-109.771-23.783-15.094-25.156-17.838-13.264-29.73 16.009-16.923 21.955-16.008 47.11 6.403" style="stroke-width:.457381"/>
</svg>
