<svg xmlns="http://www.w3.org/2000/svg" width="1420" height="960">
    <path d="M1020.66 781.18c-9.996 23.334-18.91 50.763-20.156 60.91-3.163 25.759 9.464 90.694 17.27 91.653 9.366 1.15 33.49-163.067 26.917-180.513-4.998-10.913-9.763-4.368-24.032 27.95m106.245-213.557c-9.64 7.532-16.5 82.752-9.542 97.075 10.777 21.924 25.84-3.958 26.427-47.463.89-39.507-5.588-57.733-16.885-49.612m-56.216-148.727c-36.165 55.775-37.329 58.802-44.968 133.926-3.614 42.341-5.188 80.972-3.422 85.942 5.684 11.79 19.692-5.505 22.375-27.36 1.15-9.367 8.9-33.77 17.637-53.297 42.312-99.39 68.054-192.892 53.223-194.713-3.902-.48-24.429 24.731-44.845 55.502M270.95 111.529c-13.639 7.833-14.707 10.079-4.258 15.323 13.379 7.19 44.683 3.902 45.737-4.684.383-3.122-4.41-9.257-11.147-12.461-14.844-8.161-12.503-7.874-30.332 1.822m556.338-20.43c-12.968 2.37-41.835 5.163-64.17 6.383-21.553 1.315-54.418 4.41-72.165 6.985-17.652 1.794-42.615 5.068-55.392 5.876-44.08 4.095-10.982 18.46 67.566 30.48 75.522 10.858 78.74 10.461 141.607-11.135 34.796-12.367 64.224-26.184 64.703-30.087 1.054-8.586-49.777-14.035-82.15-8.502M485.31 4.739c-11.599 4.123-27.292 9.327-35.385 10.71-24.375 4.93-8.736 19.528 24.047 23.553 17.952 2.204 53.748 1.053 81.053-1.933 27.306-2.986 60.17-6.081 73.043-7.67 42.327-2.726 7.764-18.062-59.363-26.304-39.028-4.792-70.044-3.847-83.395 1.645m791.57 6.077c-6.724 3.136-126.804 45.439-265.795 93.343l-253.32 88.536-56.98-6.996c-49.955-6.134-66.045-4.148-115.657 12.737-32.262 11.093-99.129 32.99-149.522 49.78-49.516 16.106-104.88 34.662-122.325 41.235-17.35 5.793-36.165 10.614-43.19 9.751-6.245-.766-13.845 3.054-16.953 9.011s-17.24 11.353-30.797 12.065c-21.65 2.096-23.403 3.465-13.338 11.832 9.477 6.71 19.815 6.394 37.261-.179 14.036-4.615 32.66-7.875 42.026-6.725s33.358-.658 54.42-4.41c116.711-21.324 170.158-24.27 168.241-8.658-.479 3.902-18.5 15.159-39.547 25.252-54.473 24.212-63.73 28.621-189.027 94.053-60.896 31.346-120.039 61.323-130.857 65.541-11.598 4.122-21.143 10.874-21.718 15.557-1.15 9.367 34.756 13.775 53.174 5.737 15.884-6.766 74.576-20.16 111.727-25.898 13.652-1.493 30.715-4.944 38.123-7.204 22.91-5.902 15.16 18.5-15.404 48.025-27.935 27.47-182.671 190.704-193.955 205.165-10.215 12.215 4.63 20.376 18.46 10.982 6.915-4.698 18.116-12.038 25.62-15.078 7.6-3.82 63.43-32.62 125.106-63.87 141.277-72.978 143.03-74.347 170.459-65.433 17.569 5.326 27.319 3.354 40.465-6.916 21.32-18.775 54.047-85.273 58.072-118.056 3.834-31.222 16.596-38.37 26.306-14.201 5.395 14.132 8.326 16.076 14.844 8.161 4.67-5.765 9.517-19.432 10.954-31.14 2.684-21.855 21.184-37.015 24.635-19.952.89 5.655 10.175 13.926 19.843 19.075s17.008 16.35 16.05 24.155c-.959 7.806 1.698 18.432 6.49 24.567 4.794 6.135 14.462 11.283 22.267 12.242 7.806.958 16.899 10.79 19.555 21.416 2.657 10.627 8.436 21.636 13.709 23.868 15.72 7.477-3.465 21.76-25.32 19.076-11.708-1.437-26.141-.04-32.865 3.096-9.257 4.41-8.08 7.723 4.328 16.378 21.102 15.268 11.079 25.922-20.143 22.088-32.783-4.025-105.223 11.642-128.598 27.788-13.146 10.27-17.418 19.253-16.5 37.59 2.013 28.77.26 30.14-104.727 149.565-45.243 52.284-86.694 99.488-92.24 105.938-4.765 6.545-14.597 15.638-20.827 21.212-12.461 11.147-8.134 27.524 6.19 20.568 16.76-7.45 212.58-118.1 245.992-138.56 36.042-22.513 61.594-24.13 50.42-4.109-4.08 7.422-11.556 23.143-16.308 36.029-14.556 34.66-41.75 88.367-52.157 102.143-12.256 15.926-16.664 51.831-7.298 52.981 4.683.576 13.543-7.052 20.349-17.309 6.71-9.476 50.104-59.61 95.251-111.113 93.8-105.746 100.319-113.661 136.99-160.66 58.95-73.577 52.433-20.5-15.033 128.887-8.737 19.528-16.295 42.37-17.445 51.736s-8.818 26.648-16.692 39.15c-10.599 15.338-13.406 25.294-9.188 36.112 5.683 11.79 7.436 10.42 14.707-10.08 3.971-12.981 12.625-25.388 19.157-26.963s12.078-8.025 12.845-14.27c.862-7.024 10.091-24.114 19.91-39.547 10.598-15.338 41.997-64.567 69.603-108.717 28.482-44.834 65.906-104.417 84.474-133.037 28.386-44.054 34.206-59.185 40.34-109.14l6.996-56.98 147.19-224.377C1215.808 140.388 1286 33.328 1291.546 26.878 1306.13 4.9 1301.926.422 1276.88 10.816m-81.75 85.04c-.48 3.903-4.081 7.422-8.764 6.847-3.903-.479-8.38 3.725-9.147 9.97-.767 6.244-4.656 12.105-7.97 13.283-3.998.301-40.889 36.18-82.64 79.385-42.436 42.328-101.907 100.788-132.375 129.532-31.249 28.648-57.034 57.967-57.896 64.992-.959 7.806-19.746 25.307-41.957 38.426-23.088 13.804-44.806 29.36-50.064 33.469-10.804 10.558-89.037 8.875-97.253-1.641-8.217-10.517 9.077-86.833 21.935-94.762 5.258-4.108 25.607-21.418 44.586-40.48 18.103-18.377 39.63-32.373 47.435-31.414 7.025.862 41.71-17.064 77.067-40.454 35.261-22.609 106.372-66.17 157.71-97.106 52.022-30.059 95.76-57.174 97.019-60.98 1.945-2.931 8.572-5.286 14.817-4.52 6.244.767 11.406-2.56 11.886-6.464.575-4.683 4.86-7.326 8.764-6.847 4.683.575 7.422 4.081 6.847 8.764" style="stroke-width:.78641"/>
</svg>
