<svg xmlns="http://www.w3.org/2000/svg" width="1214" height="960">
    <path d="M515.256 610.568c-2.53 4.638-5.06 9.275-5.06 10.119 0 3.794 28.669 18.55 40.473 20.658 61.131 10.96 61.974 11.383 94.015 4.637 46.375-8.853 64.082-18.128 62.817-31.198-1.686-13.49-18.128-16.02-37.943-5.902-19.815 10.54-100.76 10.961-120.153.422-17.707-9.275-27.404-8.854-34.15 1.264m81.788-637.023c-1.265 2.108-25.295 17.707-53.542 34.57-27.825 17.286-56.071 34.57-61.974 38.365-6.323 4.216-15.177 9.275-19.814 11.805s-13.913 8.01-21.08 12.647c-6.745 4.638-16.863 10.54-21.5 13.07-8.854 4.637-24.032 32.884-70.828 131.536-10.54 22.344-27.825 58.601-37.943 80.102-10.119 21.08-25.296 53.964-34.15 72.514-14.755 31.198-33.726 71.249-80.101 168.636-30.777 64.503-35.836 76.308-35.836 80.945 0 2.53 8.01 10.962 17.707 18.55 34.57 27.825 39.208 35.414 25.717 40.473-10.118 3.794-80.524 51.434-83.475 56.072-1.686 2.53.843 5.48 5.06 6.745 4.215 1.265 13.49 5.06 20.236 8.01 7.167 2.952 21.08 8.854 31.62 12.648 10.539 4.216 25.716 10.118 33.726 13.913 8.01 3.372 20.658 8.853 27.404 11.804 43.423 18.55 143.762 64.925 158.096 73.357 3.373 2.108 21.501 11.383 40.051 21.08s39.63 21.079 46.375 25.716c7.167 4.216 15.6 9.275 18.972 10.962 14.334 7.588 66.611 44.267 82.21 57.758C593.25 983.255 603.368 990 606.319 990c3.373 0 20.237-12.226 37.943-27.403 29.512-25.296 82.21-63.66 97.81-70.828 3.372-1.686 12.226-6.745 18.971-10.961 16.864-10.961 142.498-72.935 166.528-82.21 10.54-4.216 22.766-9.697 26.982-11.805 4.638-2.53 13.07-5.902 18.972-7.588 5.902-2.108 21.5-7.589 34.149-12.648 12.647-5.06 29.09-10.54 35.835-12.648 7.167-2.108 19.393-5.902 27.403-8.853 8.01-2.53 17.285-5.902 20.658-6.746 4.638-1.264 3.373-4.216-3.794-11.804-5.48-5.902-11.383-10.54-13.07-10.54-1.686 0-15.177-8.01-29.933-18.128s-29.932-19.393-33.727-21.08c-13.912-5.059-9.696-12.226 25.296-40.473 18.971-15.177 19.814-21.922 6.745-46.796-2.951-5.902-13.49-28.668-24.03-50.591-18.972-40.051-41.316-87.27-76.308-161.048a62169 62169 0 0 0-38.365-81.367c-20.658-43.845-41.316-87.269-77.573-162.734-13.49-27.825-24.874-46.374-30.776-49.326-5.48-2.95-15.177-8.853-22.344-13.49-6.746-4.638-16.442-10.119-21.08-12.648s-13.49-7.589-19.815-11.805c-6.323-3.794-24.873-15.599-41.315-26.138S656.489-2.003 650.165-5.797c-6.324-4.216-15.6-9.275-20.658-11.383-4.638-2.108-10.118-6.324-11.805-8.432-3.373-5.48-17.707-5.902-20.658-.843M619.81-9.591c0 2.108 3.373 5.059 7.589 6.324 8.01 2.95 13.912 6.323 49.326 29.932 30.354 19.815 40.051 26.14 48.483 29.933 12.648 6.746 53.12 34.57 58.18 40.895 4.637 5.059 1.686 9.696-16.864 27.825-22.345 21.5-29.933 25.295-34.992 16.863-1.687-2.108-7.167-5.902-11.805-8.432-5.059-2.107-20.658-10.54-34.57-18.55-13.913-8.01-29.09-16.863-33.728-18.971-4.637-2.53-16.02-8.853-25.295-14.334L609.27 71.776l-1.264-42.581c-.844-35.835 0-42.58 5.48-42.58 3.373 0 6.324 1.686 6.324 3.794m12.226 138.281c15.178 8.854 31.62 18.129 36.257 21.08 4.638 2.951 12.226 7.167 16.864 9.696 4.637 2.53 14.334 8.01 21.08 12.648 7.166 4.216 20.657 12.226 30.775 17.707 13.913 7.167 20.658 14.334 28.669 31.198 5.48 11.804 10.118 24.452 10.118 28.246 0 3.795-8.432 13.491-18.972 22.345-18.128 14.334-19.815 15.177-26.56 8.431-10.961-9.696-21.501-8.431-26.982 3.795-3.373 7.588-3.373 11.804 0 16.02 3.794 4.638 2.108 8.01-8.853 16.02-10.962 8.432-17.286 9.697-34.57 8.432-53.543-4.637-88.956-2.53-104.555 5.903l-15.177 8.01-16.02-8.853c-16.865-9.697-23.188-24.874-12.227-29.09 13.49-5.06 5.06-26.982-10.118-26.982-3.795 0-10.54 3.794-14.756 8.432s-10.118 8.432-13.49 8.432c-9.276 0-38.787-18.129-41.317-25.296-1.264-3.373 4.216-19.393 12.226-35.413 13.913-28.247 15.178-29.09 64.082-59.866 27.825-17.286 53.964-32.884 58.601-35.414s14.334-8.01 21.08-12.226c7.167-4.638 13.49-8.432 14.334-8.432.843-.421 14.334 6.746 29.511 15.177m176.225 0c1.265 4.216 10.962 25.717 21.501 47.64 10.118 21.923 27.404 58.18 37.943 80.102 10.119 21.923 27.404 58.18 37.944 80.103 10.118 21.922 27.403 58.179 37.521 80.102 10.54 21.922 21.501 45.11 24.874 51.434 6.745 13.07 7.589 24.452 1.686 24.452-2.53 0-6.323-4.216-8.431-9.697-2.53-5.059-8.01-15.177-12.227-21.922-13.069-19.815-28.246-48.483-75.464-141.233-24.03-47.64-53.964-106.241-66.612-130.693-27.403-53.12-29.09-67.455-9.275-67.455 4.216 0 8.854 3.373 10.54 7.167m-11.383 154.303c0 2.529 6.746 18.971 15.177 36.256 8.432 17.707 25.718 53.964 38.365 80.524s31.198 65.347 41.316 86.426c9.697 20.658 24.874 52.277 33.306 69.984s15.177 34.992 15.177 37.943c0 3.373-8.853 13.491-19.393 23.188l-19.815 16.864 34.149 23.187c18.972 12.648 33.727 24.452 33.306 26.982-.844 2.108-7.167 5.48-13.913 6.745-6.745 1.687-22.766 7.167-35.414 12.226-12.647 5.06-27.824 10.54-33.727 12.648-22.766 7.589-110.035 46.797-130.693 59.023-56.493 32.884-83.475 50.59-109.613 71.67-17.286 13.913-34.57 25.296-38.365 25.296s-18.972-9.275-33.727-20.237c-56.494-42.58-149.243-91.063-270.662-141.654-7.167-2.951-20.658-8.854-29.51-12.648-8.854-3.794-18.55-6.745-21.924-6.745-13.49 0-5.059-11.805 18.972-26.982 27.403-17.707 28.247-23.61 6.324-37.943-5.902-3.795-10.54-10.118-10.54-14.334 0-3.795 8.432-24.874 18.972-45.954 10.54-21.5 27.403-56.914 37.521-78.416 10.118-21.08 29.09-60.709 41.738-87.269s29.09-61.13 36.256-76.73 15.178-29.51 17.707-31.197c2.53-1.265 9.275 2.53 14.756 9.275 10.118 12.648 13.07 28.668 6.324 33.306-5.48 3.372-16.442 25.295-26.139 53.542-9.696 27.825-9.696 59.444.422 61.13 11.383 2.108 16.863-5.48 23.609-32.884 8.432-33.727 22.344-63.66 28.668-61.552 2.53.843 9.275 9.697 14.334 20.236 8.853 16.02 9.275 20.658 5.48 33.728-5.902 19.814-5.902 57.757 0 74.621 3.795 11.383 2.952 16.442-8.853 39.63-14.334 28.246-33.727 55.65-70.827 100.338-12.648 15.177-26.56 31.62-30.776 37.1-4.637 5.06-8.01 10.118-8.01 11.383 0 4.216 9.275 2.108 14.334-3.373 14.334-13.912 83.053-68.719 101.603-80.945 36.679-24.03 56.072-32.463 64.504-27.825 4.215 2.108 20.236 6.745 35.835 10.54 26.138 6.745 30.354 6.745 51.012.843 31.62-9.275 38.787-8.432 60.288 5.902 10.118 6.746 19.814 12.648 21.5 12.648 1.687.422 13.492 8.853 26.14 19.393 60.708 49.326 88.533 69.14 88.533 63.239 0-3.373-1.264-6.746-3.372-7.589-6.746-2.951-64.504-72.935-85.162-102.868-22.765-33.727-25.717-48.061-13.912-64.925 10.54-15.177 10.54-86.426 0-102.447-9.275-13.912-9.275-28.246.422-44.688 8.01-14.756 13.49-16.02 22.765-5.902 9.275 10.96 28.669 53.963 31.198 69.562 5.06 29.933 6.324 32.884 13.913 32.884 13.49 0 18.55-10.54 15.598-32.462-1.686-11.383-5.48-26.982-8.853-34.992-2.951-8.01-6.745-17.707-8.01-21.08-3.373-8.432-10.54-19.815-24.452-38.365l-11.805-15.177 15.177-15.599c13.913-14.334 22.766-16.442 22.766-5.48m-171.587 127.32c29.511 12.226 30.776 55.65 1.686 70.827-17.285 8.854-26.56 7.167-45.11-8.432-22.766-18.971-14.756-52.699 14.756-63.66 7.167-2.53 13.069-4.637 13.069-4.637.422-.422 7.167 2.53 15.599 5.902m359.195 94.015c0 7.588-8.432 6.323-9.697-1.687-1.264-4.216.422-6.324 4.216-5.059 2.951 1.265 5.481 4.216 5.481 6.746" style="stroke-width:.421591"/>
</svg>
