<svg xmlns="http://www.w3.org/2000/svg" width="1293" height="960">
    <path d="M629.54 857.122c-13.605 13.604-17.384 18.706-16.25 21.162.567 1.89 9.07 10.96 18.895 20.218l17.384 16.628 18.139-17.384c10.014-9.636 18.139-18.895 18.139-20.595 0-3.401-33.822-37.98-36.845-37.79-1.134 0-9.826 8.125-19.462 17.761m-84.461-11.526c-56.685 57.063-102.978 104.868-102.978 106.19 0 1.512 2.267 3.023 5.29 3.78 2.835.566 8.125 2.078 11.716 3.4 14.927 5.48 20.217 7.18 26.453 8.692 3.59.756 9.258 2.267 12.281 3.401 14.738 4.724 58.764 12.849 90.885 16.628 30.233 3.4 101.467 3.023 128.298-.945 37.034-5.48 64.054-10.77 85.027-16.628 22.108-6.235 30.61-8.691 36.846-11.148 3.59-1.322 8.314-2.645 10.392-3.023 10.581-1.7 5.858-7.18-98.254-111.103L648.057 741.862zm145.114-6.046c19.65 19.65 35.334 36.278 34.956 37.223-1.323 3.59-73.502 75.769-75.58 75.769-3.402 0-75.203-72.179-75.203-75.58 0-1.512 16.817-19.651 37.223-40.058 31.177-31.176 37.602-36.845 40.058-34.955 1.7 1.133 19.084 18.139 38.546 37.6m419.28-352.393c-.944 1.89-2.833 6.424-3.967 10.392-3.023 9.448-15.494 22.863-25.509 27.587-7.746 3.78-8.313 4.535-11.148 15.872-1.511 6.613-3.967 16.06-5.101 21.351-1.323 5.102-3.023 12.471-3.78 16.061-.944 3.59-2.644 9.637-3.778 13.227-4.346 12.093-7.558 20.595-10.581 28.72-4.157 10.581-26.265 55.552-30.988 62.92-2.079 3.024-4.346 6.992-5.102 8.503-.567 1.512-4.724 7.558-9.07 13.227-4.345 5.668-8.691 11.715-9.636 13.415-3.78 6.992-26.264 33.067-41.38 47.994-37.601 37.601-85.406 70.1-134.533 91.074-4.535 1.89-7.936 4.346-7.558 5.668.756 4.157 73.502 76.147 76.714 76.147 1.7-.189 6.424-2.267 10.581-4.723 4.157-2.646 9.448-5.48 11.904-6.614 2.267-.944 9.448-5.29 15.683-9.447s11.715-7.558 12.093-7.558c.945 0 27.587-19.084 29.287-20.785.567-.567 4.535-3.779 8.88-7.18l7.748-6.046 1.322-28.343c.945-18.895 2.268-28.91 3.78-30.232 1.322-1.134 15.115-2.456 30.42-3.212 16.061-.567 29.288-2.078 30.8-3.212 6.424-5.102 44.592-58.197 53.094-73.88a932 932 0 0 1 8.503-15.116c9.825-17.383 19.273-37.412 27.398-57.63 2.267-5.668 5.29-13.226 6.802-16.627s2.645-7.37 2.645-8.88 1.134-5.48 2.646-8.882c6.613-15.871 17.383-60.653 20.029-83.705.944-7.369 2.456-20.028 3.779-28.342 1.133-8.314 1.889-19.462 1.511-24.564l-.567-9.447-30.61-.567c-27.775-.378-30.799-.189-32.31 2.834m-984.809 16.061c0 23.619 6.425 65.188 14.36 93.341 1.512 5.291 2.646 10.96 2.646 12.66s1.134 5.858 2.645 9.259c1.512 3.4 4.535 11.715 6.613 18.517 6.236 19.462 9.826 29.098 11.715 31.177.945.944 1.701 2.834 1.701 4.346 0 2.834 22.674 48.938 28.343 58.007 2.078 3.023 4.534 7.37 5.48 9.448.944 2.078 3.967 6.991 6.612 10.959s4.913 7.747 5.102 8.503c0 .755 9.07 13.226 20.218 27.775l20.217 26.453 34.012 1.323c28.909 1.134 34.388 1.89 36.278 4.724 1.7 2.267 2.456 12.093 2.456 32.877v29.854l14.737 11.15c15.116 11.526 29.477 21.352 34.39 23.62 1.511.755 5.479 3.022 8.502 5.101 3.212 2.078 7.37 4.535 9.448 5.668s7.558 4.157 12.092 6.614c4.535 2.645 9.826 4.723 11.526 4.723 2.646 0 77.47-73.312 77.47-76.147 0-.566-3.968-3.023-8.88-5.29-26.454-12.282-35.334-16.817-52.529-27.02-21.918-13.038-43.27-28.72-63.11-46.293-21.35-18.706-29.475-27.398-54.984-58.008-4.535-5.48-27.209-38.735-28.91-42.325-.755-1.511-3.022-5.668-5.29-9.258-4.346-7.37-16.06-30.232-20.029-39.302-7.369-17.194-8.691-20.595-15.682-40.246-1.134-3.59-3.024-9.637-3.78-13.227s-2.267-9.258-3.4-12.282c-1.134-3.212-3.402-13.226-5.48-22.485-3.212-16.25-3.59-17.005-10.014-19.84-3.59-1.7-9.259-4.912-12.66-7.18-6.991-5.101-19.462-23.24-19.462-28.342 0-7.37-3.401-8.125-33.444-8.125h-28.91zm917.921-53.095c-16.06 8.314-21.729 29.098-11.904 43.647 10.582 15.494 27.965 19.273 42.136 9.07 12.849-9.259 17.384-21.73 12.471-34.389-4.157-10.203-7.558-14.171-16.25-18.706-8.88-4.535-17.572-4.535-26.453.378m-817.777-.378c-10.959 5.857-15.872 14.171-15.872 27.587-.189 13.226 3.401 19.65 14.36 26.642 12.66 8.125 29.855 4.724 39.869-7.936 3.401-4.346 4.157-7.747 4.157-17.95 0-14.739-3.401-20.785-15.305-27.587-8.88-5.102-18.328-5.29-27.209-.756m564.017-53.095c-10.392 10.203-31.177 29.854-46.293 43.836-15.116 13.983-34.578 32.122-43.27 40.625-8.691 8.314-17.95 17.194-20.784 19.84-23.24 21.918-28.531 26.453-30.232 26.453-1.134 0-5.48-3.213-9.448-7.18-32.5-31.177-42.135-40.436-66.321-62.732-15.116-13.982-34.2-31.933-42.514-40.058-30.421-29.287-39.68-37.412-43.08-37.412-3.024 0-3.213 8.692-3.213 163.82V710.12c0 7.747-17.95-4.724-43.27-29.855-19.461-19.65-40.246-46.481-50.638-65.754-5.48-9.826-9.637-18.517-12.849-25.698-1.89-4.156-4.535-10.014-5.857-12.848-1.512-3.023-2.646-6.613-2.646-7.936 0-1.512-1.133-5.48-2.645-8.88-3.023-7.37-6.613-21.352-8.88-34.579-.945-5.29-2.646-16.25-4.158-24.563l-2.456-15.116h-58.386l-1.511 5.668c-4.535 15.116-15.872 28.72-28.91 34.767-4.345 2.079-8.691 4.913-9.447 6.047-1.7 2.834 4.157 30.42 10.96 49.882.944 3.024 2.644 8.125 3.4 11.337 1.89 6.803 6.991 20.596 9.259 25.13.756 1.701 3.023 6.614 4.912 10.771 1.701 4.157 3.968 8.88 4.913 10.392s2.268 4.157 2.834 5.669 1.701 4.157 2.646 5.668 3.968 6.992 6.802 12.282c5.857 11.148 25.32 40.624 29.098 44.403.567.567 5.858 6.803 11.715 14.172 13.794 17.194 29.476 33.255 45.915 47.426 15.305 13.227 36.09 29.099 37.79 29.099.567 0 4.157 2.267 7.747 5.101 12.282 9.259 74.069 40.247 80.304 40.247 1.134 0 32.688-30.61 70.1-68.022 37.413-37.413 68.59-68.023 69.345-68.023.945 0 31.744 30.8 68.778 68.4l67.267 68.212 8.125-3.213c38.923-16.06 65.943-31.365 96.931-54.795 8.314-6.236 18.328-14.36 22.107-17.95 3.968-3.402 8.692-7.558 10.77-8.881 3.968-2.834 32.122-33.633 40.247-44.215 9.07-11.714 22.296-30.232 22.296-31.176 0-.378 2.645-4.724 5.858-9.448 6.046-9.07 26.83-48.749 28.72-54.984.567-1.89 2.834-8.314 5.102-13.983 6.99-18.328 16.25-49.883 17.761-60.464.378-3.59 1.134-7.936 1.512-9.447.378-1.89-2.835-4.535-8.881-7.558-12.66-6.236-25.508-19.84-30.421-32.31l-4.157-10.204-27.587-.567c-27.209-.567-27.586-.378-28.342 3.779-3.59 16.628-4.913 25.13-4.913 30.232 0 10.014-10.392 44.97-20.029 67.077-19.65 45.726-54.606 91.074-90.507 118.094-13.793 10.204-17.194 11.715-18.706 7.747-.756-1.7-1.134-75.769-1.134-164.764V381.345c0-1.7-.567-3.212-1.322-3.212-.945 0-10.015 8.314-20.407 18.517M184.562-22.63c-5.48 12.47-10.015 14.17-39.113 15.304l-25.508.945V8.735l25.697.567 25.697.567 6.613 6.235c3.59 3.401 7.37 9.258 8.314 12.66l1.89 6.424 16.816.378c27.776.945 24.942-3.401 25.887 39.68.566 34.388 1.133 38.167 4.912 45.536 9.07 17.384 29.477 31.366 43.837 30.232l6.613-.566.378-43.459c.189-34.578.756-43.27 2.834-42.892 4.346.945 194.241 192.73 194.43 196.32 0 1.89 0 15.872-.189 30.988-.189 23.996.19 27.775 2.834 28.91 1.7.566 16.061 1.133 31.933 1.133h28.91l47.993 48.371c26.453 26.453 49.505 49.127 51.394 50.072 2.835 1.7 10.96-5.858 52.717-48.182l49.316-50.261h30.988c23.241 0 30.8-.567 30.988-2.457 0-1.133 0-14.738-.189-30.232l-.189-27.775 97.688-99.2c53.662-54.606 98.443-99.198 99.199-99.198.944 0 1.89 19.84 2.078 43.836l.567 44.026 6.613.566c3.968.378 10.581-1.133 16.061-3.59 10.203-4.534 27.398-20.784 27.398-26.075 0-1.7 1.133-4.346 2.456-5.48 1.512-1.7 2.456-13.604 3.212-40.624l.945-38.168 20.785-.566c21.351-.567 23.43-1.323 23.618-8.881.19-3.968 3.968-9.07 10.204-14.171 2.645-2.079 10.203-3.024 27.397-3.78l23.808-.944V-6.381l-23.808-.945c-24.563-.945-27.397-1.89-33.822-10.392-1.511-2.079-3.212-5.48-3.779-7.558-1.133-3.78-1.322-3.78-462.172-4.346L187.773-30zm298.541 61.975c2.079 4.724.945 159.285-1.322 159.285-1.134 0-128.487-126.786-158.53-157.774-.189-.378 0-1.511.756-2.645.756-1.512 26.075-2.078 79.36-2.078 72.745 0 78.414.189 79.736 3.212m196.13 26.075v28.342l-7.935.567c-8.314.567-9.826 2.268-9.07 9.826.19 2.645.567 5.857.756 6.991.189 1.89 5.29 2.456 19.084 2.456 22.863 0 23.43 1.134 8.125 15.494-18.14 17.006-22.485 20.974-32.122 30.421l-9.447 9.07-16.817-15.494c-32.31-29.665-36.845-34.2-36.09-36.468.379-1.322 7.937-2.456 19.463-3.023l18.706-.944.567-8.881.566-8.88-8.124-.568-8.125-.567-.945-26.075c-.567-14.36-.19-27.397.567-28.909 1.322-2.267 6.99-2.645 31.177-2.267l29.665.566zm294.763-27.398c1.7 2.834-158.529 163.442-161.363 161.742-3.024-1.89-3.024-158.152.189-161.364 3.023-3.023 159.285-3.212 161.174-.378m-282.48 285.126c0 2.079-41.192 43.648-43.081 43.648-2.645 0-44.026-42.703-42.703-44.026 2.078-2.078 85.783-1.511 85.783.378" style="stroke-width:.18895"/>
</svg>
