<svg xmlns="http://www.w3.org/2000/svg" width="1723" height="960">
    <path d="M861.5-120 790.804 27.273h141.392zM807.647 74.01A469.09 469.09 0 0 0 392.409 540a469.1 469.1 0 0 0 71.825 249.45l87.156-181.577L483.517 540l193.189-193.189zm107.706.013 130.941 272.792 193.189 193.188-67.873 67.873 87.156 181.577A469.1 469.1 0 0 0 1330.59 540 469.09 469.09 0 0 0 915.353 74.02zM861.5 365.454A174.545 174.545 0 0 0 686.955 540 174.545 174.545 0 0 0 861.5 714.546 174.545 174.545 0 0 0 1036.045 540 174.545 174.545 0 0 0 861.5 365.455zm-594.545 82.031-147.273 70.696 147.273 70.696zm1189.09 0v141.392l147.273-70.696zm-595.163 10.696h.618A81.82 81.82 0 0 1 943.318 540a81.82 81.82 0 0 1-81.818 81.818A81.82 81.82 0 0 1 779.682 540a81.82 81.82 0 0 1 81.2-81.818zm-199.805 259.38L544.7 960h633.6l-116.378-242.44L861.5 917.983z" style="stroke-width:7.27273"/>
</svg>
