<svg xmlns="http://www.w3.org/2000/svg" width="949" height="960">
    <path d="M458.596 3.373c-4.998 2.726-10.45 6.816-11.814 9.088-1.363 2.272-9.542 12.268-18.63 23.174-24.537 29.08-85.426 102.692-105.873 128.138-20.902 25.9-26.355 32.716-50.438 61.797-9.996 11.36-29.08 34.989-42.712 51.801s-32.717 40.44-42.713 51.8c-69.068 82.7-72.249 87.244-62.252 93.605 2.272 1.364 20.448-4.998 39.987-14.086 73.611-34.08 102.692-46.348 110.417-48.165 5.907-1.363 7.27 16.812 9.088 132.682 2.271 130.41 2.726 134.046 11.36 135.409 7.27.909 15.903-7.725 36.35-35.443 14.541-19.993 28.173-36.351 30.445-36.351 1.817 0 3.635 76.338 3.635 169.942 0 110.418 1.818 171.306 4.544 173.124s25.446-18.63 50.437-44.985c25.446-26.355 49.53-48.166 54.073-48.166s28.627 21.811 54.073 48.166c24.991 26.355 47.71 46.802 50.437 44.985s4.544-62.706 4.544-173.124c0-148.131.909-169.942 6.816-169.942 3.635 0 6.816 2.272 6.816 4.544 0 2.726 10.905 19.084 24.082 36.806 17.267 23.174 25.9 31.353 32.717 30.444 8.633-1.363 9.087-5.907 11.36-135.409 1.817-115.87 3.18-134.045 9.087-132.682 7.725 1.817 36.806 14.086 110.417 48.165 19.54 9.088 37.715 15.45 39.987 14.086 9.997-6.361 6.816-10.905-62.252-93.604-9.996-11.36-29.08-34.988-42.713-51.8-13.631-16.813-32.716-40.442-42.712-51.802-24.083-29.08-29.536-35.896-50.438-61.797-16.358-20.447-55.89-68.159-104.51-127.23-9.997-12.268-19.993-24.537-22.72-28.172-6.36-8.179-29.99-11.36-40.895-4.998m31.808 114.052c5.452 5.453 16.358 19.085 24.991 30.445 8.634 11.36 19.993 25.445 25.9 31.807 5.453 6.361 28.627 33.625 50.892 61.343 44.985 54.527 45.44 60.888 2.727 40.895-38.17-18.176-39.078-16.812-38.17 47.711.455 29.99-.454 56.345-2.271 58.162-1.818 1.818-7.725-2.272-12.723-9.542-4.998-6.816-10.905-11.36-13.177-9.542-2.272 1.363-4.09 54.072-4.09 120.414 0 113.597-.454 117.687-9.088 117.687-4.544 0-14.54-7.27-21.356-15.904-6.816-8.633-15.904-15.903-19.539-15.903s-12.723 7.27-19.539 15.903-16.812 15.904-21.356 15.904c-8.634 0-9.088-4.09-9.088-117.687 0-66.342-1.818-119.051-4.09-120.414-2.272-1.818-8.179 2.726-13.177 9.542-4.998 7.27-10.905 11.36-12.723 9.542-1.817-1.817-2.726-28.172-2.272-58.162.909-64.523 0-65.887-38.169-47.71-44.53 20.901-42.713 13.63 12.269-52.256 28.172-33.625 58.616-70.43 67.25-81.79 24.082-31.353 33.625-40.896 40.895-40.896 3.635 0 10.905 4.544 15.904 10.451" style="stroke-width:.454392"/>
</svg>
