<svg xmlns="http://www.w3.org/2000/svg" width="1336" height="960">
    <path d="M515.272 696.09c-4.58 7.85 5.887 23.55 41.21 56.91 35.324 35.324 49.06 22.241 15.7-14.39-32.053-35.978-51.677-50.369-56.91-42.52m266.233 24.858c-33.361 35.977-41.865 53.639-26.166 53.639 10.467 0 70.647-64.76 70.647-75.88 0-18.316-11.774-13.083-44.481 22.24M616.663-3.835l-42.52 26.166-75.225.654c-162.225 1.308-188.39 22.24-46.443 37.286l42.518 4.579-20.278 22.894c-11.12 12.429-21.586 29.437-24.203 37.286-5.887 19.624-14.39 20.933-132.79 22.895-68.684 1.308-102.045 4.579-107.932 10.466-17.661 17.662 5.887 24.203 102.7 26.166 73.263 1.962 94.85 4.579 94.85 11.774 0 4.579-2.617 10.466-6.542 12.429-3.27 1.962-6.541 11.12-6.541 20.278s-6.542 22.895-15.046 31.398c-13.082 13.083-20.278 15.045-47.751 13.083-40.557-3.27-150.452 11.774-148.49 20.278 1.309 3.27 39.903 9.158 87 12.429 61.49 3.925 85.038 7.85 85.038 14.39 0 15.046-32.706 73.264-43.173 77.189-5.887 1.962-45.79 3.925-89.616 4.579-77.188 0-118.399 6.541-96.158 14.39 25.511 9.159 83.075 17.662 121.67 17.662 28.127 0 43.172 2.617 45.135 8.504 1.962 4.58-4.58 24.203-14.391 43.827-17.008 34.015-20.933 36.632-57.564 48.406l-39.249 13.083 27.474 5.233c26.82 5.887 36.632 18.97 21.587 28.128-11.12 7.195-7.196 28.782 6.541 35.977 18.316 9.812 10.466 19.624-16.353 19.624-11.775 0-26.166 1.963-32.053 3.925-16.353 6.542-5.233 15.7 18.97 15.7 12.428 0 23.549 2.616 25.511 5.887 3.925 6.541-32.052 39.902-42.519 39.902-3.924 0-5.887 6.541-4.579 13.737 1.309 9.158 13.083 19.624 33.361 30.09 27.474 14.391 41.865 34.67 24.203 34.67-11.12 0-7.195 17.661 5.233 22.894 5.888 2.617 35.978 5.887 65.414 7.85 49.06 3.27 61.489 7.195 120.361 37.285 36.632 18.316 66.722 35.978 66.722 39.903.654 3.27-13.737 7.195-32.053 7.85-49.714 2.616-108.586 15.699-105.97 24.202 3.925 11.12 73.263 18.316 147.835 14.391 76.534-3.925 96.158 1.963 128.21 35.324 20.279 20.932 38.594 24.857 47.098 11.12 2.617-4.58 16.354-17.008 29.436-26.82 24.203-18.315 24.857-18.315 135.406-19.624 76.534-.654 113.82-3.27 119.053-8.503 13.083-13.083-22.24-22.895-90.27-26.82-43.828-1.962-60.835-5.233-60.835-11.12 0-4.58 28.782-22.895 64.105-41.21 61.489-30.745 67.376-32.054 129.519-35.324 35.323-1.963 69.993-5.887 76.534-8.504 16.353-6.541 13.737-22.895-3.925-22.895-8.504 0-20.932-3.925-27.474-9.158-11.774-8.503-10.466-9.812 15.045-22.894 15.046-7.196 32.053-13.737 38.594-13.737 14.391 0 41.211-17.662 41.211-26.82 0-3.27-5.233-7.85-11.12-10.466-17.008-5.887-41.21-29.436-37.286-35.323 1.962-3.27 11.12-5.888 20.932-5.888s21.587-2.616 26.166-5.887c11.774-7.195-4.58-13.737-34.67-13.737-26.819 0-34.669-9.812-16.353-19.624 13.737-7.195 17.662-28.782 6.541-35.977-14.39-8.504-5.887-22.24 16.354-26.82 28.128-5.233 25.511-9.158-15.045-22.24-27.474-8.504-32.707-13.737-49.06-45.79-9.812-19.624-16.354-39.248-15.045-43.173 1.962-4.579 28.127-9.158 64.105-11.12 33.36-1.962 72.609-7.195 87-11.774 24.857-7.85 25.511-8.504 9.812-13.083-9.158-2.617-51.023-4.58-92.887-5.233-41.865-.654-80.46-2.617-86.346-4.58-10.467-3.924-43.173-62.142-43.173-77.187 0-6.542 23.549-10.466 85.037-14.391 47.098-3.27 85.692-9.158 87-12.429 1.309-7.85-104.007-23.549-145.872-21.586-40.556 1.962-58.218-5.233-62.797-26.166-2.616-9.812-8.504-23.549-13.083-30.744-18.97-27.474-13.736-29.436 71.301-29.436 83.075 0 131.481-8.504 126.902-21.587-3.924-12.428-33.36-16.353-133.443-17.007-74.572-.654-94.85-2.617-102.7-11.12-5.887-5.234-10.466-13.083-10.466-17.008s-9.158-17.662-20.932-30.744l-20.932-23.55 45.79-4.578c54.947-5.887 80.458-13.083 81.112-21.587.654-9.812-45.79-15.045-130.173-15.699l-75.226-.654L720.67-3.835C696.467-18.225 672.918-30 667.685-30c-4.579.654-27.473 12.429-51.022 26.165m-59.527 363.046c27.474 18.316 50.369 38.594 51.677 44.481 3.925 18.97-40.556 50.368-70.647 50.368-24.857 0-57.564-21.586-71.955-47.097-15.045-27.474-14.39-46.444 4.58-74.572 13.082-20.278 22.894-17.661 86.345 26.82m313.985-18.97c28.782 64.105-45.789 139.33-105.97 105.316-25.51-14.391-37.285-26.166-37.285-37.286 0-19.624 109.24-94.85 127.556-87.654 4.58 1.962 11.12 10.466 15.7 19.624M691.888 471.722c9.158 9.812 16.354 24.203 16.354 32.053 0 12.428-3.925 13.737-39.248 13.737s-39.249-1.309-39.249-13.737c0-14.391 28.128-49.715 39.249-49.715 3.27 0 13.736 7.85 22.894 17.662m-268.85 50.369c8.504 18.315 23.55 44.48 32.707 58.218 9.158 13.736 17.008 27.473 17.008 30.744 0 3.925 4.579 6.541 9.812 6.541s9.812-4.579 9.812-9.812c0-11.774 19.624-13.082 19.624-1.962.654 4.579 7.85 17.007 17.008 28.128 15.045 18.316 17.007 18.97 24.857 7.85 8.503-11.12 9.158-11.12 13.082 0 2.617 6.54 1.309 12.428-1.962 13.736-3.925 1.308-7.196 7.196-7.196 13.083 0 8.504 1.309 7.85 9.158-1.962 9.158-12.429 9.812-12.429 25.512 4.578 9.158 9.813 18.97 24.203 20.932 32.707 4.579 13.083 5.887 13.083 13.083 3.271 11.12-15.045 15.699-13.737 22.894 4.579 3.271 9.158 11.775 19.624 19.625 23.549 11.774 6.541 14.39 5.233 20.278-13.083 5.233-15.045 10.466-18.97 18.97-16.353 9.158 3.27 11.12.654 8.503-14.391-2.616-17.008-1.962-17.662 7.196-5.888 9.158 11.12 23.549 9.812 23.549-3.27 0-8.504 27.474-45.136 34.015-45.136 2.616 0 5.233 4.58 5.233 9.812s4.579 9.812 9.812 9.812 9.812-3.27 9.812-7.195 8.504-19.624 18.316-34.67c9.812-14.39 20.278-32.052 22.895-38.593 5.233-13.737 17.661-9.158 17.661 5.887 0 22.24 17.008 1.962 45.136-52.985 30.744-59.526 43.173-71.955 51.022-51.023 2.617 6.542 17.008 33.361 32.707 59.527 29.436 50.368 34.015 69.338 18.97 77.842-4.579 2.616-11.774 11.774-16.353 20.278-6.542 12.429-5.888 15.045 7.195 21.587 45.135 20.278 51.023 25.511 43.827 39.248-3.27 7.195-11.774 15.045-17.662 17.007-19.624 6.542-207.36 96.812-240.067 115.782-23.55 13.083-78.497 52.331-94.85 67.376-20.932 19.624-29.436 18.97-58.872-4.579-13.737-10.466-26.166-19.624-28.128-19.624-2.617 0-15.045-7.195-28.128-16.353-13.737-9.158-64.76-35.978-113.165-59.526-49.06-23.55-97.467-47.098-107.279-52.331-10.466-5.233-21.586-9.158-24.857-9.158-10.466 0-51.677-33.361-51.677-41.865 0-6.541 28.782-26.82 54.294-37.94 9.812-4.579 10.466-7.195 3.925-19.624-4.58-8.504-11.775-17.662-16.354-20.278-15.045-8.504-10.466-27.474 18.97-77.842 15.7-26.166 30.09-52.985 32.707-60.18 4.579-11.775 5.233-11.775 17.662-.655 7.195 6.542 20.278 26.82 28.782 45.136" style="stroke-width:.654136"/>
</svg>
