<svg xmlns="http://www.w3.org/2000/svg" width="1255" height="960">
    <path d="M162.373 697.69c4.01 10.693 38.76 20.05 84.204 24.06 80.194 6.682 114.945 34.75 61.482 49.452-48.116 12.03-16.039 30.742 52.126 30.742 69.502 0 97.57 21.385 62.82 46.78-30.742 22.721-14.703 33.414 49.453 33.414 42.77 0 62.818 9.356 93.56 40.097 49.453 49.453 72.175 50.79 122.964 1.337 28.068-26.732 54.8-40.098 92.224-42.77 69.502-5.347 80.194-10.693 52.126-30.742-36.087-26.731-9.356-48.116 61.482-48.116 68.166 0 100.243-18.712 52.127-30.742-53.463-14.702-18.712-42.77 61.482-49.453 45.444-4.01 80.195-13.366 84.204-24.058 8.02-25.395-179.1-22.722-189.793 4.01-4.01 10.692-14.702 20.048-24.058 20.048-10.693 0-37.424 17.376-61.483 40.097-24.058 21.386-49.453 40.098-56.136 40.098-5.346 0-13.365 9.356-18.712 20.048-4.01 10.693-18.712 20.049-33.414 20.049-13.366 0-28.068 9.356-33.414 20.048-4.01 12.03-24.059 20.049-48.117 20.049s-44.107-8.02-48.117-20.049c-5.346-10.692-20.048-20.048-33.414-20.048-14.702 0-29.405-9.356-33.414-20.049-5.347-10.692-13.366-20.048-18.712-20.048-6.683 0-32.078-18.712-56.136-40.098-24.059-22.721-50.79-40.097-61.483-40.097-9.356 0-20.048-9.356-24.058-20.048-10.693-26.732-197.813-29.405-189.793-4.01m419.684-557.35c-4.01 10.693-16.04 20.049-26.732 20.049s-48.117 26.731-84.204 60.145c-34.75 33.415-72.175 60.146-84.204 60.146-10.693 0-37.424 18.712-58.81 40.097-21.384 22.722-49.452 40.098-62.818 40.098-12.03 0-40.097 9.356-60.146 20.048-21.385 10.693-49.453 20.049-61.482 20.049-13.366 0-24.059 9.356-24.059 20.048 0 14.703 14.703 20.049 50.79 20.049 61.482 0 86.877 16.039 80.195 48.117-2.674 18.712-17.376 26.731-61.483 29.404q-56.136 4.01-56.136 24.058c0 10.693 10.693 18.712 24.058 18.712 12.03 0 34.751 9.356 48.117 20.049 14.702 10.693 38.76 20.049 54.8 20.049s46.78 17.375 68.165 40.097c21.385 21.385 48.116 40.097 58.809 40.097 12.03 0 49.453 26.731 84.204 60.146 36.087 33.414 73.511 60.146 84.204 60.146s22.722 9.356 26.731 20.048c10.693 26.732 80.195 26.732 90.887 0 4.01-10.692 16.04-20.048 26.732-20.048s48.116-26.732 84.204-60.146c34.75-33.415 72.175-60.146 84.204-60.146 10.693 0 37.424-18.712 58.81-40.097 21.384-22.722 52.126-40.097 68.164-40.097 16.04 0 40.098-9.356 54.8-20.049 13.366-10.693 36.087-20.049 49.453-20.049 12.03 0 22.722-8.019 22.722-18.712q0-20.048-56.136-24.058c-44.107-2.673-58.81-10.692-61.483-29.404-6.682-32.078 18.712-48.117 81.531-48.117 34.751 0 49.454-5.346 49.454-20.049 0-10.692-10.693-20.048-22.722-20.048-13.366 0-41.434-9.356-62.82-20.049-20.048-10.692-48.116-20.048-60.145-20.048-13.366 0-41.434-17.376-62.819-40.098-21.385-21.385-48.116-40.097-58.809-40.097-12.03 0-49.453-26.731-84.204-60.146-36.088-33.414-73.512-60.145-84.204-60.145s-22.722-9.356-26.732-20.049c-5.346-10.692-24.058-20.048-45.443-20.048s-40.097 9.356-45.444 20.048m109.598 76.185c26.732 16.039 57.473 38.76 69.502 50.79 12.03 10.692 61.483 49.453 110.936 85.54s89.55 70.838 89.55 77.521c0 5.347-21.385 10.693-46.78 10.693s-46.78-5.346-46.78-10.693c0-6.683-40.097-40.097-89.55-76.184-49.454-37.424-98.907-77.521-109.6-89.55-26.73-30.742-56.135-30.742-82.867 0-10.692 12.029-60.146 52.126-109.599 89.55-49.453 36.087-89.55 69.501-89.55 76.184 0 5.347-21.385 10.693-46.78 10.693s-46.78-5.346-46.78-10.693c0-6.683 40.097-41.433 89.55-77.52 49.453-36.088 98.907-74.849 110.936-85.541 32.077-32.078 112.272-80.195 132.32-80.195 9.356 0 40.098 13.366 65.492 29.405m-14.702 160.388c12.03 20.049 54.8 48.117 88.214 58.81 14.702 5.346 22.722 22.721 22.722 45.443s-8.02 40.097-22.722 45.444c-33.414 10.692-76.185 38.76-88.214 57.472-5.346 9.356-28.068 17.376-49.453 17.376s-44.107-8.02-49.453-17.376c-12.03-18.712-54.8-46.78-86.877-57.472-16.04-5.347-24.059-22.722-24.059-45.444s8.02-40.097 24.059-45.443c32.077-10.693 74.848-38.761 86.877-58.81 5.346-8.019 28.068-16.038 49.453-16.038s44.107 8.019 49.453 16.038M386.917 531.956c0 6.683 40.097 40.097 89.55 76.185 49.453 37.424 98.907 77.52 109.6 89.55 26.73 30.741 56.135 30.741 82.867 0 10.692-12.03 60.145-52.126 109.599-89.55 49.453-36.088 89.55-69.502 89.55-76.185 0-5.346 21.385-10.693 46.78-10.693s46.78 5.347 46.78 12.03c0 5.346-48.117 45.443-106.926 89.55-58.809 42.77-106.925 81.53-106.925 85.54s-26.732 21.386-60.146 40.098L627.5 781.895l-60.146-33.414c-33.414-18.712-60.146-36.088-60.146-40.098s-48.116-42.77-106.925-85.54c-58.81-44.107-106.926-84.204-106.926-89.55 0-6.683 21.385-12.03 46.78-12.03s46.78 5.347 46.78 10.693m179.1-491.859c-30.74 30.741-50.79 40.097-93.56 40.097-64.155 0-80.194 10.693-49.453 33.415 34.751 25.395 6.683 46.78-62.819 46.78-68.165 0-100.242 18.712-52.126 30.74 53.463 14.703 18.712 42.771-61.482 49.454-45.444 4.01-80.195 13.366-84.204 22.722-8.02 26.731 183.11 24.058 192.466-2.673 5.346-10.693 14.702-20.049 24.058-20.049 8.02 0 34.751-18.712 58.81-40.097 24.058-22.722 49.453-40.097 56.136-40.097 5.346 0 13.365-9.356 18.712-20.049 4.01-10.692 18.712-20.048 33.414-20.048 13.366 0 28.068-9.356 33.414-20.05 4.01-12.028 24.059-20.048 48.117-20.048s44.107 8.02 48.117 20.049c5.346 10.693 20.048 20.049 33.414 20.049 14.702 0 29.404 9.356 33.414 20.048 5.346 10.693 13.366 20.049 18.712 20.049 6.683 0 32.078 17.375 56.136 40.097 24.059 21.385 50.79 40.097 58.81 40.097 9.355 0 18.711 9.356 24.058 20.049 9.356 26.731 200.486 29.404 192.466 2.673-4.01-9.356-38.76-18.712-84.204-22.722-80.194-6.683-114.945-34.75-61.482-49.453 48.116-12.03 16.039-30.741-52.127-30.741-69.501 0-97.57-21.385-62.818-46.78 30.74-22.722 14.702-33.415-49.454-33.415-42.77 0-62.819-9.356-93.56-40.097C667.597 17.375 639.53 0 627.5 0s-40.097 17.375-61.482 40.097" style="stroke-width:1.33657"/>
</svg>
