<svg xmlns="http://www.w3.org/2000/svg" width="2437" height="960">
    <path d="M1845.4 883.397c4.258 4.193 8.656 6.79 9.74 5.879 1.303-1.093-.708-5.692-4.098-10.614-4.63-6.84-6.737-8.029-9.558-5.662s-2.016 4.65 3.916 10.397m-67.075-23.966c.225 2.03-1.182 4.32-3.464 5.126-3.949 1.465-6.271 11.919-3.175 15.608 2.731 3.255 10.067-4.75 9.141-10.26-.848-4.095.272-5.405 5.6-6.547 11.272-2.433 30.83-21.433 26.825-26.207-1.275-1.519-4.824-.02-27.773 14.059-4.053 2.661-7.378 6.191-7.154 8.221m-57.665 33.965c1.709 1.155 4.902 1.434 6.785.593 2.283-.805 2.422-2.402.314-3.592-1.708-1.154-4.901-1.434-6.784-.593-2.283.806-2.422 2.402-.315 3.592m-40.564-14.407c1.562.538 4.425-.015 6.162-1.472 1.736-1.457 2.778-4.18 2.519-5.812-.225-2.03-2.906-1.26-6.161 1.472-3.256 2.731-4.48 5.238-2.52 5.812m239.483-347.023c4.952 5.46 5.533 5.712 4.573.6-.814-4.494-2.271-6.23-5.463-6.51s-2.934 1.352.89 5.91m-22.629 1.237c-.105 1.197 1.43 4.348 3.25 6.518s2.305 5.832 1.116 7.94c-1.225 2.506.204 6.854 4.028 11.411 4.37 5.209 5.106 8.29 2.72 10.292s-1.582 4.286 1.947 7.61c7.06 6.65 11.512 4.024 6.553-3.649-2.115-3.402-3.11-8.114-2.103-10.439 1.008-2.325-.785-7.106-3.517-10.361-2.913-3.473-4.672-8.653-4.21-11.63.46-2.975-.023-6.637-1.48-8.373-2.731-3.255-7.99-2.91-8.304.681m-451.361-21.392c1.906 5.797 9.392 9.87 10.756 5.767s-7.194-14.303-10.015-11.935c-1.302 1.092-1.547 3.886-.741 6.168m-21.407-12.731c2.053 6.413 8.698 8.603 9.152 3.415.244-2.794-1.394-4.747-5.28-6.293-5.266-1.869-5.484-1.687-3.872 2.878m8.832-15.917c2.817 6.882 12.306 13.343 13.67 9.24.93-3.74-5.772-12.168-11.654-13.89-3.522-1.112-3.809-.131-2.016 4.65M120.793 46.23c-2.342 15.278.048 56.91 4.588 69.371.77 2.682 3.07 17.763 4.901 33.607 1.832 15.845 4.867 34.006 6.703 40.602s4.226 16.053 5.438 20.583c1.178 4.93 3.882 10.796 5.703 12.966 2.003 2.387 4.377 7.42 5.044 11.3.883 3.696 4.028 11.411 7.166 16.914 3.355 5.32 8.539 15.024 11.789 21.541s10.696 20.24 16.209 30.776c5.73 10.354 14.233 25.777 18.723 34.213 5.842 11.37 32.47 44.866 97.373 123.536 75.134 90.424 91.957 109.59 105.157 119.593 10 7.51 24.742 22.876 41.495 42.84 14.385 17.145 30.038 33.595 34.8 36.626 4.545 3.212 13.053 9.386 18.473 14.083 5.638 4.515 14.363 10.506 19.125 13.537 4.979 2.848 13.193 7.79 18.172 10.638 4.979 2.849 13.193 7.79 18.172 10.638 4.762 3.031 12.759 8.154 17.087 11.55 4.327 3.394 11.561 8.049 15.742 10.827 4.215 2.38 14.285 9.092 22.464 14.433 22.76 15.664 33.515 21.431 71.735 39.655 19.873 9.58 31.427 15.417 48.576 23.955 5.196 2.667 13.298 6.593 17.765 8.391 4.65 2.016 9.411 5.046 10.686 6.565s6.037 4.55 10.686 6.565c14.348 6.082 26.813 13.003 42.226 22.998 23.193 15.3 49.521 24.642 103.9 37.443 14.591 3.287 27.153 6.799 27.7 7.45.546.651 13.108 4.163 27.7 7.45s32.42 8.668 39.793 11.726c22.849 10.042 43.687 15.485 71.919 19.161 8.745 1.168 21.237 5.478 28.688 9.95 11.232 7.216 18.745 8.678 54.37 10.588 59.676 2.808 98.122 2.351 179.425-3.003 39.453-2.781 46.56-3.567 56.2-5.74 3.48-.7 10.839-2.068 16.314-2.594 5.692-.709 12.036-1.963 14.5-2.552 2.282-.806 6.595-1.836 9.242-2.208 2.646-.371 6.96-1.402 9.242-2.207 2.282-.806 9.528-3.188 15.759-5.458 6.413-2.053 15.543-5.276 20.29-6.67 22.718-6.86 69.373-25.3 83.312-32.927 2.751-1.57 9.304-5.219 14.407-8.392 10.172-5.946 15.62-3.861 7.157 3.24-3.038 2.55-4.697 5.42-3.605 6.723 2.732 3.255 10.215-4.134 12.944-12.34 1.4-4.502 11.626-15.672 29.526-31.801 22.526-20.752 26.18-23.448 21.708-15.997-2.848 4.979-6.2 11.12-6.844 13.879-.826 2.541-8.449 11.526-16.8 19.643s-14.637 15.61-13.544 16.912c.91 1.085 8.443-2.277 16.55-7.6 12.594-8.35 16.326-9.631 26.85-8.107 12.12 1.663 12.337 1.481 34.62-16.476 12.733-9.946 24.494-17.965 26.888-17.756 6.785.594 5.618 9.34-3.551 22.21-15.378 21.78-15.343 21.38-5.024 16.05 5.286-2.956 13.295-4.87 17.685-4.486 9.978.873 26.982-11.916 22.612-17.124-2.185-2.604.524-5.986 13.544-16.912 8.898-7.466 16.64-13.223 17.186-12.572.547.651-.6 4.572-2.763 8.606-3.422 6.94-2.155 6.246 15.395-5.892 10.529-7.726 21.1-13.637 23.096-13.463 4.789.42 4.008 16.236-.983 20.424-3.69 3.096-3.497 16.987.312 17.12 1.197.104 6.538-8.075 12.018-17.85 10.708-18.97 19.598-28.649 24.864-26.78 1.743.755 1.464 3.948-.699 7.981-3.317 5.742-2.659 7.409 2.615 11.49 9.636 7.076 13.697 6.627 9.97-1.34-2.228-4.418-1.914-8.01.908-10.377 2.387-2.003 5.382-6.366 6.712-10.07 3.093-7.772 17.33-23.417 57.133-62.363 24.62-23.986 31.095-29.05 39.79-31.909 16.775-5.57 29.272-10.509 40.425-16.169 5.65-2.522 12.097-4.974 14.128-5.198 1.995.174 7.211-1.983 11.23-4.246 4.053-2.661 11.187-6.059 15.752-7.67 8.114-3.11 25.063-10.676 53.78-24.05 26.436-12.566 37.155-17.862 47.075-23.228 10.97-5.877 29.908-15.48 47.074-23.228 5.685-2.921 15.388-8.104 21.541-11.789 6.154-3.684 16.291-9.232 22.809-12.482 36.608-18.514 48.88-25.483 57.994-33.131 10.417-8.74 12.928-16.765 4.163-13.108-7.498 2.963-31.918 10.88-50.471 16.094-8.878 2.642-20.836 6.02-26.199 7.56-5.363 1.543-12.966 5.703-17.089 9.163-3.906 3.278-10.893 7.291-15.457 8.903-4.348 1.429-13.148 5.485-19.302 9.17-6.336 3.467-16.655 8.797-23.173 12.048-40.521 19.578-94.771 44.39-108.283 49.442-4.383 1.829-12.532 5.338-17.384 7.93-9.668 4.784-20.716 9.247-41.838 16.246-11.412 4.029-13.59 3.637-19.703-2.327-7.025-7.049-16.616-33.023-14.426-39.668.86-2.94-.232-4.243-4.917-5.859-3.704-1.33-5.959-3.135-5.385-5.096.539-1.562 3.367-1.716 6.308-.856 4.286 1.582 5.336 1.07 5.867-2.704.35-3.99-1.108-5.727-7.102-8.463-8.101-3.926-10.042-9.324-2.417-6.847 3.921 1.147 4.355.783 2.926-3.565-.988-2.5-4.048-6.587-6.702-8.428-3.418-2.31-5.618-9.34-6.636-20.689-1.985-18.673-5.27-24.791-13.722-24.726-6.637.022-8.505 5.288-3.407 11.364 7.067 8.863 3.2 34.665-4.824 32.153-1.743-.756-3.926 8.102-4.973 20.075-4.338 47.276-7.133 67.743-9.528 67.533-1.197-.104-1.444-8.772-.719-19.366 2.926-35.737 3.377-52.388 1.618-57.568-.987-2.5-.708-5.693.594-6.785 1.085-.91.713-3.557-1.29-5.944-1.82-2.17-2.85-6.483-2.39-9.46.462-2.975-1.296-8.156-4.028-11.41-2.731-3.256-4.49-8.437-4.028-11.413.461-2.975-.387-7.071-2.208-9.241s-4.672-8.653-6.396-14.233c-4.842-15.907-25.74-39.05-43.765-49.072s-18.01-5.597-.927 15.2c8.341 10.382 10.863 16.032 12.938 29.083 1.263 8.556 2.959 16.747 3.687 17.615 1.821 2.17-.01 29.96-3.155 42.956-5.288 23.667-9.653 41.382-11.416 45.45-10.658 22.997-11.61 52.27-2.324 63.338 8.74 10.417 5.69 20.003-5.206 15.832-3.088-1.476-15.463-14.02-27.48-28.343-14.75-17.578-25.304-27.952-32.755-32.424-7.85-4.508-18.551-15.498-36.76-37.199-29.534-34.756-39.535-42.267-71.086-51.663-25.271-7.64-36.027-13.407-49.312-27.036-6.114-5.964-13.278-11.417-16.037-12.06-2.976-.462-15.056-11.774-28.272-26.201-23.664-26-33.11-30.646-19.074-9.511 10.828 16.43 19.69 41.536 23.617 65.607 3.373 21.208 7.956 67.656 7.257 75.638-.62 9.396-3.996 8.9-6.133-1.14-1.991-9.424-26.43-49.566-39.904-65.625-7.102-8.463-18.454-18.907-25.106-23.31s-14.181-10.289-16.73-13.327-6.912-6.034-9.454-6.86c-4.104-1.364-4.573-.6-4.298 5.456.31 5.657-.16 6.42-2.562 3.998-1.639-1.953-2.739-5.467-2.53-7.862.455-5.188-13.195-19.252-16.961-17.57-1.267.693-.202 4.607 2.641 8.877 2.662 4.054 4.568 9.85 3.924 12.61-.923 5.951 5.164 14.527 11.15 15.05s37.137 30.596 45.416 43.989c11.487 18.096 31.583 114.764 25.073 120.227-2.821 2.367-19.616-19.411-33.079-42.507-23.752-41.087-42.38-58-92.812-83.726-5.014-2.45-13.08-6.774-17.696-9.189-5.013-2.45-13.48-6.81-18.675-9.476-5.413-2.484-14.825-7.53-21.148-11.1-6.141-3.352-16.316-8.867-22.457-12.22-8.284-4.143-16.653-11.913-30.128-27.971-18.027-21.484-18.72-22.752-19.788-38.127-1.045-8.738-2.16-16.677-3.07-17.763-.911-1.085.326-10.628 2.865-21.264 5.505-23.85 6.56-33.61 3.828-36.865-1.092-1.302-3.375-.496-4.781 1.794-17.967 28.388-26.887 61.39-19.274 70.903 2.55 3.038.746 16.755-3.9 26.201-1.008 2.325-3.164 8.57-4.85 14.054-1.469 5.3-3.84 11.728-4.849 14.053-11.63 24.922-11.189 58.943 1.041 82.333 5.513 10.536.983 11.748-9.241 2.207-29.365-27.503-52.987-51.688-68.465-70.134-16.934-20.182-28.573-29.646-51.1-41.067-4.615-2.415-13.445-7.209-20.168-10.813-29.509-16.657-58.162-27.006-87.703-31.803-23.59-3.873-56.45-14.39-60.639-19.38-1.457-1.736-6.583-5.201-11.597-7.65s-15.482-9.197-23.228-14.902c-33.27-24.225-37.997-27.655-44.146-33.22-3.53-3.325-8.837-7.006-11.926-8.483-3.088-1.477-9.81-5.081-15.006-7.747-5.378-2.884-19.753-6.353-31.873-8.017-31.208-4.138-62.76-13.534-68.95-20.912-3.825-4.558-9.075-2-10.103 5.148-.531 3.774-2.078 7.66-3.597 8.935s-4.332 5.855-5.914 10.14c-1.798 4.467-6.081 14.348-9.608 22.485-3.31 7.954-8.635 20.558-11.476 27.75-7.341 17.254-14.123 92.467-9.765 104.712 2.271 6.23-3.492 7.738-8.226 2.096-1.821-2.17-4.343-7.82-5.52-12.75-1.213-4.53-3.672-13.19-5.396-18.77-5.136-17.138-14.296-54.938-17.92-75.564-2.104-10.44-4.803-25.555-6.534-33.348-1.514-7.975-3.73-19.429-4.802-25.555-2.37-14.283-11.235-50.85-16.112-66.358-4.764-14.493-37.135-51.307-56.182-63.43-7.052-4.437-15.994-10.246-19.993-12.808-31.26-19.626-33.879-21.866-59.918-52.898-22.398-26.692-27.02-31.32-29.84-28.952-1.737 1.457-1.981 4.25-.525 5.986 7.83 9.332 5.11 51.924-8.783 137.172-2.63 16.259-4.782 33.966-4.837 39.19-.09 5.622-1.446 11.938-3.287 14.592-10.072 13.999-9.285-31.778 1.972-102.981 6.285-39.666 9.518-81.208 6.604-84.68-1.275-1.52-1.212-4.53-.205-6.855 1.19-2.107 1.07-5.335-.568-7.288-1.457-1.736-4.25-1.98-5.987-.524-1.736 1.457-2.345 3.817-1.434 4.902 2.185 2.604-.092 26.333-4.225 48.291-6.064 30.235-12.65 66.456-14.272 80.39-1.098 7.947-2.602 13.647-3.512 12.562-2.367-2.822-5.795-18.806-4.9-22.146.54-1.561.863-23.652.886-49.187.022-25.535.33-52.05.56-59.269.85-16.615-6.04-48.184-11.684-54.911-2.55-3.039-8.257-6.755-12.69-8.953-4.467-1.798-10.244-4.717-12.716-6.34-4.944-3.248-10.292 2.719-12.649 13.572-4.916 26.313-19.65 77.506-23.122 80.42-4.123 3.46-6.016-9.375-4.27-29.33 1.221-13.968-6.801-69.364-10.625-73.921-.91-1.085-5.665-1.903-10.706-1.741s-10.342-1.307-11.98-3.26c-2.55-3.038-25.972-11.12-31.812-11.027-1.414.077-10.02-2.687-19.389-5.92s-22.694-7.213-29.409-8.605-14.522-4.085-17.575-5.961c-2.837-2.058-8.641-2.365-12.954-1.334-5.58 1.723-8.52.863-10.202-2.904-3.25-6.518-16.862-9.518-33.54-7.358-10.586 1.487-15.437 4.079-28.458 15.004-15.408 12.929-16.094 13.874-18.758 30.532zM1333.74 558.328c4.692 3.829 12.816 14.393 18.434 23.731 5.218 9.305 15.97 24.32 23.8 33.652 7.43 9.297 15.779 21.89 18.049 28.122 2.417 6.847 11.494 20.309 22.931 34.38 25.458 30.78 28.282 39.875 5.171 16.74-11.828-11.894-22.138-25.061-30.781-38.888-7.004-11.873-26.391-38.503-42.458-59.413-16.248-21.128-29.402-38.566-29.766-39 .035-.399 1.59-2.073 3.325-3.53s6.42.16 11.295 4.206m158.374 196.235c16.423 19.132 21.277 28.002 14.051 25.56-5.084-1.651-33.924-35.141-38.31-44.774l-3.033-6.7 6.072 4.15c3.417 2.31 12.809 12.18 21.22 21.764m144.9-118.628c1.64 1.953 1.759 5.181.57 7.289-1.009 2.325-.707 5.77 1.114 7.94s2.886 6.083 2.425 9.059c-.644 2.759 1.08 8.339 3.742 12.392 2.843 4.27 4.056 8.8 3.3 10.544-3.03 4.762-15.161-10.576-13.77-17.291.462-2.976-.022-6.638-1.479-8.374-1.274-1.519-1.793-4.781-1.003-6.924 1.008-2.325.56-6.386-.394-9.284-2.088-6.014 1.671-9.908 5.495-5.35" style="stroke-width:.283287"/>
</svg>
