<svg xmlns="http://www.w3.org/2000/svg" width="1330" height="960">
    <path d="M665.964-60c-1.498 7.628-2.63 13.661-3.924 19.62l-.2 1.131c-4.767 20.943-13.591 40.319-25.34 56.8-8.894 12.764-18.463 25.022-27.868 37.446l-.066.133c-7.544 9.649-12.573 21.36-14.167 34.452-2.248 20.5 1.763 39.642 14.5 56.601 13.825 18.423 27.217 37.274 40.77 55.935 5.245 7.186 10.399 14.38 15.098 20.885l-13.169 14.034c2.554 2.247 4.71 3.944 6.651 5.919a8.53 8.53 0 0 0 6.651 3.193c.033.492.133 1.007.133 1.53 0 .544-.099 1.052-.133 1.529-2.928 15.699-7.838 30.681-16.76 44.03a486 486 0 0 1-19.289 26.804c-16.175 20.807-18.094 44.374-2.327 66.577 8.309 11.669 16.718 23.273 25.14 34.852 4.36 5.959 8.868 11.758 13.635 18.024 1.84-2.077 3.594-3.583 4.922-5.387 11.953-15.971 24.141-31.808 35.583-48.154 12.873-18.423 14.412-38.053 2.528-57.532-6.368-10.42-14.066-20.085-21.217-30.063-11.204-15.698-18.445-32.902-20.352-52.21 4.63.238 6.428-3.458 8.845-6.319v-.066l.2-.133 3.658-1.198c-2.554-6.844-7.385-10.931-12.97-14.166l.067-.266c.681-1.329 1.48-2.569 2.195-3.659 18.525-24.881 37.034-49.722 55.536-74.558 12.09-16.175 16.61-34.486 14.5-54.34-1.158-10.692-4.075-21.104-10.443-30.129-10.795-15.256-21.59-30.506-32.59-45.626-13.213-18.024-22.418-39.234-26.405-63.052-.647-3.814-1.995-7.529-3.392-12.637m.133 51.346c5.415 9.127 10.53 18.842 16.695 27.935 9.84 14.557 20.343 28.681 30.728 42.9 6.231 8.41 10.472 18.393 12.038 29.596 2.622 17.98-2.175 33.65-12.97 48.021-15.051 20.023-29.747 40.398-44.628 60.591-.477.477-1.05.888-1.663 1.33h-.067c-1.09-.85-2.039-1.804-2.992-2.86a12702 12702 0 0 1-29-39.706c-5.23-7.155-10.563-14.295-15.63-21.55v-.066c-.034-.051-.097-.083-.132-.133a62.3 62.3 0 0 1-11.773-36.515c0-3.235.29-6.353.732-9.112 1.703-13.11 7.572-23.77 15.098-33.987 10.318-14.03 20.69-27.995 30.395-42.433 5.097-7.578 8.856-16.057 13.17-24.01m-379.11 108.08c.978 4.319 1.682 7.46 2.46 10.575 2.623 10.114 2.615 10.119 13.103 12.57 3.712.886 7.248 1.726 10.176 4.723 14.78 15.052 29.783 29.877 44.562 44.895 1.84 2.009 3.336 4.326 4.324 7.05 2.962 7.866 5.554 15.876 8.38 23.81 12.498 35.144 25.186 70.241 37.446 105.487 5.244 15.12 13.016 28.387 25.207 38.842 10.931 9.33 23.07 15.89 37.645 17.559 11.714 1.362 23.306 3.185 34.918 4.921 15.392 2.282 30.666 4.769 46.092 7.05 4.678.712 9.454 1.057 14.233 1.53.262-.866.5-1.762.532-2.727-1.532-10.624-3.123-21.201-4.655-31.792-2.963-19.683-6.017-39.312-8.98-58.995-4.665-31.022-22.473-51.414-51.146-62.72-13.28-5.244-26.887-9.731-40.372-14.499-31.261-11.17-62.605-22.29-93.98-33.255h-.132c-3.065-1.124-5.768-2.971-7.982-5.32-12.157-12.226-24.015-24.7-36.58-36.449-7.186-6.708-12.956-13.695-13.569-23.877-.204-3.099-1.892-4.375-4.855-4.988-5.21-1.09-10.323-2.653-16.827-4.39m755.627.333-18.822 4.855c-1.152 3.732-2.204 7.494-3.126 12.105-.647 4.359-2.887 7.346-5.986 10.309-13.735 13.485-27.33 27.146-40.838 40.904a28.8 28.8 0 0 1-10.774 6.984c-5.756 2.077-11.605 4.142-17.36 6.185a36722 36722 0 0 1-112.735 39.707l-.532.2c-8.99 2.996-17.293 7.517-24.41 13.102-14.915 12.225-25.63 27.145-28.865 46.624-1.26 7.526-2.136 15.12-3.26 22.68-1.952 13.372-3.988 26.734-5.985 40.106-1.329 8.82-2.63 17.652-3.925 26.471-.34 2.486-.558 5.016-.864 8.115v.066c1.05.22 2.146.3 3.259.333 11.135-1.533 22.22-3.021 33.322-4.656 19.683-2.895 39.278-6.224 58.995-8.846 15.869-2.077 29.095-9.463 40.571-20.02l.067-.066c9.603-9.127 16.99-20.536 21.416-33.987 7.923-22.612 15.93-45.207 23.944-67.841 7.253-20.5 14.732-40.922 21.815-61.456l.133-.2a27 27 0 0 1 6.718-10.641c11.51-11.374 23.187-22.568 34.187-34.453 7.798-8.377 16.085-14.879 27.867-15.696.443-.034.844-.552 1.73-1.13.851-6.233 4.582-12.33 3.458-19.754m-18.822 4.855c.082-.265.116-.6.2-.865l-.267.865zm-194.145 7.516-4.988.665c-1.158 3.03.56 6.125-2.062 8.713l-6.85-5.321-2.927 3.99 5.055 7.184-9.112.465.332 6.053c3.235 1.634 6.398-.572 8.713 2.527l-5.92 5.653 4.39 3.791 7.25-5.653h.133c.477 4.257.792 6.986 1.064 9.71h4.856c.476-3.098.95-5.9 1.53-9.51l7.715 5.853 3.458-3.725-5.254-6.85a23.7 23.7 0 0 1 4.256-.932c2.725 0 5.423-.115 5.321-3.724-.068-3.133-2.536-3.29-4.988-3.392l-.133-.067a26 26 0 0 1-4.456-1.064l5.587-7.25-3.924-2.926-7.915 5.387c-.477-3.814-.756-6.479-1.13-9.577m-326.102.399a817 817 0 0 0-1.263 9.245l-7.383-5.454-3.858 3.06c1.124 2.996 4.735 4.004 4.19 7.648l-7.582 1.33c.103 2.111.266 3.847.266 5.72l8.248 1.53h.066a328 328 0 0 1-5.454 7.383l4.257 2.86 7.516-5.52c.408 3.95.69 6.61.997 9.776l5.122-.532c.374-3.167.688-5.767 1.13-9.444 3.133 2.451 5.267 4.114 7.583 5.919l3.126-3.858-4.922-7.116 9.245-1.064c-.375-2.452-.625-4.375-.931-6.452-1.805 0-3.132.068-4.324 0s-2.394-.295-3.79-.466c4.767-7.15 4.775-7.207 1.064-10.442l-7.117 5.122c-.443-3.644-.724-6.317-1.064-9.245zM320.31 300.42l-4.79.4c-.408 3.132-.754 5.834-1.196 9.444l-7.516-5.587c-.886 1.022-2.599 2.249-2.394 2.793l.199.532c1.226 2.861 2.564 5.634 3.858 7.915l-8.846 1.863.2 4.988 9.444.465.066.067c-2.588 3.405-4.41 5.695-6.385 8.18l4.456 2.595 6.918-5.255c.578 3.746 1.053 6.545 1.53 9.644l4.921-.332c.136-1.737.162-2.794.333-4.19.17-1.397.49-2.84.864-5.122l7.915 5.654 3.525-3.193-5.387-7.45 8.447-1.396-.466-5.121-6.385-.466c-1.692-3.587 1.022-5.223 2.727-7.316v-.066c.326-.667.599-1.4.732-2.195l-3.925-2.461-7.316 5.32c-.613-3.78-1.053-6.61-1.53-9.71m692.575.333a581 581 0 0 1-1.53 9.577l-7.05-5.72-3.924 3.525c3.27 4.053 3.276 4.069 3.99 7.849-7.73.92-7.71.93-6.45 6.65l8.246.732-6.252 7.849 4.124 3.06 7.45-5.388 1.529 9.71 4.722-.399c.443-3.167.787-5.835 1.264-9.444l7.25 5.587 3.99-3.06c-.987-3.099-4.942-4.002-4.057-7.782l7.183-1.197v-5.92h-8.447l4.989-8.978-2.86-3.326-8.181 6.385v-.066c-.51-4.257-.824-6.92-1.13-9.644zm25.008 104.022c-12 .826-23.824 4.803-35.317 12.039-6.47 4.018-12.592 8.773-18.756 13.302-21.215 15.596-42.452 31.28-64.382 47.422 9.245 6.935 17.77 13.461 26.338 19.887 16.652 12.293 33.498 24.417 50.082 36.847 19.956 14.915 42.036 19.179 66.112 13.9l.532-.133c8.82-2.179 16.866-6.031 23.744-11.173 12.62-8.909 25.224-17.961 37.579-27.27 18.184-14.166 39.667-24.293 64.05-29.264 6.844-1.329 13.741-2.199 21.948-3.459-5.755-.885-10.009-1.616-14.3-2.195l-.731-.066c-21.113-2.69-40.781-9.996-57.4-20.552-15.672-9.952-30.365-21.288-45.692-31.859-5.176-3.916-10.756-7.408-17.226-10.575-12.361-5.363-24.581-7.676-36.581-6.85m-749.708.666c-17.606 0-33.82 5.89-46.624 15.63-13.655 9.943-27.147 20.122-40.904 29.93-21.726 15.494-45.73 24.93-72.497 26.803h-.332a64 64 0 0 0-7.649 1.73c7.39.953 12.94 1.577 18.49 2.394l.865.066c21.692 3.406 41.869 11.474 58.862 22.813 14.336 9.365 28.18 19.612 41.835 29.93 18.831 14.2 39.696 19.73 62.852 15.098l.466-.066c10.454-2.078 20.063-6.444 28.134-12.438 17.674-13.076 35.6-25.834 53.341-38.842 8.684-6.3 17.18-12.875 26.272-19.754-3.03-2.622-5.391-4.976-8.048-6.917-22.475-16.55-45.033-33-67.508-49.55-13.996-10.284-29.489-16.657-46.89-16.827zm754.563 12.437c3.031 0 6.059.224 8.647.599 13.28 1.634 24.197 7.637 34.652 15.23 10.76 7.867 21.16 16.286 32.124 23.811 7.594 5.21 15.841 9.372 23.878 13.901 3.337 1.873 6.824 3.412 10.774 5.387a24.7 24.7 0 0 1-3.458 2.328c-16.346 7.152-30.394 18.045-44.629 28.533-9.467 6.981-18.618 14.56-28.732 20.486-24.28 14.2-48.417 12.718-71.233-3.525-19.82-14.03-39.215-28.727-58.796-43.166-1.26-.885-2.286-2.125-4.057-3.658l.067-.066a63 63 0 0 1 4.855-4.59c19.789-14.493 39.637-29.007 59.527-43.298.05-.036.083-.097.133-.133 10.148-7.441 22.678-11.839 36.248-11.839m-752.568.532c11.719.392 23.265 4.47 34.52 12.371 20.942 14.677 41.35 30.174 61.987 45.294.852.613 1.631 1.24 2.993 2.261-3.78 2.963-6.907 5.497-10.176 7.915-18.73 13.724-37.469 27.65-56.334 41.237-19.751 14.336-51.526 14.135-70.834-.133-11.153-8.264-22.274-16.606-33.588-24.676-12.328-9.16-25.87-16.812-41.57-23.146 7.799-4.256 14.918-7.317 21.218-11.506 12.736-8.547 25.048-17.682 37.512-26.604 6.265-4.461 12.216-9.488 18.822-13.302 11.85-6.845 23.732-10.102 35.45-9.71m253.605 9.644c-12.128-.498-23.439 3.282-33.987 11.174-11.033 8.309-22.21 16.582-33.72 24.21-12.566 8.275-26.698 12.399-41.17 14.034-3.576-4.666-6.74-8.812-10.044-13.103l-.266.2c-2.996 2.11-5.891 4.335-8.513 6.65-4.768 4.666-4.9 9.267-.133 14.034 2.728 2.452 5.617 4.83 8.912 7.183l9.644-11.971h5.454c1.09 0 2.14.128 3.06.332l.864.133c16.89 3.916 32.514 11.246 45.693 20.951 7.254 5.278 14.094 11.088 21.483 16.162 20.364 13.996 42.348 14.105 63.052-.266 15.971-11.067 31.393-23.04 47.023-34.652 1.964-1.49 3.687-3.322 6.452-5.786l-.133-.067c-.954-.375-1.877-.754-2.66-1.197-15.938-11.612-31.922-23.2-47.689-35.051-6.436-4.904-13.154-8.998-20.884-11.041a57 57 0 0 0-12.438-1.929m244.826 0c-11.514-.042-22.894 3.841-32.923 11.64-10.318 8.07-21.07 15.415-31.592 23.145-6.811 5.006-13.5 10.084-20.685 15.43 3.712 2.555 6.745 4.636 9.844 6.918 14.813 10.965 29.48 22.092 44.362 32.99 19.104 13.961 43.197 13.377 61.722.199a628 628 0 0 0 17.293-12.77c11.816-9.025 23.972-17.486 38.376-22.015 7.288-2.282 14.465-5.104 21.616-4.457 3.27 4.393 6.11 8.111 9.378 12.504l.067.067c3.065-2.248 5.896-4.138 8.314-6.385 4.784-4.043 5.207-10.278.798-14.566l-.067-.066-.066-.067a98 98 0 0 0-8.98-6.984c-3.54 4.564-6.64 8.481-9.91 12.704-17.673-1.567-33.607-8.157-48.352-17.692-8.786-5.687-16.996-12.323-25.408-18.623-10.624-7.968-22.273-11.93-33.787-11.972m-122.38 16.76c-18.525-.34-35.05 17.13-33.654 32.658-1.532 16.107 13.853 34.05 32.923 34.186 17.265.136 33.281-15.585 33.588-33.122.306-18.117-15.966-33.415-32.857-33.721m-.93 71.5c-11.613 15.903-22.432 30.518-33.057 45.16-4.052 5.585-8.545 10.997-11.44 17.16-8.07 17.13-7.485 34.305 2.595 50.548 4.154 6.743 9.402 12.685 14.033 19.155 8.235 11.576 16.985 22.727 21.75 36.448 2.722 7.654 4.747 15.628 5.786 24.476-2.554 1.703-4.639 2.854-6.784 4.523-2.146 1.669-4.143 3.518-6.186 5.254 1.737 2.214 3.586 4.404 5.255 6.651 4.896 6.653 11.601 7.035 17.093.798l.066-.066.067-.067c1.897-2.341 3.65-4.776 5.52-7.648l-12.37-9.91v-.2c.714-14.95 5.446-28.894 12.836-40.438 7.423-12.226 15.996-23.707 24.476-35.251 14.813-20.126 14.03-43.564 0-63.451-8.105-11.442-16.565-22.649-24.942-33.92-4.563-6.13-9.318-12.173-14.699-19.222m-99.168 61.256-12.57 1.796c-12.362 1.703-24.786 3.318-37.114 5.055-9.603 1.328-19.23 2.76-28.799 4.19-8.07 1.226-16.345 1.779-24.143 3.924-22.373 6.198-39.299 19.73-49.617 40.572-5.006 10.011-8.524 20.802-12.304 31.393a80195 80195 0 0 0-39.175 111.338l-.067.133a23 23 0 0 1-5.387 8.913 3153 3153 0 0 0-43.565 43.564c-2.451 2.486-5.667 4.304-9.311 5.122-3.916.92-7.853 1.577-11.905 2.394l-5.454 20.95.066-.066c4.631-1.192 7.999-2.11 11.507-2.86 10.011-2.417 10.168-2.455 11.905-12.637v-.066a17.22 17.22 0 0 1 4.722-10.043c14.916-14.78 29.744-29.817 44.762-44.562 2.315-2.248 5.079-3.996 8.314-5.188 17.095-6.096 34.251-11.83 51.346-17.892 28.196-9.977 56.579-19.533 84.468-30.328 24.144-9.297 39.908-27.284 46.957-52.211 2.486-8.752 3.294-18.012 4.656-27.07 1.226-8.07 2.167-16.206 3.325-24.277 1.26-8.82 2.664-17.65 3.924-26.47 1.192-8.242 2.233-16.548 3.459-25.674m198.867.2c.715 5.414 1.317 9.873 1.862 14.3a3545 3545 0 0 0 3.658 26.537 5873 5873 0 0 0 5.72 39.374c1.124 7.56 1.646 15.36 3.791 22.614 7.526 25.37 23.493 43.442 48.42 52.943 18.15 6.912 36.417 13.382 54.738 19.886a12661 12661 0 0 0 80.944 28.533h.133a20.86 20.86 0 0 1 8.18 5.188c12.43 12.634 24.773 25.321 37.646 37.512 6.367 6.028 11.151 12.428 12.104 21.35v.266a32.4 32.4 0 0 0 1.53 5.454l20.618 5.254c-1.94-7.662-3.684-14.244-5.387-20.884l-10.176-2.261h-.066c-4.12-.647-7.814-2.597-10.708-5.321-14.575-14.813-29.421-29.382-44.03-44.23-2.077-2.111-3.732-4.686-4.856-7.648a29462 29462 0 0 1-46.091-130.029l-.133-.665c-2.418-7.287-5.73-14.127-9.578-20.086-10.965-16.346-25.486-28.232-44.828-32.59-15.392-3.474-31.16-5.231-46.757-7.65-9.842-1.497-19.69-2.894-29.53-4.256-8.582-1.192-17.192-2.263-27.204-3.591zm-446.02 41.968c-.137 0-.33.066-.466.066h-.067a3.253 3.253 0 0 0-3.259 3.26v.132c-.204 1.805-.522 3.66-.93 6.452l-7.384-5.786-3.06 3.99 4.923 5.52c-1.703 4.802-6.432 1.439-8.713 3.925v4.589l9.311 1.064c-2.043 2.963-3.652 5.298-5.32 7.715l3.525 3.392 6.052-5.387c4.359 2.282 1.755 5.548 2.062 8.646.918.223 1.883.433 2.926.466h.133c1.158-.136 2.306-.425 3.26-.732.238-2.962.459-5.375.73-8.713l7.118 5.92 4.057-3.193-5.853-7.98 9.71-1.53-.399-4.457c-2.86-1.907-6.848.76-8.38-3.259l4.855-6.185-3.591-3.392c-2.963.987-3.866 4.772-7.782 4.057-.136-1.941-.128-3.65-.333-5.388 0-1.736-1.355-3.192-3.126-3.192m695.568.133c-1.907 0-3.459 1.485-3.459 3.392v.266c.068 1.669.428 3.323.599 4.855-4.734 1.635-5.532-3.99-9.312-3.99l-2.328 2.993c1.124 3.235 5.486 4.156 4.124 8.446l-8.048.932c.239 4.358.2 4.361 8.713 6.983l-5.32 7.117 3.657 3.99 7.383-7.05h.067c.851 4.12 1.415 6.91 2.062 10.043l4.789-.199c.545-3.235 1.05-5.999 1.662-9.71l7.317 6.185 3.259-2.993-5.853-8.048 9.577-1.13c-.136-1.84-.23-3.456-.332-4.989l-9.112-1.596c2.281-3.167 3.816-5.298 5.587-7.715l-3.326-3.592-7.516 5.52c-.306-2.928-.491-4.843-.798-6.784v-.066a3.4 3.4 0 0 0-3.392-2.86zM665.366 731.41l-.067.2a25 25 0 0 1-1.729 3.724c-18.29 24.872-36.75 49.586-54.805 74.625-4.018 5.755-7.413 11.936-10.375 19.155a64 64 0 0 0-5.454 25.94c0 1.123-.002 2.305.066 3.259v.133c.783 16.005 6.312 30.782 15.098 42.633 5.55 7.39 10.88 14.891 16.362 22.281 11.748 15.835 24.011 31.387 31.06 50.083 5.04 13.383 9.335 27.062 9.777 41.569v.2c.137 1.736.326 3.426.599 4.788l1.397-.133c.715-4.733 1.447-9.466 2.128-14.233l.133-.798c3.167-21.25 10.917-41.013 21.882-57.665 9.603-15.052 20.569-29.259 31.193-43.698 8.99-12.225 15.005-25.683 16.163-40.837 1.362-17.606-2.417-34.18-12.837-48.686-16.414-22.884-33.198-45.526-49.816-68.24-3.065-4.29-6.348-8.477-10.775-14.3m1.064 22.88c6.096 8.207 11.872 15.881 17.559 23.611 10.25 14.03 20.375 28.273 30.728 42.234 15.8 21.318 14.048 54.893-2.195 75.29-9.705 12.192-18.751 24.971-27.469 37.912-5.415 8.036-9.732 16.794-14.5 25.274-1.183 2.13-2.275 4.32-3.79 7.116-2.465-4.694-4.52-8.645-6.652-12.57-8.377-15.63-19.682-29.26-29.796-43.698-6.266-8.99-13.964-17.085-18.357-27.336-8.684-20.16-8.159-40.07 3.658-58.595 9.33-14.643 20.18-28.304 30.395-42.368 5.29-7.196 10.605-14.42 15.963-21.616 1.192-1.634 2.651-3.109 4.456-5.254m162.619 52.676-5.587 1.198c-1.499 2.622.417 5.958-3.193 7.116l-5.986-4.456-2.727 4.323 5.321 7.316-9.71 1.53.399 4.789 9.378 1.13-5.454 7.45 3.126 4.123 7.848-6.119c.204 3.576.362 6.044.532 9.245l6.385-.399c.34-3.269.625-5.711.931-8.912l6.784 5.387 3.858-3.325c-1.907-2.588-3.443-4.722-5.52-7.582l9.644-.998c-.137-1.975-.23-3.523-.333-5.055l-9.245-1.33 5.454-7.649-3.392-3.924-7.183 6.119c-.443-3.678-.82-6.605-1.33-9.977m-323.774.932c-.613 3.064-1.311 5.834-2.129 9.444l-7.183-6.385-3.591 3.924 5.32 7.516-9.51 1.197c.102 1.907.197 3.456.265 4.988l9.378 1.264-5.387 7.25a504 504 0 0 0 3.126 4.589l6.85-6.319c1.651 3.554 1.761 3.776 1.397 6.785v.066c.035.885.161 1.68.4 2.394l6.052-.532c.102-1.805.062-3.097.266-4.323l.067-.2c.34-1.293.722-2.57 1.13-3.591l7.183 5.454 2.794-4.323-5.321-7.183 9.644-1.53c-.136-1.907-.263-3.257-.4-4.789l-9.31-1.197c2.213-2.929 3.78-5.096 5.653-7.582l-3.126-3.991-7.516 5.32c-.579-3.268-.954-5.624-1.397-8.246z" style="stroke-width:34.0535"/>
</svg>
