<svg xmlns="http://www.w3.org/2000/svg" width="1200" height="960">
    <path d="M508.4 703.696c-5.772 2.474-37.107 35.127-37.107 38.756 0 2.968 30.675 34.302 36.612 37.436 3.463 1.814 12.534 2.309 39.085 2.309 18.966 0 36.447.66 38.591 1.484 2.309.99 4.453 3.463 5.113 6.102 1.484 5.607 1.319 141.664 0 151.23-.66 3.792-2.144 8.575-3.299 10.554-1.32 1.98-2.309 4.453-2.309 5.607 0 3.793-15.832 21.44-26.386 29.356-10.225 7.75-29.026 18.305-32.654 18.305-.825 0-2.474.99-3.463 2.31-2.144 2.638-.495 4.287 8.08 7.585 23.749 9.4 51.62 35.293 62.504 58.216 5.443 11.215 9.236 9.4 17.152-7.916 7.091-15.502 33.313-38.59 55.247-48.65 6.432-3.134 11.874-6.432 11.874-7.422s-5.772-4.617-12.698-7.916c-16.327-7.75-17.317-8.41-29.85-19.13-15.338-13.029-23.584-26.717-26.552-43.538-1.155-6.432-1.814-36.282-1.814-77.677 0-56.896.33-67.78 2.473-71.904 1.485-2.803 2.804-5.112 2.969-5.277s17.976-.66 39.415-1.154l39.25-.99 18.966-18.965c10.39-10.39 18.966-19.626 18.966-20.615 0-2.309-34.468-36.282-39.086-38.59-5.607-2.804-174.483-2.475-181.08.494m297.346-106.042c-2.144 1.154-2.968 3.793-2.968 9.895 0 7.256.494 8.41 4.287 9.73 2.31.99 13.359 1.65 24.408 1.65 15.832 0 20.78-.495 22.429-2.474 2.804-3.464.495-5.773-5.937-5.773-3.958 0-7.256-1.484-11.71-5.607-3.462-2.968-7.915-6.267-9.894-7.421-4.453-2.309-16.822-2.309-20.615 0m-435.052 1.32c-3.134 1.813-7.587 5.112-9.73 7.42-2.97 3.134-5.608 4.288-10.225 4.288-6.927 0-9.4 2.144-6.432 5.773 1.649 1.979 6.761 2.473 23.253 2.473 26.387 0 29.52-1.154 29.52-10.884 0-4.123-.99-8.081-2.638-9.565-3.464-3.629-16.492-3.299-23.748.494m465.892-23.914c-5.278 3.958-1.485 8.246 7.75 8.906 5.443.33 7.917-.33 10.06-2.639 2.475-2.803 2.64-3.463.496-5.112-4.123-3.464-14.513-4.123-18.306-1.155m-107.527-.165c-2.144.825-3.793 2.639-3.793 3.793 0 3.794 5.937 5.608 17.976 5.608 14.348 0 18.966 1.649 21.44 7.916 2.473 5.772 1.484 9.73-3.299 14.842-2.968 3.299-4.947 3.628-18.8 3.628-15.668 0-19.296 1.32-15.668 5.773 1.65 1.979 6.927 2.473 25.068 2.473 26.222 0 31.994-1.649 37.271-10.39 4.948-7.75 4.618-14.182-.99-21.934-5.936-7.916-8.08-9.73-14.347-11.379-7.751-1.979-40.9-2.309-44.858-.33m-302.458.33c-22.594 6.597-27.047 33.149-7.092 41.394 3.793 1.65 12.699 2.31 28.53 2.31 19.461 0 23.09-.33 23.914-2.64 1.814-4.782-.66-5.607-15.667-5.607-13.853 0-15.008-.33-18.8-4.287-4.948-5.278-5.278-11.545-.825-17.152 2.803-3.628 4.617-4.123 18.305-4.947 11.874-.66 15.503-1.485 16.987-3.629 3.463-5.442-1.154-6.926-20.945-7.091-10.39 0-21.274.66-24.407 1.65m-80.15-.66c-8.081 3.134-2.474 9.73 8.246 9.73 6.926 0 10.884-3.957 8.245-7.915-1.814-3.134-10.884-4.123-16.491-1.815m465.727-8.74c-13.688 13.853-12.204 18.965 4.947 18.14l9.566-.494.824-12.039c.495-6.597.66-12.699.33-13.523-1.32-3.793-6.762-.99-15.667 7.916m-440.99-6.927c-.99 2.804.495 21.44 2.144 23.913 1.32 2.144 19.46 1.814 21.77-.494 3.628-3.629 1.978-7.092-7.587-16.657s-14.513-11.544-16.327-6.762m512.894-38.425c-2.804 1.154-6.762 3.958-8.576 6.431-3.298 4.123-3.463 6.267-3.463 44.858 0 45.682-.66 48.98-12.699 57.061l-5.937 4.123-76.851.825c-89.056.99-82.624-.33-100.93 19.46-14.183 15.173-15.667 18.306-12.863 24.903 2.638 5.772 8.41 8.41 18.965 8.41 12.699 0 20.12 4.783 38.59 24.738 9.566 10.225 20.286 20.78 23.749 23.418l6.432 4.618h142.324l5.277-5.937c2.804-3.133 5.937-5.442 6.926-4.783.99.66 1.65 8.246 1.65 18.306 0 15.338-.33 17.152-2.969 17.152-1.65 0-4.783-2.31-7.256-4.948l-4.288-4.947H818.61c-69.266 0-74.048.165-79.82 3.133-3.299 1.814-13.359 10.555-22.1 19.625-14.512 14.843-16.986 16.657-25.727 19.13-5.772 1.65-15.832 2.64-25.397 2.64-13.028 0-16.162.494-18.306 2.968-2.473 2.639-2.803 8.906-2.803 53.433v50.3l3.793 3.463c3.793 3.629 4.617 3.629 61.02 3.629 49.475 0 58.05-.33 64.152-2.804 10.06-3.793 15.832-8.246 20.285-15.337 3.628-5.772 3.958-8.081 4.453-33.149.495-26.057.66-27.376 5.277-36.447 3.463-6.926 7.092-11.05 13.194-15.337 10.39-6.926 14.512-7.586 62.009-7.916 38.755-.33 43.538-1.32 52.114-10.555 9.565-10.225 10.554-14.512 10.554-43.538 0-22.264.495-27.376 2.969-31.664 5.937-10.885 12.534-17.976 20.285-21.77 7.75-3.957 8.905-4.122 46.671-4.122 42.384 0 47.991-.99 57.557-9.73 9.73-8.906 11.049-13.853 11.049-42.714 0-37.436 1.814-34.138-42.219-76.192-15.997-15.337-27.376-24.737-30.015-24.737-.99 0-1.979-.66-2.309-1.32-.824-1.979-14.183-8.576-17.481-8.576-1.65 0-3.793-.824-4.783-1.814-3.133-3.133-21.934-5.112-58.215-5.607-25.233-.495-36.942-.165-40.735 1.32m76.687 135.067c1.154 1.154 1.979 3.133 1.979 4.618 0 2.309-1.98 3.793-10.225 7.916-2.474 1.154-1.32-8.576 1.484-11.544 3.133-3.464 4.123-3.629 6.762-.99m13.688-.33c1.979 1.155 4.123 1.155 5.937.165s3.958-.99 5.937.165c2.144 1.154 3.793.99 4.947-.165 3.134-3.133 9.236-1.979 12.04 2.309 3.298 5.112 4.617 5.112 6.76.33 1.485-3.134 2.97-3.628 10.556-3.464 10.225.165 13.193 2.804 10.06 9.566-2.474 5.607-7.422 5.442-10.06-.165-1.814-3.958-2.31-4.288-3.958-1.98-3.299 4.289-9.4 6.927-11.71 4.948-1.484-1.154-2.638-1.154-3.958.165-2.638 2.639-10.224.165-11.709-3.958-1.32-3.463-1.32-3.463-2.473.99-.825 3.463-1.98 4.452-4.783 3.958-2.309-.33-3.793-1.814-4.123-4.288-.66-4.618-2.144-4.618-6.927.495-3.793 4.123-8.245 5.442-8.245 2.638 0-3.133 3.463-10.884 5.442-12.039 2.474-1.649 2.474-1.649 6.267.33m70.75.66c2.473 3.298 1.484 9.235-1.98 11.544-2.144 1.32-3.628.99-6.102-1.32-4.123-3.792-4.287-6.431-.824-9.894 3.133-3.299 6.267-3.299 8.905-.33M810.033 769.168c4.618 5.442 9.235 5.442 9.235 0 0-3.958 4.783-5.772 10.06-3.793 2.474.99 5.443.825 7.586-.165 2.804-1.154 4.783-.99 7.917 1.155 3.958 2.638 4.617 2.638 7.09.494 2.31-2.144 3.3-2.144 5.938-.33 2.144 1.65 4.123 1.815 7.091.66 2.144-.824 6.432-1.484 9.566-1.484 4.288 0 5.607.825 6.431 3.958 1.98 8.08.165 9.235-14.512 8.74-7.257-.164-14.348-.989-15.503-1.814-1.154-.66-3.133-.494-4.617.66-3.134 2.639-34.798 2.474-37.931-.165-1.814-1.484-2.969-1.32-4.783.165-3.793 3.134-7.916.825-6.597-3.628 1.32-4.123 5.608-9.565 7.587-9.565.66 0 3.133 2.309 5.442 5.112m-130.45 111.98 2.309 3.298 2.969-3.299c3.793-4.288 6.596-4.123 9.73.165l2.308 3.463 3.464-3.463c4.617-4.618 8.08-4.453 10.225.495 1.319 2.803 1.319 4.783 0 7.421-2.474 4.453-6.432 4.453-11.05 0l-3.628-3.463-1.154 3.463c-1.32 4.453-6.432 4.453-10.555 0l-3.134-3.463-1.154 3.628c-.825 2.639-2.144 3.298-5.442 2.969-3.464-.33-4.618-1.485-4.948-5.113-.33-2.639-.165-5.772.33-7.091 1.32-3.464 7.091-2.804 9.73.99m45.352-1.815c1.98 1.155 1.815 2.309-.33 6.267-1.319 2.804-3.792 5.607-5.277 6.102-4.947 1.979-5.937-1.484-2.309-7.916 3.794-6.267 4.453-6.762 7.916-4.453m14.843 2.474c.825 4.123-4.123 10.884-7.916 10.884-4.123 0-4.123-1.649.165-9.07 3.628-6.102 6.762-6.762 7.751-1.814M233.812 520.802c-13.358 2.144-29.19 6.927-30.675 9.236-.494.824-1.814 1.484-3.133 1.484-3.958 0-17.646 9.895-29.685 21.604-6.267 6.102-13.688 13.194-16.492 15.502-15.337 13.854-27.376 26.552-30.345 32.324-3.133 5.937-3.463 9.4-3.463 36.117 0 28.366.165 29.85 3.958 35.293 5.112 7.586 7.586 9.895 14.183 13.523 5.112 2.803 10.884 3.298 48.65 3.958 47.827.99 48.486 1.154 59.7 13.193 9.566 10.06 12.04 19.955 12.04 48.156 0 27.706 1.814 33.478 12.863 42.384 9.07 6.927 19.79 8.576 57.227 8.246 18.14 0 35.952.33 39.58 1.154 13.358 2.474 26.222 14.513 30.18 28.036 1.154 3.793 1.979 15.997 1.979 27.212 0 28.53.66 31.17 9.73 40.9 12.204 13.028 14.018 13.358 80.15 13.358 52.279 0 56.567-.165 59.865-2.969 3.463-2.968 3.463-4.288 3.628-53.433.165-32.654-.33-51.62-1.484-53.763-1.484-2.804-3.958-3.299-21.934-3.958-13.853-.66-22.264-1.814-26.552-3.629-3.298-1.484-12.699-9.07-20.615-16.986-7.916-7.751-17.316-16.327-20.78-18.966l-6.431-4.617H307.035l-4.782 4.947c-7.751 8.081-8.74 6.762-9.4-11.214-.66-20.12.494-22.264 8.575-14.348l5.937 5.772h70.585c82.459 0 73.553 2.144 94.992-21.769 25.233-28.036 26.717-29.025 46.012-31.004 13.854-1.485 18.306-4.783 18.306-13.359 0-5.772-15.667-24.078-28.2-32.653l-8.411-5.938-75.203-.494c-78.006-.495-81.799-.825-88.56-7.586-9.071-9.071-9.071-8.741-9.071-52.774 0-57.556 1.814-55.577-50.465-55.247-17.151.164-36.776 1.154-43.538 2.308M162.897 656.86c4.288 4.288 4.123 5.937-.824 9.236-3.958 2.638-4.453 2.638-7.421-.165-3.958-3.628-4.123-6.267-.66-9.73 3.298-3.464 4.947-3.299 8.905.66m26.882 1.32c1.979 4.452 3.958 4.617 5.277.33 1.32-4.123 7.587-5.773 12.204-3.299 2.474 1.155 4.453 1.32 6.597.165 2.309-1.32 3.628-1.154 5.112.66 1.814 2.309 2.474 2.309 4.948 0 3.463-3.134 5.772-3.134 8.905.165 2.804 2.638 3.629 12.204 1.155 12.204-.66 0-3.298-1.815-5.772-4.123-2.474-2.31-5.113-4.123-6.102-4.123-.825 0-1.484 1.814-1.484 4.123 0 3.133-.825 4.123-3.464 4.123-1.979 0-3.793-1.32-4.288-3.134-.824-3.133-.824-3.133-3.793-.165-4.123 4.123-19.79 3.628-24.737-.824-3.134-2.804-3.299-2.804-6.267.824-3.793 4.618-8.081 3.628-9.565-2.474-1.485-6.266 1.319-8.245 11.05-8.08 7.255 0 8.905.66 10.224 3.628m56.237-.99c2.474 3.463 3.628 11.215 1.814 11.215-1.98 0-8.906-5.278-9.73-7.587-1.155-3.133.495-7.256 3.298-7.256 1.155 0 3.299 1.65 4.618 3.628m107.526 110c2.969-2.474 21.934-3.298 25.068-.99.99.825 1.979 2.97 1.979 4.618 0 1.98 1.154 3.134 3.298 3.134 1.814 0 3.298-.99 3.298-2.144 0-3.463 6.102-8.246 8.906-7.256 3.958 1.484 8.246 11.049 6.102 13.193-1.484 1.484-2.804 1.32-5.278-.165-2.473-1.65-3.958-1.65-5.442-.33-1.32.825-4.782 1.65-7.751 1.484-3.133 0-10.555.165-16.657.33-6.926.33-11.874-.33-13.523-1.649-1.484-1.154-3.463-1.484-4.618-.825-1.154.825-8.245 1.65-15.832 1.815-15.007.494-16.491-.495-14.512-8.741 1.154-4.288 1.319-4.453 11.379-3.298 5.607.494 11.38.33 12.699-.66 1.649-.99 3.298-.66 5.277 1.154 2.474 2.144 3.298 2.31 5.607.33m114.453 116.597c3.628 6.267 2.639 10.225-2.309 8.41-3.628-1.484-8.08-8.905-6.926-11.873 1.484-4.288 5.442-2.804 9.235 3.463m13.358-1.484c.99 2.473 2.474 5.112 3.464 5.607 2.143 1.32.164 4.782-2.804 4.782-3.134 0-9.565-9.4-8.41-12.368 1.483-3.958 5.936-2.804 7.75 1.979m17.811-1.65c3.629 2.474 4.123 2.474 5.937 0 2.639-3.628 5.113-3.463 9.07.495l3.464 3.463 2.969-3.628c2.144-2.638 3.793-3.298 6.596-2.309 2.969.99 3.629 2.144 3.134 7.092-.495 5.277-1.155 6.102-4.948 6.597-3.298.33-4.617-.33-5.442-2.969l-1.154-3.628-3.629 3.463c-4.452 4.288-8.575 4.453-10.72.66-1.484-2.804-1.648-2.804-4.617 0-4.453 3.958-8.41 3.463-10.555-1.155-1.32-2.803-1.32-4.782 0-7.42 2.31-4.124 4.783-4.289 9.895-.66m507.122-396.791c-1.155 2.144 5.607 8.08 9.07 8.08 1.65 0 3.958 1.155 5.113 2.475s2.803 2.473 3.628 2.473c4.453 0 24.902 15.997 44.528 35.128 3.628 3.463 7.42 5.937 8.41 5.607 1.32-.33 2.144-6.597 2.474-18.47.495-16.657.165-18.142-3.793-24.079-6.762-10.39-10.555-11.38-41.394-12.039-15.008-.165-27.541.165-28.036.825m-122.699-.495c-7.256.99-11.544 6.597-11.544 15.172 0 13.194-.66 13.029 51.124 13.689 30.675.33 47.826 1.319 52.774 2.803 8.906 2.474 19.79 6.432 23.088 8.411 1.32.66 5.443 2.969 9.07 4.783 8.412 4.617 17.647 12.204 35.128 28.86 7.586 7.257 17.317 16.327 21.44 20.285 4.782 4.618 8.575 6.927 10.884 6.597 3.134-.495 3.463-1.65 3.958-15.832l.495-15.338-16.162-15.832c-16.657-16.162-36.117-31.829-43.373-34.962-2.31-.99-5.278-2.474-6.597-3.299-1.32-.99-6.597-3.463-11.71-5.772-16.49-7.421-30.344-9.235-74.212-9.73-22.099-.165-42.054 0-44.363.165m-645.652.495c-19.79 1.649-39.58 6.597-44.033 11.05-1.154 1.154-2.969 1.978-4.123 1.978-3.958 0-24.243 12.37-32.489 19.626-2.638 2.308-12.039 11.214-20.944 19.79l-16.327 15.502v15.172c0 19.296 1.649 21.44 11.05 13.688 3.463-2.968 13.852-12.698 22.758-21.439 28.86-27.871 45.352-38.26 72.069-44.857 8.74-2.144 19.625-2.64 53.268-2.64 41.89 0 42.384 0 45.518-3.792 4.452-5.442 4.122-15.173-.99-20.12-2.144-2.309-5.277-4.123-6.926-4.123-24.408-.825-68.606-.66-78.831.165m-97.631 0c-7.092 1.484-11.545 4.288-16.162 10.39-4.123 5.277-4.288 6.431-3.793 24.243.33 12.368 1.154 18.8 2.473 19.13.99.33 6.927-4.288 13.194-10.39 17.646-17.316 42.714-35.292 49.31-35.292 2.144 0 7.257-5.278 7.257-7.586 0-1.815-44.033-2.144-52.28-.495m934.587-61.514c-1.319.494-7.256 5.607-13.193 11.544-14.018 13.688-31.004 26.387-45.022 33.148-6.102 3.134-10.885 6.432-10.555 7.422.33 1.154 9.235 1.979 26.552 2.308 29.85.495 34.467-.824 42.383-11.709 4.618-6.267 4.783-7.421 4.783-24.408 0-9.73-.495-18.14-1.154-18.47-.825-.33-2.474-.33-3.793.165m-953.883-.165c-.494.494-.99 9.235-.99 19.295 0 15.997.496 18.8 3.794 23.583 6.927 10.39 13.688 12.204 43.043 11.71 15.338-.33 25.893-1.155 26.222-2.145.165-.99-4.617-4.287-10.72-7.42-6.101-3.134-12.038-6.762-13.193-7.917-.99-.99-2.638-1.979-3.463-1.979-2.144 0-12.039-8.41-26.717-22.264-12.368-11.709-16.326-14.513-17.976-12.863m929.64-26.882c-32.653 31.83-48.32 42.219-73.553 48.816-10.224 2.803-17.81 3.298-54.917 3.298-42.714 0-43.044 0-46.507 3.793-2.474 2.639-3.628 5.937-3.628 10.555 0 5.607.99 7.586 5.112 11.05l5.113 4.287h38.096c50.3 0 65.142-2.309 88.066-13.523 23.418-11.214 28.695-15.337 57.72-43.538l13.689-13.359v-13.358c0-15.337-.825-18.47-5.112-18.47-1.65 0-12.534 9.235-24.078 20.449m-214.227-18.14c-8.246 6.266 8.08 12.533 17.151 6.596l4.288-2.804-3.793-2.968c-4.618-3.793-13.193-4.123-17.646-.825m-29.85-.66c-6.102 2.473-4.618 7.75 4.947 17.15 14.018 14.019 16.657 13.524 16.162-2.968-.495-15.337-.824-15.832-9.73-15.667-4.288 0-9.4.66-11.38 1.484m-433.404 0c-.66.989-1.484 7.256-1.979 13.853-1.32 16.821 1.32 17.48 15.338 3.958 11.379-10.885 13.028-15.338 6.267-17.812-5.608-2.143-18.306-2.143-19.626 0m-26.716 0c-4.783 1.979-4.948 5.937-.495 8.245 4.783 2.639 15.007 1.32 16.986-1.979 3.958-6.102-6.761-10.225-16.491-6.267m-225.278-.495c-.66.494-1.154 7.916-1.154 16.162v15.172l7.091 7.256c16.657 16.987 37.931 35.623 44.033 38.261 1.32.66 4.783 2.639 7.422 4.453 2.803 1.814 6.102 3.793 7.42 4.288 1.32.66 6.268 2.804 10.72 4.947 17.812 8.081 28.366 9.4 76.192 10.225l45.023.66 4.947-4.947c6.432-6.432 6.927-15.997 1.155-21.44-3.463-3.298-5.442-3.463-49.805-4.123-48.486-.66-52.28-1.154-70.09-9.07-15.832-6.927-29.85-17.646-53.598-40.57-21.275-20.615-26.387-24.243-29.356-21.274m707.167-34.633c-25.727.66-25.562.66-25.562 10.06 0 4.288.824 8.74 1.979 9.895 1.154 1.155 6.102 1.979 11.214 1.979 9.4 0 12.369-1.32 22.759-10.225 3.628-3.133 7.256-4.617 11.049-4.617 6.927 0 7.916-4.123 1.484-6.597-2.309-.99-4.288-1.484-4.452-1.32s-8.411.66-18.471.825m-99.446.99c-7.091 3.298-2.803 5.277 13.194 6.102 16.986.824 21.44 2.968 23.418 10.884 1.32 5.113-2.803 13.193-7.586 14.843-2.144.66-8.246 1.154-13.688.824-15.173-.495-24.408 5.113-15.832 9.73 4.617 2.31 40.24 2.144 45.847-.33 10.72-4.617 18.636-14.677 18.636-23.583 0-5.607-6.432-15.172-11.545-17.151-6.102-2.309-47.826-3.463-52.444-1.32m-295.202-.495-16.986.824-4.783 5.773c-7.092 8.41-6.927 18.47.495 26.716 8.41 9.4 15.337 11.38 38.26 10.885 16.657-.495 19.626-.99 21.275-3.464 2.968-4.947-2.969-7.916-14.678-7.586-13.688.495-19.79-1.154-22.099-6.102-2.968-6.596-2.144-10.39 2.969-15.667 4.618-4.618 5.607-4.782 18.965-4.782 13.853 0 18.141-1.65 14.348-5.443-2.144-2.144-12.369-2.309-37.766-1.154m-87.901.33c-4.948 1.979-2.804 5.442 3.463 5.937 3.464.33 9.4 3.463 15.338 7.916 8.41 6.267 10.72 7.256 17.976 7.256 11.874 0 14.512-1.979 14.512-10.72 0-5.277-.824-7.75-2.803-8.905-3.628-1.814-44.033-3.134-48.486-1.484m303.448-8.906c-10.72 10.885-14.677 16.327-16.821 22.429-2.474 7.421-2.804 19.955-2.804 124.513 0 105.382.33 117.091 2.804 123.853 1.484 4.123 3.793 8.08 4.947 8.74s2.144 2.144 2.144 2.969c0 2.803 23.748 24.408 26.882 24.573 3.628 0 6.761-6.762 5.607-11.874-.66-2.144-5.772-8.906-11.544-15.008-6.597-6.927-11.05-13.028-11.71-16.162-1.319-6.762-1.319-226.432.165-234.513.66-4.947 3.134-8.575 10.555-15.667 11.71-11.214 14.183-16.492 11.38-23.418-1.155-2.804-3.299-4.948-4.783-4.783-1.484 0-9.07 6.597-16.822 14.348m1.65-21.604c-1.485 1.649-7.917 8.08-14.513 14.183-6.432 6.267-11.71 12.204-11.71 13.358 0 1.32-.989 3.134-2.308 4.123-1.32 1.154-2.804 4.948-3.464 8.576-.66 3.463-1.814 6.761-2.638 7.421-.825.495-1.484 49.475-1.484 119.07.164 110.33.33 118.906 3.133 126.987 1.65 4.783 3.793 9.565 4.948 10.72.989.99 1.814 2.803 1.814 3.958 0 1.814 28.86 31.829 30.84 31.829s7.09-3.628 7.09-5.113c0-1.484-6.266-7.916-16.821-17.151-7.916-6.927-16.162-18.8-16.162-23.253 0-2.144-.66-4.288-1.65-4.783-2.143-1.32-2.308-242.594-.164-243.913.825-.495 1.979-3.628 2.474-6.762.824-4.453 4.617-9.4 14.018-18.965 6.926-7.257 13.523-13.194 14.513-13.194 1.979 0 4.122-6.431 2.803-8.575-1.484-2.31-8.08-1.485-10.72 1.484m-112.474-1.65c-2.474 2.31-.99 6.762 2.968 9.401 12.369 8.08 26.882 25.892 29.356 36.117 2.308 8.74 3.298 114.453 1.154 118.08-.99 1.65-1.65-19.13-1.65-55.411 0-31.994-.659-58.381-1.483-58.876s-1.98-2.804-2.474-5.277c-.66-2.31-1.98-5.443-3.134-6.762-4.617-6.102-28.53-28.366-30.344-28.53-1.155 0-2.804 1.484-3.794 3.133-3.628 6.761-1.814 11.05 9.895 24.243l11.545 12.863v120.555c0 136.222 1.484 121.214-14.513 137.211-5.937 5.937-8.576 10.06-8.576 13.029 0 5.442 2.804 10.555 5.772 10.555 4.288 0 31.665-28.531 32.984-34.303.495-2.804 1.814-5.607 2.639-6.102.824-.66 1.484-25.562 1.649-59.04 0-35.623.66-56.567 1.484-54.423 2.144 5.112 1.154 108.515-1.154 116.761-.99 3.628-2.804 8.576-3.958 10.885-2.969 5.112-23.584 26.222-25.893 26.222-1.649 0-3.628 3.793-3.628 7.42 0 4.124 6.597 3.959 11.215-.329 17.81-16.327 25.562-24.903 29.52-33.148l4.618-9.4V354.235l-4.123-8.246c-2.474-4.948-10.06-14.183-18.801-22.759-13.358-13.193-18.306-16.162-21.274-13.193m89.385.99c-7.751 7.422-15.997 16.162-18.141 19.296-7.751 10.72-8.08 18.8-7.916 151.064 0 124.513.66 139.026 6.102 144.468.99.99 1.979 2.803 1.979 3.958 0 2.144 25.892 27.211 32.654 31.664 3.463 2.309 4.123 2.309 7.256-.825l3.298-3.463-15.502-15.502c-15.007-14.678-22.758-25.892-22.758-32.654 0-1.649-.66-3.628-1.65-4.123-2.473-1.484-2.308-243.748.33-251.334 4.288-13.523 8.74-20.45 20.45-32.324 6.597-6.762 12.864-12.369 13.523-12.369 2.639 0 5.113-7.75 3.134-9.73-3.958-3.958-8.906-1.32-22.759 11.874m-78.83-11.38c-1.485 1.815-1.65 3.3-.165 5.773.989 1.979 2.308 3.463 2.968 3.463 3.628.165 23.913 22.594 29.85 32.984 5.442 9.565 5.772 17.81 5.772 137.706 0 118.74-.495 131.604-5.442 136.552-.99.99-1.814 3.133-1.814 4.782s-1.155 3.464-2.474 3.958c-1.32.66-2.474 1.65-2.474 2.474 0 1.32-10.06 11.544-22.923 23.418-2.804 2.639-5.113 5.608-5.113 6.597 0 2.804 6.432 6.432 8.74 4.948 6.433-3.793 28.532-25.728 33.809-33.479l6.102-9.07V479.408c0-131.44-.165-140.675-2.804-143.643-1.649-1.814-2.968-3.958-2.968-4.948 0-2.968-32.819-33.478-36.117-33.478-1.65 0-3.958.99-4.948 2.309m99.115-248.695c-3.628 2.474-3.628 2.639-3.628 53.434 0 62.173-1.98 57.72 24.902 57.72 25.068 0 28.036 1.485 50.3 23.09 10.39 10.224 20.45 18.47 23.089 19.294 2.638.66 37.27 1.32 77.18 1.32h72.235l4.453-5.442c2.473-2.804 5.772-5.278 7.256-5.278 2.474 0 2.804 2.144 2.804 17.152 0 11.049-.66 17.646-1.814 18.47-.99.66-4.288-1.484-7.422-4.947l-5.442-5.937h-70.09c-67.616 0-70.255.165-75.862 3.298-3.134 1.98-13.358 11.71-22.594 21.934-9.4 10.225-18.47 19.625-20.45 21.11-5.112 4.288-18.305 8.08-27.211 8.08-7.091 0-8.41.66-11.544 4.948-2.474 3.463-3.299 6.432-2.639 9.236 1.484 5.442 17.481 23.088 27.871 30.344l8.081 5.772 76.852.825c52.444.495 78.336 1.484 81.14 2.639 4.452 2.144 9.235 7.091 13.687 14.183 2.474 3.958 2.804 10.06 2.804 46.506v41.89l5.112 4.287c2.804 2.31 6.762 4.783 8.741 5.278 5.937 1.484 78.5-.495 86.747-2.31 16.986-3.792 39.58-14.677 47.99-23.253 1.485-1.484 13.854-13.358 27.542-26.386 31.994-30.18 31.664-29.356 31.664-65.638 0-22.758-.495-28.036-2.804-32.323-4.123-7.422-10.554-14.348-15.337-16.492-2.474-1.155-21.44-2.144-47.001-2.804-39.416-.824-43.374-1.154-49.476-4.453-9.4-4.947-14.842-10.39-19.625-19.955-4.123-8.08-4.288-9.73-4.288-34.797 0-30.675-1.484-35.293-14.512-46.012l-7.422-6.102-43.868-.99c-51.784-1.154-53.763-1.649-65.472-14.183-9.565-10.224-12.204-20.78-12.204-47.826 0-19.625-.495-24.737-2.804-29.025-4.287-7.586-13.358-15.337-20.284-17.481-3.958-1.155-26.222-1.814-64.483-1.814-50.3 0-59.04.33-62.174 2.638m31.5 18.8 2.308 3.3 2.969-3.3c6.101-6.76 12.368-1.978 10.06 7.587-1.32 4.948-6.267 5.277-10.72.495l-3.134-3.463L679.912 78c-.825 2.638-2.144 3.298-5.442 2.968-3.464-.33-4.618-1.484-4.948-5.112-.33-2.639-.165-5.772.33-7.092 1.32-3.463 7.091-2.803 9.73.99m30.674.66c4.453 8.081-4.288 14.513-10.39 7.752-2.309-2.474-2.474-3.958-1.154-6.432 3.298-6.102 8.74-6.762 11.544-1.32m12.534 1.155c4.782 5.937 4.617 8.74-.495 9.4-2.31.33-3.628-.33-3.628-1.979 0-1.32-1.155-3.628-2.64-5.112-2.638-2.639-2.143-7.422.826-7.422.824 0 3.463 2.31 5.937 5.113m13.523-1.484c4.617 4.288 5.112 11.214.824 11.214-3.298 0-9.565-10.39-7.916-13.028s2.804-2.31 7.092 1.814m66.956 112.144c.495 1.649 1.485 1.649 4.618.165 4.783-2.31 36.117-2.474 39.085-.165 1.32 1.154 2.804.99 4.453-.33 1.814-1.484 3.628-1.65 6.267-.495 1.98.825 5.442.99 7.751.33 11.215-3.298 17.481 0 15.502 8.08-1.319 4.619-4.782 5.608-12.698 3.464-5.113-1.32-7.586-1.32-10.72.33-3.463 1.979-4.288 1.814-6.267-.825-1.979-2.803-2.473-2.968-5.112-.66-2.144 1.65-6.432 2.31-14.513 2.31-10.225-.165-11.544-.495-12.039-3.464-1.154-6.432-3.463-6.596-8.41-.824-4.124 4.782-5.278 5.442-7.917 3.958-3.628-2.144-7.586-9.895-6.267-12.204 1.485-2.31 5.443-1.98 6.267.33m158.486 119.07c-1.484 4.618-1.65 4.783-5.442 3.463-3.628-1.154-6.102-7.421-4.453-11.544 1.65-4.288 11.214 3.628 9.895 8.081m25.397-6.102c1.155 2.969 1.814 3.628 1.814 1.65.165-3.959 8.246-6.927 12.37-4.453 1.978 1.319 3.627 1.319 4.617.33 1.979-1.98 7.751.659 10.06 4.287 1.154 1.65 2.309 1.155 5.277-1.979 2.144-2.309 4.783-4.288 5.608-4.288 2.803 0 5.442 6.597 4.452 10.72-.824 3.463-1.814 3.793-10.72 3.628-8.905 0-9.894-.33-10.884-3.958-.99-4.453-4.123-4.947-5.277-.824-1.32 5.277-6.597 7.42-12.04 4.782-3.463-1.814-5.112-1.979-6.431-.66-1.484 1.485-2.639 1.32-4.948 0-1.814-1.154-3.793-1.319-5.277-.33-4.618 2.97-8.246 1.485-10.72-4.287-1.154-3.134-2.308-6.102-2.308-6.597 0-2.144 6.431-.495 9.07 2.474 3.793 4.123 5.772 4.288 5.772.33 0-6.762 7.257-7.422 9.565-.825m58.051-.99c2.804 5.113.66 11.38-3.793 11.38-7.75 0-10.39-7.916-4.123-12.204 4.783-3.463 5.772-3.298 7.916.825M424.292 50.294c-7.422 2.638-14.843 8.74-19.13 15.667-3.464 5.607-3.959 8.575-4.289 29.355-.66 32.324-2.473 38.92-12.863 49.475-12.369 12.699-18.141 14.018-63.823 14.018-20.12 0-39.415.825-42.714 1.65-7.421 1.979-15.502 9.235-19.625 17.48-2.804 5.443-3.298 9.73-3.298 31.5 0 19.625-.66 26.717-2.804 32.159-3.958 10.225-11.05 18.47-19.955 23.748l-7.751 4.618-41.23.495c-49.475.824-51.289 1.319-62.009 15.997l-4.782 6.431v29.52c0 39.416-2.309 34.798 39.58 74.213 21.11 19.626 27.047 24.573 31.334 26.552 1.32.66 4.948 2.639 8.081 4.618 15.832 9.565 27.871 11.544 74.213 12.534 42.714.824 45.847.33 51.29-8.576 3.133-4.948 3.298-8.081 3.298-45.847 0-36.447.33-41.23 2.969-45.517 3.133-5.113 8.74-10.06 14.347-12.7 1.814-.824 37.766-1.813 79.985-2.308l76.687-.825 6.597-4.287c6.761-4.453 18.8-16.492 25.232-25.233 7.916-10.39 2.474-20.78-11.05-20.78-14.512 0-22.758-4.122-37.106-18.8-7.091-7.421-15.667-16.492-18.8-20.45s-8.906-8.905-12.7-11.214l-6.926-3.958H307.365l-5.937 5.772c-4.618 4.618-6.432 5.442-7.586 3.793-2.144-2.968-.825-34.303 1.32-34.303.989 0 4.617 2.639 8.245 5.937l6.432 5.772 72.894-.494c68.605-.495 73.223-.66 77.84-3.629 2.804-1.814 12.37-10.72 21.44-19.79 19.295-19.46 22.594-20.78 48.486-20.78 25.397 0 23.583 4.453 23.253-56.896-.165-44.528-.495-51.454-2.804-53.928-2.473-2.804-7.091-2.968-62.173-2.804-36.942 0-61.35.825-64.483 1.815m46.012 17.48c.495.825-.495 4.124-1.98 7.422-1.978 4.453-3.792 5.937-6.101 5.607-4.783-.494-4.783-4.782-.165-9.895 4.288-4.617 6.762-5.442 8.246-3.133m14.842 0c.495.825-.494 4.124-1.979 7.422-1.979 4.288-3.958 5.937-6.431 6.102-5.113 0-4.948-4.947.33-10.555 4.122-4.452 6.596-5.277 8.08-2.968m12.534 1.155c1.154 1.32 3.134 2.474 4.453 2.474 1.154 0 2.639-1.154 3.133-2.474 1.485-3.463 4.948-3.133 9.236 1.155 1.979 1.979 3.793 2.968 4.123 1.979 1.649-4.783 3.628-5.937 7.916-4.948 3.793.99 4.288 1.814 3.793 7.257-.495 5.277-1.155 6.101-4.948 6.596-3.298.33-4.617-.33-5.442-2.968l-1.154-3.628-3.629 3.463c-4.452 4.288-8.575 4.453-10.72.66-1.484-2.804-1.648-2.804-4.617 0-4.288 3.793-8.246 3.463-10.555-.66-1.32-2.639-1.32-4.453.33-7.421 2.309-4.618 5.113-5.113 8.081-1.485M349.09 183.216c.989 1.65 1.649 1.65 3.298-.33 2.473-2.968 31.17-3.463 38.59-.494 3.629 1.319 5.113 1.154 6.102-.495.66-1.155 2.474-1.65 4.123-1.155 3.134 1.32 2.144 6.597-2.144 11.38-3.628 4.288-6.266 3.628-10.554-1.98-4.453-6.101-7.916-6.431-7.916-.824 0 4.783.824 4.453-13.194 4.948-7.751.165-11.544-.495-13.688-2.31-2.804-2.308-3.298-2.308-5.277.495-1.65 2.144-3.134 2.64-5.278 1.65-1.649-.66-7.75-1.32-13.688-1.32-9.895-.165-10.72-.494-11.214-3.958-1.155-7.75.165-8.41 15.337-7.916 9.235.165 14.678.99 15.502 2.31M164.875 296.35c1.815 2.638 1.65 3.793-1.319 6.596-6.432 6.597-14.842-.494-9.73-8.246 2.309-3.463 3.133-3.793 6.267-2.144 1.979 1.155 4.123 2.804 4.782 3.794m13.689-1.32c3.133 3.299 4.123 3.628 5.277 1.814 1.979-3.628 7.751-6.102 10.39-4.452 1.154.66 3.298.66 4.782-.33 3.629-2.144 11.71.99 11.874 4.782 0 1.98.66 1.32 1.815-1.649 2.473-6.761 6.926-5.277 7.586 2.639.494 6.432-2.969 10.06-6.597 6.432-1.154-1.155-3.463-.99-7.256.66-5.113 2.143-5.772 2.143-8.906-.99-1.814-1.814-3.298-4.123-3.298-4.948 0-2.968-2.804-1.649-4.453 1.98-1.32 3.133-2.969 3.792-10.885 3.957-8.575.33-9.565 0-10.39-3.463-.989-4.123 1.65-10.72 4.453-10.72.825 0 3.464 1.98 5.608 4.288m70.09.33c0 2.804-1.65 6.267-3.958 8.41-3.958 3.794-3.958 3.794-5.773.496-2.473-4.618-2.473-4.618 2.64-9.4 5.771-5.278 7.09-5.278 7.09.494m-13.194.495c0 5.607-3.133 9.73-7.586 9.73-6.267 0-6.927-4.618-1.32-9.235q8.906-7.174 8.906-.495m359.52-412.13c-.99 2.145-3.133 5.938-4.947 8.741-1.814 2.64-3.793 6.267-4.288 7.752-.66 1.649-1.484 2.968-2.144 2.968s-3.793 3.628-7.091 7.916c-7.587 10.225-26.717 24.573-43.044 32.159-7.421 3.628-12.369 6.927-11.874 7.916.66.825 6.432 4.288 12.864 7.421 19.625 9.566 20.78 10.555 33.148 22.1 12.864 12.368 21.44 26.88 23.089 39.58 1.484 10.554 1.484 146.941 0 150.57-1.98 5.277-8.081 6.101-42.384 6.101-28.201 0-34.138.495-39.086 2.969-6.761 3.298-37.93 34.797-37.93 38.426 0 2.638 31.993 34.797 37.436 37.6 2.473 1.32 30.344 1.815 91.529 1.815 82.623 0 88.23-.165 92.519-3.134 5.772-3.793 35.622-34.962 35.787-37.271 0-2.804-35.128-36.777-40.075-38.59-2.804-1.155-19.13-1.815-39.25-1.815h-34.633l-3.958-4.288-4.123-4.452V99.438c0-69.595.824-82.459 6.267-94.003 9.4-19.79 30.84-38.096 58.545-49.97 3.299-1.484 6.102-3.628 6.102-4.783s-3.463-3.628-7.916-5.277c-26.222-10.885-51.29-33.808-62.669-57.556-4.287-8.576-9.235-10.39-11.874-4.123" style="stroke-width:.164918"/>
</svg>
