<svg xmlns="http://www.w3.org/2000/svg" width="2150" height="960">
    <path d="M1959.086.002c-14.507.064-29.951 1.746-37.296 4.36-41.678 14.787-84.616 30.67-101.657 37.347-40.72 15.724-49.765 18.707-65.608 21.841-8.801 1.741-21.07 3.394-27.079 3.598s-14.332.796-18.542 1.206c-3.885.276-9.056-.247-11.125-1.104s-9.634-2.104-16.698-2.606c-12.559-.893-27.175-7.218-34.617-14.61-2.513-2.387-4.733-2.228-7.961 1.014-2.617 2.417-7.892 6.696-12.04 9.557-9.46 6.585-20.445 16.847-22.063 20.755-3.81 9.196 1.454 28.347 8.715 31.624 2.07.857 4.394 3.702 5.242 6.208s2.71 5.161 4.549 5.923c5.057 2.095 9.665 18.28 6.903 24.947-1.428 3.448-1.71 7.375-.845 8.54 1.093 1.261 1.064 3.939.302 5.778-1.714 4.138-12.292-.24-23.452-9.71-18.523-15.753-32.394-22.577-74.458-36.768-24.116-8.104-32.463-9.408-56.083-8.956-4.804-.105-12.941.025-18.396.19-28.654.25-28.002-.019-34.5 13.72-5.737 11.898-6.16 12.263-13.112 10.19-3.774-1.293-13.73-3.26-21.943-4.238-20.392-2.79-42.097-11.514-51.552-20.548-10.914-10.715-20.1-19.098-28.21-24.88-3.662-2.864-7.499-6.609-8.307-8.56s-4.239-4.717-7.458-6.05c-3.218-1.333-7.247-4.619-9.014-7.505-1.862-2.657-5.6-6.63-8.533-8.654-5.73-3.72-15.148-12.197-26.062-22.913-5.754-5.615-8.744-6.854-15.903-7.126-4.71-.334-15.223-2.265-23.055-4.162-20.78-5.106-23.87-1.54-19.035 22.548 1.258 6.716 2.75 16.762 3.24 22.082.625 5.645 3.272 16.168 6.044 23.78 2.868 7.383 5.313 15.13 5.566 17.121s-7.12 19.135-16.133 38.295c-9.244 19.065-16.558 35.428-16.25 36.633-.017 1.34 5.217 4.315 11.194 6.79 10.805 4.476 11.074 5.129 16.396 23.493 2.97 10.388 7.98 27.547 10.95 37.934 13.129 45.031 20.263 70.07 25.085 87.69 6.77 24.62 18.068 53.27 27.925 71.09 8.454 15.352 23.406 43.633 53.6 102.735l18.816 37.15-4.76 11.497-4.86 11.723 18.507 6.05c10.036 3.08 26.699 8.365 36.87 11.77l18.6 5.818 9.117 21.553c5.078 11.8 13.588 26.37 18.826 32.58s9.694 12.361 9.908 13.796 3.28 3.784 6.958 5.307c6.897 2.857 10.625.361 14.624-9.294 1.238-2.99 6.98-11.652 12.382-18.842 8.17-10.621 10.02-14.433 9.15-18.834-.332-3.1-.253-9.801.597-15.105 1.796-10.838 2.557-23.722 2.625-36.892-.125-4.9.876-11.216 2.02-13.975 1.237-2.988 1.649-6.59 1.07-8.445-.902-1.721-.646-7.54.07-13.17 1.89-11.068 2.647-23.948 2.81-37.347-.139-11.37 7.1-28.843 18.801-44.736 4.847-7.15 11.756-16.676 14.77-21.353 5.553-8.204 5.877-8.342 16.738-4.651 8.697 3.064 12.81 2.885 18.393-.19 3.862-2.17 7.742-5.683 8.599-7.753.952-2.299 4.086-5.308 6.973-7.075 2.791-1.537 6.018-4.78 6.875-6.849s4.142-6.094 7.505-9.01c15.973-13.854 20.859-20.45 27.334-36.083 3.809-9.196 10.768-22.742 15.346-30.542 9.004-14.585 14.363-33.375 17.314-59.356.922-7.429 2.913-15.493 4.61-18.29 2.595-4.313 4.03-4.527 10.181-1.17 10.1 5.529 22.838 37.2 18.743 47.086-.761 1.84.742 7.312 3.317 12.149 6.996 13.671 15.748 15.95 42.152 10.727 19.823-3.64 22.52-4.949 22.72-9.983.806-16.904 25.804-54.492 47.724-70.999 1.912-1.363 6.21-5.237 9.572-8.154 10.049-9.304 53.873-33.17 84.434-45.83 2.276-.942 14.456-6.941 27.153-13.533 12.6-6.362 28.682-13.975 35.375-17.129 12.41-5.902 21.853-11.147 30.013-17.193 16.972-12.363 37.175-35.776 42.698-49.11 3.143-7.587 2.835-8.793-2.223-10.888-11.035-4.57-5.277-6.763-246.986 97.546-11.894 5.307-22.34 9.063-23.259 8.682-3.218-1.333-17.882-38.113-16.548-41.331.857-2.07 22.426-12.526 48.206-23.394 25.55-10.964 71.027-30.373 100.669-43.413 29.776-12.715 62.574-26.874 72.978-31.183 27.5-11.772 36.026-17.397 39.359-25.443 2.857-6.897 2.586-7.548-5.555-10.65-4.923-1.77-14.784-3.971-22.173-4.339-4.293-.364-9.026-.52-13.862-.499m-872.398 226.716c-3.58.076-6.88 1.362-12.67 3.677l-12.911 5.155-8.38 20.23c-7.237 17.472-9.45 20.866-17.555 26.128-10.34 6.759-12.23 10.016-11.9 20.926.18 4.115 16.777 49.236 37.135 100.224 81.551 205.618 74.705 190.93 91.648 192.292 5.494.39 11.004-.557 12.36-1.88 1.872-1.919 8.002-.458 23.635 6.017l20.919 8.664 12.491-4.793 12.488-4.79 7.903-19.081c7.142-17.242 9.167-20.176 20.27-28.774 13.625-10.786 14.631-13.871 9.809-31.49-3.104-10.713-80.092-203.936-102.003-256.375-10.6-25.13-16.966-29.921-32.595-25.352-7.747 2.447-12.033 1.75-29.561-4.702-11.411-4.272-16.48-6.174-21.083-6.076M915.45 299.92c-13.985.397-23.452 9.61-33.308 29.566-7.205 14.792-11.44 21.12-17.92 25.708-16.36 11.538-15.777 16.627 7.061 72.683 7.003 16.906 29.325 73.557 49.992 125.75s39.102 98.073 41.273 101.935c4.516 8.604 20.975 15.69 29.237 12.648 4.457-1.655 10.353-.287 22.997 4.95 19.311 7.999 29.113 7.748 44.426-1.261 8.144-4.707 10.07-7.41 17.117-24.422 6.19-14.943 9.3-19.85 13.946-21.965 3.767-1.941 7.243-6.43 10.29-13.786 5.428-13.104 9.126-1.876-53.604-159.296-59.015-147.533-53.475-135.541-64.74-140.208-5.843-2.15-12.027-2.828-16.618-1.498-5.662 1.965-10.643.981-23.747-4.447-10.511-4.353-19.076-6.565-26.402-6.357m-167.064 72.472c-6.326.073-11.854 2.363-19.118 6.896-8.335 5.166-10.872 8.694-18.608 25.42-6.88 14.658-10.601 20.386-14.923 22.367-3.997 1.846-7.565 6.564-10.326 13.231-4.19 10.116-3.881 11.32 8.817 42.436 6.947 17.691 29.635 74.76 50.302 126.954 50.514 128.39 49.072 125.368 60.107 129.94 5.517 2.285 12.027 2.828 16.618 1.497 6.121-1.774 11.33-.695 23.514 4.352 17.932 7.428 27.12 8.002 39.76 2.195 10.73-4.444 12.656-7.146 23.383-30.444 5.698-12.454 9.65-18.09 13.877-19.84 3.442-1.806 7.336-6.66 9.907-12.867 3.905-9.426 3.554-11.184-15.98-61.561-11.16-28.325-36.445-92.127-56.59-141.68-31.804-78.624-37.11-90.518-43.951-94.16-4.083-2.498-10.252-4.516-13.257-4.414-3.235.007-7.079.839-8.57 1.837-1.261 1.094-10.245-1.28-21.05-5.755-10.46-4.333-17.586-6.478-23.912-6.404m-171.423 70.936L563.155 450l-13.898 6.9-8.286 20.001c-6.19 14.943-9.587 20.539-12.972 21.56-5.242 1.6-13.428 13.563-14.54 21.452-1.002 6.319-.422 8.174 54.766 147.388 50.071 126.86 51.954 131.411 57.042 138.636 5.76 8.85 11.7 10.77 23.791 8.238 8.247-1.702 14.24-.567 30.943 5.274 20.612 7.46 20.937 7.328 32.831 2.02 11.57-5.173 12.086-5.768 21.48-25.847 8.253-17.321 10.98-21.308 18.15-25.61 15.963-9.28 15.799-14.735-.234-56.66-39.242-101.634-97.115-244.117-101.49-249.161-6.83-8.217-12.08-9.852-24.498-7.185-9.451 2.01-13.413 1.178-30.195-5.773zm-196.83 3.678a5.3 5.3 0 0 0-1.046.007c-4.956.91-15.288 10.905-20.992 20.124-6.6 10.733-14.024 39.71-21.375 85.415-4.028 23.38-17.495 55.24-30.44 70.886-10.978 13.498-15.736 17.184-18.097 13.782-.864-1.166-5.465-3.07-10.214-3.959-10.322-2.39-17.694 3.712-14.883 11.88 1.117 3.155.415 7.444-1.512 10.147-10.384 14.014-22.013 27.782-33.148 39.06-3.554 3.377-6.93 7.631-7.692 9.47-.761 1.84-4.141 6.098-7.694 9.474-11.977 12.007-18.546 20.058-24.67 29.642-3.3 5.366-9.614 15.412-14.136 22.428-4.521 7.015-14.137 22.421-21.443 34.209-7.307 11.787-16.923 27.197-21.444 34.212s-9.519 15.182-10.852 18.4c-2.991 6.572-.559 7.848 24.01 12.908 31.118 6.155 42.686 8.793 58.066 13.278 8.982 2.374 17.599 4.326 19.13 3.882 1.76-.348 10.013 1.185 18.44 3.598 14.785 3.97 28.167 5.473 39.363 4.454 3.1-.331 8.92-.076 13.21.624 4.059.604 14.26 1.33 22.3 1.429s17.459.767 20.963 1.41c3.504.644 8.96.478 12.156-.084 7.691-1.662 16.428 1.957 16.228 6.992.158 2.22 2.479 5.068 5.467 6.306 6.437 2.666 13.066-2.936 18.018-14.89 3.714-8.966 10.295-10.552 26.23-6.106 6.263 1.786 16.778 3.716 23.613 4.123 10.893 1.01 13.422 2.06 22.894 9.754 11.216 8.686 28.675 20.498 46.883 31.81 5.96 3.816 13.383 9.311 16.95 12.404 7.767 7.258 32.57 15.648 46.755 15.867 9.839.305 10.912-.33 15.506-9.47 4.498-8.91 4.34-11.127-1.127-25.242l-5.773-15.32 12.189-29.426c6.76-16.322 12.164-31.322 12.331-33.677.128-2.91-2.843-5.49-9.97-8.442l-9.885-4.093-16.14-55.974c-8.869-30.607-16.714-57.827-17.562-60.333-.847-2.505-3.723-13.123-6.692-23.51-2.874-10.618-7.802-23.432-10.972-28.785s-8.223-15.258-11.281-22.18c-3.154-6.693-8.112-16.828-11.282-22.18-7.511-13.078-40.567-76.33-44.433-85.204-1.75-4.227-1.859-10.465-.033-16.173l3.117-9.48-29.638-13.626-29.642-13.625-6.48-14.264c-3.788-7.763-7.4-14.647-8.319-15.028-7.949-4.707-12.287-6.68-14.952-6.904" style="stroke-width:1.86627"/>
</svg>
