<svg xmlns="http://www.w3.org/2000/svg" width="1140" height="960">
    <path d="m569.864-120-17.662 35.786-39.493 5.74 28.578 27.856-6.745 39.333 35.322-18.572 35.323 18.572-6.745-39.333 28.576-27.856-39.493-5.74zM388.345-88.244l-17.662 35.786-39.492 5.74 28.576 27.856-6.745 39.333L388.345 1.9l35.324 18.572-6.745-39.333L445.5-46.717l-39.493-5.74zm363.04 0L733.72-52.457l-39.49 5.74 28.576 27.856-6.745 39.333L751.384 1.9l35.324 18.572-6.748-39.333 28.579-27.856-39.493-5.74zM566.19 58.087c-10.033.001-18.29.453-22.948 1.473v899.468c173.302 11.788 359.384-83.967 440.372-271.336 39.259-90.826 47.14-184.935 25.059-281.338a439.5 439.5 0 0 0-67.515-152.751L846.7 317.51c136.75 203.195 23.343 463.127-191.582 516.53V67.022c-12.757-4.898-58.83-8.94-88.927-8.935m-85.629 9.299c-196.442 38.116-359.06 212.775-361.347 437-2.334 228.976 162.634 408.14 361.283 446.466V833.878C321.527 789.058 247.8 651.888 237.742 560.26h242.663V446.786H237.86c31.42-134.179 111.88-221.549 242.702-263.558z" style="stroke-width:1.13418"/>
</svg>
