<svg xmlns="http://www.w3.org/2000/svg" width="1240" height="960">
    <path d="M613.927-29.992q-2.926-.018-5.957.005c-26.93.206-59.607 2.908-85.434 7.652-27.997 5.228-43.516 9.783-76.742 22.6-5.06 2.025-15.178 5.903-22.43 8.601-26.649 9.951-57.008 23.95-69.49 32.046-2.698 1.687-6.24 3.711-7.589 4.386-10.794 4.891-49.08 32.552-75.055 54.309-17.709 14.842-57.849 54.644-67.462 66.788-3.71 4.554-10.457 12.651-15.18 17.88-4.554 5.228-11.469 13.661-15.18 19.058-3.71 5.397-10.626 15.178-15.517 21.924-11.469 16.023-32.215 57.009-34.07 67.466-1.18 6.071-.842 10.456.845 16.021 2.867 9.445 3.034 16.867.504 23.276-9.276 23.613-5.901 44.189 9.616 57.682 7.42 6.577 19.564 7.421 22.769 1.687 1.518-2.867 1.348-3.88-.339-5.06-1.349-.843-2.866-1.517-3.372-1.517-.675 0-1.517-1.519-2.023-3.543-1.687-6.24 13.828-20.575 30.863-28.671 8.77-4.048 30.022-12.65 39.636-15.854 4.722-1.687 11.132-4.05 14.337-5.398 3.204-1.518 8.432-3.712 11.468-4.892 2.867-1.35 7.926-3.54 10.962-4.722 2.868-1.349 9.613-4.384 14.673-6.576a3249 3249 0 0 0 37.949-17.374c13.661-6.24 58.526-14.505 61.899-11.132 2.867 2.867-3.711 25.13-11.975 39.13-11.47 19.901-31.707 49.924-45.2 67.464-6.747 8.77-19.397 25.3-28.168 36.6-16.697 21.757-25.804 38.286-31.201 56.333-7.084 24.118-9.107 37.273-9.107 58.862 0 20.408 1.348 28.503 7.42 46.38 1.011 2.7 2.53 7.253 3.204 10.12.843 2.7 4.216 12.65 7.59 21.927s6.747 18.891 7.421 21.252c.844 2.362 2.193 5.735 3.037 7.59 1.855 3.373 6.24 13.492 9.613 21.756 3.71 8.77 24.624 50.43 27.997 55.658 1.855 2.699 4.048 6.577 5.06 8.433 1.855 3.542 3.036 5.735 10.626 17.373 2.53 4.048 4.553 7.758 4.553 8.264 0 .675 1.013 2.362 2.362 3.711 1.18 1.518 4.385 6.408 6.915 11.13 2.53 4.554 7.758 13.663 11.637 19.904 26.142 43.345 75.391 111.821 99.34 138.638 19.228 21.589 44.865 43.177 60.719 51.273 4.216 2.192 4.893 2.193 7.085-.843 3.88-5.06 3.035-20.408-1.687-35.418a4686 4686 0 0 1-9.445-30.191c-2.867-9.277-6.24-19.395-7.59-22.431-2.698-6.24-3.204-13.83-.842-13.83.843 0 2.36 2.023 3.372 4.553 1.012 2.698 6.746 13.829 12.818 24.96 5.903 11.132 12.48 23.446 14.505 27.325 2.023 3.88 6.072 9.78 8.77 13.154 4.385 5.397 5.736 6.072 11.64 5.566 6.24-.506 6.914-1.012 9.612-8.096 1.687-4.216 4.047-10.287 5.396-13.492 1.687-4.385 2.362-14.842 2.362-41.153 0-26.142.506-35.42 2.024-35.925 1.18-.506 3.204 1.856 4.553 4.892 1.35 3.035 3.879 7.42 5.734 9.445 4.048 5.228 10.627 4.554 12.314-1.35.506-2.36 2.36-8.263 3.879-13.323 1.855-6.41 2.698-15.687 2.698-32.553v-23.444l7.253 1.013c6.915 1.012 7.422.842 9.952-4.556 1.518-3.036 4.046-11.637 5.564-19.058s3.879-18.046 5.06-23.612c1.855-7.758 1.857-17.034.845-40.478-3.88-77.584-6.073-103.896-11.133-137.122-1.35-8.601-2.362-22.094-2.362-29.852v-14.167l31.708-31.372c33.9-33.563 52.454-54.14 68.814-75.729 9.95-13.493 31.033-44.357 31.033-45.706 0-.506 3.205-5.903 6.916-12.143 3.879-6.41 11.976-21.42 18.047-33.396 10.12-20.239 12.142-24.792 16.865-36.26a862 862 0 0 0 5.23-12.482c2.024-4.554 3.54-9.445 3.54-10.963s1.181-4.218 2.53-5.904c1.35-1.856 2.53-4.892 2.53-6.916s.676-4.215 1.52-5.227c1.012-.844 2.36-4.554 3.372-8.265.843-3.71 2.361-9.108 3.205-11.807 1.686-4.89 3.879-12.65 9.445-32.888 1.349-5.06 3.037-13.156 3.543-17.71 1.349-10.288.167-11.636-16.025-19.394-10.794-5.229-14.505-6.917-27.829-12.82-3.71-1.518-8.77-3.879-11.3-5.228-2.362-1.18-5.904-2.191-7.59-2.191-1.687 0-3.878-.677-4.721-1.52-1.687-1.35-36.599-12.65-45.2-14.505-7.59-1.518-3.543-4.215 6.576-4.215 8.602 0 9.107-.17 9.107-4.217 0-5.229 2.532-5.398 5.23-.507 1.181 2.193 3.035 4.725 4.215 5.905 1.856 2.024 12.65 6.41 20.072 8.264 1.855.506 4.892 1.685 6.747 2.36 1.855.843 7.59 3.206 12.65 5.23 22.094 8.77 54.308 24.623 57.006 28.165 1.18 1.687 1.685 5.06 1.01 8.77-1.18 7.59-5.396 26.313-7.589 33.228-1.012 3.036-2.361 9.107-3.204 13.492-.675 4.554-3.036 12.311-5.06 17.371s-4.048 10.794-4.554 12.65c-.505 1.855-1.855 5.734-3.204 8.77-1.35 2.868-2.362 6.072-2.362 7.084s-1.18 4.554-2.698 8.096c-3.036 6.915-3.374 7.758-9.951 24.118-16.866 41.49-52.115 101.197-80.787 136.447-15.685 19.396-25.974 30.528-61.224 65.778-18.047 17.878-32.384 33.564-32.047 34.576 1.856 5.06 7.59 45.2 8.939 63.416 2.361 30.359 6.41 60.549 8.77 65.777 3.374 7.253 67.466 72.018 88.38 89.39 8.433 6.915 18.047 15.01 21.42 17.71 9.107 7.757 17.878 14.506 34.744 26.143 34.575 24.287 40.815 28.166 62.91 38.791 15.853 7.759 22.262 8.602 22.262 3.205 0-2.868-12.987-31.034-19.058-41.153-6.915-11.638-14.842-22.602-19.059-26.987-7.083-7.084-22.095-23.949-30.19-33.731-3.711-4.554-7.928-9.276-9.446-10.794-4.216-4.217-8.77-11.975-7.083-11.975 1.012 0 7.254 4.891 14.169 10.626 25.974 22.263 63.584 48.91 81.968 58.356 14.504 7.252 18.89 3.205 15.686-14.841-5.904-32.89-17.034-53.297-55.32-100.522-11.469-14-8.772-18.89 5.564-10.12 3.71 2.193 8.098 4.215 9.615 4.215 4.048 0 8.094-6.576 8.094-12.986 0-7.758-7.084-25.637-15.18-38.455-9.95-15.516-10.119-14.843 2.53-16.867 9.108-1.518 16.025-5.396 16.025-8.938 0-6.072-4.892-25.13-7.928-30.36-1.687-3.204-3.88-7.25-5.06-9.274-2.699-4.891-.337-8.265 7.422-10.458 5.397-1.518 6.578-2.53 6.915-6.747 1.18-10.289-7.084-36.598-12.65-40.14-3.204-2.024-2.699-3.373 2.698-10.288 2.699-3.373 5.399-9.277 6.073-12.988.675-4.048 3.879-9.952 7.758-15.011 3.542-4.554 6.577-8.94 6.577-9.446 0-.674 1.012-2.53 2.362-3.878 5.06-5.904 8.265-24.624 7.253-40.815-2.53-33.732-14.673-85.85-27.829-117.895-1.012-2.362-3.374-8.433-5.398-13.492-1.855-5.06-4.386-11.131-5.398-13.492s-2.867-6.579-4.047-9.278c-8.433-19.396-9.783-24.625-7.422-26.312 4.217-2.867 50.263-.335 60.888 3.375 8.265 2.699 10.118 4.384 20.07 17.54 18.383 24.455 33.395 45.708 59.875 85.512 37.78 56.67 43.513 63.079 53.97 62.067 7.253-.675 9.614-6.24 8.264-20.407-.674-6.578-.505-11.301.507-11.301.843 0 5.566 4.384 10.626 9.781 17.54 18.384 51.442 40.817 61.899 40.817 3.71 0 3.878-.507 2.866-7.254-2.024-15.179-9.108-47.224-12.65-57.681-1.012-2.867-2.53-7.421-3.204-10.12-1.518-5.397-4.722-13.662-8.432-21.926-1.181-2.868-4.049-9.275-6.241-14.335-10.794-24.287-17.879-37.275-33.395-60.55-20.408-30.696-71.007-92.594-95.463-116.544-12.48-12.312-52.62-45.707-63.077-52.453-18.047-11.806-27.155-17.71-29.516-18.89-1.35-.675-4.554-2.531-7.084-4.218-47.73-30.865-78.932-43.85-153.143-63.584-6.072-1.518-14.338-3.879-18.554-5.06-13.493-4.047-27.492-7.42-41.154-10.12-8.135-1.549-19.937-2.338-33.585-2.428m72.547 107.84c2.193 0 15.685 9.11 21.588 14.676 5.735 5.397 16.022 18.045 16.022 19.9 0 .506 1.18 2.193 2.53 3.711 1.35 1.35 2.026 3.206 1.52 4.218-.675 1.012-1.857.504-2.869-1.352-1.012-1.855-10.457-11.806-20.914-22.262-10.625-10.289-18.72-18.89-17.877-18.89m-65.442 5.06c1.856 0 10.626 3.71 11.976 5.06.505.506 4.216 3.037 8.264 5.905 8.264 5.565 22.601 19.562 21.252 20.743-.506.506-2.868-.168-5.566-1.517-7.084-3.542-32.553-23.106-35.251-26.816-1.35-1.855-1.687-3.375-.675-3.375m-359.076 70.838c3.204 0 1.685 7.59-3.543 17.709-5.566 10.626-12.48 17.036-34.406 31.372-29.347 19.227-51.443 53.97-51.443 80.45 0 6.41-.674 8.77-2.024 8.433-3.541-1.181-5.227-12.65-3.372-22.938 3.542-19.564 11.974-34.743 29.346-52.79 11.806-12.143 36.094-31.708 42.166-34.069 3.373-1.18 17.708-18.722 19.9-24.457.844-2.024 2.364-3.71 3.376-3.71m45.978 28.35c1.614-.051 1.35 4.14-1.285 11.624-2.53 7.084-2.192 11.467 1.181 25.803 2.53 10.626 4.89 12.65 17.877 15.854 13.156 3.373 24.795 7.253 30.53 9.952 3.71 1.855 11.975 12.818 11.975 15.854 0 .843-5.06 2.866-11.3 4.553-19.06 5.397-39.637 14.843-55.323 25.638-10.457 7.083-61.223 32.72-64.764 32.72-1.181 0-4.218 1.181-6.748 2.53-4.554 2.193-5.06 2.193-9.445-2.53-6.072-6.409-13.155-6.578-24.118-1.013-7.758 4.048-17.54 5.06-38.791 4.554-8.77-.169-8.096-3.54.674-3.54 6.915 0 25.806-4.388 34.07-7.76 3.036-1.35 6.746-2.36 8.432-2.36 8.77 0 37.105-26.144 47.562-43.854 3.542-6.071 8.941-13.322 12.146-16.19 6.746-6.409 21.418-14.674 31.37-17.54 7.589-2.362 8.769-5.23 4.552-10.795-5.397-7.252-2.36-25.299 6.58-38.623 2.213-3.29 3.856-4.847 4.825-4.877M208.803 234.3c1.517.11.954 2.844-2.505 7.488-3.542 4.723-3.542 5.059-.675 9.275 1.855 3.036 2.865 8.265 3.034 16.192.169 11.132.001 11.806-5.396 16.529-6.577 5.903-16.023 6.747-18.89 1.687-2.699-5.06-2.024-18.217 1.349-24.288 4.722-8.77 10.626-16.866 17.035-22.938 2.593-2.53 4.57-3.778 5.717-3.933q.18-.024.33-.012m-10.095 18.957c-2.867 0-4.724 1.685-7.254 6.745l-3.372 6.915 3.71 1.855c6.916 3.71 8.095 8.94 2.36 10.459-2.867.674-3.37 1.347-1.853 2.865 1.35 1.35 3.034 1.18 6.238-1.18 5.06-3.88 6.749-10.289 5.23-20.24-.843-6.409-1.686-7.42-5.06-7.42M135.29 320.72c2.361 0 3.88 5.397 1.855 7.421-2.361 2.362-5.902-1.348-4.553-4.721.674-1.518 1.854-2.7 2.698-2.7m5.423 18.43c.877-.105 1.492.693 1.492 2.654 0 3.204-5.565 14.166-7.083 14.334-1.856 0-1.687-2.36.674-10.12 1.265-4.005 3.454-6.691 4.917-6.868" style="stroke-width:1.26496"/>
</svg>
