<svg xmlns="http://www.w3.org/2000/svg" width="1225" height="960">
    <path d="M541.552-90V80.31L434.247 216.565h22.976v24.238l-65.14 108.652 86.853-94.597v-47.214l62.616-77.092v102.07a113.7 113.7 0 0 1-14.644 55.546l-41.575 41.575c0 20.425-.59 36.358-.59 36.358l-327.807 343.63v7.153l139.287-139.202V593l34.506-34.506v-14.139L492.99 382.093c130.995-131.039 109.494-127.356 109.494-127.356V-90zm80.879 0v305.959s-21.372 35.095 109.494 166.134l162.43 162.262v14.14L928.862 593v-15.317l139.286 139.202v-7.153l-327.807-343.63s-.59-15.933-.59-36.358l-41.575-24.339c-9.584-16.949-14.656-53.311-14.728-72.782v-102.07l62.616 77.092v47.214l86.938 94.597-65.225-108.652v-24.238h23.06L683.447 80.309V-90zm-60.343 435.062-293.891 329.07v7.658l255.597-258.795-1.262 93.335-46.036 40.818-9.006 48.56-347.585 375.78v5.134l442.183-452.45zm100.824 0v189.11l442.183 452.45v-5.134L757.51 605.708l-8.922-48.56-46.036-40.818-1.262-93.335L956.887 681.79v-7.658zM562.003 587.866l-84.329 97.122h25.585v62.786l-80.542 99.647h12.792v24.322l-74.061 93.25 86.854-88.2 3.871-29.372h-.168l57.566-54.958v109.33l-47.888 69.011 12.12 11.615-47.3 67.581 135.5-136.762zm100.994 0v325.372L798.412 1050l-47.299-67.581 12.204-11.615-47.972-69.012V792.463l57.482 54.958 3.871 29.372 86.939 88.2-74.146-93.25v-24.322h12.792l-80.542-99.647v-62.786h25.585zM383.16 603.773 263.652 741.208s-1.292 9.528 0 6.985c1.293-2.542 119.51-130.954 119.51-130.954zm458.678 0v13.466S960.055 745.65 961.348 748.193c1.292 2.543 0-6.985 0-6.985zM436.856 786.15l-40.23 54.957v5.05l40.23-46.625zm351.372 0v13.382l40.23 46.625v-5.05zM229.82 911.802 119.905 1030.05v5.05L229.82 923.922zm765.36 0v12.12l109.915 111.176v-5.05z" style="stroke-width:43.0905"/>
</svg>
