<svg xmlns="http://www.w3.org/2000/svg" width="3082" height="960">
    <path d="M539.835 60c-231.916 0-420 188.084-420 420s188.084 420 420 420c231.917 0 419.827-188.084 419.827-420-.267-231.827-188-419.733-419.827-420m1001.859 0c-231.916 0-420 188.084-420 420s188.084 420 420 420 419.826-188.084 419.826-420c-.266-231.827-187.999-419.733-419.826-420m1000.47 0c-231.916 0-419.826 188.084-419.826 420s187.91 420 419.827 420c231.916 0 420-188.084 420-420-.267-231.827-188.173-419.733-420-420M538.102 103.891h2.081c74.738 0 144.283 22.2 202.627 60.025v287.286H164.941c14.478-194.7 175.973-347.311 373.16-347.311m1002.726 0h.867c147.002.355 274.125 84.816 336.035 207.658l1.04 2.082-194.473 160.644-290.93-339.851c43.435-19.363 94.167-30.533 147.46-30.533m1001.511.347c207.579 0 375.935 168.357 375.935 375.935S2749.917 856.11 2542.339 856.11h-.693c-52.318 0-102.147-11.175-147.287-30.706l-136.183-591.4c69.281-79.674 171.003-129.765 284.163-129.765m-1206.567 61.24v629.045c-103.123-68.127-170.186-183.51-170.186-314.523s67.096-246.417 168.798-313.655zm43.89 20.817 270.806 316.084-270.805 223.792zm-592.787 10.582c72.302 62.887 119.87 152.386 127.509 253.11l.174 1.215H786.874zm1436.778 83.445h.173l119.356 518.538c-106.943-67.417-177.125-184.83-177.125-318.687 0-73.44 21.228-141.987 57.596-199.85m-327.014 75.638c13.323 36.95 20.991 79.455 20.991 123.867 0 207.667-168.267 376.108-375.935 376.108v.174h-1.04c-57.682 0-112.324-13.363-160.992-36.952v-36.084zM164.073 495.093h751.35c-8.526 201.006-173.338 360.75-375.588 361.016-202.25-.267-367.235-159.942-375.762-360.149z" style="stroke-width:88.823"/>
</svg>
