<svg xmlns="http://www.w3.org/2000/svg" width="1393" height="960">
    <path d="M1246.284 883.952c-47.132 45.302-50.335 49.42-35.692 49.42 11.44 0 32.031-16.473 42.098-33.861 10.982-18.762 6.864-28.371-6.406-15.559m4.118-80.993c-15.558 16.016-20.134 34.32-9.152 34.32 8.237 0 17.389-11.44 27.456-33.405 10.067-21.964 1.83-22.422-18.304-.915M1127.31 468.003c-1.372 4.118.916 13.27 4.576 21.05 4.119 7.32 7.322 17.388 7.322 21.506 0 4.576 2.745 18.304 6.406 31.116 18.304 64.063 22.422 97.467 22.88 169.766 0 63.605-1.373 76.875-9.61 100.67-16.93 47.59-25.625 64.52-48.047 94.263-15.558 20.592-16.015 26.998-1.83 26.998 12.355 0 60.402-48.504 73.672-74.13 22.88-45.3 26.998-63.604 26.54-125.38-.458-56.74-4.118-78.705-20.592-127.667-2.287-7.779-5.948-20.134-8.236-27.455-2.288-7.78-8.237-25.168-13.728-38.895s-10.982-29.744-12.355-35.692-5.49-11.898-8.694-13.27c-3.66-1.373-6.406-7.322-6.406-12.813 0-12.812-8.237-19.676-11.898-10.067m53.08-45.301c0 42.556 1.831 55.826 9.153 73.214 5.49 11.44 11.44 21.05 13.727 21.05 5.949 0 10.525-38.896 7.322-63.148-1.373-11.897-5.949-29.743-9.152-39.81-3.66-10.067-7.78-23.795-9.152-31.117-1.83-6.863-5.033-12.355-7.321-12.355-2.746 0-4.576 21.05-4.576 52.166m-424.185-50.793c61.317 63.605 112.11 126.753 131.328 161.53 5.491 10.067 13.27 24.252 17.846 32.03 12.813 21.05 38.438 82.825 48.047 113.94 4.576 15.101 10.982 33.405 14.643 40.269 3.66 7.321 6.406 17.388 6.406 22.88s1.83 12.812 4.119 16.472c8.236 12.813 10.067-11.44 2.745-38.895-3.66-14.643-6.864-30.658-6.864-35.692 0-26.082-38.437-125.38-65.435-169.766-12.813-20.591-47.132-65.435-64.52-83.739-21.507-23.337-68.181-60.402-75.503-60.402-2.745 0-5.033-2.287-5.033-4.575 0-2.746-4.118-4.576-9.152-4.576-8.236 0-8.236.457 1.373 10.524m245.726-48.047c0 4.576 3.203 12.355 6.864 17.389 3.66 4.576 6.864 12.812 6.864 17.846 0 5.49 2.288 11.897 5.033 14.643 2.746 2.745 6.406 11.897 8.694 20.134 1.83 8.694 6.406 22.879 9.61 31.573 2.745 8.695 7.779 23.337 10.982 32.032 14.185 41.183 21.506 67.723 19.676 75.96-2.288 12.812-10.524 10.524-11.897-4.119-.915-6.864-3.66-12.355-5.949-12.355s-6.864-6.864-10.524-15.1c-5.034-12.355-6.864-13.27-9.61-6.406-2.288 5.033-.457 10.982 4.118 16.473 4.119 4.576 7.322 13.27 7.322 19.219 0 6.406 1.83 13.27 4.118 16.015 2.746 2.288 6.407 12.355 9.152 22.422 2.288 10.067 6.406 24.252 8.694 32.031 15.1 44.844 21.05 85.112 21.05 148.717 0 57.199-1.373 70.469-10.525 96.094-10.067 28.37-27.913 70.927-37.523 88.315-2.745 5.033-3.66 9.61-2.287 10.982 3.203 3.203 56.74-51.708 62.69-64.063 2.745-5.49 8.694-17.388 13.27-26.082 22.879-42.098 29.285-76.418 29.285-153.293 0-72.757-4.118-101.585-23.337-169.308-17.388-61.775-21.05-74.13-26.998-88.315-3.66-8.237-6.406-19.219-6.406-24.252 0-5.034-8.694-18.761-19.676-30.659-30.201-32.946-48.963-58.571-48.963-66.808 0-4.118-3.203-7.321-6.863-7.321s-6.864 3.66-6.864 8.236m-118.974-28.37c0 11.44 61.317 85.569 76.875 92.89 5.492 2.746 10.067 4.576 10.067 3.661-.915-13.27-16.93-39.81-34.776-56.283-28.37-26.998-52.166-45.302-52.166-40.268M356.73 211.295c0 2.746 11.897 22.88 26.54 44.386 14.185 21.507 28.37 42.556 30.659 47.132 2.745 4.118 17.846 29.744 34.319 57.199 38.895 64.063 34.32 56.283 70.011 125.837 16.931 33.404 30.659 64.063 30.659 67.723 0 4.119 2.745 10.067 5.948 13.27 2.746 3.661 0 2.746-6.406-1.372-11.44-7.322-79.163-78.248-118.973-124.922-17.389-20.592-31.574-30.201-31.574-21.507 0 3.203 14.643 30.2 18.304 33.862 4.576 4.576 22.88 31.573 22.88 33.861 0 1.373 9.151 16.016 20.59 32.947 11.44 16.473 20.592 30.658 20.592 31.574s9.152 15.1 20.592 31.573c11.44 16.931 20.591 31.116 20.591 32.032 0 1.372 9.152 15.558 20.592 32.03 11.44 16.932 20.591 32.032 20.591 34.32s3.204 6.406 6.864 9.61c3.661 3.203 6.864 11.44 6.864 18.76 0 26.998-34.777 29.286-71.384 4.577-11.44-7.78-21.507-14.186-22.422-14.186s-15.1-9.152-31.574-20.591c-16.93-11.44-31.573-20.592-32.946-20.592s-10.525-6.406-20.134-13.728c-9.61-7.779-19.676-13.727-22.422-13.727-2.745 0-5.033-1.83-5.033-4.119 0-5.49-17.846-11.44-21.965-7.779-1.372 1.83 6.407 11.898 17.389 23.338 21.506 21.506 21.964 30.658.915 20.591-6.864-3.203-19.219-8.694-26.998-11.897-8.237-3.661-22.88-9.61-32.031-13.728-9.61-4.118-24.71-10.525-33.404-14.643-8.694-3.66-21.965-9.61-28.828-12.812-13.728-6.864-30.659-8.695-30.659-3.661 0 4.118 25.167 32.031 116.228 127.21 43.013 44.844 79.62 85.112 81.45 89.688 2.289 6.863-.914 8.236-24.709 10.982-15.558 1.372-67.266 2.745-115.313 2.745s-90.145 1.83-93.348 3.66c-7.779 5.034 3.203 14.644 35.692 30.202 59.487 29.286 79.163 42.098 68.181 45.301-11.44 3.203-126.752 28.37-155.123 33.862-9.61 1.83-10.067 2.746-3.66 6.406 4.575 2.288 168.85 3.66 409.542 3.203l401.764-1.372-1.373-25.168c-2.287-34.32-18.303-97.009-38.437-148.717-9.152-22.88-44.844-97.009-55.368-114.397-64.52-106.619-156.039-207.746-298.35-327.634-7.778-6.864-21.963-18.304-57.198-46.675-28.828-23.794-99.755-75.502-106.16-77.79-4.577-1.373-8.237-5.033-8.237-7.779 0-2.288-3.204-4.576-6.864-4.576s-6.864 2.288-6.864 5.491m302.01 340.447c74.129 76.875 120.803 149.632 157.868 244.353 4.118 11.44 10.067 25.625 12.355 32.031 4.118 10.525 17.388 57.2 17.388 61.775 0 8.237-18.303-3.66-64.062-42.098-28.829-23.795-53.538-44.844-54.911-46.674-5.491-6.407-22.88-14.186-22.88-9.61 0 2.288 2.288 4.576 4.576 4.576 2.746 0 4.576 3.203 4.576 6.864 0 4.118 5.034 15.558 11.44 25.625s13.728 22.88 16.473 28.37c2.288 5.492 8.237 16.016 12.813 23.795 15.1 23.337 13.27 25.168-28.829 25.168-28.37 0-39.81-1.83-43.928-6.864-3.203-3.66-7.322-6.864-9.61-6.864-1.83 0-13.27-6.406-24.71-14.185s-22.421-13.27-23.794-11.44c-1.373 1.373 2.745 9.61 9.152 17.846 6.406 8.694 10.524 16.93 9.151 18.761-3.66 3.66-227.422 3.66-237.031 0-10.982-4.576.457-10.982 18.761-10.982 7.78 0 23.337-3.203 33.862-6.864 10.524-3.66 25.167-6.864 32.031-6.864 14.643 0 27.455-4.118 27.455-8.694 0-1.373-11.44-20.134-25.167-41.64-13.728-21.05-24.252-38.896-23.337-40.268.915-.916 14.643 2.745 30.658 8.236 44.844 14.643 64.978 16.016 89.688 6.864 37.065-13.728 63.147-51.25 68.639-99.297 3.66-30.659-10.525-91.976-32.947-143.226-3.203-7.779-7.321-16.93-8.694-20.591s-4.576-10.067-6.406-13.728c-8.237-14.643-14.643-27.455-14.643-30.2 0-5.95 27.913 18.303 64.062 55.825m343.192-363.326c0 5.49 2.745 18.303 6.406 28.828 3.66 10.067 7.78 24.252 9.61 31.116 1.372 7.321 12.354 22.422 24.252 33.404 33.404 32.031 36.607 26.54 13.27-26.54-8.237-18.761-20.592-41.64-27.456-50.793-6.863-9.151-12.354-18.303-12.354-21.049s-3.204-5.033-6.864-5.033c-4.119 0-6.864 4.118-6.864 10.067m-192.188-79.163c0 2.745 8.694 17.388 19.676 33.404 10.983 16.015 27.456 41.183 36.608 56.283 16.015 25.625 72.299 75.503 75.502 66.808 1.373-3.66-7.322-23.337-20.592-48.504-8.236-15.1-101.127-112.11-107.533-112.11-1.83 0-3.661 1.83-3.661 4.119M673.839 57.087c-5.034 13.728 13.727 31.574 37.065 36.15 14.642 2.746 23.337 2.288 26.54-.915 3.66-3.661 2.745-5.949-3.66-8.237-4.577-1.83-14.644-7.779-22.423-13.728-25.167-18.303-34.32-21.506-37.522-13.27M785.49 2.634c-9.152 9.152 35.234 43.471 46.674 36.15 7.779-4.576-7.322-23.795-23.795-30.201-8.236-3.203-16.015-6.406-17.388-7.322-1.373-.915-3.66-.457-5.491 1.373m65.435-7.779c0 8.237 27.455 39.81 45.301 51.708 29.286 20.134 24.71 4.576-9.151-28.37-26.54-26.083-36.15-32.49-36.15-23.338M565.39-108.56c5.033 6.406 15.558 16.015 23.337 21.507 8.237 5.49 22.88 17.846 32.031 26.997 17.389 16.474 68.181 35.692 75.503 28.37 1.83-1.83-9.61-16.015-25.625-32.03-27.456-27.456-43.929-37.065-78.248-45.76-7.322-1.83-18.761-5.033-24.71-7.32L556.696-120z" style="stroke-width:.45759"/>
</svg>
