<svg xmlns="http://www.w3.org/2000/svg" width="1190" height="960">
    <path d="m591.45-120-18.754.973c0 8.486.17 582.264-.11 862.738-.027 22.482 1.946 44.1 10.294 65.051 2.42 6.177 8.57 18.31 8.57 18.31zm7.125 0v947.071s6.15-12.132 8.57-18.309c8.348-20.952 10.32-42.569 10.293-65.051-.306-280.474-.054-854.252-.054-862.738zm-478.256 17.836v23.901c18.533 22.267 74.704 89.015 85.127 101.04-1.255-19.094-2.261-26.53-15.146-42.053-20.646-24.848-66.169-78.464-69.98-82.888m85.127 124.94c.016.244.033.442.049.69l.804-.087-.5-.19zm864.26-124.94c-3.812 4.424-49.335 58.04-69.98 82.888C986.841-3.754 985.7 3.683 984.575 22.776c10.419-12.02 66.543-78.77 85.132-101.147zm-85.132 124.94c-.062.071-.29.346-.348.413l-.016.005-.093-.092-.473.223.19.016-.108.038.804.087c.015-.248.03-.446.044-.69M119.319-50.438c-.39 16.472 6.816 29.075 16.304 40.678l114.473 139.38 2.005 12.21 116.805 142.076-50.085 81.306c-13.077-15.721-25.679-30.613-37.476-44.775-11.798-14.163-24.626-27.765-28.494-46.797a3.42 3.42 0 0 0-2.782-2.478c-1.224-.028-1.864 1.224-2.114 1.864a13.3 13.3 0 0 0-.641 4.065 74.15 74.15 0 0 0 16.194 49.052c5.148 6.539 35.78 43.295 45.547 55.177-24.82 40.43-49.193 79.662-73.067 119.2-9.405 15.555-21.756 26.047-40.232 28.44a14.44 14.44 0 0 0-13.75 13.38h42.27c26.295 0 46.132-10.38 59.683-33.39 15.47-26.295 52.783-85.448 56.122-90.29l24.097 28.548-33.39 58.046 48.248 43.542c7.707-12.633 14.747-24.121 21.787-35.613 1.864 67.615 1.866 205.594 1.087 207.681-8.32 22.01-19.033 42.156-41.46 53.286-15.75 7.958-30.97 16.695-46.357 25.042a104.84 104.84 0 0 0-44.884 45.857 196 196 0 0 0-16.33 41.737 52.23 52.23 0 0 0 25.656-24.651 85.48 85.48 0 0 1 43.574-38.955c22.956-9.655 75.68-31.054 80.41-32.64 0 5.871.195 84.395.195 119.12a165.9 165.9 0 0 0 8.935 53.03c17.474 52.088 51.086 90.295 100.169 114.864 4.396 2.199 7.871 2.365 14.967 2.365a131 131 0 0 1-11.766-9.99c-37.146-30.412-57.49-69.256-59.41-117.31-.835-20.34-1.142-40.705-1.142-61.045v-304.02c0-4.451.394-8.902.756-16.498 22.788 27.185 43.684 52.231 64.72 77.273 4.34 5.426 11.13 3.059 11.13-2.923-.195-5.287-3.813-127.19-6.011-184.508a54.12 54.12 0 0 0-13.217-34.194c-12.299-14.275-23.873-29.189-35.754-43.825 20.507-35.198 40.26-69.649 60.628-103.734a94.13 94.13 0 0 0 13.33-50.085c-.166-44.436 0-88.757 0-133.276V79.866L528.872 93c.112 54.815-12.047 93.488-35.03 131.608-18.588 30.858-58.739 100.339-61.688 104.958l-21.619-26.325c9.99-16.723 19.477-32.609 30.412-50.862-22.788 2.56-44.1-5.286-61.573 13.162zm951.36 0-260.217 315.98c-17.474-18.448-38.79-10.602-61.579-13.162 10.935 18.253 20.423 34.167 30.412 50.862l-21.619 26.325c-2.95-4.62-43.1-74.1-61.687-104.958-23.011-38.12-35.031-76.793-35.031-131.608l-21.173-13.135V95.81c0 44.436.25 88.762 0 133.282a94.13 94.13 0 0 0 13.325 50.085c20.34 34.168 40.099 68.53 60.634 103.729-11.882 14.635-23.461 29.55-35.76 43.824a53.95 53.95 0 0 0-13.216 34.194c-2.199 57.319-5.816 179.221-6.011 184.508 0 5.982 6.817 8.488 11.13 2.923 21.035-25.097 41.937-50.033 64.725-77.273.362 7.596.75 12.053.75 16.505q.166 152.006 0 304.013c0 20.34-.28 40.706-1.114 61.046-1.864 48.054-22.26 86.896-59.35 117.364a131 131 0 0 1-11.772 9.989c7.096-.028 10.576-.166 14.972-2.364 49.111-24.57 82.724-62.77 100.17-114.859a165.1 165.1 0 0 0 8.902-53.036c0-34.725.222-113.248.222-119.12 4.73 1.587 57.46 22.985 80.415 32.64a85.48 85.48 0 0 1 43.547 39.01 52.23 52.23 0 0 0 25.847 24.624 196 196 0 0 0-16.331-41.738 105 105 0 0 0-44.911-45.85c-15.387-8.543-30.663-17.197-46.357-25.043-22.426-11.241-33.112-31.276-41.46-53.286-.779-2.087-.777-140.072 1.087-207.686 7.04 11.492 14.08 22.985 21.787 35.618l48.248-43.688a11749 11749 0 0 1-33.39-58.041c7.986-9.488 15.75-18.559 24.097-28.548 3.256 4.842 40.652 64.023 56.123 90.29 13.55 23.122 33.504 33.556 59.687 33.39h42.264a14.47 14.47 0 0 0-13.744-13.38c-18.475-2.393-30.832-12.885-40.237-28.44-23.93-39.622-48.274-78.853-72.899-119.282 9.767-11.881 40.4-48.638 45.547-55.177a74.15 74.15 0 0 0 16.114-48.943 14.3 14.3 0 0 0-.642-4.065c-.25-.64-.89-1.864-2.114-1.864a3.42 3.42 0 0 0-2.782 2.478c-3.896 18.976-16.334 32.3-28.494 46.797s-24.293 29.054-37.482 44.775l-50.084-81.306L937.924 141.83l2.005-12.212L1054.402-9.673c9.488-11.603 16.694-24.07 16.276-40.765M399.155 321.246c8.069 9.683 15.19 18.254 22.59 27.102-16.082 27.714-31.552 54.4-48.024 82.725l-24.151-29.135c16.194-26.378 32.36-52.644 49.585-80.692m391.83.142c17.223 27.824 33.307 54.175 49.584 80.692l-24.183 29.129-47.998-82.725zM452.022 424.502c15.303 13.468 24.598 29.08 26.156 48.558 1.53 18.837 1.89 37.73 2.641 56.623.223 5.425.837 13.605-6.342 15.803-2.615.807-6.176-1.363-8.152-3.7-16.444-19.283-32.53-38.76-48.78-58.237 11.575-19.784 22.651-38.818 34.477-59.047m285.981 0c11.826 20.23 22.903 39.263 34.45 59.047-16.222 19.505-32.303 39.037-48.748 58.236-2.003 2.338-5.57 4.508-8.157 3.701-7.179-2.198-6.565-10.378-6.342-15.803.751-18.894 1.111-37.785 2.614-56.623 1.586-19.422 10.88-35.09 26.183-48.558m-413.307 91.714c-3.06 4.98-38.82 65.221-53.65 91.822a67.53 67.53 0 0 1-48.498 35.504l-16.83 3.14-9.13 15.364c30.412 0 58.571.25 86.702 0 20.173-.195 35.367-9.659 45.607-26.743 14.691-24.542 28.967-49.333 44.215-75.404zm540.633 0-48.41 43.683c15.247 26.071 29.518 50.862 44.21 75.404 10.21 17.084 25.433 26.548 45.579 26.743 28.158.25 56.317 0 86.73 0l-9.13-15.363-16.831-3.141a67.53 67.53 0 0 1-48.498-35.504c-14.83-26.6-50.59-86.842-53.65-91.822" style="stroke-width:2.78248"/>
</svg>
