<svg xmlns="http://www.w3.org/2000/svg" width="1227" height="960">
    <path d="M606.948-25.96c-1.403 2.34-17.782 13.103-36.033 24.335-18.25 11.23-38.374 24.334-45.393 28.546s-17.315 10.763-22.93 14.039c-54.285 31.822-78.62 50.073-88.915 65.515l-12.167 17.783-73.003.468c-79.087.468-113.248 5.148-75.343 10.296 11.7 1.403 46.33 4.211 77.215 5.615 30.418 1.404 57.56 4.212 59.9 6.552 4.212 4.211-11.7 37.437-21.059 43.52-3.275 1.873-37.437 3.745-76.278 4.213-38.374 0-75.343 1.871-81.895 3.743-11.231 3.276-11.231 3.276 4.212 6.552 8.423 1.872 43.52 3.276 78.15 3.276 34.162 0 63.176 1.871 64.58 4.211 3.276 5.148-8.891 34.63-16.847 41.182-3.276 2.807-30.418 6.551-59.9 7.955-29.482 1.872-68.323 4.68-86.574 6.084L161.91 271.2l28.078 3.276c15.443 1.872 51.477 3.276 80.491 3.744 28.546.468 53.348 2.34 55.22 5.147 5.148 8.424-10.763 36.97-21.994 39.31-6.084 1.404-44.457 4.68-85.17 7.487-41.182 2.808-77.683 7.02-81.427 8.892-4.212 2.34 27.61 5.615 75.81 7.487 89.85 3.744 92.19 4.68 74.408 30.418-11.7 17.315-14.975 18.719-53.817 18.719-53.816 0-54.284 12.635 0 14.507 32.29 1.404 36.97 7.488 23.867 31.822-8.892 17.783-11.231 19.187-29.482 19.187-10.295 0-33.694 1.403-51.945 3.275-40.245 3.744-26.674 9.36 24.803 10.296 25.27.468 33.693 1.872 33.693 7.02 0 9.827-14.507 42.116-20.59 45.86-2.808 1.872-18.719 3.744-35.566 4.212s-36.501 1.872-44.457 3.744l-14.039 3.275 18.719 3.276c10.295 1.872 28.546 3.276 40.713 3.276s22.93 1.404 24.335 3.744c.935 1.872-3.276 14.507-10.296 28.078-10.763 22.462-13.103 24.334-28.546 24.802-9.36.468-21.994 1.872-28.546 4.212-10.295 2.808-8.423 3.744 11.7 7.02 19.186 2.807 28.545 7.487 48.2 25.27 13.571 11.699 24.334 24.334 24.334 27.142 0 4.212-9.359 6.083-29.014 6.551-16.379.468-35.565 2.34-43.52 4.212-12.636 3.276-11.7 3.744 7.955 4.212 11.699 0 24.802 1.872 29.014 3.276 9.827 3.743 9.36 14.039-.936 17.782-21.059 7.956-47.733 28.546-47.733 37.906 0 5.615 29.014 16.379 44.457 16.379 4.212 0 13.571 2.808 20.123 6.083 7.02 3.744 20.122 9.828 29.014 13.571 105.293 44.457 228.836 106.697 285.46 143.667 14.04 9.36 29.015 18.25 32.758 20.122 3.744 1.404 20.123 13.571 36.502 26.675C600.396 979.237 615.84 990 618.648 990s19.654-12.635 36.97-27.61c60.835-52.413 165.66-114.652 264.401-157.238 7.956-3.275 21.527-9.359 30.418-13.103 15.911-7.02 39.778-16.379 74.875-29.014 8.892-3.276 28.546-8.423 43.053-11.699 14.975-2.808 28.078-7.487 29.95-9.827 5.148-8.424-20.122-30.418-45.86-39.778-10.296-3.743-10.764-14.039-.936-17.782 4.211-1.404 17.314-3.276 29.014-3.276 19.654-.468 20.59-.936 7.955-4.212-7.487-1.872-27.142-3.744-43.053-4.212-20.123-.468-29.482-2.34-29.482-6.551 0-2.808 10.763-15.443 24.334-27.142 19.655-17.783 29.014-22.463 48.201-25.27 20.123-3.276 21.995-4.212 11.7-7.02-6.552-2.34-19.187-3.744-28.547-4.212-15.443-.468-17.783-2.34-28.546-24.802-7.02-13.571-11.231-26.206-10.295-28.078 1.404-2.34 12.167-4.212 24.334-4.212 12.167-.468 28.546-1.872 36.034-3.744l14.039-3.276-18.719-3.275c-10.295-1.872-28.078-3.276-39.777-3.276-26.206 0-29.95-2.34-39.31-25.27-12.167-29.95-11.23-30.886 26.675-31.354 51.008-.936 64.58-6.552 24.334-10.296-17.783-1.872-41.65-3.275-51.945-3.275-17.782 0-20.59-1.404-29.014-17.783-12.635-24.803-7.487-31.822 23.399-33.226 54.284-1.872 53.816-14.507 0-14.507-38.842 0-42.117-1.404-53.817-18.719-17.782-25.738-15.442-26.674 74.407-30.418 51.477-2.34 80.023-5.147 75.343-7.487-3.743-2.34-40.713-6.552-81.426-9.36-40.713-2.34-78.619-5.615-84.702-7.02-11.232-2.339-27.143-30.885-21.995-39.309 1.872-2.807 26.674-4.68 55.22-5.147 29.014-.468 65.048-1.872 80.49-3.744l28.079-3.276-32.758-3.275c-17.783-1.404-57.092-4.212-86.574-6.084-29.482-1.404-56.624-5.148-59.9-7.956-7.955-6.551-20.123-36.033-16.847-41.18 1.404-2.34 32.29-4.212 68.792-4.68 36.501-.468 71.599-1.872 78.15-3.744 11.232-3.276 11.232-3.276-4.211-6.552-8.424-1.872-45.393-3.276-81.895-3.276-36.034 0-68.791-1.871-72.067-4.211-7.956-4.68-19.655-27.142-19.655-37.906 0-6.551 5.616-8.423 31.822-10.763 17.315-1.872 47.265-3.276 66.452-3.744s40.245-1.872 46.796-3.743c11.232-3.276 11.232-3.276-4.211-6.552-8.424-1.872-46.797-3.276-84.703-3.276h-68.79l-12.636-18.719c-7.02-10.763-17.783-21.526-23.866-24.334-6.552-2.808-11.7-6.551-11.7-8.423s-3.743-4.68-7.955-6.552c-4.68-1.404-14.507-7.02-22.463-12.167-7.487-5.148-18.25-11.231-23.398-14.04-5.148-2.807-15.443-8.89-23.398-14.038-7.488-5.148-18.72-11.231-24.335-14.04-6.083-2.34-10.763-6.55-10.763-9.359 0-2.34-4.212-4.68-9.36-4.68s-9.359-1.871-9.359-4.679c0-2.34-5.148-5.616-11.231-7.487-6.552-1.404-12.635-5.616-14.04-9.36-2.807-7.02-19.654-8.891-23.398-2.34m27.143 16.847c1.403 3.744 5.615 7.02 9.827 7.02 3.744 0 7.02 2.34 7.02 4.68 0 2.807 4.68 7.019 10.763 9.359 12.635 5.615 24.334 12.635 45.393 28.546 8.891 6.551 19.654 13.571 23.398 14.975 3.744 1.872 13.571 7.487 21.059 12.635 7.955 5.148 17.315 10.763 21.058 12.635 3.744 1.404 11.7 7.488 17.315 13.103l10.295 10.296-13.57 9.827c-20.123 14.975-69.728 14.039-95.934-1.404-10.296-6.084-29.014-16.847-42.117-23.866-12.636-6.552-24.803-14.975-26.675-17.783-4.68-6.552-4.68-79.555-.468-83.767 4.68-5.147 9.36-3.743 12.636 3.744m-11.232 131.031c0 9.36 34.162 30.418 49.137 30.418 6.552 0 24.802 8.424 40.245 18.251l28.546 18.719-16.846 2.808c-17.315 3.275-22.463 13.103-9.36 18.25 4.212 1.404 17.315 2.808 29.482 2.808 19.187 0 23.399 1.872 32.758 14.04 16.379 21.994 11.7 29.95-17.315 31.821-20.59 1.404-24.334 2.808-24.334 10.763 0 7.956 3.276 8.892 29.482 8.892 25.27 0 31.354 1.872 40.245 11.231 6.552 7.02 9.828 15.443 8.892 22.463-.936 8.891-4.212 10.763-17.783 10.763-17.783 0-21.059 4.68-12.167 17.315 3.743 5.147 13.57 8.423 28.546 9.36 21.526 1.403 23.866 2.807 30.886 17.782 4.68 8.891 7.02 17.783 5.615 19.655-.936 2.34-17.315 3.743-36.501 3.743s-35.566 1.872-37.438 4.212c-5.615 9.827 18.719 19.187 49.137 19.187 17.783 0 34.162 2.34 37.905 5.615 11.232 9.36 23.399 31.822 20.59 36.502-1.403 2.808-22.93 4.68-47.264 4.68-34.162 0-43.989 1.403-43.989 6.551 0 8.892 14.975 12.167 61.772 12.167h40.245l9.827 16.847c18.251 30.418 14.975 32.29-51.008 32.29-48.669 0-58.496.936-58.496 7.02 0 5.615 10.763 7.02 64.112 8.423l64.111 1.404L931.72 559c5.147 7.488 9.359 19.187 9.359 26.206 0 12.167-.936 12.167-18.719 9.36-21.058-3.744-22.93 0-9.36 17.314 7.02 9.36 7.488 13.104 3.277 17.315-4.212 4.68-3.276 7.488 5.147 13.103 5.616 4.212 10.296 8.892 10.296 11.232s-43.053 4.211-95.934 4.211c-82.362 0-96.401.936-99.21 7.02-1.403 4.212-.935 8.891.937 10.763 1.404 1.872 47.733 3.744 102.017 4.68 112.78 1.404 124.012 2.808 115.588 12.635-3.276 3.744-9.827 7.02-14.507 7.02s-15.443 2.807-23.866 6.551c-41.65 17.315-57.092 19.655-102.017 16.379-109.505-8.423-168.47-3.744-168.47 13.103 0 4.68 15.912 6.084 78.62 6.084 43.053 0 80.958 1.872 84.702 4.211 4.212 2.808-2.34 7.956-23.399 18.251-47.264 22.93-64.111 33.694-115.588 72.067-26.674 20.123-51.008 36.502-54.284 36.502-3.744 0-8.892-3.276-12.167-7.02-14.04-16.847-79.555-56.624-158.174-95.933-21.058-10.763-37.437-21.059-36.033-23.867 1.872-2.34 40.245-4.211 88.914-4.211 50.54 0 87.042-1.872 88.914-4.68 1.404-2.34-5.148-7.487-14.507-11.7-19.655-8.423-69.728-8.89-155.834-2.339-57.56 4.68-57.56 4.68-91.254-8.891-18.25-7.488-37.905-14.975-43.989-16.847s-9.827-5.616-8.891-8.424c.936-4.211 32.758-6.083 107.633-7.955 58.028-1.404 107.164-3.744 109.036-5.616s.468-6.551-2.807-10.763c-4.68-5.616-21.995-7.02-92.658-7.956-83.299-1.403-87.51-1.871-88.914-10.763-.936-5.147-6.084-13.103-11.7-17.315-10.763-8.423-8.423-10.763 13.104-14.039 13.57-2.34 14.975-16.847 1.404-18.718-14.507-1.872-16.38-21.527-3.744-37.906 9.827-12.167 10.763-12.167 71.599-13.571 51.009-1.404 61.772-2.808 61.772-8.423s-10.295-7.02-57.092-8.424c-64.112-1.404-65.048-1.872-47.733-30.886l9.827-16.847h40.246c46.796 0 61.771-3.275 61.771-12.167 0-5.147-9.827-6.551-43.989-6.551-24.334 0-45.86-1.872-47.264-4.68-2.808-4.68 9.359-27.142 20.59-36.502 3.744-3.275 20.123-5.615 37.906-5.615 30.418 0 54.752-9.36 49.136-19.187-1.872-2.34-18.25-4.212-37.437-4.212s-35.566-1.404-36.502-3.743c-1.404-1.872.936-10.764 5.616-19.655 7.02-14.975 9.36-16.379 30.418-17.783 16.847-.936 25.27-4.212 30.886-11.7 11.23-13.57 7.955-16.846-14.04-14.038-17.782 2.34-18.718 2.34-18.718-10.763 0-7.02 4.68-17.783 10.295-23.867 8.424-8.891 14.975-10.763 39.778-10.763 26.206 0 29.482-.936 29.482-8.891 0-7.956-3.744-9.36-24.335-10.764-29.014-1.872-33.693-9.827-17.315-31.822 9.36-12.635 13.571-14.039 34.63-14.039 21.995 0 35.098-5.615 35.098-14.975 0-1.872-4.68-3.743-10.296-3.743-20.122 0-23.398-7.02-8.423-17.783 7.487-5.616 15.443-10.296 17.783-10.296s7.02-2.807 9.827-6.551c2.808-3.276 13.571-7.488 23.399-8.892 22.462-2.807 42.585-15.91 42.585-27.142 0-5.615 3.275-8.891 9.359-8.891 5.148 0 9.36 3.276 9.36 7.02m210.118 44.925c5.616 10.296 8.892 21.059 7.488 23.399-6.084 9.36-20.59 3.744-29.95-11.7-13.103-21.058-12.635-30.885 1.404-30.885 8.423 0 13.57 4.68 21.058 19.186m25.739 57.56c18.718 25.27 14.039 45.861-6.552 29.483-9.827-7.488-20.59-34.162-16.379-40.246 4.68-8.423 9.827-6.083 22.93 10.764m31.353 64.58c8.424 10.764 12.168 36.502 5.148 36.502-5.616 0-22.462-19.187-26.206-29.482-6.552-18.72 7.487-22.93 21.058-7.02m32.29 69.26c1.872 3.743 5.616 11.699 8.424 16.846C935.93 385.853 934.058 391 924.23 391c-5.616 0-25.27-29.482-25.27-37.905 0-7.488 19.654-2.808 23.398 5.148m32.758 68.79c0 4.213 3.276 11.232 7.488 15.912 7.02 7.487 5.615 18.25-1.872 18.25-4.68 0-24.335-29.95-24.335-36.5 0-3.277 4.212-5.617 9.36-5.617 5.615 0 9.359 3.276 9.359 7.956" style="stroke-width:.467969"/>
</svg>
