<svg xmlns="http://www.w3.org/2000/svg" width="1450" height="960">
    <path d="M815.8 986.808c-16.493 3.472 16.492 7.812 88.539 11.284 130.204 6.076 205.722-3.472 102.427-13.02-72.914-6.945-155.377-6.077-190.966 1.736m-390.613 0c-37.326 4.34-39.93 6.076-19.097 10.416 34.721 7.812 258.673-2.604 231.764-10.416-26.041-6.945-151.037-6.945-212.667 0m698.763-25.173c0 4.34 18.228 8.68 41.665 7.812 30.381 0 36.458-2.604 23.437-7.812-24.305-10.417-65.102-10.417-65.102 0m-863.689 0c-13.02 5.208-6.944 7.812 24.305 7.812 22.569.868 40.797-3.472 40.797-7.812 0-10.417-40.797-10.417-65.102 0M130.925 602.27c-9.549 25.173-15.625 215.27-7.812 249.992 4.34 19.097 13.02 36.457 19.964 39.93 56.422 26.908 79.859 33.853 124.128 38.193 27.777 1.736 56.422 8.68 64.234 14.756 10.417 8.68 96.352 11.285 383.67 11.285 322.906 0 374.988-2.605 411.445-14.757 22.569-7.812 56.422-14.756 75.519-14.756 18.228 0 46.005-6.945 62.498-14.757 15.624-7.812 34.72-16.492 41.665-19.965 20.833-9.548 27.777-66.838 22.569-176.21-5.208-99.823-15.625-148.432-26.041-118.92-2.604 6.945-8.68 36.458-14.757 65.103-19.096 100.691-22.568 113.712-38.193 137.148-10.416 16.493-19.964 22.569-29.513 18.229-7.812-2.604-25.173-9.548-39.93-13.889-13.888-5.208-28.644-12.152-32.984-14.756-3.472-3.472 5.208-28.645 19.964-56.422 13.889-27.777 23.437-54.686 20.833-59.026-6.076-9.548-125.864 116.316-121.524 128.468 4.34 11.285 46.006 20.833 90.275 20.833 28.645 0 52.95 17.36 53.818 39.061.868 26.041-263.013 56.422-488.7 56.422-226.556 0-484.36-30.38-483.493-56.422.868-21.7 25.173-39.06 53.818-39.06 44.27 0 85.935-9.55 90.275-20.834 4.34-12.152-115.448-138.016-121.524-128.468-2.604 4.34 6.944 30.381 20.833 58.158 14.756 27.777 23.437 52.95 20.833 55.554-1.737 2.604-22.57 11.284-45.138 19.965-40.797 15.624-40.797 15.624-56.422-4.34-7.812-10.417-17.36-28.646-19.096-40.798-2.605-12.152-8.68-35.59-13.02-52.082-4.341-16.492-10.417-48.61-13.021-72.046-6.945-44.27-16.493-58.158-25.173-35.59m765.601-46.874c-13.02 26.91-32.985 98.087-32.985 119.788 0 13.02 37.325-32.117 55.554-66.838 16.493-32.985 18.229-80.727 2.604-80.727-6.076 0-17.36 13.02-25.173 27.777M678.651 465.99l-32.117 33.853v83.331c0 45.138 3.472 84.199 7.812 87.671 5.208 2.604 11.285 22.569 14.757 43.401 7.812 53.818-3.472 65.103-65.97 65.103-43.402 0-54.686-3.473-87.671-29.513-36.458-29.513-54.686-34.722-34.722-11.285 14.757 18.229 1.736 40.798-24.304 41.666-16.493.868-12.153 3.472 14.756 9.548 20.833 4.34 39.93 13.888 42.534 20.833s9.548 12.152 16.492 12.152 12.152 3.472 12.152 8.68c0 4.34 4.34 8.68 9.549 8.68s7.812-7.812 5.208-17.36c-6.076-24.305 19.965-36.457 70.31-32.985 36.458 2.604 40.798 5.208 43.402 24.305 6.076 59.026 7.812 60.762 53.818 60.762s47.741-1.736 53.817-60.762c2.604-19.097 6.945-21.701 45.138-24.305 32.985-2.604 46.005.868 60.762 14.756 18.228 17.361 18.228 17.361 56.422 0 20.832-8.68 42.533-16.492 49.477-16.492s4.34-7.812-8.68-21.7c-24.305-26.042-34.721-26.91-63.366-4.34-16.493 13.02-35.59 17.36-71.178 17.36-66.839 0-73.783-6.077-66.839-57.29 2.604-23.437 9.549-46.006 13.889-50.346 5.208-5.208 8.68-45.137 8.68-90.275v-81.595l-32.117-33.853c-17.36-18.228-38.193-33.853-46.005-33.853s-28.645 15.625-46.006 33.853m-214.403 2.604c0 26.91 7.812 48.61 26.04 76.387 13.89 21.7 26.042 44.27 26.042 50.345 0 6.077 6.076 13.02 13.02 15.625 6.944 3.472 13.02 10.416 13.02 16.493 0 6.944 4.34 14.756 9.549 17.36 16.492 11.285 19.096-4.34 6.076-32.117-13.02-26.909-24.305-52.082-54.686-121.524-6.076-15.624-13.888-35.59-16.492-44.27-8.68-27.776-22.57-14.756-22.57 21.701M1136.97 342.73c-38.193 51.214-78.122 110.24-89.407 131.94-10.416 21.701-22.569 46.006-26.909 52.95-27.776 50.346-36.457 71.179-31.249 76.387 3.473 3.472 13.889-5.208 24.305-19.965 10.417-13.888 25.173-32.117 32.985-39.93 27.777-27.776 85.067-108.503 93.747-131.94l9.549-24.304 26.909 18.228c13.888 10.417 31.249 26.91 36.457 35.59 11.284 18.228 32.117 22.568 32.117 6.944 0-9.549-32.117-59.894-44.27-68.575-16.492-13.02-16.492-46.005 0-78.99 19.097-36.458 22.57-51.214 11.285-51.214-3.472 0-37.325 41.665-75.519 92.88m-907.09-84.199c0 4.34 7.812 23.437 18.229 42.534 16.492 32.985 16.492 65.97 0 78.99-12.153 8.68-44.27 59.026-44.27 68.575 0 15.624 20.833 11.284 32.117-6.945 5.208-8.68 22.569-25.172 36.457-35.589l26.91-18.228 9.548 24.304c8.68 23.437 65.97 104.164 93.747 131.94 7.812 7.813 22.569 26.042 32.985 39.93 35.59 50.346 28.645 14.757-13.889-68.574-23.436-46.006-73.782-124.996-111.107-174.474-62.498-85.067-80.727-103.295-80.727-82.463m763.865-26.04c0 5.208 9.549 13.02 21.701 17.36s21.701 12.152 21.701 17.36c0 11.285 32.117 11.285 39.061 0 2.604-5.208-4.34-12.152-15.624-16.492-12.153-5.208-24.305-13.02-27.777-17.36-6.944-12.153-39.062-12.153-39.062-.869m-577.239.867c-3.472 4.34-15.624 12.153-27.777 17.361-11.284 4.34-18.228 11.284-15.624 16.493 6.944 11.284 39.061 11.284 39.061 0 0-5.209 9.548-13.02 21.7-17.361 12.153-4.34 21.702-12.152 21.702-17.36 0-11.285-32.117-11.285-39.062.867M702.088-56.563c-7.812 13.02-14.757 29.513-13.889 37.325 0 6.944-4.34 22.569-9.548 32.985-7.812 16.493-6.944 26.041 5.208 46.874 19.965 34.72 19.097 111.107-.868 148.433-7.812 14.756-31.249 52.081-51.214 81.594-19.964 30.381-32.985 56.422-28.644 59.026 4.34 2.604 11.284-2.604 16.492-10.416 6.076-11.284 11.284-13.02 18.229-6.076s5.208 17.36-6.077 37.325c-14.756 26.04-14.756 27.777 0 36.457 7.813 4.34 14.757 14.757 14.757 20.833 0 18.229 6.944 16.492 36.457-8.68 13.889-12.153 32.985-21.701 41.666-21.701s27.776 9.548 41.665 21.7c29.513 25.173 36.457 26.91 36.457 8.68 0-6.075 6.944-16.492 15.625-20.832 13.888-8.68 13.888-10.416-.868-36.457-11.285-19.965-13.02-30.381-6.077-37.325 6.945-6.944 12.153-5.208 18.23 6.076 5.207 7.812 12.151 13.02 16.492 10.416 4.34-2.604-8.68-28.645-28.645-59.026-19.965-29.513-43.402-68.574-51.214-87.67-19.097-40.798-19.965-108.504-2.604-131.941 14.756-19.097 17.36-52.082 4.34-59.894-4.34-2.604-7.812-13.888-6.944-24.305C762.85-32.258 736.809-80 724.657-80c-3.473 0-13.889 10.416-22.57 23.437" style="stroke-width:.868029"/>
</svg>
