<svg xmlns="http://www.w3.org/2000/svg" width="1114" height="960">
    <path d="M909.27 557.977c-8.748 3.873-13.481 6.598-19.362 11.044-6.597 4.876-16.494 16.78-16.494 19.793 0 1.147-.717 2.725-1.434 3.442-2.438 2.438-5.737 17.354-5.737 25.673 0 31.84 22.518 57.944 53.785 62.534 15.06 2.151 26.677.143 42.167-7.171 6.454-3.012 21.657-18.216 24.67-24.67 6.74-14.342 7.027-15.777 7.027-30.693 0-14.2-1.147-19.936-5.88-27.968-.718-1.147-1.865-3.442-2.582-5.163-1.721-3.73-18.645-20.654-20.797-20.654-1.004 0-2.438-.717-3.299-1.577-1.004-1.004-5.163-2.869-9.322-4.303-9.753-3.586-35.14-3.73-42.741-.287m-745.814-64.542c-3.586 1.291-7.458 2.726-8.606 3.443s-3.442 1.864-5.163 2.581c-6.741 3.012-20.366 17.498-24.813 26.39-4.302 8.75-4.446 9.467-4.446 28.542 0 22.231.86 24.957 11.044 38.582 6.167 8.319 16.207 15.777 27.681 20.797 8.893 3.872 40.446 4.016 45.896.143 1.865-1.29 4.447-2.438 5.45-2.438 3.3 0 18.503-12.622 23.666-19.65 9.18-12.764 11.33-19.505 11.474-36.43.143-14.772-1.29-21.513-6.31-29.976-.718-1.147-1.865-3.442-2.582-5.02-2.869-6.167-20.654-21.513-28.112-24.238-16.494-5.881-33.275-6.885-45.18-2.726m748.683-77.45c-47.043 16.35-61.1 70.423-27.394 105.562 3.586 3.872 7.888 7.601 9.466 8.319 1.578.717 3.873 1.864 5.02 2.581 11.33 6.454 11.904 6.598 30.837 6.598 18.071-.144 18.932-.144 28.254-4.733 12.478-6.168 24.383-17.928 30.263-30.263 4.016-8.462 4.59-11.044 5.02-25.1.574-16.063.144-17.641-6.74-32.27-3.013-6.455-18.216-21.945-24.527-25.1-16.35-8.032-36.43-10.327-50.199-5.594m-791.854-.717c-.717 10.9.717 18.359 4.876 26.82 15.203 30.12 52.924 42.885 84.908 28.686 9.036-4.016 23.666-16.924 26.678-23.522.717-1.577 1.864-3.872 2.581-5.02 3.156-5.163 5.737-14.199 6.168-20.796l.43-7.172-62.677-.43c-49.77-.287-62.82 0-62.964 1.434m54.071-37.004c-3.012 4.59-2.868 6.598.574 10.614 4.016 4.733 12.191 4.016 15.49-1.578 2.151-3.585 2.151-4.303.287-7.888-1.721-3.012-3.442-4.016-8.032-4.303-5.02-.43-6.31.143-8.319 3.155m749.544-8.749c-3.872 4.16-4.016 8.75-.287 12.478 8.32 8.32 20.367-2.868 13.482-12.621-2.868-4.16-9.179-4.16-13.195.143m-749.544-42.884c-3.012 4.59-2.868 6.598.574 10.614 4.016 4.733 12.191 4.016 15.49-1.578 2.151-3.586 2.151-4.303.287-7.889-1.721-3.011-3.442-4.015-8.032-4.302-5.02-.43-6.31.143-8.319 3.155m749.544-8.749c-5.593 6.024-3.155 13.195 4.877 14.773 8.462 1.578 13.482-7.458 8.318-14.916-2.868-4.16-9.179-4.16-13.195.143m-749.544-42.884c-3.012 4.59-2.868 6.597.574 10.613 4.016 4.733 12.191 4.016 15.49-1.577 2.151-3.586 2.151-4.303.287-7.889-1.721-3.012-3.442-4.016-8.032-4.303-5.02-.43-6.31.144-8.319 3.156m749.544-8.75c-3.872 4.16-4.016 8.75-.287 12.479 8.32 8.318 20.367-2.869 13.482-12.622-2.868-4.16-9.179-4.16-13.195.144m0-55.935c-6.31 6.597-2.151 15.346 7.172 15.346 7.888 0 11.187-9.322 5.45-15.49-3.873-4.016-8.75-4.016-12.622.144m-51.06 1.147c-4.446 5.307-4.59 5.594-.717 10.47 5.737 7.315 17.068 3.586 17.068-5.593 0-3.873-5.737-9.323-9.61-9.323-1.72 0-4.732 2.008-6.74 4.446m-51.49-1.147c-4.589 3.872-4.876 8.605-1.003 12.478 2.868 2.868 9.322 3.729 12.334 1.72 3.873-2.58 5.02-7.314 2.869-11.617-3.586-6.74-8.462-7.601-14.2-2.581m-52.35 0c-6.167 6.597-2.151 15.346 6.885 15.346 5.02 0 7.028-1.577 8.031-6.597.574-3.012 0-5.307-2.294-8.176-3.73-4.733-8.462-5.02-12.622-.573m-51.633-.43c-2.582 2.15-3.299 3.872-2.869 8.175.287 4.446 1.148 5.593 4.447 6.74 2.438.861 5.306.861 7.888 0 3.299-1.147 3.872-2.294 4.303-7.314.287-4.733-.144-6.31-2.869-8.175-4.16-3.012-6.884-2.869-10.9.573m-335.473-.431c-4.303 3.012-4.59 12.478-.574 14.773 3.872 2.008 9.18 1.864 12.335-.574 3.872-2.725 3.442-10.613-.574-14.056-4.016-3.155-6.885-3.155-11.187-.143m-52.638.287c-1.72 1.864-2.295 4.59-2.008 8.175.287 4.59 1.148 5.737 4.447 6.885 2.438.86 5.306.86 7.888 0 3.155-1.148 4.016-2.295 4.303-6.741.43-4.303-.287-6.024-2.869-8.176-4.16-3.585-8.605-3.585-11.76-.143m-52.494.143c-5.88 5.88-2.438 15.777 5.45 15.777 9.467 0 13.626-9.322 7.028-15.49-4.159-3.872-8.749-4.016-12.478-.287m-52.35.717c-4.016 3.873-4.303 5.307-2.008 9.753 2.295 4.16 4.016 5.307 8.605 5.307 4.016 0 9.897-5.307 9.897-9.036 0-3.298-6.741-9.61-10.183-9.61-1.578 0-4.447 1.579-6.311 3.586m-48.765 0c-4.446 4.59-4.59 7.889-.287 11.905 4.16 3.872 10.183 4.016 13.913.287 3.872-3.873 3.585-7.315-.718-12.048-4.302-4.733-8.175-4.733-12.908-.144M312.045-118.85c-.43.717.717 3.442 2.438 6.167 5.737 9.18 6.598 10.614 7.745 12.765.574 1.148 3.73 6.598 6.885 12.192 3.299 5.45 6.31 11.043 6.884 12.19s2.295 4.017 3.873 6.455c1.577 2.295 3.442 5.594 4.303 7.171.86 1.578 2.725 4.733 4.302 7.171 1.578 2.295 3.3 5.307 3.873 6.455s3.729 6.74 7.171 12.334 6.167 10.614 6.167 11.044c0 .574 1.722 3.299 3.73 6.31 2.007 3.013 4.302 6.742 5.02 8.32s2.581 4.733 4.159 7.17c1.577 2.296 3.442 5.594 4.303 7.172s2.294 4.16 3.298 5.737 5.307 9.036 9.61 16.494 8.605 14.916 9.61 16.494 2.438 4.303 3.155 6.024c.717 1.578 2.151 3.442 3.012 4.016 4.733 2.868-3.873 3.586-45.18 3.586-24.812 0-45.322.43-45.609 1.004-.287.717.574 3.012 2.008 5.45 1.434 2.295 3.299 5.593 4.16 7.171s2.725 4.733 4.302 7.171c1.578 2.295 3.3 5.307 3.873 6.455 1.147 2.581 16.924 29.832 19.075 32.987.861 1.148 2.152 3.443 2.869 5.02.86 1.578 2.725 4.733 4.303 7.172 1.577 2.295 3.442 5.593 4.302 7.17s2.726 4.734 4.303 7.172c1.578 2.295 3.3 5.307 3.873 6.454s3.729 6.598 6.884 12.192c3.299 5.45 6.311 11.043 6.885 12.19s2.294 4.017 3.872 6.455c1.578 2.295 3.442 5.594 4.303 7.171.86 1.578 2.725 4.733 4.303 7.172 1.577 2.294 3.298 5.306 3.872 6.454s3.73 6.74 7.171 12.334 6.168 10.614 6.168 11.044c0 .574 1.721 3.299 3.729 6.31 2.008 3.013 4.303 6.742 5.02 8.32.717 1.577 2.581 4.733 4.16 7.17 1.577 2.296 3.298 5.308 3.872 6.455s5.593 9.897 11.187 19.363 10.613 18.215 11.187 19.362 2.295 4.016 3.873 6.454c1.577 2.295 3.442 5.594 4.302 7.172.861 1.577 2.295 4.159 3.3 5.737s5.306 9.035 9.609 16.494c4.302 7.458 8.605 14.916 9.61 16.494 1.003 1.577 2.437 4.159 3.298 5.737.86 1.577 2.725 4.733 4.303 7.17 1.577 2.296 3.442 5.595 4.303 7.172.86 1.578 2.725 4.733 4.302 7.172 1.578 2.294 3.3 5.306 3.873 6.454s3.729 6.597 6.884 12.19c3.3 5.451 6.311 11.045 6.885 12.192s2.295 4.016 3.872 6.454c3.3 4.877 3.442 5.45 5.594 12.048s2.295 384.955.143 388.971c-1.434 2.438-3.299 2.725-23.378 2.725-15.203 0-22.518.574-23.665 1.721-1.148 1.148-1.722 8.606-1.722 24.383v22.661h-67.266c-53.785 0-67.554.43-68.701 1.865-1.004 1.147-1.865 10.183-2.008 21.944l-.43 19.936H189.99V758.487l5.737-.861c9.61-1.29 21.657-8.175 31.267-17.498 8.605-8.606 11.617-12.335 13.338-16.78.43-1.148 1.865-4.59 3.156-7.602 1.577-3.873 2.151-9.897 2.151-20.797 0-14.343-.43-16.064-4.733-25.243-3.155-6.741-7.602-12.765-13.626-18.645-8.318-8.32-10.9-10.04-24.095-15.777-7.171-3.012-34.566-3.3-41.45-.287-2.582 1.147-5.737 2.438-6.885 3.012-8.175 3.299-16.78 10.326-23.378 19.075-10.327 13.77-11.044 16.494-11.044 38.725 0 21.084.287 21.945 8.893 35.57 7.601 11.904 29.402 26.39 39.585 26.39 2.151 0 4.733.718 5.737 1.722 1.291 1.29 1.721 25.673 1.721 101.115V960l380.51-.287 380.365-.43.43-100.111c.287-78.454.717-99.968 2.151-99.968.861 0 13.34-.287 27.538-.43l25.817-.287-.143-7.889c-.144-9.323-2.152-15.06-9.18-25.817-5.45-8.175-21.944-22.804-25.816-22.948-1.291 0-3.873-1.147-5.737-2.438-2.869-2.008-6.885-2.438-21.514-2.438-17.498 0-18.215.143-27.682 4.876-9.179 4.59-23.952 16.781-25.96 21.514-.43 1.148-2.438 4.877-4.302 8.175-3.73 6.455-7.745 24.096-6.024 25.817.573.717 13.625 1.29 28.828 1.578 27.108.43 27.682.574 28.542 3.585.43 1.722.86 33.849.86 71.427 0 51.06-.43 68.557-1.72 69.848s-20.224 1.721-76.59 1.721c-41.163 0-75.872-.43-77.163-.86-2.008-.718-2.295-3.873-2.295-20.51 0-13.339-.574-20.223-1.721-21.37-1.29-1.292-18.502-1.722-68.844-1.722-52.638 0-67.124-.43-67.124-1.864-.143-.861-.143-11.044 0-22.231.144-13.77-.43-21.227-1.578-22.662-1.29-1.577-6.454-2.008-23.521-2.008-18.646 0-22.088-.287-22.805-2.295-.43-1.29-.86-90.358-.86-197.927V416.272l4.159-7.458c2.295-4.16 5.593-10.04 7.314-13.195s4.303-7.745 5.881-10.04c1.434-2.438 3.299-5.593 4.16-7.171s2.724-4.877 4.302-7.171c1.578-2.439 3.299-5.307 3.873-6.455 1.147-2.581 16.924-29.832 19.075-32.988.86-1.147 2.152-3.442 2.869-5.02.86-1.577 2.725-4.876 4.302-7.17 1.578-2.44 3.3-5.308 3.873-6.455s5.594-9.896 11.187-19.362c5.594-9.467 10.614-18.216 11.187-19.363s2.295-4.16 3.873-6.454c1.578-2.438 3.299-5.307 3.872-6.454s5.594-9.897 11.188-19.363 10.613-18.215 11.187-19.362 2.295-4.16 3.872-6.454c1.578-2.439 3.443-5.594 4.303-7.172s2.725-4.876 4.303-7.171c1.578-2.438 3.442-5.594 4.16-7.315.716-1.577 3.872-7.171 6.884-12.191 3.155-5.02 6.024-10.183 6.597-11.33s2.295-4.16 3.873-6.455c1.578-2.438 3.442-5.593 4.303-7.171s2.725-4.877 4.302-7.171c1.578-2.439 3.3-5.307 3.873-6.455s3.586-6.74 6.884-12.19c3.156-5.594 6.311-11.045 6.885-12.192s2.295-4.16 3.872-6.454c1.578-2.438 3.442-5.594 4.303-7.171s2.725-4.877 4.303-7.172c1.578-2.438 3.442-5.593 4.303-7.171s3.155-5.737 5.306-9.323c2.008-3.585 4.733-8.462 6.024-10.757 1.291-2.438 3.586-6.024 5.02-8.175s2.152-4.59 1.578-5.45-15.92-1.434-45.18-1.434c-24.382 0-44.605-.574-45.035-1.291s.143-2.008 1.29-3.012 2.152-2.438 2.152-3.156c0-.86 2.725-6.167 6.167-11.76 3.443-5.594 6.598-11.188 7.172-12.335s2.295-4.16 3.872-6.454c1.578-2.439 3.442-5.594 4.303-7.172s2.725-4.876 4.303-7.17c1.578-2.44 3.299-5.308 3.872-6.455 1.148-2.582 12.765-22.661 14.773-25.817.86-1.147 2.152-3.442 2.869-5.02.86-1.577 2.725-4.876 4.302-7.171 1.578-2.438 3.443-5.594 4.303-7.171.86-1.578 2.725-4.877 4.303-7.172 1.578-2.438 3.299-5.306 3.873-6.454s4.59-8.318 9.035-15.777c4.447-7.458 8.463-14.629 9.036-15.776s2.295-4.16 3.873-6.455c1.577-2.438 3.442-5.593 4.302-7.17.861-1.579 2.726-4.877 4.16-7.172 1.434-2.438 2.295-4.733 2.008-5.45-.86-1.435-484.923-1.291-485.784.143M421.91 71.763c1.148 1.434 4.303 6.454 7.028 11.187s5.594 9.897 6.598 11.474c1.004 1.578 2.438 4.16 3.299 5.737.86 1.578 2.725 4.734 4.302 7.172 1.578 2.295 3.443 5.593 4.303 7.171s2.725 4.733 4.303 7.171c1.578 2.295 3.299 5.307 3.873 6.455s3.729 6.597 6.884 12.19c3.299 5.45 6.31 11.045 6.884 12.192s2.295 4.016 3.873 6.454c1.578 2.295 3.442 5.594 4.303 7.171.86 1.578 2.725 4.733 4.302 7.172 1.578 2.295 3.3 5.306 3.873 6.454s3.73 6.74 7.171 12.335 6.168 10.613 6.168 11.043c0 .574 1.72 3.3 3.729 6.311 2.008 3.012 4.302 6.741 5.02 8.319s2.581 4.733 4.159 7.171c1.578 2.295 3.299 5.307 3.872 6.454s3.443 6.31 6.598 11.33c9.61 15.921 9.61 15.49 9.61 84.479v62.103l-2.869-1.577c-1.721-.861-3.586-3.012-4.446-4.734-.717-1.72-2.582-5.163-4.16-7.458-1.577-2.438-3.298-5.306-3.872-6.454s-4.59-8.319-9.036-15.777-8.462-14.63-9.036-15.777-2.295-4.159-3.872-6.454c-1.578-2.438-3.442-5.593-4.303-7.171-.717-1.578-2.295-4.16-3.155-5.737-3.443-5.307-8.893-14.343-11.33-18.645-1.292-2.439-4.017-7.172-6.025-10.757-2.151-3.586-4.446-7.745-5.307-9.323s-2.725-4.877-4.302-7.171c-1.578-2.439-3.443-5.594-4.303-7.172s-2.725-4.876-4.303-7.171c-1.578-2.438-3.299-5.307-3.872-6.454s-3.73-6.741-6.885-12.191c-3.299-5.594-6.31-11.044-6.884-12.192s-2.295-4.159-3.873-6.454c-1.578-2.438-3.442-5.593-4.303-7.171s-2.725-4.876-4.302-7.171c-1.578-2.439-3.3-5.307-3.873-6.454s-5.594-9.897-11.187-19.363-10.614-18.215-11.187-19.362-2.295-4.16-3.873-6.455c-1.578-2.438-3.442-5.593-4.303-7.171-.717-1.578-2.008-3.872-2.868-5.02-2.152-3.155-17.928-30.406-19.076-32.988-.574-1.147-2.295-4.16-3.872-6.454-1.578-2.438-3.443-5.594-4.303-7.171-.86-1.578-2.725-4.877-4.303-7.172-1.578-2.438-3.442-5.593-4.303-7.17-.86-1.579-2.438-4.447-3.585-6.312-1.004-2.008-1.721-4.159-1.291-4.733s17.641-1.147 38.438-1.147c34.135 0 37.864.287 39.872 2.438m343.936.287c0 1.434-1.004 3.442-2.152 4.446s-2.15 2.295-2.15 2.869c0 .717-3.73 7.601-8.32 15.346s-8.749 15.06-9.322 16.207-2.295 4.016-3.873 6.455c-1.578 2.294-3.442 5.593-4.303 7.17-.717 1.579-2.008 3.873-2.868 5.02-2.152 3.3-22.231 37.722-23.379 40.16-.573 1.147-2.294 4.016-3.872 6.454-1.578 2.295-3.442 5.594-4.16 7.172-.717 1.577-3.011 5.306-5.02 8.318-2.007 3.012-3.728 5.737-3.728 6.31 0 .431-2.725 5.451-6.168 11.045-3.442 5.593-6.597 11.187-7.171 12.334s-2.295 4.016-3.873 6.455c-1.577 2.294-3.442 5.593-4.302 7.17-.86 1.579-2.725 4.734-4.303 7.172-1.578 2.295-3.299 5.307-3.873 6.454s-3.585 6.598-6.884 12.192c-3.155 5.45-6.31 11.043-6.884 12.19s-2.295 4.017-3.873 6.455c-1.578 2.295-3.442 5.594-4.303 7.171-.86 1.578-2.725 4.733-4.303 7.172-1.577 2.294-3.442 5.593-4.302 7.17-.86 1.578-3.443 6.025-5.737 10.04-2.439 3.873-5.307 9.036-6.455 11.475-1.29 2.295-3.442 6.167-5.02 8.605-1.577 2.295-3.442 5.594-4.302 7.172s-2.725 4.733-4.303 7.17c-1.578 2.296-3.442 5.594-4.303 7.172s-2.868 5.163-4.59 7.889c-1.577 2.725-4.446 7.601-6.023 10.757-5.164 9.466-8.319 13.625-9.61 12.764-.717-.43-1.29-28.828-1.29-64.685 0-70.278-.43-65.689 8.748-80.031 1.435-2.439 3.3-5.594 4.16-7.172s2.725-4.876 4.302-7.171c1.578-2.438 3.73-6.31 5.02-8.605 1.148-2.439 4.016-7.602 6.455-11.475 2.294-4.015 4.876-8.462 5.737-10.04s2.725-4.876 4.302-7.17c1.578-2.439 3.443-5.594 4.303-7.172s2.725-4.876 4.303-7.171c1.578-2.439 3.299-5.307 3.872-6.454 1.148-2.582 16.925-29.833 19.076-32.988.86-1.148 2.151-3.443 2.869-5.02.86-1.578 2.725-4.877 4.302-7.172 1.578-2.438 3.3-5.306 3.873-6.454s5.737-10.183 11.474-19.936c5.737-9.61 10.47-17.928 10.47-18.359 0-.286 1.147-2.15 2.582-4.015l2.438-3.443 38.438-.143c36.574 0 38.295.143 38.295 2.725" style="stroke-width:.143426"/>
</svg>
