<svg xmlns="http://www.w3.org/2000/svg" width="1270" height="960">
    <path d="M283.387 465.955c-7.968 42.83 2.988 93.63 14.94 73.709 10.958-16.933 10.958-107.575 0-107.575-4.98 0-11.952 14.941-14.94 33.866M845.164 247.82c0 13.944 3.984 24.901 7.968 24.901 11.953 0 81.677 96.618 81.677 113.55 0 6.973 6.972 18.926 14.94 25.898 9.961 8.965 14.942 31.874 14.942 75.7 0 60.76 11.952 89.646 23.905 57.772 10.957-27.89 5.976-87.653-8.964-117.535-7.969-14.94-14.941-37.85-14.941-49.803 0-32.87-87.653-155.385-111.559-155.385-3.984 0-7.968 10.957-7.968 24.902m-396.431-51.795c-78.689 74.704-111.559 109.566-111.559 120.523 0 7.968-6.972 18.925-14.94 25.897-17.93 14.94-20.918 83.669-2.989 77.693 6.973-2.989 15.937-19.922 20.917-37.85 5.977-22.91 31.874-56.776 78.689-100.602 47.81-45.82 68.728-72.713 64.744-82.673-6.973-18.925-16.933-19.921-34.862-2.988M804.325 95.422c3.985 11.952 38.847 46.814 75.7 76.696 37.851 30.878 82.674 76.697 99.607 101.598 57.77 83.669 84.665 201.204 64.743 277.9-5.976 24.902-13.945 56.776-16.933 71.716-2.988 14.941-10.956 32.87-18.925 38.847-7.968 5.976-13.945 18.925-13.945 27.89-.996 8.964-20.917 35.857-44.822 60.759-24.902 24.901-44.823 47.81-44.823 51.795 0 4.98 16.933 7.968 38.846 7.968 36.855 0 38.847-.996 44.823-39.842 2.988-22.91 12.949-42.83 20.917-45.819 7.969-3.984 14.941-13.944 14.941-23.905s6.973-22.91 14.941-29.882 14.94-21.913 14.94-33.866c.997-10.956 6.973-31.874 14.942-45.818s13.945-34.862 14.94-46.815c0-12.949 12.95-28.886 35.859-41.835 40.838-23.905 39.842-43.826-1.992-50.799-18.925-2.988-29.882-11.952-31.874-24.901-10.957-60.76-63.748-188.255-82.673-199.212-13.945-8.964-10.957-58.767 5.976-80.68 7.969-9.96 14.941-26.894 14.941-36.854 0-20.918-32.87-22.91-49.803-1.993-13.945 16.933-74.704 19.922-84.665 4.98-5.976-9.96-69.724-39.842-85.66-39.842-4.98 0-4.98 9.961 0 21.914M431.8 81.477c-15.937 9.96-34.862 22.91-42.83 28.886-17.93 16.933-63.749 15.936-87.654-1.993-26.893-20.917-53.787-18.925-53.787 3.985 0 9.96 5.976 23.905 13.945 29.881 21.913 17.93 24.901 58.768 6.972 83.67-22.91 31.873-44.822 82.672-67.732 156.38-17.929 56.776-23.905 64.744-51.795 71.717-38.846 10.956-38.846 22.909.996 47.81 31.874 18.925 67.732 91.638 67.732 136.46 0 12.949 3.984 22.91 8.965 22.91s12.948 9.96 16.933 21.913c3.984 12.949 16.933 36.854 29.881 53.787 12.95 16.933 23.906 40.838 23.906 51.795 0 17.93 5.976 21.913 34.862 21.913 18.925 0 34.862-2.988 34.862-7.968 0-3.984-20.917-28.886-44.823-54.783-24.901-25.898-44.822-53.787-44.822-60.76s-6.973-18.925-14.941-25.897c-7.969-6.973-14.941-22.91-14.941-36.855 0-12.948-4.98-32.87-10.957-43.826-14.94-27.89-13.944-137.456 1.992-184.27 38.847-120.524 116.54-215.15 213.157-261.964 51.795-24.902 64.744-36.854 64.744-58.767 0-16.933-48.807-13.945-84.665 5.976m188.255 384.478c-9.96 25.898 3.984 47.811 27.89 43.827 32.87-3.984 32.87-51.795 0-55.78-12.95-1.992-24.902 2.989-27.89 11.953m9.96-464.163c-21.913 2.988-20.917 1.992-69.724 181.283-7.968 29.882-21.913 75.7-29.882 100.602-6.972 25.897-13.944 55.779-13.944 66.736 0 10.956-6.973 36.854-15.937 56.775-16.933 40.838-14.941 96.617 5.976 174.31 6.972 24.901 17.93 66.736 24.901 94.625 6.973 26.894 17.93 71.717 24.902 99.606 6.972 26.894 14.94 63.748 16.933 80.681C578.22 885.296 634.996 960 652.925 960c9.96 0 32.87-43.827 57.77-109.566 8.965-24.902 22.91-58.768 31.875-74.705 32.87-64.743 57.771-466.155 31.874-513.966-5.977-10.956-13.945-40.838-18.925-66.736-7.969-42.83-20.918-97.613-37.85-161.36-6.973-24.902-44.823-38.847-87.654-31.875m40.839 207.18c8.964 3.985 20.917 15.937 25.897 27.89 4.98 10.957 17.93 35.858 28.886 53.787 18.925 30.878 19.92 40.838 9.96 133.472-4.98 54.783-9.96 133.472-9.96 174.31 0 68.728-2.988 77.692-30.878 113.55-16.933 20.918-38.846 38.847-49.803 38.847-25.897 0-56.775-52.791-63.748-109.567-3.984-24.901-13.944-74.704-22.909-111.558-17.929-73.708-23.905-49.803 63.748-252.003 6.972-16.933 14.94-39.842 18.925-52.79 6.972-24.902 6.972-23.906 29.882-15.938" style="stroke-width:.996058"/>
</svg>
