<svg xmlns="http://www.w3.org/2000/svg" width="1143" height="960">
    <path d="M448.558 194.948c-63.253 65.035-115.815 120.27-116.706 122.497-2.227 5.79 9.355 5.79 15.145.445 2.227-2.227 37.863-21.381 79.289-42.317 41.426-21.381 77.952-40.535 81.07-43.208 3.564-3.118 6.236-3.118 8.464 0 2.672 4.9-5.346 17.818-56.126 89.534-44.544 62.808-49.89 71.27-46.771 74.389 2.672 2.673 62.361-41.426 87.306-64.144 19.154-17.817 25.836-10.69 15.145 17.373-3.563 10.69-8.463 24.944-10.69 32.517-2.228 7.127-8.91 27.172-15.145 44.544-19.154 52.117-15.145 59.244 12.917 24.5 9.8-12.028 20.49-21.827 23.609-22.273 4.009 0 5.345 38.308 5.345 177.732 0 97.997-1.782 179.067-3.563 180.404-3.564 2.227-23.163-20.045-23.163-25.836 0-1.336-8.91-15.59-20.045-32.072-11.136-16.036-20.045-30.29-20.045-31.18 0-1.337-4.9-8.91-11.136-16.928s-11.136-16.926-11.136-19.6c0-3.117 4.9-5.344 11.136-5.344 8.018 0 11.136-2.228 11.136-8.464 0-4.9-2.227-10.245-4.9-11.581-2.227-1.782-6.682-7.573-8.909-12.473-2.227-5.345-7.572-15.145-12.027-21.826-4.009-6.682-16.481-26.281-27.172-43.654-11.136-17.817-24.054-33.853-28.953-36.08-5.346-2.228-39.2-6.682-75.28-9.8-61.026-4.9-81.07-10.69-56.571-16.481 5.345-1.337 9.8-4.455 10.245-6.682.89-5.345-97.106-8.463-126.06-4.01-17.818 2.674-18.709 3.564-8.909 6.683 6.236 1.781 18.709 3.118 27.617 3.563 17.373.446 26.727 8.018 15.145 11.582-24.053 7.572-23.163 6.681-15.145 12.917 4.01 2.673 25.836 7.573 48.999 10.691 90.425 11.582 139.869 20.045 145.66 24.5 3.118 2.672 7.572 8.908 9.8 14.253 2.226 4.9 8.017 14.7 12.917 22.273 17.372 26.28 20.045 33.853 13.809 37.417-3.118 2.227-9.8 2.672-14.254 1.781-4.455-1.336-8.464-.445-8.464 2.228 0 4.9 20.49 44.544 37.863 72.161 5.345 8.464 11.136 18.709 12.472 22.272 1.782 3.564 7.127 12.473 12.027 20.045 4.9 7.127 10.245 16.482 12.027 20.045s14.254 25.836 28.063 48.999 26.281 45.435 28.063 48.998c1.781 3.564 7.127 12.473 12.027 20.045 4.9 7.127 10.69 17.373 13.363 22.272 2.673 4.9 8.909 16.036 13.809 24.5 5.345 8.463 14.7 24.944 20.49 36.971 13.363 25.39 24.945 27.618 34.299 6.682 3.564-8.018 12.918-24.945 20.045-36.972 7.572-12.472 15.59-26.28 18.263-31.18s8.463-15.146 13.363-22.273c4.9-7.572 10.245-16.481 12.027-20.045s14.254-25.835 28.063-48.998 26.281-45.435 28.063-48.999 7.127-12.918 12.027-20.045c4.9-7.572 10.245-16.481 12.027-20.045 1.336-3.563 7.127-13.808 12.472-22.272 17.372-27.617 37.863-67.261 37.863-72.161 0-2.673-4.01-3.564-8.464-2.228-4.454.891-11.136.446-14.254-1.781-6.236-3.564-3.563-11.136 13.809-37.417 4.9-7.573 10.69-17.373 12.918-22.273 2.227-5.345 6.681-11.581 9.8-14.254 5.79-4.454 55.234-12.917 145.659-24.499 23.163-3.118 44.99-8.018 48.999-10.69 8.017-5.791 7.572-6.237-16.036-13.364-11.136-3.118-.446-10.69 16.036-11.136 8.908-.445 21.38-1.782 27.617-3.563 9.8-3.119 8.909-4.01-8.909-6.682-28.954-4.454-126.95-1.336-126.06 4.009.445 2.227 4.9 5.345 10.245 6.682 24.945 5.79 6.236 11.581-55.68 16.48-36.526 3.119-70.825 7.573-76.17 9.8-4.9 2.228-17.818 18.264-28.954 36.081-10.69 17.373-23.163 36.972-27.172 43.654-4.455 6.681-9.8 16.481-12.027 21.826-2.227 4.9-6.682 10.691-8.91 12.473-2.672 1.336-4.899 6.681-4.899 11.581 0 6.236 3.118 8.464 11.136 8.464 13.809 0 14.254 6.236.891 24.054-5.79 7.572-11.582 15.59-12.472 18.263-6.237 15.145-59.244 90.87-62.362 88.643-2.228-1.337-4.01-82.407-4.01-180.404 0-139.424 1.337-177.732 5.791-177.732 2.673.446 13.364 10.245 23.163 22.272 28.063 34.745 32.072 27.618 12.918-24.499-6.236-17.372-12.918-37.417-15.145-44.544-2.227-7.573-6.681-21.381-10.69-31.181-3.564-9.8-6.682-20.49-7.127-23.608 0-8.464 10.245-6.237 22.272 4.9 24.944 22.717 84.634 66.816 87.306 64.143 3.564-3.564 1.337-6.682-89.088-134.078-9.354-13.363-15.59-26.281-13.809-29.4 2.227-3.563 4.9-3.563 8.464-.445 3.118 2.673 39.644 21.827 81.07 43.208 41.426 20.936 77.061 40.09 79.734 42.317 5.345 5.346 16.927 5.346 14.7-.445-3.564-9.8-232.966-240.539-239.648-240.539-4.009 0-59.244 53.008-122.942 118.042m-43.208-65.48C281.072 253.747 247.218 290.273 251.673 293.836c4.454 4.01 40.98-29.844 161.25-148.332C498.893 61.316 570.609-7.282 572.39-6.837c2.227.89 72.162 68.598 155.46 150.56 83.742 81.96 154.568 149.668 158.131 150.559 3.564.89 6.236-1.337 6.236-4.455C892.218 281.81 579.518-30 571.5-30c-3.563 0-78.398 71.716-166.15 159.468" style="stroke-width:.445442"/>
</svg>
