<svg xmlns="http://www.w3.org/2000/svg" width="1620" height="960">
    <path d="M1499.434 468.464q-94.231 24.23-110.385 29.616-110.386 26.924-204.617 53.847a264.2 264.2 0 0 1-56.539 8.077q-10.77-2.692-13.461 2.692-10.77 5.385-64.616 40.385 16.154 2.692 35 32.308a18.31 18.31 0 0 1-2.692 24.23 301.5 301.5 0 0 0-32.308 37.693 13.63 13.63 0 0 1-16.154 5.385h-29.616a55.7 55.7 0 0 0-4.038 17.5 28.75 28.75 0 0 1-6.731 17.5q-21.539 13.462-32.308 8.077l-5.385 13.462q-16.153 53.846-24.23 78.075a48.26 48.26 0 0 1-16.155 24.231 57.8 57.8 0 0 0-13.461 10.77l-10.77 10.768a146.25 146.25 0 0 0-40.384 51.155 41 41 0 0 1-29.616 24.23 46.99 46.99 0 0 1-40.385-8.076 107 107 0 0 1-13.462-16.154 125.7 125.7 0 0 0-40.385-53.847 147 147 0 0 0-12.115-10.77 67.4 67.4 0 0 0-9.421-6.73 15.24 15.24 0 0 1-5.385-5.384 40 40 0 0 0-4.038-5.385 31.2 31.2 0 0 1-4.039-6.731 20.7 20.7 0 0 1-2.692-8.077 60.6 60.6 0 0 0-2.692-12.115q-2.693-9.422-5.385-17.5-2.692-8.08-8.077-25.577a185 185 0 0 0-8.077-22.885l-5.386-13.462a34.17 34.17 0 0 1-32.308-8.077 28.74 28.74 0 0 1-6.73-17.5q-1.347-12.116-1.347-14.808-5.384 0-32.308-2.692a25.83 25.83 0 0 1-18.846-8.077 202 202 0 0 1-14.807-17.5 202 202 0 0 0-14.808-17.5 26.79 26.79 0 0 1 0-32.308q2.692 0 8.077-8.077 13.462-16.154 24.23-16.154-53.846-34.999-64.616-43.074h-13.46q-48.46-8.077-51.155-8.077-56.539-13.464-312.309-80.772l-8.077-2.692a43.5 43.5 0 0 1 2.694-26.924q99.614-150.769 99.614-153.462A655 655 0 0 1 347.12 153.462 782 782 0 0 1 454.81 86.154a2.38 2.38 0 0 0 2.696-2.692A782.2 782.2 0 0 1 689.045 10.77 661 661 0 0 1 807.507 0a763 763 0 0 1 131.924 13.462 1056.4 1056.4 0 0 1 148.077 37.692 406 406 0 0 1 64.616 29.616 543 543 0 0 1 175.001 126.54 763.7 763.7 0 0 1 105 134.616q40.385 61.924 61.924 99.616a36.96 36.96 0 0 1 5.385 26.922m-690.58 263.847a63.14 63.14 0 0 0 44.422-17.5 56.48 56.48 0 0 0 18.847-43.077 59.77 59.77 0 0 0-60.578-60.577 63.14 63.14 0 0 0-44.423 17.5 56.48 56.48 0 0 0-18.846 43.077 59.77 59.77 0 0 0 60.577 60.577" style="stroke-width:46.6399"/>
</svg>
