<svg xmlns="http://www.w3.org/2000/svg" width="1220" height="960">
    <path d="M1041.336 757.549c-.654 8.507-.654 26.83 0 41.227 1.309 22.904-1.963 28.794-21.595 44.5-17.014 13.087-27.485 17.013-39.264 13.741-16.36-3.926-43.19 6.545-43.19 17.015 0 26.176 66.748 35.992 99.468 14.397 34.03-22.904 46.463-45.808 46.463-87.035 0-40.573-8.507-58.242-28.794-58.242-8.507 0-12.433 5.235-13.088 14.397m-90.961-47.117c0 3.927-5.235 9.162-11.125 11.125-15.706 5.89-34.683 26.83-34.683 37.3 0 4.581-4.581 12.434-9.816 17.015-13.743 11.78-12.434 34.683 4.58 62.822l14.397 24.213 18.324-20.94c20.286-22.25 28.139-24.868 34.028-10.471 5.235 13.742 47.117 13.088 52.352-.654 12.434-32.72-1.963-68.058-28.139-68.058-7.198 0-15.051-3.272-17.014-6.544-3.927-6.544 8.507-9.161 30.756-7.198 13.088 1.308 26.176-20.287 20.941-34.683-3.272-7.853-13.088-10.47-39.264-10.47-19.632 0-35.337 3.271-35.337 6.543m13.088 61.514c0 5.235-2.618 11.124-5.89 13.742-7.853 4.58-15.705-7.853-10.47-16.36 5.89-9.816 16.36-7.853 16.36 2.618m-766.956-52.352c-3.926 20.286 5.235 30.102 27.485 30.102 24.867 0 49.08 13.088 57.587 32.066 9.816 20.286 9.816 33.374 1.309 33.374-3.272 0-6.544-7.198-6.544-16.36 0-9.816-3.926-16.36-9.162-16.36-5.235 0-10.47-4.58-13.088-9.816-5.235-13.742-27.484-12.434-43.19 3.272-13.742 13.742-18.323 52.352-6.544 52.352 3.926 0 6.544 3.272 6.544 7.853 0 3.926-7.853.654-17.014-8.507-13.088-12.434-15.706-19.632-13.088-34.03 5.235-24.212-1.964-50.388-13.088-50.388-15.051 0-28.794 28.14-28.794 58.242 0 54.97 43.845 98.814 99.469 98.814 52.352 0 62.168-36.646 11.125-40.573-32.066-2.618-43.845-18.323-13.743-18.323 11.125 0 20.941-3.927 23.559-9.816 5.235-14.397 12.433-11.78 26.83 9.816 15.705 22.904 18.977 23.558 35.992 6.544 21.595-21.595 17.669-64.786-7.853-96.851-28.793-35.338-50.389-47.117-85.726-47.117-25.522 0-29.448 1.963-32.066 15.706m581.76-206.79c-5.889 13.742-11.124 27.484-11.124 30.102 0 11.125-30.102 43.19-40.573 43.19-6.544 0-15.705 7.199-19.632 16.36-3.926 9.162-15.05 18.324-24.212 20.941-28.14 6.544-53.007 21.595-53.007 31.411 0 14.397 37.955 12.434 68.712-3.272 18.323-9.816 32.72-12.433 48.426-9.816 20.94 3.927 21.595 3.272 17.668-13.088-3.272-13.742.655-25.521 18.324-51.043 24.867-38.61 34.028-84.417 17.014-88.344-6.544-1.308-14.397 7.199-21.595 23.559m-366.463-20.941c-9.161 9.162 5.89 54.315 28.794 88.998 14.397 20.94 22.25 39.264 18.978 41.227-3.927 1.963-6.544 8.507-6.544 14.397 0 7.853 4.58 9.162 21.595 5.89 15.05-2.618 29.448 0 47.117 9.161 25.521 13.088 56.278 17.015 64.13 8.507 7.853-7.198-16.36-28.139-41.227-34.683-15.705-3.926-26.83-12.433-31.41-22.904-3.927-9.161-13.089-16.36-19.633-16.36-10.47 0-40.572-32.065-40.572-43.19 0-2.618-5.236-16.36-11.125-29.448-11.125-23.558-20.94-30.757-30.103-21.595m176.688-44.5c-14.397 15.706-13.742 29.449.655 42.537 15.705 14.397 29.448 13.742 42.535-.655 14.397-15.705 13.743-29.448-.654-42.536-15.705-14.396-29.448-13.742-42.536.655M634.3 270.023c-2.618 1.963-4.58 6.544-4.58 9.161 0 4.581 41.226 25.522 66.748 34.029 5.89 1.963 11.78 10.47 13.088 18.978 1.309 10.47 7.198 15.705 17.669 17.014 17.014 2.618 39.264 24.867 39.918 39.264 0 15.705 26.83 60.859 32.72 56.933 17.014-10.47 2.618-68.058-25.522-103.395-5.89-6.544-9.161-20.287-8.507-30.757 1.309-17.669 0-18.978-24.867-18.323-15.051 0-32.065-3.927-37.955-9.162-12.434-11.125-62.168-20.94-68.712-13.742m-86.38 0c-10.47 1.963-24.868 7.852-30.757 13.088-6.544 5.89-22.904 9.816-38.61 9.816-24.867-.655-26.176.654-22.904 14.396 2.618 9.816-.654 20.941-9.161 32.066-7.199 9.162-13.088 19.632-13.088 22.904s-4.581 9.816-9.816 14.397c-11.125 9.161-13.743 62.168-3.272 68.712 5.89 3.926 32.72-41.228 32.72-56.933.654-14.397 22.904-36.646 39.918-39.264 10.47-1.309 16.36-6.544 17.669-17.014 1.309-8.508 7.198-17.015 13.088-18.978 26.176-8.507 66.748-29.448 66.748-34.683 0-4.58-18.977-15.051-21.595-12.434-.654.655-9.816 2.618-20.94 3.927M520.434 2.372c-11.125 7.199 29.448 50.39 52.352 56.279 20.94 5.235 17.668 17.014-4.581 17.014-15.051 0-56.278-37.3-56.278-51.043 0-17.014-25.522-21.595-57.588-11.125C335.894 54.07 221.374 152.23 172.295 255.625c-64.786 136.115-70.021 261.76-17.67 405.727 4.582 14.397 15.706 30.103 22.905 35.338 12.433 7.853 15.705 7.853 25.521-1.963 6.544-5.89 21.595-10.47 32.72-10.47 11.78 0 20.941-1.964 20.941-4.582 0-1.963-9.162-23.558-20.286-47.116-19.632-40.573-20.941-47.771-21.596-121.719 0-77.219 0-79.182 22.904-124.335 17.015-34.03 32.72-53.007 60.205-75.256 20.286-16.36 34.029-32.066 31.411-34.683-2.617-2.618-18.323-.655-34.029 4.58-15.705 5.89-30.756 10.47-33.374 10.47-26.83.655 51.698-64.13 112.557-92.924 54.315-26.176 129.57-44.499 181.268-44.499 39.264 0 58.242-7.853 37.301-15.705-5.89-1.964-51.043-3.927-101.432-3.927-54.97 0-90.961-2.617-90.961-6.544 0-3.272 6.544-7.853 15.05-9.161 7.854-1.31 30.758-5.89 50.39-9.816s56.278-8.508 81.145-10.47c24.867-1.964 49.734-6.545 54.315-11.126 8.507-6.544 9.162-5.89 11.125 9.162 0 4.58 12.434 11.125 26.83 14.397 62.168 13.088 128.263 51.043 175.38 99.468 30.756 32.066 69.365 101.432 70.02 126.954.654 9.161 3.272 22.25 6.544 29.448 4.58 11.779 5.235 11.779 9.816-4.581 7.853-30.102 1.309-69.366-20.941-126.3-10.47-26.83-61.513-96.196-88.344-120.408-13.742-11.78-15.05-20.287-3.272-20.287 22.25 0 115.829 118.446 115.829 146.586 0 3.926 3.272 11.124 7.198 15.05 8.507 8.508 25.522 92.925 25.522 125.645 0 11.78-3.272 33.375-7.199 47.117-8.507 27.485-3.272 54.97 7.199 38.61 3.926-5.236 6.544-19.632 6.544-31.412 0-35.992 16.36-21.595 18.323 17.015 2.618 41.881-18.323 113.21-43.19 144.622-43.845 57.587-136.77 124.99-172.762 124.99-15.705 0-31.41 7.199-31.41 13.742 0 3.272 7.198 5.89 15.705 5.89 20.286 0 36.646 6.544 36.646 13.742 0 3.272-6.544 5.89-14.397 5.89-26.83 0-33.374 9.816-13.742 18.978 17.014 7.852 17.014 8.507 5.89 15.05-7.199 3.927-51.044 7.2-99.47 7.2-92.27 0-98.159-1.31-179.304-39.92-37.301-18.322-102.087-73.946-111.903-96.196-3.272-7.198-8.507-17.669-11.779-22.904s-7.853-15.05-9.816-21.595c-5.89-19.632-17.014-11.78-17.014 11.78 0 28.793 25.521 80.49 55.624 113.865 25.521 28.139 32.72 64.785 11.779 56.278-20.94-7.853-23.558-6.544-29.448 14.397-3.272 11.779-8.507 21.595-11.78 21.595-11.124 0-7.198 36.646 5.236 47.117 15.706 13.742 79.182 42.535 126.953 57.587 53.661 17.014 220.533 18.977 258.488 3.272 12.433-5.236 27.485-9.816 32.065-9.816 14.397 0 95.543-39.264 111.903-54.315 15.05-13.743 15.05-37.301 0-68.712-5.236-11.125-5.236-18.323.654-27.485 4.58-7.198 7.853-20.286 7.853-28.794s5.235-17.668 11.125-19.632c7.852-3.272 9.161-5.89 3.272-11.779-12.434-12.433-9.162-19.632 5.89-15.05 11.778 3.926 13.087 2.617 9.16-9.162-2.617-7.853-1.308-13.743 2.618-13.743s7.199 2.618 7.199 6.544c0 9.816 20.94 7.853 35.337-3.272 16.36-12.433 52.352-12.433 62.823 0 29.448 35.338 78.527-102.74 78.527-221.187-.654-71.33-17.668-142.659-53.006-217.26C1007.962 171.862 920.927 86.79 826.04 39.019 748.166-.245 714.137-1.554 705.629 32.475c-1.963 9.161-9.815 17.669-16.36 20.286-7.198 1.963-14.396 7.853-16.36 13.088-3.926 11.125-43.19 13.743-43.19 3.272 0-3.272 7.853-8.507 17.67-10.47 22.903-5.89 63.476-49.08 52.351-56.278-13.742-9.162-49.08-5.89-53.006 4.58-2.618 7.199-13.088 9.816-36.647 9.816s-34.028-2.617-36.646-9.816c-3.926-10.47-39.264-13.742-53.006-4.58M390.864 141.106c2.617 3.927-4.581 6.544-17.669 6.544-16.36 0-18.978-1.963-11.78-6.544 12.434-8.507 24.214-8.507 29.449 0M796.59 769.328c11.125 4.58 9.162 5.89-8.507 5.89-13.088.654-20.286-1.964-17.669-5.89 4.58-7.853 8.507-7.853 26.176 0M550.537-105.603c-34.683 30.102-49.734 72.638-28.14 81.145 5.236 1.963 16.36-2.617 24.868-10.47 19.632-18.323 22.25-17.669 24.867 7.198 1.309 17.015 5.89 22.25 21.595 26.83 30.757 8.508 55.624-3.926 55.624-28.139 0-23.558 3.927-24.212 23.559-5.89 29.448 27.486 47.116-1.962 24.212-38.609-22.904-37.3-41.227-46.462-87.035-46.462-34.683 0-45.808 2.618-59.55 14.397m83.109 30.757c5.235 0 9.161 2.617 9.161 5.235 0 3.272-14.396 5.235-32.72 5.235-17.668 0-32.72-1.963-32.72-4.58 0-5.89 26.176-11.78 37.956-8.508 5.235 1.309 13.088 2.618 18.323 2.618" style="stroke-width:.654399"/>
</svg>
