<svg xmlns="http://www.w3.org/2000/svg" width="1314" height="960">
    <path d="M591.36 246.65c-3.58 8.354-4.773 50.125-3.58 93.089l3.58 77.573H412.346v131.279H591.36v179.016h131.28V548.591h179.015V417.312H722.64V238.296l-63.252-3.58c-42.964-2.387-64.446 1.193-68.026 11.934m29.837-280.458c-16.708 45.35-48.931 102.636-64.446 113.377-7.16 4.773-27.45 9.547-44.157 9.547-17.902 0-34.61 8.354-39.384 17.902-3.58 9.547-17.901 17.901-31.03 17.901s-27.448 8.354-31.029 17.902c-4.774 9.547-20.288 17.901-35.803 17.901-16.708 0-32.223-8.354-35.803-17.901-4.774-9.548-17.902-17.902-29.836-17.902-21.482 0-22.676 7.16-15.515 83.541 7.16 70.413 4.774 83.541-11.934 90.702-10.741 3.58-19.095 21.482-19.095 39.383-1.194 16.708-8.355 44.158-17.902 60.866s-16.708 41.77-17.902 56.091c0 23.87-5.967 27.45-53.705 27.45-39.383 0-53.704 4.773-53.704 17.901 0 9.548 8.354 17.902 19.095 17.902 21.482 0 101.442 45.35 114.57 64.446 4.774 7.16 9.548 28.642 9.548 46.544s8.354 35.803 17.901 39.383c9.548 4.774 17.902 17.902 17.902 29.836 0 13.128 8.354 26.256 17.901 29.836 9.548 4.774 17.902 20.289 17.902 35.804 0 16.708-8.354 32.223-17.902 35.803-9.547 4.774-17.901 17.901-17.901 29.836 0 21.482 7.16 22.675 83.54 15.515 70.414-7.161 83.541-4.774 90.702 11.934 4.774 10.741 20.289 19.095 40.577 19.095 19.095 0 48.931 8.354 68.026 16.708 17.902 9.548 42.964 20.289 54.899 23.87 14.32 4.773 20.288 19.094 20.288 54.897 0 34.61 4.774 47.738 17.902 47.738 9.547 0 17.901-7.16 17.901-15.515 0-20.288 47.738-107.41 64.446-118.15 7.16-4.774 27.45-9.548 44.157-9.548 17.902 0 34.61-8.354 39.384-17.902 3.58-9.547 17.902-17.901 31.03-17.901s27.449-8.354 31.029-17.902c4.774-9.547 20.288-17.901 35.803-17.901 16.708 0 32.223 8.354 35.803 17.901 4.774 9.548 17.902 17.902 29.836 17.902 21.482 0 22.676-5.967 15.515-79.96-7.16-63.253-4.774-81.155 9.548-91.896 9.547-7.16 20.288-29.836 25.062-48.93 3.58-20.29 14.321-57.286 23.869-83.542 16.708-44.157 21.482-47.737 66.832-51.318 33.417-2.386 48.931-9.547 48.931-21.482 0-9.547-8.354-16.708-19.095-16.708-21.482 0-101.442-45.35-114.57-64.445-4.774-7.161-9.547-27.45-9.547-44.158 0-17.901-8.355-34.61-17.902-39.383-9.548-3.58-17.902-17.902-17.902-31.03s-8.354-27.449-17.901-31.03c-9.548-4.773-17.902-20.288-17.902-35.803 0-16.708 8.354-32.222 17.902-35.803 9.547-4.774 17.901-17.901 17.901-29.836 0-21.482-7.16-22.675-83.54-15.514-70.414 7.16-83.541 4.773-90.702-11.935-4.774-11.934-21.482-19.095-45.35-19.095-21.483 0-48.932-8.354-62.06-17.902-11.934-9.547-34.61-17.901-48.93-17.901C660.58 53.313 657 47.346 657 .8c0-63.252-19.095-81.154-35.803-34.61m84.734 194.53c23.869 0 50.125 8.355 58.479 17.902s26.255 17.902 40.577 17.902c29.836 1.193 59.672 21.482 70.413 50.124 3.58 11.935 13.128 21.482 20.288 21.482 5.967 0 11.935 7.16 11.935 16.708s8.354 19.095 17.901 23.87c9.548 3.58 17.902 16.707 17.902 28.642 0 13.128 8.354 29.836 17.901 38.19s17.902 22.675 17.902 31.03c0 9.547 7.16 27.448 14.321 40.576 11.935 17.902 11.935 26.256 0 38.19-7.16 7.161-14.32 31.03-14.32 52.512 0 20.288-8.355 44.157-17.903 52.511s-17.901 26.256-17.901 40.577c-1.194 27.45-26.256 66.833-44.157 66.833-5.968 0-27.45 15.515-46.545 35.803-19.095 19.095-42.964 35.803-52.511 35.803-10.741 0-25.062 5.968-33.416 14.322-20.289 20.288-96.67 44.157-105.023 32.223-3.58-5.968-26.256-10.741-51.318-10.741-26.256 0-52.512-7.161-60.866-17.902-8.354-9.548-26.255-17.902-40.577-17.902-29.836-1.193-66.832-26.255-66.832-46.544 0-7.16-8.354-16.708-17.902-20.288-9.547-4.774-17.902-14.322-17.902-22.676s-8.354-17.901-17.901-22.675c-9.548-3.58-17.902-16.708-17.902-28.643 0-13.127-8.354-29.836-17.901-38.19s-17.902-22.675-17.902-31.03c0-9.547-7.16-27.448-14.321-40.576-11.935-17.902-11.935-26.256 0-38.19 7.16-7.161 14.321-31.03 14.321-52.512 0-20.288 8.354-44.157 17.902-52.511s17.901-26.256 17.901-40.577c1.194-27.45 26.256-66.833 44.158-66.833 5.967 0 27.449-15.515 46.544-35.803 19.095-19.095 42.964-35.803 53.705-35.803 9.547 0 23.868-5.967 32.222-14.322 21.482-21.482 90.702-42.963 103.83-31.029 5.967 4.774 31.03 9.547 54.898 9.547" style="stroke-width:1.19344"/>
</svg>
