<svg xmlns="http://www.w3.org/2000/svg" width="1200" height="960">
    <path d="M634.623 621.765c3.147 31.476 12.59 44.066 36.197 44.066 48.786 0 44.065-77.115-4.722-83.41-31.475-4.721-36.196 0-31.475 39.344M496.13 602.88c-14.164 36.197 6.295 73.967 36.197 67.672 17.311-3.147 29.901-22.033 33.049-48.787 4.721-34.623-1.574-42.492-28.328-42.492-17.311 0-36.197 11.017-40.918 23.607m280.131-146.36c-28.328 28.327-22.033 70.819 12.59 80.262 39.345 9.442 69.246-25.18 55.082-67.673-11.016-34.622-39.344-40.918-67.672-12.59m-133.77-7.87c-6.295 4.722-11.017 26.755-11.017 47.214 0 25.18 9.443 36.196 29.902 36.196 39.344 0 53.508-22.033 40.918-62.95-9.443-31.476-39.344-40.919-59.803-20.46m-144.787 18.886c-12.59 42.491 1.574 64.524 40.918 64.524 25.18 0 31.475-9.442 26.754-42.492-6.295-53.508-51.934-67.672-67.672-22.032m-141.64 1.573c-14.163 42.492 15.738 77.115 55.083 67.673 34.622-9.443 40.918-51.935 12.59-80.263s-56.656-22.032-67.672 12.59M766.82 325.896c-34.623 37.77-20.46 64.525 29.901 64.525 45.64 0 56.656-15.738 44.066-59.803-11.017-42.492-37.77-44.066-73.967-4.722m-125.902-4.721c-17.311 45.64-9.443 69.246 20.459 69.246 39.344 0 53.508-22.033 40.918-62.95-12.59-37.771-47.213-40.919-61.377-6.296m-143.213 6.295c-4.721 17.312-4.721 37.77 0 47.213 14.164 23.607 70.82 18.885 70.82-6.295 0-69.246-51.935-99.147-70.82-40.918m-138.492 3.148c-12.59 44.065-1.574 59.803 44.066 59.803 50.36 0 64.524-26.754 29.901-64.525-36.196-39.344-62.95-37.77-73.967 4.722m136.918-135.345c-14.164 55.082 12.59 80.263 64.525 56.656 29.901-14.164 48.787-14.164 78.688 0 51.935 23.607 78.689-1.574 64.525-56.656-12.59-50.36-34.623-51.934-73.967-6.295L600 225.175l-29.902-36.197c-39.344-45.639-61.377-44.065-73.967 6.295M274.23 116.585c-37.77 39.344-67.672 80.262-67.672 91.279s-18.885 40.918-42.491 66.098C123.148 316.454 120 329.044 120 454.946c0 103.868 7.869 147.934 31.475 195.147 39.345 77.115 121.18 162.098 212.46 221.902C430.032 914.486 444.196 916.06 600 916.06s169.967-1.574 236.066-44.065c91.278-59.804 173.114-144.787 212.458-221.902C1072.132 602.88 1080 558.814 1080 454.946c0-125.902-3.148-138.492-42.492-180.984-25.18-25.18-44.065-55.082-44.065-66.098 0-31.476-132.197-163.673-162.099-163.673-34.623 0-34.623 39.345 1.574 66.099 51.934 39.344 144.787 223.475 144.787 286.426 0 23.607 7.869 53.508 17.311 69.246 12.59 20.459 9.443 42.492-9.442 88.131-26.754 64.525-169.968 214.033-204.59 214.033-11.017 0-40.918 11.016-64.525 23.606-58.23 29.902-174.689 29.902-232.918 0-23.607-12.59-53.508-23.606-64.525-23.606-34.623 0-177.836-149.508-204.59-214.033-18.885-45.64-22.033-67.672-9.442-88.131 9.442-15.738 17.311-47.213 17.311-72.394 0-55.081 99.148-251.803 141.64-281.704 17.31-12.59 31.475-33.05 31.475-45.64 0-44.065-56.656-20.459-121.18 50.36" style="stroke-width:1.57377"/>
</svg>
