<svg xmlns="http://www.w3.org/2000/svg" width="1765" height="960">
    <path d="M777.247 302.873c5.925 8.886 5.925 13.034 0 18.958-3.555 3.555-7.11 11.85-7.11 17.181 0 6.517-8.294 11.85-27.252 16.59-22.514 5.924-26.069 8.886-23.106 18.365s1.185 11.85-8.295 11.85c-7.11 0-12.441 3.554-12.441 8.294 0 8.887-12.442 15.404-29.03 15.404-5.925 0-15.404 5.332-21.329 11.849s-14.811 11.849-20.143 11.849c-7.703.593-7.703 1.777 1.777 8.887 15.996 11.849 9.48 16.589-32.585 21.328-19.551 2.37-37.325 5.925-39.695 8.295-7.11 7.11 17.774 20.143 45.62 23.698 44.433 5.925 56.283 9.48 50.358 14.811-2.962 2.37-10.664 5.925-16.589 7.11-17.18 2.962-14.811 13.626 3.555 15.404 8.294 1.185 18.959 5.924 22.513 10.664 4.148 4.74 13.627 8.294 21.329 8.294 15.996 0 23.698 9.48 14.811 20.144-4.74 5.332 2.37 11.257 30.808 23.698 43.842 19.551 52.136 29.03 47.397 51.544l-2.963 17.181h398.724l14.219-15.404 14.811-15.996V327.756l-15.404-18.366-15.404-18.367H970.98c-198.473 0-200.842 0-193.733 11.85M686.01 437.36c-5.925 1.185-16.589 1.185-23.698 0-7.702-1.185-2.963-2.37 10.071-2.37 13.034-.592 18.959.593 13.627 2.37m131.525-197.288c-15.996 19.551-2.962 27.253 44.434 27.253h45.027l-1.777-16.589c-1.778-15.403-2.962-15.996-40.88-17.773-29.623-1.185-40.88.592-46.804 7.11M931.286 7.83c-7.11 7.11-42.657 32.585-143.375 101.903-21.328 14.811-61.023 42.657-88.868 62.208-88.869 62.8-135.08 87.09-176.552 93.608-22.514 3.555-28.438 10.664-18.959 22.513 5.925 7.702 4.74 8.887-10.664 8.887-9.48 0-20.736 4.147-24.883 8.887s-16.59 10.072-29.03 11.849c-11.85 1.777-29.031 7.11-39.103 11.85-9.48 4.146-24.29 10.07-32.585 12.44-13.626 4.148-12.442 5.333 11.257 9.48 39.102 6.517 40.88 13.627 5.332 22.513-18.959 4.74-39.102 11.257-81.76 27.253-11.256 4.148-28.437 8.887-37.324 11.257-26.66 5.332-12.442 14.812 23.106 14.812 23.698 0 31.992 2.37 30.808 7.109-2.963 7.702-15.997 11.85-69.91 22.513-77.612 15.404-122.046 25.476-126.786 27.846-8.887 5.924 11.257 13.626 34.955 13.626 13.034 0 39.695 4.148 59.246 8.887 19.55 4.74 43.841 8.295 53.913 8.887 10.072 0 21.921 4.147 26.068 8.887s10.664 8.887 15.404 8.887c4.147 0 9.48 2.962 11.85 6.517 2.962 5.332-7.703 5.924-39.695 3.555-36.733-3.555-41.472-2.963-29.03 3.554 8.294 3.555 18.365 10.072 22.513 14.22s13.034 7.701 18.958 7.701c6.517 0 20.144 3.555 30.808 8.295 27.845 11.256 58.653 21.92 77.612 26.068 25.475 6.517 21.92 15.404-7.702 18.958-33.77 3.555-34.363 13.034-1.777 18.959 13.626 2.37 30.215 7.11 36.732 10.072 6.517 3.554 18.958 6.517 28.438 6.517 8.887 0 20.736 2.962 25.475 5.924 7.702 4.74 7.11 6.517-2.37 13.627-10.071 7.702-8.886 8.887 17.774 18.366 15.997 5.332 37.918 12.441 49.174 15.404 10.664 2.962 22.514 7.702 26.068 11.256s11.85 6.517 18.959 6.517 15.404 2.963 18.959 6.517 11.849 9.48 18.366 13.627c7.11 3.555 34.955 22.513 63.393 42.064 27.845 19.551 55.69 37.918 61.023 41.472 5.332 2.963 24.883 17.182 43.841 30.808 18.367 14.22 34.955 25.476 36.733 25.476 3.554 0 79.981 51.544 93.015 62.8 13.627 12.442 27.846 10.072 52.137-7.702 11.849-9.48 26.068-19.55 31.4-22.513 5.332-3.555 45.027-30.215 87.683-59.246 42.657-29.623 84.13-57.468 91.831-62.208s37.325-24.883 65.17-44.434c28.438-19.551 57.469-39.695 65.17-44.434 7.703-4.74 36.733-24.883 65.17-44.434 27.846-19.552 57.47-39.695 65.171-44.435s49.174-33.177 91.831-62.208c42.657-29.623 82.944-55.69 89.46-59.245 18.367-9.48 11.258-20.736-33.177-51.544-103.68-71.687-121.453-84.129-171.812-120.269-29.03-21.328-57.468-40.287-62.208-42.657s-29.03-18.958-54.506-36.732c-24.883-18.366-62.8-45.027-84.129-59.838-21.92-14.812-55.69-39.102-76.427-53.914-20.143-14.811-39.694-28.438-43.25-29.623s-21.92-13.626-41.471-27.845C950.245-6.39 947.282-8.167 931.286 7.829m79.982 98.348c25.475 18.959 50.358 36.14 55.098 38.51s33.178 21.328 62.208 42.657c61.023 43.841 107.235 75.834 253.571 176.552 20.736 14.219 49.767 34.362 63.986 45.026 14.219 10.072 42.657 30.808 63.393 45.027 20.143 14.811 36.732 30.215 36.732 33.77 0 6.517-17.774 19.551-85.906 63.985-30.808 19.552-302.153 204.398-386.874 263.051-23.699 16.589-47.99 32.585-53.322 36.14-5.332 2.962-20.143 13.627-32.585 23.106-27.253 20.143-47.396 21.328-66.355 3.555-13.626-13.034-14.811-17.774-15.996-94.201l-1.778-80.574-40.88-1.777c-29.03-1.185-42.656.592-45.618 5.924-2.963 4.147-5.332 26.068-5.332 48.582 0 47.989 2.37 47.989-69.91-1.185-27.253-18.367-55.691-37.918-63.393-42.657-36.732-23.699-87.091-58.653-127.378-88.869-24.291-18.366-53.914-38.51-65.17-45.026-36.14-19.552-37.325-33.178-1.778-27.846 16.589 2.962 20.736 1.777 18.366-4.74-1.777-4.74-7.702-9.479-14.219-10.664-5.924-1.185-14.811-4.74-19.55-8.294-8.888-7.702-51.545-20.736-82.352-26.068-10.665-1.778-20.736-5.332-21.921-8.295-4.147-6.517 40.287-29.03 58.06-29.03 7.11 0 15.997-2.37 18.96-5.332 3.554-2.962 14.81-7.702 26.067-10.664 28.438-7.11 30.808-19.551 4.147-19.551-24.883 0-33.177-9.48-14.218-17.774 7.701-3.555 21.92-11.257 31.4-17.774 10.071-6.517 21.92-13.626 26.66-15.996 4.74-1.778 20.736-15.404 34.363-29.623 14.219-13.627 28.438-25.476 31.4-25.476s22.513-11.849 42.657-26.66c52.136-38.51 130.34-93.608 141.597-100.718 17.774-10.664 78.204-52.729 125.008-87.683 25.476-18.367 52.729-33.77 60.43-33.77 7.703 0 34.956 15.403 60.432 34.362" style="stroke-width:.592457"/>
</svg>
