<svg xmlns="http://www.w3.org/2000/svg" width="1850" height="960">
    <path d="M870.137 274.543c-24.715 16.948-46.605 31.07-48.724 31.07s-15.535 9.18-30.364 21.185c-14.829 11.298-28.951 21.184-31.07 21.184-2.824 0-14.123 7.062-25.42 15.535-20.479 14.83-21.185 16.948-21.185 74.145 0 45.193 2.118 58.61 9.886 58.61 4.943 0 13.417-4.943 18.36-10.592s11.298-10.593 14.829-10.593c2.824 0 25.42-13.416 50.136-29.657 50.136-33.895 62.846-41.663 96.035-58.61 21.184-11.298 24.008-11.298 45.899 0 32.482 16.947 45.193 24.715 95.329 58.61 24.715 16.24 47.311 29.657 50.136 29.657 3.53 0 9.886 4.943 14.829 10.593s13.416 10.592 18.36 10.592c7.767 0 9.885-13.417 9.885-58.61 0-57.197-.706-59.316-21.184-74.145-11.298-8.473-21.89-15.535-24.009-15.535s-23.302-13.417-48.017-30.364-49.43-32.482-55.08-35.307c-5.648-2.825-23.302-12.71-38.837-22.596-15.535-9.18-29.658-16.948-31.776-16.948s-23.303 14.123-48.018 31.776M487.41 210.285c-13.417 4.943-32.483 9.886-41.662 9.886-9.18.706-31.07 4.943-49.43 10.592-41.663 13.416-87.562 24.715-127.812 32.482-17.653 3.53-43.78 11.298-57.903 16.948-21.184 9.18-26.834 15.535-26.834 30.364 0 9.886-4.236 34.6-9.886 54.372s-15.535 61.435-21.89 92.505-16.241 72.732-21.89 92.504c-16.242 57.904-13.417 76.264 15.535 100.978 26.833 24.01 38.131 23.303 38.131-2.824 0-9.18 3.531-25.421 7.768-36.72 4.943-10.592 10.592-32.482 13.417-48.017 12.71-70.614 41.662-173.004 48.017-173.004 2.825 0 74.145 68.495 158.882 152.526l153.232 152.526v129.93c0 71.32 1.413 129.93 3.531 129.93 2.825 0 23.303-12.71 46.605-28.246 23.303-15.535 44.487-28.245 46.606-28.245s15.535-9.886 30.364-21.184c14.829-12.005 29.658-21.185 33.188-21.185 2.825 0 47.312 41.663 97.448 91.799 50.136 50.842 96.741 91.798 102.39 91.798s52.255-41.662 102.39-91.798c50.137-50.842 94.623-91.799 97.448-91.799 3.53 0 18.36 9.18 33.189 21.185 14.828 11.298 28.245 21.184 30.364 21.184s23.302 12.71 46.605 28.245 43.78 28.246 46.605 28.246c2.119 0 3.531-58.61 3.531-129.93v-129.93l153.232-152.526c84.737-84.03 156.057-152.526 158.882-152.526 6.355 0 35.307 102.39 48.018 173.004 2.824 15.535 8.473 37.425 13.416 48.018 4.237 11.298 7.768 27.54 7.768 37.425 0 22.597 18.36 21.89 43.78-2.118 22.597-21.89 24.715-42.369 9.886-96.742-5.649-19.772-15.535-61.434-21.89-92.504s-16.241-72.733-21.89-92.505-9.886-44.486-9.886-54.372c0-14.83-5.65-21.185-26.127-30.364-14.83-5.65-36.014-12.005-48.018-14.123-11.298-2.119-36.72-7.768-56.491-13.417-55.785-14.829-96.741-25.421-127.105-31.07-15.536-3.53-43.075-9.886-61.435-15.535l-33.895-9.18-28.245 27.54c-14.829 14.828-26.127 29.657-24.715 32.482 4.943 7.061 179.36 55.079 266.921 73.439 41.662 8.473 33.189 21.184-105.215 159.587-73.438 73.439-138.403 133.461-144.759 133.461s-24.008-9.18-38.837-19.772c-14.83-11.298-32.483-21.89-38.132-24.715s-19.066-10.592-29.658-17.653c-28.952-19.066-117.925-74.851-131.342-82.619-6.355-4.237-31.776-20.478-56.491-37.425-24.715-16.242-50.842-29.658-57.904-29.658-7.061 0-33.188 13.416-57.903 29.658-24.715 16.947-50.136 33.188-56.492 37.425-13.416 7.768-102.39 63.553-131.342 82.619-10.592 7.061-24.009 14.829-29.658 17.653-5.649 2.825-23.302 13.417-38.131 24.715-14.83 10.592-32.483 19.772-38.838 19.772s-71.32-60.022-144.759-133.46C289.69 351.512 281.216 338.801 322.878 330.328c10.592-2.119 38.132-8.474 60.728-14.123 21.89-5.65 60.022-15.535 84.737-21.89 135.58-34.601 133.46-32.483 99.566-67.084-28.952-29.658-40.956-31.776-80.5-16.947m509.834 561.382c34.6 23.302 66.377 42.368 69.907 42.368s6.356 5.65 6.356 12.004c0 15.535-133.46 150.408-148.29 150.408s-148.29-134.873-148.29-149.701c0-7.062 2.825-12.711 6.356-12.711 4.237 0 34.6-19.066 69.202-42.368 33.894-22.597 66.377-41.663 71.32-42.369 5.649 0 38.131 19.066 73.439 42.369"/>
</svg>
