<svg xmlns="http://www.w3.org/2000/svg" width="1320" height="960">
    <path d="M744.985 206.433c-1.482 7.906-6.917 53.363-11.364 100.797-6.423 66.21-6.918 92.396-2.965 113.643 6.424 36.069 15.317 57.81 20.258 51.88 8.4-9.388 14.823-87.95 10.376-125.501-2.47-20.258-4.94-58.304-5.435-83.997 0-25.694-1.976-52.375-3.952-59.292l-3.953-12.353zm-177.876 2.47c-4.94 29.153-14.823 164.042-13.835 187.759.989 30.14 11.859 74.609 17.788 74.609 2.965 0 7.906-16.305 11.858-36.07 5.93-30.14 5.93-47.433 1.483-102.772-3.459-36.564-6.424-79.056-6.424-93.88 0-14.822-1.976-31.622-4.447-37.057-2.964-8.4-3.952-7.411-6.423 7.412m343.4 627.014c-4.941 2.964-1.977 6.917 11.364 15.317l17.788 10.87 12.352-11.364c6.423-5.93 11.859-12.847 11.859-15.317 0-5.435-44.964-4.941-53.363.494m-206.534 77.08c-4.941 12.846 5.435 18.775 25.199 15.317 13.34-2.47 17.293-5.93 16.305-11.859-1.976-11.858-37.551-14.823-41.504-3.459m-128.466 0c-4.447 10.87-.494 13.34 21.246 14.328 15.811.495 18.776-.988 18.776-9.388 0-7.905-3.953-10.376-18.776-11.364-13.34-.988-19.27.494-21.246 6.423m-219.38-77.574c0 2.47 5.434 9.388 11.858 15.317 11.858 11.364 12.352 11.364 27.175 2.47 8.4-4.94 14.823-11.364 13.835-14.329-1.976-5.929-52.869-9.882-52.869-3.458m400.22-201.593c0 4.94 4.447 11.858 10.377 15.317 8.4 4.447 12.352 3.459 22.234-5.93 14.823-13.834 11.364-19.27-13.34-19.27-15.812 0-19.27 1.483-19.27 9.883m-234.203-5.435c-1.482 1.976 2.47 8.894 8.894 14.823 9.882 9.388 13.835 10.376 22.234 5.929 5.93-3.459 10.376-10.376 10.376-15.317 0-8.4-3.458-9.882-19.27-9.882-10.87 0-20.752 1.976-22.234 4.447M656.047-74.71c-1.976 29.152-3.459 88.938-3.459 133.407 0 43.975-2.47 130.937-5.435 193.193-2.964 61.763-6.917 144.772-8.4 184.3l-3.458 71.644-32.117 3.46c-17.787 1.481-55.833 4.446-84.49 6.422l-52.375 3.953-2.965-53.363c-1.976-29.646-3.953-78.068-3.953-108.208-.494-45.457-5.435-91.902-8.894-82.02-.494 1.482-3.952 57.315-7.905 124.513-3.459 67.198-7.906 124.513-9.882 127.478-1.482 2.47-7.906 4.94-13.835 4.94s-19.27 2.965-30.634 6.918c-10.87 3.459-33.105 10.87-49.41 15.317-16.306 4.941-31.623 10.87-34.093 13.341-2.965 1.976-8.894 3.953-13.34 3.953-6.918 0-8.895-6.423-11.365-33.599-5.93-64.233-12.847-211.969-12.847-292.507-.494-44.963-2.47-90.42-4.447-101.29-2.47-10.871-4.447-18.777-4.94-17.294-3.953 16.8-15.812 227.78-18.282 321.165-1.483 66.703-3.459 127.972-4.941 136.371-1.483 11.365-8.4 19.764-29.152 34.587-14.823 10.377-27.176 20.753-27.176 22.73 0 9.881-14.823 2.964-14.823-7.412 0-16.8-13.835-204.064-18.281-243.098l-3.46-34.587-3.458 32.117c-1.976 17.787-3.459 71.15-3.953 118.584s-3.458 110.678-5.929 140.818c-10.87 122.537-10.87 135.384-1.482 154.654 21.246 41.998 74.115 99.808 90.42 99.808 2.965 0 5.435 1.976 5.435 3.953s11.859 9.882 26.188 17.293c13.834 7.412 29.151 15.317 33.104 17.788 28.164 15.317 39.528 20.258 47.928 20.258 4.941 0 13.34 3.459 18.282 7.412 5.435 3.952 15.811 7.411 22.728 7.411s15.317 2.47 17.788 4.941c2.965 2.965 16.305 7.412 29.646 9.882s34.093 6.423 46.445 9.388c119.079 26.681 288.06 26.681 400.222-.494 12.352-2.965 31.128-6.918 41.998-8.894 32.117-6.423 79.55-24.21 134.89-50.892 72.138-34.587 121.548-80.045 151.194-137.854 9.388-19.27 9.388-48.916-1.482-132.42-2.47-20.257-5.435-77.079-5.93-125.995-.988-106.231-5.435-165.523-10.376-143.289-5.435 23.223-12.846 101.785-16.799 176.394-2.47 50.398-4.94 68.186-9.882 68.186-3.459 0-6.917-1.482-7.906-3.953-2.47-5.435-41.504-35.575-46.445-35.575-2.47-.494-9.882-4.941-16.305-10.376-10.376-8.894-12.353-15.811-16.306-60.28-1.976-27.67-5.929-124.514-8.4-214.934-2.47-90.915-5.928-166.018-7.41-167.5-1.483-1.976-2.965-1.976-2.965-.988s-3.459 29.646-7.412 63.739c-4.447 34.093-8.894 120.56-10.376 192.699-1.482 72.138-3.459 136.371-4.94 142.795-2.966 13.34-7.412 12.846-63.74-4.447-18.776-5.93-41.01-11.859-49.41-13.835l-14.823-3.953-2.965-78.562c-1.976-43.48-3.458-88.444-3.952-100.302 0-11.364-2.47-20.752-4.941-20.752-6.424 0-11.365 29.646-17.294 113.643l-5.435 76.585-17.293-.988c-39.528-1.976-143.29-13.34-148.23-16.305-2.965-1.977-6.918-78.068-9.883-205.546-3.952-174.417-16.799-420.48-21.74-425.42-.494-.988-2.965 22.234-4.447 50.892m-18.776 635.907c2.965 3.953 6.424 18.776 7.412 33.599s3.953 37.057 5.435 49.41c2.47 15.317 1.976 24.21-1.976 26.187-2.965 1.977-6.918-.494-8.4-5.435-2.47-8.4-4.941-14.823-22.235-53.363-18.281-42.492-19.27-47.433-7.905-51.88 15.317-5.93 21.246-5.93 27.67 1.482m80.539.988c2.964 2.965-4.941 28.164-13.835 44.47-2.965 5.434-6.918 16.305-8.894 23.716-5.93 24.211-12.847 8.894-12.847-28.164 0-19.764 1.483-37.551 3.46-39.033 3.952-3.953 28.163-4.447 32.116-.989m-147.242 20.753c4.94 10.376 11.858 26.187 15.811 35.08 3.459 8.894 9.882 23.223 13.835 32.117 12.352 28.164 27.67 67.198 27.67 69.668 0 8.4-19.765 0-54.846-24.21-21.74-14.824-41.01-27.176-42.492-27.176s-10.87-6.423-20.753-13.835c-9.882-7.906-21.74-15.317-26.187-17.293-4.447-1.483-9.882-10.377-11.364-19.764-7.906-41.01 4.94-52.87 56.821-52.87h32.117zm282.131-8.4c11.364 9.388 9.388 39.528-3.459 52.869-5.929 6.423-12.846 11.364-15.317 11.364s-12.846 6.423-23.222 14.823c-10.377 7.905-19.764 14.823-21.247 14.823s-20.752 12.352-42.492 27.175c-55.834 38.046-63.245 36.07-41.999-10.87a3736 3736 0 0 0 28.658-66.703c3.953-8.894 10.87-24.705 16.305-35.576l8.894-18.775 42.987 2.47c24.21.988 46.94 4.941 50.892 8.4M430.243 586.89c0 3.953-3.458 7.412-7.411 7.412s-7.412-3.459-7.412-7.412 3.46-7.411 7.412-7.411 7.411 3.459 7.411 7.411m-26.681 25.2c31.128 20.752 34.093 32.116 13.835 55.833-14.33 17.293-24.211 18.776-56.328 8.4-12.352-3.953-35.08-10.87-50.398-15.812-24.21-7.411-28.658-10.376-28.658-20.258 0-6.917 3.459-12.846 8.894-14.329 4.447-1.482 15.317-5.929 23.223-9.388 20.752-9.388 53.363-21.74 58.304-21.74 2.47-.494 16.305 7.411 31.128 17.293m569.203-8.894c30.635 10.87 45.458 23.222 45.458 38.54 0 12.846-16.8 26.68-32.61 26.68-5.93 0-18.777 3.46-28.165 7.412-28.658 11.859-41.01 9.882-52.374-9.388-17.294-27.67-12.847-39.528 24.21-63.738 15.812-9.882 12.847-9.882 43.481.494M857.64 672.37c-1.482 7.411-5.435 21.74-8.4 31.622-3.952 13.34-3.952 20.258 0 25.2 4.447 4.94 3.953 9.387-1.976 17.293-6.917 10.376-11.364 10.87-74.115 10.87-36.564 0-66.21-1.976-66.21-3.953 0-3.459 26.682-25.693 31.129-25.693.988 0 27.175-16.8 57.81-37.058 30.634-20.258 57.81-35.575 59.786-34.093 2.47 1.483 3.458 8.4 1.976 15.812m243.592-1.977c28.657 23.223 41.504 40.022 39.528 53.363-1.483 9.882-5.93 11.859-29.646 15.811-15.812 1.977-34.093 2.47-41.505.989-12.352-3.46-12.846-3.953-9.388-34.093 3.953-33.105 9.882-52.87 15.811-52.87 2.47 0 13.341 7.906 25.2 16.8m-863.688 36.07c0 16.8-1.976 31.622-4.447 33.104-1.976 1.483-15.317 1.483-29.646-.494-23.222-2.47-25.199-3.953-25.199-15.81 0-13.342 23.717-43.976 41.999-53.858 13.835-7.411 17.293 0 17.293 37.058m293.99-10.87c26.681 17.787 48.916 32.116 50.398 32.116 4.447 0 31.128 21.74 31.128 25.693 0 6.423-125.501 4.941-132.418-1.976-6.918-6.918-8.4-87.95-1.483-87.95 2.47 0 26.188 14.329 52.375 32.116m-202.581-9.389c13.835 3.953 33.599 9.388 44.469 11.365 10.87 2.47 28.164 7.905 38.54 12.352 16.305 6.918 18.775 10.376 17.293 21.74-.988 10.871-4.447 13.836-17.293 14.824-8.894.988-20.753-.988-26.188-3.953-10.376-5.435-10.376-6.423-1.976-15.317 7.411-7.906 7.411-9.388.494-11.859-3.953-1.976-14.823-2.47-24.21-1.482-20.753 1.977-22.235 14.823-1.483 19.27 13.835 2.47 13.835 2.965-7.412 6.423-12.352 1.977-33.104 2.965-46.94 1.977-24.21-1.483-24.704-1.977-26.187-18.282-.988-9.388-.494-24.705 1.483-34.093 2.47-14.329 4.447-16.305 13.835-13.835 5.929 1.977 22.234 6.918 35.575 10.87m691.74 26.682c0 26.187-.494 27.175-14.329 28.658-8.4.988-24.705 0-37.057-1.977-21.247-3.458-21.74-3.952-7.906-6.423 20.752-4.447 19.27-17.293-1.482-19.27-9.388-.988-20.258-.494-24.211 1.482-6.918 2.471-6.918 3.953.988 12.353 8.4 9.388 7.906 9.882-4.94 15.811-15.812 6.918-28.659.988-31.13-14.823-1.976-12.846 24.212-30.634 43.976-30.634 7.411 0 20.752-3.459 29.646-7.412 9.388-3.952 23.717-6.917 31.622-5.929 14.33.988 14.823 1.482 14.823 28.164m-333.518 51.386c0 1.483 1.483 5.435 2.965 9.882 2.47 5.93-2.47 7.412-29.646 7.412-33.599 0-37.057-1.977-26.187-15.317 11.858-14.823 24.21-18.282 39.034-10.87 7.411 3.952 13.834 7.905 13.834 8.893m-449.137-2.47c1.977 1.482 4.941 14.823 6.918 29.152l3.458 25.693-17.787 7.411c-22.729 9.388-23.717 9.388-38.54-3.952-21.246-18.776-31.128-60.28-14.823-63.74 11.364-2.47 56.822 1.483 60.774 5.436m913.098-1.482c4.94 4.446-11.365 49.904-22.235 60.28-12.847 12.846-8.894 13.34-67.692-2.47-7.411-1.977-8.4-6.918-7.411-30.14l1.482-28.165 37.058-2.964c33.598-2.47 53.362-.988 58.798 3.459m-734.233 6.423c15.81 5.93 17.787 22.234 3.952 30.14-11.858 5.93-49.904 6.423-58.797.494-5.436-3.459-5.436-4.447.988-6.917 4.447-1.977 7.905-6.424 7.905-10.87 0-5.436-5.435-7.412-22.234-7.412-20.258 0-22.235.988-22.235 11.858 0 6.424 3.459 14.823 8.4 18.282 7.412 6.423 6.423 7.412-6.423 9.882-7.906 1.976-24.705 3.459-37.552 3.953l-23.717.494v-20.258c0-39.528 2.47-41.01 73.621-37.552 34.093 1.483 68.186 4.941 76.092 7.906m605.767 1.482c14.823 41.505 9.882 50.892-24.705 45.457-18.282-2.964-18.776-3.952-11.859-11.858 3.953-4.447 7.412-12.847 7.412-18.776 0-9.388-2.47-10.87-22.235-10.87-16.8 0-22.234 1.976-22.234 7.411 0 4.447 3.458 8.894 7.411 10.377 13.835 5.435 1.976 11.858-21.74 11.858-29.152 0-39.528-8.894-31.129-27.176 5.93-12.846 15.812-14.823 79.056-16.305 33.105-.988 36.07 0 40.023 9.882m-489.16 6.918C559.204 780.578 545.37 787 508.805 787c-27.175 0-34.093-1.482-34.093-7.412 0-7.905 29.152-10.376 58.798-4.446m316.719 4.446c0 5.93-7.412 7.412-36.564 7.412-20.258 0-38.046-1.976-40.022-4.447-3.459-5.93 11.364-8.894 48.422-9.882 22.234-.494 28.164.988 28.164 6.917m-227.287 12.353c0 5.93-132.913 137.36-148.23 147.242-9.388 5.435-9.882 4.94-9.882-10.87 0-13.835 2.47-18.282 13.341-23.717 18.776-8.894 19.764-20.752 2.965-28.164L467.3 870.01l11.364-7.412c12.847-8.894 14.33-18.776 2.965-23.222-4.941-1.977-6.918-7.906-5.93-18.776l1.483-16.306 39.528-3.458c21.74-1.977 47.434-5.435 56.821-8.4 23.717-5.93 49.41-6.423 49.41-.494m130.937 2.47c16.305 3.953 41.504 6.918 56.327 7.412 30.14 0 44.964 9.388 44.964 28.164 0 8.893-2.47 11.364-12.847 11.364-16.305 0-14.823 16.305 1.976 18.776 12.847 1.976 14.823 15.811 2.47 15.811-15.316 0-22.728 7.906-18.775 19.27 1.976 7.411 7.412 10.376 17.788 10.376 13.34 0 14.329.988 14.329 20.258 0 14.823-1.977 19.764-6.918 18.282-9.388-1.977-156.136-145.266-156.136-152.183s21.74-5.93 56.822 2.47m-324.624 42.493c1.482 16.8 0 18.776-19.764 27.67-26.187 11.858-54.845 23.716-78.068 31.622-17.787 5.93-29.152 1.976-94.867-32.61-14.329-7.906-8.894-19.765 9.882-20.259 8.894 0 18.776-2.964 21.74-5.929 3.46-3.459 18.282-5.929 33.105-6.423 15.317 0 35.575-2.965 44.963-6.918 9.388-3.458 31.623-5.929 49.41-5.929l32.117.988zm218.887 41.999c-1.483 66.21-6.918 83.997-25.2 82.514-78.562-5.435-97.831-7.905-104.255-11.858-5.435-3.459 7.412-18.776 57.316-68.68 35.575-35.081 66.21-63.245 69.174-62.75 2.965.987 3.953 25.198 2.965 60.774m95.855 1.976c49.904 49.904 62.75 65.221 57.316 68.68-3.953 2.47-26.188 5.93-49.41 7.906-23.223 1.482-46.94 3.952-52.375 4.94-21.74 4.447-24.705-3.458-27.67-72.632-2.47-65.221-1.976-73.127 4.447-73.127 1.977 0 32.61 29.152 67.692 64.233m227.286-56.822c10.87 3.953 29.152 6.918 40.516 7.412 11.365 0 22.235 2.47 23.717 5.435 1.977 2.47 9.388 3.459 16.8 1.976 16.305-3.458 40.022 4.447 40.022 13.341 0 6.918-1.483 7.906-51.88 32.61-33.6 16.8-34.094 16.8-56.328 8.895-72.633-24.705-89.432-34.093-89.432-51.387 0-7.905 2.47-16.305 5.929-19.764 7.905-7.905 46.445-7.411 70.656 1.482m-537.087 80.045c5.93 27.175 4.447 31.128-10.376 31.128-16.8 0-68.186-17.294-67.198-22.729.495-2.47 11.365-8.4 23.717-13.34s26.188-11.365 30.14-13.341c14.33-8.4 18.776-4.941 23.717 18.282m513.37-2.47c12.353 5.434 20.752 10.87 18.776 12.846-3.953 4.447-57.81 20.752-67.692 20.752-6.917 0-8.893-3.953-8.893-16.8 0-36.069 8.4-38.54 57.81-16.799" style="stroke-width:.4941"/>
</svg>
