<svg xmlns="http://www.w3.org/2000/svg" width="1338" height="960">
    <path d="M298.283-30c-6.867 0-13.573.412-20.247 1.207-16.03 1.958-30.565 5.51-44.45 10.392-14.795 5.423-27.562 12.952-38.684 22.392-11.877 7.974-22.026 17.197-30.706 27.756l-.268.201c-8.239 9.92-15.612 21.141-21.722 33.053l-.47 1.005c-5.08 9.749-10.025 21.505-14.213 33.656l-.603 1.877c-3.776 11.19-5.967 24.056-5.967 37.478v1.072c-.75 4.826-1.207 10.383-1.207 16.024 0 8.362.945 16.44 2.749 24.27a397 397 0 0 0 10.325 36.672c6.693 15.276 14.63 28.38 24.001 40.36 10.118 12.901 21.722 24.05 34.729 33.321l.536.335 71.066 47.4c7.724 7.758 15.99 14.96 24.605 21.722l.537.47c9.233 7.208 17.484 14.433 25.208 22.19l29.633 29.634c9.714 9.715 18.458 20.415 26.147 31.846l.47.737c7.894 9.863 14.789 19.257 20.716 28.159a717 717 0 0 1 17.766 28.09c9.268 12.839 17.673 27.462 24.538 42.909l.67 1.609a955 955 0 0 1 19.242 47.332c7.895 21.718 14.79 42.959 20.717 63.692 5.492 18.399 9.673 40.005 11.732 62.283l.134 1.408c1.854 5.286 2.95 11.35 2.95 17.7s1.093 12.47 3.084 18.168l-.134-.335c0 8.376.58 16.538 1.61 24.605l-.135-.938c.927 7.105 1.475 15.325 1.475 23.666l5.967 35.533c2.254 13.226 5.296 24.738 9.05 35.935 4.341 14.77 10.234 27.755 17.633 39.623 8.204 13.181 18.003 24.383 29.365 33.857l.269.201c23.032 20.733 52.535 34.674 85.145 38.416l.737.067c7.964 1.785 17.144 2.847 26.55 2.95h.066c8.41 0 16.612-1.059 24.404-3.084l-.67.134h1.006c11.265 0 21.96-2.184 31.845-6.1 9.797-3.943 20.56-8.762 32.315-14.616 20.63-12.804 37.487-29.769 49.948-49.747l.402-.67c9.474-11.293 16.98-24.566 21.923-39.086l.268-.872c4.566-13.181 8.166-28.688 10.19-44.718l.202-1.207a137 137 0 0 1 1.475-19.241l.067-.805a133 133 0 0 0 1.408-18.437 439 439 0 0 0 4.425-35.533 283 283 0 0 1 4.425-32.583l.134-.939c.055-.277.078-.594.134-.871a3622 3622 0 0 0 5.631-35.198c2.102-13.494 5.093-25.474 8.917-37.008l.067-.134c.16-.478.24-.999.403-1.475l14.28-45.724 17.833-47.4a1967 1967 0 0 1 23.667-45.857c8.71-16.186 17.317-29.891 26.683-42.975 11.854-13.822 23.211-27.12 34.058-39.958a7126 7126 0 0 1 34.058-40.025c7.895-5.927 15.28-11.84 22.192-17.767 6.91-5.927 13.314-11.84 19.241-17.766l23.666-17.834c6.866-5.286 14.693-10.192 22.862-14.414l.872-.402 29.633-20.717 29.566-23.666c7.964-8.033 15.334-16.71 21.856-26.013l.403-.67c6.625-9.372 12.144-20.111 16.023-31.645l.268-.872v2.95c5.39-12.014 9.502-25.972 11.733-40.561l.067-.939c.961-6.659 1.475-14.365 1.475-22.191 0-7.69-.614-15.267-1.61-22.66-1.953-7.79-3.876-16.539-5.832-26.215-1.91-9.821-4.874-18.542-8.85-26.683l-.067-.134c-7.691-15.531-15.88-28.812-25.074-41.299l-.134-.201c-9.647-12.515-20.887-23.167-33.455-32.047l-.469-.335c-9.371-7.552-20.144-14.032-31.712-18.906l-.871-.336c-11.156-4.737-24.154-8.37-37.679-10.257l-.804-.134c-9.371-1.888-20.224-2.95-31.242-2.95h-1.408c-12.105.004-23.97 1.068-35.533 3.017l-1.274.134c.37-.065.77-.004 1.14-.067-16.53 4.16-30.985 9.556-44.584 16.358-14.47 7.22-26.575 14.317-38.215 22.058l-.805.536c-.118.08-.284.122-.402.201-11.452 7.596-22.828 14.777-34.26 21.454-10.537 6.248-23.191 12.706-36.27 18.37l-2.28.872-2.95 1.475v313.16c0 11.601-1.094 22.918-3.083 33.924-2.157 11.55-5.174 21.868-9.118 31.644l.335-1.14c-9.72 21.6-22.131 40.182-37.075 56.317l-.067.067c-15.214 15.9-33.305 28.842-53.568 37.947l-1.072.47c-6.9 3.535-15.185 7.004-23.8 9.922l-1.409.402c-8.272 2.815-17.736 4.425-27.622 4.425h-.469c-3.81 1.27-8.14 2.011-12.671 2.011-2.232 0-4.434-.182-6.57-.536-6.488-.927-13.968-1.475-21.588-1.475h-.604c-12.175-1.997-22.612-4.49-32.851-7.51-10.95-3.42-20.53-7.778-29.365-13.207l-.335-.2c-.068-.043-.134-.093-.202-.135-17.775-10.044-32.823-22.798-45.12-37.88l-.268-.268c-12.46-15.31-22.883-32.942-30.572-51.958l-.47-1.341c-1.99-5.939-3.975-11.382-5.966-16.359-1.888-4.668-2.95-10.091-2.95-15.755v-.536l-2.95-22.192V55.615c0-.962-.959-1.475-2.95-1.475-9.863-5.927-18.721-10.88-26.616-14.817-9.062-4.634-16.826-9.558-24.069-15.085l.336.268c-11.854-5.927-23.211-11.84-34.059-17.766C395.98.813 385.604-5.1 375.718-11.027c-13.696-7.14-29.51-12.76-46.193-16.09l-1.14-.201C319.324-29.035 308.926-30 298.284-30m918.362 160.703c.036.142.099.329.134.47l-.134-.872c.018.13-.018.272 0 .402M663.737 58.632c-4.816 0-9.549.508-14.079 1.474h-.067c-10.469 2.433-19.426 5.392-28.091 8.917l-.067.067c-20.695 9.064-37.777 23.207-50.015 40.964l-.2.402c-11.157 16.889-17.767 37.592-17.767 59.87 0 .824-.035 1.657 0 2.48v195.902c0 5.56.579 10.972 1.609 16.224l-.134-.536c.858 3.982 1.406 8.572 1.475 13.275v.067c5.248 18.642 13.832 34.87 25.14 48.807v.067c10.869 12.799 26.15 23.13 45.859 31.041 10.778 5.596 23.517 8.85 37.008 8.85 13.917-.1 27.34-2.173 40.025-5.9l1.005-.268c-.216.065-.453.07-.67.134 8.823-2.395 16.568-5.835 23.6-10.391h.066c7.701-4.826 14.416-10.193 20.448-16.158a139.8 139.8 0 0 0 26.282-34.728l.402-.805c5.63-11.534 8.85-25.04 8.85-39.355 0-.677.028-1.4 0-2.078V167.51c0-8.51-1.12-16.748-3.084-24.672-7.492-23.141-20.78-42.658-38.215-57.456l-.201-.134c-17.759-14.806-39.424-23.173-65.1-25.142-4.222-.96-9.102-1.474-14.079-1.474m117.594 84.206c.016.048.052.086.068.134l-.135-.737c.05.193.02.41.067.603" style="stroke-width:34.3263"/>
</svg>
