<svg xmlns="http://www.w3.org/2000/svg" width="1156" height="960">
    <path d="M697.053 537.492c-5.096 6.188-49.14 79.353-54.965 92.093-1.456 2.912-5.824 10.192-9.828 16.38-4.004 5.825-8.736 14.197-10.92 18.2-2.184 4.005-6.188 11.285-9.1 16.381s-5.46 13.104-5.46 18.2 2.548 13.104 5.46 18.2 6.916 12.376 9.1 16.38 6.916 12.013 10.92 18.2c4.004 5.825 8.736 14.197 10.92 18.2 2.184 4.005 6.916 12.013 10.92 18.201 4.004 5.824 8.373 13.468 9.829 16.38s14.196 25.116 28.392 49.14 26.936 46.23 28.392 49.141 5.824 10.192 9.828 16.38c4.004 5.824 8.736 14.197 10.556 18.2 2.184 4.005 6.916 11.285 10.92 16.38 6.189 7.645 7.645 8.009 13.105 3.64 3.276-2.911 7.644-8.371 9.464-12.74 1.82-4.003 4.732-9.827 6.916-12.74 5.096-8.008 34.58-58.968 37.492-65.52 1.456-2.912 5.824-10.556 9.828-16.38 4.004-6.188 8.736-14.196 10.92-18.2 2.184-4.005 7.644-13.833 12.74-21.84 9.465-15.653 11.649-29.121 5.097-32.761-1.82-1.456-5.096-6.188-7.28-10.192-1.82-4.368-4.733-10.556-6.917-13.468-1.82-2.912-16.016-26.937-30.94-52.78-14.924-26.21-29.12-49.87-30.94-52.781-2.184-2.912-5.46-8.737-7.28-12.74-2.184-4.005-6.916-12.377-10.92-18.2-4.004-6.189-8.737-14.197-10.92-18.2s-6.917-12.377-10.557-18.201c-4.004-6.188-10.556-17.472-14.924-25.48-7.28-13.833-16.744-23.66-21.84-23.66-1.456 0-5.096 2.911-8.008 6.187m-254.803-1.82c-3.276 2.548-9.464 11.285-13.832 19.293s-10.92 19.292-14.924 25.48c-3.64 5.824-8.372 14.196-10.556 18.2s-6.916 12.012-10.92 18.2c-4.004 5.824-8.736 14.196-10.92 18.2-1.82 4.004-5.096 9.829-7.28 12.74-1.82 2.913-16.017 26.573-30.94 52.781-14.925 25.844-29.121 49.869-30.941 52.78-2.184 2.913-5.096 9.1-6.916 13.469-2.184 4.004-5.46 8.736-7.28 10.192-8.372 5.096-2.912 21.84 18.2 54.6 3.64 5.825 8.008 13.469 9.464 16.38s9.464 16.745 17.472 30.941c8.372 13.832 16.016 28.028 17.472 30.94s5.824 10.192 9.828 16.38c4.005 5.825 8.737 14.197 10.557 18.2 1.82 4.369 6.188 9.829 9.464 12.74 5.46 4.369 6.916 4.005 13.104-3.64 4.004-5.095 8.736-12.375 10.92-16.38 1.82-4.003 6.552-12.376 10.556-18.2 4.004-6.188 8.372-13.468 9.828-16.38s14.196-25.116 28.392-49.14 26.937-46.229 28.393-49.14c1.456-2.913 5.824-10.557 9.828-16.38 4.004-6.189 8.736-14.197 10.92-18.201s6.916-12.376 10.92-18.2c7.28-10.92 9.1-14.197 21.476-38.22 6.916-13.105 5.096-27.301-5.096-40.041-2.548-2.912-5.46-8.008-6.916-10.92-1.092-2.912-5.46-10.556-9.464-16.38-4.004-6.189-8.372-13.469-9.828-16.38-5.824-12.74-49.869-85.906-54.965-92.094-6.552-7.28-8.372-7.644-16.016-1.82M566.74 317.27c-2.184 4.732-6.917 13.104-10.92 19.292-4.005 5.824-8.737 14.196-10.92 18.2-2.185 4.005-6.917 12.013-10.92 18.2-4.005 5.825-8.373 13.469-9.829 16.38-1.456 2.913-12.012 21.477-23.66 41.133-24.024 40.405-25.48 50.96-12.012 73.53 5.096 8.007 10.556 17.835 12.74 21.84 2.184 4.003 6.916 12.011 10.92 18.2 4.004 5.824 8.372 13.468 9.828 16.38s12.012 21.476 23.66 41.132 21.113 37.128 21.113 38.948c0 1.457 2.548 3.64 5.46 5.097 6.188 2.184 16.38-.728 16.38-5.097 0-1.82 9.464-19.292 21.112-38.948s22.204-38.22 23.66-41.132 5.824-10.556 9.828-16.38c4.004-6.189 8.736-14.197 10.92-18.2 2.184-4.005 7.645-13.833 12.74-21.84 9.829-16.381 12.013-38.585 3.64-45.501-2.911-2.548-5.46-5.824-5.46-7.28 0-1.82-6.916-14.925-15.652-29.849-8.736-14.56-16.744-29.12-18.2-32.032s-5.824-10.556-9.828-16.38c-4.004-6.188-8.736-14.196-10.92-18.2-2.184-4.005-6.916-12.377-10.92-18.2-4.004-6.189-8.736-14.56-10.92-19.293-1.82-4.368-6.552-8.008-10.92-8.008s-9.1 3.64-10.92 8.008m311.95-92.457c-3.64 3.64-6.187 7.644-6.187 8.736 0 1.456-9.464 18.564-21.113 38.22-11.648 19.657-22.204 38.221-23.66 41.133s-5.824 10.192-9.828 16.38c-4.004 5.824-8.736 14.196-10.92 18.2-1.82 4.004-5.096 9.829-7.28 12.74-9.828 14.925-47.32 81.173-47.32 83.721 0 1.456-2.185 4.732-4.733 6.917-2.912 2.184-6.916 10.192-9.464 17.472-4.732 14.924-1.82 25.844 14.196 50.232 4.005 5.824 8.737 14.196 10.92 18.2 2.185 4.004 6.917 12.013 10.92 18.2 4.005 5.825 8.373 13.469 9.829 16.38 2.912 6.189 53.872 93.55 59.332 101.922 2.184 2.912 5.46 8.736 7.28 12.74 2.185 4.004 6.917 12.012 10.92 18.2 4.005 5.824 8.737 14.196 10.557 18.2s6.552 10.192 10.556 13.832c7.28 6.553 7.644 6.189 25.116-23.66 9.828-16.744 18.928-32.76 20.384-35.672s5.824-10.556 9.464-16.38c4.004-6.188 11.649-19.293 17.109-29.12 17.836-32.397 20.02-36.4 26.936-47.321 4.004-6.188 8.372-13.468 9.828-16.38s6.916-13.104 12.376-22.204c24.752-42.589 32.397-58.241 32.397-67.341 0-9.828-8.373-29.485-22.205-50.597-3.64-6.188-8.008-13.468-9.464-16.38s-11.648-21.112-22.932-40.04-21.476-37.129-22.932-40.04c-1.456-2.913-5.824-10.557-9.828-16.38-4.005-6.189-8.373-13.469-9.829-16.381s-9.464-17.472-18.2-32.032-15.652-27.665-15.652-29.12c-.364-4.369-13.468-18.929-17.472-18.929-1.82 0-5.824 2.912-9.1 6.552m-622.082 2.548c-3.64 4.732-6.552 9.464-6.552 10.556s-6.916 13.832-15.652 28.393-16.744 29.12-18.2 32.032-5.824 10.192-9.828 16.38c-4.004 5.824-8.372 13.468-9.828 16.38s-11.648 21.112-22.933 40.04-21.476 37.13-22.932 40.041c-1.456 2.912-5.824 10.192-9.464 16.38-30.212 47.32-30.212 48.777 10.192 117.938 5.46 9.1 10.92 19.292 12.376 22.204 1.82 2.912 4.732 8.736 7.28 12.74s13.469 22.932 24.389 41.86 21.84 37.493 23.66 40.769c2.184 3.276 8.372 14.924 14.196 25.48s12.376 22.568 14.56 26.572 7.28 12.012 10.92 17.472c6.552 9.829 6.916 9.829 14.196 3.64 3.64-3.64 8.373-9.828 10.193-13.832s6.552-12.376 10.556-18.2c4.004-6.188 8.736-14.196 10.92-18.2 1.82-4.004 5.096-9.828 7.28-12.74 5.46-8.372 56.42-95.733 59.333-101.921 1.456-2.912 5.824-10.556 9.828-16.38 4.004-6.188 8.736-14.197 10.92-18.2 6.916-12.74 12.74-22.569 17.108-27.665 2.184-2.912 5.824-10.92 8.008-18.2 4.368-13.104 1.82-22.568-11.648-45.137-2.548-4.004-13.468-22.932-24.388-41.86s-21.84-37.856-24.389-41.86-6.188-10.557-8.372-14.56c-2.184-4.005-6.916-12.377-10.92-18.2-4.004-6.189-8.372-13.469-9.828-16.38-1.456-2.913-12.012-21.477-23.66-41.133s-21.112-37.129-21.112-38.585c0-4.004-12.377-14.924-16.745-14.924-1.82 0-6.188 4.004-9.464 9.1M748.013 7.867c-2.548 4.732-6.552 11.648-9.1 15.652s-6.188 10.556-8.372 14.56-6.916 12.012-10.92 18.2c-4.004 5.825-8.372 13.469-9.828 16.38s-9.1 16.745-17.472 30.94c-8.008 13.833-16.016 28.03-17.472 30.941s-5.824 10.192-9.828 16.38c-4.004 5.824-8.737 14.197-10.92 18.2-2.185 4.005-6.917 12.013-10.92 18.2-17.837 28.03-36.401 64.065-36.401 71.346 0 8.008 5.096 19.656 14.56 34.216 4.004 5.824 8.372 13.468 9.828 16.38 2.912 6.552 42.953 75.713 48.413 83.721 2.184 2.912 5.096 8.736 6.916 12.74 4.732 10.92 16.744 20.384 22.932 18.2 2.912-1.092 7.28-5.824 9.828-10.192 2.184-4.368 7.28-13.104 11.284-18.928 4.004-6.188 8.736-14.196 10.92-18.2s6.916-12.376 10.92-18.2c4.005-6.189 8.737-14.197 10.92-18.2 1.82-4.005 5.097-9.829 7.28-12.74 1.82-2.913 20.749-34.945 41.861-70.982s40.04-68.068 41.86-70.98c2.185-2.912 4.733-7.644 5.825-10.192 2.912-5.46-8.737-28.757-31.305-64.429-4.004-6.188-9.464-16.016-12.74-21.84C796.79 52.275 764.03 1.679 758.934.587c-3.277-.728-8.009 2.548-10.92 7.28m-361.091 0c-8.372 13.832-47.685 80.809-50.597 86.633-1.456 2.912-5.824 10.192-9.828 16.38-4.004 5.824-8.736 14.196-10.92 18.2s-7.644 13.832-12.74 21.84c-4.732 8.008-8.736 16.38-9.1 18.929 0 3.276 74.256 131.769 91 157.613 2.185 2.912 5.46 8.736 7.28 12.74 2.185 4.004 6.917 12.012 10.92 18.2 4.005 5.825 8.737 14.197 10.921 18.2s6.916 12.013 10.92 18.201c4.004 5.824 9.1 14.56 11.284 18.928 6.552 12.376 17.472 14.196 24.388 4.368 7.28-9.828 13.833-20.748 17.837-28.756 1.456-2.912 11.648-21.112 22.932-40.04s21.476-37.129 22.932-40.04c1.456-2.913 5.824-10.557 9.828-16.381 15.652-23.66 17.472-34.216 9.828-49.14-13.104-24.753-25.48-46.593-32.032-56.421-3.64-6.188-8.372-14.196-10.556-18.2s-6.916-12.377-10.92-18.2c-4.004-6.189-8.372-13.469-9.828-16.38s-9.464-17.109-17.473-30.941c-8.372-14.196-16.016-28.028-17.472-30.94s-5.824-10.556-9.828-16.38c-4.004-6.189-8.736-14.197-10.92-18.2-2.184-4.005-6.916-12.377-10.92-18.2-4.004-6.189-8.372-13.105-9.464-15.653-3.64-6.916-11.648-5.096-17.472 3.64" style="stroke-width:.364004"/>
</svg>
