<svg xmlns="http://www.w3.org/2000/svg" width="1797" height="960">
    <path d="M831.069 894.243c-20.458 19.727-28.495 33.609-26.303 45.3 2.192 16.804 3.653 16.804 93.521 16.804s91.33 0 93.522-16.805c2.192-11.69-5.845-25.572-26.303-45.3-26.303-26.302-32.148-29.225-67.219-29.225s-40.916 2.923-67.218 29.226M690.056 755.422c2.192 2.922-6.576 20.458-19.727 39.454l-22.65 34.34 16.804 17.535c9.499 10.23 24.111 18.266 32.148 18.266 8.768 0 21.92 5.115 29.226 10.96 26.303 19.727 40.916 11.69 67.95-40.185 1.46-2.192-10.96-21.92-27.034-43.838-25.573-33.61-33.61-40.185-54.798-40.916-13.882 0-23.38 1.461-21.92 4.384m344.86 21.919c-36.532 48.222-38.724 55.528-20.458 67.218 8.768 5.115 15.344 14.613 15.344 21.92 0 18.996 10.96 21.919 37.993 8.767 85.484-42.377 84.754-40.915 53.336-87.676-10.229-14.613-16.804-29.226-14.613-32.148 2.192-3.653-2.191-4.384-10.228-2.192-7.307 2.192-16.074 0-18.266-4.384-8.768-13.882-14.613-9.498-43.108 28.495m-125.67-78.909c-1.46 5.115-3.653 26.303-5.844 47.491-2.192 32.148-.731 40.916 12.42 53.337 8.768 8.037 25.573 16.074 37.263 18.997 19.727 3.653 24.842 0 48.222-31.418 40.915-55.528 41.646-64.296 7.306-82.562-32.878-16.804-94.252-19.727-99.366-5.845m-122.016 6.576c-15.343 8.767-27.764 21.188-27.764 27.764s12.421 29.225 27.764 50.414c22.65 31.417 30.687 37.262 49.684 37.993 36.531 0 47.491-18.996 45.3-77.447l-2.193-50.414-32.878-1.462c-21.92-.73-42.377 3.654-59.913 13.152m-396.005-172.43c-6.575 9.498-11.69 19.727-11.69 22.65 0 6.575 36.532-28.495 36.532-35.802 0-10.96-13.151-4.384-24.842 13.152m906.72-292.986c-7.306 18.266-6.575 33.61 1.462 33.61 9.498 0 13.882-16.074 8.037-32.148-4.384-13.152-5.115-13.152-9.499-1.462m-810.276 2.192c-4.383 16.074 0 31.418 9.499 31.418 8.037 0 8.767-22.65 0-35.071-4.384-8.037-6.576-7.306-9.499 3.653m393.813-347.052c-2.191 9.498-6.575 97.905-9.498 197.272L866.87 272.47l-22.65 7.306c-12.42 4.384-38.724 9.499-59.182 12.421-43.838 5.845-154.164 40.916-179.005 57.72-13.152 8.768-44.57 25.573-47.492 25.573-4.384 0-30.687-55.529-35.801-75.256-2.192-10.96-8.037-19.727-11.69-19.727-10.96 0-8.037 44.569 3.653 65.757 5.845 10.23 10.229 27.034 10.96 37.993 0 34.34-23.38 24.842-70.872-29.225-24.111-27.034-59.182-65.757-78.909-85.485-91.33-97.174-176.083-189.234-181.198-198.002-2.922-5.845-8.768-10.229-12.42-10.229-10.23 0-8.768 18.997 2.191 30.687 5.115 5.114 11.69 14.612 14.613 20.458 8.037 16.074 18.996 32.878 74.525 116.901 28.495 42.377 52.606 79.64 54.067 83.293 1.461 2.923 16.805 27.034 34.34 52.606s32.148 48.222 32.148 50.414c0 4.384 43.107 68.68 67.218 99.366 24.111 31.418 25.573 50.414 5.846 68.68-26.303 24.111-84.024 154.164-94.253 214.807-6.575 33.61-18.996 47.492-37.262 39.455-24.842-10.23-151.242-54.798-171.7-60.643-11.69-2.923-28.494-8.037-36.531-11.69-30.687-12.421 32.878 43.107 149.78 132.245 26.303 19.727 48.953 37.993 51.145 40.916C343.003 957.077 374.42 960 553.427 960h189.965l4.384-16.805c2.192-8.767 4.384-18.266 4.384-21.188 0-7.306-50.414-35.07-63.566-35.07-6.575 0-18.265-5.115-25.572-11.69-16.074-15.344-32.148-4.385-40.915 29.225-7.307 25.572-16.805 27.033-63.566 9.498-19.727-7.306-29.956-16.074-31.417-26.303-2.923-18.997 21.919-92.79 42.377-125.67 8.037-13.882 16.804-30.686 18.996-37.262s11.69-17.535 20.458-23.38c15.343-9.499 17.535-8.768 37.263 14.612 33.609 40.185 46.76 28.495 15.343-13.882-26.303-36.532-27.034-38.723-9.498-57.72 91.33-101.558 278.372-132.245 414.27-67.95 58.451 27.765 102.29 59.913 102.29 75.256 0 3.654-11.69 21.92-25.573 40.185-38.723 50.414-33.609 68.68 7.307 24.842 38.723-41.646 46.03-46.03 58.45-29.956 5.846 7.306 16.805 27.033 24.842 43.107 32.879 69.41 37.993 88.408 35.802 130.784-2.192 42.377-2.192 42.377-31.418 53.337-52.606 18.996-54.067 18.996-59.181 5.114-18.997-58.45-24.111-62.834-59.913-43.838-10.96 5.845-29.225 13.882-40.185 18.266-24.841 9.498-31.417 25.572-21.188 48.953l8.768 17.535h188.504c170.238 0 189.965-1.461 203.117-13.152 7.306-7.306 35.07-29.225 61.373-48.952 78.909-59.912 127.131-99.367 146.128-119.094 14.612-16.074 15.343-18.266 3.653-13.151-8.037 3.653-24.111 8.767-36.532 11.69-31.417 8.767-112.518 37.262-154.164 54.798-12.421 5.114-25.573 7.306-29.956 5.114-8.768-6.576-24.111-49.683-24.111-69.41 0-21.189-70.872-161.471-91.33-180.468-10.229-9.498-18.266-23.38-18.266-30.686 0-17.536 29.226-56.99 41.646-56.99 5.115 0 9.499-5.845 9.499-13.882 0-7.306 8.037-25.572 18.265-40.185s18.266-28.495 18.266-29.956c0-2.192 14.613-24.842 32.148-50.414s32.88-49.683 34.34-52.606c3.653-8.037 96.444-151.242 116.902-179.737 7.306-10.96 13.882-23.38 13.882-27.764 0-3.653 2.923-7.306 6.576-7.306 8.768 0 18.266-28.495 12.42-34.34-2.191-2.923-13.15 5.114-24.84 17.535-58.452 65.027-95.714 105.943-143.206 155.626-28.494 29.956-74.524 80.37-102.289 111.787-66.488 73.794-97.174 74.525-66.488 0 12.421-29.225 14.613-67.949 3.654-67.949-3.654 0-9.499 8.768-11.69 19.727-5.115 18.997-31.418 75.256-35.071 75.256-6.576 0-48.953-24.111-51.875-29.956-2.923-3.654-12.421-6.576-21.189-6.576-9.498 0-21.188-5.115-26.303-10.96-5.114-5.845-15.343-10.96-23.38-10.96-7.307 0-22.65-4.383-33.61-10.228-10.96-5.115-40.184-11.69-65.026-14.613-25.572-2.922-55.528-8.037-66.488-12.42l-21.188-7.307-5.115-169.508c-2.923-93.521-8.037-181.198-10.96-195.08-5.845-29.956-26.302-37.993-32.148-13.151m-12.42 443.496c0 27.034-10.23 35.07-54.798 40.916-50.414 6.576-100.097 22.65-163.663 54.067l-53.336 25.572-14.613-16.804c-15.343-19.728-15.343-43.839 1.461-52.606 40.185-21.189 111.788-50.414 123.478-50.414 7.306 0 24.842-5.115 37.993-10.96 13.882-5.845 46.76-10.229 74.525-10.96h48.953zm196.54-9.498c22.65 6.576 50.415 16.074 61.374 21.92 11.69 5.844 27.034 10.228 34.34 10.228 6.576 0 16.805 4.384 21.92 10.229 4.383 5.845 15.343 11.69 24.11 13.151 21.92 2.923 24.842 34.34 6.576 57.72l-14.613 16.805-53.336-25.572c-64.296-31.417-113.98-47.491-162.932-53.336-43.838-5.115-55.528-14.613-55.528-41.647V317.04h48.952c26.303 0 66.488 5.114 89.138 11.69M538.815 507.736c-1.461 4.384-10.229 2.192-19.727-5.845-10.96-8.768-15.344-18.266-12.421-23.38 4.384-6.576 9.498-5.115 20.458 6.575 8.037 8.037 13.151 18.266 11.69 22.65m740.135-7.306c-23.38 18.996-35.07 9.498-14.613-12.421 11.69-12.421 18.997-15.344 24.111-9.498 5.845 5.114 2.923 11.69-9.498 21.919" style="stroke-width:.730637"/>
</svg>
