<svg xmlns="http://www.w3.org/2000/svg" width="1210" height="960">
    <path d="M587.71.003A462.05 462.05 0 0 0 386.079 47.03a441.8 441.8 0 0 0-87.031 54.938l.826-.648a472.58 472.58 0 0 0-171.213 281.122 499.7 499.7 0 0 0-6.48 147.375 456.7 456.7 0 0 0 108.055 259.82A480.4 480.4 0 0 0 374.003 905.98a464 464 0 0 0 126.799 44.873l3.027.503a498.7 498.7 0 0 0 101.173 8.568 498.7 498.7 0 0 0 101.162-8.568 474.7 474.7 0 0 0 132.406-46.627L836 905.98a480.5 480.5 0 0 0 143.757-116.343 456.7 456.7 0 0 0 108.065-259.819 499.7 499.7 0 0 0-6.49-147.375h.011A472.58 472.58 0 0 0 910.13 101.32a438 438 0 0 0-83.59-53.14l-2.615-1.15A462.1 462.1 0 0 0 605.002.271 462 462 0 0 0 587.71.003m17.292 16.454c18.769.128 37.623 1.126 56.546 2.793A429.5 429.5 0 0 1 818.05 64.346c129.545 65.08 209.384 170.126 244.303 310.099a245 245 0 0 1 5.34 30.283l.111 1.23c1.548 12.432 2.32 24.967 3.776 41.398-12.736-13.683-23.315-24.56-33.356-35.914h-.01c-61.092-69.075-124.48-135.864-196.404-193.901a482.7 482.7 0 0 0-141.388-81.848 269.1 269.1 0 0 0-90.382-15.315c-1.686 0-3.36.014-5.038.045-1.5-.03-3.268-.045-5.038-.045a274 274 0 0 0-92.292 15.907l1.91-.603a482.7 482.7 0 0 0-141.388 81.859c-71.923 58.036-135.313 124.827-196.403 193.901-10.04 11.354-20.62 22.233-33.356 35.914 1.456-16.43 2.227-28.966 3.776-41.399a266 266 0 0 1 5.82-33.322l-.369 1.81c34.92-139.973 114.758-245.02 244.303-310.1A429.6 429.6 0 0 1 548.467 19.25c18.923-1.666 37.766-2.665 56.535-2.793m0 182.217q14.46.004 29.088.938c67.58 4.204 126.303 30.826 182.764 64.723 43.592 26.17 82.535 58.524 120.934 91.711 39.956 34.532 75.783 73.09 115.617 113.115H951.316c-12.173-13.395-24.005-26.915-36.372-39.924a671.6 671.6 0 0 0-102.033-89.7 412.4 412.4 0 0 0-144.437-64.165l-2.815-.537a172 172 0 0 0-32.663-3.641h-.156c-9.603-.291-18.226-.032-27.838-.012-9.611-.02-18.224-.28-27.826.012a178.4 178.4 0 0 0-33.992 3.843l1.161-.202a417.1 417.1 0 0 0-148.581 65.584l1.329-.883a671.6 671.6 0 0 0-102.033 89.701c-12.367 13.01-24.188 26.529-36.361 39.924h-102.09c39.835-40.025 75.651-78.584 115.607-113.115 38.399-33.187 77.342-65.541 120.934-91.711 56.46-33.895 115.184-60.518 182.763-64.723a481 481 0 0 1 29.089-.938m26.687 90.214c3.144.157 6.109.335 8.02.592a226.3 226.3 0 0 1 46.113 9.194 430.6 430.6 0 0 1 137.712 71.76 613 613 0 0 1 73.995 66.678l.29.313c10.015 10.706 21.961 25.515 31.659 37.22a8.488 8.488 0 0 1-.961 12.668c-101.173 104.185-162.05 149.49-238.629 171.381-15.29 4.372-37.659 10.061-58.266 11.83a192.675 192.675 0 0 0 166.052-190.829A192.675 192.675 0 0 0 631.69 288.888zm-54.67.179a192.675 192.675 0 0 0 1.307 381.446c-20.59-1.775-42.933-7.451-58.21-11.819-76.579-21.89-137.467-67.196-238.64-171.38a8.488 8.488 0 0 1-.95-12.668c9.698-11.706 21.644-26.515 31.658-37.22a612 612 0 0 1 72.856-65.92l1.43-1.072a430.6 430.6 0 0 1 137.712-71.76 220.2 220.2 0 0 1 47.118-9.194c1.484-.178 3.705-.285 5.72-.413m8.736 51.71a74 74 0 0 1 7.44 13.482c3.132 10.069 5.257 20.442 8.657 34.171 14.474-15.657 15.067-32.876 23.615-47.43v43.934c20.953-3.691 22.362-21.448 33.713-38.237l-7.563 57.897 39.422-39.421c-.217 13.473-6.595 20.21-11.305 27.815a104.4 104.4 0 0 0-6.624 16.075c19.974 7.736 28.656-11.786 49.363-15.662-14.265 14.262-24.413 24.405-38.46 38.45 14.652.56 23.093 2.857 30.015.57 6.436-2.126 11.886-6.187 19.593-4.223-9.066 12.334-27.69 12.774-33.3 31.1h45.856c-12.868 16.176-33.904 7.623-46.336 22.117 12.66 14.094 32.449 9.288 48.649 21.593H699.82c3.09 6.259 3.898 10.882 6.624 12.847 8.894 6.405 18.482 15.908 30.105 23.145a98 98 0 0 1-14.31-.57c-8.513-.215-19.686-7.728-32.64-7.026a98.3 98.3 0 0 0 11.371 14.444c5.43 6.902 7.334 7.96 13.081 14.611 1.97.693 2.086 4.66 3.564 5.92l-1.71 1.71c-1.26-1.478-2.525-.244-3.786-1.72.352-.353-3.36-2.06-3.005-2.413-5.599-.396-20.1-12.006-33.468-16.5 0 6.332 15.255 33.878 15.383 43.957l-32.418-32.428c-14.055 20.368 5.41 35.609-2.133 53.083-7.714-13.121-14.997-25.492-22.543-38.327-2.329 2.802.837 9.592-2.826 13.997 0 11.066-5.418 20.277-5.418 33.557l-2.547.704c-2.69-6.861-5.544-13.666-8.032-20.6-2.7-7.528-5.06-15.173-8.545-25.725-15.432 14.742-6.806 36.3-23.269 48.425V573.83c-18.856 7.98-18.04 28.241-33.936 40.683 4.254-16.41 7.682-29.603 11.539-44.482-3.798-.592-7.813-1.224-11.562-1.81-9.074 7.567-17.768 14.814-26.463 22.063a15.7 15.7 0 0 1-3.217 4.926l-1.71-1.709c1.478-1.26 18.818-27.755 19.538-43.432.57.236-30.826 12.35-43.018 19.616-1.881-1.688-1.337-3.535-1.787-4.256-.284-.452 1.049-2.867 1.373-3.195 10.485-10.58 18.312-18.401 31.524-31.613a161.7 161.7 0 0 0-30.004.425c-7.115 1.504-13.113 4.672-22.23 2.68a205 205 0 0 0 43.677-27.245c-20.512-5.292-37.336-1.316-53.697-6.602 14.577-4.811 30.508-12.337 46.57-17.638a62 62 0 0 0-22.062-11.283 123 123 0 0 1-25.134-8.221l.782.324c15.907-4.93 32.536-1.059 51.888-4.458-13.153-13.493-40.622-26.897-45.375-29.982a76 76 0 0 1 11.383-.826c1.2 0 2.386.034 3.574.089a371 371 0 0 0 39.4 5.25 170 170 0 0 0-18.399-19.705c-5.158-5.378-10.513-10.57-18.476-18.532a69.56 69.56 0 0 1 33.188 10.11 45.7 45.7 0 0 0 17.806 5.428c-4.405-13.362-17.11-33.244-16.957-35.735-1.969-.693-2.086-3.308-3.563-4.569l1.709-1.709c1.26 1.477 2.515 2.957 3.775 4.435-.352.352.655.709.302 1.061 8.61 6.245 19.442 13.055 28.284 20.476 2.976 0 1.807 1.352 7.652 1.352-3.758-14.28-5.927-29.022-9.45-42.416l2.703-1.519c8.501 12.88 17.004 25.755 28.843 43.689v-53.217l3.988-1.508zm-427.85 149.43h99.375c26.675 27.299 51.055 53.835 77.134 78.586a448.9 448.9 0 0 0 142.639 94.403 352.6 352.6 0 0 0 92.672 23.615l1.709.156c8.157.816 17.62 1.285 27.2 1.285 2.239 0 4.476-.029 6.703-.079l-.335.012a291 291 0 0 0 33.58-1.218l1.183-.09c-.37.035-.747.047-1.117.08a363.3 363.3 0 0 0 96.727-24.643l-2.424.882a448.9 448.9 0 0 0 142.639-94.403c26.077-24.75 50.46-51.287 77.134-78.586h99.374c-3.842 4.345-6.161 7.358-8.858 9.975-39.257 38.084-77.417 77.397-118.164 113.818-48.314 43.188-100.594 81.39-159.719 109.038-30.216 14.129-60.99 27.086-94.314 32.048a420 420 0 0 1-66.041 6.178 420 420 0 0 1-66.03-6.178c-33.324-4.964-64.1-17.92-94.314-32.048-59.125-27.648-111.415-65.85-159.73-109.038-40.745-36.42-78.907-75.734-118.164-113.818-2.697-2.617-5.016-5.63-8.858-9.975m-19.068 22.185c26.812 28.966 51.402 55.188 75.615 81.758 59.469 65.26 121.578 127.761 195.14 177.301 47.777 32.176 98.077 58.397 157.284 64.891a338 338 0 0 0 38.126 2.089 352 352 0 0 0 39.723-2.245l-1.586.156c59.207-6.496 109.495-32.716 157.272-64.89 73.561-49.542 135.67-112.042 195.139-177.302 24.213-26.571 48.803-52.792 75.615-81.759a428.3 428.3 0 0 1-49.99 183.591c-52.563 100.42-132.073 171.02-236.84 214.087a463.2 463.2 0 0 1-179.335 32.964 463.3 463.3 0 0 1-179.335-32.964C320.9 867.002 241.401 796.403 188.837 695.982a428.3 428.3 0 0 1-50-183.59" style="stroke-width:5.7194"/>
</svg>
