<svg xmlns="http://www.w3.org/2000/svg" width="1366" height="960">
    <path d="M1236.153-28.8c-3.54 1.231-12.16 5.541-17.701 8.774-2.617 1.539-6.003 2-10.313 1.385-9.698-1.385-20.318 4.926-44.023 25.706l-4.772 4.156 4.618 1.693 4.464 1.847-4.31 3.694c-4.926 4.156-11.545 4.926-12.776 1.385-.616-1.23-2.617-2.308-4.618-2.308-9.39 0-1.231-10.16 18.933-23.551 5.234-3.386 9.236-6.773 8.774-7.542-1.231-2.001-10.775-1.386-15.547.923-4.925 2.463-8.773 4.156-20.472 8.62-4.618 1.847-11.236 4.464-14.623 5.85-3.386 1.384-10.62 6.464-16.008 11.39-7.542 6.926-10.929 8.927-14.777 8.927-4.772 0-9.39 4.31-11.852 10.93-.616 1.384-2.925 3.078-5.234 3.54-2.463.615-7.388 3.848-10.929 7.234-3.54 3.232-7.234 6.003-8.158 6.003-.77 0-2 1.847-2.462 4.156-1.386 5.234-8.312 12.314-13.546 13.7-4.31 1.077-19.395 17.547-19.395 21.241 0 1.232-.615 2.617-1.385 3.233-1.385.77-5.387 8.466-8.62 16.162-.923 2.309-1.693 3.694-8.466 14.623-2.155 3.386-5.541 9.543-7.542 13.853-2.001 4.156-5.234 9.852-7.235 12.622-2 2.617-3.694 5.542-3.694 6.311 0 1.847-8.928 18.78-11.544 21.858-2.463 2.924-19.857 32.17-21.088 35.71-.616 1.386-4.772 8.005-9.236 14.623-10.313 15.393-11.082 16.778-15.238 25.09-1.848 3.849-5.85 10.775-9.082 15.393-3.079 4.618-7.08 11.544-9.082 15.393-2 3.848-5.387 9.39-7.696 12.314s-5.541 8.158-7.08 11.544c-1.694 3.387-4.926 8.62-7.235 11.699-2.463 3.078-4.31 6.465-4.31 7.388 0 2.309-6.311 14.007-7.543 14.007-.615 0-1.847 1.847-2.77 4.156-.924 2.463-3.079 6.773-4.772 9.698-1.693 2.924-4.618 8.773-6.465 13.083-2 4.156-6.003 11.083-9.081 15.393-6.311 8.62-8.466 12.314-10.93 17.701-.923 2.001-3.386 7.081-5.54 11.237-2.002 4.156-3.695 8.466-3.695 9.544 0 1.077-.923 4.002-2.155 6.464-1.231 2.31-3.386 7.543-4.771 11.545-1.386 4.156-3.079 7.388-3.849 7.388-2.616 0-21.55-35.249-21.55-40.174 0-1.847.924-5.08 2.002-7.235 1.231-2.309 3.232-6.465 4.618-9.235 1.385-2.925 2.616-6.158 2.616-7.235s.924-4.002 2.155-6.465c1.232-2.309 4.464-9.235 7.08-15.085 2.618-6.003 5.85-12.93 7.235-15.392 1.386-2.617 6.927-13.238 12.468-23.859 13.854-26.783 23.397-44.946 24.936-47.717.77-1.231 2.771-5.387 4.618-9.235 1.693-3.849 3.848-8.005 4.618-9.236s1.693-3.386 2.155-4.618c.616-1.231 2.309-4.464 4.002-6.926 1.54-2.617 6.003-10.93 9.851-18.472a1261 1261 0 0 1 9.852-19.24c1.693-2.925 4.463-8.466 6.31-12.314 1.848-3.849 4.157-8.312 5.08-10.006 3.54-6.31 4.31-7.85 6.927-13.083 1.385-2.925 2.924-6.62 3.386-8.005 1.078-3.232 15.547-20.933 25.244-30.785 8.158-8.312 8.928-11.236 3.386-13.853-3.078-1.385-3.386-2.155-2.155-4.464 1.078-2.001.924-4.002-.153-6.157-3.233-5.85 1.077-15.7 11.082-25.244 7.543-7.388 8.928-9.543 8.928-14.161 0-7.235 4.618-12.776 14.315-16.778 7.388-3.232 8.004-3.848 8.928-9.543.77-6.004 4.31-11.545 13.545-21.55 2.617-2.77 4.772-5.695 4.772-6.619 0-.77.462-1.385 1.231-1.385 2.925-.154 8.312-6.311 7.389-8.62-.924-2.309-1.386-2.155-4.772.924-2.155 2-3.848 4.463-3.848 5.695 0 1.077-1.54 2-3.54 2-3.233 0-10.16 6.927-10.313 10.314-.154 2.309-5.85 8.158-8.158 8.158-1.232 0-2.617-1.078-3.233-2.309-1.231-3.386-2.924-2.925-8.774 2.309-6.31 5.541-8.773 5.695-13.237.924-4.156-4.31-4.464-7.389-1.078-13.238 3.079-5.08 2.001-9.236-2.463-9.236-4.31 0-5.541-4.002-2.462-7.542 1.385-1.54 2.462-3.848 2.462-5.234 0-4.156 5.696-6.31 10.93-4.156 2.462 1.078 6.002 1.54 8.003.924 4.31-1.078 13.7-10.005 12.468-11.852-1.077-1.847-10.005-6.003-12.776-6.003-3.54 0-12.775 4.925-18.625 9.85-5.695 4.773-7.234 4.926-11.236 1.386-1.693-1.54-5.234-2.617-8.466-2.617-4.926 0-7.08 1.386-15.855 10.313-5.54 5.696-11.39 12.93-12.775 16.163-3.54 7.388-14.777 16.932-36.635 30.323-2.617 1.693-8.004 6.927-11.698 11.545-3.848 4.617-11.39 13.545-16.932 19.856-9.851 10.775-12.314 14.315-15.547 20.934-.77 1.693-3.848 5.541-7.08 8.466-6.773 6.619-9.544 11.852-10.929 21.242-.462 4.002-1.847 8.927-3.078 11.082-1.078 2.155-2.31 5.542-2.771 7.697-.462 2.155-2.309 5.541-4.31 7.696-2.001 2.001-4.772 6.157-6.465 9.236-1.54 2.924-3.848 6.003-4.926 6.618-1.231.616-2.155 3.695-2.155 6.62 0 3.386-.923 5.694-2.308 6.156-1.386.616-2.31 2.925-2.31 6.003 0 2.925-.615 5.542-1.385 6.003-.77.616-2.924 4.156-4.771 8.312-1.847 4.003-3.849 8.313-4.618 9.544s-2.77 5.387-4.618 9.236c-1.693 3.848-3.694 8.004-4.464 9.235-.923 1.231-5.233 9.697-9.697 18.779s-8.928 16.624-9.851 16.624c-.924 0-3.233-3.232-5.08-7.388-1.847-4.002-3.848-8.312-4.618-9.544-1.385-2.309-3.54-7.388-8.312-18.47-3.694-8.929-7.234-20.935-7.234-24.937 0-2.001-1.078-5.08-2.31-6.773-1.23-1.54-2.308-4.31-2.308-6.157s-1.847-8.004-4.002-13.853-4.31-12.006-4.772-13.7-1.693-5.233-2.924-8.004c-1.232-2.616-2.155-7.234-2.155-10.313 0-3.078-1.078-8.158-2.31-11.236-1.23-2.925-2.308-9.852-2.308-15.393 0-6.773-1.078-12.16-3.233-17.086-1.847-4.002-4.002-12.776-4.771-19.548-.616-6.773-2.001-16.47-2.925-21.55-.77-5.08-1.54-11.698-1.385-14.623.154-13.238-2.001-42.484-3.387-44.177-4.002-4.925-5.387 0-7.234 25.398-1.078 14.161-2.155 28.169-2.617 31.093-.462 2.925-1.385 12.006-2.155 20.01-.77 9.236-2.463 17.394-4.618 22.166-2.155 4.464-3.848 12.776-4.617 20.78-.77 7.234-2.002 15.7-2.925 18.625-.924 2.925-1.693 7.234-1.693 9.543 0 2.31-1.078 6.773-2.463 10.006-1.385 3.232-3.386 7.85-4.464 10.466-1.077 2.463-3.078 9.082-4.618 14.623-1.385 5.542-3.54 12.315-4.771 15.085-1.232 2.77-2.155 6.157-2.155 7.697 0 2.924-5.234 20.318-7.389 24.474-5.387 10.313-15.7 32.94-15.7 34.325 0 1.078-.924 3.695-2.001 5.85-1.232 2.308-3.079 6.157-4.31 8.773-3.233 6.62-5.85 5.696-9.544-3.078-1.847-4.31-5.08-10.621-7.08-13.854-3.54-5.849-7.85-14.16-10.005-19.24-.462-1.232-3.387-5.696-6.311-9.852s-5.85-9.235-6.465-11.544c-.462-2.155-2.925-6.465-5.234-9.544-2.463-3.078-4.464-6.31-4.464-7.234 0-.77-1.077-2.309-2.309-3.386-1.231-1.078-2.308-2.925-2.308-4.156 0-1.232-1.848-5.234-4.31-8.774-2.31-3.387-5.85-9.698-8.005-13.7-2.155-4.156-6.464-10.467-9.543-14.16-3.232-3.695-5.85-7.543-6.003-8.775 0-1.077-1.54-4.925-3.386-8.466-1.848-3.54-5.08-9.697-7.235-13.853-2.155-4.002-6.773-11.698-10.313-17.086-3.694-5.387-6.619-10.313-6.619-11.082 0-1.847-10.159-22.628-13.853-28.477-1.693-2.616-3.54-5.695-4.156-6.926-3.233-6.311-10.775-15.393-12.93-15.393-1.385 0-3.694 1.693-5.08 3.848l-2.616 4.002-4.772-4.002c-2.617-2.155-5.08-3.694-5.387-3.232-1.54 1.539 4.617 10.313 10.159 14.315 3.54 2.463 6.465 6.003 6.926 8.312.308 2.155 3.695 6.773 7.235 10.313l6.465 6.31-4.772 4.157-4.772 4.31 3.695 3.386c2.155 2.001 3.848 4.31 3.848 5.08 0 2.617-5.85 4.925-10.005 3.848-4.156-1.078-11.545-10.929-11.545-15.239 0-1.385-2-5.541-4.618-9.235-2.616-3.695-4.617-7.235-4.617-8.005-.154-.615-2.155-3.694-4.618-6.618-2.617-2.925-4.618-5.85-4.618-6.62 0-1.385-7.696-11.851-11.852-16.161-1.078-1.078-4.31-5.542-7.235-10.006-8.312-12.468-19.395-24.782-24.166-26.783-2.463-1.077-7.85-4.925-11.853-8.773-9.543-8.928-12.93-9.082-16.778-.924-3.694 8.004-9.235 8.62-10.774 1.231-.616-3.386-5.08-8.927-14.623-18.47-7.543-7.39-14.161-13.546-14.931-13.546-1.847 0-9.236 11.082-9.697 14.623-.616 5.387 2.154 17.547 4.31 19.394 1.23.924 2.154 2.31 2.154 3.079s2.002 4.31 4.464 7.85c2.463 3.694 7.08 10.621 10.16 15.547 3.232 4.771 8.465 11.39 11.698 14.469 3.386 3.232 6.003 6.926 6.003 8.466s4.002 5.849 9.235 10.005c6.927 5.387 9.236 8.158 9.236 11.083.154 6.31 4.772 13.237 13.392 19.856 5.541 4.464 8.158 7.85 8.927 11.39.616 2.771 2.155 6.465 3.233 8.159 1.231 1.693 2.155 4.925 2.155 7.234s.615 4.464 1.385 4.926c2.155 1.385 7.85 13.084 7.85 16.162 0 1.693 1.232 5.234 2.617 8.158 1.385 2.77 3.54 7.08 4.772 9.39 1.231 2.462 2.309 6.926 2.617 10.005.307 6.31 2.616 11.852 8.62 21.088 2.154 3.386 5.54 9.235 7.388 13.083 4.31 8.62 5.695 10.93 12.622 21.55 2.924 4.618 7.08 11.852 9.081 16.162 2.001 4.156 4.618 8.774 5.542 10.005 1.077 1.232 4.464 7.543 7.542 13.854 3.233 6.31 8.466 15.085 11.698 19.548 3.233 4.464 6.004 8.928 6.004 10.006 0 1.231 2 4.463 4.31 7.388 2.308 2.925 6.464 9.851 9.081 15.393 13.546 27.86 25.552 52.335 28.784 58.492 10.93 21.241 18.01 36.48 17.856 39.097 0 3.078-4.156 12.006-9.236 20.164-1.693 2.463-4.618 7.85-6.465 11.852-3.694 7.697-6.465 9.236-8.004 4.618-.462-1.385-2.617-5.387-4.618-8.774-2.155-3.386-3.848-7.542-4.002-9.39 0-1.846-2-7.08-4.617-11.851-2.463-4.772-4.618-9.852-4.618-11.083 0-3.232-9.852-21.088-16.778-30.785-5.85-8.158-8.62-12.468-10.313-16.163-2.77-6.926-12.16-24.474-15.085-28.476-1.693-2.617-4.618-7.388-6.311-10.775-1.693-3.386-4.464-8.312-6.311-10.774-1.693-2.617-4.772-7.697-6.773-11.545-1.847-3.848-5.387-9.39-7.85-12.468s-6.157-9.082-8.312-13.392-5.08-9.081-6.619-10.466c-2.77-2.771-3.694-4.464-10.313-16.778-5.387-10.313-6.465-12.007-15.392-25.09-8.62-12.622-9.39-14.008-10.775-17.24-.924-2.463-2.617-5.234-8.928-14.931-2.309-3.694-4.156-6.927-4.156-7.388s-3.079-4.926-6.927-10.16c-3.848-5.233-6.926-10.313-6.926-11.39 0-1.078-1.078-2.77-2.31-3.848-1.23-1.078-2.308-2.925-2.308-4.156 0-1.232-2.001-5.234-4.31-8.774-2.309-3.386-5.85-9.543-7.85-13.545-1.847-4.156-4.156-7.697-4.926-8.312-.77-.462-1.385-2.155-1.385-3.849 0-1.539-.616-2.924-1.386-2.924-.923 0-2.462-1.693-3.54-3.848-1.077-2.001-4.925-9.39-8.62-16.47-3.694-7.081-7.542-14.316-8.62-16.163-3.232-5.695-17.855-18.933-20.933-18.933-1.54 0-4.157-1.847-5.696-4.002-6.31-9.39-21.088-23.704-24.32-23.704-3.54 0-7.85-3.848-10.621-9.698-1.231-2.309-3.386-3.54-6.927-3.848-4.156-.462-7.234-2.617-14.007-9.697-4.772-4.926-9.697-9.082-10.929-9.082-1.231 0-3.694-1.077-5.387-2.309-1.54-1.231-4.464-2.309-6.157-2.309-3.079 0-20.626-6.772-30.324-11.698-5.387-2.617-18.317-2.77-20.78-.308-1.385 1.386-3.078 1.386-7.234-.154-7.543-2.616-9.851-.615-4.464 3.848 2.463 2.001 5.387 3.54 6.311 3.695 1.077 0 2.925 2 4.156 4.463 1.385 2.463 3.386 4.772 4.772 5.234 4.002 1.54 2.616 4.156-2.31 4.156-6.002 0-6.156 3.54-.307 8.62 2.309 2 6.465 5.695 9.235 8.158 5.08 4.618 6.465 9.39 2.771 9.39-1.077 0-3.078 1.077-4.156 2.462-1.693 2.001-1.54 2.617.616 4.002 1.54.77 2.309 2.155 1.693 2.925-.924 1.693-5.387-2.463-12.006-11.39-2.463-3.08-5.695-5.696-7.389-5.696s-4.002-2-5.541-4.618c-3.078-5.387-3.694-5.541-9.082-2-3.694 2.462-4.002 2.462-5.849 0-3.848-5.388-7.696-2.156-6.157 5.079.77 3.232 2.617 5.387 6.619 7.234 15.854 7.543 60.339 46.178 74.808 65.111 3.54 4.618 8.158 11.545 10.005 15.393 6.465 13.237 11.699 21.55 17.856 28.784 7.08 8.312 16.162 21.55 16.162 23.705 0 .615 2 3.694 4.618 6.464 2.463 2.925 4.617 6.157 4.617 7.081 0 1.077 1.694 4.156 3.695 6.773 3.54 4.771 5.233 8.004 14.16 26.475 2.464 5.08 5.542 10.16 6.774 11.545 5.08 5.233 12.314 15.238 12.314 16.931 0 1.078 2 4.464 4.31 7.543 2.462 3.078 5.695 8.312 7.388 11.698 3.079 6.157 8.466 14.777 22.012 35.403 3.848 5.85 8.62 13.853 10.774 17.702 2.001 3.848 5.08 8.927 6.773 11.39 4.618 6.619 8.312 14.007 11.699 24.013 2.924 8.62 4.771 13.237 8.773 22.627 1.232 2.617 2.155 5.541 2.155 6.31 0 .924.924 3.541 2.155 6.004 1.232 2.309 3.387 7.388 4.772 11.236 2.617 6.773 3.848 9.852 9.082 22.012 1.385 3.232 2.462 6.773 2.462 7.85 0 1.078 2.155 4.926 4.618 8.466 2.617 3.54 5.08 8.62 5.541 11.39 1.54 10.006 4.464 17.548 10.93 28.477 3.693 6.31 6.618 11.698 6.618 12.006s3.694 6.003 8.158 12.622c4.618 6.465 12.16 19.857 17.086 29.554 9.082 18.317 10.62 21.242 13.238 25.706.923 1.539 2 3.848 2.462 5.08a109 109 0 0 0 2.925 6.926c1.077 2.463 2.463 5.849 2.925 7.542 1.231 3.694-6.773 20.626-13.238 28.169-2.77 3.232-6.465 8.62-8.158 12.006-1.54 3.386-4.926 8.62-7.235 11.698s-4.31 6.773-4.31 8.004c0 1.232-1.077 3.079-2.308 4.156-1.232 1.078-2.31 2.617-2.31 3.387 0 .923-2 4.156-4.617 7.388-2.463 3.233-4.618 6.157-4.618 6.619s-2 4.002-4.618 7.696c-2.463 3.848-4.617 7.235-4.617 7.697 0 .615-2.156 4.002-4.618 7.85-2.617 3.694-5.08 9.082-5.542 12.006-.615 2.77-1.539 5.695-2.155 6.619-.461.77-3.386 7.08-6.157 13.853s-5.695 12.93-6.31 13.854c-.616.77-3.233 6.772-5.85 13.083-3.694 8.928-6.619 13.238-12.776 18.625-6.619 6.004-7.85 8.158-8.004 12.93-.154 3.54-1.231 6.157-2.924 7.08-1.386.924-2.617 3.233-2.617 5.234 0 2.155-.616 3.848-1.54 3.848-.77 0-1.539 1.078-1.539 2.463 0 1.847-1.077 2.31-3.694 1.847-3.078-.615-4.002 0-4.772 3.079-.461 2-.615 4.002-.154 4.464 1.232 1.231 10.314-4.618 14.47-9.39 1.385-1.693 4.771-5.08 7.388-7.696 2.77-2.617 5.387-6.311 6.003-8.312.462-1.847 1.693-3.079 2.463-2.617 2.155 1.386 1.693 9.698-.77 11.083-2.463 1.54-7.08 10.159-7.08 13.545 0 3.54-4.002 10.467-14.008 23.859-4.617 6.31-10.159 14.315-12.16 17.701s-6.31 9.39-9.543 13.238c-3.54 4.31-5.85 8.62-5.85 11.083 0 4.464 3.695 5.849 5.234 1.847.462-1.385 2.77-2.309 5.85-2.309 6.926 0 12.006-3.848 12.16-8.928 0-2.309 1.693-7.234 3.694-11.082a787 787 0 0 0 5.233-10.313c.77-1.694 2.31-3.695 3.079-4.31.923-.462 1.693-2.31 1.693-3.849s.923-3.54 2.155-4.156 2.463-3.54 2.77-6.464c.308-2.925 1.386-5.542 2.463-6.004 2.771-.77 2.463 8.158-.461 11.083-3.387 3.386-2.771 8.928 1.539 13.084 5.08 4.771 7.542 2.77 14.469-11.39.77-1.694 3.54-5.542 6.003-8.467 4.002-4.617 5.08-5.08 7.696-3.54 2.617 1.54 3.695 1.077 7.85-3.232 2.617-2.617 4.772-6.311 4.772-8.158 0-4.157 13.392-20.473 16.932-20.473 6.003 0 4.772 8.928-1.54 12.314-4.463 2.31-4.155 6.62.463 5.234 1.847-.616 3.848-1.693 4.31-2.463s2.308-1.385 3.848-1.231c1.693.154 3.694.308 4.771.154 1.847-.154 14.316-18.01 14.316-20.473 0-2 4.463-10.005 9.389-16.624 2.155-2.924 4.464-6.465 4.926-7.696.615-1.231 2.462-4.464 4.156-6.927 1.693-2.616 3.694-6.157 4.464-8.004.77-1.693 2.308-3.694 3.078-4.31.924-.461 1.693-2.309 1.693-4.002 0-1.847 3.079-6.772 6.927-11.082 3.848-4.464 6.927-8.62 6.927-9.236 0-.77 1.847-4.002 4.31-7.08 2.308-3.079 5.54-8.159 7.08-11.391 1.693-3.079 3.694-5.695 4.772-5.695 1.847 0 6.927 9.39 6.927 13.083 0 1.078.923 4.002 2.154 6.465 4.772 9.698 16.778 35.865 23.397 50.796 5.696 13.084 6.927 16.778 13.084 35.095 1.693 5.08 3.694 11.237 4.618 13.853.923 2.463 2.309 7.389 2.924 10.775 3.848 18.625 6.157 26.937 9.236 34.634 1.847 4.617 3.694 10.159 4.156 12.314s1.385 4.617 2.155 5.387c.616.924 2 4.464 2.77 7.696 2.002 8.158 5.696 20.319 8.005 26.937 3.078 9.236 5.541 16.009 7.542 21.55 2.309 6.619 4.31 15.085 6.003 26.475.77 4.926 3.233 12.622 5.234 17.086 2.155 4.464 4.31 10.16 4.925 12.622.616 2.617 1.847 7.08 3.079 10.005 1.077 2.925 2.463 9.544 2.924 14.623 1.694 13.7 7.389 34.788 10.621 38.944.77.923 2.001 4.155 2.463 6.926.616 2.617 1.693 4.772 2.463 4.464 1.54-.308 1.54-78.194 0-143.459-.462-18.163-.77-38.635-.77-45.408.154-17.548.154-16.778-1.385-36.173-.924-9.697-2.155-21.242-3.079-25.398-.77-4.31-1.539-11.082-1.539-15.084-.154-4.003-1.231-8.928-2.463-10.93-1.539-2.154-2.77-9.08-3.386-17.239-.462-7.542-1.385-14.469-2.155-15.239-1.077-1.539-2.309-7.08-6.003-27.706-1.847-10.775-4.31-17.394-9.39-25.09-2.924-4.31-4.463-8.62-4.463-12.314 0-6.62-10.16-49.565-15.7-65.727-.77-2.616-2.002-7.08-2.618-10.005-.615-2.924-2-6.927-2.924-8.774-1.078-1.847-1.847-5.08-1.847-7.234s-.616-4.31-1.54-4.772c-2.616-1.693-1.693-5.541 4.618-18.625 3.387-7.08 6.157-13.7 6.157-14.777s1.078-3.386 2.31-4.926c1.23-1.693 2.308-4.31 2.308-6.003 0-1.539.924-4.771 2.155-6.926 1.231-2.31 2.617-5.388 3.079-6.927.461-1.385 2.154-2.617 3.694-2.617 2 0 3.848 2.463 6.31 8.774 1.848 4.926 4.464 11.237 5.696 14.007 1.231 2.771 2.155 6.157 2.155 7.697 0 1.385 1.077 4.002 2.309 5.54 1.231 1.694 2.309 4.31 2.309 5.696 0 1.54 1.077 4.618 2.309 7.08 6.772 13.239 14.16 31.864 16.008 40.483.616 2.925 2 6.927 2.924 8.774 1.078 1.847 1.848 5.08 1.848 7.235s.923 6.157 2.155 8.927c1.23 2.771 3.54 9.544 5.387 15.085 5.387 17.24 6.003 19.087 13.238 36.173 1.077 2.463 2.309 6.003 2.77 7.696.462 1.693 2.31 6.927 4.156 11.545 3.54 8.927 4.926 13.391 7.697 24.628 1.077 3.848 2.462 8.927 3.386 11.544.77 2.463 2.155 8.004 3.078 12.314.77 4.156 2.156 8.312 2.925 9.236 2.309 2.309 6.003-3.54 6.003-9.39 0-2.616 1.078-7.85 2.31-11.39 1.23-3.54 2.308-11.545 2.308-17.856 0-7.85.616-11.852 2.309-13.545 1.231-1.231 2.309-3.54 2.309-5.234 0-1.539.923-5.849 2.155-9.697a1649 1649 0 0 0 4.771-16.778c1.386-5.541 3.387-12.16 4.618-14.623 4.464-10.62 5.85-14.315 8.004-21.55 1.232-4.31 2.771-11.236 3.54-15.392 1.078-7.542 2.925-13.7 6.927-23.09 3.695-9.08 11.699-26.166 13.084-28.475 2.463-3.695 4.772-9.544 6.927-16.932a1117 1117 0 0 1 5.849-17.702c2.155-6.003 4.31-13.391 4.926-16.624.615-4.31 1.693-5.695 4.002-5.695 1.693 0 3.386 1.231 3.848 2.617.462 1.539 1.847 4.618 3.078 6.926 1.232 2.155 2.155 5.234 2.155 6.62 0 1.385.924 4.463 2.155 6.618 1.232 2.309 4.31 9.236 6.773 15.393 4.31 10.005 4.618 11.544 2.77 15.392-6.002 12.314-8.311 18.933-11.544 34.172-.615 2.924-2 6.927-2.924 8.774-1.078 1.847-1.847 4.925-1.847 6.772 0 1.694-1.078 6.465-2.31 10.467-3.847 12.468-11.544 46.948-11.544 52.181 0 2.771-1.847 7.85-4.156 11.545-4.31 6.619-8.774 21.703-10.62 36.48-.463 4.618-1.694 9.39-2.464 10.313-.923 1.078-1.847 8.005-2.308 15.393-.462 7.85-2.155 17.547-4.002 22.781-2.925 8.774-4.926 24.012-6.465 50.796-.462 6.772-.924 60.339-1.232 119.138-.154 84.352.154 106.979 1.693 107.44 1.232.462 1.847-.923 1.847-4.31 0-2.77.924-6.156 2.155-7.388 3.387-4.156 5.696-12.314 9.544-34.633 2-11.852 4.31-22.165 5.233-23.089.77-.77 1.54-3.54 1.54-6.003s1.077-6.465 2.309-8.928c1.23-2.463 3.386-6.465 4.617-8.927 1.232-2.463 2.31-7.235 2.31-10.775 0-3.387 1.077-9.544 2.308-13.546s3.386-11.236 4.772-15.854c1.385-4.618 3.386-10.929 4.464-13.853 1.847-5.08 4.31-13.7 9.543-32.325 1.385-4.618 3.386-10.775 4.464-13.545 1.231-2.771 2.155-6.158 2.155-7.389 0-1.385.923-4.31 2.155-6.465 3.694-7.542 5.849-14.777 7.08-24.166.616-5.234 1.847-10.775 2.771-12.622 1.078-1.847 1.847-4.772 1.847-6.619s.924-5.541 2.155-8.158c1.232-2.77 2.463-6.619 2.925-8.774.923-5.08 4.002-13.545 6.619-18.933 1.231-2.463 2.155-5.387 2.155-6.465 0-1.077.923-4.002 2.155-6.465a343 343 0 0 0 4.31-9.697c3.848-8.928 7.696-17.547 9.081-20.01 3.233-5.85 7.542-16.009 7.542-17.548 0-1.077 1.078-3.232 2.31-4.926 1.23-1.539 2.308-4.156 2.308-5.54 0-2.464.924-4.926 6.927-18.934 1.077-2.616 2.463-6.003 3.078-7.696.77-2.77 1.232-2.617 4.618 1.54 2.001 2.616 4.772 7.08 6.311 10.004 1.54 2.925 4.772 7.85 7.08 10.93 2.31 3.078 4.31 6.618 4.31 7.85 0 1.23 3.08 5.387 6.927 9.235 3.849 3.848 6.927 8.312 6.927 9.697 0 1.386 2.155 5.696 4.618 9.544 2.617 3.694 4.618 7.234 4.618 7.85s4.156 7.234 9.235 14.93c5.08 7.543 9.236 14.932 9.236 16.317s1.077 3.386 2.309 4.464c1.231 1.077 2.309 2.463 2.309 3.232 0 2.31 12.468 20.01 14.776 20.934 1.232.462 4.464-.154 7.081-1.231 3.694-1.54 5.08-1.54 5.541-.154.77 2.309 3.387 2.463 3.387.154 0-2.155-7.235-9.082-9.236-9.082-.923 0-2.463-2.309-3.694-5.233-1.231-2.925-3.694-6.003-5.387-7.081-3.54-1.847-4.31-7.542-1.54-10.313 1.232-1.231.924-2.77-1.077-5.85-2.309-3.54-2.309-4.31-.308-6.31 3.54-3.694 10.16-.308 12.93 6.619 1.385 3.232 4.156 8.004 6.157 10.775 2 2.616 3.694 5.387 3.694 5.849 0 .615 2.155 3.694 4.618 6.926 2.617 3.233 4.618 6.465 4.618 7.235s1.231 2.463 2.77 3.848c4.772 4.31 10.467 11.083 13.392 15.854 4.618 7.389 16.47 19.241 21.55 21.396 2.616 1.078 6.926 4.156 9.543 6.927 2.617 2.617 5.695 4.772 6.927 4.772 3.078-.154 7.388-3.849 7.388-6.465 0-1.232.462-2.771.924-3.233 1.539-1.385 6.772 1.847 6.772 4.156 0 3.079 21.088 22.473 23.551 21.55 1.077-.308 3.232-3.233 4.618-6.157 2.463-4.926 2.463-6.157.308-13.546-1.386-4.464-3.54-9.39-5.08-11.082-1.54-1.54-4.618-6.311-7.08-10.467-2.463-4.156-8.159-11.39-12.622-16.009-4.618-4.617-8.313-8.927-8.313-9.697 0-1.847-5.079-6.927-9.081-8.928-1.693-.923-4.926-5.849-7.235-10.928s-4.617-9.236-5.233-9.236c-2.463 0-11.852-10.467-13.7-15.393-2-5.233-6.772-15.392-9.235-20.01-2.77-4.772-6.311-14.007-6.311-16.008 0-1.232-1.078-2.925-2.309-4.002-1.231-1.078-2.77-4.31-3.232-7.543-1.232-6.31-4.003-12.622-8.312-19.394-1.694-2.617-3.695-6.004-4.618-7.697-2.31-4.464-4.926-8.62-9.544-14.777-2.462-3.078-4.31-6.003-4.31-6.465s-2-4.002-4.617-7.696c-2.463-3.848-4.618-7.388-4.618-8.004 0-.462-1.693-3.232-3.54-5.85-2.001-2.77-5.234-7.85-7.081-11.544s-6.003-10.313-9.39-14.623c-3.232-4.463-6.772-9.697-7.696-11.852-2.155-5.08-5.08-9.851-7.542-12.93-2.77-3.386-2.463-12.006.616-18.163 1.539-2.77 3.232-6.157 4.002-7.388 6.465-12.315 16.778-33.556 16.778-34.48 0-.77 2-3.848 4.463-6.927s6.004-8.312 7.85-11.698c1.848-3.386 4.618-8.312 6.158-10.775 5.08-8.004 13.853-26.321 13.853-28.63 0-1.231 1.078-3.694 2.309-5.388 1.231-1.539 2.309-4.31 2.309-6.003s1.077-4.463 2.309-6.003c1.231-1.693 2.309-4.464 2.309-6.157 0-1.847 1.077-4.618 2.308-6.157 1.232-1.693 2.31-5.695 2.31-8.774 0-3.232.615-6.157 1.385-6.772 1.693-.924 6.157-10.16 9.851-20.01 4.926-13.238 7.542-20.165 9.39-24.629 3.848-9.235 6.003-15.546 6.618-20.318.462-2.77 1.693-5.85 2.925-6.773s2.155-2.309 2.155-3.078c0-.616 2-4.156 4.464-7.85 2.463-3.695 6.003-9.698 8.004-13.546 1.847-3.848 4.925-9.082 6.773-11.545 1.847-2.616 3.848-5.695 4.463-6.926 1.232-2.77 3.233-6.003 10.314-16.932 2.924-4.618 6.926-11.39 8.773-14.93 1.693-3.541 5.388-9.39 8.004-12.93 2.463-3.541 4.618-7.39 4.618-8.467s4.002-7.388 8.928-14.007c7.696-10.467 10.16-14.93 14.777-26.63.616-1.23 2.309-4.463 4.002-6.926 1.54-2.617 4.772-8.312 6.927-12.776 2.309-4.31 4.617-8.004 5.387-8.004.616 0 2.463-2.617 4.156-5.849 4.31-8.466 10.62-18.163 20.78-31.247 4.926-6.465 8.928-12.93 8.928-14.161 0-1.232 1.077-3.079 2.309-4.156 1.231-1.078 2.308-3.079 2.308-4.618s1.078-3.54 2.31-4.618c1.23-1.077 2.308-2.617 2.308-3.386 0-2.77 9.698-14.007 25.398-29.554 23.397-22.935 27.707-27.091 29.092-27.091.616 0 4.772-3.079 9.082-6.773 4.464-3.694 10.467-7.85 13.391-9.39 8.158-4.001 10.775-6.926 10.775-11.851 0-3.54-.616-4.31-3.848-4.31-2.155 0-4.31 1.077-4.772 2.308-1.231 3.079-3.694 2.925-6.003-.307-2.463-3.233-6.619-1.694-8.466 3.386-.77 2.155-2.617 3.848-4.31 3.848-2.924 0-9.543 6.003-9.543 8.62 0 2.001-8.466 8.312-11.083 8.312-.923 0-.462-1.077 1.232-2.309 2.924-2.309 2.924-2.463-.462-4.772-5.541-3.848-4.31-7.234 5.695-15.854 5.08-4.464 9.236-8.928 9.236-9.851 0-1.847 10.928-9.39 18.933-12.93 2.308-.924 4.156-2.617 4.156-3.386s3.694-3.387 8.158-5.542c4.31-2.309 9.081-5.08 10.467-6.31 1.231-1.232 3.54-2.156 4.771-2.156 1.386 0 3.233-1.077 4.31-2.309 1.078-1.231 3.233-2.308 4.618-2.308 4.464 0 7.696-1.694 7.696-4.003 0-2.308-4.771-2.616-10.005-.77M219.471 15.223c3.079 3.694.77 4.31-3.232.923-2.925-2.463-3.079-3.078-1.231-3.232 1.385 0 3.386 1.077 4.463 2.309m900.468-.77c0 1.847-4.31 3.848-5.541 2.617-1.386-1.385.923-4.156 3.386-4.156 1.231 0 2.155.77 2.155 1.54m23.089 9.236c0 1.847-4.31 3.848-5.541 2.616-1.386-1.385.923-4.156 3.386-4.156 1.231 0 2.155.77 2.155 1.54m-19.395 17.547c-2.617 4.156-12.314 9.698-14.007 8.158-1.54-1.693 11.852-13.237 14.315-12.314 1.693.616 1.54 1.386-.308 4.156m-23.704 20.318c0 1.694-9.698 13.546-16.47 20.165-3.695 3.694-6.62 7.234-6.62 8.158 0 .77-.769 1.54-1.539 1.54-.923 0-2.308 1.538-3.232 3.54-.924 2-2.925 4.31-4.464 5.387-2.77 1.693-2.925 1.539-1.077-2.463.923-2.309 3.694-6.003 6.157-8.312 2.309-2.309 4.156-4.618 4.156-5.08s1.231-2 2.77-3.54c1.386-1.54 6.003-6.773 10.313-11.544 6.927-8.005 10.006-10.313 10.006-7.85M679.71 248.421c.462 7.234 1.694 14.623 2.771 16.47.924 1.847 1.847 5.695 1.847 8.62s1.078 8.312 2.31 11.852c1.23 3.54 2.308 8.312 2.308 10.62 0 2.156 1.847 6.774 4.156 10.16 2.309 3.54 4.772 9.543 5.387 13.853.462 4.156 2.771 14.315 4.772 22.32 6.927 26.937 7.85 32.016 6.157 35.864-2.77 5.542-4.772 12.16-5.849 18.78-.616 3.232-2.001 8.004-3.232 10.312-1.232 2.31-2.155 5.85-2.155 7.85 0 2.156-1.694 8.159-3.695 13.546s-4.156 13.7-4.771 18.317-1.847 9.698-2.617 11.237c-.77 1.54-2.309 7.85-3.233 13.853l-1.847 10.929-3.078-4.618c-1.54-2.463-3.233-8.158-3.54-12.93-.462-4.617-1.694-9.85-2.771-11.544-1.232-1.693-2.155-5.387-2.155-8.466s-.924-6.773-2.001-8.466c-1.232-1.693-3.233-6.927-4.772-11.544-1.385-4.618-3.694-10.775-4.926-13.392-1.231-2.77-3.232-7.234-4.31-10.005-1.23-2.77-3.232-7.696-4.617-10.929-1.386-3.232-2.463-7.388-2.463-9.235 0-2.001-1.078-4.926-2.309-6.62-3.232-4.31-2.77-12.621 1.693-30.323 2.31-8.62 4.618-19.24 5.234-23.396.462-4.31 2.616-10.467 4.771-13.854 4.31-7.234 8.928-23.55 8.928-32.478.154-3.387 1.232-7.543 2.463-9.236 1.54-2 2.155-6.773 2.309-14.777 0-14.16.923-16.931 5.233-16.316 2.925.462 3.233 1.693 4.002 13.546m-182.864 27.706c2.617 2.463 2.925 3.54 1.54 4.926-1.54 1.54-2.155 1.231-2.771-1.54-.616-1.846-1.54-3.386-2.31-3.386s-1.384-.77-1.384-1.539c0-2.309 1.231-1.847 4.925 1.54m-122.216 94.51c.462 1.847-.154 2.617-1.54 2.155-1.077-.462-2.308-2.001-2.462-3.386-.462-1.848.154-2.617 1.54-2.155 1.077.461 2.308 2 2.462 3.386m578.762 17.24c-3.848 4.002-5.85 4.618-5.85 2 0-2.154 6.62-7.542 8.159-6.464.616.308-.462 2.309-2.309 4.464M707.11 581.208c0 6.62-.923 12.623-2.155 14.624-1.231 1.847-2.155 4.464-2.155 5.695 0 3.387-2.924 4.618-4.002 1.693-.615-1.385.154-3.694 1.54-5.233 1.385-1.54 2.462-4.002 2.462-5.542 0-1.539-1.077-4.002-2.462-5.54-2.463-2.772-2.31-4.157.77-9.082.769-1.232 1.846-3.54 2.308-5.08 2.001-6.157 3.848-1.847 3.694 8.466m37.866 208.57c-1.54 7.081-2 8.159-3.694 8.159s-2.155-9.698-.462-11.237c2.617-2.77 5.08-.923 4.156 3.079m-5.233 15.855c0 3.386-2.463 5.388-3.849 3.079-1.385-2.155.616-8.005 2.463-6.927.77.616 1.386 2.309 1.386 3.848" style="stroke-width:.153926"/>
</svg>
