<svg xmlns="http://www.w3.org/2000/svg" width="1205" height="960">
    <path d="M1003.98 646.71c-36.36 34.34-94.94 89.891-131.301 124.232s-103.022 96.961-148.473 140.392c-113.121 106.052-88.88 105.042 57.571-4.04 41.41-30.3 98.982-70.701 126.252-88.881 28.28-18.18 66.661-55.551 85.851-82.822 19.19-28.28 41.411-57.57 48.481-64.64 6.06-7.07 12.12-18.18 12.12-23.23s7.07-15.151 15.15-22.221c16.16-13.13 21.21-40.4 8.08-40.4-5.05 0-37.37 28.28-73.73 61.61m20.201-142.412c0 5.05-6.06 10.1-14.14 10.1-13.13 0-128.272 120.192-135.342 141.402-8.08 23.23 27.27 7.07 64.64-28.28 62.622-59.591 115.142-133.322 94.942-133.322-5.05 0-10.1 4.04-10.1 10.1m-696.91-5.05c0 8.08 7.07 15.15 15.15 15.15s15.15-7.07 15.15-15.15-7.07-15.15-15.15-15.15-15.15 7.07-15.15 15.15m-194.933-38.38c57.57 91.91 178.772 241.393 250.483 311.084 182.813 175.743 187.863 169.682 34.34-35.35-116.15-153.523-354.514-384.816-284.823-275.735M527.254 53.83l-78.782 82.821v544.399l83.832 83.83c45.45 45.451 87.87 82.822 92.921 82.822 6.06 0 49.49-38.38 95.951-85.851L807.028 676l3.03-263.613 3.03-263.614-87.871-89.892C676.736 9.391 629.265-30 621.185-30c-9.09 1.01-51.51 38.38-93.931 83.831m139.382 90.902 34.34 34.34V637.62l-34.34 34.34c-19.19 19.19-38.38 34.34-44.441 34.34-5.05 0-26.26-18.18-46.46-40.4l-36.361-40.4V191.193l36.36-40.4c20.2-22.22 41.41-40.4 46.461-40.4 6.06 0 25.25 15.15 44.44 34.34" style="stroke-width:1.01002"/>
</svg>
