<svg xmlns="http://www.w3.org/2000/svg" width="820" height="960">
    <path d="m191.006 393.71 2.246-2.246h2.247v-2.246q-13.477-20.215-15.723-22.461a16.09 16.09 0 0 1-2.246-17.969q4.492 4.492 4.492 5.616t6.738-3.37l6.739 8.985a52 52 0 0 1 6.738 11.23l6.738 6.739v-2.247a25 25 0 0 1 2.246-11.23q2.246-4.492-4.492-11.23-2.246 0-4.492-6.739-2.246 0-3.37-3.369a14.1 14.1 0 0 0-3.368-5.615 19.43 19.43 0 0 0-15.723-8.985q0-4.491-6.738-8.984a1.984 1.984 0 0 1-2.247-2.246q0-2.246-15.722-13.476l-8.985-8.985a17.37 17.37 0 0 1 15.723 4.492l6.74 6.739a12.805 12.805 0 0 0 13.476 4.492h6.737q0 2.246 11.23 8.984 4.492-4.492 4.493-6.738a16.22 16.22 0 0 1 13.476 5.615q4.492 5.616 6.739-1.123 8.983-42.676 8.983-44.922a142.8 142.8 0 0 1 11.23-35.937 299 299 0 0 1 11.231-31.445 142.6 142.6 0 0 1 7.86-19.092l3.37-3.37 11.23-33.69a10.17 10.17 0 0 0 2.246-11.23q-2.246 0-4.492-8.986 4.492-2.245 0-8.984a23.33 23.33 0 0 0-8.983-15.722q-2.246-2.245-6.738-7.86a56 56 0 0 1-5.615-7.86 19.3 19.3 0 0 0-5.616-5.615l-4.492-3.372a26.1 26.1 0 0 1-4.492-6.739 18.5 18.5 0 0 1 5.615 1.123 24.9 24.9 0 0 0 7.86 1.123 15.24 15.24 0 0 1 11.23-4.492l-4.492 4.492q-4.492 2.247 0 4.493 2.247 0 6.739 11.23 2.246 2.246 6.738 0l2.246 2.246h4.492a6.47 6.47 0 0 0 2.249-4.492 13 13 0 0 0-2.247-8.984q-2.245 0-2.245-4.493l8.984 6.739 4.492 4.492a7.336 7.336 0 0 0 8.984-2.246 51 51 0 0 0 15.723-26.953 13.2 13.2 0 0 1 6.736-11.23l8.984-8.985a93.2 93.2 0 0 0 20.215-24.708 200 200 0 0 0 11.23-20.214 35.36 35.36 0 0 1 8.986-13.476 122.5 122.5 0 0 0 22.462-20.215q4.491-4.492 4.492-6.739 11.23-4.492 11.23-11.23 6.738 8.985 8.984 8.984a12.94 12.94 0 0 1 4.493 8.985v2.246q2.245 0 10.107 7.86l12.354 12.353a21.65 21.65 0 0 1 8.984 11.23 102.1 102.1 0 0 0 13.477 24.708q2.245 0 2.245 4.492a28.63 28.63 0 0 0 13.477 13.477 15.44 15.44 0 0 1 3.369 7.86q1.123 5.614 10.107 5.615 2.246 8.984 4.493 8.984a35.76 35.76 0 0 0 11.23 20.215l2.246 4.492a9.78 9.78 0 0 0 13.477 2.246l6.738-4.49a36.8 36.8 0 0 0-2.246 8.985q0 6.738 6.739 4.492a12.04 12.04 0 0 0 13.476-8.984 6.47 6.47 0 0 1 2.246-4.492l6.739-4.493a33.9 33.9 0 0 0 20.214-8.984q0 2.247-6.738 8.984l-33.692 33.692-2.245 4.492a19.9 19.9 0 0 0-2.247 8.984 7.19 7.19 0 0 1-4.492 6.738v8.985h6.739v2.246l4.492 35.937a9.15 9.15 0 0 0 2.246 6.739 37.5 37.5 0 0 1 11.23 15.722q6.739 15.723 17.969 40.43a27.6 27.6 0 0 1 4.492 11.23v2.247a407 407 0 0 0 11.23 40.43 69.7 69.7 0 0 0 4.493 15.722l4.492 6.738h2.246q6.738-4.492 11.23 0a9.78 9.78 0 0 0 13.477-2.246l4.492-2.246a2.808 2.808 0 0 1 4.493 0 7.34 7.34 0 0 0 8.984-2.246l5.615-5.615 5.615-3.37a21.83 21.83 0 0 1 11.23-4.492 7.195 7.195 0 0 1-4.492 6.738 35.2 35.2 0 0 0-8.984 6.739 3.6 3.6 0 0 0-3.37 2.246 3.6 3.6 0 0 1-3.368 2.246q-4.492 4.492-4.492 6.738a8.81 8.81 0 0 0-6.738 8.984 9.105 9.105 0 0 0-11.23 4.493q0 2.246-3.37 4.492t-3.37 4.492a66 66 0 0 0-5.614 6.738 66 66 0 0 1-5.616 6.739 9.783 9.783 0 0 0 2.246 13.476l2.246 4.492a28.4 28.4 0 0 1 13.476-15.722l4.492-8.984a26.1 26.1 0 0 0 4.492 6.738 14.1 14.1 0 0 0 3.37-5.615q1.122-3.37 3.369-3.37 0 2.247 4.492 6.74l2.246 2.245a13.5 13.5 0 0 1-8.985 8.984 57.97 57.97 0 0 0-20.214 24.708 55.3 55.3 0 0 0 22.46-8.985v4.493h-2.246v2.246q2.247 4.492-8.984 17.968-33.691 40.43-35.937 44.922t-22.461 38.184l-2.247 2.246a48.7 48.7 0 0 0-13.476 15.723 122 122 0 0 1-13.477 22.46l-1.123 2.246-1.123 3.37q-1.122 3.368-11.23 25.83a123 123 0 0 1-6.738 15.722 34.5 34.5 0 0 0-4.493 13.477 279 279 0 0 0-13.476 35.937q-2.246 0-4.492 3.37a37 37 0 0 1-4.493 5.614q-6.738 17.969-15.722 38.184a99.7 99.7 0 0 1-8.984 17.969q-2.246 0-4.493 4.492l-1.122 6.738-3.37 8.985a264 264 0 0 0-11.23 31.445q-2.246 8.984-6.739 24.708a96.4 96.4 0 0 0-4.492 24.707 155 155 0 0 0-4.492 17.969 112 112 0 0 0-2.246 13.476 25.8 25.8 0 0 1-2.246 7.86 25.7 25.7 0 0 0-2.246 7.86v6.738q-4.492 29.199-4.492 33.691v40.43a135 135 0 0 1-2.245 20.218 146 146 0 0 0-2.245 23.584 78.5 78.5 0 0 1-2.247 19.091v20.215a217.7 217.7 0 0 0-2.246 40.43v6.738l-2.246 6.739v26.953a9.15 9.15 0 0 1-2.246 6.738v-4.492a183.3 183.3 0 0 0-4.492-31.445v-26.954l-2.246-8.984a70.6 70.6 0 0 0-1.123-11.23 89 89 0 0 1-1.123-14.6 28 28 0 0 0-2.246-12.353v-17.97l-2.246-8.983q-2.246-51.66-2.246-53.907-4.493-35.937-6.739-49.415a63 63 0 0 0-1.123-12.353q-1.123-5.616-2.246-10.108-1.123-4.491-3.37-11.232a37 37 0 0 1-2.246-11.231q0-2.246-6.738-33.691-8.985-33.691-15.723-53.906a234.5 234.5 0 0 1-15.723-34.815q-8.984-23.584-13.476-34.814-2.246-6.739-5.616-14.6t-6.738-14.598-7.86-14.598a82.3 82.3 0 0 1-6.738-14.6 121 121 0 0 0-7.86-20.214q-7.86-17.969-12.353-26.953a14.1 14.1 0 0 1-3.37-5.616l-1.125-3.37a325 325 0 0 0-17.969-31.446q-6.739-8.984-35.938-62.89a241 241 0 0 0-31.445-44.922m303.223-170.703q0 4.492-2.246 4.492a371.4 371.4 0 0 0-17.969 49.416q-2.246 4.492-10.107 21.338a158.4 158.4 0 0 0-10.107 25.83 20.5 20.5 0 0 0-1.124 11.23 74.6 74.6 0 0 0 5.616 13.476 35.2 35.2 0 0 1 6.738 8.985 19.54 19.54 0 0 0 3.369 7.86 43.4 43.4 0 0 0 5.615 7.86 27.7 27.7 0 0 1 4.493 15.722 155 155 0 0 0 4.492 17.969v4.492l2.246 2.246 2.246 6.738a69.7 69.7 0 0 0 4.492 15.723 21.65 21.65 0 0 0 8.985-11.23l8.984-17.97 4.492-4.492q6.738 0 11.23-11.23a40.26 40.26 0 0 1 13.477-20.215 7.19 7.19 0 0 0 4.492-6.738 83.35 83.35 0 0 0-8.984-33.691 32.74 32.74 0 0 1-4.492-13.477l-1.122-3.367-1.126-5.616q-8.984-29.2-11.23-38.184a51.5 51.5 0 0 1-4.492-15.722 6.47 6.47 0 0 0-2.246-4.492q-2.246-4.492-15.723-26.953zm-170.703 0-4.492 11.23a149 149 0 0 0-6.738 20.215 85.5 85.5 0 0 1-8.985 22.461q-2.245 6.738-6.738 21.338-4.492 14.6-6.738 21.338l-13.477 40.43a12.94 12.94 0 0 0 4.492 8.984 118 118 0 0 1 11.23 17.969 60 60 0 0 0 11.23 15.722 35.2 35.2 0 0 1 6.739 8.985 111 111 0 0 0 15.723 22.46l2.246-2.245q4.492-17.969 6.738-17.97 2.246-6.737 6.738-29.198a69.6 69.6 0 0 1 4.492-13.477l4.493-4.492a193.4 193.4 0 0 1 13.476-29.199 14.47 14.47 0 0 0 0-11.23 148 148 0 0 0-8.984-24.708l-2.246-6.738a204 204 0 0 1-8.985-21.338l-8.984-24.708-8.984-21.338zm78.613-13.476q6.738 0 6.739-4.492a71 71 0 0 0 6.738-15.723 43.5 43.5 0 0 0 5.615-7.86q3.37-5.615 5.616-10.107a88 88 0 0 1 8.984-20.215v-2.248a14.24 14.24 0 0 0 3.369-6.738 44 44 0 0 1 3.37-8.984l4.491-8.985a30.6 30.6 0 0 0 2.245-20.214 128.7 128.7 0 0 0-15.722-40.43 3.6 3.6 0 0 1-3.37-2.246 10 10 0 0 1-1.123-4.492l-13.476-26.955-8.984-15.72a84.7 84.7 0 0 0-8.985 17.97q-11.23 24.707-20.214 40.43a24.4 24.4 0 0 0-4.492 8.984l-8.985 24.707a9.55 9.55 0 0 0 0 8.985q8.984 24.707 13.477 33.69a24.4 24.4 0 0 1 4.492 8.986 18.5 18.5 0 0 0 1.123 5.615 18.5 18.5 0 0 1 1.123 5.615q2.246 4.492 6.738 15.723zm6.739 393.065 4.492-8.984q15.722-29.2 29.2-56.152l4.491-13.477a11.945 11.945 0 0 0-1.123-14.6 56.5 56.5 0 0 1-7.86-14.599 79.8 79.8 0 0 1-6.737-22.46 67.57 67.57 0 0 0-17.97-29.2q-2.245-2.246-6.738 0a65.8 65.8 0 0 0-11.23 17.969 208 208 0 0 1-11.23 29.2 52 52 0 0 1-6.739 11.23 29.51 29.51 0 0 0-2.246 29.199q2.247 2.246 29.2 60.644zM608.78 346.542q-8.985 0-8.985 6.739 2.246 0 4.493-3.37 2.246-3.369 4.49-3.369zm71.874 4.492a24.15 24.15 0 0 1-4.492 13.477l-2.246-2.246a21.83 21.83 0 0 1 4.492-11.23zm-545.8-67.384a28.27 28.27 0 0 1-15.723-11.229 32.85 32.85 0 0 1 15.723 11.23m552.538 49.416a17.6 17.6 0 0 1 4.492-3.37l2.246-1.123q2.246 2.247 0 5.616l-2.246 3.37zm2.246-53.906a18.4 18.4 0 0 1 11.23-6.739 18.4 18.4 0 0 1-11.23 6.739m-491.894 74.12a7.195 7.195 0 0 1-4.492-6.738v-4.492a9.105 9.105 0 0 1 4.492 11.23m453.71 0q-4.492-6.738 0-8.984l2.247 2.246zm13.477-22.46v6.738q0-2.247-4.492-6.738l2.246-2.247a1.984 1.984 0 0 0 2.246 2.247m-530.077-47.17a4.44 4.44 0 0 1 6.738 2.246 4.44 4.44 0 0 1-6.738-2.246m543.554 2.246a4.44 4.44 0 0 1 6.738-2.246 9.15 9.15 0 0 1-6.738 2.248zM251.65 99.472q2.246 4.493 0 4.493-2.247 2.245-2.247 0a6.47 6.47 0 0 1 2.247-4.493m435.741 226.856H682.9v-2.247q4.492-2.246 4.492 0zm-8.984 2.245a7.195 7.195 0 0 1 4.492 6.739 7.19 7.19 0 0 1-4.492-6.739m-509.861 20.215q-4.493 0-2.247-2.246l2.247-2.246a2.808 2.808 0 0 1 0 4.492m103.318-222.362q-2.245 2.245-3.369 2.245-1.123 0-1.123-2.245 0-2.247 1.123-2.247t3.37 2.247M188.76 339.804a3.97 3.97 0 0 1-4.492-4.492 3.97 3.97 0 0 1 4.492 4.492m408.788-287.5-2.246 2.246-2.246-2.245a1.984 1.984 0 0 0 2.246-2.247zm-44.921 71.875v2.247l-2.247 2.245v-4.492zm107.812 215.625-2.246 2.246h-2.246a6.47 6.47 0 0 0 2.246-4.492l1.123 1.123zm8.984 11.23 2.246 2.247-2.246 2.246q-2.246 0-2.246-1.123t2.246-3.37M235.928 70.274v-2.247h2.246a1.984 1.984 0 0 1-2.246 2.246m-71.875 269.53-2.246 2.246a1.984 1.984 0 0 1-2.246-2.246l2.246-2.246a1.984 1.984 0 0 0 2.246 2.246" style="stroke-width:38.9097"/>
</svg>
