<svg xmlns="http://www.w3.org/2000/svg" width="1333" height="960">
    <path d="M977.654 857.114c-3.67 4.194-12.582 8.388-19.398 9.436-7.34 1.049-13.63 3.67-14.155 6.816-1.573 8.388 22.543 9.437 31.98 1.048 4.719-4.194 13.107-8.912 18.35-9.436 5.242-1.049 9.96-4.719 10.485-7.34 1.572-8.388-20.447-8.912-27.262-.524m-582.456-223.86c0 10.485 35.65 75.493 57.145 103.804 48.232 63.435 98.561 105.9 157.803 133.687 13.106 6.29 30.407 14.679 38.27 18.349 28.835 14.68 54.524 7.34 35.65-9.961-11.533-10.485-47.707-29.359-56.095-29.359-3.146 0-8.913-3.67-12.583-7.864s-9.96-7.864-14.155-7.864c-8.912 0-64.484-41.417-91.221-67.63-25.69-26.213-73.922-91.746-81.261-110.62-6.816-18.348-11.534-23.591-22.544-25.164-5.766-1.048-11.009 0-11.009 2.622M717.62 182.387c2.097 5.243 5.766 16.253 8.388 24.117 2.097 8.388 6.29 17.824 8.912 20.97 2.622 3.67 6.291 14.68 7.864 24.64s5.767 28.835 9.437 40.893c7.34 23.068 7.34 23.068-10.485 38.795-17.301 15.728-18.35 15.728-63.96 13.631-27.262-1.048-46.66 0-46.66 2.622s10.485 14.679 24.116 26.213c18.35 16.252 23.068 23.592 22.02 34.601-1.573 12.582-4.195 14.155-30.408 17.3-15.728 2.098-35.65 5.768-43.514 8.913-8.388 3.146-30.931 5.767-50.853 5.767-19.398 0-54.524 3.67-77.067 7.864s-59.766 7.864-82.833 7.864c-23.068.524-60.815 3.67-83.882 7.864s-67.63 7.864-99.61 8.388c-31.456.524-64.485 2.621-73.397 4.718l-15.728 3.67 20.446 8.913c15.204 6.815 44.563 10.485 104.853 14.155 46.66 2.621 96.464 6.815 110.62 9.437 14.679 3.145 46.134 5.242 70.775 5.766 24.64 0 59.766 3.67 78.64 7.864 18.873 4.195 49.804 7.34 68.678 7.864 19.397 0 45.086 3.67 57.144 7.864s27.786 7.864 34.602 7.864c9.96 0 12.582 2.622 12.582 13.107 0 13.106-15.728 31.98-40.368 48.232-6.816 4.194-10.486 9.961-8.913 12.582s25.689 4.719 54 4.719c47.707 0 51.901 1.048 63.435 13.106 12.058 12.583 12.058 14.68 5.767 35.65-3.67 12.058-7.864 29.359-9.437 38.796s-5.767 19.922-9.96 23.067c-4.195 3.146-7.34 11.534-7.34 18.35 0 6.29-2.098 13.63-5.243 15.203-8.913 5.243-5.767 13.107 5.243 13.107 12.058 0 48.232-17.301 71.824-35.126 8.912-6.291 18.873-12.058 22.019-12.058s24.116-18.35 47.183-40.893c45.087-43.513 79.164-99.085 79.164-128.968 0-8.913 2.097-19.922 4.718-24.116 3.146-4.194 3.67-9.961 1.573-13.107-2.097-2.621-3.67-37.223-3.67-76.018 0-59.242-1.573-73.397-8.912-85.455-5.243-7.34-9.437-16.776-9.437-19.922 0-13.63-35.126-61.863-69.727-95.416-19.922-19.397-38.271-35.125-40.892-35.125s-14.68-7.34-26.738-15.728c-11.534-8.913-24.64-15.728-27.786-15.728-3.67 0-9.437-3.67-13.106-7.864s-13.631-7.864-22.02-7.864c-13.106 0-15.203 1.573-12.057 8.912m138.93 187.687c0 5.766-9.438 7.34-47.709 7.34-36.174 0-49.805 2.096-56.62 7.863-5.243 4.719-13.107 8.388-17.825 8.388s-8.912 3.67-8.912 7.864-3.67 7.864-7.864 7.864-7.864-1.573-7.864-3.145c0-7.34 27.261-28.31 36.174-28.31 5.767 0 11.01-3.67 13.106-7.864 4.194-11.534 97.513-11.534 97.513 0m31.455 18.349c5.767 5.767 10.485 12.582 10.485 15.203 0 2.622 3.67 5.767 7.864 7.864 4.719 1.573 6.291 6.291 4.194 11.534-2.621 7.864-3.67 7.864-8.388-.524-6.815-12.582-21.495-26.213-31.456-30.407-4.718-1.573-8.912-5.767-8.912-8.913 0-8.912 15.203-5.767 26.213 5.243m-178.25 40.892c0 6.816-6.29 11.534-11.533 8.388s-.524-12.582 6.815-12.582c2.622 0 4.719 2.097 4.719 4.194m144.173 8.913c14.155 11.534 15.728 16.252 15.728 41.417 0 38.795-15.204 55.571-49.28 55.571-37.224 0-57.67-29.358-49.806-70.775 6.291-35.65 53.475-50.33 83.358-26.213m91.746 99.61c0 4.194-2.097 7.864-5.243 7.864-2.621 0-5.242-3.67-5.242-7.864s2.62-7.864 5.242-7.864c3.146 0 5.243 3.67 5.243 7.864m-188.735 18.349c0 3.146 5.767 7.864 13.107 10.485s13.106 7.34 13.106 10.485c0 3.146 20.447 5.243 52.95 5.243 39.845 0 52.427 1.573 50.854 6.291-1.572 4.719-17.824 7.34-50.329 8.388-39.844 1.049-48.756 0-51.378-6.815-1.572-4.194-7.34-7.864-12.058-7.864-7.864 0-31.98-21.495-31.98-28.31 0-1.573 3.67-3.146 7.864-3.146s7.864 2.622 7.864 5.243m173.007-1.573c0 6.291-24.116 27.786-30.931 27.786-9.961 0-6.292-11.534 4.718-14.155 5.767-1.573 10.485-6.291 10.485-9.961 0-4.194 3.67-7.34 7.864-7.34s7.864 1.573 7.864 3.67M652.086 70.72c-3.67 4.718-12.057 8.388-18.348 8.388-6.292 0-14.68 3.67-18.35 7.864s-11.01 7.864-16.776 7.864c-5.243 0-11.01 3.67-12.582 7.864-2.097 4.194-7.864 7.863-13.107 7.863-5.767 0-11.534 3.67-13.107 7.864-2.097 4.195-5.766 7.864-9.436 7.864-8.388 0-31.456 25.69-27.262 30.408 2.097 2.097 6.815 0 9.961-4.719 3.67-4.194 10.485-9.436 15.728-11.534 4.718-1.572 8.912-5.766 8.912-8.912 0-2.621 4.719-5.243 10.486-5.243s12.058-3.67 13.63-7.864c2.098-4.194 8.389-7.864 15.204-7.864 6.291 0 14.68-3.67 18.35-7.863s12.582-7.864 20.446-7.864 16.776-2.622 19.922-5.767c3.145-3.146 13.106-7.34 22.543-9.437 22.543-4.194 22.543-13.107-.524-15.204-12.058-1.048-20.97 1.049-25.69 6.292m-48.231-98.038c-5.243 1.049-9.437 4.194-9.437 6.816 0 8.912 16.776 20.97 28.834 20.97 10.486 0 28.31 6.816 55.048 22.02 4.194 2.096 12.582 6.29 18.873 8.912 5.767 2.621 17.3 12.058 25.69 20.97 8.387 8.389 20.97 17.301 27.785 18.874C767.425 75.438 929.946 225.9 929.946 236.91c0 3.145 5.767 13.106 12.582 22.019 25.165 34.077 57.67 109.57 66.057 153.085 2.097 11.533 6.816 31.98 11.01 45.61 5.243 19.922 5.243 28.31-.524 47.184-3.67 12.058-8.389 31.98-10.486 43.514-8.388 42.99-40.892 118.483-66.057 153.085-6.815 8.912-12.582 18.873-12.582 22.019 0 5.242-19.398 24.64-116.386 115.862-42.466 40.368-47.184 42.99-67.63 42.99-27.262-.525-33.553 2.62-25.165 12.582 8.388 10.485 3.146 19.922-17.3 30.407-9.437 4.718-20.971 10.485-25.165 13.106-29.883 15.728-44.562 21.495-55.048 21.495-12.058 0-28.834 12.058-28.834 20.97s37.747 12.583 54.523 5.243c8.913-3.67 25.689-7.863 37.223-9.436 11.534-1.049 25.689-5.767 31.456-9.437 5.766-4.194 15.203-7.34 21.494-7.34s14.155-3.67 17.825-7.864 10.486-7.864 15.728-7.864c5.243 0 12.058-3.67 15.728-7.863s10.485-7.864 15.728-7.864 12.058-3.67 15.728-7.864c4.194-4.719 15.728-7.864 30.931-7.864 13.107-.525 29.883-3.67 37.223-7.864s18.35-7.34 25.165-7.864c6.815 0 11.533-3.146 11.533-7.864 0-5.767-5.767-7.864-20.97-7.864-11.534 0-20.97-2.097-20.97-5.243 0-4.718 31.455-37.747 88.076-90.697 49.28-46.135 68.154-71.824 96.988-132.114 22.02-46.136 29.883-67.63 34.601-94.368 2.098-11.533 6.816-26.213 9.961-32.504 3.67-6.291 6.292-27.262 6.292-46.135 0-18.874-2.622-39.844-6.292-46.135-3.145-6.291-7.863-20.97-9.96-32.505-4.719-26.737-12.583-48.232-34.602-94.367-28.834-60.29-47.708-85.979-96.988-132.114-56.62-52.95-88.077-85.98-88.077-90.698 0-7.34 11.534-6.29 23.068 2.622 5.767 4.194 15.728 7.864 22.019 7.864s14.155 3.67 17.825 7.864 10.485 7.864 15.728 7.864c5.242 0 12.058 3.67 15.728 7.864s9.96 7.863 14.155 7.863c9.436 0 82.833 56.097 104.328 79.688 20.446 22.544 54.523 70.776 54.523 77.067 0 2.621 3.67 7.34 7.864 11.01 4.195 3.67 7.864 10.485 7.864 15.727s3.67 12.058 7.864 15.728 7.864 11.534 7.864 17.825 3.67 16.252 7.864 22.02c4.194 5.242 7.864 18.873 7.864 29.358 0 23.068 4.719 36.698 11.01 32.504 7.864-4.718 5.242-66.581-3.146-77.59-4.194-5.767-7.864-14.156-7.864-18.35 0-15.728-40.892-90.697-65.533-120.58-47.183-56.096-96.464-96.465-149.415-121.105-13.106-6.291-30.407-14.68-38.27-18.35-8.389-4.193-21.496-7.863-28.835-7.863-7.864-.524-19.922-3.67-27.262-7.864s-24.116-7.34-37.223-7.864c-15.203 0-26.737-3.146-30.931-7.864-3.67-4.194-10.485-7.864-15.728-7.864s-12.058-3.67-15.728-7.864-10.485-7.864-15.728-7.864c-5.242 0-12.058-3.67-15.728-7.864S745.406.468 739.114.468s-16.252-3.67-22.019-7.864c-5.242-4.194-18.349-7.864-28.31-7.864s-24.116-3.67-31.456-7.863c-12.582-7.34-35.125-8.913-53.474-4.195" style="stroke-width:.524263"/>
</svg>
