<svg xmlns="http://www.w3.org/2000/svg" width="1300" height="960">
    <path d="M326.497 737.59c-.96 1.92.32 7.362 2.88 12.164 4.802 8.642 4.802 8.642 5.442 1.6.32-3.841.64-8.643.96-10.884.32-4.801-6.401-7.042-9.282-2.88m-18.246-.96c-1.28.96-.64 6.401.96 11.843 1.6 5.762 3.2 15.365 3.2 21.447.321 8.643 1.281 6.722 4.482-9.603 2.241-11.524 3.522-21.767 2.561-23.048-1.6-2.88-8.643-3.2-11.203-.64m79.386-244.562c-.64 4.161-3.201 15.365-5.122 24.968-4.801 20.807-8.323 128.363-4.801 136.686 1.92 4.161 3.52.64 6.082-13.445 3.2-17.286 4.481-19.206 11.524-19.206 6.722 0 8.322 1.92 10.563 14.405 3.521 17.926 8.643 24.008 8.963 10.883 1.28-28.81-1.28-101.474-4.161-116.519-1.921-9.603-4.162-23.367-5.442-30.41-1.6-9.923-3.521-13.124-8.963-13.764s-7.363.96-8.643 6.402m-83.228-30.41c-.96.96-1.92 10.883-1.92 21.767s-1.6 27.53-3.522 37.132c-5.761 28.17 4.482 54.418 15.366 40.334 6.082-7.363 7.362-26.249 2.56-45.455-2.56-10.564-4.481-26.57-4.801-35.852 0-15.685-2.881-22.408-7.683-17.926m721.52 217.672c.32 1.6 2.24 6.082 4.801 10.564l4.482 8.002.32-10.563c0-7.043-1.6-10.244-4.802-10.244-2.56 0-4.801.96-4.801 2.241m-15.365-2.88c-2.24 1.6-2.24 8.002.64 21.446 4.482 20.807 3.841 21.447 10.243-10.883 1.601-9.283-3.84-14.725-10.883-10.564m-18.566-.32c-4.162 1.28-2.241 32.65 2.24 37.451 3.202 3.842 5.122-1.6 7.043-21.127 1.28-14.724-1.28-19.206-9.283-16.325m-19.847.64c-2.56 1.6-2.88 7.362-.96 18.886 3.52 21.767 5.442 23.367 8.323 6.402.96-7.683 2.88-16.006 3.52-18.887 1.601-5.762-5.441-9.923-10.883-6.402m-74.265 1.92c-5.761 6.722 10.564 15.045 21.127 11.204 6.723-2.561 9.924-2.561 13.445 1.28 4.161 4.161 5.442 3.841 10.563-2.24 6.082-7.683 6.082-7.683 12.164 13.764 2.561 10.243 2.881 10.563 3.202 2.56.32-4.8 1.92-12.483 4.16-16.965 1.922-4.481 2.562-8.963 1.601-9.923-4.161-4.162-62.74-3.841-66.262.32m23.048-43.855c-15.685 6.723-27.85 17.606-24.968 22.728 2.88 4.481 131.884 4.801 134.764.32 3.842-6.082-6.402-15.685-23.367-22.087-22.408-8.643-66.262-8.963-86.429-.96m-53.138-189.183c-.96.96-1.92 13.125-1.92 26.57 0 16.325-1.6 26.248-4.802 30.73-7.362 9.603-6.402 38.092 1.92 46.415 6.083 6.082 7.043 6.402 12.485 1.28 8.643-8.002 11.204-28.169 5.122-40.333-3.521-7.042-5.122-18.886-5.122-36.812 0-24.328-2.24-32.971-7.683-27.85M625.156-17.86c-16.646 7.682-24.328 15.365-31.69 31.37-7.683 16.966-7.683 30.09 0 45.455 26.888 52.177 100.513 43.535 110.436-13.124 4.802-26.249-8.323-50.577-33.931-63.701-14.405-7.363-29.13-7.363-44.815 0m36.812 10.563c8.643 2.56 15.685 7.683 21.767 16.325 30.73 42.255-21.127 94.112-63.38 63.382-16.326-11.844-23.369-32.651-16.966-48.977 5.441-13.764 15.365-24.648 27.209-29.77 12.484-5.441 15.685-5.762 31.37-.96m14.725-179.26c-.32 2.241 0 16.966.32 32.331.32 17.926-.96 29.77-3.201 32.651-4.161 5.122-29.13 6.402-47.376 2.881l-9.923-1.92-.96-32.651c-.64-17.606-2.241-32.331-3.842-32.331-1.28 0-5.762 5.762-9.603 12.804-3.521 7.042-7.362 13.445-8.643 14.405-2.88 2.88-15.685 28.81-15.685 32.65 0 1.921-2.24 5.122-5.442 7.363-2.88 2.24-5.121 8.003-4.801 14.085 0 5.442-1.921 14.085-4.482 18.886-2.24 4.802-4.481 12.164-4.481 16.646s-2.241 13.764-4.802 20.807-4.481 20.806-4.801 30.73c0 25.288-2.881 27.529-52.818 40.973-8.963 2.241-27.53 10.244-61.46 26.25-7.683 3.52-14.405 7.682-15.366 9.602-1.28 1.6-4.161 2.881-6.722 2.881-4.801 0-24.328 12.484-26.248 16.646-.64 1.6-2.561 2.56-4.162 2.56-6.402 0-52.817 38.413-76.825 63.062-22.408 22.727-59.54 69.143-64.662 80.986-1.28 2.561-5.122 8.963-8.643 14.405-3.52 5.122-7.042 11.844-8.322 14.405-.96 2.56-3.202 7.042-4.802 9.603s-3.841 7.043-4.802 9.603c-.96 2.561-3.841 8.643-6.402 13.445-2.56 4.481-4.481 10.883-4.481 14.405 0 3.2-2.241 8.643-4.802 11.844-2.56 3.52-4.801 8.642-4.801 11.844 0 2.88-2.241 9.603-4.802 14.404-2.561 5.122-4.802 13.445-4.802 18.246 0 5.122-1.6 12.164-3.841 16.006-1.92 3.841-4.802 18.886-5.762 33.61-2.56 31.691-6.722 38.414-34.571 56.66-10.884 7.042-19.527 14.084-19.847 16.005 0 1.6 9.603 9.603 21.447 17.606 24.968 16.645 30.09 24.968 32.01 54.098.961 11.524 3.522 27.529 5.763 35.532s6.722 23.047 9.603 33.61c2.88 10.564 7.362 23.369 9.923 28.17 2.561 5.122 4.482 10.564 4.482 12.164 0 4.802 23.047 52.498 25.928 53.458 1.6.64 2.881 2.88 2.881 4.802 0 3.84 20.487 35.211 27.85 43.214 2.24 2.24 4.16 5.122 4.16 6.402s3.202 6.082 7.363 10.564c3.842 4.481 14.405 16.645 23.048 26.888 16.005 18.247 72.344 67.863 81.627 71.384 2.56.96 9.283 5.122 14.405 8.963 12.164 8.963 62.74 35.532 80.026 41.614 38.413 14.085 83.868 26.889 94.112 26.889 13.124 0 46.095 7.042 50.897 10.563 2.24 1.921 10.243 12.485 17.606 23.688 7.042 10.884 14.724 20.167 16.645 20.167 1.6 0 8.643-9.603 15.685-21.127 6.722-11.204 15.045-22.087 17.926-23.688 3.201-1.6 16.326-4.802 29.45-6.722 38.733-5.762 82.908-16.966 107.556-27.21 35.211-14.724 55.698-24.647 69.463-33.29 5.442-3.521 11.844-7.363 14.405-8.643 19.206-8.963 65.941-47.376 96.351-79.707 40.014-41.613 80.347-106.915 99.874-159.733 10.883-29.77 12.804-35.852 15.045-48.016 1.28-7.042 4.161-17.926 6.082-24.008 1.92-6.082 3.52-17.605 3.52-25.608 0-29.13 4.482-36.812 30.411-53.458 20.807-13.444 29.77-23.368 21.127-23.368-5.122 0-41.934-25.928-46.736-32.97-2.88-4.482-4.801-14.725-4.801-27.85-.32-11.524-2.24-26.569-4.802-33.61-2.56-7.043-4.801-16.326-4.801-20.808s-2.241-12.164-4.802-17.286c-2.56-4.801-4.802-11.844-4.802-15.365s-1.92-10.243-4.16-14.725c-7.683-15.045-14.406-30.73-16.646-38.412-.96-3.842-3.522-7.043-5.122-7.043s-2.881-2.56-2.881-6.082c0-3.2-2.24-7.682-4.802-9.923-2.56-2.24-4.801-5.762-4.801-8.003 0-1.92-4.162-9.923-9.603-16.965-5.122-7.363-9.604-14.405-9.604-15.365 0-1.921-14.725-21.768-28.81-38.093-20.166-23.688-58.579-60.18-85.147-80.987-7.363-5.762-14.405-10.243-16.006-10.243-1.28 0-4.801-2.241-7.682-4.802-8.003-7.362-42.574-25.608-72.024-38.413-28.49-12.164-34.252-14.405-38.093-14.405-2.56 0-8.643-2.24-13.444-4.801-5.122-2.56-13.765-4.802-19.207-4.802s-11.844-1.92-13.764-4.481c-3.842-4.482-8.643-24.648-12.805-55.059-1.6-10.883-4.161-22.407-6.082-25.928-1.92-3.521-4.481-13.765-5.761-23.048s-5.442-21.767-9.604-27.849-7.682-12.484-7.682-14.085c0-4.801-9.924-22.087-22.088-39.373-11.844-16.325-12.804-17.286-13.444-11.203m-3.201 77.466c2.56 2.881 3.521 14.085 3.2 28.81-.32 13.444 0 24.968.641 25.288.64.64 6.722 3.521 13.125 7.043 15.685 8.002 37.132 32.01 43.214 48.015 8.003 20.487 8.643 44.175 1.92 63.382-3.2 8.963-7.042 18.566-8.962 21.127-8.643 12.164-32.011 33.29-40.014 35.851l-8.963 3.202-2.24 241.68c-1.28 132.844-1.601 248.402-.32 257.045 3.52 26.249-3.842 33.931-15.686 16.326-8.323-12.485-14.084-12.164-27.209 1.6-5.762 6.082-11.844 10.244-13.444 9.283-1.28-.96-2.561-119.4-2.561-263.767V123.946l-13.124-6.723c-14.725-7.682-25.609-18.566-37.453-37.132-7.362-11.524-8.323-16.005-8.323-43.214-.32-40.654 8.643-57.94 40.654-80.027l16.645-11.524.96-27.529c.96-31.69-.64-30.09 34.572-31.05 13.445-.32 20.807.96 23.368 4.161M789.05 29.514c9.603 2.881 22.408 7.043 27.85 9.603 40.013 16.966 57.619 25.289 69.783 33.292 5.442 3.2 11.844 7.042 14.405 8.322 12.164 5.442 58.579 43.215 81.947 66.582 23.047 22.728 60.5 68.823 66.262 81.628 1.28 2.56 5.121 8.962 8.322 14.404 3.522 5.122 11.524 20.487 17.926 33.611 6.402 13.125 13.445 28.17 16.006 32.971 2.56 5.122 4.801 12.485 4.801 16.326s2.241 9.923 4.802 13.444c2.56 3.201 4.801 9.924 4.801 14.725s1.921 14.405 4.482 20.807c6.402 17.286 9.923 53.138 9.923 104.995 0 54.098-2.88 82.587-11.844 111.397-8.322 26.889-12.164 23.368-12.164-12.164 0-23.048-1.28-34.572-8.963-79.707-1.28-7.042-4.161-13.124-6.402-14.084-6.082-1.92-13.444 19.206-13.444 38.413 0 9.283-1.6 25.608-3.521 36.172s-3.842 49.616-4.482 86.748c-.96 62.101-1.6 68.503-8.003 81.307-6.722 13.125-7.362 13.765-11.523 8.003-2.561-3.201-4.482-7.042-4.482-8.643 0-1.28-31.69-2.56-70.423-2.56-54.098 0-70.424.96-70.744 3.84-.32 2.241 0 8.003.32 12.805.64 10.883-5.121 14.085-13.124 7.042-5.762-5.122-6.082-10.563-6.082-89.63 0-46.095-.96-86.108-1.92-88.99-5.442-14.404-7.683 5.443-7.683 70.104 0 85.148-3.201 91.87-22.408 49.617-3.841-8.003-8.963-18.567-11.203-23.368-2.561-5.122-4.802-10.564-4.802-12.484 0-1.6-4.161-12.805-9.603-24.969-6.402-14.404-9.603-27.209-9.603-37.452 0-8.323-1.921-26.889-4.482-40.974-8.643-46.415-14.725-92.51-14.725-108.836 0-8.963-2.24-30.41-4.801-48.016s-4.802-42.894-5.122-56.018c0-13.125-1.6-32.651-2.881-43.215-1.6-10.563-4.481-40.973-6.082-67.222-1.92-26.569-4.802-55.699-6.722-65.302-1.6-9.603-3.201-25.928-3.201-36.812 0-10.563-2.241-36.172-5.122-56.659-3.201-20.807-4.481-39.693-3.521-42.574 2.24-5.762 7.042-5.442 37.452 3.521m-249.042 29.77c-.64 18.566-3.201 46.416-5.762 62.42-2.561 15.686-4.482 39.054-4.482 51.538s-1.6 30.73-3.201 40.654c-1.92 9.923-4.801 37.772-6.402 62.1-6.402 101.794-23.048 254.485-32.65 296.739-1.922 8.643-2.562 26.889-1.601 41.614 1.6 19.846 1.28 24.008-1.28 16.965-1.921-4.801-4.482-8.643-6.083-8.643-3.201 0-6.402 8.323-6.402 17.286 0 3.841-1.28 8.323-2.56 10.243-1.281 1.601-6.083 11.524-10.244 22.088-11.204 28.17-27.85 54.418-36.812 58.58-5.442 2.56-8.003 6.401-8.003 11.843 0 5.122-1.92 8.003-4.802 8.003-4.161 0-4.801-6.402-4.801-39.693 0-22.088-1.28-40.654-2.561-41.614-1.6-.96-5.762-.64-9.603.32-6.723 1.6-7.043 2.88-7.043 54.418 0 49.616-.32 53.458-7.042 62.42-8.643 11.204-32.971 34.892-36.812 35.533-1.28.32-3.201-5.762-4.162-13.765l-1.6-14.405-17.606-.96c-24.328-1.28-26.249-1.92-22.728-11.204 1.6-4.161 3.522-16.325 3.842-26.569.96-16.645.32-18.886-5.122-18.886-5.122 0-5.762 2.24-5.122 21.447.64 18.246 0 21.767-4.481 21.767s-5.122-3.52-4.482-21.767c.64-19.206.32-21.447-5.441-21.447-4.162 0-6.082 2.24-6.082 7.683 0 4.161-1.921 8.322-4.482 9.283-3.201.96-4.161-.64-2.881-7.043 1.28-6.082 0-9.283-4.161-11.844-13.445-7.042-4.802-9.283 35.531-9.283H334.5v-11.844c0-8.963-2.56-14.404-10.243-22.727l-10.564-10.564-.64-47.055c-.64-39.053-1.6-47.376-5.442-48.016-4.161-.96-5.121 5.762-5.762 44.815l-.96 45.775-9.603-.64c-30.09-2.241-36.172-2.241-46.415-.32-19.527 4.161-20.487 2.24-22.728-56.019-1.92-51.217-6.082-70.744-13.124-63.701-1.601 1.6-4.162 15.685-5.122 31.37-1.28 16.966-3.521 27.85-5.442 27.21-4.161-1.921-10.884-25.29-14.085-48.337-9.923-68.823-10.883-83.868-6.722-118.119 7.043-60.5 8.643-69.143 12.164-78.106 2.24-5.122 3.842-12.804 3.842-17.606s2.24-11.524 4.801-14.725c2.56-3.52 4.802-9.283 4.802-12.804 0-3.841 2.24-9.603 4.801-12.804 2.561-3.521 4.802-9.603 4.802-13.445s2.24-8.643 4.801-10.883c2.561-2.241 4.802-6.402 4.802-9.604 0-3.2 2.24-7.362 4.802-9.603 2.56-2.24 4.801-6.722 4.801-9.923 0-3.521 1.28-6.082 2.881-6.082s4.162-3.201 5.442-7.362c1.28-3.842 6.402-12.165 11.204-18.567 5.121-6.402 9.283-12.804 9.283-13.764 0-1.28 1.28-3.842 3.2-6.082 1.601-2.24 9.924-12.164 18.247-22.728 30.73-38.092 85.788-85.468 125.802-108.516 20.487-11.844 60.5-31.05 64.341-31.05 1.92 0 7.363-1.92 11.844-4.482 16.005-8.002 37.453-14.404 47.056-13.764l9.603.64zm548.021 575.231c1.601 12.804.32 18.566-7.362 34.572-7.362 14.404-9.923 17.606-11.844 13.444-3.521-9.283 0-52.177 4.802-57.939 7.682-9.283 12.484-5.762 14.404 9.923m-283.934 27.21c-.64 5.761-1.28 1.92-1.28-8.644s.64-15.365 1.28-10.563.64 13.444 0 19.206m-198.466 30.41c-.96 5.121-3.2 15.364-5.121 23.367-9.604 43.855-13.765 86.109-11.844 124.842 3.2 59.86 3.2 73.944.32 88.99-2.241 12.803-6.402 19.206-9.923 15.684s-.96-182.14 3.2-217.992c4.482-38.413 6.723-43.535 19.207-43.535 4.802 0 5.442 1.601 4.161 8.643m98.913-4.162c5.442 4.161 6.402 10.243 8.323 74.585.96 38.413 3.521 94.111 5.762 123.881 3.841 56.339 2.56 64.982-8.003 56.339-4.161-3.522-4.801-8.323-3.2-23.688 4.48-46.096 5.12-69.783 1.92-73.305-1.6-2.24-4.802-27.209-6.402-55.058-1.921-28.17-4.802-56.339-6.402-62.42-1.601-6.083-3.842-18.887-5.122-28.17-2.24-18.246.64-21.127 13.124-12.164M566.576 709.42c1.28 1.92-.32 9.923-3.2 17.926-3.202 8.003-4.482 15.365-2.882 16.646 3.201 2.24.96 145.968-2.24 149.17-1.28.96-.96 7.041.64 13.444 1.6 7.362 1.28 14.084-.96 17.926-2.881 5.761-3.842 5.441-15.045-5.442-16.006-15.685-31.05-46.416-36.813-75.545-4.161-21.447-4.481-26.57 0-48.016 2.561-13.125 7.363-29.13 10.244-35.212 11.844-24.328 37.132-54.418 46.095-54.418 1.28 0 3.201 1.6 4.161 3.521m182.781 8.323c27.53 29.45 37.453 54.418 38.733 97.952.96 27.53.32 37.773-4.161 49.617-12.805 32.97-37.773 66.902-47.376 63.701-5.442-1.92-6.082-11.844-1.6-20.167 2.88-5.761 2.88-8.642 0-12.164-2.562-3.2-3.522-27.529-3.522-87.069.32-45.775-.64-85.468-1.6-88.669-2.881-6.402 0-15.045 4.801-15.045 1.92 0 8.643 5.442 14.725 11.844m-86.429 18.566c6.082 6.402 10.884 14.085 10.884 17.286 0 3.2 2.24 7.682 4.802 9.923 2.88 2.24 4.801 9.283 4.801 16.646 0 6.722 2.24 15.685 5.122 20.166 5.762 8.643 5.122 33.932-.96 36.172-3.201.96-4.162-4.161-4.162-18.566 0-13.124-1.6-21.127-4.801-24.328-2.561-2.88-4.802-9.603-4.802-15.365 0-6.082-2.24-12.484-4.802-14.725-2.56-2.24-4.801-6.402-4.801-9.283s-3.841-8.643-8.323-13.124l-8.323-7.683-10.883 12.484c-6.082 7.043-10.884 16.006-10.884 19.527 0 3.841-2.24 8.643-4.802 10.883-2.88 2.241-4.801 9.283-4.801 16.006 0 14.084-2.561 22.407-6.722 22.407-5.122 0-3.201-31.05 1.92-36.492 2.561-2.56 4.802-9.283 4.802-14.725 0-5.762 1.92-10.563 4.801-11.524 2.561-1.28 4.802-4.161 4.802-7.042 0-5.762 15.365-19.527 21.767-19.847 2.561 0 9.283 5.122 15.365 11.204m-5.762 80.667c.64 2.88-2.24 4.161-8.642 4.161-13.765 0-21.768 9.283-22.088 24.969-.32 16.965 4.482 22.407 21.768 23.687 12.804.96 14.404.32 15.365-6.402.64-3.841 3.2-7.042 5.762-7.042 2.24 0 5.121-3.521 6.402-8.003 4.481-18.246 6.082-5.121 5.121 43.855-1.28 56.659-3.841 65.622-16.645 57.94-3.201-2.242-6.722-2.882-7.683-1.281s-10.243 2.56-20.166 2.24l-18.567-.64-.96-58.26c-.64-54.737-.32-58.579 5.762-64.66 3.521-3.522 7.683-6.403 9.283-6.403s3.841-2.24 4.802-5.121c2.24-5.762 18.246-5.122 20.486.96m-50.896 19.206c0 8.643-1.28 18.246-2.561 21.767-2.241 5.442-2.881 5.122-5.122-4.16-2.56-12.485.32-32.652 4.802-32.652 1.92 0 3.2 6.723 2.88 15.045m65.941-8.643c0 2.241-1.92 4.802-3.84 5.442-2.562.96-4.162-1.28-4.162-5.442s1.6-6.402 4.161-5.762c1.92.96 3.841 3.522 3.841 5.762m-11.843 7.043c6.722 6.722 4.481 20.486-3.842 24.328-16.005 7.042-26.889-2.561-22.407-19.847 1.6-6.722 3.841-8.323 12.164-8.323 5.762 0 11.844 1.601 14.085 3.842m42.254 34.251c0 10.564-1.28 20.167-3.201 21.127-1.921 1.28-3.202-5.762-3.202-18.886 0-11.844 1.28-21.127 3.202-21.127 1.92 0 3.2 8.323 3.2 18.886" style="stroke-width:.320106"/>
</svg>
