<svg xmlns="http://www.w3.org/2000/svg" width="1316" height="960">
    <path d="M1078.346 351.826c0 .99 2.377 1.981 5.546 1.981 4.16 0 4.753-.396 2.377-1.98-3.962-2.575-7.923-2.575-7.923 0m-127.358-66.154c-2.376 2.377 27.136 28.522 31.89 28.522.99 0 2.376 1.386 3.168 2.97.595 1.585 2.773 2.972 4.754 2.972 2.179 0 4.952 1.386 6.338 2.97s3.565 2.972 4.952 2.972c1.584 0 5.546 1.584 9.31 3.367 3.564 1.782 8.912 4.357 11.883 5.942 2.773 1.386 7.329 2.575 9.903 2.575 2.377 0 6.339 1.386 8.32 2.97 2.178 1.585 5.941 2.972 8.318 2.972s6.932 1.386 9.903 2.97c6.339 3.17 14.657 3.962 14.657 1.19 0-2.378-5.15-4.16-11.884-4.16-3.169 0-5.942-.99-6.338-2.179-.396-.99-4.357-2.575-9.11-3.169-4.556-.594-8.32-1.783-8.32-2.773 0-.792-3.367-2.179-7.328-2.97-4.16-.793-9.31-2.576-11.488-3.962-2.179-1.585-5.348-2.773-7.13-2.773s-4.358-1.387-5.744-2.971-4.16-2.971-6.14-2.971c-2.18 0-3.764-.793-3.764-1.98 0-.991-2.179-2.378-4.753-3.17-2.773-.594-5.348-2.377-5.942-3.961s-2.18-2.773-3.368-2.773c-1.98 0-17.43-11.488-21.589-15.846-4.16-4.357-9.507-7.724-10.498-6.734M354.211 768.759c-1.98 1.584-5.546 2.97-7.923 2.97-2.178 0-5.744 1.387-7.922 2.972-1.98 1.584-4.952 2.97-6.537 2.97s-6.932 3.368-11.884 7.33c-19.41 16.043-21.787 22.38-10.893 28.719 5.942 3.565 6.338 3.565 10.497.198 2.971-2.575 4.754-6.932 5.942-14.459 1.585-12.874 3.17-15.845 7.923-15.845 1.98 0 4.754-1.387 6.14-2.971s4.16-2.971 6.338-2.971 6.338-1.189 9.111-2.773c2.971-1.585 6.933-3.368 8.913-3.962 4.358-1.386 2.575-5.15-2.376-5.15-1.783 0-5.15 1.387-7.329 2.972m52.29-1.585c-2.575 5.348-4.952 9.903-5.546 10.498-3.169 3.169-9.903 14.062-9.903 15.845 0 4.357 4.555.792 8.715-6.932 2.178-4.358 5.347-8.715 6.734-9.508 1.188-.792 2.377-2.97 2.377-4.555 0-1.783 1.386-4.358 2.97-5.942 1.585-1.783 2.972-4.358 2.972-5.942 0-5.546-3.764-2.575-8.319 6.536m370.386-557.56c-9.705 4.358-12.082 8.12-6.14 10.3 4.357 1.782 18.618-8.121 17.034-11.885-.594-1.584-1.189-2.772-1.387-2.574 0 0-4.357 1.98-9.507 4.16m36.048-47.932c0 .99 1.981 1.98 4.556 1.98 3.565 0 3.763-.396 1.386-1.98-3.763-2.575-5.942-2.575-5.942 0m-63.381-21.392c-20.005 8.517-25.749 15.45-25.749 31.295 0 8.715.792 10.498 8.913 18.618 4.754 4.952 9.903 9.112 11.29 9.112s1.188-.99-.792-2.575c-5.15-3.764-13.469-20.401-13.469-26.541 0-7.923 11.488-20.203 21.193-22.58 9.111-2.179 29.314-.198 36.84 3.367a572 572 0 0 0 11.093 5.744c3.169 1.585 6.734 2.971 7.922 2.971 3.764 0 2.377-3.961-2.178-5.942-2.575-1.188-5.942-2.773-7.527-3.565-19.609-11.092-36.444-14.657-47.536-9.904m-10.3-35.058c-1.98 2.575-3.565 6.537-3.565 8.715 0 6.537-4.357 4.754-10.498-3.763-6.14-8.715-13.27-11.488-8.913-3.565 4.556 7.923 14.063 17.43 17.827 17.43 1.98 0 3.565.792 3.565 1.98 0 .99 2.773 1.981 5.942 1.981 3.367 0 5.942-.99 5.942-1.98 0-1.189-2.575-1.981-5.942-1.981-3.17 0-5.942-.396-5.942-.792 0-.595 2.773-4.952 5.942-9.706 3.367-4.951 5.942-9.903 5.942-11.091 0-3.962-6.933-2.18-10.3 2.772m-23.966-19.806c-1.782 1.584-9.705 3.565-18.618 4.555l-15.45 1.783 15.252.396c8.319 0 15.845-.792 16.44-1.783.594-1.188 6.734-1.98 13.27-1.98 14.26 0 28.323 6.14 33.077 14.26 3.961 6.933 8.12 7.131 8.12.397 0-3.367-2.772-7.923-7.724-12.875l-7.724-7.724h-16.836c-12.28 0-17.826.792-19.807 2.97m-93.092-112.7c.397 1.188-3.169 3.763-7.724 5.743-19.609 8.517-26.343 21.59-16.836 33.078 7.13 8.715 27.135 17.43 39.812 17.43 11.884 0 13.27-1.387 7.13-6.933-2.179-1.98-3.961-4.753-3.961-6.14 0-3.763 3.763-5.348 6.734-2.97 5.546 4.753 25.155 14.062 26.937 13.071 1.189-.792 1.98-7.526 1.98-15.25 0-16.44 3.962-24.561 15.45-31.692 10.696-6.536 31.097-6.14 41.99 1.189 4.358 2.773 7.923 6.734 7.923 8.319 0 2.773-1.783 3.169-10.3 2.377-11.883-1.189-16.835.594-21.985 7.526-4.952 6.734-3.169 12.874 6.734 22.58 6.537 6.338 10.498 8.12 23.174 11.092 35.454 7.724 67.937 21.589 88.933 38.029 20.995 16.44 26.937 27.53 21.39 40.603-1.584 3.962-3.96 7.329-4.95 7.329-1.19 0-1.981 1.782-1.981 3.961 0 3.962 5.347 7.923 10.893 7.923 6.536 0 23.768 13.468 27.532 21.59 3.367 7.328 5.942 9.11 17.628 12.874 4.753 1.584 4.16 3.763-1.981 8.318-6.734 4.952-11.488 6.339-28.324 8.715-19.212 2.773-43.773-2.178-66.748-13.468-19.411-9.507-26.938-10.102-29.314-2.377-.99 2.971.792 6.536 6.338 13.27 4.16 4.952 11.29 14.063 16.043 20.203 10.498 13.667 13.073 15.252 18.619 11.29 4.753-3.367 11.487-4.16 11.487-1.584 0 .792-2.574 3.763-5.942 6.338-5.744 4.952-7.724 12.478-3.96 14.855 1.187.792 3.366 4.556 4.95 8.319 2.378 5.744 2.576 7.526.595 8.913-4.556 3.169-23.768-.594-38.425-7.527-7.725-3.565-18.618-7.526-23.768-8.715-16.044-3.367-19.213-5.348-34.266-21.985-21.391-23.372-38.029-34.662-58.43-39.416-33.473-7.724-66.55 26.145-66.55 68.334 0 11.686.594 13.27 8.913 24.56 4.753 6.536 12.28 14.063 16.241 16.638 11.092 6.932 57.044 29.116 60.41 29.116 1.585 0 4.556 1.386 6.735 2.97 1.98 1.585 4.952 2.972 6.338 2.972s6.14 2.376 10.894 5.347c9.507 6.14 12.676 7.923 33.077 18.817 28.126 14.855 36.643 19.807 51.894 30.7 18.024 12.875 39.02 33.078 51.695 49.715 8.913 11.488 27.136 40.604 27.136 43.377 0 .594 2.575 7.923 5.744 16.242 9.309 24.362 12.874 49.516 12.676 90.318 0 39.218-1.783 48.725-13.27 72.295-6.14 13.072-28.918 44.565-41.199 57.44-6.14 6.536-25.154 21.589-34.265 27.135-5.348 3.169-29.71 15.251-39.218 19.212-4.16 1.783-10.101 3.17-13.468 3.17-3.17 0-9.111 1.386-13.073 2.97-3.763 1.585-12.082 2.971-18.222 3.17s-13.27.99-16.043 1.782c-3.962 1.189-2.773 1.783 5.942 2.179 15.845.792 23.966.198 26.937-2.377 1.584-1.188 4.951-1.584 7.526-.99 3.962.99 5.15 2.773 5.942 9.705.397 4.556 1.783 16.44 2.971 26.343 2.773 23.372 9.508 38.227 23.967 53.478 8.913 9.31 17.033 13.667 31.888 16.836 5.744 1.188 12.479 4.754 17.628 9.111 5.942 5.15 8.715 6.536 10.3 4.952 2.773-2.773 2.575-12.677-.198-18.024-2.773-5.15-2.575-12.28.396-16.242 5.942-7.526 21.59-13.072 27.135-9.705 2.377 1.386 2.18 2.575-1.584 6.536-5.744 5.942-5.942 15.251-.396 15.251 2.574 0 4.951-2.377 6.734-6.734 6.338-15.251 17.43-19.015 32.88-11.092 9.506 4.754 10.1 7.527 1.782 9.31-3.566.594-7.923 3.763-11.092 7.922-4.952 6.338-4.952 7.13-2.377 15.053 2.971 9.111 4.754 11.092 10.696 11.29 2.178 0 5.942 1.783 8.319 3.763 5.347 4.358 11.29 18.817 9.705 22.976-1.387 3.763-5.942 3.763-9.111 0-1.387-1.584-5.744-2.97-9.706-2.97-6.338 0-8.913 1.782-23.966 17.43-27.333 28.125-47.932 41.791-63.58 41.593-3.96 0-10.1 1.585-13.864 3.367-5.942 3.17-8.319 3.368-21.788.99-14.062-2.178-15.647-1.98-23.173 1.783-6.933 3.566-8.121 3.764-9.112.99-3.763-9.705-.396-15.052 14.261-22.38 6.339-3.17 8.32-5.349 8.32-8.914 0-4.952-4.556-11.092-8.32-11.092-3.169 0-15.449 7.923-15.449 10.102 0 3.367-7.328 1.782-11.29-2.773-2.178-2.377-6.338-8.517-9.309-13.865-5.546-9.705-9.111-10.696-9.111-2.179 0 2.773-1.188 4.754-2.773 4.754-3.367 0-13.865-12.875-15.845-19.213-2.377-7.526-11.092-8.12-11.092-.594 0 8.517-8.319 6.734-13.469-2.773-6.536-12.478-8.319-20.4-8.319-40.208v-20.202l-23.57-20.401c-12.874-11.29-26.739-22.976-30.7-25.947-5.348-4.16-7.13-6.933-7.13-11.29 0-2.971.792-5.942 1.584-6.338 2.575-.99 22.184-26.541 22.184-28.72 0-1.188 1.386-4.754 3.169-8.319 2.376-4.753 2.575-7.13.99-8.715s-2.377-.396-3.367 3.962c-.594 3.565-2.377 6.734-3.961 7.328s-2.773 2.377-2.773 4.16-4.952 9.705-10.894 17.627c-8.517 11.29-13.27 15.648-21.986 19.807-14.459 7.13-36.84 12.875-49.517 13.073-9.507 0-10.893.594-22.777 11.686-26.343 24.164-30.503 48.328-11.884 69.521 10.3 11.686 24.758 25.75 26.343 25.75 4.16 0 21.985-15.252 24.956-21.392 1.783-3.763 5.744-8.715 8.715-10.894 5.15-3.961 5.546-3.961 14.46-.594 15.646 6.14 20.4 14.855 8.12 15.053-6.734 0-13.073 7.725-13.073 16.044 0 10.893 4.358 14.26 16.044 12.676 11.092-1.585 16.44.792 20.599 8.715 3.565 7.328 4.753 22.183 1.584 23.372-1.188.396-3.96-.99-6.14-3.367-1.98-2.18-6.932-4.556-10.695-5.15-5.348-.99-7.923-.198-13.073 4.16-6.338 5.15-8.517 13.27-4.357 15.845 1.188.594 1.98 3.961 1.98 7.328 0 7.527-7.724 18.222-16.241 22.58l-6.14 3.169 1.188-7.527c1.783-10.695-5.744-20.599-15.449-20.599-3.763 0-10.3-1.188-14.26-2.773-28.72-10.695-81.209-10.299-94.281.595-3.763 3.169-3.763 8.913-.396 19.608 1.188 3.17.594 4.358-1.585 4.358-10.497 0-25.154-16.836-25.154-28.72 0-5.942 1.584-8.913 9.11-16.043 12.677-12.479 10.696-21.788-3.564-15.846-4.556 1.98-5.942-3.763-3.368-13.667 3.566-13.864 3.566-13.864-4.555-13.072-7.329.396-7.527.198-7.527-5.942 0-3.367.99-11.884 2.377-18.816 2.377-13.469 1.585-16.836-3.367-12.677-6.14 5.15-8.517 1.189-7.527-13.27.595-7.329 1.783-14.46 2.575-15.45.793-1.188 2.377-4.951 3.566-8.318 1.98-5.744 1.584-6.735-2.18-9.508-2.376-1.584-4.95-2.97-5.743-2.97-2.377 0-1.98 7.526.396 8.912 2.575 1.585 2.575 11.488-.198 14.261-1.189 1.189-2.575 9.706-2.971 19.015-.792 17.232.792 21.787 5.942 17.43 1.386-1.189 3.169-1.585 3.763-.793 6.14 5.942-12.676 24.56-36.444 36.049-20.401 9.705-41.198 14.063-67.145 14.063-31.889 0-50.31-7.527-73.087-30.107-20.995-20.797-28.324-35.652-31.69-64.174-2.18-19.608.791-45.951 6.733-62.193 6.933-19.014 21.392-40.406 39.614-58.826 9.903-10.101 20.203-19.212 22.976-20.4 2.575-.991 6.338-2.774 8.12-3.962 8.517-4.754 22.58-11.884 29.315-14.657 1.584-.594 4.357-1.98 5.942-2.773 1.584-.99 6.338-3.17 10.497-4.952 3.961-1.782 10.3-4.555 13.865-6.14 3.367-1.584 11.29-4.357 17.232-5.942 41.594-12.082 54.468-16.44 66.55-22.183 5.546-2.575 10.696-4.754 11.488-4.754.793 0 6.735-2.575 13.469-5.942 13.27-6.536 18.618-7.13 24.164-2.971 2.179 1.584 5.942 2.97 8.319 2.97s5.348 1.387 6.734 2.972 4.754 2.971 7.725 2.971c2.773 0 6.932 1.386 8.913 2.971 2.179 1.584 6.734 2.971 9.903 2.971 3.367 0 7.923 1.386 9.904 2.971 2.178 1.584 7.13 2.971 11.29 2.971 3.96 0 10.497 1.386 14.26 2.971 3.962 1.585 11.686 2.971 17.034 2.971 5.546 0 16.836.99 25.155 2.179 11.686 1.782 20.797 1.782 38.227 0 28.72-3.17 31.889-3.764 31.889-6.536 0-1.585-5.348-1.783-19.213-.397-31.69 2.773-87.744.595-93.092-3.565-1.188-.99-6.536-2.575-11.884-3.565-14.26-2.575-26.739-6.14-32.68-9.111-2.774-1.585-6.735-2.773-8.914-2.773-1.98 0-5.348-1.387-7.328-2.971-2.179-1.585-5.546-2.971-7.329-2.971-1.98 0-5.942-1.189-9.11-2.773-2.972-1.387-9.112-4.358-13.47-6.338-9.705-4.556-22.777-12.28-43.574-25.55-22.58-14.658-63.58-54.073-59.817-57.639.396-.594 6.14 1.387 12.479 4.358 15.25 6.932 34.661 7.725 39.217 1.783 4.16-5.348 3.763-14.46-.792-22.778-1.981-3.764-4.556-8.715-5.744-10.894-.99-2.179-5.15-7.527-9.111-11.884-8.32-9.111-5.942-11.686 3.96-4.16 3.566 2.774 7.131 5.15 7.726 5.15s4.753 2.575 9.507 5.546c4.753 3.17 13.666 7.329 20.005 9.111 10.497 3.367 11.686 3.367 16.241.396 5.546-3.763 6.338-9.309 1.98-13.072-3.762-3.169-3.762-7.923-.197-7.923 1.584 0 6.734 2.575 11.488 5.546 20.004 13.27 49.715 16.44 79.227 8.715 29.512-7.923 47.14-20.203 49.913-34.86 1.386-7.724-1.387-31.69-4.952-40.802-3.961-10.3-16.836-29.314-28.324-41.594-19.014-20.4-29.116-36.84-35.652-58.43-1.98-6.536-4.555-14.062-5.546-16.835-3.763-9.508-4.16-35.85-.792-49.121 1.783-6.933 3.17-15.053 3.17-18.024s1.386-7.13 2.97-9.31c1.585-1.98 2.971-4.951 2.971-6.14 0-1.386 2.377-7.526 5.15-13.468 3.961-8.319 4.753-11.686 2.97-13.469-2.574-2.575-2.97-9.309-.395-9.309 6.734 0 41.792-29.71 41.792-35.454 0-2.971-6.932-6.14-13.667-6.14-3.169 0-6.536-.792-7.13-1.98-1.585-2.576 10.696-9.904 16.44-9.904 9.11 0 36.048-15.846 36.048-20.995 0-4.358-7.13-8.715-14.063-8.715-8.715 0-10.696-2.179-7.725-7.923 1.783-3.367 4.16-3.961 18.024-3.961 11.686 0 16.044-.793 16.836-2.773 1.585-4.358-4.555-14.855-16.44-27.532-5.743-6.338-11.883-14.855-13.468-18.618-8.319-19.609 1.585-45.357 20.797-54.667 7.725-3.763 31.889-3.96 33.077-.198m240.256 231.936c4.952 1.783 10.3 4.358 11.884 5.546 8.121 6.338 27.928 13.667 41.594 15.053 24.363 2.773 43.18 8.517 55.657 17.034 2.971 1.98 11.884 9.904 19.807 17.43 16.242 15.45 45.556 36.445 65.164 46.744 12.677 6.734 22.976 10.101 51.3 16.638 31.493 7.328 46.15 18.618 52.488 40.604 2.179 7.13 5.546 16.043 7.328 20.004 4.16 8.32 16.044 18.42 24.164 20.401 8.32 1.981 4.358 5.15-6.536 5.15-9.309 0-10.3-.594-22.183-12.478-6.933-6.734-16.242-16.836-20.797-22.382-9.706-11.884-19.61-17.628-33.672-19.609-12.676-1.584-14.657.99-6.338 8.32 5.942 5.347 19.609 31.294 19.609 37.236 0 6.14 10.101 18.816 23.57 29.512 12.874 10.3 18.222 17.628 15.053 20.6-.594.593-2.773.197-4.556-1.19-4.753-3.366-17.232-9.308-31.096-14.656-13.667-5.348-27.532-17.826-34.464-31.295-5.15-10.101-25.155-30.502-28.126-28.72-.99.793.99 4.556 4.556 8.517 12.676 14.063 25.55 32.087 31.295 43.773 5.545 11.29 5.942 13.073 5.942 36.84 0 27.334.594 29.71 15.647 52.29 3.961 6.14 8.319 14.855 9.507 19.61 3.961 15.845-1.98 12.874-31.294-15.846-9.706-9.508-20.797-29.512-22.778-41.793-3.962-22.183-15.45-45.159-29.908-59.222-8.715-8.517-30.503-21.39-36.643-21.39-1.386 0-4.357-1.387-6.338-2.972-2.179-1.585-5.348-2.971-7.329-2.971-1.782 0-3.763-1.386-4.555-2.971-.594-1.585-1.98-2.971-3.17-2.971-6.932 0-62.985-51.498-67.342-61.797-1.189-2.575-2.773-5.942-3.763-7.527s-3.368-6.932-5.15-11.884c-6.933-18.42-10.894-24.956-20.005-33.671-26.937-25.353-34.068-33.474-38.821-43.575-2.971-6.14-7.527-13.469-10.3-16.44-2.773-2.97-5.15-6.338-5.15-7.526 0-2.971 16.044-1.98 25.75 1.584m197.275 81.01c11.092 2.773 15.252 2.971 30.503.99 18.024-2.575 23.768-2.178 39.217 2.971 13.073 4.358 18.619 7.725 26.145 16.044 12.874 14.063 15.45 23.174 4.16 14.855-12.28-9.111-19.61-10.696-50.706-11.29-24.164-.396-31.294-1.188-37.633-4.16-11.29-5.347-26.739-16.835-26.739-20.004s-.396-3.17 15.053.594M925.834 338.16c0 2.179 12.478 16.241 21.391 24.362 15.45 13.865 19.41 17.034 20.995 17.034.793 0 4.952 2.575 8.913 5.546 3.962 3.169 8.517 6.338 10.102 6.932 1.584.792 5.744 3.17 8.913 5.348 3.367 1.98 11.488 6.536 18.222 9.705 15.053 7.329 26.541 17.43 32.087 28.126 3.763 7.13 4.16 11.29 4.16 41.396 0 34.266 2.178 47.734 9.11 55.657 6.933 7.923.99 10.101-9.903 3.565-13.865-8.12-22.58-23.768-24.164-43.773-1.98-26.343-6.932-33.671-41.396-61.995-5.348-4.357-10.894-9.11-12.28-10.695-1.585-1.387-3.17-2.18-3.962-1.585-.594.594 7.329 9.705 17.43 20.203l18.222 18.816-.396 31.295c-.198 24.56.396 32.285 2.773 36.84 3.962 7.329 3.763 9.112-.792 9.112-2.179 0-6.338-2.971-9.111-6.735-4.358-5.744-5.15-9.309-6.14-26.145-1.98-31.888-5.546-41.99-23.57-68.53-14.855-21.788-16.638-25.75-14.063-29.711.99-1.783 1.188-4.16.396-4.952-.99-.792-2.179-.396-2.575.792-1.584 4.556-4.753 2.773-3.565-1.98.792-3.17-.594-6.536-5.348-12.28-9.309-10.894-12.676-16.836-17.43-29.116-4.753-12.479-5.15-19.41-.99-19.41 1.584 0 2.97.99 2.97 2.178m-640.748 29.71c31.096 12.874 56.845 31.097 65.956 46.942 3.565 6.338.198 5.348-10.696-3.367-15.053-11.884-22.381-15.251-48.13-22.184-11.884-3.169-19.213-3.763-37.633-3.367-13.865.594-25.749 1.98-29.908 3.565-35.85 14.657-59.42 51.498-59.42 92.3 0 15.251 5.744 44.961 10.893 57.241 7.527 17.628 24.759 35.256 45.556 46.546 4.357 2.377 11.488 6.338 15.845 8.913s9.111 4.754 10.3 4.952c2.377 0 13.666 4.952 39.613 17.034 5.744 2.575 12.28 5.744 14.855 6.734 8.913 3.961 24.165 13.072 24.759 15.053.792 2.179-12.676 8.715-17.628 8.715-1.783 0-4.16 1.387-5.546 2.971s-3.763 2.971-5.348 2.971c-2.575 0-9.705 3.17-18.42 8.319-1.585.792-5.348 2.575-8.319 3.763-3.169 1.189-5.546 2.773-5.546 3.565 0 .793-3.169 2.575-6.932 3.764-6.735 2.575-6.933 2.376-31.097-14.063a5174 5174 0 0 1-38.227-26.145c-18.42-12.478-23.174-17.034-36.642-35.058-17.826-23.768-25.353-41.792-30.7-72.889-13.073-76.256 18.023-143.599 73.284-159.048 16.836-4.754 20.797-5.15 48.527-4.357 22.976.396 26.145.99 40.604 7.13m669.666 60.609c6.932 14.855 8.12 28.323 3.763 46.15-3.367 13.468-3.169 23.965.198 35.255l1.387 4.754-4.952-4.754c-2.575-2.575-6.338-7.526-8.12-11.091-1.784-3.368-4.953-9.112-6.735-12.677-2.377-4.555-3.367-11.686-3.367-25.154-.198-21.788.99-49.913 2.376-52.29 1.387-2.773 9.706 7.923 15.45 19.807" style="stroke-width:.198067"/>
</svg>
