<svg xmlns="http://www.w3.org/2000/svg" width="1352" height="960">
    <path d="M1105.486 709.197c8.242 14.084 16.275 27.717 24.17 41.383q48.72 83.358 97.476 166.715c4.973 8.52 7.233 17.075 3.269 26.36-3.965 9.286-11.58 14.745-21.77 15.997-2.156.209-4.66.348-7.199.348-.695 0-1.425 0-2.121-.035h.104H151.831c-2.365 0-4.765.07-7.13-.139-20.76-1.947-31.506-21.909-21.108-40.062 15.266-26.707 30.95-53.172 46.46-79.74L651.141 16.847C661.295-.506 678.89-5.062 692.663 6.032c2.817 2.469 5.182 5.39 6.955 8.694l.07.173q170.54 291.769 341.046 583.538c.486.8.869 1.669 1.704 3.234-6.503 7.755-13.11 15.718-19.788 23.612q-78.384 92.886-156.804 185.738c-11.371 13.423-10.293 26.22 3.2 37.627q24.969 21.109 50.007 42.113c11.998 9.946 25.421 8.938 35.576-3.025q58.562-69.169 116.95-138.477zM746.148 897.37c11.372.487 17.84-6.712 24.17-14.293q59.918-71.116 120.01-142.233 38.95-46.112 77.898-92.26c10.955-13.006 9.703-26.395-3.164-37.175q-24.483-20.518-48.86-41.244c-13.945-11.79-26.743-10.468-38.601 3.616Q814.239 649 750.704 724.15q-36.654 43.436-73.307 86.766c-10.711 12.798-10.433 25.874 1.043 35.715 17.596 15.127 35.402 30.012 53.137 44.965 4.278 3.721 8.972 6.33 14.536 5.808zm-188.936 0c9.876.139 16.344-4.451 21.943-11.094q52.616-62.492 105.37-124.845 47.435-56.197 94.834-112.36c11.824-14.084 10.641-26.29-3.2-38.08q-24.377-20.691-48.79-41.243c-13.075-11.06-25.838-10.12-37.105 2.99-10.642 12.38-21.11 24.934-31.646 37.419q-84.992 100.676-169.984 201.386c-10.78 12.798-9.633 25.873 3.025 36.62 16.97 14.396 34.01 28.69 51.016 43.052 4.452 3.755 9.25 6.642 14.571 6.224z" style="stroke-width:34.7758"/>
</svg>
