<svg xmlns="http://www.w3.org/2000/svg" width="1330" height="960">
    <path d="M1209.68 251.915c0-6.809-6.808-13.617-13.616-13.617h-119.15c-6.808 0-13.616-6.809-13.616-13.617V115.745c0-6.809-6.809-13.617-13.617-13.617H913.51c-6.809 0-13.617-6.809-13.617-13.617V13.617C899.894 6.809 893.085 0 886.277 0H443.723c-6.808 0-13.617 6.809-13.617 13.617v71.49c0 6.808-6.808 13.616-13.617 13.616H280.32c-6.808 0-13.617 6.809-13.617 13.617v108.937c0 6.808-6.808 13.617-13.617 13.617H133.936c-6.808 3.404-13.617 10.212-13.617 17.02V711.49c0 6.809 6.809 13.617 13.617 13.617h119.15c6.808 0 13.616 6.809 13.616 13.617V847.66c0 6.808 6.809 13.617 13.617 13.617h136.17c6.809 0 13.617 6.808 13.617 13.617v71.489c0 6.808 6.809 13.617 13.617 13.617h439.15c6.808 0 13.616-6.809 13.616-13.617v-71.49c0-6.808 6.809-13.616 13.617-13.616h136.17c6.81 0 13.618-6.809 13.618-13.617V738.723c0-6.808 6.808-13.617 13.617-13.617h119.149c6.808 0 13.617-6.808 13.617-13.617V251.915zm-432.34 231.49c0-3.405-3.404-6.81-6.808-6.81-20.426-3.404-98.723-40.85-98.723-122.552v-119.15h51.063c6.809 0 13.617 6.81 13.617 13.618v3.404c0 34.042 27.234 57.872 57.873 57.872h156.595c6.809 0 13.617 6.809 13.617 13.617v320c0 6.809-6.808 13.617-13.617 13.617H794.362c-34.043 0-57.873 27.234-57.873 57.873 0 6.808-6.808 13.617-13.617 13.617h-47.66V609.36c0-81.701 78.299-119.148 98.724-122.552 0 3.404 3.404 0 3.404-3.405m-224.68 0c0 3.404 3.404 6.808 6.808 6.808 20.426 3.404 98.723 40.85 98.723 122.553v119.149h-47.66c-6.808 0-13.616-6.809-13.616-13.617 0-34.043-27.234-57.872-57.872-57.872h-160c-6.809 0-13.617-6.809-13.617-13.617v-320c0-6.809 6.808-13.618 13.617-13.618h156.595c34.043 0 57.873-27.234 57.873-57.872 0-6.808 6.808-13.617 13.617-13.617h47.66v119.15c0 81.701-78.299 119.148-98.724 122.552 0-6.808-3.404-3.404-3.404 0" style="stroke-width:34.0426"/>
</svg>
