<svg xmlns="http://www.w3.org/2000/svg" width="1274" height="960">
    <path d="M462.538-29.996c-5.21.148-9.131 3.948-10.605 10.702-.714 3.216-1.966 5.896-3.038 5.896s-6.071-3.215-11.073-6.966c-9.467-7.324-19.292-10.362-26.08-8.219-3.93 1.25-10.717 14.291-10.717 20.543 0 6.61-4.287 8.574-15.54 6.788-13.397-1.965-26.259-.178-30.01 3.93-2.68 2.858-2.679 4.287-.892 10.003 3.036 8.753 12.68 25.007 19.29 32.509 6.073 6.788 23.4 20.006 26.079 20.006 1.072 0 8.219-3.214 16.257-6.965 28.402-13.933 45.726-21.613 48.049-21.613 1.429 0 6.431-1.073 11.076-2.502 4.823-1.429 13.754-3.75 20.006-5.358 6.073-1.608 15.72-4.11 21.435-5.718 13.04-3.572 25.901-1.786 26.794 3.93.893 5.895-14.47 32.512-25.187 43.766-2.5 2.5-14.469 9.644-26.794 15.718l-22.15 11.254-1.07 16.254c-.357 8.931 0 18.398.892 20.899.894 2.322 6.61 9.646 12.683 16.076 13.397 14.29 76.094 79.846 80.024 83.776 5.716 5.716 27.15 33.225 33.581 42.87 14.648 22.686 24.474 43.585 28.94 61.627 1.607 6.251 1.25 7.682-4.645 16.256-3.394 5.18-6.253 10.718-6.253 11.969 0 1.429-1.07 3.928-2.321 5.714-2.144 3.037-2.86 2.858-9.111-3.215-3.752-3.394-9.646-7.325-12.86-8.575-4.467-1.608-7.146-4.286-10.004-10.359-2.144-4.466-7.86-11.79-12.683-16.613-6.788-6.609-9.823-8.394-14.467-8.394h-5.895l-1.073-13.397c-2.322-26.794-13.218-37.87-39.655-40.013l-12.504-1.073.536-11.61c.714-14.826-6.072-42.871-11.788-48.587-3.572-3.573-21.257 7.145-35.905 21.257-7.145 7.145-13.396 13.041-13.575 13.041-.357 0-1.072-4.646-1.787-10.362-2.68-23.221-12.326-43.226-20.543-43.226-3.394 0-13.752 10.716-23.22 23.756-8.216 11.432-10.539 8.575-5.358-6.965 3.394-10.003 6.072-14.113 15.003-23.045 6.074-5.894 17.328-14.646 25.188-19.648 7.86-4.823 15.36-9.825 16.61-11.076 1.25-1.25 3.751-3.213 5.359-4.464 6.073-4.465 14.113-16.79 16.971-26.257 3.037-9.825 3.035-9.825-.895-13.934-3.93-3.75-4.463-3.929-9.286-1.428-2.68 1.429-6.61 2.68-8.397 2.68-1.965 0-5.538 1.249-7.86 2.856-2.68 1.608-5.716 2.322-7.502 1.607-2.68-1.072-2.142-1.785 3.038-4.464 3.394-1.965 7.501-3.93 8.93-4.644 6.61-2.858 38.763-18.934 41.978-20.9 29.295-18.04 35.724-23.402 46.084-38.228 6.966-9.824 8.934-20.184 4.11-20.184-1.428 0-3.216.715-3.751 1.787-.536.893-3.216 1.787-5.896 1.787-4.108 0-15.004 2.858-42.334 10.718-19.291 5.537-73.593 29.65-101.28 45.191-5.538 3.215-13.578 7.503-17.686 9.825-48.05 26.437-112.892 82.348-144.688 124.503-16.255 21.614-38.94 60.91-48.229 83.418-1.965 5.18-4.823 11.789-6.073 14.825-2.322 5.18-5.357 13.399-10.537 27.153-6.252 17.327-15.005 50.552-21.435 80.918-7.503 36.619-8.933 53.05-8.933 116.999-.179 66.985 0 68.059 10.361 96.639 14.112 39.12 70.737 107.89 99.138 120.573 11.075 4.823 40.01 4.823 50.728 0 14.648-6.61 21.614-17.684 23.4-36.797 3.573-36.44 18.22-57.697 51.623-75.738 10.718-5.716 15.722-7.68 38.23-15.362 33.224-11.075 52.336-23.222 73.95-46.8 14.11-15.54 21.97-20.185 33.759-20.185 8.931 0 11.254.891 20.006 7.143 12.504 8.932 16.078 17.865 17.15 43.766 1.429 36.797-12.148 75.737-29.118 83.24-8.931 3.929-38.405 24.113-46.264 31.615-8.396 8.217-24.65 30.902-30.724 43.049-.715 1.429-4.822 7.86-8.93 14.111-4.11 6.43-10.183 17.685-13.22 25.187-6.609 15.541-10.539 24.831-12.682 29.118-7.86 15.898-10.896 36.795-6.788 44.655 3.573 6.61 4.11 30.19.895 41.086-4.108 14.29-3.575 30.722 1.248 40.547 8.217 16.433 23.937 23.222 39.835 17.149 8.396-3.215 9.646-6.79 2.68-7.682-2.144-.358-4.824-2.501-5.896-4.645-1.429-3.394-.893-5.538 2.68-11.254 5.716-8.931 31.437-32.508 35.724-32.687 4.109 0 3.932 1.428-2.499 13.753-6.252 12.147-8.216 23.221-5.358 28.937 1.786 3.037 2.678 3.394 5.536 1.965 1.965-1.071 3.572-3.035 3.572-4.464s4.646-8.038 10.362-14.647c5.716-6.788 14.111-17.15 18.756-23.045 7.68-10.181 24.827-23.934 29.829-23.934 1.25 0 5.18-2.323 8.752-5.003 6.788-5.358 39.3-27.15 40.372-27.15.357 0 8.573-4.645 18.22-10.361 9.645-5.716 18.755-10.896 20.184-11.61s5.18-2.68 8.038-4.467c27.687-16.79 66.628-35.545 112.535-53.944 7.86-3.036 15.719-6.43 17.505-7.323 4.287-2.323 6.074 2.856 2.323 7.143-1.607 1.786-2.86 3.932-2.86 4.825s-3.57 8.752-7.857 17.683c-12.504 25.365-13.578 30.724-13.578 68.95v33.581l4.645 3.572c2.68 2.144 8.932 5.002 13.933 6.61 31.617 9.824 90.029-.536 128.433-22.864 4.645-2.68 8.932-5 9.29-5 1.786 0 37.688-25.366 49.299-34.833 21.078-16.97 82.17-79.31 96.639-98.423 13.575-17.863 28.22-38.94 30.721-43.585 3.394-6.966 11.79-19.649 15.899-24.115 1.964-1.964 4.11-5.18 5.003-7.145s3.214-6.073 5-8.93c4.287-6.61 29.117-56.27 33.225-66.094 10.897-26.615 22.33-75.024 28.045-119.68 8.574-66.45-5.003-162.907-32.511-231.321-7.86-19.292-25.721-56.267-33.76-69.842-1.964-3.394-5.717-10.184-8.218-15.007-2.501-5.001-6.252-11.43-8.038-14.289-1.965-3.036-4.108-6.609-4.823-8.038-4.108-7.86-15.005-22.863-17.327-23.756-4.108-1.608-4.464 1.963-1.784 19.29 1.25 8.93 2.498 18.755 2.498 22.149 0 11.968 11.79 53.767 19.47 69.486.715 1.608 2.681 5.895 4.29 9.29 7.323 16.969 10.716 23.22 12.145 24.292.893.536 1.607 2.679 1.607 4.822s1.25 5.538 2.68 7.324c3.036 3.93 3.573 10.003 1.072 10.003-.893 0-2.5-2.142-3.571-5-3.394-8.217-6.79-13.04-14.292-21.257-6.43-6.788-8.215-7.68-15.182-7.68-6.43 0-8.397.893-10.898 4.645-2.858 4.465-2.857 5.18 2.324 17.505 10.36 24.829 15.004 48.584 20.006 103.601 1.608 18.22.534 40.728-2.86 60.02-2.68 14.29-5.714 9.288-5.892-9.289-.18-15.005-7.325-54.301-13.756-74.665-10.36-33.939-11.968-37.868-17.505-44.299-6.073-6.966-15.361-4.287-18.934 5.36-3.394 9.466-6.967 38.403-7.146 55.908 0 18.756 2.679 49.301 6.251 69.664 1.43 7.86 3.038 23.4 3.753 34.296 1.25 21.257.356 23.937-5.896 16.613-6.43-7.502-15.362-2.321-20.543 11.79-2.322 6.788-4.464 7.68-6.25 2.858-5.18-13.576-15.183-16.792-22.328-7.146-8.038 11.075-15.72 31.975-15.72 43.229 0 5.894-2.502 11.43-3.93 8.93-.537-.893-1.608-4.823-2.144-8.752-3.036-16.077-15.004-40.013-18.933-37.512-.715.536-1.43 18.397-1.43 39.832-.178 24.651-.892 40.908-2.142 44.302-1.25 2.858-2.86 9.11-3.574 14.111-2.501 16.434-10.716 36.26-28.579 70.199-6.073 11.253-18.042 27.688-25.902 35.19-15.362 14.826-23.222 21.256-41.263 34.296-7.146 5.359-36.618 20.185-39.833 20.185-1.072 0-1.965-1.43-1.965-3.394 0-2.322 3.035-4.643 10.36-7.858 15.182-6.966 30.187-15.9 39.476-23.58 29.652-24.294 47.338-44.298 58.413-66.09 4.108-8.218 5.716-11.254 10.003-18.757.714-1.429 1.963-3.93 2.499-5.358s2.145-5.003 3.574-7.683c1.25-2.858 2.499-6.788 2.499-8.574 0-1.965.893-5.36 1.965-7.324 1.072-1.965 2.68-7.86 3.394-12.86.893-5.002 2.322-12.325 3.394-16.255 1.071-3.93 1.965-24.471 1.965-46.442 0-38.226-.713-47.337-7.144-75.56-3.394-15.004-1.966-21.972 6.43-30.546 10.36-10.36 16.435-29.474 18.936-59.483 2.858-32.689-.18-53.766-10.362-73.236-1.43-2.68-4.109-10.717-5.895-17.683-2.323-9.467-4.822-14.469-9.109-18.756l-5.717-5.895h-23.756c-13.219.178-24.65-.357-25.543-.892-.894-.536-2.144-18.4-2.68-39.836-.536-21.435-1.966-46.264-3.038-55.016-6.073-50.194-10.896-78.774-17.505-105.39-2.322-9.824-4.645-20.363-5.18-23.221-.537-3.037-3.216-9.825-6.074-15.363-2.858-5.537-5.18-11.073-5.18-12.324s-1.966-5.002-4.645-8.396c-7.324-9.646-14.29-7.68-24.829 6.61-3.573 4.822-7.86 8.93-9.467 8.93-4.108-.179-13.397-8.573-16.79-15.182-1.608-3.037-6.251-12.327-10.36-21.08-8.217-17.326-14.826-26.257-19.47-26.257-9.824 0-16.257 22.149-16.257 55.195 0 13.754-.713 21.615-1.784 21.615s-3.932-1.252-6.254-2.86c-4.108-2.679-4.82-2.678-8.572-.177-2.322 1.429-5.895 6.966-7.86 12.146s-4.466 9.825-5.359 10.003c-2.858 1.072-25.366-20.54-29.118-27.864-8.93-17.505-25.72-34.299-41.083-41.622-14.111-6.61-29.116-12.147-32.867-12.147-7.324 0-8.933 4.11-5.717 13.756 1.607 4.466 2.86 8.932 2.86 9.825 0 2.322-6.074-1.431-15.362-9.47-10.718-9.288-19.115-14.466-29.654-18.575-8.217-3.036-8.573-3.038-15.004.356-5.18 2.68-7.145 5.181-8.752 10.54l-1.966 6.965-12.86-12.502c-7.145-6.787-13.935-12.863-15.006-13.577-2.791-1.507-5.425-2.195-7.793-2.128m287.3 284.755c3.544-.05 6.452 1.702 9.868 5.32 3.036 3.393 9.468 6.967 15.72 9.11 13.397 4.466 17.504 8.395 24.47 22.864 6.431 13.754 7.862 26.793 5.004 45.191-1.072 7.146-3.038 23.937-4.467 37.334-3.394 32.51-10.182 46.622-20.72 42.87-4.645-1.607-10.718-8.037-10.718-11.431 0-1.608-1.07-6.253-2.499-9.826-1.429-3.75-3.753-13.217-5.54-21.076-1.607-7.86-4.108-17.15-5.358-20.543s-2.858-7.502-3.394-8.93-2.144-4.287-3.216-6.252c-10.896-16.79-17.505-29.83-17.505-34.118 0-4.287-5.893-15.006-8.394-15.006-1.25 0-2.323 1.787-2.323 3.93 0 2.322-.713 5.359-1.785 6.788-2.5 4.108-4.467-2.502-4.289-14.648.18-8.574 1.073-11.251 5.896-17.325 3.215-4.108 7.324-7.324 9.289-7.324 1.786 0 6.43-1.609 10.003-3.574 4.064-2.188 7.203-3.316 9.959-3.354m-4.72 24.842c-1.72.06-2.917 1.153-2.917 3.341 0 1.786 1.072 4.287 2.501 5.359 1.43 1.25 4.466 6.61 6.61 11.968 3.215 7.681 4.822 9.648 8.216 9.648 2.322 0 4.108-1.073 4.108-2.502 0-3.572-6.61-17.683-10.718-23.042-2.512-3.215-5.588-4.85-7.8-4.772m29.058 5.306c-3.037 0-3.038.538.892 7.505 2.322 4.287 5.538 13.039 7.324 19.648 3.751 14.29 8.038 16.611 8.038 4.286 0-7.86-3.393-17.325-9.645-26.614-1.786-2.68-4.823-4.825-6.61-4.825m81.954.796c2.366-.094 3.162 1.818 3.609 6.172.535 4.823-.715 6.965-7.324 13.217-8.753 8.217-14.47 20.364-12.683 27.152.714 3.215.358 4.467-1.607 4.467-3.572 0-4.825-3.93-4.825-15.362 0-12.504 8.396-29.295 16.613-33.404 2.814-1.407 4.798-2.186 6.217-2.242m22.605 1.284c2.59.161 5.442 2.41 9.763 7.031 5.001 5.36 7.144 6.789 8.216 5.181.893-1.429.177-3.217-1.787-4.825-2.501-1.786-2.859-2.856-1.251-4.464 3.572-3.572 9.11 5.357 9.289 15.182 0 4.644.715 9.826 1.787 11.612 5.716 10.003 14.29 41.799 14.29 52.874 0 11.253-6.072 49.3-8.573 53.944-1.072 1.786-3.394 7.325-5.359 12.326-1.965 4.823-4.465 9.11-5.358 9.467-1.787.536-7.505-14.11-7.505-19.47 0-1.786-1.427-6.075-3.035-9.647-2.5-5.18-2.681-7.144-.895-9.823 1.25-1.965 2.146-8.933 2.146-15.543 0-11.253-.895-15.895-6.432-31.435-1.429-3.573-2.501-12.505-2.501-19.829 0-10.718-.715-13.932-3.93-18.22-2.144-2.857-4.465-5.537-5-6.073-.537-.535-2.144-3.572-3.395-6.609-2.679-6.788-1.429-13.577 3.394-18.4 2.266-2.266 4.122-3.403 6.136-3.279m-19.297 30.314q.48.016 1.015.117c5.716.715 6.072 5.537.892 11.074-7.502 8.038-10.896 4.288-6.61-6.965 1.095-2.97 2.463-4.3 4.703-4.226m8.64 13.97c1.716.156 2.734 2.894 2.734 8.12 0 4.465 1.25 11.074 2.68 14.647 1.428 3.394 2.679 7.858 2.679 9.823 0 1.786 1.252 5.896 2.86 8.933 1.786 3.394 2.32 7.144 1.606 10.18l-1.25 4.645-1.788-4.466c-1.071-2.501-4.108-8.933-6.787-14.47-2.858-5.537-6.25-14.288-7.858-19.29-2.5-8.574-2.5-9.825 0-13.755 2.032-3.048 3.788-4.488 5.124-4.367M733.673 518.886c.728.025 1.54.603 2.277 1.808 2.322 3.573 15.184 8.933 21.793 8.933 4.287 0 9.287-1.608 13.217-4.466 3.572-2.322 6.968-3.752 7.682-3.216 5.359 5.538-9.11 18.4-20.72 18.4-11.969 0-26.439-9.467-26.439-17.327 0-2.68.978-4.174 2.19-4.132m139.596 5.597c.931-.118 2.298 1.124 5.76 4.25 2.679 2.5 6.965 5.002 9.466 5.717 6.61 1.429 9.111 3.929 9.111 8.93 0 5.895-4.288 6.967-10.54 2.502-7.145-5.18-16.79-17.507-15.362-19.829.603-.938 1.006-1.499 1.565-1.57m-58.761 41.154c1.552.037 4.412 2.439 11.11 8.467 6.61 6.074 11.79 9.109 16.613 9.823 7.324 1.072 17.329-.178 18.936-2.68 1.786-3.036 4.286-1.607 4.286 2.68 0 2.858-2.322 6.253-6.61 9.826-8.395 6.966-16.79 7.324-26.079 1.072-8.038-5.537-21.613-23.402-20.184-26.974.535-1.407.996-2.236 1.928-2.214m-116.536 33.64c2.099-.123 5.043.505 5.825 1.621 1.25 2.323 10.181 6.61 22.15 11.254 8.216 3.037 12.324 3.573 25.543 2.68 13.933-.893 15.718-.714 15.718 1.965 0 4.287-13.218 9.286-24.293 9.286-16.076 0-35.904-8.929-43.407-19.29-2.143-3.036-3.75-5.895-3.75-6.43 0-.67.955-1.014 2.214-1.087m159.757 34.198c1.116.112 2.812 1.185 5.76 3.328 2.679 1.787 8.932 5.002 13.755 6.788 5.894 2.322 8.752 4.466 8.752 6.61 0 9.824-16.97 6.965-25.902-4.467-3.215-4.108-5.18-8.396-4.644-9.825.625-1.697 1.163-2.545 2.279-2.434m-311.352 23.9c.424-.065.875.504 1.478 1.575 3.216 5.895-.716 34.655-6.968 51.982-6.252 16.612-10 21.97-26.613 37.511-41.977 39.298-49.658 48.229-61.626 72.522-5.18 10.182-5.54 12.504-5.54 29.474.179 10.181-.535 18.934-1.428 19.47-2.68 1.607-8.93-15.004-8.93-23.579 0-9.467 5.536-26.614 12.86-39.832 12.504-22.507 25.9-37.692 59.661-67.344 15.898-13.932 24.114-29.652 30.188-56.803 1.25-5.895 3.216-14.29 4.466-18.756 1.117-4.243 1.745-6.112 2.452-6.22m227.406 1.091c1.939.032 5.17 2.886 12.539 10.132 11.432 11.075 19.293 14.648 33.226 14.648 8.752 0 10.894 1.429 8.394 5.358-1.25 1.965-5.536 2.68-16.61 2.68-14.29 0-15.185-.178-23.223-6.251-8.395-6.252-18.4-21.795-16.435-25.01.614-1.005 1.228-1.571 2.11-1.557m-87.8 21.475c1.261.11 3.3 2.01 7.989 6.698 11.074 11.075 19.47 14.467 34.832 14.467 7.145 0 13.575.717 14.29 1.61.535.893-1.25 3.394-3.75 5.358-10.004 7.86-34.833 3.395-45.55-8.216-5.895-6.252-11.077-16.077-9.648-18.4.603-1.004 1.08-1.583 1.837-1.517m116.596 49.961c1.84-.186 4.352 1.572 7.143 5.144 4.823 6.252 4.643 13.397-.358 13.397-3.93 0-10.897-11.968-9.29-16.076.537-1.54 1.4-2.353 2.505-2.465m-175.681 3.18c14.602.044 30.545 1.249 39.387 3.571 23.222 6.252 35.01 15.184 39.655 30.01 2.68 8.752 2.678 10.54.356 19.828l-2.68 10.182-17.683 7.682c-26.794 11.61-43.05 19.648-59.483 29.651-8.217 5.002-16.256 10.003-17.863 10.896-1.608 1.072-13.397 8.754-26.258 17.149-12.682 8.395-24.47 15.896-25.899 16.432-1.429.715-5.002 2.858-8.038 4.823-2.858 1.965-6.968 4.287-8.933 5.358-3.752 1.965-4.644 2.503-19.648 11.613-7.503 4.466-11.61 5.538-25.007 6.61-8.753.535-28.582 2.14-43.766 3.213-41.62 3.215-41.797 3.216-45.19 2.323-6.61-1.786-1.608-5.002 7.86-5.18 31.616-.358 63.412-8.932 80.381-21.436 8.932-6.609 28.401-26.972 28.401-29.651 0-.893 1.964-4.287 4.286-7.324 3.751-5.18 6.431-10.54 19.292-38.762 5.002-11.075 15.54-32.333 18.042-36.62 12.504-20.899 19.292-28.937 31.438-36.975 3.483-2.322 16.747-3.438 31.35-3.394m-143.17 62.698c2.322 0 1.251 7.68-1.607 10.896-2.68 2.858-2.5 4.108 2.68 14.826 6.251 13.397 6.964 20.541 2.498 27.508-7.86 12.504-17.148 16.97-24.829 11.968-3.93-2.5-4.286-3.928-4.286-16.432 0-11.968.714-14.828 5.537-23.58 3.215-5.538 8.574-13.398 12.146-17.506s6.968-7.501 7.86-7.68m-7.68 23.22c-3.215 0-7.146 3.394-7.146 6.073 0 .893-1.25 3.037-2.68 4.645-3.393 3.75-1.963 7.86 3.753 10.361 5.18 2.501 5.716 8.394.714 11.074-3.394 1.786-3.394 5.359 0 5.359 3.215 0 14.29-13.04 14.29-16.791 0-2.144-1.43-7.501-3.038-12.324-1.965-5.18-4.107-8.397-5.893-8.397m-62.521 105.392c2.322 0 2.324 10.18.18 11.61-1.071.535-2.323 4.645-3.037 9.11-.715 4.645-1.966 7.682-3.216 7.324-3.394-1.072-3.216-10.898.714-19.65 2.144-4.645 4.466-8.394 5.359-8.394"/>
</svg>
