<svg xmlns="http://www.w3.org/2000/svg" width="1394" height="960">
    <path d="M648.455 432.851c-40.642 45.158-10.16 115.153 50.803 115.153 57.576 0 88.058-77.897 45.158-116.282-27.095-24.837-73.382-23.708-95.96 1.13m-23.708-294.656c-23.708 6.774-58.705 42.9-99.347 103.864-14.677 21.45-56.448 59.834-93.703 85.8-60.963 41.771-68.866 50.803-77.898 99.347-6.773 31.611-6.773 74.511 0 106.122 9.032 48.545 16.935 57.576 77.898 99.347 37.255 25.966 79.026 64.35 93.703 85.8 67.737 100.477 75.64 106.122 171.6 106.122 95.96-1.13 104.992-5.645 171.6-106.122 14.677-21.45 56.448-59.834 93.703-85.8 60.963-41.77 68.866-50.802 77.898-99.347 6.773-31.61 6.773-74.51 0-106.122-9.032-48.544-16.935-57.576-77.898-99.347-37.255-25.966-79.026-64.35-93.703-85.8-62.092-92.574-76.768-102.735-152.408-107.25-38.384-1.13-80.155 0-91.445 3.386m129.83 49.674c12.418 5.645 40.642 39.513 62.092 72.253 24.837 40.642 59.834 75.64 100.476 100.476 67.737 44.03 84.671 67.737 84.671 119.67s-16.934 75.639-84.67 119.668c-40.643 24.837-75.64 59.834-100.477 100.476-44.03 67.737-67.737 84.671-119.669 84.671s-75.64-16.934-119.669-84.67c-24.837-40.643-59.834-75.64-100.476-100.477-67.737-44.03-84.671-67.737-84.671-119.669s16.934-75.64 85.8-119.669c39.513-25.965 74.51-59.834 95.96-95.96 19.193-30.482 45.158-63.221 58.706-72.253 28.224-19.192 90.316-22.579 121.926-4.516m281.108-58.705c0 5.645 38.384 62.092 84.671 125.313s84.671 125.314 84.671 136.603 5.645 23.708 11.29 27.095c16.934 11.29 13.547 99.347-6.774 147.892-16.934 40.642-93.703 154.666-121.927 179.503-21.45 19.192-54.19 85.8-46.287 93.703 13.548 13.547 171.6-165.956 202.082-229.177 63.222-134.345 30.482-256.271-109.508-405.293-75.64-81.284-98.218-98.218-98.218-75.64m-775.588 75.64c-139.99 149.02-172.73 270.947-109.509 405.292C181.07 673.317 339.123 852.82 352.67 839.273c7.903-7.903-24.836-74.51-46.286-93.703-28.224-24.837-104.993-138.86-121.927-179.503-20.321-48.545-23.708-136.603-6.774-147.892 6.774-3.387 11.29-15.805 11.29-27.095s38.384-73.382 84.671-136.603 84.671-119.668 84.671-125.313c0-22.58-22.579-5.645-98.218 75.64" style="stroke-width:1.12895"/>
</svg>
