<svg xmlns="http://www.w3.org/2000/svg" width="1230" height="960">
    <path d="M562.487-51.484c-69.516 29.007-109.026 103.525-90.021 170.04 23.005 80.52 96.023 128.031 171.54 111.027 15.505-3.5 33.009-9.502 38.51-13.003 19.505-14.003 29.007-8.002 100.524 63.515l71.017 71.017-11.503 23.006c-6.501 13.003-14.003 29.507-17.004 37.009l-5.501 13.503-205.55-1-205.548-1.5-11.503-27.007c-15.004-36.509-47.511-73.018-76.018-85.52-16.504-7.002-33.508-10.003-61.515-10.003-47.511 0-74.518 10.503-102.524 41.01-33.508 36.008-37.51 46.511-37.51 105.025 0 50.012.5 52.512 16.505 76.518 10.002 15.504 27.506 32.508 46.01 45.011 29.008 19.004 30.508 19.505 75.019 20.005 37.509 0 49.011-2 69.016-12.003l24.506-12.003 44.51 44.51c24.506 24.507 44.511 47.512 44.511 51.013s-7.502 21.005-17.004 39.01c-31.007 58.513-34.508 129.03-9.502 189.544 17.504 41.01 57.514 86.021 96.523 107.026 75.018 40.01 166.54 33.008 239.057-18.504 20.005-14.504 56.013-62.015 67.516-88.522 24.506-59.014 21.505-131.531-7.502-186.044-21.005-40.01-30.007-50.012-65.515-76.518-37.01-27.007-55.514-34.509-97.023-40.51-55.014-7.502-108.026 4.001-150.536 32.508l-21.506 14.503-49.511-49.011c-43.51-43.01-49.012-50.513-43.01-57.514 4-4.001 11.002-19.505 16.003-34.008l9.502-26.007h415.6l9.002 27.007c10.502 30.007 36.008 60.014 69.516 81.52 19.005 12.502 25.507 13.503 68.517 13.503 47.011.5 47.511 0 77.518-19.505 18.505-12.503 36.009-29.507 46.011-45.01 16.004-24.007 16.504-26.507 16.504-76.52 0-58.513-4-69.016-37.509-105.024-28.006-30.507-55.013-41.01-102.524-41.01-30.007 0-45.01 2.5-66.016 12.003l-27.507 12.503-71.016-71.517c-66.016-66.516-78.02-83.02-65.516-90.522 9.502-5.501 25.506-69.516 22.505-88.02C748.532-8.974 690.518-60.987 613.5-59.987c-17.004 0-40.01 4.001-51.013 8.502M623.002 5.53c2 3 5.001 12.503 6.502 21.005 4 17.504 15.503 22.005 27.006 10.502 10.002-9.502 13.503-9.502 13.503 0 0 4.001-2 7.502-5.001 7.502-7.002 0-6.502 18.505 1 23.006 3 2 12.503 5 20.505 6.501 23.506 5.001 21.505 13.003-6.501 25.006-13.504 6.002-25.006 12.503-25.006 15.004s4.5 10.002 10.502 17.504c12.003 15.004 11.503 15.504-9.502 5.001-17.504-8.502-26.006-6.001-26.006 8.002 0 15.504-5.502 25.006-15.004 25.006s-15.004-9.502-15.004-25.006c0-14.003-8.502-16.504-26.006-8.002-21.005 10.503-21.505 10.003-9.502-5.001 6.001-7.502 10.502-15.004 10.502-17.504s-11.502-9.002-25.006-15.004c-28.006-12.003-30.007-20.005-6.501-25.006 8.002-1.5 17.504-4.5 20.505-6.501 7.502-4.501 8.002-23.006 1-23.006-2.5 0-5.001-3.5-5.001-7.502 0-9.502 3.5-9.502 13.503 0 11.503 11.503 23.006 7.002 27.006-10.502C603.997 8.53 609-.472 615-.472c2.5 0 6.001 2.501 8.002 6.002M272.418 376.118c4.001 16.004 7.502 21.506 16.504 22.506 6.002 1 11.003-.5 11.003-3.501s3.5-5.501 7.502-5.501 7.501 2.5 7.501 5c0 3.002-3.5 6.502-7.501 8.003-18.505 7.501-2 25.506 29.006 31.507 20.505 4.501 16.504 11.503-11.502 22.506-26.507 10.002-30.007 15.503-16.504 26.006 12.503 8.502 3.5 15.503-9.503 7.502-9.502-6.002-12.002-5.502-20.004 4.5-5.001 6.002-9.002 17.505-9.002 25.507 0 31.507-15.004 16.504-32.008-32.008-2.5-8.502-4.501-8.002-20.505 4.501-9.502 7.002-17.504 10.503-17.504 7.502s2.5-5.501 5.001-5.501c3 0 5.001-3.501 5.001-7.502s2.5-7.502 5.001-7.502c3.001 0 5.002-3 5.002-6.501 0-3.001-11.003-10.503-24.506-16.004s-25.506-12.003-26.507-14.504c-.5-3 6.502-7.001 16.004-9.502 25.506-6.502 36.009-17.004 28.507-29.007s.5-19.505 8.502-8.002c3.501 4.501 8.002 8.502 9.502 8.502s8.502-12.503 15.504-28.507c7.502-15.503 15.004-26.506 17.004-24.506s5.501 13.004 8.502 24.506m710.67 1c7.002 15.004 14.003 27.507 15.504 27.507s6.001-4 9.502-8.502c8.002-11.503 16.004-4 8.502 8.002s3 22.505 28.507 29.007c9.502 2.5 16.504 6.502 16.004 9.502-1 2.5-13.004 9.002-26.507 14.504s-24.506 13.003-24.506 16.004c0 3.5 2.5 6.501 5.002 6.501 3 0 5 3.5 5 7.502s2.501 7.502 5.002 7.502c3 0 5.001 2.5 5.001 5.5s-8.002-.5-17.504-7.5c-16.004-12.504-18.004-13.004-20.505-4.502-17.004 48.512-32.008 63.515-32.008 32.008 0-8.002-4-19.505-9.002-25.506-8.002-10.003-10.502-10.503-20.005-4.501-13.003 8.001-22.005 1-9.502-7.502 13.503-10.503 10.003-16.004-16.504-26.006-28.006-11.003-32.007-18.005-11.502-22.506 31.007-6.001 47.51-24.006 29.006-31.507-4-1.5-7.501-5.001-7.501-8.002 0-2.5 3.5-5.001 7.501-5.001s7.502 2.5 7.502 5.5c0 3.002 5.001 4.502 11.503 3.502 8.502-1 12.503-6.502 17.004-24.006 3-12.503 6.002-23.005 6.002-24.006 2-5.501 8.001 3.001 18.504 26.507M670.013 609.175c15.004 5.501 35.008 13.503 44.51 18.504 27.007 13.504 63.516 54.514 80.52 90.022 14.003 30.007 15.504 37.509 15.504 82.52 0 35.008-2.5 54.513-8.002 65.515-4.001 8.502-7.502 17.504-7.502 19.505 0 9.002-31.508 50.012-51.512 67.016-74.018 63.515-183.044 63.515-257.062 0-20.004-17.004-51.512-58.014-51.512-67.016 0-2-3.5-11.003-7.502-19.505-5.501-11.002-8.002-30.507-8.002-65.515 0-45.511 1.5-52.513 16.004-83.02 8.502-18.004 19.005-34.508 23.006-36.009 4.5-1.5 14.003 3.501 23.005 13.003 15.504 15.504 15.504 15.504 7.502 31.508-23.506 48.011-27.007 74.018-14.504 114.527 12.503 40.01 41.01 74.518 76.019 92.022 34.508 18.005 94.522 18.005 129.03 0 35.009-17.504 63.516-52.012 75.518-91.522 12.003-39.009 12.003-43.01 1.5-76.518-14.503-46.511-32.007-69.016-74.017-94.022-17.504-10.503-26.506-12.503-67.516-12.503-37.509-.5-50.012 1.5-60.014 8.502-16.504 11.502-37.51 11.002-50.512-2-13.504-13.504-10.503-24.007 10.002-35.51 52.012-29.006 108.026-36.008 155.537-19.504m-45.01 115.027c2.5 5.502 5 14.504 5 20.005 0 5.502 2.001 11.003 5.002 13.003 5 3.001 25.006-6.501 31.007-15.003 2.5-3.501 4.001-3 4.001.5 0 2.5-3.5 9.502-7.502 15.004-11.002 14.503-9.502 16.503 20.005 30.007 26.506 12.503 32.008 22.005 12.503 22.005-26.506 0-43.51 19.505-29.007 34.008 10.003 10.002 1 12.003-15.003 4.001-16.504-8.502-21.005-6.501-21.005 10.002 0 17.505-5.502 27.007-15.004 27.007s-15.004-9.502-15.004-27.007c0-16.503-4.5-18.504-21.005-10.002-16.003 8.002-25.006 6.001-15.003-4.001 14.503-14.503-2.5-34.008-29.007-34.008-19.505 0-14.003-9.502 12.503-22.005 29.507-13.504 31.007-15.504 20.005-30.007-4.001-5.502-7.502-12.504-7.502-15.004 0-3.5 1.5-4.001 4-.5 6.002 8.502 26.007 18.004 31.008 15.003 3.001-2 5.001-7.501 5.001-13.003 0-12.503 8.502-29.507 15.004-29.507 2.5 0 7.002 4.501 10.002 9.502" style="stroke-width:.50012"/>
</svg>
