<svg xmlns="http://www.w3.org/2000/svg" width="968" height="960">
    <path d="M120.083 0v742.526c.224 19.985 6.363 38.586 16.436 53.727l.56.871c16.74 24.237 37.358 45.59 61.634 63.688l.249.187c30.192 23.42 62.047 44.928 99.298 66.115 52.21 30.728 106.013 56.271 160.807 81.867L484.654 1020c51.478-21.516 101.146-47.12 149.787-72.715l4.732-2.303c51.797-27.86 100.488-60.727 143.998-96.746l.435-.373c18.328-14.727 34.384-32.085 48.186-52.358 10.028-15.293 15.876-33.614 15.876-53.29V14.131c.159-2.39.249-4.8.249-7.222s-.06-4.838-.187-6.91zm19.486 19.175 690.293.56a42 42 0 0 1 .187 3.86c0 1.339-.06 2.712-.187 3.86v706.604c0 26.934-10.676 51.375-27.952 69.353l-.187.311c-25.121 26.838-53.522 50.563-86.35 71.532l-.248.125c-36.639 24.264-74.845 46.637-120.59 69.602l-108.823 53.54-49.369-22.537c-38.664-18.71-77.585-38.443-115.484-59.703l-4.296-2.117C276.24 891.98 238.018 866.55 203.88 839.52l-.498-.436c-17.784-14.353-33.55-31.135-47.252-50.614-10.392-13.801-16.56-30.91-16.56-49.493V30.693zm40.218 37.167v271.622h1.805l302.875-156.947c101.362 52.753 202.452 105.19 304.867 157.943V56.342zm304.68 217.584L179.04 437.534v32L484.467 311.59l304.867 157.943v-32.249zm0 140.325L179.289 577.61v32.248l305.178-157.943 304.867 157.943V577.61zm0 139.266-304.93 163.36c-.955 4.756-1.493 9.605-1.493 14.63 0 15.331 4.704 29.612 12.513 41.15l.498.81a239 239 0 0 0 19.984 24.84c16.16 16.32 33.951 31.056 54.287 44.762l-4.482-2.802c64.799 44.155 133.94 82.494 214.783 117.477l.124.062a19.7 19.7 0 0 0 8.84 2.117c3.22 0 6.259-.778 8.84-2.117 35.318-16.128 70.418-32.812 104.715-51.236l5.043-2.428c40.194-21.07 78.709-44.992 112.496-69.727l.81-.622c19.921-14.28 37.884-31.139 53.726-50.614l-.124.062c12.367-14.12 19.922-32.645 19.922-52.917 0-4.75-.45-9.4-1.183-13.448z" style="stroke-width:31.875"/>
</svg>
