<svg xmlns="http://www.w3.org/2000/svg" width="1246" height="960">
    <path d="M326.537-30A548.718 551.231 0 0 0 275.3 5.174c.9 2.225 1.731 6.182 3.044 13.158 3.016 16.587 2.849 27.98-1.005 44.4-1.843 8.21-1.675 11.058 1.005 22.619 1.676 7.372 3.687 14.744 4.524 16.252.67 1.508 2.513 8.712 3.854 15.75 2.513 13.068 2.01 22.45-2.513 44.232-3.351 16.42-3.519 21.446-1.006 33.677 1.508 6.702 2.681 14.577 2.681 17.425 0 2.68 1.173 8.21 2.513 12.063 1.676 4.692 2.01 8.378 1.006 10.89-1.34 3.52-1.508 3.184-2.681-2.847-.67-3.686-2.346-8.21-3.519-10.053-1.34-1.843-2.345-5.362-2.345-8.042 0-2.514-1.173-7.373-2.849-10.891-3.853-8.88-3.853-53.615.168-62.663 1.508-3.518 2.68-8.21 2.68-10.723 0-4.524-3.518-18.262-7.539-29.153-4.524-12.063-6.2-21.781-5.194-29.656 2.848-24.294 3.016-44.065.335-52.275q-1.324-4.129-1.972-7.202a548.718 551.231 0 0 0-47.954 43.586c-.064 1.94-.472 4.61-1.176 8.016-2.848 14.41-2.345 21.614 2.513 31.332 2.346 4.691 6.535 17.425 9.216 27.98 4.523 17.76 4.858 19.938 2.848 27.645-3.016 12.064-2.68 37.028.67 46.076 3.351 9.215 8.042 30.159 8.042 36.023 0 2.513 1.006 6.534 2.346 8.88 1.34 2.513 4.524 9.047 6.87 14.576 16.252 36.526 21.11 46.579 27.31 56.129 3.35 5.026 7.037 9.885 8.21 10.555 3.518 2.178 2.513 4.021-4.022 7.54-22.451 11.728-59.144 42.724-78.747 66.684-7.037 8.545-18.765 25.97-28.483 41.72-6.032 9.717-14.242 29.487-21.279 50.263-8.712 25.467-11.058 30.661-17.257 39.039-4.691 6.367-4.021 12.063 1.676 12.063 2.01 0 4.858.838 6.199 1.843 1.843 1.34.67 1.508-4.189.67-3.686-.502-9.55-1.34-12.901-1.843-5.864-1.005-6.367-.67-6.367 3.184 0 3.016 1.676 5.194 5.697 7.707 4.859 3.183 8.21 3.518 27.98 3.518 12.399 0 26.975-.837 32.504-1.843 9.718-1.675 25.132-3.686 47.919-5.864 10.555-1.005 11.226-.837 12.398 2.514.838 2.68.168 4.858-2.513 7.707-4.02 4.356-4.02 10.22.335 24.63 2.346 8.041 4.692 8.041 8.88 0 8.88-17.09 23.29-32.17 43.898-45.574 12.398-8.21 48.756-26.807 52.777-26.975 1.173 0 6.367-2.01 11.393-4.524l9.216-4.523.837-11.729c1.34-17.425 6.702-25.467 21.446-31.834 7.54-3.183 8.378-3.016 26.305 5.194 9.718 4.356 26.808 6.535 36.19 4.356 16.923-4.02 28.316-1.675 28.316 5.697 0 1.173 2.01 2.848 4.356 3.351 3.686 1.005 4.021 1.34 1.676 2.68-1.843 1.006-5.027.168-10.556-3.015-7.54-4.189-8.545-4.356-16.252-2.346-11.896 3.016-30.66 2.681-34.347-.67-1.675-1.508-4.021-2.68-5.194-2.68s-3.518-1.006-4.859-2.179c-1.508-1.34-6.2-3.35-10.388-4.356-6.702-1.843-8.545-1.843-13.404.67-7.204 3.686-9.885 6.534-14.576 15.582-7.372 14.242-4.692 22.451 17.76 56.464 30.158 45.572 76.401 94.161 130.184 136.886 1.005.67 4.691 4.021 8.378 7.204 3.686 3.184 7.707 5.864 8.88 5.864 1.005 0 2.01.838 2.01 1.676 0 1.005 1.676 2.513 3.854 3.518 5.026 2.179 9.382 4.86 16.252 9.886 11.728 8.377 38.87 22.116 59.48 29.823 25.801 9.886 55.792 15.415 80.422 15.247 20.44-.168 27.98-2.178 14.241-3.854-9.382-1.172-28.985-5.026-41.049-7.874-3.686-1.006-8.545-2.178-10.89-2.681-6.535-1.676-15.08-7.372-15.08-10.22 0-1.34 2.514-4.692 5.53-7.205l5.361-4.524-3.35-3.686c-4.525-4.859-23.458-13.571-31.835-14.576-10.053-1.173-11.896-1.843-9.55-4.19 4.189-4.188 2.178-9.047-5.864-14.91-7.54-5.362-13.069-8.043-24.797-11.73-9.718-3.015-23.457-10.89-23.96-13.738-1.005-4.691 4.022-5.026 15.08-1.173 14.074 5.027 29.823 6.2 36.693 2.68 3.015-1.507 6.031-2.68 6.87-2.68 3.35 0 11.392-7.54 11.392-10.89 0-1.843-3.35-6.87-7.54-11.226-5.864-5.864-9.885-8.21-17.257-10.388-5.361-1.508-11.225-2.68-13.068-2.68-4.524-.168-10.724-5.697-10.724-9.719 0-2.345 2.346-4.523 7.54-7.037 4.189-2.01 7.54-4.523 7.54-5.696s3.016-5.027 6.702-8.545c3.686-3.519 6.702-7.037 6.702-7.707 0-2.346-10.388-5.194-23.29-6.367-14.911-1.173-21.446-4.859-18.597-10.22 1.34-2.514.167-3.519-8.043-6.367-5.194-1.843-14.744-3.854-21.278-4.357-10.89-1.005-28.65-4.858-30.494-6.701-.502-.336-.335-1.676.335-2.681.67-1.173 4.357-1.508 10.891-.67 11.896 1.34 23.29-2.179 32.84-10.22 6.869-5.865 6.701-9.216-.67-9.216-4.525 0-9.551-2.848-16.756-9.215-4.356-3.854-4.691-5.864-1.173-5.864 1.34 0 2.514 1.005 2.514 2.346 0 2.68 5.864 4.02 25.132 6.031 7.875.67 16.587 2.513 19.268 3.854 2.848 1.34 9.55 4.524 15.08 7.037 12.9 5.864 22.618 12.23 53.614 35.185 49.092 36.358 72.213 52.442 82.936 57.301 27.143 12.734 27.813 13.069 34.515 20.273 5.53 6.032 10.723 22.62 10.723 34.85 0 7.875 5.53 20.776 8.88 20.776 1.34 0 4.524-1.676 7.205-3.686 6.031-4.859 16.252-5.027 19.938-.503 1.508 1.843 4.523 7.037 6.87 11.561 5.026 9.383 7.371 8.713 8.544-2.848.838-7.372-1.173-13.069-10.388-29.656-1.508-2.68-1.843-4.356-.67-4.859 2.848-.838 8.21 5.194 12.566 14.41 2.346 4.858 4.524 8.88 4.859 8.88 1.173 0 9.215-17.76 9.215-19.939 0-1.173 1.508-4.189 3.183-6.702 1.843-2.513 3.854-6.702 4.524-9.55.67-2.68 2.178-6.367 3.351-8.21 1.34-1.843 2.346-5.697 2.346-8.712 0-2.849.838-5.865 1.675-6.367 3.519-2.178 12.566-27.478 14.242-39.541l1.005-7.54-10.053-7.875c-5.529-4.189-13.236-11.728-17.09-16.587-8.21-10.22-19.938-27.813-24.964-37.363-1.005-1.843-3.184-5.697-5.027-8.377-1.843-2.849-3.853-6.2-4.523-7.54-.503-1.34-7.205-10.388-14.577-19.77-13.236-16.923-23.457-31.165-32.337-44.736-15.247-23.457-29.488-38.536-54.955-58.641-4.524-3.687-8.713-7.037-9.215-7.54s-4.524-3.854-9.048-7.372c-12.398-10.053-27.813-24.63-27.813-26.473 0-3.183 12.901-6.702 30.996-8.042 24.127-2.01 38.201-5.361 45.406-10.89 11.226-8.545 9.382-9.048-32.337-8.713-36.358.335-38.536.168-44.903-3.35-3.853-2.012-8.21-6.2-10.052-9.384-2.681-5.194-2.849-6.702-1.006-12.9 1.173-3.854 1.676-7.373 1.173-8.043-.502-.503-3.853 0-7.54 1.005-3.518 1.173-11.058 2.01-16.587 2.01-8.377 0-11.058-.67-14.911-4.02-4.524-4.021-4.692-4.357-4.692-22.284v-18.095l-20.273-.838c-16.922-.67-21.11-1.34-23.96-4.021-4.858-4.356-4.523-5.53 3.184-15.917 9.885-13.236 8.88-17.258-5.026-19.436-12.064-2.01-13.404-3.183-13.404-12.733 0-6.87 1.173-10.22 6.032-17.425 9.717-14.744 34.682-35.855 48.756-41.217 3.518-1.34 6.87-5.864 5.361-7.204-1.172-1.173-23.959 3.686-30.828 6.534-8.043 3.35-35.52 16.755-40.212 19.77-51.772 32.002-80.59 58.977-134.875 126.164-15.917 19.77-20.441 23.289-34.683 27.98-20.273 6.702-24.462 8.21-30.326 10.556-3.016 1.34-6.534 2.345-7.874 2.345-4.022 0-2.849-3.183 1.675-4.356 2.178-.503 4.859-2.01 6.032-3.35 1.005-1.341 3.183-2.347 4.859-2.347 1.508 0 4.188-1.507 5.696-3.183 2.849-3.016 2.681-3.518-1.675-10.555-2.681-3.854-7.875-11.394-11.729-16.42-14.576-19.603-23.791-47.416-23.959-72.883-.167-9.718 1.508-17.76 7.54-36.86 4.188-12.734 4.691-24.295 1.675-36.023-1.508-5.697-2.68-15.917-2.68-22.62 0-11.225.67-13.906 7.874-28.817l7.875-16.42-.168-18.43c0-18.933-.67-22.284-10.723-47.751-2.555-6.423-4.026-10.793-4.417-13.985m589.752 14.598a185 185 0 0 1-3.61 4.916C904.804.069 901.956 5.598 897.6 18.499c-5.696 17.425-7.706 30.997-5.528 39.71 3.686 14.408 2.68 26.472-3.351 37.362-4.692 8.713-5.362 11.394-5.362 22.452.168 10.555 1.006 14.409 5.362 23.959 6.2 13.404 7.037 26.808 2.848 48.421-2.513 13.739-1.843 22.116 3.183 36.693 1.508 4.021 3.184 14.074 3.854 22.451.67 10.053 2.68 19.436 5.864 28.316 3.351 9.718 4.692 16.252 4.692 24.797 0 6.534 1.005 13.571 2.345 16.085 3.854 7.707 6.2 74.223 3.686 108.068-2.178 29.488-5.361 30.828-6.534 2.68-1.005-22.954-3.016-32.336-8.545-40.379-3.854-5.864-7.037-4.356-16.587 7.875-9.383 12.231-11.896 9.383-4.692-5.194 5.697-11.896 6.032-15.917 1.844-27.478-1.173-3.183-2.346-6.869-2.681-8.042-.335-1.005-2.513-2.01-4.86-2.01-6.701 0-5.36-6.702 3.352-16.42 7.707-8.545 9.55-13.739 5.026-13.739-1.508 0-8.042 5.53-14.744 12.231-22.619 22.786-31.164 50.097-23.96 76.904 4.357 16.587 10.724 27.143 27.479 46.578 23.959 27.478 26.975 30.494 30.493 29.321 3.016-1.005 3.351-.335 3.351 6.535 0 7.204-1.34 15.917-7.707 48.756-3.686 19.268-11.56 50.934-14.41 57.804-1.004 2.345-2.345 6.367-3.015 9.215-1.34 5.026-4.356 13.739-6.87 20.106-.67 1.843-3.015 7.54-5.026 12.566-3.853 10.052-15.247 33.342-22.954 47.248-2.848 4.859-6.702 12.063-8.88 16.085-9.047 16.42-15.08 25.3-34.347 50.599-37.53 49.091-83.774 98.015-119.964 126.666-6.702 5.361-13.236 10.723-14.577 12.063-2.345 2.178-44.902 30.326-55.458 36.693-28.818 17.09-49.259 24.797-108.068 41.384-4.524 1.173-11.56 3.184-15.582 4.357-.012 0-.024.01-.036.01A548.718 551.231 0 0 0 550.95 990c.236-.662 1.047-1.265 2.507-1.736 1.676-.503 9.886-4.356 18.095-8.21 8.378-4.02 19.939-9.383 25.97-12.063 17.928-7.875 58.81-28.818 69.533-35.688 2.848-1.843 6.199-3.853 7.54-4.356 8.209-3.686 56.295-37.196 66.18-46.243 6.535-5.697 15.247-13.236 19.268-16.42 26.975-21.11 53.616-46.243 73.554-69.532 9.55-11.226 39.373-51.27 46.41-62.495 3.519-5.864 7.875-12.566 9.383-15.08 1.675-2.513 3.686-6.031 4.691-7.874a826 826 0 0 1 7.54-13.404c5.53-9.718 25.467-49.594 30.158-60.82 5.027-11.56 8.043-18.095 10.22-22.451 1.341-2.346 2.347-5.864 2.347-7.707s1.172-4.189 2.513-5.362 2.513-4.188 2.513-6.702c0-2.513 1.173-5.529 2.513-6.702 1.34-1.172 2.513-4.188 2.513-6.701s1.173-5.53 2.514-6.702c1.34-1.173 2.513-4.022 2.513-6.2 0-2.345 1.005-6.199 2.345-8.545 1.34-2.513 3.016-7.372 3.519-10.89.503-3.351 1.843-6.2 2.848-6.2 2.346 0 .503 13.907-1.843 14.745-1.005.335-1.843 3.016-1.843 6.031 0 3.016-1.173 6.87-2.513 8.713-1.34 1.675-2.513 5.194-2.513 7.54s-1.173 5.696-2.513 7.54c-1.34 1.675-2.514 5.193-2.514 7.539s-1.172 5.696-2.513 7.54c-3.183 4.188-3.183 9.047 0 9.047 6.032 0 24.63-14.41 28.148-21.781l2.513-5.027c4.524-8.042 7.037-14.074 7.037-16.754 0-4.189 1.676-8.378 3.519-8.378 2.346 0 1.843 8.88-.838 12.566-1.173 1.843-2.68 5.362-3.35 7.875-.503 2.68-1.844 4.691-2.682 4.691-1.005 0-1.675 1.006-1.675 2.179 0 5.864-16.922 22.451-29.488 28.985-8.88 4.692-13.07 9.55-16.42 19.1-.503 1.341-1.676 3.687-2.346 5.027-3.016 5.027-5.361 10.053-5.361 10.89 0 2.346 8.712.336 16.084-3.518 35.52-18.765 61.825-44.232 74.391-71.878 3.016-6.702 3.686-11.393 3.854-23.959v-15.582l8.545-6.534c4.859-3.686 13.571-12.064 19.435-18.598 6.032-6.702 14.912-15.917 19.939-20.608 16.587-15.582 21.11-21.279 28.483-35.018 4.02-7.54 7.874-15.582 8.712-17.927.67-2.346 2.848-8.21 4.691-13.237 8.21-21.446 10.556-35.352 10.891-59.646.168-24.295-.503-27.646-8.545-43.563-5.696-10.89-19.77-22.284-33.844-27.142-11.059-3.854-11.896 2.178-1.173 8.544 13.404 7.875 22.954 24.127 17.76 30.327-1.843 2.178-2.513 2.178-5.53 0-2.01-1.34-4.69-2.514-6.199-2.514-3.015 0-8.377 8.21-8.377 12.566 0 4.692 5.194 26.473 7.707 32.337 2.513 5.697 3.184 13.739 1.173 13.739-.503 0-5.026-3.016-9.885-6.702s-10.556-6.702-12.734-6.702c-7.204.168-13.069 7.205-18.095 21.781-1.675 5.027-3.686 7.708-5.864 8.21-7.037 1.173-7.54 3.016-7.205 23.457.503 22.619.168 23.624-18.765 44.735-5.697 6.367-12.231 15.582-14.577 20.273-2.178 4.859-4.691 8.88-5.361 8.88s-2.68-3.016-4.356-6.702c-2.346-5.026-4.022-6.702-7.037-6.702-5.53 0-6.2-3.183-3.184-15.079 1.508-5.696 2.681-12.566 2.681-15.247 0-2.848 1.173-13.068 2.513-22.954 6.2-44.567 5.864-94.161-.838-131.022-1.005-6.031-3.015-17.76-4.188-25.97-7.875-50.766-9.215-72.213-5.194-84.779 5.529-16.922 6.031-19.268 5.864-27.645 0-4.524-.67-11.56-1.34-15.75-1.844-11.225.167-17.09 9.382-28.818 8.545-10.89 13.907-24.126 13.907-34.347 0-5.813 3.294-13.93 7.92-19.293a548.718 551.231 0 0 0-42.137-41.061c-1.142 2.66-3.196 6.059-6.33 10.76-4.021 6.032-4.691 8.713-4.691 18.765 0 15.415-4.859 34.85-12.734 51.27l-6.534 13.404-.168 32.672c-.167 19.1-.837 34.18-1.843 36.022-3.183 5.864-4.188 17.09-2.178 23.792 2.346 7.875 6.702 34.012 8.21 49.93.67 6.366 2.178 13.906 3.183 16.586 2.346 5.362 3.519 31.834 1.676 33.845-2.513 2.346-3.351-.838-4.189-17.257-.502-9.048-2.01-18.43-3.183-20.944-1.34-2.513-2.346-6.87-2.346-9.55 0-2.848-1.005-8.042-2.346-11.393-1.172-3.519-3.183-10.556-4.188-15.582s-2.68-13.069-3.686-17.593c-2.178-9.55-1.006-32.504 2.01-40.714 1.34-3.853 1.676-13.739 1.173-30.996-.838-26.473 0-32.337 7.037-46.578 7.372-15.247 8.88-20.944 9.885-41.72 1.173-19.603 1.676-21.78 7.372-34.012 1.807-3.706 3.331-6.537 4.68-8.572a548.718 551.231 0 0 0-44.967-33.874m-404.86 205.37c.435-.01.644.31.644.938 0 1.005-29.656 40.546-32.672 43.73-1.005 1.005-4.69 5.696-8.377 10.388-6.702 9.047-8.21 10.052-10.053 7.037-2.178-3.351 18.598-30.662 40.044-53.28 5.78-5.907 9.11-8.797 10.414-8.812m38.117 24.63c.404.016.691.325.896.937.335 1.006-.168 2.346-1.173 2.681-1.173.335-2.01 1.676-2.01 3.016s-.671 2.346-1.341 2.346-2.681 2.345-4.189 5.026c-1.675 2.848-5.864 8.377-9.215 12.23-3.351 4.022-8.377 10.054-11.058 13.405-5.194 6.534-9.383 8.042-9.383 3.35 0-3.853 11.728-18.932 22.787-29.488 5.194-4.691 10.555-10.052 12.063-11.728 1.194-1.194 2.033-1.797 2.623-1.774m48.8 29.963c2.665-.114-2.436 7.298-13.725 19.228-9.382 10.053-13.906 12.398-13.906 7.372 0-3.016 15.582-19.603 22.954-24.294 2.317-1.532 3.86-2.272 4.676-2.306m-105.038 25.93c7.875 0 13.739.67 13.739 1.675 0 1.508-24.797.503-26.64-1.005-.335-.335 5.361-.67 12.9-.67m-28.148.502c7.875 0 11.058.336 7.204.67-4.02.336-10.388.336-14.241 0-4.021-.334-.838-.67 7.037-.67m59.491 2.852c7.666-.023 18.031.918 22.607 2.51 3.854 1.34 9.215 2.513 11.56 2.513 2.514 0 6.033 1.173 7.876 2.513 1.675 1.34 5.529 2.514 8.377 2.514 2.68 0 6.534 1.172 8.377 2.513 1.676 1.34 4.524 2.513 6.2 2.513 1.843 0 5.194 1.005 7.54 2.346 2.512 1.173 8.042 3.853 12.398 5.864s8.377 4.356 8.88 5.361c.67.838 2.513 1.508 4.188 1.508s3.854 1.006 4.524 2.01c1.508 2.347 6.032 5.53 11.393 7.876 5.362 2.513 16.923 13.068 15.582 14.576-.837.67-2.68 0-4.356-1.508-1.675-1.675-4.02-2.848-5.026-2.848-1.173 0-2.01-.838-2.01-1.675 0-1.006-1.676-2.514-3.687-3.351-2.178-1.006-6.032-3.184-8.88-5.027-2.68-1.843-6.2-3.686-7.54-4.356-1.34-.503-3.686-1.508-5.026-2.346-11.56-6.702-33.174-15.917-42.725-18.262-2.848-.67-6.701-2.179-8.712-3.184-2.01-1.173-5.697-2.01-8.377-2.01-2.514 0-6.87-1.173-9.55-2.514-2.514-1.34-8.713-2.513-13.572-2.513-10.723 0-19.268-1.508-19.268-3.518 0-1.021 3.982-1.49 9.227-1.505m110.493 10.262c.728.028 1.145.437 1.584 1.128 1.006 1.843-8.042 8.712-11.393 8.712-5.026 0-4.188-3.183 2.01-6.366 4.504-2.514 6.585-3.521 7.799-3.474m-306.807 20.985c2.605.032 3.094 1.27-.398 2.594-2.179.67-4.692.838-5.697.168-1.173-.67-.335-1.676 2.178-2.178 1.555-.424 2.898-.597 3.917-.584m-11.854 4.14c.857-.01 1.235.413 1.235 1.303 0 2.178-4.691 3.686-5.864 1.843-.503-.67.168-1.843 1.173-2.178 1.57-.629 2.7-.963 3.456-.967M661.96 311c.76 0 1.618.017 2.581.038 8.88 0 9.048.168 3.686 1.676-3.853 1.34-6.534 1.34-9.215 0-2.785-1.32-2.364-1.741 2.948-1.714m-337.184 9.734c.805-.041 1.32.383 1.32 1.362 0 .838-1.173 2.849-2.514 4.692-1.34 1.675-2.513 6.702-2.513 10.89 0 6.535.838 8.545 6.032 13.907 5.529 5.696 10.22 8.377 24.127 13.906 18.43 7.372 21.11 7.54 83.773 8.88 61.155 1.173 86.12 3.016 100.696 7.707 4.357 1.173 10.388 2.346 13.572 2.346s7.204 1.173 9.047 2.513c1.676 1.34 5.194 2.514 7.707 2.514s7.037 1.005 10.053 2.345c3.016 1.173 10.053 3.686 15.582 5.194 9.048 2.68 28.148 11.226 36.86 16.42 5.027 3.183 36.358 26.472 41.72 31.164 12.901 11.56 23.457 22.954 39.206 42.892 9.383 12.063 19.1 23.959 21.446 26.807 2.346 2.681 9.383 11.058 15.414 18.263 19.939 23.624 57.47 58.977 67.355 63.5 1.34.67 4.858 2.681 7.54 4.524 4.69 3.016 5.863 3.686 11.392 5.864 1.006.503 3.184 1.508 4.524 2.179 5.194 3.015 14.41 6.869 18.933 7.707 2.513.67 4.189 1.843 3.686 2.68-1.508 2.514-7.037 2.011-9.885-.837-1.34-1.34-4.021-2.513-6.032-2.513-2.01 0-5.697-1.006-8.042-2.346-2.513-1.34-5.697-2.848-7.037-3.351-1.34-.67-4.692-2.513-7.54-4.356-2.68-1.843-6.702-4.189-8.712-5.194-2.178-1.173-3.854-2.681-3.854-3.519 0-.67-1.173-1.34-2.513-1.34-1.508 0-3.016-1.173-3.519-2.513-.67-1.34-1.675-2.514-2.68-2.514-3.686 0-28.65-20.943-39.374-33.006-6.2-7.037-13.906-15.415-16.922-18.598-3.016-3.016-8.21-9.383-11.394-13.907-5.529-8.042-9.55-12.9-16.754-20.775-2.01-2.179-6.2-7.373-9.215-11.561-3.016-4.189-6.032-7.707-6.87-7.707-.67 0-1.34-.838-1.34-1.676 0-4.021-29.656-34.515-44.4-45.573-18.263-13.739-52.945-33.174-59.145-33.174-1.675 0-4.523-1.173-6.366-2.513-1.676-1.34-4.524-2.514-6.2-2.514-1.843 0-5.194-1.005-7.54-2.345-5.863-3.016-17.089-6.032-29.655-7.707-5.53-.838-13.069-2.346-16.755-3.184-3.686-1.005-10.723-1.843-15.582-1.843s-16.084-1.173-25.132-2.68c-11.896-2.011-29.823-2.681-67.354-2.849-39.206-.335-52.442-.838-56.966-2.68-3.183-1.341-8.88-3.352-12.566-4.692s-7.875-3.183-9.215-4.021-4.189-2.178-6.032-3.016c-2.01-.838-7.204-5.026-11.728-9.215-7.707-7.372-8.043-8.21-8.043-16.587 0-6.032 1.006-10.22 3.184-13.237 2.089-2.858 4.683-4.635 6.22-4.713m-30.951 55.46c6.225-.086 23.04 3.45 27.747 5.884 2.68 1.34 6.199 2.346 7.874 2.346 1.508 0 3.854 1.173 5.027 2.513s3.016 2.514 4.021 2.514c2.68 0 13.069 11.058 18.095 19.267 10.053 16.42 9.215 42.893-2.178 62.83-.838 1.341-2.178 4.19-3.183 6.2-.838 2.178-2.346 3.854-3.184 3.854s-1.843 1.675-2.178 3.686-1.508 3.853-2.513 4.356c-3.016.838-2.68-3.854.335-6.367 1.34-1.173 2.513-3.686 2.513-5.697 0-2.01 1.005-5.026 2.346-6.869 1.173-1.843 2.68-5.697 3.183-8.377.503-2.849 1.843-8.378 2.849-12.566 4.858-18.43-2.179-41.385-16.42-53.616-4.356-3.686-9.048-6.701-10.388-6.701-1.508 0-4.524-1.34-6.702-2.849-6.032-4.356-55.29-4.188-59.982.168-1.675 1.508-4.189 2.68-5.529 2.68-3.686 0-23.457 10.388-28.818 15.415-2.848 2.513-5.864 4.021-6.702 3.518-1.005-.502.503-2.513 3.183-4.523 2.514-1.843 5.865-4.86 7.205-6.367 1.508-1.676 3.853-3.016 5.361-3.016s3.184-1.173 3.854-2.513c.503-1.34 2.346-2.513 4.021-2.513 1.843 0 4.189-1.173 5.362-2.514s4.02-2.513 6.534-2.513c2.346 0 5.864-1.173 7.54-2.513 1.843-1.34 6.702-2.513 10.89-2.68s9.55-.839 11.896-1.509 5.697-1.34 7.372-1.508q.267-.015.569-.02m818.906 12.419.502 5.696c.335 3.016-.167 6.367-1.172 7.372-1.006 1.006-1.844 3.351-1.844 5.362 0 2.01-1.172 5.026-2.513 6.87-1.34 1.675-2.513 4.523-2.513 6.031s-1.005 3.519-2.346 4.189c-1.34.67-2.513 2.848-2.848 4.524-.335 1.843-1.675 3.518-2.68 4.02-3.017.839-2.681-5.528.334-8.042 1.34-1.172 2.514-3.853 2.514-5.864s1.172-4.691 2.513-5.864 2.513-3.853 2.513-5.864 1.005-4.691 2.346-5.697c1.34-1.172 3.016-4.523 3.853-7.372zm-251.968 22.621c.854-.046 1.762.595 2.154 2.008 1.844 6.032 4.022 9.718 13.572 23.457 5.529 7.875 8.545 11.56 18.765 22.786l6.87 7.875 1.675-4.189c1.005-2.345 2.346-5.696 3.016-7.54 1.843-4.523 3.016 12.4 1.508 22.117-1.173 7.54-4.189 9.885-4.189 3.351 0-2.68-3.686-7.875-10.22-14.744-12.901-13.404-26.64-31.667-29.321-38.369-.503-1.34-2.01-4.523-3.35-7.037-1.341-2.345-2.347-5.529-2.347-7.037 0-1.69.899-2.625 1.867-2.678m-624.138 18.428c16.085 0 18.933 1.843 15.917 10.22-1.005 3.016-1.843 8.043-1.843 11.394 0 5.026-1.34 7.372-6.534 12.398-3.686 3.35-7.707 6.2-9.215 6.2-4.021 0-3.184-3.017 1.005-4.357 16.085-5.026 10.723-31.331-6.534-31.331-7.372 0-11.561 3.183-15.08 11.058-3.518 7.707-2.68 12.733 3.016 18.095 6.367 5.864 5.194 8.21-4.188 8.21-8.043 0-11.896-2.849-9.383-6.702 1.005-1.34 1.675-5.027 1.675-8.042 0-7.037 4.021-14.41 11.729-21.614 5.696-5.362 6.366-5.53 19.435-5.53m856.838 5.026c2.178 0 2.178 2.849-.168 4.189-.838.67-2.345 3.016-3.183 5.194s-2.346 4.021-3.351 4.021c-2.513 0-2.01-4.691.502-6.2 1.34-.67 2.681-2.68 3.351-4.355.503-1.508 1.843-2.849 2.849-2.849m-9.806 15.12c.803.024 1.428.525 1.428 1.468 0 2.01-3.35 4.188-4.523 3.015-.503-.502-.335-1.675.335-2.68.712-1.247 1.85-1.83 2.76-1.803m-15.55 21.166q.152 0 .224.072c1.005 1.005-13.572 13.907-15.75 13.907-.838 0-2.513 1.34-3.686 2.848-1.173 1.675-2.68 2.346-3.35 1.675-1.341-1.34.167-2.848 14.408-13.571 3.796-2.885 7.18-4.944 8.154-4.93m-536.295 9.25c1.42.047 2.943 1.524 3.383 3.723.502 2.513.167 2.681-2.849 1.006-2.01-1.006-3.183-2.681-2.513-3.519.519-.864 1.235-1.233 1.979-1.21m446.546 18.132c1.508 0 .335 18.095-1.34 19.939-2.011 2.01-2.681-2.011-1.676-10.556.67-5.194 2.01-9.383 3.016-9.383M422.1 511.76c.168 0 6.032 5.53 12.901 12.064 12.064 11.728 28.818 26.807 36.023 32.336 16.755 12.734 32.84 24.295 34.18 24.295.837 0 1.843.502 2.178 1.172.502 1.508 9.215 7.708 13.069 9.383 1.34.67 4.858 2.68 7.54 4.524 2.847 1.843 7.036 4.189 9.717 5.194 2.513 1.005 4.524 2.513 4.524 3.35 0 .839 1.508 1.509 3.183 1.509 1.843 0 4.356 1.005 5.53 2.178 1.172 1.34 4.355 2.848 6.869 3.518 2.513.503 4.523 1.843 4.523 2.681 0 2.513-6.031 2.01-8.712-.503-1.173-1.34-4.356-2.848-6.87-3.518-2.513-.503-4.523-1.843-4.523-2.68 0-1.006-1.843-1.676-4.021-1.676-2.346 0-4.692-.838-5.194-1.843-.67-.838-2.849-2.514-4.692-3.351-2.01-.838-5.864-3.016-8.712-4.86-2.68-1.842-6.535-4.02-8.378-5.026-6.869-3.35-36.19-24.629-48.253-34.85-8.88-7.372-37.866-37.027-39.709-40.546-1.005-1.843-1.508-3.35-1.173-3.35m-193.852 8.378c11.393 0 14.409.502 18.095 3.518 6.2 4.859 3.35 7.54-4.859 4.859-7.54-2.513-41.049 0-45.238 3.35-3.016 2.514-13.739 3.687-14.912 1.844-.67-1.173 1.34-2.178 5.53-2.848 3.686-.67 7.707-2.179 8.712-3.351 1.005-1.34 3.854-2.346 6.367-2.346 2.345-.168 6.2-1.173 8.545-2.513 2.68-1.508 9.215-2.346 17.76-2.513m184.812.049c1.082-.026 2.443 1.134 3.008 3.302.503 1.843 1.508 3.35 2.179 3.35.837 0 1.843 1.341 2.345 3.017.67 1.675 3.184 5.361 5.697 8.042 2.68 2.68 8.377 9.718 13.069 15.75 4.523 6.031 12.398 15.414 17.592 20.943 5.362 5.529 12.399 13.236 15.917 17.257 5.194 6.032 29.32 28.483 47.584 44.568 8.712 7.54 38.368 29.488 40.211 29.488.838 0 1.675.838 1.675 1.676 0 1.005 1.34 2.178 3.016 2.848 1.508.503 5.53 3.016 8.713 5.529s7.037 5.026 8.377 5.529c1.34.67 4.859 2.68 7.54 4.524 2.848 1.843 6.702 4.02 8.88 5.026 2.01.838 3.686 2.346 3.686 3.351 0 2.513-1.676 2.01-9.215-2.513-3.686-2.178-10.723-6.2-15.75-8.713-4.859-2.513-10.388-5.361-12.063-6.366-1.843-.838-3.184-2.178-3.184-3.016 0-.67-1.675-2.01-3.686-2.848-5.696-2.514-10.388-5.53-11.896-8.043-.67-1.005-2.178-2.01-3.183-2.01-.838 0-4.859-2.514-8.712-5.53-7.708-6.031-8.043-6.366-21.95-17.424-9.382-7.54-51.604-48.924-61.321-59.982-7.875-9.383-29.991-39.206-29.991-40.714 0-1.006-1.173-2.01-2.514-2.681-1.34-.503-2.513-2.01-2.513-3.183 0-1.34-1.173-3.351-2.513-4.524s-2.513-3.184-2.513-4.357c0-1.539.673-2.276 1.515-2.296m560.271 1.626c1.508 0 .503 14.744-1.34 16.42-1.843 2.01-2.513-1.34-1.508-8.545.67-4.356 1.843-7.875 2.848-7.875m-714.403 17.963c.396 0 .876.358 1.489.97 1.843 1.843 2.178 4.524 1.34 10.22-1.173 6.87-3.35 10.891-5.361 9.048-.335-.503-.168-5.529.335-11.226.722-6.623 1.185-9.005 2.197-9.012m306.32 76.031c.901 0 2.367.503 4.63 1.508 3.015 1.34 2.847 1.508-1.174 1.508-2.68.168-4.691-.67-4.691-1.508 0-1.005.335-1.508 1.236-1.508m-70.6 41.72c-1.675 0-1.34.837 5.697 25.97 8.377 29.99 10.388 45.572 11.226 84.611.837 38.033.167 43.73-7.037 66.516-4.357 12.902-15.582 37.028-23.29 49.092-16.084 25.467-41.551 48.42-70.202 63.5l-9.103 4.82a548.718 551.231 0 0 0 32.209 12.09c.512-.365 1.24-.697 2.194-.993 14.074-4.356 40.546-22.786 58.641-41.049 21.111-21.278 42.39-58.81 54.956-96.842 6.032-18.095 11.896-41.385 13.404-52.945 1.508-12.734 1.005-64.338-.838-67.354-1.34-2.514-7.205-6.367-12.231-8.21-1.676-.503-3.016-1.676-3.016-2.513 0-.838-1.675-2.346-3.686-3.351-8.88-3.854-31.834-19.436-40.714-27.31-3.686-3.352-7.372-6.032-8.21-6.032" style="stroke-width:.167547"/>
</svg>
