<svg xmlns="http://www.w3.org/2000/svg" width="1462" height="960">
    <path d="M1128.352 662.479c0 14.89-63.406 79.257-112.882 115.284s-151.31 80.699-184.935 81.66c-6.725 0-21.616 5.283-33.625 11.528l-21.616 12.009 39.389-.961 39.869-1.441-11.048 10.087c-10.087 9.127-28.34 16.332-85.022 32.184-43.232 12.489-97.031 22.576-117.686 22.576-23.057 0-36.507 6.725-24.018 11.529 14.891 5.764 110.481 2.882 151.31-4.324 172.447-31.222 278.124-104.236 356.421-246.42 19.214-35.065 22.096-48.995 11.048-48.995-3.843 0-7.205 2.401-7.205 5.284M928.526 409.814c-4.323 16.332 1.922 40.35 8.166 30.742 5.764-9.126 5.764-36.506-.48-40.349-2.402-1.441-5.765 2.882-7.686 9.607m-25.458 9.607.48 24.018 4.323-18.734c2.882-12.49 2.882-20.655-.48-24.018q-5.045-5.043-4.323 18.734m-29.302-4.804c0 12.97.96 22.097 2.402 20.656 3.843-3.843 4.323-36.987.96-40.83-1.92-1.441-3.362 7.205-3.362 20.174m-27.38-4.803c0 10.568.96 14.41 1.922 8.166.96-5.764.96-14.41 0-19.214-1.442-4.323-2.402.48-1.922 11.048m-17.293-80.699c-4.323 3.843-4.323 26.9-.48 37.467 4.804 12.01 11.528-.96 11.528-23.056 0-16.813-3.842-22.097-11.048-14.41m-29.301 3.843c-1.441 3.843-.96 14.41.48 23.057 3.363 14.89 3.363 14.89 6.725 3.362 4.804-17.293 4.804-33.624 0-33.624-2.401 0-5.284 3.362-7.205 7.205m-25.939 7.205c0 9.127.96 12.97 2.402 8.166.96-4.323.96-12.009 0-16.812-1.441-4.323-2.402-.48-2.402 8.646m-47.074-74.935c-1.441 6.725-.961 16.813.96 23.057 3.363 10.568 3.363 10.568 7.206 1.441 5.284-13.93 5.284-36.026-.48-36.026-2.402 0-5.765 5.284-7.686 11.528m-28.341-6.725c-1.921 5.284-1.441 16.813.48 25.46 2.883 13.449 3.843 14.41 7.206 5.763 5.284-13.45 5.284-35.065 0-38.428-2.402-1.44-5.765 1.922-7.686 7.205m-24.978 9.607c0 12.01.96 16.813 1.921 10.568.96-5.764.96-15.371 0-21.616-.96-5.764-1.921-.96-1.921 11.048m51.397-187.817c-69.17 8.647-143.144 48.516-205.11 110.961-13.93 13.93-25.458 27.38-25.458 29.782 0 2.882-6.245 12.97-14.41 23.057-7.686 10.087-14.411 22.576-14.411 27.86s-3.363 12.01-7.205 15.371c-7.686 6.725-9.607 26.9-2.882 30.743 4.803 3.362 10.087-8.166 10.087-21.616 0-4.803 2.402-9.127 5.764-9.127 2.882 0 14.41-9.607 25.939-21.615 11.048-12.009 23.537-21.616 27.38-21.616s9.607-3.363 12.97-7.205c3.362-3.843 13.45-8.166 23.537-10.088 9.607-1.921 19.694-5.284 23.057-7.685 3.362-2.402 8.166-3.363 10.567-1.922 2.882 1.922 9.607.48 14.891-2.882 8.646-5.284 11.048-4.803 16.332 2.402 5.764 7.205 6.725 7.686 9.607.96 4.323-11.528 14.89-8.646 20.655 5.765l4.804 13.45 3.843-13.45c1.92-7.205 6.244-12.97 9.607-12.97 3.842 0 7.205 5.765 8.165 12.97 1.922 15.371 10.088 16.332 13.45 1.44 2.882-12.969 11.529-14.41 13.45-1.92 3.362 21.615 6.245 24.017 13.45 10.087 7.685-13.93 16.332-13.45 16.332 1.44 0 13.45 9.607 17.294 12.97 5.285 1.44-5.764 5.283-9.607 8.165-8.647 8.647 2.883 9.127 18.254.48 24.498-5.283 3.843-7.205 11.048-6.244 23.538 1.922 24.978 10.568 22.576 12.49-3.843.96-14.41 3.842-21.616 8.165-21.616 3.363 0 7.205-2.402 8.166-5.764.96-2.882 4.804-3.843 8.166-1.922 4.323 2.882 3.843 5.284-1.921 9.607s-7.206 11.529-6.245 28.341c1.922 29.301 10.568 29.301 13.45.48 3.362-33.144 13.45-32.663 15.371 0 1.922 32.664 10.568 36.027 12.49 5.284 1.92-30.262 12.488-25.458 14.41 6.245 1.921 31.223 13.93 35.546 16.332 5.764 1.921-24.498 10.568-25.459 12.489-1.441.96 12.49-.96 19.694-6.245 23.537-5.764 4.323-7.205 11.529-6.244 27.86 1.921 29.782 10.568 28.341 12.489-1.92.96-16.333 3.362-24.018 8.166-24.018 3.362 0 7.205-5.284 8.166-12.01 1.921-15.85 10.568-17.772 12.489-2.881.96 7.205-1.441 13.45-5.764 15.851-8.647 4.804-11.048 48.996-3.363 53.8 5.765 3.842 10.088-9.127 10.088-31.223 0-12.97 1.921-18.734 7.205-18.734 4.803 0 7.205 7.205 8.166 27.38 1.44 30.262 10.087 36.026 12.489 8.646 1.921-22.096 12.49-19.694 14.41 2.882.961 9.127 5.765 20.175 10.568 24.498 6.725 6.245 8.166 12.97 6.245 31.223-1.441 12.49-5.284 24.978-8.166 27.86-3.363 2.402-7.205 8.647-9.127 12.97-1.44 4.804-6.244 8.646-10.087 8.646-4.323 0-10.568 5.765-14.41 12.97-13.93 26.9-112.403 112.402-175.81 153.232-33.624 21.616-34.584 22.096-89.825 48.996-28.34 14.41-58.122 28.82-65.327 32.663-7.686 3.843-16.813 6.725-20.175 6.725-3.843 0-13.93 2.882-22.577 6.725-15.37 6.725-35.065 12.009-105.677 28.821-44.192 10.568-151.31 10.568-183.974 0-35.066-12.009-53.8-21.616-70.132-37.467-27.86-27.38-34.585-50.437-26.419-94.149l3.843-21.616-11.048 12.01c-29.301 30.742-37.467 107.598-16.812 154.192 11.048 24.978 47.074 66.768 57.161 66.768 2.883 0 8.647 2.883 12.49 6.245 13.45 11.048 54.28 21.616 103.755 27.38 79.258 8.646 188.778-7.205 282.447-41.31 61.485-22.577 117.686-48.516 144.585-66.769 9.607-6.725 18.734-12.009 20.175-12.009s19.694-12.97 40.35-28.82c36.986-27.861 78.777-74.935 73.974-82.621-1.442-1.921-19.695 9.127-40.35 24.978s-39.87 28.821-42.27 28.821c-2.403 0-7.206 3.363-10.569 7.206-3.362 3.842-9.607 7.205-14.41 7.205s-11.048 3.362-14.41 7.205c-6.726 8.166-24.018 9.607-24.018 2.402 0-2.882 3.843-6.725 8.646-8.166 17.773-6.725 101.354-74.455 135.46-110.48 58.602-61.486 88.864-97.032 91.266-107.6 3.362-12.969 10.567-12.969 17.292 0 5.284 10.088 5.765 10.088 8.647-6.244 1.921-9.607 5.284-17.293 7.685-17.293 7.206 0 11.048 32.664 5.284 48.516-2.882 8.646-5.284 23.537-5.284 33.624 0 27.38-30.262 109.04-42.75 117.206-2.883 1.441-11.53 12.97-19.695 25.459-8.647 12.489-21.616 27.38-29.302 33.624-14.41 11.529-18.733 24.978-8.166 24.978 11.529 0 68.69-30.742 96.07-51.397 41.31-31.703 83.581-80.219 99.433-115.284 2.402-5.284 7.205-11.529 9.607-13.45 2.882-1.441 5.284-8.166 5.284-14.891s2.402-16.812 5.284-22.096c10.568-19.214 19.694-73.974 19.694-114.324 0-122.49-65.328-236.813-171.965-301.18-14.41-8.646-29.302-15.851-33.145-15.851s-7.685-1.922-9.126-4.323C899.705 88.94 782.98 73.088 724.857 80.293M583.154 16.407c-15.852 3.842-38.909 10.087-50.917 13.93-12.49 3.843-24.979 7.205-27.86 7.205s-18.734 6.245-35.066 13.93c-16.813 7.686-33.625 14.891-37.468 16.813-3.842 1.921-11.528 5.764-16.812 9.126-96.07 59.564-150.35 116.725-195.983 206.07-37.948 74.455-69.17 197.905-46.594 183.975 2.402-1.44 4.803-8.166 4.803-13.93 0-6.245 3.363-13.93 7.206-17.293 3.842-3.362 7.205-9.607 7.205-14.41s3.362-11.048 7.205-14.41 7.205-8.167 7.205-10.569c0-8.165 32.184-53.799 55.24-77.336 30.743-32.184 35.066-28.821 30.263 21.135-5.284 49.957-.48 144.106 8.646 170.045 3.363 10.567 6.725 23.056 6.725 27.38 0 10.567 10.568 34.105 55.24 123.93 2.402 5.284 6.245 9.607 8.647 9.607 1.921 0 5.764 5.764 8.166 12.49 2.882 6.724 6.725 10.567 9.607 9.126 7.205-4.323 5.764-14.89-2.402-21.616-3.843-3.362-7.205-10.568-7.205-16.332s-1.922-12.489-3.843-14.89c-6.245-7.206-23.057-66.289-31.703-112.883-4.323-22.577-7.686-60.524-7.686-84.061.48-57.162 18.253-142.184 37.948-179.171 2.402-4.324 5.764-11.529 7.685-15.372 9.127-23.056 51.878-81.66 75.416-103.755 23.537-22.577 78.297-64.367 83.58-64.367 1.922 0 7.206-2.882 11.049-6.245 17.773-14.89 116.725-49.476 150.83-52.358 7.205-.96 13.93-3.843 14.41-6.245 1.441-7.685-100.393-7.205-133.537.48m706.116-27.86c-69.171 72.532-136.9 121.048-169.084 121.048-7.685 0-18.734-3.363-24.498-7.686-10.567-7.205-11.048-10.568-9.607-47.074 1.922-36.987 6.725-56.201 21.136-85.503 10.567-22.576-.48-19.214-29.782 9.607-36.026 35.546-71.572 61.966-96.55 73.014-6.245 2.401-11.049 6.244-11.049 8.166 0 2.401 16.813 15.851 36.507 30.262 34.585 24.978 107.599 97.51 107.599 106.157 0 12.009 15.851.96 38.908-26.9 40.83-48.995 45.633-37.947 11.528 27.86-12.008 23.058-21.615 44.674-21.615 47.556s5.764 17.292 12.489 31.703c12.009 25.458 24.017 63.886 30.262 96.07 1.44 8.646 4.323 16.332 5.764 16.812 1.921.48 12.009-10.087 22.577-23.537 21.615-27.86 47.074-48.996 76.375-64.367 11.529-5.764 19.214-12.489 17.773-14.89-1.44-2.403-12.97-4.324-25.939-4.324-24.498 0-38.428-8.166-38.428-23.057 0-4.323 14.41-21.616 32.184-38.428 25.458-24.017 30.742-31.223 25.458-34.585-3.843-2.882-10.567-4.804-14.89-4.804-11.049 0-25.46-23.537-25.46-41.31 0-23.537 32.184-115.764 47.556-136.42 2.882-3.842 9.607-15.851 14.41-26.419 5.284-10.567 12.49-22.576 15.852-27.38 3.362-4.323 4.803-8.646 2.401-10.087-1.92-.96-25.458 20.655-51.877 48.515" style="stroke-width:.480351"/>
</svg>
