<svg xmlns="http://www.w3.org/2000/svg" width="1432" height="960">
    <path d="M1264.555 776.178c-8.302 9.487-21.347 17.789-29.65 17.789-22.532 0-91.317 85.388-79.458 97.248 28.463 28.463 155.36-64.042 156.546-112.665 0-24.905-27.277-26.091-47.438-2.372m-59.298-182.637c-7.116 15.418-26.09 52.182-41.508 80.645-32.02 55.74-39.137 107.921-14.232 107.921 26.091-1.186 78.273-84.202 86.575-138.756 9.487-62.855-10.674-96.062-30.835-49.81M849.472 422.764c0 11.86 8.301 32.02 17.79 43.88 9.487 13.046 17.788 35.579 17.788 49.81 0 15.418 5.93 30.835 13.046 34.393 7.116 4.744 9.487 15.417 5.93 24.905-8.302 21.347 101.991 161.29 116.223 147.058 5.93-5.93 2.372-27.277-9.488-50.996-10.673-22.533-18.975-53.368-18.975-66.413 0-22.533-27.277-77.087-47.438-96.062-3.558-3.558-21.347-28.463-40.322-56.926-35.579-53.368-54.554-62.855-54.554-29.649m432.872-78.273c-4.744 7.116-5.93 15.418-2.372 18.976 8.302 8.301 32.02-7.116 32.02-21.347s-20.16-14.232-29.648 2.371m-247.864-137.57c-11.86 32.02-8.301 226.517 5.93 263.281 7.116 17.79 16.603 67.6 20.161 110.294 9.488 85.388 26.091 97.248 42.694 27.277 5.93-24.905 22.533-61.67 37.95-83.017 15.418-20.161 28.464-43.88 28.464-52.182s8.301-24.905 18.975-36.764c17.79-18.976 17.79-21.347 1.186-27.277-9.488-4.744-35.579-5.93-58.112-3.558-33.206 3.558-39.136 8.302-42.694 39.136-9.488 84.203-20.161 41.509-20.161-80.644 0-129.269-16.604-202.798-34.393-156.546m-113.85-24.905c0 16.603 4.744 32.02 10.673 36.765 14.232 8.301 29.65-36.765 18.976-53.368-13.046-21.347-29.65-11.86-29.65 16.603m-569.257-53.368c0 5.93 7.116 26.091 16.604 45.066 9.487 17.79 26.09 53.368 35.578 77.087 10.674 24.905 28.463 65.228 39.137 88.947 10.673 24.905 26.09 59.297 35.578 77.086 14.232 27.277 21.347 80.645 11.86 80.645-7.116 0-68.786-34.392-109.108-59.297-18.975-11.86-61.67-36.765-94.876-53.368-32.02-17.79-74.715-39.137-92.504-49.81-18.975-9.488-35.579-15.418-37.95-13.046-4.744 3.558 20.16 58.112 45.066 98.434 28.462 47.438 160.103 273.955 185.008 316.65 21.347 39.136 22.533 45.065 4.744 45.065-21.347 0-93.69-17.789-171.963-43.88-85.389-27.277-88.946-9.487-15.418 69.971 67.6 72.343 72.344 92.504 24.905 92.504-15.417 0-34.392 8.302-42.694 17.79s-24.905 17.789-36.764 17.789-24.905 4.744-28.463 11.86C115.368 956.442 271.914 960 581.447 960c258.537 0 469.636-3.558 469.636-8.302 0-8.301-90.132-131.64-117.409-158.917-10.673-10.674-48.624-55.74-84.202-99.62-105.55-130.455-260.91-317.835-288.186-349.856-14.232-15.417-45.066-53.367-67.6-84.202C403.555 140.508 351.373 93.07 351.373 128.648M460.48 586.425c10.673 5.93 58.111 37.95 104.364 68.786 47.438 32.02 87.76 54.553 92.504 50.996 3.558-3.558 0-21.348-8.302-37.95-24.905-54.555 3.558-60.484 48.624-9.489 21.347 23.72 45.066 49.81 50.996 56.926 36.764 37.95 124.525 152.988 124.525 162.475 0 5.93-66.413 10.674-148.244 10.674H576.703l-39.136-54.554c-36.765-52.182-93.69-145.872-111.48-182.636-4.744-9.488-20.16-35.579-35.578-58.112-40.323-59.297-35.579-80.645 10.673-46.252 21.347 15.417 47.438 32.02 59.298 39.136m794.587-626.182c-7.116 11.86-15.417 45.066-20.161 74.715-9.488 64.042-26.091 126.897-43.88 162.475-16.604 34.393-18.976 119.782-3.558 124.525 7.116 2.372 13.045-13.045 15.417-32.02 2.372-20.161 11.86-52.182 21.347-73.53 8.302-20.16 16.604-47.437 16.604-59.297s4.743-27.277 10.673-34.392c11.86-11.86 60.484-149.43 60.484-170.777 0-20.162-46.252-13.046-56.926 8.301" style="stroke-width:1.18595"/>
</svg>
