<svg xmlns="http://www.w3.org/2000/svg" width="1316" height="960">
    <path d="M871.41 830.529c-3.794 4.517-5.601 8.673-5.601 12.649 0 7.228.723 7.408 7.228.903 2.71-2.71 7.409-6.686 10.3-8.854 4.156-3.253 4.698-4.518 3.072-7.228-3.614-5.783-8.855-4.88-14.998 2.53m-52.945-32.888c-1.626 36.32 4.698 83.123 14.095 105.168 5.06 11.204 14.275 22.226 18.973 22.226 4.518 0 4.337-1.084-1.084-6.866-4.698-5.24-11.745-17.709-11.745-21.323 0-1.084-1.265-4.518-2.711-7.228-1.446-2.891-2.71-7.047-2.71-9.035 0-2.169-1.265-7.409-2.711-11.565s-2.71-10.48-2.71-13.733-1.265-11.927-2.711-19.155-3.253-24.214-4.156-37.586l-1.446-24.394zm-466.572-35.78c-1.626 1.627-1.264 12.108.362 14.096.903 1.084 2.891 5.42 4.517 9.938s5.964 12.469 9.397 17.709c3.433 5.421 6.324 9.938 6.324 10.3 0 3.795 48.067 51.5 51.862 51.5.542 0 3.975 2.349 7.77 5.42 3.795 2.892 7.59 5.422 8.674 5.422.903 0 2.71 1.265 3.975 2.71s3.614 2.711 5.421 2.711 4.156 1.265 5.421 2.71c2.53 3.073 10.842 3.795 10.842.904 0-1.084-1.084-2.168-2.168-2.53-4.698-1.445-7.951-3.072-13.191-6.505-2.892-1.988-6.686-4.156-8.132-4.879-1.446-.542-5.602-3.253-9.035-5.963s-7.77-5.421-9.396-5.963c-1.807-.723-3.253-1.988-3.253-3.072 0-.904-.723-1.807-1.807-1.807-4.88 0-33.43-30.9-42.826-46.08-5.602-9.215-20.42-40.115-20.42-42.825 0-3.434-2.53-5.602-4.337-3.795m21.323-.36c-1.084 2.53.542 4.878 6.686 10.3 4.337 3.794 8.855 6.866 9.939 6.866s3.072 1.265 4.337 2.71c2.349 2.892 10.842 3.795 10.842 1.085 0-.904-2.169-2.53-4.88-3.614-8.492-3.434-12.287-6.325-19.154-13.734-5.782-6.324-6.686-6.686-7.77-3.614m31.804-72.281c-1.265 1.445-3.253 2.71-4.698 2.71-2.169 0-6.144 5.24-6.144 7.951 0 2.35 3.975.904 7.77-2.71 2.168-2.169 6.144-4.699 9.035-5.602 2.71-1.084 4.879-2.53 4.879-3.433 0-2.71-8.493-1.807-10.842 1.084m498.555-4.88c-12.468 10.662-16.082 17.529-16.082 30.54 0 8.673 3.253 22.949 7.228 31.26 1.807 3.976 5.783 3.976 10.661.362l4.157-3.433-8.313-8.493c-7.59-7.95-8.312-9.397-8.312-17.709 0-9.938 3.253-16.805 10.3-22.045 4.337-3.072 5.24-3.253 9.397-.904 2.53 1.446 5.782 4.879 7.047 7.59 3.253 6.685 5.782 4.517 5.782-5.06 0-9.397-4.879-20.78-8.854-20.78-1.626 0-7.409 3.975-13.01 8.673m-507.952-17.166c-1.265 1.265-3.975 3.072-5.963 3.976-3.433 1.445-3.433 1.445-.18 2.349 1.806.361 3.794 0 4.517-1.084.542-.904 2.891-2.169 5.24-2.892 2.169-.723 3.976-2.168 3.976-3.072 0-2.349-4.88-1.987-7.59.723m500.002-20.6c-9.758 4.337-16.986 12.288-21.142 23.13-2.711 7.228-3.253 13.914-3.253 39.754 0 16.986.542 32.165 1.084 33.792 2.891 7.59 3.795.361 3.795-28.37-.18-30.54 0-31.262 4.879-40.658 5.602-10.843 17.166-20.239 24.575-20.239 2.71 0 7.409.904 10.662 1.988 3.252 1.084 6.143 1.626 6.686 1.084 1.807-1.807-3.614-8.312-8.313-10.12-9.216-3.613-11.926-3.613-18.973-.36M461.76 635.01c-1.807 1.446-4.879 2.71-6.505 2.71s-4.156 1.085-5.421 2.35c-1.265 1.446-4.88 3.253-7.77 3.975l-5.421 1.627 5.42.722c2.892.362 5.602-.18 5.964-1.264s2.168-1.988 4.156-1.988c4.156 0 17.89-7.047 17.89-9.216 0-2.53-4.338-1.988-8.313 1.084m601.014-16.624c0 1.626.903 3.433 1.807 3.975 1.084.542 1.807 3.434 1.807 6.325s1.265 6.324 2.71 7.95c1.446 1.446 2.71 3.795 2.71 5.422 0 1.445 1.085 3.794 2.35 5.06 1.445 1.264 3.072 4.698 3.794 7.408.543 2.71 1.988 4.88 2.892 4.88 1.084 0 1.807.903 1.807 2.168 0 3.252 15.72 17.528 20.6 18.792 4.879 1.085 18.793-5.24 20.42-9.396 1.445-3.614-.904-5.421-3.434-2.891-1.265 1.265-7.048 2.168-13.192 2.168-10.119 0-11.565-.542-16.986-5.963-3.433-3.072-6.866-7.95-7.77-10.842-1.084-2.71-2.53-4.879-3.433-4.879s-1.626-1.988-1.626-4.337-1.265-5.24-2.71-6.505c-1.447-1.265-2.711-3.795-2.711-5.602s-1.988-6.324-4.518-9.938-4.517-5.421-4.517-3.795m-172.932-38.851c-8.312 7.228-9.396 9.396-5.06 9.396 1.446 0 2.711-.722 2.711-1.626s3.614-3.975 8.132-6.867c8.493-5.42 10.119-7.77 5.06-7.77-1.808 0-6.687 3.072-10.843 6.867m47.705-21.865c-7.228 1.988 0 4.156 13.734 4.156 10.119.18 15.901.904 18.25 2.71 1.988 1.446 5.422 2.711 7.59 2.711s4.879 1.265 6.144 2.71 3.072 2.711 3.975 2.711c3.434 0 12.288 8.132 19.697 18.251 7.77 10.842 10.661 13.01 10.661 7.77 0-6.324-23.31-31.442-29.093-31.442-1.626 0-3.975-1.265-5.24-2.71s-3.614-2.71-5.421-2.71-6.144-1.266-9.577-2.711c-6.144-2.53-23.31-3.434-30.72-1.446m17.71-35.237c-3.976.904-9.578 2.891-12.289 4.337-2.89 1.446-7.408 2.53-10.3 2.53s-6.324 1.265-7.95 2.71c-1.446 1.446-4.699 2.711-7.048 2.711-2.53 0-5.42 1.265-6.686 2.71s-3.614 2.711-5.42 2.711c-1.808 0-4.157 1.265-5.422 2.71s-3.252 2.711-4.337 2.711c-2.891 0-20.238 17.709-18.793 19.154 1.446 1.265 10.481-4.517 10.481-6.685 0-.904 1.084-1.627 2.53-1.627s2.891-1.265 3.614-2.71c.542-1.446 2.168-2.71 3.433-2.71 1.446 0 3.434-1.085 4.518-2.35 3.072-3.614 24.214-13.553 31.623-14.818 3.614-.542 6.686-1.807 6.686-2.71 0-1.084 8.854-1.807 21.142-1.807 18.793 0 23.31.723 38.67 5.602 13.733 4.337 18.973 7.047 24.756 12.649 4.156 3.795 7.95 7.047 8.493 7.047 2.168 0 .723-7.409-1.807-8.312-1.446-.723-2.71-1.988-2.71-3.253 0-2.349-12.83-11.745-20.781-15.179-5.06-2.349-36.683-7.77-42.465-7.408-1.446.18-5.963 1.084-9.939 1.987m-78.606-50.958c0 12.107-.723 17.528-2.891 20.962-4.156 6.144-1.807 7.77 3.433 2.349 7.59-7.59 9.577-16.263 6.505-28.19-4.156-16.263-7.047-14.456-7.047 4.88m-65.053-77.16c0 2.35 1.265 5.783 2.71 7.771 1.446 1.807 2.711 5.06 2.711 7.228 0 1.988 1.265 5.24 2.71 7.228 1.447 1.807 2.711 5.24 2.711 7.228 0 2.169 1.085 4.88 2.53 5.963 1.265 1.084 2.892 4.699 3.614 7.77.904 4.518 1.627 5.24 3.434 3.434 1.626-1.627 1.445-3.253-1.085-7.59-1.626-3.072-3.071-6.686-3.071-8.312 0-1.446-1.085-4.879-2.35-7.409-4.879-9.577-8.131-17.708-9.215-22.587-1.446-5.964-4.699-6.506-4.699-.723m27.286-18.25c.181 3.253.904 7.95 1.627 10.48 1.084 3.615 1.445 2.53 1.626-4.878.18-5.06-.542-9.939-1.626-10.481-1.085-.723-1.807 1.265-1.627 4.879m-285.689-29.997c0 1.807 7.95 9.758 9.758 9.758.903 0 3.072 1.085 4.517 2.53 2.53 1.988 10.481 6.505 30.358 17.167 5.06 2.71 36.863 17.528 43.91 20.6 3.434 1.445 11.204 4.879 17.168 7.59 19.335 8.673 25.117 11.203 33.43 14.275 4.517 1.807 10.66 4.337 13.552 5.42 3.072 1.266 10.3 3.796 16.263 5.603 5.963 1.626 12.65 3.794 14.998 4.698 2.35.903 5.783 1.626 7.951 1.626 8.132 0-13.914-11.745-31.984-17.167-15.902-4.517-42.465-15.54-51.5-20.961-1.446-.903-3.975-2.168-5.421-2.71s-9.939-4.518-18.974-8.855c-26.201-12.468-77.34-37.405-80.773-39.212-1.807-.904-3.253-1.084-3.253-.361m236.72-16.986c.18 3.253 1.264 7.951 2.71 10.481s2.53 6.686 2.71 9.216c0 2.53 1.265 6.144 2.71 8.132 1.446 1.807 2.711 5.24 2.711 7.408s1.265 6.144 2.71 9.035c1.446 2.71 3.073 7.228 3.615 9.939.542 2.891 1.807 5.06 2.71 5.06 2.71 0 2.169-11.385-.722-15.36-1.265-1.988-2.892-6.144-3.253-9.035-1.084-5.783-4.156-14.818-7.951-23.491-1.265-3.072-2.891-8.132-3.433-11.385-.723-3.071-1.988-5.782-2.892-5.782s-1.626 2.71-1.626 5.782M291.9 327.636c-.543 2.53-2.169 4.879-3.614 5.421-1.446.542-2.53 2.168-2.53 3.433 0 1.446-1.265 3.614-2.71 4.88s-2.711 4.155-2.711 6.504-.723 4.337-1.807 4.337c-.904 0-2.35 2.169-2.892 4.88-.722 2.89-2.168 6.324-3.433 7.77s-2.71 4.336-3.253 6.324-2.71 8.132-4.879 13.553c-2.168 5.42-4.517 12.83-5.24 16.263s-2.349 9.215-3.433 12.649c-4.88 15.72-7.59 34.875-7.59 52.403 0 19.697 2.169 28.551 4.337 18.07.542-3.252 1.084-10.119 1.084-15.178 0-13.01 10.12-59.451 18.432-83.304.903-3.072 2.349-7.95 3.072-10.842.723-3.072 2.349-7.228 3.433-9.397 1.265-2.168 2.169-5.42 2.169-7.408s1.265-4.518 2.71-5.783 2.71-3.614 2.71-5.42 1.266-4.157 2.711-5.422c1.446-1.265 2.71-3.433 2.71-4.879s1.266-3.794 2.711-5.24c3.072-3.072 3.614-7.95.904-7.95-.904 0-2.169 1.987-2.891 4.336m494.58-13.914c-.18 3.252.723 5.963 1.626 5.963 2.169 0 2.169-3.072 0-8.132-1.265-3.072-1.626-2.71-1.626 2.169m47.163 21.684c.361 22.046 1.084 29.816 3.072 31.623 1.988 1.988 2.349-1.988 1.265-26.383-1.627-39.393-4.88-43.549-4.337-5.24m55.656-38.49c0 1.446.904 3.253 1.807 3.795 1.084.542 1.807 2.53 1.807 4.337s1.265 4.337 2.71 5.602 2.711 4.156 2.711 6.324 1.265 5.06 2.71 6.325 2.711 4.518 2.711 7.047c0 2.711 1.265 6.506 2.71 8.493 1.446 1.807 2.711 5.06 2.711 7.228 0 1.988 1.265 5.24 2.71 7.228 1.446 1.808 2.711 5.602 2.711 8.132s1.265 6.144 2.71 8.132c1.446 1.807 2.711 4.879 2.711 6.686 0 1.987 1.085 5.601 2.53 8.131 1.446 2.71 3.072 6.144 3.795 7.59 4.337 10.661 17.709 26.382 31.623 37.043 5.782 4.518 11.384 8.132 12.287 8.132s2.71 1.265 3.976 2.71c1.265 1.446 3.795 2.711 5.602 2.711 1.987 0 3.433.723 3.433 1.807 0 .904 1.807 1.807 3.975 1.807 3.072 0 2.169-1.084-4.337-5.42-21.142-14.096-52.042-45.538-52.042-52.947 0-1.445-1.264-3.614-2.71-4.878s-2.71-3.976-2.71-6.144c0-1.988-1.266-5.421-2.711-7.228-1.446-1.988-2.71-5.421-2.71-7.59s-1.266-4.879-2.711-6.144c-1.446-1.265-2.71-4.879-2.71-8.131s-1.266-6.867-2.711-8.132-2.71-4.517-2.71-7.047c0-2.71-1.266-6.505-2.711-8.493-1.446-1.807-2.71-5.24-2.71-7.228 0-2.169-1.266-4.88-2.711-6.144-1.446-1.265-2.71-3.614-2.71-5.421 0-3.072-5.603-10.842-7.952-10.842-.542 0-1.084 1.084-1.084 2.53M670.651 292.4c0 1.988.723 3.975 1.626 4.698 1.085.542 3.795 5.24 6.506 10.481 5.601 11.384 7.59 14.637 14.094 23.13 2.71 3.614 4.88 7.228 4.88 7.95 0 1.988 14.275 19.516 30.177 37.225 5.24 5.783 11.384 12.65 13.552 15.36 8.855 10.12 12.107 13.191 29.274 27.647 9.758 8.132 18.793 15.721 20.058 16.986s7.228 6.867 13.372 12.83c6.143 5.782 11.564 10.12 12.107 9.577 1.084-1.084-11.565-19.154-17.167-24.575-1.626-1.627-7.047-6.144-11.746-10.12-4.879-3.975-11.745-9.577-15.36-12.649-7.408-6.144-40.115-38.85-47.343-46.982-7.409-8.674-32.346-42.104-32.346-43.55 0-.541-2.168-4.155-4.879-7.77-6.866-8.854-9.215-12.83-11.565-18.792-2.349-5.602-5.24-6.506-5.24-1.446m-4.156-11.384c-1.446 1.445.542 6.144 2.53 6.144s2.168-4.88 0-6.144c-.723-.542-1.988-.542-2.53 0m78.424-23.672c-2.349 2.53-3.794 5.06-3.252 5.782 1.265 1.085 10.3-6.686 10.3-9.035 0-2.53-2.71-1.265-7.048 3.253m373.872-11.926c-7.95 8.854-14.275 18.25-17.347 25.84-3.614 9.035-6.506 10.842-9.577 5.421-1.085-1.626-1.988-2.35-1.988-1.446 0 3.614 4.337 16.625 6.686 19.335 1.265 1.446 2.349 4.337 2.349 6.325s1.265 5.24 2.71 7.228c1.446 1.807 2.71 4.88 2.71 6.505s1.085 5.24 2.53 8.132q7.861 16.263 8.674 21.142c.362 1.988 1.627 3.795 2.892 4.337 4.879 1.626 1.807-15.902-5.24-28.551-8.132-14.637-9.759-19.696-9.578-29.816 0-8.854 1.084-12.83 5.963-21.684 3.434-5.963 7.228-12.107 8.493-13.733 1.446-1.446 2.53-3.614 2.53-4.699s1.265-2.349 2.71-3.071c3.253-1.265 3.615-4.699.543-4.518-1.265 0-3.614 1.446-5.06 3.253m-279.003-4.337c-.542 1.626-1.084 5.602-1.084 8.854s-1.085 8.312-2.53 11.204c-1.807 3.614-2.35 7.77-1.446 13.372 1.084 7.77 1.084 7.95 2.35 2.71.722-3.072 1.264-8.493 1.445-12.288 0-3.614.903-6.686 1.807-6.686 2.53 0 4.337-13.733 2.349-17.347-1.446-2.71-1.626-2.71-2.891.18m-83.846.903c-4.337 5.602-5.06 9.035-2.168 9.035.903 0 2.168-1.987 2.891-4.336.542-2.35 2.71-4.699 4.698-5.24 1.988-.543 3.072-1.808 2.35-2.892-1.808-3.072-3.615-2.35-7.77 3.433m-115.83-34.875c-.18 11.023-.903 13.733-4.878 18.431-2.53 3.072-6.506 5.602-8.493 5.602-2.169 0-7.228 1.807-11.204 4.156-6.686 3.795-7.228 4.699-7.59 12.107-.18 7.048 0 7.41.904 2.169 1.446-7.048 10.12-13.01 18.974-13.01 3.433-.181 7.95-1.988 11.203-4.518 5.06-4.156 5.421-5.24 4.88-14.818-.181-5.782-1.266-13.372-1.988-16.805-1.446-5.421-1.627-4.518-1.807 6.686m105.35-22.769c-.543.904 1.084 1.627 3.614 1.627 5.601 0 6.143-1.084 1.084-2.35-1.988-.541-4.156-.18-4.698.723m-108.24-1.987c1.445 4.517 7.227 10.842 9.938 10.842 1.084 0 1.807.903 1.807 1.988s2.53 5.06 5.42 8.854c3.073 3.795 5.422 7.77 5.422 8.854s.904 1.988 1.807 1.988c1.084 0 2.53 1.626 3.253 3.433 3.433 9.578 34.875 41.562 46.26 47.344 6.866 3.434 9.396 3.614 18.612 2.35l10.48-1.446-12.287-1.265c-18.974-2.169-27.829-9.758-62.343-55.295-12.649-16.624-24.394-30.538-26.201-30.9-2.71-.542-3.253 0-2.169 3.253m80.412-9.035c0 .903 2.168 2.168 5.06 2.71 2.71.723 7.047 2.35 9.757 3.795 5.421 2.891 8.674 3.253 8.674.723 0-.904-2.169-2.35-4.88-2.891-2.71-.723-6.143-2.35-7.408-3.795-2.891-2.71-11.203-3.253-11.203-.542m190.64-11.023c-.542 1.084-6.506 4.337-13.191 7.59-26.925 13.19-42.104 16.805-56.38 13.552-5.24-1.265-10.119-3.253-10.48-4.337-.361-1.265-1.446-2.168-2.53-2.168s-3.072-1.446-4.337-3.072c-1.265-1.807-2.891-2.53-3.614-1.807-.903.723 1.988 4.517 6.325 8.312 7.047 6.325 8.854 7.047 20.6 7.951 22.045 1.626 40.477-3.433 54.21-14.637 5.24-4.517 5.06 1.265-.542 10.12-2.891 4.878-5.421 10.119-5.421 11.564 0 1.627-1.265 3.795-2.71 5.06s-2.711 3.975-2.711 6.144c0 1.988-1.265 5.42-2.71 7.228-1.446 1.988-2.711 5.06-2.711 6.686 0 1.807-1.084 5.42-2.53 8.312-3.433 7.047-6.505 16.444-8.493 25.48-.903 4.155-2.349 9.215-3.433 11.022-.904 1.988-1.807 6.686-1.807 10.48s-1.265 11.385-2.71 16.806c-2.892 10.842-3.615 31.984-1.085 35.779 1.807 3.072 3.795-7.228 3.795-21.323 0-5.421 1.265-11.926 2.71-14.456s2.53-7.409 2.71-10.842c0-3.434 1.085-9.939 2.53-14.456 1.446-4.518 3.976-13.01 5.602-18.974 1.807-5.963 4.157-13.733 5.422-17.167 1.264-3.433 3.252-9.216 4.517-12.649 1.084-3.433 2.53-8.312 3.072-10.842s1.988-5.602 2.891-7.047c2.53-3.072 5.963-9.035 8.312-14.095.904-1.988 2.711-4.337 3.615-5.06 1.084-.542 1.987-2.349 1.987-3.794 0-1.627 1.988-5.422 4.518-8.674s3.975-6.505 3.252-7.048c-1.807-1.807-7.408-1.445-8.673.362m-104.084-9.397c-1.085 2.892-2.35 18.432-2.892 34.876-.542 22.045-1.626 31.803-3.794 37.044-3.976 9.577-9.216 16.805-13.372 18.25-4.337 1.265-2.35 4.337 3.072 4.337 5.42 0 13.914-9.577 16.624-18.973 1.084-3.976 2.891-18.07 3.795-31.262 1.446-19.877 2.168-24.394 4.879-26.382 2.891-1.988 3.072-3.253 1.445-7.59-1.084-2.89-2.53-7.408-3.071-10.3-.723-2.71-1.988-4.879-2.892-4.879-1.084 0-2.71 2.169-3.794 4.88m-225.697-7.228c-4.517.542-8.854 1.446-9.758 2.53-1.084.904-7.59 1.626-14.456 1.626-7.77 0-14.817 1.085-18.07 2.711-2.71 1.446-8.312 2.71-12.288 2.71-3.975 0-8.854.904-11.022 2.169-2.169 1.084-6.867 2.71-10.3 3.433-7.77 1.627-17.348 4.88-24.034 8.132-2.891 1.445-6.686 2.53-8.493 2.53-1.626 0-4.156 1.265-5.42 2.71-1.266 1.446-3.434 2.71-4.88 2.71s-4.879 1.085-7.408 2.53c-2.711 1.446-6.144 3.072-7.59 3.615-1.446.542-3.975 1.807-5.421 2.71-1.446.904-3.975 2.169-5.421 2.891-7.409 3.072-41.923 28.19-40.658 29.635 1.265 1.265 19.155-8.673 22.588-12.649.542-.542 4.517-2.71 9.035-5.06 4.517-2.168 10.661-5.601 13.553-7.589 3.071-1.807 6.686-3.795 8.131-4.517 1.446-.542 3.976-1.807 5.421-2.71 1.446-.904 3.976-2.17 5.421-2.711s5.421-2.169 8.674-3.614c19.335-8.493 28.009-11.385 37.947-13.553 4.156-.904 9.216-2.35 11.023-3.433 1.988-.904 5.782-1.807 8.674-1.807 2.71 0 7.408-1.265 10.3-2.71 2.71-1.447 9.215-2.711 14.456-2.711 5.06 0 13.733-1.265 19.154-2.71 13.372-3.615 56.018-3.615 65.956 0 3.976 1.445 10.842 2.529 15.36 2.71 4.517 0 9.758 1.264 11.565 2.71 1.988 1.446 6.144 2.71 9.396 2.71 3.072 0 8.674 1.265 12.107 2.711 3.614 1.446 8.855 2.71 11.565 2.71s6.686 1.266 8.493 2.711c3.976 2.891 13.734 3.614 13.734 1.084 0-1.987-4.518-3.794-9.578-3.794-2.168 0-5.601-1.265-7.408-2.71-1.988-1.447-5.421-2.711-7.59-2.711s-6.324-1.265-9.035-2.71c-2.891-1.447-8.312-2.711-12.107-2.711s-8.674-.904-10.842-2.169c-2.169-1.084-8.674-2.71-14.818-3.433-5.963-.723-14.817-2.169-19.877-3.253-8.854-1.807-29.996-1.988-46.079-.723m338.816-24.756c4.879 2.169 6.324 2.169 6.324 0 0-1.084-2.168-1.807-4.879-1.626-4.517 0-4.698.18-1.445 1.626m-16.263-5.42c4.879 2.168 6.324 2.168 6.324 0 0-1.085-2.168-1.808-4.879-1.627-4.517 0-4.698.18-1.445 1.626m-17.167-5.422c6.505 1.988 9.035 1.988 9.035 0 0-1.084-3.072-1.807-6.686-1.626-6.144.18-6.324.361-2.349 1.626m-21.684-7.409c0 1.627 11.023 3.976 12.468 2.71 1.265-1.083-.361-1.987-6.505-3.071-3.253-.723-5.963-.542-5.963.361m-14.818-3.975c2.169.361 5.421.361 7.228 0 1.627-.542-.18-.904-4.156-.723-3.975 0-5.42.362-3.072.723m74.45-6.867c0 2.169.903 3.795 1.806 3.795 1.085 0 1.807 1.988 1.807 4.337s1.085 5.24 2.53 6.324c1.446 1.265 3.072 4.157 3.614 6.506.723 2.53 1.988 4.517 2.891 4.517 1.085 0 1.807 1.265 1.807 2.71 0 2.53-1.987 3.434-6.685 2.892-1.265-.18-2.35.542-2.35 1.626 0 .904 1.627 1.807 3.434 1.807 1.987 0 4.156.723 4.698 1.807.542.904 2.349 1.807 3.795 1.807 5.06 0 3.072-9.577-4.88-23.49-.903-1.447-2.348-4.518-3.433-6.868-.903-2.168-2.53-3.975-3.614-3.975-.903 0-1.807-1.084-1.807-2.53s-.722-3.252-1.807-3.795c-.903-.542-1.807.543-1.807 2.53M777.264 80.797c0 2.169 6.144 3.976 13.733 3.976 3.253 0 8.132 1.265 10.842 2.71 2.892 1.446 8.132 2.711 11.746 2.711 3.433 0 7.047.723 8.132 1.626 2.53 2.71 16.986 4.699 16.986 2.35 0-1.988-5.964-3.976-12.107-3.976-2.169 0-4.157-.904-4.518-2.168-.361-1.085-5.602-2.35-11.565-2.892-5.782-.542-11.203-1.626-11.926-2.71-1.446-2.53-21.323-4.156-21.323-1.627m-53.126-10.842c-1.084 1.807 8.493 3.976 19.154 3.976 3.614 0 6.867.903 7.228 2.168.904 2.71 24.937 4.518 24.937 1.807s-4.698-3.975-15.179-3.975c-5.24 0-10.12-.723-11.023-1.627-2.71-2.53-23.672-4.517-25.117-2.349m-158.656-5.601c-7.951 1.987-1.988 4.156 11.926 4.156 16.625 0 26.383-1.446 26.383-3.795 0-1.626-32.527-1.988-38.31-.361M499.888 35.26c-3.975.361-12.468 1.265-18.793 1.807-8.131.722-10.842 1.626-8.854 2.71 2.168 1.265 98.482 1.084 117.094-.18 4.337-.362 4.337-.362-.903-1.988-5.783-1.627-76.256-3.614-88.544-2.35m306.29-3.253c0 2.168 31.803 38.67 36.862 42.465 3.795 2.71 4.699 2.891 4.699.723 0-3.614-8.674-14.095-25.299-30.72-13.371-13.371-16.263-15.54-16.263-12.468M620.054 5.083c0 1.808 6.144 3.795 12.649 3.795 2.53 0 6.144 1.265 7.95 2.71 1.988 1.446 5.783 2.711 8.313 2.711s6.324 1.265 8.312 2.71c1.807 1.446 5.421 2.711 7.951 2.711s6.144 1.265 7.95 2.71c1.989 1.446 5.06 2.711 6.687 2.711 1.807 0 5.42 1.265 8.312 2.53 2.71 1.446 6.325 3.072 7.77 3.614s3.976 1.807 5.421 2.71c7.41 4.699 37.225 17.71 38.49 16.987 2.891-1.807-5.783-8.855-18.07-14.637-6.686-3.433-14.637-7.228-17.348-8.674-2.891-1.445-6.324-2.53-7.59-2.53s-4.697-1.084-7.589-2.53c-7.047-3.433-16.624-6.685-23.13-7.95-2.89-.362-7.047-1.988-9.035-3.253-1.987-1.446-6.324-2.53-9.938-2.53-3.433 0-7.951-1.265-9.758-2.71-3.795-2.892-17.347-3.795-17.347-1.085m-20.6-5.601c-1.085 1.807 14.817 4.879 16.624 3.252 1.627-1.626 0-2.349-7.95-3.794-4.337-.542-7.952-.362-8.674.542m-22.227-3.795c2.71.361 6.686.361 9.035 0 2.169-.361 0-.723-5.06-.723-4.878 0-6.866.362-3.975.723m22.046-21.865c43.73 6.686 78.967 14.637 106.614 24.395 7.95 2.71 19.696 6.324 25.84 7.95 10.48 2.711 11.927 2.711 15.902 0 6.325-3.975 6.144-17.166-.18-24.755-10.3-12.288-1.446-13.01 22.587-1.627 10.48 4.88 31.803 19.516 59.632 41.02 30.538 23.49 36.501 26.924 41.38 24.214 4.518-2.35 11.023-11.385 11.023-15.18 0-1.626.723-2.89 1.626-2.89 2.71 0 8.132 9.034 14.637 24.394 6.505 15.54 9.758 20.239 15.36 22.769 4.879 2.168 9.396 5.06 17.347 11.022 3.614 2.892 7.228 5.06 7.77 5.06 3.253 0 45.537 34.153 59.451 47.886 15.54 15.721 31.261 35.417 38.128 47.886 7.59 13.733 16.986 27.286 18.07 25.66 1.085-1.988-5.24-17.71-7.77-19.155-2.349-1.446-3.795-13.914-1.988-17.167.723-1.626 5.24-4.879 9.939-7.228 8.493-4.156 19.877-14.275 23.853-20.961 2.53-4.518 2.71-3.795 6.686 21.684 3.614 22.95 8.312 32.165 18.612 36.502 5.602 2.168 8.854 2.349 22.046.542 8.493-1.265 20.057-3.253 25.478-4.518 23.853-5.601 45.176-5.24 45.176 1.085 0 1.807-2.169 4.698-4.88 6.505-23.129 14.817-37.224 40.296-46.259 83.665-6.505 30.358-7.228 41.742-5.06 78.063 1.085 19.154 2.35 39.754 2.711 45.717s2.71 20.962 5.421 33.25c5.06 24.575 4.337 29.273-3.252 21.142-9.216-10.12-15.721-11.927-43.73-11.927-34.695 0-71.016 1.988-66.68 3.795 1.989.723 23.853 1.446 48.429 1.446 51.5.18 52.584.542 59.45 16.263 8.494 19.154 10.843 37.947 10.843 85.11.18 47.705-1.265 58.186-11.384 80.412-7.228 16.083-8.855 21.504-9.939 34.334-1.265 16.986-3.795 24.214-21.142 60.535-22.407 46.802-56.198 89.266-93.423 116.733-29.454 21.865-43.549 26.383-69.028 22.407-25.66-3.975-34.875 1.446-60.896 35.96-16.625 22.045-26.202 31.622-35.056 35.417-8.493 3.614-13.372 1.265-21.685-9.758-11.926-15.72-16.443-26.744-26.563-65.233-3.252-12.107-9.035-53.85-9.035-65.595 0-27.105 15.18-113.119 23.853-134.984 16.624-41.923 24.395-80.412 21.323-107.337-1.988-16.805-3.795-22.587-13.01-42.103-4.338-9.035-7.229-12.288-14.276-16.805-5.602-3.434-11.204-9.035-14.999-14.818-12.287-18.973-27.105-29.454-52.584-37.044-24.937-7.59-41.561-9.577-79.87-9.577-43.368 0-71.377 3.976-103.542 14.998-11.023 3.614-30.177 13.914-35.598 18.793-5.783 5.421-11.384 5.421-11.384 0 0-5.42 4.517-26.02 7.59-33.79 3.433-9.578 13.01-21.324 22.225-27.829 4.518-3.252 10.12-8.673 12.65-11.926l4.336-5.963-3.433-6.506c-5.782-10.842-16.444-16.263-43.368-21.684-29.635-6.144-37.948-8.131-37.948-9.216 0-.542 4.157-4.336 9.035-8.673 12.288-10.48 15.36-18.251 12.65-30.177-1.265-5.06-1.807-11.385-1.446-14.456l.542-5.422 13.553.543c13.01.542 13.733.36 19.515-4.88 7.41-6.866 9.758-6.866 17.89-.722 11.565 8.854 32.526 16.805 44.091 16.805 9.577 0 11.204-.542 16.625-5.963 8.312-8.493 10.842-17.89 7.77-28.37-1.446-4.518-4.156-11.384-6.144-15.36-3.433-6.686-3.614-6.867-4.337-2.71l-.542 4.517-26.202.18c-69.57.362-140.947 19.697-161.366 43.911-8.132 9.578-9.758 18.432-6.144 32.527 4.156 15.901 3.975 17.708-2.169 20.961-7.95 3.975-11.022 9.577-11.022 20.058 0 12.649-2.169 14.095-17.89 12.649-13.914-1.446-24.575 1.626-32.887 9.035-2.53 2.35-5.421 4.337-6.686 4.337-2.53 0-2.892-7.59-.543-10.12 4.88-4.878 14.637-26.563 14.637-32.164 0-3.434 1.265-7.41 2.71-9.035 1.446-1.446 2.711-3.434 2.711-4.337 0-1.084 1.265-2.35 2.892-2.891 1.445-.543 2.168-1.988 1.626-2.892-1.807-3.072-8.674 4.337-28.551 30.72-18.974 25.117-26.021 35.236-33.25 47.886-5.962 10.119-18.611 36.863-18.611 38.85 0 .904-1.085 4.337-2.53 7.59-3.253 7.409-7.59 24.033-10.3 39.754-2.53 13.372 0 46.26 4.517 60.174 1.446 3.975 3.434 10.48 4.699 14.456 3.614 12.288 9.396 23.13 17.89 34.333 17.166 22.588 30.899 32.707 46.078 34.514 9.397 1.085 9.939.904 16.082-5.24 12.65-12.468 18.793-16.082 44.634-25.66 14.998-5.601 35.417-14.275 37.947-16.263 1.446-1.265 3.976-2.71 5.421-3.433 3.976-1.807 7.951-4.337 28.009-17.528 9.938-6.505 20.961-13.553 24.395-15.54 14.817-9.036 18.612-18.07 16.443-39.574-1.626-14.998.904-16.625 10.3-7.409 5.964 5.963 6.686 7.77 7.77 19.154.723 9.216 2.711 15.721 7.59 25.48 8.493 16.262 8.674 24.936 1.626 39.573-4.698 9.396-7.047 18.612-10.48 41.561-1.446 9.578-10.12 19.878-25.66 30.178-17.89 11.926-26.021 19.154-28.55 25.298-3.434 8.131-8.494 9.035-29.455 5.42-22.588-3.794-28.009-3.794-37.405 1.085-11.927 5.963-15.902 16.444-10.842 28.732 4.878 11.745 20.6 21.503 34.152 21.503 8.132 0 10.3 2.71 10.3 13.01 0 11.746 5.06 19.336 23.672 35.237 8.312 7.048 20.42 18.251 26.744 24.576 9.577 9.938 11.745 13.191 13.733 21.684 1.446 6.505 5.963 15.721 12.65 25.84 13.01 19.697 13.913 27.648 4.878 45.356-3.252 6.144-5.782 12.83-5.782 14.818s-1.265 9.758-3.072 17.347c-2.35 11.384-3.976 14.637-9.035 18.974-6.144 5.602-12.107 6.867-14.095 3.433-.723-.903 0-3.252 1.626-5.06 1.988-2.168 2.892-6.505 2.892-13.552 0-12.288-5.783-24.937-14.818-32.888-6.144-5.24-22.768-14.094-37.586-19.696-32.526-12.288-55.295-30.9-82.942-67.763-24.575-32.527-43.549-68.125-43.549-81.497 0-7.047-1.084-8.493-22.95-30.177-21.864-21.684-23.671-24.033-32.887-42.826-5.42-11.023-10.842-22.407-12.107-25.298-1.084-3.072-3.433-8.313-4.879-11.746s-3.975-9.577-5.42-13.553c-1.446-3.975-3.976-10.661-5.603-14.998-1.626-4.156-4.156-11.023-5.782-15.36-1.626-4.156-3.975-10.3-5.421-13.552-1.446-3.253-2.53-7.77-2.53-9.939 0-2.168-1.084-9.215-2.71-15.72-1.446-6.506-3.976-18.252-5.602-26.202s-3.976-19.516-5.421-25.66-2.53-14.637-2.53-18.974c-.18-4.337-1.265-11.023-2.71-14.998s-2.711-11.384-2.711-16.625c0-5.06-.723-9.757-1.626-10.48-2.71-1.627-4.337 5.963-3.072 14.094.542 4.157.361 8.674-.362 9.94-1.987 3.071-30.9 20.238-33.972 20.238-1.626 0-1.807-1.446-.722-5.783 3.072-10.119-3.976-20.419-26.021-38.309-9.758-7.95-19.155-21.322-19.155-27.647 0-5.06-.542-5.06 11.023-.542 8.854 3.614 9.758 3.614 19.154.904 14.999-4.337 26.564-12.65 37.767-27.106 6.686-8.673 7.409-10.48 9.758-25.298 1.084-6.325 4.517-16.986 7.95-23.853 3.434-6.686 8.313-17.166 11.024-23.13 5.42-12.468 21.684-45.175 24.936-50.596 35.78-58.547 70.474-97.037 129.563-143.658 19.336-15.36 53.669-35.417 67.764-39.573 3.071-.904 9.938-3.434 15.36-5.602 5.42-1.988 13.19-4.337 16.985-5.06 13.914-2.53 8.674-7.408-7.95-7.59-9.94 0-11.566-1.083-14.999-9.034-5.421-12.83-18.432-19.877-36.682-19.877-14.095 0-46.08 7.59-54.753 12.83-2.71 1.806-4.156 1.987-5.782.36-3.614-3.613 16.805-21.864 32.707-29.815 13.914-6.686 24.575-9.939 49.692-15.179 7.951-1.626 18.974-3.975 24.576-5.42 5.42-1.447 11.746-2.53 13.733-2.53 6.325 0 20.058-7.048 21.323-11.024.723-1.987.18-4.878-1.084-6.324-3.072-3.795-13.553-7.95-19.697-7.95s-10.842-1.627-10.842-3.796c0-4.156 29.455-12.649 49.693-14.456 20.78-1.807 67.402-.18 88.544 3.072" style="stroke-width:.180702"/>
</svg>
