<svg xmlns="http://www.w3.org/2000/svg" width="1217" height="960">
    <path d="M474.303 613.233c-7.717 20.256 20.256 71.379 52.087 94.529 18.327 13.504 41.477 18.327 100.316 18.327 85.848.964 113.821-12.54 147.581-69.45 30.867-53.052 15.434-58.84-150.474-58.84-123.467 0-143.723 1.93-149.51 15.434m-10.61-122.502c-8.682 4.823-11.576 23.15-9.647 50.158l2.894 42.442 154.333 2.894c197.74 3.858 197.74 3.858 197.74-50.159 0-35.69-3.859-43.406-21.221-48.229-33.76-8.681-309.631-6.752-324.1 2.894m91.634-245.004c-4.822 9.646-19.291 14.469-49.193 14.469-36.654 0-46.3 4.823-72.344 33.76-16.398 19.292-29.902 44.371-29.902 55.946s-8.681 44.37-19.292 72.344c-31.83 81.99-21.22 214.137 17.363 214.137 13.504 0 15.433-25.08 1.93-33.76-13.505-7.717-12.54-81.025 1.928-120.573 5.788-18.327 23.15-50.159 37.619-71.38 14.469-22.185 27.008-48.228 28.937-58.839 2.894-14.469 12.54-20.256 40.513-22.185 41.477-3.859 44.37 5.787 13.504 37.618-35.69 36.655-57.875 74.273-51.123 90.671 3.858 11.575 29.902 14.469 148.546 14.469 161.085 0 175.554-4.823 151.44-51.123-7.718-14.469-27.01-39.548-42.443-55.946-23.15-23.15-29.902-37.618-31.83-79.095l-2.894-50.159-68.486-2.893c-54.98-1.93-70.414 0-74.273 12.54M451.153 18.086c-25.08 8.681-51.123 20.256-57.875 25.079-7.717 5.788-29.902 18.327-50.159 27.973-29.902 15.433-94.529 78.131-145.651 140.829-12.54 15.433-31.832 56.91-59.804 124.43-24.115 58.84-24.115 229.571 0 285.517 47.264 107.069 62.697 130.219 125.395 193.881 64.627 63.662 92.6 81.99 198.704 125.396 59.804 25.079 240.18 25.079 300.95 0 98.387-41.477 173.624-95.494 223.782-162.05 27.973-36.654 38.584-54.981 76.202-128.29 16.398-30.866 34.725-131.183 34.725-183.27 0-54.981-22.185-157.227-36.654-171.696-5.787-5.787-10.61-16.397-10.61-24.114 0-36.654-173.625-214.137-209.314-214.137-4.823 0-13.505-4.823-19.292-10.61-6.752-6.753-34.725-19.292-62.698-28.938-67.52-24.115-243.074-24.115-307.701 0m78.13 54.016c0 7.717-6.751 14.47-14.468 14.47s-14.469 6.751-14.469 14.468c0 16.398 20.256 19.292 34.725 4.823 9.646-9.646 84.883-30.867 151.44-42.442 20.256-3.858 51.122-3.858 67.52 0 27.009 5.788 28.938 7.717 11.575 14.469-10.61 3.858-33.76 7.717-50.158 7.717-38.583.964-41.477 17.362-4.823 25.079 99.352 21.22 169.766 41.477 172.66 50.158 1.93 5.787-8.681 13.504-23.15 17.362l-27.008 7.717 33.76 13.504c32.796 14.469 154.333 130.219 154.333 147.581 0 5.788-6.752 9.646-14.468 9.646s-14.469-4.823-14.469-9.646c0-5.787-6.752-9.646-14.469-9.646-16.398 0-20.256 24.115-4.823 33.76 16.398 9.647 48.23 93.565 48.23 126.361 0 17.363-5.788 35.69-13.505 39.548-11.575 6.752-22.185 46.3-42.441 161.085-7.717 43.406-30.867 59.804-30.867 21.22 0-27.972-17.362-43.405-24.114-21.22-12.54 38.583-22.186 55.946-67.521 116.714-34.725 46.3-62.698 71.38-80.06 72.344-8.682 0-6.753-8.681 6.752-27.973 19.291-27.008 26.043-49.193 14.468-49.193-2.893 0-19.291 10.61-35.69 22.185-76.201 55.946-161.084 82.954-161.084 50.158 0-11.575-13.505-14.469-66.557-14.469-111.891 0-163.978-18.327-94.529-33.76l30.867-6.752-28.937-10.61c-15.434-4.823-34.725-15.434-41.477-23.15-6.752-6.752-19.292-12.54-27.973-12.54-35.69 0-178.448-117.679-161.085-133.112 3.858-3.859 8.68-.965 10.61 4.823 2.894 6.752 8.681 12.54 14.469 12.54 4.823 0 15.433 6.751 23.15 14.468 16.398 16.398 42.441 19.292 42.441 5.787 0-4.822-17.362-27.972-38.583-50.158-21.22-23.15-38.583-46.3-38.583-53.052 0-5.787-6.752-16.398-14.469-23.15-18.327-15.433-19.292-57.875-.965-57.875 6.752 0 15.434 8.682 18.327 20.257s9.646 17.362 15.434 13.504c6.752-3.859 5.787-16.398-3.859-40.513-9.645-22.185-14.468-64.627-13.504-122.502.965-119.608 11.575-143.722 27.973-62.697 10.61 52.087 13.504 57.875 20.256 37.618 3.859-13.504 7.717-37.618 8.682-53.052 0-16.398 11.575-48.229 24.114-72.343s27.973-54.017 33.76-66.556c7.717-18.328 12.54-21.221 22.186-11.575 8.681 8.68 8.681 15.433-.965 29.902-5.787 10.61-11.575 27.008-11.575 35.69.965 16.397.965 16.397 10.61 0C372.058 166.63 492.63 59.562 517.71 58.597c5.787-.964 11.575 5.788 11.575 13.504M929.586 183.03c2.894 4.823-2.894 9.646-14.469 9.646s-17.362-4.823-14.468-9.646c2.893-5.787 9.646-9.645 14.468-9.645s11.575 3.858 14.47 9.645m108.033 411.877c-2.893 9.646-4.823 1.929-4.823-16.398s1.93-26.044 4.823-17.363c1.93 9.646 1.93 25.08 0 33.76m-674.242 231.5c-9.646 1.929-25.08 1.929-33.76 0-9.647-2.894-1.93-4.823 16.397-4.823s26.044 1.929 17.363 4.822" style="stroke-width:.964582"/>
</svg>
