<svg xmlns="http://www.w3.org/2000/svg" width="1606" height="960">
    <path d="M229.636-52.061c0 4.704 4.116 9.409 8.82 11.761 13.526 4.705 10.586 14.702-5.88 18.818l-15.29 3.529L232.577.865c8.233 9.997 17.642 24.11 20.583 31.167 2.94 7.645 10.585 13.526 17.053 13.526 18.819 0 29.992 6.469 29.992 17.642 0 5.88 4.116 13.525 8.82 17.642s8.822 13.525 8.822 20.582c0 7.645 4.116 14.702 8.82 17.054 4.705 1.764 8.822 8.233 8.822 14.114 0 6.468 4.116 14.701 8.82 18.818 5.293 4.116 7.646 12.349 5.881 18.23-2.352 7.056-.588 12.35 5.881 14.701 7.057 2.94 8.821 8.233 5.88 18.23-2.352 11.174-.587 15.29 8.822 17.642 12.937 3.529 15.29 13.526 5.292 23.523-4.704 4.705-1.764 8.82 9.997 14.114 9.41 4.704 18.23 14.701 19.995 22.934 2.352 11.173 7.644 15.29 22.934 16.466 14.702 1.764 18.23 4.116 15.878 11.173-5.293 12.35 7.057 25.287 23.523 25.287 8.232 0 17.642 5.88 22.934 14.114 5.88 9.409 12.938 12.937 20.582 11.173 7.057-1.764 12.938 1.764 17.642 9.997 5.293 9.409 11.174 12.35 26.463 11.173 12.35-1.176 24.111 1.764 31.168 8.233 12.35 11.761 25.287 12.938 34.696 3.529s12.937 0 14.113 45.869c1.176 48.81-1.764 55.866-22.934 51.161-32.932-8.233-125.258-55.866-162.895-84.681-54.69-41.165-167.598-178.184-167.598-202.883 0-12.35-11.173-17.054-15.29-5.88-2.352 5.292.588 19.406 5.293 31.167 15.29 34.108 18.818 65.863 8.233 65.863-18.818 0-115.85-131.726-122.318-167.598-1.176-5.881-5.88-11.762-9.997-13.526-16.466-5.292-3.529 70.568 19.406 116.437 4.116 8.233 9.409 25.875 11.761 39.4 4.705 31.168-4.116 36.46-35.284 21.759-11.173-5.293-22.346-8.233-24.11-6.469-8.233 8.233 107.616 101.148 146.428 117.025 14.114 5.881 12.35 14.702-2.94 19.995l-13.526 4.116 14.702 5.293c9.409 3.528 15.29 2.94 16.466-.588s6.468-6.47 11.761-6.47c8.821.589 8.821 1.177 0 6.47-19.994 11.173-14.702 15.29 62.923 48.81 9.997 4.115 27.64 12.348 39.989 17.641s25.874 9.409 30.579 9.409c4.704 0 17.054 3.529 27.64 8.233 26.462 10.585 74.095 24.11 132.902 36.46 26.463 5.293 48.221 12.938 48.221 16.466.588 5.88.588 206.999 0 215.82 0 2.352-6.469 5.88-14.701 7.645-8.233 2.352-14.702 5.88-14.702 8.233s8.82 19.994 19.406 39.4c25.287 45.87 34.696 45.87 61.159-2.352 20.582-37.636 20.582-44.693-1.176-48.81-11.173-1.764-11.762-6.468-11.762-110.556V565.996l28.816-1.764c24.698-1.764 28.227-.588 24.698 8.233-1.764 5.292-.588 13.525 3.529 18.23 5.88 7.057 4.704 10.585-6.469 19.406-9.409 6.469-11.761 11.761-7.057 14.114 9.41 5.88 8.233 24.698-2.94 35.283-12.35 12.938-5.293 21.17 14.702 17.642 44.105-8.82 59.394 22.935 59.394 121.142 0 69.98 0 71.156-14.701 76.448-15.29 5.881-19.995 27.64-8.821 38.813 3.528 3.528 11.173 15.29 17.054 26.463S797.12 960 803 960s15.29-8.821 21.17-19.994 13.526-22.935 17.054-26.463c11.173-11.173 6.469-32.932-8.82-38.813-14.702-5.292-14.702-6.468-14.702-76.448 0-98.207 15.29-129.963 59.394-121.142 19.994 3.529 27.051-4.704 14.702-17.642-11.173-10.585-12.35-29.403-2.94-35.283 4.704-2.353 2.352-7.645-7.057-14.114-11.173-8.821-12.35-12.35-6.469-19.406 4.117-4.705 5.293-12.938 3.528-18.23-3.528-8.821 0-9.997 24.7-8.233l28.814 1.764v108.792c0 104.088-.588 108.792-11.76 110.556-21.76 4.117-21.76 11.174-1.177 48.81 26.463 48.221 35.872 48.221 61.159 2.352 10.585-19.406 19.406-37.048 19.406-39.4s-6.469-5.88-14.702-8.233c-8.233-1.764-14.701-5.293-14.701-7.645-.588-8.821-.588-209.94 0-215.82 0-3.528 21.758-11.173 48.81-16.466 58.218-12.35 105.851-25.875 132.314-36.46 10.585-4.704 22.935-8.233 27.639-8.233s18.23-4.116 30.58-9.409 30.579-13.526 39.988-17.642c77.625-33.52 82.917-37.636 63.511-48.81-9.409-5.292-9.409-5.88-.588-6.468 5.293 0 10.585 2.94 11.761 6.468 1.177 3.529 7.057 4.117 16.466.589l14.702-5.293-13.526-4.116c-15.29-5.293-17.054-14.114-2.352-19.995 38.224-15.878 154.073-108.792 145.84-117.025-1.764-1.764-12.937 1.176-24.11 6.469-31.168 14.702-39.989 9.41-35.284-21.758 2.352-13.526 7.645-31.168 11.761-39.4 22.935-45.87 35.872-121.73 19.406-116.438-4.116 1.764-8.82 7.645-9.997 13.526-6.469 35.872-103.5 167.598-122.318 167.598-10.585 0-7.056-31.755 8.233-65.863 4.705-11.761 7.645-25.875 5.293-31.167-4.116-11.174-15.29-6.47-15.29 5.88 0 24.699-112.909 161.718-167.599 202.883-37.636 28.815-129.962 76.448-162.894 84.681-21.17 4.705-24.11-2.352-22.934-51.75 1.176-40.576 7.056-58.218 14.701-45.28 5.881 9.409 21.759 7.644 34.108-3.529 7.057-6.469 18.818-9.409 31.168-8.233 15.29 1.176 21.17-1.764 26.462-11.173 4.705-8.233 10.586-11.761 17.643-9.997 7.644 1.764 14.701-1.764 20.582-11.173 5.292-8.233 14.702-14.114 22.934-14.114 16.466 0 28.816-12.937 23.523-25.287-2.352-7.057 1.176-9.409 15.878-11.173 15.29-1.176 20.582-5.293 22.934-16.466 1.765-8.233 10.586-18.23 19.995-22.935 11.76-5.292 14.701-9.409 9.997-14.113-9.997-9.997-7.645-19.994 5.292-23.523 9.41-2.352 11.174-6.468 8.821-17.642-2.94-9.997-1.176-15.29 5.881-18.23 6.469-2.352 8.233-7.645 5.88-14.701-1.764-5.881.589-14.114 5.881-18.23 4.705-4.117 8.821-12.35 8.821-18.818 0-5.881 4.117-12.35 8.821-14.114 4.705-2.352 8.821-9.997 8.821-17.642 0-8.233 4.117-15.878 8.821-17.642 4.705-2.352 8.821-9.41 8.821-17.054 0-13.525 9.997-20.582 29.991-20.582 6.47 0 14.114-5.88 17.054-13.526 2.94-7.057 12.35-21.17 21.17-31.755l15.29-18.818-15.29-4.117c-17.053-4.116-19.993-12.937-6.468-17.642 4.705-2.352 8.821-7.645 8.821-12.35 0-9.408-16.466-8.82-49.986 2.941-52.925 18.23-81.74 24.11-92.326 18.23-11.761-6.469-43.517-1.176-95.855 15.29-12.937 4.116-40.576 12.35-61.747 17.642-67.039 17.642-96.442 27.05-117.613 38.224l-20.582 10.585-2.94 54.69c-2.94 59.983-11.762 81.742-32.932 81.742-6.469 0-17.054-5.293-22.934-11.762-9.41-10.585-9.998-15.29-2.94-48.221 3.528-20.582 12.937-49.986 19.405-65.275 11.174-24.7 15.29-28.228 34.696-31.756 24.111-3.528 28.227-10.585 12.35-22.935-9.997-7.644-9.41-8.232 11.761-10.585 3.528 0 7.645-7.645 8.82-15.878 2.353-20.582-11.172-25.286-38.223-14.113-11.174 4.704-27.64 8.82-35.872 8.82-18.23 0-51.162 24.7-62.923 47.046-4.705 9.41-8.821 27.64-8.821 40.577s-2.94 30.58-5.881 39.4c-9.41 23.523-18.23 9.997-22.935-34.108-2.352-20.582-7.056-42.929-11.173-49.985-10.585-19.406-44.105-42.93-61.159-42.93-8.233 0-24.698-4.116-35.872-8.82-27.05-11.173-40.576-6.469-38.224 14.113 1.176 8.233 5.293 15.878 9.41 15.878 20.581 2.353 21.17 2.94 11.76 10.585-16.465 12.35-12.349 19.407 11.762 22.935 19.406 3.528 23.522 7.057 34.696 31.756 6.468 15.29 15.877 44.693 19.406 65.275 7.057 32.931 6.468 37.636-2.94 48.221-5.881 6.469-16.466 11.762-22.935 11.762-21.17 0-29.992-21.759-32.932-81.742l-2.94-54.69-20.582-10.585c-21.17-11.173-39.4-17.054-176.42-54.69-74.684-21.17-86.446-22.935-98.207-16.466-11.762 5.88-28.815 2.352-101.736-20.582-32.931-10.585-41.164-10.585-41.164 0m477.51 465.16c3.528 7.645 11.172 15.878 17.053 17.642 10.585 3.528 27.051 25.287 38.812 51.162 6.47 14.701 5.881 17.053-5.292 22.934-12.35 6.469-68.804 4.117-81.153-3.528-2.94-1.764-5.88-25.875-5.88-53.514 0-48.81 0-49.398 14.7-49.398 9.998 0 17.055 4.705 21.76 14.702m228.169 34.696c0 27.639-2.94 51.75-5.88 53.514-12.35 7.645-68.805 9.997-81.154 3.528-11.173-5.88-11.761-8.233-5.293-22.934 11.762-25.875 28.228-47.634 38.813-51.162 5.88-1.764 13.525-9.997 17.054-17.642 4.704-9.997 11.761-14.702 21.758-14.702 14.702 0 14.702.588 14.702 49.398" style="stroke-width:.588066"/>
</svg>
