<svg xmlns="http://www.w3.org/2000/svg" width="1461" height="960">
    <path d="M740.022 0v333.918a19.44 19.44 0 0 0 4.842 14.283c3.18 3.179 57.176 59.67 162.117 169.38 103.35 108.12 162.17 169.271 176.48 183.582a29.66 29.66 0 0 0 21.466 9.602h217.07c6.36 0 9.523-.83 9.523-2.42 1.59-1.59.01-4.752-4.761-9.523-15.9-15.9-53.255-54.087-112.086-114.506-112.89-117.66-180.448-187.63-202.707-209.89-22.26-23.85-54.043-57.628-95.382-101.353s-70.79-74.34-88.281-91.831a19.44 19.44 0 0 1-4.761-14.283v-81.1a14.02 14.02 0 0 0-7.182-11.942c-1.59-3.181-24.636-25.396-69.156-66.735zm-23.805 2.42-4.761 4.762c-47.7 46.11-73.158 70.737-76.338 73.917a13.74 13.74 0 0 0-4.761 9.522v85.86a16.18 16.18 0 0 1-4.761 11.943 71 71 0 0 0-7.182 9.522c-171.72 176.49-267.897 275.079-288.567 295.749-4.771 3.18-71.577 72.318-200.367 207.468l-2.34 2.42c-3.18 3.18-2.43 5.593 2.34 7.182h224.172a25.8 25.8 0 0 0 19.125-7.182c108.12-114.48 221.018-232.121 338.679-352.961a22.88 22.88 0 0 0 7.101-16.704V2.42zm176.48 145.414-2.42 2.42v52.453a14.02 14.02 0 0 0 7.182 11.943c0 1.59 1.58 3.587 4.76 5.971s4.762 4.381 4.762 5.972c124.02 125.61 217.035 220.206 279.045 283.806 38.16 39.749 66.03 68.37 83.52 85.86l19.044 9.522h45.35l7.102-2.34-7.101-7.182c-130.38-131.97-210.666-213.087-240.876-243.297-15.901-17.49-40.609-43.283-73.998-77.468-33.39-34.184-58.767-60.058-76.257-77.548zm-329.156 2.42-2.34 4.762-69.156 69.156c-50.88 52.47-173.345 177.267-367.326 374.427l-4.76 4.841h9.521a166.3 166.3 0 0 1 42.93 2.34 20.63 20.63 0 0 0 16.704-9.521C278.154 505.629 401.37 380 558.78 219.41a22.88 22.88 0 0 0 7.182-16.704v-45.27zM742.443 386.37a18.87 18.87 0 0 0-2.421 11.943v221.75a25.65 25.65 0 0 0 4.842 14.364c20.67 22.26 42.885 46.057 66.735 71.497a25.65 25.65 0 0 0 14.283 4.841h133.632c4.77 0 7.1-1.661 7.1-4.841v-81.019a19.44 19.44 0 0 0-4.76-14.363c-27.03-27.03-63.971-65.136-110.876-114.427-46.904-49.29-79.933-83.484-99.013-102.563-4.77-4.77-7.932-7.182-9.522-7.182m-32.198 2.42c-1.59.796-3.586 2.377-5.971 4.762-12.72 12.72-44.087 45.252-94.172 97.722s-88.687 92.237-115.717 119.268a16.18 16.18 0 0 0-4.76 11.943 674 674 0 0 1 2.42 78.678v2.42c0 4.77 1.58 7.182 4.761 7.182h133.551a19.43 19.43 0 0 0 14.283-4.841l66.816-71.496a16.18 16.18 0 0 0 4.76-11.943V398.313c0-6.36-.83-9.522-2.42-9.522-.795-.795-1.96-.795-3.55 0m-211.1 341.019c0 1.59 1.582 4.002 4.761 7.181l143.154 143.073c33.39 33.39 58.017 58.848 73.917 76.338a11.493 11.493 0 0 0 16.704 0 2.107 2.107 0 0 1 2.34-2.42c20.67-22.26 43.381-45.306 68.026-69.157a48131 48131 0 0 0 79.889-77.467c28.62-27.825 50.835-50.536 66.735-68.026l4.842-2.34v-7.183h-4.842z" style="stroke-width:41.3161"/>
</svg>
