<svg xmlns="http://www.w3.org/2000/svg" width="1398" height="960">
    <path d="M683.982 998.692c-1.673 4.462-2.231 17.847-1.116 29.558 1.673 18.962 3.346 21.75 15.616 21.75 12.826 0 13.942-1.673 13.942-27.884 0-24.539-1.673-27.885-12.827-29.558-7.25-1.115-13.385 1.673-15.615 6.134m97.596-8.923c-2.231 22.308 2.23 49.077 7.807 52.981 3.346 2.23 10.596 1.115 16.173-1.673 11.154-6.135 10.597-12.27-2.23-45.73-6.693-16.731-20.635-20.635-21.75-5.578m-186.27 3.347c-13.942 34.019-13.384 45.73 3.347 47.403 13.384 1.673 15.057-.558 18.404-25.096 2.788-19.519 1.115-28.442-5.02-34.577-7.25-7.25-8.923-5.577-16.73 12.27m353.577-54.096c-6.135 7.25-5.577 12.269 3.346 29 12.27 22.865 36.25 31.788 36.25 13.942 0-8.923-25.096-51.865-30.115-51.865-1.116 0-5.577 3.903-9.48 8.923m-541.518 5.576c-8.366 11.712-13.385 24.539-11.712 30.673 5.577 20.635 25.654 8.366 39.596-24.538 13.385-31.23-6.692-35.692-27.884-6.135m611.787-53.538c-4.461 7.25 30.116 51.308 38.48 48.52 3.347-1.116 6.693-7.808 7.809-14.5 3.346-23.424-35.135-51.866-46.289-34.02m-685.402-5.02c-23.424 20.078-26.77 38.482-7.25 38.482 13.384 0 37.365-26.212 37.365-41.27 0-15.615-10.596-14.5-30.115 2.789m751.767-59.672c-3.346 8.365 36.25 49.077 43.5 44.615 2.231-1.673 6.693-7.25 10.039-12.827 4.461-8.365 1.673-12.827-15.615-25.096-23.981-16.173-33.462-17.846-37.924-6.692m-820.921-3.346c-21.193 17.846-23.98 34.576-5.02 34.576 15.616 0 44.058-25.653 41.827-37.922-2.788-14.5-16.73-13.385-36.807 3.346m881.71-78.635c-12.27 4.462-7.808 16.73 12.27 32.346 22.865 16.731 38.48 16.731 40.71-1.115 1.674-11.712-2.23-15.058-43.5-32.904-1.672-.558-6.134 0-9.48 1.673m-929.672-2.23c-23.98 13.384-27.884 19.519-20.634 31.23 6.134 8.923 20.634 5.02 42.384-12.827 15.058-12.269 15.616-14.5 8.366-22.307-7.25-7.808-10.596-7.25-30.116 3.903m969.268-76.962c-5.577 13.942.558 21.75 22.308 29.558 16.173 6.134 22.307 6.134 28.442 1.115 12.827-10.596 10.038-15.615-17.289-27.885-31.23-13.384-29.557-13.384-33.461-2.788m-1014.44-8.923c-18.962 3.904-26.77 26.211-11.712 31.788 13.384 5.02 53.538-15.057 53.538-26.769 0-10.596-10.038-11.711-41.827-5.019m1034.517-73.058c0 12.27 21.75 23.423 44.615 23.423 13.943 0 16.73-2.23 16.73-13.384 0-15.615-8.922-20.077-39.595-20.077-17.289 0-21.75 2.23-21.75 10.038M147.483 562.578c-14.5 4.461-18.404 7.807-16.731 17.846 1.673 12.827 13.384 13.942 47.961 6.692 14.5-3.346 16.731-22.307 3.346-27.327-10.038-3.903-10.596-3.903-34.576 2.789m1073.556-80.308c-2.231 1.673-3.904 8.366-3.904 13.943 0 8.365 4.461 10.038 30.673 10.038s30.673-1.673 30.673-10.596c0-5.577-3.904-12.27-8.923-13.942-11.712-4.462-44.058-4.462-48.52.557M124.617 472.232c-4.461 2.788-6.134 8.923-4.461 14.5 2.788 6.692 9.48 8.365 30.115 7.25 22.308-1.673 26.77-3.346 26.77-12.827 0-8.923-4.462-11.154-22.308-12.827-12.27-.558-25.654 1.115-30.116 3.904M1232.75 385.79c-26.212 7.807-30.115 12.269-21.192 22.865 5.019 6.135 12.269 7.808 27.327 5.02 27.327-5.02 35.134-11.712 27.884-25.097-6.134-11.711-5.577-11.711-34.019-2.788M131.867 375.193c-6.134 15.058 2.231 23.981 25.096 27.885 25.654 4.462 34.02 1.115 34.02-13.942 0-7.25-5.02-11.712-13.943-13.943-7.807-1.673-20.077-3.903-27.884-5.576-9.481-2.231-15.058-.558-17.289 5.576m1067.422-77.519c-15.058 7.808-20.635 21.193-11.154 26.77 2.23 1.673 14.5.557 26.211-2.231 21.75-5.02 38.48-19.52 32.904-28.442-4.461-7.808-31.23-5.577-47.961 3.903m-1041.21-15.057c-6.693 12.269-1.116 18.404 26.769 27.884 26.211 8.366 28.442 7.808 28.442-6.692 0-8.923-6.134-15.058-21.75-22.308-26.211-11.711-26.769-11.711-33.461 1.116M681.75 437.655c-36.25 13.942-46.288 61.904-18.404 88.115 34.02 31.23 85.327 8.366 85.327-38.48 0-17.289-3.346-26.77-12.827-35.693-13.385-12.827-40.154-19.519-54.096-13.942m32.346 30.673c18.962 18.961-3.346 50.192-26.77 37.923-19.518-10.596-11.153-44.615 11.155-44.615 5.019 0 11.711 2.788 15.615 6.692m-563.826-377c-1.673 1.674 50.75 74.731 116 162.289 65.807 87.557 118.23 161.73 116.557 163.961-4.461 7.25-38.48 6.135-87.557-3.346-73.615-13.942-93.692-10.596-73.615 12.27 7.807 9.48 96.48 130.499 126.595 173.441 7.25 10.039 21.193 29.558 31.231 43.5 23.423 31.23 16.731 34.577-41.269 21.75-27.885-6.135-44.615-7.25-47.961-3.904-3.347 3.346 5.019 21.192 25.653 51.308 17.289 24.538 31.231 46.846 31.231 48.519s7.808 12.27 16.73 23.98c9.482 11.712 16.732 22.866 16.732 25.097 0 15.057 140.538 165.076 148.346 157.826 1.673-2.23-1.116-11.153-6.693-20.634-9.48-16.73-9.48-17.288 0-24.539 8.923-6.692 8.923-7.807 1.116-14.5-5.02-4.461-8.923-9.48-8.923-12.269 0-3.904-21.75-40.711-51.308-87.557-13.942-22.308-26.77-46.846-26.77-51.866 0-2.23 23.981-2.788 52.981-1.115 46.846 2.788 52.981 2.23 52.981-6.135 0-5.019-1.673-8.923-3.904-8.923-2.788 0-13.384-13.384-23.98-29.557-10.597-15.616-45.174-63.577-76.962-105.404-56.884-76.404-72.5-102.058-66.923-108.192 2.23-1.673 17.846-.558 35.692 2.788s42.943 6.135 56.327 6.135c45.173 0 46.289 1.673 46.289 83.654 0 69.711.557 73.057 13.384 84.211 7.808 6.692 18.962 15.058 25.096 18.404s25.654 16.173 43.5 28.442l32.346 22.308 74.73 1.673c66.366 1.673 76.405 1.115 89.232-8.923 7.807-5.577 32.346-22.308 53.538-37.366 21.75-14.5 40.711-29 42.942-32.903 2.23-3.346 4.462-37.923 4.462-76.962 0-80.865 1.115-82.538 46.288-82.538 13.385 0 38.48-2.789 56.327-6.135 17.846-3.346 33.461-4.461 35.692-2.788 5.577 6.134-10.038 31.788-67.48 108.192-31.789 41.827-63.02 85.327-69.712 96.48-6.692 10.597-16.73 24.54-23.423 30.116-6.135 5.577-11.154 13.942-11.154 18.404 0 7.25 8.366 7.807 52.98 5.019 29-1.673 52.982-1.115 52.982 1.115 0 5.02-12.827 29.558-26.77 51.866-29.557 46.846-51.307 83.653-51.307 87.557 0 2.789-3.904 7.808-8.923 12.27-7.808 6.692-7.808 7.807 1.115 14.5 9.48 7.25 9.48 7.807 0 24.538-5.577 9.48-8.365 18.404-6.692 20.634 7.807 7.25 148.346-142.769 148.346-157.826 0-2.231 7.807-13.385 16.73-25.096 9.481-11.712 16.731-22.308 16.731-23.981s13.942-23.423 30.673-47.962c16.73-24.538 30.673-47.403 30.673-50.75 0-7.807-8.365-7.25-55.211 3.347-55.212 12.827-61.904 8.923-38.481-22.308 10.039-13.942 23.98-33.461 31.23-43.5 31.232-45.173 118.79-164.519 127.155-173.442 16.73-18.961 2.23-23.98-49.635-15.615-69.154 11.154-108.192 13.384-111.538 7.25-2.231-2.789 50.192-76.962 116-164.52C1196.5 166.06 1248.364 93.003 1246.134 91.33c-2.231-1.116-31.789 16.173-65.25 39.038-34.02 22.308-65.808 41.27-70.827 41.27-7.808 0-10.039-6.135-11.154-35.135-1.115-18.962-3.904-34.577-6.692-34.577-4.462 0-27.327 40.154-75.846 133.846-12.827 24.538-35.692 66.923-50.75 94.807-15.058 27.327-33.462 63.02-41.27 78.635s-18.96 32.903-25.095 38.48c-11.154 10.039-11.154 9.481-11.154-63.019 0-80.307-1.673-88.673-18.962-96.48-6.134-2.789-18.404-9.481-26.211-15.058-69.154-45.173-70.827-45.73-144.442-45.73s-75.289.557-144.442 45.73c-7.808 5.577-20.077 12.27-26.212 15.058-17.288 7.807-18.961 16.173-18.961 96.48 0 72.5 0 73.058-11.154 63.02-6.135-5.578-17.289-22.866-25.096-38.481-7.808-15.616-26.212-51.308-41.827-78.635-15.058-27.884-33.462-63.019-41.827-78.077-41.27-81.423-79.192-148.903-84.211-149.46-2.789-.559-5.577 14.5-6.693 33.46-1.115 28.443-3.346 35.135-10.596 35.135s-84.211-47.961-127.711-79.192c-3.346-2.23-7.808-2.788-9.481-1.115m576.653 328.48c23.98 5.578 41.27 34.578 41.27 68.04 0 25.653-2.232 31.23-18.962 48.518-17.847 18.404-22.308 20.077-50.75 20.077-28.443 0-32.904-1.673-50.193-19.519-16.73-17.288-18.961-23.423-18.961-49.077-.558-22.307 2.23-32.904 12.27-45.73 12.826-16.731 46.845-31.789 62.46-27.885 4.462 1.115 15.058 3.904 22.866 5.577m318.442-356.922c-12.827 14.5-16.173 33.462-7.25 39.039 7.807 4.461 46.288-36.25 42.942-45.173-4.462-12.27-22.308-8.923-35.692 6.134M328.175 42.81c-4.462 7.25 1.673 21.75 16.73 37.924 10.596 11.711 14.5 12.826 24.539 7.25 11.711-6.135 11.154-6.135-5.577-28.443-17.289-21.192-29.558-26.769-35.692-16.73M966.173 8.233c-12.269 20.634-10.596 34.576 3.904 39.038 7.25 2.789 29.558-34.02 29.558-49.077 0-18.404-20.077-12.269-33.462 10.039M410.155-11.844c-7.807 7.807 1.673 29.557 19.52 45.73 8.922 8.366 11.71 8.366 17.288 1.674 6.692-8.366 2.23-25.654-12.27-44.058-8.922-11.154-15.615-12.27-24.538-3.346m474.596-35.692c-1.673 5.576-6.693 17.846-10.597 27.326C865.79-.133 868.02 4.33 884.751 4.33c8.365 0 15.057-7.25 22.307-23.423 10.596-22.308 10.596-22.866.558-30.673-13.942-9.481-19.52-9.481-22.865 2.23M501.059-58.133c-12.27 12.27 7.808 64.692 23.423 61.346 9.48-2.23 11.154-18.961 3.904-46.846-2.789-11.711-21.192-21.192-27.327-14.5m286.653-6.692c-8.365 21.192-6.692 41.27 3.346 45.173 13.385 5.02 24.539-12.827 24.539-38.48 0-17.29-1.673-21.193-11.154-21.193-7.25 0-13.385 5.577-16.73 14.5M595.31-53.113c4.461 30.115 9.48 37.923 21.75 33.461 18.404-7.25 6.134-59.673-13.943-59.673-11.153 0-11.711 1.673-7.807 26.212m98.153-26.77c-8.365 15.616-1.115 50.75 10.597 50.75 10.596 0 18.403-29 12.826-49.634-3.903-14.5-16.173-15.058-23.423-1.116" style="stroke-width:.557692"/>
</svg>
