<svg xmlns="http://www.w3.org/2000/svg" width="928" height="960">
    <path d="M464 990c-34.965-.137-37.295-.411-58.96-7.541-8.775-2.88-25.366-10.01-27.56-11.93-1.097-.96-2.605-1.782-3.29-1.782-4.389 0-32.909-21.527-44.7-33.867-7.953-8.09-21.665-25.504-26.875-34.005-3.29-5.348-15.494-30.714-15.494-32.222 0-.96-.823-3.291-1.92-5.21-1.097-2.057-4.25-8.365-6.993-13.986-5.484-11.518-5.347-11.381-15.768-27.424-9.324-14.671-33.182-38.94-44.563-45.385-24.406-13.849-39.9-17.688-71.848-17.688-21.665 0-23.447-.137-24.818-2.605-2.057-3.976-1.646-107.773.411-113.258 2.331-5.759 4.936-9.187 10.558-13.026l4.799-3.428 54.846-.822c30.166-.412 56.355-1.234 58.274-1.92 20.02-6.719 30.44-32.222 21.39-51.967-4.387-9.46-10.832-14.808-29.89-24.544-8.502-4.387-16.592-8.5-17.826-9.323-4.113-2.057-6.719-3.428-23.035-11.792-8.639-4.525-26.19-13.575-39.078-20.293-12.752-6.72-24.818-12.89-26.738-13.85-8.501-4.387-15.083-14.945-15.083-24.269 0-10.97 7.816-22.76 16.866-25.503 2.605-.823 36.061-1.234 85.971-.96 69.38.274 82.544.686 87.754 2.468 3.428 1.097 9.873 3.154 14.398 4.525 10.283 3.154 25.777 10.283 32.633 14.945 2.88 1.92 5.622 3.566 6.033 3.566 1.783 0 13.849 10.42 23.721 20.43 17.551 17.825 31.125 40.723 37.433 63.21 5.896 20.705 5.759 19.608 5.759 80.898 0 52.104-.275 60.469-2.331 65.816-5.896 16.317-8.364 19.882-26.19 38.255-14.808 15.494-20.155 24.27-25.64 41.546-3.565 11.381-3.84 37.57-.549 48.95 6.17 20.98 20.705 40.861 38.804 52.79 25.092 16.728 56.766 19.745 84.738 8.227 16.59-6.993 37.432-26.326 45.385-42.231 7.816-15.769 9.872-24.407 9.872-42.643 0-28.11-6.718-43.877-28.794-67.05-16.043-16.865-18.785-20.704-22.487-29.617-1.371-3.428-3.154-7.679-4.113-9.598-.96-2.331-1.646-21.253-1.92-59.508-.411-59.509.137-66.913 6.719-87.892 4.25-13.574 12.203-29.617 20.978-42.505 7.953-11.655 35.788-39.078 39.764-39.078.411 0 3.016-1.646 5.896-3.566 10.146-6.855 24.27-12.614 47.03-19.196 8.228-2.468 14.81-2.605 91.183-2.605 80.76 0 82.406 0 86.657 2.88 10.832 6.855 15.357 19.881 11.243 32.222-1.782 5.21-8.364 12.889-13.574 15.494-1.92.96-13.849 7.13-26.738 13.849-12.752 6.718-30.44 15.768-39.078 20.156-16.59 8.638-19.059 9.872-22.898 11.929-1.371.822-9.461 4.936-17.962 9.323-19.06 9.736-25.504 15.083-29.892 24.544-9.186 20.019 1.097 44.974 21.39 51.967 1.92.686 28.11 1.508 58.275 1.92l54.846.822 4.8 3.428c5.62 3.84 8.226 7.267 10.557 13.026 2.057 5.485 2.468 109.282.411 113.258-1.37 2.468-3.153 2.605-24.818 2.605-18.922 0-25.777.549-34.964 2.742-16.591 4.114-34.005 11.93-45.797 20.979-11.655 8.775-27.423 26.19-36.198 39.9-10.147 16.18-9.873 15.632-15.22 26.876-2.742 5.621-5.896 11.929-6.993 13.985-1.097 1.92-1.92 4.25-1.92 5.073 0 1.509-12.34 27.15-15.494 32.36-6.033 9.735-21.527 28.931-30.028 37.158-21.253 20.568-47.854 36.747-72.397 44.289a9304 9304 0 0 1-17.14 5.21C498.827 989.589 492.657 990 464 990m0-513.498c-1.508 0-4.799-3.565-8.364-9.187-7.678-11.792-34.28-38.804-48.813-49.636-6.308-4.662-11.38-8.913-11.38-9.461 0-.686 5.347-4.936 11.791-9.735 16.18-12.066 34.142-29.892 45.797-45.797 5.484-7.267 10.42-13.3 10.969-13.3s5.485 6.033 10.97 13.3c11.654 15.905 29.616 33.73 45.796 45.797 6.444 4.799 11.792 9.05 11.792 9.735 0 .548-5.073 4.799-11.244 9.46-14.945 11.107-41.272 37.982-48.95 49.637-3.565 5.622-6.856 9.187-8.364 9.187M205.537 376.407c-62.25 0-82.818-.411-84.052-1.645-2.331-2.331-2.331-102.837 0-109.556 2.057-6.033 5.622-10.695 11.106-14.123 4.25-2.742 6.856-2.88 59.234-3.702 30.166-.411 56.355-1.234 58.274-1.92s6.445-3.427 10.01-6.032c18.51-13.85 19.745-43.192 2.605-57.863-3.016-2.606-12.477-8.365-21.116-12.752-8.5-4.388-22.898-11.792-31.948-16.454-42.643-22.213-68.969-35.787-73.494-38.118-9.735-5.073-16.316-14.946-16.316-24.818 0-10.97 7.815-22.898 16.865-25.504 2.605-.685 62.799-1.234 149.045-1.097l144.657.275.411 87.068c.274 75.962 0 88.577-1.92 98.724-6.17 32.085-19.47 57.314-42.917 81.31-23.31 23.994-48.128 36.883-83.64 43.465-13.3 2.605-20.568 2.742-96.804 2.742m516.926 0c-76.236 0-83.503-.137-96.804-2.742-35.513-6.582-60.33-19.47-83.64-43.466-13.986-14.26-22.076-25.64-29.754-41.546-6.719-13.986-9.187-21.116-12.615-37.707-2.468-11.38-2.605-19.333-2.742-99.546 0-47.99.411-87.617.96-88.028 1.508-1.645 287.12-1.097 292.742.548 9.598 2.606 17.55 14.123 17.55 25.23 0 6.718-3.016 14.122-7.404 18.373-4.525 4.388-7.541 6.17-34.416 19.882-8.227 4.25-26.189 13.574-39.763 20.567-13.575 7.13-31.537 16.454-39.901 20.705s-17.962 9.872-21.116 12.614c-17.414 14.946-16.317 44.289 2.331 58.138 3.565 2.605 8.09 5.347 10.01 6.033s28.108 1.508 58.274 1.92c52.378.822 54.983.959 59.234 3.701 5.484 3.428 9.05 8.09 11.106 14.123 2.331 6.719 2.331 107.225 0 109.556-1.234 1.234-21.801 1.645-84.052 1.645M464-10.19c-8.467 0-16.934-.891-22.213-2.673-20.704-7.13-34.964-20.842-43.328-41.82-3.977-9.736-4.388-12.067-4.388-25.367.137-18.648 3.565-29.343 14.123-43.603 7.815-10.42 21.253-19.882 36.61-25.504 1.097-.411 9.46-.822 18.51-.822 13.163-.137 17.825.411 23.447 2.605 22.899 8.638 36.062 22.213 44.563 45.934 1.782 4.936 2.468 10.969 2.605 21.39 0 13.3-.411 15.631-4.388 25.366-8.364 20.979-22.624 34.69-43.328 41.82-5.28 1.783-13.746 2.674-22.213 2.674" style="stroke-width:.137116"/>
</svg>
