<svg xmlns="http://www.w3.org/2000/svg" width="1185" height="960">
    <path d="m509.034 0 12.636 83.553h139.598l-.577 1.538c5.375-12.697 9.66-25.964 13.041-41.252l-.038.824q.545-8.988.546-18.115c0-9.346-.434-18.592-1.194-26.548zM489.35 27.852 119.72 598.97h42.98L500.093 87.25zm206.303.344-11.345 58.195a294142 294142 0 0 0 337.992 512.32h42.98zM529.15 112.178c-.945 24.412-.6 24.328 10.66 40.316 13.153 3.61 32.32-5.846 38.08 12.206v694.9h-46.246l-12.466 11.861 1.72 36.878h146.13c-4.985-17.364 6.534-36.188-15.041-49.77h-44.958l.174-685.875c9.198-28.883 28.022-13.41 39.455-21.491 14.786-11.69 11.518-25.96 8.595-39.025zm150.17 11.777c-7.564 41.433-6.962 41.003 11.348 68.166 29.483 43.496 61.117 87.506 85.959 131.862 24.841 44.356 55.529 85.274 81.317 128.941 28.281 46.934 58.453 92.75 87.508 138.74h41.777c-41.003-53.038-69.715-108.397-105.216-158.512s-62.407-107.02-98.595-156.016c-36.189-48.997-61.375-105.216-104.097-153.181m-177.343 3.54c-.814-.006-1.26.071-1.453.329a2787972 2787972 0 0 0-300.86 462.808h40.401l269.57-423.525v-39.37c-3.922 0-6.3-.234-7.658-.243M486.34 318.051 311.67 591.747l.13.663c5.697 24.586 20.632 45.633 41.303 59.51 45.816 34.384 92.064 68.166 139.513 103.152 10.23-.601 23.899 3.868 34.386-12.808L527 318.052zm172.006.002v425.329l11.52 11.519h26.56c18.74-15.817 37.907-34.386 58.796-50.202 26.991-20.287 56.046-37.736 82.952-58.109l.284-.18c18.046-12.115 30.797-31.51 34.1-54.403L699.263 318.054zm-465.473 300.86v10.572l23.21 32.406 30.43-14.269-9.8-28.71zm798.74 0-44.786.342-7.048 29.228 30.945 13.408 20.889-22.606zm35.244 8.853-25.272 47.278 34.039 9.628 28.539-56.906zm-906.534.859 30.086 56.133 32.75-10.058-24.155-46.075zm803.81 36.533-239.14 178.28v46.076c51.834-31.805 91.288-69.972 136.245-104.872s90.775-68.766 136.333-103.151zm-667.484 6.15c-9.146-.244-18.657 2.909-29.132 10.87l.412.119c5.852 1.936 11.295 4.767 16.003 8.22 23.554 23.553 52.61 39.8 77.366 60.946 42.894 36.619 89.31 68.423 132.29 104.87 13.407 12.652 29.447 22.544 48.139 29.055v-39.283c-27.68-22.264-52.78-46.074-81.32-64.47-43.496-28.024-83.465-60.516-124.125-91.891-13.677-10.463-26.265-18.078-39.633-18.435m-78.818 24.967-4.211 7.478c46.075 41.777 99.283 74.786 147.506 113.983 49.857 40.745 102.38 78.051 155.416 118.109l17.192-1.117v-23.553l-281.52-214.9zm795.471.002L693.246 909.63v25.786h15.214c25.445-18.137 49.34-34.039 72.378-51.23 30.344-23.382 60.259-48.139 90.516-71.95 17.192-13.84 35.158-26.476 52.35-39.628 28.367-21.06 56.991-42.377 85.014-64.04 1.633-1.46 0-7.477 0-12.291zM510.668 928.369 512.299 960h161.175v-31.63z" style="stroke-width:.9375"/>
</svg>
