<svg xmlns="http://www.w3.org/2000/svg" width="1080" height="960">
    <path d="M540 268.132q-44.069 0-82.497 16.89c-26.13 11.519-48.509 26.818-67.528 45.508l.03-.03a206.7 206.7 0 0 0-44.939 65.698l-.51 1.35q-16.41 38.428-16.41 82.497v1.32c0 29.459 6.03 57.538 16.92 83.007l-.51-1.38c11.1 26.31 26.46 48.719 45.449 67.468l.03.03a223.8 223.8 0 0 0 66.058 44.909l1.44.57q38.428 16.89 82.497 16.89t82.497-16.89c26.13-11.52 48.509-26.82 67.528-45.509l-.03.03c19.02-18.78 34.38-41.188 44.969-66.148l.51-1.35c10.38-24.119 16.41-52.168 16.41-81.627v-1.41.06q0-44.069-16.41-82.497c-11.16-26.1-26.52-48.359-45.449-67.018l-.03-.03a223.8 223.8 0 0 0-66.058-44.909l-1.44-.57q-38.428-16.89-82.497-16.89zm0 43.108q70.318 0 119.516 49.679 49.199 49.678 49.229 119.066 0 70.318-49.229 119.516T540 648.73 420.484 599.5t-49.229-119.516q0-69.388 49.229-119.066T540 311.24m49.678 168.745c-.03 27.36-22.229 49.528-49.618 49.528s-49.618-22.199-49.618-49.618c0-27.42 22.199-49.618 49.618-49.618 13.71 0 26.1 5.55 35.069 14.52 8.97 8.699 14.55 20.878 14.55 34.378v.84zM115.333 0v32.819l270.922 269.992q-16.89 13.14-1.89.48t39.389-26.73L149.082 0zm815.585 0L655.286 275.631q-16.89-11.25.48-.93t37.98 28.14l270.92-269.992V.03zM115.333 89.997v31.89l228.743 228.742q-12.18 17.82-.93.93t30.93-37.499L149.081 89.997zm815.585 0L705.925 314.06q-15-15.93-.93-1.89t29.999 37.5l229.673-227.814V89.967zM540 189.384l-23.43 23.43v33.748c2.49 0 5.94-.15 10.32-.48s8.76-.48 13.14-.48h12.66l11.73.93-.93-32.819zM165.012 419.057l-23.43 22.5 24.39 23.428h139.675q0-6.57 2.34-20.159 2.34-13.59 6.09-27.659zm750.906 0H766.853q1.89 3.75 4.23 16.89c1.53 8.28 2.7 18.269 3.24 28.408l.03.66h140.635l23.43-23.429zm-750.906 74.998-23.43 23.429 24.39 23.43h147.175q-1.89-3.75-4.23-16.89c-1.53-8.28-2.7-18.27-3.24-28.41l-.03-.66zm750.906 0-141.565.93q0 6.57-2.34 20.159-2.34 13.59-6.09 27.659l149.065-1.89 23.43-23.43-22.5-22.498zM344.076 610.3 115.333 839.044v31.889h33.75L374.074 645.94q15 16.89.93 2.82t-29.999-37.5zm391.848 0q12.18-17.82.93-.93t-30.93 36.569l224.994 224.993h33.749v-31.89zm-42.179 46.858q16.89-13.14 1.89 0t-39.389 27.18L930.918 959.97h33.749v-31.889zm-307.49.96L115.333 928.111V960h33.75l275.63-274.671q16.89 10.32-.48.48-17.369-9.84-37.978-28.59zm177.174 55.289c-3 .69-6.54 1.2-10.14 1.41h-.15q-6.57.48-13.139.48-6.57 0-12.66-.48t-11.73-.48l.93 31.889 23.43 23.429 23.43-24.39z" style="stroke-width:29.9991"/>
</svg>
