<svg xmlns="http://www.w3.org/2000/svg" width="1200" height="960">
    <path d="M640.704 766.534c-1.829 28.813 1.83 77.292 7.775 106.563 16.465 80.494 18.295 83.695 47.565 76.835 30.185-6.86 73.177-20.123 93.757-28.813l18.295-7.775-12.349-10.062c-6.403-5.03-23.782-17.837-37.96-27.898-28.813-20.124-85.525-78.208-99.703-101.99-9.605-16.007-16.465-18.751-17.38-6.86m-98.788 6.86c-14.178 23.782-70.89 81.866-99.703 101.99-14.178 10.061-31.557 22.867-37.96 27.898l-12.348 10.062 18.294 7.775c20.58 8.69 63.572 21.953 93.757 28.813 29.27 6.86 31.1 3.659 47.565-76.835 5.945-29.27 9.604-77.75 7.775-106.563-.915-11.891-7.775-9.147-17.38 6.86m96.044-135.376c-1.372 3.658-1.372 20.123 0 35.673 2.287 25.612 5.946 33.387 30.186 69.518 32.014 48.022 65.401 84.153 103.361 112.051 36.589 26.984 53.968 36.131 67.689 36.131 11.89 0 73.633-42.991 94.214-65.401l10.977-12.349-20.124-9.147c-10.976-5.03-22.41-9.147-25.612-9.147-2.744 0-10.976-3.202-18.294-6.86-6.86-3.202-21.953-10.52-33.386-16.008-22.41-10.519-24.24-11.434-70.89-40.704-39.79-25.155-75.463-52.596-104.734-80.037-23.782-22.867-28.813-24.697-33.387-13.72m-100.16 4.116c-15.55 18.294-70.432 61.742-109.307 86.44-50.766 32.471-52.138 32.929-75.463 43.905-11.434 5.489-26.527 12.806-33.387 16.008-7.318 3.658-15.55 6.86-18.294 6.86-3.202 0-14.636 4.116-25.612 9.147l-20.124 9.147 10.977 12.349c20.58 22.41 82.323 65.401 94.215 65.401 13.72 0 31.557-9.604 67.688-36.13 43.906-32.93 72.719-64.945 116.167-130.346 13.264-20.124 15.093-26.527 15.55-57.17.915-38.417-5.03-45.735-22.41-25.611m100.618-113.881c-1.83 6.403-1.83 22.41-.458 35.216 3.202 26.527 7.775 32.015 67.231 84.153 47.108 41.62 92.385 71.804 148.182 98.788 59.914 29.27 72.262 34.302 95.587 37.503l20.581 3.202 18.294-24.697c10.062-13.264 23.782-34.302 30.185-46.65 6.403-12.349 14.178-25.155 17.38-29.271 8.232-9.604-3.202-16.465-40.705-22.868-48.936-9.147-90.098-20.58-159.158-45.278-46.193-16.464-123.486-58.083-161.903-86.897-24.24-18.294-31.558-18.751-35.216-3.201m-112.052 3.201c-38.417 28.814-115.71 70.433-161.903 86.897-69.975 24.697-111.594 36.589-158.701 44.821-36.588 5.946-49.394 13.72-41.162 23.325 3.202 4.116 10.977 16.922 17.38 29.27s20.123 33.387 30.185 46.65l18.294 24.698 20.58-3.202c23.326-3.201 35.217-8.232 97.417-37.96 54.425-26.527 99.246-56.712 147.725-99.246 57.626-50.766 62.657-57.169 65.859-83.238 3.201-27.441-.915-47.107-9.605-47.107-3.201 0-15.092 6.86-26.069 15.092m146.81-32.472c0 5.031 45.278 34.302 96.045 62.2 24.24 13.264 92.385 42.077 98.788 42.077 3.659 0 12.806 2.744 21.038 6.403 32.472 13.263 123.485 34.759 148.182 34.759 12.349 0 14.635-2.287 21.038-21.953 10.977-31.558 22.868-96.96 21.039-112.967l-1.372-13.72-202.15-1.372c-160.531-.915-202.608 0-202.608 4.573m-550.195-2.286c-8.232 8.232 0 65.401 18.294 124.4l7.775 24.24 22.868-2.288c95.13-9.604 231.878-59.913 320.147-117.997 14.635-10.061 28.356-17.836 30.642-17.836s4.117-3.202 4.117-6.86c0-5.946-25.155-6.86-200.32-6.86-110.223 0-202.15 1.371-203.523 3.2M592.682 238.29c-2.286 3.202-15.55 29.728-30.185 58.541-27.441 55.797-27.441 65.86.915 45.736 7.317-5.489 15.55-8.233 18.294-6.86 2.744 1.829 4.573 87.811 4.573 246.055 0 253.374-1.372 273.954-21.038 345.301-3.659 13.264-5.488 26.07-4.116 28.356 4.116 6.403 74.091 5.946 78.207-.457 1.372-2.744 0-15.55-4.116-28.813-20.123-66.316-21.495-91.928-21.495-344.844 0-136.749 1.829-243.77 4.116-245.141 2.287-1.372 13.72 2.744 25.154 9.147s21.038 10.062 21.038 7.775c-.457-8.233-57.626-117.54-62.657-118.912-2.744-.915-6.86.915-8.69 4.116M513.103 7.328c-78.665 17.837-145.438 46.65-196.662 84.61-61.742 45.278-120.283 117.54-151.84 186.6-24.698 54.425-44.821 128.974-44.821 166.934v20.581h58.54c55.34 0 59.457-.457 68.146-10.52 13.264-14.177 21.039-30.184 24.697-51.223 3.66-20.123 16.922-56.254 28.356-77.75 4.116-7.775 9.147-17.836 11.891-22.867 14.178-29.27 79.58-94.672 114.796-114.338 57.17-32.015 107.935-45.278 173.794-45.278 59.913 0 109.765 11.433 153.213 35.216 7.775 4.116 17.837 9.147 22.868 11.891 28.813 13.72 95.587 80.494 113.423 113.423 21.039 38.418 34.76 73.177 39.333 99.703 3.658 21.039 11.433 36.589 24.697 51.224 8.69 10.062 12.806 10.519 68.145 10.519h58.541v-17.38c0-21.495-14.178-90.098-24.697-122.113C989.207 131.27 802.607-1.362 597.256.01c-30.643 0-67.231 3.202-84.153 7.318" style="stroke-width:.457353"/>
</svg>
