<svg xmlns="http://www.w3.org/2000/svg" width="1250" height="960">
    <path d="M738.535 479.18a112.67 112.67 0 1 1-112.943-112.67 112.67 112.67 0 0 1 112.943 112.67m382.857-373.833a263 263 0 0 1 7.384 62.35 269.6 269.6 0 0 1-11.76 78.76l.548-1.914a129.08 129.08 0 0 1-51.96 73.29l-.273.273q-115.678 76.298-231.355 151.776a103 103 0 0 1-11.212 5.469h-.82c0-46.49-1.368-90.792.546-135.094 1.094-24.065 13.947-44.302 32.27-60.163a446 446 0 0 1 45.122-34.457l1.367-1.094c68.915-44.576 138.102-88.331 207.017-132.36l13.126-6.563zM821.943 480c10.939 6.837 18.05 10.939 24.612 15.588 69.735 44.575 138.923 90.245 209.205 133.726 50.318 30.903 71.102 76.572 73.836 132.633 1.368 28.441 0 57.155 0 89.425-9.298-4.65-14.22-6.837-18.869-9.572L907.54 714.637c-8.75-5.47-16.682-11.76-25.433-17.229a123.06 123.06 0 0 1-60.436-117.592c1.64-31.449 0-62.898 0-99.816zM251.76 8.812a263 263 0 0 1 62.078-7.11 269.6 269.6 0 0 1 79.306 11.485l-1.915-.273a129.08 129.08 0 0 1 73.29 51.96v.273q76.572 115.404 152.05 231.355a103 103 0 0 1 5.469 10.939v.82c-46.49 0-90.792 1.367-135.094-.273a84.23 84.23 0 0 1-60.164-32.543 446 446 0 0 1-34.457-44.85l-1.094-1.64C346.38 160.314 302.351 91.126 258.322 21.938c-2.461-3.555-4.102-7.93-6.563-13.126m373.833 299.723c6.837-10.94 10.939-18.05 15.588-24.886 44.575-69.735 90.245-138.65 133.726-209.204 30.902-49.772 76.572-70.83 132.36-73.837 28.44-1.368 57.155 0 89.424 0-4.649 9.298-6.563 14.494-9.571 19.143L859.955 222.665c-5.469 8.751-11.485 16.955-17.228 25.433a123.06 123.06 0 0 1-117.592 60.71c-31.176-1.64-62.898-.273-99.817-.273zm371.919 642.38a263 263 0 0 1-62.078 7.383 269.6 269.6 0 0 1-78.76-11.759l1.915.547a129.08 129.08 0 0 1-73.563-51.96v-.546q-76.298-115.404-151.776-231.082a103 103 0 0 1-5.47-11.212l-.273-.82c46.49 0 91.066-1.368 135.368.546 23.792 1.094 44.302 13.947 60.163 32.27a446 446 0 0 1 34.457 44.849l.82 1.64c44.85 68.915 88.605 138.103 132.633 207.017 2.735 3.829 4.102 8.204 6.837 13.127zM624.225 651.739 608.91 676.35c-44.849 69.735-90.245 138.65-134 209.204-30.902 50.045-76.571 71.103-132.633 73.837-28.44 1.368-56.881 0-89.424 0 4.649-9.298 6.837-14.494 9.571-18.87l127.164-203.187c5.469-8.751 11.759-16.955 17.228-25.433a123.06 123.06 0 0 1 117.592-60.71c31.45 1.64 62.898.547 99.817.547M128.698 852.192a263 263 0 0 1-7.384-61.804 269.6 269.6 0 0 1 12.033-79.306l-.547 1.914a129.08 129.08 0 0 1 51.959-73.563h.273q115.678-76.298 231.356-151.776a103 103 0 0 1 11.212-5.47l.82-.273c0 46.49 1.368 90.792-.547 135.368a84.23 84.23 0 0 1-32.27 60.163 446 446 0 0 1-45.122 34.457l-1.367.82c-69.188 44.85-138.376 88.878-207.563 132.907-3.829 2.735-8.204 4.102-13.127 6.563zM428.147 478.36c-10.939-6.837-18.05-10.939-24.886-15.588-69.735-44.575-138.649-90.245-209.204-134-49.772-30.628-70.829-76.298-73.837-132.086-1.094-28.714.273-57.428.273-89.971 9.298 4.649 14.494 6.563 19.143 9.298L342.004 243.45c8.75 5.47 16.955 11.759 25.433 17.228a123.06 123.06 0 0 1 60.71 117.592c-1.641 31.45-.274 62.898-.274 100.09z" style="stroke-width:2.7347"/>
</svg>
