<svg xmlns="http://www.w3.org/2000/svg" width="1164" height="960">
    <path d="M120.309-56.6c-.68 2.04.453 5.44 2.493 7.706s3.626 4.986 3.626 6.346 2.04 7.253 4.76 13.373c2.493 6.12 5.666 13.599 7.026 16.772 1.133 3.173 3.627 8.613 5.213 12.466 1.813 3.626 4.76 10.88 6.8 15.866 6.8 16.545 16.319 38.757 20.172 46.463 2.493 5.213 4.08 5.667 20.172 6.347 9.52.453 19.492-.454 21.985-1.813 2.493-1.36 11.333-3.174 19.946-3.854 8.386-.68 17.225-2.72 19.718-4.306 2.493-1.813 7.706-3.173 11.56-3.173s8.386-1.587 9.972-3.4 5.213-3.4 8.386-3.4c2.947 0 7.027-1.586 8.84-3.4 2.04-1.813 5.44-3.4 7.706-3.4s4.76-.906 5.44-2.04c.906-1.132 6.12-4.306 12.24-7.252 5.892-2.72 14.278-7.933 18.811-11.56 4.533-3.4 9.52-6.346 10.653-6.346 1.36 0 3.4-1.36 4.306-2.946.907-1.813 3.4-3.853 5.213-4.533 1.813-.907 6.573-3.627 10.2-6.12 3.853-2.493 9.066-5.44 11.786-6.573 2.493-1.133 5.44-3.4 6.346-4.533.68-1.36 3.173-2.493 5.44-2.493 2.266 0 5.44-1.586 7.026-3.4s4.533-3.4 6.8-3.4 5.212-1.586 6.799-3.4c1.587-1.812 5.213-3.4 7.933-3.4s6.346-1.586 7.933-3.399 5.213-3.4 8.386-3.4c2.946 0 7.026-1.586 8.84-3.4 2.04-1.813 6.119-3.4 9.519-3.4s8.16-1.586 10.426-3.399c2.493-1.813 8.16-3.4 12.692-3.4 4.533 0 9.293-1.133 10.653-2.493 2.946-2.946 26.292-5.44 31.731-3.173 3.627 1.586 3.4 2.04-1.586 3.4-3.173 1.133-10.2 2.04-15.866 2.04-5.666.226-12.24 1.813-14.506 3.626-2.493 1.813-8.16 3.4-12.466 3.4-4.533 0-10.199 1.586-12.465 3.4-2.494 1.813-7.253 3.4-10.653 3.4-3.173 0-7.253 1.586-8.84 3.4-1.586 1.812-4.986 3.399-7.706 3.399-2.493 0-6.8 1.587-9.066 3.4-2.493 1.813-6.12 3.4-8.386 3.4-2.04 0-4.986 1.586-6.573 3.4s-4.533 3.4-6.8 3.4-5.213 1.586-6.8 3.399-4.759 3.4-7.025 3.4c-2.494 0-4.307.906-4.307 2.04s-2.04 2.946-4.76 3.626c-5.212 1.813-28.784 17.452-47.37 31.731-11.333 8.84-42.61 38.758-56.89 54.624-12.012 13.825-36.717 48.05-40.344 56.89-1.36 2.493-3.4 5.44-4.533 6.346-1.36.68-2.493 3.4-2.493 5.893s-1.587 4.986-3.4 5.666c-1.813.907-3.4 2.947-3.4 4.533 0 1.813-2.493 4.307-5.666 5.44s-6.346 4.08-7.026 6.12c-.68 2.266-2.72 7.026-4.533 10.425-1.587 3.627-3.173 7.933-3.173 9.52s-1.36 5.893-3.174 9.52c-5.213 10.652-8.612 21.758-9.746 31.277-1.36 11.106-4.533 14.96-6.346 7.706-2.266-9.519-.227-147.097 2.267-147.324 1.36 0 2.72 1.813 2.946 4.08.907 3.853 3.173 9.746 10.426 26.745 3.627 8.386 9.52 23.572 11.333 28.785.68 2.266 3.4 4.08 5.893 4.08s5.213-1.814 5.893-4.08c.68-2.04 2.266-5.44 3.4-7.253s3.173-5.44 4.306-7.933c1.36-2.493 4.306-7.706 6.8-11.333 2.493-3.853 5.212-8.612 5.892-10.652s2.72-4.307 4.533-4.986c1.814-.68 3.174-2.267 3.174-3.854 0-3.853 12.919-19.718 41.25-50.316 4.533-4.987 7.933-9.973 7.253-11.106-1.813-2.947-7.026-2.04-8.613 1.586-.68 2.04-4.08 3.4-7.706 3.4s-7.933 1.586-9.52 3.4-6.572 3.4-11.105 3.4-9.746 1.36-11.106 2.72c-1.587 1.586-10.2 3.626-19.266 4.532-21.985 2.04-49.183 5.893-53.036 7.253-2.494.907-2.947 48.504-2.947 273.117 0 184.948.68 272.436 2.267 273.343 1.36.906 14.959 2.266 30.144 3.173 15.186 1.133 30.599 2.946 33.998 4.533 3.627 1.36 9.293 2.493 12.466 2.493 3.4 0 8.16 1.36 10.653 3.173 2.493 1.587 7.026 3.627 10.2 4.307 9.292 2.04 22.665 7.48 25.385 10.2 1.586 1.586 4.533 2.719 6.572 2.719 2.267 0 4.76 1.133 5.44 2.493.907 1.133 3.853 3.173 6.346 4.533 6.347 2.72 12.013 6.12 22.212 13.826 4.533 3.626 9.066 6.346 9.973 6.346.68 0 4.76 2.493 8.613 5.44 11.332 8.386 36.038 21.532 60.516 32.411 4.307 2.04 10.88 5.213 14.506 7.026 4.08 2.04 12.24 3.174 21.532 3.174 9.52-.227 16.545.906 19.945 2.946 2.72 1.813 8.613 3.4 12.92 3.4 4.532 0 12.012 1.36 16.545 3.173 4.76 1.813 18.812 3.853 31.278 4.533 34.678 1.813 40.118 5.666 8.386 5.666-17.905.227-27.878-.906-33.77-3.173-4.307-1.813-12.24-3.4-17.453-3.4s-11.333-1.36-13.826-3.173c-2.493-1.586-8.84-3.626-14.28-4.306-11.558-1.36-13.825 1.586-8.838 11.333 3.853 7.932 9.066 19.492 14.052 31.278 5.893 14.505 10.426 24.478 13.826 31.278 1.813 3.626 3.173 7.48 3.173 8.612s2.946 8.387 6.346 16.093c3.627 7.933 8.386 18.812 10.426 24.478 4.533 11.333 7.933 19.946 13.146 31.732 1.813 4.306 4.76 11.559 6.8 15.865 1.813 4.307 4.986 11.56 6.8 15.866 2.04 4.306 5.892 13.6 8.385 20.399 5.893 14.959 6.8 16.999 15.866 36.944 3.853 8.386 7.026 16.546 7.026 18.132s1.36 4.987 3.173 7.48c1.814 2.493 3.627 7.026 4.08 9.973.227 3.173 2.267 5.666 4.08 5.666 2.946 0 3.4-16.319 4.08-131.232.453-113.553 0-131.685-2.947-135.085-2.946-3.173-2.946-4.306 0-8.613 3.173-4.08 3.4-27.425 2.947-182.682l-.68-177.922-7.48-7.706c-4.08-4.307-11.332-8.84-16.092-10.426-12.013-3.4-70.942-3.4-74.569.226-1.586 1.587-2.72 7.933-2.72 14.053 0 23.798-8.386 22.892-9.52-.907l-.68-14.732h-38.53l-.68 13.599c-.68 17.905-1.813 20.625-6.12 16.999-2.266-1.813-3.4-7.026-3.4-14.506 0-14.279-2.493-17.226-14.958-17.226-10.2 0-14.96-3.626-9.747-7.026 1.814-1.133 37.171-2.04 78.422-2.04 64.823 0 76.836.454 84.995 3.853 5.44 2.04 11.56 5.213 13.826 7.027 7.48 6.573 8.84.68 7.933-33.772-.68-35.13-1.814-38.304-15.186-48.73-5.44-3.853-11.106-4.306-68.676-5.44-62.103-1.133-62.783-1.133-68.449-6.572-4.986-4.76-5.893-7.48-6.346-23.799-.68-15.639-1.36-18.586-5.213-20.625-8.84-4.533-14.28-9.293-20.172-17.906-10.2-15.186-7.027-36.038 7.706-50.544 8.16-7.932 22.212-11.785 25.158-7.026 1.134 1.587 2.04 27.652 2.04 57.797 0 51.903.227 55.076 4.307 57.343 2.72 1.36 25.385 2.266 58.25 2.266 53.943 0 67.995 1.587 76.155 8.613 2.266 1.813 5.44 2.72 7.48 1.813 3.172-1.133 3.626-10.879 2.946-91.114l-.68-89.754-8.84-7.707c-7.253-6.346-10.88-7.706-21.305-8.16-12.92-.68-18.132-4.759-9.52-7.479 7.027-2.266 26.746.907 30.825 4.987 1.814 1.813 4.987 2.72 6.8 2.04 6.12-2.267 2.04-17-7.026-25.839-6.8-6.346-9.293-7.253-20.172-7.253-12.466 0-18.133-3.173-12.466-7.253 4.76-3.173 29.918 0 33.09 4.307 5.667 7.253 9.52 1.586 10.2-14.506.454-11.786 1.36-15.412 4.08-15.412 2.04 0 3.626 2.493 4.08 6.8 1.586 17.451.906 16.998 21.532 16.998 33.091 0 33.544 8.386.453 9.52l-20.399.68-.68 6.572c-.453 3.4-.226 8.84.454 11.786 1.36 5.213 2.266 5.44 20.172 5.44 33.091 0 33.544 8.386.453 9.52l-20.399.68-.68 80.914c-.68 88.848-.906 86.128 12.466 77.289 4.307-2.947 12.693-4.306 32.638-5.213 14.733-.68 27.879-2.267 29.012-3.4 1.36-1.36 2.493-10.88 2.946-21.532l.68-19.265 60.743-.68c52.81-.454 60.516 0 60.516 2.946s-7.252 3.4-53.943 3.4c-38.984 0-54.623.68-56.663 2.72-1.587 1.586-2.72 8.386-2.72 15.412 0 26.292-4.306 29.465-40.57 29.465h-25.386l-9.52 8.84-9.519 9.066-.68 94.06c-.68 89.528-.453 94.288 3.4 94.288 2.267 0 6.573-2.04 9.746-4.533 4.987-3.853 9.52-4.533 39.664-4.533 27.199 0 35.132-.68 39.211-3.627 2.72-1.813 4.987-4.76 4.987-6.12.226-4.306 9.293-13.825 18.359-19.265 14.732-8.84 36.037-4.986 48.957 9.066 5.44 5.667 12.465 23.12 10.426 25.386-.907.68-34.678 1.36-75.25 1.36-81.367.226-82.274.453-93.607 14.732l-5.213 6.573-.68 134.632c-.453 116.952-.226 135.085 2.72 139.164 3.173 4.307 3.173 5.44.227 8.613-2.947 3.4-3.4 21.532-2.947 135.085.68 114.913 1.134 131.232 4.08 131.232 1.813 0 3.853-2.493 4.08-5.666.453-2.947 2.266-7.48 4.08-9.973 1.813-2.493 3.173-5.893 3.173-7.48 0-1.586 3.173-9.746 7.026-18.132 9.066-19.945 9.973-21.985 15.866-36.944 2.493-6.8 6.12-15.64 7.706-19.266 16.092-37.397 19.945-46.463 26.292-62.33 2.72-6.799 7.932-18.811 11.332-26.744 3.627-7.706 6.573-14.96 6.573-16.093s1.36-4.986 3.173-8.612c3.4-6.8 7.933-16.773 13.826-31.278 4.986-11.786 10.2-23.346 14.052-31.278 4.987-9.747 2.72-12.693-8.839-11.333-5.44.68-11.786 2.72-14.279 4.306-2.493 1.814-8.613 3.173-13.826 3.173s-13.146 1.587-17.452 3.4c-5.893 2.267-15.866 3.4-33.771 3.173-31.732 0-26.292-3.853 8.386-5.666 12.466-.68 26.518-2.72 31.278-4.533 4.533-1.813 12.013-3.173 16.546-3.173 4.306 0 10.199-1.587 12.919-3.4 3.4-2.04 10.426-3.173 19.945-2.946 9.293 0 17.452-1.134 21.532-3.174 3.627-1.813 10.2-4.986 14.506-7.026 24.478-10.88 49.184-24.025 60.516-32.411 3.853-2.947 7.933-5.44 8.613-5.44.907 0 5.44-2.72 9.973-6.346 10.2-7.706 15.865-11.106 22.212-13.826 2.493-1.36 5.44-3.4 6.346-4.533.68-1.36 3.173-2.493 5.44-2.493 2.04 0 4.986-1.133 6.573-2.72 2.72-2.72 16.092-8.16 25.385-10.2 3.173-.68 7.706-2.72 10.199-4.306 2.493-1.813 7.253-3.173 10.653-3.173 3.173 0 8.84-1.133 12.466-2.493 3.4-1.587 18.812-3.4 33.998-4.533 15.185-.907 28.784-2.267 30.144-3.173 1.587-.907 2.267-88.395 2.267-273.343 0-224.613-.453-272.21-2.947-273.117-3.853-1.36-31.051-5.213-53.036-7.253-9.066-.906-17.68-2.946-19.266-4.533-1.36-1.36-6.573-2.72-11.106-2.72s-9.52-1.586-11.106-3.4-5.893-3.4-9.52-3.4-7.025-1.36-7.705-3.399c-1.587-3.626-6.8-4.533-8.613-1.586-.68 1.133 2.72 6.12 7.253 11.106 27.198 29.464 39.437 44.423 41.93 50.996.907 2.267 2.267 4.08 3.627 4.08 1.133 0 2.493 1.813 3.4 3.853.68 2.267 3.4 7.026 5.893 10.88 2.493 3.626 5.44 8.839 6.8 11.332 1.132 2.493 3.172 6.12 4.306 7.933s2.72 5.213 3.4 7.253c1.586 5.213 10.199 5.213 11.785 0 1.814-5.213 7.707-20.399 11.333-28.785 7.48-17.452 9.52-22.892 10.426-27.198.453-2.493 1.813-4.307 2.946-4.08 2.494.68 4.534 138.485 2.267 147.778-1.813 7.252-4.986 3.4-6.346-7.707-.454-4.986-2.267-12.692-3.853-16.999-6.8-18.812-9.746-26.518-12.693-32.864-1.586-3.853-3.4-8.613-4.08-10.88-.68-2.04-3.853-4.986-7.026-6.12-3.173-1.132-5.666-3.626-5.666-5.439 0-1.586-1.587-3.626-3.4-4.533-1.813-.68-3.4-3.173-3.4-5.666s-1.133-5.213-2.493-5.893c-1.133-.907-3.173-3.853-4.533-6.346-3.626-8.84-28.332-43.065-40.344-56.89-14.28-15.866-45.557-45.784-56.89-54.624C812.732 17.515 789.16 1.876 783.948.063c-2.72-.68-4.76-2.493-4.76-3.626s-1.813-2.04-4.307-2.04c-2.266 0-5.44-1.587-7.026-3.4s-4.533-3.4-6.8-3.4-5.212-1.586-6.799-3.4c-1.586-1.813-4.533-3.4-6.573-3.4-2.266 0-5.893-1.586-8.386-3.4-2.267-1.812-6.573-3.4-9.066-3.4-2.72 0-6.12-1.586-7.706-3.399s-5.667-3.4-8.84-3.4c-3.4 0-8.16-1.586-10.653-3.4-2.266-1.813-7.932-3.4-12.465-3.4-4.307 0-9.973-1.586-12.466-3.399-2.267-1.813-8.84-3.4-14.506-3.626-5.666 0-12.693-.907-15.866-2.04-4.986-1.36-5.213-1.814-1.586-3.4 5.44-2.267 28.785.227 31.731 3.173 1.36 1.36 6.346 2.493 10.88 2.493 4.76 0 9.972 1.587 12.012 3.4 1.813 1.813 6.346 3.4 10.2 3.4 3.626 0 8.159 1.586 10.199 3.4 1.813 1.813 5.893 3.4 8.84 3.4 3.172 0 6.799 1.586 8.385 3.4 1.587 1.812 5.213 3.399 7.933 3.399s6.346 1.587 7.933 3.4 4.533 3.4 6.8 3.4 5.213 1.586 6.8 3.4 4.759 3.4 7.025 3.4 4.76 1.132 5.44 2.492c.907 1.134 3.853 3.4 6.346 4.533 2.72 1.134 8.16 4.08 11.786 6.573 3.853 2.493 8.387 5.213 10.2 6.12 1.813.68 4.306 2.72 5.213 4.533.906 1.587 2.72 2.946 3.626 2.946s8.84 4.533 17.452 10.2c8.387 5.666 16.546 10.2 18.133 10.2 1.36 0 3.853 1.586 5.44 3.399 1.586 1.813 4.759 3.4 7.026 3.4 2.04 0 5.44 1.586 7.479 3.4 1.813 1.813 5.893 3.4 8.84 3.4 3.173 0 6.8 1.586 8.386 3.4 1.586 1.812 6.12 3.399 9.972 3.399s9.067 1.36 11.56 3.173c2.493 1.587 11.332 3.626 19.718 4.306 8.613.68 17.453 2.494 19.946 3.854s12.466 2.266 21.985 1.813c16.093-.68 17.68-1.133 20.172-6.347 3.853-7.706 13.373-29.918 20.172-46.463 2.04-4.987 4.987-12.24 6.8-15.866 1.587-3.853 4.08-9.293 5.213-12.466 1.36-3.173 4.533-10.653 7.026-16.772 2.72-6.12 4.76-12.013 4.76-13.373s1.586-4.08 3.626-6.346 3.174-5.666 2.494-7.706c-1.36-2.947-23.12-3.4-198.095-3.4-165.456.227-198.094.68-205.8 3.4-6.8 2.493-21.08 3.4-57.797 3.4s-50.997-.907-57.796-3.4c-7.707-2.72-40.345-3.173-205.801-3.4-174.976 0-196.735.453-198.094 3.4m101.313 241.838c0 1.134 1.587 5.893 3.627 10.426 5.666 12.466 12.466 28.105 14.959 34.451 4.986 12.24 9.066 21.76 12.239 27.879 1.813 3.626 3.173 7.48 3.173 8.612s2.947 8.387 6.573 16.093c3.4 7.933 8.613 19.945 11.333 26.745s6.12 14.959 7.48 18.132c1.133 3.173 3.626 9.066 5.439 13.146 3.173 7.706 7.48 17.906 13.6 31.731 1.812 4.533 4.985 11.333 6.799 14.733 1.813 3.626 3.173 7.48 3.173 8.84 0 2.266 1.586 6.345 13.372 31.957 3.853 8.386 7.026 16.32 7.026 17.68s1.36 5.212 2.947 8.385c1.813 3.4 4.76 9.52 6.8 13.6 2.04 4.306 3.853 8.612 3.853 9.745s2.946 8.387 6.573 16.093c3.4 7.933 8.612 19.945 11.332 26.745 4.987 12.692 7.026 17.679 13.146 31.731 1.813 4.307 4.76 11.333 6.573 15.413 3.4 8.16 8.16 19.492 12.92 30.598 1.812 3.853 5.212 11.786 7.252 17.452 2.267 5.666 7.026 16.546 10.653 24.479 3.4 7.706 6.346 15.185 6.346 16.545s1.36 5.213 2.947 8.386c4.08 7.933 9.066 19.04 15.185 34.452 2.72 6.799 6.12 13.825 7.48 15.412 4.08 5.213-1.36 7.933-8.84 4.08-3.626-1.814-17.225-8.613-30.371-14.96-28.105-13.825-28.332-14.052-48.957-27.651-26.065-17.452-56.437-45.33-87.261-80.235-6.12-6.8-24.932-33.771-27.652-39.438-.907-1.813-3.626-6.573-6.12-10.2-4.533-7.252-19.038-35.81-24.478-48.73-1.813-4.306-4.76-10.879-6.346-14.278-1.814-3.627-3.174-8.613-3.174-11.333s-1.586-7.026-3.4-9.293c-1.813-2.493-3.4-7.48-3.4-11.106 0-3.4-1.132-8.613-2.719-11.332s-3.4-11.106-4.306-18.586c-1.134-7.48-2.947-20.172-4.08-28.332-3.627-22.212-2.947-80.461.907-101.313 1.813-9.746 3.4-21.306 3.4-25.612 0-4.533.906-9.066 2.266-10.426 1.133-1.133 3.173-6.8 4.306-12.24 1.133-5.666 3.4-13.825 4.76-18.132 11.333-31.958 17.905-45.783 20.625-44.197 1.134.907 2.04 2.493 2.04 3.853m729.369 4.533c4.306 9.293 7.48 17.453 14.052 35.811 1.36 4.307 3.627 12.466 4.76 18.133 1.133 5.44 3.173 11.106 4.306 12.239 1.36 1.36 2.267 5.893 2.267 10.426 0 4.306 1.586 15.866 3.4 25.612 3.853 20.852 4.533 79.101.906 101.313-1.133 8.16-2.946 20.852-4.08 28.332-.906 7.48-2.72 15.866-4.306 18.586-1.587 2.72-2.72 7.932-2.72 11.332 0 3.627-1.586 8.613-3.4 11.106-1.813 2.267-3.4 6.573-3.4 9.293s-1.36 7.706-3.173 11.333c-1.586 3.4-4.533 9.972-6.346 14.279-5.44 12.919-19.945 41.477-24.478 48.73-2.494 3.626-5.213 8.386-6.12 10.2-2.72 5.666-21.532 32.637-27.652 39.437-30.824 34.904-61.196 62.783-87.26 80.235-20.626 13.6-20.853 13.826-48.958 27.652-13.146 6.346-26.745 13.145-30.371 14.959-7.48 3.853-12.92 1.133-8.84-4.08 1.36-1.587 4.76-8.613 7.48-15.412 6.12-15.413 11.106-26.519 15.185-34.452 1.587-3.173 2.947-7.026 2.947-8.386s2.946-8.84 6.346-16.545c3.627-7.933 8.386-18.813 10.653-24.479 2.04-5.666 5.44-13.6 7.253-17.452 4.76-11.106 9.52-22.439 12.919-30.598 1.813-4.08 4.76-11.106 6.573-15.413 6.12-14.052 8.16-19.039 13.146-31.731 2.72-6.8 7.933-18.812 11.332-26.745 3.627-7.706 6.573-14.96 6.573-16.093s1.814-5.44 3.853-9.746c2.04-4.08 4.987-10.199 6.8-13.599 1.587-3.173 2.947-7.026 2.947-8.386s3.173-9.293 7.026-17.679c11.786-25.612 13.372-29.691 13.372-31.958 0-1.36 1.36-5.213 3.173-8.84 1.814-3.4 4.987-10.199 6.8-14.732 6.12-13.826 10.426-24.025 13.6-31.731 1.812-4.08 4.306-9.973 5.439-13.146 1.36-3.173 4.76-11.333 7.48-18.132s7.932-18.812 11.332-26.745c3.626-7.706 6.573-14.96 6.573-16.093s1.36-4.986 3.173-8.612c3.173-6.12 7.253-15.64 12.24-27.879 2.04-5.213 9.519-21.985 14.278-32.864 1.134-2.493 2.947-7.253 4.307-10.88 1.133-3.4 2.72-6.12 3.173-6.12.68 0 2.946 4.307 5.44 9.52M188.304 453.368c.454 4.987 2.267 12.693 3.853 17 6.8 18.811 9.747 26.518 12.693 32.864 6.12 14.279 19.492 41.024 23.799 47.597 2.266 3.626 4.986 8.386 5.892 10.2.68 1.813 4.307 7.026 7.933 11.559 3.4 4.533 6.347 9.292 6.347 10.652s.906 2.72 2.266 3.173c1.133.227 6.346 6.347 11.333 13.146 5.213 6.8 14.959 18.36 21.758 25.385 12.466 12.92 13.146 18.586 1.587 12.466-9.066-4.533-20.852-8.613-31.278-10.652-4.987-.907-12.013-2.72-15.866-4.08-3.626-1.36-17.452-2.947-30.598-3.627-14.732-.906-24.252-2.493-25.385-4.306-2.04-3.173-2.493-165.003-.453-170.443 2.266-5.44 4.76-1.36 6.12 9.066m794.871 75.929c0 45.557-.906 84.088-1.813 85.448-1.133 1.813-10.653 3.4-25.385 4.306-13.146.68-26.745 2.267-30.598 3.627-3.627 1.36-10.88 3.173-15.866 4.08-10.426 2.04-22.212 6.12-31.278 10.652-11.56 6.12-10.88.454 1.587-12.466 6.8-7.026 16.545-18.585 21.758-25.385 4.987-6.8 10.2-12.919 11.333-13.146 1.36-.453 2.266-1.813 2.266-3.173s2.947-6.12 6.347-10.652c3.626-4.533 7.253-9.746 7.933-11.56.906-1.813 3.626-6.573 5.892-10.199 7.253-11.333 23.572-45.784 30.145-63.463 8.16-21.532 9.293-25.385 10.2-32.864 1.586-12.693 2.72-15.186 5.213-11.333 1.36 2.04 2.266 38.984 2.266 86.128m-503.169-23.799c0 7.027-3.626 9.293-6.573 4.08-1.36-2.493-1.36-5.44 0-8.16 2.947-5.212 6.573-2.946 6.573 4.08m-.453 38.985c-.68 6.8-5.213 9.292-7.026 4.08-2.04-4.76.453-10.2 4.533-10.2 2.266 0 2.946 2.04 2.493 6.12m39.89-2.493c1.814 4.76-.226 7.706-5.665 7.706-2.72 0-4.307-1.587-4.307-4.08 0-7.706 7.48-10.2 9.973-3.626" style="stroke-width:.226653"/>
</svg>
