<svg xmlns="http://www.w3.org/2000/svg" width="1330" height="960">
    <path d="M119.34 272.85c0 3.12 3.64 21.321 8.32 40.043 27.043 113.892 36.404 146.655 46.805 171.617 4.16 9.361 7.28 21.322 7.28 26.003 0 5.2 3.64 14.041 7.801 19.762 4.16 5.2 7.801 13.521 7.801 17.681.52 11.442 41.084 91.01 65.006 127.413 23.403 35.883 81.128 95.69 104.01 108.17 65.007 34.324 110.772 50.446 192.42 68.127 133.133 29.123 172.657 47.325 228.302 107.651C802.687 975.959 819.328 990 823.49 990c16.121 0 17.161-56.165 2.08-109.21-15.081-53.046-65.526-117.012-121.172-154.976-11.441-7.8-21.842-15.602-23.402-17.162s-31.723-24.442-67.607-51.485c-35.883-26.522-67.087-50.965-70.207-54.085-2.6-3.64-19.762-17.162-37.444-30.683-17.681-13.521-35.363-27.563-39.003-31.203-5.72-5.72-99.85-82.168-154.976-125.853-44.204-35.363-89.968-73.327-124.812-103.49-45.244-39.004-67.607-52.005-67.607-39.004m1037.502-13.522c-11.441 3.64-35.884 10.401-54.606 15.602-18.722 4.68-36.923 9.88-40.044 10.92-10.92 3.12-7.28 22.883 6.241 35.364 7.28 6.76 13.001 14.042 13.001 16.642s-52.525 57.205-117.011 121.692C899.936 524.034 847.41 580.72 847.41 585.4s6.24 15.602 13.522 24.443l13.52 16.121 125.333-125.332 125.333-125.333 14.561 16.122c7.8 8.84 17.682 16.122 21.322 16.122 9.881 0 19.242-10.921 19.242-22.363 0-5.72 3.12-20.802 7.28-34.323 21.843-70.727 24.963-83.728 22.363-91.009-4.16-9.88-23.922-10.401-53.045-.52m-49.405-277.187c-9.881 2.6-28.603 7.8-41.604 11.96-13.002 3.641-31.723 8.322-41.084 9.882-9.881 2.08-23.923 6.76-30.683 11.44l-11.962 7.802 13.002 17.681c7.28 9.881 13.521 20.803 13.521 25.483 0 4.16-67.607 75.407-150.815 158.096C775.124 307.693 706.997 378.94 706.997 383.1c0 4.68 6.241 15.602 14.042 24.443l13.521 16.641L891.095 267.65c86.329-86.329 160.176-156.536 164.857-156.536 4.68 0 11.44 3.64 15.081 8.321 4.16 4.16 10.921 9.881 16.122 13.002 11.44 6.24 24.962-11.962 30.683-41.085 2.08-10.4 8.84-37.443 15.081-59.285 5.72-22.363 10.921-41.605 10.921-42.645 0-7.28-20.282-11.44-36.403-7.28m-806.08-55.646c-3.12 3.64-7.8 20.802-10.4 37.444s-6.761 42.644-9.882 58.246c-12.48 62.926-3.12 183.058 18.722 242.344 33.804 92.049 77.488 144.574 196.58 239.223 14.561 11.441 28.602 22.882 31.723 26.003 9.36 8.32 28.602 24.442 56.685 46.804 40.044 32.243 158.096 130.533 188.259 156.536 15.081 13.001 34.843 36.403 44.724 52.525 9.361 16.121 19.762 30.163 22.882 31.203 3.64 1.56 7.281-8.32 9.361-25.483 4.16-32.763-10.4-100.37-28.082-128.972-5.72-9.881-12.482-21.842-14.562-26.003-1.56-4.16-13.001-20.802-24.442-36.403-11.961-16.122-23.403-32.764-26.523-37.444-2.6-4.68-17.162-25.483-31.723-46.805-38.484-55.645-71.767-103.49-99.33-143.534-27.042-39.004-94.129-136.773-118.051-172.657-8.321-13.001-24.963-36.403-36.404-52.005-11.961-16.122-23.402-32.763-26.523-37.444-5.2-8.32-32.243-47.844-87.888-127.932-14.562-20.802-28.603-42.645-31.723-47.845-6.761-13.521-16.122-16.642-23.403-7.8m514.851-9.36c-40.564 13.52-69.687 21.841-82.688 23.402-6.76 1.04-15.081 5.72-18.202 10.4-4.16 7.281-2.08 12.482 11.441 26.523l17.162 17.682-68.127 68.127c-36.923 37.443-76.967 79.047-88.408 92.049-19.762 22.882-20.282 24.442-13.522 38.484 16.642 31.723 15.602 32.243 112.331-64.487 49.925-49.925 93.61-91.009 97.25-91.009 3.12 0 10.4 5.72 16.121 13.002 10.921 13.52 31.203 17.681 34.324 6.24 7.8-26.523 20.802-72.807 27.563-95.17 15.081-50.444 4.16-61.885-45.245-45.244" style="stroke-width:.520051"/>
</svg>
