<svg xmlns="http://www.w3.org/2000/svg" width="1163" height="960">
    <path d="M541.673-60c-2.44.232-5.754.374-5.608.323a120.2 120.2 0 0 1-44.548 5.447 117.17 117.17 0 0 0-32.12 50.036c11.512 21.909 21.927 41.757 31.595 60.163-8.512 9.534-17.198 19.307-25.179 28.246h-56.976c-9.648-9.545-18.942-18.758-28.205-27.923V28.046c-30.578-3.474-36.637 27.848-56.33 38.132v42.934c8.822 16.622 16.15 30.445 23.484 44.265-2.31 25.896-23.308 41.666-36.397 58.267-29.563 37.5-59.808 80.507-117.987 77.273-1.304-.074-2.929 5.866-4.398 8.998 16.14 39.965 55.492 46.262 90.427 61.657-16.765 15.045-32.95 29.54-42.207 37.85a37.81 37.81 0 0 0 14.042 47.694c10.23 0 20.575.011 30.909 0 3.55-2.41 6.944-5.05 10.37-7.626l.121-.04a9.5 9.5 0 0 1 4.48-2.381c.872-.195 3.546 2.477 3.348 3.349-.082.369-.295.587-.403.928l.161.161a5.783 5.783 0 0 1-2.017 7.708 154 154 0 0 1-13.68 9.845c-.49.29-1.038.416-1.533.686-11.853 13.493-31.769 15.888-49.148 25.785 6.765 15.182-9.482 19.277-15.454 27.52h-47.857c-17.208-15.718-17.219-15.695-38.293-16.625-1.244 24.911 27.612 30.053 42.974 52.375a10.18 10.18 0 0 0 7.142.121c.435-.267 3.7 4.053-5.084 3.027 3.05 10.38-8.045 10.784-9.886 1.695a10 10 0 0 1-.121-2.058c-15.962-2.141-23.69-11.774-33.41-11.097-7.387 31.376 22.25 48.23 23.282 70.13 20.962 16.83 43.894 16.057 74.246 22.516-36.388 13.615-49.23 44.125-78.443 50.964-10.733-3.652-18.642-22.967-32.967-2.583 5.661 11.48 11.79 23.928 17.916 36.357 20.833 17.206 45.673 9.294 68.275 11.379l10.773 10.774c-14.068 14.305-28.11 28.586-47.614 48.421-7.681 2.972-16.244-18.823-32.2-13.517a22.56 22.56 0 0 0-3.874 25.744c11.053 25.668 42.123 14.626 57.581 32.402 14.542-18.189 32.051-13.081 48.099-13.962 8.985-6.52 15.295-17.274 24.533-21.991 13.686 16.3-8.983 20.407-1.412 34.863 22.677-16.08 62.279-4.222 66.176-47.17 10.645 2.457 20.594-3.52 28.569 4.801v37.648c-2.442-1.99-4.863-3.98-7.304-5.972-6.688 11.44-13.391 22.865-18.521 31.635-21.108 0-37.997-.254-54.878.283-2.625.083-5.15 3.815-7.344 5.568l29.013 29.941c16.025-12.434 24.572 8.911 39.584 9.321a50.35 50.35 0 0 1 34.864-12.71c42.89-21.857 46.464-67.71 71.018-103.542 23.846 37.282 40.875 71.395 38.737 110.684a55541 55541 0 0 1-37.728 37.688c-12.696 6.67-29.186-6.016-40.513 7.868a83.65 83.65 0 0 0 88.248 24.776c1.175-30.529 20.474-55.53 24.291-82.357a6.37 6.37 0 0 1-2.138-2.946c-1.525-4.136-2.098-8.553-3.672-12.67a20 20 0 0 0-1.09-2.098l-.484-.727-.202-.322c-.291-.295-.613-.574-.726-.686a5.45 5.45 0 0 1-1.493-3.35 11.094 11.094 0 0 1 2.704-15.131 9.816 9.816 0 0 1 7.142 11.016 27.1 27.1 0 0 1 5.931 10.935c.262.897.464 1.795.687 2.703 6.07 1.624 3.193 10.187 4.236 16.665 6.102 37.885-22.316 72.517-9.563 111.572 11.182 7.221 15.98 23.704 32.08 26.591a79.4 79.4 0 0 1 16.422-48.825 6.2 6.2 0 0 1 .162-2.22 101.6 101.6 0 0 1 30.142-40.149c.837-11.904 1.774-23.721 2.946-35.186a119.04 119.04 0 0 1 19.57 68.476c47.905-12.002 51.587-55.695 71.583-89.055 12.525 13.956 24.797 27.623 37.809 42.127v54.716c-11.146 18.48-35.52 15.208-42.167 35.348 42.596 13.086 73.597-5.4 100.273-36.438a383.5 383.5 0 0 0-2.865-69.969c-5.435.942-6.019-4.373-7.183-9.523-.198-.872 2.437-3.504 3.31-3.308 5.148 1.164 10.463 1.747 9.522 7.182 38.08 34.77 36.168 40.985 20.014 87.764 7.09 9.38 17.262 3.622 25.543 5.246a64.71 64.71 0 0 0 32.038-65.692c23.511 38.776 56.104 48.152 85.908 65.611 45.161-.176 70.203-8.726 89.459-31.595-50.061-4.54-68.79-13.048-98.982-45.718v-76.91c-15.213-48.782-64.706-54.036-103.944-80.782h86.432c7.257-7.255 12.567-12.525 18.36-18.32-2.282-20.558 9.567-44.86-15.374-60.688-10.508 11.936-21.136 23.992-28.327 32.16h-45.597a101.2 101.2 0 0 1-69.242-72.511c6.123-6.76 21.478-15.084 6.416-28.69-10.984 12.918-28.15 14.103-41.723 23.363-9.151-18.804-31.12-6.02-41.038-16.06a42.15 42.15 0 0 1 12.267-42.287c-37.238-9.074-69.515 15.057-105.317-4.358-7.031-22.85-32.563-31.375-48.825-50.399-39.604 3.451-76.115-20.771-115.808-11.056-3.175-14.575-7.578-25.334 2.34-34.581a13.4 13.4 0 0 0 2.059.12c.28-1.323.662-2.619.887-3.954.105-.613.23-1.242.323-1.856l.04-.202v-.322c.108-1.052.217-2.091.283-3.148a48.5 48.5 0 0 0-.04-6.82 5.18 5.18 0 0 1 2.3-4.559c-.59-5.724 2.247-11.168.686-14.082-2.389-10.354-12.418-8.717-18.602-11.299a5.14 5.14 0 0 1-3.47-.645 48 48 0 0 1-5.206-4.358 31 31 0 0 1-3.752-4.64 4 4 0 0 1-.242-.606h-14.648v-11.298a19.48 19.48 0 0 1-6.295-12.67c-6.924-3.07-4.965-10.823-2.26-21.104h28.327a145 145 0 0 1 16.1-7.869c1.96-2.267 4.786-4.428 7.183-7.626a16.62 16.62 0 0 0-7.586-11.58 4.92 4.92 0 0 1-4.358-2.624c-.187-.429-.281-.86-.444-1.29a19.5 19.5 0 0 1-7.062-9.564c5.186-5.186 10.36-10.362 14.204-14.204l.202.202a77.6 77.6 0 0 1 10.895-8.312c3.61-2.37 7.349-4.564 11.056-6.78 1.607-.96 3.225-1.9 4.802-2.905l.282-.202c.416-.462.903-.844 1.291-1.331.44-.597.828-1.245 1.251-1.856.017-6.446.035-12.876.04-19.328a89.54 89.54 0 0 1-55.2-67.266c2.733-20.893 22.12-43.926 34.702-69.888a27.11 27.11 0 0 1 24.655-16.423 68 68 0 0 0 5.044-5.407 5.53 5.53 0 0 1 3.994-1.655 4 4 0 0 1 .444.081 9.6 9.6 0 0 1 4.358-2.22c.46-.103 1.371.575 2.139 1.373a46 46 0 0 1 8.796-3.148c35.037-8.343 65.053 32.718 53.426 64.643a43.9 43.9 0 0 1-4.278 23.363 5.637 5.637 0 1 1-9.724-5.69c.192-.339.348-.66.524-1.008l.202-.363.202-.484.322-.888c.248-.755.384-1.527.566-2.3a3.96 3.96 0 0 1-.323-1.977 45.6 45.6 0 0 0 .363-7.021 5.15 5.15 0 0 1-.202-2.099 69 69 0 0 0-4.318-18.844 135 135 0 0 1-10.814-28.286 40.8 40.8 0 0 0-20.982-5.77 43.97 43.97 0 0 0-22.597 9.16 28.86 28.86 0 0 0 20.216 22.879c14.192 5.398 25.59 11.52 24.897 28.326-8.518 11.725-21.754 1.073-33.855 10.734v34.016l.121.242c.3.623.595 1.25.928 1.856a37 37 0 0 0 2.22 3.55l.484.687.201.242c.253.306.543.594.808.888 25.7 7.116 25.644 11.776 24.573 44.91-6.817 1.586-8.956-20.76-16.665-28.407a6.2 6.2 0 0 1-2.26-.08 26.24 26.24 0 0 1-13.275-8.11 5.595 5.595 0 0 1-7.586-2.099 42 42 0 0 1-3.107-7.546c-1.445.022-3.007 0-4.68 0a163.7 163.7 0 0 0-22.557-56.37 27.8 27.8 0 0 0-16.02 6.658c-8.803 9.532 2.825 46.282 2.825 46.282a131.04 131.04 0 0 0 67.104 41.925c-5.036 17.415-12.589 27.99-26.954 29.295a3.8 3.8 0 0 1-.686.969c-.84.652-1.76 1.13-2.623 1.735a24.2 24.2 0 0 1-4.963 4.438 4.9 4.9 0 0 1-2.744.646 449 449 0 0 0-8.07 4.923l.12.242a5.74 5.74 0 0 1-3.954 6.94 12 12 0 0 0-1.574.888l-.403.404q-.216.335-.404.686a12.5 12.5 0 0 0-.444 1.654c-.063.754-2.821 7.155-2.824 7.909 5.62 5.73 14.163 5.891 20.256 12.105a29.58 29.58 0 0 1-25.139 24.09 6 6 0 0 1-.282.726 6.43 6.43 0 0 1-3.55 2.744l-.768.323c-2.011.87-3.95 1.895-5.891 2.905a8.92 8.92 0 0 1-8.675 4.52c-.496.256-.955.516-1.453.766a6.04 6.04 0 0 1-7.062-.968c-.35.008-.747-.025-1.089 0a18.18 18.18 0 0 0-12.146 3.39 6.23 6.23 0 0 1 3.47 5.366l.04.565a12 12 0 0 0 .404 1.533 14 14 0 0 0 .969 1.614 26 26 0 0 0 3.55 3.39 27 27 0 0 1 2.059 1.493c2.452 1.747 4.904 3.466 7.182 5.447a4.95 4.95 0 0 1 1.654 2.986c.097.025.184.01.283.04a6.67 6.67 0 0 1 3.55 2.744l.041.04a31.2 31.2 0 0 0 4.681 4.681c.275.166.447.448.686.646h20.458c4.794 5.127 9.851 10.548 14.97 16.02-3.877 6.855-7.94 14.014-12.065 21.305a7.1 7.1 0 0 1 .928 2.865 66.4 66.4 0 0 1-1.573 18.279 7.6 7.6 0 0 1 1.009 1.291c1.213 3.388-.8 5.378-2.946 7.385-.163.657-.32 1.32-.484 1.977a5.53 5.53 0 0 1-3.188 3.672 8.14 8.14 0 0 0 1.372 5.326H574.72c1.48 1.012 2.764 2.134 4.156 3.188-2.738-6.3-5.471-12.619-7.747-19.127a5.21 5.21 0 0 1 1.291-5.124 193 193 0 0 1 2.22-51.045 5.3 5.3 0 0 1-.283-1.371 175 175 0 0 1 2.22-25.26c4.53-24.053 17.616-32.6 34.5-49.955a4.83 4.83 0 0 1 2.46-2.623l.082-.04a4.9 4.9 0 0 1 4.479-1.332 140.6 140.6 0 0 1 30.868-28.448c6.16-3.888 11.808 5.902 5.69 9.766a213.5 213.5 0 0 0-44.467 45.475 5.04 5.04 0 0 1-4.52 1.493 117.3 117.3 0 0 0-13.679 25.825 6.5 6.5 0 0 1 .283 2.462l-.162.484c3.754-1.37 3.103 2.522-1.25 4.479-.768 2.281-1.654 4.533-2.543 6.779-.286.726-.473 1.48-.726 2.219a85.6 85.6 0 0 0-1.574 16.867 5.05 5.05 0 0 1-1.25 3.43 81.1 81.1 0 0 0 6.093 47.17c9.899 14.077 11.497 32.075 20.215 46.848a5.01 5.01 0 0 1 .202 5.004c7.56 10.386 14.257 20.869 21.467 30.465 40.466-26.863 88.583 5.867 115.727-12.308 51.634-3.976 77.643 24.505 102.21 47.655 20.877-20.877 38.963-38.966 60.486-60.486 1.544-9.8-5.666-26.925 4.157-41.4 9.954-2.26 19.94 3.68 27.6-4.6-1.539-13.166-17.243-1.881-20.58-12.025-.528-8.843-1.062-17.698-1.533-25.583-8.96-3.057-15.503-5.295-24.816-8.474l.323-.16a61.9 61.9 0 0 1-23.646-9.443 23.68 23.68 0 0 1-9.886-15.576 102 102 0 0 1-.887-11.016 69 69 0 0 0-.202-2.824c-.017-.207-.134-1.068-.162-1.332-.044-.242-.152-.446-.201-.686-2.406 1.027-4.78 2.027-7.223 2.946a8.47 8.47 0 0 1-6.214 8.554 74.3 74.3 0 0 1-33.088 29.74 91.8 91.8 0 0 1-49.511 6.576 42.585 42.585 0 0 1-42.45 32.887 55.9 55.9 0 0 1-29.94-10.693 100 100 0 0 1-12.348-10.451 78.4 78.4 0 0 1-9.724-10.007 47.24 47.24 0 0 1-10.855-29.295 9.8 9.8 0 0 1-3.188 3.43c-5.193-3.616-5.228-7.32-.161-10.936a5.1 5.1 0 0 1 5.084-4.237c.374-1.271.705-2.564 1.21-3.833.755-1.894 1.618-3.702 2.543-5.488-.966-.8-1.94-1.957-1.816-2.502a7.667 7.667 0 0 1 7.667-6.738l.161-.242c.837-1.165 1.723-2.293 2.623-3.43a8.15 8.15 0 0 1 5.568-6.537 161 161 0 0 1 6.215-6.416 7.86 7.86 0 0 1 5.447-5.084 393 393 0 0 1 7.99-7.062 7.3 7.3 0 0 1 1.13-.645 609 609 0 0 1 45.556-49.027c35.496-2.317 69.624-3.173 96.762 27.963 0 12.759-.449 27.328.242 41.845a9.9 9.9 0 0 0 2.099 5.649 118 118 0 0 0 8.07-3.026l1.493-.646a9.04 9.04 0 0 1 4.196-1.13c15.346-22.069 41.079-37.481 41.522-67.629 58.792-22.368 71.374-74.325 85.544-125.572a144 144 0 0 0-51.448-25.341C886 143.52 833.35 134.766 791.851 97.49a143.8 143.8 0 0 0-75.053-33.774c-22.953-2.665-43.683-10.202-64.764-14.446-.416.025-.838.076-1.25.08a49 49 0 0 1-7.426-.766 26.4 26.4 0 0 1-5.971-1.654 17.06 17.06 0 0 1-7.546-4.399l-1.816-2.34c-.988-.37-1.987-.702-2.986-1.049-.2.054-.405.16-.605.202a54.6 54.6 0 0 1-38.374-8.958 89.55 89.55 0 0 1-27.278-23.969 12.2 12.2 0 0 1-2.017-5.326 18.3 18.3 0 0 1-4.278-7.102 17.21 17.21 0 0 1 11.945-21.023c2.63-.593 5.184-1.4 7.787-2.098a231.4 231.4 0 0 1-24.775-25.906 25.3 25.3 0 0 0-5.77-4.963M706.307 138.89h37.325c5.57 8.347 19.314 12.056 27.964 25.018l-5.206 5.286a28.6 28.6 0 0 1-1.291 10.45c-5.14 15.365-40.755 28.53-40.755 28.53a85 85 0 0 1-8.715 1.21c-1.253.097-28.045-1.21-28.045-1.21 2.659-11.897 10.616-18.726.444-31.313l-58.509-2.785c26.71-11.507 57.912-12.083 76.788-35.186m201.353 54.636c6.078 0 11.452 2.59 17.956 7.828 1.09 1.054 16.252 7.17 20.499 4.56a89 89 0 0 1 8.594 9.2c-5.859 5.277 2.342 19.014-3.308 17.875a16.24 16.24 0 0 1-8.999-11.096c-.27-1.33-11.588.53-11.5-.283-16.573-3.293-37.646 11.317-45.476-20.256 9.353-5.238 16.156-7.828 22.234-7.828m114.396 145.87c-8.741 10.988-19.086 24-29.134 36.638h-113.59c-1.296 2.348-2.517 4.694-3.914 6.98a47 47 0 0 1-3.39 4.4 8.9 8.9 0 0 1 2.825 3.792 42 42 0 0 1 2.058 12.832c.1 2.116.213 4.221.323 6.335a4 4 0 0 1 0 .565l.121.444c.195.96.413 1.883.686 2.824l.08.242a12 12 0 0 0 .687 1.17 2.3 2.3 0 0 0 .322.404c.364.366.737.764 1.09 1.13l.565.484c1.043.7 2.079 1.379 3.188 1.977a39 39 0 0 0 2.098 1.05l.847.403c.7.28 1.432.429 2.139.686a5.54 5.54 0 0 1 2.502-.565c16.451.017 32.874.443 49.309 1.09 34.816-6.242 70.323-4.276 102.129-17.957-12.933-14.393-7.832-32.776-8.474-50.076-.206-5.536-.741-10.25-12.468-14.849m-318.412 36.638a102.3 102.3 0 0 0-24.412 28.085 32.28 32.28 0 0 0 6.335 37.688 56.1 56.1 0 0 0 36.316 22.717c11.512.592 29.435-8.64 28.81-21.749a6.25 6.25 0 0 1 4.56-6.618 7.74 7.74 0 0 1 8.918-4.6 75.34 75.34 0 0 0 44.104-4.963 61.2 61.2 0 0 0 27.761-26.067 7.6 7.6 0 0 1-1.694-1.816 61.2 61.2 0 0 1-6.093-12.549 36.7 36.7 0 0 1-1.614-10.128zm-314.78 285.323a13.14 13.14 0 0 1-.645 17.23 6 6 0 0 1 .968 6.74 166 166 0 0 0-8.393 22.515 92.3 92.3 0 0 0-3.026 24.05 5.64 5.64 0 0 1-11.258 0c.014-3.6.301-7.191.645-10.774a5.54 5.54 0 0 1-9.764-3.672 53.2 53.2 0 0 1 5.81-20.176c1.384-2.82 2.905-5.568 4.358-8.353.76-1.453 1.52-2.914 2.22-4.398.313-.669.596-1.34.887-2.017l.08-.122.122-.322.403-1.05a6.75 6.75 0 0 1 1.776-2.582 88.7 88.7 0 0 1 15.817-17.069" style="stroke-width:1.2"/>
</svg>
