<svg xmlns="http://www.w3.org/2000/svg" width="1520" height="960">
    <path d="M814.76.016c-48.222 1.614-96.513-1.837-144.764 3.269-11.385 1.205-22.547 4.179-34.116 4.49-4.428.12-8.615 5.968-13.139 6.316a91 91 0 0 0-12.773 3.887c-21.868 4.47-43.72 8.906-65.488 13.917a182 182 0 0 0-41.812 15.328 184.5 184.5 0 0 0-47.826 35.338c-8.308 8.5-16.984 16.664-25.167 25.278-18.209 19.167-41.262 31.538-63.345 45.176-11.683 7.216-24.993 11.851-36.512 19.28-20.065 12.94-41.11 23.928-62.267 34.83-24.07 12.405-48.302 24.47-71.247 39.036a540 540 0 0 0-48.715 37.052 129.1 129.1 0 0 0-29.816 38.02c9.017.104 11.891-6.583 16.17-10.616 16.16-15.237 32.244-30.353 55.506-33.974 11.567-1.8 23.085-3.89 34.021-5.744l7.506 8.22h24.61c-6.377 5.097-10.997 8.787-15.867 12.678 5.05 2.842 13.455-2.44 17.2 7.791v12.853c3.879 3.4 6.634 7.86 10.077 8.474 12.711 2.267 24.644 9.028 37.988 7.347a32.05 32.05 0 0 1 19.39 4.935c5.879 3.097 11.655 6.445 17.218 10.076 14.059 9.176 28.435 17.973 41.812 28.07a172 172 0 0 1 32.37 28.928 311 311 0 0 1 34.53 47.89 98.3 98.3 0 0 1 12.551 29.72c-10.17-9.598-18.584-20.45-27.912-30.434-11.759-12.586-24.69-24.067-36.353-36.735a159.8 159.8 0 0 0-66.964-45.017c-11.98-4.013-23.622-11.148-37.908-8.379l-5.522 8.394a57.8 57.8 0 0 1 21.755 29.753l-8.617 2.682c10.17 8.518 17.936 17.026 18.963 29.387a195.1 195.1 0 0 0-70.724 18.264h53.777l14.678 13.107c-1.17 11.766-.892 23.07-2.984 34.672a234.6 234.6 0 0 0-.507 51.54 42.4 42.4 0 0 0 5.712 18.898 102.5 102.5 0 0 0 43.955 39.083c22.329 11.276 46.527 16.9 69.85 25.151a75 75 0 0 0 20.026 3.316 44.95 44.95 0 0 1 30.736 13.345 47.2 47.2 0 0 1-16.915-4.506c-6.361-3.405-12.087-1.157-18.772-1.238 7.365 10.213 20.075 10.92 26.119 22.12a37.07 37.07 0 0 1 3.285 35.164 289.4 289.4 0 0 1 78.42 122.723c8.554 1.975 15.652 3.617 22.738 5.253l8.998-9.49c2.493-17.803-11.123-33.272-9.87-54.586 9.455 19.716 17.481 36.465 25.754 53.714l23.865-29.07c-1.21-15.413-2.556-32.684-3.904-49.953-.046-.59.25-1.44-.047-1.746-6.903-7.089-1.977-15.254-1.54-23.151l24.549 79.102c6.288-7.885 12.038-15.117 17.724-22.247 3.644 2.662 5.087 5.975 7.95 6.808 1.718-13.037 3.943-24.877 4.665-36.814.788-13.027.175-26.136.175-39.21v-9.505l8.188 1.333c-4.39 14.267 1.931 26.954 2.665 40.193.756 13.622 2.703 27.18 4.364 42.987l7.902-12.155h15.853l.523 8.87c3.649 1.506 6.524 2.684 9.394 3.872 4.639-3.137 9.28-6.27 14.012-9.473a24.8 24.8 0 0 0 15.82 9.79v-21.136l7.331.889v23.58c6.803-5.6 11.422-9.388 15.44-12.695l13.9 9.41 9.108-4.729.825-8.743h15.186l8.347 11.663c3.326-29.29 6.4-56.4 9.52-83.878l5.665 1.586a140 140 0 0 1-.079 14.504c-2.513 23.424 4.83 46.128 3.745 69.2l7.982-7.981c6.897 8.648 12.667 15.864 18.946 23.738l24.39-78.499a64.3 64.3 0 0 1-.905 25.595 397 397 0 0 0-4.634 48.826l24.136 29.039c8.375-17.494 16.267-33.963 24.15-50.429 1.74 18.462-10.745 34.118-6.41 51.19l6.522 9.664c8.514-1.926 15.574-3.516 22.548-5.094a423 423 0 0 1 18.994-45.604 272.2 272.2 0 0 1 45.351-61.52c5.577-5.568 10.379-11.912 15.424-17.773-7.326-7.303-2.518-15.267-4.332-22.31a127.6 127.6 0 0 1 13.82-19.074 113 113 0 0 1 18.725-12.186c-7.448-1.22-13.893-3.996-20.549.936a52.8 52.8 0 0 1-17.74 3.967 58.38 58.38 0 0 1 34.862-14.186 63 63 0 0 0 24.563-5.459c4.662-1.628 9.067-4.142 13.821-5.316a189.3 189.3 0 0 0 68.328-28.72 65.66 65.66 0 0 0 32.101-56.951 225 225 0 0 0-.54-39.13 176.5 176.5 0 0 1-2.935-36.005c4.75-5.454 8.62-9.906 12.9-14.821h54.603a342 342 0 0 0-33.83-12.885 195.3 195.3 0 0 0-36.783-5.062c2.658-6.93 5.184-13.493 7.664-19.962 5.567-1.178 10.037-3.129 9.442-9.87l-6.094-2.443c3.538-12.773 13.231-21.622 21.502-31.419-2.698-2.928-4.617-5.019-6.602-7.172a152.8 152.8 0 0 0-61.6 20.295 144.9 144.9 0 0 0-41.574 33.418c-10.282 11.5-21.737 21.947-32.624 32.91-2.886 2.906-5.712 5.885-8.33 9.03-3.648 4.378-6.862 9.13-10.648 13.376-3.992 4.476-8.442 8.553-15.456 15.566 22.21-55.892 55.863-100.498 148.795-152.38 10.172-1.774 20.261.5 30.815-3.158 10.132-3.511 21.07-3.982 29.007-14.186v-16.265l16.36-3.57c-4.72-3.913-9.078-7.52-15.74-13.044h25.467l7.442-7.458a162.4 162.4 0 0 1 29.912 4.697 72.7 72.7 0 0 1 37.75 16.456c9.664 8.35 19.164 16.832 28.451 25.595a65.3 65.3 0 0 0 9.06 5.601 90 90 0 0 0-5.22-12.218 198.4 198.4 0 0 0-49.223-48.525 446.6 446.6 0 0 0-66.566-41.209c-28.01-14.176-56.712-27.2-83.64-43.209-20.028-11.905-40.713-22.702-60.394-35.195a235.2 235.2 0 0 1-43.748-32.101c-10.816-11.034-22.162-21.568-32.672-32.879-14.16-15.237-33.734-22.495-49.778-34.893-13.903-1.653-25.769-9.558-39.623-12.282-13.532-2.661-27.183-5.717-40.701-8.934-8.652-2.059-17.31-3.658-25.818-6.553a154 154 0 0 1-18.438-7.3 128 128 0 0 0-19.788-3.618 105 105 0 0 0-26.579-.555C831.461 3.798 823.72-.284 814.76.016m321.677 463.156a83.05 83.05 0 0 1 15.964 38.924c.55 4.34 2.89 8.455 3.332 12.79a67 67 0 0 1-5.76 27.848c-7.172 21.516-22.535 34.6-45.478 42.638-13.23 4.635-26.386 2.41-37.687 3.284a94.6 94.6 0 0 1-45.858-42.066 177 177 0 0 0-.492 19.407 91.4 91.4 0 0 1-3.824 41.828 57.06 57.06 0 0 1-37.735 39.099 80.6 80.6 0 0 1-47.302 5.268c-21.871-4.192-41.002-15.12-46.763-39.924-1.384-5.957-2.997-11.868-4.634-18.328-17.505-3.23-21.36-2.404-38.21 7.918a158.7 158.7 0 0 0-29.324-9.473 84.6 84.6 0 0 0-17.153-1.079 49.12 49.12 0 0 0-34.355 23.406c-8.241-3.45-9.846-12.73-17.328-15.646a125.5 125.5 0 0 0-17.566-4.888 55.7 55.7 0 0 0-21.5-.904 63.5 63.5 0 0 0-25.136 9.299 64.1 64.1 0 0 0-40.21-10.33 113.5 113.5 0 0 1-7.124 26.832 48.21 48.21 0 0 1-33.688 30.07 86 86 0 0 1-56.728-1.777 62.32 62.32 0 0 1-41.971-54.983c-.663-6.806-7.749-13.597-3.316-19.597 5.97-8.08 1.413-15.442 3.538-25.404-7.843 9.22-13.744 16.104-19.597 23.04-18.994 22.506-44.88 22.889-68.804 13.345-14.002-5.586-29.137-12.349-36.147-28.213a105.4 105.4 0 0 1-7.283-14.758 54.25 54.25 0 0 1-3.491-24.912c3.153-12.225 1.865-25.766 9.965-36.798a90.6 90.6 0 0 0 7.267-14.79 22.8 22.8 0 0 1 21.676 8.823c11.435 12.435 22.546 25.175 34.084 37.512a69.4 69.4 0 0 0 31.308 23.263c23.217 6.577 47.286 3.432 70.994 5.316a91.66 91.66 0 0 1 43.59 14.598c16.197 10.961 33.965 19.291 49.682 31.213h25.595l6.38-9.347c6.661 3.945 14.052 8.325 22.69 13.44 6.257 0 15.627.403 23.184 0a262 262 0 0 0 26.452-4.141c9.042-2.83 10.18-15.086 15.233-23.025 0-9.543-2.821-20.287.698-28.213 4.49-10.111 1.749-19.504 2.666-29.102.897-9.387.19-18.917.19-29.483l5.395-.666a13.8 13.8 0 0 1 1.667 4.094 59 59 0 0 1 .015 10.663c-2.672 24.03 4.833 47.536 3.587 71.771 3.418 6.032 7.216 12.126 10.41 18.534 3.627 7.283 13.63 5.012 22.12 6.601 7.2 1.349 42.859 1.11 54.791-11.409l5.348 8.76c23.05 7.68 38.08-6.421 54.776-15.551 14.489-7.923 27.078-19.089 43.955-23.04a124 124 0 0 1 31.244-6.221 298 298 0 0 0 35.608-.175c13.785-1.346 28.624-2.77 39.638-11.282a239.6 239.6 0 0 0 30.181-31.784 127 127 0 0 1 32.958-30.482 36.5 36.5 0 0 1 8.283-1.793m-152.73 40.527c3.415-.013 6.126.077 7.903.301-46.739 15.124-137.076 22.537-171.185 12.171 13.784-3.035 27.35-2.291 38.338-4.205 9.58-1.668 20.193-1.064 33.433-2.174 9.495-.796 67.611-6.003 91.511-6.093m-445.272 1.19a974 974 0 0 1 83.862 3.792 18.3 18.3 0 0 0 6.823 1.492c21.089-2.638 52.95 5.558 74.12 5.046-32.112 3.94-137.887 8.431-179.769-10.25a974 974 0 0 1 14.964-.08m219.121 180.435h4.824c4.227 7.251-2.97 16.757 4.999 23.295-2.355 6.436-4.132 11.315-7.236 19.803-3.174-8.36-5.01-13.179-6.03-15.868 1.293-10.233 2.348-18.56 3.443-27.23m-17.106 95.764c-7.022 8.265-16.463 7.38-26.769 7.252a41 41 0 0 0 .08 8.917c4.488 16.111 7.349 32.585 11.091 48.826a115.7 115.7 0 0 0 13.869 38.591c1.13 1.72 3.415 2.692 7.045 5.411v-14.662c0-14.224-.535-28.478.159-42.669.699-14.29 2.623-28.518 3.872-41.336zm39.163.428-8.807 8.522c-1.404 18.82 5.322 36.825 3.729 55.617-1.184 13.955-.238 28.103-.238 41.94l6.331.856a285 285 0 0 0 11.219-31.8 204 204 0 0 0 7.728-34.29c.68-11.287 8.747-21.638 6.172-34.244a31.52 31.52 0 0 1-26.134-6.6m61.266 2.714c-5.544 7.755-13.845 1.63-19.105 4.855-6.936 22.414-4.588 45.349-9.854 67.582a380.6 380.6 0 0 0-10.854 68.217 31.7 31.7 0 0 0 8.157-5.824 422 422 0 0 0 51.539-109.505c-7.039-8.958-13.37-17.036-19.883-25.325m-163.536 2.126-17.502 22.755c8.59 34.292 25.534 63.923 39.575 94.764 7.594 5.618 8.117 18.13 19.55 20.454a347.5 347.5 0 0 0-10.664-67.313c-5.393-22.682-2.498-46.278-10.235-67.93zm198.224 12.726a25.5 25.5 0 0 0-4.84 6.744c-2.742 9-4.919 18.179-7.283 27.293-4.874 18.786-8.042 37.924-13.964 56.538a323.4 323.4 0 0 0-17.455 70.153 67.25 67.25 0 0 0 21.073-22.216 112 112 0 0 1 11.837-19.946 197.7 197.7 0 0 0 30.689-64.027c1.552-4.668 4.087-9.018 7.442-16.233l-3.792-21.248c-4.81-5.88-9.136-11.155-13.964-17.058zm-242.4.207a83 83 0 0 1-4.38 7.934c-11.702 16.465-15.58 24.527-6.506 41.383a60 60 0 0 1 2.253 6.173 402 402 0 0 0 18.154 44.097c9.098 16.613 21.365 31.48 30.926 47.874 3.843 6.588 10.078 7.285 14.837 13.25-1.357-8.42-2.399-14.462-3.269-20.533-.33-2.299.45-4.995-.476-6.935a216.5 216.5 0 0 1-13.996-45.906c-1.324-5.788-6.396-11.055-6.632-16.693-.79-18.802-9.882-35.698-11.362-54.332a53.3 53.3 0 0 0-7.379-16.312zm-39.274 31.847a26.68 26.68 0 0 0-20.39 10.14c13.74 32.32 28.503 63.42 56.823 85.782a16 16 0 0 0 1.286-3.094 6.3 6.3 0 0 0-.016-3.507 933 933 0 0 1-32.688-88.956 26.7 26.7 0 0 0-5.015-.365m332.087.063a25 25 0 0 0-4.777.556c-5.24 16.421-10.887 31.842-15.487 47.667-4.64 15.962-15.73 29.818-17.613 49.048 29.901-24.325 45.441-55.248 58.267-87.496a25.23 25.23 0 0 0-20.39-9.775" style="stroke-width:8.12443"/>
</svg>
