<svg xmlns="http://www.w3.org/2000/svg" width="1244" height="960">
    <path d="M1035.146 297.829c-5.147 1.286-11.581 5.147-14.154 8.578-3.003 3.432-7.292 6.005-9.437 6.005s-15.012 8.579-28.738 18.873c-26.164 20.16-62.194 59.191-96.937 105.515-31.74 42.035-48.04 54.903-70.773 57.905-39.46 5.147-42.892 6.863-73.775 38.175-120.1 119.67-147.98 154.842-187.87 232.477-19.73 39.033-43.75 51.9-46.323 24.878-.858-9.865 3.431-19.302 18.015-39.461 17.586-23.591 25.735-42.893 16.728-38.603-2.145.429-23.591 22.304-48.469 48.468-24.449 25.736-69.486 72.489-99.51 103.8C363.877 895.322 339 922.773 339 925.347c0 6.862 50.184 6.005 88.788-1.716 66.483-13.297 108.947-30.025 168.567-65.626 58.763-35.6 99.94-70.344 186.583-156.986 119.67-120.1 122.244-123.102 122.244-140.688 0-19.73 6.862-27.88 31.74-36.888 32.17-11.58 41.606-27.88 35.172-61.336-3.003-14.154-1.716-17.157 18.015-38.603 23.59-25.307 18.015-24.02 86.643-21.018 21.017.858 24.02 0 35.172-12.438 30.024-33.886 2.144-88.788-46.753-92.648-11.152-.858-24.878-.43-30.025.429m62.623 42.892c11.152 14.155 11.152 22.304.858 34.743-16.728 19.73-51.9 6.434-51.9-19.73 0-24.878 35.172-35.172 51.042-15.013M948.503 462.536c5.576 3.002 8.15 9.007 8.15 19.302 0 21.875-22.733 31.311-39.462 16.299-21.446-19.302 4.719-49.756 31.312-35.601M673.562 695.014c11.58 12.438 10.723 22.304-2.574 33.027-11.58 9.007-15.012 8.578-28.309-3.003-10.294-8.578-9.865-17.586 1.716-29.596 11.58-12.438 18.015-12.438 29.167-.428m231.62-558.461c0 2.144 3.002 4.289 6.433 4.289s6.434-2.145 6.434-4.29c0-2.573-3.002-4.289-6.434-4.289s-6.433 1.716-6.433 4.29m32.598-6.434c-4.29 3.002-6.434 8.15-4.718 10.723 2.144 3.431 5.576 2.145 11.152-3.86 12.868-13.726 9.007-18.444-6.434-6.863m-32.598-30.025c0 3.431-1.716 6.434-3.86 6.434s-6.864 4.718-10.724 10.723c-6.863 10.294-6.863 10.723 2.145 10.723 5.147 0 9.865-3.431 11.152-8.578 1.287-4.719 5.147-8.579 8.15-8.579 3.43 0 6.004 3.86 6.004 8.579 0 4.718 2.574 8.578 6.005 8.578 11.152 0 9.866-10.294-2.144-22.304-13.297-13.726-16.728-14.583-16.728-5.576M542.74 95.376c-54.045 28.309-108.948 74.204-138.114 116.239-10.724 15.44-36.46 67.34-43.75 87.93-9.437 26.164-21.447 91.36-21.876 116.238 0 44.18 18.444 117.955 41.177 162.563 24.449 48.04 91.79 124.388 109.805 124.388 3.86 0 15.441-8.15 24.877-18.015l17.586-18.443-27.88-24.878c-62.194-55.331-94.363-117.097-105.944-203.31-8.579-61.337 5.147-132.11 35.6-185.725l6.434-12.868c11.581-26.594 71.202-88.359 104.23-109.376 22.303-13.726 38.174-30.883 38.602-42.035 0-10.294-10.723-8.578-40.747 7.292m270.223-48.469c-1.716 2.574.857 5.576 6.005 6.863 6.004 1.287 9.007 5.576 9.007 12.439 0 12.439 6.863 17.157 15.441 9.865 7.721-6.434 13.726-1.287 6.863 5.576-3.002 3.003-5.147 7.72-5.147 10.723 0 8.579 12.01 6.863 20.16-3.002 4.289-4.718 9.007-8.579 10.723-8.579 6.433 0 3.431 10.295-6.005 20.16-6.863 7.72-8.15 11.152-4.29 15.012s8.579.858 20.589-11.152c12.439-12.868 14.583-17.157 9.865-20.16-3.431-2.144-8.15-3.86-10.723-3.86-3.003 0-6.005-3.002-7.72-6.434-1.287-3.431-6.006-6.433-10.295-6.433-4.718 0-10.723-3.003-13.726-6.434s-8.578-6.434-12.867-6.434-9.866-3.003-12.868-6.434c-6.434-7.72-11.152-8.15-15.012-1.716m-239.77-6.005c-11.58.858-25.306 4.718-30.025 8.15s-12.438 6.005-16.728 6.005c-11.152 0-86.643 37.316-112.378 55.331-51.042 36.459-102.942 93.077-127.82 139.83-16.299 30.882-37.316 80.638-37.316 88.787 0 4.719-2.145 12.44-4.719 17.157-3.002 5.148-7.291 31.74-10.294 59.192-11.152 98.224 10.723 193.446 63.481 280.946 21.017 34.743 87.501 105.087 99.51 105.087 6.006 0 36.46-30.883 36.46-36.888 0-2.144-13.726-17.585-30.454-33.885-39.461-38.603-79.351-99.94-93.935-143.69-17.157-52.329-21.446-79.78-21.446-140.687 0-68.628 6.005-97.366 32.17-157.416 3.002-7.292 6.862-15.87 8.149-19.301 18.444-42.464 83.64-117.526 128.677-147.55 39.033-25.736 99.511-54.045 117.526-54.474 14.584-.43 37.317-13.297 37.317-21.447 0-6.434-6.863-7.72-38.175-5.147m8.15-35.172c-2.145.43-18.873 3.432-36.459 6.434-53.187 8.15-90.932 20.16-143.69 45.895-38.174 18.873-40.748 20.16-79.351 48.898-44.18 33.027-102.513 92.219-111.52 112.378-2.145 4.718-15.442 27.023-29.168 48.04-2.573 4.718-6.434 11.58-7.72 15.012-1.716 3.432-8.15 18.444-15.013 33.456-6.862 14.584-12.439 28.738-12.439 31.312s-3.002 13.726-6.433 24.878c-30.883 96.508-25.307 228.617 13.296 321.265 10.295 24.02 19.73 45.466 23.591 52.329 1.716 3.431 7.72 14.154 12.439 23.162 19.73 36.458 75.92 102.942 104.229 123.53l12.439 8.579 16.728-16.3c9.007-9.007 16.728-18.872 16.728-21.875s-11.152-16.299-24.878-30.024c-24.02-23.591-60.478-69.057-66.483-82.783-1.716-3.431-6.863-12.439-11.581-19.302-4.718-7.291-9.865-15.87-11.152-19.301-1.716-3.432-8.15-18.444-15.013-33.456-6.862-14.584-12.438-29.596-12.438-33.457 0-3.431-2.145-10.294-4.29-14.583-16.299-30.025-24.02-147.55-13.725-205.884s36.458-128.678 66.483-178.004c51.9-85.357 158.703-168.997 249.635-196.448 12.01-3.432 31.74-9.437 44.18-13.297 13.296-4.29 33.884-6.863 50.612-6.434 23.162.858 29.596-.429 36.888-7.72 4.718-5.148 7.292-11.153 6.005-13.726-2.574-4.29-40.748-6.005-51.9-2.574m117.525-26.164c-3.002 6.005-6.862 11.152-9.007 11.152-1.716 0-3.431 2.145-3.431 4.718s-5.148 12.01-11.581 20.589c-6.863 8.578-13.726 18.872-16.3 22.733-2.144 3.86-15.87 23.59-30.024 44.179-28.31 40.748-37.317 54.473-46.753 71.202-6.434 11.152-6.005 11.58 4.718 14.583 6.005 1.287 31.311 2.574 56.618 2.145 24.878-.43 48.04-.43 51.042-.43 5.576.43 7.292 15.87 1.716 19.302-2.145 1.287-22.733 30.883-45.895 65.626-23.591 34.743-47.61 70.344-54.045 78.922-6.434 8.15-13.296 20.16-14.583 26.594l-3.003 11.58h60.479c70.344 0 69.915-.428 44.608 37.317-9.007 12.868-19.302 27.88-22.733 33.456s-18.015 27.023-32.17 47.182c-14.154 20.589-27.88 40.32-30.024 44.18-2.574 3.86-7.72 12.438-12.01 18.872-4.718 6.434-6.863 13.726-5.147 16.3 1.287 2.144 18.015 4.289 37.745 4.289h34.743l47.611-48.469c25.736-27.022 53.616-52.329 61.336-56.19l14.155-7.291-13.297-16.3c-6.863-9.435-12.868-18.014-12.868-19.73 0-1.286-6.433-11.152-14.583-21.875-22.733-29.596-19.73-31.74 47.182-31.74 54.044 0 57.476-.43 57.476-8.15 0-4.718-15.87-31.74-35.172-60.478-19.73-28.31-37.317-54.903-39.89-59.192-2.145-3.86-13.297-20.16-24.449-35.601-11.58-15.87-20.588-30.883-20.588-33.456 0-5.576-1.287-5.147 64.338-4.718 60.479 0 64.768-1.716 51.472-24.02-5.576-9.437-15.442-23.591-21.447-31.74-6.434-8.15-12.867-18.016-14.154-21.447-8.579-18.873-83.64-122.244-90.075-123.53-4.289-.858-9.007 2.573-12.01 9.436" style="stroke-width:.428925"/>
</svg>
