<svg xmlns="http://www.w3.org/2000/svg" width="1200" height="960">
    <path d="M385.838 0 252.1 135.545 118.362 271.091l2.711 212.354 2.711 212.355 130.124 128.316c72.29 71.387 135.545 131.027 140.063 132.834 5.422 2.711 103.918 3.615 217.776 2.711l207.836-1.807 131.028-131.027L1081.638 695.8V262.054L950.61 131.027 819.584 0H602.71zm47.893 40.664h337.96l131.93 132.834 132.835 133.738v343.382l-127.413 129.22-126.509 128.316H422.887L296.378 779.838 169.87 650.618V478.927l-.903-171.69L301.8 173.497zm2.71 45.181L323.488 199.703 209.63 312.658v332.538l111.148 112.05L431.02 870.202l168.98.904 168.98.903L881.934 758.15l113.858-112.954V312.658L881.934 199.703 768.98 85.845H602.71zm11.748 36.146h309.947l101.207 101.207 100.304 101.207V633.45L858.44 734.656 757.233 835.863l-158.137-1.807-159.04-.904-96.689-99.4-97.592-100.303V324.405l101.207-101.207zm29.82 45.182-93.978 93.074-93.074 93.978v247.596l93.978 94.882 93.978 93.978h245.789l94.881-93.978 94.882-93.978V355.129l-93.978-93.978-93.978-93.978H602.711zm18.977 27.109H709.34l88.556 89.46 89.46 88.556v212.354l-89.46 89.46-89.46 89.46H600.904l-106.63-.903-87.652-89.46-88.556-88.557v-211.45l89.46-89.46zm103.009 59.81c-30.91 0-59.995 6.364-87.722 17.728-26.818 11.363-50.912 27.723-71.821 48.632-21.364 20.454-36.815 44.549-48.179 71.821-12.272 28.636-18.182 57.722-18.182 87.722s5.91 59.547 18.182 88.184c11.364 27.272 26.815 50.915 48.179 71.37 20.909 21.363 45.003 37.268 71.821 48.631C540 700 569.086 705.91 599.995 705.91c30.454 0 60.002-5.91 88.184-17.729 26.818-11.363 50.457-27.268 71.821-48.632 20.454-20.454 36.817-44.551 48.18-71.37 11.82-28.181 17.73-57.729 17.73-88.183s-5.91-59.995-17.729-87.722c-11.363-27.272-27.726-51.367-48.18-71.821-21.364-20.91-45.003-37.269-71.821-48.632-28.637-11.364-57.275-17.729-88.184-17.729m-2.678 31.363.406.002a7 7 0 0 1 .39.036c2.46.259 15.66 1.887 22.337 3.141l5.46 1.368a5 5 0 0 1 .347.009c.959.068 1.12.39 2.148.436a6 6 0 0 0 .23.009l.027.009c1.277.427 2.147.851 2.62.897h.079a1.1 1.1 0 0 1 .399.097c.24.1.479.25.72.32a1 1 0 0 0 .249.043 5 5 0 0 1 .293.01c1.027.055 1.1.412 1.473.444h.053l2.725.905a1.5 1.5 0 0 1 .364.062c.363.1.859.3 1.5.542a26 26 0 0 0 .861.31c.418 0 .84 0 1.262.355a2 2 0 0 1 .106.099 1 1 0 0 1 .214.018c.427.081 1.038.353 1.447.416a1 1 0 0 0 .15.018c13.795 4.732 26.914 11.173 40.528 19.913a249 249 0 0 1 6.293 4.181 122 122 0 0 0 2.992 2.247c2.918 2.132 5.645 3.998 8.373 6.384l10.91 10.005 10.448 10.91a8 8 0 0 0 .223.578c.382.9.855 1.405 1.892 2.44l.159.16 2.273 2.727a9.7 9.7 0 0 1 1.98 2.458 5.4 5.4 0 0 1 .293.729 15 15 0 0 1 .683.718c.86.982 1.22 1.722 1.589 2.459a147 147 0 0 1 10.049 15.111 204 204 0 0 1 6.322 11.708 101 101 0 0 1 5.309 11.71 138 138 0 0 1 2.868 8.292l1.82 6.357 1.367 4.093c0 .91.451 2.275.906 4.093 0 1.364.45 2.276.905 3.64 0 1.363.46 2.72.46 4.083l.454 2.274c0 .381 0 .686.035.94a1.4 1.4 0 0 0 .417.88 64 64 0 0 0 .009 1.429c.027 1.122.117 2.008.445 2.663 0 3.182.452 5.004.452 8.186v4.084a3.7 3.7 0 0 1 .32 1.046c.137.814.142 1.822.142 3.045v1.821l-.462 2.272v4.092a64 64 0 0 1-.01 1.43c-.027 1.123-.115 2.009-.442 2.663v4.084l-.906 4.093v1.82l-.453 2.273-.915 4.093c0 1.363-.45 2.267-.905 3.63l-.452 2.273v.915c-.39.39-.453.783-.462.887v.018l-.906 4.093-.905 1.82-.462 2.273-1.358 3.63a5 5 0 0 1-.009.293c-.059.982-.417.746-.444 1.864v.116l-.915 1.82-.905 1.82a1 1 0 0 1-.027.213c-.081.427-.354 1.038-.418 1.447a1 1 0 0 0-.009.16 1038 1038 0 0 1-2.476 5.15 124.4 124.4 0 0 1-13.893 23.481 132.5 132.5 0 0 1-11.534 13.733 189 189 0 0 1-10.733 10.36 119.6 119.6 0 0 1-20.845 14.57 148 148 0 0 1-5.974 3.16c-5.307 3.096-11.048 5.318-16.797 7.111-.085.03-.182.117-.258.133a1 1 0 0 1-.222.026c.16-.05.32-.109.48-.159.377-.128.812-.31 1.146-.577a2 2 0 0 0 .194-.17c.809-.267 1.778-.865 2.815-1.588a78 78 0 0 0 2.183-1.597l4.546-3.178a9 9 0 0 1 .897-.782c1.064-.823 2.133-1.342 3.196-2.406l2.272-1.81 2.273-1.82a2.5 2.5 0 0 1 .143-.357c.473-.923 1.236-.696 1.65-1.846l.026-.07 2.274-1.82 4.093-3.641 3.63-4.545a206 206 0 0 0 1.28-1.269c1.118-1.14 1.938-2.054 2.306-2.727l.055-.088a111 111 0 0 0 7.04-9.49c2.246-3.309 4.496-6.793 6.96-10.38l.088-.132a211 211 0 0 0 7.795-16.263 153 153 0 0 0 3.569-9.188 142.6 142.6 0 0 0 5.54-24.415 271 271 0 0 0 .826-6.046 111 111 0 0 0 .815-13.805c0-6.478-.478-13.154-1.269-20.286a1.1 1.1 0 0 0-.07-.337c-.123-.387-.386-.894-.39-1.917v-.925l-.454-.914c0-1.818-.454-3.181-.454-4.545l-1.366-4.546c0-.91-.45-2.264-.905-4.082l-1.368-4.547a1.1 1.1 0 0 0-.062-.346c-.122-.386-.385-.895-.39-1.918v-.01l-.907-1.819-1.366-4.544-.905-1.82a1.1 1.1 0 0 0-.117-.445c-.163-.377-.48-.878-.797-1.828a140.6 140.6 0 0 0-16.594-31.748 175 175 0 0 0-.674-.976 162.8 162.8 0 0 0-56.845-50.612 182 182 0 0 0-2.246-1.207l-1.366-.454-.906-.462a9 9 0 0 1-.462-.159c-.655-.26-1.05-.519-1.36-.773a7 7 0 0 1-.451-.425 3.46 3.46 0 0 1-1.564-.41 2.9 2.9 0 0 1-.71-.505l-1.367-.453-1.357-.452a3.5 3.5 0 0 0-.88-.63c-1.022-.532-2.178-.563-3.169-1.227a3.4 3.4 0 0 1-.498-.416l-1.366-.454-.905-.452a1.5 1.5 0 0 1-.366-.061c-.363-.1-.868-.301-1.509-.542a26 26 0 0 0-.86-.31 1.1 1.1 0 0 1-.435-.117c-.373-.164-.887-.471-1.837-.79l-1.36-.453h-1.367l-.381-.196c-.905-.44-2.356-1.104-4.12-1.518a15 15 0 0 0-.497-.105l-.906-.454h-1.366l-2.727-.914a5 5 0 0 1-.284-.01c-.981-.058-.745-.415-1.863-.442h-.124a1.1 1.1 0 0 1-.4-.09c-.241-.1-.478-.26-.719-.329a1 1 0 0 0-.249-.035h-1.357l-5.007-1.366h-1.359l-1.368-.454a42 42 0 0 1-.879-.009c-.882-.018-1.496-.094-1.846-.444a109 109 0 0 0-5.388-.657 55 55 0 0 0-5.069-.257 1.3 1.3 0 0 0-.595-.311c-.345-.091-.787-.123-1.323-.132a47 47 0 0 0-.809-.01h-2.271c-1.818 0-3.634-.453-5.452-.453h-5.459c-1.818 0-3.634.454-5.452.454h-2.725a1.1 1.1 0 0 0-.346.07c-.386.123-.895.377-1.918.381h-.01l-5.46.463c-1.818 0-3.632.452-5.45.452l-2.725.453c-.454.455-1.364.452-2.273.452l-5.46 1.368-4.999 1.359-2.725.46-2.725.906-4.998 1.368c-13.182 5-25.911 10.455-38.184 18.182-12.273 7.272-22.731 15.45-33.186 25.905a1108 1108 0 0 0-4.723 5.201 172.4 172.4 0 0 0-21.182 27.522c-7.273 12.273-12.275 24.549-17.275 37.73l-.117.355c-.222.714-.32 1.143-.47 1.465a1.6 1.6 0 0 1-.319.454l-.453 2.725-.914 2.273a5 5 0 0 1-.01.355c-.067.959-.39 1.116-.435 2.139a6 6 0 0 0-.01.231l-1.365 5.007-.454 2.273-.905 2.726-.915 4.998v.905l-.453 1.368v2.725h-.452a190.945 190.945 0 0 1 174.84-177.485 206 206 0 0 1 15.42-.692zm-67.776 83.64c-.154.047-.306.102-.46.15-.38.127-.818.316-1.155.586a2 2 0 0 0-.196.169c-.809.268-1.778.857-2.815 1.58a78 78 0 0 0-2.192 1.599l-4.544 3.185a9 9 0 0 1-.89.782c-1.064.823-2.13 1.333-3.194 2.397l-2.274 1.82-2.273 1.82a2.5 2.5 0 0 1-.15.347c-.473.923-1.23.705-1.643 1.855l-.026.07-2.274 1.82-4.092 3.632-3.64 4.545a206 206 0 0 0-1.269 1.28c-1.118 1.14-1.949 2.043-2.317 2.716l-.044.097a111 111 0 0 0-7.05 9.49c-2.245 3.309-4.488 6.793-6.951 10.38l-.089.131a211 211 0 0 0-7.795 16.255A153 153 0 0 0 468.64 445a142.6 142.6 0 0 0-5.549 24.405 271 271 0 0 0-.815 6.045 111 111 0 0 0-.826 13.814c0 6.477.487 13.145 1.278 20.277a1.1 1.1 0 0 0 .07.346c.123.386.379.896.383 1.919v.923l.452.905c0 1.818.463 3.181.463 4.545l1.357 4.546c0 .91.461 2.275.916 4.093l1.357 4.545a1.1 1.1 0 0 0 .07.337c.123.386.379.896.384 1.918v.018l.914 1.82L470.45 540l.914 1.822a1.1 1.1 0 0 0 .117.434c.163.377.472.887.79 1.837a140.6 140.6 0 0 0 16.601 31.739 175 175 0 0 0 .674.984 162.8 162.8 0 0 0 56.836 50.613 182 182 0 0 0 2.255 1.209l1.36.452.914.453a9 9 0 0 1 .46.168c.655.259 1.05.518 1.36.773a7 7 0 0 1 .451.425 3.5 3.5 0 0 1 1.555.4c.29.15.541.328.718.506l1.36.453 1.365.46a3.5 3.5 0 0 0 .87.633c1.023.531 2.18.552 3.17 1.216a3.4 3.4 0 0 1 .507.425l1.368.454.905.451a1.5 1.5 0 0 1 .364.062c.363.1.859.301 1.5.542a26 26 0 0 0 .861.302 1.1 1.1 0 0 1 .443.116c.373.164.88.48 1.83.798l1.366.454h1.36l.38.196c.905.44 2.356 1.104 4.12 1.517a15 15 0 0 0 .506.106l.906.454h1.367l2.726.905a5 5 0 0 1 .284.01c.981.058.745.424 1.863.451h.126a1 1 0 0 1 .39.09c.24.1.486.251.727.32a1 1 0 0 0 .24.044h1.368l4.998 1.359h1.366l1.359.46a42 42 0 0 1 .888 0c.882.018 1.496.104 1.846.454a109 109 0 0 0 5.381.656 55 55 0 0 0 5.069.25 1.3 1.3 0 0 0 .595.319c.345.09.785.123 1.322.132a47 47 0 0 0 .808 0h2.273c1.818 0 3.64.462 5.459.462h5.452c1.818 0 3.64-.462 5.459-.462h2.727a1.1 1.1 0 0 0 .337-.062c.386-.122.894-.385 1.916-.39H635l5.452-.453c1.818 0 3.64-.452 5.459-.452l2.727-.454c.454-.454 1.362-.46 2.27-.46l5.453-1.36 4.998-1.367 2.734-.452 2.727-.905 4.996-1.368c13.182-5 25.911-10.455 38.184-18.182 12.273-7.273 22.722-15.451 33.177-25.906a1108 1108 0 0 0 4.732-5.201 172.4 172.4 0 0 0 21.182-27.53c7.273-12.274 12.268-24.54 17.268-37.722l.124-.364c.222-.714.312-1.133.462-1.456a1.6 1.6 0 0 1 .328-.454l.452-2.733.905-2.274a5 5 0 0 1 .01-.346c.068-.959.399-1.125.444-2.147a6 6 0 0 0 .01-.232l1.358-4.998.452-2.273.914-2.725.906-4.998v-.915l.453-1.359v-2.733h.463a190.945 190.945 0 0 1-174.842 177.485 206 206 0 0 1-16.982.7 7 7 0 0 1-.391-.035c-2.46-.26-15.66-1.898-22.337-3.152l-5.45-1.357a5 5 0 0 1-.355-.01c-.959-.068-1.122-.399-2.15-.444a6 6 0 0 0-.22 0l-.027-.01c-1.277-.426-2.155-.85-2.628-.896l-.08-.009a1 1 0 0 1-.39-.088c-.242-.1-.487-.251-.728-.32a1 1 0 0 0-.24-.045 5 5 0 0 1-.293-.01c-1.027-.054-1.101-.41-1.474-.442H565l-2.727-.915a1.5 1.5 0 0 1-.363-.054c-.364-.1-.868-.308-1.51-.55a26 26 0 0 0-.852-.301c-.418 0-.837 0-1.26-.355a2 2 0 0 1-.107-.099 1 1 0 0 1-.212-.026c-.427-.082-1.038-.353-1.447-.417a1 1 0 0 0-.161-.009c-13.795-4.731-26.904-11.172-40.517-19.913a249 249 0 0 1-6.296-4.181 122 122 0 0 0-2.991-2.247c-2.918-2.132-5.644-4.004-8.371-6.39l-10.91-9.997-10.46-10.91a8 8 0 0 0-.213-.587c-.382-.9-.854-1.397-1.89-2.434l-.17-.158-2.271-2.734a9.7 9.7 0 0 1-1.972-2.46 5.4 5.4 0 0 1-.301-.719 15 15 0 0 1-.675-.72c-.859-.982-1.23-1.722-1.599-2.458a147 147 0 0 1-10.04-15.11 204 204 0 0 1-6.32-11.71 101 101 0 0 1-5.311-11.72 138 138 0 0 1-2.875-8.282l-1.81-6.366-1.369-4.092c0-.91-.45-2.266-.905-4.084 0-1.364-.46-2.276-.915-3.64 0-1.363-.453-2.729-.453-4.092l-.452-2.274c0-.381.001-.686-.035-.94a1.4 1.4 0 0 0-.419-.88 64 64 0 0 0-.009-1.42c-.027-1.123-.126-2.009-.453-2.663 0-3.182-.452-5.002-.452-8.184v-4.093a3.7 3.7 0 0 1-.32-1.04c-.136-.813-.134-1.83-.134-3.053v-1.811l.454-2.273v-4.093a64 64 0 0 1 .009-1.43c.027-1.122.117-2.008.445-2.662v-4.093l.914-4.093v-1.81l.452-2.274.905-4.091c0-1.364.46-2.278.914-3.641l.454-2.273v-.906c.39-.39.443-.783.452-.888v-.026l.916-4.084.905-1.82.452-2.273 1.368-3.64a5 5 0 0 1 .009-.283c.059-.982.416-.746.443-1.864v-.125l.907-1.82.914-1.81a1 1 0 0 1 .018-.214c.082-.428.353-1.047.416-1.456a1 1 0 0 0 .018-.15 1038 1038 0 0 1 2.478-5.15 124.4 124.4 0 0 1 13.885-23.49 132.5 132.5 0 0 1 11.54-13.725 189 189 0 0 1 10.733-10.36 119.6 119.6 0 0 1 20.845-14.57 148 148 0 0 1 5.976-3.159c5.312-3.099 11.051-5.327 16.806-7.121.081-.028.175-.109.247-.124a1 1 0 0 1 .213-.026zm73.641 26.81c46.364 0 84.091 37.726 84.091 84.09 0 46.363-37.727 84.09-84.09 84.09-46.819 0-84.544-37.727-84.544-84.09s37.725-84.09 84.543-84.09" style="stroke-width:.903636"/>
</svg>
