<svg xmlns="http://www.w3.org/2000/svg" width="1405" height="960">
    <path d="M1250.152 678.16c-.583 2.366-.91 5.096-.91 7.863v.29c.8 3.277 1.82 6.153 3.13 8.846l-.11-.254c-7.898 5.605-17.144 11.393-26.681 16.744l-1.602.8c-17.909 8.883-33.306 19.584-46.884 32.215l.11-.109a24.67 24.67 0 0 1-18.092 7.863h-.692.036c-4.44.327-8.517 1.055-12.485 2.184l.437-.11-9.137-16.598-48.413 9.646c1.747-13.796 11.612-24.607 4.732-38.621-11.102-9.792-25.044-16.635-40.405-19.256l-.473-.073-26.354 15.216a26 26 0 0 1-.764-6.261c0-.437 0-.874.036-1.31v.072c1.274-5.715 3.166-11.32 4.804-17.036-9.5-10.192-21.403-12.376-32.797-15.033-3.02-.619-6.734 1.529-9.682 3.203-5.606 3.203-10.811 7.171-16.38 10.447-2.075.837-4.514 1.42-7.026 1.675h-.11c-1.128-10.447 7.754-18.492 3.532-28.793l-32.288-12.96-27.082 17.837-4.623-3.276c3.24-10.665 8.409-20.493 7.207-32.942l-23.332-12.45-43.9 25.153c-3.385-11.357 8.227-19.401 3.64-30.394-2.22 0-5.096-1.202-6.88-.255-15.47 8.117-30.722 16.453-39.421 33.125-12.595 23.915-15.034 47.03 1.965 70.217 6.043 8.99 12.85 16.817 20.53 23.66l.11.11c14.014-3.313 24.097-14.197 39.276-19.22l-11.43 31.45c6.916 10.593 20.275 9.828 29.521 17.145 15.034-7.207 28.247-18.055 46.739-25.845l-12.74 35.782c6.952 9.028 18.418 9.974 27.846 14.233 13.869-6.297 24.862-16.926 40.587-21.658 0 12.74-9.319 20.93-10.265 32.797 6.916 7.061 15.47 5.314 23.842 1.638 13.687-6.006 27.082-12.522 40.806-18.71 3.421-1.566 7.061-2.548 11.83-4.26 2.002 14.16-9.282 23.334-8.627 35.892 7.899 8.627 18.783 2.366 28.793 5.023l2.766 5.315c-3.713 14.16-6.188 27.92-10.92 40.914-11.43 31.232-32.506 54.02-64.83 63.556-3.967 1.165-8.517 1.82-13.213 1.82a49.04 49.04 0 0 1-24.607-6.588l.218.109c-30.394-16.09-61.735-30.54-92.676-45.683-14.779-7.208-29.157-15.398-44.3-21.659-18.928-7.79-38.657-13.65-59.588-11.32-28.793 3.203-57.695 4.659-86.561 6.88-31.56 2.402-63.046 1.783-94.496 1.237-.62-.036-1.347-.036-2.075-.036-12.195 0-23.588 3.458-33.234 9.427l.255-.145c-2.002 1.201-3.968 2.439-8.009 4.95 12.559-25.407 28.611-42.953 54.856-49.213 13.396-3.058 24.389-6.298 35.127-10.084l-2.22.692c19-7.062 35.017-18.237 47.648-32.542l.11-.146c1.346-2.366 2.657-5.169 3.822-8.117l.145-.473a151 151 0 0 1-12.74 10.701l-.4.292c-18.055 13.322-38.804 20.275-60.608 23.624-27.992 4.295-48.813 19.583-64.975 41.497-5.933 8.445-13.723 15.215-22.75 19.838l-.365.182c-34.398 17.4-62.427 42.917-86.743 72.474-12.048 14.742-23.333 30.322-35.927 46.848 4.259-22.35 15.252-40.878 21.73-62.791C368.852 940.5 335.909 977.81 305.26 1020c-1.93-3.276-3.968-7.244-5.751-11.32l-.292-.729c-6.006-16.817-11.611-34.034-12.958-51.834-2.075-28.211 4.623-54.42 24.097-76.15 7.608-8.446 78.407-68.325 78.917-68.908-.364.765-61.19 46.011-63.228 47.831-13.25 11.357-24.716 24.243-34.29 38.44l-.437.69c-1.856 3.022-4.258 5.498-6.806 8.737-25.08-25.59-55.62-45.756-89.728-58.605l-1.71-.583 23.405-15.87c.473-35.6-8.263-68.325-35.855-97.627 13.796 3.021 24.243 5.57 34.726 7.899 36.11 8.08 69.235 2.439 97.3-23.37q20.493-18.71 41.642-36.728c22.97-19.584 49.978-28.429 79.973-28.757.255 0 .546.037.873.037 3.495 0 6.735-.947 9.537-2.585l-.072.037a39.3 39.3 0 0 0-9.064-2.548l-.219-.037c-33.852-.546-65.485 6.953-92.494 28.284-15.034 11.757-28.975 24.57-43.135 37.274-10.92 9.792-22.24 18.892-36.983 21.84-6.37 1.42-13.723 2.257-21.258 2.257-.874 0-1.711 0-2.585-.036h.11c-22.387-.764-43.39-6.006-60.207-21.55-4.077-17.217-6.553-34.653-12.486-50.815-5.715-15.652-15.033-30.103-23.005-45.428 9.61-10.338 22.277-15.252 34.653-20.057 16.017-6.115 34.654-10.665 53.983-12.776l1.019-.11c22.204-2.802 44.227-6.697 66.213-10.738 27.373-4.987 54.638-10.52 81.902-16.089 8.99-1.784 16.999-4.696 24.352-8.663l-.473.218-39.131 6.006c-18.055 3.021-36.292 6.006-54.565 8.409-23.697 3.021-47.43 5.715-71.2 8.372-11.867 1.31-23.806 2.148-35.709 3.349-18.31 1.82-34.617 9.21-50.015 18.673-11.43 7.062-22.277 15.034-34.216 23.333a45.7 45.7 0 0 1 1.31-8.554l-.073.328c12.631-37.966 38.221-64.83 71.928-85.033 29.485-17.654 64.175-29.921 101.23-34.544l1.275-.145c18.273-2.403 37.092-.4 55.62-1.31 32.433-1.603 64.866-3.022 97.117-6.189 21.695-2.184 43.245-6.843 62.755-17.654 1.056-.874 2.002-1.857 2.73-2.949l.037-.036 1.674-1.93-1.274 2.33c-8.08 2.075-16.344 3.786-24.279 6.334-16.09 5.023-34.617 7.935-53.8 7.935h-.62.037c-41.06.692-82.12-.291-123.144.219-55.584.691-105.708 17.618-149.17 52.635-7.935 7.026-15.18 14.306-21.913 22.095l-.255.292a15.8 15.8 0 0 0-2.111 5.569v.11l-3.24-2.44c1.238-13.14 2.62-26.245 3.676-39.385 1.274-15.398 3.713-30.905-1.492-45.975-3.021-8.372-6.734-16.416-10.847-26.208a174 174 0 0 1 17.545-11.576l.873-.473c42.59-21.44 78.954-43.9 113.207-69.088l-2.184 1.528c12.85-9.282 27.41-16.234 41.133-24.315a78 78 0 0 0 10.301-6.589l-.182.146c-1.456.91-24.316 8.226-33.489 12.813-25.662 12.995-47.685 27.01-68.215 42.88l.983-.728c-9.027 6.989-18.82 13.177-27.956 20.093-15.725 12.049-33.998 17.545-53.509 23.187 10.738-31.85 13.541-63.992 18.637-95.734 4.223-27.264 9.974-51.216 17.473-74.366l-.947 3.348c10.01-30.831 32.106-45.537 61.518-52.126 9.5-2.147 19.328-3.02 30.103-4.477l-41.388-28.647c52.163 15.543 101.595 29.011 153.794 34.58 9.21-9.828 17.254-19.583 26.463-28.028a334 334 0 0 1 32.76-26.573l1.02-.691c6.734-4.368 12.158-10.193 15.907-17.109l.11-.254c11.32-22.787 20.311-46.193 22.313-72.256 2.22-23.224 5.387-43.863 9.683-64.102l-.656 3.64c4.26-22.423 8.773-44.882 14.706-66.94 4.987-18.674 11.758-36.911 18.492-55.075 1.31-3.567 6.188-5.788 9.027-8.336 27.41 6.006 41.17 25.262 50.561 48.158 12.74 30.795 21.44 63.228 37.165 92.786 18.055 33.889 36.983 67.269 55.693 100.866 4.842 8.7 10.083 17.182 15.07 25.809 8.445 14.414 20.203 24.461 36.984 27.773 15.251 3.022 27.082 11.649 38.548 21.695 18.783 16.453 38.73 31.414 61.627 42.152 27.41 12.85 51.179 31.196 73.092 51.799a198.7 198.7 0 0 0 34.909 26.609l.91.51c31.85 18.71 54.965 45.864 73.384 77.533 9.828 16.78 18.964 34.071 33.852 47.394 3.458 3.021 5.17 8.154 8.773 14.014 4.987 2.33 11.757 5.824 12.049 14.815 9.646 7.826 18.673 16.635 29.084 23.26 15.98 10.193 33.125 18.456 49.323 28.32 12.121 7.644 22.46 15.034 32.324 22.97l-.655-.51c20.457 16.016 40.623 32.36 63.81 44.481 16.781 8.773 33.125 18.055 49.687 27.592a23.46 23.46 0 0 1 10.92 13.468l.037.182c4.95 15.216 4.04 29.485-5.024 42.88-.946 1.42-3.021 2.112-4.586 3.022 0 0 1.929-7.026 2.693-10.556-3.02-5.825-8.117-5.825-12.74-3.495-8.627 4.332-16.926 9.319-22.75 17.363a99 99 0 0 0-1.42 2.039 37 37 0 0 1 11.612-4.55l.255-.037zM683.209 724.9c-16.344 14.706-35.782 22.787-56.749 28.465-16.125 4.841-29.52 9.974-42.443 15.907l2.075-.837c-5.97 3.167-11.139 6.698-15.835 10.775l.11-.073c1.42-.837 7.39-2.548 8.627-3.203 15.47-7.717 33.416-13.833 52.235-17.473l1.347-.218c15.506-3.058 29.12-9.646 40.44-18.929l-.145.146c7.026-5.824 21.368-21.768 22.35-22.787s12.704-16.635 13.214-17.254c-.4.837-22.714 23.26-25.153 25.517zm281.233 101.667c4.987 3.931 18.054 11.357 18.782 12.049-.764-.437-45.792-41.351-46.447-41.825.764.182 19.838 23.624 27.592 29.776zM195.184 364.203c8.772-8.044 17.763-15.834 26.245-24.097 28.174-27.737 61.917-43.353 101.412-44.19 28.575-.255 56.422-2.621 83.577-7.026l-3.167.4c11.72-2.002 23.369-4.368 35.054-6.552a9.8 9.8 0 0 0-6.152-2.147c-.546 0-1.092.036-1.602.145h.073c-14.27 1.675-28.465 4.441-42.77 5.096-21.987.947-44.046 1.02-66.032.437-24.352-.619-46.047 7.098-66.395 19.183-23.77 13.978-41.024 35.054-59.26 54.856-.801.874-4.623 8.591-5.133 9.21a37 37 0 0 1 4.223-5.351l-.037.036zm694.854-49.65c-.873-.4-18.71-11.248-24.497-13.323-25.19-8.882-51.18-7.207-77.024-4.623-9.865.983-19.802 4.295-29.521 3.677-20.567-1.347-39.64-6.48-56.931-14.743l.946.4c-1.856-.727-4.15-1.419-6.48-1.965l-.327-.073c12.049 9.5 26.5 16.635 42.262 20.312l.728.145c10.665 2.184 21.622 5.17 32.25 4.587 19.257-1.128 38.403-4.878 57.66-7.062a51 51 0 0 1 4.877-.218c4.077 0 8.045.4 11.867 1.201l-.364-.073c12.158 2.148 43.863 11.212 44.59 11.721zm-336.27 278.83-6.006 3.021h-.619c-1.347 0-2.62.218-3.858.582l.109-.036c-28.284 14.67-57.768 16.09-88.418 9.027-17.909-4.113-36.11-6.952-54.2-10.046-9.792-1.638-19.766-2.257-29.558-3.932-6.115-1.237-13.177-1.929-20.384-1.929-22.241 0-42.917 6.625-60.171 18.019l.4-.255c-1.055.655-17.872 13.978-18.346 14.597.292-.765 19.438-10.848 20.603-11.54 24.971-14.705 51.835-16.198 79.427-11.029 30.285 5.679 60.462 11.758 91.111 15.58 5.132.691 11.066 1.092 17.108 1.092 22.714 0 44.118-5.643 62.865-15.58l-.728.364c1.856-.946 3.02-3.458 4.404-5.278l6.006-3.021 1.602-1.784zm444.417 57.913c-1.783-.254-39.859-18.528-50.56-22.386-6.735-2.403-23.88-7.353-25.408-8.227a40.2 40.2 0 0 0 8.3 5.752l.217.109c10.23 4.404 20.494 8.772 30.905 12.777 5.314 2.256 36.291 12.63 36.546 12.085zm52.308-166.679 2.002 1.456-2.366-1.092c-7.935-7.717-11.066-8.809-20.457-7.062 6.224 5.133 12.776 8.081 20.821 6.698m-259.21 123.435 44.409-18.855a47 47 0 0 0-3.349-.11c-9.755 0-18.928 2.694-26.718 7.39l.218-.146c-5.387 3.021-12.048 4.95-14.232 12.049-.801.364-1.638.764-.692.291-.51.946-.073.146.328-.619zm126.42-231.436-2.184-1.383 2.512 1.019 45.137 36.51c-7.39-13.723-22.205-28.793-32.616-33.125-3.64-1.237-7.971-2.293-12.449-2.948l-.436-.037zm175.597 158.27c.801.292 6.007 5.352 8.263 6.844 19.256 12.45 64.175 19.438 63.884 18.965l-.983-.437c-3.604-2.293-7.753-4.477-12.085-6.297l-.546-.219c-18.783-6.042-57.877-18.382-58.533-18.855m-297.503-70.653a53.2 53.2 0 0 0 9.9 6.297l.328.146c16.38 7.753 35.455 12.667 55.62 13.504h.292c14.27.656 28.975 2.84 46.047-4.95-10.884 0-18.382-.219-25.808 0-21.513.728-42.625-1.129-63.228-8.773-5.715-2.184-21.659-5.314-23.151-6.224M553.367 30.444l-1.82-1.638 2.22 1.274 50.962 75.277c-5.314-29.011-26.354-61.007-48.486-75.022-.655-.29-1.893.146-2.875.146zm-231.8 601.596c4.55-1.783 9.028-3.458 13.614-5.387 13.36-5.751 26.9-9.355 41.825-6.88 19.147 3.24 38.257 7.171 57.877 6.662 4.04 0 8.08-.51 13.905-.874-21.476-4.623-40.842-8.845-60.207-12.85-25.662-5.314-48.158.292-66.504 19.73l-1.602 2.075zm225.794-318.616c-.4-.691-.764-1.42-.436-.837l.91.437c16.052 12.412 34.98 22.022 55.547 27.7l1.129.256c20.602 5.787 41.751 7.28 62.645 10.701 3.786.364 8.19.583 12.668.583 2.402 0 4.768-.073 7.134-.182h-.327c1.347.11 2.948.145 4.514.145 5.132 0 10.155-.546 14.997-1.565l-.474.073c-12.34-2.366-24.643-3.312-36.946-4.732-9.355-1.056-18.71-2.33-27.956-4.113-31.814-6.662-59.734-15.798-86.234-27.52l2.73 1.093c-2.875-.91-6.26-1.638-9.755-2.002l-.218-.037zM303.513 315.9c13.286-3.421 26.718-3.02 40.113-2.438 2.075.072 4.514.109 6.953.109 22.677 0 44.518-3.64 64.975-10.338l-1.456.4c13.905-4.258 28.538-7.717 40.041-17.727l1.638-1.965-1.347 2.366c-3.349.618-6.734.946-10.01 1.82-12.376 3.276-24.57 7.316-37.056 10.01-26.172 5.642-52.963 6.297-79.463 9.027-12.303 1.31-41.533 9.574-45.647 9.938 4.478 2.147 17.473-.182 21.15-1.129zm536.766-34.944c-4.26-.291-49.178-9.646-68.252-12.959-14.67-2.548-29.448-4.623-43.936-7.826-26.5-6.006-50.451-18.055-73.893-31.378-3.604-1.856-8.008-3.785-12.559-5.423l-.837-.255-.364-.801c-.8-.4 3.567 4.514 5.497 5.788 10.447 6.843 20.785 13.905 31.632 19.984 26.827 15.033 54.747 26.609 86.27 26.281 3.021 0 6.006.619 9.027.837 19.11 1.638 62.682 7.79 67.269 5.825zM571.823 156.5l.4.692c.91.364 0 0-.764-.328-3.022-2.73-6.261-5.35-9.683-7.79l-.327-.218c-23.406-14.269-40.15-37.529-45.501-64.866l-.11-.619c-2.11-9.61-3.53-20.785-3.895-32.214v-.292c-1.019-31.414-2.511-62.9 1.857-94.241.218-2.84.327-6.152.327-9.5s-.109-6.662-.364-9.975l.037.437c-3.677 11.575-6.698 25.371-8.518 39.568l-.11 1.2c-1.564 11.358-2.001 22.86-3.712 34.145-1.383 8.554-2.184 18.382-2.184 28.392 0 10.957.946 21.695 2.766 32.142l-.145-1.128c5.86 35.127 23.187 62.027 54.856 79.099 4.841 2.548 8.772 7.098 15.07 5.496M819.42 399.476c12.34 12.958 25.699 24.789 42.152 32.76 21.076 10.229 42.298 19.766 62.427 33.817-4.768-9.537-9.027-17.873-13.14-26.172-2.84-6.334-5.57-11.503-8.59-16.526l.4.691c-6.917-10.52-14.852-20.785-28.03-22.896-10.046-1.602-20.092-4.44-30.903-1.492-7.353 1.929-15.58.072-24.316-.146zm-156.305-33.744c-21.076-3.75-42.152-6.006-62.755-11.648s-40.623-14.196-62.063-21.913c36.983 32.25 80.59 35.236 124.782 33.561zm332.048 69.708c-6.48-36.474-22.823-67.269-52.454-90.565 22.387 27.41 34.909 60.388 52.417 90.565zm29.52 55.183c-31.74-21.403-56.639-26.063-77.096-14.888 3.203-.327 6.953-.51 10.738-.51 14.233 0 27.81 2.658 40.332 7.5l-.764-.255c8.773 3.094 17.836 5.569 26.754 8.153zM815.673 383.35c-26.391-4.222-47.43 3.021-65.558 19.911zm98.355 111.86H848.25c23.26 10.884 44.518 9.282 65.704 0zm270.457 225.466c-17.108 3.75-32.469-1.274-47.721-7.207-2.402-.946-4.914-1.638-9.719-3.203 25.335 23.041 39.859 20.639 57.368 10.374zm-189.903 96.317c10.375 13.14 25.882 22.168 30.504 42.443 1.566-21.913-6.333-32.542-30.54-42.589zM1142.26 577.62c16.126 12.922 33.963 4.077 51.435 1.201zm-700.096-308.06a20.4 20.4 0 0 0-5.169-.983h-.073c-9.828.656-19.583 1.638-29.375 2.294-5.133.327-15.434 2.366-15.398 3.349h39.75c3.167-.146 6.115-.656 8.955-1.42l-.291.073c.546-.182.8-1.565 1.601-3.276zm-6.989-9.61-33.598 3.022c11.394.873 23.151 4.95 33.598-3.022" style="stroke-width:36.4008"/>
</svg>
