<svg xmlns="http://www.w3.org/2000/svg" width="1230" height="960">
    <path d="M613.132 0c-14.248 0-28.26.865-40.404 2.49v559.743c0 12.112-3.922 24.058-3.922 36.17.186 21.517 3.588 41.474 3.798 61.385a632 632 0 0 1 1.37 41.275c0 28.369-1.917 56.336-5.168 80.497-3.06 14.758-4.497 30.195-6.537 44.762l11.082 12.078a512 512 0 0 0-.311 17.743c0 30.536 2.81 60.402 7.72 86.348l25.026-19.05c-3.506 8.415 8.435 18.219-3.486 23.16l1.432-.56c10.263 23.204 2.296 48.076 6.599 73.959l20.482-34.739-3.673-11.953 15.813-6.537v-48.435h4.109l2.054 24.404c3.889-6.375 7.595-9.38 7.595-12.886 3.698-42.107 9.401-85.263 9.401-126.318V13.385c0-3.92-.996-7.776-.996-13.323h-45.385C617.54.032 615.354 0 613.132 0m109.01 0c-2.677 28.146 3.07 52.977-.435 77.01-.584 3.564 1.986 7.493 2.178 11.456a191 191 0 0 1 1.308 22.287v2.366c-.638 11.284-3.486 22.583-3.486 33.867-1.658 23.205 0 46.646 0 69.851-1.02 58.331 0 116.608 0 174.94v14.816l3.735 88.901c0 3.284-1.058 6.367-1.058 9.65v87.283c-.638 9.626-3.051 19.228-3.051 28.886.606 20.56 3.86 41.106 3.86 61.634v.498c1.785 36.337 13.062 70.188 30.817 98.302l.684 1.245c24.353 40.8 59.104 74.704 101.975 98.738l42.334-12.7c-6.566-7.172-11.555-11.495-15.252-16.436-13.595-16.996-26.399-34.71-39.782-55.47-19.62-37.152-30.816-79.465-30.816-124.45v-1.805c-2.26-40.196.233-79.54-.997-120.527a52 52 0 0 1-.249-5.043c0-21.547 13.065-40.027 32.062-48.124h126.317c14.376-30.185 36.969-54.855 50.739-87.718H863.027c-.822.03-1.67.062-2.49.062-11.124 0-21.386-3.896-29.322-10.334-10.551-9.722-17.183-23.668-17.183-39.16 0-6.948 1.378-13.623 3.673-19.36l.062-.312c5.93-17.117 22.213-29.385 41.338-29.385 1.243 0 2.497.029 3.549.125h114.8c14.567-29.995 38.379-54.003 51.734-88.715H859.417c-1.014.087-2.071.124-3.113.124-11.285 0-21.616-4.288-29.323-11.33-3.646-5.655-6.706-11.782-9.276-18.801-10.901-38.601 6.143-67.527 42.894-64.435 27.923 1.434 55.022 0 82.116 0h87.905L1110.494 0h-388.29zM119.506.062l80.87 128.496h172.137a40 40 0 0 1 4.358-.249c12.336 0 23.245 6.016 30.07 15.378l.062.062a58.6 58.6 0 0 1 10.46 33.493c0 9.021-2.005 17.541-5.48 24.84l-.124.25c-6.28 12.43-19.168 20.918-34.054 20.918-2.422 0-4.838-.24-6.91-.623H220.236c-7.204.319-14.243 1.157-20.171 2.241l54.598 86.225H372.39c23.673 0 42.877 19.044 43.268 42.645v.311c.26 2.228.436 4.5.436 6.786 0 14.12-4.976 27.032-13.136 37.105-9.672 7.312-21.75 11.641-34.801 11.641-2.232 0-4.408-.088-6.288-.31H204.983l55.843 87.655h99.797c1.179-.063 2.4-.062 3.61-.062 17.163 0 32.852 6.225 44.887 16.436 3.775 6.965 6.615 14.515 8.155 23.034-1.434 59.734 5.492 119.697-4.358 179.048l-.124 1.245c-5.514 41.31-21.583 79.236-45.011 110.442-11.093 13.77-22.607 26.938-35.548 42.334l41.089 11.891 1.37-.623c34.432-17.944 64.056-43.825 87.033-75.89 29.42-39.652 47.14-88.526 47.937-141.694V.062zM613.319 977.23h2.864v22.6h-2.864z" style="stroke-width:31.875"/>
</svg>
