<svg xmlns="http://www.w3.org/2000/svg" width="910" height="960">
    <path d="M145.78-59.999a25.693 25.693 0 0 0-25.455 25.692V574.8c0 95.242 62.46 114.515 111.188 114.515h151.281a19.27 19.27 0 0 1 0 38.536h-164.57c-55.374 0-97.899-38.316-97.899-38.316v151.723h177.636v108.086L455 885.11l157.04 64.233V841.257h177.635V689.534s-42.525 38.316-97.898 38.316H527.206a19.27 19.27 0 0 1 0-38.536h151.281c48.729 0 111.188-19.273 111.188-114.515V-34.307a25.693 25.693 0 0 0-51.385 0v369.894c0 132.895-128.466 265.791-283.29 265.791-155.267 0-283.29-132.896-283.29-265.791V-34.307a25.693 25.693 0 0 0-25.93-25.692M455-58.89A248.294 248.294 0 0 0 206.707 189.4 248.294 248.294 0 0 0 455 437.694a248.294 248.294 0 0 0 248.293-248.293A248.294 248.294 0 0 0 455-58.89M120.766 878.244V1020h141.756V878.244zm526.712 0V1020h141.756V878.244z" style="stroke-width:2.21493"/>
</svg>
