<svg xmlns="http://www.w3.org/2000/svg" width="1020" height="960">
    <path d="M512.171-30c-11.909 0-23.812 2.626-36.185 7.884-22.272 9.899-55.063 21.66-80.428 28.465-9.898 3.093-46.401 15.466-80.427 27.839s-69.901 24.746-80.418 27.839c-19.179 5.568-43.307 13.61-87.85 30.313l-26.606 9.896v52.588c-.62 79.187 26.608 334.683 47.023 442.328 11.755 63.102 27.219 115.07 37.736 127.442 4.33 4.95 8.038 12.379 8.038 14.853 0 12.373 138.576 140.43 209.102 193.633 41.45 31.551 77.95 56.92 81.043 56.92 9.28 0 179.412-128.063 228.903-173.225 77.95-69.907 94.654-99.602 120.637-213.433 5.568-24.128 9.896-50.108 9.896-58.769s4.33-43.311 9.28-77.337c14.847-101.459 27.839-243.745 27.839-306.847 0-51.348-1.233-60.008-10.512-63.1-17.322-5.569-65.576-22.888-79.186-28.456-19.797-8.043-54.441-19.798-74.238-25.365-9.898-3.094-34.029-11.136-52.588-18.56-18.56-7.424-42.071-15.466-52.588-18.56-24.128-6.804-56.293-17.947-82.276-28.464C535.993-27.374 524.08-30 512.17-30m-2.855 62.792c3.016 0 6.566.468 9.969 1.396 6.805 2.474 21.04 6.186 30.938 9.28 23.51 6.186 56.291 17.94 80.419 27.839 25.983 10.517 58.774 21.652 80.427 27.839 53.823 15.466 123.114 42.681 126.826 50.105 4.95 8.661-3.716 116.308-22.275 277.776-18.56 164.56-38.972 250.557-68.048 288.913-25.365 34.026-179.411 161.46-228.903 189.917l-19.176 11.138-29.697-22.891C393.084 835.95 319.46 770.378 282.96 728.31c-29.077-34.026-44.535-78.573-60.001-168.277-16.704-99.602-46.407-387.89-42.076-406.45 2.474-9.28 28.459-21.03 78.57-35.878 10.516-3.093 58.774-19.796 108.266-37.119 49.492-17.322 98.98-34.025 110.115-37.118 11.755-2.475 22.275-6.806 24.75-9.28 1.236-.928 3.717-1.396 6.732-1.396m-1.44 84.669c-22.507.127-44.806 4.415-64.061 13.23-28.458 12.992-82.286 70.53-82.286 87.234 0 12.991 12.372 14.223 42.067 3.706 18.56-6.805 21.655-6.804 29.697 4.332 4.95 6.186 8.664 19.8 8.664 29.08 0 15.467 1.237 16.7 11.754 10.513 16.703-11.136 30.316-2.473 34.028 20.417 10.517 70.526 12.992 177.554 6.806 261.69-3.712 51.348-8.66 96.505-11.754 100.836-5.568 9.28-23.514 9.898-33.412 0-5.568-5.568-7.422-3.092-7.422 11.137 0 10.517-3.708 23.51-8.038 29.697-6.806 9.28-11.762 9.9-35.27 4.332-15.467-3.712-29.697-6.806-32.172-6.806-9.28 0-4.949 19.18 9.28 38.977 25.365 36.5 49.492 53.822 92.798 67.432 41.449 12.373 43.924 12.372 81.043 2.474 41.45-11.754 79.194-40.214 100.228-76.096 14.23-25.983 6.8-35.258-21.658-26.597-27.84 8.042-43.925-1.24-43.925-24.75 0-19.177-10.512-24.124-22.266-12.37-19.797 19.798-33.412-61.864-33.412-194.874 0-132.39 14.227-220.24 32.787-201.68 12.373 12.373 22.891 7.422 22.891-11.137 0-25.983 14.228-35.268 39.593-26.607 27.22 9.899 34.645 9.28 34.645-2.474 0-9.898-31.548-54.433-49.489-69.28-25.52-21.267-63.605-32.628-101.116-32.416" style="stroke-width:1.41666"/>
</svg>
