<svg xmlns="http://www.w3.org/2000/svg" width="1168" height="960">
    <path d="M526.725-119.992a33.337 33.337 0 0 0-33.984 33.325 33.296 33.296 0 0 0 33.252 33.325h.073a33.337 33.337 0 0 0 .659-66.65m115.795 0a33.337 33.337 0 0 0-34.057 33.325 33.296 33.296 0 0 0 33.325 33.325h.073a33.337 33.337 0 0 0 .66-66.65M523.795-20.237a33.337 33.337 0 0 0-31.054 33.325 33.296 33.296 0 0 0 33.252 33.252h.073v.073a33.344 33.344 0 1 0-2.27-66.65m115.722 0a33.337 33.337 0 0 0-31.054 33.325 33.296 33.296 0 0 0 33.325 33.252l.073.073a33.346 33.346 0 1 0-2.344-66.65M526.725 79.445a33.337 33.337 0 0 0-33.984 33.325 33.337 33.337 0 0 0 33.325 33.325 33.337 33.337 0 0 0 .659-66.65m115.795 0a33.337 33.337 0 0 0-34.057 33.325 33.337 33.337 0 0 0 33.398 33.325 33.337 33.337 0 0 0 .66-66.65m-522.726 43.652a1180.9 1180.9 0 0 1 191.38 522.433s-.041 32.746 68.921 96.533A562.9 562.9 0 0 1 569.791 1080s3.882-.427 3.882-10.327V771.945a126.83 126.83 0 0 0-21.753-71.264 152.15 152.15 0 0 1-25.342-72.436h.074a178.7 178.7 0 0 0-1.172-42.48 157 157 0 0 1-10.327-48.34 843 843 0 0 1 2.27-108.031 65.93 65.93 0 0 0 0-60.864c-14.925-24.112-70.165-88.476-70.165-88.476a91.3 91.3 0 0 0-41.382-19.556A126.8 126.8 0 0 1 367.937 249l-.44-.22-.292-.147L317.4 222.56a75.1 75.1 0 0 1-24.096-14.941 335.3 335.3 0 0 0-55.151-29.883 104 104 0 0 0-28.711-11.499 61.64 61.64 0 0 1-29.883-14.94 95.65 95.65 0 0 0-59.765-28.199m928.412.146a94.92 94.92 0 0 0-59.912 28.052 61.16 61.16 0 0 1-29.81 14.941 103.5 103.5 0 0 0-28.71 11.5 337 337 0 0 0-55.15 29.882 75.5 75.5 0 0 1-24.17 14.941L799.916 249a124.8 124.8 0 0 1-37.28 11.426l-.733.073a92.15 92.15 0 0 0-41.381 19.556s-55.13 64.326-70.093 88.476a65.7 65.7 0 0 0 0 60.864 836 836 0 0 1 2.417 108.031 160.3 160.3 0 0 1-10.4 48.34 183 183 0 0 0-1.172 42.48 151.36 151.36 0 0 1-25.268 72.436 126.83 126.83 0 0 0-21.68 71.264v297.728c0 9.9 3.882 10.327 3.882 10.327a562.72 562.72 0 0 1 189.623-337.937c69-63.787 68.993-96.533 68.993-96.533a1180.1 1180.1 0 0 1 191.381-522.287m-594.723 73.535c-3.304-.215-4.431 2.507 4.175 14.282a264.3 264.3 0 0 1 21.313 42.554c6.3 18.412 19.525 45.963 33.325 44.238s37.384-22.36 23.584-43.36a243.6 243.6 0 0 0-73.608-54.345s-5.484-3.153-8.789-3.369m260.96 0c-3.309.216-8.788 3.37-8.788 3.37a243.2 243.2 0 0 0-73.608 54.345c-13.8 21 9.783 41.634 23.583 43.359s26.988-25.863 33.325-44.238a266.5 266.5 0 0 1 21.314-42.554c8.625-11.775 7.484-14.497 4.175-14.282m-440.622 49.878c19.463-1.163 57.472 31.013 67.822 39.038a342 342 0 0 0 47.168 21.826c11.512 5.662 40.208 32.226 35.595 32.226a258 258 0 0 1-39.11-9.228 92.94 92.94 0 0 0-43.653-2.27c24.15 10.349 66.7 65.518 77.05 74.706 10.35 9.187 19.54 5.695 26.44 7.983s5.714 29.916 5.714 42.553c0 12.638 8.075 25.304 10.4 42.554a883 883 0 0 1-11.572 105.395 1775 1775 0 0 0-182.738-323.73c-26.438-26.437-12.578-29.892 6.884-31.054m620.358.073c19.537 1.163 33.395 4.617 6.958 31.055l-.147-.074a1770 1770 0 0 0-182.665 323.875 886 886 0 0 1-11.499-105.468c2.325-17.25 10.327-29.843 10.327-42.48 0-12.638-1.15-40.266 5.787-42.554 6.937-2.287 16.165 1.131 26.44-8.056 10.275-9.188 52.9-64.357 77.05-74.707a93 93 0 0 0-43.725 2.344 256 256 0 0 1-39.038 9.155c-4.613 0 24.12-26.415 35.595-32.153a353.4 353.4 0 0 0 47.168-21.826c10.35-8.025 48.211-40.273 67.749-39.111" style="stroke-width:37.4998"/>
</svg>
