<svg xmlns="http://www.w3.org/2000/svg" width="1220" height="960">
    <path d="M916.462 475.066c-1.517 2.528 2.023 16.688 7.586 31.86 39.446 105.694 39.952 195.71 1.517 272.58-5.057 9.608-22.757 31.354-39.445 48.548-61.697 61.697-153.232 86.477-258.42 70.294-78.386-11.631-118.843-24.78-187.62-61.191-62.708-32.872-79.397-44.503-158.288-112.774-26.297-22.758-51.583-40.963-56.64-40.963s-15.171-3.034-23.263-7.08c-7.586-3.54-23.263-10.62-34.388-15.677-11.126-4.552-24.275-10.62-28.826-13.149-12.137-6.068-19.217-5.563-19.217 1.011 0 16.183 100.131 120.866 154.243 161.829 77.374 58.663 194.194 117.325 259.43 130.98 11.632 2.528 25.792 7.08 30.85 10.114 14.159 7.08 172.953 11.631 220.49 6.068 43.997-5.057 81.926-18.205 130.98-45.008 28.32-15.171 80.914-73.834 97.097-107.717 30.343-63.214 33.377-78.891 30.849-152.726-2.023-64.73-6.07-89.005-22.252-133.002-17.194-45.514-16.688-45.514-61.697-47.032-21.746-.505-41.468.506-42.986 3.035M858.305 283.4c-3.034 5.058-6.574 19.218-8.091 31.355-4.046 27.308-15.677 86.477-25.791 132.497-5.563 23.768-6.575 36.41-3.035 39.95s21.746-5.562 57.652-29.33c66.248-43.997 63.214-43.997 176.494-9.103 26.297 8.091 45.008 9.103 45.008 3.034 0-2.023-24.274-21.746-53.606-43.997-29.33-21.746-56.134-41.974-59.168-45.514-3.54-3.035-14.16-10.62-23.768-17.195-9.61-6.574-19.723-14.665-22.758-17.7-9.608-11.125-67.765-53.605-72.822-53.605-3.035 0-7.586 4.045-10.115 9.608m-704.964-97.097c-4.552 7.08 31.86 155.254 50.065 204.814 19.217 52.089 42.986 105.694 64.732 144.634 28.32 50.066 86.982 104.177 140.082 128.957 40.457 18.712 116.82 41.469 166.38 49.055 61.191 9.102 119.348 38.434 163.851 82.43 20.735 20.735 37.423 33.378 41.469 31.86 15.171-5.562 5.563-92.039-13.654-124.405-2.53-4.045-6.07-11.125-8.092-15.171-3.54-8.597-30.343-43.997-42.48-56.134-4.551-4.552-39.951-32.872-78.385-62.203-38.94-29.331-86.477-66.754-106.706-82.431-19.723-16.183-50.571-40.457-68.271-54.112-17.7-13.654-33.883-27.308-36.917-30.342-2.529-3.035-15.172-13.655-27.815-23.263-20.734-15.677-41.974-33.377-75.857-62.709-7.08-6.068-22.757-18.711-35.4-28.32-12.642-9.608-28.32-22.251-35.4-28.32-64.73-56.64-94.568-78.891-97.602-74.34m159.3-300.393c-8.598 10.114-21.24 106.2-21.24 157.276.505 116.82 31.354 199.757 102.66 272.074 36.41 36.917 43.49 43.997 92.04 81.926 25.79 20.734 45.513 36.917 55.122 46.02 3.034 3.034 17.194 14.666 30.849 25.791 14.16 10.62 30.848 24.78 37.928 30.849 19.723 16.688 55.629 46.525 95.58 79.397 35.4 29.331 66.248 62.708 66.248 72.317 0 2.528 5.563 10.114 12.138 16.183l11.63 11.125 3.035-24.274c1.517-13.148 1.012-33.377-1.011-44.503-2.529-11.125-6.069-28.32-8.597-37.928-4.046-19.723-25.792-58.663-48.043-86.477-8.092-10.114-14.666-20.734-14.666-23.769s-1.517-6.068-3.54-7.08c-4.046-1.517-25.791-31.86-41.974-57.145-4.046-6.575-19.217-28.32-33.377-49.055-29.837-43.49-63.72-92.04-96.591-139.576-13.149-18.712-39.952-57.652-59.675-86.983-37.422-55.123-67.765-99.12-110.245-159.3-13.149-19.723-31.354-46.02-39.952-59.674-16.182-25.286-19.722-27.814-28.32-17.194" style="stroke-width:.505714"/>
</svg>
