<svg xmlns="http://www.w3.org/2000/svg" width="1260" height="960">
    <path d="M1048.258 234.735c0 2.604 3.125 11.457 7.291 19.789 20.31 41.14 34.37 79.678 37.496 103.112 1.562 14.061 5.207 34.892 7.811 45.828 8.853 34.371 6.77 123.943-3.125 143.212-6.77 13.02-7.29 19.268-3.124 23.435s9.374 2.603 19.268-7.812c14.061-13.54 14.061-14.06 13.54-93.739-.52-63.013-3.124-86.447-10.415-110.924-5.729-16.664-13.02-31.767-16.144-32.808-3.125-1.042-5.728-9.895-5.728-19.269 0-18.747-12.499-50.514-25.518-66.658-7.812-9.374-21.352-11.978-21.352-4.166M752.461 1.95c1.562 3.646 9.895 7.291 19.79 8.333 9.373 1.041 20.31 5.207 24.475 9.374 4.167 4.166 13.02 7.29 19.269 7.29 6.77 0 15.102 3.646 18.748 7.812s10.415 7.812 15.102 7.812 11.457 2.603 14.581 5.728 9.895 4.687 15.103 3.125c9.374-2.083 9.374-2.083-.521-6.25-5.728-2.603-12.498-7.29-14.582-11.457-2.083-3.645-8.853-6.77-14.581-6.77-5.729 0-14.06-3.645-18.227-7.811-4.687-4.166-14.06-7.812-20.83-7.812-7.292 0-16.665-3.645-20.832-7.811-9.894-9.895-40.099-10.936-37.495-1.563M590.5 381.592c-69.262 31.246-87.489 115.61-37.495 170.292 31.767 34.891 78.115 45.827 115.61 28.121 46.87-22.393 67.18-52.598 67.18-99.988s-20.31-77.594-67.18-99.987c-24.996-11.978-49.993-11.457-78.115 1.562m-121.34-.52c-39.057 42.181-48.43 66.137-48.43 127.588 0 48.952 1.04 54.16 18.226 88.01 38.017 77.074 124.985 133.317 205.184 133.317 27.08 0 75.511-13.02 106.237-28.642 22.393-11.457 79.157-64.055 79.157-73.429 0-4.166 2.083-7.29 4.687-7.29 5.728 0 13.019-20.31 8.853-24.477-1.562-1.562-14.06 9.895-28.642 25.518-79.678 86.968-204.142 96.863-291.632 21.872-45.307-39.058-64.054-80.198-66.658-147.378-2.083-39.057-.521-53.64 6.77-70.304 10.415-22.914 28.121-51.556 34.891-54.16 4.687-2.604 4.687-16.664-.52-16.664-2.084 0-14.582 11.457-28.122 26.038M561.339 238.9c-35.933 10.936-58.847 22.393-83.323 40.62-23.955 18.227-54.68 49.994-54.68 56.764 0 2.604-4.167 9.374-8.854 14.581-6.25 7.291-7.29 10.937-2.604 15.624 4.166 4.166 6.77 3.645 9.374-4.167 6.25-16.664 48.953-53.639 84.886-73.949 66.137-37.495 172.895-23.955 228.097 28.642 20.31 19.79 48.432 56.244 48.432 63.534 0 3.646 3.645 11.978 8.332 18.748 6.25 9.374 8.332 25.518 8.332 60.93 0 53.119-5.728 70.825-36.454 114.57-18.747 27.08-18.227 29.683 3.125 16.143 17.706-11.456 30.725-27.08 50.515-60.93 14.581-24.997 15.623-29.684 15.623-81.24 0-52.598-1.042-56.243-18.227-90.614-48.432-94.26-160.918-147.898-252.574-119.256m-406.2-261.947c-20.831 8.853-27.08 17.185-33.33 43.744-5.728 26.56.521 55.723 15.623 71.866 13.02 14.061 45.828 23.956 65.617 19.79 12.499-2.604 19.269 0 32.809 11.977 19.268 17.186 18.748 26.56-2.604 49.474-7.29 7.811-13.02 15.102-13.02 16.664s-6.248 11.457-13.54 22.393c-52.076 76.554-85.405 209.87-74.99 300.485 4.687 38.016 11.457 53.118 21.872 46.869 2.083-1.042 3.646-39.058 3.646-84.365 0-60.93 2.083-87.49 7.811-104.675 4.687-12.498 8.333-26.038 8.333-30.204 0-31.767 82.802-173.417 101.029-173.417 9.374 0 29.163 22.393 29.163 33.33 0 5.207-7.811 18.747-17.185 30.725-33.85 42.703-76.554 148.94-76.554 190.602 0 5.208 9.374 19.268 20.831 30.725s20.831 23.956 20.831 28.122-9.374 16.144-20.83 27.08c-11.458 10.936-20.832 23.955-20.832 29.684 0 41.662 42.704 147.899 76.554 190.602 9.374 11.977 17.185 26.038 17.185 31.246 0 11.978-20.83 32.808-32.288 32.808-8.332 0-35.412-31.246-35.412-41.14 0-3.125-2.083-5.729-4.687-5.729s-7.29-6.25-10.415-14.581c-3.125-7.812-7.812-17.707-10.416-21.873-11.977-20.31-30.725-71.345-36.974-100.508-4.687-24.477-6.25-26.039-18.227-17.186-8.854 6.25-9.374 9.374-3.125 29.684 10.936 37.496 33.33 86.969 52.598 116.653 7.29 11.457 15.102 24.997 17.185 29.684 1.563 5.207 5.729 9.373 8.853 9.373 2.604 0 5.208 3.125 5.208 7.291s3.645 8.332 7.812 10.416c26.038 9.894-11.457 58.847-40.62 53.118-20.831-4.166-52.598 6.25-67.18 21.352-9.895 10.936-11.978 18.747-11.978 48.431 0 30.205 2.083 37.496 11.978 48.432 24.476 26.038 74.47 28.121 101.55 4.166 15.103-12.498 25.518-42.182 21.873-63.013-2.083-15.102 0-20.831 13.019-34.892 16.144-18.227 34.891-22.393 39.578-9.374 2.084 4.167 6.25 7.812 9.895 7.812s7.812 2.604 8.853 6.25c1.042 3.124 5.208 4.686 8.853 3.645 4.687-1.563 2.083-7.812-9.374-18.748-19.789-19.79-20.31-29.684-2.603-45.828 18.226-16.665 24.476-16.144 50.514 3.646 42.703 33.329 95.301 57.805 151.024 71.345 36.974 8.853 41.661 7.812 66.658-15.102 33.33-30.205 36.975-30.205 63.534-1.563l23.435 24.477 35.412-6.77c52.598-10.416 110.924-36.454 154.669-69.263 14.581-10.936 30.204-19.79 34.891-19.79 9.895 0 31.247 20.832 31.247 30.206s-57.285 49.473-101.55 71.345c-27.08 13.54-39.058 22.393-39.058 29.163 0 15.623 6.249 15.102 46.869-6.25 21.352-10.935 42.703-21.35 46.87-23.434 4.165-2.083 21.35-14.06 37.495-26.56 16.144-12.497 31.767-22.392 34.891-22.392 2.604 0 11.457 7.811 19.269 17.706 11.457 14.582 14.06 22.914 14.581 48.952.521 34.892 9.374 49.474 38.017 61.451 33.85 14.582 69.262 5.729 89.572-22.914 16.144-22.393 18.227-40.62 8.853-65.096-11.978-31.246-38.537-48.431-73.428-46.87-24.477 1.042-28.643-1.04-43.745-16.143l-16.665-17.185 30.205-41.141c28.121-36.975 46.87-71.867 71.345-128.63 9.374-21.873 10.937-50.515 3.125-50.515-6.25 0-26.038 30.725-26.038 40.1 0 6.248-28.643 68.22-43.225 93.217-14.06 23.955-43.223 59.368-51.556 61.972-5.207 2.083-13.019-1.042-18.747-6.77-18.748-18.748-17.707-26.56 6.249-60.41 23.955-33.85 60.41-106.758 60.41-121.86 0-4.687 3.644-19.79 7.29-32.808 7.812-25.518 4.687-35.413-19.269-59.368-5.207-5.208-13.54-15.103-18.227-22.393-8.332-12.499-7.811-13.02 19.269-37.496l27.6-24.997-8.331-28.642c-4.688-15.623-8.333-32.288-8.333-36.975 0-13.54-36.454-86.968-60.41-121.34-12.498-18.226-22.913-35.932-22.913-39.578s19.268-25.517 43.224-48.952l42.703-42.182h29.163c37.496.52 58.326-13.54 67.18-45.307 7.811-27.601 1.041-52.078-18.748-70.825-11.457-10.416-18.748-12.499-47.39-12.499-31.247 0-34.892 1.042-48.953 17.186-13.019 14.581-15.102 20.83-15.102 49.473V76.42l-44.266 44.265-43.744 43.745-35.413-23.956C814.953 97.772 792.56 87.357 720.694 68.61c-43.224-11.457-42.183-11.978-72.908 21.872-17.185 18.748-27.08 18.227-41.14-1.041-21.873-29.163-30.726-31.767-68.742-22.393-66.138 16.144-115.09 38.537-159.877 72.908-11.978 9.373-24.997 17.185-29.163 17.185-12.498 0-35.933-24.997-32.288-35.412 7.812-22.914 98.426-76.554 167.167-98.947C515.51 12.366 594.147-3.257 625.913-5.86c9.895-.52 18.748-4.166 20.31-7.812 1.563-5.728-8.332-6.77-54.16-4.687-55.201 2.084-81.24 7.291-124.463 22.914-24.477 8.853-54.16 21.873-65.097 28.122-4.166 2.083-17.185 9.374-28.121 15.102-11.457 6.25-33.85 21.352-50.515 34.371-16.665 12.499-31.246 22.914-32.808 22.914-2.084 0-10.416-7.812-18.748-17.185-13.54-14.061-15.103-19.269-12.499-36.454 8.853-57.285-49.473-98.426-104.674-74.47M1083.15 9.24c17.706 4.687 24.997 28.643 15.102 48.432-7.29 13.54-11.457 16.144-27.6 16.144-24.477 0-38.017-12.499-38.017-34.371 0-25.518 20.831-38.016 50.515-30.205M210.86 20.177c12.499 11.457 11.978 27.08-2.083 41.662-13.02 14.06-23.435 15.102-39.579 3.645-13.019-8.853-16.143-36.974-5.207-47.91 8.853-8.854 35.412-7.812 46.869 2.603m508.272 187.478c68.22 30.204 82.281 39.057 94.78 64.054 5.728 10.937 16.144 21.873 24.997 25.518 21.351 8.853 35.412 29.684 61.971 94.26 13.54 33.329 13.54 143.732 0 177.061-26.038 62.493-42.703 88.531-56.243 88.531-11.978 0-41.14 29.684-41.14 41.662 0 13.02-22.915 27.6-88.01 55.201-32.289 13.54-138.005 14.061-174.98.521-34.891-13.02-34.37-12.498-52.077-24.476-8.332-5.728-19.789-11.978-24.476-13.54-5.207-2.083-9.374-8.332-9.374-15.102 0-12.499-31.246-44.266-43.744-44.266s-34.371-34.891-58.327-92.697c-13.019-31.767-13.019-136.962 0-168.73 23.956-57.805 45.828-92.696 58.327-92.696s43.744-31.767 43.744-44.266c0-6.77 4.167-13.02 9.374-15.102 4.687-1.562 16.144-7.812 24.476-13.54 8.854-5.729 19.269-11.457 23.435-13.54 4.166-1.563 13.54-5.208 20.83-8.333 38.538-16.143 150.503-16.143 186.437-.52M210.86 895.07c19.79 17.706 5.728 53.64-20.83 53.64-27.602 0-43.225-35.413-23.956-54.16 10.415-10.937 32.808-10.416 44.786.52m876.456 1.562c8.853 9.895 11.978 35.934 5.208 46.87-1.563 2.604-12.499 5.207-23.435 5.207-15.102 0-22.393-3.124-28.121-11.456-10.937-15.624-10.416-24.477 3.124-39.058 13.54-14.582 30.726-15.623 43.224-1.563" style="stroke-width:.52077"/>
</svg>
