<svg xmlns="http://www.w3.org/2000/svg" width="1428" height="960">
    <path d="M706.934 960.566c-2.12 3.179-.53 9.006 2.648 13.244 10.596 12.715 2.12 16.953-37.083 19.602-20.662 1.59-38.674 4.238-40.793 5.827-3.178 3.709 39.203 63.043 47.15 66.222 2.649 1.06 7.946 5.298 12.184 10.065 4.239 4.239 7.947 5.828 7.947 3.18 0-2.65-2.119-6.888-5.298-10.067-2.649-2.648-5.827-13.244-6.357-23.31-1.59-16.952-.53-18.542 14.304-20.13 25.429-2.65 66.221-17.483 66.221-23.84 0-3.709-10.065-13.775-22.25-22.25-32.316-23.31-34.965-24.37-38.673-18.543m222.503-58.804c-1.589 1.589 2.12 6.887 8.477 11.655 14.833 11.125 10.595 18.012-25.96 46.62-27.017 21.72-31.256 32.315-12.714 32.315 4.768 0 13.774 3.709 19.072 7.947 5.828 4.238 15.893 7.947 22.25 7.947 6.887 0 13.775 2.119 15.364 5.297 1.59 2.65 9.536 5.298 17.482 4.768h14.304l-13.244-6.357c-14.304-6.887-31.786-22.78-31.786-29.137 0-2.12 7.946-9.007 17.482-15.364 28.078-19.072 54.566-48.739 45.56-50.858-36.024-10.065-74.168-17.482-76.287-14.833m-443.948-4.768c-1.589 4.238-3.708 12.714-4.767 18.542-2.12 12.714-7.417 12.184-50.329-3.179-18.542-6.887-34.435-11.125-35.494-9.536-1.06 1.06 0 14.304 3.178 28.608 2.65 14.833 6.358 31.786 7.417 38.143 3.179 17.483 10.595 14.834 14.834-4.238 2.649-14.304 4.768-15.893 14.833-12.714 13.245 3.708 53.507 12.184 70.46 14.303 12.184 1.59 12.184-9.006 0-35.494-3.709-9.006-9.536-21.72-12.185-29.138-3.708-10.065-5.827-11.125-7.947-5.297m677.577-164.76c-1.59 2.12-12.714 5.828-24.37 7.948-22.78 3.708-25.958 10.065-12.714 24.899 9.006 10.065 9.006 10.595-11.125 46.62s-18.542 39.203 18.542 36.554c34.965-2.65 53.507-12.715 32.846-18.012-14.304-4.239-14.304-7.947-.53-44.501 15.893-41.852 18.542-58.275 8.476-58.275-4.768 0-9.536 2.12-11.125 4.768M229.61 708.926c-1.59 5.828-6.357 19.602-10.595 30.727-9.536 25.429-10.066 52.977-.53 50.328 3.179-1.59 7.417-6.887 7.947-12.715 3.708-20.13 10.595-18.012 43.97 10.596 18.543 16.423 36.555 29.667 39.733 29.667 7.947 0 14.834-74.168 7.947-81.055-3.708-3.708-7.417-.53-10.595 8.476-3.18 7.947-8.477 14.304-11.655 14.304-3.179 0-18.542-13.774-34.436-30.197-24.369-26.488-28.607-29.137-31.786-20.131m981.136-193.896-25.96 26.489 18.013 1.589c20.131 1.59 24.37 11.125 25.429 52.977.53 14.304 2.649 25.429 5.827 25.429 11.655 0 74.168-45.56 74.168-54.037 0-6.887-12.184-4.768-21.72 4.238-15.893 14.304-25.959 5.828-26.489-22.78-1.06-36.554-6.357-56.685-15.363-58.804-4.238-.53-19.602 10.595-33.905 24.899M155.442 474.237c-38.673 40.792-49.798 72.048-13.774 38.673 15.893-14.834 16.953-14.304 29.667 18.542 23.31 59.334 31.257 68.34 39.733 46.09 2.65-6.357 11.125-20.661 19.072-32.316 9.536-14.304 12.185-22.25 8.476-25.959s-6.357-2.649-9.006 3.179c-9.006 23.31-33.905-5.828-33.905-40.263 0-15.893-7.417-30.197-15.893-30.197-1.59 0-12.715 10.066-24.37 22.25m1029.345-235.748c-2.12 1.589-3.709 9.536-3.709 16.952-.53 7.417-3.708 19.602-7.946 27.019s-7.417 16.423-7.947 19.601c0 10.066 14.304 8.477 18.013-1.59 3.178-7.946 4.238-7.946 14.303 1.06 5.828 5.298 16.953 22.78 24.37 38.144 12.714 27.018 13.774 28.078 23.31 19.072 5.827-5.298 15.363-20.132 21.19-33.376 6.358-13.244 13.245-28.608 15.894-33.375 9.006-17.483 4.768-17.483-10.596 0-9.006 9.006-17.482 16.952-19.072 16.952-4.767 0-23.31-22.78-23.84-28.607 0-6.358-31.785-45.56-36.553-45.56-2.12 0-5.828 1.589-7.417 3.708m-943.522-36.025c-1.59 2.65-13.774 7.417-27.018 10.596-13.244 3.178-23.84 7.946-23.84 10.595s-7.946 6.357-16.952 7.947c-14.304 3.178-15.894 4.768-8.477 9.006 5.828 3.178 13.774 2.649 23.31-.53 22.25-8.476 24.9-1.06 17.483 47.15-3.709 23.31-5.298 43.97-3.709 46.09 2.12 1.589 11.125-1.59 20.131-6.887 9.536-5.298 22.78-12.715 29.668-16.423 15.363-8.477 16.423-14.834 2.119-18.542-13.245-3.179-14.304-31.786-2.65-60.394 8.477-19.602 7.418-33.376-2.118-33.376-2.65 0-6.357 2.12-7.947 4.768M718.06 53.07c-2.12 2.649-13.774 4.238-25.959 4.238-18.542 0-22.25 1.59-24.9 13.244l-3.708 13.245-2.119-13.245c-4.768-30.726-70.989-13.774-182.77 46.62-14.834 7.947-92.18 83.704-92.18 90.061 0 2.649-6.358 10.066-13.775 17.483-24.899 23.31-48.209 69.4-71.519 141.448-13.774 43.442-12.184 55.626 8.477 59.865 9.006 2.119 13.774 4.238 10.595 4.767-10.066 2.65-15.893 4.239-22.25 4.768-4.768.53-6.358 10.596-5.298 33.376l1.06 33.375 29.137 3.18 29.137 2.648-29.137 2.649c-24.9 1.59-29.137 3.708-29.137 12.714 0 7.417 4.767 11.655 15.893 13.774l15.893 3.709-14.834.53c-20.131.53-22.78 12.184-12.185 47.679 17.483 58.275 36.025 98.007 63.573 138.27 25.959 36.554 30.197 41.322 66.751 70.46 19.072 14.833 38.673 32.316 43.441 38.143 11.655 14.834 89.531 53.507 129.264 64.632 46.09 12.715 56.686 12.185 60.924-3.708 3.178-12.185 3.708-12.185 4.238-1.59.53 13.245 8.476 15.893 45.56 15.364l26.489-.53 3.178-31.786 2.65-31.787 2.648 31.787c1.59 27.548 3.709 31.786 12.715 31.786 7.946 0 11.655-4.768 13.774-18.542 2.649-15.363 3.708-15.893 4.238-4.768 1.06 22.25 11.125 27.548 37.614 18.012 12.184-4.238 25.958-7.946 30.197-7.946 15.363 0 108.603-49.799 116.55-61.984 4.237-6.887 10.594-12.184 13.243-12.184 3.179 0 13.245-7.947 22.25-17.483 9.007-9.536 20.662-19.071 25.43-20.66 9.536-3.71 55.626-59.335 60.923-73.11 1.59-4.237 5.828-11.654 9.536-15.892 14.304-18.542 50.329-120.788 50.329-143.038 0-2.12-9.007-6.358-19.602-9.536-19.602-5.298-19.602-5.298-4.238-5.828 20.66-1.06 31.256-7.946 27.548-18.542-2.649-6.357-11.125-8.476-33.905-9.535l-30.727-.53 31.786-3.179 31.786-3.179v-31.786c0-31.256 0-31.786-15.893-33.375-20.131-2.12-30.727-11.655-12.714-11.655 24.37 0 28.078-6.358 20.66-37.614-8.476-37.084-22.25-74.698-40.792-110.722-23.31-45.56-31.256-54.566-43.44-51.388-12.186 3.179-14.305-1.59-4.769-11.125 4.768-4.768 2.65-9.006-8.476-19.602-7.947-7.416-15.893-13.244-18.012-13.244-2.12 0-9.006-8.476-15.364-18.542-19.601-30.197-90.59-72.578-164.758-98.007-41.322-14.304-60.394-12.715-64.632 5.297-3.179 12.715-3.179 12.715-6.887-4.238-3.709-18.012-16.423-22.78-21.72-8.476-1.59 4.768-3.18 19.072-3.18 32.316 0 13.774-1.589 22.78-3.708 20.66-2.119-2.118-3.179-11.654-2.119-21.72 2.649-31.256-9.006-49.268-22.78-36.024m25.429 168.467c-1.59 39.733-11.655 94.3-19.072 98.537-10.066 6.887-13.244 5.828-21.72-6.357l-7.947-11.125-3.709 11.125c-2.119 7.947-7.946 11.125-18.012 11.125-13.774 0-16.952-3.708-34.435-45.56-11.125-24.9-19.072-49.269-18.012-53.507 1.59-7.946 8.476-11.125 49.269-22.78 9.006-2.649 29.137-4.238 45.03-3.708l29.138 1.06zm81.055.53c6.357 4.238 14.304 7.417 17.482 7.417 7.417 0 58.275 37.084 58.275 42.911 0 9.006-76.287 84.234-85.293 84.234-4.768 0-11.655-3.709-15.364-7.947-3.708-4.238-9.535-7.947-13.774-7.947-3.708 0-13.244-5.297-21.19-12.184l-13.774-12.185 8.476-33.376c4.768-18.012 8.476-38.673 8.476-45.56 0-24.37 4.768-29.667 25.959-25.959 10.595 1.59 24.37 6.358 30.727 10.596M619.52 294.115l17.483 41.322-30.197 31.256c-16.423 17.483-29.667 34.435-29.667 37.614 0 7.946-32.316 2.649-52.977-7.947-7.417-3.708-23.31-11.125-35.495-15.893-13.774-5.827-22.78-13.244-22.78-18.012 0-10.066 28.608-53.507 50.858-77.876 8.476-9.006 27.548-24.9 41.852-34.965 26.488-19.072 26.488-19.072 34.965-7.947 4.768 5.828 16.423 29.667 25.958 52.448m321.571 18.542c9.006 11.125 21.191 31.786 27.548 46.62 6.887 14.303 14.834 31.786 18.013 38.673 3.178 7.416 3.708 13.774.53 16.952-6.888 6.887-63.043 20.132-93.77 22.25l-25.43 1.59-16.422-30.727-16.423-30.197 39.203-41.851c21.72-22.78 41.852-41.852 45.56-42.382 3.18 0 12.715 8.476 21.191 19.072m-447.656 94.829c62.513 25.429 67.81 28.607 67.81 36.554 0 4.238-3.178 12.714-6.357 18.542-5.297 7.946-5.297 11.655 0 16.952 3.18 3.179 6.358 9.536 6.358 13.245 0 7.946-42.912 20.66-85.823 25.429-30.197 3.178-30.727 3.178-36.554-11.655-4.239-10.596-4.239-24.37 0-49.799 5.297-34.965 13.774-63.042 18.542-63.042 1.589 0 17.482 6.357 36.024 13.774m239.986 36.554c22.25 11.125 30.727 28.607 23.31 50.328-6.357 18.012-18.542 26.488-39.203 26.488-20.131 0-31.786-7.946-39.733-26.488-7.946-19.602-1.589-35.495 20.131-49.269 17.483-10.595 14.304-10.595 35.495-1.06m259.588 13.774c6.357 20.131-2.649 99.067-12.715 111.781-9.006 10.596-10.065 10.596-24.899 3.179-8.476-4.768-31.786-15.363-52.447-23.84-27.548-11.655-37.084-18.012-37.084-25.958 0-6.887 4.768-11.126 15.893-13.245 9.006-2.119 13.244-3.708 9.536-4.238-9.536-1.06-22.78-16.423-22.78-26.488 0-11.126 54.566-26.489 112.311-31.787 4.768 0 10.595 4.768 12.185 10.596m-417.99 88.471c3.18 6.887 9.007 15.364 12.185 18.542 12.715 12.715 5.298 28.608-33.375 66.752l-39.203 39.203-16.423-18.013c-19.072-20.66-48.21-76.816-48.21-92.71 0-9.006 5.828-12.184 33.376-19.071 18.013-4.768 44.501-7.947 59.335-7.947 21.72 1.06 27.018 3.179 32.316 13.244m341.173 34.965c40.792 16.953 45.03 20.132 43.971 32.316s-22.25 44.501-43.97 66.222c-13.775 13.774-51.389 42.381-56.157 42.381-2.119 0-7.946 3.709-13.244 8.477-7.946 7.416-9.536 6.357-20.131-10.066-5.828-10.066-11.125-20.661-11.125-23.84s-3.179-12.184-7.417-20.66c-4.238-7.947-11.655-23.31-16.953-33.906l-9.006-19.072 36.554-34.435c25.959-24.9 38.673-33.375 44.501-30.727 4.238 2.65 28.078 12.715 52.977 23.31M646.54 617.275c25.429 12.184 25.959 12.184 25.429 36.024 0 13.244-4.238 40.263-9.536 60.924-9.536 40.792-12.185 42.381-48.21 28.607-27.018-10.065-72.578-40.792-76.286-50.858-2.65-6.357 7.417-20.13 34.965-47.679 21.19-21.19 40.262-38.673 42.911-38.673s16.423 5.297 30.727 11.655m119.198 18.542c3.709 11.655 16.953 41.322 27.018 60.923 3.709 7.947 7.417 23.31 8.477 33.906l1.06 20.13-37.085 6.358c-48.209 9.006-61.983 9.006-73.638.53-7.946-5.828-8.476-11.125-3.178-52.977 7.946-65.692 18.542-85.293 32.845-62.513 6.358 10.066 6.887 10.066 18.542-2.649 13.774-14.833 22.25-16.423 25.96-3.708m353.887-583.278c-5.298 29.138-5.827 29.667-27.548 16.423-68.34-41.322-76.287-39.203-58.805 17.483 7.947 25.958 12.715 36.024 15.894 31.256 2.648-4.238 4.768-11.655 4.768-16.953 0-13.774 9.535-11.125 40.262 12.185 15.363 11.655 30.727 21.19 33.905 21.19s5.298-16.952 5.298-43.97c0-49.799-7.417-70.99-13.774-37.614M347.219 11.747c-1.589 2.649 4.238 7.417 13.245 10.595 17.482 5.828 17.482 6.887-5.298 37.614-28.608 38.143-35.495 61.453-17.483 56.685 4.768-1.589 20.132-4.238 34.436-6.357 23.84-3.178 30.726-9.006 19.601-15.893-10.066-6.357-5.298-20.131 15.893-42.911 23.84-25.96 26.489-36.555 9.536-41.323-18.542-4.767-66.751-3.708-69.93 1.59M879.11-96.856c0 4.238 2.12 13.774 5.298 21.19 4.238 11.656 3.708 13.775-4.238 13.775-95.889 2.119-99.068 4.238-70.46 34.965C820.834-14.742 831.43-.968 833.02 3.8c5.298 13.245 14.834 4.768 13.244-11.655l-1.589-14.304h39.203c22.78 0 40.263-2.119 41.322-5.827 1.06-2.649-4.238-15.893-11.655-29.137-6.887-12.715-15.363-28.608-18.542-35.495-5.827-13.244-15.893-15.893-15.893-4.238m-286.076-18.012c0 3.178 3.708 6.887 7.946 8.476 4.239 2.119 7.947 6.357 7.947 10.595s2.649 7.417 5.298 7.417c18.542 0-7.417 18.542-61.983 44.5-19.072 9.007-14.834 15.894 18.542 31.257C604.158 2.741 621.11 6.45 609.986-4.676c-10.596-10.596-7.417-29.667 5.827-33.376 27.548-7.946 56.686-21.72 56.686-26.488-.53-5.828-44.501-39.733-51.918-39.733-2.649 0-7.947-3.708-11.655-7.947-7.417-9.006-15.893-10.595-15.893-2.648" style="stroke-width:.529771"/>
</svg>
