<svg xmlns="http://www.w3.org/2000/svg" width="1200" height="960">
    <path d="M600 0 120 480l480 480 480-480zm0 120.059 178.418 178.359H675.234L600 223.184l-75.234 75.234H421.64zm181.582 181.523L960.059 480 781.582 658.477V555.234L856.816 480l-75.234-75.234zm-363.164.059v103.125L343.184 480l75.234 75.234v103.184L240.058 480zM600 323.906c86.22 0 156.094 69.874 156.094 156.094S686.22 636.094 600 636.094 443.906 566.22 443.906 480 513.78 323.906 600 323.906M421.582 661.582h103.184L600 736.816l75.234-75.234h103.243L600 840.059z" style="stroke-width:30"/>
</svg>
