<svg xmlns="http://www.w3.org/2000/svg" width="1200" height="960">
    <path d="M600 0 394.453 205.547c-4.642-1.688-9.045-3.248-14.531-5.215 2.651 4.733 4.902 8.479 7.207 12.54L120 480l246.797 246.797c-9.91 7.823-19.797 15.673-29.707 23.496-1.35 1.05-30.324 22.709-31.524 23.789 2.52.12 29.068-11.516 31.348-12.656.84-.27 1.943-.783 2.813-1.113 9.27-4.02 18.414-8.114 27.714-11.954 4.94-2.031 9.886-4.062 14.825-6.093L600 960l480-480zm0 23.203L1056.797 480 600 936.797 398.672 735.469c64.176-26.402 128.376-52.787 192.598-79.219a609757 609757 0 0 0 404.12-166.758c0-.397.03-.772 0-1.172-8.64-18.21-17.058-36.492-30.468-51.972-15.09-17.58-32.035-32.585-53.965-41.075-10.71-4.14-21.66-7.904-32.52-11.894-155.65-57.18-311.284-114.383-466.992-171.621zM397.266 225.938c.812.543 1.253 1.466 2.168 1.875 31.26 11.76 62.751 23.167 94.101 34.687a406875 406875 0 0 0 395.156 145.254c22.44 8.22 42.108 20.349 58.008 38.379 8.61 9.77 15.859 20.744 21.797 33.515L434.18 699.61c-.15-.24-.29-.549-.47-.879a893804 893804 0 0 0 261.213-206.778c-6.06-2.25-11.022-3.876-15.762-5.976-3.63-1.65-6.255-.848-9.375 1.582a873533 873533 0 0 1-289.98 229.043L143.203 480zm14.296 30c3.39 6.12 8.158 13.946 11.368 20.156 2.22 4.5 5.545 6.903 10.195 8.613 61.32 22.46 122.55 44.98 183.75 67.5a142831 142831 0 0 0 168.398 61.816c2.13.78 5.269 1.694 6.739.704 5.37-3.6 10.437-7.975 16.347-12.715L413.672 256.934c-.36-.12-1.81-.817-2.11-.997m31.817 55.78c4.68 8.19 8.279 15.228 12.539 21.798l.059.058c1.83 2.7 4.38 4.89 7.5 6.27 19.56 7.32 39.238 14.215 58.828 21.445 75.18 27.72 150.368 55.406 225.468 83.086 1.92.72 4.831 1.397 6.211.527 5.64-3.81 10.787-8.179 16.817-12.949-109.363-40.134-217.52-79.86-327.422-120.234m28.945 54.317c4.74 8.25 8.132 15.143 12.422 21.563v.058c1.89 2.88 4.61 5.181 7.91 6.621 26.37 9.87 52.936 19.403 79.336 29.063 46.2 17 92.412 33.922 138.692 50.742 2.04.66 5.12 1.05 6.68 0 5.16-3.45 9.917-7.659 15.527-12.129zm434.356 69.082c-6.81 0-12.364 5.495-12.364 12.305v.234c0 6.55 5.294 11.804 11.836 11.836h.059c.227.024.51.059.762.059 6.48 0 11.718-5.268 11.718-11.778v-.527c0-6.69-5.321-12.099-12.011-12.129" style="stroke-width:30"/>
</svg>
