<svg xmlns="http://www.w3.org/2000/svg" width="1320" height="960">
    <path d="M119.175 963.538v-.072a22.4 22.4 0 0 1 7.017-16.315l.01-.01 2.343-2.343q84.324-86.667 103.064-103.064a36.94 36.94 0 0 1 13.8-9.284l.253-.084a34.97 34.97 0 0 1 18.866 5.935l-.127-.08a17.49 17.49 0 0 1 9.369 15.213v.013a24.7 24.7 0 0 1 .566 5.327 25.29 25.29 0 0 1-7.589 18.093h-.003q-4.685 2.343-56.216 53.875a194.5 194.5 0 0 1-20.989 23.337l-.092.087-25.767 25.766a36.9 36.9 0 0 1-9.172 6.93l-.198.097a44.5 44.5 0 0 1-11.759 1.543 46 46 0 0 1-6.042-.397l.232.024a17.97 17.97 0 0 1-12.84-8.125l-.043-.071a28.6 28.6 0 0 1-4.69-15.768q0-.332.009-.66v.032zm1079.827 0c.057.632.09 1.368.09 2.111a25.12 25.12 0 0 1-11.699 21.25l-.103.061a22.3 22.3 0 0 1-25.796-2.367l.03.024a27.3 27.3 0 0 0-6.86-4.615l-.167-.07-103.064-103.063a6.74 6.74 0 0 1-2.341-4.664l-.001-.021a20.63 20.63 0 0 1-2.291-24.684l-.052.09a28.38 28.38 0 0 1 20.923-15.206l.158-.02h.073a22.4 22.4 0 0 1 16.314 7.016l.01.01 2.343 2.343q4.685 4.685 44.505 43.333t58.559 59.73a36.94 36.94 0 0 1 9.284 13.8l.084.253zM1067.83 799.572a26.63 26.63 0 0 1-22.183-15.065l-.069-.16a21.84 21.84 0 0 1-2.238-9.704 22.07 22.07 0 0 1 5.768-14.91l-.016.018q0-2.343 4.685-7.028l100.721-100.72a36.95 36.95 0 0 1 13.8-9.285l.254-.085a27 27 0 0 1 4.491-.363 27.84 27.84 0 0 1 18.951 7.408l-.019-.017a21.42 21.42 0 0 1 2.349 32.787l-.011.007q0 2.342-4.685 4.685l-69.1 69.1-31.622 33.962a110 110 0 0 1-11.09 6.727l-.62.3a38.3 38.3 0 0 0-9.63 2.435l.26-.091zm-948.655-131.17a23 23 0 0 1-.042-1.422 24.22 24.22 0 0 1 13.947-21.94l.15-.062a22.3 22.3 0 0 1 25.795 2.368l-.03-.025 4.686 4.685q42.162 44.505 100.72 100.721 4.685 4.685 4.686 7.028a22.31 22.31 0 0 1 2.285 25.87l.056-.103a24.26 24.26 0 0 1-22.001 14.096q-.75 0-1.49-.045h.069a59 59 0 0 1-14.256-7.156l.2.13L126.203 684.8a28.75 28.75 0 0 1-7.018-16.28l-.01-.117zm0 295.136v-.072a22.4 22.4 0 0 1 7.017-16.315l.01-.01L231.61 841.733a27.3 27.3 0 0 1 6.86-4.615l.166-.07a27.4 27.4 0 0 0 7.046-4.702l-.019.017a34.97 34.97 0 0 1 18.866 5.935l-.127-.08a17.49 17.49 0 0 1 9.369 15.213v.013a24.7 24.7 0 0 1 .566 5.327 25.29 25.29 0 0 1-7.589 18.093h-.003q-4.685 4.685-56.216 53.875-7.028 7.028-22.252 23.424t-24.594 25.766a36.9 36.9 0 0 1-9.172 6.93l-.198.096a24.8 24.8 0 0 1-9.493 1.855 25.1 25.1 0 0 1-14.022-4.254l.09.058a23.04 23.04 0 0 1-11.734-20.053q0-.542.025-1.076l-.002.05zm1079.827 0c.057.633.09 1.369.09 2.111a25.12 25.12 0 0 1-11.699 21.25l-.103.061a22.3 22.3 0 0 1-25.796-2.367l.03.024a27.3 27.3 0 0 0-6.86-4.614l-.167-.07-103.064-103.064a6.74 6.74 0 0 1-2.341-4.664l-.001-.021a22.305 22.305 0 0 1-2.285-25.87l-.056.103a18.8 18.8 0 0 1 8.114-10.495l.081-.047a24.3 24.3 0 0 1 12.664-3.514h.292a22.4 22.4 0 0 1 16.314 7.017l.01.01 2.343 2.342 43.333 42.163q43.333 42.162 59.73 60.901a36.94 36.94 0 0 1 9.284 13.801l.084.253zM1067.83 799.573a26.63 26.63 0 0 1-22.183-15.065l-.069-.161a21.84 21.84 0 0 1-2.238-9.704 22.07 22.07 0 0 1 5.768-14.91l-.016.018q0-2.342 4.685-7.027l100.721-100.722a36.95 36.95 0 0 1 13.8-9.284l.254-.084a27 27 0 0 1 4.491-.364 27.84 27.84 0 0 1 18.951 7.409l-.019-.018a21.42 21.42 0 0 1 2.349 32.787l-.011.007q0 2.343-4.685 4.685l-55.046 55.045-45.676 48.019a110 110 0 0 1-11.09 6.726l-.621.301zM119.175 668.4a23 23 0 0 1-.042-1.421 24.22 24.22 0 0 1 13.947-21.94l.15-.062a22.3 22.3 0 0 1 25.795 2.368l-.03-.025 105.407 105.406q4.684 4.685 4.685 7.028a22.31 22.31 0 0 1 2.285 25.87l.056-.103a24.26 24.26 0 0 1-22.001 14.096q-.75 0-1.49-.045h.069a59 59 0 0 1-14.256-7.156l.2.13L126.203 684.8a28.75 28.75 0 0 1-7.018-16.28l-.01-.117zM957.74 972.908H355.754c-.775.039-1.684.06-2.598.06a55.97 55.97 0 0 1-41.859-18.745l-.048-.055a50.47 50.47 0 0 1-14.11-35.076q0-1.267.061-2.518l-.006.117a19.2 19.2 0 0 0-1.215-5.988l.044.132a18.8 18.8 0 0 1-1.17-5.816v-.04l2.342-1007.213a118.64 118.64 0 0 1 41.976-79.488l.186-.152A114.42 114.42 0 0 1 414.705-210q1.028 0 2.051.018l-.103-.001c.33-.003.72-.006 1.11-.006a126.1 126.1 0 0 1 75.358 24.841l-.342-.242a108.9 108.9 0 0 1 43.21 66.05l.124.707a108.6 108.6 0 0 1 4.684 30.369l.001.082v349.013a44.2 44.2 0 0 1 9.051-3.443l.32-.07q4.683-1.17 10.54-2.343a47 47 0 0 1 8.06-1.164l.136-.007q28.109-7.028 30.451-7.028a141.5 141.5 0 0 1 26.082-2.356q1.068 0 2.134.015l-.108-.001a196 196 0 0 1 27.96-2.34l.147-.001q14.055 0 29.28 1.17 15.224 1.17 29.28 3.513 11.71 2.343 28.108 7.028a202 202 0 0 1 31.888 7.426l-1.438-.4V-83.497a139 139 0 0 1-.008-1.363 133.75 133.75 0 0 1 12.062-55.693l-.344.839a110.9 110.9 0 0 1 32.562-41.986l.233-.177a130.2 130.2 0 0 1 47.105-23.22l.913-.203a107.2 107.2 0 0 1 28.717-3.826 110 110 0 0 1 24.725 2.798l-.739-.143a140.5 140.5 0 0 1 46.235 19.075l-.559-.336a105.9 105.9 0 0 1 32.531 33.5l.263.463a133.7 133.7 0 0 1 17.414 43.624l.153.88a43.3 43.3 0 0 1 2.342 14.047V914.346a101.3 101.3 0 0 1-2.472 19.415l.13-.676a58.55 58.55 0 0 1-55.388 39.826q-.438 0-.873-.011h.043zm-4.685-634.78V-76.467c.006-.253.008-.55.008-.85a53.1 53.1 0 0 0-8.332-28.645l.129.215a64.65 64.65 0 0 0-21.943-20.916l-.309-.165a58.74 58.74 0 0 0-30.11-8.198l-.36.001h-.164a56.02 56.02 0 0 0-40.785 17.543l-.023.025a56.04 56.04 0 0 0-17.568 40.808v360.907a388.1 388.1 0 0 1 112.278 81.819l.155.164a61.5 61.5 0 0 0 7.024-28.075zm-475.5-56.216V-78.81a55 55 0 0 0 .007-.85 53.1 53.1 0 0 0-8.332-28.645l.129.216a76.2 76.2 0 0 0-21.966-22.076l-.286-.177a53.36 53.36 0 0 0-30.346-9.37h-.104a59.92 59.92 0 0 0-42.162 17.57v-.002a54.46 54.46 0 0 0-18.738 40.983V340.47a58.1 58.1 0 0 0 7.18 26.067l-.153-.3a413.5 413.5 0 0 1 112.412-83.247l2.362-1.08zm-25.766 550.455c.406.01.884.015 1.364.015a58.7 58.7 0 0 0 41.964-17.577l.007-.01a59.38 59.38 0 0 0 .004-84.321l-.003-.003a62.23 62.23 0 0 0-86.682.015l.015-.015a59.38 59.38 0 0 0-.004 84.321h.003a58.7 58.7 0 0 0 41.97 17.586q.72 0 1.433-.018h-.07zm419.283 0h.544a66.86 66.86 0 0 0 30.29-7.204l-.384.176a53 53 0 0 0 22.118-20.827l.134-.255a59.8 59.8 0 0 0 8.485-30.887 60.47 60.47 0 0 0-60.472-60.47q-.375-.001-.752.005h.037a53 53 0 0 0-1.8-.029 54.94 54.94 0 0 0-40.332 17.563l-.03.034a62.41 62.41 0 0 0 .04 84.37l-.04-.046a54.96 54.96 0 0 0 40.364 17.598q.949 0 1.889-.032h-.092z" style="stroke-width:4.35407"/>
</svg>
