<svg xmlns="http://www.w3.org/2000/svg" width="1522" height="960">
    <path d="M790.3-30c-1.732 0-2.153.891-2.888 2.676-.63 1.68.212 5.88 1.892 9.03 1.89 3.149 5.878 11.546 8.817 18.474 9.029 20.156 13.648 30.656 20.367 45.143 3.569 7.558 9.238 19.734 12.597 27.292 3.36 7.559 7.137 15.12 8.187 16.799s2.94 5.458 3.99 8.187c3.149 7.139 28.973 32.334 37.791 36.744 3.99 2.1 12.179 5.457 17.848 7.347 9.658 3.57 17.637 5.458 58.789 14.277 8.188 1.68 20.156 4.41 26.665 6.09 23.095 5.668 26.873 3.147 19.105-12.18-5.04-10.078-5.25-10.705-18.478-41.569-6.509-15.327-12.596-29.605-13.646-31.284-.84-1.89-2.94-6.72-4.62-10.71-22.465-53.328-31.072-60.886-84.61-74.114-29.815-7.348-34.016-8.396-41.994-9.866-11.968-2.1-27.713-6.091-39.05-9.66C795.078-29.11 792.032-30 790.3-30m-60.333 6.056c-2.922-.029-6.63.73-10.58 2.291-2.939 1.26-9.448 2.94-14.697 3.989-5.25.84-14.066 2.728-19.945 4.198-11.758 2.73-29.393 7.139-48.29 11.758-25.824 6.509-35.902 10.287-45.77 17.635-9.238 6.719-24.567 26.246-24.567 31.075 0 1.26-1.257 4.828-2.937 8.187-3.15 6.09-7.978 17.006-13.437 30.024-1.68 3.989-3.78 8.82-4.62 10.709-1.05 1.68-7.14 15.957-13.649 31.493-6.718 15.537-12.806 28.973-13.646 30.233-3.15 4.409-3.778 11.76-1.049 12.81 1.47.63 8.398-.212 15.117-1.892 6.718-1.68 19.736-4.827 28.974-6.717s23.515-4.83 31.494-6.72c31.703-6.719 43.459-11.128 58.786-22.676 18.476-13.857 30.023-30.234 44.09-62.987 1.68-3.57 5.67-12.597 9.24-20.575 3.569-7.769 9.449-20.366 13.018-28.345 3.36-7.768 7.769-16.795 9.448-19.944 1.68-3.36 2.937-7.138 2.937-8.818 0-1.47 1.47-3.78 3.15-5.25s3.15-4.408 3.15-6.508c0-2.598-2.459-3.934-6.217-3.97m248.965 44.638c-1.18.113-2.034.85-2.558 2.162-.63 1.89.211 6.09 1.891 9.24 2.94 5.668 13.436 27.924 19.314 41.571 7.139 16.167 17.217 37.582 26.875 57.528 17.216 35.063 38.422 52.698 73.905 61.726 26.454 6.719 34.014 8.4 44.512 9.87 5.879 1.05 11.968 2.31 13.228 3.149 1.26.84 7.558 2.309 14.277 3.359 6.508 1.05 14.485 2.519 17.844 3.149 7.348 1.68 7.35-1.679.212-17.635-5.249-11.758-8.399-19.318-14.067-32.546-1.68-3.569-4.41-10.078-6.3-14.067-1.679-3.99-4.618-10.706-6.298-14.695s-4.619-10.709-6.299-14.698c-17.216-40.312-22.466-48.08-39.892-59.207-11.338-7.349-23.515-11.76-49.76-17.639-8.608-1.89-19.946-4.829-24.985-6.298-5.25-1.68-11.128-2.937-13.437-2.937s-9.029-1.26-14.907-2.94c-5.88-1.68-14.487-3.989-19.106-5.038s-10.077-2.731-11.967-3.571c-.944-.394-1.773-.55-2.482-.483m-435.754 5.917a6 6 0 0 0-.785.025c-1.47.21-7.768 1.679-14.067 3.359s-16.796 4.2-23.094 5.88c-6.3 1.47-16.167 3.987-22.046 5.247-5.669 1.47-14.277 3.361-18.896 4.201-34.013 6.299-55.638 15.116-69.286 28.553-9.448 9.028-20.574 31.073-39.68 77.473-2.94 6.929-6.51 15.119-19.318 44.512-2.1 4.41-4.41 9.66-5.25 11.55-1.05 2.099-1.888 5.667-1.888 8.186 0 3.36.84 4.2 3.78 2.94 1.89-.63 6.507-1.89 9.866-2.31 3.57-.63 11.968-2.309 18.896-3.988 6.929-1.47 20.158-4.41 29.396-6.299 51.65-10.708 71.384-19.737 89.44-40.732 9.868-11.338 14.906-20.157 26.874-47.032 2.31-4.829 6.51-14.486 9.66-21.415s8.398-18.685 11.967-26.243c3.36-7.559 7.559-17.008 9.448-20.997 1.68-3.989 4.62-9.868 6.299-13.228 2.953-5.511 2.397-9.545-1.316-9.682m624.685 43.144c-1.24-.04-2.001.08-2.316.342-2.1 2.309-.84 6.93 5.459 20.787 3.57 7.978 9.237 20.364 12.807 27.923 7.348 16.167 11.968 26.036 19.526 43.042 2.94 6.929 6.298 14.067 7.348 15.747s3.988 7.348 6.508 12.597c5.878 11.548 27.294 33.382 38.631 39.05 12.598 6.3 37.165 13.23 73.487 20.788 9.238 1.89 20.995 4.408 26.244 5.668 15.537 3.78 25.195 4.409 25.195 1.68 0-3.15-29.183-71.805-31.703-74.324-1.05-1.26-1.891-3.362-1.891-4.832 0-2.52-4.83-13.856-18.057-41.99-11.757-25.195-34.223-39.47-73.275-46.819-4.619-.84-13.017-2.732-18.896-4.201-5.669-1.26-15.747-3.777-22.045-5.247s-16.167-3.99-22.046-5.25c-13.227-3.307-21.256-4.843-24.976-4.96M353.26 75.28c-2.53.052-6.074.645-10.746 1.538-4.619.84-13.017 2.728-18.896 4.198-5.669 1.26-15.747 3.78-22.046 5.25s-15.744 3.777-20.993 5.247c-5.25 1.26-13.647 3.15-18.896 4.2-43.461 8.819-58.159 21.204-77.055 65.085-6.508 15.117-9.028 21.207-12.597 28.766-1.89 4.409-4.62 10.707-6.09 14.276-2.52 6.3-5.04 11.967-14.067 32.543-14.067 31.493-14.067 31.704 4.62 26.665 6.508-1.68 19.314-4.828 28.552-6.717 9.239-1.89 20.998-4.412 26.247-5.672s13.225-2.937 17.844-3.776c19.526-3.36 43.043-14.487 55.43-26.035 8.609-7.978 20.995-24.987 25.614-34.855 10.498-22.255 27.084-58.367 32.333-70.334 1.47-3.57 5.67-12.387 9.239-19.945 7.558-15.905 9.095-20.592 1.507-20.434m543.755 100.813c-2.788.074-3.364.925-3.364 2.762 0 1.89 2.94 9.659 6.299 17.007 3.569 7.139 6.298 14.488 6.298 15.747 0 1.47 1.26 6.299 2.94 11.128 6.09 17.846 13.227 59.838 15.956 93.431.84 10.918 2.73 29.394 3.99 40.942 1.469 11.548 3.779 33.172 5.458 48.289 1.68 14.907 3.99 36.741 5.46 48.29 1.26 11.547 3.149 30.023 3.988 40.94.84 10.918 2.73 28.976 3.99 39.893s3.779 32.124 5.458 47.24c1.68 14.908 3.99 37.164 5.46 49.342s3.149 30.443 3.989 40.941c1.68 20.996 4.829 48.5 9.448 85.033 1.68 13.227 3.149 28.553 3.149 34.012s1.05 10.498 2.1 11.127c1.26.84 5.46-1.888 9.449-5.877 6.928-6.928 7.347-8.19 7.347-20.787 0-7.139 1.26-26.874 3.15-43.67 1.68-16.797 4.409-47.451 6.298-68.237 1.68-20.786 4.2-48.29 5.46-60.887 1.259-12.807 3.148-34.013 3.988-47.24s2.73-34.853 3.99-47.87c1.259-12.808 3.359-34.224 4.619-47.24 1.26-12.808 3.149-34.435 3.989-47.663s2.729-34.642 3.989-47.24c10.288-106.658 10.079-100.778 5.25-116.735-5.04-16.797-9.237-24.356-19.315-34.434-8.398-8.608-23.726-17.844-29.605-17.844-1.47 0-7.139-1.26-12.597-2.94-19.316-6.089-33.175-9.657-37.374-9.657-2.31 0-7.976-1.261-12.386-2.94-4.619-1.47-13.23-3.359-19.108-4.199-3.622-.472-6.09-.708-7.763-.664M628.936 179.9c-2.503-.014-7.047.742-13.477 2.316-4.619 1.05-13.646 3.36-19.945 4.829-6.299 1.68-18.687 4.618-27.295 6.508-41.362 9.448-54.8 16.166-68.446 34.643-3.99 5.459-9.03 15.745-11.55 23.094-4.618 14.487-4.618 26.664 0 73.275 1.26 12.177 3.78 39.052 5.46 59.837 7.348 83.353 9.658 110.228 11.758 132.273 1.26 12.598 3.149 34.013 3.989 47.24 2.1 30.024 5.459 67.608 9.448 106.03 1.89 16.166 3.15 34.014 3.15 39.892 0 5.67 1.469 21.835 3.149 35.692 1.68 13.647 3.149 30.444 3.149 36.953 0 10.288.84 12.808 6.299 18.687 7.558 7.978 11.34 7.348 11.97-2.31.63-7.349 5.456-51.65 9.235-84.823 1.26-10.498 3.15-27.924 3.99-38.841s2.729-29.394 3.988-40.942c1.47-11.548 3.78-34.015 5.46-49.971 7.138-66.137 9.657-89.862 12.597-114.847 1.89-14.487 3.15-29.183 3.15-32.542 0-3.57 1.259-17.637 3.149-31.494 5.249-42.411 7.768-66.347 9.448-87.133 2.52-30.864 9.87-73.695 15.959-91.331 1.68-4.83 2.937-9.658 2.937-11.128 0-1.26 3.361-9.448 7.35-18.056 3.99-8.608 7.348-16.375 7.348-17.005 0-.55-.768-.837-2.27-.846m451.76 35.566c-1.601-.026-2.491.656-3.33 2.02-.63 1.05.207 4.831 2.097 8.19 3.989 7.98 3.989 24.774 0 51.648-1.68 11.548-4.62 32.754-6.3 47.24-1.679 14.488-4.618 35.693-6.298 47.24-1.68 11.549-3.15 23.727-3.15 27.296 0 3.36-1.257 15.748-2.936 27.296-4.62 30.443-7.771 54.378-9.66 73.484-.84 9.238-2.729 24.775-4.199 34.642-1.26 9.868-3.78 28.556-5.459 41.363-1.47 13.018-4.407 34.433-5.877 47.24-1.68 13.018-4.2 31.702-5.46 41.57-1.469 9.868-3.36 25.404-4.2 34.643-2.1 19.526-5.249 44.51-9.658 72.435-1.68 10.917-2.94 23.517-2.94 27.716 0 8.189 3.36 10.916 5.46 4.408.63-2.1 2.309-7.138 3.988-11.128 2.94-8.398 7.559-24.145 12.598-44.09 1.89-7.559 4.83-18.685 6.51-24.774 1.68-5.879 4.198-15.957 5.878-22.045 1.68-5.88 4.618-17.01 6.508-24.568s4.831-18.685 6.51-24.773c1.68-5.88 4.198-15.957 5.878-22.046 1.68-5.879 4.618-17.006 6.508-24.564 1.89-7.559 4.829-18.477 6.299-24.146 1.68-5.879 4.41-15.958 6.09-22.676 1.889-6.509 4.83-17.425 6.72-24.143 1.679-6.509 4.406-16.798 6.086-22.467 1.47-5.879 4.409-16.588 6.298-24.146s4.83-18.474 6.3-24.143c1.679-5.879 4.409-15.957 6.089-22.676 6.718-24.145 9.45-34.224 13.019-47.662 3.989-15.956 8.398-32.33 12.597-47.867 1.68-5.88 4.198-15.957 5.877-22.046 1.68-5.879 4.41-16.168 6.09-22.467s4.198-15.747 5.668-20.996c1.47-5.25 2.94-15.117 3.57-22.046.84-11.547.42-13.015-5.25-19.314-3.358-3.57-9.867-7.559-14.276-8.609-22.255-5.668-30.026-7.347-39.684-8.817-5.668-1.05-13.224-2.73-16.374-3.99-3.674-1.469-5.986-2.206-7.587-2.232m-638.627 6.48c-4.484-.143-11.766.923-18.72 2.891-5.25 1.68-17.006 4.408-26.244 6.508-32.543 6.929-38.844 11.756-38.844 30.233 0 6.298 1.26 15.747 2.94 20.996 1.68 5.25 4.618 15.536 6.508 23.094s4.831 18.69 6.51 24.568c8.819 32.123 14.066 51.437 18.685 69.913 1.89 7.559 4.83 18.896 6.72 25.195 1.68 6.299 4.41 16.588 6.09 22.467 1.679 6.088 4.197 16.166 5.877 22.045 4.199 15.537 8.608 31.914 12.597 47.87 7.139 26.665 14.278 53.75 18.687 69.287 1.89 6.298 4.827 17.636 6.717 25.195 1.89 7.558 4.83 18.264 6.299 24.143 1.68 5.668 4.41 15.958 6.09 22.466 7.558 27.505 9.447 34.854 12.806 47.871 1.89 7.559 4.831 18.686 6.51 24.564 1.68 6.09 4.199 16.167 5.878 22.046 1.68 6.089 4.618 17.215 6.508 24.773 2.1 7.559 4.829 17.008 6.299 20.997s3.359 9.028 3.989 11.127c2.1 6.51 5.459 3.781 5.459-4.407 0-4.199-1.47-17.637-3.15-29.814-8.398-56.898-9.448-64.459-9.448-70.338 0-3.569-1.47-15.744-3.149-27.292s-4.62-32.753-6.299-47.24c-1.89-14.487-4.199-33.386-5.459-41.994s-3.149-23.304-3.989-32.542c-1.05-9.238-2.728-24.775-4.198-34.643-1.26-9.868-3.57-28.344-5.25-40.942-1.68-12.807-3.99-30.654-5.459-39.892-1.26-9.238-3.149-24.353-3.989-33.591-1.05-9.238-2.728-24.775-4.198-34.643-1.26-9.868-3.57-28.344-5.25-40.942-1.68-12.807-4.409-33.594-6.299-46.191-3.989-28.974-3.989-46.61 0-54.379 1.68-3.15 3.15-6.719 3.15-7.769 0-1.023-1.683-1.544-4.374-1.63m762.067 24.786c-1.974-.024-3.592.424-4.577 1.409-.63.84-.63 4.2 0 7.56 1.26 6.718-2.94 33.59-6.298 40.52-1.26 2.309-2.94 7.559-3.78 11.548-.84 3.99-3.15 11.969-4.829 17.847-3.779 11.758-7.56 24.773-13.858 46.189-2.31 7.978-5.669 18.897-7.138 24.146-1.68 5.249-4.407 14.066-6.087 19.945-1.68 5.669-4.621 15.747-6.51 22.045-2.1 6.299-4.41 14.907-5.46 18.896-.84 3.99-2.728 10.71-4.198 14.698-5.669 16.797-6.72 20.367-8.4 27.296-.84 3.989-2.726 10.077-3.776 13.646-1.26 3.36-3.781 11.968-5.88 18.896-1.89 6.929-4.83 16.378-6.09 20.997-1.47 4.619-4.41 14.065-6.299 20.993-2.1 6.929-5.039 16.378-6.299 20.997-1.47 4.62-4.199 14.068-6.298 20.997-1.89 6.928-4.83 16.374-6.299 20.994-1.26 4.619-4.2 14.068-6.299 20.996-1.89 6.929-4.829 16.378-6.298 20.997-1.26 4.619-4.2 14.065-6.3 20.994-1.889 6.928-5.036 16.798-6.716 21.627-7.769 22.045 4.407 10.286 28.762-27.926 2.94-4.62 6.719-10.288 34.643-50.39 10.288-14.697 37.583-55.428 42.412-63.196 3.78-5.879 16.379-32.123 19.948-41.781 7.348-18.686 13.225-44.722 16.374-71.387.84-8.188 2.73-21.414 3.989-29.392 1.26-8.189 3.57-26.455 5.46-40.942 1.889-14.487 4.618-35.693 6.298-47.24 1.89-11.548 3.15-24.356 3.15-28.135 0-3.99 1.051-15.117 2.521-24.356 3.15-22.255.209-34.22-10.709-43.039-4.763-4.041-10.818-6.396-15.16-6.45m-888.705 6.45c-5.459 0-8.607 1.678-14.486 8.186-3.99 4.41-7.98 11.128-8.82 14.908-1.47 6.718 1.682 46.611 5.67 71.386 1.26 7.558 2.938 21.203 3.777 30.442 2.1 21.625 5.67 47.661 9.449 70.546 1.68 9.868 3.149 21.206 3.149 25.195 0 16.167 17.008 78.315 23.306 84.824 1.05 1.05 1.889 3.15 1.889 4.619s4.83 10.497 10.5 19.945c14.697 24.355 14.695 24.353 24.143 37.37 4.619 6.3 9.45 13.23 10.5 15.12 1.26 1.89 7.138 10.917 13.437 19.945s20.363 29.603 31.28 45.77c10.919 16.167 20.367 29.815 21.207 30.445s2.31 2.938 3.149 5.038c1.05 2.94 2.101 3.358 3.57 1.888 1.68-1.68 1.47-5.037-.839-11.546-1.68-4.829-4.83-14.698-6.72-21.627-2.1-6.928-5.039-16.374-6.299-20.993-1.47-4.62-4.409-14.068-6.298-20.997-2.1-6.929-4.83-16.378-6.299-20.997-1.26-4.619-4.2-14.065-6.299-20.993-1.89-6.929-4.829-16.378-6.298-20.997-1.26-4.62-4.197-14.068-6.087-20.997-2.1-6.928-4.62-15.537-5.88-18.896-1.05-3.57-2.94-9.657-3.78-13.646s-2.73-10.498-3.99-14.277c-1.259-3.569-3.359-9.867-4.619-13.646-1.26-3.57-3.149-10.078-3.989-14.067-1.05-3.99-3.358-12.179-5.037-17.848-1.89-5.879-4.829-15.536-6.508-21.415-1.89-6.089-4.62-15.538-6.299-20.997-1.68-5.668-5.04-16.795-7.35-24.773-4.41-15.327-8.186-27.715-13.225-44.721a3842 3842 0 0 1-6.511-21.415c-2.1-6.3-4.41-14.907-5.46-18.897-.84-3.989-2.728-10.708-4.197-14.698-5.46-16.166-6.718-20.576-9.658-33.594-1.68-7.558-2.94-18.056-2.94-23.515 0-10.078 0-10.076-7.138-10.076m949.687 6.455c-3.78-.158-6.142.47-6.142 1.94 0 1.05 1.05 6.72 2.31 12.598 2.309 11.128 1.679 19.528-5.46 64.039-1.68 10.288-3.359 22.254-3.989 26.243-.84 9.658-4.828 34.644-8.817 55.64-1.68 9.238-2.94 20.154-2.94 24.143-.21 3.99-1.47 13.02-3.15 19.948-3.57 14.277-3.987 28.344-1.258 28.344 1.05 0 5.457-5.46 9.867-12.179 4.409-6.509 11.757-17.217 16.586-23.516s9.449-13.015 10.078-14.695c.84-1.68 7.558-11.757 15.117-22.045 13.017-18.056 22.045-31.074 44.09-62.987 13.858-20.156 29.185-41.991 37.793-54.379 9.238-12.597 9.658-18.056 1.47-18.056-3.36 0-10.076-1.26-15.325-2.94-11.338-3.36-27.505-7.56-38.632-9.87-11.548-2.31-25.405-5.879-36.953-9.448-5.669-1.68-10.866-2.623-14.646-2.78m-1006.64 4.853c-1.117-.04-2.492.134-4.146.45-2.31.629-9.656 2.308-16.165 3.988-6.718 1.68-17.848 4.62-24.776 6.299s-18.475 4.618-25.613 6.508c-7.349 1.68-18.059 4.619-23.937 6.298-5.88 1.68-12.175 2.94-14.065 2.94-6.089 0-6.089 4.198 0 12.177 3.36 4.199 9.028 11.968 12.598 17.216 8.188 12.178 22.042 32.334 36.95 53.54 6.508 9.238 19.945 28.555 29.813 43.042s23.728 34.223 30.866 44.09c6.93 9.869 15.537 22.255 18.897 27.714 10.497 16.167 12.175 11.129 6.926-19.105-1.68-9.868-4.41-27.716-6.299-39.684-6.929-47.24-9.658-65.297-12.597-83.353-6.719-43.461-7.979-55.637-6.3-63.405 2.73-14.33 2.69-18.54-2.152-18.715m1141.76 56.664c-1.211.115-3.347 1.837-5 4.041-1.89 2.52-7.767 10.919-13.016 18.687-5.25 7.768-10.707 15.326-11.967 16.796-1.89 2.31-33.594 45.142-67.397 90.913-3.36 4.619-18.686 25.402-34.013 46.188-28.344 38.632-38.003 53.12-43.882 66.136-4.829 10.918-10.078 27.717-10.078 32.546 0 2.31-1.47 11.126-3.15 19.314-1.68 8.398-4.619 22.257-6.298 30.445-3.57 17.426-3.988 26.874-1.258 26.874 1.68 0 29.603-26.875 119.045-114.847 13.227-13.017 27.924-29.395 32.963-36.743 13.857-20.576 24.984-49.758 28.763-76.212.84-5.879 2.729-17.639 3.989-26.247 1.47-8.608 3.78-24.774 5.459-35.691 1.68-10.918 3.99-27.084 5.459-35.692 3.15-20.576 3.359-25.616.84-26.456a1 1 0 0 0-.459-.052m-1278.563 4.02c-.68.043-1.32.732-1.713 1.913-.84 1.89-.211 7.346 1.049 12.385 1.47 4.829 3.148 16.168 4.198 24.776 3.779 35.063 12.807 89.021 18.896 113.586 6.299 25.615 21.627 52.49 41.363 72.435 31.703 32.124 129.962 126.813 131.851 127.023 1.26.21 2.52-1.468 2.94-3.568.63-3.359-.42-9.657-9.448-52.068-1.68-8.189-2.94-16.587-2.94-18.897s-1.888-10.078-4.198-17.216c-3.57-11.758-5.88-17.008-10.918-25.826l-3.15-6.298c-1.47-3.15-10.497-15.536-78.733-108.127-18.686-25.405-37.373-51.02-41.572-56.689-15.327-21.205-44.721-60.888-46.401-62.777-.394-.473-.816-.678-1.224-.652m1228.783 261.06c-2.116.086-5.654 2.595-10.857 7.287-5.669 5.039-13.859 12.597-18.478 16.586-4.409 3.99-9.236 8.4-10.706 9.87s-10.08 9.026-19.317 16.795c-14.907 12.807-30.443 26.875-37.371 33.594-1.47 1.47-10.5 9.237-20.157 17.635-20.786 17.637-29.185 26.666-33.594 35.904-3.99 7.978-10.288 28.761-10.288 33.8 0 7.559-12.176 28.135-23.303 39.263-4.62 4.829-37.163 29.395-38.632 29.395-.63 0-7.35 4.408-14.698 9.867-7.559 5.669-20.156 14.697-28.345 20.366-13.857 9.868-18.477 17.217-6.72 10.918 3.15-1.47 9.03-4.41 13.02-6.09 3.988-1.889 14.066-6.296 22.045-9.866 8.188-3.569 17.637-7.978 20.996-9.448 29.184-13.017 40.311-17.847 60.887-27.295 6.928-3.15 16.377-7.349 20.997-9.448 4.619-2.1 14.487-6.72 22.045-10.079 7.558-3.569 19.315-8.817 26.244-11.967 26.664-11.967 31.702-14.695 40.31-21.624 14.068-10.918 26.245-30.656 29.184-46.613 1.26-6.928 6.3-36.952 9.449-56.688 1.26-8.608 3.149-21.835 3.989-29.393s2.731-19.526 4.2-26.874c2.245-10.97 2.192-16.02-.9-15.894M171.815 590.1c-.816.018-1.216.768-1.676 1.95-.84 1.889.211 11.336 2.1 20.784s3.36 19.947 3.36 23.306c0 5.88 2.939 24.986 9.447 61.308 1.68 9.448 3.15 18.685 3.15 20.785 0 3.569 4.829 15.956 8.608 22.045 1.05 1.68 2.52 4.62 3.15 6.299 3.149 7.348 26.034 27.086 37.792 32.545 14.697 6.929 28.764 13.228 67.606 30.654 4.83 2.1 12.809 5.878 17.848 7.978 4.829 2.31 14.486 6.508 21.415 9.657s18.685 8.398 26.243 11.967c7.559 3.36 16.589 7.35 19.948 9.03 13.018 5.669 35.9 16.166 41.57 19.105 3.359 1.68 7.768 2.94 10.078 2.94 2.1 0 3.989.838 3.989 2.098 0 1.05 1.472 2.1 3.361 2.1 2.73 0 2.31-1.05-1.47-5.25-2.73-2.729-5.88-5.246-6.72-5.246-1.05 0-7.137-3.991-13.646-9.03-6.509-4.83-14.696-10.706-18.266-13.016-3.359-2.1-7.14-4.621-8.399-5.671-1.05-1.05-12.178-9.238-24.355-18.266-32.543-24.145-39.053-33.59-47.031-67.394-6.299-26.245-9.237-30.235-48.29-64.248-17.216-14.697-31.072-27.294-35.691-31.703-1.47-1.47-10.08-9.03-19.317-16.798-14.488-12.598-27.083-23.934-38.211-34.222-10.97-10.248-14.796-13.749-16.593-13.707m1003.807 41.003c-1.26 0-6.716 6.506-12.385 14.695-12.807 18.266-31.703 44.51-34.012 47.24-1.05 1.26-3.571 5.04-5.88 8.4-3.36 5.668-21.205 30.442-25.614 35.69-.84 1.05-5.249 7.351-9.448 13.65-15.537 22.675-32.754 46.818-63.408 88.81-18.686 25.824-34.643 49.76-34.643 52.28 0 1.26 3.15-.21 6.93-2.94 3.568-2.73 10.077-7.348 14.067-10.287 3.989-2.73 9.027-6.718 11.336-8.818 2.31-1.89 4.83-3.57 5.46-3.57 1.259 0 28.133-19.315 34.642-24.774 1.26-1.05 5.04-3.569 8.4-5.668 3.569-2.31 15.537-10.92 26.664-19.318s21.204-15.325 22.464-15.325c1.05 0 7.14-5.039 13.228-11.128 10.918-10.917 24.773-35.064 24.773-42.833 0-2.1 1.26-10.496 2.94-18.474 1.68-8.189 4.62-22.256 6.3-31.494s4.199-22.467 5.458-29.396c3.78-18.686 5.038-36.74 2.728-36.74m-827.255 6.664c-1.811 0-2.704 2.887-2.704 8.661 0 4.83 1.051 12.179 2.101 16.168 1.26 3.99 3.148 13.435 4.198 20.994 4.41 31.703 12.178 68.027 17.217 80.834 9.448 23.515 18.266 31.493 90.7 82.932 12.178 8.608 32.124 23.097 44.092 31.915 33.803 24.985 35.275 22.885 8.82-13.228-8.188-11.338-20.786-28.765-28.135-39.053-7.138-10.078-20.365-28.763-29.393-41.15-8.818-12.388-23.306-32.545-31.915-44.722-8.608-12.178-21.416-29.811-28.135-39.26-17.216-23.725-31.913-44.932-38.631-55.43-3.675-5.774-6.404-8.66-8.215-8.66m963.505 174.211c-1.843.02-5.105 1.262-11.955 4.097-5.669 2.52-13.855 5.668-17.844 7.138-11.548 4.2-25.617 9.658-32.545 12.598-6.09 2.729-17.217 6.927-32.964 12.806-4.41 1.68-11.966 4.41-16.796 6.299-5.038 1.68-11.757 4.619-14.907 6.299-3.359 1.68-7.347 2.94-8.817 2.94s-5.458 1.257-8.818 2.937c-5.459 2.94-13.227 5.88-33.173 13.228-4.619 1.68-11.127 4.41-14.276 6.09-3.36 1.679-7.351 2.94-8.82 2.94s-5.46 1.257-8.818 2.937c-3.15 1.68-9.87 4.619-14.698 6.298-5.04 1.89-13.016 4.83-17.845 6.72-5.039 1.68-11.757 4.62-14.907 6.3-3.36 1.679-7.348 2.94-8.818 2.94s-5.46 1.257-8.82 2.937c-5.459 2.729-11.757 5.25-32.542 13.018-14.277 5.25-25.826 9.66-32.124 12.389-3.36 1.68-10.917 4.616-16.796 6.926-7.768 3.149-12.387 6.719-17.426 14.067-3.78 5.46-6.51 11.128-5.88 12.598 1.47 4.199 15.119 5.04 100.991 6.51 90.282 1.47 87.97 1.888 114.635-15.958 6.928-4.62 13.02-8.397 13.649-8.397.42 0 6.927-4.199 14.695-9.448 7.558-5.249 14.069-9.448 14.489-9.448s6.719-3.991 14.067-8.82c14.907-10.078 20.155-13.435 24.774-15.535 15.747-7.558 53.958-43.252 66.976-62.778 8.818-13.227 19.526-36.322 18.056-38.632-.735-1.286-1.31-2.01-2.743-1.996m-1101.305 5.484c-1.605-.04-2.372.581-2.845 1.762-1.26 3.36 8.188 22.463 19.945 40.73 11.968 18.266 37.375 42.203 61.52 57.74 11.968 7.768 24.355 15.747 27.505 18.056 3.15 2.1 6.297 3.99 6.717 3.99.63 0 7.348 4.198 15.116 9.447 7.559 5.25 14.068 9.448 14.698 9.448.42 0 6.93 4.2 14.698 9.448 7.559 5.25 14.486 9.448 15.326 9.448 1.05 0 2.938 1.258 4.198 2.938 1.26 1.47 9.45 4.41 18.477 6.51 14.278 3.36 21.834 3.57 72.854 2.31 73.485-2.1 109.809-3.99 111.488-5.88 5.25-5.25-18.687-30.862-28.765-31.072-1.89 0-6.09-1.26-9.448-2.94-5.46-2.94-13.227-5.88-33.173-13.228-4.62-1.68-11.127-4.41-14.277-6.09-3.36-1.68-7.348-2.937-8.817-2.937s-5.459-1.26-8.818-2.94c-3.15-1.68-9.869-4.62-14.698-6.3-5.039-1.889-13.018-4.83-17.847-6.72-5.04-1.679-11.755-4.618-14.904-6.298-3.36-1.68-7.351-2.937-8.821-2.937s-5.458-1.26-8.818-2.94c-3.149-1.68-9.869-4.62-14.698-6.299-5.039-1.89-12.807-4.828-17.426-6.508a925 925 0 0 1-17.217-6.51c-5.038-1.89-11.756-4.617-15.325-6.087-3.36-1.47-10.287-4.2-15.116-6.09-8.608-3.15-13.227-4.83-34.643-13.019-5.04-1.89-11.76-4.616-15.329-6.086-6.508-2.73-18.264-7.35-31.911-12.388-13.438-4.83-26.666-10.079-32.124-12.389-9.842-4.199-14.846-6.101-17.522-6.17" style="stroke-width:1.57468"/>
</svg>
