<svg xmlns="http://www.w3.org/2000/svg" width="1187" height="960">
    <path d="M591.713 160.946c-.74-.493-2.59-4.438-4.068-8.753-8.63-25.643-23.671-45.985-43.15-58.314-9.617-6.041-25.644-13.315-29.589-13.315-3.699 0-9-5.178-7.89-7.89.863-2.22 10.11-6.904 13.684-6.904 2.343 0 16.397-7.15 25.027-12.699 14.795-9.493 28.356-25.273 36.246-42.04 5.055-10.603 6.781-22.931 6.904-47.095 0-14.548.494-21.452 1.48-22.438 2.342-2.342 8.137-1.85 9.616.863.74 1.48 1.233 12.452 1.233 27 0 20.712.37 25.766 2.342 31.807 5.055 16.15 18.123 35.26 30.329 44.876 2.712 2.096 5.794 4.562 6.904 5.425 3.205 2.589 17.136 10.602 18.492 10.602.74 0 2.836.74 4.562 1.603 1.85.986 6.657 2.836 10.726 4.192 6.657 2.096 7.397 2.712 7.397 5.794 0 3.945-2.342 5.425-13.561 8.877-24.78 7.397-47.219 27-59.424 51.656-5.918 11.836-7.767 16.52-7.767 19.48 0 5.794-5.301 9.986-9.493 7.273M786.75 738.91c-17.507-1.233-30.822-3.699-51.164-9.493-17.876-5.055-44.013-16.274-56.341-24.164-2.96-1.85-5.548-3.329-5.795-3.329-.863 0-16.273-10.602-24.78-17.013-10.726-8.137-38.342-36.246-47.219-47.958-4.191-5.548-7.643-10.48-7.643-10.85 0-.492-1.48-2.958-3.329-5.424-4.068-5.178-5.178-7.274-12.205-20.589-5.425-10.479-14.055-29.835-14.055-31.56s-8.383-18.863-11.589-23.548c-1.726-2.59-3.205-5.178-3.205-5.671 0-.617-5.055-6.411-11.219-12.945-12.822-13.562-28.11-24.41-39.698-28.356-1.233-.37-2.096-1.48-1.726-2.342.37-1.11 20.959-1.603 96.286-1.85 86.053-.246 95.793-.123 96.533 1.726.37 1.11-.37 2.59-2.22 3.822-20.465 13.808-29.835 45.123-20.588 68.793 6.04 15.288 26.876 37.85 48.204 52.15 3.206 2.22 6.165 3.945 6.535 3.945.246 0 2.712 1.357 5.178 2.96 15.534 9.739 42.163 17.999 66.45 20.465 31.192 3.205 62.136-2.713 91.232-17.384 43.766-22.191 75.204-61.273 87.41-108.368 9.616-37.109 5.794-78.163-10.603-112.93-16.767-35.875-44.136-63.491-79.52-80.505-13.191-6.41-21.205-9.246-36.369-12.821-15.78-3.822-36.122-4.562-131.422-4.562-59.794 0-96.41-.493-99.245-1.233-7.15-1.972-15.287-10.11-18.37-18-2.342-6.534-2.465-8.876-2.219-54.368.247-30.945.863-47.835 1.603-48.082s2.343 1.726 3.699 4.192c3.821 7.397 9.986 14.548 16.15 18.74 11.342 7.397 8.877 7.273 119.464 7.89 88.272.493 102.45.74 111.573 2.589 28.972 5.67 36.986 7.89 55.849 15.04 12.451 4.809 36.245 16.397 38.095 18.617.74.863 1.849 1.602 2.465 1.602 1.603 0 14.548 8.877 26.507 18.123 45.122 35.013 79.889 89.629 91.97 144.614 5.425 23.918 5.795 28.356 5.795 59.177s-.37 35.26-5.794 59.177c-17.383 78.903-74.834 147.08-151.395 180.244-36 15.534-80.259 22.561-123.285 19.479M587.275 768.99c-.493-.493-.863-1.726-.863-2.713 0-3.575-10.233-15.04-17.137-19.232-3.822-2.343-9.986-4.808-13.685-5.548-4.438-.863-40.19-1.48-106.025-1.85-95.177-.37-99.862-.492-113.3-3.081-7.767-1.357-16.273-3.206-19.109-3.946-8.877-2.219-18.493-5.054-21.452-6.164-1.602-.616-6.41-2.342-10.479-3.698-12.945-4.315-39.081-17.754-52.643-27.123-21.698-14.918-45.862-37.48-60.163-56.342-21.452-28.109-37.972-61.396-45.74-92.094-7.026-27.616-6.903-26.013-6.903-67.19 0-40.931-.247-38.096 6.41-65.342 4.192-17.26 13.316-41.177 20.096-53.013 1.726-3.082 3.576-6.41 3.945-7.644 1.356-3.452 14.425-23.177 22.315-33.533 17.26-22.808 47.712-49.561 72.615-63.985 30.698-17.754 54.862-26.384 94.067-33.657 15.657-2.836 60.903-2.836 76.437 0 39.575 7.397 61.273 15.164 95.546 34.15 19.973 11.095 45.493 33.04 63.986 54.862 18.986 22.438 32.424 44.383 42.656 69.533 1.726 4.438 3.699 9.123 4.192 10.48.617 1.355 2.096 4.93 3.329 8.013 8.876 21.821 30.575 45.615 52.273 57.574 3.699 2.096 7.89 3.945 9.246 4.192 1.357.37 2.466 1.356 2.466 2.342 0 1.603-11.959 1.85-95.546 2.096-62.63.247-96.163-.123-97.396-.863-1.603-1.11-1.233-1.726 1.726-3.945 11.836-8.877 19.233-19.48 23.055-32.917 4.191-14.425 2.095-29.959-5.918-44.753-4.685-8.753-24.164-28.849-38.095-39.328-6.288-4.685-11.712-8.507-12.082-8.507s-3.33-1.602-6.534-3.452c-26.384-15.41-64.109-23.177-96.163-20.095-8.014.74-17.877 2.342-21.945 3.452-15.534 4.068-22.931 6.534-29.342 9.616-3.699 1.726-6.904 3.082-7.397 3.082-1.48 0-20.342 11.712-27.37 17.013-4.068 3.083-12.698 10.85-19.232 17.384-30.945 31.068-47.958 72.492-47.958 116.628 0 24.164 3.822 43.027 13.561 66.944 11.959 29.588 39.205 60.78 68.424 78.163 8.753 5.301 25.643 13.315 30.821 14.67 2.096.494 7.644 2.097 12.329 3.576 17.013 4.932 23.917 5.302 132.778 6.041l105.533.74 5.3 3.699c2.96 2.095 7.028 6.164 9.124 9.123l3.699 5.3v50.671c0 48.452-.37 53.753-3.452 50.67m-.863 247.804c-.74-1.726-1.233-13.315-1.233-25.767 0-24.657-.986-30.945-7.027-43.273-12.452-26.137-35.877-45.863-65.095-54.862-8.384-2.59-10.48-5.055-8.014-9.74.74-1.356 2.836-2.712 4.685-3.205 26.383-5.548 54.246-27.37 66.82-52.273 1.48-3.083 3.33-6.535 3.946-7.767s2.219-6.041 3.699-10.48c2.835-9.37 4.068-11.342 7.15-11.342 2.712 0 6.164 3.822 6.164 6.904 0 1.233.863 3.945 1.85 5.918.986 1.849 1.849 4.191 1.849 5.054 0 2.343 8.507 17.877 13.561 24.658 12.575 17.013 26.014 27 49.684 36.862 2.59 1.11 5.672 1.973 6.781 1.973 4.069 0 7.767 3.698 7.397 7.15-.37 2.959-1.48 3.699-9.74 6.534-29.341 9.986-51.533 28.849-63.615 54.123-7.027 14.67-7.767 18.986-7.767 45.492 0 26.136-.246 27.246-6.41 27.246-2.59 0-3.822-.74-4.685-3.205" style="stroke-width:.123286"/>
</svg>
