<svg xmlns="http://www.w3.org/2000/svg" width="1606" height="960">
    <path d="M385.193 240c-21.105 0-41.227 1.962-44.663 3.926-4.417 2.945-3.433 6.382 4.91 14.236 6.381 5.399 14.724 11.287 18.651 13.25 22.578 10.308 98.163 62.331 98.163 67.24 0 6.38-6.875 5.403-23.072-2.94-34.358-17.67-80.98-36.813-89.816-36.813-4.908 0-11.781 3.923-14.236 8.34-4.417 7.854-4.908 7.857-5.4.985 0-4.417-2.94-10.802-6.377-13.747-5.399-3.926-8.84-2.946-15.22 3.926-19.143 21.106-37.79 238.056-21.103 243.455 2.945.982 28.464 2.94 56.44 4.904 59.39 3.435 61.846.496 25.525-30.917-20.615-18.16-44.175-53.996-44.175-66.757 0-5.89 23.074-.978 53.996 11.784 14.725 5.89 33.862 12.27 41.715 14.725 8.344 2.454 26.998 8.834 41.723 14.724s33.87 12.271 41.723 14.725c29.45 7.853 85.893 29.45 92.274 34.85 4.417 3.435-1.476 6.374-94.733 47.603-53.991 24.05-82.95 37.309-110.436 50.07-16.198 7.363-40.246 18.647-53.989 25.028-29.94 13.743-32.396 17.178-28.96 38.775 2.945 17.67 8.342 27.49 27.975 50.559 10.798 12.761 12.768 13.252 26.02 7.362 7.854-3.436 27.974-15.709 45.152-26.998 16.689-11.78 31.908-21.102 33.872-21.102 1.472 0 7.357-3.93 12.266-8.347 5.399-4.909 10.796-6.382 13.25-3.437 2.455 2.454-17.664 24.543-49.077 53.01-29.45 26.996-53.5 51.538-53.5 54.974 0 8.835 17.177 11.777 74.113 11.777h52.026l33.871-25.524c18.651-13.743 34.843-26.503 36.316-27.975 1.472-1.964 11.289-9.813 22.087-17.666s24.05-18.166 29.45-22.583c5.399-4.418 37.799-31.898 72.157-60.366s63.804-52.033 65.276-52.033c1.473 0 2.452 6.872 2.452 14.725 0 18.651-9.815 38.779-37.3 74.609-11.78 15.215-21.6 28.955-21.6 30.427s-6.38 12.27-14.724 24.05c-7.853 12.271-14.725 24.542-14.725 27.487s-3.435 5.4-7.362 5.4c-5.4 0-7.362-5.888-7.362-24.54 0-13.742-1.96-24.538-4.415-24.538-2.945 0-21.105 11.78-40.738 25.524-20.124 14.234-41.719 29.444-48.1 34.353-25.032 16.688-8.347 18.652 122.213 12.762 87.858-3.436 161.484-3.436 249.833 0 69.206 2.945 127.12 4.42 129.575 2.948 7.853-4.909 3.925-11.29-14.236-22.088-10.307-6.38-31.41-20.617-46.626-32.397s-29.941-21.102-32.886-21.102-5.4 10.307-5.4 24.05c0 25.032-7.36 37.297-13.25 21.59-3.927-10.797-41.226-68.713-67.24-103.562-13.253-17.67-19.635-32.395-21.599-47.61-.981-12.271-.985-22.088.978-22.088 2.454 0 56.45 44.177 138.908 113.384 40.248 33.867 121.726 92.768 128.598 93.26 41.72 1.963 118.287-5.406 118.287-11.296 0-5.399-11.777-16.688-72.64-73.624-20.614-19.142-33.379-33.864-30.434-35.827s9.328-.008 14.236 4.415c4.908 4.417 9.814 7.858 11.777 7.858s19.142 10.798 38.775 24.05 40.249 25.03 45.648 26.502c20.124 4.908 56.447-54.97 49.085-80.001-1.472-3.927-13.749-12.761-27.983-18.65-14.234-6.382-39.265-17.672-55.462-25.525-30.431-14.234-72.152-32.89-110.436-50.07-81.968-35.83-99.144-44.168-94.726-47.604 6.38-5.399 62.825-26.996 92.274-34.849 8.344-2.454 26.998-8.835 41.723-14.725s33.862-12.27 41.715-14.724c8.344-2.455 26.998-8.835 41.723-14.725 30.922-12.762 53.988-17.674 53.988-11.784 0 12.761-23.56 48.597-44.174 66.757-36.321 31.413-33.868 34.352 26.013 30.917 27.486-1.964 53.012-3.922 56.447-4.904 7.363-2.454 7.857-85.897.985-137.434-11.289-80.004-13.252-90.31-22.087-103.562l-8.836-13.747-8.837 10.8c-4.908 6.38-9.813 8.833-11.777 5.888-1.472-2.454-7.362-4.904-12.761-4.904-8.344 0-55.465 19.14-89.823 37.301-8.835 4.417-16.196 5.402-18.65 2.948-4.418-4.418 64.296-53.992 94.237-67.736 3.926-1.963 12.27-7.851 18.65-13.25 15.216-14.234 6.876-18.162-39.752-18.162-39.757 0-47.123 2.943-118.784 44.663-7.853 4.909-32.884 17.672-55.462 28.96-22.087 11.29-41.724 22.575-43.197 25.029-1.472 2.454-6.38 4.421-11.288 4.421-4.417 0-10.795 2.455-13.74 5.4-3.435 3.436-17.674 9.817-31.908 14.725-22.087 8.344-41.225 9.325-144.79 9.325-140.375 0-132.522 1.961-257.683-65.773-56.445-30.922-70.679-38.778-95.71-52.521C426.915 241.958 418.568 240 385.193 240m883.12 324.068c-20.86.122-41.104 1.592-42.822 4.292-1.472 2.454-.985 5.892.978 6.873 2.454.982 17.178 9.327 33.375 18.162s32.89 19.14 37.308 22.576c3.927 3.927 11.283 6.873 16.192 6.873 4.417 0 10.307 5.395 12.762 12.266 2.454 6.381 8.834 14.726 14.725 18.162 5.398 3.436 9.82 9.816 9.82 14.725 0 12.761 28.957 19.638 76.076 17.183 23.07-1.472 43.687-3.436 45.16-5.4 1.472-1.472 1.472-5.892 0-10.31-2.454-5.399-11.291-7.365-36.323-8.347-24.05-.49-27.489-1.47-12.273-2.452 16.197-1.472 20.613-3.925 20.613-11.288 0-8.834-21.592-19.635-39.753-19.635-5.399 0-9.325-2.94-9.325-6.866 0-6.872-13.745-10.312-56.447-13.747-12.762-1.473-14.726-3.435-16.199-18.65-.982-9.326-4.417-18.65-7.362-20.614-4.172-2.7-25.644-3.926-46.504-3.803m-944.715 1.013c-15.076-.175-28.167.332-31.664 1.805-3.436 1.472-6.378 11.29-6.378 21.598 0 32.886 7.853 41.72 24.05 27.487 4.418-3.436 22.09-14.724 39.76-24.05 17.67-9.817 31.407-19.144 30.917-21.598-.92-2.761-31.559-4.95-56.685-5.242m1056.503 93.59c12.271 0 17.178.982 11.288 1.963-6.38.982-16.197.982-22.087 0-6.38-.981-1.471-1.963 10.8-1.963m-1130.717 1.697c-6.102.25-12.913 1.494-20.275 3.703-30.922 9.326-26.012 20.126 8.836 19.635 28.96-.49 44.173-7.854 35.338-16.198-5.521-5.215-13.727-7.557-23.899-7.14m-34.92 31.024c-22.205-.179-47.931 2.346-54.557 7.04-14.725 11.288-4.417 14.719 40.249 14.228 41.229-.491 55.458-4.905 49.077-15.703-2.362-3.65-17.5-5.425-34.77-5.565m1216.434 1.517c-26.26 0-52.515 2.333-54.233 6.996-4.418 11.78 2.944 13.738 53.5 12.266 52.518-1.472 58.9-2.45 54.973-12.266-1.718-4.663-27.981-6.996-54.24-6.996m-15.423 31.938c-14.667.097-27.094.76-30.959 2.049-22.578 8.344-7.363 13.747 38.775 13.747 45.647 0 72.152-5.895 54.973-11.784-7.669-2.761-38.343-4.175-62.789-4.012m-1233.48.33c-23.438-.122-46.877.74-49.086 2.704-2.454 2.945-4.415 6.873-4.415 8.836 0 5.89 97.18 4.907 100.615-1.474 1.963-2.945 2.454-5.892 1.963-6.873-2.209-1.964-25.641-3.07-49.078-3.193m1225.593 30.19c-39.266 0-47.122 1.473-47.122 7.363 0 6.38 6.875 7.359 45.16 6.377 30.43-.981 45.642-3.434 47.114-7.851 1.473-4.417-9.812-5.888-45.152-5.888m-1257.984.08c-14.397.022-25.5.867-27.494 2.861-8.344 8.835 6.385 11.784 55.958 11.784 41.23 0 53.987-1.476 52.515-6.384-1.687-4.387-49.307-8.312-80.98-8.261M1355.95 783.89c-10.003.143-19.229.921-24.935 2.394-26.013 6.38-15.708 12.764 20.614 12.273 37.793 0 61.843-5.395 48.1-10.303-8.283-3.068-27.108-4.604-43.78-4.364m-1163.59.985c-27.179-.062-54.297 1.412-56.015 4.357-3.436 5.399 96.199 12.764 107.488 8.347 4.417-1.472 6.383-4.913 4.91-7.858-1.963-3.19-29.203-4.785-56.382-4.846m1096.243 27.285c-8.358-.135-16.18.322-20.412 1.61-21.106 5.4-10.798 12.763 18.161 12.763 26.505 0 40.243-3.925 34.353-9.815-2.76-2.454-18.173-4.333-32.102-4.558m-1082.172 3.3c-21.584.167-39.903 1.317-43.584 3.71-9.326 6.38-12.763 5.892 62.824 6.874 41.23.49 64.303-1.47 63.321-4.415-1.534-3.988-46.588-6.447-82.56-6.169m957.945 28.314c-9.939.061-20.368 1.655-22.331 4.846-1.473 2.454 2.453 5.895 9.325 7.858 13.743 3.436 32.397-1.476 32.397-8.347 0-2.945-9.451-4.419-19.39-4.357m-906.667.769c-24.98-.046-46.143 1.011-50.192 3.588-11.78 7.853.978 9.325 74.602 9.325 54.481.49 72.156-.982 70.683-5.4-1.227-4.294-53.459-7.436-95.093-7.513m124.399 28.609c-47.396-.293-106.678 1.543-108.826 4.917-1.472 2.454-2.448 4.911-1.466 4.911 58.408 3.927 175.712 4.42 175.712.985 0-2.945-3.434-6.386-7.851-7.859-4.97-1.84-29.132-2.78-57.57-2.954m901.476.884a60 60 0 0 0-5.58.108c-7.362.49-88.349 2.458-180.134 4.421s-272.894 2.945-402.472 1.963c-225.29-1.963-235.107-1.966-224.309 6.378 6.38 4.908 9.815 10.31 7.852 12.273-1.964 1.963-26.503 3.436-53.989 3.436-27.977 0-51.538 1.96-53.01 4.415-1.473 1.963 47.116 5.4 107.487 7.362 83.932 2.945 114.368 1.966 127.62-2.451 12.27-4.909 19.632-4.912 27.976-.985 6.38 2.945 15.705 6.875 20.613 8.347 20.615 6.872-.978 9.325-89.327 11.288-51.045.982-102.098 3.434-114.368 5.889l-21.591 3.925 24.539 3.437c13.743 1.472 40.247 5.402 58.899 8.347 55.954 8.344 166.88 10.305 235.596 4.415 55.464-5.4 120.743-6.383 239.523-4.91 16.688.49 41.72-.98 54.973-2.453 13.743-1.963 56.445-3.928 95.711-4.91 93.748-1.963 87.37-1.473 78.535-7.363-3.927-2.454-24.545-4.903-45.16-4.903s-40.734-1.475-45.152-2.948c-11.78-4.417-4.422-11.777 12.266-11.777 8.344 0 18.655-1.967 23.072-4.422 4.908-1.963 26.505-1.958 49.574.496 43.193 4.909 56.447.98 45.648-12.273-7.853-9.325-2.46-13.25 18.155-13.25 21.596 0 34.854-6.876 22.583-11.785-3.313-1.104-9.663-1.932-15.53-2.07m-573.461 34.957c16.197 0 23.554.981 16.191 1.963-7.362.981-20.615.981-29.45 0-8.834-.982-2.939-1.963 13.259-1.963m203.688 0c14.724 0 21.11.981 13.747 1.963-7.854.981-19.636.981-26.998 0-7.853-.982-1.474-1.963 13.25-1.963m-107.977.489c36.32 0 51.535.492 33.375 1.474-18.651.981-48.101.981-66.262 0-18.651-.982-3.434-1.474 32.887-1.474" style="stroke-width:.857143"/>
</svg>
