<svg xmlns="http://www.w3.org/2000/svg" width="2247" height="960">
    <path d="M858.133-119.96c-22.749.8-38.292 13.864-38.292 37.537 0 25.72-18.705 17.155-23.381-10.903-4.676-28.837-32.726-33.516-66.24-10.914-27.278 17.926-27.282 19.486-7.797 52.22 14.028 23.381 18.709 25.722 54.56 25.722 24.16 0 46.755 5.45 57.666 13.243 17.146 11.691 19.489 11.691 28.062 0 11.69-16.367 47.538-17.143 53.773-.776 6.235 17.146 20.265 6.23 20.265-16.372 0-10.132 3.9-21.043 7.797-23.381 15.588-9.353 7.018-24.935-24.158-45.199-22.504-15.003-44.561-21.801-62.255-21.178M629.251-72.343c-16.868-.36-36.644 2.494-58.808 8.631-14.808 3.897-51.442 10.135-81.058 14.031s-57.67 10.908-62.347 15.584c-3.897 3.897-14.805 7.798-24.158 7.798s-23.382 5.456-31.955 11.69c-7.794 6.236-21.83 11.691-30.403 11.691s-27.277 10.132-41.305 23.382c-14.03 12.47-31.175 23.381-38.19 23.381-19.484 0-73.264 58.446-92.749 101.312-3.117 6.235-9.343 17.146-14.02 23.381-5.455 6.235-15.587 29.618-23.38 52.22-16.368 47.543-14.037 136.396 4.669 183.159 12.47 33.513 88.069 107.557 108.333 107.557 7.014 0 17.15 5.455 22.605 11.69s18.7 11.691 30.391 11.691c10.911 0 34.297 5.456 51.444 11.69 17.146 6.236 43.642 10.912 59.23 11.691 15.587 0 38.976 5.456 50.667 11.691 12.47 6.235 29.616 11.69 38.189 11.69 8.573.78 24.16 5.457 35.072 11.692 10.911 6.235 25.717 10.91 32.732 11.69 11.69 0 38.19 21.041 113.79 91.186 14.808 14.028 31.17 25.721 36.625 25.721 5.456 0 11.69 7.793 14.808 17.925 2.338 10.132 13.257 28.05 24.169 39.741 10.911 11.69 19.477 28.845 19.477 38.977 0 9.352 5.455 24.158 11.69 32.732 19.485 25.72 14.037 34.295-19.477 34.295-21.043 0-33.521 3.897-35.86 11.691-3.117 7.014-14.808 11.69-31.955 11.69-18.705 0-31.174 5.458-41.306 17.149l-13.243 17.136-9.35-17.136c-4.677-9.353-15.596-17.148-24.17-17.148-7.793 0-28.836-14.033-46.762-31.18s-35.845-28.836-39.742-26.497c-10.132 6.235 11.683 39.745 45.975 70.92 15.588 14.03 24.947 28.062 21.83 31.18-3.898 3.896-38.968 6.233-79.496 6.233-84.952 0-101.318 12.464-26.498 21.817 126.26 14.808 187.05 19.485 243.165 20.265l60.006.787 6.245-23.38c7.794-30.397 20.255-33.513 25.71-6.234 2.339 15.587 13.25 26.498 35.073 38.188 26.499 14.03 38.19 15.588 87.292 11.691 50.66-4.676 57.674-3.905 70.144 10.903 7.794 8.573 15.586 23.382 17.924 31.956 7.015 28.057 19.488 12.473 19.488-24.158 0-33.514.777-35.075 24.158-37.413 14.808-1.559 28.061 2.336 34.296 9.35 10.132 12.47 38.965 17.157 38.965 6.245-.78-11.69-38.182-40.529-54.549-40.529-11.69 0-15.59-3.902-14.03-13.255 2.337-10.132 9.354-14.025 25.72-12.467 13.25.78 31.948-.778 42.86-3.117 17.146-3.117 17.927-3.896 5.457-11.69-7.794-3.897-26.498-5.458-41.306-2.34-56.116 10.131-31.17-36.63 48.327-91.186 16.367-11.69 43.639-33.519 60.006-48.327 15.588-15.587 41.305-29.614 56.113-32.732 19.485-3.117 27.286-9.356 27.286-19.488 0-14.029-50.661-69.356-63.91-69.356-3.118 0-6.234-5.456-6.234-11.691 0-7.015-7.018-11.69-19.488-11.69s-19.489-4.677-19.489-11.692c0-15.587 28.06-15.587 34.296 0 2.338 6.235 9.349 11.691 15.584 11.691s44.424 32.733 84.952 73.261c57.674 57.674 74.045 79.49 77.941 101.312 2.339 15.588.784 29.626-3.893 32.743-3.897 3.118-12.477 17.139-18.712 31.168-12.47 29.616-22.592 33.516-28.827 10.914-3.117-10.911-10.919-15.584-27.286-15.584-38.969 0-35.071 12.472 8.574 28.839 28.837 11.69 40.53 20.26 40.53 30.391 0 10.912-7.011 15.59-27.275 17.148-14.808 1.559-32.742 7.788-38.977 13.244s-21.822 12.472-35.072 14.03c-12.47 2.339 10.14 3.12 50.668 2.341 40.527-.78 67.797-.782 60.782.776-7.794 2.339-14.02 7.015-14.02 11.691s-12.474 20.267-28.062 34.296c-24.16 22.602-25.72 26.498-11.69 26.498 8.573 0 29.622-14.033 45.21-31.179 17.925-18.705 36.627-31.168 47.539-31.168 9.352 0 19.479-4.679 21.817-10.914s12.473-13.246 22.605-15.584 21.04-12.476 24.158-21.828c2.338-9.353 14.807-25.714 26.498-36.625 21.823-21.044 46.763-62.36 46.763-79.506 0-5.456-5.456-14.803-11.69-21.818-26.5-29.616-42.078-44.421-60.783-59.23-24.161-18.705-28.065-53.776-7.022-61.57 7.015-3.117 35.853-17.15 63.911-31.179 28.058-14.808 53.777-24.158 58.454-21.04 3.897 3.896 38.19 7.01 75.601 7.01 36.631.778 75.596 4.676 85.728 8.573 9.353 3.897 40.534 9.35 68.592 12.467 30.396 3.897 53.774 10.13 59.23 17.924 4.676 7.015 14.023 10.14 21.817 7.022 11.69-4.677 12.47-6.232 0-24.158-6.235-10.912-25.712-25.726-42.858-33.52-18.705-8.573-30.403-19.486-30.403-28.838 0-11.691 3.896-13.247 26.498-9.35 14.03 3.117 34.302 1.556 44.434-2.341 17.146-6.235 16.359-7.014-12.478-11.69-17.147-3.118-36.624-8.574-42.859-11.691-16.367-9.353-19.489-32.733-4.68-41.306 15.587-8.573 16.363-21.817.776-21.817-7.015 0-18.696 10.132-25.71 23.381-7.015 12.47-17.93 23.381-22.606 23.381-14.808 0-12.47-33.512 3.117-61.57l14.031-23.381-27.286-28.063c-30.396-31.175-54.549-35.072-89.621-11.69-28.058 18.705-50.667 20.26-50.667 3.893 0-11.69 26.504-42.859 36.636-42.859 2.338 0 11.686-5.464 18.7-12.478 7.794-7.014 28.838-13.24 46.763-14.02 31.955-.78 49.109 11.683 74.049 54.55 7.794 13.249 10.902 13.256 28.827 3.904 17.147-9.353 21.832-9.359 32.743 1.553 6.235 7.014 17.923 10.135 24.158 7.797 8.573-3.117 9.349-7.011 3.893-12.467-12.47-12.47-10.133-36.636 3.117-36.636 6.235 0 11.69 5.456 11.69 11.69 0 6.236 5.456 11.691 11.691 11.691s11.691-5.455 11.691-11.69c0-7.015-5.456-14.034-11.69-16.372-18.706-7.014-14.021-25.71 12.478-49.092 19.484-17.926 23.379-27.284 21.04-48.327-1.558-19.484-6.233-27.28-17.923-28.838-8.574-1.56-22.606-5.454-31.18-9.35-8.573-3.898-51.444-8.569-95.09-10.127-55.335-3.118-84.948-7.799-97.418-16.372-9.353-7.014-27.275-12.467-38.965-12.467s-23.38-3.898-26.498-8.574c-3.897-6.235-7.803-4.68-12.479 3.893-10.911 19.485-.779 28.062 31.955 28.062 16.367 0 34.298 4.668 39.753 10.903 4.677 6.236 16.37 12.473 25.722 14.032s17.919 8.58 19.477 15.595c2.338 11.69-2.33 13.244-31.167 10.126l-33.52-3.893-70.144 77.154c-67.027 73.262-81.835 83.394-81.835 58.454 0-10.911 3.903-16.36 56.9-71.697 24.941-26.499 27.272-31.184 16.361-35.86-12.47-4.676-21.813 2.344-28.827 21.829-6.235 18.705-21.053-7.02-21.053-36.636 0-17.926-3.116-36.63-6.233-41.306-3.118-4.676-42.859-10.905-89.621-13.243-49.88-3.118-92.752-10.134-106.78-17.148-12.47-6.235-29.62-11.691-37.413-11.691-8.574 0-19.479-5.456-24.935-11.69-5.455-7.015-22.603-11.691-40.529-11.691-34.293 0-108.334-22.602-116.907-35.073-2.338-4.676-61.571-8.579-140.289-10.137-74.04-1.56-138.728-6.23-143.405-10.127-5.455-3.897-14.807 0-26.498 12.467-13.25 14.029-26.499 19.488-46.763 19.488-15.587 0-35.073 5.456-43.646 11.69-7.794 6.236-21.83 11.692-30.403 11.692s-26.495 10.911-38.965 23.381c-13.25 13.25-33.516 32.729-45.986 45.199-12.47 11.69-34.287 31.957-48.316 45.986-14.029 13.25-31.959 26.5-39.753 28.839s-28.834 18.702-47.539 35.848-39.745 31.18-47.54 31.18c-7.014 0-20.265 5.455-28.838 11.69-22.602 17.147-130.158 15.586-157.436-2.34-49.101-31.175-52.22-38.972-52.22-116.131.78-56.115 3.899-74.814 14.03-86.504 7.015-7.794 13.244-18.706 13.244-23.382 0-28.058 146.53-134.055 185.499-134.055 6.235 0 20.256-4.68 31.168-10.914C504.97 18.123 573.556-2.917 592.26-2.917c8.573 0 35.86-7.795 59.241-17.148l44.422-16.371-17.147-18.7c-10.96-10.96-27.839-16.742-49.526-17.206m1410.637 304.187c-10.887-.073-19.799 1.384-22.137 3.722-3.117 3.117-5.457 17.147-5.457 31.955 0 31.176 14.038 38.966 44.434 24.158 16.367-7.794 21.817-15.582 21.817-33.508 0-21.043-2.334-23.384-27.274-25.722-3.897-.39-7.754-.58-11.383-.605m73.318.274c-4.4-.202-7.386 3.544-7.386 9.682 0 7.014 5.464 12.478 12.478 12.478 13.25 0 10.912-17.152-3.117-21.829a8.7 8.7 0 0 0-1.975-.33zm-844.905 22.73c9.722-1.035 29.987 6.785 62.039 22.811 25.72 12.47 52.215 23.382 59.23 23.382 14.808 0 48.323 34.291 40.529 41.306-2.338 3.117-14.031 5.457-25.722 5.457-10.911 0-27.275 5.455-35.848 11.69-7.794 6.236-27.283 11.691-42.87 11.691-17.926 0-30.39 4.676-33.508 11.69-4.676 13.25-35.849 16.364-35.849 3.894 0-4.676 8.566-11.687 19.477-15.584 29.617-10.911 30.4-25.72 4.681-67.027-19.728-32.004-24.658-47.977-12.159-49.31m588.897 22.811c31.175 0 37.412 2.34 40.53 17.148 5.455 18.706-20.26 52.997-38.966 52.997-11.69 0-14.031-20.272-2.34-27.286 12.47-7.794.775-19.477-19.489-19.477-19.484 0-30.39-9.36-21.817-18.712 2.338-2.338 21.818-4.67 42.082-4.67m74.049 0c7.014 0 10.903 8.565 10.903 22.594 0 25.72-7.786 34.298-22.594 24.946-12.47-7.794-3.117-47.54 11.69-47.54M858.818 324.423c14.029 0 15.588 3.109 11.69 25.71-6.234 33.514 5.453 61.577 38.966 95.09 14.808 15.588 27.275 32.74 27.275 39.754 0 6.235 5.455 13.245 11.69 15.583 13.25 5.456 16.366 53.777 3.117 61.57-12.47 8.574-17.919-2.338-16.36-31.955 1.559-17.925-1.565-28.061-10.138-31.179-6.235-2.338-11.69-9.352-11.69-14.807 0-5.456-9.354-15.588-20.266-23.382-42.865-28.057-49.88-40.52-49.88-89.62 0-42.087 1.567-46.764 15.596-46.764m-206.243.194c11.788.39 27.375 4.866 42.573 13.05 14.029 7.793 43.646 31.958 67.028 54.56 22.602 21.823 49.092 42.081 57.665 45.199s32.733 21.83 52.997 42.093c27.278 27.279 40.536 47.544 47.55 75.602 16.367 60.791 18.706 104.432 8.574 123.917-18.705 34.293-6.244 42.87 60.783 42.87 56.895 0 62.353 1.557 69.368 17.924 13.25 28.057-9.352 59.229-61.57 85.728-32.734 17.146-63.913 56.118-57.678 72.485 3.118 7.014 16.372 10.914 39.753 10.914 25.72 0 35.072 3.117 35.072 11.69s-9.354 11.691-37.412 11.691c-39.749 0-57.667-12.474-77.93-54.56-13.25-28.837-26.506-117.681-30.403-208.869-2.338-65.468-.779-83.402 8.574-94.313 10.911-11.691 10.138-14.803-1.553-33.508-20.264-31.176-130.945-137.174-149.65-142.63-8.573-3.117-27.28-15.592-40.53-28.062-14.028-12.47-31.171-22.593-38.965-22.593s-14.03-5.456-14.03-11.691c0-8.184 7.996-11.886 19.784-11.497m558.517 94.108c10.911-.78 12.47 5.457 8.574 43.646-4.676 50.66-19.484 72.485-46.763 72.485-14.029 0-19.487 5.456-22.605 23.381-5.456 26.5-26.498 31.954-26.498 6.234 0-18.705 28.062-81.062 39.753-88.856 3.897-2.338 7.01-9.349 7.01-15.584 0-15.588 24.941-40.526 40.529-41.306m349.169 14.808c4.676 0 7.786 7.01 7.786 15.584 0 10.131-5.452 15.595-15.584 15.595-14.029 0-14.812-2.346-7.798-15.595 4.677-8.574 11.699-15.584 15.596-15.584m393.066 18.46c-2.7.006-5.324 1.511-7.273 4.921-2.338 3.897-20.268 14.032-39.753 22.605-19.484 9.353-33.509 19.482-30.391 24.158 6.235 10.132 40.528 10.135 46.763-.776 3.117-3.897 14.026-10.91 24.158-14.808s18.7-12.477 18.7-18.712c0-10.18-6.264-17.406-12.204-17.387m-303.33 13.69c2.794.451 3.79 2.531 3.79 6.039 0 4.676-3.898 10.137-8.575 13.254-5.455 3.118-7.016 25.714-5.457 60.007 2.338 66.247-4.677 71.7-43.646 32.731-31.175-31.175-33.518-36.627-16.371-50.656 6.235-5.455 11.69-15.59 11.69-22.605 0-7.793 11.693-19.483 25.722-26.498 18.51-9.255 28.188-13.026 32.846-12.273m-152.231 22.285c5.047-.425 7.934 2.066 7.934 7.911 0 4.677-7.795 10.91-17.148 14.808-25.72 10.132-58.446 45.213-63.123 67.815-2.338 11.69 2.336 26.495 12.467 38.965 20.264 26.5 22.599 75.598 3.894 79.495-10.132 1.559-14.032-2.332-14.032-13.244 0-8.573-5.452-21.047-12.467-28.062-8.573-8.573-12.47-24.936-11.69-50.656.779-34.292 3.899-42.085 37.412-76.377 24.112-24.648 45.649-39.722 56.753-40.655" style="stroke-width:.779378"/>
</svg>
