<svg xmlns="http://www.w3.org/2000/svg" width="1180" height="960">
    <path d="M594.863-30c-.949.043-.78 2.014.047 7.688.68 4.754 1.359 22.751 1.359 40.069.17 34.805-1.528 43.974-11.715 67.913-18.846 43.635-43.974 58.745-73.347 44.144-24.618-12.224-48.218-36.164-62.14-63.33-2.547-4.753-4.924-10.696-5.434-12.903-1.867-8.828-4.584-5.433-5.772 6.961-4.075 44.823-9.678 66.386-19.525 75.554-3.226 3.056-6.112 3.905-13.243 3.905-20.374 0-57.048-25.298-89.646-61.631-6.452-7.301-12.055-12.395-12.394-11.546s.679 5.264 2.207 9.678c4.924 14.601 10.696 38.71 13.752 57.387 2.887 18.167 2.887 18.167-.679 25.637-4.244 8.999-9.338 10.866-20.374 7.81-10.696-2.717-38.031-16.639-54.16-27.505-8.49-5.603-10.697-4.244-4.245 2.717 10.187 11.036 67.574 86.42 78.1 102.719 15.79 24.618 34.296 67.913 34.296 80.137 0 6.282-2.886 6.113-4.244-.339-1.868-8.32-2.207-8.32-23.77.679-19.695 8.49-46.35 24.449-60.952 37.013-52.124 44.144-82.345 82.175-109.34 137.355-5.773 11.884-10.527 22.241-10.527 23.26s-1.019 3.905-2.377 6.621c-3.735 7.81-10.357 28.694-15.45 49.747-7.98 33.108-7.98 65.197.34 103.568 3.055 14.262 8.149 33.108 10.526 38.201.849 1.868 4.075 9.848 7.13 17.827 8.49 22.412 14.262 32.938 28.015 51.105 15.79 20.884 40.408 40.409 61.97 49.068 5.094 2.037 11.376 4.754 13.923 6.112 2.717 1.358 6.622 2.377 8.659 2.377s5.263 1.188 7.13 2.547c1.699 1.358 4.925 2.546 7.132 2.546s5.433.85 7.3 1.868c1.868.849 10.697 2.886 19.865 4.245 13.413 2.037 19.356 2.207 32.599.679 19.355-2.377 26.656-5.094 39.56-14.941 25.636-19.356 37.691-52.124 29.372-80.138-6.452-22.072-17.997-36.673-38.371-47.879-26.317-14.601-59.764-15.62-84.213-2.716-15.62 8.489-37.522 40.408-33.108 48.558 2.717 4.923 26.656 24.618 37.183 30.56 3.056 1.698 3.905 1.698 4.414 0 4.924-16.468 8.829-24.109 15.96-30.22 6.791-6.113 8.49-6.792 16.469-6.792 12.055 0 21.393 6.621 25.298 17.997 4.414 13.243 2.886 21.732-5.773 29.033-3.735 3.396-6.112 3.735-20.714 3.905-14.94 0-19.864-.85-31.919-5.773-1.358-.51-4.754-2.547-7.64-4.414-2.717-1.868-6.452-3.905-7.98-4.414-1.698-.68-3.056-1.698-3.056-2.378 0-.679-2.886-3.225-6.452-5.602-14.431-9.508-30.9-28.864-35.654-41.767-9.508-26.147-12.734-47.03-10.527-68.423 1.698-16.808 7.47-39.56 10.357-41.427.849-.51 1.528-1.868 1.528-3.056 0-6.961 15.96-33.278 28.354-46.35 2.547-2.887 8.998-7.811 14.092-10.867s10.526-6.452 11.885-7.47c1.358-1.189 7.81-4.245 14.431-6.792 9.508-3.735 15.79-4.924 33.108-5.942 11.715-.68 27.505-.68 35.315 0 16.469 1.358 18.506 2.886 23.09 16.978 6.113 19.186 10.697 30.052 24.45 59.594 7.98 16.639 11.375 30.222 13.073 50.935 1.358 16.639 1.528 17.148 8.32 20.374 3.055 1.358 5.602 4.414 6.45 7.47 5.434 18.337 20.035 35.825 20.035 23.94 0-2.207 1.019-4.924 2.377-5.942 2.038-1.698 3.226-.34 6.622 6.96 7.3 15.281 14.261 20.375 18.166 13.244 2.038-3.905 5.094-4.584 5.094-1.189 0 3.735 10.017 16.47 12.734 16.47 1.358 0 2.546-1.529 2.546-3.227 0-4.923 3.057-6.112 6.962-2.546 2.546 2.377 3.225 5.263 3.225 14.431 0 11.206.17 11.545 6.282 16.639 5.434 4.414 7.81 5.263 15.96 5.263 5.094 0 9.848-.509 10.527-1.018 1.358-1.528-2.377-9.169-4.584-9.169-1.02 0-3.226-2.037-4.924-4.414-2.886-3.905-3.056-4.584-.51-7.3 1.529-1.699 2.717-3.906 2.717-4.924s1.019-2.547 2.207-3.226c1.189-.68 3.905-3.736 5.943-6.622 4.923-7.3 31.41-26.656 43.804-32.428 5.433-2.377 12.903-6.283 16.299-8.49 3.565-2.207 7.64-3.905 9.168-3.905 4.245 0 14.262 6.622 14.262 9.508 0 5.263 5.094 2.038 6.961-4.244 1.528-5.433 1.528-7.98-.17-12.395-2.546-6.282-7.81-12.054-12.224-13.752-2.886-1.019-4.414-6.282-1.867-6.282 2.716 0 12.224 7.81 15.62 12.903 2.037 3.057 6.621 6.792 10.017 8.49 9.847 4.584 22.75 9.338 29.372 10.696 3.226.68 6.792 1.698 7.81 2.377 3.056 2.037 35.315 6.282 51.105 6.961 8.829.34 16.639 1.358 17.658 2.377 2.037 2.037 5.263 70.29 3.735 77.591-1.358 6.112-14.432 23.6-20.714 27.675-10.187 6.452-10.187 6.621-1.188 20.034 5.433 7.98 10.017 17.997 18.167 40.579 6.112 16.299 7.13 19.694 12.054 37.352 1.359 4.584 3.056 8.49 3.735 8.49 1.189 0 3.736-6.622 7.64-20.375.85-2.886 4.245-12.734 7.64-22.072 3.397-9.338 6.792-18.846 7.472-21.223 1.697-5.093 9.168-18.676 15.62-28.354l4.754-7.13-8.49-7.132c-4.584-3.735-10.696-10.356-13.752-14.43-9.848-13.753-11.036-10.697-12.564 28.183-1.019 31.07-1.868 38.54-4.245 36.164-2.716-2.717-1.867-45.502 1.189-72.667 2.037-17.488 2.546-31.92 1.867-54.67-1.018-33.788-1.188-33.278 8.999-34.976 26.147-4.754 63.669-21.732 87.778-39.73 18.846-14.091 43.465-39.39 49.067-50.595 6.282-12.224 8.32-15.62 11.715-19.525l3.057-3.396 4.074 3.736c2.208 2.037 5.433 8.659 7.301 14.77 3.226 10.358 9.338 20.545 15.28 25.129 4.075 3.226 22.242 8.998 28.354 8.998 7.47 0 20.884-6.96 26.487-13.582 5.772-6.792 8.659-16.809 7.3-24.28-1.867-10.356-9.508-12.903-9.508-3.056 0 5.773-9.168 14.941-16.469 16.47-6.451 1.358-11.545-1.359-15.79-8.32-4.414-7.3-4.923-36.673-.679-40.918 3.057-3.226 6.962-3.565 7.81-.679.34 1.019 1.698 1.358 2.717.68 1.188-.68 2.037-5.773 2.037-13.074 0-12.734.85-13.583 8.15-8.66 12.394 8.66 29.882 11.377 37.692 5.943 10.187-6.96 15.62-18.506 15.96-32.938.17-10.356-.34-12.054-5.094-17.827-2.716-3.565-6.112-6.791-7.13-7.13-3.566-1.19-4.415 4.923-1.36 9.847 3.566 6.112 3.397 8.828-.678 17.827-2.377 5.433-4.754 7.98-7.98 8.659-8.32 2.207-12.734-1.019-19.016-13.753l-5.773-11.884 5.434-15.28c4.754-13.753 5.263-17.489 5.263-34.297 0-21.732-2.717-30.052-13.413-41.257-6.112-6.452-6.961-6.792-16.13-6.792-9.507 0-9.677-.17-12.224-6.112-2.377-5.603-2.377-6.452.17-9.168 1.528-1.698 6.112-3.736 9.847-4.245 3.906-.68 9.848-2.716 13.244-4.244 7.98-4.245 17.827-15.281 19.355-22.072 1.868-8.83-.51-19.865-5.773-25.977-2.716-3.056-6.452-8.66-8.489-12.564-3.735-7.64-9.338-12.394-14.092-12.394-3.735 0-3.905 3.056-.51 7.47 3.226 4.414 3.227 7.98-.339 15.79s-7.13 12.394-9.678 12.394c-1.018 0-3.395-2.207-5.093-4.754-3.396-5.263-12.734-12.224-15.96-12.224-2.886 0-2.547 5.942.51 8.489 1.358 1.188 2.546 4.754 2.546 7.81 0 4.584-.679 5.773-3.225 5.773-1.868 0-4.754-1.868-6.622-4.245-4.075-5.094-17.657-11.545-21.393-10.017-2.377.849-1.867 2.037 2.377 6.791 6.961 7.98 6.452 12.394-2.377 21.563-8.15 8.489-9.508 12.733-9.508 31.58 0 25.806-8.15 47.369-20.374 53.651-6.791 3.565-8.659 3.226-16.469-2.377-7.64-5.603-11.884-12.734-17.317-30.222-2.208-6.79-6.452-16.299-9.678-21.222s-5.773-10.018-5.773-11.546c0-3.395 6.282-13.582 8.49-13.582 2.206 0 2.206-4.584 0-5.943-3.396-2.037-13.244 2.717-19.186 9.338-8.15 8.999-13.413 9.169-17.997.34-3.226-6.452-3.226-14.262.34-18.676 1.188-1.528 1.018-2.887-.34-4.245-2.887-2.716-13.074 8.829-14.432 16.639-2.377 12.054.34 18.506 12.734 31.24 16.469 16.978 23.6 29.882 30.73 57.047 3.226 11.546 3.736 18.507 3.736 46.69 0 35.655-1.528 44.484-11.206 62.65-4.584 9-23.94 28.864-31.24 32.26-2.717 1.188-6.282 3.056-8.15 3.905-5.942 3.056-28.523 8.32-31.749 7.3-3.056-1.018-3.226-3.226-3.226-41.597 0-23.09-.68-40.917-1.528-41.597-1.868-1.018-9.847 2.208-14.092 5.603-2.716 2.377-3.056 6.112-2.886 37.522.17 19.186.679 40.749 1.358 47.71l1.019 12.733 10.187.51c5.433.34 11.715-.34 13.752-1.359 2.038-1.188 5.094-1.697 6.791-1.358 2.547.68 2.038 1.189-1.867 2.207-2.717.85-6.112 2.377-7.301 3.735-3.056 3.057-24.788 2.887-30.561-.17-2.547-1.357-5.942-2.886-7.47-3.395-5.264-1.528-3.396-4.414 2.716-4.414 3.226 0 6.282-.51 6.622-1.358.34-.68.34-4.754-.17-9.169-.68-7.98-.849-8.15-10.187-12.394-20.204-9.338-25.298-15.62-36.503-45.842-2.377-6.451-5.094-15.79-10.357-35.315-8.32-30.221-17.148-57.386-21.223-65.366-.85-1.528-2.886-5.942-4.584-9.678-1.868-3.735-6.452-12.394-10.357-19.185-4.075-6.962-7.301-13.243-7.301-14.092s-.679-1.528-1.698-1.528c-.848 0-1.697-1.189-1.697-2.717 0-2.377.509-2.377 2.716-.51 3.905 3.227 5.942-1.018 3.735-7.3-2.547-7.47 1.528-24.788 10.357-43.804 5.433-11.715 15.79-23.43 48.898-55.18 18.506-17.657 34.975-33.787 36.673-35.824 2.547-3.396 2.886-9.338 3.396-57.387.339-29.542.17-54.16-.34-54.84-.51-.849-5.263-2.886-10.357-4.584-5.093-1.868-11.885-5.263-14.94-7.47-6.622-4.924-18.677-20.544-22.582-29.203-6.961-15.11-13.413-34.296-13.413-40.409 0-2.207-.849-5.602-1.867-7.47-1.02-2.037-3.226-13.243-4.754-24.789-2.717-21.223-5.603-27.505-7.98-17.827-.68 2.547-4.924 12.055-9.508 20.884-8.659 16.978-9.508 18.506-16.978 30.221-2.717 4.075-4.754 7.64-4.754 7.98s-3.396 5.433-7.47 11.375-7.98 12.394-8.49 14.602c-2.716 8.489-4.414.679-4.414-20.374 0-32.26-7.81-76.233-19.865-110.869-2.207-6.621-4.754-14.262-5.603-16.978-.849-2.887-3.056-5.943-4.754-6.961-.811-.526-1.408-.863-1.82-.895h-.096zM767.07-2.617c-4.754 0-6.282.849-8.489 5.093-2.377 4.415-2.377 7.131-.679 20.035 1.528 11.036 1.698 67.404.85 219.87-1.19 227.17-2.208 209.512 10.186 203.74l6.622-3.057.17-139.222c0-76.572.17-175.216.509-219.19.34-57.048 0-81.157-1.359-83.704-1.528-2.546-3.565-3.565-7.81-3.565M869 40.195c-.451-.016-.992.907-1.587 3.03-.679 2.376-2.207 6.96-3.395 10.186-1.359 3.226-3.566 10.187-5.264 15.281-4.074 12.394-18.846 43.634-23.939 50.426-2.207 2.886-4.075 6.112-4.075 6.96s-6.621 8.49-14.771 16.81c-10.527 10.865-17.997 16.978-25.468 20.713l-10.356 5.093-.68 43.805c-.339 24.109 0 44.483.68 45.501.849.85 4.244-1.188 8.32-5.093 6.79-6.622 21.901-25.128 21.901-26.996 0-.34 3.226-5.602 7.3-11.545 3.906-5.942 8.83-14.092 11.037-18.337s5.433-10.017 7.13-12.733c1.868-2.887 3.736-6.282 4.415-7.64.51-1.359 2.207-5.603 3.566-9.339 1.528-3.735 4.584-10.866 6.79-15.96 6.792-14.94 13.244-40.917 15.79-63.838.85-8.489 2.378-20.883 3.227-27.844 1.273-9.933.732-18.432-.621-18.48M629.64 141.877c.07.02.151.618.246 1.86.34 4.583.34 11.714 0 16.129-.34 4.584-.509.849-.509-7.98 0-6.346.088-10.06.263-10.009m-168.348 44.814 1.188 8.49c.679 4.584 1.358 12.733 1.358 17.827.17 5.093 1.358 15.45 2.717 22.92 3.735 21.054 3.056 142.11-.85 133.28-.169-.509-1.018-28.353-1.697-61.97-.68-33.617-2.377-70.63-3.565-82.345-1.189-13.244-1.528-24.449-.68-29.712zm-81.752 7.945c.36.03.752.498 1.274 1.393 1.019 1.359 1.698 4.245 1.698 6.452s1.188 5.094 2.547 6.452c1.358 1.528 2.546 4.584 2.546 7.131s1.189 6.112 2.547 7.81c1.358 1.868 2.547 5.263 2.547 7.47s.849 5.603 2.037 7.64c1.019 2.038 2.547 6.453 3.226 9.678.68 3.226 2.038 8.15 2.886 11.036 1.698 4.924 4.585 15.111 8.83 31.41 1.018 4.245 2.546 11.036 3.225 15.28s2.207 9.339 3.226 11.376c1.188 2.038 2.037 7.131 2.037 11.206 0 4.245 1.189 10.357 2.547 13.583 2.886 6.96 3.396 17.487 1.019 19.015-.85.51-2.207-3.565-2.886-8.828-.68-5.434-2.208-11.376-3.396-13.244-1.358-1.867-2.377-6.451-2.377-10.187-.17-3.735-1.189-8.658-2.547-11.035s-2.377-6.113-2.547-8.49c0-2.376-1.018-7.64-2.377-11.884s-3.565-11.546-5.093-16.3c-1.528-4.923-2.717-10.526-2.717-12.733-.17-2.208-1.188-5.943-2.546-8.32-1.359-2.377-2.547-6.621-2.547-9.338 0-2.886-1.189-6.961-2.547-9.338s-2.547-6.622-2.547-9.338c0-2.886-1.188-6.622-2.546-8.32-1.359-1.867-2.547-5.772-2.547-8.828s-1.358-7.64-2.886-10.527c-1.698-2.886-2.377-6.112-1.528-8.15.54-1.352.938-2.035 1.37-2.071zm168.692 5.103c.428-.023.668 2.832.668 8.515 0 5.603-.68 8.15-1.528 7.13-1.019-.848-1.189-4.753-.68-8.828.637-4.536 1.162-6.797 1.54-6.817m-4.12 21.272c.558.047.742 2.598 1.052 8.805.34 5.943-.339 13.244-1.358 16.13-1.188 2.886-2.716 9.847-3.396 15.45-1.867 13.922-4.923 29.033-7.81 38.201-1.358 4.245-2.377 9.678-2.377 12.055 0 2.547-1.188 7.3-2.546 10.527-1.359 3.395-2.547 8.32-2.547 11.036 0 2.546-1.189 6.282-2.547 8.15-1.358 1.697-2.547 5.941-2.547 9.337s-1.188 7.131-2.546 8.32c-1.359 1.188-2.547 3.735-2.547 5.772 0 5.773-2.037 11.206-3.565 10.187-2.377-1.358-1.868-7.81 1.018-13.243 1.359-2.547 2.547-7.64 2.547-11.036.17-3.396 1.188-7.98 2.547-10.357 1.358-2.376 2.377-6.451 2.546-9.168 0-2.716 1.02-8.829 2.378-13.583 4.074-14.431 6.451-25.128 7.81-34.126.848-4.754 2.207-10.696 3.225-13.243 1.02-2.717 1.868-7.47 1.868-10.697 0-3.225 1.189-8.658 2.547-12.054 1.358-3.226 2.546-8.999 2.546-12.564s1.02-8.49 2.038-11.206c.796-1.724 1.307-2.723 1.664-2.693m81.483 13.481c.073 0 .145.031.217.078 2.207 1.358.51 34.126-2.038 36.673-1.018 1.019-1.868 6.452-1.868 12.055 0 5.942-1.188 12.394-2.546 15.28-1.359 2.547-2.547 8.32-2.547 12.734 0 4.415-1.189 9.508-2.547 11.376-2.207 2.886-2.377 2.377-2.547-6.282 0-5.603 1.02-10.697 2.547-12.734 1.528-1.868 2.547-7.131 2.547-13.413 0-5.603 1.188-12.394 2.547-15.11 1.358-2.547 2.546-8.49 2.546-12.904 0-4.415.51-12.734 1.02-18.337.615-5.693 1.649-9.294 2.595-9.414h.073zm-15.658 92.34c.977-.038 1.782 1.83 1.782 5.364 0 7.13-1.697 13.243-3.565 13.243-1.698 0-2.037-9.168-.51-14.941.67-2.451 1.533-3.635 2.293-3.665m-256.288 6.722c1.018 0 1.528 3.565 1.528 7.98-.17 7.3-.34 7.64-1.528 3.056-.68-2.886-1.359-6.452-1.528-8.15 0-1.528.679-2.886 1.528-2.886m251.449 13.583c2.037 0 1.868 11.375-.17 15.11-1.697 3.226.34 18.337 3.735 28.184 1.02 2.717 2.377 9.678 3.057 15.281.848 5.603 2.207 12.904 3.226 16.13 3.395 11.035 1.528 34.296-2.377 30.22-.51-.509-1.868-8.828-2.717-18.505-3.226-32.938-4.245-39.73-6.282-43.465-1.189-2.037-2.037-6.961-2.037-11.036s-1.02-8.49-2.038-9.508c-1.698-1.698-1.698-2.886 0-5.433 1.019-1.868 2.037-5.263 2.037-7.47s.51-5.264 1.02-6.792c.509-1.528 1.697-2.716 2.546-2.716m29.23 59.294c.617-.026 1.798.81 3.708 2.507 2.377 2.207 4.244 4.414 4.244 5.093s1.189 2.377 2.547 3.736c2.717 2.886 3.396 5.772 1.189 5.772-.85 0-2.377-1.867-3.396-4.244-1.018-2.377-2.716-4.245-3.735-4.245-.849 0-1.698-1.188-1.698-2.547 0-1.358-.679-2.546-1.698-2.546-.849 0-1.698-1.189-1.698-2.547 0-.637.168-.963.538-.979m329.248 49.237c2.442-.047 6.551 2.693 9.782 7.261 4.754 6.452 5.094 8.15 5.094 21.053 0 7.81-.68 14.602-1.698 15.111-.849.51-3.735 5.603-6.282 11.036-2.547 5.603-5.263 10.187-5.942 10.187-2.377 0-1.529-7.98 1.188-10.187 1.358-1.189 2.547-3.396 2.547-4.924s1.188-4.244 2.546-5.942c5.434-7.131 2.547-23.6-6.112-34.806-1.867-2.207-3.225-5.093-3.225-6.282 0-1.693.822-2.482 2.102-2.507m-190.488.398c-1.627 0-4.123.942-8.054 2.958-5.943 2.886-8.659 7.98-5.942 10.696 1.018 1.02 4.074.17 8.489-2.037 6.791-3.565 9.677-7.3 7.81-10.357-.483-.827-1.19-1.263-2.303-1.26m179.863 8.145c1.146.01 1.72 1.472 1.052 3.812-.51 2.207-1.019 5.602-1.019 7.64 0 2.207-.679 3.905-1.697 3.905-1.868 0-2.377-12.394-.51-14.092.817-.876 1.574-1.27 2.174-1.265m-179.896 13.217c-1.73.023-4.127.845-7.172 2.48-6.622 3.395-9.678 8.998-6.791 11.884 3.565 3.566 17.317-4.754 17.317-10.526 0-2.579-1.128-3.868-3.354-3.838m182.476 3.838c1.358 0 2.547 1.018 2.547 2.377s1.188 2.716 2.546 3.395c2.547.85 3.736 6.113 1.359 6.113-2.038 0-8.999-7.301-8.999-9.678 0-1.189 1.189-2.207 2.547-2.207m-182.476 19.6c-2.533-.012-6.297 1.538-10.568 4.509-5.093 3.565-6.451 9.847-2.207 9.847 5.094 0 16.13-7.64 16.13-11.036 0-2.23-1.255-3.311-3.355-3.32m-230.68 10.95c.662.013 1.41.88 2.11 2.727.51 1.528 1.019 5.433 1.019 8.999 0 3.395.849 7.13 2.037 8.32 1.189 1.188 2.377 8.658 2.717 17.826.51 12.904.17 16.13-2.037 17.997-1.528 1.189-2.717 3.396-2.717 4.924 0 2.717-6.621 14.432-8.829 15.28-.679.34-1.358 1.19-1.358 2.038 0 2.207-22.411 27.165-24.618 27.165-2.887 0 .339-5.602 8.998-14.6 10.357-11.207 13.073-14.772 15.45-20.545 1.02-1.867 2.547-4.074 3.396-4.754 1.019-.509 1.867-2.377 1.867-4.074s1.189-4.075 2.547-5.264c3.566-3.056 3.566-34.975 0-39.73-1.358-1.867-2.547-6.281-2.547-9.847 0-4.138.863-6.486 1.965-6.463m230.75 10.427c-1.83-.02-4.59 1.32-8.94 4.185-6.452 4.075-8.828 10.866-3.905 10.866 7.98 0 18.167-8.998 15.28-13.582-.572-.955-1.336-1.457-2.435-1.469M598.476 627.45c.68 0 3.226.68 5.603 1.528 3.905 1.528 4.245 2.208 2.547 4.245-2.716 3.396-6.791 3.226-9.338-.17-1.528-2.207-2.716-2.377-5.603-.849-1.867 1.019-4.924 1.868-6.791 1.868-3.905 0-13.922 9.677-13.922 13.413 0 1.528 1.188 4.244 2.546 5.942 3.226 4.245 3.226 12.734 0 16.978-1.358 1.868-2.546 5.434-2.546 8.15 0 4.754-3.736 6.622-5.943 3.056-.679-1.019-2.207-.849-4.244.34-2.377 1.528-4.075 1.528-7.131 0-2.208-1.189-8.66-2.208-14.432-2.547-10.187-.51-14.092-1.868-12.055-3.735.51-.51 8.49 0 17.658 1.018l16.809 1.868 4.584-5.603c4.924-5.772 6.621-17.148 3.056-19.355-4.075-2.547-.34-12.564 7.47-20.374 2.038-2.037 6.961-3.735 12.055-4.415 4.584-.509 8.998-1.188 9.677-1.358m-91.22 6.334c.113 0 .243.197.386.627.34 1.698.34 4.415 0 5.943-.509 1.698-.849.34-.849-2.887 0-2.318.176-3.672.464-3.683m120.258 11.097c3.726.028 7.094.97 7.636 2.773.34.85 1.528 1.698 2.546 1.698 2.717 0 9.678 6.961 9.678 9.678 0 3.396-1.358 2.716-8.998-3.735-9.848-8.49-15.111-7.98-25.298 2.037l-7.98 7.81-4.584-4.414c-2.547-2.547-4.075-5.264-3.396-5.943s2.377.34 3.736 2.038c2.207 3.226 2.376 3.226 6.112 0 2.207-1.698 4.584-4.075 5.603-5.094.849-1.019 3.565-3.226 5.942-4.754 2.149-1.432 5.715-2.119 9.003-2.094m-116.157 12.982c.947.05 2.106 1.21 2.737 3.374.51 1.698 3.396 5.263 6.282 7.64s4.754 4.754 4.245 5.264c-1.359 1.358-9.508-4.754-9.678-7.131 0-1.189-1.188-2.377-2.547-3.056-1.358-.51-2.546-2.038-2.546-3.566 0-1.75.671-2.569 1.507-2.525m137.657 3.506c1.066.025 1.883 1.179 2.605 3.434 1.528 4.414-1.698 8.15-4.415 5.433-2.376-2.377-13.752-.85-15.62 2.377-1.867 3.056-4.584 2.886-4.584-.34 0-1.358.85-2.547 1.868-2.547s2.886-1.188 4.244-2.546c1.528-1.529 4.245-2.208 6.452-1.529 2.377.51 4.584-.17 5.943-1.697 1.432-1.751 2.566-2.607 3.507-2.585M465.3 745.541a.45.45 0 0 0-.273.077c-1.359 1.528-1.359 20.035.17 21.393.509.68 2.886-.51 5.093-2.547 5.263-4.923 7.98-2.377 5.603 4.924-1.019 2.886-1.698 9.678-1.358 15.11.509 8.49 1.018 10.018 3.565 9.509 1.528-.17 4.245-.51 5.942-.85 1.868-.169 2.717.51 2.208 2.208-.34 1.358-1.359 6.282-2.038 11.036-1.698 9.847.17 12.903 5.603 9.508 4.415-2.717 6.791.17 5.263 6.621-1.018 3.735-6.621 10.017-9.168 10.187-.51 0-2.037 3.056-3.226 6.622-2.716 8.489-.679 14.262 8.15 22.92 9.338 9.339 17.997 7.64 11.206-2.207-2.208-3.056-2.378-4.754-.85-7.98 2.377-5.263 9.169-7.98 26.147-10.866 14.262-2.377 38.201-.34 50.765 4.245 3.396 1.358 10.187 2.886 15.28 3.565 11.886 1.698 19.186 8.66 17.828 17.318-1.358 7.64 2.547 8.999 8.999 2.887 7.64-7.301 9.508-13.413 6.96-22.581-2.037-7.47-1.867-7.81 3.566-13.413 6.961-7.131 12.904-7.301 19.695-.51 2.886 2.717 5.603 5.094 6.112 5.094s1.019-4.584 1.019-10.357c0-9.168-.51-10.866-5.094-15.45-4.923-4.754-5.772-5.094-14.261-4.075-8.32 1.188-9.508.849-11.885-2.717-4.245-5.942-3.396-12.903 2.207-18.506 2.717-2.717 6.622-4.924 8.49-4.924 5.602 0 5.602-2.886-.17-6.451-13.413-8.15-22.751-6.283-28.524 5.433-2.037 4.414-5.433 8.658-7.3 9.677-2.038 1.019-5.773 3.905-8.32 6.282l-4.754 4.415-5.433-5.094c-2.886-2.716-7.64-7.47-10.527-10.696s-6.452-7.131-7.98-8.49c-2.886-2.886-7.47-10.866-8.998-15.96-.51-1.527-1.528-2.885-2.207-2.885-1.528.17-12.394 14.431-12.394 16.129 0 2.886 8.15 7.47 13.243 7.64 3.395 0 5.433.85 5.433 2.207 0 2.377-5.264 7.98-7.47 7.98-.68 0-2.378 1.189-3.736 2.547-3.735 3.735-16.3 3.226-24.28-1.019-8.488-4.414-12.733-10.526-13.751-20.204-.85-6.96-1.189-7.64-5.264-7.13-3.395.339-5.942-1.359-10.866-6.622-5.433-5.943-6.96-6.792-9.508-5.264-2.377 1.528-4.244.85-10.526-3.905-3.693-2.923-7.246-4.87-8.386-4.83M240.54 848.047c-1.411-.02-2.428.418-3.022 1.31-1.358 2.206 11.545 26.315 19.865 37.182 7.81 10.187 28.353 30.56 41.936 41.427 8.999 7.47 30.052 21.902 31.75 21.902.509 0 2.377 1.019 3.735 2.207 4.414 3.566 33.617 15.28 51.105 20.374 30.9 9.169 46.86 12.055 83.703 15.79 20.544 2.037 29.203 2.207 30.391 1.019 2.207-2.207-11.545-8.829-18.336-8.829-4.754 0-26.147-4.245-40.579-7.98-5.603-1.528-14.431-3.735-19.525-5.093-55.18-14.432-84.212-30.052-114.094-61.292-14.262-14.941-19.695-22.581-24.11-34.466-2.886-7.64-9.507-13.413-15.28-13.413-2.547 0-11.036-3.226-20.204-7.81-3.056-1.528-5.522-2.304-7.335-2.328" style="stroke-width:.127338"/>
</svg>
