<svg xmlns="http://www.w3.org/2000/svg" width="1735" height="960">
    <path d="M867.5 0c-64.535 0-126.736 12.117-185.139 36.208-59.57 24.675-112.278 59.718-156.519 104.105-44.678 44.532-80.012 97.534-104.98 157.397l-3.94 9.636-7.447-7.446L119.941 10.366V113.74l2.336 2.336c.438.292 1.606 1.314 2.774 2.336L461.308 454.52c7.738-105.272 48.91-194.772 122.498-266.316 76.8-74.756 172.29-113.448 283.549-115.2 111.55 1.752 206.893 40.444 283.839 115.2 73.588 71.398 114.76 161.044 122.498 266.316l47.162-47.159 289.095-288.95c1.168-1.021 2.191-2.044 3.359-2.92l1.75-1.75V10.365l-296.98 296.686-3.94-9.636c-24.967-59.863-60.302-112.716-104.98-157.249-44.24-44.386-95.927-78.99-153.308-102.935l-2.92-1.024C994.235 12.117 932.035 0 867.5 0m-3.65 104.54c-88.043 0-176.086 33.146-241.497 90.965-47.015 41.612-81.764 89.501-103.081 142.648-21.025 52.27-29.932 111.11-26.136 174.77l1.024 16.79-13.58-11.97c-.73-.585-1.315-1.022-2.045-1.752l-9.197-9.054c-7.446-7.3-15.038-14.89-22.63-22.337-19.858-19.857-40.007-39.86-59.718-59.718l-194.484-194.63-72.565-72.564v104.98l14.746 14.601c8.907 8.76 17.814 17.666 26.72 26.427 30.516 30.37 61.47 61.175 91.84 91.69 35.626 35.627 71.835 71.838 107.461 107.61 57.235 57.235 115.345 115.345 172.726 172.58l29.201 29.347c13.87 13.87 28.18 28.326 42.342 42.197 36.356 35.772 79.722 63.513 128.78 82.494 40.59 15.477 84.1 23.8 129.654 24.676.73 0 1.462 0 2.338-.146l1.46-.145 1.751.145c1.314.146 1.897.146 2.481.146 45.7-.876 89.357-9.053 129.801-24.676 49.059-18.835 92.423-46.576 128.633-82.494 15.768-15.477 31.54-31.392 46.87-46.723l197.547-197.4c35.626-35.627 71.69-71.836 107.315-107.462 30.516-30.37 61.324-61.178 91.985-91.694 9.783-9.782 19.711-19.565 29.202-29.056l12.12-12.117v-104.98l-326.621 326.764c-6.279 6.278-12.702 12.703-19.127 18.835l-12.847 12.704c-.73.73-1.314 1.167-2.044 1.897l-3.505-2.336 2.63 3.066-12.56 10.66 1.024-16.355c3.65-63.66-5.11-122.5-26.136-174.77-21.317-53.147-56.066-101.182-103.08-142.648-65.412-57.82-153.6-90.964-241.643-90.964h-3.36zm3.36 72.13c96.51 2.481 175.06 39.859 234.048 111.11 45.992 55.63 68.916 121.04 68.478 194.481-1.168 164.843-131.992 295.52-298.295 299.17h-8.176v-.145c-166.302-3.65-296.978-134.182-298.292-299.025-.584-73.441 22.483-138.852 68.476-194.48 58.987-71.252 137.687-108.63 233.76-111.112m-1.025 31.39c-47.306 0-94.32 12.995-135.787 37.378-43.072 25.406-78.404 62.345-101.911 106.731-23.653 44.533-34.166 94.615-30.662 144.841s21.17 98.7 50.81 140.02c25.988 36.21 61.176 65.558 101.62 85.123 37.232 17.959 79.284 27.595 116.954 26.281 2.336 0 4.379.146 6.277.146 36.356 0 75.778-9.344 110.966-26.427 40.59-19.565 75.78-48.914 101.769-85.124 29.785-41.32 47.304-89.792 50.809-140.019 3.65-50.226-7.009-100.308-30.662-144.84-23.361-44.387-58.694-81.326-101.766-106.732-41.466-24.53-88.48-37.377-135.787-37.377zm-2.48 67.455 3.65.146 3.795-.146v.294c65.704 2.92 118.704 30.075 157.688 80.886 27.742 36.064 41.321 77.678 40.737 123.525-.584 55.482-20.878 103.371-60.008 142.063-38.108 37.816-85.855 57.528-141.922 58.842-56.504-1.314-104.25-21.172-142.211-58.842-39.13-38.692-59.424-86.58-60.154-142.063-.585-45.847 13.14-87.461 40.736-123.525 38.984-50.81 91.985-77.966 157.688-80.886zM119.94 306.761v105.271l6.57 6.716c5.84 5.986 12.412 12.557 17.376 17.521l393.051 393.2a368.4 368.4 0 0 0 45.408 38.546l1.024.73c39.422 28.91 82.932 51.248 129.362 66.725 48.182 16.06 98.7 24.238 149.949 24.53 1.022 0 1.898 0 2.774-.145l1.46-.149 2.336.149c1.022 0 1.9.145 2.63.145 99.722-.292 194.92-30.953 275.808-88.48l3.357-2.484c17.083-12.265 32.413-25.113 46.722-39.422a498614 498614 0 0 1 392.76-393.197l21.172-21.17 3.068-3.07V306.762l-85.123 84.976-186.16 186.16-170.83 170.977c-12.41 12.41-22.775 22.628-33.872 32.703-26.427 24.237-57.383 45.116-92.133 62.053-41.028 20.733-87.895 34.168-135.493 38.84l-1.754.146c-8.468.876-17.08 1.167-25.403 1.605l-16.21.876-16.935-.876c-8.323-.438-16.937-.729-25.552-1.605-49.35-4.964-96.219-18.397-139.437-40.152l-3.65-1.754c-32.268-16.499-61.323-36.356-86.29-59.133-11.535-10.513-22.63-21.46-33.873-32.703-56.65-56.651-114.326-114.18-170.977-170.978L180.534 367.21c-20.149-20.149-41.028-41.029-60.593-60.448M867.5 383.706c-34.458 1.314-62.2 15.186-80.304 44.242-21.463 34.02-21.608 69.645-.291 103.81 18.25 29.202 45.845 43.218 80.595 44.678 34.604-1.46 62.344-15.33 80.595-44.677 21.317-34.166 21.172-69.792-.29-103.811-18.252-29.056-45.847-42.928-80.305-44.242" style="stroke-width:1.46008"/>
</svg>
