<svg xmlns="http://www.w3.org/2000/svg" width="1220" height="960">
    <path d="M1099.762 484.142a479.76 479.76 0 0 0-98.958-292.776l-.976-1.269a494 494 0 0 0-100.13-96.226 527.8 527.8 0 0 0-104.227-57.774A495.2 495.2 0 0 0 635.322.671a500.55 500.55 0 0 0-222.9 39.72 482.787 482.787 0 0 0-86.661 838.803l2.927 1.659 1.464-1.562a574.4 574.4 0 0 0-81.587-100.324l9.76.585c-2.05-3.61-3.709-6.44-5.27-9.759a50 50 0 0 1-7.612-15.42 58.56 58.56 0 0 0-21.959-43.135 32.6 32.6 0 0 0-4.489-2.44l1.66-1.854 10.93 6.05 1.854-1.463c-1.367-3.904-2.635-7.807-4.1-11.614a39 39 0 0 1-3.415-8.88c-1.269-13.078-2.147-26.155-3.025-39.037 0-3.416.488-7.417-4.1-4.782l1.953-21.763a66.5 66.5 0 0 1 5.855 9.173c7.32 16.591 13.273 33.865 21.666 49.968 12.101 23.226 25.276 45.965 39.036 68.314a110 110 0 0 0 19.519 22.153c13.272 12.2 27.423 23.422 40.598 35.719a43.6 43.6 0 0 1 6.93 13.077 98 98 0 0 0 4.586 9.76 61 61 0 0 0 6.441 7.514c15.322 17.079 26.935 37.475 46.649 50.845a36.7 36.7 0 0 0 26.057 5.466 15.03 15.03 0 0 1 15.224 5.27 44.3 44.3 0 0 0 9.76 6.245l14.638 9.076v2.635c-13.272 6.051-28.106.586-41.769 3.709 1.074 6.343 12.98 6.636 8.88 16.103A328.3 328.3 0 0 0 527.289 960a78.95 78.95 0 0 1-40.793-36.304c4.586-1.171 8.1-2.245 11.71-2.928 3.612-.683 5.368-1.269 6.832 0a60.3 60.3 0 0 0 20.69 10.345c2.342.488 5.953 1.756 6.929.683a9.76 9.76 0 0 0 1.561-7.417 36.3 36.3 0 0 1 11.418-25.862c4.197-2.635 8.296-5.66 13.273-9.076 8.198 2.928 7.417 2.44 12.882-6.831a23.6 23.6 0 0 1 12.98-7.32 41 41 0 0 1 10.832 0c10.93 0 21.959-1.366 32.791-.488a23.72 23.72 0 0 0 23.325-9.759c10.54 3.318 17.762-3.123 24.886-8.393 2.244-1.659 2.05-6.44 3.123-9.76a54 54 0 0 1 2.635-6.928c1.659-3.513 3.708-6.93 5.465-10.54s2.44-5.27 4.391-9.76l3.221 12.005 2.733.683a47.33 47.33 0 0 1 15.224-35.621h19.518a9.08 9.08 0 0 0 6.832-4.197q9.173-27.911 17.176-56.213a22.15 22.15 0 0 0 0-11.71c-3.709-12.688.78-24.301 3.123-36.207a66 66 0 0 1 .585 9.173 105.7 105.7 0 0 0 1.172 17.372c0 2.05 5.953 5.172 6.343 4.88 3.22-3.124 7.612-6.637 8.295-10.638 2.05-10.93 2.44-22.056 3.514-33.182a96 96 0 0 1 2.147 14.737v10.637a27.7 27.7 0 0 0 2.732 6.637c1.952-.879 4.001-1.66 5.856-2.733a22.35 22.35 0 0 0 11.125-23.13 21 21 0 0 1 .586-4.196 417.7 417.7 0 0 1 1.17 136.043 77.2 77.2 0 0 0 37.379-15.614 175 175 0 0 0 14.248-16.005 16.7 16.7 0 0 0 1.757-4.88 24.5 24.5 0 0 1 1.464-3.416c1.268-2.342 2.83-4.586 3.903-6.929a12.9 12.9 0 0 0 0-4.099l5.368 2.538 8.88-39.037v36.987h2.733l9.76-15.224v12.59l2.049 1.17c3.123-4.586 6.148-9.173 9.759-13.565 1.562-2.05 3.904-4.782 5.953-4.782a8.295 8.295 0 0 0 9.76-8.685 14.05 14.05 0 0 1 11.125-13.663 39.53 39.53 0 0 0 21.275-19.519c12.882-23.227 24.69-47.137 36.304-71.047a106 106 0 0 0 4.197-18.25c3.61-13.077 7.319-26.056 11.418-39.036.78-2.44 4.099-4.099 4.684-6.539 2.245-9.759 6.149-19.518-2.44-27.618-.488-.488 0-1.952 0-2.83a21.67 21.67 0 0 0 13.663-19.519v-17.664h1.464c1.952 15.81 3.318 31.717 5.856 47.43 2.83 17.859 4.977 35.328-7.515 50.845a13.47 13.47 0 0 0-2.147 6.441 58 58 0 0 1-2.537 18.445c-5.465 9.76-5.66 24.203-18.933 29.278a3.03 3.03 0 0 0-1.366 2.537c2.537 7.124-2.538 13.858-1.757 20.104 1.952 15.03-9.76 24.3-13.468 36.597-2.05 6.148-5.367 11.809-7.905 17.762a62.7 62.7 0 0 1-3.61 9.759q-21.666 32.79-43.722 65.191a190 190 0 0 1-15.322 18.836c-4.977 5.562-10.442 10.832-15.907 15.907-8.49 7.905-12.882 19.518-25.081 24.203a41.6 41.6 0 0 0-12.883 8.1c-14.248 12.492-28.204 25.276-42.452 37.866a126 126 0 0 1-10.735 7.71l1.269 2.244a255 255 0 0 0 24.886-12.687c7.807-5.075 14.15-12.394 21.958-17.469 14.54-9.76 29.277-17.762 44.502-26.35 5.074-2.927 10.54-5.367 15.81-8.002l.585 1.17-18.054 24.399a143 143 0 0 0 17.566-10.345 482.5 482.5 0 0 0 192.451-385.195" style="stroke-width:9.7592"/>
</svg>
