<svg xmlns="http://www.w3.org/2000/svg" width="1333" height="960">
    <path d="M616.56.275c-96.1-3.244-192.657 22.19-275.624 75.759C150.376 199.09 73.664 432.78 148.406 642.086c74.504 208.555 287.518 347.19 522.705 312.636 108.136-15.877 200.431-63.905 275.89-142.847 83.587-87.444 127.099-192.56 133.245-313.636 51.728-16.116 90.983-47.86 114.304-97.165 23.457-49.544 24.383-100.454 2.667-150.783-39.266-91.064-145.418-135.928-242.013-93.964v.066C862.937 56.06 740.118 4.447 616.56.275M598.687 21.35c128.128-.356 251.856 52.985 336.044 145.581-35.818 29.467-75.226 34.746-117.839 17.606l-.733-.267a104 104 0 0 1-17.406-9.27c-48.827-31.48-102.046-51.054-159.852-56.551-109.468-10.312-205.538 21.293-286.494 95.831-55.383 50.91-91.124 113.747-107.036 187.328-17.846 82.698-8.44 162.092 28.276 238.212l.934 2.067c16.56 33.632 38.34 64.202 64.221 90.63C392.82 788.035 457.755 824 534 837.283c112.199 19.6 213.145-6.794 300.965-79.692 56.1-46.608 93.709-105.862 114.57-175.858 10.62-35.579 34.297-59.062 69.09-71.49 13.726-4.917 27.786-7.146 38.746-6.736-2.834 160.24-115.833 359.521-337.977 419.138-225.832 60.675-455.3-56.03-542.778-267.555-22.473-54.047-34.945-113.284-34.945-175.457 0-168.674 91.263-316.018 229.275-396.53 72.446-41.998 150.865-61.54 227.741-61.754m1.801 171.79c160.104.239 287.07 129.996 286.694 287.027v.267c0 158.157-128.237 286.36-286.36 286.36h-.067c-161.709.069-287.434-131.047-287.161-287.36.307-158.021 128.668-286.465 286.894-286.294m428.94 14.738c61.563-1.127 115.64 49.244 115.572 114.904v.067c0 63.509-51.529 115.038-115.038 115.038s-114.97-51.53-114.97-115.038c0-63.304 51.167-114.63 114.437-114.971M537.802 312.778c-9.629 0-12.004 2.437-12.004 12.27v67.89c0 1.98.197 4 .333 6.869h36.079l-36.412 35.211c0 27.35-.103 54.025 0 80.76 0 6.556 3.077 9.536 9.803 9.536 27.202.091 54.402.091 81.627 0 6.59 0 9.522-2.914 10.137-9.47.17-1.81.066-3.658.066-5.468.034-14.204.275-28.377-.066-42.547v-.734c0-7.887 2.18-15.295 5.868-21.407 6.078-10.653 15.013-16.208 27.476-16.072 14.204.137 28.377 0 42.547 0 9.902-.034 12.07-2.167 12.07-12.137v-92.63c-.033-9.697-2.472-12.071-12.203-12.071zm26.208 225.274c-.58 2.049-1.733 4.282-1.733 6.535q-.205 26.325 0 52.684v.134c.273 2.185.751 4.259 1.4 6.068h25.875c.636-2.294 1.14-4.69 1.4-7.269.137-16.867.137-33.749 0-50.616-.034-2.493-1.086-5.01-1.667-7.536zm36.346 0c-.58 2.049-1.734 4.282-1.734 6.535q-.205 26.325 0 52.684v.134a28.7 28.7 0 0 0 1.467 6.068h25.875c.636-2.293 1.073-4.69 1.334-7.269.136-16.867.136-33.749 0-50.616-.034-2.493-1.087-5.01-1.667-7.536zm-73.158.133c-.644 2.277-1.07 4.668-1.333 7.27a3210 3210 0 0 0 0 51.283c.034 2.288.987 4.58 1.533 6.935h25.742c.717-2.629 1.536-4.752 1.467-6.868.137-17.312.171-34.672 0-52.018-.034-2.253-1.384-4.519-2.067-6.602z" style="stroke-width:34.1445"/>
</svg>
