<svg xmlns="http://www.w3.org/2000/svg" width="1180" height="960">
    <path d="M555.548 0a21 21 0 0 0-2.179 2.552v.062l-.062.063A19.6 19.6 0 0 0 552 6.473v.187c-2.454 12.142-13.175 21.226-26.018 21.226h-4.483c-6.214 0-12.354-.327-17.676-.996-15.425-1.243-30.761-2.967-46.186-3.86-4.653.128-9.092 1.144-12.884 2.801-5.514 2.231-10.854 5.092-16.495 6.972l-.25.062c-5.29 1.211-10.172 3.447-14.315 6.411l-.125.063a40.8 40.8 0 0 0-16.993 33.176c0 8.732 2.694 16.778 7.283 23.28l.062.061a20.3 20.3 0 0 0 3.548 3.237c1.052-2.932 1.787-4.963 2.552-6.971v-.125c1.721-6.214 7.466-10.768 14.254-10.768 2.837 0 5.49.778 7.656 2.116l.187.063a30 30 0 0 1 9.337 6.846v.063c3.473 4.684 9.034 7.718 15.312 7.718 2.645 0 5.177-.507 7.345-1.432h-.374a55.6 55.6 0 0 1 15.81-2.303h1.432c3.983.191 7.592 1.84 10.332 4.357 7.267 7.14 12.926 15.912 16.495 26.205a14.6 14.6 0 0 1 1.12 5.54v.062c0 2.263-.537 4.378-1.493 6.162-4.653 9.083-8.778 18.515-12.698 27.948l-.062.125c-2.263 7.138-8.935 12.324-16.806 12.324h-8.03c1.307 5.577 7.712 8.839 15.935 8.839 6.405-.223 12.847-1.17 18.424-1.743-4.003 7.093-8.708 14.261-12.387 22.035v.062l-.124.186a43 43 0 0 0-3.921 17.99c0 6.532 1.435 12.73 3.921 17.988.404.932 1.723 1.563 2.614 2.303a12.8 12.8 0 0 0 1.68-2.739c.606-2.645.79-5.51 1.62-8.092v-.435l.124-.374a56 56 0 0 1 3.05-6.598l1.494.56-.063.934c-1.115 30.626-4.88 60.616-10.457 86.27-2.517-3.059-4.321-4.963-5.85-6.97-3.984-5.227-7.493-11.085-11.827-16.184-11.856-14.564-28.732-18.316-45.75-21.599-22.053-4.685-44.235-8.007-66.352-11.64h-3.05l-.747 1.37 1.244.996 1.245 1.058c30.786 25.495 59.524 53.337 86.645 84.154h-.063c-1.21-.35-2.25-.978-3.174-1.743-28.395-23.583-56.817-47.574-85.213-70.647s-57.213-45.652-85.96-68.407l-.248-.186a83.8 83.8 0 0 1-24.089-25.396c-5.226-9.975-8.986-20.546-13.32-30.936l-1.992-4.045.311-.498c-1.577 1.91-2.846 3.228-3.983 4.668-.028.037-.035.087-.063.124l-.124.125c-11.553 15.858-18.362 35.374-18.362 56.456v5.166c.19 16.285 8.812 30.557 21.91 38.716 16.667 10.326 33.652 20.002 50.542 29.69 19.887 11.378 39.869 22.645 59.755 33.8l5.29 2.8 4.918 2.615c29.957 17.305 58.922 36.05 83.843 54.152 13.672 9.625 26.889 19.716 40.21 29.69 3.283 2.423 6.338 5.2 9.461 7.781l-.747 1.183-.186-.124c-1.307-.733-2.651-1.507-3.735-2.303l.81.746c-19.271-14.992-39.55-28.748-63.303-42.513-23.647-13.958-47.21-28.012-71.208-41.205-31.55-17.37-63.456-34-95.42-50.667-13.035-6.852-26.252-12.893-40.21-19.172-13.96-6.278-26.763-13.22-34.858-26.765h-.062c-.715-.87-1.562-1.678-2.49-2.427-.845 1.074-1.612 2.225-2.178 3.61-1.519 5.252-2.78 10.62-4.295 15.81v.124c-.488 1.625-.81 3.36-.81 5.167.064 4.78 1.983 9.075 5.042 12.262l.063.062c2.39 2.805 5.155 5.3 8.278 7.532 22.691 16.38 45.437 32.48 68.096 48.862l-.872-.685c30.754 23.742 65.325 42.773 105.193 56.891 26.93 8.637 54.112 16.551 81.105 24.774h.436l.31.124c1.881.701 3.732 1.506 5.23 2.303l-.374.747-79.61-13.943-.56 1.432v.062a7.6 7.6 0 0 0 1.306 2.117c3.347 2.804 6.636 5.446 10.333 8.091 12.556 9.465 25.6 18.82 38.156 28.508v-.062c8.891 8.19 20.3 13.688 33.238 15.25h1.805c10.135 0 20.122-.479 28.695-1.307h5.353c.255 3.76-1.84 4.793-4.357 4.793-10.772.828-21.342 1.887-32.305 2.365h-1.68a41.7 41.7 0 0 1-28.633-11.329c-5.386-4.78-12.206-7.944-19.918-8.9h.622a171 171 0 0 0-19.793-1.245l-112.6-2.74h-.125c-1.785.064-3.546.276-4.98.499l-1.431 2.303.186.062c1.275.51 2.497 1.075 3.548 1.68 3.984 2.518 7.322 5.012 10.955 7.657 18.575 13.485 37.45 26.78 55.71 40.708l.124.062c9.769 8.2 22.351 13.071 36.101 13.071 3.952 0 7.796-.357 11.142-1.058 17.464-4.047 35.149-9.48 51.912-14.005s33.376-9.354 50.107-13.943c.988-.35 3.196-.018 3.61.747.446.797.685 1.689.685 2.677v.062c0 .7-.181 1.386-.436 1.992v.062c-1.115 1.53-2.756 2.693-4.668 3.299-13.194 4.27-26.332 8.336-39.526 12.51l-49.546 15.873-13.943 4.855a72 72 0 0 0 6.349 4.793c15.784 8.45 33.806 13.258 52.97 13.258 4.844 0 9.613-.33 13.756-.871 16.583-1.528 33.15-2.793 49.733-4.606h.063c.334-.03.696-.062 1.058-.062.382 0 .801.03 1.12.062h.125c5.354 0 9.934 3.007 12.324 7.47l.56.87.56.934a228 228 0 0 0 16.495 22.097h-.062c6.724 7.394 10.83 17.176 10.893 27.948v20.79c0 1.179.436 2.412.436 4.356l24.4-12.76v-.747c.35 2.359.588 4.796.684 7.345V663.9c.03.395.062.82.062 1.245 0 6.66-4.675 12.23-11.017 13.631h-.436l-.435.125c-5.578 2.008-10.787 4.779-15.313 8.03-8.509 6.564-16.303 13.56-24.462 20.54l-4.17 3.797.436 1.556c7.808 0 15.72.414 23.528 0a23 23 0 0 0 10.457-2.614c6.406-3.633 12.494-7.867 18.549-12.138 3.76-2.581 7.24-5.49 11.702-8.9 0 11.44.414 21.608 0 31.806v.062c-.223 4.972-1.148 9.77-2.614 13.88-6.416 18.137-13.187 36.358-19.794 54.59v.061l-.062.125c-1.417 3.142-2.179 6.672-2.179 10.333.064 6.66 2.701 12.655 6.972 17.117 11.25 12.429 22.42 24.889 33.86 37.222 5.928 6.501 6.122 6.278 11.827 0l1.432-1.618c10.803-11.792 21.79-23.128 32.242-34.92 4.908-4.684 7.968-11.28 7.968-18.61 0-2.996-.477-5.886-1.37-8.404-4.303-12.442-8.332-24.925-13.071-37.16-7.362-16.476-11.453-34.686-11.453-53.903 0-2.486.06-4.993.187-7.096.159-1.594.58-3.142 1.058-5.851l.124.187c7.147 9.107 16.41 16.472 27.512 21.536h.062c5.404 2.312 11.358 3.673 17.616 3.673 6.278 0 12.265-1.317 17.428-3.548a10 10 0 0 0-3.174-2.926c-4.492-3.89-9.046-8.087-13.88-11.702-7.554-6.915-16.503-12.45-26.828-16.37l-.062-.062c-6.024-1.53-10.52-7.006-10.52-13.507 0-.638.061-1.264.125-1.805v-68.656a34 34 0 0 1 .56-4.42l22.346 13.259c.058-.85.062-1.701.062-2.552 0-.892.002-1.787-.062-2.552.032-.096 0-.184 0-.311v-28.757c0-1.69.448-3.3 1.245-4.606 8.572-12.461 17.633-24.352 26.142-37.036v-.062c2.932-5.577 8.837-9.399 15.561-9.399 1.18 0 2.342.12 3.361.311 10.677 1.817 21.442 2.33 32.119 3.86 24.539 3.633 48.872 4.247 72.328-5.665 5.067-1.88 9.903-4.517 14.938-6.971-1.21-1.594-1.79-2.179-2.427-2.179l-31.122-10.083-45.377-14.628-24.96-7.967h-.062c-.478-.096-.987-.214-1.37-.374a4.44 4.44 0 0 1-2.365-3.92c0-.734.212-1.387.498-1.993 1.18-3.282 3.747-2.131 5.914-1.494 10.58 2.932 20.947 6.095 31.495 8.964 22.054 5.927 44.108 11.978 66.353 17.428l-.311-.124c4.366 1.274 8.913 1.991 13.694 1.991h.124c8.127 0 15.784-1.973 22.221-5.415l.996-.498.934-.498c6.246-3.601 12.294-7.565 17.553-11.453 20.651-14.787 41.098-29.777 61.622-44.691a25 25 0 0 0 3.174-3.424c-4.189-.692-8.476-1.182-12.884-1.182L804.96 429.86h-.684c-8.987 0-17.448 2.276-24.587 6.1l.685-.498c-5.737 3.888-11.688 7.503-18.923 11.39-17.145 8.096-34.942 4.512-52.534 1.93-1.402 0-2.43-2.367-3.61-3.61 1.466-.956 2.89-2.676 4.42-2.676h15.747c2.104.35 4.184.311 6.287.311h.124c9.242 0 17.91-2.306 25.272-6.162l1.182-.623 1.12-.622c7.872-4.653 15.406-9.717 22.035-14.752 13.098-9.56 25.997-19.503 38.84-29.255 1.116-1.115 2.187-2.272 3.175-3.61l-.996-1.183-80.108 15.126-.374-1.12c1.824-1.07 3.725-1.97 5.976-2.864 15.01-4.525 30.088-9.13 45.002-13.943 16.795-5.418 33.818-10.028 50.294-16.37l2.178-.81 2.304-.746c27.662-11.123 53.437-25.835 76-42.949 25.687-19.249 50.938-39.084 77.868-56.58l.124-.062c4.117-3.048 7.514-6.98 10.084-11.702 3.505-6.342 5.477-13.606 5.477-21.35 0-5.195-.866-10.169-2.427-14.503-1.53 1.976-2.372 3.117-3.424 4.233l-.124.186a99 99 0 0 1-13.507 13.445c-8.342 5.524-17.028 10.627-27.388 15.686-13.926 7.043-27.87 13.623-41.828 20.603-21.48 11.154-43.236 22.257-64.174 33.985-23.233 12.907-46.171 26.579-69.34 39.837l-7.968 4.17c-23.073 13.162-45.394 27.5-64.547 41.268-5.227 4.175-10.584 7.509-15.81 11.142l-.685-.872c1.114-1.113 2.372-2.19 3.673-3.299 28.636-22.545 58.448-43.792 93.49-65.854 25.942-16.126 52.538-30.986 78.989-46.123 23.36-13.258 47.066-26.27 70.585-39.463l.25-.125c10.58-5.258 18.742-14.694 22.407-26.454v.56c2.03-6.819 3.175-14.024 3.175-21.474v-.062c0-7.17-1.017-14.082-2.801-20.105v-.996l-.25-.996c-4.43-14.532-11.194-28.11-19.544-39.774a30.6 30.6 0 0 0-1.992 5.042v.622l-.062.498c-3.633 19.377-13.61 36.521-27.823 49.173-14.182 11.92-28.787 22.67-43.447 34.048-21.64 17.018-43.444 33.857-64.797 51.29-24.443 20.109-48.85 40.695-73.261 61.123-3.856 3.187-7.72 6.214-11.64 9.337l-1.12-1.183 97.288-92.246-.996-1.494-6.972 1.245c-22.085 4.048-44.271 7.8-66.165 12.262l-.374.063c-12.046 1.593-23.038 6.339-31.994 13.382l-.062.062a226 226 0 0 0-17.49 19.42c-2.582 2.996-5.014 6.153-7.532 9.213l-1.37-.436c-4.635-27.591-7.603-55.827-8.278-85.213 7.394 5.641 5.618 14.076 8.901 20.354 11.568-23.36 5.27-43.47-12.449-62.369l15.997 2.864h.124c.63.03 1.301.062 1.93.062a33 33 0 0 0 1.867-.062h.063c6.214 0 11.94-2.188 16.37-5.789.956-1.115 1.757-2.332 2.49-3.735-2.486.35-4.952.374-7.47.374h-.062c-3.187 0-6.379-.21-9.088-.56-8.445-2.231-11.92-9.252-14.565-16.869-2.636-7.59-6.593-14.757-9.585-22.345a11.6 11.6 0 0 1-1.12-4.918c0-1.21.178-2.341.497-3.36 4.207-8.383 9.003-16.556 13.943-24.587l.062-.125a15.7 15.7 0 0 1 13.88-8.59c1.721 0 3.36.27 4.793.747 5.056 1.043 10.194 2.13 15.312 3.112 1.052.287 2.214.436 3.362.436h.249a13.9 13.9 0 0 0 11.141-5.54l.063-.124a53 53 0 0 1 7.656-7.47c13.321-10.389 23.313-3.991 25.831 6.972v.373l.125.312c.828 2.199 1.75 4.345 2.738 6.162a58 58 0 0 0 5.104-7.407 44.4 44.4 0 0 0 4.17-18.86c0-6.151-1.257-12.02-3.36-17.055l-.063-.187c-3.41-11.314-13.221-19.82-25.395-21.35l-.25-.062c-3.76-.765-7.303-2.047-10.394-3.673-7.065-4.2-15.245-6.535-24.027-6.535-1.561 0-3.08.059-4.419.186-2.124.389-4.324.686-6.598.747-16.731 1.466-33.438 3.055-50.169 4.17h-2.801c-3.76 0-7.396-.72-10.52-1.867l-.186-.062c-8.35-3.537-14.646-11.048-16.495-20.354-.478-1.593-1.167-3.475-1.805-5.228h-1.93c-.379 3.603-.655 7.245-.684 10.955v5.228c2.04 14.373 15.011 17.91 26.516 23.902L630.8 53.032l4.855 3.673 5.353 3.921c-14.564 4.59-25.967 11.513-32.118 24.898h.872c.637 0 1.202-.18 1.68-.436 4.15-2.059 8.207-4.411 12.449-6.349a17.03 17.03 0 0 1 9.337-2.8h.124c1.594 0 3.174.209 4.544.56 3.283 1.179 3.535 2.358 1.432 5.29-5.736 7.148-10.876 14.76-15.81 23.59-8.775 17.392-16.46 35.39-23.965 52.784l-.062.125a17.2 17.2 0 0 0-1.37 3.734l1.121 1.12 20.354-13.942c-4.653 9.497-9.027 17.88-12.947 26.516v-.373a55.2 55.2 0 0 0-5.041 22.968v.062c-.03.691-.063 1.363-.063 2.054 0 .733.03 1.479.063 2.116l.062.063a9.6 9.6 0 0 0 1.431 3.112h.063c1.115-.606 2.157-1.349 3.05-2.24 1.274-2.232 2.208-4.804 3.61-7.035l.124-.124c2.55-4.366 6.123-8.119 10.457-10.955 7.553 14.022-10.156 76.841-25.644 92.744-14.947-13.608-33.91-81.121-26.517-93.678 6.725 6.788 12.55 14.48 17.553 23.404.71-3.49 1.183-7.021 1.183-10.706v-2.552c-1.434-12.365-5.645-23.892-11.764-33.612-2.104-3.888-4.059-7.841-6.162-11.889 7.33 3.41 11.823 9.994 19.918 12.512-6.119-15.425-12.099-30.034-17.74-44.63v-.996l-.373-.933a143.3 143.3 0 0 0-23.778-38.28 28 28 0 0 1 10.333-2.241c5.845 0 11.214 1.75 15.623 4.668l.125.062c1.655.96 3.39 1.805 5.415 2.552l.685-1.245c-5.992-11.95-18.804-15.428-29.193-22.408l9.71-8.091-13.943-5.416-13.942-5.166c5.609-2.932 10.04-5.3 14.565-7.532 12.206-6.342 13.122-19.153 10.955-29.192-.191-.956-1.166-1.847-1.867-2.739m-84.964 39.774c6.119-.828 10.944 4.13 16.744 8.528h.186c-7.584 2.932-13.603 5.901-20.105 7.718a18.7 18.7 0 0 1-3.672.373h-.872c-2.198 0-4.283-.388-6.1-1.058h-.497l-.436-.186c-3.25-1.18-6.41-2.58-9.088-4.046-2.454-1.275-2.581-3.467 0-4.295h-.747c7.637-2.967 15.544-5.384 24.587-7.034m242.069.25c1.862-.073 3.833.216 5.913.933 5.704 1.944 11.373 4.18 17.428 6.411l-.062.125c-8.158 12.078-28.144 8.748-38.342-.685 4.708-3.299 9.476-6.57 15.063-6.785m.498 4.73c-1.598.191-3.338.987-5.353 2.676 6.979 1.339 10.798 5.419 17.49 1.307-4.04 0-7.345-4.557-12.137-3.983m-242.318.684c-4.773-.256-8.184 3.832-12.2 4.669 6.98 4.047 10.734.032 17.49-2.677-1.967-1.346-3.7-1.906-5.29-1.992M274.95 101.334a16 16 0 0 0-1.059 2.24c.22-.561.334-1.183.56-1.742l-.373.996-.311.996c-4.383 11.243-7.5 23.169-8.963 36.164v.062a70 70 0 0 0-.56 8.963c0 20.843 8.907 39.593 23.217 52.659a689 689 0 0 0 35.417 30.5l.062.062c4.894 4.116 10.643 7.306 17.242 9.337 14.628 3.697 29.529 6.316 44.38 9.025 16.604 3.123 33.315 5.97 49.982 8.901 2.231.638 4.618.623 8.092.623l-.187-.312a61 61 0 0 0-3.174-5.29c-12.142-16.668-23.919-33.543-36.475-49.796l-.125-.249c-8.668-11.95-21.37-20.76-36.475-24.711-11.49-2.642-22.932-5.532-31.247-15.063-3.304-3.238-6.767-6.227-10.706-9.212l-.498-.374c-14.628-11.887-27.793-25.406-39.712-40.894l-8.9-12.636zm632.901 2.676-.435.063c.033.073.09.175.124.249zm-.31.312-2.49 2.24c-4.462 5.386-8.507 11.182-13.383 16.122-12.366 12.716-25.35 24.977-37.97 37.533h-.062c-9.91 10.358-22.955 17.677-38.093 20.354h-.436l-.373.062c-15.043 2.837-28.115 11.419-36.911 23.529-12.88 16.982-25.254 34.455-37.783 51.787l-.062.062v.063c-.706 1.366-1.34 2.808-1.805 4.481l7.034-1.058c15.488-2.804 30.946-5.595 46.434-8.527 13.194-2.422 26.43-4.624 39.4-7.843l.436-.062c9.752-1.817 18.686-5.875 26.143-11.516 9.784-8.381 20.292-15.915 29.566-24.71l.062-.063c7.5-6.833 14.158-14.605 20.105-23.528l.063-.063a73.5 73.5 0 0 0 10.145-37.346c0-7.617-1.166-14.944-3.174-21.35v-1.37l-.311-1.244c-1.979-6.376-4.273-12.555-6.536-17.553m-495.778 31.807-.125.062.063.062c.022-.037.04-.088.062-.124m-.062.124c-.29.485-.56 1.01-.81 1.618-.477 12.748-1.757 25.474-1.12 38.094v.062c.383 17.91 6.22 34.481 15.686 47.866 11.6 16.317 23.191 32.61 34.919 48.8 1.052 1.052 2.208 1.944 3.61 2.677.581-1.402 1.028-2.867 1.245-4.482 0-10.105-.618-20.607 0-30.936.064-1.21.062-2.491.062-3.734 0-18.994-6.59-36.468-17.553-50.045-6.501-8.796-12.828-17.78-19.233-26.64zm357.22.436-.062.062c-1.434.606-2.625 1.65-3.485 2.988l-33.612 47.555-.062.124c-7.252 8.965-12.374 19.71-14.628 31.931-1.912 17.497-2.282 34.852-3.174 52.348v.062c.063 1.53.334 3.02.684 4.295l1.805 1.307.125-.311a35 35 0 0 1 1.93-3.797c12.655-17.698 25.063-35.52 38.03-53.032 8-11.537 13.024-25.353 13.757-40.46.413-4.565.436-8.958.436-13.755 0-5.035-.374-9.832-.374-13.943-.16-5.163-.955-10.275-1.37-15.374m273.94 108.491c-.702 2.581-1.743 4.28-1.743 6.224l-.062.125c-1.243 7.999-5.883 14.869-12.511 19.171-2.869 1.657-5.66 3.602-8.528 5.29-16.317 9.753-32.674 19.219-48.8 29.194-19.95 12.27-39.654 25.16-59.38 37.844-6.534 4.239-12.89 8.923-19.297 13.32l.25 2.241h3.672l43.135-6.971 64.859-10.27c14.373-2.295 28.975-4.518 43.571-6.972 4.048-.988 8.158-2.159 9.337-6.971v.56a77.3 77.3 0 0 0 3.174-21.972c0-6.533-.744-12.911-2.178-18.425-4.111-13.799-9.32-27.348-14.005-40.956-.128-.415-.666-.667-1.494-1.432m-904.91.56c-1.052 1.084-1.973 2.333-2.801 3.735-1.586 2.975-2.958 6.127-4.358 9.336-7.234 14.788-11.328 31.457-11.328 49.05 0 6.054.54 11.954 1.37 17.116 1.115 6.438 3.52 9.316 10.02 10.208 10.804 1.69 21.467 3.138 32.43 4.731l47.181 7.47c12.62 1.943 25.348 3.91 38.032 5.664 6.629.924 13 1.415 19.98 2.116l16.246 1.743.436-1.307c-1.18-1.211-2.488-2.31-3.922-3.362-27.057-17.24-54.012-34.394-81.229-51.476C186.56 292.32 172.595 285 159.05 276.49l-.186-.125c-6.597-3.633-11.995-9.266-15.437-16.245-1.753-4.526-3.47-9.152-5.477-14.379m452.766 51.539h.311c13.831 0 26.876 2.992 38.094 8.091h.622l.498.187c24.667 11.282 43.328 33.588 49.733 61.186v-.435c2.233 7.936 3.486 16.252 3.486 24.897 0 17.305-4.76 33.516-12.822 46.933l-.25.435c-12.365 20.174-32.175 35.299-56.268 41.704h.435a101 101 0 0 1-11.39 2.366c-3.697.7-4.788-.413-3.673-4.046l.062-.25c2.996-8.094 8.907-14.78 16.62-18.86h.684l.623-.31c6.884-3.984 13.34-8.629 19.171-13.632l.125-.062c15.775-13.481 25.707-33.493 25.707-55.834 0-14.309-4.072-27.69-10.955-38.653l-.187-.374c-6.544-12.261-16.72-22.284-29.442-28.82a73.9 73.9 0 0 0-32.056-7.282c-27.853 0-52.137 15.333-65.107 38.343-12.366 21.926-10.948 44.108-.623 66.353v.435l.187.498c8.063 17.273 22.568 30.894 40.957 37.97l.186.061c7.553 2.773 13.594 8.72 16.557 16.433a41 41 0 0 1 1.494 6.224l.498.25h-1.867c-8 0-15.656-1.617-22.221-4.358l-.623-.186c-30.116-10.9-52.895-37.294-58.759-70.088-1.498-6.36-2.427-12.898-2.427-19.731v-.249c0-23.137 8.964-44.201 23.528-59.817l.063-.062c12.46-13.704 29.233-23.381 48.737-27.014 6.56-1.384 13.315-2.273 20.292-2.303m457.31 52.97c-.132.171-.183.268-.311.435h.186zm-.311.435h-2.366c-1.21-.063-2.461-.124-3.672-.124s-2.434.06-3.486.124c-9.624 1.466-19.13 3.455-28.819 4.793-18.006 2.518-36.145 4.454-54.215 6.972-20.364 2.772-40.486 5.742-60.564 9.025h-.747l-.809.062c-15.01 2.263-29.185 6.98-41.455 13.258l-1.743.996c-15.775 9.625-30.867 20.343-44.38 31.434-.446.286-.518 1.148-.996 2.614l8.59-.436c32.379-1.88 65.028-3.788 97.662-5.477h.249c24.348-.51 47.671-4.904 67.908-12.138h1.058l1.059-.373c22.882-8.7 43.13-22.824 59.256-40.957 2.413-3.085 4.525-5.93 7.47-9.773m-915.367-.31.062.186c.86 1.72 1.966 3.359 3.05 4.793 4.62 5.035 9.13 9.976 13.943 14.565 16.903 16.287 37.905 28.45 62.244 34.919h.062c13.771 3.338 27.924 5.891 43.447 7.345 22.18 2.23 44.48 3.327 66.788 4.793 13.098.86 26.242 1.415 39.276 2.116l13.943.81.747-1.557c-1.306-1.115-2.642-2.431-4.108-3.61-6.251-5.256-13.108-10.643-19.918-15.375-8.46-6.175-17.257-11.837-27.699-17.49-18.42-9.433-38.806-10.86-58.883-13.57l-123.369-17.303c-2.645-.638-5.602-.623-9.585-.623m27.45 135.007c-4.434-.696-6.141.464-6.163 4.855v.063c-.03.712-.062 1.373-.062 2.116 0 .765.03 1.541.062 2.178v.063c0 11.473 3.473 22.112 9.337 30.748 9.497 14.5 18.717 29.364 28.819 43.323 17.369 24.475 35.377 48.204 53.032 72.265a10139 10139 0 0 0 57.763 77.432c1.37 1.658 2.241 3.836 2.241 6.163v.062c0 1.593-.42 3.082-1.12 4.357-4.175 8.987-2.991 12.474 5.104 18.05h.062c1.466 1.116 2.45 2.757 2.8 4.67.351 5.513 1.641 6.887 7.346 7.78 1.625.287 3.903.752 4.668 1.867h.062a34.5 34.5 0 0 0 16.557 9.96h.125c1.912.796 3.579 2.048 4.917 3.61 5.29 7.043 10.382 14.681 16.246 21.66a6.25 6.25 0 0 1 1.743 4.358v.062c0 1.784-.719 3.364-1.93 4.544v.062a17 17 0 0 1-2.925 3.112c-4.481 3.973-8.838 7.554-13.507 10.955a9.68 9.68 0 0 1-5.914 1.992h-.747c-.426-.03-.88-.062-1.307-.062-.446 0-.862.03-1.245.062h-.124c-4.749 0-8.986 1.98-12.013 5.166l-.747.56a3 3 0 0 0-.934 2.18c0 .86.36 1.636.934 2.178 5.163 6.533 10.085 13.168 15.312 19.669.478.637 3.257 1.164 3.735.622 2.636-3.086 5.078-6.373 7.593-10.146l.187-.31a63 63 0 0 1 6.785-9.96c5.163-4.876 11.418-8.635 16.868-13.32 7.521-6.565 12.254-6.606 19.234.373l.062.062c12.11 11.728 23.128 24.587 33.55 39.215 5.577 7.807 11.353 15.471 16.93 23.279 1.53 2.008 2.868 3.99 0 6.349-5.354 4.685-5.228 4.804-1.245 10.955a16.7 16.7 0 0 1 1.68 2.676c4.112 8.86 10.732 10.656 20.292 8.84h.125c6.087-.861 11.173-4.697 13.818-10.147a13.8 13.8 0 0 0 2.739-8.278 14.03 14.03 0 0 0-5.976-11.515c-2.167-2.008-3.767-2.816-6.348-.872l-.747.374a4.83 4.83 0 0 1-2.615.747h-.062c-1.701 0-3.144-.91-4.046-2.241-14.782-17.829-28.46-36.62-42.015-58.51v.622c-2.617-4.608-5.075-9.316-7.594-15.125a8.2 8.2 0 0 1-.809-3.548c.096-2.932 1.749-5.537 4.17-6.971 7.394-5.29 14.7-11.02 22.222-16.246v.062c1.753-1.243 3.868-1.992 6.162-1.992h2.49c4.175 0 7.909-1.921 10.395-4.917h.498c.605-.574.996-1.349.996-2.24v-.063a3 3 0 0 0-.996-2.24c-4.749-6.215-9.13-12.373-13.943-18.3-.86-.798-2.024-1.246-3.3-1.246h-1.493c-2.454 2.518-6.971 5.468-6.971 8.528v.062a18.9 18.9 0 0 1-9.026 13.383v-.063c-4.384 4.003-9.807 6.962-15.997 8.528-.235.03-.511.062-.746.062-.255 0-.462-.03-.685-.062-1.721 0-3.246-.902-4.17-2.24-6.215-8.287-12.455-16.553-18.86-24.712-1.945-2.518-1.357-4.098.746-5.851 5.405-4.488 10.657-9.263 16.06-13.818 18.58-16.35 41.402-27.892 67.535-32.928 6.214-1.051 12.565-3.345 19.544-5.353l-.435-.684v-.685l-.25-.498c-2.103-3.729-4.427-7.334-6.722-10.457-2.995-3.282-1.828-5.091 1.805-6.971 6.98-3.538 13.935-7.445 20.915-11.142 4.302-2.231 8.296-5.168 7.531-10.395v-18.3c.223-8.286 1.222-15 8.839-18.984h.436l.373-.187c3.442-1.785 6.686-3.808 9.586-5.976l.062-.062a11.38 11.38 0 0 0 5.85-9.523v-23.279c-.063-1.785-.304-3.484-.56-4.918l-43.82 25.334c-5.64-17.72-15.47-33.433-10.02-53.033l-16.931 8.59c-21.894 11.314-43.836 22.836-65.73 33.799l-.25.124c-6.246 3.442-11.69 8.176-16.12 13.88-3.984 4.303-6.474 10.061-6.474 16.371v.062c0 3.187.691 6.256 1.743 8.901v.685l.186.685c1.13 3.14 2.416 6.153 3.61 8.59l.063.124a22.9 22.9 0 0 1 2.49 10.395 22.96 22.96 0 0 1-6.91 16.432l-5.041 5.291c3.285 1.65 6.988 2.552 10.893 2.552 8.573 0 16.134-4.396 20.602-11.142 1.816 4.147 2.864 8.69 2.864 13.507 0 4.303-.808 8.507-2.179 12.076h.062c5.928-.383 11.156-3.381 14.566-7.843a10.1 10.1 0 0 1 2.676-2.24c3.633 2.453 4.99-1.562 5.913-2.677s1.899-2.207 3.237-3.673a14.7 14.7 0 0 1 1.867 7.22c0 4.367-1.965 8.313-4.98 11.018l-.061.062c-12.337 10.94-26.68 19.549-43.385 25.583-1.814.61-3.729.933-5.726.933h-.125c-.553.06-1.096.125-1.68.125a13 13 0 0 1-1.681-.125h-.311c-10.073-1.906-18.902-7.294-25.271-14.938l-.063-.063c-2.309-1.667-4.813-3.003-7.78-4.108l-.125-.124a18.8 18.8 0 0 1-4.42-3.112c-1.019-.829-1.162-2.556-1.99-3.735-8.86-12.142-18.055-24.397-27.202-36.475-18.994-25.177-37.891-50.268-57.14-75.254a5275 5275 0 0 0-53.78-68.407l-.062-.124c-7.999-10.772-20.023-18.4-34.11-20.79m860.342 6.598-.186.062c-4.59.67-8.847 2.19-12.512 4.358l-.56.373-.56.436a253.5 253.5 0 0 0-30.437 28.445c-16.381 19.409-31.135 40.82-46.56 61.249-11.887 15.265-23.477 30.484-34.918 45.75-15.361 20.364-30.574 40.885-46 61.186a15.8 15.8 0 0 1-5.352 3.299l-.311.062c-2.104.797-4.13 1.75-5.851 2.739-2.646 2.167-4.613 4.93-6.972 7.034-10.74 9.146-22.579 13.349-36.537 5.477-10.931-6.342-21.653-12.978-32.616-19.607l-.125-.062c-2.008-1.339-3.852-2.853-5.477-4.606-2.359-2.231-3.797-5.396-3.797-8.901 0-2.422.688-4.687 1.867-6.536 4.239-.223 3.478 11.088 10.457 4.108l.062.063c3.57 5.003 9.338 8.336 15.935 8.527-1.252-3.535-1.992-7.338-1.992-11.328 0-4.685.927-9.153 2.552-13.01 2.733 2.54 5.643 4.898 8.901 7.283l.062.062c3.239 2.36 7.211 3.797 11.516 3.797h.746c2.486 0 4.9-.448 6.972-1.245 3.76-1.466 3.964-2.897.809-5.415-4.59-3.506-7.594-9.066-7.594-15.312v-.125c0-2.199.39-4.345.996-6.162 1.805-6.935 4.1-13.854 6.536-20.79a17.75 17.75 0 0 0 1.743-7.656c0-3.792-1.23-7.309-3.237-10.145l-.125-.187c-3.792-5.227-8.4-9.836-13.818-13.756-9.656-6.342-19.961-11.481-30.064-16.93-16.7-8.86-33.591-17.534-50.418-26.33-2.295-1.18-4.721-1.959-7.78-3.361v10.457c-.128 4.43-.546 8.722-1.183 12.386l-.436 1.681-.311 1.494c-1.976 7.649-4.366 15.144-6.66 20.976v.063a5.8 5.8 0 0 1-.685 1.493c-.797.925-1.962 1.462-3.237 1.494h-.062a3.83 3.83 0 0 1-2.303-.747c-3.41-1.72-6.614-3.721-9.897-5.602l-30.313-17.553-.124-.249v8.59c0 5.555-.556 11.074-.56 15.81v.062c-.03.335-.063.697-.063 1.059 0 .382.03.739.063 1.058v.124c0 5.705 3.706 10.602 8.9 12.387l.312.187a60.6 60.6 0 0 1 15.623 11.888c6.916 7.745 2.387 15.678 2.801 27.948 1.402 8.318 2.022 10.182 8.714 13.943s13.001 7.782 19.98 11.702c.447.16.865.49 1.183.809.606.574.996 1.348.996 2.24s-.39 1.73-.996 2.304c-1.816 2.645-2.997 5.096-5.228 8.092s-1.418 4.676 1.992 5.664c1.038.322 2.054.604 3.299.871 10.102 2.04 20.861 4.04 31.06 6.972h.871l.934.31c13.927 4.367 26.786 11.1 37.844 19.546 8.318 5.864 15.935 13.228 23.902 19.793.51.287.987.675 1.37 1.12a5.4 5.4 0 0 1 1.493 3.735 5.38 5.38 0 0 1-1.742 3.984c-6.151 7.68-11.776 15.538-17.927 23.155-1.02.956-2.391 1.494-3.921 1.494h-.934l-.249-.062a42.5 42.5 0 0 1-21.287-12.511c-1.626-1.53-3.61-3.476-3.61-5.229 0-5.386-3.19-10-7.843-12.2-2.327-1.466-3.664-1.362-5.353.996-3.984 4.908-7.259 9.817-10.955 14.565-4.876 6.087-3.945 9.719 3.672 12.013 2.251.45 4.54.748 6.971.81h.125c2.804.255 5.455 1.061 7.718 2.24 7.521 5.163 14.869 10.831 21.848 16.122h.062c1.976 1.21 3.3 3.457 3.3 5.975v.187a6.8 6.8 0 0 1-.748 3.112v.374l-.124.435c-1.243 3.729-2.822 7.304-4.606 10.395-7.936 12.557-15.953 25.079-24.462 37.285-6.406 9.05-13.375 17.47-20.354 26.267-1.275 1.753-2.46 3.145-5.104 1.743-7.394-4.112-7.41-4.117-12.636 2.863l-2.24 2.739c-7.299 9.05-7.115 9.017-2.366 19.98 3.06 6.884 6.518 12.193 15.25 11.142h.249a68 68 0 0 1 7.718.996c1.88 0 3.55-.75 4.793-1.992 3.378-4.207 6.115-8.8 9.461-13.134.53-.467.959-1.094 1.245-1.805v-.062c.029-.234.062-.45.062-.685 0-.255-.03-.524-.062-.747a4.19 4.19 0 0 0-2.863-3.983c-4.111-2.518-3.39-5.056-.872-8.466 9.688-13.448 18.908-27.26 28.82-40.645l.248-.311c7.713-10.071 16.927-18.932 27.7-26.517 1.178-1.02 2.73-1.618 4.419-1.618s3.178.568 4.357 1.556c7.935 5.705 15.908 11.501 23.653 17.429l.062.062c1.753 1.21 3.006 3.03 3.548 5.228v.063c.828 4.812 3.581 8.96 7.469 11.702 2.709 2.422 4.532 1.587 6.349-1.059 2.996-4.461 6.55-8.922 9.96-13.32 5.013-6.379 4.536-9-2.989-12.2a10.8 10.8 0 0 0-5.415-1.431h-.996l.125-.063c-.988.223-1.999.374-3.05.374-4.462 0-8.436-2.103-11.018-5.353-2.23-1.88-4.963-3.101-6.97-4.917h-.063a56 56 0 0 1-6.411-6.972c-.86-.988-1.338-2.27-1.37-3.672 0-1.53.568-2.902 1.556-3.922 5.323-6.883 10.297-14.557 15.81-21.536v-.062c1.945-2.263 4.295-4.164 6.972-5.79 4.333-2.26 8.798-4.586 13.196-6.908 2.294-1.403 4.788-2.56 7.656-3.548 5.163-1.403 6.43-2.89 6.971-8.403v-.062c.319-1.785 1.183-3.335 2.49-4.482 8.42-6.323 9.083-8.81 4.793-18.424a8.5 8.5 0 0 1-.996-3.984v-.062c0-2.2.84-4.197 2.178-5.727l38.343-51.663a9676 9676 0 0 0 59.941-81.229c14.567-17.708 27.76-36.576 40.646-58.447 5.386-8.828 8.465-19.16 8.465-30.251 0-1.243.001-2.434-.062-3.486-.287-1.944-.368-4.127-3.236-3.299zM626.57 593.937c.192.112.307.2.497.31v-.31zm.497.31v.935c-.056.632-.062 1.3-.062 1.93 0 .668-.002 1.355.062 1.929v38.405c-.031.159 0 .338 0 .497v.623c0 5.226 2.765 9.805 6.972 12.387 11.027 6.469 22.207 12.645 33.425 18.86 4.398 2.454 5.229 2.176 5.229-3.05.51-11.218.732-22.458 1.37-33.612v-1.183c0-6.183-3.428-11.574-8.59-14.378-8.032-5.163-15.932-10.125-24.027-15.001-4.371-2.678-8.992-5.216-14.379-8.341m-68.095 1.37-.498.125h-.124c-1.02.318-2.065.768-2.926 1.182-10.39 5.705-20.696 11.668-31.309 17.118l-.124.062c-7.394 3.537-12.511 11.061-12.511 19.794v.062c-.031.492-.063.973-.063 1.494 0 .541.03 1.11.063 1.556.828 6.533.809 13.104.809 19.669.255 4.748.933 9.465.933 14.627h.063c1.242-.223 2.465-.55 3.485-.995 11.314-6.693 22.836-13.126 33.799-20.105h.062a17.23 17.23 0 0 0 8.341-14.628v-.062c.027-.33.062-.666.062-.996 0-.35-.03-.771-.062-1.058v-10.395zm81.603 117.829c.286 5.035.684 9.481.684 13.943.096 14.118 7.001 26.643 17.678 34.483 4.302 3.57 8.916 7.588 12.262 10.52s7.073 5.659 10.706 8.527l1.431-1.183v-.498l-.062-.435c-.478-7.808-1.462-15.505-2.8-21.91l-.063-.187a34.9 34.9 0 0 0-7.532-15.25c-8.489-8.902-18.071-16.821-27.325-25.022l-.062-.062c-1.479-1.095-3.065-2.015-4.917-2.926m-97.475.249-.436.124a60 60 0 0 0-5.789 3.3c-2.804 1.88-5.258 4.155-7.967 6.1-13.321 9.751-24.636 20.225-26.516 37.657-.67 6.151-1.537 12.245-2.365 18.3l1.493.685a85 85 0 0 0 8.154-6.972c6.98-6.405 13.997-13.017 20.977-19.295 11.855-10.58 11.01-25.145 13.943-38.53l-1.12-1.369zm108.74 1.245-.373 2.116.063.062c.35.574.706 1.078 1.12 1.557 7.37 6.258 13.796 13.042 21.288 18.673l.062.062c5.576 4.832 12.239 8.48 19.856 10.83-.204-.018-.419.02-.623 0l.685.063c5.073.467 10.219.684 15.437.684 5.45 0 10.815-.238 15.436-.684.478 0 .498-.394.498-.872v-.062c-.51-.733-1.105-1.354-1.743-1.992-9.847-8.03-19.527-16.157-29.566-23.902v.063c-2.772-2.422-6.163-4.153-10.083-4.918-10.613-1.051-21.38-1.138-32.056-1.68zm-143.348.871a37.75 37.75 0 0 0-22.035 8.03c-8.668 7.521-17.658 14.495-26.454 21.474a29.5 29.5 0 0 0-3.112 3.673l.56 1.805c10.74-.701 21.404-1.224 32.367-2.117l.063-.062c2.294-.51 4.41-1.553 6.1-2.988 2.868-1.944 5.57-4.181 8.278-6.348l27.948-21.6-.685-1.867c-7.68 0-15.351-.7-22.968 0zm50.293 29.504-.062.125a23.3 23.3 0 0 1-2.054 3.859c-7.394 9.752-15.304 19.283-22.283 29.13-8.243 11.19-17.249 22.661-24.214 34.733l-.124.186c-6.171 9.206-9.835 20.277-9.835 32.18v.25c0 8.828 2.066 17.23 5.54 24.337 7.203 16.126 19.581 28.427 31.31 41.206a12.4 12.4 0 0 0 3.298 1.68c.393-1.226.934-2.217.934-3.111 4.607-21.64 8.863-43.378 13.942-64.86a29.6 29.6 0 0 0 .872-7.157v-.311c0-7.345-2.597-14.03-6.847-19.234-2.454-3.219-4.589-6.659-6.66-10.706-1.051-2.108-1.68-4.464-1.68-6.971v-.063c0-2.23.478-4.283 1.306-6.1 5.29-13.098 10.646-26.146 15.873-39.276 1.051-2.709 1.875-5.507 2.863-8.216zm71.706 5.602-1.245.498v.125c.128 2.071.456 4.13.934 5.85 3.803 11.125 7.678 22.334 11.764 33.24l.062.186a24.2 24.2 0 0 1 2.116 9.897c0 7.712-3.632 14.617-9.336 19.047h-.062a14.36 14.36 0 0 0-5.416 11.266v.062c-.03.39-.062.79-.062 1.183 0 .414.03.77.062 1.12.415 3.123 1.291 6.182 1.992 9.337l11.764 55.148c1.275 5.163 2.495 10.274 3.61 15.437l1.806.311c9.624-13.321 22.213-24.697 29.192-39.898a55 55 0 0 0 6.723-26.392c0-7.234-1.407-14.146-3.797-20.105l-.623-1.556-.622-1.494c-5.737-12.46-12.53-24.28-19.67-34.67-7.744-12.365-17.285-23.875-26.018-35.666v-.063c-.956-1.02-1.995-1.939-3.174-2.863m-5.913 80.047c-10.804 14.436-26.64 25.137-30.687 45.438l-.249.373-2.116-3.485-.436-1.058-.436-.996c-3.186-6.31-6.732-12.359-10.27-17.553l-.436-.56-.435-.56a254 254 0 0 0-16.184-18.985l-.062-.062c-1.003-.87-2.143-1.648-3.423-2.366-.652 1.129-1.181 2.36-1.619 3.735-3.219 21.193-6.817 42.325-9.399 63.614-.667 4.404-1.12 8.845-1.12 13.445v.31c0 12.685 2.781 24.75 7.594 35.045 5.035 10.23 10.4 20.335 15.499 30.437 6.628 13.194 12.876 26.333 19.856 39.463h.062c.796 1.052 1.81 2.004 2.925 2.801a18.7 18.7 0 0 0 2.366-2.801c1.53-3.027 2.89-6.03 4.419-9.025 10.74-21.608 21.63-43.587 32.243-65.482v.374a69.8 69.8 0 0 0 6.473-27.014v-.187c-.287-11.282-2.05-22.185-4.855-31.682-2.805-14.947-4.829-29.964-7.283-44.879-.414-2.581-.933-5.323-.933-7.905z" style="stroke-width:31.8692"/>
</svg>
