<svg xmlns="http://www.w3.org/2000/svg" width="1292" height="960">
    <path d="M336.806-29.996c-7.323.11-13.525 2.686-17.941 7.92-4.188 5.234-5.24 15.178-2.623 29.834 6.282 37.686 8.902 240.253 3.144 247.057-3.14 3.14-6.808 22.503-8.902 42.393s-6.8 41.873-10.987 49.201c-3.664 7.328-6.809 20.415-6.809 29.313 0 8.375-3.664 20.413-7.851 25.647-4.187 5.758-7.851 16.753-7.851 24.605s-3.664 15.18-7.852 17.274c-5.234 2.094-7.851 9.945-7.851 25.647 0 23.555 6.805 35.07 21.46 35.07 4.712 0 11.518 3.665 15.182 7.852s14.133 7.852 23.554 7.852 19.89 3.664 23.554 7.851 9.419 7.851 12.56 7.851c9.421 0 72.234 32.975 85.843 45.537 6.805 6.281 17.277 13.082 22.512 14.652 14.655 4.711 89.5 81.66 101.538 104.69 5.758 10.469 13.09 20.936 16.753 21.983 3.664 1.57 6.801 6.803 6.801 12.037 0 4.711 8.38 17.272 18.325 27.74 25.648 26.695 47.63 26.695 73.277 0 9.945-10.468 18.318-23.029 18.318-27.74 0-5.234 3.144-10.467 6.808-12.037 3.664-1.047 10.988-11.514 16.746-21.983 12.039-23.03 86.89-99.979 101.546-104.69 5.234-1.57 15.707-8.371 22.512-14.652 13.609-12.562 76.414-45.537 85.836-45.537 3.14 0 8.902-3.664 12.566-7.85s14.133-7.852 23.554-7.852c9.422 0 19.89-3.664 23.555-7.852 3.664-4.187 10.463-7.851 15.173-7.851 14.656 0 21.461-11.516 21.461-35.07 0-15.703-2.617-23.554-7.851-25.648-4.187-2.094-7.852-9.423-7.852-17.274s-3.663-18.847-7.85-24.605c-4.188-5.234-7.852-17.272-7.852-25.647 0-8.898-3.137-21.985-6.801-29.313-4.187-7.328-8.901-29.31-10.995-49.2s-5.754-39.253-8.894-42.394c-5.758-7.328-3.145-214.607 3.136-240.778 4.71-20.413-8.898-43.964-25.648-43.964-13.085 0-34.017 13.08-52.337 32.97-7.328 7.85-16.233 14.138-19.897 14.138-4.187 0-14.654 6.804-24.075 15.703-9.422 8.374-20.41 15.702-24.597 15.702s-8.374 2.091-9.945 4.708c-3.664 5.758-46.065 26.698-53.917 26.698-3.14 0-8.373 3.664-12.037 7.851-3.664 4.188-11.515 7.852-17.796 7.852s-16.75 3.66-23.554 8.894c-18.32 12.562-113.582 12.562-131.902 0-6.804-5.235-17.273-8.894-23.554-8.894s-14.132-3.664-17.796-7.852c-3.664-4.187-8.897-7.851-12.038-7.851-7.851 0-50.253-20.94-53.917-26.698-1.57-2.617-5.757-4.708-9.944-4.708s-15.183-7.328-24.605-15.702c-9.421-8.899-19.888-15.703-24.075-15.703-3.664 0-12.561-6.287-19.89-14.139-19.791-21.591-41.316-33.28-57.428-33.038M394.91 73.482c5.092.43 12.736 3.826 25.494 10.696 14.656 7.852 28.79 17.27 30.885 20.41 2.093 3.665 8.896 6.81 14.13 6.81 9.422 0 31.406 16.749 31.406 23.553 0 5.758-21.457 23.555-28.262 23.555-3.664 0-21.982 14.132-39.778 31.405-18.843 17.797-36.12 30.883-40.307 29.312-8.899-3.664-9.943-133.996-.522-143.418 1.767-1.766 3.9-2.58 6.954-2.323m501.737.491c12.695-.053 13.686 18.972 13.686 75.11 0 51.295-1.567 68.047-6.8 70.14-4.188 1.57-21.465-11.515-40.308-29.312-17.797-17.273-36.114-31.405-39.778-31.405-6.805 0-28.27-17.797-28.27-23.555 0-6.804 21.984-23.554 31.406-23.554 5.234 0 12.045-3.144 14.138-6.808 2.094-3.14 15.7-12.56 30.355-20.41 11.614-6.216 19.8-10.182 25.57-10.206m-50.758 314.952q11.574.084 25.709 3.029c10.992 2.093 17.8 8.37 24.604 22.503 12.039 26.695 10.988 36.643-6.808 58.103-13.61 16.75-17.274 18.318-42.922 18.318-37.687 0-51.295-13.083-51.295-49.723 0-34.873 17.28-52.473 50.712-52.23m-390.544.537c10.73-.131 21.857.66 28.4 2.492 9.945 2.617 28.783 34.545 28.783 49.201 0 3.664-4.184 15.698-8.894 26.69-8.375 16.75-12.565 19.892-30.885 23.033-47.108 6.804-70.14-9.42-70.14-49.723 0-26.171 8.377-41.352 26.697-48.68 4.973-1.832 15.308-2.883 26.039-3.013m-249.02 51.693c-7.852 0-22.508 9.946-41.35 29.312-16.227 15.703-29.313 32.974-29.313 37.685s-3.664 13.605-7.852 18.839c-5.234 6.804-7.85 23.036-7.85 49.73 0 32.453 2.616 43.968 15.702 70.663 8.375 17.796 24.602 41.349 35.07 53.388 22.508 24.077 60.718 54.438 68.57 54.438 2.617 0 6.279 3.664 8.372 7.851 1.57 4.188 8.375 7.852 15.703 7.852 6.804 0 13.611 3.137 15.181 6.8 1.047 3.665 13.089 12.037 26.698 18.318 13.086 6.804 25.12 14.134 26.69 17.274 2.094 2.617 6.81 4.716 10.474 4.716 4.187 0 19.89 11.515 35.07 25.647l27.74 26.169-.528 33.498c-.524 37.164-5.234 44.493-41.35 64.383-10.469 5.758-19.363 12.563-18.84 15.703 0 2.617 23.033 5.233 50.774 6.28 38.734 1.046 53.39-.52 62.811-6.801 6.805-4.188 15.175-7.852 18.839-7.852 4.187 0 14.654-6.806 24.075-15.181 8.899-8.375 21.464-16.753 26.698-18.846 5.758-1.57 18.844-16.75 29.312-33.5 17.273-28.788 18.318-33.494 18.318-73.797 0-38.734-1.57-46.068-15.703-69.099-8.375-13.609-15.703-26.69-15.703-28.783 0-7.851-121.953-121.957-130.85-121.957-5.235 0-10.468-3.145-12.039-6.808-3.14-8.899-98.41-56.003-112.02-56.003-3.14 0-15.178-5.233-27.74-12.038-32.976-17.273-60.192-73.285-41.872-84.8 8.375-5.235.521-13.081-13.088-13.081m874.844.2c-5.166-.201-9.133 1.302-11.194 4.508-1.57 2.617-.518 6.279 2.622 8.372 18.32 11.516-8.903 67.528-41.879 84.801-12.562 6.805-24.6 12.038-27.74 12.038-13.61 0-108.872 47.104-112.013 56.003-1.57 3.664-6.803 6.808-12.037 6.808-8.899 0-130.86 114.106-130.86 121.957 0 2.094-6.804 15.174-15.702 28.783-14.132 23.031-15.703 30.365-15.703 69.099 0 40.303 1.052 45.01 18.325 73.798 10.469 16.75 23.555 31.928 29.313 33.499 5.234 2.093 17.792 10.471 26.69 18.846 9.421 8.375 19.888 15.181 24.075 15.181 3.664 0 12.042 3.664 18.847 7.852 9.421 6.28 24.077 7.847 62.81 6.8 27.742-1.046 50.774-3.662 50.774-6.279.523-3.14-8.378-9.945-18.847-15.703-36.116-19.89-40.826-27.22-41.35-64.382l-.521-33.5 27.74-26.168c15.18-14.132 30.884-25.647 35.071-25.647 3.664 0 8.372-2.099 10.466-4.716 1.57-3.14 13.612-10.47 26.698-17.274 13.609-6.281 25.65-14.653 26.697-18.317 1.57-3.664 8.37-6.801 15.174-6.801 7.328 0 14.132-3.664 15.703-7.852 2.093-4.187 5.763-7.851 8.38-7.851 7.852 0 46.054-30.36 68.562-54.438 10.468-12.04 26.695-35.592 35.07-53.388 13.086-26.695 15.703-38.21 15.703-70.663 0-26.694-2.617-42.926-7.851-49.73-4.188-5.234-7.852-13.608-7.852-17.796 0-9.422-31.406-45.539-50.773-58.625-9.127-5.888-17.755-8.958-24.398-9.216" style="stroke-width:.523424"/>
</svg>
