<svg xmlns="http://www.w3.org/2000/svg" width="1462" height="960">
    <path d="M241.496 741.382c0-1.978 2.094-1.978 4.073-1.978h2.094v1.978c0 1.979-1.978 0-1.978 0zm6.167 7.912c0-1.979-1.978-1.979-3.956-1.979 0 0-2.094 0 0-1.978a1.98 1.98 0 0 1 1.979-1.978s3.955 3.955 1.978 5.934zm35.954-403.518c-1.979 0-1.979 0-1.979-1.979 0-1.978 0-2.094 1.979-2.094 1.978 0 1.978 0 1.978 2.094a1.98 1.98 0 0 1-1.978 1.979m227.706 669.272c0 1.978 0 1.978-2.094 4.073-1.979 0-5.935 1.978-7.912 0-1.977-1.979 0-4.073 1.979-4.073a4.31 4.31 0 0 0 3.954-3.941l.001-.015c0-1.979-1.978-3.956-5.934-3.956s-6.05-4.073-6.05-8.028c0-1.979 0-1.979-1.978-3.956l11.635 5.934a10.35 10.35 0 0 1 3.956 8.022v.01c2.094 0 2.094 1.979 2.094 5.935zm-16.407-65.857c1.979-2.094 1.979-4.073 4.073-4.073s1.978 1.979 1.978 4.073l-1.978 1.978c-4.073-1.978-2.094 0-2.094 1.979 2.094 0 2.094 0 2.094 1.978 0 0 0 1.979-2.094 0-1.979 0-1.979-1.978-1.979-3.955-1.978 1.978-1.978 0 0-1.979zm-1.977-63.994a1.98 1.98 0 0 1 1.978 1.978c-1.978 1.978-3.955 0-1.978-1.978m0-10.006 1.978 1.978v4.073c-1.978 0-1.978 0-1.978-1.978v-2.095s-1.979-1.978 0-1.978m3.956 59.922c2.094 0 2.094 2.094 2.094 4.072 0 0 0 1.979-2.094 0 0 0-1.979 0 0-4.072m-1.979-65.857c1.979-1.979 1.979 0 1.979 0 2.094 1.978 2.094 1.978-1.979 0 1.979 1.978 0 1.978 0 0m1.979-8.029c2.094 0 2.094 1.979 2.094 3.956a2.095 2.095 0 0 1-2.094 2.094c0-4.073-1.979-4.073 0-6.05-1.979 0-1.979-1.978 0 0m-1.979-8.028c0-1.979 0-1.979 1.979-1.979a1.978 1.978 0 1 1 0 3.957 1.98 1.98 0 0 0-1.979-1.978m479.848 133.924c-1.978 0-1.978-1.979 0-4.073zm43.982-43.982c-1.979 0-1.979 1.978-3.956 1.978h-1.978v-1.978a6.86 6.86 0 0 1 1.977-3.955h1.979c1.979 1.978 3.956 1.978 1.979 3.955zm137.881-69.813a7.2 7.2 0 0 0-5.023-2.036 7 7 0 0 0-.948.063l.037-.004c-2.094 0-2.094-1.979 0-1.979 0-1.978 1.978-1.978 3.955 0 1.979 0 1.979 1.979 1.979 3.956zm-1.397-515.568c-1.978 0-1.978 1.978-3.956 1.978-4.072 0-4.072 1.979 0 3.956a16.5 16.5 0 0 0-5.004-.76 16.9 16.9 0 0 0-5.123.792l.12-.033c-1.98 0-1.98 0-1.98-1.979v-.004a1.98 1.98 0 0 0-1.978-1.978q-.06 0-.121.004h.01c-1.979-1.979-1.979-1.979-3.956-1.979s-1.979 1.979-1.979 3.956v23.97c-1.978 8.028 1.979 16.056 0 23.969a53.7 53.7 0 0 1 .742 9.017 55.5 55.5 0 0 1-.788 9.344l.045-.327v5.934c.05.79.078 1.712.078 2.641a44.8 44.8 0 0 1-2.144 13.732l.088-.316c-1.979 1.978 0 3.956 0 5.934 1.978 1.979 1.978 1.979 0 3.956-1.979 1.977-1.979 4.073-4.073 6.05v1.978h2.094c1.979 0 1.979-1.978 3.956 0 1.977 1.979 0 1.979 0 4.073v3.956c0 3.955 1.978 5.934 1.978 10.006a16.5 16.5 0 0 0-.76 5.004 16.9 16.9 0 0 0 .792 5.124l-.033-.12c-1.978-2.094-1.978-2.094-3.955-2.094a1.98 1.98 0 0 0-1.979-1.978l-2.094 1.978c2.094 2.095-1.978 6.05 2.094 8.029 1.979 0 0 1.978-2.094 3.955s-1.978-1.978-1.978-1.978c-1.979 1.978 4.072 4.073 0 6.05 1.978 1.978 1.978 3.956 6.05 3.956v1.978h-1.979c-2.094 0-2.094 0-2.094 1.978 0 1.979 2.094 2.095 4.073 2.095a4.31 4.31 0 0 1 3.954 3.941l.001.016v15.94s0 2.094-1.978 2.094c-3.956 0-3.956 1.978-6.05 3.955h2.094c1.978-1.978 3.956 0 3.956 1.979v6.05c-1.979 0-1.979-2.095-1.979-2.095s-1.978-1.978-1.978 0v2.095c1.978 1.978 1.978 1.978 0 3.955 0 0-2.095 1.979 0 1.979s1.978 0 1.978-1.979a1.98 1.98 0 0 1 1.979-1.978c1.978 0 0 1.978 0 1.978v25.948a1.98 1.98 0 0 1-1.979 1.979c-1.978 0-1.978 0-1.978-1.979 0 0-2.095-1.978-2.095 0-1.978 0 0 1.979 0 3.956s0 2.094 2.095 0c2.094-2.094 3.955 2.094 3.955 2.094 0 1.979 0 3.956-1.978 3.956-1.978 1.978-1.978 0-4.073-1.978 0 0 0-1.979-1.978 0v1.978c0 1.978 0 3.956 4.073 1.978 1.978 0 1.978 0 1.978 1.979 0 6.05 1.978 10.007 1.978 16.057v46.541a37.1 37.1 0 0 1-4.053 14.17l.098-.207s-2.094 0-2.094-1.978h-2.56v1.978c1.978 1.978 1.978 1.978 0 3.956 0 0-1.979 0 0 1.978 1.978 4.073 0 6.05 0 10.007 0 1.978 0 4.073 4.072 1.978 1.979 0 1.979 0 1.979 2.095 1.978 5.934 1.978 11.635 3.955 15.94v1.978c-3.955 1.978-1.978 3.956-1.978 6.05s-1.978 1.978 0 3.956v1.978c-3.956 1.979-1.978 6.05 0 8.029 0 1.978-1.978 1.978-1.978 3.955s0 1.979-1.979 1.979c-1.978 0-2.094 0-2.094 2.094v3.956c2.094 0 2.094 1.978 4.073 3.955 0 0 1.978 1.979 0 1.979h-1.979v-.004a1.98 1.98 0 0 0-1.978-1.979q-.061 0-.122.004h.01c-1.979 1.979 0 4.073 0 6.05 2.094 3.956 0 5.934 0 10.007v1.979c2.094 1.978 2.094 0 2.094 0h3.956c1.978 1.978 0 1.978 0 3.955-3.956 1.979 0 6.05 0 10.007v1.979h-1.979c-4.072-1.979-4.072 0-4.072 1.978v18.034c0 1.979 0 1.979-1.979 3.956-1.978 0-3.955 1.978-1.978 4.072v1.979c-1.979 3.956 0 5.934 0 10.007a1.98 1.98 0 0 0 1.978 1.978 1.978 1.978 0 0 1 0 3.957c-3.955 1.979-3.955 1.979 0 3.956 0 0 1.979 2.094 0 2.094-1.978 1.979 0 3.956-1.978 3.956-1.979 0-3.956 0-3.956 1.978 0 1.979-1.978 3.956-4.073 6.05a1.98 1.98 0 0 0-1.978 1.979h1.978c2.095-1.979 4.073-1.979 2.095 1.978a1.98 1.98 0 0 0 1.978 1.979 1.98 1.98 0 0 1 1.979-1.979v1.979c-1.979 1.978 0 10.006 1.978 10.006s1.978 1.979 3.956 1.979c4.072 1.978 8.028 6.05 11.635 8.028v.932h-1.978c-3.956-1.979-7.912 0-11.636-3.956l-7.911-7.68a4.19 4.19 0 0 0-8.021-.029l-.01.03c-1.979 1.979-4.073 1.979-6.05 3.956h-1.979c0 2.094 0 2.094-1.978 4.073 0-1.979-1.979-4.073-1.979-6.05a1.98 1.98 0 0 0-1.978-1.979h-2.094c-1.979 3.956-5.935 3.956-9.89 1.979l-2.094-1.979h-1.979c-1.978 0 0 1.979 0 1.979 1.979 1.978 1.979 1.978 1.979 4.073 2.094 0 2.094 1.978 0 3.955a2.793 2.793 0 0 1-3.957 0c-1.979-1.978-3.956 0-3.956 1.979a6.16 6.16 0 0 0-1.976 3.93v.025c0 2.095-2.094 4.073-4.073 2.095-1.978 0-1.978 0-1.978 1.978 1.978 5.934-3.956 7.912-5.934 10.007s-6.05 1.978-6.05 5.934l-1.979 1.979c-1.978 1.978-3.956 4.072-3.956 6.05a4.425 4.425 0 0 1-4.057 3.954l-.015.001c-1.978 0-3.955 0-1.978 3.956v.117a1.98 1.98 0 0 1-1.979 1.978l-6.05 5.934c0 1.979 0 1.979-1.978 1.979a1.98 1.98 0 0 0-1.978 1.978v.122-.006a10.22 10.22 0 0 1-3.935 7.895l-.023.016c0 1.979-2.094 1.979-2.094 0-1.978-1.978-3.956 0-5.934 0s-1.979 1.979-3.956 1.979 0 2.094 0 2.094c1.979 1.979 3.956 1.979 3.956 3.956a2.793 2.793 0 0 1-3.957 0c-2.094 0-2.094 0-2.094-1.979v-1.978h-1.979c0 1.978-3.955 3.956-1.978 5.934v1.978c-1.979 4.073-1.979 10.007-5.934 11.636a24.63 24.63 0 0 1-9.878 9.942l-.13.064c-1.978 1.978-6.05 3.955-6.05 8.028a41.8 41.8 0 0 1-8.035 11.643l.007-.007c-1.978 0-1.978 1.978-3.955 1.978v-6.05c0-1.978 0-1.978 1.978-1.978 4.073-1.979 6.05-3.956 1.978-7.912a2.095 2.095 0 0 1 2.095-2.094 1.98 1.98 0 0 0 1.978-1.978v-1.979c1.979-1.978 0-3.956-1.978-5.934a10.47 10.47 0 0 0-8.014-4.073h-.015c5.935 0 3.956-5.934 3.956-7.911v-2.094c4.073-3.956 4.073-9.89 8.028-13.963 1.979-1.978 1.979-5.934 3.956-7.911a7 7 0 0 1-.064-.953 7.07 7.07 0 0 1 2.157-5.095l.002-.002v-3.956c0-2.094-2.094-6.05-2.094-8.028v-11.635c0-1.979 2.094-3.956 2.094-8.029v-11.635a11 11 0 0 1-.075-1.313 11.6 11.6 0 0 1 2.078-6.637l-.026.038v-6.05c0-3.955-1.978-8.028-1.978-11.635 0-1.979-2.094-3.956-2.094-6.05 0-5.934 2.094-9.89 2.094-13.963v-11.635a42 42 0 0 0 .741-7.971 43.4 43.4 0 0 0-.785-8.241l.044.272a66 66 0 0 0 .742-10.007 68.4 68.4 0 0 0-.79-10.384l.048.379c.055-1.284.086-2.79.086-4.302a109 109 0 0 0-2.303-22.352l.123.706c0-3.956-1.979-6.05 0-10.007v-3.956c-1.979-4.073 0-6.05 0-10.007v-6.05a19.84 19.84 0 0 0 6.123-14.359q0-.897-.078-1.774l.005.075c0-1.978 0-3.955-1.978-1.978v-10.007s1.978 1.978 1.978 0v-1.978c-1.978 0-1.978-4.073-1.978-6.05a1.98 1.98 0 0 1 1.978-1.979 1.98 1.98 0 0 0 1.578-1.936 2 2 0 0 0-.069-.52l.004.014v-15.94c0-2.094 0-2.094-3.956-2.094-1.978 0-4.072-3.955-4.072-5.934 0-1.978-1.979-6.05 0-8.028a8.73 8.73 0 0 0-.02-10.034l.019.027c0-3.956 0-7.911 4.072-10.007-4.072 0-4.072-1.978-4.072-5.934v-6.05c0-1.978 2.094-1.978 2.094-1.978a1.98 1.98 0 0 0 1.978-1.979c0-1.978 0-1.978-1.978-3.956-2.094 0-2.094 0-2.094 1.979a1.98 1.98 0 0 1-1.979 1.978c-1.978 0 0-1.978 0-1.978 0-3.956 1.979-6.05 4.073-10.007v-1.978a7.08 7.08 0 0 1-2.159-5.098 7 7 0 0 1 .07-.99l-.005.039a41.1 41.1 0 0 0 2.576-14.46q0-.598-.017-1.19l.001.057v-10.007c.056-1.491.087-3.24.087-4.999a144 144 0 0 0-2.314-25.778l.132.874v-2.095a89 89 0 0 0 .785-11.984 93 93 0 0 0-.838-12.459l.053.474V501.58c0-1.979 0-3.956-1.979-1.979-1.978 0-1.978 0-1.978-1.978v-4.073c-1.979 0-1.979 0-1.979 2.094v1.979a1.98 1.98 0 0 1-1.978 1.978c-2.094 0-2.094-1.978 0-1.978 3.956-1.979 3.956-6.05 3.956-10.007 0-1.978 1.978-6.05 1.978-8.028v-2.443c1.978-3.956 0-8.029 0-11.636v-10.007c1.978-3.955 0-8.028 0-11.635 0-1.978-1.978-1.978 0-3.956v-1.978c-1.978 0-1.978-2.094 0-4.073a7.2 7.2 0 0 0 2.036-5.023 7 7 0 0 0-.062-.948l.004.037c-3.956 0-1.979-1.978-1.979-4.073v-1.978c-1.978-1.979-1.978-1.979 0-1.979v-1.978s0-1.979-1.978 0h-1.979s-1.978-1.979 0-1.979 1.979 0 1.979-1.978 0-2.094-1.979-4.073l-1.978-2.56c1.978-1.978 1.978 1.979 3.956 1.979v-41.54c0-2.093 0-2.093-1.979-2.093a42.7 42.7 0 0 0-8.028-.742 44 44 0 0 0-8.303.785l.274-.045c-1.978 2.095-5.934 0-7.911 0-6.05-1.978-11.635 0-18.034-3.955-1.979 1.978 1.978 1.978 0 3.955H922.51a12 12 0 0 1-1.234.062 12.3 12.3 0 0 1-6.84-2.068l.046.028a16.62 16.62 0 0 0-12.877-6.104 17 17 0 0 0-2.455.18l.091-.01H561.814c-.48-.046-1.038-.07-1.601-.07a18.2 18.2 0 0 0-8.505 2.096l.099-.048a11.54 11.54 0 0 1-6.616 2.064 12 12 0 0 1-1.47-.092l.057.006c-5.934 0-11.635 1.978-17.919 1.978v-1.978c-1.978 0-1.978 1.978-3.956 1.978a49.7 49.7 0 0 1-14.166 2.013q-.998 0-1.986-.038l.094.004h-4.537a42.7 42.7 0 0 0-8.028-.742 44 44 0 0 0-8.303.785l.274-.044c-1.978 0-1.978 2.094-1.978 2.094v39.56c1.978 0 1.978-1.978 4.073-1.978 1.978 1.979-2.095 1.979-2.095 1.979a2.793 2.793 0 0 0 0 3.956 2.095 2.095 0 0 0 2.095 2.095h1.978a1.98 1.98 0 0 1-1.978 1.978h-2.095c0 1.979 0 0 2.095 0s0 1.979 0 1.979a2.64 2.64 0 0 0 0 3.955s1.978 1.979 0 1.979c-2.095 2.094-4.073 4.072-2.095 6.05s4.073 3.955 0 3.955v1.979c2.095 0 2.095 2.094 0 2.094-2.094 0-1.978 1.979-1.978 3.956v8.028a11.54 11.54 0 0 1 2.052 6.6 12 12 0 0 1-.08 1.367l.005-.055v6.05c0 1.978-1.978 3.955 0 3.955 2.095 4.073 0 8.029 0 11.636 0 1.978 2.095 4.072 2.095 8.028a1.98 1.98 0 0 0 1.978 1.979 1.98 1.98 0 0 1 1.979 1.978v1.978h-1.979a1.98 1.98 0 0 0-1.978-1.978c-2.095 0 0 1.978 0 1.978 1.978 2.095 1.978 4.073-2.095 4.073a1.98 1.98 0 0 0-1.978 1.979v33.976a22.7 22.7 0 0 1 .608 5.28 23.2 23.2 0 0 1-2.646 10.789l.06-.128v16.755c0 3.956 1.98 5.934 0 9.89a65.5 65.5 0 0 0-.746 10.007 68 68 0 0 0 .794 10.384l-.047-.377v1.978c-1.979 4.073 0 10.007-1.979 14.079a147 147 0 0 0-2.062 24.886q0 2.645.09 5.271l-.007-.254a213 213 0 0 0-2.06 29.978q0 3.152.088 6.282l-.007-.306v65.974a94 94 0 0 0-.08 3.969 98.6 98.6 0 0 0 2.173 20.645l-.115-.645v15.94c0 4.073-1.979 8.028 1.978 11.635 0 0 1.979 2.095 0 2.095-1.978 0 0 1.978 0 3.955s1.979 5.934 0 8.029v1.978c3.956 5.934 1.979 10.007 1.979 15.94v1.978c1.978 0 1.978 1.979 1.978 4.073 1.978 1.979 1.978 5.934 4.073 9.89v2.094s-2.095 0-2.095 1.979c0 0 2.095 0 2.095 1.978h1.978a1.98 1.98 0 0 1 1.979-1.978v3.955a1.98 1.98 0 0 1-1.979 1.979c-1.978 0-4.073 1.978-4.073 6.05.004.133.006.29.006.448a15.4 15.4 0 0 1-2.025 7.658l.04-.075v1.978a1.98 1.98 0 0 1-1.979-1.978 6.98 6.98 0 0 0-1.978-4.073v-3.956a1.98 1.98 0 0 0-1.979-1.978l-1.978 1.978c0 3.956-2.094 5.934 0 10.007v1.978c-2.094 1.979 1.978 3.956 0 5.935h3.956v2.094c-1.979 1.978-1.979 1.978 1.978 1.978 1.979 0 1.979 1.979 3.956 0 0 0 2.094 0 2.094 1.979v1.978s-2.094 0-2.094 1.979l-1.979 1.978c1.979 2.094 1.979 0 4.073 0 0 2.094 0 2.094-2.094 2.094a1.978 1.978 0 1 0 0 3.957h4.073c0 1.979 0 1.979-1.979 3.956 0 1.978-2.094 0-2.094 0s-1.979-1.978-1.979 0a2.91 2.91 0 0 0 0 4.073c1.979 0 1.979 0 0 1.978 1.979 1.979 1.979 3.956 4.073 5.934v1.979h-2.094s-1.979-1.979-1.979 0v4.072h-1.978s0-1.978-1.978 0a6.84 6.84 0 0 0-1.974 3.92l-.004.036s0 1.979 1.978 0c3.956-1.978 1.979 1.979 3.956 1.979 0 2.094-1.978 2.094-1.978 0h-3.96a1.98 1.98 0 0 0-1.978 1.978q0 .06.004.122v-.006c1.978 1.978 1.978 3.955 3.956 5.934 3.955 1.978 3.955 6.05 3.955 10.007v3.955a55 55 0 0 1 2.056 15.065q0 1.567-.084 3.114l.006-.143c0 1.978 2.094 1.978 4.072 1.978v-1.978s-1.978-1.979 0-1.979h3.956a1.98 1.98 0 0 0 1.978 1.979v1.978h-3.955c0 1.979 0 3.956-3.956 3.956 0 0-2.094 0-2.094 1.978a7 7 0 0 1 .953-.064 7.07 7.07 0 0 1 5.094 2.157l.002.002v1.979h-3.955c-2.095 0-4.073 0-2.095 3.955 0 1.979 2.095 3.956-1.978 3.956-1.979 0-1.979 6.05 0 6.05 4.073 0 4.073 3.956 4.073 6.05 1.978 0 0-2.094 1.978-2.094h1.978c0 2.094 0 2.094-1.978 4.073 0 1.978-1.978 0-1.978 0a15.58 15.58 0 0 1-7.99-7.93l-.039-.099c-1.978-1.978-3.956-3.956-3.956-6.05s-2.094-3.956-4.072-5.934l-5.934-6.05a20.15 20.15 0 0 0-8.17-9.49l-.09-.051v-2.094c0-3.956-1.979-7.912-1.979-13.963 0-1.978 0-3.956-1.978-3.956v8.029l1.978 1.978a1.978 1.978 0 0 1-3.957 0c0-1.978-2.094-4.072-4.073-1.978h-1.63a6.98 6.98 0 0 0-1.978-4.073s-1.978-3.956 1.979-1.978a1.98 1.98 0 0 0 1.978-1.979c0-3.955-3.956-6.05-8.028-3.955-1.979 1.978-1.979 0-3.956 0-1.978-2.095-1.978-4.073-3.956-6.05-1.978-3.956-6.05-5.935-6.05-10.007 0-1.979-1.978-1.979-3.955-1.979s-3.956 0-1.979-3.955a5 5 0 0 1-.75.052 5.353 5.353 0 0 1-5.353-5.353 5 5 0 0 1 .057-.78l-.004.03c0-1.979-1.979-1.979-1.979-3.956-1.978-1.979-3.955-4.073-3.955-6.05-1.979 0-4.073-1.979-6.05-1.979a10.95 10.95 0 0 1-5.938-9.727q0-.147.004-.293v.015c0-1.979 0-3.956-1.978-1.979-2.095 0-2.095 0-4.073-1.978 0-1.979-1.979-3.956-3.956-6.05a3.84 3.84 0 0 0-6.044-.007l-.006.008c0 2.094-1.978 2.094-1.978 0s-1.979-1.979 0-3.956l3.955-3.956s2.095-1.978 0-1.978c0 0-1.978-2.094-1.978 0-1.978 3.956-5.934 1.978-10.007 1.978-1.978 0-3.956 0-3.956 3.956 0 1.979-1.978 1.979-3.955 0l-8.029-8.028a3.723 3.723 0 0 0-5.928 2.069l-.005.025v.004a1.98 1.98 0 0 1-1.978 1.978q-.061 0-.122-.004h.006s-1.979 1.979 0 1.979h2.094s0-1.979 1.979 0v1.513c-1.979 1.978-1.979 1.978-4.073 1.978a7.2 7.2 0 0 1-2.036-5.023 7 7 0 0 1 .062-.948l-.004.037s1.979-1.979 0-1.979c0-2.094 1.979-6.05 0-8.028 0 0 0-4.073 1.979-4.073 1.978 0 2.094-1.978 2.094-3.955s-2.094-1.979-4.073-3.956h-1.978c0-1.978-1.979-4.073 0-6.05s1.978-1.978 0-3.956c-1.979 0-3.956-1.978 0-3.955v-2.095a7 7 0 0 0 .057-.91 7.2 7.2 0 0 0-2.038-5.025l.002.002a70.3 70.3 0 0 1-6.05-27.877v-.047s2.094-4.073-1.978-2.094c-1.979 0-1.979 0 0-1.979 1.978-1.978 0-3.955 1.978-5.934 0-2.094 0-4.072-1.978-4.072-1.979 0-1.979-1.979 0-3.956 1.978 0 1.978-1.979 4.072 0 2.095 1.978 1.979 1.978 1.979 0v-15.476a1.98 1.98 0 0 0-1.979 1.979s-2.094 1.978-2.094 0v-1.979l4.073-4.072c1.978-1.979 1.978-1.979 0-3.956a1.98 1.98 0 0 0-1.979-1.978c-2.094 0-4.072-4.073-4.072-6.05s1.978-3.956 1.978-5.934a130 130 0 0 1-1.978-21.941v-.052c-3.956-4.072 0-6.05 0-10.006a88 88 0 0 1 2.117-10.626l-.14.619c0-1.979 0-1.979 2.094-1.979 3.956 0 5.934-1.978 3.956-3.955.048-.495.075-1.07.075-1.648a17.96 17.96 0 0 0-2.1-8.456l.046.098v-4.073s1.979-1.978 0-1.978h-4.072a11 11 0 0 0 .075-1.312 11.6 11.6 0 0 0-2.078-6.638l.025.038a75.4 75.4 0 0 1-2.908-20.982 78 78 0 0 1 .498-8.809l-.034.353v-10.006a53 53 0 0 0 .742-8.96 55 55 0 0 0-.788-9.282l.045.322a83 83 0 0 1 2.111-10.59l-.134.584h1.979c2.094 0 2.094 0 2.094-1.978 0 0 1.979-2.094 0-2.094a2.095 2.095 0 0 0-2.094 2.094s-1.979 1.978-1.979 0v-6.631c0-1.979 1.979-3.956 4.073-1.979h1.979v-4.073h-1.979a2.79 2.79 0 0 1-4.07.001h-.001c0-1.979-1.979-1.979 0-3.956v-1.63c-1.979-8.028 0-13.963-1.979-21.991v-1.978h1.979s1.978 1.978 1.978 0v-1.979a1.98 1.98 0 0 0-1.978-1.978c-1.979 0 0-2.095 0-2.095l1.978-1.978s0-1.978-1.978 0a1.98 1.98 0 0 0-1.979 1.978v-7.911c0-1.978 1.979-4.073 3.956-1.978h2.094v-2.095c0-1.978-2.094-1.978-2.094-1.978-1.978 0-1.978 0-1.978-1.979v-16.29c0-2.094 0-4.072 4.072-4.072a1.978 1.978 0 1 0 0-3.957s-2.094 0-2.094-1.978l2.094-1.979a7.65 7.65 0 0 0 2.027-5.196 8 8 0 0 0-.052-.89l.004.036c0-1.978 0-1.978-1.978-1.978 0 0-2.094 0 0-1.979v-4.072c1.978 0 0 2.094 1.978 2.094v-10.007c-4.072 1.979-1.978-1.978-1.978-1.978 0-4.073-2.094-6.05 0-10.007a12.81 12.81 0 0 0-.034-11.706l.034.07a4.31 4.31 0 0 1 3.941-4.071l.016-.001c-1.979-1.979-1.979-3.956-3.956-5.934v-1.979a3.84 3.84 0 0 0 .007-6.044l-.008-.006a31.9 31.9 0 0 1-2.174-11.682q0-1.203.087-2.387l-.006.105v-26.296a158 158 0 0 0 .788-15.998 165 165 0 0 0-.844-16.689l.057.69v-10.008c0-1.978-1.978-3.955 0-8.028v-1.979c-3.956-1.978-1.978-3.955-1.978-5.934v-6.05a7 7 0 0 1-.058-.91 7.2 7.2 0 0 1 2.038-5.025l-.002.002c2.095-1.978 4.073-4.072 2.095-6.05v-13.496c0-1.979 0-1.979-2.095-1.979l-3.955-4.537v-3.955c3.955-1.979 3.955-5.935 3.955-10.007v-11.64a1.98 1.98 0 0 1 1.979-1.978q.06 0 .122.004h-.006c3.955 0 0-1.978 0-1.978-2.095 0-2.095-8.029 0-8.029h1.978a7.2 7.2 0 0 1-2.036-5.023 7 7 0 0 1 .062-.948l-.004.037v-54.686c0-1.978 0-1.978 1.979-1.978h3.956c1.978 0 3.955-1.979 1.978-6.05 0-1.979 0-3.956 1.979-3.956h100.414a42 42 0 0 0 2.66.081 43.8 43.8 0 0 0 13.592-2.147l-.31.088h21.99c8.029 0 16.057-1.979 23.97-1.979a7 7 0 0 0 .91.058 7.2 7.2 0 0 0 5.138-2.152l.001-.001a2.793 2.793 0 0 1 3.957 0c1.979 0 0 2.094 0 4.073 6.05-1.979 13.963 1.978 20.013-1.979h1.978c1.979 1.979 3.956 0 8.029 0 1.978 0 0-4.073 1.978-2.094 1.979 0 0 2.094 1.979 2.094h40.026a2.095 2.095 0 0 1-2.094-2.094c0-1.979 2.094 0 2.094 0 1.978 0 1.978-1.979 3.956-1.979h1.395v1.979c-1.978 4.073-1.978 4.073 1.979 4.073 6.05 0 10.007 1.978 16.057-1.979h1.978c1.978 0 1.978 1.979 3.956 0 0-2.094 1.978 1.979 1.978 0 0 0 0-2.094 1.979-2.094h2.094c1.978 2.094 5.934 4.073 7.911 2.094h212.348c3.956 0 5.934 1.979 7.912-2.094 1.978 4.073 6.05 2.094 8.028 2.094h79.935c1.979 0 1.979 0 1.979-2.094s1.978-1.979 3.956-1.979a1.98 1.98 0 0 1 1.978 1.979v2.094c2.094 0 6.05-2.094 8.028 0s6.05 0 10.007 1.979h145.91c1.978 0 3.955 3.955 3.955 5.934-1.978 4.073 0 4.073 1.979 4.073 1.978 0 1.978 1.978 1.978 3.955v63.996c0 1.978-1.978 3.956-1.978 5.934s3.955 1.978 1.978 3.956v10.007c0 1.978 1.979 6.05 1.979 8.028v.004a1.98 1.98 0 0 0 1.978 1.978q.06 0 .122-.004h-.01c3.955 0 3.955 3.956 1.978 3.956-4.073 4.073-1.978 8.028-1.978 11.636v8.028a7.44 7.44 0 0 0 1.98 4.075l1.975 1.975v-4.073c0-1.978 0-1.978 1.979-3.956h3.956c4.072 1.979 6.05 6.05 10.006 10.007l1.979 1.979c2.094 1.978 2.094 1.978 4.073 0 0-1.979 1.978-1.979 3.955 0 1.978 1.978 1.979 1.978 0 3.955-1.978 1.978-1.978 2.095 0 4.073 1.979 1.979 1.979 0 3.956 0l2.094-1.978c0-2.095 1.979-2.095 3.956 0 1.977 2.094 0 1.978 0 1.978-1.978 1.979 0 1.979 0 3.956 0 0 1.978 1.978 0 1.978h-1.978a41.7 41.7 0 0 0-10.079 6.109l.073-.057zm-24.55 143.815c-1.98 1.978-1.98 0-1.98-1.978a1.98 1.98 0 0 1 1.98-1.979c1.978 0 0 1.979 0 3.956zm3.955 175.812c-1.979 1.978 0 6.05-1.979 8.028a1.98 1.98 0 0 1-1.978 1.979c-1.978 0-1.978-1.979-1.978-3.956s0-1.978 1.978-4.073c1.978-2.094 3.956 0 3.956-1.978zm-801.218 4.071c2.094-2.094 2.094 0 2.094 0a6.86 6.86 0 0 0 1.977 3.955h.001c0 1.98 0 1.98-1.978 1.98-1.979 0-2.094 0-2.094-1.98zm-1.979-345.688c1.979-1.978 1.979 0 1.979 0a1.98 1.98 0 0 1-1.979 1.978zm114.028-167.9a1.98 1.98 0 0 1 1.978-1.979h6.05c-1.978 0-1.978 1.979-4.072 1.979a2.676 2.676 0 0 1-3.955.002zm139.625 28.04c1.979 0 3.956-1.978 6.05-1.978h1.979c-4.073 1.978-6.05 3.956-8.029 1.978m22.108 1.979c1.979-1.978 1.979-1.978 3.956-1.978h1.978v1.978c-1.978-1.979-1.978 0-5.934 0m561.412 679.28a2.676 2.676 0 0 1-3.954.001l-1.98-1.98c-2.094 0-2.094 0-2.094-1.978s2.094 0 2.094 0h1.978c1.979 0 1.979-1.978 3.956 0s0 1.978 0 3.956zm11.635-533.37v-.118a1.98 1.98 0 0 1 1.979-1.978c2.094 0 2.094 0 2.094 2.094a1.925 1.925 0 0 1-2.094 1.979 1.98 1.98 0 0 1-1.978-1.979zm159.871 101.81v4.073c1.979 1.978 0 3.955 0 5.934 0 1.978 1.979 3.956 0 6.05 1.979 3.956-1.978 5.934-1.978 10.007 0 1.978-1.978 3.955-4.073 1.978-1.978 0-1.978 0-1.978 1.979v39.909a1.98 1.98 0 0 0 1.978 1.978q.053.003.117.004a1.98 1.98 0 0 0 1.979-1.978v-.004a7 7 0 0 1-.057-.911 7.2 7.2 0 0 1 2.038-5.025v.002a1.98 1.98 0 0 1 1.978-1.978c1.979 0 0 1.978 0 1.978v2.443a5.586 5.586 0 0 1-3.373 10.038 5 5 0 0 1-.609-.033l.025.002c1.979 1.978 1.979 1.978 3.956 0-1.978 1.978-1.978 5.934-6.05 3.956-1.978 0-1.978 0-1.978 1.978 0 0 1.978 2.094 0 2.094a10.02 10.02 0 0 0-1.957 9.96l-.022-.069v16.057a11 11 0 0 0-.075 1.312 11.6 11.6 0 0 0 2.077 6.638l-.025-.039c0 2.095 1.979 4.073 0 6.05a1.98 1.98 0 0 0 1.979 1.979c2.094 0 2.094 1.978 0 1.978-3.956 4.073-1.979 10.007-1.979 16.057 0 1.979 0 1.979 1.979 1.979s4.072 1.978 2.094 5.934c-2.094 8.028-8.028 11.635-11.636 20.012l-2.094 1.979c0 1.978 0 1.978 2.094 1.978s1.979-1.978 3.956 0c0 2.094 0 4.073-1.978 4.073h-1.979c0 1.978 1.979 0 1.979 1.978 1.978 0 3.955 0 3.955 1.979 0 1.978-1.978 3.955-3.955 1.978 0 4.073-4.073 6.05-6.05 8.029-1.978 1.978-3.956 5.934-7.912 10.006-2.094 1.979-2.094 1.979-4.072 0q-3.026-6.167-5.935 0l-6.05 5.935c-1.978 1.978-1.978 1.978-3.955 0h-1.979c-2.094 4.072-6.05 4.072-8.028 6.05-1.978 0-1.978 1.978-3.956 3.955v1.979h1.979c1.978-1.979 3.955-1.979 5.934-3.956h1.978v1.978c-1.978 1.979-3.955 6.05-7.911 8.029 0 0-1.979 1.978-1.979 0v-3.956s-2.094 0-2.094 1.979v3.025c0 1.979 0 1.979-1.978 3.956-1.979 1.977-3.956 6.05-10.007 4.073v1.978c0 1.978 0 1.978-1.979 1.978a1.98 1.98 0 0 0-1.978 1.979 1.98 1.98 0 0 1-1.978 1.978c-1.979 0 0-1.978 0-1.978s0-1.979-1.979 0c-1.978 1.978-4.073 0-4.073 1.978s-1.978 2.095-1.978 4.073c-3.956 1.978-5.934 5.934-10.007 10.007-1.978 1.978-3.956 3.956-5.934 3.956s-1.978 0-1.978 1.978l-11.636 18.034a74.3 74.3 0 0 0-7.837 13.486l-.191.477h-1.979a1.98 1.98 0 0 0-1.978-1.979s-2.094 1.979 0 1.979c0 1.978 0 1.978-2.094 3.955-3.956 1.979-1.979 8.029-5.935 10.007-1.978 1.979-1.978 3.956-3.955 3.956l-2.095 2.094a4.31 4.31 0 0 1-3.941 3.955h-.015a1.98 1.98 0 0 1-1.978 1.98c0 1.978 0 1.978-1.979 3.955 0 0 0 2.094-1.978 2.094a2.095 2.095 0 0 1-2.095-2.094c0-1.979 0-1.979 2.095-1.979 1.978-1.978 1.978-1.978 1.978-3.955-1.978-3.956-1.978-8.029-4.073-10.007v-1.979a10.12 10.12 0 0 0 4.073-8.023v-.005c0-3.956 1.979-7.912 1.979-13.963v-1.978a28.2 28.2 0 0 0 3.943-11.503l.012-.133c0-1.978 1.979-1.978 1.979-4.072s2.094-1.979 0-3.956c-1.979 0-1.979-1.979-1.979-3.956V685.42c-.088-.985-.14-2.13-.14-3.287a38.8 38.8 0 0 1 2.201-12.925l-.084.272c2.094-10.007 2.094-18.034 4.073-28.042V599.55c.05-1.276.079-2.777.079-4.282a117 117 0 0 0-2.177-22.518l.12.736c0-3.956-2.093-5.935-2.093-10.007 0-5.934-1.979-9.89-1.979-13.963v-1.978a6.17 6.17 0 0 0-.01-8.037l.01.008v-1.978c1.979-1.979 0-5.935 1.979-10.007-3.956-1.979 0-5.934 0-7.912v-11.634c-1.979 0-1.979-2.094-1.979-4.072s0-1.979 1.979-1.979a3.607 3.607 0 0 0 .012-5.926l-.012-.008c-1.979-2.094-3.956-4.072 0-6.05v-16.29a7 7 0 0 0 .058-.933 7.42 7.42 0 0 0-2.04-5.12v.004-13.73c1.979-1.978 0-3.955 0-6.05v-7.911a80 80 0 0 0 1.924-9.533l.056-.473a8 8 0 0 0 .048-.853 7.65 7.65 0 0 0-2.031-5.203l.01.005V412.22a6.05 6.05 0 0 1 .01-7.92l-.01.008v-1.978a3.84 3.84 0 0 1-.01-6.044l.01-.006a29.3 29.3 0 0 0 2.122-11.041 30 30 0 0 0-.154-3.047l.01.125c-1.979-11.635 0-21.99-1.979-33.976v-46.542c0-3.956-1.978-8.028-1.978-11.635v-1.979c-3.956 0-1.979-1.978-1.979-4.072a42.8 42.8 0 0 0 1.468-11.251 45 45 0 0 0-.325-5.366l.022.211c0-3.956-1.979-8.028-1.979-11.635v-8.029c0-1.978-1.978-3.955 0-5.934v-1.978c0-2.095-1.978-4.073 0-6.05 1.979-1.978-3.955-3.956-1.978-5.934s0-4.073 1.978-6.05c0-1.979 0-1.979-3.955-1.979a10.25 10.25 0 0 0 2.422-10.659l.022.072V162.99c0-1.979 0-3.956-4.072-3.956-4.073 0-5.935-1.979-10.007-1.979-7.912 0-13.963-4.072-19.897-4.072s-10.007-3.956-13.963-3.956c-2.094 0-4.072-1.978-2.094 1.978 0 1.979 0 1.979-1.978 0a102.3 102.3 0 0 1-24.693-4.14l.723.185c-3.955-1.979-10.006 0-13.962 0H906.926c-28.042-1.979-55.966 0-84.008 0H774.98c-.478.032-1.038.05-1.603.05a25.7 25.7 0 0 1-10.2-2.093l.168.064a6.96 6.96 0 0 0-5.041-2.151 7 7 0 0 0-.928.06l.036-.003h-58.177a7 7 0 0 0-.91-.058 7.2 7.2 0 0 0-5.14 2.152v.001c4.073 7.911 1.978 7.911-1.979 7.911H497.242c-5.934 0-11.635 1.979-17.92 1.979H339.698a31 31 0 0 0-2.28-.081 32.4 32.4 0 0 0-11.902 2.25l.22-.076a96 96 0 0 1-20.04 2.056q-2.074 0-4.126-.085l.195.006h-16.29c1.98 3.956-1.978 3.956-3.955 5.934-1.978 0-3.956 1.979-1.978 4.073v51.893c0 1.979 1.978 3.956 1.978 6.05-1.978 0-1.978 0-1.978 1.979s-1.979 3.955 1.978 5.934v1.978c-1.978 0-1.978 0-1.978 2.095v23.969c1.978 5.934-1.979 10.007 0 15.94 0 3.955 1.978 8.028 1.978 11.635v1.979c-3.956 0-1.978 1.978-1.978 4.072 0 5.935-1.979 11.636-1.979 17.92v31.998c.055 1.283.086 2.789.086 4.302a109 109 0 0 1-2.303 22.351l.123-.706v3.956c0 4.073-1.979 8.029 0 11.636a24 24 0 0 0-.049 1.553 24.7 24.7 0 0 0 2.206 10.237l-.063-.155c1.979 1.979 0 3.956 0 5.934 0 0-2.094 1.979 0 1.979a6.17 6.17 0 0 1-.007 8.036l.007-.008c0 1.979-2.094 3.956 0 5.935s0 4.072 0 6.05a50 50 0 0 0-.784 8.96 52 52 0 0 0 .83 9.273l-.047-.315v21.99a62 62 0 0 0-.79 10.008 64 64 0 0 0 .84 10.374l-.05-.369v13.963c0 1.978 1.978 4.073 0 6.05-1.979 1.977 0 5.934 0 7.911s-2.094 6.05 1.978 8.029v1.978c-4.072 0-1.978 2.094-1.978 2.094v3.956c0 1.978 0 3.956 3.956 1.978h3.955v1.979c-1.978 1.978-1.978 4.073-3.955 1.978-1.979 0-1.979 2.095-1.979 4.073s0 3.956 1.979 3.956 1.978 0 1.978-1.979 1.978-1.978 3.956 0v1.979c-1.979 0-1.979 3.955-5.934 3.955-10.007 0-10.007 2.095-10.007 2.095 0 1.978-1.979 5.934-1.979 7.911v6.05a42 42 0 0 0-.741 7.971 43.4 43.4 0 0 0 .785 8.241l-.044-.272v31.998c0 1.978 1.979 3.955 1.979 5.934 0 4.073 1.978 8.028 0 11.635v16.057c-1.979 5.934 0 11.636-1.979 17.92a7.34 7.34 0 0 0 1.981 6.052l-.002-.002v11.635c0 8.029 1.979 15.94 1.979 25.948v6.05c0 1.979 0 1.979-1.979 1.979-1.978 0-1.978 1.978 0 3.955 1.979 1.978 1.979 6.05 3.956 8.029a158 158 0 0 0 6.464 16.97l-.413-1.03c1.978 1.98 0 6.05 0 8.03-1.978 8.028-1.978 13.962-3.956 21.99 0 1.979 0 1.979 1.979 1.979 1.978 0 3.955 0 1.978 3.955v10.821h-1.978c-1.979 0-1.979-1.978-1.979-3.955-2.094-4.073-2.094-6.05-4.072-10.007 0-1.979-3.956-1.979-5.935-4.073a33.6 33.6 0 0 1-8.175-9.72l-.087-.17-1.979-2.095a1.98 1.98 0 0 1-1.978-1.979c0-1.978-1.978-5.934-1.978-7.911v-2.094c1.978-1.979 0-3.956-2.095-5.934-2.094-1.979-3.955-3.956-5.934-3.956-1.978 0-1.978-2.094-1.978-2.094-2.095-1.979-4.073-1.979-8.029-1.979h-1.744a7.19 7.19 0 0 1-2.036-5.023 7 7 0 0 1 .062-.948l-.004.037c-2.094-4.073-6.05-6.05-8.028-10.007 0-1.978-1.979-1.978-3.956-1.978a2.095 2.095 0 0 1-2.094-2.095 1.98 1.98 0 0 0-1.979-1.978c-1.978 0-3.955-1.978-3.955-5.934 0-1.979 0-6.05-3.956-6.05 0 0-2.094 0-2.094-1.979 0-3.955-3.956-5.934-7.912-8.028-1.978 0 0-1.978 0-1.978v-1.979h-1.978s-2.094 1.979-2.094 0v-12.45s-1.979-1.978-1.979 0c-1.978 0 0 1.979 0 1.979v1.978c-1.978 0-1.978 0-1.978-1.978-1.979-1.979-1.979-5.934-6.05-7.912 0 0-1.979-2.094 0-2.094 0 0 2.094-1.978 2.094 0 1.979 2.094 3.956 2.094 5.934 4.073h1.979v-1.979q.004-.053.004-.117a1.98 1.98 0 0 0-1.979-1.978h-.004a10.34 10.34 0 0 0-7.856-3.608q-.092 0-.182.002h.01c-1.978-3.956-3.955-1.979-5.934 0 0 0-1.978 1.978-1.978 0-1.979-1.979-1.979-1.979-4.073 0-2.094 1.978-3.956 1.978-3.956 0a1.98 1.98 0 0 0-1.382-1.858l-.015-.004-2.56 1.861c0 1.979-1.978 3.956-1.978 6.05a2.095 2.095 0 0 1-2.094-2.094c0-1.978 0-1.978-3.956-3.956-1.978 0-1.978-1.978 0-3.955a1.98 1.98 0 0 0 1.978 1.978v-4.073a9.21 9.21 0 0 0-8.506-5.708 9.4 9.4 0 0 0-1.554.13l.055-.008c2.094 0 2.094-1.978 4.072-1.978v-1.979c0-2.094-1.978 0-1.978 0h-2.094v-2.094c0-1.979 0-1.979-1.979-3.956-1.978-1.977-5.934-1.978-7.911-5.934 0-2.094 0-4.073 1.978-4.073h3.956a1.978 1.978 0 1 0 0-3.957c-1.978 0-1.978 0-1.978-1.978 0 0-1.979-1.978 0-1.978h1.978c1.979 0 3.956 0 3.956-2.095 0-2.094-1.979-3.955 2.094-3.955-2.094-1.979 0-3.956 1.978-5.935 1.979-1.978 1.979-2.094 3.956 0 0 0 1.979 1.979 1.979 0 0-1.978 0-2.094-1.979-2.094a1.98 1.98 0 0 1-1.978-1.978c0-1.979-1.979-1.979-1.979 0-1.978 1.978-1.978 0-4.072 0 0 0 2.094 0 2.094-1.979 1.978 0 1.978-1.978 0-1.978-2.094-1.979-2.094-3.956 0-3.956 0 0 1.978-2.094 0-2.094h-2.094c-1.979 2.094-3.956 4.073-5.935 4.073v-1.979s1.979-2.094 0-2.094h-.004a1.98 1.98 0 0 0-1.978 1.978q0 .061.004.122v-.006a1.98 1.98 0 0 1-1.978 1.979c-2.095 0 0-1.979-2.095-1.979 0-2.094-1.978-2.094-1.978-4.073 0-1.978 0-1.978 1.978-1.978 1.979 0 2.095-1.979 0-1.979-3.955-1.978-1.978-4.072-3.955-6.05l1.978-1.978s1.978-1.978 0-1.978a2 2 0 0 0 .018-.268 1.977 1.977 0 0 0-2.358-1.941l.013-.002c-3.956 1.978-3.956 0-5.934-1.979v-2.094h4.305c1.979 0 5.934 4.073 8.029-1.978a6.17 6.17 0 0 0 3.952-1.973l.004-.005c-1.979 0-3.956 0-3.956 1.979a7 7 0 0 1-1.274.11 7.3 7.3 0 0 1-5.126-2.09h.001c-1.978-1.978-1.978-1.978-3.955-1.978 1.978-3.955 0-8.028 1.978-11.635v-22.574c0-1.978-1.978-3.955 0-5.934 0 0-1.978-2.094-1.978 0-4.073 0-4.073-2.094-4.073-4.072h4.421c-6.05-1.63-6.05-5.702-4.072-9.774v-3.492a6.96 6.96 0 0 1 2.151 5.041 7 7 0 0 1-.06.928l.003-.036v2.095l1.979 1.978v-44.913c0-1.979 0-1.979-1.979-1.979-1.978 0-2.094 0-2.094-1.978 0-1.979 0-4.073 2.094-4.073a1.98 1.98 0 0 0 1.979-1.978c0-1.979 0-1.979-1.979-1.979-1.978 0-2.094 0-2.094-1.978v-13.962c0-4.073 2.094-6.05 0-10.007v-1.979c4.073 0 2.094-2.094 2.094-2.094 0-3.956-2.094-7.911 0-11.636v-1.978c0-1.978-2.094-1.978 0-3.956 1.979 0 0-1.978 0-1.978-2.094-1.979-4.072-4.073 0-4.073 1.979 0 0-1.978 0-1.978a6.74 6.74 0 0 1-2.09-3.918l-.004-.038v-1.978c2.094 0 2.094-1.979 4.072-4.073v-1.979c-1.978 0-1.978-1.978 0-3.955 1.979-1.977 0-4.073 1.979-4.073a1.98 1.98 0 0 0-1.978-1.978c-1.979 0-1.979-1.979 0-1.979 0 0 1.978-1.978 0-1.978-4.073-3.956 0-8.029-4.073-11.636v-4.188s2.094-2.095 0-2.095c-1.979-1.978 0-1.978 0-1.978 2.094 0 2.094-1.978 0-3.956v-1.978c2.094-1.979 0-4.073 0-8.029a1.98 1.98 0 0 0-1.979 1.979h-1.978a4.31 4.31 0 0 1 3.941-3.955h.016c2.094 0 2.094 0 2.094-1.979v-6.05h-2.094c-1.979 0 0 1.978 0 1.978-3.956 0-3.956-4.188-3.956-5.934v-11.635c0-1.979 0-4.073 3.956-1.979 2.094 1.979 4.073-2.094 2.094-2.094V281.77h-4.073v-2.443a1.98 1.98 0 0 0 1.979-1.978c2.094-1.978 2.094-1.978 0-3.956 0 0-1.979 0 0-2.094 0-1.978 0-3.956 2.094-3.956s1.979-1.978 1.979-3.955 0-4.073-4.073-6.05v-1.28c4.073-1.979 2.094-3.956 2.094-6.05a40.7 40.7 0 0 1-2.18-13.279q0-1.404.092-2.786l-.007.125v-20.246a76 76 0 0 1-.083-3.6 79 79 0 0 1 2.29-18.931l-.112.54v-37.932c0-1.978 0-3.955 1.979-3.955 1.978 0 1.978 0 0-1.979v-1.978s-1.979-2.094 0-2.094c1.978 0 1.978 0 1.978 2.094a1.98 1.98 0 0 0 1.979 1.978h-.35v-1.978a29.8 29.8 0 0 1-3.786-14.627 30 30 0 0 1 .193-3.43l-.013.137v-1.978c-1.979-4.073 0-8.028 0-11.635V91.996c0-1.979 1.978-1.979 0-3.956v-2.094c3.607-1.978 1.978-1.978 0-4.421s0-3.956 0-5.935 3.956 0 1.978-2.094c0-1.513-1.978-1.513-1.978-3.607a1.98 1.98 0 0 1 1.978-1.978 1.98 1.98 0 0 1-1.978-1.979c0-2.094 0-2.094 1.978-2.094 1.979 0 1.63.117 1.63-1.861 0-1.979 0 0-1.978 0a1.98 1.98 0 0 1-1.98-1.979V24.045c0-3.956 0-3.956 3.956-3.956 1.978 0 1.978-1.979 1.978-4.073 0 2.094 1.979 2.094 4.073 0 6.284-1.978 10.24-4.305 16.29-5.934h5.934c.683.048 1.48.075 2.284.075a34.8 34.8 0 0 0 12.035-2.13l-.242.078c3.956-1.979 7.911 0 11.636 0a41.6 41.6 0 0 0 7.911.737 43 43 0 0 0 8.181-.781l-.268.044h1.978c4.073 3.956 8.028 1.978 11.635 0A49.1 49.1 0 0 0 229.605 0l-.099.075h557.455c2.094 0 4.073 1.979 6.05 1.979 5.679.471 12.291.741 18.966.741s13.286-.269 19.826-.797l-.861.056a42.7 42.7 0 0 1 8.028-.742 44 44 0 0 1 8.303.785L847 2.052c3.955 0 5.934 1.979 9.89 0h55.966a94 94 0 0 1 11.984-.741 98 98 0 0 1 12.467.793l-.483-.052h71.907c10.007 0 18.5-1.978 28.042-1.978h191.753a37.7 37.7 0 0 1 14.29 4.056l-.212-.1h3.956a105.7 105.7 0 0 0 21.645 2.181q2.269 0 4.518-.093l-.215.007h20.012a21.3 21.3 0 0 0 9.082 1.998q.487 0 .97-.022l-.046.003h11.636c1.978 0 3.955 3.955 3.955 7.911v38.048c0 1.978 0 3.956-1.978 1.978h-1.978a1.98 1.98 0 0 0 1.978 1.979c1.978 0 3.956-1.979 3.956 1.978a8 8 0 0 1 .048.854 7.65 7.65 0 0 1-2.031 5.202v-.005c-1.979 1.979-1.979 1.979 0 1.979 1.978 0 1.978 5.934 0 5.934-1.979 2.094-3.956 4.073 0 4.073 0 0 1.978 1.978 0 1.978-1.979 0-1.979 1.979 0 1.979 1.978 0 1.978 1.978 1.978 3.955v8.029a21.7 21.7 0 0 0-1.486 7.97 22 22 0 0 0 1.539 8.121l-.051-.15v2.095c-1.979 3.956 0 9.89-1.979 13.963 0 1.978-1.978 3.955-1.978 5.934 0 0 0 2.094-1.979 2.094l-1.978 1.978v1.979h1.978v-1.979a1.98 1.98 0 0 1 1.979-1.978c1.978 0 0 1.978 0 1.978-1.979 1.979-1.979 3.956 1.978 3.956a1.98 1.98 0 0 1 1.979 1.979v40.026c1.978 5.934 0 9.89 1.978 15.94a89 89 0 0 1 .786 11.984 93 93 0 0 1-.838 12.46l.053-.475c.049.684.076 1.482.076 2.285a34.2 34.2 0 0 1-2.132 11.914l.076-.238c-1.978 1.979-3.955 4.073 1.979 6.05 2.094 0 0 1.979 0 1.979 8.028 17.92 8.028 20.012 8.028 25.948 1.979 0 0-1.979 1.979-1.979 1.978 0 1.978 1.979 1.978 3.956 0 0 0 2.094-1.978 0-1.979-2.094-1.979 0-1.979 2.094 0 3.956-1.978 9.89 0 13.963v1.978a12.81 12.81 0 0 0 .033 11.706l-.033-.07v1.978a42 42 0 0 0-.741 7.971 43.4 43.4 0 0 0 .785 8.241l-.044-.272c0 2.094 1.979 2.094 3.956 2.094 2.094-2.094 2.094 0 4.073 1.979v15.94c0 1.978-1.979 1.978-4.073 1.978v-1.979c0-1.978 0-1.978-1.979-1.978a1.98 1.98 0 0 0-1.978 1.978v6.05c0 1.979 0 1.979 1.978 0 1.979 0 6.05 1.979 6.05 3.956s0 1.979-1.978 0l-2.094-1.978c-1.979 1.978-1.979 3.955 0 8.028v1.978s-1.979 1.979 0 1.979c2.094 1.978 2.094 0 4.072 0h1.979c0 3.956 1.978 8.028-1.979 11.635a2.793 2.793 0 0 0 0 3.957c0 1.979 0 1.979-1.978 1.979a2.095 2.095 0 0 0-2.094 2.094v1.978c2.094 0 2.094 0 2.094-1.978 0 0 0-2.094 1.978-2.094 1.979 0 0 2.094 0 2.094v1.978c0 1.979 1.979 5.935-4.072 1.979a1.98 1.98 0 0 0-1.979 1.978c0 1.979 1.979 6.05 4.073 6.05-2.094 1.979-2.094 3.956-4.073 3.956-1.978 1.978 0 1.978 0 3.956s0 2.094 1.979 2.094h2.094c0 1.978 0 1.978-2.094 1.978h-1.979l-1.978 1.979c0 1.978 1.978 0 1.978 0 1.979 0 4.073 3.956 4.073 5.934v16.057a36.05 36.05 0 0 1 3.98 16.583q0 .704-.027 1.402v-.067zM143.642 605.13c0 1.978 3.956 1.978 1.979 6.05a2.793 2.793 0 0 1-3.957 0c-1.978-4.073 0-6.05 1.978-6.05m1190.774-325.793c-3.956 0-3.956 0-3.956-1.978 1.979 0 3.956 0 3.956 1.978" style="stroke-width:1.19399"/>
</svg>
