<svg xmlns="http://www.w3.org/2000/svg" width="1686" height="960">
    <path d="M120.985 923.415c-7.025 10.536 17.56 21.073 30.731 13.17 4.39-2.634 8.78-8.78 8.78-14.048 0-10.537-32.487-10.537-39.511.878m1365.366-53.561c0 11.414 32.487 21.073 44.78 13.17 7.024-3.512 6.146-7.902-1.756-13.17-16.683-10.537-43.024-9.659-43.024 0M156.107 80.488c-6.147 9.658 36.878 22.83 46.536 14.049 6.147-7.025-14.927-22.83-30.731-22.83-5.269 0-13.171 3.513-15.805 8.78m1380.292-56.195c-12.292 12.292-6.146 21.95 11.415 19.317 10.537-1.756 18.439-7.025 18.439-11.415 0-10.536-21.073-15.805-29.854-7.902M779.521 444.878c-30.731 28.098-31.61 30.732-18.439 49.17C801.472 552 862.936 560.78 911.23 515.123c30.731-28.098 31.61-30.732 18.439-49.17C889.278 408 827.814 399.22 779.52 444.877m-381.95-495.22c0 5.269 7.901 11.415 17.56 14.05C424.79-33.66 432.692-28.39 432.692-24s9.659 12.293 21.951 16.683 21.951 12.293 21.951 17.56c0 4.391 5.269 8.781 12.293 8.781s14.049 6.147 17.561 13.171c2.634 7.025 10.537 13.17 16.683 13.17s16.683 9.66 23.707 21.074c9.659 19.317 8.78 23.707-14.926 46.537-14.05 13.17-32.488 36-41.269 49.17-13.17 21.952-18.439 23.708-47.414 18.44-17.561-3.513-38.635-11.415-46.537-17.562-7.024-7.024-21.951-12.292-31.61-12.292s-22.829-6.147-28.975-13.171-21.952-13.17-35.122-13.17c-14.05 0-26.342-6.147-29.854-13.171-5.268-14.05-57.951-19.318-57.951-5.269 0 9.659 21.951 18.44 43.902 18.44 7.903 0 20.195 6.146 26.342 13.17s20.195 13.17 30.731 13.17c11.415 0 21.952 6.147 25.464 13.171 2.634 7.025 14.049 13.171 26.341 13.171s24.586 4.39 27.22 9.659c3.512 4.39 15.805 12.292 27.22 16.683 19.316 7.902 21.072 13.17 21.072 58.829-.878 47.415-1.756 50.049-14.048 33.366-19.317-25.464-29.854-3.512-29.854 62.341 0 57.073-5.268 64.098-46.537 65.854-14.048.878-11.414 3.512 9.659 8.78 27.22 7.903 28.976 10.537 23.707 36.878-3.512 15.805-11.414 36.878-17.56 46.537-10.537 16.683-9.66 20.195 9.658 29.854 15.805 8.78 21.073 19.317 21.073 40.39 0 16.683 5.268 32.488 13.17 36 7.025 4.39 15.806 27.22 18.44 50.927 3.512 24.585 8.78 45.658 12.292 48.292s8.781 14.927 12.293 28.976c4.39 18.439 2.634 25.463-9.658 28.976-8.78 2.634-27.22 10.536-40.39 17.56-14.05 6.147-29.854 12.293-36.879 12.293-6.146 0-15.805 6.147-21.95 13.171s-17.562 13.17-26.342 13.17-20.195 6.147-26.342 13.171c-6.146 7.025-20.195 13.171-31.61 13.171s-23.707 5.268-27.22 12.293c-3.511 7.024-16.682 14.049-28.097 15.805-12.292.878-22.829 7.902-25.463 13.17-4.39 15.805 28.976 14.05 45.658-1.756 7.025-7.024 22.83-13.17 34.244-13.17 12.293 0 26.342-6.147 32.488-13.171s16.683-13.17 23.708-13.17 23.707-5.27 36-12.294c118.536-62.34 159.804-73.756 159.804-43.902 0 7.024 6.147 14.927 13.171 17.561 7.025 3.512 13.17 9.659 13.17 14.049s7.903 14.927 18.44 23.707C574.936 876 574.936 876 538.936 900.585c-20.195 14.05-36 28.976-36 32.488 0 4.39-6.146 7.903-13.17 7.903s-13.172 4.39-13.172 8.78c0 5.268-9.658 13.17-21.95 17.561-12.293 4.39-21.952 12.293-21.952 16.683s-7.902 9.659-17.561 12.293-17.56 8.78-17.56 14.048c0 14.05 23.706 11.415 29.853-3.512 2.634-7.024 13.17-13.17 22.829-13.17s20.195-6.147 22.83-13.171c3.511-7.025 11.414-13.17 17.56-13.17 7.025 0 14.927-5.27 17.561-12.294s11.415-14.926 19.317-17.56c21.951-7.025 49.171-25.464 57.073-38.635 8.78-13.17 43.025-14.048 57.074 0 5.268 5.269 33.365 14.927 60.585 20.195 39.512 7.903 50.049 14.05 48.293 24.586-2.634 13.17 8.78 14.927 93.95 14.927 54.44 0 98.342-3.513 101.855-8.78 2.634-5.27 14.926-8.781 25.463-8.781 11.415 0 25.463-5.269 30.732-12.293 6.146-7.024 20.195-14.927 31.61-17.561 12.292-3.512 21.95-9.659 21.95-14.049 0-12.292 42.147-10.536 50.05 2.634 7.024 10.537 31.61 28.098 55.317 38.635 7.024 2.634 16.682 10.536 20.195 17.56 3.512 6.147 13.17 11.415 19.317 11.415 7.024 0 13.17 3.512 13.17 7.903 0 4.39 12.293 12.292 26.342 17.56 14.927 4.39 26.341 13.171 26.341 17.562 0 5.268 6.147 9.658 13.171 9.658 19.317 0 15.805-18.439-4.39-23.707-9.659-2.634-17.561-7.903-17.561-12.293s-9.659-12.293-21.951-16.683-21.952-12.293-21.952-17.56c0-4.391-3.512-8.781-7.902-8.781-5.268 0-20.195-10.537-33.366-22.83s-33.366-26.341-43.902-30.731c-11.415-4.39-20.195-14.927-20.195-24.586 0-16.683 33.365-44.78 54.439-44.78 6.146 0 21.073-10.537 32.487-21.951 17.561-18.44 25.464-21.074 52.683-16.683 17.561 3.512 37.756 11.414 45.659 17.56 7.024 7.025 21.951 12.293 31.61 12.293s22.829 6.147 28.975 13.171 21.952 13.17 35.122 13.17c14.049 0 26.342 6.147 29.854 13.172 5.268 14.048 57.951 19.317 57.951 5.268 0-9.659-21.951-18.44-43.902-18.44-7.903 0-20.195-6.146-26.342-13.17s-20.195-13.17-30.731-13.17c-11.415 0-21.952-6.147-25.464-13.171-2.634-7.025-14.049-13.171-25.463-13.171-12.293 0-26.342-6.146-32.488-13.17-6.146-7.025-20.195-13.172-31.61-13.172-28.975 0-27.22-20.195 6.146-72 17.561-26.341 28.976-58.829 32.488-84.292 4.39-48.293 14.049-63.22 40.39-64.098 17.561-.878 17.561-1.756.879-5.268-29.854-7.903-39.513-21.073-39.513-56.195 0-25.464 4.39-34.244 18.44-38.634l18.438-6.147-18.439-12.292c-9.658-7.025-22.829-11.415-28.097-10.537-18.44 4.39-19.317-28.098-2.634-46.537 14.927-16.683 14.927-17.56-3.513-22.829-10.536-2.634-19.317-11.415-19.317-20.195s-6.146-20.195-13.17-26.341c-17.561-14.927-16.683-31.61 2.634-39.513 14.049-5.268 14.049-6.146 0-16.683-21.073-15.804-21.073-57.95 0-57.95 8.78 0 23.707-6.147 33.366-13.172 8.78-7.024 22.829-13.17 30.731-13.17s19.317-6.147 25.464-13.171 17.56-13.17 26.341-13.17 20.195-6.147 26.342-13.171c6.146-7.025 20.195-13.171 31.61-13.171s23.707-5.269 27.219-12.293 16.683-14.049 28.098-15.805c12.292-.878 22.829-7.902 25.463-14.049 4.39-14.926-28.976-13.17-45.659 2.635-7.024 7.024-22.829 13.17-34.243 13.17-12.293 0-26.342 6.147-32.488 13.171s-16.683 13.17-23.708 13.17-23.707 5.27-36 12.293c-47.414 25.464-123.804 57.952-136.975 57.952-7.903 0-14.049-5.269-14.049-11.415 0-7.024-13.17-26.341-29.854-43.024l-30.731-31.61 35.122-31.61c20.195-17.56 39.512-31.61 43.902-31.61s7.902-4.39 7.902-8.78c0-5.268 9.659-13.17 21.952-17.561 12.292-4.39 21.95-12.293 21.95-16.683s7.903-9.659 17.562-12.293c20.195-5.268 23.707-23.707 4.39-23.707-7.024 0-13.17 4.39-13.17 9.659 0 4.39-11.415 13.17-26.342 17.56-14.049 5.269-26.342 13.171-26.342 17.561s-6.146 7.903-13.17 7.903c-6.147 0-15.805 5.268-19.317 10.537-7.903 13.17-36 31.61-57.073 38.634-8.781 3.512-15.805 9.658-15.805 14.048 0 5.269-10.537 7.025-23.708 4.39-14.048-3.512-49.17-10.536-79.024-16.682-32.488-7.025-59.707-17.561-66.732-28.098C928.79.585 919.131-.293 833.96 5.854c-51.805 3.512-93.95 9.658-93.95 14.048s-11.416 5.269-26.342 2.635c-19.317-4.39-27.22-1.757-31.61 8.78-2.634 7.903-11.415 14.049-19.317 14.049-7.025 0-20.195 5.268-27.22 12.293-12.292 10.536-19.317 9.658-53.56-8.78-21.952-11.416-46.537-22.83-54.44-26.342C519.62 19.902 510.838 12 508.204 4.976c-2.634-7.025-10.536-12.293-17.56-12.293-6.147 0-14.05-6.146-17.562-13.17-2.634-7.025-13.17-13.172-22.829-13.172s-20.195-6.146-22.83-13.17c-6.146-14.927-29.853-17.561-29.853-3.512M898.057 88.39c0 13.171-50.049 20.195-69.366 9.659-27.22-14.049-22.83-17.561 25.463-17.561 24.586 0 43.903 3.512 43.903 7.902M783.912 120c18.439 21.951.878 27.22-19.318 6.146-15.804-15.805-16.682-19.317-5.268-19.317 7.025 0 18.44 6.147 24.586 13.171m193.17 13.17c0 4.391-14.049 8.781-31.61 8.781-18.439 0-28.975-3.512-25.463-8.78 2.634-5.269 16.683-8.78 31.61-8.78 14.049 0 25.463 3.511 25.463 8.78m-72 23.708c5.269 8.78 25.464 16.683 50.927 20.195 23.707 3.512 57.073 11.415 73.756 17.561s36 13.17 43.025 14.927c9.658 2.634 7.902 7.902-7.025 23.707-28.975 30.732-57.073 35.122-95.707 14.927-68.488-36-105.366-47.415-135.22-41.268-15.805 3.512-42.146 5.268-57.95 5.268-26.342-.878-28.976 1.756-24.586 19.317 2.634 11.415 2.634 14.927 0 8.78-7.903-17.56-24.586-12.292-51.805 15.806s-51.805 34.243-63.22 14.926c-3.512-7.024-17.56-19.317-30.731-28.097-27.22-16.683-31.61-36.878-11.415-44.78 7.024-2.635 14.927-12.293 17.561-21.952 3.512-8.78 9.659-16.683 14.049-16.683 14.049 0 8.78 28.098-7.025 40.39-14.926 10.537-14.048 12.293 5.269 30.732 17.56 16.683 22.829 17.561 25.463 7.903 6.146-16.683 80.78-87.805 92.195-87.805 5.269 0 16.683 7.024 25.464 14.927 15.805 14.048 18.439 14.048 44.78 0 15.805-7.903 37.756-15.805 50.049-17.561s24.585-4.39 28.097-5.269c3.513 0 9.659 5.269 14.05 14.05m168.586 2.634c0 4.39-10.537 8.78-23.708 8.78-19.317 0-21.95-1.755-11.414-8.78 17.56-11.414 35.122-11.414 35.122 0m166.829 84.293c0 7.902-4.39 12.293-10.537 10.536-15.805-5.268-18.439-24.585-3.512-24.585 7.903 0 14.049 6.146 14.049 14.049m-335.415 17.56c31.61 8.781 21.951 21.074-15.805 21.074-33.365 0-43.024-7.024-28.975-20.195 7.024-7.024 18.439-7.903 44.78-.878M610.936 286.83c22.83-8.78 24.585 10.537 5.268 47.415-14.927 28.976-23.707 36-42.146 36-13.17 0-28.098-4.39-34.244-10.537-12.293-12.292-14.049-42.146-2.634-42.146 4.39 0 12.292-12.293 17.56-28.098 8.781-25.463 10.537-26.341 26.342-12.292 8.78 7.902 21.951 12.292 29.854 9.658m208.097-13.17c9.659 4.39 25.464 12.292 35.122 17.56 9.659 4.39 24.586 8.781 33.366 8.781s23.708 6.146 33.366 13.17c8.78 7.025 25.464 13.171 36 13.171s21.073 7.025 24.585 16.683c2.635 8.78 13.171 18.44 22.83 21.074 14.049 3.512 16.683 9.658 12.293 23.707-5.269 16.683-3.513 18.439 12.292 13.17 19.317-6.146 26.342 8.781 7.903 16.684-8.78 2.634-7.025 7.902 4.39 16.682 18.439 14.927 18.439 21.074 1.756 37.757-14.927 14.926-17.561 52.682-4.39 60.585 5.268 2.634 8.78 18.439 8.78 33.366-.878 27.22-.878 27.22-14.049 10.536-11.414-14.926-14.048-15.805-21.073-4.39-4.39 7.024-8.78 21.951-8.78 33.366 0 18.439-2.634 20.195-26.342 14.927-21.951-4.39-26.341-2.634-26.341 10.536 0 9.659 4.39 21.074 9.658 26.342 5.269 5.268 7.903 14.927 5.269 21.951q-5.27 11.853-10.537-7.902c-7.902-25.464-37.756-28.976-68.488-8.78-23.707 15.804-25.463 15.804-41.268 1.755s-18.44-14.049-38.634-.878c-12.293 7.903-36 14.049-53.561 14.049-27.22 0-30.732-2.634-30.732-22.83 0-21.95-1.756-22.829-36.878-17.56-33.366 5.268-35.122 5.268-23.707-9.659 6.146-8.78 19.317-22.83 29.853-30.732l17.561-15.804-19.317-5.269c-11.414-3.512-20.195-10.536-20.195-16.683s-6.146-15.804-14.049-22.829c-9.658-7.902-12.292-19.317-7.902-39.512 2.634-17.561.878-29.854-5.268-31.61-12.293-4.39-1.756-94.83 10.536-94.83 4.39 0 7.903 4.391 7.903 9.66 0 17.56 21.073 2.634 26.341-19.318 3.512-14.926 12.293-21.95 28.976-23.707 14.049-1.756 23.707-7.902 23.707-15.805 0-7.024 9.659-16.683 21.951-21.073s24.586-14.927 27.22-21.951c6.146-15.805 7.024-15.805 29.853-4.39m290.635 1.756c22.829 18.439 78.146 91.317 78.146 102.731 0 14.927-18.44 11.415-31.61-6.146-8.78-11.415-13.17-12.293-21.073-4.39-7.902 7.024-6.146 12.292 7.903 19.317 10.536 6.146 18.439 19.317 18.439 29.853 0 11.415 4.39 24.586 10.536 30.732 7.025 7.025 7.025 13.17-2.634 24.586-8.78 10.536-12.293 40.39-12.293 102.731 0 62.342-3.512 89.561-10.536 91.317-7.025 2.635-11.415-3.512-11.415-14.926 0-24.586-21.073-18.44-24.585 7.024-1.756 14.049-8.78 19.317-24.586 19.317-18.439 0-21.073-4.39-21.073-30.732 0-24.585 3.512-31.61 21.951-36 26.342-6.146 43.903-25.463 30.732-34.244-4.39-2.634-8.78-19.317-8.78-36s-5.269-37.756-10.537-47.414c-9.658-14.927-8.78-19.317 0-25.464 14.927-8.78 10.537-95.707-4.39-101.853-6.147-1.756-11.415-9.659-11.415-16.683s-9.658-20.195-21.951-29.854c-27.22-21.951-27.22-31.61-1.756-43.902 26.341-12.293 35.122-12.293 50.927 0M580.204 476.488c-.878 93.073 0 98.341 19.317 113.268 14.05 10.537 18.44 20.195 14.05 30.732-3.513 9.658 0 19.317 8.78 26.341 21.073 14.927 9.658 39.513-14.927 33.366-20.195-5.268-78.147-59.707-78.147-72.878 0-5.268 6.147-8.78 13.171-8.78s13.17 3.512 13.17 8.78c0 4.39 4.391 8.78 8.781 8.78 15.805 0 8.78-22.829-13.17-43.902-12.293-11.415-21.952-28.097-21.952-36.878s-6.146-18.439-13.17-21.073c-7.025-3.512-13.171-12.293-13.171-21.073s6.146-21.951 13.17-29.854c7.025-7.024 13.171-22.83 13.171-34.244 0-36 9.659-50.049 31.61-50.049h21.073zm-112.39-7.903c0 16.683-1.756 17.561-8.78 7.025-11.415-16.683-11.415-26.342 0-26.342 5.268 0 8.78 8.78 8.78 19.317m592.683 228.293c12.293 5.268 21.951 15.805 21.951 22.83 0 16.682-101.854 115.902-119.415 115.902-16.682 0-15.804-17.561 2.635-31.61 8.78-6.146 12.292-14.049 8.78-18.439-4.39-3.512-12.293 0-18.439 8.78-14.927 19.318-39.512 19.318-53.56.879-9.66-14.05-13.172-14.05-51.806.878-30.731 12.292-53.56 14.048-94.829 9.658-58.83-6.146-70.244-10.536-50.927-22.83 11.415-7.024 10.537-10.536-4.39-21.95-9.659-7.025-24.585-17.561-33.366-22.83-12.293-7.024-13.17-12.292-6.146-25.463 12.292-22.83 23.707-21.951 30.731 0 3.513 12.293 13.171 17.56 28.976 17.56 13.17 0 33.366 6.147 43.902 14.05 14.927 10.536 32.488 12.292 70.244 8.78 27.22-2.634 59.708-4.39 71.122-5.268 25.464 0 71.122-18.44 71.122-28.976 0-5.268 43.903-28.975 58.83-32.487.878 0 12.292 4.39 24.585 10.536M940.204 846.146c-2.634 6.147-11.414 11.415-20.195 11.415-8.78 0-17.56-5.268-19.317-11.415-2.634-6.146 4.39-10.536 19.317-10.536s21.951 4.39 20.195 10.536" style="stroke-width:.878049"/>
</svg>
