<svg xmlns="http://www.w3.org/2000/svg" width="1110" height="960">
    <path d="M549.229.006A405 405 0 0 0 438.57 16.308l-2.683.671A385.94 385.94 0 0 0 221.953 175.77c-12.028 18.207-22.272 35.615-43.37 45.014l-.202.067a36.24 36.24 0 0 0-19.79 29.853c-2.235 19.39-3.873 38.91-4.596 58.365-.788 21.492.313 42.907-.805 64.334v.47a240.5 240.5 0 0 1-6.239 46.792c-4.666 18.798-12.098 36.944-18.08 55.48a133.2 133.2 0 0 0-6.037 73.492c9.596 38.45 37.903 61.045 72.016 77.148 3.944 1.906 9.879-.604 13.954-.604 6.178-11.831-1.72-18.703-5.4-26.13-5.456-11.042-12.564-21.756-18.348-32.47a43.93 43.93 0 0 1 7.983-53.902 199 199 0 0 1 20.025-16.772 147.5 147.5 0 0 1 35.32 7.112l1.443.57a233.6 233.6 0 0 1 46.255 28.142 96.36 96.36 0 0 1 39.58 83.354 488 488 0 0 0 0 50.917c.79 12.752 3.461 25.844 5.367 39.58h30.189a65.8 65.8 0 0 0 16.939-39.882c5.915-49.492 36.364-77.637 80.402-93.215l-1.778.604a256.4 256.4 0 0 1 88.485-15.664 252 252 0 0 1 80.234 12.813c47.456 14.986 80.402 43.797 86.91 96.905a54.16 54.16 0 0 0 16.67 38.037h30.39c1.709-14.525 4.073-27.54 4.796-40.62.723-16.103.658-32.13 0-48.234a101.99 101.99 0 0 1 49.207-92.008c22.676-15.709 45.491-32.032 76.713-25.459l.47.269a124 124 0 0 1 11.705 8.888 46.813 46.813 0 0 1 11.103 62.423c-4.93 9.53-10.71 18.34-16.1 27.673-4.273 7.558-10.737 14.52-7.648 25.694l-.201-.067a32.2 32.2 0 0 0 9.224 3.018h.637a19.9 19.9 0 0 0 9.56-2.415c46.6-24.845 77.358-57.46 69.668-114.38l-.335-2.214a343 343 0 0 0-18.08-64.167l.537 1.71a247.6 247.6 0 0 1-14.793-82.414c.132-39.173-1.73-78.282-2.65-113.71l.135-.066c-10.845-18.404-18.313-30.176-32.839-36.025a48.97 48.97 0 0 1-23.882-23.983l-.838-1.644a346.8 346.8 0 0 0-81.643-95.697A396 396 0 0 0 611.92 4.032 423.5 423.5 0 0 0 553.79.006a405 405 0 0 0-4.561 0m119.445 176.1a28.8 28.8 0 0 1 9.157 1.576 798.4 798.4 0 0 1 134.037 30.356 163.06 163.06 0 0 1 62.557 43.706c19.85 19.653 14.733 74.999 3.757 91.102l-.068.134a34.98 34.98 0 0 1-29.249 15.698 34.6 34.6 0 0 1-5.4-.402 991 991 0 0 1-146.313-23.85 59.99 59.99 0 0 1-46.121-57.76c-2.367-30.037-4.539-60.1-6.642-87.311l-.134.067a28.76 28.76 0 0 1 24.419-13.317m-225.105 1.308h.269a65 65 0 0 1 18.918 4.662l.067.067c.966 11.043 1.543 22.23 1.543 33.51a373 373 0 0 1-6.977 72.518 52.3 52.3 0 0 1-40.553 44.68c-21.493 4.929-42.679 11.113-64.369 14.926-26.16 4.535-52.502 7.769-78.858 10.398-29.38 2.958-45.025-6.447-50.415-40.889-7.296-48.638 17.48-89.547 68.024-106.833a1119 1119 0 0 1 110.289-27.907l-1.577.268a234.5 234.5 0 0 1 43.64-5.4m111.429 63.932c10.615-.123 21.158 5.995 30.557 18.549l-.402-.604a230 230 0 0 1 43.974 102.406 102.93 102.93 0 0 1-4.193 57.995c-3.483 7.953-7.381 15.778-10.733 22.876-24.083 7.848-38.705-1.871-54.071-15.53-5.915 2.17-12.372 4.282-18.616 6.977-4.075 1.709-7.63 4.534-11.64 6.44-21.032 9.728-36.391 3.75-44.41-17.677l.235.772a116.43 116.43 0 0 1-4.596-64l.202-1.375a225.74 225.74 0 0 1 39.949-93.282c1.117-1.38 1.665-3.215 2.717-4.595 9.728-12.456 20.412-18.829 31.027-18.952m273.775 358.236a17.856 17.856 0 0 0-17.207 13.383l-.034.1a119 119 0 0 0-10.33 48.638v.369c.087 34.768-.03 69.525-.336 104.25v.201c.057 1.38.067 2.78.067 4.16a93.17 93.17 0 0 1-14.323 49.945l-28.075-1.275a173 173 0 0 0-32.67-57.09 211.5 211.5 0 0 0-76.243-47.261c-77.164-31.024-151.687-21.426-223.461 14.658a127.28 127.28 0 0 0-72.486 86.037 33.07 33.07 0 0 1-32.168 3.22l-.1.067.302.705a124.2 124.2 0 0 1-13.216-52.964c-.329-35.822.869-71.578-.906-107.203l-.067-.738a175 175 0 0 0-11.17-47.966c-3.549-10.385-12.683-14.19-25.894-7.748l.268-1.71a267 267 0 0 0-4.73 40.016c.526 27.54 2.948 55.007 4.394 82.481 1.972 38.254 2.164 76.724 6.24 114.649l.2 2.013a380 380 0 0 0 16.973 72.787 72.51 72.51 0 0 0 76.31 46.188l.905-.2a131.2 131.2 0 0 0 35.287-15.23c28.132-14.985 55.366-31.817 83.958-45.751l-.738.335a134 134 0 0 1 62.892-15.597 132.6 132.6 0 0 1 28.914 3.153l2.381.536a327.4 327.4 0 0 1 66.65 26.23c20.638 10.123 39.488 23.79 59.404 35.556a71.237 71.237 0 0 0 106.565-38.004l-.738 2.315a332.4 332.4 0 0 0 17.174-77.35c4.075-44.3 4.472-88.868 6.641-133.366.395-7.886 2.224-15.728 2.684-23.68 1.314-26.291 6.183-52.966-6.24-77.417a17.9 17.9 0 0 0-7.077-1.442" style="stroke-width:17.1738"/>
</svg>
