<svg xmlns="http://www.w3.org/2000/svg" width="1710" height="960">
    <path d="M608.275 898.709c15.492 1.721 38.73 1.721 51.641 0 12.91-1.721 0-3.443-28.403-3.443s-38.73 1.722-23.238 3.443M480.032 429.634c-25.82 34.427-55.945 80.904-66.273 103.282-11.189 23.239-22.378 41.313-25.82 41.313-22.378.861-137.71 37.01-178.163 55.945-85.208 40.453-112.75 92.094-70.576 131.685 40.452 37.87 176.44 96.398 223.779 96.398 12.05 0 35.288 6.024 51.64 12.91 34.428 13.77 89.512 17.214 107.587 5.164 14.632-8.607-13.771-18.074-55.945-18.074-15.492 0-40.452-5.165-55.945-12.05-15.492-6.886-47.337-19.796-69.715-28.403-80.905-30.984-118.775-78.322-89.512-114.471 24.96-31.846 104.143-67.134 113.61-50.78 3.444 4.303-4.303 20.656-16.352 36.148-21.517 28.403-21.517 28.403-5.164 55.084 30.124 50.78 191.073 106.725 337.39 117.914 32.706 2.582 66.273 8.607 74.88 13.771 9.467 4.304 72.297 8.607 143.734 8.607 228.083 0 517.274-46.477 608.507-97.258 87.79-49.059 104.143-86.929 55.945-132.546-32.706-30.124-124.8-74.88-172.138-83.486-55.084-10.329-93.815-30.124-104.143-55.084-16.353-37.87-93.815-139.432-106.725-139.432-6.025 0-26.682 9.468-45.617 21.517-18.935 12.05-43.034 21.518-53.363 21.518-11.189 0-47.338 6.024-80.044 12.91-76.6 16.353-181.605 16.353-258.206 0-32.706-6.886-71.437-12.91-86.069-12.91-13.771 0-33.567-6.025-42.174-12.91-9.467-6.886-24.099-12.911-32.706-12.911s-18.074-6.025-20.656-12.91c-11.19-27.542-37.01-11.19-81.766 49.059m940.733 199.68c35.288 22.377 41.313 30.984 41.313 54.223 0 18.935-6.886 32.706-23.239 45.616-28.403 22.378-93.815 51.642-115.332 51.642s-20.657-17.214.86-23.239c9.468-2.582 24.96-17.214 34.428-33.567 18.935-30.124 15.492-48.198-12.05-72.298-7.746-6.024-13.77-21.517-13.77-35.288 0-23.238 1.72-24.96 24.099-19.796 12.91 2.582 41.313 17.214 63.69 32.706m-827.122-312.43c-15.492 13.77-26.681 29.263-24.96 34.427 7.746 23.239 105.865 45.617 256.485 58.527 124.8 10.328 327.062-24.96 327.062-56.805 0-5.165-14.632-21.518-32.706-35.289l-32.706-25.82-29.264 24.96c-18.074 14.631-40.452 24.96-55.945 24.96-14.631 0-30.124 3.442-35.288 8.606-13.77 13.771-124.8 19.796-166.973 8.607-21.518-6.024-54.224-12.05-73.159-14.631-18.935-2.582-42.174-11.19-51.641-19.796-38.731-34.428-50.78-35.288-80.905-7.746M690.04 261.8c-11.189 1.72-19.796 7.746-19.796 12.05 0 20.656 19.796 42.173 37.87 42.173 11.19 0 37.01 6.025 56.806 12.91 20.657 6.886 66.273 12.91 103.283 12.91 39.591 0 79.183-5.164 97.257-12.91 17.214-6.885 41.313-12.91 53.363-12.91 15.492 0 21.517-4.304 21.517-16.353 0-36.15-62.83-50.78-95.536-22.378-13.771 13.771-30.985 16.353-90.372 15.492-61.97 0-75.741-2.582-92.094-18.935-19.796-17.214-32.706-19.796-72.298-12.05m105.004-14.632c-2.582 4.303 0 11.189 6.886 13.77 19.795 6.886 109.307 0 111.89-9.467 2.581-12.05-111.03-16.353-118.776-4.303" style="stroke-width:.860687"/>
</svg>
