<svg xmlns="http://www.w3.org/2000/svg" width="1200" height="960">
    <path d="M1081.089 178.655c-9.436 19.753-22.915 31.47-41.268 42.616L859.506 41.01C869.098 23.07 883.77 8.917 901.604.259l.57-.259zm-94.512 45.779-201.986 203.8-132.513-132.722L854.892 92.075zm-48.215 422.945c1.296 25.404-13.998 41.009-32.3 50.652-31.054 16.435-64.079 29.136-100.785 45.26 13.169-29.5 24.523-54.903 36.447-81.5q-47.386-47.488-94.46-94.46-47.075-46.97-92.698-92.593l-94.46-94.46q-46.349-46.35-92.75-92.698c-31.313-31.314-63.146-62.213-92.334-92.646 5.858-26.336 19.441-41.993 38.883-51.533 29.759-14.568 60.243-27.425 90.468-40.905 1.14-.467 2.8.415 6.066 1.089-11.924 26.44-23.64 52.57-35.772 79.529zM278.229 960 152.92 926.25a30555 30555 0 0 0-34.01-126.345l385.67-411.125 55.68 103.118-352.8 353.215c1.4 8.554 2.437 14.568 3.526 21.671l19.7 6.429 355.237-354.667 102.445 54.54c-11.147 16.902-363.895 349.43-410.192 386.862z" style="stroke-width:1.06909"/>
</svg>
