<svg xmlns="http://www.w3.org/2000/svg" width="1190" height="960">
    <path d="M332.993 824.191c-12.61 24.252-13.58 32.982-3.88 44.623C360.155 906.647 518.275 960 599.76 960c43.653 0 140.66-24.252 203.714-51.413 45.592-19.402 69.844-47.533 62.083-70.815-2.91-9.7-7.76-24.251-9.7-30.072-1.94-9.7-11.64-7.76-34.922 6.79-17.461 10.671-38.803 22.312-46.563 25.222s-27.162 11.641-43.653 18.431c-93.126 39.773-266.767 19.402-351.163-41.712l-31.042-22.312zM890.78 723.305c0 15.52 6.79 47.533 15.521 71.784 8.73 24.252 17.461 49.474 19.401 57.234 2.91 9.7 23.282-3.88 62.084-42.683 32.012-32.012 57.234-62.084 55.294-66.934-2.91-8.73-67.904-30.072-125.138-41.713-24.252-4.85-27.162-2.91-27.162 22.312m-664.493-10.67c-15.52 7.76-38.802 13.58-50.443 14.55-11.64 0-24.251 4.85-28.132 11.64-8.73 13.582 97.977 117.378 114.468 112.528 6.79-2.91 15.52-19.401 18.43-37.832s10.672-45.593 17.462-60.144c5.82-15.521 10.67-33.952 10.67-41.713 0-17.461-42.682-16.491-82.455.97m755.679-421.978c-21.341 8.73-21.341 8.73-3.88 62.084 31.042 93.126 32.982 131.928 10.67 218.264-11.64 43.653-18.43 83.425-15.52 89.246 3.88 4.85 17.46 8.73 32.011 8.73 22.312 0 29.102-7.76 44.623-45.593 29.102-68.874 27.162-243.485-2.91-301.689-21.341-41.713-29.102-45.593-64.994-31.042m-831.343 21.341c-29.102 59.174-38.803 152.3-25.222 236.696 14.55 93.126 30.072 120.287 67.904 120.287 23.282 0 28.132-3.88 28.132-23.281 0-12.611-6.79-38.803-14.55-57.234-21.342-50.443-18.432-164.91 4.85-229.905 16.49-49.473 17.46-54.323 2.91-65.964-27.162-19.401-47.533-13.58-64.024 19.401m277.437 14.551c-81.485 82.456-148.42 154.24-148.42 160.06 0 6.791 67.905 79.546 151.33 163.941C540.588 761.137 587.15 800.91 599.76 798c9.701-2.91 86.336-74.695 170.731-160.06l153.27-154.24-155.21-155.21c-100.886-100.887-161.03-153.27-173.64-153.27-11.642.97-79.546 62.084-166.852 151.33m312.36 32.012L865.557 483.7 744.3 605.927c-65.965 67.905-128.049 127.078-138.72 132.899-15.52 8.73-35.891-7.76-142.598-114.468-68.875-68.874-125.138-129.988-125.138-136.778 0-19.402 235.725-253.187 257.066-254.157 12.61-.97 62.084 41.713 145.51 125.138m167.82-203.713c-9.7 31.042-17.46 68.875-17.46 83.426 0 20.371 3.88 24.251 17.46 20.371 8.73-3.88 35.893-10.67 60.144-17.461 24.252-5.82 49.473-12.611 56.264-14.551 23.281-5.82 11.64-34.922-33.952-82.455-26.192-26.192-50.444-47.533-56.264-47.533-4.85 0-17.461 26.191-26.192 58.203m-698.445-15.52c-24.251 23.28-49.473 51.413-55.293 63.053-9.7 17.461-7.76 20.372 15.52 25.222 15.522 2.91 48.504 11.64 74.696 20.371 63.054 20.372 73.724 9.7 51.413-51.413-8.73-26.192-16.491-57.234-18.431-69.845-4.85-36.862-19.401-33.952-67.905 12.611M468.802 15.158c-137.749 52.384-162.97 74.695-135.809 117.378 14.551 22.311 17.461 22.311 36.863 8.73C435.82 93.734 475.592 84.034 590.06 83.064c116.407-.97 163.94 10.67 222.144 54.323 31.042 23.282 38.803 22.312 49.473-7.76 17.461-45.593-13.58-71.785-140.659-113.498-62.084-21.341-198.863-21.341-252.216-.97" style="stroke-width:.970062"/>
</svg>
