<svg xmlns="http://www.w3.org/2000/svg" width="1530" height="960">
    <path d="M765 0 600.174 245.486h329.652zm.809 325.029a68.57 68.57 0 0 0-68.5 68.571 68.57 68.57 0 0 0 68.572 68.571 68.57 68.57 0 0 0 68.572-68.571 68.57 68.57 0 0 0-68.572-68.571zm-260.703 62.046-138.82 206.754H684.4c25.006 0 36.168-31.396 16.773-47.18zm520.41.927L830.59 546.648c-19.394 15.785-8.233 47.18 16.773 47.18h316.35zM417.987 680.229c-68.575 0-132.645 34.154-170.871 91.087L120.429 960H717.88V707.657c0-15.148-12.28-27.428-27.428-27.428H575.938c-20.071 0-36.342 16.27-36.342 36.342V864h-89.143V727.136a161.2 161.2 0 0 1 5.306-41.012l1.55-5.895zm423.322 0c-15.149 0-27.429 12.28-27.429 27.428v65.829h288v91.885h-288V960h595.69l-126.688-188.684c-38.226-56.933-102.296-91.087-170.871-91.087z" style="stroke-width:1.37143"/>
</svg>
