<svg xmlns="http://www.w3.org/2000/svg" width="1233" height="960">
    <path d="M654.02 0v459.08C915.706 462.868 1121.858 235.298 1112.979 0zm-76.524.485C451.148 4.238 287.53 69.747 193.606 229.45 91.587 402.934 94.898 579.325 205.732 747.408 297.939 887.394 434.2 954.163 601.569 960V799.495c-173.485-.839-306.416-138.267-317.251-295.422-5.495-80.006 14.86-153.04 63.85-216.716 63.769-83.11 149.567-124.324 254.068-127.397V.546a378 378 0 0 0-24.74-.06m76.766 499.1v458.778c259.327 2.825 465.174-219.196 458.717-458.777z" style="stroke-width:31.046"/>
</svg>
