<svg xmlns="http://www.w3.org/2000/svg" width="1291" height="960">
    <path d="M631.64-27.074 463.877 47.053a23.26 23.26 0 0 0-13.86 21.278v42.43a23.26 23.26 0 0 0 13.86 21.28l36.895 16.304a6.252 6.252 0 0 1-.287 11.556l-149.974 57.567a22.05 22.05 0 0 0-14.147 20.584v72.738c0 8.37 6.23 17.841 13.914 21.156l62.07 26.774c7.684 3.315 7.58 8.433-.233 11.432l-170.71 65.53c-7.814 2.999-14.148 12.215-14.148 20.584V556.28c0 8.37 6.264 17.76 13.99 20.977l64.345 26.782c7.726 3.216 7.656 8.255-.157 11.254l-171.622 65.878c-7.813 3-14.147 12.215-14.147 20.585v124.26c0 8.369 6.292 17.692 14.053 20.823l497.727 200.813c7.761 3.13 20.345 3.13 28.106 0l497.727-200.813c7.762-3.131 14.053-12.454 14.053-20.823v-124.26c0-8.37-6.334-17.585-14.147-20.585l-171.622-65.878c-7.813-3-7.883-8.038-.157-11.254l64.345-26.782c7.726-3.216 13.99-12.608 13.99-20.977V456.266c0-8.37-6.334-17.585-14.147-20.585l-170.71-65.529c-7.814-2.999-7.918-8.117-.233-11.432l62.07-26.774c7.684-3.315 13.913-12.787 13.913-21.156v-72.738a22.05 22.05 0 0 0-14.147-20.584l-149.974-57.567a6.252 6.252 0 0 1-.287-11.556l36.895-16.305a23.26 23.26 0 0 0 13.86-21.279v-42.43a23.26 23.26 0 0 0-13.86-21.278L659.36-27.074a34.3 34.3 0 0 0-27.722 0M544.22 167.539l87.417 38.627a34.3 34.3 0 0 0 27.722 0l87.417-38.627c7.655-3.383 20.194-3.694 28.008-.694l157.208 60.349c7.813 2.999 7.917 8.118.233 11.433L659.414 356.31c-7.684 3.315-20.144 3.315-27.828 0L358.773 238.627c-7.684-3.315-7.58-8.434.233-11.433l157.208-60.35c7.814-2.999 20.353-2.688 28.008.695M464.068 381.03l167.518 72.264c7.684 3.315 20.144 3.315 27.828 0l167.518-72.264c7.685-3.315 20.249-3.571 28.062-.572l178.299 68.441c7.813 3 7.883 8.038.157 11.254L659.49 615.801a36.4 36.4 0 0 1-27.98 0L257.55 460.153c-7.726-3.216-7.656-8.254.157-11.253l178.3-68.442c7.813-3 20.376-2.743 28.06.572m-98.033 248.164 265.475 110.5c7.726 3.217 20.254 3.217 27.98 0l265.48-110.5c7.727-3.216 20.325-3.392 28.138-.393l180.542 69.306c7.814 2.999 7.857 7.972.097 11.107L659.55 900.802c-7.76 3.135-20.34 3.135-28.1 0L157.253 709.214c-7.76-3.135-7.717-8.108.096-11.107L337.898 628.8c7.813-2.999 20.41-2.823 28.137.393" style="stroke-width:3.03074"/>
</svg>
