<svg xmlns="http://www.w3.org/2000/svg" width="1373" height="960">
    <path d="M680.407 4.337c-1.182 2.563-4.337 8.477-7.294 13.405-2.76 4.929-6.505 11.434-8.28 14.785-3.35 5.914-10.842 18.334-15.573 25.628-1.183 2.168-3.154 5.717-4.14 7.885s-3.943 7.097-6.702 11.04c-2.76 4.14-5.52 9.068-6.309 11.434-.591 2.365-1.971 4.14-2.563 4.14-.788 0-3.154 3.942-5.322 8.87-2.169 4.93-4.534 8.872-5.323 8.872-.788 0-2.76 2.957-4.337 6.308-1.577 3.549-5.717 10.843-8.87 16.362-3.352 5.323-6.9 11.631-8.083 13.8-1.183 2.168-3.746 6.505-5.914 9.857-2.169 3.154-4.535 7.294-5.323 8.87-3.154 6.112-15.18 26.614-16.165 27.6-1.183.985-3.352 4.73-12.026 20.699-1.774 3.154-5.322 9.462-8.082 13.8-2.76 4.336-5.717 9.265-6.308 10.842-.789 1.577-3.155 5.52-5.323 8.87-2.169 3.155-4.534 7.295-5.323 8.872-.788 1.577-9.265 15.968-18.728 32.133-9.462 15.968-17.347 29.373-17.347 29.965 0 .394-2.366 4.14-5.126 8.28s-5.914 9.265-6.9 11.433-3.548 6.506-5.717 9.857c-2.168 3.154-4.534 7.294-5.322 8.871-.592 1.577-3.549 6.505-6.309 10.842s-7.097 11.829-9.66 16.757c-7.49 13.602-8.87 16.165-14.39 24.642-2.76 4.337-5.717 9.265-6.308 10.842-.789 1.577-3.155 5.52-5.323 8.871-2.169 3.155-4.731 7.689-5.717 9.857s-4.14 7.294-6.9 11.434-5.125 7.885-5.125 8.083c0 .394-7.886 13.996-17.348 30.161-9.463 15.968-17.94 30.556-18.728 32.133s-3.154 5.52-5.323 8.871c-2.168 3.155-4.534 7.294-5.322 8.872-.592 1.577-3.549 6.505-6.309 10.842s-6.308 10.448-8.082 13.8c-8.674 15.967-10.843 19.713-12.026 20.699-.59.591-4.14 6.308-7.885 12.813s-7.688 13.603-9.068 15.771-3.154 5.717-4.337 7.886c-.986 2.168-4.14 7.294-6.9 11.434s-5.125 7.885-5.125 8.476c0 1.972-14.588 25.43-16.166 26.022-.985.395-1.577 1.774-1.577 3.154s-2.562 6.309-5.914 10.646c-3.154 4.534-5.914 9.068-5.914 10.054 0 1.182-2.365 5.322-5.125 9.462s-5.914 9.265-6.9 11.434-2.957 5.717-4.14 7.885c-7.49 11.434-13.01 20.897-22.67 38.442-1.972 3.745-5.914 10.448-8.674 14.785s-5.717 9.265-6.506 10.842c-1.577 3.352-3.745 6.9-11.237 18.728-2.76 4.337-5.716 9.266-6.308 10.843-.788 1.577-3.154 5.52-5.323 8.87-2.168 3.155-4.534 7.295-5.322 8.872s-6.506 11.63-12.814 22.276-11.434 19.714-11.434 20.108-2.365 4.14-5.125 8.28-5.914 9.265-6.9 11.434-3.549 6.505-5.717 9.856c-2.169 3.154-4.731 7.689-5.914 9.857-1.183 2.169-3.746 6.506-5.914 9.857-2.169 3.154-4.534 7.294-5.323 8.871-.788 1.577-3.745 7.097-6.9 12.025-9.856 16.165-19.713 14.785 114.142 16.165 154.948 1.775 729.4 1.775 884.35 0 113.155-1.183 119.66-1.38 119.66-4.73 0-1.972-2.365-6.9-5.125-11.04s-5.914-9.266-6.9-11.434c-.986-2.169-3.548-6.703-5.717-9.857-2.168-3.351-4.731-7.688-5.717-9.857s-4.14-7.294-6.9-11.434-5.125-7.885-5.125-8.28-7.885-13.996-17.348-29.964c-9.66-16.165-17.94-30.753-18.728-32.133-.788-1.577-3.154-5.717-5.322-8.871-2.169-3.352-4.732-7.688-5.717-9.857-.986-2.168-3.943-7.097-6.506-10.842s-5.322-8.28-5.914-10.054c-.591-1.577-4.534-8.28-8.674-14.785-4.14-6.309-9.462-15.18-11.828-19.517-2.168-4.337-6.111-11.04-8.477-14.785-2.168-3.746-4.731-8.28-5.52-9.857-.591-1.577-3.548-6.505-6.308-10.842s-6.505-10.843-8.477-14.391c-1.971-3.351-5.125-9.265-7.097-12.814-1.971-3.351-5.716-9.857-8.476-14.194s-5.717-9.265-6.506-10.842-2.365-4.731-3.745-6.9c-1.38-2.168-4.732-7.491-7.294-11.828-2.76-4.534-6.112-9.857-7.492-11.828-1.182-2.169-2.957-5.323-3.745-6.9s-6.506-11.63-12.814-22.079-11.434-20.108-11.434-21.093c0-1.183-1.183-2.76-2.563-3.549-1.38-.788-3.548-3.746-4.73-6.505-1.38-2.76-5.126-9.463-8.28-14.786-3.352-5.52-6.9-11.63-7.886-13.799s-4.14-7.294-6.9-11.434-5.125-7.688-5.125-8.082-6.703-12.026-14.785-25.825c-8.083-13.603-14.786-25.233-14.786-25.628s-2.365-4.14-5.125-8.28-5.914-9.265-6.9-11.433c-.986-2.169-3.548-6.703-5.717-9.857-2.168-3.351-4.731-7.688-5.717-9.857s-4.14-7.294-6.9-11.434-5.125-7.885-5.125-8.28-5.125-9.462-11.434-20.107-12.025-20.7-12.814-22.276c-.788-1.578-4.534-7.886-8.28-13.8s-7.885-13.208-9.068-16.362c-1.182-2.957-2.957-5.323-3.942-5.323s-1.774-.986-1.774-1.971c0-1.183-2.366-5.717-5.323-10.448-2.957-4.534-7.491-12.223-10.054-17.151-8.083-14.785-13.602-24.05-21.685-36.47-1.183-2.169-2.957-5.323-3.745-6.9s-3.549-6.505-6.309-10.842c-7.885-12.223-9.66-15.377-11.828-19.714-.986-2.168-4.14-7.294-6.9-11.434s-5.125-8.28-5.125-9.265-2.366-5.126-5.126-9.265-5.914-9.266-6.9-11.434c-.985-2.169-3.548-6.703-5.716-9.857-2.169-3.351-4.732-7.688-5.914-9.857-.986-2.168-2.76-5.323-3.943-6.9-3.549-5.322-31.542-53.62-31.542-54.409 0-.394-2.365-3.943-5.125-8.083s-5.914-9.265-6.9-11.433c-.986-2.169-3.548-6.703-5.717-9.857-2.168-3.351-4.731-7.688-5.717-9.857s-4.14-7.294-6.9-11.434-5.125-7.885-5.125-8.28c0-.788-22.276-39.23-25.628-44.355-1.183-1.577-2.76-4.928-3.942-7.491C691.25 1.971 688.687 0 686.32 0s-4.928 1.971-5.914 4.337m11.829 43.37c1.182 2.562 3.154 6.308 4.337 8.477 7.885 12.025 13.405 21.684 23.459 40.215 1.971 3.746 4.337 7.294 5.125 7.886.986.591 3.549 5.125 6.111 10.053s6.309 11.434 8.28 14.786c2.169 3.154 4.731 7.688 5.717 9.856s4.14 7.294 6.9 11.434 5.125 7.886 5.125 8.28 5.126 9.462 11.434 20.108c6.308 10.645 12.025 20.699 12.814 22.276s2.563 4.731 3.943 6.9c1.38 2.168 4.73 7.491 7.294 11.828 2.76 4.534 6.11 9.857 7.49 11.828 1.184 2.169 3.155 5.717 4.14 7.885.986 2.169 4.14 7.294 6.9 11.434s5.126 7.886 5.126 8.28c0 .789 27.205 47.707 31.541 54.212.986 1.577 4.14 6.9 6.9 11.828s7.689 13.208 11.04 18.728c3.154 5.323 6.9 12.025 8.28 14.785 1.182 2.76 2.76 5.323 3.35 5.914.986.986 9.463 15.18 14.786 24.642 1.971 3.746 9.068 15.574 14.194 23.657 1.38 2.168 4.731 7.885 7.49 12.813s6.703 11.434 8.872 14.786c2.168 3.154 4.534 7.294 5.323 8.87.591 1.578 3.548 6.506 6.308 10.843s6.505 10.842 8.477 14.194c1.971 3.548 5.125 9.462 7.097 12.814 1.971 3.548 5.717 10.054 8.476 14.39s5.717 9.266 6.309 10.843c.788 1.577 4.14 7.294 7.491 12.814 3.154 5.322 7.294 12.814 8.871 16.165 1.577 3.548 3.548 6.505 4.337 6.505s2.563 2.366 3.746 5.323c2.562 5.914 8.674 16.756 16.559 29.176 2.76 4.337 5.717 9.265 6.308 10.842.789 1.578 3.155 5.52 5.323 8.872 1.971 3.154 4.928 8.082 6.308 10.842 1.577 2.76 6.703 11.434 11.631 19.32 13.8 22.867 19.32 32.527 22.474 38.835 1.774 3.154 4.731 8.477 6.9 11.828 2.168 3.154 4.73 7.688 5.914 9.857 1.182 2.168 3.745 6.505 5.914 9.857 2.168 3.154 4.534 7.294 5.322 8.87.789 1.578 6.506 11.632 12.814 22.277 6.308 10.448 11.434 19.516 11.434 20.108 0 .394 2.366 4.14 5.125 8.28s5.915 9.265 6.9 11.433c.986 2.169 3.549 6.506 5.717 9.857 2.169 3.154 4.731 7.688 5.914 9.857s3.746 6.505 5.914 9.857c2.169 3.154 4.534 7.294 5.323 8.87.591 1.578 3.548 6.506 6.308 10.843s6.703 11.04 8.871 14.785c1.972 3.746 5.126 9.463 6.9 12.814 1.774 3.154 5.52 9.463 8.28 13.8s5.717 9.265 6.308 10.842c.789 1.577 3.154 5.52 5.323 8.871 2.168 3.154 4.73 7.688 5.717 9.857s4.14 7.294 6.9 11.434 5.125 8.082 5.125 8.674 2.76 5.52 6.111 10.645c3.351 5.323 5.52 10.448 4.731 11.631s-23.656 1.971-66.631 1.971c-56.184 0-66.238-.394-69.983-3.154-2.366-1.577-4.337-3.745-4.337-4.928 0-.986-2.366-5.52-5.323-10.251-2.957-4.534-7.097-11.434-9.068-15.18-8.477-15.179-10.646-19.122-15.377-26.613-2.76-4.337-5.717-9.265-6.308-10.842-.789-1.577-4.14-7.492-7.491-12.814-3.155-5.52-7.294-12.814-8.871-16.165-1.578-3.549-3.746-6.506-4.732-6.506-1.182 0-1.971-1.183-1.971-2.563 0-1.577-2.563-6.505-5.914-10.842-3.154-4.534-5.914-9.068-5.914-10.054 0-1.183-2.366-5.323-5.126-9.462-2.76-4.14-5.914-9.266-6.9-11.434-.985-2.169-2.957-5.717-4.14-7.886-8.279-12.813-13.602-21.685-21.684-36.47-2.563-4.928-6.9-12.42-9.66-16.756s-5.717-9.266-6.505-10.843c-1.577-3.35-3.746-6.9-11.237-18.727-2.76-4.337-5.52-9.266-6.308-10.843s-2.169-4.337-3.352-5.914c-3.351-5.126-31.541-53.62-31.541-54.41 0-.394-2.366-3.942-5.126-8.082s-5.914-9.265-6.9-11.434-2.562-5.322-3.745-6.9c-3.549-5.716-30.753-52.24-32.133-55.197-.789-1.577-3.154-5.717-5.323-8.872-2.168-3.35-4.731-7.688-5.914-9.856-.986-2.169-3.154-5.717-4.337-7.886-5.125-7.688-12.222-19.91-15.377-25.627-8.28-15.18-11.039-19.714-13.208-22.277-1.38-1.38-2.562-3.35-2.562-4.337s-2.366-5.125-5.126-9.265-5.914-9.265-6.9-11.434c-.985-2.168-2.957-5.717-4.14-7.885-5.322-8.083-12.419-20.108-16.953-28.585-7.491-13.602-8.871-16.165-14.39-24.642-2.76-4.337-5.718-9.265-6.31-10.842-.788-1.577-3.153-5.717-5.322-8.871-2.168-3.352-4.534-7.294-5.323-8.871-.788-1.38-8.87-15.574-18.333-31.542-9.266-15.77-17.545-29.965-18.334-31.542-3.943-8.082-8.87-14.785-11.237-14.785-2.562 0-6.505 5.52-12.813 17.742-4.14 8.083-11.04 20.108-17.348 29.965-2.957 4.731-5.323 8.871-5.323 9.265 0 .592-2.366 4.337-5.125 8.477s-5.914 9.265-6.9 11.434-3.549 6.505-5.717 9.857c-2.169 3.154-4.731 8.082-5.914 10.645s-3.943 7.294-6.308 10.645-5.915 8.871-7.689 12.026c-1.774 3.35-5.52 10.054-8.28 14.982-2.956 4.928-5.913 10.251-6.702 11.828-.591 1.577-3.548 6.505-6.308 10.842s-6.506 10.843-8.477 14.194c-1.972 3.549-5.126 9.463-7.097 12.814-1.971 3.548-5.717 10.054-8.477 14.39-2.76 4.338-5.717 9.266-6.308 10.843-.789 1.577-3.154 5.52-5.323 8.871-2.168 3.155-4.534 7.294-5.323 8.872-.59 1.577-3.548 6.505-6.308 10.842-7.294 11.434-9.66 15.377-11.434 18.728-.788 1.577-6.505 11.63-12.813 22.276S508.9 576.227 508.9 576.621s-2.366 4.14-5.126 8.28-5.914 9.265-6.9 11.433c-.985 2.169-4.534 8.28-7.885 13.8-3.154 5.323-6.9 12.025-8.28 14.785-1.183 2.76-2.76 5.323-3.548 5.914-1.183.986-19.517 32.133-22.08 37.456-.788 1.577-3.153 5.52-5.322 8.871-2.168 3.154-4.534 7.294-5.323 8.871-.591 1.577-3.548 6.506-6.308 10.843-6.308 10.053-13.405 22.276-16.362 28.584-1.38 2.76-3.549 5.717-4.929 6.506-1.38.788-2.562 2.76-2.562 4.337s-2.366 6.11-5.126 10.25-5.914 9.266-6.9 11.434c-.985 2.169-2.957 5.717-4.14 7.886-7.49 11.434-13.01 20.896-22.67 38.441-1.971 3.746-5.914 10.448-8.674 14.785s-5.717 9.266-6.308 10.843c-.789 1.577-3.154 5.52-5.323 8.871-2.168 3.154-4.731 7.688-5.717 9.857s-4.14 7.294-6.9 11.434-5.125 7.885-5.125 8.28-5.126 9.462-11.434 20.107-12.025 20.7-12.814 22.276-3.154 5.52-5.322 8.871c-2.169 3.155-4.535 7.294-5.126 8.872-4.534 10.053-2.366 9.856-73.926 9.856-42.58 0-67.026-.788-67.814-1.971-.592-1.183 1.38-6.111 4.731-11.04s6.111-9.66 6.111-10.645c0-.986 2.76-5.717 5.914-10.448 3.352-4.928 5.914-9.857 5.914-11.04s.789-2.168 1.577-2.168c.986 0 3.155-2.957 4.929-6.506 1.774-3.35 5.914-10.842 9.265-16.165 3.154-5.52 6.506-11.236 7.294-12.814.789-1.577 6.506-11.63 12.814-22.079s11.434-19.516 11.434-20.107 2.365-4.337 5.125-8.477 5.914-9.266 6.9-11.434 3.548-6.703 5.717-9.857c2.168-3.351 4.731-7.688 5.717-9.857s4.14-7.294 6.9-11.434 5.125-7.885 5.125-8.28 5.323-9.659 11.828-20.698 11.828-20.305 11.828-20.7 2.563-4.534 5.717-9.265 7.689-12.025 9.857-16.362c5.126-9.463 7.294-13.011 14.588-24.248 2.957-4.731 5.323-8.871 5.323-9.265s6.505-11.631 14.39-25.036 14.983-25.628 15.771-27.205c.79-1.577 2.563-4.731 3.746-6.9 2.366-3.351 4.731-7.097 14.785-23.656 1.38-2.169 3.154-5.717 4.337-7.886.986-2.168 4.14-7.294 6.9-11.433s5.125-7.886 5.125-8.477c0-.789 20.897-37.062 25.628-44.159 1.183-1.577 2.76-4.73 3.746-6.9.985-2.168 4.14-7.293 6.9-11.433s5.125-8.28 5.125-9.463c0-.985 2.76-5.52 5.914-10.054 3.351-4.337 5.914-9.265 5.914-10.842 0-1.38.789-2.563 1.971-2.563.986 0 3.154-2.957 4.732-6.505 1.577-3.352 5.717-10.843 8.87-16.165 3.352-5.52 6.703-11.237 7.492-12.814.591-1.577 3.548-6.506 6.308-10.843s6.703-10.842 8.674-14.588 5.914-10.25 8.871-14.785c4.929-7.688 7.097-11.434 15.574-26.81 1.971-3.746 5.914-10.448 8.674-14.785s5.717-9.266 6.308-10.843c.789-1.577 3.154-5.717 5.323-8.87 2.168-3.352 4.534-7.295 5.322-8.872.79-1.577 9.069-15.77 18.334-31.542 9.265-15.77 17.545-29.964 18.334-31.541s3.154-5.717 5.322-8.871c2.169-3.352 4.732-7.689 5.914-9.857 1.183-2.169 3.746-6.703 5.914-9.857 2.169-3.351 4.732-7.688 5.717-9.857s4.14-7.294 6.9-11.433 5.126-7.886 5.126-8.674c0-.592 5.125-9.66 11.433-20.108 6.309-10.448 12.026-20.305 12.814-21.882s3.154-5.717 5.323-8.871c2.168-3.352 4.731-7.689 5.717-9.857s4.14-7.294 6.9-11.434 5.125-7.885 5.125-8.28c0-.591 21.882-38.638 25.628-44.355 1.183-1.577 2.76-4.929 3.942-7.491.986-2.366 3.549-4.337 5.914-4.337 2.366 0 4.929 1.971 5.915 4.337m.394 278.75c1.971 3.153 4.14 7.096 4.928 8.673.592 1.577 3.549 6.506 6.309 10.843 4.73 7.49 6.9 11.433 15.376 26.613 1.971 3.745 5.914 10.448 8.674 14.785s5.717 9.265 6.308 10.842c.789 1.577 3.155 5.52 5.323 8.872 2.169 3.154 4.731 7.688 5.717 9.856s4.14 7.294 6.9 11.434 5.125 7.886 5.125 8.28 5.126 9.462 11.434 20.108c6.308 10.645 12.025 20.699 12.814 22.276s3.154 5.52 5.323 8.871c2.168 3.154 4.73 7.688 5.914 9.857 1.182 2.168 3.745 6.505 5.914 9.857 2.168 3.154 4.534 7.294 5.322 8.87.789 1.578 6.506 11.632 12.814 22.277s11.434 19.713 11.434 20.108 2.366 4.534 5.52 9.265c2.957 4.731 6.505 10.251 7.885 12.42 1.38 2.168 3.351 6.308 4.534 9.265 1.183 3.154 2.957 5.52 3.943 5.52s1.774.985 1.774 1.971c0 1.183 2.366 5.717 5.323 10.448 2.957 4.534 7.097 11.434 9.068 15.18 9.66 17.545 15.18 27.007 22.67 38.441 1.183 2.169 3.155 5.717 4.14 7.886.986 2.168 3.943 7.096 6.506 10.842s5.323 8.28 6.111 9.857c.789 1.577 3.746 6.9 6.703 11.828 2.76 4.928 6.505 11.434 8.28 14.785 1.774 3.154 5.52 9.463 8.28 13.8 2.76 4.336 5.716 9.265 6.307 10.842.79 1.577 3.155 5.52 5.323 8.871 2.169 3.154 4.534 7.294 5.323 8.871.788 1.577 9.068 15.771 18.333 31.542 9.463 15.968 17.545 30.162 18.334 31.541.789 1.578 3.154 5.52 5.323 8.872 2.168 3.154 4.73 7.688 5.914 9.856s3.745 6.506 5.914 9.857c2.168 3.154 4.534 7.294 5.322 8.871 1.578 3.549 23.262 41.004 26.22 45.341 1.182 1.577 2.76 4.732 3.745 6.9s4.14 7.294 7.097 11.631c9.857 14.391 12.025 13.997-62.492 14.588l-66.238.394-6.9-10.25c-3.745-5.718-8.673-13.997-11.039-18.334s-5.323-9.66-6.702-11.828c-11.829-19.517-12.814-20.897-22.474-38.442-1.971-3.745-5.914-10.448-8.674-14.785s-5.52-9.265-6.308-10.842-2.169-4.337-3.352-5.914c-2.76-4.337-24.641-41.793-26.219-45.342-.788-1.577-3.154-5.717-5.322-8.87-2.169-3.352-4.731-7.689-5.717-9.857-.986-2.169-4.14-7.294-6.9-11.434s-5.125-7.886-5.125-8.28-5.126-9.463-11.434-20.108c-6.309-10.645-12.025-20.699-12.814-22.276s-3.351-6.111-5.52-9.857c-2.365-3.745-6.308-10.448-8.477-14.785-2.365-4.337-6.505-11.434-9.265-15.77s-5.717-9.266-6.308-10.843c-.789-1.577-3.154-5.717-5.323-8.871-2.168-3.352-4.534-7.294-5.323-8.871-.591-1.578-3.548-6.506-6.308-10.843s-6.505-10.842-8.477-14.39c-1.971-3.352-5.125-9.266-7.097-12.815-1.97-3.35-5.717-9.856-8.476-14.193s-5.717-9.266-6.309-10.843c-3.745-7.885-8.87-14.785-11.237-14.785-2.365 0-6.702 5.717-11.236 14.785-4.534 8.674-29.373 51.453-36.47 62.69-3.154 4.73-5.52 9.265-5.52 10.25 0 .986-2.366 5.126-5.126 9.266s-5.914 9.265-6.9 11.433c-2.168 4.337-3.942 7.492-11.827 19.714-2.76 4.337-5.717 9.265-6.309 10.842-.788 1.578-3.154 5.717-5.125 9.069-1.972 3.351-5.914 10.054-8.477 14.785s-6.9 12.222-9.463 16.56c-2.76 4.533-5.914 9.856-7.294 11.827-1.38 2.169-4.337 7.491-6.702 11.828-2.169 4.337-6.703 11.631-9.857 16.363s-5.717 8.87-5.717 9.462-3.745 7.491-8.477 15.18c-4.73 7.885-9.265 15.573-9.857 17.15-.788 1.577-3.154 5.52-5.322 8.872-3.943 6.11-6.111 10.053-14.194 24.641-2.563 4.929-6.9 12.42-9.66 16.757s-5.716 9.265-6.308 10.842c-.788 1.577-3.351 6.112-5.52 9.857-2.365 3.746-9.068 15.377-15.179 25.628-17.15 28.782-7.294 25.824-83.388 25.233-73.926-.591-71.758-.197-61.9-14.588 2.956-4.337 6.11-9.462 7.096-11.63.986-2.17 3.548-6.704 5.717-9.858 2.168-3.351 4.534-7.294 5.323-8.87.788-1.578 9.068-15.772 18.333-31.542 9.266-15.771 17.545-29.965 18.334-31.542s2.563-4.731 3.745-6.9c1.38-1.971 4.732-7.294 7.491-11.828 2.563-4.337 5.915-9.66 7.294-11.828 1.38-2.169 3.155-5.323 3.943-6.9s6.506-11.63 12.814-22.276 11.434-19.714 11.434-20.108 2.365-4.14 5.125-8.28 5.914-9.265 6.9-11.433c.986-2.169 4.534-8.477 7.886-13.8 3.154-5.52 6.9-12.025 8.28-14.785 1.182-2.76 2.76-5.323 3.35-5.914 1.38-1.183 15.771-25.628 15.771-26.613 0-.395 2.366-4.14 5.126-8.28s5.914-9.265 6.9-11.434c.985-2.168 2.957-5.717 4.14-7.885 2.168-3.352 6.11-9.66 14.39-23.065.986-1.774 4.14-7.491 6.9-12.814 2.76-5.126 6.111-10.251 7.294-11.04 1.38-.788 2.563-2.76 2.563-4.337s2.365-6.11 5.125-10.25 5.914-9.266 6.9-11.434c.986-2.169 2.957-5.717 4.14-7.886 7.491-11.434 13.01-20.896 22.67-38.441 1.972-3.746 5.915-10.448 8.674-14.785s5.717-9.266 6.309-10.843c.788-1.577 3.154-5.717 5.322-8.87 2.169-3.352 4.732-7.69 5.717-9.858s4.14-7.294 6.9-11.434 5.126-7.885 5.126-8.28c0-.59 5.125-9.659 11.433-20.107 6.309-10.645 12.026-20.7 12.814-22.276s3.154-5.717 5.323-8.871c2.168-3.352 4.731-7.689 5.914-9.857 1.183-2.169 3.746-6.703 5.914-9.857 2.169-3.351 4.534-7.294 5.323-8.871.788-1.577 6.308-11.434 12.42-21.685 6.11-10.251 11.63-20.108 12.419-21.685 1.577-2.957 4.731-8.477 7.885-13.405 2.366-3.549 5.52-1.971 9.66 4.731" style="stroke-width:.197135"/>
</svg>
