<svg xmlns="http://www.w3.org/2000/svg" width="1200" height="960">
    <path d="M574.957 669.913c-12.522 40.696-14.61 110.609-4.174 121.044 13.565 13.565 49.043 16.695 75.13 6.26 20.87-8.347 21.913-31.304 2.087-38.608-7.304-3.13-24-27.13-37.565-53.218-24-51.13-29.218-56.348-35.478-35.478m-24-506.087c-17.74 6.261-16.696 31.304 1.043 37.565 7.304 3.13 25.043 27.13 37.565 54.261 12.522 27.13 27.13 44.87 31.305 39.652 13.565-14.608 18.782-115.826 6.26-128.347-10.434-10.435-53.217-12.522-76.173-3.13m17.739-153.391c0 13.565-424.696 438.26-438.261 438.26-5.218 0-10.435 9.392-10.435 20.87C120 490.435 579.13 960 600 960c12.522 0 480-466.435 480-480 0-20.87-469.565-480-490.435-480-11.478 0-20.87 4.174-20.87 10.435m86.608 99.13c43.826 41.74 44.87 44.87 20.87 62.609-16.696 12.522-16.696 14.609 0 39.652 9.391 15.652 17.739 45.913 17.739 69.913 0 56.348 20.87 54.261 46.957-5.217 11.478-26.087 25.043-45.913 31.304-43.826 17.739 6.26 17.739 67.826 1.043 92.87-18.782 27.13-21.913 60.521-5.217 60.521 6.26 0 30.26-14.609 53.217-32.348 28.174-22.956 43.826-30.26 52.174-21.913 7.305 7.304 7.305 14.609-1.043 25.044-73.044 88.695-73.044 87.652-6.261 92.87 40.696 4.173 41.74 3.13 44.87-30.262 2.086-20.87 9.39-33.391 18.782-33.391 8.348 0 14.609 4.174 14.609 8.348 0 5.217 13.565 22.956 31.304 39.652 16.696 16.696 31.305 36.522 31.305 43.826 0 15.652-72 96-85.566 96-4.174 0-8.348-16.696-8.348-36.522 0-41.739 0-41.739-69.913-20.87-82.434 24-80.347 57.392 2.087 57.392 19.826 0 38.61 5.217 41.74 10.435 11.478 18.782-49.044 33.391-106.435 26.087-64.696-8.348-74.087 8.348-24 41.739 17.739 11.478 30.26 28.174 28.174 36.522-4.174 21.913-59.479 14.608-83.479-11.479-10.434-10.434-22.956-19.826-28.174-19.826-15.652 0-11.478 55.305 5.218 77.218 27.13 35.478 18.782 72-25.044 113.739-22.956 20.87-46.956 38.609-55.304 38.609s-33.391-18.783-55.304-42.783c-39.652-39.652-40.696-42.783-21.913-56.348 17.739-13.565 17.739-15.652 2.087-38.609-9.392-12.521-16.696-43.826-16.696-67.826 0-59.478-20.87-58.434-46.957 2.087-11.478 26.087-25.043 44.87-31.304 43.826-17.739-6.26-18.783-85.565 0-101.217 17.74-14.609 21.913-52.174 5.217-52.174-12.521 0-74.086 41.74-85.565 57.391-5.217 6.261-12.521 5.218-19.826-2.087-10.435-10.434-9.391-16.695 4.174-32.347 9.391-10.435 17.74-22.957 17.74-27.13s14.608-19.827 31.304-34.436c28.173-22.956 41.739-55.304 24-55.304-3.13 0-31.305 8.348-62.61 17.74-50.086 15.651-55.303 20.869-55.303 46.956 0 15.652-4.174 29.217-10.435 29.217-15.652 0-82.435-76.174-82.435-93.913 0-18.783 66.783-93.913 83.478-93.913 8.348 0 10.435 14.609 6.261 42.783-4.174 32.347-2.087 43.826 10.435 48 9.391 4.173 19.826-1.044 26.087-10.435 5.217-10.435 17.739-17.74 28.174-17.74s32.348-10.434 46.956-21.912q51.652-40.695-37.565-40.696c-20.87 0-41.74-5.217-44.87-10.435-11.478-18.782 49.044-33.391 107.479-26.087 62.608 7.305 68.87-2.087 22.956-39.652-43.826-36.522-42.782-64.696 2.087-55.304 17.74 3.13 41.74 15.652 52.174 27.13s24 20.87 29.218 20.87c16.695 0 11.478-58.435-5.218-73.044-29.217-24-18.782-74.087 22.957-116.87 20.87-21.912 45.913-39.652 55.304-39.652 8.348 0 33.391 16.696 55.304 36.522" style="stroke-width:1.04348"/>
</svg>
