<svg xmlns="http://www.w3.org/2000/svg" width="1488" height="960">
    <path d="M700.594 241.831c-41.052 10.556-19.94 26.977 31.669 26.977 36.36 0 55.127 5.865 59.818 17.594 4.692 9.383 16.42 17.593 26.977 17.593 28.15 0 83.277 60.992 83.277 90.315 0 14.075 5.864 29.322 11.729 32.841 7.037 3.519 11.729 17.594 11.729 30.496s-4.692 19.94-11.73 16.42c-5.864-3.518-11.728-16.42-11.728-29.322 0-11.73-8.21-23.458-17.594-28.15-9.383-3.519-17.594-12.902-17.594-22.285 0-28.15-82.103-90.315-119.636-90.315-18.767 0-50.436-9.383-69.202-19.939-42.225-24.631-55.127-18.767-120.81 58.646-43.398 51.608-45.744 58.645-45.744 136.057 0 69.202 4.692 87.969 34.015 131.366 56.3 84.45 181.801 137.231 255.694 109.081 37.534-14.075 17.594-28.15-39.879-28.15-42.224 0-60.991-4.691-65.683-17.593-4.691-9.384-16.42-17.594-28.15-17.594-26.976 0-82.103-68.029-82.103-102.043s19.94-35.188 29.323-1.173c4.691 15.248 26.976 44.57 49.262 64.51 32.841 31.668 49.262 38.706 91.487 38.706 29.323 0 58.645 7.037 69.202 17.594 9.383 9.383 23.458 17.593 30.495 17.593 17.594 0 82.104-49.262 82.104-63.337 0-5.865 9.383-21.112 19.94-32.842 15.247-17.593 21.112-44.57 21.112-113.772 0-84.45-2.346-92.66-39.879-140.75-58.646-72.72-165.38-117.29-238.101-98.524m105.562 174.764c38.706 26.977 36.36 100.87-5.864 133.712-38.707 30.496-79.758 23.458-117.292-18.767-34.014-37.533-34.014-64.51 2.346-103.216 32.842-35.187 80.931-39.879 120.81-11.729M591.513 85.834c-31.668 8.21-73.893 21.112-92.66 30.496-29.322 15.248-35.187 14.075-48.09-3.52-18.766-25.803-22.284-25.803-66.855 5.865C234.948 225.41 104.755 410.73 121.176 495.18c10.556 50.435 107.908 171.245 198.222 241.62 118.464 95.006 234.582 143.095 389.406 160.689 68.03 8.21 220.508-18.767 277.98-49.263 39.88-21.112 56.3-21.112 56.3 1.173 0 10.556-10.556 17.594-29.323 17.594-32.841 0-39.879 19.94-10.556 31.669 11.73 3.518 25.804 0 32.842-9.384 7.037-9.383 26.977-23.458 44.57-30.495 62.165-26.977 243.966-221.68 243.966-259.214 0-5.864 7.037-17.594 16.42-24.631 9.384-8.21 19.94-35.187 24.632-60.991 5.864-35.188 2.346-55.127-16.42-87.969-64.511-107.908-220.508-252.176-317.86-292.055-9.383-4.691-30.496-14.075-46.916-21.112-92.66-41.052-277.98-52.781-392.926-26.977m279.153 105.562c63.337 28.15 137.23 85.623 137.23 105.562 0 5.865 7.038 19.94 15.249 29.323 21.112 24.63 43.397 105.562 43.397 154.824 0 89.141-49.262 192.358-113.772 240.447-85.623 64.51-113.772 75.066-205.26 75.066-89.14 0-127.847-12.902-207.605-69.202-93.833-66.855-140.75-216.988-103.216-335.452 28.15-93.833 76.24-148.96 168.9-194.703 87.968-44.571 177.109-45.744 265.077-5.865M464.84 64.722c-15.248 15.247-8.21 28.15 16.42 28.15 12.903 0 22.286-5.865 19.94-14.076-5.864-16.42-25.804-24.63-36.36-14.074" style="stroke-width:1.17291"/>
</svg>
