<svg xmlns="http://www.w3.org/2000/svg" width="970" height="960">
    <path d="M537.208 959.998c-4.651-.09-5.435-2.816-7.727-13.552-10.963-50.492-16.676-86.314-14.515-90.329 1.699-2.934 3.243-.154 11.118 18.992 1.853 4.633 4.632 10.346 6.33 12.97 2.471 4.17 2.934 4.324 3.706 1.7.618-1.7.31-7.876-.463-13.743-.926-5.868-2.007-17.912-2.625-26.867s-1.698-17.14-2.625-18.22c-2.007-2.471-88.322-2.78-89.866-.155-3.705 5.868-7.102 60.065-3.86 60.065.927 0 2.007-1.235 2.47-2.78.464-1.389 2.934-7.411 5.405-13.279 2.47-5.867 4.478-11.426 4.478-12.507 0-.926 1.853-3.397 4.014-5.558l4.17-3.706-.927 5.404c-.463 2.934-1.39 9.573-1.853 14.669-.926 9.11-3.397 23.779-7.72 44.779-1.236 5.867-3.397 16.985-4.787 24.705-1.544 7.566-3.397 14.823-4.323 15.904-1.081 1.544-3.706 1.853-10.037 1.081-14.669-1.853-29.338-7.412-50.028-19.147-16.522-9.264-53.735-22.852-85.234-31.036-10.191-2.625-21.309-6.176-24.551-7.875-5.713-2.933-18.684-12.507-27.022-19.764-3.86-3.397-4.478-6.485-11.735-55.742-1.235-8.955-3.397-22.08-4.632-29.337s-3.243-20.846-4.632-30.11c-3.243-22.698-6.64-44.933-9.265-61.764-3.088-18.992-6.485-41.69-9.264-60.991-1.39-8.956-3.397-22.08-4.633-29.338-3.242-19.147-3.705-24.242-2.779-25.323 1.698-1.698 12.816-.926 17.911 1.235 4.942 2.008 5.25 2.78 7.875 15.75 5.868 30.727 10.346 54.66 14.052 75.506 2.47 14.051 4.786 26.713 9.11 49.41a3958 3958 0 0 1 4.786 27.022c1.39 8.03 3.552 18.993 4.787 24.243s2.162 11.117 2.162 12.97c0 2.007.926 7.72 2.161 12.816 1.236 5.25 3.397 16.367 4.787 24.86s3.552 19.918 4.632 25.477c1.236 5.559 2.625 13.28 3.089 17.14.463 4.014 2.161 8.183 3.55 9.418 3.244 2.934 17.45 7.567 19.302 6.331 1.544-.926.154-9.573-2.625-16.522-2.934-6.794-5.559-15.44-5.559-18.065 0-1.236 2.934-3.552 6.486-5.25 5.713-2.78 24.087-22.235 24.396-25.787 0-.617 2.007-4.014 4.478-7.72s7.412-12.198 10.963-18.992 8.184-15.287 10.345-18.993l3.706-6.485h16.83c9.11 0 17.758-.463 19.147-.926 1.699-.618 2.471-2.934 2.471-7.566 0-3.706.926-7.412 2.162-8.338 1.39-1.236 29.492-1.544 102.218-1.39l100.212.463.772 8.493.772 8.492 17.911.463c20.845.464 19.456-.463 29.492 18.838 17.912 33.97 35.823 57.904 45.551 60.837 1.698.618 3.706 2.008 4.169 3.243s-1.699 9.265-4.632 17.911c-3.088 8.802-4.941 16.213-4.17 16.985 1.39 1.39 7.103-.154 16.986-4.169 4.169-1.698 5.095-3.088 6.485-10.19 2.47-12.044 6.485-33.353 7.875-42.154.617-4.324 2.316-13.28 3.551-20.073 5.868-30.264 9.11-48.485 10.345-56.36.618-4.632 2.008-11.58 2.78-15.44.926-3.86 2.78-13.588 4.169-21.618 2.625-14.823 5.25-29.955 9.264-50.955 1.236-6.33 3.397-17.911 4.633-25.477 1.39-7.72 3.551-18.838 4.632-24.706 1.235-6.022 2.47-14.05 3.088-17.91.463-4.17 2.162-8.339 3.86-9.883 3.089-2.78 20.691-5.096 22.08-2.934.773 1.235-.462 9.728-5.867 43.08-2.933 18.22-6.33 40.919-9.264 60.992-2.78 18.992-6.177 41.536-9.42 60.991-1.234 7.566-3.242 21.154-4.477 30.11-5.25 35.36-10.191 67.168-13.125 84.925-1.698 9.573-5.404 13.742-23.161 26.404-9.573 6.794-14.051 8.647-37.058 14.669-27.794 7.257-65.933 21.617-84.616 31.808-19.765 10.963-32.272 15.44-47.713 17.448-2.026.27-3.632.452-4.934.427m154.78-119.003c-2.395-.048-10.65-5.55-18.907-12.826-10.19-9.11-24.088-32.271-34.742-58.212-2.625-6.64-1.39-6.177-22.544-6.33l-16.213-.155-.463-33.816-.309-33.815 12.662 1.08c41.69 3.552 46.631 3.86 48.33 2.471 1.235-.926 2.162-12.198 2.934-31.963.617-16.83 1.698-35.668 2.316-41.999l1.08-11.426 11.581-10.5 11.427-10.5 12.352-.463c6.794-.309 13.588.154 15.132.772 3.706 1.699 4.015-1.853-10.5 86.778-1.235 7.566-3.396 20.845-4.632 29.338-1.39 8.492-3.397 21.617-4.786 29.337-5.713 35.669-6.949 42.617-9.11 55.433-1.236 7.72-1.853 14.36-1.236 14.978.772.617 3.397 1.39 5.868 1.698 4.014.463 4.632 1.081 4.478 5.096-.31 7.103-3.089 23.779-4.17 24.86q-.174.172-.548.164m-412.153-1.358q-.265 0-.497-.041c-2.624-.464-6.64-16.677-6.021-23.625.308-3.706 1.235-4.787 5.095-5.404 4.478-.772 4.632-1.081 4.17-9.265-.155-4.632-1.082-11.58-1.854-15.44s-2.78-16.677-4.632-28.566c-1.699-11.89-4.17-27.485-5.404-34.742-3.706-21.926-6.64-40.147-9.265-57.131-3.242-21.155-6.485-40.919-9.419-56.977-2.316-12.353-2.316-13.28.309-15.132 2.934-2.162 20.073-2.625 26.404-.773 1.853.618 8.492 5.868 14.669 11.89l11.426 10.809 1.698 40.764c1.39 29.955 2.317 41.227 3.86 42.77 2.008 1.854 11.273 1.545 47.713-1.698 11.426-1.08 11.735-1.08 12.662 2.47 1.698 6.023 1.235 56.514-.464 60.992l-1.698 4.17-16.213-.927-16.059-.927-3.86 6.022c-2.162 3.397-3.86 6.794-3.86 7.566 0 2.934-11.58 24.706-19.456 36.595-8.227 12.416-23.844 26.57-29.304 26.6M503.998 744.2c-6.35 0-12.907-.01-19.605-.03-76.74 0-97.895-.464-98.976-1.854-.617-1.08-1.235-16.676-1.235-34.587v-32.426l6.33-19.301c6.795-20.846 8.648-23.78 15.905-25.941 2.625-.772 8.338-2.78 12.507-4.478 4.324-1.698 8.493-3.242 9.573-3.242 2.625-.155 6.64 6.021 6.64 10.345 0 2.007 1.08 7.875 2.316 13.125s2.625 11.426 3.088 13.742c1.699 8.801 2.162 8.956 44.47 8.956 21.463 0 39.683-.618 40.61-1.235 1.544-1.081 3.86-9.11 9.264-32.426 1.39-6.177 3.088-11.581 3.86-12.044.772-.31 4.633.309 8.647 1.544 21.154 6.64 26.713 9.728 26.713 14.978 0 1.544.926 5.095 2.162 7.874 7.72 17.757 8.647 24.706 8.647 60.683 0 20.228-.618 34.897-1.544 35.514-.676.405-34.926.81-79.372.802zm-312.364-47.434-9.11-1.235c-10.963-1.39-25.632-8.184-33.352-15.75-13.125-12.816-19.301-37.521-26.713-106.696-5.25-49.874-1.544-90.33 10.037-108.087 1.235-1.853 3.551-3.397 4.94-3.397 3.707 0 4.015 2.317 5.096 37.83 1.081 32.426 4.17 54.352 9.265 64.08 1.544 2.934 7.411 10.654 12.97 16.985 11.426 12.816 10.5 10.037 17.757 54.043 5.868 35.36 7.103 43.08 8.03 52.345zm591.488-.742c-5.914.089-5.926-3.099-3.19-17.17 1.235-6.948 3.551-19.61 4.941-28.102s3.397-21 4.632-27.793c1.081-6.794 2.625-15.904 3.089-20.074 1.235-9.264 2.316-11.271 9.264-18.837 9.11-9.728 16.985-21 18.992-26.713 3.089-9.265 6.486-39.838 7.412-67.168.463-14.514 1.08-27.176 1.544-28.257.927-3.088 3.397-2.162 7.412 3.088 15.75 20.846 16.83 79.058 3.088 163.365-5.096 30.882-11.118 45.242-22.853 54.043-9.882 7.257-20.536 12.044-30.418 13.28-1.52.192-2.818.321-3.913.338m-179.707-16.5q-.36-.02-.435-.36c-.464-1.236-1.853-7.721-3.398-14.515-4.94-22.235-8.492-35.514-11.735-44.16-1.698-4.633-3.705-10.037-4.477-12.2-3.243-10.036-13.434-26.403-19.92-32.116-7.102-6.177-19.146-10.654-46.167-17.294-10.037-2.47-8.03-5.713 6.64-11.118 6.793-2.47 15.903-5.558 20.072-6.64 19.61-5.712 60.837-13.124 71.955-13.124 3.706 0 15.904-1.08 26.867-2.316 11.117-1.39 29.183-3.551 40.146-4.787 54.97-6.485 97.896-20.073 120.594-37.83 11.735-9.264 12.198-8.647 11.58 15.596-.617 31.036-7.72 61.145-16.522 70.564l-3.86 4.17-54.352.154c-62.226.154-59.138-.463-76.278 15.132-4.94 4.478-11.271 10.345-14.205 12.816-2.78 2.47-6.485 6.33-8.03 8.647-2.933 4.014-7.566 24.242-7.566 32.889 0 6.022-7.102 15.904-20.381 28.411-5.52 5.27-9.104 7.99-10.42 8.08zm-238.668-1.983c-2.784-.046-7.244-3.874-14.844-11.811-12.661-13.28-14.36-17.14-16.213-38.14-1.08-12.197-3.242-15.903-15.595-27.638-29.646-28.103-23.779-26.404-88.63-26.404-60.066 0-56.823.617-63.308-12.198-6.64-13.125-12.044-45.397-12.044-73.036 0-6.485.618-11.272 1.544-11.272.772 0 4.941 2.47 9.11 5.405 20.536 14.823 52.036 26.558 90.484 33.815 18.992 3.552 87.24 11.735 97.895 11.735 11.735 0 53.889 7.412 68.866 12.044 20.537 6.33 37.83 13.28 37.367 14.823-.617 1.699-5.25 3.397-22.698 8.03-17.602 4.786-28.874 10.808-35.668 19.61-12.816 16.058-25.478 50.954-31.963 87.55-.84 4.967-1.996 7.525-4.303 7.487M485.01 551.16c-1.699 0-10.807-4.169-24.086-10.963-3.552-1.853-31.963-11.118-43.543-14.36-20.073-5.25-31.5-6.948-101.139-14.051-48.02-4.941-85.541-11.891-101.6-18.685-2.779-1.235-5.714-2.16-6.64-2.16-4.015 0-30.881-14.516-39.065-21.155-15.132-12.199-15.443-13.124-13.435-41.844 2.47-35.978 6.332-65.47 13.435-104.536 4.478-24.551 6.949-37.211 9.265-44.932 1.235-4.323 2.16-9.111 2.16-10.655s.927-6.33 2.162-10.654a674 674 0 0 0 4.786-17.911c6.177-24.088 12.972-42 19.303-50.801 3.55-5.25 14.513-10.654 26.248-13.434 5.714-1.235 9.305-1.852 13.05-1.852 3.744 0 7.642.617 13.973 1.852 14.36 2.934 35.204 10.81 71.026 27.023 14.36 6.33 132.33 65.622 143.14 71.644 8.646 4.94 13.123 5.252 20.071 1.237 8.492-5.095 32.426-17.448 77.667-39.992 43.698-21.926 60.375-29.801 89.558-42.771 5.25-2.317 24.552-10.038 33.97-13.59 13.125-4.786 26.712-6.33 38.447-4.168 11.581 2.007 28.412 9.728 29.956 13.743.464 1.39 1.698 3.55 2.624 4.786 2.625 3.243 10.655 24.86 13.897 37.058 1.39 5.559 3.397 13.434 4.632 17.758 1.081 4.169 3.089 12.97 4.479 19.3 1.39 6.331 3.55 15.75 4.786 20.845 5.096 22.699 10.191 51.882 13.743 77.978 1.235 9.727 3.088 23.623 4.015 30.88 1.08 7.258 2.163 23.626 2.626 36.287l.925 23.162-7.566 7.256c-11.118 10.654-15.595 13.742-31.499 21.463-19.3 9.418-47.404 16.83-82.61 21.926-27.484 4.015-55.124 7.258-61.763 7.258-8.184 0-51.417 5.558-64.079 8.337-27.176 5.868-48.33 12.817-67.013 21.927-7.721 3.706-14.825 6.794-15.906 6.794m48.441-70.214c1.249-.014 2.042-.186 2.36-.504 1.544-1.545-.772-14.362-5.867-33.818-1.235-4.323-2.162-9.728-2.162-12.044 0-4.94-4.014-13.123-6.639-13.123-.926 0-7.72-2.472-14.978-5.406-7.257-2.934-14.514-5.404-16.213-5.25-1.698 0-10.191 2.78-18.992 6.331-13.588 5.405-15.905 6.949-16.677 10.346-.463 2.161-1.853 8.184-2.934 13.28-2.007 8.646-6.33 28.257-7.873 35.669-.927 4.94 2.624 5.556 15.285 2.777 15.596-3.551 46.168-3.397 62.69 0 5.573 1.216 9.617 1.768 12 1.742m-280.502-17.33c.753 0 1.52 0 2.302-.01 18.993-.154 26.403-.925 40.917-4.322 23.78-5.404 27.795-6.33 33.2-8.337 2.625-.926 11.58-4.17 20.072-7.104 23.006-8.338 26.095-10.036 27.022-15.44 1.39-7.72-1.544-31.5-4.786-39.838-4.324-11.117-12.972-22.08-20.538-26.558-8.089-4.735-25.67-9.96-39.182-12.402a57.9 57.9 0 0 1 32.991 52.271 57.903 57.903 0 0 1-57.903 57.903 57.903 57.903 0 0 1-57.903-57.903 57.9 57.9 0 0 1 47.851-57.023c-.762-.194-1.643-.294-2.788-.294-2.896 0-7.45.617-15.865 1.852-16.83 2.625-28.258 8.184-39.22 19.147-8.802 8.8-17.139 23.006-19.455 33.66-.617 2.471-2.008 7.413-3.243 10.81-1.081 3.551-2.162 12.044-2.317 18.993-.463 13.896 1.081 16.676 12.816 24.242 12.565 8.078 22.668 10.357 46.029 10.351zm460.965-.159h1.475c25.014 0 33.506-1.853 48.02-10.345 13.125-7.72 15.134-14.669 10.81-37.83-8.03-42.308-27.64-63.462-63.463-68.867-9.071-1.35-12.714-1.918-15.301-1.852-.957.025-1.776.147-2.665.337a57.9 57.9 0 0 1 45.64 56.59 57.903 57.903 0 0 1-57.904 57.903 57.903 57.903 0 0 1-57.903-57.904 57.9 57.9 0 0 1 29.13-50.247c-11.467 2.3-24.612 5.956-29.935 8.763-7.566 3.86-17.45 15.13-21.619 24.24-4.632 10.345-7.719 26.868-7.256 38.603.463 11.272.154 10.963 17.448 17.448 44.535 16.872 72.61 23.12 103.523 23.164zM485.166 263.96c-2.934 0-5.25-1.08-34.588-16.367-36.904-19.456-114.417-57.75-116.579-57.75-.463 0-5.095-2.007-10.5-4.477-20.227-9.573-23.933-10.963-41.227-16.985-19.764-6.64-29.337-8.03-46.168-6.485-8.647.772-11.426.617-12.044-.927-.926-2.161 15.441-23.16 34.279-44.16 22.235-24.706 67.785-62.227 92.645-76.124 21.463-12.044 39.374-20.382 61.764-28.875 3.397-1.235 7.72-2.316 9.728-2.47l3.397-.155v123.528l4.014 1.544c2.316.926 26.25 1.544 56.823 1.544 42.462 0 53.425-.463 54.815-2.008 1.08-1.544 1.853-21.154 2.007-62.998l.463-60.838 4.633.155c2.624.154 7.102 1.08 10.036 2.162C614.097 32.809 661.5 64.772 707.67 112.793c18.529 19.146 37.83 43.543 37.83 47.558 0 .772-7.875 1.39-18.838 1.39-22.08-.155-30.264 2.007-64.543 16.367-31.036 13.125-119.204 56.205-160.894 78.594-7.257 4.014-14.514 7.257-16.058 7.257m13.793-140.728c-4.533 0-9.634-.035-15.338-.093l-43.08-.463-.463-58.984-.309-59.139 3.397-.617c2.008-.463 6.64-1.544 10.5-2.316 16.985-3.397 67.94-1.081 75.506 3.551 2.78 1.698 2.47 114.263-.463 116.579-1.13 1.003-10.107 1.497-29.75 1.482" style="stroke-width:1.06667"/>
</svg>
