<svg xmlns="http://www.w3.org/2000/svg" width="1120" height="960">
    <path d="M560.662-74.927c-.799 7.59-1.797 17.576-1.997 22.57-1.198 20.572-5.193 57.522-6.99 65.911-1 4.993-1.798 14.38-1.798 20.972-.2 12.184-4.594 36.151-9.188 48.934-5.792 16.578-7.39 21.372-8.988 26.964-2.596 9.587-6.191 19.574-9.187 25.566-1.598 3.195-2.797 6.59-2.797 7.39 0 3.712-22.942 40.372-27.948 44.894-.38.343-.792.676-.792.676s-.561-.46-.835-.646c-5.211-3.56-11.19-24.547-15.364-54.91-1.598-12.584-2.996-27.364-2.996-32.557s-1.199-15.979-2.797-23.968c-1.597-7.99-3.395-19.773-4.194-26.365-1.198-12.383-4.37-29.569-6.391-34.953-.253-.674-.728-1.964-.728-1.964s-.88 2.003-1.247 3.263c-1.343 4.618-2.484 16.09-2.62 28.661 0 9.388-.998 22.77-1.996 29.96-1.199 7.19-3.396 27.763-4.994 45.938-1.797 18.176-3.994 37.95-5.193 43.941-1.198 5.992-2.796 30.76-3.795 54.927-1.997 58.321-1.797 57.722-29.16 88.081-7.59 8.39-14.98 16.978-16.379 18.975-1.088 1.555-2.904 2.99-4.409 3.548-.197.074-.384.362-.384.362s-.609-.114-.8-.114c-1.797 0-10.385-7.19-19.373-15.78-8.988-8.788-21.97-21.17-28.761-27.762-11.186-10.786-32.557-26.365-47.537-34.554-8.189-4.594-27.363-15.38-30.958-17.776-1.598-.999-7.59-4.194-13.382-6.99-5.593-2.797-10.985-5.992-11.585-6.991-1.997-3.196-17.177-2.397-21.171 1.198-2.996 2.797-4.394 2.397-16.179-2.996-8.987-4.394-15.978-6.191-22.769-6.191-5.393 0-11.584-1.199-13.781-2.797-10.586-7.19-27.364-15.18-31.758-15.18-3.386 0-5.87-.05-9.514-1.25 0 0 4.025 5.403 6.843 7.56 3.38 2.585 9.224 5.91 17.451 9.869 5.992 2.996 12.783 7.19 14.78 9.587 2.198 2.397 4.994 4.195 6.392 4.195s4.594 2.596 7.19 5.991c2.397 3.196 5.992 5.992 7.99 5.992 6.99 0 18.575 7.99 32.156 22.37 12.783 13.582 13.582 14.98 12.384 21.571-.8 3.795-1.728 7.63-2.197 8.39-.549.888-1.087 2.615-1.087 2.615s-3.43-1.197-4.623-1.935c-1.243-.768-2.465-2.013-3.478-3.677-4.394-6.591-15.779-17.376-21.77-20.372-3.995-2.198-5.793-2.198-7.59-.4-1.598 1.598-2.797 1.598-4.594-.2-1.517-1.517-3.71-2.269-5.743-2.277-3.015-.053-5.204.42-7.78-1.25 0 0 2.297 6.625 2.884 8.38 1.462 4.373 6.455 10.709 16.43 21.112 11.186 11.785 12.784 14.182 11.585 19.175-.18.901-1.06 1.18-1.06 1.18s1.26 3.137 1.788 4.163c1.875 3.632 6.975 9.022 18.846 21.021 11.385 11.585 30.36 33.955 42.343 49.933s23.768 31.159 26.165 33.955c33.355 38.548 37.95 44.54 56.924 73.102 15.579 23.368 16.378 24.367 24.766 39.946 2.797 5.393 6.791 12.184 8.589 15.18 1.798 2.796 10.186 16.178 18.375 29.56 8.19 13.182 16.578 26.564 18.376 29.56 3.595 5.793 10.186 17.377 16.178 28.362 1.997 3.795 5.393 9.587 7.39 12.983 1.997 3.196 5.992 9.986 8.588 14.98 2.797 4.993 6.791 12.183 9.188 15.978 2.197 3.795 4.794 8.389 5.593 9.987.798 1.598 3.595 6.99 6.59 11.984 6.592 11.385 16.379 35.352 20.973 50.931 1.997 6.592 4.793 15.58 5.991 19.974 1.399 4.394 4.195 13.382 5.992 19.973 1.998 6.591 4.594 15.18 5.992 18.974 2.397 6.791 4.994 15.58 11.585 37.95 5.393 18.175 9.387 36.95 9.387 43.341 0 3.196 1.398 10.386 2.996 15.779s2.996 13.582 2.996 18.376c0 9.786 4.594 45.139 8.988 69.306 1.598 8.789 3.396 25.366 3.995 36.95s1.807 22.968 2.397 25.367c.685 2.788 3.544 7.074 3.544 7.074s3.865-4.632 5.643-8.872l2.597-6.192 2.996 4.794c2.197 3.395 3.595 11.784 4.194 27.363.6 12.583 1.998 23.569 3.196 24.767.421.422 1.616 1.515 1.616 1.515s.488-1.308.89-2.29c1.06-2.597 1.837-8.939 2.687-20.596 2.596-39.947 8.788-85.086 14.38-107.056 1.598-5.992 2.797-15.18 2.797-20.173 0-10.786 4.993-36.751 9.587-50.533 1.198-3.395 3.196-11.784 4.594-18.974 5.792-31.358 8.189-40.546 15.779-59.92 2.396-5.992 4.993-13.781 5.992-16.977.998-3.395 2.796-9.188 4.194-12.983 1.198-3.795 3.395-10.186 4.794-13.98 1.398-3.796 4.394-12.784 6.59-19.974 8.789-27.163 17.377-47.137 26.365-60.918 2.197-3.396 4.794-7.79 5.992-9.987s3.795-6.79 5.992-9.986c2.197-3.396 4.794-7.79 5.992-9.987s3.795-6.79 5.992-9.987c2.197-3.395 4.794-7.79 5.992-9.986s3.795-6.791 5.992-9.987c2.197-3.395 4.794-7.79 5.992-9.986 2.197-4.594 3.795-6.991 15.58-24.567 4.593-6.991 8.388-12.983 8.388-13.382 0-.2 6.591-10.386 14.58-22.37 18.975-28.762 18.975-28.962 21.371-33.555 1.199-2.197 3.796-6.791 5.992-9.987 2.198-3.395 4.594-7.39 5.393-8.988 1.199-2.596 21.172-30.36 27.164-37.949 1.398-1.598 5.992-7.59 9.986-12.983 6.791-8.788 28.961-34.154 37.35-42.542 2.996-2.996 9.787-11.585 33.955-42.743 6.99-9.188 22.17-25.765 33.355-37.15 15.18-15.18 20.572-21.97 20.572-25.766 0-3.395 3.795-8.788 11.984-17.177 4.606-4.776 7.427-7.767 8.899-9.814 1.032-1.436 2.144-3.732 2.144-3.732s-1.586-.77-2.454-1.434c-1.81-1.382-3.512-4.987-3.596-7.989-.078-2.826-.931-5.846-.931-5.846s-2.897.014-4.261-.146c-3.004-.333-6.394.997-8.789 3.595-3.631 3.941-8.857 4.134-8.857 4.134s-.118-4.996 2.865-8.927c2.584-3.405 2.597-4.394 0-8.389-2.796-4.394-2.596-4.993 5.593-11.384 4.594-3.795 10.985-7.39 13.981-8.19 3.395-.798 6.192-3.195 7.39-6.191.999-2.797 3.396-4.993 5.193-4.993 1.798 0 6.591-2.397 10.586-5.593 3.995-2.996 8.988-6.391 11.185-7.59s3.995-3.995 3.995-5.992c0-.924-.055-2.555-.055-2.555s-2.906-1.583-4.417-1.879c-2.695-.527-5.939.238-7.711 2.637-1.998 2.596-4.195 3.195-10.187 1.997-6.79-.999-8.988-.4-16.577 5.393-4.994 3.595-11.984 7.59-15.38 8.988-5.992 1.997-6.591 1.797-6.591-1.598 0-1.998 1.797-4.594 3.995-5.792 2.197-1.199 3.994-2.996 3.994-3.995 0-.66.058-1.39.058-1.39s-2.655-.673-4.34-.406c-3.656.581-9.583 2.923-17.49 6.989-11.184 5.592-15.379 6.79-20.372 5.792-3.395-.799-6.79-.599-7.59.2-.599.999-3.795 3.595-7.19 5.992-19.574 13.582-33.355 22.77-34.354 22.77-.6 0-4.394 2.396-8.389 5.392-3.994 3.196-8.788 6.392-10.586 7.59-13.98 8.588-30.958 21.57-47.336 36.75-22.138 20.594-34.839 31.16-38.863 32.588-.317.112-.85.48-.85.48s-.326-.383-.433-.511c-19.37-23.173-25.965-32.357-24.767-34.953.6-1.998-2.796-7.19-9.787-14.98-5.992-6.591-11.784-13.582-12.982-15.58-3.595-6.99-6.392-31.557-5.992-52.728.4-22.17-2.797-56.325-6.192-67.91-1.198-3.794-2.197-14.58-2.197-23.967s-1.398-24.567-2.996-33.955S681.5 73.075 681.5 61.69c0-14.58-.999-23.568-3.395-30.36-1.283-3.446-2.565-6.153-3.667-7.887-.88-1.384-2.557-3.19-2.557-3.19s-.507 1.517-.567 2.69c-.05.996-.8 10.984-1.798 22.569-1.997 26.165-5.193 42.742-10.186 52.33-2.197 4.194-4.594 13.98-5.792 21.97-5.593 43.542-6.592 51.53-7.79 63.315-.6 7.19-2.194 13.19-3.196 13.582-.134.053-.42.295-.42.295l-1.497-1.464c-2.027-1.984-5.145-6.262-8.07-11.414-4.393-7.19-9.586-15.58-11.384-18.376-8.189-12.782-19.773-39.147-23.568-54.327-.999-3.795-3.795-11.984-6.192-17.976-2.197-5.992-4.993-14.58-5.992-18.974-.799-4.394-2.597-11.185-3.795-14.98-.999-3.795-1.997-13.182-1.997-20.972 0-7.59-.999-17.576-2.197-21.97-1.598-6.791-4.195-32.956-9.188-92.476-.406-5.05-1.048-8.581-1.804-10.614-.494-1.329-1.552-3.461-1.552-3.461s-1.242 1.99-1.826 3.361c-.918 2.156-1.773 6.068-2.407 11.712zm6.99 303.792c0 1.997 1.4 5.393 2.997 7.59 1.598 1.997 2.996 4.793 2.996 6.192 0 1.198 4.993 9.387 10.985 17.975s12.37 17.984 13.981 20.972c1.144 2.119 2.578 5.293 2.578 5.293s-.87 1.694-1.321 2.845c-1.325 3.377-4.77 8.62-11.643 19.026-4.793 6.99-8.588 13.182-8.588 13.981-.168 3.021-7.106 9.992-10.74 11.548-.69.296-1.412.636-1.412.636s-.664-.662-.993-.974c-5.677-5.392-32.856-45.475-34.191-50.757-.048-.191-.38-.775-.38-.775s.62-1.156.92-1.942c1.389-3.642 5.084-10.087 9.646-16.857 6.192-8.988 13.182-21.171 15.579-27.363 1.649-3.972 3.41-7.045 4.968-8.943 1.245-1.517 3.35-2.875 3.35-2.875s1.27 2.029 1.269 4.428M488.36 366.081c16.172 23.44 22.314 32.665 24.405 37.252.723 1.588 1.719 3.451 1.719 3.451s-1.261 1.686-2.145 3.173c-5.2 8.75-23.556 31.103-29.817 36.04-.797.629-2.079 1.6-2.079 1.6s-1.34-1.034-2.335-1.735c-2.482-1.749-5.414-5.313-7.124-8.876-3.396-7.39-15.979-26.365-27.164-40.746l-8.988-11.784 4.794-3.195c2.796-1.798 7.99-4.195 11.584-5.194 4.794-1.398 8.19-4.394 11.185-9.786 4.353-7.836 7.547-12.193 10.347-13.837.59-.346 1.764-1.358 1.764-1.358s.838.561 1.271.614c1.599.195 7.19 6.791 12.583 14.38m175.565-7.39c.43.986 8.588 8.588 18.575 17.177 9.787 8.388 18.525 16.4 19.174 17.776.13.276.667 1.149.667 1.149s-.648.983-.94 1.683c-.838 2.02-2.68 4.75-5.12 7.554-7.59 8.588-24.95 33.76-27.163 39.347-.842 2.125-3.319 4.277-3.319 4.277s-3.572-1.747-5.193-2.946c-4.565-3.378-9.065-10.975-9.065-18.508 0-5.193-2.396-9.187-11.185-18.775-3.95-4.415-6.887-8.155-8.456-10.825-1.128-1.92-2.023-3.479-2.023-3.479s1.443-1.386 1.997-2.259c2.072-3.265 6.55-10.142 11.279-17.391 8.388-12.583 11.984-16.378 15.38-16.378.785 0 4.127-.13 4.127-.13s1.016 1.157 1.265 1.728M584.83 475.334c13.382 11.385 18.575 14.78 37.15 24.767l5.393 2.796-4.394 7.19c-2.397 3.995-5.992 9.588-7.79 12.384-1.997 2.996-4.394 7.19-5.592 9.387-1.199 2.197-3.795 6.592-5.992 9.987-2.197 3.196-4.594 7.39-5.193 8.988-.6 1.598-2.397 5.992-3.995 9.387-8.189 18.975-12.184 30.16-14.58 39.547-.8 3.396-2.597 7.99-3.795 10.386-1.398 2.397-2.397 6.791-2.397 9.987 0 2.996-.952 7.02-1.997 8.588-.822 1.233-2.054 2.724-2.054 2.724s-1.697-1.886-3.14-3.722c-1.678-2.136-3.395-6.192-3.994-8.988-4.194-21.771-20.373-65.712-30.759-83.888-2.996-4.993-5.792-10.386-6.59-11.984-.8-1.597-3.596-6.79-6.193-11.384l-4.593-8.19 5.592-4.194c2.996-2.396 5.992-4.194 6.591-4.194 1.798 0 18.176-11.784 24.367-17.576 5.926-5.458 12.947-11.16 16.312-13.397.945-.629 1.864-.984 1.864-.984s1.227.685 2.803 1.866c2.927 2.195 7.783 6.103 12.976 10.517m-21.172 561.047c0 2.559-2.631 4.532-2.631 4.532s-1.639-1.517-2.362-2.734c-1.437-2.42 1.92-7.941 1.92-7.941s.606.646 1.076.95c.978.633 1.997 2.996 1.997 5.193" style="stroke-width:1.2"/>
</svg>
