<svg xmlns="http://www.w3.org/2000/svg" width="1267" height="960">
    <path d="M974.954 791.488c-9.14 4.038-19.555 16.58-22.53 27.207-4.04 15.73 4.888 34.647 20.405 43.574 30.82 17.43 68.869-16.366 55.265-48.888-3.614-8.715-14.454-20.193-21.681-22.956-7.44-2.763-24.019-2.125-31.459 1.063M259.7 76.658c-23.381 14.028-27.845 42.298-9.778 61.428 24.87 26.57 67.168 9.14 67.168-27.632 0-10.84-2.763-17.43-11.478-27.207-9.99-11.479-32.521-14.667-45.912-6.59m258.044 164.519c-1.913 13.39.213 24.444 7.865 41.236 3.614 7.652 8.715 18.705 11.478 24.657 2.551 5.739 7.865 17.004 11.478 25.081 3.614 7.865 6.59 14.667 6.59 15.092s3.613 8.927 8.29 18.705c4.463 9.565 10.84 23.806 14.028 31.459s6.59 14.879 7.865 16.366c1.275 1.7 1.275 4.039-.213 6.802-6.377 11.69-18.705 6.59-81.622-34.647-32.096-21.043-37.197-19.767-15.091 4.039 42.299 45.7 40.385 52.29-9.778 34.01-4.039-1.489-18.918-6.378-32.946-10.629-14.03-4.25-27.633-8.502-30.396-9.777-5.952-2.339-15.304-2.551-15.304-.213 0 .85 8.927 6.377 19.768 12.116 10.627 5.739 21.468 11.69 23.806 13.178s5.74 3.189 7.44 4.039c3.826 1.913 41.66 22.531 54.84 29.97 8.927 5.102 9.14 5.315 5.526 9.353-1.913 2.338-6.164 5.314-9.14 6.802-12.966 6.59-65.893 35.285-79.922 43.362-4.676 2.55-10.415 5.739-12.753 6.802-2.338 1.275-6.59 4.038-9.565 6.376-8.077 6.59-.638 5.527 23.381-2.976 7.014-2.55 18.705-6.376 66.318-21.043 20.83-6.59 28.057-6.59 28.908-.212.637 4.038-5.527 11.478-38.686 47.187-5.101 5.74-5.739 7.015-2.976 8.078 2.126.85 14.03-5.527 31.884-16.792 53.565-34.435 61.854-38.686 70.57-36.56 6.801 1.7 8.714 8.29 4.675 15.516-3.188 6.165-3.613 7.227-24.656 54.84-7.44 16.367-17.005 37.623-21.469 47.4-4.676 9.778-8.29 18.068-8.29 18.493 0 .638-2.337 5.952-5.1 12.116-5.952 13.178-8.078 25.081-6.165 36.347 1.7 11.053 6.802 10.415 20.618-2.763 9.14-8.715 12.754-14.454 20.406-32.309 5.101-12.116 12.753-29.545 17.004-38.898 4.464-9.352 10.203-22.318 12.966-28.695 18.918-44.212 26.357-46.975 32.522-12.116 8.927 49.738 10.415 58.028 12.115 59.729 2.339 2.763 5.102-5.314 8.078-24.232 9.352-57.603 9.777-59.516 17.43-59.516 3.613 0 11.265 13.816 26.994 48.888 2.338 5.314 8.077 17.855 12.754 27.845s9.14 20.618 9.99 23.382c2.125 6.589 12.966 27.42 16.367 31.67 4.888 5.952 17.854 14.88 21.468 14.88 2.976 0 3.613-2.551 3.613-15.73 0-15.941-2.55-23.806-19.342-60.366-12.966-28.483-20.193-44.424-36.135-80.984-11.69-26.782-12.328-28.908-8.927-32.521 1.913-2.126 5.526-3.826 7.864-3.826 5.952 0 23.594 9.14 46.975 24.444 10.628 6.801 25.72 16.579 33.584 21.68 8.715 5.74 15.942 8.928 17.855 8.29 3.826-1.488 3.614-1.7-14.454-21.468-19.98-21.681-27.632-31.459-26.994-34.86.85-4.25 10.627-5.526 18.492-2.55 2.976 1.063 15.517 5.101 27.845 8.715 12.328 3.826 25.72 7.864 29.758 9.352 21.256 7.865 31.884 11.053 42.512 13.179l5.313 1.275-5.313-4.676c-2.976-2.338-7.227-5.314-9.566-6.59-2.338-1.062-7.014-3.613-10.627-5.739-3.401-2.125-19.343-10.84-35.072-19.555-30.396-16.58-49.526-27.207-56.116-31.033-6.801-4.039-6.801-4.039 44.425-31.671 22.531-12.116 48.463-26.57 52.077-28.696 1.7-1.275 5.313-2.975 8.077-4.25 5.526-2.339 6.164-6.377.85-6.377-2.126 0-12.328 2.763-22.744 6.164-10.628 3.4-29.12 9.14-41.448 12.966-12.329 3.613-25.507 8.077-29.333 9.777-8.077 3.401-18.705 3.826-20.618.85-2.126-3.4 2.55-9.777 23.593-33.158 11.053-12.329 19.98-23.17 19.98-24.232 0-4.676-7.651-1.275-30.395 13.604-31.458 20.618-49.526 31.458-60.366 36.135-8.502 3.826-9.353 3.826-14.454.425-2.976-1.913-5.314-4.252-5.314-5.314 0-1.913 12.541-31.246 24.232-56.115 4.25-9.14 7.652-17.005 7.652-17.43s3.826-9.14 8.715-19.555c28.482-61.43 27.42-58.241 27.42-76.096 0-19.768-2.339-21.043-17.643-8.502-9.777 7.864-12.753 12.115-19.343 27.42-4.25 9.99-11.053 25.507-15.304 34.646-10.628 23.382-14.241 31.459-21.893 48.464-16.792 37.41-23.169 38.26-28.908 4.25-13.391-79.496-13.178-79.496-25.72-3.188-4.038 23.807-5.526 27.633-11.69 27.633-4.464 0-8.502-8.077-42.086-82.26-5.952-13.178-10.84-24.444-10.84-24.87 0-.637-2.339-6.376-5.315-12.753-4.889-10.84-14.241-20.405-25.932-26.57-6.589-3.4-6.589-3.4-8.29 7.228m146.027 191.94c15.092 7.439 35.923 29.332 35.923 38.047 0 6.164-19.343 25.72-32.097 32.521-12.328 6.59-15.091 7.227-31.67 7.227-15.092 0-19.98-.85-29.759-5.526-12.966-6.165-22.956-14.88-31.246-27.42-4.888-7.44-5.1-8.928-2.763-14.667 3.614-8.927 21.468-24.869 34.647-31.033 14.667-6.802 41.874-6.377 56.965.85M957.95 3.536c-24.232 7.44-66.53 26.995-85.66 39.749-11.266 7.44-22.744 9.99-27.208 5.739-6.802-6.59-65.255-26.782-94.376-32.947C709.47 7.575 695.654 6.3 648.679 6.3s-60.792 1.275-102.028 9.777c-28.057 5.952-59.09 15.517-81.834 25.507-20.618 8.928-73.333 36.135-75.458 38.898-1.7 2.126-10.415 6.59-12.754 6.59-1.062 0-5.314-7.227-9.352-15.73-16.58-36.134-50.376-58.665-87.999-58.665-47.4 0-85.448 29.97-97.351 77.158-8.29 32.309 3.613 68.443 30.82 94.163 5.952 5.739 10.841 10.84 10.841 11.69s-5.526 10.84-12.328 22.532c-15.304 25.506-26.995 50.163-37.41 78.22-4.464 11.691-9.353 24.445-11.053 28.27-1.7 3.827-2.976 8.29-2.976 9.991 0 1.7-1.276 6.164-2.976 9.99-1.488 3.826-4.039 11.266-5.314 16.58s-4.251 16.154-6.377 24.444c-14.666 54.202-23.38 124.984-25.081 200.867-1.063 59.94 1.7 132.848 5.314 136.461 4.25 4.252 4.676 2.339 12.115-70.569 3.401-32.52 6.802-58.028 12.754-93.525 1.7-9.99 3.613-21.68 4.251-26.145 1.275-7.864 4.038-10.202 5.952-5.1.637 1.7 2.125 12.327 3.613 24.018 9.778 82.26 39.536 157.08 88.211 221.91 8.503 11.053 16.792 21.468 18.705 23.169 5.527 4.463 4.464 9.777-5.314 26.357-5.1 8.502-10.84 19.13-13.178 23.806-2.126 4.677-4.889 10.416-5.952 12.754-1.275 2.125-3.613 9.352-5.101 15.942-9.778 41.023 4.889 62.491 42.724 62.491 25.082-.212 53.564-9.565 90.974-29.97 8.928-5.102 17.218-9.14 18.28-9.14.85 0 13.179 5.526 26.995 12.54 56.328 27.846 111.168 42.512 177.06 47.188 67.806 4.677 127.535-3.826 195.766-28.27 30.608-11.053 58.24-24.444 90.124-43.574l18.705-11.478 17.43 17.642c26.782 27.42 52.927 37.198 85.873 32.096 26.783-4.038 48.676-17.217 65.043-38.898 17.004-22.743 23.169-50.8 17.217-78.008-4.889-22.531-12.116-34.86-30.608-53.14l-15.942-15.729 4.676-8.927c2.55-4.889 7.652-14.667 11.478-21.681 13.817-25.082 30.821-66.318 42.3-102.028 2.125-7.014 5.1-16.154 6.588-20.193 1.276-4.038 2.976-10.415 3.827-13.816.85-3.613 3.826-14.029 6.376-23.381 11.266-41.449 22.744-112.655 28.058-175.36 3.613-42.086 3.826-147.515.212-151.128-3.613-3.614-6.376 3.188-7.864 21.468-1.7 18.705-8.928 74.608-11.903 91.4-1.063 6.376-3.401 21.256-5.314 32.946-4.89 29.546-6.165 34.01-9.565 34.01-2.339 0-4.04-4.252-5.74-13.817-13.816-78.646-48.888-154.317-99.689-215.108-10.84-13.179-19.98-25.082-19.98-26.145 0-1.275 5.313-10.202 11.903-19.98 41.023-62.492 45.912-107.129 13.178-123.708-9.777-5.102-36.134-5.314-51.651-.425M669.935 22.244c44.637 5.526 82.897 14.666 111.592 26.782 32.947 13.604 44.425 19.768 45.062 23.594.426 1.488-4.25 6.589-9.99 11.053-17.43 13.816-25.507 21.468-25.507 24.231 0 3.189 7.44 1.7 12.541-2.338 2.976-2.55 9.778-6.59 15.092-9.352 1.7-.85 10.415-5.74 19.13-10.84 19.768-11.692 57.816-31.034 70.356-35.498 11.904-4.464 35.285-9.565 42.937-9.565 20.618 0 26.57 17.642 12.116 35.922-6.164 7.865-9.14 16.58-11.69 35.285-2.552 18.28-19.981 49.1-40.812 71.419-7.014 7.44-16.367 20.83-20.83 29.545-14.667 28.483-54.628 63.555-88.212 77.584-17.217 7.227-19.13 8.715-29.97 27.42-5.102 8.29-17.005 23.169-26.783 33.159-15.729 16.154-21.468 25.507-15.516 25.507 5.101 0 85.235-60.154 120.52-90.55 29.333-25.294 85.235-79.921 99.264-97.138 4.464-5.527 9.353-9.99 10.84-9.99 5.74 0 39.111 47.4 56.328 79.708 19.98 37.836 35.072 82.26 45.913 134.974 5.526 26.145 5.526 116.27 0 142.414-13.391 64.405-29.333 106.066-58.879 154.104-18.705 30.396-21.68 33.159-32.734 30.82-11.053-2.337-24.019-7.226-37.835-14.028-10.415-5.314-88.424-52.077-127.534-76.733-9.565-5.952-18.068-11.053-18.918-11.053-4.251-.425-.638 7.864 12.966 29.97 46.338 75.67 68.231 112.443 72.907 122.858 6.377 13.604 14.454 36.985 14.454 41.237 0 1.7-5.951 7.014-12.966 11.903-13.604 9.14-58.453 33.159-67.806 36.135-2.975 1.062-10.628 3.826-17.004 6.376-21.256 8.503-55.903 17.005-87.149 21.469-52.076 7.652-120.945 3.188-172.171-10.84-33.797-9.353-68.019-22.957-68.019-26.996 0-.85 4.039-5.526 8.928-10.628 4.889-4.888 8.077-9.777 7.227-10.627-1.488-1.7-8.503 1.7-32.096 15.516-56.54 32.947-79.71 43.575-110.105 50.589-15.517 3.614-17.005 3.614-25.72.425-14.454-5.526-15.941-16.58-4.25-31.884 6.163-8.077 8.076-13.178 10.415-27.42 4.463-27.632 21.468-59.94 42.298-80.559 6.165-6.164 14.88-18.067 19.343-26.144 4.251-8.29 11.266-19.555 15.73-25.082 14.666-19.343 51.65-47.4 75.032-56.54 6.802-2.764 13.816-6.377 15.942-8.503 4.251-3.826 13.391-16.367 13.391-18.28 0-3.613 14.029-20.83 28.483-35.072 14.666-14.453 18.492-20.405 14.879-23.806-1.488-1.7-22.106 12.541-61.854 42.299-46.125 34.647-74.82 59.729-119.458 104.153-21.468 21.468-39.96 38.898-41.023 38.898-2.763 0-12.966-11.265-29.333-33.159-39.323-52.289-68.869-115.844-81.622-175.147-9.353-44.637-10.203-53.14-9.14-103.303.425-26.782 2.125-54.415 3.4-61.43 5.102-25.293 9.14-42.723 12.33-53.138 14.028-47.188 43.148-107.13 53.564-110.53 4.888-1.488 40.385 8.29 59.94 16.792 13.392 5.951 51.44 28.057 100.753 58.666 25.507 15.941 52.714 31.883 54.415 31.883 3.826 0 1.7-4.25-15.517-32.734-9.778-15.941-18.918-31.033-20.406-33.796-1.487-2.55-4.463-7.227-6.376-10.416-13.604-21.255-35.497-58.878-40.174-68.23-2.975-5.952-6.164-12.754-7.227-14.667-2.975-5.952-9.777-27.42-13.603-43.787-3.614-14.666-3.614-15.517 0-19.555 7.652-8.29 33.796-23.807 59.516-35.072 3.613-1.488 12.753-5.74 20.83-9.353 7.865-3.613 15.092-6.589 16.367-6.589 1.063 0 5.102-1.275 8.928-2.976 18.705-7.864 57.815-16.154 100.54-21.255 17.217-1.913 60.366-.85 83.96 1.913m-371.55 19.342c19.767 7.227 31.67 16.367 40.598 30.609 26.144 41.873 6.59 93.525-40.811 108.404-16.155 5.101-23.807 5.314-37.623.85-14.879-4.676-21.893-8.715-32.309-18.705-39.11-37.41-24.444-101.602 27.845-120.52 13.604-4.889 30.396-5.101 42.3-.638m723.12 720.145c25.719 12.328 41.66 37.197 41.66 65.255 0 29.97-16.366 54.627-44.211 66.955-10.628 4.677-14.454 5.314-30.183 4.677-29.546-1.276-49.101-13.816-61.642-39.323-15.304-30.609-9.14-62.28 16.154-85.874 21.256-19.555 52.077-24.231 78.222-11.69" style="stroke-width:.212557"/>
</svg>
