<svg xmlns="http://www.w3.org/2000/svg" width="912" height="960">
    <path d="m428.375-120-.024 823.859a145.3 145.3 0 0 0 29.166 79.96 130.47 130.47 0 0 0 23.587-80.547L481.128-120zM765.42-75.32a145.3 145.3 0 0 1-9.983 65.28l-127.33 142.892 34.548 74.676c18.49-26.598 15.736-26.91 15.66-26.915v-.098a255.7 255.7 0 0 1 9.395-67.041s45.478-56.684 67.727-78.983S765.42-75.32 765.42-75.32m-618.938 2.055c-.483 3.533-11.603 85.926 10.179 107.756 22.228 22.278 67.641 78.974 67.727 79.08a251.8 251.8 0 0 1 9.395 66.944v.098s-3.182-.045 15.66 26.915l34.45-74.578L156.661-10.04a145.3 145.3 0 0 1-10.179-63.225m157.475 226.866-33.864 77.122 45.12 50.991v260.143L377.36 493.9V351.79l9.396 10.668v-103.45zm304.086 0-82.8 105.407v103.45l9.397-10.668V493.9l62.148 47.957V281.714l45.119-50.99zM207.216 284.092a408 408 0 0 1-22.662 127.205 448.4 448.4 0 0 0-64.889 97.676h6.558s30.98-33.894 51.676-7.537l82.799 95.034 35.723-37.583-77.123-90.335c-9.99-59.041-12.082-184.46-12.082-184.46m485.486 184.46-77.123 90.335 35.723 37.583 82.8-95.034c20.695-26.307 51.675 7.537 51.675 7.537h6.558a451 451 0 0 0-64.889-97.774 406.5 406.5 0 0 1-22.49-117.528s-4.727 136.985-12.254 174.88M377.36 522.087l-66.846 48.936-31.906 33.863v11.256l26.23 30.144V796.73a139.73 139.73 0 0 0 36.701 78.101 136.27 136.27 0 0 1 35.724 79.961v84.69l16.05 40.518V875.81a503 503 0 0 0-7.144-55.493c-8.576-39.85-11.408-80.727-8.026-121.36zm157.28 0-.881 176.87c3.46 41.656.59 83.597-8.515 124.394a480 480 0 0 0-6.46 50.697l-.097 1.664v204.19l15.953-40.42v-84.788a136.16 136.16 0 0 1 35.723-79.96 139.6 139.6 0 0 0 36.701-78.004V646.188l26.328-30.046v-11.256l-32.004-33.96z" style="stroke-width:50.1101"/>
</svg>
