<svg xmlns="http://www.w3.org/2000/svg" width="1628" height="960">
    <path d="M934.4 861.853c-8.162 7.483-5.44 23.808 8.164 52.378 6.802 15.645 14.285 33.331 17.006 40.133 8.162 23.808 19.726 4.082 14.965-26.529-6.122-47.616-26.53-80.267-40.134-65.982m-269.37 26.529c-15.646 34.011-18.367 67.343-7.483 74.145 4.081 2.04 8.843-1.36 10.884-8.163 2.72-6.802 10.203-25.168 17.686-40.814 7.482-16.325 12.244-34.011 10.883-40.133-4.081-23.128-18.366-16.326-31.97 14.965m97.272-849.609c-21.767 21.087-75.505 72.785-118.36 114.279-402.697 386.371-523.778 505.412-523.778 513.575 0 10.883 13.605 8.162 17.686-3.402 2.721-5.441 7.483-10.203 12.244-10.203 4.082-.68 24.489-14.285 44.896-31.29 31.29-25.17 143.528-112.92 249.644-195.227 13.605-10.203 29.93-18.366 36.733-18.366 18.366 0 46.936 34.011 46.936 55.779 0 10.883 2.72 19.046 5.442 19.046 6.122 0 29.25-29.93 37.413-47.616 2.72-5.442 10.883-19.727 18.366-30.61 7.482-11.564 15.645-24.489 17.686-29.25 2.04-4.082 8.843-8.163 14.285-8.163 9.523 0 10.203 10.203 6.122 76.186-2.721 42.174-6.122 89.11-8.163 104.075l-4.081 27.21 17.686-20.408c9.523-11.564 17.005-23.808 17.686-27.89 0-4.08 10.203-27.208 23.127-51.016 15.646-29.25 27.89-44.215 37.413-45.576 13.605-2.04 14.285.68 14.285 60.54 0 60.541-4.762 87.07-24.488 131.966-18.367 43.534-67.343 154.412-80.948 183.662-15.645 34.692-44.895 100.674-58.5 132.645-7.482 17.006-18.366 39.453-23.128 49.657-5.441 10.884-10.203 23.128-10.203 28.57 0 4.761-4.762 12.244-10.204 17.005-12.244 10.204-13.604 42.855-1.36 39.454 4.081-2.04 9.523-8.843 10.884-16.326 1.36-6.802 6.122-15.645 11.564-18.366s9.523-10.884 9.523-17.006c0-6.802 3.401-15.645 7.482-19.726 8.163-8.163 17.006-23.128 40.814-70.064 8.163-17.006 26.53-48.977 40.134-71.425 25.168-40.813 54.418-102.034 54.418-112.918 0-2.72 8.163-17.006 17.686-31.29l17.686-25.85-2.72 127.204c-2.041 86.39 0 127.883 4.761 127.883 3.401 0 21.768-17.005 39.454-37.412 18.366-20.407 38.773-37.413 45.575-37.413s27.89 17.686 46.936 38.773 36.732 36.052 39.453 33.331 4.082-60.54 2.721-128.563l-2.04-123.802 17.686 25.848c9.523 14.285 17.686 28.57 17.686 31.291 0 10.884 29.25 72.105 54.418 112.918 13.605 22.448 31.971 54.419 40.134 71.425 23.808 46.936 32.65 61.9 40.814 70.064 4.081 4.08 7.482 12.924 7.482 19.726 0 6.122 4.082 14.285 9.523 17.006 5.442 2.72 10.204 11.564 11.564 18.366 3.402 16.326 19.727 22.448 19.727 7.483 0-6.122-4.081-19.727-9.523-29.25-8.843-17.686-17.006-34.692-43.535-96.593-15.645-34.692-45.575-102.035-59.18-132.645-13.605-29.25-62.581-140.128-80.948-183.662-19.726-44.896-24.488-71.425-24.488-131.965 0-59.86.68-62.582 14.285-60.541 9.523 1.36 21.767 16.326 37.413 45.576 12.924 23.808 23.128 46.936 23.128 51.017.68 4.081 8.162 16.325 17.686 27.89l17.686 20.406-4.082-22.447c-9.523-54.419-12.924-169.378-4.761-174.14 11.563-7.482 23.127 4.762 55.098 57.14 28.57 46.936 40.814 54.418 40.814 25.169 0-18.367 29.93-52.378 46.936-52.378 6.802 0 23.128 8.163 36.733 18.366 12.924 10.884 61.9 47.616 108.156 82.988 46.256 34.692 87.07 67.343 90.471 71.424 12.244 14.285 90.47 72.105 97.273 72.105 3.401 0 8.163 4.762 10.884 10.203 4.081 11.564 17.686 14.285 17.686 3.402 0-8.163-121.081-127.204-523.778-513.575-42.855-41.494-96.593-93.192-118.36-114.279C843.25 17.686 820.122 0 814 0s-29.25 17.686-51.698 38.773m125.843 100.674c34.012 40.814 61.901 76.867 61.901 79.587 0 8.163-25.849 6.803-30.61-1.36-2.04-4.081-8.843-6.802-14.285-6.802-7.483 0-9.523 10.883-9.523 50.337 0 52.378-6.122 65.982-20.407 48.296-14.965-18.366-20.407-3.401-20.407 54.419 0 58.5-8.843 78.907-20.407 48.296-4.081-10.884-11.564-17.686-20.407-17.686s-16.325 6.802-20.407 17.686c-11.564 30.61-20.407 10.204-20.407-48.296 0-56.46-6.802-75.506-19.046-53.739-12.925 22.448-21.768 2.041-21.768-48.976 0-39.454-2.04-50.337-9.523-50.337-5.442 0-12.244 2.72-14.285 6.802-5.442 8.843-32.65 8.843-29.25 0 1.36-4.081 29.93-40.814 63.262-81.628 38.773-47.616 65.302-74.145 72.104-73.465 6.122 1.36 39.454 35.372 73.465 76.866" style="stroke-width:.680231"/>
</svg>
