<svg xmlns="http://www.w3.org/2000/svg" width="1130" height="960">
    <path d="M121.354-15.583c-3.534 8.835.884 19.437 8.835 25.621 8.835 6.185 15.02 16.787 15.02 23.855 0 7.951 6.184 18.553 13.252 24.738s22.087 28.271 32.69 49.475c10.601 21.204 22.087 38.874 26.504 38.874 3.534 0 7.068 7.068 7.068 15.903 0 9.718 7.952 23.854 16.787 31.806 9.718 8.835 15.019 21.204 13.252 27.388-2.65 6.184 3.534 15.903 13.252 22.087 10.602 5.301 18.554 15.903 18.554 22.971s10.602 27.388 22.97 44.175c13.253 16.786 19.438 30.922 15.904 31.806-4.418.883-39.758 1.767-78.631 1.767l-70.68.883-2.65 29.155c-1.767 19.437 1.767 30.04 10.601 33.573 7.952 2.65 14.136 12.37 14.136 21.204 0 9.719 12.37 30.039 26.505 45.942 15.02 15.903 26.505 33.573 26.505 39.757 0 5.301 12.369 23.854 26.505 39.757 15.02 15.903 26.505 35.34 26.505 43.292s5.3 16.786 11.485 19.436c6.185 1.767 20.32 22.088 30.922 45.059 11.486 22.087 24.738 40.64 29.156 40.64s7.951 7.952 7.951 17.67 6.185 20.32 13.253 22.971c7.068 3.534 13.252 11.485 13.252 17.67 0 7.068 6.184 15.02 13.252 17.67 7.068 3.534 13.253 13.252 13.253 22.087 0 9.719 12.369 29.156 26.505 43.291 15.019 14.136 26.504 31.806 26.504 38.874s12.37 26.505 26.505 42.408 26.505 33.573 26.505 38.874c0 5.3 6.185 15.02 13.253 21.203 10.601 8.835 17.67 3.534 40.64-34.456 15.903-24.738 31.806-45.058 35.34-45.058 4.418 0 7.951-7.068 7.951-15.903s12.37-28.272 26.505-44.175c15.02-15.902 26.505-35.34 26.505-42.407 0-7.068 12.37-24.738 26.505-38.874s26.505-33.573 26.505-43.291c0-8.835 6.184-18.554 13.252-22.088 7.068-2.65 13.253-10.602 13.253-17.67 0-6.184 6.184-14.135 13.252-17.67 7.068-2.65 13.252-13.252 13.252-22.97 0-9.719 3.534-17.67 7.952-17.67s16.786-16.787 27.388-37.99c10.602-20.32 24.738-40.641 31.806-44.175s12.369-14.136 12.369-22.087c0-8.835 12.369-28.272 26.505-44.175 15.02-15.903 26.505-36.223 26.505-45.942 0-8.835 6.184-17.67 13.252-21.204 15.903-6.184 17.67-35.34 2.65-47.708-6.184-4.418-40.64-7.952-75.98-6.185-35.34.884-66.262-1.767-68.913-6.184-2.65-4.418 5.301-21.204 17.67-37.99 12.37-15.904 22.971-36.224 22.971-43.292s7.952-17.67 18.554-22.97c9.718-6.185 15.902-15.904 13.252-22.088-1.767-6.184 3.534-18.553 13.252-27.388 8.835-7.952 16.787-22.088 16.787-31.806 0-8.835 4.417-15.903 8.835-15.903 5.3 0 8.835-6.185 8.835-13.252 0-7.952 6.184-15.903 13.252-18.554 7.068-3.534 13.252-12.369 13.252-21.204 0-7.951 7.952-22.087 17.67-30.922s17.67-22.087 17.67-29.155 6.185-17.67 15.02-23.855c20.32-15.02 8.835-39.757-18.554-39.757-22.97 0-58.31 39.757-58.31 65.379 0 7.951-6.185 16.786-13.253 19.437-7.068 3.534-13.252 15.019-13.252 26.504 0 12.37-6.185 23.855-13.253 26.505-7.068 3.534-13.252 12.37-13.252 21.204 0 9.719-3.534 18.553-7.951 22.087-5.301 2.65-17.67 22.971-29.156 45.059-10.602 22.97-24.738 43.29-30.922 45.058-6.185 2.65-11.485 14.136-11.485 25.621 0 12.37-6.185 23.855-13.253 26.505-7.068 3.534-13.252 15.02-13.252 26.505s-7.952 24.738-16.787 30.039c-23.854 12.369-27.388 11.485-27.388-8.835 0-9.719 3.534-17.67 7.951-17.67 4.418 0 10.602-7.068 13.253-15.903 11.485-30.039 32.69-63.612 41.524-63.612 4.418 0 7.952-9.718 7.952-22.087s6.184-24.738 13.252-27.388c7.068-3.534 13.252-10.602 13.252-17.67 0-6.185 11.486-29.156 26.505-50.36 28.272-42.407 34.456-76.863 14.136-76.863-15.02 0-34.456 28.271-83.932 121.038-10.602 20.32-25.621 41.525-32.69 47.709-7.067 5.3-12.368 16.786-12.368 25.621s-6.185 20.32-13.252 26.505-13.253 16.787-13.253 23.854c0 6.185-6.184 21.204-13.252 31.806-11.486 18.554-18.554 19.437-125.457 19.437H450.014l-2.65-24.738c-1.767-13.252-6.185-23.854-9.719-23.854s-15.903-17.67-26.505-39.757c-10.601-21.204-22.97-41.524-28.271-44.175-4.418-3.534-7.952-12.369-7.952-21.204s-7.951-22.97-17.67-31.806c-9.718-8.835-15.02-19.437-12.369-23.854 3.534-4.417-2.65-15.903-13.252-25.621s-18.553-22.971-18.553-30.04c0-12.368-25.622-30.921-43.292-30.921-14.135 0-11.485 31.805 3.534 44.174 7.068 6.185 13.253 17.67 13.253 26.505s6.184 17.67 13.252 21.204c7.068 2.65 13.253 10.602 13.253 17.67s10.602 30.039 24.737 51.243c41.525 65.378 45.942 72.446 53.894 92.766 5.3 9.719 13.252 21.204 17.67 24.738 18.553 10.602 9.718 22.971-14.136 20.32-17.67-1.766-25.622-7.95-27.389-22.087-1.767-10.602-8.835-23.854-15.903-29.155-7.068-6.184-12.369-20.32-12.369-30.922 0-11.486-5.3-22.088-11.485-24.738-6.184-1.767-20.32-22.088-30.922-45.058-11.486-22.088-23.855-42.408-29.156-45.059-4.417-3.534-7.951-12.368-7.951-22.087 0-8.835-6.184-17.67-13.252-21.204-7.068-2.65-13.253-14.136-13.253-26.505 0-11.485-6.184-22.97-13.252-26.504-7.068-2.65-13.253-11.486-13.253-19.437S199.102 10.038 188.5-4.098c-20.32-28.271-58.31-35.34-67.146-11.485m343.68 439.98c26.504 40.64 49.475 102.485 38.873 102.485-14.136 0-31.805-12.368-31.805-22.087 0-6.184-6.185-15.903-13.253-22.087-7.068-6.185-13.252-18.554-13.252-28.272 0-8.835-6.185-18.553-13.253-21.204-14.136-5.3-19.437-56.544-5.3-56.544 3.533 0 21.203 21.204 37.99 47.71M648.8 389.941c0 7.068-3.534 13.252-8.835 13.252-4.417 0-8.834 9.719-8.834 22.088s-6.185 24.737-13.253 27.388c-7.068 3.534-13.252 14.136-13.252 24.738 0 11.485-8.835 28.272-20.32 38.874-21.205 19.436-32.69 17.67-32.69-4.418 0-7.068-9.718-25.621-22.087-42.408-12.37-15.903-26.505-41.524-30.923-56.543l-7.068-26.505 71.563-3.534c39.758-.884 75.098-3.534 79.515-4.418 3.534-.883 6.184 4.418 6.184 11.486m-286.252 16.786c2.65 12.37 10.602 23.855 17.67 26.505s12.37 13.252 12.37 22.97 6.184 20.321 13.252 22.972c7.067 3.534 13.252 10.602 13.252 16.786s-6.185 15.903-13.252 22.088c-7.068 6.184-13.253 18.553-13.253 28.271 0 8.835 6.185 18.554 13.253 21.204 7.067 3.534 13.252 12.37 13.252 21.204 0 9.719 12.369 30.039 26.505 45.942 15.02 15.903 26.505 31.806 26.505 35.34s12.369 23.854 26.504 45.058c14.136 22.087 26.505 42.407 26.505 45.058s8.835 15.02 19.437 27.388l19.437 22.088 20.32-21.204c11.486-12.37 20.32-24.738 20.32-28.272 0-2.65 12.37-22.97 26.506-45.058 15.019-21.204 26.504-41.524 26.504-45.058s12.37-19.437 26.505-35.34c15.02-15.903 26.505-36.223 26.505-45.942 0-8.835 6.184-17.67 13.252-21.204 7.068-2.65 13.253-10.602 13.253-18.553s-6.185-15.903-13.253-18.554c-7.068-3.534-13.252-14.135-13.252-25.62s6.184-22.088 13.252-25.622c7.068-2.65 13.253-12.37 13.253-20.32 0-8.836 7.068-22.971 16.786-30.923 8.835-7.068 17.67-18.553 19.437-23.854 2.65-7.068 21.204-7.952 59.194-4.418 64.495 7.068 70.68 20.32 28.272 65.379-14.136 15.903-26.505 32.69-26.505 38.874 0 5.3-11.485 23.854-26.505 40.64-14.136 16.787-25.62 37.107-26.504 44.175 0 7.068-9.719 23.854-22.088 37.107s-22.087 27.388-22.087 31.806-11.486 22.97-26.505 42.407c-14.136 18.554-26.505 38.874-26.505 44.175s-7.951 16.786-17.67 25.621-17.67 20.32-17.67 25.622c0 6.184-11.485 23.854-26.504 40.64-14.136 16.787-25.622 36.224-26.505 42.408 0 6.185-7.068 19.437-16.787 29.156-15.903 17.67-15.903 17.67-30.922-4.418-7.951-12.369-14.136-24.738-14.136-26.505 0-2.65-19.437-34.456-44.175-69.796-23.854-36.223-44.174-68.029-44.174-71.563s-9.719-16.786-22.088-30.039-22.087-30.038-22.087-37.106-12.369-25.622-26.505-41.525c-15.02-15.903-26.505-32.689-26.505-38.873 0-5.301-11.485-24.738-26.504-43.292-14.136-18.553-26.505-37.99-26.505-44.174s-5.301-15.903-12.37-21.204c-6.184-5.301-22.97-28.272-36.222-52.126l-23.855-41.525h67.146c63.611 0 67.145.884 72.446 21.204m348.097 0c0 11.486-6.184 22.971-13.252 26.505-7.068 2.65-13.253 14.136-13.253 26.505 0 11.485-6.184 22.97-13.252 26.505-7.068 2.65-13.253 13.252-13.253 22.97 0 9.719-6.184 17.67-13.252 17.67-21.204 0-15.903-33.572 11.485-74.213 13.253-19.437 27.389-43.291 30.923-52.126 7.951-22.088 23.854-18.554 23.854 6.184" style="stroke-width:.883494"/>
</svg>
