<svg xmlns="http://www.w3.org/2000/svg" width="1440" height="960">
    <path d="M1144.934 56.291c-5.39 42.518-39.465 68.677-60.083 102.488-27.177 41.575-53.034 76.894-80.588 110.818l1.922-2.45c-12.815 16.132-21.145 31.888-10.252 56.238 29.853 30.757 58.801 7.953 91.594-6.295l43.31-96.871 41.236-22.05 59.442 17.79-58.273 24.84c-17.415 47.418-23.823 87.637-45.345 116.698-19.224 25.631-54.957 40.106-89.672 63.287 96.607 24.727 192.16 35.092 284.922 58.16-93.78 30.381-192.16 37.656-288.39 60.197l-6.672 38.447 43.159 38.447c59.819 18.96 100.678-43.31 164.38-13.834l42.405 60.988-67.773-32.68c-40.746 19.713-73.652 44.704-109.536 50.094-32.793 5.126-68.79-10.893-108.519-18.696 2.337 9.725 5.654 18.244 10.027 26.16l-.264-.528c44.063 62.533 89.672 124.538 133.094 187.033 4.26 8.293 7.652 17.867 9.725 27.969l.113.716 1.282-1.395c-10.743-2.412-20.166-5.842-29.024-10.328l.716.34c-67.885-47.268-135.28-95.176-208.556-146.929l-47.644 21.636 21.259 76.216c20.769 8.217 42.518 15.379 63.023 25.631s38.447 22.54 62.269 36.261c-5.767 30.494-10.63 56.502-15.643 82.51l-9.612-.753c-.716-12.552-2.073-24.124-4.108-35.47l.264 1.772c-3.506-12.137-7.237-22.24-11.647-32.002l.603 1.546c-78.402-12.816-162.722-17.942-176.555-128.12-26.385 49.831-26.762 98.154-38.447 143.122S737.32 1032.092 724.88 1080c-20.618-43.046-22.691-89.672-32.152-135.168-9.989-47.418-17.301-95.439-26.385-146.438l-35.733-15.492-43.8 47.155c-14.851 56.238 39.842 89.03 33.057 138.635-14.587 27.667-42.066 46.815-74.218 49.567l-.34.038 38.448-51.263c-12.816-19.488-26.762-38.447-38.447-57.633-23.558-39.842-38.447-80.588-8.858-125.028 4.976-11.27 8.971-24.463 11.383-38.146l.151-1.055c-15.228 6.52-27.855 12.966-39.992 20.203l1.545-.867c-60.724 42.782-120.92 86.469-181.794 129.024-8.33 4.109-18.017 7.086-28.232 8.406l-.49.038 1.545 1.545c45.232-68.79 89.672-137.844 136.186-205.993 11.006-16.284 23.822-30.494 13.946-56.766l-32.68-17.791-46.363 14.85c-43.158 31.776-29.212 93.405-76.856 121.184-7.35 2.375-15.831 3.77-24.651 3.77-22.202 0-42.405-8.745-57.256-22.993l.038.038 57.632-6.295c6.333-14.324 12.1-31.436 16.36-49.114l.452-2.149c9.347-61.892 37.014-107.35 100.829-124.651 7.99-3.958 14.889-8.481 21.183-13.72l-.188.15c-49.83-20.77-97.512-21.523-143.347-29.853s-94.95-18.206-149.001-28.459c50.094-27.93 101.093-26.762 149.642-35.469s95.062-17.791 145.797-27.403l5.24-41.764-64.042-44.855-110.44 42.292c-31.776-12.816-59.97-25.631-56.993-65.963l-1.394 1.281 45.608 21.146 130.796-64.04 96.457 40.369c-3.883-15.002-8.896-28.044-15.115-40.332l.527 1.131c-39.464-58.047-80.21-115.303-119.676-173.087-4.334-8.217-7.802-17.791-9.988-27.818l-.151-.753c56.615 20.354 100.038 62.005 149.755 93.516 23.332 14.738 44.704 32.417 64.04 46.778 27.931 6.52 45.232 0 53.94-29.966l-15.492-51.263c-33.811-43.159-93.78-33.057-120.694-76.857-2.94-8.141-4.636-17.565-4.636-27.365 0-21.41 8.066-40.935 21.334-55.71l-.075.075L470 20.935c10.441 7.99 22.239 15.266 34.753 21.372l1.244.528c31.511 11.91 69.054 14.36 94.308 33.584s37.656 54.052 58.16 85.978c31.135-43.31 22.051-96.23 34.867-142.48S708.711-73.223 715.759-120h12.816l51.263 284.81 38.447 12.175 41.65-48.813c8.708-49.454-29.852-79.043-34.828-118.13 10.63-34.075 38.447-44.705 73.917-57.143L872.752 6.838c19.977 38.447 45.231 68.413 51.262 102.487 4.75 30.23-12.815 64.041-21.259 102.488 10.931-2.714 20.468-6.332 29.439-10.969l-.754.34c62.646-43.95 124.651-88.768 187.297-132.718 8.18-4.41 17.64-8.066 27.63-10.479l.829-.15z" style="stroke-width:37.6932"/>
</svg>
