<svg xmlns="http://www.w3.org/2000/svg" width="1346" height="960">
    <path d="M277.239 815.132c0 8.585 7.512 16.097 16.096 16.097 8.585 0 16.097-7.512 16.097-16.097s-7.512-16.096-16.097-16.096c-8.584 0-16.096 7.512-16.096 16.096m80.482-48.289c-6.439 10.731 35.412 76.19 65.459 101.944 6.438 5.366 24.68 28.974 41.85 50.435L494.004 960h392.752l36.485-45.07c19.315-25.754 43.997-53.655 53.654-64.386 31.12-31.12 53.655-71.897 46.143-83.7-9.657-15.024-655.66-15.024-665.317 0m751.165-32.193c-19.316 20.39-18.243 21.462 1.073 21.462 11.804 0 26.827-9.658 34.339-21.462 10.73-17.169 10.73-21.461-1.073-21.461-8.585 0-23.608 9.657-34.34 21.461m-887.448-72.97-24.68 24.681 41.85 3.22c43.997 4.292 79.409-18.243 66.531-39.705-12.877-20.389-59.02-12.877-83.7 11.804m871.351-34.339c0 13.95 42.924 13.95 64.386 0 11.804-7.511 5.366-10.73-23.608-10.73-22.535 0-40.778 4.292-40.778 10.73M159.2 520.031c0 12.878 96.578 54.729 108.382 47.217 20.389-11.804-37.558-57.947-72.97-57.947-19.316 0-35.412 4.292-35.412 10.73m955.052-1.072c0 20.389 26.828 33.266 72.97 33.266 28.974 0 31.12-26.828 3.22-42.924-35.412-18.243-76.19-13.95-76.19 9.658m-91.213-95.505c-3.219 5.365 0 13.95 9.658 17.17 22.535 8.584 65.459 1.072 65.459-11.805 0-15.023-66.532-20.389-75.117-5.365m-527.961-107.31c-19.316 7.512-24.681 18.243-24.681 48.29 0 33.265-9.658 49.362-61.167 104.09-62.239 64.385-62.239 64.385-62.239 129.844v66.531h676.048v-72.97c0-71.897 0-71.897-50.435-122.332-40.777-39.705-51.508-57.947-51.508-84.775 0-24.68-8.585-41.85-27.9-56.874-26.828-20.388-41.851-22.535-201.742-21.461-94.432 0-183.499 4.292-196.376 9.657M597.02 442.77c3.219 34.34 2.146 35.412-32.193 32.193q-35.412-3.22-38.631-22.535c-6.439-35.412 6.438-52.581 37.558-48.29 25.754 2.147 31.12 8.586 33.266 38.632m128.77 0c3.22 34.34 2.147 35.412-32.192 32.193q-35.412-3.22-38.631-22.535c-5.366-26.827 18.242-52.581 45.07-48.29 17.169 2.147 23.608 11.805 25.754 38.632m128.772-1.073c3.22 33.266 1.073 35.412-28.974 35.412-37.558 0-48.289-12.877-39.704-49.362 5.365-21.462 12.877-26.827 36.485-23.608 23.608 2.146 30.047 9.658 32.193 37.558M599.167 575.833c0 28.973-2.146 31.12-34.34 27.9-30.046-2.146-36.484-8.585-38.63-33.266-3.22-22.535 2.146-31.12 21.461-38.631 32.193-11.804 51.509 4.292 51.509 43.997m257.542 0c0 28.973-2.146 31.12-34.339 27.9-30.047-2.146-36.485-8.585-38.631-33.266-3.22-22.535 2.146-31.12 21.462-38.631 32.192-11.804 51.508 4.292 51.508 43.997m-130.917-5.366c3.219 33.266 1.073 35.412-28.974 35.412-37.558 0-48.289-12.877-39.704-49.362 5.365-21.462 12.877-26.827 36.485-23.608 23.608 2.146 30.047 9.658 32.193 37.558M120.568 304.34c4.292 6.439 13.95 11.804 21.461 11.804 6.439 0 18.243 5.366 25.755 12.877 16.096 16.097 89.066 40.778 100.87 34.34 17.17-10.731 7.512-37.559-18.242-47.217-46.143-17.17-138.43-25.754-129.844-11.804m1012.999 4.293c-39.704 32.192-37.558 39.704 10.73 39.704 28.974 0 48.29-7.512 64.387-24.681 12.877-13.95 20.388-28.974 16.096-32.193-15.023-15.023-63.313-5.365-91.213 17.17M159.199 194.885c1.073 20.389 35.412 51.508 69.75 63.312 34.34 10.731 37.56 10.731 37.56-6.438 0-25.754-49.363-64.386-81.556-64.386-13.95 0-25.754 3.22-25.754 7.512m955.052 0c-67.605 51.508-150.233 129.844-150.233 142.721 0 26.828 53.655 7.512 97.652-35.412 61.166-56.874 120.186-133.063 109.455-139.502-5.365-3.22-30.046 11.804-56.874 32.193M380.256 186.3c-59.02 60.093-63.313 67.605-62.24 110.529 3.22 59.02 16.097 108.382 31.12 112.674 18.243 6.439 56.874-65.458 56.874-105.163q0-37.021 25.754-61.166c24.682-22.535 32.193-23.608 240.373-23.608h214.619l5.365-27.9c2.146-15.024 2.146-37.559 0-48.29-5.365-19.315-18.242-20.388-227.496-20.388h-222.13zm653.513-109.455c-71.897 37.558-93.359 78.335-39.704 78.335 30.047-1.073 125.552-76.19 112.675-90.14-10.731-10.73-38.632-6.438-72.97 11.805M343.771 82.21c2.146 22.535 8.585 35.412 19.315 35.412 20.39 0 26.828-34.339 10.731-53.654-21.461-25.755-33.265-18.243-30.046 18.242m563.373-36.485c-36.485 40.778-13.95 62.24 24.682 23.608 11.804-11.804 21.461-26.827 21.461-32.193 0-17.17-27.9-11.804-46.143 8.585m-430.31-65.459c-12.877 12.877-5.365 40.778 20.389 72.97 23.608 27.901 26.827 28.974 33.266 11.805 5.365-12.877 1.073-24.681-9.658-33.266-10.73-7.512-18.243-20.389-18.243-30.047 0-19.315-15.023-32.193-25.754-21.462m151.306 3.22c-7.511 28.973 6.439 78.335 23.608 83.7 9.658 3.22 11.804-9.657 9.658-47.215-3.22-52.582-23.608-75.117-33.266-36.485m168.476-24.681c-3.22 10.73-13.95 37.558-23.608 60.093-21.462 51.508-5.366 75.116 28.973 40.777 16.097-16.096 22.535-36.485 22.535-70.824 0-48.29-17.17-65.459-27.9-30.046" style="stroke-width:1.07309"/>
</svg>
