<svg xmlns="http://www.w3.org/2000/svg" width="1198" height="960">
    <path d="M827.91 433.445c-3.566 9.808 1.338 14.712 8.026 8.025 4.012-4.013 4.012-6.688 0-10.7-4.013-4.013-5.796-3.121-8.025 2.675m-466.792-3.567c-3.567 3.567 1.337 15.158 6.242 15.158 4.904 0 5.35-12.037 0-15.158-1.784-1.338-4.905-1.338-6.242 0M125.715 410.26c-7.579 14.267-7.579 100.314-.446 144.006 10.255 61.08 32.992 124.389 59.297 164.96 4.458 7.133 9.808 16.496 11.592 20.063 5.796 12.93 40.571 55.73 64.2 79.805 135.09 134.643 333.042 176.998 510.04 108.784 175.214-67.767 299.157-238.523 306.737-422.654l.891-22.292-72.226-1.338c-82.926-1.337-72.225-8.025-81.588 50.38-15.604 91.397-75.347 178.335-156.044 226.486-15.158 9.362-28.98 16.496-31.208 16.496-2.23 0-9.363 2.675-16.496 6.242-58.85 29.425-184.577 29.425-243.428 0-7.133-3.567-14.713-6.242-17.388-6.242-2.229 0-13.375-6.242-24.52-13.375-10.701-7.58-21.401-13.375-23.184-13.375-6.688 0-57.96-49.489-74.901-72.226-42.355-57.96-60.634-106.556-69.997-186.36-.446-5.35-9.808-7.134-42.8-8.918l-42.355-2.229 1.783-35.221c1.784-40.571 0-42.8-31.654-42.8-17.388 0-21.846 1.783-26.305 9.808m53.5-158.273c-3.566 4.459-10.253 16.05-14.712 25.859-4.458 9.808-9.808 21.4-12.037 25.413-5.796 11.146-5.796 11.592 13.82 21.4 30.318 15.604 37.45 12.93 53.055-20.063 7.58-16.05 13.821-30.317 13.821-32.546 0-3.567-38.342-27.642-44.138-27.642-1.783 0-6.241 3.567-9.808 7.58m79.806-109.676c-24.967 25.859-26.75 38.342-8.025 50.826 7.133 4.904 13.375 10.254 13.375 12.037 0 2.23 3.567 3.567 8.025 3.567 9.809 0 49.934-40.571 49.934-50.38 0-10.254-26.304-38.788-35.221-38.342-4.013.446-16.496 10.254-28.088 22.292m337.5-27.642c-4.905 8.025-10.7 85.155-11.146 143.114 0 28.088-1.338 68.214-3.121 88.276-3.567 47.705-8.917 50.826-37.45 19.617-12.038-13.375-22.738-21.4-24.076-18.725-6.242 9.808 26.75 89.168 54.392 131.076 8.026 12.038 13.376 23.63 12.038 25.859-3.12 4.904-15.158 4.904-15.158 0 0-2.23-4.459-5.796-10.255-8.47-16.942-8.026-59.742-49.489-82.034-79.806-11.592-15.604-22.738-28.534-24.967-28.534-12.93 0 17.834 88.722 47.259 135.981 13.82 22.292 44.138 60.188 56.621 70.443 13.376 11.591 17.388 20.954 8.917 20.954-2.23 0-17.833-6.242-34.33-14.267-32.546-15.158-70.888-42.8-93.18-66.876-18.725-20.062-53.054-66.43-56.621-76.238-3.567-8.917-12.038-10.254-12.038-1.337 0 7.133 24.967 55.283 33.884 65.538 3.567 3.566 6.242 8.47 6.242 10.254 0 5.796 26.304 38.788 53.054 65.984 28.534 29.871 24.967 32.992-12.929 11.592-3.567-1.783-11.146-5.35-16.496-8.025-5.796-2.23-10.254-6.242-10.254-8.917 0-2.23-2.675-4.458-6.242-4.458s-7.58-3.121-8.917-7.134c-1.337-3.566-4.904-5.35-7.579-3.566-11.592 7.133 65.093 65.538 107.447 81.142 76.684 28.534 105.664 28.98 168.527 2.675 8.025-3.566 16.496-6.242 18.725-6.242 17.834 0 108.339-71.78 98.53-77.575-2.674-1.784-6.241 0-7.579 3.566-1.337 4.013-5.35 7.134-8.916 7.134s-6.242 2.229-6.242 4.458c0 2.675-4.459 6.688-9.809 8.917-5.795 2.675-13.375 6.242-16.941 8.025-38.788 21.846-40.572 18.28-8.471-16.05 50.38-53.5 103.434-143.56 84.263-143.56-2.675 0-6.242 3.566-7.58 7.579-9.362 24.967-59.741 83.372-94.963 110.122-27.642 21.4-82.926 49.042-89.613 44.584-2.23-1.338 6.241-13.821 19.617-28.088 37.004-40.125 63.755-84.71 86.046-143.56 8.917-24.521 12.93-53.055 7.134-53.055-2.23 0-9.363 7.58-15.159 16.496-24.967 37.897-95.41 103.88-110.122 103.88-6.241 0-6.241-14.712 0-20.954 8.917-8.916 48.597-86.492 48.597-94.963 0-2.23 3.12-11.146 7.133-19.617s6.242-18.725 4.458-22.738c-2.229-5.796-6.687-2.675-24.075 16.05-12.037 12.93-23.63 22.292-26.304 20.509-7.134-4.459-10.255-38.342-14.713-155.152-4.013-100.76-7.58-128.401-15.604-115.918M413.727 38.878c-19.617 6.687-52.163 24.52-54.392 29.87-2.23 5.797 7.579 24.076 21.846 40.126l8.47 9.363 31.21-15.605c23.183-11.591 30.762-17.387 28.979-22.737-13.375-42.8-17.834-47.705-36.113-41.017M545.249 4.102c-30.763 5.35-37.896 11.592-31.208 28.088 2.229 6.688 4.458 16.942 4.458 23.184 0 11.146 0 11.146 39.234 9.808l38.788-1.337 1.337-24.967c.892-18.726-.446-27.197-5.796-32.547-8.025-8.025-11.146-8.025-46.813-2.229" style="stroke-width:.445838"/>
</svg>
