<svg xmlns="http://www.w3.org/2000/svg" width="840" height="960">
    <path d="m234.794 1078.1-1.875-2.024.532-214.25c.43-174 .348-214.465-.435-215.41-.561-.678-2.16-1.162-3.834-1.162-3.199 0-1.13-2.348-60.966 69.185-12.652 15.126-23.617 27.71-24.368 27.967-.752.244-2.819 1.644-4.592 3.087-3.796 3.088-8.258 4.457-12.812 3.943-6.448-.728-5.943 4.115-6.225-59.87l-.244-56.705 3.198-7.886c4.841-11.934 7.02-15.567 14.308-23.867 2.8-3.192 9.929-11.546 15.838-18.568 11-13.074 12.467-14.75 15.965-18.257 1.107-1.113 2.873-3.284 3.913-4.83 1.045-1.547 13.672-16.762 28.064-33.816 14.39-17.053 26.42-31.42 26.733-31.925.313-.49 1.387-3.711 2.388-7.118 1.701-5.796 1.82-7.378 1.835-24.333.017-20.488.122-20.158-5.559-17.645-2.66 1.174-9.828 9.15-43.898 48.823-22.396 26.08-41.171 47.417-41.722 47.417s-1.443.551-1.98 1.18c-2.777 3.35-10.391 5.466-14.625 4.066-5.026-1.657-4.86.49-4.86-62.221 0-48.453.183-56.567 1.118-58.42.616-1.186 1.124-2.66 1.13-3.277.004-.616 1.076-3.155 2.38-5.63 2.304-4.372 7.571-10.803 55.12-67.264 12.37-14.688 27.823-33.108 34.34-40.933l11.85-14.228 4.838-12.016 4.84-12.018v-75.857l-4.794 5.257c-40.022 43.882-56.025 61.01-57.792 61.857-5.606 2.69-11.271 1.297-14.523-3.57l-1.705-2.55.429-58.663.43-58.663 1.84-4.982c1.014-2.74 2.555-5.613 3.436-6.384.874-.77 17.423-20.418 36.77-43.661l35.172-42.26V17.646c0-24.52.43-28.296 4-35.322C240.301-21.315 279.51-60 281.345-60c1.83 0 4.815 1.626 5.359 2.916.282.667.439 61.475.355 135.129-.117 103.44.051 134.163.749 135.004 2.194 2.641 4.2 1.308 12.205-8.112 26.606-31.317 51.916-62.295 53.507-65.487l1.853-3.717V89.465c0-34.986.22-46.489.902-47.17.494-.49 2.504-.905 4.464-.905 3.269 0 3.983.367 8.675 4.432 7.111 6.165 32.529 32.768 34.052 35.641 1.162 2.189 1.286 24.26 1.704 302.982.49 326.615.712 307.329-3.666 318.223-1.864 4.635-5.175 8.846-29.539 37.555a23663 23663 0 0 0-53.666 63.501c-14.425 17.143-27.193 32.2-28.375 33.458l-2.148 2.287-.067 61.927c-.038 34.06-.331 74.94-.647 90.844-.776 38.787 1.162 33.32-21.866 61.698-14.345 17.678-18.605 22.451-21.5 24.093-4.563 2.586-6.581 2.605-8.937.061zm83.096-310.422c29.002-34.943 28.603-34.343 34.421-51.649l3.098-9.213V501.232l-2.065-.795c-4.868-1.864-4.931-1.846-8.385 2.574-1.808 2.317-15.118 18.425-29.578 35.8-20.108 24.163-26.485 32.312-27.117 34.654-.587 2.177-.77 35.768-.632 116.45l.195 113.386 1.785-1.852c.982-1.022 13.707-16.217 28.279-33.773zM215.45 620.468c22.683-26.23 53.053-61.38 67.487-78.11a28307 28307 0 0 1 48.375-55.903l22.131-25.485.956-4.934c.679-3.509.964-14.296.983-37.323l.029-32.39-2.332-1.131c-1.283-.623-2.94-.973-3.68-.776-.74.184-10.28 11.052-21.198 24.13s-41.792 49.81-68.61 81.625-56.365 66.951-65.66 78.08c-9.293 11.129-17.687 21.052-18.651 22.052-1.23 1.273-2.354 4.329-3.754 10.17l-2.005 8.352.244 29.619c.122 18.545.551 30.161 1.014 31.072.758 1.419.807 1.425 2.11.05.733-.771 19.888-22.868 42.572-49.1zM176.323 469.76c.71-.244 33.457-38.042 72.768-83.932s78.115-91.109 86.23-100.489c8.117-9.379 15.243-17.997 15.837-19.152.592-1.154 1.793-4.5 2.665-7.437 1.508-5.08 1.585-6.947 1.585-38.406v-33.067l-1.799-1.18c-3.724-2.44-5.504-2.36-7.76.367-5.5 6.598-126.688 150.192-147.796 175.12l-24.027 28.378-3.155 9.552-3.155 9.552.368 26.662c.184 14.666.551 27.398.709 28.296.429 2.072 3.9 6.254 5.215 6.254.551 0 1.577-.244 2.292-.49zm142.873-83.811c14.421-17.04 27.792-32.82 29.713-35.066 6.031-7.052 6.5-9.246 6.5-30.412 0-20.2.256-19.205-4.921-19.205-2.426 0-3.993 1.682-33.55 36.02-36.803 42.758-34.427 38.77-34.965 58.678-.293 10.756-.16 12.806.961 15.02 2.227 4.403 4.1 5.95 7.215 5.95 2.798 0 3.087-.306 29.046-30.982zM214.867 179.653c2.736-2.03 5.856-4.653 6.934-5.82 3.262-3.54 8.212-11.372 11.009-17.427l2.643-5.723-.545-30.402c-.298-16.72-.867-31.003-1.26-31.737-1.727-3.228-8.427-.182-13.546 6.201-2.95 3.662-10.193 21.812-11.57 28.986-1.492 7.776-4.084 35.613-4.084 43.862 0 8.508 2.158 15.753 4.695 15.753.43 0 2.996-1.663 5.729-3.692zm381.404 898.386c-2.895-1.645-7.155-6.416-21.5-24.094-23.028-28.378-21.09-22.91-21.866-61.698-.318-15.904-.612-56.783-.648-90.843l-.067-61.928-2.149-2.286c-1.18-1.26-13.95-16.316-28.374-33.459a23778 23778 0 0 0-53.666-63.5c-24.364-28.71-27.675-32.919-29.538-37.555-4.379-10.895-4.156 8.392-3.666-318.223.415-278.721.544-300.791 1.704-302.982 1.523-2.874 26.941-29.476 34.053-35.64 4.691-4.067 5.405-4.433 8.674-4.433 1.96 0 3.968.428 4.464.905.682.678.902 12.184.902 47.17v46.268l1.853 3.717c1.591 3.191 26.901 34.17 53.507 65.487 8.005 9.421 10.011 10.755 12.205 8.112.699-.845.869-31.565.75-135.005-.086-73.653.073-134.461.355-135.128.544-1.29 3.528-2.916 5.358-2.916 1.836 0 41.044 38.687 42.893 42.322 3.572 7.027 4 10.802 4 35.323v22.975l35.176 42.259c19.346 23.242 35.893 42.89 36.77 43.66s2.422 3.644 3.434 6.385l1.84 4.982.447 58.663.44 58.663-1.704 2.55c-3.25 4.866-8.913 6.258-14.522 3.57-1.766-.845-17.77-17.975-57.792-61.857l-4.795-5.258v75.858l4.84 12.017 4.839 12.017 11.85 14.227c6.516 7.825 21.97 26.245 34.339 40.933 47.549 56.461 52.817 62.89 55.121 67.264 1.305 2.476 2.377 5.013 2.38 5.63 0 .616.514 2.097 1.127 3.277.967 1.853 1.123 9.968 1.123 58.42 0 62.711.164 60.562-4.858 62.221-4.234 1.4-11.846-.721-14.624-4.066-.538-.647-1.432-1.18-1.984-1.18-.551 0-19.326-21.338-41.721-47.416-34.071-39.674-41.24-47.647-43.9-48.824-5.68-2.512-5.576-2.842-5.558 17.647.016 16.954.135 18.535 1.835 24.332 1.002 3.411 2.075 6.613 2.388 7.118.312.49 12.342 14.872 26.733 31.926s27.02 32.27 28.064 33.815c1.044 1.547 2.806 3.717 3.915 4.83 3.498 3.51 4.964 5.184 15.965 18.257 5.909 7.022 13.036 15.378 15.837 18.568 7.29 8.3 9.467 11.933 14.309 23.867l3.2 7.886-.252 56.706c-.282 63.987.225 59.143-6.224 59.87-4.556.49-9.014-.862-12.813-3.944-1.773-1.443-3.838-2.83-4.588-3.087-.751-.246-11.717-12.841-24.37-27.967-59.835-71.534-57.766-69.185-60.965-69.185-1.674 0-3.271.49-3.834 1.162-.784.947-.864 41.41-.435 215.41l.532 214.25-1.874 2.023c-2.356 2.543-4.374 2.525-8.937-.061zm-44.533-504.57c-.633-2.342-7.01-10.491-27.117-34.654-14.46-17.375-27.77-33.485-29.579-35.8-3.454-4.42-3.517-4.445-8.384-2.574l-2.066.794V706.82l3.098 9.213c5.849 17.395 5.255 16.513 36.026 53.514l28.097 33.785.374-113.399c.269-81.209.14-114.267-.454-116.46zm118.655 68.61c.545-27.51.282-32.008-2.531-43.891-.922-3.895-2.08-6.784-3.172-7.917-.945-.984-9.324-10.89-18.618-22.018-9.295-11.13-38.841-46.266-65.66-78.08-26.817-31.816-57.692-68.547-68.61-81.625s-20.457-23.937-21.198-24.131c-.74-.184-2.397.184-3.68.776l-2.332 1.13.028 32.391c.02 23.103.306 33.811.987 37.346l.96 4.958 14.657 16.826c8.061 9.253 35.247 40.66 60.412 69.793C666.85 669.44 668.154 670.922 669.04 669.71c.545-.747 1.01-10.276 1.353-27.628zm-1.48-174.135c1.069-1.273 2.092-3.045 2.271-3.943.177-.898.501-13.63.71-28.296l.385-26.662-3.151-9.552-3.152-9.552-24.027-28.377c-21.107-24.929-142.295-168.523-147.795-175.12-2.256-2.709-4.036-2.788-7.76-.368l-1.8 1.18v33.068c0 31.458.08 33.327 1.585 38.405.872 2.935 2.072 6.283 2.665 7.438s7.72 9.772 15.837 19.152c8.116 9.38 46.932 54.613 86.258 100.521 39.326 45.907 71.96 83.65 72.519 83.873 2.21.88 3.593.429 5.456-1.786zm-114.69-52.704c3.812-4.17 4.165-5.955 3.805-19.277-.538-19.907 1.837-15.92-34.966-58.678-29.556-34.338-31.123-36.02-33.549-36.02-5.176 0-4.92-.996-4.92 19.205 0 21.166.47 23.36 6.498 30.412 1.921 2.243 15.293 18.026 29.714 35.066 25.96 30.673 26.249 30.981 29.047 30.981 1.972 0 3.292-.49 4.37-1.687zm79.433-235.272c1.092-2.213 1.55-4.976 1.748-10.515.293-8.206-2.122-36.293-3.932-45.72-1.378-7.174-8.622-25.321-11.571-28.986-5.12-6.362-11.819-9.429-13.547-6.201-.39.734-.96 15.016-1.26 31.737l-.544 30.402 2.63 5.692c2.858 6.184 9.108 15.836 11.972 18.488 3.945 3.656 10.839 8.452 11.9 8.284.619-.123 1.792-1.529 2.606-3.186z" style="stroke-width:3.9895"/>
</svg>
