<svg xmlns="http://www.w3.org/2000/svg" width="1160" height="960">
    <path d="M620.09-29.997c-5.107-.064-10.236.867-14.135 2.816-6.95 3.39-6.102 5.935 2.374 7.29 8.985 1.187 13.732 4.07 16.953 10.172 2.373 4.747 2.372 5.594-.34 9.662-7.459 11.528-14.75 13.901-37.974 12.715-40.007-2.204-86.963 9.833-98.321 25.26-4.577 6.102-5.595 17.799-1.865 22.376 3.39 3.899.677 6.103-7.46 6.103-10.171 0-20.343 4.238-31.023 12.883-7.798 6.273-9.663 7.12-13.223 5.764-5.764-2.204-5.764-2.205-5.764 2.203 0 6.95 10.85 14.41 30.514 21.53 8.307 2.881 40.855 4.24 49.67 2.036 14.41-3.73 18.819-3.73 23.057-.51 5.255 4.07 3.73 8.985-4.577 14.07-3.39 2.035-11.697 7.799-18.309 12.715-6.61 4.916-12.715 8.984-13.732 8.984-.847 0-3.05-1.525-4.745-3.39-1.696-1.864-4.577-3.392-6.442-3.392-3.051 0-2.882.51 1.356 5.935 4.238 5.764 4.408 6.273 1.865 10.172-1.526 2.373-4.749 5.425-7.122 6.95-2.712 1.865-4.066 4.067-3.727 6.27.678 4.578 18.645 8.647 27.122 6.104 3.051-.847 14.07-1.524 24.581-1.524h18.987l10.68-7.291c15.597-10.341 16.781-11.019 23.393-14.07 21.02-9.493 39.838-11.697 52.721-5.764 9.154 4.238 11.359 5.934 17.631 14.41 10.172 13.562 11.018 16.273 11.018 34.75 0 16.275-.337 17.633-6.101 28.821-3.39 6.612-8.138 13.902-10.512 16.444-11.866 12.376-32.039 26.784-42.719 30.683-9.832 3.56-34.242 11.528-41.532 13.392-3.73 1.018-11.02 3.559-16.106 5.424-14.41 5.764-22.546 8.816-26.275 9.833-1.865.678-8.986 4.407-15.766 8.476-6.95 4.068-12.885 7.29-13.224 7.29-1.525 0-26.953 20.004-33.225 26.107s-28.48 33.733-28.48 35.428c0 .509-3.221 5.765-7.12 11.699-11.528 17.121-28.48 48.992-28.48 53.23 0 1.187-1.016 4.239-2.372 6.951-6.272 12.714-12.883 39.498-13.392 54.246-.509 9.833-1.02 11.528-4.58 13.902-5.932 3.729-10 8.983-10.17 12.374 0 3.22 4.24 4.237 5.935 1.355 2.034-3.22 7.628-1.695 9.662 2.543 1.017 2.204 4.746 6.104 8.475 8.647 4.577 3.22 6.443 5.595 6.104 8.137-.678 4.578-6.95 5.595-12.714 1.865-3.39-2.373-5.088-2.543-8.478-1.018-2.204 1.017-5.763 1.865-7.966 1.865-6.612 0-11.868 5.424-11.868 12.374 0 8.137 1.866 9.664 5.595 4.748l3.22-4.067 5.086 4.914c2.713 2.712 6.781 6.103 8.985 7.628 3.39 2.374 3.729 3.391 2.034 6.95-1.018 2.374-4.576 5.595-7.967 7.12-10.85 5.086-15.427 17.633-6.103 16.616 2.373-.17 7.629-.68 11.867-1.018 4.238-.17 8.477-.68 9.325-1.019 5.255-1.356 7.627.17 6.61 4.24-.678 2.542.17 6.78 1.865 10.68 12.884 27.632 24.75 45.77 41.532 62.553 6.611 6.78 12.885 12.376 13.732 12.376 2.882 0 27.463 19.326 36.956 29.158 32.379 32.888 47.636 81.54 37.465 119.514-9.155 34.752-28.48 54.077-61.029 61.028-20.342 4.407-46.28 2.203-60.18-5.086-14.58-7.459-28.311-24.922-35.6-45.264-3.052-8.477-3.39-13.73-3.39-60.18 0-60.35.34-58.825-16.104-90.017-2.373-4.407-9.495-13.562-16.106-20.174-27.293-27.97-65.774-41.362-104.594-36.446-29.497 3.56-54.078 14.578-73.743 32.717-42.55 39.16-42.889 96.458-.678 118.157 9.324 4.577 28.141 4.749 36.787.171 13.901-7.459 23.562-25.599 16.95-32.04-2.373-2.544-2.712-2.205-3.73 2.71-1.864 8.986-18.475 20.684-29.664 20.684-6.272 0-16.445-4.239-21.36-8.816-8.307-7.798-11.359-16.442-11.359-32.716 0-14.07.508-16.105 5.764-25.938 8.476-15.935 27.633-31.7 47.467-38.99 18.986-6.95 24.75-7.968 48.314-7.968 23.055 0 24.071.17 33.903 5.086 14.07 7.12 29.33 22.717 36.45 37.296 12.205 25.428 13.051 44.414 4.067 97.474-1.356 7.968-2.374 18.818-2.374 24.073 0 14.41 9.664 59.163 13.563 63.062.848.847 1.694 2.712 1.694 3.898 0 4.408 12.206 27.126 19.496 36.45 12.205 15.595 31.87 29.155 55.773 38.648 22.716 8.816 71.878 8.648 103.579-.506 44.923-13.053 86.116-47.638 105.78-88.493 3.222-6.611 6.442-13.222 7.12-14.748 3.73-7.459 13.392-44.413 13.392-51.194 0-5.086 2.882-2.714 10.172 8.475 8.984 13.9 28.988 33.905 43.906 43.737 33.057 21.7 73.066 31.36 110.7 26.444 9.663-1.186 20.002-3.22 23.223-4.407 3.052-1.357 6.782-2.372 7.97-2.372 3.05 0 26.613-11.188 35.259-16.613 24.072-15.426 48.483-41.533 60.35-64.758 2.034-4.238 4.578-8.984 5.426-10.849 2.882-5.594 6.441-21.36 6.441-28.65 0-19.664-9.834-45.603-22.379-59.165-16.613-17.8-36.446-28.648-65.095-35.768-35.77-8.646-57.47-24.92-64.59-47.805-4.916-15.766-1.693-30.007 9.834-41.704 17.122-17.63 43.907-15.087 61.537 5.764l6.95 8.309v15.085c0 14.749-.17 15.09-5.594 20.514-4.407 4.578-7.12 5.764-14.748 6.442-11.697 1.017-12.716 3.73-2.036 5.764 36.108 6.441 53.23-27.972 32.888-66.114-3.051-5.933-16.442-18.309-23.901-22.208-27.971-14.41-65.776-5.934-86.119 19.325-10.002 12.714-13.73 23.394-13.73 41.363-.17 14.579.337 17.63 5.592 30.514 8.477 21.53 22.717 38.652 40.517 48.654 4.408 2.543 23.226 8.816 26.447 8.816 1.186 0 6.611 1.525 12.036 3.22 34.243 11.189 51.534 27.8 51.534 50.008 0 13.223-3.73 21.699-14.41 32.379-9.832 9.832-13.222 12.037-29.496 18.818-10.34 4.238-49.161 4.408-62.893 0-30.344-9.663-53.57-26.615-68.15-50.179-10.34-16.952-14.748-31.192-19.155-63.57-3.39-25.26-6.95-44.584-10.51-56.79-3.39-11.867-17.29-45.772-20.342-49.332-1.187-1.356-2.205-3.22-2.205-3.899 0-1.525-7.799-11.867-17.122-22.716-7.968-9.155-11.695-22.885-7.457-27.463 5.763-6.441 27.462-14.41 58.485-21.53 18.139-4.068 73.062-4.068 93.236.17 40.346 8.306 63.233 15.767 92.39 30.176 10.511 5.255 11.528 5.764 25.43 13.901 11.357 6.612 44.244 31.362 52.212 39.33 9.154 8.984 10.509 6.61 2.88-5.257-10.68-16.614-18.646-40.007-18.646-54.756 0-9.663 3.9-16.443 13.732-24.241 16.444-12.884 32.718-17.631 55.265-16.275 8.137.508 16.782 1.527 19.155 2.205 4.069 1.186 4.067 1.016-.849-3.052-2.712-2.204-6.61-4.745-8.475-5.423-7.29-2.713-37.125-23.903-47.296-33.735-10.002-9.833-17.971-22.717-17.971-29.159 0-10.17 17.63-28.48 35.43-36.786 13.054-6.103 33.567-11.527 43.738-11.527 9.154 0 11.018-2.883 2.712-4.24-16.444-2.542-36.785-8.305-59.501-16.781-33.227-12.375-34.075-27.633-2.883-47.467 9.493-6.272 22.206-11.866 30.173-13.561 11.528-2.543 1.866-4.069-33.903-5.086-62.554-1.695-82.897-7.12-79.337-20.852 2.034-8.645 28.48-31.022 49.67-42.04 4.916-2.544 9.325-5.426 9.833-6.273 1.526-2.374-11.357-.68-23.054 2.88-5.086 1.695-12.715 3.9-16.953 5.257-8.646 2.543-30.005 9.83-38.99 13.22-15.426 6.104-24.921 9.835-28.82 11.53-2.373.848-6.44 2.71-9.322 3.728-21.36 8.815-69.335 32.89-86.457 43.4-3.899 2.373-8.476 5.085-10.17 6.272-24.412 14.749-47.468 30.851-64.59 45.6-7.12 5.933-14.07 10.85-15.426 10.85s-5.763-1.525-9.662-3.56c-3.73-2.034-9.155-4.578-11.868-5.934-2.712-1.356-10.511-2.88-17.462-3.559-9.493-.847-12.035-1.525-9.83-2.711 3.729-2.035 24.24-.51 26.783 2.033 1.018 1.017 3.899 1.865 6.442 1.865s5.426 1.187 6.613 2.543c4.916 5.933 7.627 4.238 44.753-29.327 2.543-2.373 10.172-10.85 16.953-18.818 6.611-7.968 13.56-16.275 15.426-18.309 3.22-3.56 8.137-12.713 12.545-22.545 8.985-21.19 13.051-51.875 10-75.439-1.865-13.392-1.694-14.918.85-16.444 4.237-2.373 3.559-5.085-3.73-12.714-13.901-15.087-23.734-33.905-18.987-36.786 1.017-.679 4.917-.168 8.646.849 3.73 1.186 7.289 1.694 7.798 1.015 2.373-2.373-1.695-7.627-8.307-11.018-3.899-2.034-11.528-7.968-16.953-13.223-7.798-7.628-9.661-10.51-9.322-14.07.509-4.069 1.185-4.408 9.831-4.917 13.562-.678 15.257-1.526 10.171-5.595-2.373-1.695-7.288-4.066-11.018-4.914-10.34-2.712-16.106-5.257-16.106-7.122 0-3.73 8.985-12.882 15.935-16.272 12.714-6.442 23.563-17.462 26.106-26.447 2.882-10.85 2.545-16.442-1.184-25.088C734.624-.056 721.06-9.888 710.043-9.888c-7.46 0-7.968 3.05-1.187 7.457 5.085 3.39 13.732 15.427 13.732 18.987 0 1.017-1.695 4.408-3.899 7.629-7.12 10.68-34.754 15.088-46.451 7.46-4.408-3.052-3.728-5.256 2.036-6.273 1.865-.34 3.39-1.696 3.39-3.052 0-3.221-14.07-2.541-22.377.85-2.882 1.186-5.764 1.864-6.273 1.186-1.864-1.695-1.018-8.307 1.525-14.41 6.272-15.257.678-27.802-16.444-36.787-3.814-2.034-8.898-3.092-14.005-3.156M572.2 51.436c2.14 0 4.767.976 10.7 2.925 11.867 3.9 21.021 8.306 21.021 10.34 0 .678 1.866 1.866 4.24 2.374 2.373.678 4.236 1.864 4.236 2.712 0 2.373-3.051 2.033-8.985-1.018-3.051-1.695-7.46-3.898-10.002-5.255-7.629-3.899-23.563-3.39-30.683 1.019-3.56 2.034-6.273 4.575-6.273 5.423s-1.186 1.527-2.543 1.527c-6.611 0 1.188-12.714 10.512-17.122 3.984-1.95 5.637-2.925 7.777-2.925m-4.313 14.989c1.306-.068 3.464.5 5.69 1.666 4.068 2.204 4.746 15.257.677 15.257-1.356 0-2.881-2.033-3.39-4.745-.678-2.543-1.694-5.934-2.711-7.46-.848-1.695-1.527-3.39-1.527-3.899s.477-.779 1.261-.82m49.089 5.227c1.737 0 4.068.508 6.441 1.525 2.713 1.186 2.203 1.527-2.883 1.527-3.56.17-6.441-.68-6.441-1.527 0-1.017 1.145-1.525 2.883-1.525m-23.204 4.753c1.028.035 1.674.513 1.674 1.52 0 2.034-6.782 7.798-11.867 10.002s-15.259 3.729-18.14 2.712c-4.917-1.695-1.694-3.899 5.934-3.899 6.612-.17 8.815-1.017 12.884-5.086 3.146-3.263 7.255-5.326 9.515-5.25M220.355 86.887c-7.141.063-14.218 1.038-18.202 2.903-10.51 5.085-15.597 9.155-13.732 11.02q1.78 1.78 8.646-.509c8.985-2.882 16.275-1.186 38.143 9.325 8.646 4.238 17.12 7.628 18.647 7.628 1.695 0 5.765.848 9.155 1.865 6.95 2.034 30.853-1.358 31.87-4.579.34-1.017-4.577-3.22-10.85-4.914-6.271-1.696-15.257-5.086-20.004-7.629-11.189-6.272-17.29-9.324-25.088-12.545-4.238-1.78-11.444-2.629-18.585-2.565m318.746 6.762c4.26.042 8.964.633 12.439 1.735 9.493 3.221 19.324 12.375 22.714 21.02 2.882 7.63 2.883 8.138-.169 14.58-4.577 10.171-19.324 21.7-19.324 15.088 0-1.017.676-1.696 1.693-1.696 2.882 0 9.664-8.644 11.699-15.086 6.103-18.647-18.14-33.736-46.28-28.82-11.697 2.034-21.19.678-12.883-1.865 2.373-.848 7.288-1.525 11.018-1.525 3.73-.17 7.968-1.017 9.324-1.865 1.695-1.101 5.51-1.609 9.77-1.566M379.71 107.023c-10.332.13-21.12 1.827-29.226 4.974-30.853 11.867-80.183 18.818-97.474 13.732-24.92-7.289-48.485-9.154-59.504-4.407-3.39 1.356-12.205 8.645-19.664 16.104-14.24 14.24-22.884 18.478-32.886 16.444-6.95-1.357-7.629 1.864-1.187 5.763 9.154 5.594 13.392 4.577 43.228-9.493 17.97-8.646 25.088-9.323 40.346-4.068 5.424 1.865 11.868 3.392 14.24 3.561 2.374.17-.168 1.185-5.763 2.372-13.9 2.882-19.666 6.273-32.55 18.818-12.714 12.714-18.817 16.103-35.6 20.002-11.866 2.882-18.816 7.46-16.613 11.02.678 1.357 2.544 1.186 5.595-.34 3.56-1.864 7.63-2.034 19.327-.677 15.935 1.864 31.7-.34 35.429-5.086 1.017-1.187 2.882-2.203 4.238-2.203 1.187 0 2.883-1.018 3.561-2.205 3.052-4.577 21.02-13.052 27.8-13.052 5.764 0 6.442 2.711 1.187 4.237-3.56 1.017-22.037 10.002-31.192 15.088-11.019 5.933-27.802 25.427-27.802 32.039 0 3.39-6.102 16.613-9.662 20.851-3.73 4.238-14.919 12.714-21.53 15.935-7.29 3.73-17.969 14.92-17.969 18.818 0 2.713.679 3.222 3.052 2.374 8.307-3.56 20.85-7.628 23.055-7.628 3.22 0 13.9-5.087 22.376-10.512 3.9-2.543 11.19-9.324 16.106-15.088 18.14-21.19 29.495-30.514 45.6-36.956 4.069-1.695 15.767-2.711 36.449-3.39 19.665-.677 31.87-1.694 34.244-3.22 2.034-1.017 6.611-2.034 10.171-2.034s7.967-1.186 9.663-2.543c1.864-1.356 5.085-2.542 7.119-2.542s6.272-1.358 9.493-2.883c3.052-1.526 7.629-3.73 10.172-5.086 2.373-1.187 5.594-2.203 7.12-2.203s2.71-.68 2.71-1.527c0-.848 1.696-2.202 3.9-2.88 2.034-.679 7.968-5.256 13.054-10.172 16.952-16.443 26.954-22.04 45.771-26.277 11.019-2.374 17.97-5.764 29.836-14.58 6.612-4.916 13.901-9.661 16.444-10.509 13.392-5.085-5.426-10.51-34.584-10.002-15.935.339-23.054-.34-29.496-2.543-4.577-1.526-12.204-3.898-16.782-5.423-6.007-1.854-13.767-2.704-21.802-2.603m132.2 37.373c1.286-.018 3.458 1.147 5.895 3.372a574 574 0 0 1 7.12 5.592c3.729 2.713 2.372 6.273-2.374 6.273-2.882 0-11.868-10.51-11.868-13.901 0-.89.455-1.325 1.227-1.336m-149.05 3.372c5.595 0 3.899 4.068-2.204 4.746-2.543.339-5.764 1.695-7.12 3.052-1.525 1.525-6.101 2.374-12.374 2.374-5.424 0-10.512.676-11.02 1.693-.678 1.017-9.662 1.696-21.19 1.696-11.527 0-20.511-.679-21.19-1.696-.677-1.017 5.763-1.693 18.138-1.693s21.53-.848 25.938-2.543c3.73-1.356 9.831-2.374 13.56-2.543 3.73 0 8.308-1.187 10.003-2.543 1.865-1.356 5.256-2.543 7.46-2.543m-101.184 5.148c7.226.106 15.152.785 17.95 1.972 4.746 2.034 4.745 2.033-2.884 2.711-10.171.848-28.818-1.186-28.818-3.22 0-1.102 6.526-1.569 13.752-1.463m563.514 20.3c-1.313.064-2.754.573-3.263 1.505-.508.848-4.917 3.56-9.833 6.273-12.884 6.78-16.782 8.985-22.546 12.545-2.712 1.865-6.272 3.899-7.628 4.577s-7.798 4.746-14.58 9.153l-12.035 7.969-1.187 17.8c-.509 9.832-1.696 20.004-2.543 22.716-.848 2.543-3.22 10.339-5.255 17.12-2.204 6.78-4.576 12.715-5.254 13.223-.848.509-1.528 1.865-1.528 3.22 0 2.544-13.56 22.718-19.833 29.668-2.034 2.204-3.391 4.407-3.052 4.746.848.847 9.324-3.22 16.953-8.136 2.882-1.864 6.61-4.068 8.475-5.085s5.766-3.221 8.478-5.086c2.882-1.865 6.61-4.068 8.475-5.086 1.865-1.017 5.763-3.22 8.476-5.085 17.46-11.189 84.762-41.025 103.41-45.602 7.967-2.035 32.378-18.479 29.157-19.665-1.356-.678-4.068-.339-5.763.509-4.069 2.204-30.345 8.305-66.623 15.595-5.086 1.017-15.427 2.205-22.886 2.714-11.697.847-14.24.508-18.986-2.543-4.408-2.712-5.595-4.747-5.595-8.816 0-9.662 13.901-29.496 34.244-48.991 7.29-7.12 13.223-13.392 13.223-14.07 0-.848-1.187-1.231-2.5-1.168m-454.33 25.66c-2.019.035-5.075.987-8.508 2.798-11.697 6.103-14.239 7.122-17.46 7.122-1.865 0-5.595 1.187-8.137 2.543-2.713 1.356-6.952 2.543-9.325 2.543s-8.137 1.015-12.714 2.371-18.648 2.713-31.192 3.221c-26.446 1.187-35.768 3.731-44.753 12.377-3.39 3.22-8.138 10.17-10.512 15.594-18.478 39.838-23.394 47.976-32.379 52.722-2.203 1.017-3.898 3.222-3.898 4.748 0 2.204 1.524 2.373 9.83 1.356 15.258-1.695 27.295-10.849 35.263-26.953 2.373-4.747 5.932-10.511 7.966-12.545 8.476-9.155 48.654-22.04 48.654-15.598 0 .848-2.034 2.035-4.576 2.543-2.713.678-6.782 2.205-9.325 3.561-2.373 1.356-5.933 2.374-7.629 2.374-5.424 0-9.154 5.593-18.477 27.631-5.256 12.036-11.018 22.885-14.24 26.275-6.102 6.442-5.087 9.665 2.372 7.8 5.934-1.356 15.768-13.054 23.057-27.124 9.154-17.63 20.512-27.802 48.992-43.906 1.695-1.018 4.237-3.05 5.932-4.746 1.696-1.526 4.239-2.883 5.595-2.883 2.374 0 2.372-.508-.34-3.39-2.882-3.22-2.881-3.392-.169-3.392 1.695 0 7.63-2.711 13.055-5.932 5.594-3.221 10.848-5.933 11.696-5.933 2.373 0 23.732-21.19 23.732-23.563 0-1.113-.941-1.641-2.51-1.614m-68.434 45.604c1.738-.042 3.221.424 3.815 1.44 1.186 1.866-8.817 4.408-10.512 2.712-.509-.508 0-1.695 1.356-2.542 1.61-1.018 3.604-1.567 5.341-1.61m30.599 1.781c-7.968.848-26.954 16.95-31.87 27.122-4.408 8.985-9.156 23.226-9.156 27.633 0 1.696-2.204 6.443-5.086 10.68-5.933 8.646-5.933 8.985-2.542 8.985 4.407 0 19.835-12.714 26.277-21.53 6.442-8.815 9.663-15.934 14.58-31.87 1.695-5.594 3.898-11.357 5.085-12.714 1.017-1.356 2.372-3.9 2.88-5.594.679-1.526.51-2.882-.168-2.712m-14.284 84.78c-2.627-.106-5.467.743-8.942 2.523-11.189 5.933-12.543 12.546-2.372 12.546 6.103 0 7.118.676 8.813 4.914.848 2.543 3.901 6.273 6.613 7.969 5.764 3.899 6.273 9.832 1.187 12.714-3.051 1.525-4.578 1.186-8.477-1.696s-6.273-3.39-12.037-2.543c-12.375 1.865-16.613 4.918-16.613 11.698 0 6.612.341 6.782 5.257 3.73 3.052-1.865 4.067-1.357 8.136 3.39 3.051 3.73 6.105 5.595 8.986 5.595 4.917 0 8.985 3.897 7.629 7.288-.509 1.356-6.104 5.085-12.545 8.475-9.833 5.086-11.528 6.613-12.037 11.02l-.509 4.918 13.901-.51c15.088-.508 14.918-.508 40.855 14.749 4.577 2.712 9.663 4.916 11.358 4.916s4.916 1.526 7.12 3.221c3.898 3.052 3.9 3.39 1.018 6.442-4.578 5.255-3.561 8.644 3.39 10.509 5.424 1.525 6.78 1.356 10.17-1.865 2.204-2.034 3.9-5.423 3.9-7.457s1.017-5.935 2.373-8.647c1.356-2.543 3.221-7.798 4.408-11.527 2.373-7.798 8.814-21.36 13.561-28.818 7.29-11.189 7.799-12.886 4.239-15.429-1.695-1.356-4.916-2.371-7.12-2.371-4.916 0-11.02-6.444-9.833-10.343 1.186-3.73-3.221-12.544-6.95-14.07-1.527-.678-4.576.001-6.78 1.527-2.204 1.357-5.086 2.543-6.273 2.543-3.56 0-12.036 7.797-10.68 9.831.678 1.018 2.034 1.527 3.22 1.019 1.357-.51 4.408.846 6.951 2.88 4.069 3.221 4.41 3.9 2.205 6.104-2.034 2.034-3.22 2.204-6.272.509-2.035-1.017-5.596-1.527-7.97-.85-8.814 2.204-8.475-8.644.679-18.646l6.104-6.61-3.899-2.715c-2.034-1.356-8.138-6.61-13.732-11.527-5.425-4.746-11.527-8.815-13.561-8.815-1.865 0-5.427-1.525-7.8-3.39-2.628-2.034-5.043-3.095-7.67-3.2m535.565 21.848c7.29 0 6.95.849-.678 2.205-3.22.678-5.594.338-5.594-.51 0-1.016 2.882-1.695 6.272-1.695m-14.393 3.444c2.718.001 4.731.529 4.731 1.641 0 .848-2.882 2.035-6.273 2.543-3.56.509-8.477 2.205-11.02 3.561-2.374 1.356-5.932 2.374-7.966 2.374-1.865 0-5.933 1.016-8.985 2.372-7.12 2.882-15.936 5.935-22.548 7.8-2.712.847-7.797 2.371-11.018 3.558-3.22 1.017-8.646 2.883-11.867 4.07s-8.644 3.05-11.865 4.068c-3.221 1.186-8.478 2.883-11.699 3.56-3.051.848-6.44 2.204-7.457 3.221-1.017 1.018-3.73 1.865-6.104 1.865-2.542 0-5.933 1.187-7.628 2.543-1.865 1.356-4.917 2.543-6.782 2.543-2.034 0-5.084 1.187-6.78 2.543-1.864 1.356-5.424 2.543-8.137 2.543-2.542 0-4.748.676-4.748 1.693 0 .848-2.541 1.697-5.423 1.527l-5.595-.171 5.086-1.694c2.712-1.017 6.102-2.882 7.288-4.238 1.187-1.187 3.73-2.203 5.426-2.203s5.595-1.357 8.816-2.883c3.051-1.526 7.628-3.73 10.171-5.086 2.373-1.186 5.594-2.202 6.95-2.202 1.526 0 4.748-1.018 7.46-2.374 6.103-3.052 25.766-10.34 35.26-12.883 6.611-1.865 15.425-4.918 22.545-7.8 3.051-1.356 7.629-2.372 10.171-2.372 2.543-.17 6.443-1.186 8.816-2.543 2.373-1.356 6.273-2.373 8.647-2.542 2.542 0 6.781-1.187 9.324-2.543 3.052-1.621 7.71-2.492 11.204-2.491m22.19 47.413c5.256 0 6.442.509 4.577 1.696-3.39 2.203-14.07 2.203-12.714 0 .509-1.018 4.239-1.696 8.138-1.696m-25.937 3.56c19.834-.169 18.817 2.714-1.865 4.917-7.798.848-17.629 2.204-21.867 3.221-8.137 1.865-24.92 4.577-41.872 6.95-5.934.848-12.206 2.373-13.902 3.39-1.864.848-6.27 1.696-10 1.696s-10.002 1.187-13.9 2.543c-3.9 1.356-10.852 2.543-15.43 2.543-4.576 0-8.306.677-8.306 1.525 0 2.204-8.136 3.39-13.392 1.865-3.899-1.018-3.56-1.357 3.899-2.543 4.577-.678 10.34-2.375 12.714-3.561 2.374-1.356 6.444-2.372 8.987-2.372s6.61-.847 9.322-1.865c2.543-1.186 8.139-2.542 12.377-3.22s11.019-2.035 15.257-3.052c12.375-2.882 27.123-5.596 40.854-7.291 7.29-.848 14.919-2.202 16.953-3.05 2.204-.847 11.356-1.696 20.171-1.696m-310.395 15.089c4.916 0 4.408 2.372-.678 4.745-2.373 1.017-4.239 2.713-4.239 3.73 0 .848-.676 1.696-1.693 1.696-1.865 0-12.544 10.34-14.07 13.73-.678 1.356-1.867 3.56-2.714 4.917-3.052 5.424-6.95 19.833-6.95 26.275s3.898 20.853 6.95 26.277c.847 1.357 2.204 4.239 3.052 6.273 1.017 1.865 2.542 4.067 3.39 4.746 1.016.508 1.864 2.881 1.864 5.085s1.019 4.237 2.205 4.746c2.713.847 2.373 22.886-.509 28.48-4.577 8.646-8.984 11.699-16.782 11.699-8.984 0-7.63-2.545 2.372-4.748 6.442-1.357 6.613-1.525 9.665-13.052 3.22-12.884 3.898-22.886 1.524-22.886-.847 0-2.372-2.035-3.39-4.748-1.016-2.543-3.391-6.95-5.256-9.662-7.629-11.867-10.172-19.664-10.172-32.039.17-7.798 1.018-13.223 2.543-15.257 1.356-1.865 2.543-5.594 2.543-8.306 0-3.73 2.882-7.63 13.392-18.31 8.137-7.967 14.919-13.391 16.953-13.391m214.694 44.487c31.65.044 82.807 1.517 90.616 3.149 4.238 1.017 15.596 2.373 25.26 3.22 9.662 1.018 17.969 2.033 18.308 2.372 2.373 2.204-18.139 2.544-38.82.34-13.223-1.356-45.093-3.052-70.69-3.56-25.43-.679-47.468-1.526-48.655-2.035-1.356-.508-1.865-1.695-1.187-2.542.424-.69 10.78-.964 25.168-.944m-350.038 47.142c.988.047 2.48.356 4.641.928 2.035.679 3.73 1.867 3.73 2.715 0 2.373-8.983.846-9.83-1.696-.425-1.378-.186-2.027 1.46-1.947m15.108 4.854c2.245-.016 6.38 1.967 9.876 5.23 3.052 2.713 6.274 5.086 7.291 5.086.848 0 1.525.846 1.525 1.693 0 1.018 1.356 2.375 3.052 2.883 2.373.848 10.171 6.441 26.615 18.647 5.086 3.73 14.409 7.459 21.698 8.307 11.528 1.695 11.528 4.07 0 4.07-7.289-.17-11.527-1.188-16.612-4.24-3.73-2.373-8.478-4.915-10.512-5.932-2.204-.847-3.899-2.375-3.899-3.392 0-.848-.847-1.693-1.865-1.693-1.017 0-6.1-3.223-11.355-7.291-5.256-3.9-11.869-8.645-14.75-10.51-6.104-3.729-12.715-9.662-12.715-11.527 0-.9.631-1.323 1.651-1.33m199.568 16.253c.239-.016.471.037.683.164 2.374 1.356 1.694 9.495-1.018 14.242-1.356 2.373-2.373 6.272-2.543 8.815 0 2.543-1.186 7.458-2.711 11.018-4.578 10.68-7.289 17.122-9.832 22.886-1.356 3.051-3.73 8.985-5.257 13.223-8.137 21.19-13.222 30.684-17.968 33.057a428 428 0 0 1-9.494 4.914c-2.882 1.526-7.289 2.714-9.662 2.714s-4.408.677-4.408 1.525c0 1.526-12.544 8.647-15.257 8.647-2.882 0-1.865-3.393 1.356-4.58 1.526-.678 3.56-2.033 4.239-3.389.678-1.187 2.712-2.203 4.577-2.203 2.712 0 8.646-2.545 16.953-7.122 1.356-.678 4.067-2.033 5.932-2.88 3.221-1.356 6.951-7.799 13.223-22.717 5.764-13.223 8.306-18.987 9.831-21.53.848-1.356 2.035-3.729 2.543-5.085.509-1.356 2.036-4.746 3.392-7.289 1.187-2.712 2.372-6.102 2.372-7.797 0-1.526 1.187-4.408 2.543-6.273 1.356-1.695 2.543-4.747 2.543-6.781 0-1.865 1.186-4.917 2.542-6.782 1.357-1.695 2.543-5.255 2.543-7.797 0-2.374.51-5.594 1.018-7.12.382-1.144 1.145-1.812 1.86-1.86M396.08 610.547c2.884.016 6.47.94 7.805 2.56 1.187 1.357 3.562 2.543 5.257 2.543 1.526 0 4.068 1.016 5.254 2.372 1.357 1.356 3.9 2.543 5.764 3.052 3.56.508 5.595 8.137 2.374 8.137-1.187 0-3.561-1.865-5.426-4.239s-5.084-4.236-7.288-4.236c-2.034 0-4.747-1.018-5.764-2.374-1.017-1.187-4.238-2.712-6.95-3.39-2.882-.508-5.086-1.697-5.086-2.714 0-1.186 1.817-1.723 4.06-1.71m20.614 20.981c.214.024.414.099.583.226 2.034 1.187 3.56 7.629 1.865 7.629-2.373 0-5.423-4.917-4.236-6.782.381-.763 1.144-1.144 1.788-1.073m41.085.685c.429.008.778.134 1.033.388 3.73 3.73-4.578 11.358-9.325 8.306-1.865-1.356-1.526-2.373 2.712-5.763 2.288-1.907 4.292-2.954 5.58-2.93m35.445 8.866c3.39 0 2.712 5.762-1.187 9.322-4.916 4.407-1.525 7.63 8.307 7.8 7.12.17 7.289.338 2.712 1.524-13.223 3.39-28.31.678-20.512-3.73 1.526-.847 2.712-3.22 2.712-5.085 0-2.034 1.188-5.087 2.883-6.782 1.525-1.695 3.73-3.05 5.085-3.05m-46.498 5.02c1.54.026 2.93 1.019 2.93 2.608 0 1.865 2.035 2.543 8.647 2.543 5.255 0 8.137.676 7.46 1.694-.51.847-5.256 1.696-10.172 1.696-7.29 0-9.493-.678-10.85-3.221-1.016-1.695-1.186-3.56-.677-4.239a3.66 3.66 0 0 1 2.662-1.08" style="stroke-width:1.27142"/>
</svg>
