<svg xmlns="http://www.w3.org/2000/svg" width="1370" height="960">
    <path d="M552.252 837.253c-56.828 16.575-73.402 41.437-37.885 55.644 23.678 9.47 317.287 9.47 340.965 0 37.885-14.207 17.758-39.07-44.989-56.828-78.137-22.494-182.321-22.494-258.091 1.184M317.838 657.299c0 9.471 15.391 24.862 35.517 35.517 28.414 14.207 88.793 17.759 331.494 17.759s303.08-3.552 331.494-17.759c20.126-10.655 35.517-26.046 35.517-35.517 0-15.39-52.092-17.758-367.01-17.758-314.92 0-367.012 2.367-367.012 17.758m62.747-207.183c-164.563 3.551-243.884 10.655-253.356 20.126-34.333 34.333 50.908 40.253 557.62 40.253 487.77 0 581.298-5.92 562.356-36.701-3.552-5.92-23.678-13.023-44.989-16.575-60.379-9.471-561.171-14.207-821.63-7.103m-36.7-177.586c-21.311 13.023-35.518 29.597-31.966 35.517 9.471 16.575 736.39 16.575 745.86 0 3.552-5.92-10.654-22.494-31.965-35.517-36.7-22.495-59.195-23.678-340.965-23.678s-304.264 1.183-340.965 23.678M507.262 71.266c-42.62 27.23 67.483 71.034 178.77 71.034 66.299 0 170.483-28.414 183.506-49.724 4.735-7.104 0-16.575-8.288-22.494-22.494-14.207-331.493-13.023-353.988 1.184" style="stroke-width:1.18391"/>
</svg>
