<svg xmlns="http://www.w3.org/2000/svg" width="1568" height="960">
    <path d="M746.314-60c-3.949 0-14 7.18-22.257 16.155-9.334 9.693-18.309 16.155-23.335 16.155-9.334 0-20.104 14.36-18.309 24.052.718 3.59 13.283 12.565 29.796 21.18 15.796 8.258 29.798 15.438 31.234 15.438 1.077.359 7.538-3.95 14-9.334 11.13-9.693 11.488-10.052 9.334-35.54C764.623-41.333 756.725-60 746.314-60m61.802.21c-2.775.07-4.946 2.28-9.388 7.328-6.462 7.54-8.616 15.437-10.41 37.695-2.155 27.643-2.155 28.72 7.538 36.259 5.385 4.667 12.206 8.257 15.078 8.257 8.616 0 57.798-25.489 59.952-31.233s-5.744-22.975-11.488-24.411c-1.795-.718-7.897-2.155-13.282-3.232-5.744-1.436-11.488-6.103-14.36-11.846-2.513-5.385-9.334-12.206-14.72-15.437-4.24-2.199-6.763-3.436-8.92-3.38M688.157 36.93c-15.078 0-17.95 1.076-21.54 8.974-3.23 7.539-2.513 10.77 5.026 22.257 6.103 9.334 8.975 18.668 8.975 29.08 0 8.256 2.154 17.231 4.667 20.462 8.616 10.411 19.386 5.744 44.516-19.386 20.463-20.822 23.693-25.488 20.821-31.232-2.153-3.95-4.667-9.693-5.744-12.924-2.154-7.54-33.745-17.232-56.72-17.232m185.08.3c-1.666-.01-3.517.013-5.581.058-24.412.359-49.901 7.18-53.132 14.001-1.436 2.872-4.308 9.334-6.821 14.001-4.308 7.898-3.231 10.052 12.924 26.566 9.334 10.052 20.463 21.18 24.053 24.77 14.719 14.001 30.873 3.95 30.873-19.026 0-9.334 3.231-19.027 9.334-28.36 8.257-12.566 8.975-15.797 5.744-23.336-3.141-6.91-5.732-8.6-17.394-8.673zm-94.804 43.4c-11.342-.142-19.217 6.603-27.092 22.354-5.026 10.052-11.847 22.617-14.72 28.361-6.102 11.847-3.59 21.54 7.18 26.925 10.412 5.026 15.796 5.026 18.668.718 2.872-4.667 21.9-4.667 31.233.359 11.847 6.461 28.002-2.154 28.002-15.078 0-15.078-25.13-59.952-34.823-62.465-3.029-.74-5.83-1.14-8.448-1.174m-3.15 122.062c-2.526 0-4.564 2.964-5.995 9.067-1.436 5.385-3.59 11.846-5.385 13.641-3.59 5.026-12.562 31.95-22.255 66.055-6.462 23.335-7.541 37.337-7.541 96.572 0 46.67-1.073 68.571-3.586 67.853-2.154-.718-4.67-6.103-6.106-11.847-2.513-12.924-19.383-48.827-31.589-67.854-5.026-7.898-10.056-16.155-11.133-18.668-10.052-22.617-96.211-104.823-104.827-99.438-4.667 2.872-3.227 29.794 2.876 53.129 10.052 39.13 20.102 70.364 23.333 72.518 1.795 1.077 3.229 4.307 3.229 7.179 0 10.41 33.747 75.03 50.979 98.006 9.333 12.565 17.232 24.412 17.232 25.848 0 7.18-10.772 2.153-30.516-14.72-20.822-17.591-77.541-53.85-84.003-53.85-1.795 0-7.898-2.15-13.642-5.022-36.258-18.309-104.47-33.03-112.726-24.773-6.462 6.461 42 63.543 82.568 98.007 20.462 17.232 72.877 50.257 80.416 50.257 2.154 0 7.538 2.513 11.128 5.385 3.949 2.872 10.052 5.385 13.283 5.385 3.59 0 7.543 1.797 8.62 3.592 4.666 7.18-10.053 7.896-36.26 1.793-30.156-7.18-96.572-6.103-128.881 1.436-32.669 8.257-57.441 15.437-68.211 20.104-5.744 2.513-13.638 5.744-17.228 6.82-14.719 4.668 0 15.8 41.64 31.595 56.003 21.18 115.6 29.435 170.167 23.691 20.104-2.154 39.487-2.872 42.359-1.436 7.18 2.513 3.592 9.334-4.665 9.334-3.23 0-10.768 2.513-16.512 5.385-5.385 2.872-12.206 5.385-14.72 5.385-7.538 0-74.314 35.9-95.136 50.979-35.9 26.565-84.724 78.98-80.416 85.801 2.872 5.026 33.39 3.948 62.469-2.514 49.182-10.77 99.08-29.798 127.44-48.107 6.103-3.949 14.36-8.612 18.669-10.407 3.949-1.795 8.618-5.388 10.054-7.183 1.077-2.154 3.589-3.95 5.743-3.95 3.949 0 4.305 9.696.715 11.491-8.257 3.59-51.336 78.258-51.336 88.31 0 2.154-2.15 8.26-5.022 14.004-11.129 22.258-29.442 98.004-25.852 106.979 3.231 8.975 10.054 6.105 34.465-15.435 45.234-39.49 81.49-80.774 101.595-115.597 12.565-21.899 24.053-46.67 24.053-52.414 0-2.513 1.795-5.743 3.949-6.82 1.795-1.436 5.389-6.465 7.184-11.491 5.744-15.796 7.894-5.744 3.586 16.155-3.231 13.642-3.948 39.849-2.871 77.903 1.795 62.824 7.897 94.42 25.846 136.422 2.514 6.103 5.748 14 7.184 17.948.943 2.985 1.606 4.664 2.75 4.797 1.472.17 3.733-2.216 8.378-7.668 4.667-5.385 8.613-12.205 8.613-15.077s2.156-10.413 5.028-16.875c6.103-14.36 14.362-43.438 20.824-72.876 6.103-28.36 6.103-110.57 0-128.16-2.872-7.899-3.593-15.797-1.798-18.67 2.872-5.384 3.948-4.306 24.41 42.723 2.514 6.103 5.745 13.283 6.822 16.155s5.385 10.41 9.334 16.155c3.949 6.103 8.26 13.283 9.697 16.155 14 31.232 108.053 120.623 117.028 111.648 3.59-3.59-6.101-61.748-13.999-84.724-2.872-8.257-5.027-16.876-5.027-19.389 0-5.384-6.818-21.536-23.691-56-16.155-32.31-17.95-35.542-36.259-58.877-13.642-16.873-19.386-29.081-13.283-29.081 1.077 0 14.36 9.337 29.438 20.824 27.284 20.463 63.182 43.795 67.849 43.795 1.077 0 12.566 5.026 25.13 10.77 12.207 6.103 25.13 10.77 28.362 10.77 2.872 0 8.254 1.44 11.485 3.235 8.616 4.667 76.11 15.796 78.623 13.283 6.103-5.744-13.283-30.875-53.85-71.083-28.36-28.001-67.133-56.362-94.058-68.568-7.898-3.59-18.668-8.976-24.053-11.848-5.026-2.872-12.563-5.028-16.512-5.028-9.693 0-13.645-6.462-6.106-9.334 3.23-1.436 22.98-.356 43.443 2.157 53.85 6.103 113.44-1.077 164.777-20.463 25.847-9.693 44.873-19.026 44.873-21.54 0-2.512-10.411-7.896-37.695-19.025-60.311-24.771-149.339-34.827-202.83-23.339-24.052 5.026-37.695 1.795-21.181-5.385 4.666-1.795 11.126-5.025 13.998-6.82s12.565-6.104 21.54-9.335c8.975-3.23 18.668-7.539 21.54-9.334 2.871-1.436 11.848-6.462 19.746-10.77 41.285-22.257 90.826-64.618 119.905-102.671 13.642-17.95 12.209-23.691-6.1-20.82-69.287 11.488-97.65 20.103-146.115 43.438-24.77 12.206-70.721 42.719-72.875 48.822-2.154 5.026-11.49 3.23-11.49-2.514 0-2.872 1.435-5.385 2.871-5.385 1.795 0 10.773-10.77 20.825-24.053 19.385-26.566 22.257-31.229 33.744-54.923 4.308-8.975 10.055-20.467 12.927-25.852 2.872-5.026 5.022-11.845 5.022-15.076 0-2.872 2.155-10.771 5.027-17.233 12.924-30.515 21.18-89.386 13.642-94.053-3.59-2.154-67.49 50.617-78.619 64.977-4.308 5.385-13.645 16.513-20.825 24.411s-14.717 17.591-16.512 21.54c-1.795 3.95-6.46 12.204-10.05 17.948-9.692 14.719-29.8 57.081-34.108 71.082-1.077 3.231-3.588 6.106-5.742 6.106-4.667 0-4.667-22.26 0-41.286 8.257-34.105 3.59-110.212-9.692-156.164-11.864-41.391-22.567-64.003-29.55-63.995m-499.748 39.542a.7.7 0 0 0-.224.04c-2.513 1.078-3.95 17.95-3.95 51.696 0 47.029.36 50.978 8.976 66.056 5.026 8.975 10.41 20.822 11.488 26.566 2.513 10.052 12.565 20.462 28.72 29.796 10.41 6.103 12.565 5.744 10.77-1.795-1.436-5.385 1.794-20.822 11.487-53.85 5.385-18.667-18.667-72.158-45.592-100.519-9.39-10.085-19.118-18.15-21.675-17.99zm1016.947 0c-2.557-.159-12.283 7.905-21.673 17.99-26.925 28.361-50.977 81.852-45.592 100.52 9.692 33.027 12.923 48.464 11.487 53.85-1.795 7.538.359 7.897 10.77 1.794 16.155-9.334 26.207-19.744 28.72-29.796 1.077-5.744 6.462-17.59 11.488-26.566 8.616-15.078 8.975-19.027 8.975-66.056 0-33.745-1.436-50.618-3.95-51.695a.8.8 0 0 0-.225-.041zM190.947 338.486c-14.001 0-74.672 34.105-71.082 39.849 1.436 1.795 7.54 3.231 14.001 3.231 6.821 0 17.59 2.513 24.053 5.385 20.462 8.616 41.644 6.82 56.722-4.667 7.18-5.744 15.795-11.847 19.026-13.642 9.334-5.026-26.206-30.156-42.72-30.156m1182.803.622c-8.154-.076-13.64 2.676-26.475 12.302l-18.309 13.642 15.437 10.41c8.616 5.745 16.514 11.847 17.95 13.642 2.872 5.026 32.669 3.95 47.029-2.153 6.82-2.872 17.95-5.385 24.77-5.385 6.462 0 12.565-1.436 14.001-3.231 3.231-5.385-52.414-36.977-68.21-38.772-2.288-.27-4.311-.437-6.193-.455m-134.219 149.17c-18.443-.09-36.393 1.884-42.676 6.013-10.77 7.18-19.385 7.18-21.898.36-1.795-4.309-3.231-4.31-10.77 1.076-11.488 8.257-11.488 16.513 0 13.641 5.385-1.436 10.052-.358 11.847 2.154 6.82 11.13 20.822 19.028 36.258 20.823 21.54 2.872 71.082.358 86.16-4.308 19.386-5.744 14.36-19.386-13.283-33.387-8.257-4.128-27.194-6.283-45.638-6.373m-911 .134c-18.577.045-37.604 2.11-45.681 6.238-16.873 8.616-24.771 16.155-24.771 23.335 0 8.616 7.897 11.488 41.284 14.36 51.696 4.308 86.519-3.231 92.981-20.104 2.513-6.462 16.154-3.59 22.257 5.026 2.513 3.23 4.668 3.949 6.104 1.795s-3.59-9.694-10.77-16.874c-10.77-10.77-13.642-12.205-16.155-7.538-3.95 6.821-11.488 6.82-22.258-.359-6.283-3.95-24.412-5.924-42.99-5.879m450.181 52.908a70.004 70.004 0 0 1 70.004 70.004 70.004 70.004 0 0 1-70.004 70.004h-.284a70.004 70.004 0 0 1-69.72-70.004 70.004 70.004 0 0 1 70.004-70.004m486.762 181.373c-9.557.108-19.975 6.056-23.744 15.716-1.795 5.385-7.18 8.975-14.719 10.77-14.36 2.872-24.771 11.846-24.771 21.18 0 8.257 9.693 20.463 16.155 20.463 2.513 0 12.924 4.667 23.694 10.411 23.335 12.924 24.053 12.924 36.618 2.872 9.693-8.257 9.693-8.616 7.539-39.849-1.795-19.386-4.308-33.386-7.54-36.617-3.455-3.456-8.225-5.002-13.232-4.946m62.74.656c-3.875.103-7.437 1.35-10.017 3.93-6.462 6.463-11.489 29.798-11.489 52.774 0 14.36 1.437 17.23 11.488 24.052 6.463 3.949 11.848 7.898 12.566 7.898.359.36 10.051-4.308 21.18-10.41 11.129-5.745 22.258-10.77 24.77-10.77 7.18 0 15.796-10.411 15.796-19.745 0-8.616-18.667-23.335-29.796-23.335-3.23 0-8.257-4.668-11.488-10.412-4.443-8.885-14.484-14.206-23.01-13.982M285.836 726.2c-11.223.011-11.266 1.126-16.988 34.109-2.153 14-5.025 28.001-6.102 31.232-1.077 4.308 1.436 7.54 7.18 9.693 5.026 2.154 10.051 5.385 11.487 7.18 3.59 6.462 12.206 4.667 39.85-8.616 16.154-7.898 26.924-15.437 28.36-20.104 3.23-10.051-7.18-24.412-19.745-27.284-6.103-1.077-14.36-7.18-19.745-14-7.539-9.693-11.846-12.206-21.898-12.206h-2.399zm-65.329.45c-7.358-.025-10.747 2.673-17.714 11.76-5.385 7.18-12.565 12.924-15.795 12.924-3.59 0-10.052 2.512-14.36 5.743-10.052 6.821-11.13 29.438-1.436 32.31 3.23 1.077 15.077 6.821 25.847 12.206 24.053 12.565 26.566 12.565 42.003 3.231 13.642-8.257 13.642-10.77 3.23-57.08-4.307-19.027-5.025-19.746-17.23-20.823-1.684-.168-3.182-.266-4.545-.27m980.124 87.16c-1.868-.034-3.416.079-4.493.348-7.18 1.795-8.258 4.308-8.258 17.59 0 9.694 2.154 17.233 5.385 20.105s5.385 10.77 5.385 20.103c0 11.13 2.154 17.95 7.18 22.977 3.949 3.948 9.693 7.18 12.565 7.18 5.385 0 49.542-37.695 53.132-45.234 1.077-2.513-1.436-10.77-5.385-19.028-5.744-11.487-9.334-14.718-16.873-14.718-5.026 0-17.232-2.513-27.284-5.385-7.27-2.423-15.75-3.837-21.354-3.938m192.577.464c-5.001-.046-10.796.927-17.213 3.115-9.334 3.231-21.181 5.744-26.207 5.744-13.642 0-17.591 3.95-20.104 19.745-2.154 13.642-1.435 15.437 19.027 36.976 11.847 12.206 24.053 22.258 27.284 22.258 6.462 0 19.745-12.206 20.463-18.668.358-2.513 0-8.257-.36-12.565-.359-4.667 3.95-13.641 8.975-20.821 15.162-19.74 7.756-35.603-11.865-35.784m-1037.123 2.172c-3.23-.045-7.539.763-14 2.379-8.616 2.513-21.182 4.308-27.644 4.308-14.36 0-17.232 2.154-25.13 19.027l-6.103 14 23.694 24.771c13.283 13.642 26.925 24.771 30.156 24.771 10.77 0 19.745-14 20.104-31.233.359-11.128 2.513-17.59 6.462-19.744 7.54-4.308 7.898-29.08 0-35.54-2.154-1.796-4.308-2.694-7.539-2.739m-191.998.263c-10.273-.141-20.887 8.084-20.887 17.194 0 3.231 3.949 11.487 9.334 18.308 6.82 9.334 8.615 14.72 6.82 23.335-1.436 7.898 0 13.642 5.745 20.463 3.948 5.385 9.333 9.693 12.205 9.693 2.513 0 15.437-10.052 28.72-22.258 22.617-20.821 24.053-22.976 21.899-34.823-2.513-16.873-8.256-21.539-31.232-25.847-10.77-1.795-24.053-4.667-29.438-5.744a18 18 0 0 0-3.166-.321m1132.453 45.996c-12.921-.093-18.383 5.908-27.167 24.688-5.385 11.847-11.488 22.617-13.283 23.694-6.462 3.95-3.59 19.386 4.308 24.771 10.052 7.18 17.59 7.18 26.566.36 8.974-6.822 15.077-6.822 21.54 0 7.897 7.897 21.539 6.46 30.155-2.514 8.616-9.334 8.616-9.693 1.795-22.976-22.617-41.643-25.848-46.31-35.9-47.388-2.973-.392-5.621-.618-8.014-.635m-1040.256 3.508c-13.642 0-15.437 1.076-21.899 13.641-3.59 7.18-10.41 19.386-14.719 26.566-9.693 16.155-10.052 20.104-2.154 28.72 6.462 7.18 26.207 8.616 32.67 2.154 3.23-3.231 6.46-3.231 13.281 0 12.924 6.103 29.08 5.385 35.542-1.436 7.539-7.539 7.539-8.616-5.744-34.464-16.514-32.31-19.387-35.181-36.977-35.181" style="stroke-width:.981818"/>
</svg>
