<svg xmlns="http://www.w3.org/2000/svg" width="1220" height="960">
    <path d="M531.016 286.38c-39.55 40.179-71.568 76.59-71.568 80.358 0 3.766 10.045 16.322 21.973 28.25s21.972 25.112 21.972 29.506c0 5.023-10.044 18.206-21.972 30.762-11.928 11.928-21.973 25.112-21.973 29.506s10.045 17.578 21.973 29.506 21.972 25.74 21.972 31.39-10.044 19.462-21.972 31.39-21.973 23.856-21.973 26.995c0 8.16 141.88 148.786 150.67 148.786s150.67-140.625 150.67-148.786c0-3.14-10.045-15.067-21.973-26.995s-21.973-25.74-21.973-31.39 10.045-19.462 21.973-31.39 21.973-25.111 21.973-29.506-10.045-17.578-21.973-29.506c-11.928-12.556-21.973-25.74-21.973-30.762 0-4.394 10.045-17.578 21.973-29.506s21.973-24.484 21.973-28.25c0-9.417-141.253-153.81-150.67-153.81-3.767 0-39.551 33.274-79.102 73.452m139.998 21.973c28.878 28.878 52.106 54.618 52.106 57.757 0 7.533-25.74 35.156-32.645 35.156-3.139 0-19.461-14.44-37.04-31.39-16.95-17.578-37.04-31.389-43.317-31.389s-26.367 13.811-43.318 31.39c-17.578 16.95-33.273 31.39-35.784 31.39-7.533 0-33.9-26.368-33.9-33.902 0-10.672 102.33-110.49 113.002-110.49 5.022 0 32.645 23.227 60.896 51.478m0 119.28c28.878 28.879 52.106 54.618 52.106 59.013 0 3.766-6.906 13.183-15.067 20.717-18.206 16.95-26.367 13.811-63.407-23.856-13.183-14.44-28.878-25.74-34.528-25.74s-21.345 11.3-34.529 25.74c-37.04 37.667-45.2 40.806-63.407 23.856-8.16-7.534-15.067-16.95-15.067-20.717 0-10.673 102.33-110.492 113.003-110.492 5.022 0 32.645 23.229 60.896 51.48M459.448 13.291c-18.834 6.906-37.04 15.067-40.179 18.206-3.766 3.14-10.044 5.65-14.439 5.65s-22.6 8.79-40.806 20.09c-77.846 47.084-154.437 129.325-190.849 205.915-70.94 146.903-70.312 290.667 0 433.176 21.345 42.69 28.25 53.99 61.524 92.285 43.317 51.479 107.352 101.074 163.853 128.697C480.165 956.861 495.86 960 613.257 960c116.769 0 139.37-4.395 219.727-45.2 156.32-78.475 266.81-263.045 266.81-445.732-.627-107.98-37.039-205.916-111.118-296.946-28.879-35.156-108.608-103.585-136.859-116.769-6.905-3.139-16.95-8.161-21.972-10.672-24.484-13.812-39.551-20.717-74.708-32.645C722.492 1.363 702.403-.52 605.723.108 512.81.735 488.326 3.247 459.448 13.29m108.608 33.273c0 3.767-4.395 7.534-10.673 8.161-15.067 3.14-80.985 68.43-74.079 72.824 3.139 1.884 20.09-3.766 36.412-12.556 45.2-24.483 75.335-34.528 131.208-43.945 56.501-9.417 128.697-11.3 128.697-3.767 0 6.906-59.012 26.368-78.474 26.368-8.16 0-18.833 1.883-24.483 3.766-17.578 6.906-3.767 15.067 25.74 15.067 30.133 0 100.446 13.812 146.274 29.506 38.923 13.184 81.613 33.273 81.613 38.923 0 2.512 7.534 7.534 17.578 11.3l16.95 6.906-16.95.628c-10.044.628-17.578-2.511-17.578-5.65 0-3.767-8.161-6.278-18.206-6.278s-28.878-3.767-42.062-8.789c-13.811-4.394-30.134-6.278-36.412-3.767-11.3 3.767-10.672 5.023 6.278 11.928 62.78 25.74 133.72 87.891 181.432 159.46 28.878 43.317 23.856 54.617-8.161 19.46-23.229-25.11-64.663-59.012-72.824-59.012-3.767 0 8.789 25.112 15.695 31.39 8.16 7.533 38.923 64.662 50.223 95.424 20.09 52.735 38.295 143.764 33.273 168.248-3.14 18.834-5.023 20.09-8.79 9.417-3.138-6.906-5.65-21.345-5.65-31.39-.627-10.672-3.766-22.6-7.533-26.367s-8.789-16.322-11.3-27.622-7.534-21.345-11.928-23.229c-5.65-1.883-7.534 13.184-7.534 58.385 0 60.895-11.928 128.07-28.878 161.97-5.022 10.044-8.79 23.228-8.79 29.506 0 6.906-3.766 14.44-8.788 16.95-5.023 2.512-10.045 11.3-11.3 19.462-.628 7.533-4.395 14.44-8.162 14.44-10.672 0-10.672-17.579 0-27.624 5.023-5.65 9.417-15.695 9.417-22.6s4.395-28.879 9.417-48.34c5.65-22.6 6.906-38.923 3.139-45.829-5.022-9.417-5.65-8.789-8.789.628-5.65 17.578-9.417 26.367-15.695 36.412-3.139 5.022-11.928 23.228-20.09 39.55-24.483 49.596-28.878 56.502-59.012 91.658-31.389 37.04-77.218 75.963-88.518 75.963-4.395 0-9.417 4.394-11.3 10.044-1.884 5.023-6.278 7.534-10.045 5.65-3.767-2.51 3.767-15.066 18.206-30.133 32.017-33.901 69.685-83.497 69.685-91.658 0-11.928-13.184-7.533-30.134 11.3-37.04 38.923-114.258 78.474-205.916 104.214-28.25 8.161-41.434 9.417-50.223 4.394-10.672-5.65-10.044-6.905 6.906-10.672 25.74-6.278 78.474-30.134 78.474-35.784 0-3.14 5.65-5.023 11.928-5.023 6.905 0 14.439-3.139 16.322-6.278 7.534-11.928-14.439-13.183-47.712-3.766-42.062 12.556-148.786 13.183-191.476 1.255-16.95-5.022-38.295-10.672-47.712-12.556-36.412-8.16-16.323-16.322 41.434-16.322 64.035 0 86.007-4.395 71.568-13.184-4.394-3.139-16.95-5.65-28.25-5.65-36.412 0-128.697-45.2-183.315-89.774-68.43-55.873-89.147-98.563-24.484-50.85 47.084 35.155 65.918 46.456 77.218 46.456 15.067 0 11.3-8.162-16.322-34.529-55.874-54.618-118.653-151.925-118.653-185.826 0-6.278-2.511-13.184-6.278-15.067-3.139-1.883-6.278-13.184-5.65-23.856l.628-20.09 6.278 18.834c3.767 10.045 10.672 21.345 15.067 23.856 5.022 2.512 8.789 7.534 8.789 11.3 0 8.162 45.2 68.43 51.479 68.43s7.533 3.767-11.928-50.223c-13.812-40.18-16.95-60.268-19.462-133.72-1.255-47.712-.628-93.54 1.256-101.702 7.533-29.506 16.322-15.695 16.322 24.484 0 45.2 9.417 78.474 19.462 68.429 3.139-3.139 8.789-22.6 12.556-43.318 11.928-61.523 55.245-162.597 84.124-193.36 8.789-9.416 15.694-19.46 15.694-23.227 0-3.14 4.395-5.65 10.673-5.65 9.417 0 9.417.627 0 11.3-6.278 6.278-10.673 15.694-10.673 20.717s-3.766 14.439-8.16 21.345c-9.418 13.811-26.368 70.94-22.601 75.335 1.883 1.255 18.206-17.579 37.04-42.69 38.295-49.596 94.168-97.936 149.414-128.07 35.784-20.089 45.828-22.6 47.084-11.3M333.89 822.514c0 6.905-7.534 6.905-21.973 1.883-7.533-3.139-8.789-5.65-2.511-8.789 8.789-5.65 24.484-1.255 24.484 6.906" style="stroke-width:.627791"/>
</svg>
