<svg xmlns="http://www.w3.org/2000/svg" width="1513" height="960">
    <path d="M578.148 678.748c-8.758 2.564-20.294 8.759-20.294 10.468 0 6.622 44.22 5.34 46.57-1.496.426-1.709-2.137-2.563-8.973-2.563-7.69 0-10.254-.855-11.535-3.845-1.068-2.777-2.777-3.418-5.768-2.564m20.294-8.544c0 1.068 1.282 2.136 2.99 2.136 1.71 0 3.846-1.068 4.487-2.136.64-1.282-.641-2.137-2.991-2.137-2.564 0-4.486.855-4.486 2.137m-146.115-60.668c-2.778 7.476-3.846 32.043-1.496 37.17 6.836 14.526 13.031 22.002 22.217 26.702 7.476 3.631 13.03 4.272 6.835.64-13.671-7.903-22.216-26.488-22.216-49.132-.214-15.594-2.563-22.643-5.34-15.38M628.349 598c-6.409 6.836-5.555 15.167 2.35 21.79 7.262 6.194 10.04 6.622 17.73 2.99 5.554-2.35 14.099-14.526 14.099-19.866 0-3.205-8.545-10.254-10.468-8.545-.427.64.427 3.418 1.923 6.408 2.563 4.7 2.35 5.768-1.068 9.613-7.477 8.331-22.217 2.564-16.449-6.622 6.195-9.826 0-14.312-8.117-5.768m-32.684-24.352c-2.136 2.136-3.632 4.913-3.632 5.981s-2.99 3.845-6.408 6.195-6.409 5.34-6.409 6.622c0 1.496-1.495 2.99-3.204 3.845-3.418 1.282-4.486 11.963-1.282 11.963 1.068 0 2.99-2.777 4.059-6.195 1.282-3.631 7.69-11.963 14.099-18.585 6.622-6.836 11.962-12.603 11.962-13.03 0-2.137-6.408 0-9.185 3.204m-59.173-38.879c-5.34 1.495-11.962 2.99-14.953 2.99s-7.263 1.496-9.4 3.205c-2.349 1.709-6.194 3.204-8.758 3.204-4.7 0-21.148 15.594-18.798 17.73.64.855 4.913-1.495 9.186-4.913 4.486-3.631 9.399-6.408 11.108-6.408s4.913-1.495 7.263-3.204c2.136-1.71 8.33-3.205 13.671-3.205 12.818-.213 41.229-7.263 42.297-10.253 1.068-3.632-19.44-2.991-31.616.854M476.68 1.789c7.69 1.069 17.73 2.564 22.43 3.205 19.012 2.35 69.426 16.876 110.014 31.83 9.185 3.417 43.364 19.866 52.336 25.206 42.724 25.848 82.885 62.163 115.141 104.673 5.554 7.264 5.981 8.332 3.204 14.954-1.495 3.631-4.913 9.613-7.476 13.244-2.564 3.418-7.263 11.108-10.254 17.09-3.204 5.767-6.622 12.39-7.904 14.312-4.913 9.186-6.408 12.176-13.244 26.275-4.06 8.118-7.904 16.45-8.759 18.158-.64 1.709-2.136 4.7-3.204 6.409-1.922 2.99-11.749 24.78-18.798 40.587-1.71 4.059-4.486 10.254-6.195 13.458-1.71 3.418-2.991 7.904-2.991 10.04 0 2.35-1.923 5.127-4.059 6.195-4.486 2.564-5.34 1.71-11.962-11.535-9.186-18.585-31.616-54.26-43.579-69.426-4.272-5.127-9.613-11.963-11.962-14.954-2.35-2.99-13.886-14.953-25.635-26.702-20.507-20.508-50.84-42.937-73.698-54.473-5.34-2.563-11.322-5.768-13.458-6.622-6.409-3.418-23.285-8.758-39.947-12.817-40.16-10.04-100.828-1.282-138.852 19.866-36.743 20.294-70.28 56.823-91.43 98.906-5.98 11.963-7.69 16.235-16.02 38.451-14.954 40.374-15.168 108.519-.214 143.766 1.709 3.845 2.99 7.904 2.99 9.185s4.486 11.536 10.04 22.858c23.071 47.637 53.619 81.602 89.293 98.905 14.74 7.05 15.167 7.263 42.083 6.836 33.538-.64 49.56-4.913 74.767-20.294 25.42-15.38 35.888-24.993 49.346-44.86 23.284-34.392 45.928-42.51 104.032-37.597 15.38 1.282 16.449 1.068 29.907-6.195 7.69-4.058 15.594-9.185 17.73-10.894 6.409-5.768 18.799-4.486 28.412 2.99 10.253 7.904 22.857 13.672 29.479 13.672 14.099 0 31.188 13.245 40.588 31.402 4.7 9.4 4.486 31.616-.428 41.229-13.885 27.13-39.092 54.686-62.804 68.785-9.826 5.768-14.526 9.826-14.526 12.603 0 2.35.641 4.06 1.71 4.06 4.699 0 26.274-9.4 39.305-17.304 18.158-10.894 23.071-16.876 23.071-27.77 0-8.545 3.204-10.681 8.118-5.768 3.631 3.631 3.204 9.186-1.71 18.585-7.476 14.953-27.983 29.266-63.444 44.005-8.759 3.632-11.536 7.904-7.05 10.681 1.923 1.282 14.954-3.418 35.247-12.817 22.644-10.467 39.52-26.702 48.706-46.569 4.913-11.108 4.7-12.603-2.777-19.653-6.623-6.408-7.904-10.467-4.273-12.817 3.418-2.136 12.176 4.486 18.585 14.099l5.768 8.545-4.06 11.535c-4.485 13.672-20.293 32.257-33.537 40.16-19.867 11.536-26.275 14.74-38.879 19.44-7.05 2.777-16.449 6.836-20.507 9.185l-7.477 4.273.214 35.033c.213 29.266 1.068 37.17 4.7 47.85 9.399 27.558 19.011 42.511 41.228 64.941 17.517 17.517 33.538 29.266 57.89 42.724 26.917 14.74 45.074 30.334 53.192 45.714 3.845 7.263 4.7 12.39 4.7 27.344-.214 16.021-.855 19.652-6.837 31.829-11.962 24.139-26.275 38.238-42.296 41.656-9.827 1.922-8.972-1.069 4.272-14.313 13.458-13.672 18.585-26.702 18.585-47.21 0-13.244-.64-15.808-7.69-26.275-10.04-15.167-20.08-23.498-41.656-34.606-9.826-5.127-19.44-10.04-21.148-11.108-1.71-1.069-10.467-6.195-19.226-11.322-8.972-5.127-17.944-10.895-20.294-12.604-2.35-1.922-10.467-8.117-18.157-13.885-36.53-27.343-60.027-72.63-65.154-126.035-.855-8.545-2.777-16.449-4.059-17.517-1.922-1.709-10.68-.64-29.266 3.204-41.014 8.545-67.93 4.273-90.574-14.312-5.554-4.486-10.467-8.331-11.108-8.331s-6.409 1.709-13.031 3.631c-17.944 5.34-64.513 5.127-85.875-.213-58.959-14.954-90.36-29.693-135.648-63.445-79.253-58.959-120.481-148.893-120.695-262.538 0-34.179 5.768-77.116 14.1-104.673 5.34-17.944 11.535-36.315 13.457-40.16.855-1.923 3.418-7.477 5.554-12.177 1.923-4.7 4.486-10.04 5.554-11.749.855-1.709 4.273-8.117 7.263-13.885 17.304-33.965 55.328-79.253 92.925-111.082 28.411-23.925 74.125-48.919 105.741-57.89 33.111-9.4 84.38-13.672 112.15-9.186m619.281 27.558c30.762 2.777 61.736 9.612 84.594 18.584 15.38 5.982 48.918 22.644 58.745 29.266 64.3 42.51 114.713 110.014 136.93 182.858 2.35 7.69 5.34 17.09 6.408 20.935 1.282 3.845 3.204 12.603 4.059 19.225 1.068 6.623 2.99 17.944 4.059 24.994 5.34 30.547 1.068 90.147-9.186 127.103-22.644 82.03-69.64 145.688-143.552 194.82-15.167 10.254-56.182 31.616-60.454 31.616-1.282 0-5.34 1.282-9.186 2.99-8.758 3.846-26.061 8.546-45.714 12.818-21.148 4.7-73.058 4.486-93.565 0-67.931-15.38-122.618-55.327-199.734-145.047-21.148-24.78-55.968-70.067-73.485-95.701-10.68-15.595-11.749-20.08-7.05-28.84 1.71-3.203 7.477-14.739 12.818-25.42 12.39-25.42 20.72-40.374 33.752-61.522 5.767-9.4 11.749-19.012 13.03-21.362 1.496-2.35 5.127-7.69 8.545-11.963 3.204-4.272 5.768-8.33 5.768-9.185 0-2.136 21.148-32.47 25.207-36.102 5.127-4.7 1.709-9.613 83.738 112.791 19.44 28.839 50.842 61.736 74.34 77.757 39.306 26.49 89.72 42.51 128.812 40.588 13.458-.855 18.799-2.35 32.043-8.758 24.566-12.39 59.6-48.278 71.135-72.844 11.108-23.926 14.099-39.734 14.099-78.399 0-19.439-1.068-38.665-2.136-42.723-1.282-4.06-3.205-11.322-4.273-16.022-2.35-11.322-7.05-23.712-14.953-39.947-8.117-16.662-9.613-19.012-20.507-33.752-31.83-42.51-73.058-68.998-122.618-78.184-28.197-5.127-81.816-2.136-96.128 5.554-2.136 1.068-5.554 2.136-7.477 2.136-5.127 0-41.87 18.158-57.25 28.412-20.934 13.671-59.6 53.19-66.435 67.717-3.418 7.476-16.663 27.557-28.412 43.15-5.126 6.623-9.185 12.604-9.185 13.245 0 .427-4.059 7.05-8.972 14.526-5.127 7.477-10.04 15.167-11.322 17.09-1.068 1.922-6.409 10.467-11.75 18.798-16.448 26.062-51.268 92.71-51.268 98.051 0 1.496-1.281 5.34-2.99 8.332-1.71 3.204-4.7 10.04-6.622 15.38-9.613 25.42-11.109 27.77-19.013 27.77-3.845 0-8.33-1.495-9.826-3.204-1.495-1.709-4.272-3.204-6.195-3.204s-4.7-1.068-5.768-2.136c-1.281-1.282-6.622-4.7-11.749-7.477-8.544-4.486-9.399-5.767-8.758-12.176.64-8.545 4.7-21.576 16.449-52.978 8.544-22.857 10.253-27.13 13.03-32.47 1.71-2.99 2.99-7.05 2.99-8.758 0-1.71 1.496-4.272 3.205-5.768s3.205-4.486 3.205-6.408c0-2.137 1.281-6.623 2.99-10.04 3.205-6.41 8.759-19.013 10.681-24.14.641-1.708 2.136-4.699 3.204-6.408.855-1.709 4.7-9.4 8.332-17.09 8.972-19.439 27.984-58.104 30.334-61.949 1.068-1.709 6.408-10.895 11.749-20.08 19.866-34.393 51.909-72.844 81.175-96.983 32.683-27.13 56.609-41.229 102.537-60.24 17.944-7.477 51.055-14.954 80.107-18.158 32.684-3.632 29.48-3.418 57.463-1.068" style="stroke-width:.213619"/>
</svg>
