<svg xmlns="http://www.w3.org/2000/svg" width="1483" height="960">
    <path d="M396.917 83.891c-9.6 14.147-29.81 43.957-44.968 65.683s-29.305 43.452-32.336 48c-2.527 4.041-20.716 30.315-40.42 57.093-19.2 27.284-49.516 69.22-67.2 93.977-17.178 24.253-44.967 63.157-61.64 86.399-16.674 22.736-30.316 42.441-30.316 43.957s10.105 16.673 22.737 33.852c12.126 17.684 33.346 47.494 46.483 66.188 13.642 19.2 40.42 56.589 59.62 83.367 19.705 27.284 44.462 62.147 55.578 78.315s33.347 47.494 49.515 70.735c16.168 22.737 36.378 52.042 44.968 65.684 8.084 13.136 17.178 22.23 20.21 20.715 6.568-4.042 2.526-57.599-6.569-95.493-5.557-23.747-9.094-35.873-24.757-78.315-13.642-37.388-12.126-60.63 3.031-45.472 7.58 7.578 63.663 35.367 71.241 35.367 3.537 0 6.569-3.536 6.569-7.578s-3.032-7.58-6.063-7.58c-7.074 0-79.83-65.682-79.83-72.25 0-7.074 13.136-3.537 31.325 9.094 22.737 15.158 23.242 15.663 25.263 1.01 1.516-9.6 5.052-11.115 26.273-12.63 13.137-1.011 34.357 2.02 46.484 6.062 21.22 7.074 35.367 3.032 19.704-5.558-14.147-8.084-33.346-38.399-27.789-43.957 3.537-3.537 27.284-4.547 61.136-3.537 43.452 1.011 55.578 0 54.062-5.052-1.01-3.032-12.126-8.59-24.757-12.126-12.126-3.537-28.8-9.095-37.389-12.126l-15.157-6.063 12.63-10.105c7.074-5.053 18.19-11.116 25.264-12.632s26.273-6.063 42.946-10.61c42.947-11.621 194.523-11.621 237.47 0 16.673 4.547 35.873 9.094 42.946 10.61s18.19 7.579 25.263 12.632l12.632 10.105-15.158 6.063c-8.59 3.031-25.263 8.59-37.389 12.126-12.631 3.537-23.747 9.094-24.757 12.126-1.516 5.052 10.61 6.063 54.062 5.052 33.852-1.01 57.599 0 61.136 3.537 5.557 5.558-13.642 35.873-27.79 43.957-15.662 8.59-1.515 12.632 19.706 5.558 12.126-4.042 33.346-7.073 46.483-6.063 21.22 1.516 24.757 3.032 26.273 12.631 2.021 14.653 2.526 14.148 25.263-1.01 18.189-12.631 31.326-16.168 31.326-9.095 0 6.569-72.757 72.252-79.325 72.252-3.537 0-6.569 3.537-6.569 7.579s3.032 7.578 6.569 7.578c7.578 0 63.662-27.789 71.24-35.367 15.158-15.158 16.674 8.084 3.032 45.472-15.663 42.442-19.2 54.568-24.757 77.81-8.084 34.862-12.632 81.346-8.59 92.461 3.537 8.084 4.548 8.084 13.642-3.537 5.558-7.073 12.126-17.178 15.158-22.736 2.526-5.558 18.694-29.81 36.378-54.062 17.179-24.252 40.42-57.094 51.536-73.262s36.378-51.03 55.578-78.315c19.705-26.778 45.978-64.167 59.62-83.367 13.137-18.694 34.357-48.504 46.483-66.188 12.632-17.179 22.737-32.336 22.737-33.852s-13.642-21.22-30.315-43.957c-16.674-23.242-44.463-62.146-61.641-86.399-17.684-24.757-47.494-66.693-67.2-93.977-19.199-26.778-37.388-53.052-40.42-57.094-2.526-4.547-17.178-26.273-32.336-47.999s-35.368-51.536-44.967-65.683c-9.6-14.652-19.705-25.263-21.726-23.747-13.137 8.084 8.084 120.756 33.852 182.902 10.61 24.758 9.094 46.484-2.527 46.484-5.557 0-11.115-2.021-12.631-4.548-5.558-8.589-48-26.778-54.062-22.736-4.547 2.526-3.032 5.558 3.537 10.61 22.23 16.168 72.25 68.715 69.725 73.262-1.516 2.526-6.063 2.021-10.61-2.02-7.58-6.064-22.737-15.664-36.379-22.232-4.042-2.021-9.6 0-13.137 4.547-8.084 11.116-41.43 11.116-68.209.505-16.168-6.568-22.231-7.073-26.778-2.526-4.548 4.548-3.032 6.569 5.557 8.59 13.642 4.042 32.842 33.346 28.295 44.462-2.527 6.568-10.61 7.579-57.094 4.547-34.863-2.02-57.6-1.01-64.167 2.527-8.59 4.547-8.084 5.557 5.557 8.589 8.59 2.02 23.242 6.063 32.842 10.105 9.6 3.537 22.231 8.084 27.789 10.105 9.6 3.032 9.6 3.537-2.021 13.137-6.568 5.557-17.684 11.115-25.263 12.631-7.073 1.516-25.768 6.568-40.925 11.116-39.41 11.62-193.008 11.62-232.417 0-15.158-4.548-33.853-9.6-40.926-11.116-7.579-1.516-18.694-7.074-25.263-12.631-11.62-9.6-11.62-10.105-2.02-13.137 5.557-2.021 18.188-6.568 27.788-10.105 9.6-4.042 24.252-8.084 32.842-10.105 13.642-3.032 14.147-4.042 5.558-8.59-6.569-3.536-29.305-4.547-64.168-2.526-46.483 3.032-54.567 2.021-57.094-4.547-4.547-11.116 14.653-40.42 28.295-44.462 8.589-2.021 10.105-4.042 5.558-8.59-4.548-4.547-10.61-4.042-26.779 2.526-26.273 10.61-63.662 10.61-67.704.506-4.042-11.116-11.621-9.6-36.378 7.073-12.126 8.59-23.242 13.137-24.758 11.116-2.02-4.042 49.01-57.599 70.736-73.262 9.094-6.568 9.094-7.579 2.02-10.61-5.052-1.516-19.199 3.536-34.357 12.126-14.652 8.59-29.304 15.663-33.346 15.663-9.6 0-10.105-24.253-.506-46.484C410.558 180.9 431.78 68.228 418.642 60.144c-2.02-1.516-12.126 9.095-21.725 23.747M256.456 402.707c2.526 7.073 9.6 13.136 16.168 14.147 9.095 1.01 12.126 5.052 13.137 18.189 2.02 20.715 20.21 30.82 63.156 35.368 17.179 2.02 31.326 5.558 31.326 8.084 0 5.052-59.115 22.736-76.799 23.242-13.136 0-23.241 15.662-20.715 31.325 1.01 7.58-2.526 13.137-10.105 17.179-6.063 3.031-14.652 10.105-18.19 15.158-6.568 8.589-10.104 6.063-50.525-34.358-23.747-24.252-43.452-47.494-43.452-51.536 0-5.557 83.367-88.42 89.936-88.924.505 0 3.537 5.557 6.063 12.126m1042.34 48.504c13.136 12.126 23.747 25.263 23.747 29.305 0 3.537-19.705 26.273-43.452 50.525-40.42 40.42-43.957 42.947-50.526 34.358-3.537-5.053-12.126-12.127-18.189-15.158-7.579-4.042-11.116-9.6-10.105-17.179 2.526-15.663-7.579-31.325-20.715-31.325-17.18-.506-72.757-17.18-74.778-22.737-1.01-3.031 11.62-6.568 29.305-8.59 42.946-4.547 61.135-14.652 63.156-35.367 1.011-13.137 4.042-17.179 13.137-18.19 7.074-1.01 13.642-7.073 16.673-14.652l5.053-13.136 21.22 19.705c11.622 10.61 31.832 29.81 45.474 42.441" style="stroke-width:.505254"/>
</svg>
