<svg xmlns="http://www.w3.org/2000/svg" width="1204" height="960">
    <path d="M551.962 0a72 72 0 0 0-2.747.058c-12.175-.488-22.907 4.46-33.1 8.609C489.81 19.379 464.448 32.422 438.8 44.73c-12.505 6.002-27.185 17.87-32.666 28.51-4.273 8.294-12.557 13.964-13.886 24.25-1.638 12.688-8.335 23.27-15.78 33.678a123 123 0 0 0-15.54 26.89 76.46 76.46 0 0 1-19.756 29.529c-13.976 12.697-26.052 27.54-43.032 36.706-3.809 11.748-17.401 13.14-23.68 22.33-1.148 1.68-4.24 2.59-4.533 4.199-.908 5.002-5.283 6.29-8.146 9.26-13.63 14.14-32.208 23.442-41.231 42.163a11.37 11.37 0 0 1-6.072 4.706c-10.661 3.922-15.45 12.827-19.966 22.213a131 131 0 0 1-9.613 17.652 184.8 184.8 0 0 0-20.927 38.073c-3.221 8.311-5.01 17.293-9.18 25.003a160 160 0 0 0-15.96 40.747c-2.856 12.545-6.027 25.02-9 37.538-2.67 11.239-6.446 22.34-2.79 34.19a18.6 18.6 0 0 1-.702 7.728c-2.332 14.524-6.03 28.986-6.6 43.574-.324 8.323 4.119 16.951 7.12 25.184.583 1.594 4.375 2.528 6.796 2.797a20.5 20.5 0 0 0 6.36-1.113c3.957 9.23 7.44 17.366 11.147 26.015 4.576-4.314 1.591-13.267 10.424-13.524 4.458 6.065 9.235 12.568 13.307 18.107 15.664-6.899 18.93-23.282 26.94-35.81 5.941 2.868 6.04 6.647 5.523 11.262a161 161 0 0 0-.166 16.879c12.978-7.267 19.177-14.184 21.895-26.746l.232-1.214a177.5 177.5 0 0 1 15.15-42.157l8.834 2.125c-8.05 14.808-1.05 28.497 1.17 43.371l15.159-5.616c3.825-13.681 16.942-21.61 22.372-35.03 5.374-13.279 13.434-25.474 20.312-38.144a105.6 105.6 0 0 1 .76 16.72 180 180 0 0 1-4.193 18.815 53.3 53.3 0 0 0-1.8 10.951c-.04 21.467-.43 42.867-6.159 63.785-1.415 5.168-2.443 10.443-3.802 15.628a8.16 8.16 0 0 0 3.585 9.483c4.813-5.084 8.365-10.867 13.525-13.943 27.235-16.237 40.902-44.23 59.18-68.028 9.896-12.885 13.351-30.29 26.47-41.448a5.03 5.03 0 0 0 1.15-2.899c2.17-13.838 12.852-23.658 16.343-37.826 3.396 1.682 7.024 2.317 7.54 3.94 2.34 7.357 3.773 14.997 5.595 22.523.92 3.806 1.979 7.584 3.318 12.679 3.448-2.329 6.479-3.281 7.474-5.255a109.2 109.2 0 0 0 8.45-20.146c2.49-9.174 4.714-18.247 12.39-26.406a107 107 0 0 1 13.387 6.506c5.115 3.353 8.877 2.187 13.206-2.617l4.598-19.12c8.094-.497 15.567-3.67 24.136-4.416 8.55-.744 15.277.087 21.8 5.646a20.46 20.46 0 0 0 10.843 5.674 84.5 84.5 0 0 0 27.606-1.937 32.7 32.7 0 0 1 16.886-.333c11.847 2.188 20.249 10.281 29.55 17.262 13.858-4.898 28.592-7.266 40.892-15.997 22.426-3.082 39.457-17.42 58.326-27.93 5.682-3.165 11.12-7.212 12.672-13.439a28.5 28.5 0 0 1 10.395-15.208c6.279-5.43 11.336-12.315 17.782-17.5a31.1 31.1 0 0 0 10.69-16.9 90 90 0 0 1 6.217-14.169 316 316 0 0 1 30.844-11.225 23.9 23.9 0 0 0 12.679-8.248 32.2 32.2 0 0 1 12.245-9.535 107 107 0 0 1 24.447-4.546c12.088-1.041 20.919-5.872 25.155-17.16-2.028-5.87-3.872-11.2-5.942-17.19 9.373-1.805 12.21-17.892 26.377-9.918l-14.927 6.802c11.343.495 21.737-3.397 32.782-1.966 4.522.586 7.082-3.173 10.199-6.043 5.385-4.96 10.983-10.789 17.594-13.09 15.028-5.234 22.429-17.076 26.688-30.223l.325-1.142a158.4 158.4 0 0 1 17.79-36.815c1.11-1.726 2.988-4.112 2.515-5.523-3.557-10.6 2.964-19.663 3.932-29.513.35-3.562-.163-7.207-.014-10.8.488-11.786-5.305-21.143-10.864-29.666-13.438.76-24.818-1.38-31.972-13.524a26.48 26.48 0 0 0-20.45-13.272 252 252 0 0 1-29.543-4.105c-19.46-5.033-38.36-12.404-57.965-16.626-22.117-4.764-39.237-17.833-54.474-32.348a99.6 99.6 0 0 0-33.627-21.707c-14.43-5.455-30.245-7.113-45.128-11.536-14.97-4.45-30.096-.625-45.178-2.234-12.945-1.38-26.152-.381-39.937-5.328a31.17 31.17 0 0 1-27.794 3.911C592.456 7.483 577.758 4.32 563.152.86a72 72 0 0 0-11.19-.86m171.98 118.822c6.648 1.598 12.459 12.615 13.402 21.556.958 9.089 5.665 17.819 8.97 26.615 3.136 8.343 6.583 16.569 10.316 25.907l-7.055 29.362c-1.555.373-3.917.25-5.234 1.36-16.4 13.825-37.245 18.013-56.15 26.42a253 253 0 0 0-24.064 13.936c-11.815-11.313-27.073-13.849-41.918-17.139a21.96 21.96 0 0 1-14.465-8.653 155.5 155.5 0 0 1-9.346-21.504c-1.258-2.934-2.774-5.755-4.258-8.805 3.601-14.98 6.172-31.328 16.575-44.715 26.793-34.481 68.678-31.475 113.228-44.34m-166.407 36.295c12.017.63 22.779 7.092 31.285 18.324l-4.655 19.358-8.949 5.783c-14.789-4.188-33.274 3.244-44.513-15.592l3.55-14.761zm-45.525 58.789c4.11 1.814 8.8 5.743 11.327 4.655 8.138-3.502 11.756 2.557 16.344 6.13a108 108 0 0 1 10.785 11.175c9.298 9.715 15.259 20.503 12.158 34.574-11.656.029-22.329 4.23-33.02.21a128 128 0 0 0-14.204-5.631c-4.971-1.209-10.344-.675-15.397-1.656-10.6-2.056-20.489-5.446-23.846-17.955 1.954-8.124 2.151-17.442 9.375-23.218q14.025-4.389 26.478-8.284m-265.915 74.8c1.035 12.881-6.075 22.4-13.445 30.78l-.036.036a47.5 47.5 0 0 0-11.27 21.981c-3.362 15.145-7.241 30.17-10.763 45.28a84 84 0 0 0-1.012 9.787c2.783-1.077 4.92-1.257 5.27-2.14 4.913-12.413 11.815-23.09 23.789-29.94a49.5 49.5 0 0 0 7.453-6.686c2.036.97 5.808 1.586 6.317 3.216 2.478 7.934 8.596 12.577 14.197 17.848 3.383 3.183 6.34 6.823 10.315 11.16-14.762 17.54-28.927 34.59-43.378 51.402-4.488 5.223-6.273 5.292-19.524 4.901H214l-.593-10.655c-2.155.688-4.514.823-4.764 1.62a10.294 10.294 0 0 1-11.262 8.652c-5.67 0-9.312 5.766-13.22 9.592-5.162 5.055-9.632 10.813-14.884 16.828l-4.337-6.274a239 239 0 0 0 11.717-23.124c2.176-5.626 5.185-11.768.694-18.332a13.17 13.17 0 0 1-.318-9.006 336 336 0 0 1 8.819-35.817l.18-.615a86 86 0 0 1 12.123-23.456 228 228 0 0 0 22.423-36.107c5.862-11.512 10.806-25.374 25.516-30.93zm312.308 35.478a41.36 41.36 0 0 1 30.12 15.05c6.88 7.735 3.937 25.013-5.197 32.81a149 149 0 0 1-13.755 9.166c-7.441-9.047-13.9-16.896-21.953-26.688l-35.427-8.515c.507-3.848.964-7.353 1.359-10.344a37.25 37.25 0 0 1 27.967-10.2c5.557.443 11.272-1.446 16.886-1.279m334.094 84.725c-5.837 1.927-12.668 3.033-16.994 6.867a55.9 55.9 0 0 1-23.912 11.183c-15.57 4.145-30.321 10.688-45.692 14.92l-.347.08a49.63 49.63 0 0 0-28.458 20.745 75.77 75.77 0 0 1-32.478 26.34c-8.377 4.01-15.939 11.024-25.184 11.812a34.22 34.22 0 0 0-27.642 18.99 120.4 120.4 0 0 1-19.74 24.62c-3.315 3.47-6.455 7.108-9.767 10.582-14.334 15.038-27.708 31.22-43.465 44.585-8.364 7.095-16.235 13.834-19.155 24.014-2.383 8.306-7.657 13.544-13.12 19.242-8.337 8.695-17.402 16.568-21.483 28.878a28.13 28.13 0 0 1-12.325 12.744 273 273 0 0 1-26.427 12.52c-.862 4.448-1.91 9.876-3.246 16.77l23.226 3.65c9.298-7.36 15.942-16.925 28.979-12.18-1.231 10.754-1.243 20.317-12.824 26.825l-.21.115a45.66 45.66 0 0 0-19.14 22.553 15.75 15.75 0 0 1-9.889 10.41c-9.011-13.742-21.408-24.436-25.986-42.07 3.887-6.39 9.905-13.428 12.787-21.57 7.58-21.418 22.45-37.607 36.352-54.612 6.322-7.734 14.517-14.816 18.006-23.71a62 62 0 0 1 12.303-17.875c10.925-12.559 24.165-23.09 36.323-34.596a122.2 122.2 0 0 0 23.753-32.217c-3.115-1.917-5.764-4.963-8.168-4.778-8.857.68-17.703-1.846-26.731 2.16-6.907 3.066-15.24 3.29-23.008 3.97a49.44 49.44 0 0 0-35.37 20.058l-.52.673a357 357 0 0 1-27.2 29.998c-10.714 10.47-20.82 14.338-37.697 20.478a75.6 75.6 0 0 0-27.837 20.305c.255 8.228-6.513 12.953-10.005 19.214-12.048 21.6-24.683 43.104-43.747 59.382-12.475 10.652-17.345 27.82-32.333 35.998-.424.23-.635.848-.954 1.28l-10.734 14.514H334c-1.479-13.482 9.85-23.143 10.828-35.94.13-1.691 1.803-3.232 2.646-4.901 8.554-16.94 18.716-33.167 24.721-53.477a36.5 36.5 0 0 0-9.975 3.781c-10.89 9.473-24.474 14.266-37.335 19.17a57.1 57.1 0 0 0-27.447 21.982c-9.706 13.52-18.6 27.894-33.106 37.61a52.42 52.42 0 0 0-19.937 29.492c-4.26 13.772-7.843 27.99-16.553 39.894-6.215 8.495-12.627 16.897-19.604 24.765-6.079 6.856-12.009 14.3-12.158 23.21a85.7 85.7 0 0 1-7.778 31.539 33.5 33.5 0 0 1-15.317 17.587l-.376.188a69.7 69.7 0 0 0-13.8 9.599l-.006.007a15.53 15.53 0 0 0-4.691 9.325 22.4 22.4 0 0 0 2.884 8.76c4.547-1.066 7.555-1.753 10.553-2.479 2.75-.664 5.483-1.368 9.34-2.334a35 35 0 0 1-10.93 17.746 48.75 48.75 0 0 0-13.344 19.38 16.98 16.98 0 0 0 2.718 20.188c11.785-10.836 22.748-22.401 37.3-29.362 14.579-6.974 28.755-14.79 43.79-22.589a36.2 36.2 0 0 1 7.93 3.578c7.95 6.01 15.328 2.88 21.735-1.886l.138-.094a48.17 48.17 0 0 0 16.35-20.905l.181-.506a75.2 75.2 0 0 1 16.09-24.375 85.2 85.2 0 0 1 19.952-16.878c7.334-4.008 13.852-15.822 11.572-22.712-3.254-9.83-9.89-15.76-20.897-15.672a11.2 11.2 0 0 1-3.773-1.228c-1.545-3.424-2.825-6.266-4.25-9.426 5.575-5.88 11.038-11.637 16.552-17.45-3.224-14.07 5.724-24.219 10.807-36.208 12.864 13.42 30.052 12.601 48.648 13.518-2.267 4.688-3.054 8.438-5.335 10.626-7.247 6.95-15.14 13.225-22.618 19.943-7.385 6.635-8.779 16.413-11.862 25.054-2.423 6.791 1.787 10.905 9.166 11.277a14.16 14.16 0 0 0 11.74-3.528 104 104 0 0 1 12.794-9.18 18.91 18.91 0 0 1 18.129-2.834 13.6 13.6 0 0 0 11.42.044c3.681-1.114 7.695 4.397 12.89-.116 2.402-2.087 8.118-.361 11.876-.361 4.7 5.474 8.976 10.446 14.869 17.305-.536 2.978-4.115 9.987-1.974 13.676 4.271 7.358-1.896 12.074-1.756 18.172a128.4 128.4 0 0 1-7.988 44.398 82 82 0 0 0-4.445 16.43 103.77 103.77 0 0 1-18.614 49.125c-2.542 3.563-7.3 8.57-1.482 15.296 15.32-10.133 30.288-20.179 36.013-39.547 2.192-7.42 6.43-14.208 9.093-21.52 2.642-7.254 6.271-14.81 6.238-22.22a46.67 46.67 0 0 1 9.68-27.765 66.8 66.8 0 0 0 9.172-21.425c1.86-6.702 5.743-13.26 6.275-20.305.997-13.205 2.352-26.062 10.51-37.169.522-.71.118-2.094.152-3.166a24.4 24.4 0 0 1 9.187-17.732c11.765-10.55 23.557-21.071 35.087-31.378 9.778 3.74 9.752 3.64 18.354.91 15.554-4.938 31.26-9.005 49.977-6.686l26.247 32.55c-1.08 11.297-.725 24.836-4.156 37.335-2.313 8.423-.896 16.811-3.282 24.837-11.412 38.39-31.392 72.44-53.397 105.493a66.6 66.6 0 0 0-5.074 13.019c5.757 2.28 10.014 3.962 12.823 5.074 17.718-8.704 27.823-23.124 39.12-36.396a214.4 214.4 0 0 0 32.327-53.28 502 502 0 0 0 21.179-61.53c3.79-12.988 10.01-26.1 5.125-40.393-.3-.877.25-2.046.586-4.272 15.515-10.232 22.65-27.599 31.14-44.014.472-.913.336-2.15.831-3.043 6.013-10.846 13.549-20.633 25.22-25.38a17.8 17.8 0 0 0 11.075-14.139c9.493-2.836 14.205 1.898 17.753 7.612v12.47c-4.728 4.808-8.147 10.384-13.12 12.945-14.275 7.35-16.152 19.214-15.194 32.68 2.842 2.975 5.051 5.29 6.325 6.622l32.658 5.24c5.595 9.136 12.02 19.26 17.963 29.66a11.3 11.3 0 0 1 .556 7.813 343 343 0 0 1-10.394 34.126 109 109 0 0 1-12.021 20.218 163.4 163.4 0 0 1-14.963 20.19l-.304.332a415 415 0 0 1-30.504 30.237c-11.817 10.334-23.54 20.84-38.412 27.309-11.457 4.983-21.88 12.278-33.013 18.071a14.09 14.09 0 0 0-7.951 15.39c4.119 1.263 8.305 4.076 11.652 3.296a248 248 0 0 0 37.097-10.93 342 342 0 0 1 38-13.64 71.6 71.6 0 0 0 29.268-17.616c17.84-16.264 31.426-35.941 46.566-54.344 5.075-6.167 10.76-13.441 7.157-22.972 9.317-7.093 15.489-17.218 24.446-22.574 10.163-6.078 11.117-18.934 21.368-24.534a63 63 0 0 0 5.175 4.474 50 50 0 0 0 6.745 3.904c8.328 3.982 15.41 2.32 18.635-5.69a46.8 46.8 0 0 0 3.881-19.697 26.23 26.23 0 0 0-9.108-19.329 64 64 0 0 1-7.177-8.088 112 112 0 0 1 3.888-11.024c6.78-14.18 6.88-30.092 12.238-44.86 6.052-16.678 15.485-28.029 31.415-34.849a42.3 42.3 0 0 0 14.898-8.428c5.025-5.53 11.873-6.462 17.681-9.78a68.3 68.3 0 0 1 13.156-4.59c2.443-.783 5.22-2.44 7.38-1.887 9.421 2.411 17.759-2.314 26.558-3.072a104.8 104.8 0 0 0 28.95-6.115c10.666-4.104 21.392-6.368 31.632-.434 5.143 2.98 8.709-.706 12.997-.76 2.14-.026 4.232-3.78 6.628-6.122-3.977-4.346-7.195-7.858-9.086-9.924-1.829-9.988-1.922-18.813-5.183-26.247a63.24 63.24 0 0 1-6.1-28.538c-3.317-6.577-7.784-6.11-12.05-5.797a97 97 0 0 1-16.51 1.38 109.7 109.7 0 0 1-17.963-4.698c-3.476-.98-7.2-3.487-10.322-2.863-8.188 1.639-12.224-5.495-18.585-7.387-2.385-8.558-9.917-9.344-16.958-11.176-10.6 6.428-21.296 12.931-32.008 19.409-26.778 16.194-54.492 30.662-82.687 44.195-9.539 4.578-19.86 7.875-30.345 5.725a20.76 20.76 0 0 0-18.187 3.802 164 164 0 0 1-18.006 12.636c-14.948 8.333-30.23 16.069-44.932 23.81-6.966-3.41-12.542-6.138-17.5-8.566-6.039-11.398-3.888-21.144 4.46-29.962 1.37-1.448 1.627-3.885 2.811-5.58 8.039-11.509 12.951-24.764 22.192-35.803a187.6 187.6 0 0 0 26.08-41.188 55.8 55.8 0 0 1 11.899-14.493c4.072-4.05 9.155-7.067 13.416-10.951 5.54-5.052 10-11.624 16.184-15.563 13.354-8.506 21.861-21.583 31.567-33.1 14.687-17.427 26.63-37.167 39.8-56.013-1.478-1.348-3.024-3.556-3.766-3.311z" style="stroke-width:3.70099"/>
</svg>
