<svg xmlns="http://www.w3.org/2000/svg" width="1377" height="960">
    <path d="M1225.473 469.545c-10.001 9.475-30.004 26.32-44.743 37.9-14.212 11.58-30.003 24.213-34.74 28.95-4.738 4.212-24.74 21.056-44.217 36.848-20.002 15.791-44.742 36.32-54.744 45.269-10.527 8.948-33.162 26.845-50.532 40.531-17.371 13.686-50.533 40.005-73.694 58.955-23.16 18.423-52.638 41.584-65.798 50.533-92.643 66.324-132.122 122.647-133.175 190.024-.526 38.426 6.843 41.058 36.32 11.054 47.901-47.375 83.695-64.219 173.18-80.537 35.795-6.843 83.17-20.529 88.96-26.319 2.631-2.632 8.422-5.264 12.633-5.264 10 0 58.428-33.162 82.115-55.796 49.48-47.901 105.803-168.443 124.227-265.297 2.105-13.16 6.843-30.53 10-38.426 7.897-20.003 7.37-45.795-.526-45.795-3.684 0-15.265 7.895-25.266 17.37M120.07 467.44c0 8.422 2.632 22.108 5.79 30.53 3.158 7.896 7.896 25.266 10.001 38.426 18.424 96.854 74.747 217.396 124.227 265.297 23.687 22.634 72.114 55.796 82.116 55.796 4.21 0 10 2.632 12.633 5.264 5.79 5.79 53.164 19.476 88.958 26.32 89.486 16.317 125.28 33.161 173.18 80.536 29.478 30.004 36.847 27.372 36.32-11.054-1.052-67.377-40.53-123.7-133.174-190.024-13.16-8.949-42.637-32.11-65.798-50.533-23.16-18.95-56.323-45.27-73.694-58.955-17.37-13.686-40.005-31.583-50.532-40.531-10.002-8.949-34.742-29.478-54.744-45.27-19.476-15.791-39.479-32.635-44.216-36.846-4.738-4.738-20.003-17.37-34.742-28.951-14.212-11.58-34.74-28.425-44.742-37.9-23.16-21.582-31.583-22.108-31.583-2.105M1113.88 195.3c-4.738 3.684-16.844 18.423-26.846 33.162-9.474 14.212-28.95 42.637-43.163 63.166-14.212 20.002-42.637 61.587-63.166 92.117s-48.954 71.588-63.166 92.117c-14.212 20.002-34.741 50.006-45.795 65.798-10.528 15.791-41.058 59.48-66.85 97.38-78.432 113.173-85.275 126.859-86.328 174.233-.526 28.425 1.053 41.058 5.264 42.637 3.685 1.58 8.949-3.158 11.58-10.527 6.317-15.792 41.585-53.165 76.852-80.537 14.74-11.58 32.11-25.793 39.48-32.11 22.634-19.476 60.007-50.006 118.962-98.433 117.383-96.328 142.123-130.543 162.126-221.607 13.686-61.587 14.738-87.38 5.79-146.861-11.054-74.22-13.16-79.484-24.74-70.535m-864.32 5.79c-19.477 97.38-21.056 141.597-5.265 211.606 20.003 91.064 44.743 125.279 162.126 221.607 58.955 48.427 96.328 78.957 118.963 98.434 7.37 6.316 25.266 20.529 39.479 32.109 35.267 27.372 70.535 64.745 76.851 80.537 2.632 7.369 7.896 12.106 11.58 10.527 4.212-1.579 5.791-14.212 5.265-42.637-1.053-47.374-7.896-61.06-86.327-174.233-25.793-37.9-56.323-81.589-66.85-97.38-11.055-15.792-31.584-45.796-45.796-65.798-14.212-20.53-42.637-61.587-63.166-92.117s-48.954-72.115-63.166-92.117c-14.212-20.53-34.741-50.007-45.795-66.325-23.161-34.214-34.742-41.584-37.9-24.213M892.272 66.336C885.43 77.39 878.06 90.023 876.48 94.234c-2.105 4.211-8.422 14.739-14.212 23.687-16.318 24.74-26.846 51.586-22.635 55.797 2.632 2.105 13.686 4.737 25.267 5.79l21.055 1.58 2.632 123.173c2.106 92.117 4.211 123.7 8.949 125.805 3.684 1.053 8.422-2.631 10.527-7.895 2.106-5.264 10.001-18.95 18.424-30.004l14.738-20.53V178.456h21.056c13.16 0 22.634-2.632 24.213-7.369 2.632-6.843-8.422-30.53-30.004-63.692-5.263-8.949-11.58-19.476-13.686-23.688C934.91 65.81 919.118 46.86 911.75 46.86c-3.685 0-12.633 8.948-19.476 19.476m-444.794-5.264c-5.264 8.422-11.58 18.423-13.16 22.634-2.105 4.212-8.422 14.74-13.685 23.688-21.582 33.162-32.636 56.849-30.004 63.692 1.579 4.737 11.054 7.37 24.213 7.37H435.9v193.182l14.738 20.529c8.423 11.054 16.318 24.74 18.424 30.004s6.843 8.948 10.527 7.895c4.738-2.105 6.843-33.688 8.949-125.805l2.632-123.174 21.055-1.579c11.58-1.053 22.635-3.685 25.267-5.79 4.21-4.211-6.317-31.057-22.635-55.797-5.79-8.948-12.107-19.476-14.212-23.687C490.643 71.6 471.693 46.86 465.376 46.86c-4.21 0-12.107 6.316-17.897 14.212M672.771-78.42c-3.158 6.843-9.475 18.95-15.265 27.899-5.264 8.422-17.37 31.056-27.372 48.953-17.37 32.636-17.37 33.689-7.37 41.058 5.79 4.211 13.16 6.317 16.319 5.264 3.684-1.58 10 .527 15.265 3.685 7.369 5.79 8.422 33.162 8.422 293.195 0 306.881 1.579 327.41 24.213 330.569 8.949 1.579 13.686-2.632 20.003-17.897 6.843-16.318 7.896-60.008 7.896-310.566 0-193.71 1.579-292.143 5.263-294.248 3.159-2.106 13.16-4.211 22.109-5.79 23.687-2.633 25.792-11.055 10-38.427-7.895-13.16-15.79-27.898-17.896-32.109s-8.422-15.265-14.213-23.687c-5.79-8.949-12.633-21.056-15.791-27.899-2.632-6.316-9.475-11.58-15.791-11.58s-13.16 5.264-15.792 11.58" style="stroke-width:.526383"/>
</svg>
