<svg xmlns="http://www.w3.org/2000/svg" width="1220" height="960">
    <path d="m754.205 180 36.818 36.818-36.818 36.818-36.819-36.818zm-288.41 0-36.818 36.818 36.818 36.818 36.819-36.818zm181.023 36.818 36.818 36.818 36.819-36.818L683.636 180zM536.364 180l-36.819 36.818 36.819 36.818 36.818-36.818zm36.818 36.818L610 253.636l36.818-36.818L610 180zm-36.818 61.364c-3.069 0-6.137 3.068-6.137 9.204 3.068 46.023 39.887 79.773 85.91 76.705 42.954-3.068 73.636-36.818 76.704-76.705 0-3.068-3.068-9.204-6.136-9.204-33.75-3.068-61.364-3.068-73.637-3.068-15.34 0-42.954 3.068-76.704 3.068m457.159 346.704c33.75-33.75 46.023-70.568 70.568-95.113 18.409-18.41 36.818-18.41 36.818-33.75s-18.409-15.341-36.818-33.75c-24.545-24.546-36.818-61.364-70.568-95.114-27.614-30.682-76.705-49.09-125.796-64.432h-6.136c-3.068 0-3.068 3.068-3.068 6.137-21.478 98.181-101.25 193.295-227.046 205.568-3.068 0-6.136 3.068-6.136 9.204v187.16c0 3.068 3.068 9.204 9.204 9.204 76.705-3.068 279.205-15.34 358.978-95.114M585.455 720c3.068 0 9.204-3.068 9.204-6.136v-187.16c0-3.068-3.068-6.136-6.136-9.204-125.796-9.205-205.568-104.318-227.046-205.568 0-3.068-3.068-3.068-3.068-6.137h-6.136c-49.091 15.341-98.182 33.75-125.796 64.432-33.75 33.75-46.022 70.568-70.568 95.114-18.409 18.409-36.818 15.34-36.818 33.75s18.409 15.34 36.818 33.75c24.546 24.545 36.818 61.364 70.568 95.114C306.25 704.659 508.75 716.932 585.455 720m30.681-227.045c125.796 0 205.569-95.114 217.841-187.16 0-3.068-3.068-9.204-6.136-9.204-33.75-6.136-64.432-12.273-98.182-15.341-3.068 0-3.068 0-6.136 3.068-3.068 0-3.068 3.068-3.068 6.137-3.069 61.363-55.228 104.318-116.591 101.25-55.228-3.069-98.182-46.023-101.25-101.25 0-3.069 0-3.069-3.069-6.137-3.068 0-3.068-3.068-6.136-3.068-33.75 3.068-67.5 9.205-98.182 15.34-3.068 0-6.136 6.137-6.136 9.205 12.273 95.114 92.045 187.16 217.84 187.16z" style="stroke-width:30.6818"/>
</svg>
