<svg xmlns="http://www.w3.org/2000/svg" width="1444" height="960">
    <path d="M1036.16 77.153c1.608 3.753 6.968 8.04 12.865 9.113 5.36 1.072 12.329 4.824 14.473 9.113s6.968 7.504 10.185 7.504c7.504 0 43.955 28.41 78.262 61.109 61.644 58.429 102.92 125.97 132.402 216.56 13.4 40.74 13.4 159.74 0 200.48-27.874 85.23-61.109 142.587-117.393 201.552-30.019 31.626-84.695 76.117-93.807 76.117-2.68 0-7.505 3.217-9.65 7.505s-9.112 8.04-14.472 9.113c-12.33 2.68-18.226 15.545-6.969 15.545 4.825 0 11.793-3.752 16.618-8.04 4.288-4.29 12.329-8.041 18.225-8.041s13.4-3.753 17.153-8.041 10.185-8.04 13.937-8.04c4.289 0 7.505-2.145 7.505-4.289 0-2.68 5.896-7.505 12.865-10.72 38.595-17.69 130.794-123.826 161.348-186.007 32.163-65.933 34.307-78.262 34.307-176.894s-2.144-110.96-34.307-176.893c-30.554-62.181-122.753-168.317-161.348-186.007-6.969-3.216-12.865-8.04-12.865-10.72 0-2.145-3.216-4.289-7.505-4.289-3.752 0-10.184-3.752-13.937-8.04-3.752-4.289-11.257-8.041-17.153-8.041s-13.937-3.752-18.225-8.04c-10.185-9.65-25.194-10.721-22.514-1.609m-162.957-2.68c5.897 8.577 16.081 19.834 22.514 25.73 14.473 12.865 53.068 63.253 65.933 86.839 20.906 38.059 6.969 90.59-30.554 113.64-19.298 11.793-74.51 16.082-80.942 5.897-1.609-2.68-13.938-10.185-27.875-16.081-37.523-16.618-63.789-12.865-41.275 5.896 11.257 9.113 23.586 33.77 23.586 47.172 0 7.504-6.969 14.473-21.442 21.977-38.595 19.834-113.64 13.938-181.182-13.937-9.648-4.288-20.905-7.504-25.193-7.504-8.577 0-11.257 13.937-3.217 17.153 5.897 2.144 54.14 63.789 54.14 68.613 0 5.897-30.018 10.721-66.469 10.721-17.69 0-68.613 3.216-113.104 8.04-43.956 4.29-128.65 11.794-187.615 16.618-123.29 9.649-144.73 12.33-139.907 17.154 2.145 1.608 29.483 4.824 61.11 6.968 71.829 4.288 186.005 13.401 303.934 23.586 50.388 4.824 102.384 8.04 116.858 8.04 28.946 0 32.162 6.969 12.864 27.339-20.905 21.977-46.635 56.82-46.635 63.788 0 7.505 3.752 6.433 56.284-13.4 31.627-11.793 46.1-14.474 92.2-14.474 47.707 0 56.284 1.072 70.757 11.257 9.112 6.433 16.617 16.617 16.617 22.514 0 13.4-12.329 38.059-23.586 47.172-22.514 18.76 3.752 22.513 41.275 5.896 13.937-5.896 26.266-13.401 27.875-16.081 1.608-3.216 16.617-5.36 33.234-5.36 52.532 0 87.375 33.234 87.375 83.086 0 34.842-19.834 68.077-79.334 133.474-15.545 17.153-27.338 32.162-26.802 33.234 5.896 5.36 88.982-28.946 130.258-53.604 99.167-58.964 173.677-139.906 205.303-222.993 36.987-98.095 36.987-182.254-.536-285.71-3.752-11.257-10.185-23.05-13.4-26.266-3.753-3.752-6.433-9.112-6.433-12.865 0-10.72-48.244-72.901-79.87-102.92-39.131-37.522-94.344-76.117-139.907-97.56-13.401-6.432-28.41-13.936-34.307-17.152-8.04-4.29-55.748-20.37-61.108-20.37-1.073 0 2.68 6.433 8.576 14.473m214.953 228.89c65.933 48.78 91.663 99.167 91.663 177.965 0 45.028-3.752 61.109-25.73 100.776-12.33 23.586-21.978 33.77-55.748 60.037-43.956 34.306-56.285 32.162-43.956-7.505 3.752-13.937 7.505-30.018 7.505-35.379 0-17.689-16.081-30.018-38.595-30.018-21.978 0-27.338-9.113-12.33-21.441 10.722-9.113 10.186-23.586-1.071-33.235-19.298-16.081-55.212-20.37-187.079-23.05-144.195-3.216-213.88-7.504-209.056-12.329 1.608-1.608 78.798-4.824 170.461-6.968 166.173-4.289 206.376-9.113 225.674-25.194 11.257-10.185 11.793-24.122 1.072-33.235-14.473-12.329-9.649-21.441 11.793-21.441 34.306 0 46.635-22.514 34.306-62.181-11.256-35.379-11.793-45.028-2.68-45.028 4.825 0 19.834 8.041 33.77 18.226" style="stroke-width:.536041"/>
</svg>
