<svg xmlns="http://www.w3.org/2000/svg" width="1230" height="960">
    <path d="M420.773 575.809c-4.985 12.462 35.518 72.904 58.573 88.482 34.271 22.432 55.457 31.779 79.759 34.271l24.301 1.87V569.577l-79.758-1.869c-67.92-1.246-79.76 0-82.875 8.1m600.06-329.006c-12.461 42.995-11.215 47.98 17.448 85.99 16.201 20.563 31.156 42.995 34.895 49.85 3.115 6.854 8.1 16.824 11.216 21.809s7.477 14.331 9.347 19.94c5.608 18.693 16.2 12.462 16.2-9.347 0-19.94-12.462-64.181-28.04-100.945-4.361-10.593-9.97-23.055-11.839-28.04-16.2-40.503-42.995-61.689-49.226-39.257m-489.145 9.347c-2.493 10.593-8.724 21.81-13.709 24.302s-20.563 9.346-33.648 15.577c-49.85 23.679-122.13 110.915-122.13 147.056 0 4.985-8.724 20.563-19.317 33.648-16.824 21.186-17.448 24.925-9.347 31.156 5.608 3.739 16.824 5.608 25.548 4.362 12.462-2.493 15.578-8.1 19.316-32.402 4.362-33.025 16.201-61.066 41.126-97.83 16.201-24.301 54.211-58.572 64.804-58.572 2.493 0 9.347-4.362 15.578-9.97s15.578-8.724 21.186-6.855c13.085 5.608 11.84 28.664-1.87 34.272-41.748 16.824-90.974 71.035-92.22 100.945 0 8.723-4.986 23.055-11.217 32.402-6.854 10.593-9.97 25.547-8.723 43.618l1.869 26.794 89.106 1.869 89.728 1.87-3.738-42.372c-1.247-23.056-3.116-45.488-2.493-48.603 3.116-72.282 4.985-196.282 1.87-206.875-2.493-11.216-7.478-14.332-24.925-14.332-18.694 0-21.81 2.493-26.794 19.94m3.739 202.513c-16.201 1.246-44.242 1.246-62.312 0s-4.985-1.87 29.286-1.87 49.227.624 33.026 1.87m464.844-327.136c-9.97 8.1-21.186 16.824-24.925 20.563-21.809 19.94-114.03 94.713-163.256 132.723-19.317 14.332-36.764 28.664-38.633 31.156-1.87 3.116-26.794 23.055-55.457 44.865-57.95 43.618-75.397 59.196-75.397 67.92 0 3.115-3.116 6.853-7.478 8.1-7.477 2.492-23.055 54.21-23.678 77.89 0 16.2 20.563 20.562 29.286 6.23 8.724-13.708 54.211-46.11 70.412-49.849 138.332-32.402 174.473-47.98 214.352-92.221 24.302-26.794 35.518-46.11 60.442-102.191 12.463-29.287 42.996-136.463 42.996-152.664 0-9.97-9.347-7.477-28.664 7.478m-342.09-18.694c-54.835 7.478-61.066 9.347-56.081 17.448 1.87 3.738 32.402 6.23 69.166 6.23 64.804 0 65.427 0 63.558-14.33-2.493-16.202-13.709-18.071-76.644-9.348M514.863 6.281c-40.503 6.23-97.206 22.432-105.307 30.532-3.115 3.116-9.97 6.231-14.332 6.231-4.361 0-19.94 7.478-34.894 16.825-14.332 9.97-29.286 18.693-33.648 20.562-27.417 11.216-114.03 99.076-135.84 137.709-52.964 93.467-66.673 139.578-69.789 239.277-2.492 67.296-.623 89.105 9.347 128.984 6.854 25.548 15.578 52.342 18.694 58.573 3.115 6.855 11.839 24.302 19.316 39.88 59.196 124 171.357 215.598 321.528 264.201 48.603 15.578 203.76 14.332 246.13-2.492 190.051-74.774 298.474-310.312 198.775-431.82-10.593-12.462-23.055-23.055-28.04-23.055-10.593 0-10.593-3.116 1.246 38.01 34.894 116.523-39.88 250.493-175.096 314.05-20.562 9.97-47.356 19.94-59.196 22.433-74.15 15.577-91.598 18.07-117.769 18.07-15.578 0-38.633-3.116-50.472-6.854-11.84-3.739-35.518-8.724-52.342-10.593-16.824-2.493-31.779-7.478-33.025-11.216-1.87-5.608 21.186-7.478 81.628-6.855 87.237.623 97.206-1.246 164.503-34.894 27.417-13.709 69.789-47.98 69.789-56.08 0-6.855-23.678-4.986-28.04 1.869-2.493 3.738-14.332 10.593-26.794 16.2-148.302 64.182-328.382 8.724-426.212-131.477-23.055-33.025-61.065-110.291-61.065-123.377 0-3.738-4.362-27.417-9.97-51.718-7.477-31.156-9.347-52.965-5.608-74.774 4.362-26.171 5.608-28.664 9.97-14.955 2.492 8.724 4.985 26.794 4.985 40.503.623 13.708 4.985 31.778 9.97 40.502s8.723 20.563 9.347 26.794c0 24.302 41.748 94.714 78.512 132.724 38.01 39.88 52.342 47.98 52.342 30.532 0-4.984-2.493-9.346-4.985-9.346-6.854 0-45.488-52.965-56.704-77.89-26.17-56.08-31.155-81.628-31.779-150.17 0-77.267 12.463-124 50.473-185.69C332.914 172.654 418.28 90.402 429.497 102.24c2.492 1.87 0 7.478-5.608 11.217-26.171 19.94-99.076 120.884-99.076 137.708 0 4.985-4.985 16.824-10.593 27.417-5.608 9.97-8.1 22.432-6.23 28.664 5.607 13.708 16.823 6.854 17.446-10.593.624-20.563 54.835-90.975 96.583-124.624 49.227-39.879 105.93-66.05 173.85-79.758 66.05-13.709 93.467-14.332 132.1-4.362 28.664 6.854 28.664 6.854 46.111-14.332 25.548-29.91 21.81-42.995-16.201-53.588C686.844.673 587.145-4.936 514.864 6.281m352.06-24.925a26832 26832 0 0 0-52.965 79.136c-3.115 5.608-13.708 20.562-22.432 32.402s-29.91 41.125-46.11 65.427C612.693 350.864 600.854 372.673 606.462 410.683c1.87 14.955 17.447 25.548 17.447 12.462 0-15.578 44.241-56.08 171.357-158.894 51.095-41.126 59.82-48.603 82.874-72.905 27.417-29.286 37.387-47.98 51.719-98.452 13.085-45.488 14.955-90.352 4.985-136.463-11.216-52.965-16.824-51.095-67.92 24.925" style="stroke-width:.623116"/>
</svg>
