<svg xmlns="http://www.w3.org/2000/svg" width="1590" height="960">
    <path d="M792.322 30.003a199 199 0 0 0-27.587 2.08 232 232 0 0 0-56.848 17.575 322.9 322.9 0 0 0-90.404 57.41 270.4 270.4 0 0 0-54.399 66.299c-3.47 6.092-3.883 8.983-1.04 13.78q1.273-.608 2.536-1.24c6.04-3.026 12.044-6.142 18.045-9.257 13.256-6.882 26.962-13.994 40.932-20.025a414.6 414.6 0 0 1 80.64-24.91 472.5 472.5 0 0 1 77.515-9.428c4.186-.165 8.487-.25 12.782-.25a445 445 0 0 1 69.98 6.139 450.6 450.6 0 0 1 73.605 18.166 462 462 0 0 1 83.31 37.586 5.5 5.5 0 0 0 2.692.505 15.7 15.7 0 0 0 5.02-.897 10.7 10.7 0 0 0-.142-5.013 286 286 0 0 0-66.02-78.924 318.6 318.6 0 0 0-60.608-40.192c-28.29-14.298-52.49-22.784-76.154-26.705a199.4 199.4 0 0 0-33.855-2.699m136.635 15.019a30.5 30.5 0 0 0 10.852 14.862 3209 3209 0 0 0 30.935 22.66c19.31 14.056 39.283 28.594 58.465 43.524 19.796 15.41 38.362 32.255 57.218 49.6 9.162 8.428 17.78 17.654 26.114 26.575 2.928 3.135 5.854 6.268 8.809 9.372q5.118 5.377 10.283 10.717c10.097 10.488 20.535 21.336 30.25 32.544 14.659 16.91 30.137 35.033 44.088 54.292 18.497 25.536 35.707 51.105 51.151 75.997a167.22 167.22 0 0 1 25.515 110.55 188.8 188.8 0 0 1-16.179 54.847c-12.41 27.599-29.152 52.22-50.468 80.697l-5.056 6.765c-14.097 18.88-28.677 38.407-44.578 56.322-19.58 22.059-41.634 44.95-69.404 72.045-19.761 19.28-40.85 37.79-61.242 55.695l-4.116 3.617c-14.42 12.665-28.79 24.422-42.713 34.937-7.744 5.849-15.841 11.436-23.67 16.841-8.217 5.673-16.712 11.54-24.74 17.668a93.7 93.7 0 0 0-12.825 12.797l-.057.057a98 98 0 0 1 2.507-.67 629.6 629.6 0 0 0 110.656-40.719c18.188-8.418 37.04-18.062 56.037-28.67 21.867-12.211 42.715-24.646 61.961-36.951 28.763-18.39 66.107-43.376 99.868-73.62l5.27-4.72c20.322-18.191 41.34-37.002 60.786-56.635 19.573-19.761 39.52-41.803 59.284-65.515 18.449-22.135 35.443-45.444 49.634-65.33 9.132-12.795 17.79-26.306 26.163-39.373 3.595-5.608 7.19-11.218 10.832-16.792v-4.187a522 522 0 0 1-3.17-5.49c-2.545-4.46-5.18-9.073-8.082-13.303l-7.363-10.774c-11.634-17.03-23.664-34.637-36.176-51.4-7.545-10.111-16.053-19.863-24.276-29.29a1314 1314 0 0 1-9.699-11.21c-5.081-5.96-10.08-11.997-15.082-18.037-11.731-14.167-23.863-28.814-36.845-42.086-20.105-20.555-41.977-40.14-63.13-59.078l-6.26-5.597c-13.205-11.836-26.956-22.987-40.868-33.142-15.826-11.552-36.773-26.542-58.493-40a1664 1664 0 0 0-79.843-46.437c-35.189-19.177-73.035-34.399-109.638-49.122-5.566-2.239-11.131-4.488-16.692-6.736a198 198 0 0 0-21.477-6.83q-2.256-.626-4.536-1.267m-268.07.107a82 82 0 0 0-11.416 3.268 2682 2682 0 0 1-23.784 9.35c-22.824 8.905-46.43 18.11-68.955 28.52-33.685 15.569-66.289 32.291-96.905 49.7a668 668 0 0 0-93.985 63.52 2607 2607 0 0 1-17.048 13.844c-19.704 15.924-40.082 32.389-58.679 49.998-22.426 21.234-43.35 44.922-63.585 67.83l-2.82 3.197c-19.447 22.006-37.655 44.724-52.896 64.048-11.207 14.21-21.577 29.371-31.24 43.68-5.056 7.487-9.792 15.437-14.371 23.123-1.92 3.223-3.84 6.44-5.79 9.642v4.18l5.448 8.51c4.338 6.79 8.677 13.578 13.082 20.324a904 904 0 0 0 82.235 109.63l8.887 10c13 14.643 26.44 29.786 40.342 43.944 13.098 13.34 27.418 26.01 41.267 38.262l4.629 4.102 6.074 5.405a431 431 0 0 0 34.78 28.905c35.036 25.14 64.338 45.941 95.887 65.764 26.811 16.845 55.357 31.52 82.962 45.71a640.5 640.5 0 0 0 109.089 43.397c5.86 1.753 11.748 3.406 18.102 5.192l.705.199a69.4 69.4 0 0 0-18.892-17.817 772 772 0 0 1-85.661-64.86l-9.144-8.004c-16.928-14.806-34.433-30.116-50.902-46.01-12.699-12.256-24.935-25.343-36.774-37.999a3456 3456 0 0 0-15.958-16.948c-2.731-2.862-5.528-5.667-8.325-8.474a256 256 0 0 1-17.988-19.349c-15.889-19.642-34.561-43.038-52.569-67.658-15.965-21.827-33.984-48.24-46.615-78.66-12.86-30.974-16.912-60.4-12.384-89.963a186 186 0 0 1 30.037-76.203c17.25-25.613 32.939-48.667 50.312-71.412 19.716-25.814 40.437-50.184 58.101-70.62 9.976-11.542 20.94-22.477 31.547-33.05 2.53-2.52 5.057-5.037 7.577-7.563 10.38-10.433 19.858-19.49 28.983-27.68a1773 1773 0 0 0 10.867-9.834c12.873-11.696 26.188-23.79 40.192-34.623 24.316-18.81 49.765-36.94 74.374-54.47l8.567-6.103a34.2 34.2 0 0 0 12.64-15.944m127.967 174.355c-6.636 35.156-8.418 71.096-20.423 104.738-28.176-14.363-31.639-40.1-33.07-67.715-2.481 3.003-5.06 5.94-7.428 9.03-6.601 8.606-11.901 17.98-11.01 29.154a45.1 45.1 0 0 0 14.4 30.343 194.6 194.6 0 0 1 31.468 36.503c14.372 22.212 42.173 16.339 54.327-.74A153 153 0 0 1 841.63 331.6c13.378-11.247 22.557-23.212 20.338-41.51-1.643-13.545-9.07-23.842-18.302-34.281-2.873 47.452-8.117 50.903-32.565 68.335-12.473-33.745-13.948-69.907-22.247-104.66m-112.82 60.573c-7.165 14.164-12.553 26.897-7.086 42.057a67.6 67.6 0 0 0 41.025 41.552 14.05 14.05 0 0 1 9.457 11.9c2.042 9.975 7.987 13.728 18.978 13.11 6.667-.375 12.375-6.926 13.395-15.382 1.592-13.195-5.244-22.634-15.104-29.417a196.6 196.6 0 0 0-27.096-13.986c-9.405-4.497-18.172-9.558-22.19-19.94-3.66-9.456-7.22-18.956-11.38-29.894m227.571 1.445c-2.211 6.002-4.31 11.952-6.587 17.832a54.02 54.02 0 0 1-31.668 32.202c-11.797 4.76-23.983 9.978-31.69 21.121-6.169 8.921-9.374 19.953-4.208 27.402a19.6 19.6 0 0 0 18.117 9.728c9.304-.732 13.515-4.917 15.652-14.442 1.204-5.368 2.098-10.805 3.318-17.198 14.637-6.707 31.492-11.108 40.74-28.014 8.594-15.708 4.032-39.87-3.674-48.63m62.503 54.192c-1.949 2.569-3.677 4.69-5.241 6.93-8.51 12.176-19.073 21.676-34.182 24.29-9.096 1.573-18.366 2.26-27.587 2.948-10.225.762-20.315 2.841-28.008 9.52-10.141 8.806-15.232 15.963-5.42 30.273a16.7 16.7 0 0 1 1.66 2.556c2.714 6.148 7.2 5.944 12.79 4.295 11.133-3.286 16.633-11.928 21.278-21.328 8.845-.928 17.422-1.867 26.006-2.72 27.784-2.762 44.144-27.577 38.704-56.764m-351.865.221a59.4 59.4 0 0 0-1.26 19.697c2.17 16.033 10.578 28.053 26.092 33.406 7.998 2.76 16.818 3.104 25.237 4.693 7.37 1.39 14.702 2.998 22.702 4.643l-10.382 12.284a50.84 50.84 0 0 0 29.538 4.272c8.513-1.582 14.41-12.339 12-20.793a29.02 29.02 0 0 0-20.574-20.239 115 115 0 0 0-30.713-4.956c-20.217-.411-34.523-10.434-46.544-25.266-2.068-2.551-4.066-5.16-6.096-7.74M998.88 401.11c-3.954 2.37-7.843 4.534-11.565 6.957-17.41 11.331-35.467 16.828-56.4 9.756a44.07 44.07 0 0 0-38.49 3.375c-11.728 7.223-17.184 18.297-4.437 30.408.907.86 2.179 1.625 2.557 2.692a23 23 0 0 1 1.759 7.513c-.038 6.52-1.7 13.24-.577 19.497 1.104 6.155 1.206 10.39-3.796 15.126-8.334 7.893-9.824 16.961-3.845 23.464a39.95 39.95 0 0 0 15.118 10.02c12.13 4.468 24.811 2.84 36.824-.648 18.09-5.252 34.368-3.067 49.271 8.595 4.405 3.447 8.91 6.766 14.57 11.052-.668-4.099-.845-6.506-1.467-8.795-4.102-15.11-10.899-28.434-26.263-34.872-11.502-4.82-23.459-3.004-35.214-.598-12.716 2.602-18.979 1.965-25.002-7.798 42.97-13.568 87.772-13.545 131.015-22.268l-124.663-20.231 5.583-13.125c13.702 2.756 26.89 5.177 40.612 2.657 18.53-3.404 35.753-24.09 34.41-42.777m-417.943.363-1.324.997c1.48 4.826 2.747 9.732 4.486 14.463a39.46 39.46 0 0 0 20.43 23.393c13.172 6.392 26.422 5.1 39.758 2.6 11.56-2.17 17.135-1.16 22.539 6.508a17.2 17.2 0 0 1-4.33 3.005 154 154 0 0 1-18.857 5.035c-23.81 3.99-47.709 7.457-71.518 11.45-8.337 1.399-16.517 3.746-24.767 5.662l.1 2.05c40.042 5.133 80.637 7.545 118.987 23.216-7.746 7.563-17.169 6.113-25.857 4.565-11.794-2.103-23.13-2.713-34.36 2.079-17.505 7.47-22.847 23.027-27.395 40.605 2.586-1.499 4.185-2.322 5.662-3.326a28 28 0 0 0 2.798-2.478c11.488-10.278 24.635-16.401 40.335-14.776a221 221 0 0 1 24.098 4.372c12 2.614 23.666 3.097 34.288-4.344 4.992-3.496 9.728-7.354 14.314-10.845v-13.189l-13.609-10.46v-34.496l-2.357-1.132c2.888-2.367 5.614-4.975 8.695-7.057 7.152-4.833 6.645-17.793.313-23.044a56.4 56.4 0 0 0-15.282-8.738c-12.334-4.833-24.545-.616-36.581 1.973-16.468 3.54-31.746 2.257-45.604-8.29-4.732-3.6-9.962-6.55-14.962-9.798m309.18 127.562a212 212 0 0 0-20.693 6.337 14.506 14.506 0 0 0-8.133 18.993 38.46 38.46 0 0 0 10.817 14.477c11.565 9.952 26.346 9.286 40.342 9.97a49.33 49.33 0 0 1 29.282 9.421c8.952 7.109 16.912 15.464 25.401 23.365 0-.88.096-2.476-.014-4.06-.37-5.333-.925-10.656-1.203-15.994-.869-16.672-15.943-31.94-31.583-34.915-10.448-1.987-21.178-2.508-32.152-3.724-3.564-7.056-7.446-14.73-12.063-23.87m-198.673.05c-5.515 8.594-10.148 15.805-15.104 23.528-6.94.844-14.197 2.08-21.506 2.556-30.652 1.996-47.504 26.505-40.733 58.401 4.45-6.072 8.33-11.703 12.561-17.062 7.445-9.43 15.977-17.165 28.998-17.554 8.883-.266 17.758-1.054 26.64-1.154a39.54 39.54 0 0 0 32.33-16.414c7.307-9.653 5.667-19.602-3.069-25.259-5.856-3.792-13.487-4.837-20.117-7.043m153.027 30.072a17.313 17.313 0 0 0-17.426 16.72 31.37 31.37 0 0 0 14.364 27.004c9.16 5.756 18.82 10.756 28.449 15.717a48.96 48.96 0 0 1 24.739 27.737c2.548 7.06 5.25 14.066 8.317 22.268 1.821-3.762 2.988-6.343 4.295-8.852 10.696-20.534 4.432-48.13-17.526-59.44-8.721-4.493-17.321-9.232-26.106-13.93a81 81 0 0 1-1.51-10.902c-.08-11.923-9.105-15.75-17.155-16.315a17 17 0 0 0-.441-.007m-116.232.94a158 158 0 0 0-6.053.157c-1.073 5.338-2.016 10.138-3.005 14.926a22.43 22.43 0 0 1-15.104 18.43 81.4 81.4 0 0 0-13.424 5.995c-25.63 14.414-30.637 43.06-14.933 66.918 2.4-5.415 4.723-10.768 7.136-16.08a68.15 68.15 0 0 1 38.725-37.799c13.681-5.192 24.838-13.564 29.439-28.449 3.764-12.178-1.673-22.713-12.733-23.849a158 158 0 0 0-10.048-.249m60.43 12.968a33.06 33.06 0 0 0-25.593 12.697c-4.9 5.502-8.844 11.853-13.659 17.44-7.693 8.926-16.181 17.19-23.542 26.37a38.63 38.63 0 0 0-8.09 30.884c1.411 9.856 6.72 17.384 12.213 25.01 1.3 1.805 2.861 3.43 5.49 6.544.895-28.242 5.655-52.818 31.647-67.737l21.37 107.231c8.206-34.879 10.008-72.68 22.582-107.993 26.42 14.356 32.948 38.926 33.434 67.231 10.477-11.649 18.405-24.893 17.603-37.628a41.95 41.95 0 0 0-11.87-27.495c-11.338-11.742-23.279-22.83-32.032-36.909a31.22 31.22 0 0 0-23.87-15.232 33 33 0 0 0-5.683-.413M561.867 773.29a11.15 11.15 0 0 0-.257 11.779 308.1 308.1 0 0 0 69.154 79.209 333.9 333.9 0 0 0 95.965 53.686A180 180 0 0 0 788.997 930c3.362 0 6.756-.117 10.083-.349a550 550 0 0 1 8.268-.491 172 172 0 0 0 24.476-2.493 246.7 246.7 0 0 0 65.685-23.564 474 474 0 0 0 50.839-31.07 316 316 0 0 0 33.013-27.943l1.888-1.745a142 142 0 0 0 17.525-19.939c9.756-13.192 19.517-27.18 29.004-41.58a3.8 3.8 0 0 0 .549-3.825 2.92 2.92 0 0 0-2.75-1.388 6 6 0 0 0-.733.05 39.1 39.1 0 0 0-13.857 4.999 400.8 400.8 0 0 1-78.12 34.167 502 502 0 0 1-64.005 15.603 580 580 0 0 1-62.73 7.37c-3.68.266-7.596.399-11.637.399-10.053 0-19.984-.834-27.516-1.56-22.393-2.157-41.83-4.599-59.419-7.463-35.757-5.825-72.1-18.021-114.366-38.39-8.39-4.045-16.41-8.381-24.903-12.968a2729 2729 0 0 0-8.424-4.529" style="stroke-width:3.64605"/>
</svg>
