<svg xmlns="http://www.w3.org/2000/svg" width="1317" height="960">
    <path d="M499.788 933.898c0 7.38 7.38 15.99 15.99 18.45 7.38 2.46 44.281 13.53 79.952 25.831 60.271 19.68 67.651 19.68 129.152 0 34.441-12.3 71.342-23.37 79.952-25.83 7.38-2.46 14.76-11.07 14.76-18.45 0-9.84-15.99-11.07-57.81-4.92-33.212 6.15-78.722 9.84-102.093 9.84s-68.881-3.69-100.862-9.84c-43.05-6.15-59.04-4.92-59.04 4.92m489.55-115.622c-3.69 3.69-3.69 20.91 0 36.901 4.92 30.75 59.04 79.951 134.072 123.002 44.28 25.83 66.42 17.22 43.05-15.99-8.61-11.07-18.45-29.52-23.37-39.36-3.69-9.841-23.37-39.362-44.28-65.192-25.831-33.21-44.282-45.51-68.882-45.51-18.45 0-36.9 2.46-40.59 6.15m-707.264-8.61c-30.75 4.92-82.411 65.191-130.382 152.523L119.712 1020l39.36-23.37c22.14-13.53 47.971-28.29 57.811-33.211 9.84-3.69 39.36-23.37 65.191-44.28 33.211-25.831 45.511-44.282 45.511-70.112 0-40.59-7.38-46.741-45.51-39.36M589.58 591.952c-43.05 20.91-77.491 41.82-77.491 47.971 0 22.14 125.462 135.303 148.832 135.303 46.741 0 71.342-46.741 72.572-138.993 0-82.411 0-82.411-33.211-81.181-19.68 0-68.881 17.22-110.702 36.9m-114.392-19.68c0 12.3 8.61 18.45 22.14 15.99 25.83-4.92 23.37-27.06-2.46-31.98-12.3-2.46-19.68 3.69-19.68 15.99m323.496-59.041c-25.83 4.92-28.29 12.3-28.29 77.491 0 39.36 4.92 75.032 9.84 78.722 6.15 3.69 31.98-14.76 56.58-40.591 35.671-36.9 45.511-55.351 41.821-82.412-3.69-36.9-23.37-44.28-79.951-33.21m-114.392-20.91c-14.76 9.84-13.53 12.3 9.84 12.3 14.76 0 27.06-6.15 27.06-12.3 0-15.99-13.53-15.99-36.9 0m196.803-77.492c0 22.14 45.511 102.092 59.041 102.092 23.37 0 17.22-59.041-9.84-86.102-24.6-24.6-49.2-31.98-49.2-15.99m-476.018-1.23c-22.14 23.37-40.591 55.351-40.591 71.341 0 35.67 51.66 62.731 86.101 44.281 12.3-6.15 36.901-12.3 54.121-12.3 33.211 0 39.361-11.07 20.91-46.741-6.15-11.07-15.99-38.13-22.14-57.811-14.76-51.661-50.43-50.431-98.401 1.23m703.572-35.67c12.3 75.03 12.3 129.152 0 202.953-6.15 43.05-4.92 59.041 4.92 59.041 7.38 0 15.99-7.38 18.45-15.99 2.46-7.38 13.531-44.281 25.831-79.952 19.68-60.27 19.68-67.65 0-129.152-12.3-34.44-23.37-71.341-25.83-79.951-2.46-7.38-11.07-14.76-18.45-14.76-9.84 0-11.07 15.99-4.92 57.81m-921.286-43.051c-2.46 8.61-13.53 45.51-25.83 79.951-19.681 61.501-19.681 68.881 0 129.152 12.3 35.671 23.37 72.572 25.83 79.952 2.46 8.61 11.07 15.99 18.45 15.99 9.84 0 11.07-15.99 4.92-59.041-12.3-73.801-12.3-127.922 0-202.954 6.15-41.82 4.92-57.81-4.92-57.81-7.38 0-15.99 7.38-18.45 14.76m583.03 41.82c0 66.421 0 67.652 34.44 63.961 23.371-2.46 34.442-11.07 36.902-30.75 3.69-27.06-41.821-102.092-61.502-102.092-4.92 0-9.84 30.75-9.84 68.881m-221.404-36.9c0 47.97 39.36 140.222 60.271 140.222 8.61 0 38.131-17.22 65.192-38.13 36.9-30.751 46.74-45.511 44.28-71.342s-12.3-33.21-46.74-39.36c-23.371-4.92-61.502-12.3-82.412-17.22-38.13-8.611-40.59-7.381-40.59 25.83m49.201-124.233-28.29 30.75 46.74 19.681c100.862 41.821 146.373 17.22 89.792-47.97-35.67-41.821-71.341-41.821-108.242-2.46m-12.3-231.244c-30.75 11.07-62.731 20.91-70.111 23.37-8.61 2.46-15.99 11.07-15.99 18.45 0 9.841 15.99 11.071 59.04 4.921 31.981-6.15 77.492-9.84 100.862-9.84s68.881 3.69 102.092 9.84c41.82 6.15 57.811 4.92 57.811-4.92 0-7.38-7.38-15.99-14.76-18.45-8.61-2.46-43.05-13.53-77.492-24.6-72.57-23.371-70.11-23.371-141.452 1.23m-442.808-3.69c0 8.61 8.61 23.37 18.45 31.98s18.45 20.911 18.45 27.061c0 7.38 17.22 34.44 38.131 61.501 31.98 40.591 45.511 47.971 77.492 44.281 33.21-3.69 38.13-7.38 34.44-34.44-6.15-40.591-17.22-52.892-94.711-104.552-71.342-46.741-92.252-52.891-92.252-25.83m1014.768-15.99c-19.68 12.3-45.51 27.06-55.35 31.98-9.84 3.69-39.361 24.6-65.192 44.281-39.36 30.75-46.74 43.051-43.05 75.032 3.69 33.21 8.61 38.13 34.44 34.44 36.9-4.92 92.252-66.421 137.762-150.063 18.45-34.44 31.98-61.5 30.751-60.27-1.23 0-18.45 11.07-39.36 24.6" style="stroke-width:1.23002"/>
</svg>
