<svg xmlns="http://www.w3.org/2000/svg" width="1225" height="960">
    <path d="M612.6.002c-2.153-.155-10.503 7.873-44.183 41.553-32.708 32.707-41.97 42.657-41.17 44.03 1.258 2.287 83.941 85.314 84.97 85.314.916 0 85.086-84.171 85.543-85.658S615.877 1.186 612.789.042a.7.7 0 0 0-.19-.04M470.408 108.115c-.343 0-2.058.57-4.002 1.142-1.83.572-5.948 1.945-9.15 2.86-3.088 1.03-7.547 2.402-9.72 3.317-28.59 10.636-38.884 15.21-72.392 32.364-1.83.915-3.545 2.402-3.888 3.317-.458 1.143 26.074 28.476 83.713 86.115 73.65 73.65 84.17 84.627 83.141 86.457-.686 1.258-8.234 9.035-16.697 17.498l-15.552 15.325-2.517-2.173c-1.372-1.144-41.514-41.286-89.088-88.975-81.655-81.998-86.801-86.8-89.317-85.656-1.487.686-5.833 3.773-9.721 6.746-3.774 3.088-8.92 7.09-11.322 9.035-8.12 6.404-22.757 19.1-30.077 26.304l-7.205 6.976 91.032 91.49c50.091 50.204 90.92 91.718 90.69 92.175-.571 1.944-31.908 32.937-33.166 32.937-.8 0-41.513-40.141-90.574-89.203-65.873-65.872-89.774-89.202-91.49-88.973-3.202.458-30.192 36.023-38.884 51.348-.571 1.143-3.317 5.604-5.833 9.835-11.207 18.298-31.335 58.554-31.335 62.442 0 .801-.685 2.401-1.486 3.66-.915 1.257-1.83 3.316-2.287 4.574-.343 1.258-1.716 5.147-3.089 8.577-2.63 7.09-9.376 27.333-11.892 36.025-1.487 5.26-2.402 8.691-6.862 26.532-1.715 6.633-3.66 17.269-6.862 36.368-4.117 24.359-4.689 37.28-4.689 100.637v62.9l36.025.344 35.908.227 45.288-45.172 45.289-45.173 50.205.228 50.318.344.344 2.744c.229 1.6-.343 5.489-1.372 8.577-.915 3.202-2.86 10.407-4.118 16.126-1.372 5.603-2.86 11.55-3.317 13.152-.572 1.6-1.83 6.976-2.973 12.008-1.03 5.032-2.516 10.635-3.088 12.58-1.03 3.087-2.402 9.034-5.49 22.3-.8 3.545-3.888 16.24-8.577 34.538a4349 4349 0 0 0-6.746 26.874c-.915 3.66-2.516 9.835-3.43 13.724-1.03 4.002-2.632 10.408-3.661 14.296-.915 4.003-2.516 9.834-3.431 13.15-2.402 8.463-2.286 13.381.23 17.041 1.143 1.601 2.973 4.117 3.888 5.49 2.173 3.088 11.55 15.667 12.809 17.268 1.6 1.83 42.084 56.495 47.802 64.386 2.86 4.003 15.553 21.156 28.362 38.31 12.694 17.155 24.587 33.052 26.303 35.454 5.947 8.462 8.464 11.093 10.408 11.093s8.805-2.402 19.555-6.748c3.43-1.486 10.064-4.117 14.638-5.947 4.46-1.83 12.237-4.917 17.154-6.862 4.804-1.944 10.636-4.23 12.81-5.03 5.832-2.173 19.785-7.778 30.192-12.124 14.638-6.176 25.96-18.526 21.386-23.443-2.86-2.974-6.29-10.98-7.663-17.955-1.6-8.463-.572-17.27 4.116-33.394 1.258-4.46 2.86-10.636 3.547-13.724.686-3.202 1.715-6.518 2.173-7.433s1.142-3.545 1.6-5.947c.686-3.66.229-4.69-4.003-9.607-12.008-13.838-13.38-30.992-3.43-44.83 3.316-4.688 2.515-5.604-6.291-7.205-46.088-8.348-85.2-31.106-110.245-63.928-10.522-13.838-17.497-27.333-22.071-42.886-1.601-5.146-2.287-8.692-4.803-24.817-.343-2.402-.115-5.374.571-6.632 1.258-2.287 1.715-2.288 176.46-2.06l175.204.344.344 8.005c.686 14.41-7.206 39.683-16.927 54.894-1.258 1.83-2.63 4.231-3.087 5.146-1.372 2.973-10.292 14.067-16.01 20.014-16.583 17.269-35.796 30.191-59.24 39.912-8.463 3.545-11.55 4.574-27.447 9.149-3.088.915-8.464 1.944-11.78 2.402-10.979 1.258-11.093 1.601-5.718 11.55 3.317 6.176 3.66 7.662 3.66 16.468-.115 11.208-2.173 16.355-9.72 24.59-5.033 5.374-5.147 5.945-2.86 13.15.915 2.859 2.515 8.464 3.545 12.58 1.029 4.118 2.516 9.721 3.43 12.58 4.46 14.638 5.604 22.643 4.232 29.734-1.258 6.976-6.06 18.641-8.234 20.014-5.375 3.316 5.947 16.24 19.899 22.758 4.803 2.287 9.15 4.117 9.721 4.117.572 0 3.43 1.029 6.518 2.401 7.434 3.088 9.38 3.889 14.754 5.947 5.947 2.173 20.357 8.006 48.032 19.1 12.237 5.031 16.125 6.174 18.07 5.374 1.029-.343 5.145-5.147 9.262-10.75 4.117-5.49 7.892-10.636 8.35-11.208.457-.686 5.83-7.89 11.778-16.01 5.947-8.234 20.128-27.447 31.678-42.886 27.333-36.71 27.105-36.482 49.177-66.33 10.407-14.181 19.441-26.417 20.128-27.218.686-.915.685-3.202-.23-6.862-4.117-16.354-5.031-19.557-6.518-24.932-.915-3.202-1.602-6.632-1.602-7.547 0-1.03-.8-4.346-1.715-7.32-2.173-7.318-7.434-28.362-8.577-34.194-.572-2.516-2.059-8.692-3.431-13.724s-2.973-11.207-3.545-13.723c-1.715-8.463-4.116-18.412-5.374-22.415-1.258-4.002-3.318-12.465-4.805-19.327-.8-3.545-4.002-16.354-8.577-34.308-3.888-15.325-4.23-17.155-3.659-18.87.687-1.487 6.861-1.716 50.777-1.716h49.977l45.286 45.173 45.289 45.172h34.995c30.077 0 35.108-.228 36.366-1.715 2.287-2.745.802-129.344-1.6-145.812-1.03-6.633-2.517-15.896-3.203-20.585-2.401-15.897-2.974-18.87-5.49-29.734-4.002-17.269-4.345-18.413-6.861-26.876a360 360 0 0 1-3.431-12.008c-.572-2.173-2.86-9.149-5.147-15.439a2798 2798 0 0 1-5.146-14.294c-3.888-11.894-24.472-55.352-31.22-66.102-1.715-2.63-3.089-5.032-3.089-5.49 0-.343-1.486-2.974-3.43-5.833-1.83-2.744-3.431-5.259-3.431-5.488 0-1.944-30.535-44.716-36.94-51.806-1.257-1.373-3.2-2.516-4.115-2.516-1.03 0-41.972 40.14-91.034 89.202-48.947 49.062-89.659 89.203-90.345 89.203-2.287 0-32.823-31.564-32.366-33.508.115-1.03 40.6-42.2 89.89-91.605 49.176-49.29 89.43-90.46 89.43-91.375 0-2.86-34.537-33.623-48.146-42.772-2.859-1.945-5.831-4.345-6.632-5.375-.915-1.029-2.402-1.829-3.43-1.829s-41.172 39.34-89.09 87.487c-48.032 48.147-88.173 87.944-89.316 88.516-1.601.915-4.804-1.715-18.185-15.095-8.92-8.92-16.24-16.812-16.24-17.384 0-.686 37.856-38.998 84.172-85.315 56.038-56.037 84.057-84.856 83.6-85.885-1.258-3.546-42.087-23.215-67.132-32.364-2.173-.8-6.061-2.174-8.577-3.09-8.349-3.087-12.58-4.572-16.01-5.487-1.83-.458-4.346-1.258-5.49-1.716-1.716-.686-15.095 12.008-72.162 69.075-38.426 38.426-70.676 69.876-71.591 69.876-1.03 0-33.166-31.45-71.477-69.762-38.312-38.426-69.99-69.76-70.333-69.646m141.237 298.6c3.688-.029 7.377.456 13.038 1.486 37.854 6.633 63.7 42.314 57.981 80.168-4.23 28.476-22.643 50.205-49.861 58.668-10.178 3.202-30.764 3.317-40.713.23-19.327-6.062-36.253-20.587-44.258-37.856-5.26-11.321-6.52-17.497-6.52-30.877 0-14.639 1.03-19.213 7.892-33.165 8.691-18.07 29.162-33.393 49.404-37.053 5.661-1.029 9.349-1.573 13.037-1.601" style="stroke-width:.857718"/>
</svg>
