<svg xmlns="http://www.w3.org/2000/svg" width="1060" height="960">
    <path d="M500.121 674.586c-12.799 8.96-27.73 19.199-32.85 22.185-5.12 2.56-23.038 13.652-40.103 24.318-16.638 10.665-33.703 21.331-37.543 23.464-64.42 40.53-60.155 30.29-60.155 128.842 0 77.646.427 82.339 8.106 82.339 4.267 0 12.8-3.84 18.772-8.533 5.973-4.693 11.519-8.532 12.799-8.532s32.423-20.052 69.113-44.796c37.117-24.745 68.687-44.796 70.394-44.796 1.706 0 5.546-2.987 8.532-6.4 9.813-11.945 24.318-6.826 72.527 25.598 26.45 17.492 48.636 31.997 49.915 31.997 1.28 0 9.386 5.546 18.345 12.799 8.96 6.826 17.066 12.799 18.345 12.799 1.28 0 14.08 7.679 28.158 17.065S730.926 960 732.633 960c1.28 0 2.133-38.397 2.133-85.752 0-80.633-2.56-101.964-12.798-101.964-2.134 0-15.786-8.106-30.718-18.345-14.932-9.812-31.143-20.051-35.836-23.038-4.267-2.986-21.332-13.225-37.544-23.464-15.785-10.24-32.423-20.478-36.263-22.612-3.84-2.56-14.932-9.812-24.744-16.211-10.24-6.4-21.758-11.52-25.598-11.093-4.266.427-18.345 8.106-31.144 17.065m1.707-389.51c-9.386 6.4-20.905 14.078-25.598 16.638-16.212 10.666-66.127 41.81-73.38 46.076-3.84 2.56-18.771 11.946-32.85 21.331-31.144 20.478-40.956 26.451-49.062 30.717-3.413 1.707-18.345 11.093-33.277 21.332s-28.157 18.345-29.864 18.345c-1.706 0-8.532 4.693-14.932 10.665l-11.519 11.093v83.192c0 94.285.853 97.271 29.437 74.66 8.96-7.253 17.919-13.226 19.625-13.226 1.707 0 10.24-5.972 19.199-12.798 8.959-7.253 17.065-12.8 18.345-12.8s32.423-20.05 69.54-44.795c36.69-24.745 67.833-44.796 68.687-44.796 1.28 0 9.386-5.973 18.345-12.799 8.959-7.252 17.065-12.799 18.771-12.799 1.28 0 11.093-5.972 21.758-13.652 16.212-11.519 20.905-12.798 26.878-8.532 3.84 2.986 10.239 6.4 13.652 8.106 3.413 1.28 13.225 8.106 21.758 14.932 8.532 6.4 17.065 11.945 18.771 11.945s10.24 5.546 19.199 12.799c8.959 6.826 17.491 12.799 19.198 12.799 1.706 0 10.239 5.546 19.198 12.799 8.96 6.826 17.492 12.799 19.198 12.799s10.24 5.546 19.199 12.798c8.959 6.826 17.491 12.8 19.198 12.8 1.706 0 10.239 5.545 18.771 12.371 8.533 6.4 17.492 12.8 19.625 13.652 2.56.854 20.905 12.8 41.383 26.451 20.478 14.079 39.25 23.891 41.81 22.185 2.56-1.707 4.266-32.85 4.266-87.459v-84.898l-28.584-17.492c-16.212-9.813-32.85-19.625-37.543-22.611s-16.212-9.813-25.598-15.786-20.052-12.372-23.465-14.078c-3.413-1.707-11.945-6.826-19.198-11.52-6.826-4.692-16.638-10.238-21.331-12.798s-14.079-8.106-21.331-12.799c-6.826-4.693-16.639-10.239-21.332-12.799s-14.079-8.106-21.331-12.799c-6.826-4.692-16.639-10.239-21.332-12.798-4.692-2.56-14.078-8.106-21.33-12.8-6.827-4.692-17.066-10.238-22.186-12.371-4.692-2.134-10.239-6.4-11.945-8.533-4.693-8.106-20.478-5.12-38.823 7.253m4.693-157.852c-6.826 4.266-24.318 14.932-38.397 24.317S440.82 169.46 438.26 170.74c-2.133 1.28-32.85 21.331-68.26 44.796-34.983 23.464-65.7 43.515-68.26 44.795-2.133 1.28-15.786 9.813-29.864 19.199-14.079 9.385-27.73 17.918-29.864 19.198-8.106 3.84-106.657 69.967-113.91 76.366-7.252 5.973-7.679 22.185-7.679 233.792 0 194.968.853 227.392 5.973 227.392 3.413 0 18.772-8.532 34.13-19.198 15.785-10.666 29.437-19.198 30.717-19.198.854 0 7.253-3.84 13.652-8.106 17.919-12.8 100.684-66.554 105.377-68.26 2.133-.854 15.785-9.813 29.864-19.626 14.079-9.812 28.584-19.198 31.997-20.904 9.813-4.693 19.625-11.093 68.26-43.09 24.745-16.638 46.93-30.717 49.063-31.997 2.56-1.28 12.372-7.252 22.184-14.078 10.24-6.4 20.052-11.52 22.611-11.52 2.134 0 16.639 8.533 32.424 19.199 15.359 10.666 28.584 19.198 29.01 19.198.854 0 31.998 20.052 68.688 44.796 37.116 24.744 67.834 44.796 68.26 44.796.853 0 22.611 14.505 49.062 31.997s48.636 31.997 49.489 31.997 14.079 8.533 29.864 19.198c15.358 10.666 29.01 19.198 30.29 19.198s9.386 5.547 18.345 12.8c31.997 25.17 29.864 39.676 29.864-214.594 0-211.607-.426-228.246-7.252-234.645-8.533-7.253-52.475-37.117-55.035-37.117-.854 0-14.079-8.532-29.864-19.198-15.359-10.666-28.584-19.198-29.864-19.198-.853 0-14.079-8.533-29.864-19.198-15.359-10.666-28.584-19.199-29.437-19.199-.427 0-22.611-14.505-49.062-31.997s-48.636-31.997-49.062-31.997c-.854 0-22.612-14.505-48.636-31.997-26.45-17.491-49.489-31.997-51.195-31.997-2.133 0-5.973-2.986-8.96-6.4-6.825-8.532-28.583-7.678-44.795 1.28m177.903 174.49c84.046 51.195 158.279 96.418 164.678 100.258 6.4 4.266 14.506 8.959 17.919 10.665 22.184 10.666 21.331 4.693 21.331 166.385 0 97.27-1.706 151.026-4.266 152.732-2.56 1.707-11.52-2.986-20.478-9.812-19.198-14.932-247.87-167.238-251.284-167.238-1.28 0-9.385-5.973-18.345-12.799-8.959-7.252-17.491-12.798-19.198-12.798-1.706 0-10.239-5.973-19.198-12.8-8.96-7.252-17.492-12.798-19.198-12.798s-36.69 22.611-78.5 49.915c-41.383 27.731-76.793 51.195-79.352 52.049-2.134.853-11.093 7.252-19.625 13.652-8.533 6.826-16.639 12.372-17.919 12.372s-23.464 14.505-49.488 31.997c-26.451 17.492-48.636 31.997-49.916 31.997-1.706 0-9.812 5.973-18.771 12.799-8.96 7.253-17.492 12.799-19.625 12.799-1.707 0-6.4 2.986-10.666 6.826s-9.812 5.546-11.945 3.84c-3.413-1.707-4.693-49.063-4.693-145.48 0-116.47 1.28-145.054 6.4-154.866 5.119-10.24 22.184-22.611 73.806-53.755 3.84-2.56 18.771-11.946 32.85-21.332 29.01-19.198 40.103-26.024 49.062-30.29 3.413-1.707 17.492-11.092 31.997-20.905 14.079-9.812 28.584-18.771 31.997-20.478 3.413-1.706 11.52-6.4 17.918-10.666 25.171-16.211 72.527-46.075 80.633-50.342 5.12-2.986 11.092-7.252 13.652-9.812s7.253-4.693 10.666-4.693 75.086 41.81 159.558 92.578" style="stroke-width:.426627"/>
</svg>
