<svg xmlns="http://www.w3.org/2000/svg" width="1230" height="960">
    <path d="M1108.986-60c-2.291.017-8.247 6.709-19.22 21.428-8.742 11.776-17.305 22.836-18.91 24.442-2.856 3.211-10.884 13.382-40.145 51.384-8.385 10.705-17.486 22.482-20.34 25.872-6.959 8.385-19.983 24.978-39.608 50.848-9.1 11.776-17.306 22.122-18.376 23.193-1.249.892-7.317 8.565-13.562 16.95s-12.31 15.879-13.38 16.95c-1.071.892-8.386 10.17-16.058 20.518s-16.235 21.408-19.09 24.62c-4.281 4.995-4.996 7.316-4.996 17.129v11.24l6.96 3.212c12.31 5.531 25.154 21.41 25.154 31.044 0 7.493 4.282 5.174 22.837-12.668 10.527-10.17 21.233-20.34 23.731-22.837s24.265-23.372 48.172-46.387c23.908-23.016 49.779-47.995 57.45-55.31 15.345-14.809 16.414-16.949 19.09-43.711.714-7.85 2.32-20.162 3.39-27.299 1.07-6.958 2.855-18.734 3.925-25.87 1.07-6.959 2.676-18.912 3.39-26.227s2.321-19.448 3.57-26.763c5.71-37.11 7.135-47.458 7.135-49.6 0-1.427-.355-2.164-1.119-2.158m-987.758.24c-.922-.012-1.333.953-1.333 2.81 0 1.606 1.071 10.35 2.499 19.092 5.887 36.575 6.779 43.533 8.206 56.379.714 7.315 2.32 19.268 3.39 26.226 1.07 7.137 2.855 18.913 3.925 25.871 1.07 7.137 2.676 19.448 3.39 27.299 2.676 26.762 3.748 28.902 19.092 43.71 7.672 7.316 32.293 31.046 54.774 52.634 40.5 38.895 47.28 45.496 75.826 73.15l14.63 14.273 3.568-4.281c1.784-2.32 3.39-5.352 3.39-6.957 0-4.64 12.31-17.845 20.696-22.127 4.46-2.14 8.385-4.459 8.742-4.994s.001-6.78-.891-13.917c-1.606-12.668-2.14-13.381-18.198-34.791-8.92-11.954-17.308-22.658-18.378-23.55-1.07-1.071-7.137-8.564-13.381-16.95s-12.31-16.058-13.56-16.95c-1.07-1.071-8.207-10.168-15.88-20.517-7.671-10.348-14.806-19.626-15.876-20.518-1.25-1.07-7.317-8.563-13.562-16.949s-11.952-15.522-12.487-16.057c-.714-.536-9.101-11.242-18.914-23.731-28.547-36.932-34.613-44.603-40.144-51.204-2.855-3.39-12.132-15.702-20.696-27.12-10.772-14.363-16.473-20.798-18.828-20.83m490.421 47.342c-5.369.05-10.832.252-16.274.609-15.522 1.07-25.871 2.854-44.605 8.028-4.817 1.428-10.883 2.855-13.381 3.39-4.282.714-7.672 1.783-24.086 7.67-28.19 10.349-38.002 17.486-51.74 38.004-4.282 6.423-12.668 16.413-18.734 22.301-11.24 11.062-15.7 17.485-18.02 26.763-.714 2.854-3.034 9.813-5.175 15.166-7.315 18.912-9.099 24.086-10.705 29.439-.713 2.854-3.211 9.813-5.352 15.166-7.315 18.912-9.1 24.086-10.705 29.438-.714 2.855-3.39 9.812-5.53 15.164-3.747 8.742-4.103 12.848-4.281 38.361-.179 36.754-2.5 42.105-19.628 45.316-4.639.892-9.456 2.677-10.705 3.926-4.46 4.817-8.207 36.931-9.278 81.714-.535 24.265-.535 46.21 0 48.708 1.606 5.71 9.637 15.702 12.848 15.702 1.428 0 4.28-3.749 6.422-8.209 2.32-4.46 4.819-8.563 5.532-8.92 1.606-1.07 8.562 12.132 8.562 16.235 0 1.428 2.143 3.569 4.997 4.64 2.677 1.07 6.422 2.854 8.385 3.925 1.962 1.07 6.78 2.318 10.705 2.854 8.028 1.249 9.993 4.996 6.246 11.954-1.784 3.211-1.786 6.602-.18 15.344 1.07 6.245 3.392 17.663 4.819 25.513 2.855 14.987 6.6 29.617 10.524 40.144 1.25 3.39 3.747 11.063 5.353 16.951 1.784 5.888 4.104 13.559 5.352 16.949 1.25 3.39 3.214 9.1 4.284 12.49 1.249 3.39 2.853 8.92 3.745 12.132 1.784 6.958 8.208 14.63 12.49 14.63 1.606 0 4.462 1.25 6.424 2.676 1.784 1.428 4.638 2.677 6.244 2.677s6.6 1.605 11.06 3.567c7.85 3.568 8.208 3.746 7.316 10.347-.536 3.568-1.785 9.993-2.677 14.275-3.39 14.987-.533 19.626 28.192 47.459 24.979 24.265 26.227 25.157 33.72 25.335 4.282 0 9.1 1.25 10.705 2.677 6.066 4.995 19.27 8.563 44.605 12.132 22.302 3.211 56.2-2.32 73.327-11.955 2.141-1.249 6.959-2.14 10.705-2.14 6.245 0 8.564-1.964 34.97-27.656l28.01-27.476v-9.456c0-5.174-1.248-13.38-2.675-18.198-1.428-4.817-2.677-9.455-2.677-10.17 0-1.783 15.345-8.741 19.092-8.741 1.428 0 4.818-1.072 7.315-2.321 2.677-1.428 7.137-3.567 9.992-4.995 3.925-1.962 6.066-4.996 8.742-13.203 1.963-5.888 4.46-13.559 5.708-16.949s3.747-11.063 5.353-16.951c1.784-5.888 4.283-13.38 5.532-16.59 1.428-3.212 2.496-6.96 2.496-8.387s1.071-5.176 2.499-8.387c1.427-3.212 3.747-11.952 5.352-19.267 1.428-7.315 3.925-19.447 5.53-26.763 3.212-15.343 3.392-25.336.894-27.834-2.854-2.854-.18-7.849 5.172-8.92 2.498-.535 7.316-2.142 10.528-3.57 3.211-1.427 6.957-2.495 8.206-2.495 3.212 0 8.564-8.208 9.992-15.167 1.427-7.136 6.423-8.028 9.278-1.427 2.676 6.245 6.78 11.241 9.278 11.241 1.07 0 4.64-3.747 7.85-8.564l5.709-8.387v-29.439c0-16.236-.89-35.505-1.783-42.82-1.07-7.315-2.678-22.3-3.57-33.006-1.606-17.842-2.14-19.981-6.244-23.728-2.497-2.141-6.78-3.926-9.455-3.926-15.7 0-23.194-16.593-20.875-45.854 1.785-24.621 1.783-24.62-6.246-45.138-7.315-18.912-9.099-24.086-10.705-29.438-.713-3.034-3.211-9.814-5.352-15.167-7.315-18.912-9.1-24.086-10.705-29.438-.714-3.033-3.212-9.814-5.353-15.167s-4.638-12.488-5.53-15.7c-1.07-3.389-7.137-11.24-14.63-18.733-6.959-7.136-15.344-16.95-18.734-21.768-14.987-22.302-31.222-33.183-61.91-41.926-2.854-.713-7.671-2.32-10.704-3.39-6.066-1.962-21.054-5.71-39.253-9.813-11.24-2.409-26.495-3.614-42.603-3.463m4.313 57.821c1.089.12 1.714 3.03 1.714 8.8 0 6.601 4.106 20.698 8.21 28.905 1.427 2.498 2.495 5.53 2.495 6.6 0 5.352 19.983 34.435 32.65 47.817 16.415 16.95 40.858 34.432 54.24 38.536 1.783.535 8.921 3.035 15.701 5.533 6.959 2.498 15.344 4.639 18.734 4.639 9.1 0 13.024 3.031 6.066 4.458-9.634 2.32-24.8 6.602-31.937 9.278-40.5 15.344-76.898 48.709-93.669 86.176-8.385 18.377-12.49 31.58-12.49 39.252 0 12.49-3.032 11.954-6.957-1.249-2.14-6.958-3.748-13.382-3.748-14.453 0-2.32-3.566-10.703-11.238-27.118-6.066-12.667-17.306-28.546-28.725-40.857-7.137-7.493-31.401-26.941-36.754-29.26-1.427-.714-3.925-1.963-5.352-2.855s-5.89-3.033-9.814-4.639c-3.925-1.784-8.743-4.105-10.705-4.997-1.963-1.07-6.424-2.498-9.814-3.212-17.842-4.103-25.87-6.423-25.513-8.028.178-.892 4.64-2.141 9.814-2.677 5.352-.535 11.24-1.96 13.38-3.031 2.142-1.25 5.175-2.14 6.603-2.14 4.46 0 25.513-10.35 39.43-19.27 28.725-18.556 48.529-43.355 65.657-82.964 1.784-3.747 3.031-7.494 3.031-8.564s1.785-7.495 3.748-14.453c2.18-6.92 4.008-10.363 5.243-10.227m-457.314 151.79c-.698-.074-1.205.256-1.819.814-1.427 1.605 1.069 23.55 7.849 67.62 1.07 6.779 2.676 18.555 3.39 25.87.713 7.315 2.319 18.913 3.39 25.872.891 6.78 2.676 18.91 3.925 26.582 1.07 7.85 2.319 15.167 2.676 16.238.535 1.248 6.602 5.173 13.74 8.742 7.136 3.746 17.662 9.276 23.55 12.487 15.879 8.564 48.528 26.05 59.768 31.937 5.353 2.855 13.203 6.959 17.307 9.278 4.282 2.32 8.03 3.569 8.564 2.677 1.428-2.32 3.39-98.665 2.14-103.66-.713-2.32-6.065-8.387-12.131-13.204-6.066-4.996-12.847-10.525-15.166-12.487-2.141-2.141-7.849-6.959-12.488-10.705-4.639-3.925-14.63-12.311-22.123-18.734s-24.802-20.875-38.361-32.115c-13.56-11.24-28.724-24.267-33.72-28.905-6.501-6.01-8.955-8.14-10.49-8.306m912.884.435c-1.302.115-5.985 3.523-10.668 7.872-4.996 4.638-20.163 17.665-33.723 28.905s-30.865 25.692-38.358 32.115-17.485 14.809-22.124 18.734c-4.638 3.746-10.349 8.564-12.49 10.705-2.319 1.962-10.346 8.742-17.84 14.808l-13.561 11.418v51.562c0 45.853.359 51.741 2.857 52.812 1.605.535 4.994-.18 7.67-1.607 2.498-1.606 11.954-6.6 20.697-11.239 20.696-10.883 47.102-24.98 60.662-32.295 5.888-3.211 16.414-8.74 23.55-12.487 7.137-3.569 13.202-7.494 13.737-8.742.357-1.071 1.606-8.388 2.676-16.238 1.25-7.672 3.034-19.803 3.926-26.582 1.07-6.959 2.676-18.557 3.39-25.872.713-7.315 2.32-19.447 3.57-26.762 7.672-50.135 9.277-66.192 6.243-67.084a.5.5 0 0 0-.214-.023M190.75 421.852c-1.806-.156-3.055.335-3.769 1.495-.535.713-.178 6.245.714 11.954 1.606 10.17 3.923 27.297 9.811 71.187 3.033 23.016 8.03 55.846 8.923 59.058.356 1.07 9.1 2.852 19.983 3.923 10.526 1.249 26.94 3.035 36.218 4.105s26.94 2.676 38.894 3.568c12.132.892 22.658 1.963 23.55 2.498.714.536 11.775 1.606 24.264 2.677 12.668.892 27.655 2.318 33.365 2.854l10.169 1.249v-5.175c0-2.854-1.069-8.743-2.496-13.203s-3.747-12.488-5.353-17.84c-7.315-27.12-13.56-48.352-15.166-51.385-1.427-3.211-10.349-7.671-30.51-15.521-4.46-1.784-10.704-4.283-13.737-5.71-3.211-1.25-8.742-3.568-12.132-4.995s-8.92-3.748-11.954-5.175c-3.211-1.249-9.456-3.746-13.917-5.53-4.46-1.784-10.706-4.284-13.74-5.533-3.21-1.427-8.562-3.568-11.595-4.817-3.212-1.427-8.742-3.747-12.132-5.175-3.39-1.605-12.669-5.35-20.519-8.561-17.128-6.959-24.977-10.35-31.757-13.562-2.944-1.427-5.307-2.23-7.114-2.386m849.522.141c-2.187-.167-5.324.641-8.67 2.425-5.709 2.855-13.381 6.245-31.223 13.382-7.85 3.211-16.592 6.78-19.625 8.028-24.443 10.527-29.616 12.668-38.359 16.058-4.46 1.784-10.706 4.281-13.739 5.53-3.211 1.427-8.563 3.568-11.596 4.817-3.211 1.427-8.742 3.747-12.132 5.174-3.39 1.606-9.815 4.105-14.275 5.889-4.46 1.605-10.17 4.103-12.845 5.53-2.498 1.427-5.532 2.498-6.602 2.498s-5.173 1.961-8.92 4.46c-4.996 3.032-7.314 5.889-8.207 10.17-.535 3.212-2.142 9.455-3.57 13.915-1.249 4.46-3.567 12.49-4.994 17.843-3.568 13.024-8.386 29.437-11.24 39.072-1.428 4.46-1.964 8.566-1.072 9.458.713.714 8.923.178 18.2-1.249 9.278-1.427 21.41-2.676 26.763-2.676 5.352 0 14.628-.893 20.516-1.785 5.888-1.07 19.983-2.676 31.223-3.39 11.24-.892 28.19-2.497 37.468-3.568 9.278-1.07 25.691-2.856 36.218-4.105 10.883-1.07 19.626-2.853 19.983-3.923.892-3.212 5.887-36.042 8.92-59.058 5.888-43.89 8.208-61.017 9.814-71.187.892-5.71 1.248-11.24.713-11.954-.468-.803-1.437-1.254-2.75-1.354m-24.9 188.934c-.63-.05-1.298.226-1.967.828-.535.536-9.992 1.604-21.232 2.496s-28.012 2.5-37.29 3.57-25.69 2.855-36.574 3.926c-21.945 2.32-27.656 3.924-27.656 7.67 0 1.606-1.069 5.354-2.496 8.565s-3.927 9.457-5.533 13.917c-2.854 7.672-19.445 41.57-23.192 47.814-19.626 31.937-43.89 58.877-72.259 80.465-16.95 13.025-27.297 19.804-37.467 24.8-4.46 2.32-9.278 4.82-10.705 5.533-2.676 1.606-10.528 4.994-21.768 9.633-9.813 4.104-18.02 6.96-24.622 8.387-3.39.714-9.812 2.32-14.272 3.39-47.28 11.597-97.95 9.276-148.085-6.96-26.762-8.742-58.165-25.155-81.181-42.64-25.514-19.09-63.693-61.377-72.792-80.467-.713-1.427-2.857-5.174-4.82-8.029-4.281-6.958-12.665-24.084-17.839-36.573-2.141-5.353-4.997-12.491-6.424-15.702s-2.499-7.314-2.499-9.098-1.069-4.104-2.318-5.175c-2.676-2.14-37.29-7.493-49.421-7.493-4.996 0-16.77-1.071-26.405-2.498-9.456-1.428-24.443-2.856-33.364-3.212-15.7-.536-16.058-.535-16.593 3.747-.714 3.926 3.39 23.194 7.137 34.97 1.07 2.854 2.496 8.206 3.21 11.595 3.211 13.917 14.63 43.357 25.335 65.124 5.71 11.597 13.383 25.335 17.665 32.115 1.784 2.855 3.925 6.601 4.639 8.029 2.855 6.066 21.408 31.936 32.648 45.496 11.954 14.452 51.027 51.562 66.906 63.516 21.053 15.88 50.671 34.613 63.339 40.144 1.427.535 7.493 3.39 13.381 6.066s14.273 6.244 18.734 8.029c4.46 1.605 9.992 3.924 12.49 4.816 2.497 1.07 6.956 2.499 9.81 3.212 3.034.892 7.851 2.318 10.706 3.21 23.372 8.028 47.996 12.491 83.144 14.81 60.84 3.926 117.754-3.212 166.64-21.054 18.199-6.78 51.562-22.303 62.445-29.26 3.033-1.785 6.957-4.103 8.92-5.173 6.066-3.033 27.298-17.308 29.439-19.628.535-.535 6.067-4.994 12.49-9.81 35.683-26.942 72.794-69.226 100.27-114.366 3.747-6.244 25.514-51.027 28.547-58.7 5.531-13.916 8.208-21.587 10.705-30.33 9.635-32.114 14.273-52.99 12.846-56.736-.67-1.896-1.619-2.885-2.671-2.97" style="stroke-width:1.33812"/>
</svg>
