<svg xmlns="http://www.w3.org/2000/svg" width="1637" height="960">
    <path d="M1397.562 660.47c-5.142 14.14 1.928 21.21 11.57 11.57 5.785-5.786 5.785-9.642 0-15.427s-8.356-4.5-11.57 3.856M311.924 648.9c-14.141 8.355-31.496 17.997-38.567 21.21-25.71 12.856-37.923 26.354-31.495 32.782 5.142 5.142 9.641 3.857 15.426-3.214 4.5-5.142 12.855-9.641 19.283-9.641s14.784-4.5 19.283-9.642 10.927-9.641 14.141-9.641c10.285 0 43.066-27.64 39.852-33.424-4.5-7.07-8.356-5.785-37.923 11.57m-52.065-309.816c-1.928 9.642-1.285 23.783 2.571 31.496 5.785 12.855 6.428 12.213 10.927-10.284 5.785-30.21-6.427-48.85-13.498-21.212m21.212-68.776c-6.428 5.785-5.143 32.781 1.285 36.638 6.428 4.5 13.498-10.927 13.498-28.925 0-12.212-7.07-16.069-14.783-7.713m19.283-44.994c-6.428 6.428-5.143 34.067 1.285 34.067s13.498-15.427 13.498-29.568c0-9.641-7.713-12.212-14.783-4.499M642.95 423.287c0 23.14 8.356 30.21 15.426 12.213 7.071-17.998 3.857-34.71-5.784-34.71-6.428 0-9.642 7.07-9.642 22.497m23.14-44.351c-2.571 5.785-2.571 12.213-1.286 13.498 5.142 5.142 16.712-5.142 16.712-14.784 0-12.212-10.284-11.57-15.426 1.286m148.48-5.142c-52.065 18.64-94.488 71.99-94.488 120.198 0 22.497 19.926 68.133 36.638 85.488 26.997 28.282 47.565 35.995 91.916 35.995 50.78-.642 77.776-14.14 106.7-52.064 16.07-21.211 17.998-29.567 17.998-70.062 0-41.78-1.286-47.565-21.212-72.633-35.352-44.994-90.63-63.634-137.552-46.922m-34.71-77.775c5.785 1.285 16.07 1.285 22.497 0 5.785-1.929.643-3.214-11.57-3.214s-17.355 1.285-10.927 3.214m-291.175-410.73c0 3.214 7.07 18.64 16.07 34.067 24.425 43.708 25.067 44.993 16.712 58.492-7.071 10.927-6.428 12.212 3.856 8.998 13.498-4.499 40.495 25.711 40.495 44.351 0 5.785 4.499 11.57 9.641 13.499 19.926 7.713 10.284 32.78-20.568 55.92-17.355 12.856-41.138 33.425-52.708 45.637-13.498 13.499-28.924 23.14-37.28 23.14-19.283 0-71.99-37.923-72.633-52.064 0-5.785 12.855-23.783 28.924-40.495 16.07-17.355 28.925-33.424 28.925-36.638 0-9.641-34.067 17.998-47.565 38.566-22.497 33.425-33.424 35.996-61.063 13.499-14.141-10.285-26.996-19.283-30.21-19.283-2.571 0-9.642-4.5-16.07-10.285-6.427-5.785-14.783-8.356-18.64-5.785-4.5 2.571-1.285 9.642 9.642 19.926 8.998 8.356 17.997 15.427 19.926 15.427s13.498 7.713 25.71 16.712c23.14 17.997 28.282 37.28 12.213 43.708-5.142 1.928-9.642 8.999-9.642 16.07 0 6.427-4.499 13.497-9.641 16.068-10.927 3.857-13.498 29.568-3.214 29.568 3.857 0 9.642-7.07 12.855-15.426s9-17.355 12.213-19.926c3.857-1.929 7.07-9 7.07-15.427 0-17.355 28.925-21.211 47.566-6.428 8.356 7.07 17.354 12.213 19.283 12.213 1.928 0 9.641 5.142 16.712 10.927 14.14 12.213 16.712 27.64 6.427 37.924-3.856 3.856-13.498 19.925-21.854 35.352-17.355 32.138-41.137 40.494-61.706 21.854-6.427-5.785-15.426-8.999-18.64-6.428-10.284 5.785-8.356 14.141 4.5 18.64 24.425 9 46.279 24.426 46.279 32.14 0 5.141-4.5 18.64-9.642 30.852s-10.927 48.85-13.498 81.632c-3.214 44.351-7.07 60.42-14.784 64.277-15.426 7.713-88.702 21.854-95.13 17.998-9.641-5.143-131.125 6.427-138.838 14.14-9.641 9.642 124.055 9.642 179.333 0 48.85-8.356 73.276 2.571 73.276 33.424 0 35.996 34.71 124.055 71.99 182.547 28.925 44.994 99.63 112.485 149.765 142.695C663.52 929.147 768.932 960 840.28 960c40.495 0 139.481-18.64 172.263-32.138 66.848-27.64 113.127-57.85 160.05-102.844 31.495-30.21 48.85-39.851 48.85-25.71 0 3.213 3.857 6.427 8.999 6.427s10.284 4.5 12.855 9.642c1.928 5.142 7.713 9.641 12.855 9.641 5.785 0 14.784 7.07 20.57 16.07 10.283 16.069 10.283 17.354-7.714 37.28-10.284 10.927-20.569 21.212-23.783 22.497-2.57 1.286-4.499 7.07-4.499 12.856 0 7.07 10.284 0 30.853-19.926 32.138-32.139 42.423-35.995 48.85-20.569 1.929 5.142 7.071 9.642 11.57 9.642 5.143 0 17.998 8.356 29.568 19.283 11.57 10.284 23.782 19.283 26.996 19.283 2.571 0 6.428 4.5 8.999 9.642 4.5 12.212 29.567 12.855 29.567.642 0-5.142-5.785-11.57-12.855-13.498s-12.855-7.07-12.855-10.284-4.5-5.785-9.642-5.785c-4.5 0-11.57-3.857-14.14-8.356-2.572-4.5-17.356-17.355-32.14-29.568-28.924-21.854-34.709-35.352-17.997-41.78 5.142-1.928 9.642-7.713 9.642-12.855 0-4.5 4.499-10.284 9.641-12.855 5.142-1.929 9.642-9 9.642-16.07 0-6.427 4.5-13.498 9.641-16.069 5.142-1.928 9.642-10.284 9.642-19.283 0-8.356 4.5-16.712 9.641-19.283 11.57-4.5 13.498-38.566 1.928-34.71-4.499 1.929-9.64 9.642-10.284 18.64-1.285 8.357-6.427 17.998-11.57 20.57-5.142 2.57-8.998 12.212-8.998 19.925 0 8.356-4.5 16.712-9.642 19.283-5.142 1.928-9.641 8.999-9.641 16.07 0 6.427-4.5 13.498-9.642 16.069-5.142 1.928-9.642 7.713-9.642 13.498 0 16.712-29.567 10.927-52.707-9.642-11.57-10.927-24.425-19.283-28.924-19.283-14.141 0-9.642-17.355 16.069-59.135 36.638-61.706 65.562-140.123 65.562-179.332 0-12.856 1.929-41.138 4.5-63.635 3.214-34.066 7.07-43.065 25.71-61.063 22.498-21.854 22.498-21.854 84.846-21.854 64.92 0 84.203-3.857 84.203-14.784 0-7.713-143.338-3.856-161.335 3.857-13.498 5.785-57.207-35.995-57.207-53.993 0-14.783-41.78-106.7-51.421-112.484-10.927-6.428-7.07-33.425 5.142-37.924 31.496-11.57 64.92-38.566 57.85-46.28-5.143-4.499-36.639 10.285-61.707 28.283-23.14 17.354-18.64 19.283-71.347-30.853C1086.462 51.123 966.263 2.273 844.137 2.273c-66.848 0-154.908 19.926-206.972 46.28-21.854 10.926-22.497 10.926-37.28-2.572-8.357-7.713-14.784-17.355-14.784-21.854 0-3.857-4.5-10.927-9.642-15.426s-9.641-13.499-9.641-20.57-7.714-23.782-17.355-36.637c-23.783-30.853-33.424-46.28-37.924-60.42-3.856-10.927-21.854-15.427-21.854-5.785M902.63 89.047c46.28 4.5 64.92 10.927 128.554 43.065 54.635 27.64 86.774 53.35 120.198 97.701 34.71 45.637 70.062 109.914 70.062 127.269 0 7.07 3.214 17.997 7.07 25.068 5.785 11.57 5.143 12.855-8.356 10.927-10.927-1.286-16.069-7.07-17.997-21.211-8.356-45.637-55.278-118.27-109.271-169.049-28.925-27.639-41.137-35.995-83.56-55.92-21.212-10.285-32.139-14.142-89.988-28.926-35.352-9.641-147.194-7.07-176.762 3.214-14.14 5.142-30.21 9.642-35.995 9.642s-14.14 4.5-18.64 9.641c-8.999 10.928-38.566 13.499-38.566 3.214 0-7.713 28.282-26.353 57.849-37.923 24.425-9.642 125.983-25.711 141.41-23.14 5.142 1.286 29.567 3.857 53.992 6.428m-260.322 68.776c-.643 11.57-82.917 82.918-89.988 78.418-3.213-1.928-5.785-7.07-5.785-12.212 0-10.928 38.567-54.636 48.851-54.636 3.857 0 10.927-4.5 15.426-9.641 9.642-11.57 32.139-12.856 31.496-1.929m-95.773 95.13c0 3.857-10.284 23.14-22.496 42.423-19.284 30.21-24.426 34.71-32.782 27.64-10.927-9-9.641-14.142 13.498-50.137 10.285-16.712 21.212-26.354 28.925-26.354 7.07 0 12.855 3.214 12.855 6.428m356.095 16.07c42.423 1.928 43.708 1.928 39.209 9.641-1.928 3.214-14.14 6.428-26.354 6.428-26.353 0-28.924 10.927-3.856 16.069 9.641 2.571 21.854 6.428 26.996 10.284 5.142 3.214 15.427 8.356 22.497 11.57 17.355 7.713 61.706 56.564 77.133 84.203 16.712 30.853 17.997 137.553 1.285 162.62-5.785 9.642-10.927 21.212-10.927 26.997s-4.5 11.57-9.642 13.498c-5.142 2.571-9.641 6.428-9.641 10.285 0 3.213-8.999 14.14-20.569 24.425-10.927 10.284-18.64 20.568-16.07 23.14 5.786 5.785 73.277-62.35 75.848-76.49 1.285-6.428 5.785-12.213 8.999-12.856 10.284-1.928 11.57 26.354 1.928 37.924-28.282 34.71-65.563 73.276-71.348 73.276-3.856 0-11.57 3.856-16.712 8.356-28.281 23.782-160.05 41.137-186.403 24.425-15.426-10.284 4.5-14.784 67.491-16.07 32.781-.642 62.349-3.213 64.92-5.784 1.928-2.571 1.285-4.5-1.929-4.5-3.213-.642-35.995-1.928-73.275-3.856-37.281-1.286-68.134-5.785-69.42-8.999-1.285-3.214-12.212-10.927-24.425-16.712-37.28-17.355-77.132-68.134-91.916-116.341-7.713-23.14-13.498-54.636-13.498-70.062q0-26.997-9.642-30.853c-5.784-1.929-9.641-11.57-9.641-21.854s4.5-22.497 9.641-26.997c5.143-4.5 9.642-12.855 9.642-19.283 0-14.784 80.989-96.415 95.773-96.415 5.785 0 14.783-3.857 18.64-7.714 8.999-8.998 73.276-17.354 97.058-12.855 8.356 1.928 30.21 3.857 48.208 4.5m70.705 19.925c5.785 1.929 10.284 6.428 10.284 10.285 0 8.998-27.64 3.213-30.853-6.428-2.57-8.356 4.5-9.642 20.569-3.857m41.78 31.496c8.356 8.999 13.498 17.998 11.57 20.569-4.5 3.856-36.638-23.783-36.638-32.139 0-8.999 9.641-4.5 25.068 11.57m-528.357 46.28c-11.57 75.203-21.854 120.84-26.996 119.555-11.57-3.214-10.927-73.919.642-109.914 14.141-40.495 31.496-46.922 26.354-9.642m753.969 120.84c0 39.852-3.214 69.42-9.641 84.846-5.143 12.212-9.642 27.639-10.285 33.424 0 5.785-7.07 23.14-15.426 39.209s-17.998 34.71-21.212 41.78-12.212 17.997-19.926 25.068c-23.14 20.569-23.782-3.857-1.285-35.352 10.927-14.784 19.926-31.496 19.926-37.924 0-5.785 3.214-13.498 7.07-17.355 3.857-3.856 9.642-18.64 12.856-32.138 2.57-13.498 7.713-35.995 11.57-50.136 3.856-14.141 7.07-44.994 7.07-69.42 0-34.066 1.928-43.065 9.642-43.065s9.641 10.927 9.641 61.063M482.9 564.697c15.427 62.348 27.64 89.345 64.92 140.123 28.282 38.567 86.131 90.631 114.413 102.844l19.283 9.641c25.068 14.784 56.564 26.354 77.133 28.925 12.212 1.928 39.209 7.07 59.134 11.57 32.139 7.07 41.138 7.07 71.348-2.571 19.283-5.785 41.78-10.927 51.421-10.927 9 0 24.426-4.5 34.71-9 9.642-5.142 22.497-11.57 27.64-13.497 21.853-8.357 96.415-60.42 96.415-67.491s37.923-25.711 41.137-19.926c4.5 7.07-49.493 62.991-69.42 71.99-21.21 9.642-43.065 23.14-50.778 30.853-3.857 3.857-12.855 7.07-20.569 7.07s-16.712 3.214-21.211 7.714c-3.857 3.856-21.212 9.641-37.924 12.212-17.354 2.571-48.207 7.714-69.419 10.927-28.924 4.5-46.922 3.857-72.633-2.57-18.64-5.143-42.422-9-52.707-9-9.641 0-26.353-3.856-36.638-8.998-9.641-5.142-29.567-14.784-43.708-21.212-54.636-25.068-133.696-95.772-160.693-143.337-44.35-79.061-69.419-177.405-43.708-172.263 7.07 1.286 14.141 16.07 21.854 46.923m156.193 12.212c-3.213 8.356-5.785 8.999-8.998 3.214-7.07-10.284 0-27.64 7.713-19.926 3.214 3.214 3.856 10.927 1.285 16.712m132.411 122.77c0 10.284-22.497 13.497-28.282 3.856-5.142-7.713 2.571-13.498 16.712-13.498 6.428 0 11.57 4.5 11.57 9.641" style="stroke-width:.64277"/>
</svg>
