<svg xmlns="http://www.w3.org/2000/svg" width="1315" height="960">
    <path d="M634.936-14.047c-16.146 96.875-60.857 137.86-105.568 96.875-22.356-19.872-24.84-18.63-42.227 22.355-9.936 23.598-28.566 47.195-42.228 50.921-28.565 9.936-78.244-7.452-100.6-34.775-18.63-22.356-75.76-27.324-75.76-6.21 0 7.452 17.387 36.017 38.5 62.099 47.196 59.615 44.712 99.358-7.451 115.504-50.921 17.388-49.68 16.146-31.05 52.163 14.904 27.324 14.904 36.017-1.242 64.583-14.903 28.565-27.323 33.533-83.212 37.26-40.985 2.483-64.583 9.935-64.583 18.629 0 22.356 65.825 58.373 104.326 58.373 48.437 0 65.825 45.953 38.501 99.358-19.871 37.26-19.871 39.744 0 33.534 27.324-11.178 80.73 26.081 80.73 55.889 0 22.355-45.954 99.358-64.584 106.81-14.904 6.21-12.42 37.26 2.484 45.953 7.452 4.968 44.711-12.42 81.97-38.501l69.552-47.195 23.597 29.807c12.42 17.388 21.114 40.985 18.63 53.405-4.968 17.388-1.242 21.114 14.904 13.662 11.177-4.968 40.985-11.178 65.824-14.904 43.47-4.968 44.712-3.726 60.857 55.89 7.452 32.29 17.388 69.55 21.114 80.728 8.694 34.775 39.743 26.081 47.195-12.42 22.356-109.294 31.05-126.682 63.341-126.682 16.146 0 33.534 8.694 37.26 18.63 12.42 29.807 42.227 22.356 42.227-9.936 0-29.807 33.533-70.793 58.373-70.793 21.113 0 90.664 38.502 90.664 50.921s40.986 16.146 53.405 3.726c8.694-9.936-17.387-69.55-38.501-85.696-9.936-7.452-14.904-29.808-12.42-49.68 2.484-28.565 11.178-38.5 34.776-40.985 60.856-7.452 67.066-13.661 44.71-37.259-22.355-26.082-24.839-55.889-7.451-90.664 9.936-17.388 26.081-23.598 60.857-23.598 31.05 0 54.647-8.694 68.309-23.598 31.05-34.775 14.903-50.92-48.438-50.92-44.71 0-59.615-6.21-75.76-31.05-17.388-27.324-17.388-33.534 0-69.551 24.84-50.921 26.081-48.437-14.904-48.437-65.825 0-84.454-52.163-39.743-108.052 47.195-59.615 16.145-108.052-37.26-59.615-12.42 11.177-37.259 21.113-57.13 22.355-27.324 2.484-38.502-4.968-52.164-32.291-16.145-34.776-49.679-43.47-72.035-21.114-32.291 32.292-80.728-24.84-96.874-115.504C680.89-41.37 669.711-60 659.776-60c-11.178 0-19.872 18.63-24.84 45.953M767.828 172.25c29.807 11.178 58.373 24.84 64.583 29.807 12.42 11.178-24.84 60.857-44.712 60.857-6.21 0-27.323 12.42-45.953 26.082-45.953 33.533-63.34 22.356-63.34-38.501 0-26.082-6.21-52.163-12.42-55.89-17.388-11.177-62.1 89.423-62.1 139.102 0 57.131-22.355 52.163-93.148-22.355-62.099-64.583-65.825-88.18-17.388-111.778 110.537-53.406 187.54-62.1 274.478-27.324m185.055 167.667c37.259 72.035 36.017 208.653 0 281.93-14.904 28.565-28.566 50.92-31.05 50.92-13.662 0-95.632-152.763-86.938-161.457 6.21-6.21 29.807-12.42 53.405-14.904 43.469-3.726 67.067-31.049 36.017-39.743-119.23-33.533-158.973-48.437-157.731-60.857 0-19.872 111.778-105.568 137.86-106.81 13.661-1.242 32.29 18.63 48.437 50.921m-516.664 6.21c12.42 26.082 31.05 57.131 40.986 68.309 24.84 29.807 6.21 49.679-44.711 44.711-24.84-1.242-45.954 2.484-48.438 9.936-7.452 22.356 32.292 54.647 64.583 54.647 40.986 0 88.18 19.872 95.633 39.743 8.693 22.356-106.81 124.198-131.65 114.262-37.26-14.903-73.277-114.262-72.035-202.442 1.242-83.213 31.05-175.12 57.131-175.12 7.452 0 24.84 21.114 38.501 45.954m258.332 95.632c29.808 23.598 27.324 74.52-6.21 96.875-24.84 17.387-31.05 17.387-55.889 1.242-38.501-24.84-38.501-81.97 0-100.6 34.775-17.388 36.017-17.388 62.099 2.483m119.23 218.589c28.565 33.533 50.921 64.583 50.921 70.792 0 13.662-57.13 39.744-135.376 60.857-55.889 14.904-80.728 14.904-136.617 3.726-120.472-26.081-134.134-63.34-40.986-108.052 81.971-38.501 89.423-37.26 89.423 27.324 0 31.05 4.968 58.373 11.178 62.099 13.662 8.693 63.34-104.327 63.34-145.312 0-63.34 27.324-54.647 98.117 28.566" style="stroke-width:1.24198"/>
</svg>
