<svg xmlns="http://www.w3.org/2000/svg" width="1340" height="960">
    <path d="M997.57 446.282c-13.605 10.648-28.394 23.07-33.126 27.803-17.747 17.746-83.409 70.985-170.367 138.422-30.76 24.254-64.478 52.648-74.535 63.296-20.112 22.479-33.718 59.746-30.76 84.591l1.774 16.564 29.578-23.07c29.577-23.663 73.352-43.184 94.648-43.184 13.014 0 65.662-15.972 79.859-24.253 4.732-2.958 14.197-7.69 21.296-10.648 17.155-7.69 56.197-53.831 70.986-84.592 23.07-47.324 31.943-70.394 31.943-81.042 0-5.915 4.141-20.704 8.873-31.944 10.648-26.028 11.24-51.464 1.775-50.873-4.14 0-18.338 8.873-31.944 18.93m-706.31-4.733c0 8.282 4.141 24.845 8.874 36.676 4.732 11.24 8.873 26.029 8.873 31.944 0 10.648 8.873 33.718 31.944 81.042 14.788 30.76 53.83 76.902 70.986 84.592 7.098 2.958 16.563 7.69 21.295 10.648 14.198 8.281 66.845 24.253 79.86 24.253 21.295 0 65.07 19.521 94.647 43.183l29.578 23.07 1.775-16.563c2.957-24.845-10.648-62.112-30.761-84.591-10.056-10.648-43.775-39.042-74.535-63.296-87.55-68.028-152.62-120.676-170.958-139.014-18.338-17.747-58.563-46.732-65.07-46.732-3.55 0-6.507 6.507-6.507 14.788m637.69-177.464c-4.14 7.69-31.351 49.098-60.929 91.69-28.986 42.591-57.38 84-62.113 91.69s-24.845 36.676-44.366 65.07c-69.803 99.972-80.45 120.085-78.676 146.705 1.775 23.661 16.564 39.633 16.564 17.746 0-13.014-2.367-10.648 147.887-134.873 69.803-57.972 94.056-89.916 108.253-142.564 11.831-41.408 12.423-72.76 3.55-114.169-7.099-33.718-18.93-42-30.17-21.295m-547.182-10.057c-8.874 5.916-18.93 49.69-19.522 83.409 0 37.859 16.564 94.056 37.86 125.408 10.056 15.38 46.14 50.873 80.45 79.268C630.81 666.338 628.444 663.972 628.444 676.986c0 21.887 14.788 5.915 16.563-17.746 1.775-26.62-8.873-46.733-78.676-146.705-19.521-28.394-39.634-57.38-44.366-65.07-4.733-7.69-32.535-49.099-62.113-91.69-28.986-42.592-56.197-82.817-59.746-89.324-8.874-15.972-10.648-17.155-18.338-12.423M959.71 68.873c4.141 4.733 5.916 12.423 3.55 17.747-3.55 10.056-46.733 6.507-79.86-6.507-23.07-9.465-63.295-10.648-68.62-2.367-1.774 2.958 4.142 7.1 13.015 8.874 17.746 3.549 43.774 14.788 81.634 34.31 13.014 7.098 29.577 15.38 36.676 18.93 21.887 10.055 16.563 20.703-10.057 20.703-24.253 0-32.535 9.465-13.014 15.38 47.324 14.198 132.507 72.761 173.916 120.085 49.69 57.38 66.253 102.93 66.253 183.972s-16.563 126.592-66.253 183.972c-41.409 47.324-126.592 105.887-173.916 120.084-19.52 5.916-11.24 15.38 13.014 15.38 26.62 0 31.944 10.648 10.057 20.705-7.099 3.55-23.662 11.83-36.676 18.93-37.86 19.52-63.888 30.76-81.634 34.31-8.873 1.774-14.789 5.915-13.014 8.872 5.324 8.282 45.549 7.1 68.62-2.366 33.126-13.014 76.31-16.563 79.858-6.507 2.367 5.324.592 13.014-3.549 17.747-4.14 4.732-5.324 8.873-2.366 8.873 11.24 0 42.592-23.662 81.634-61.521 28.394-27.211 43.775-38.45 50.873-36.085 7.099 2.366 13.606-2.366 21.296-13.014 38.45-56.788 81.042-150.845 88.14-192.845 2.367-13.605 6.508-21.887 11.832-21.887 7.69 0 8.873-15.972 8.873-94.648s-1.183-94.648-8.873-94.648c-5.324 0-9.465-8.282-11.831-22.479-5.324-32.535-42-117.127-70.986-165.634-20.704-34.901-28.986-42.591-38.45-39.633-7.1 2.366-22.48-8.874-50.874-36.085C999.937 83.662 968.584 60 957.345 60c-2.958 0-1.775 4.14 2.366 8.873M347.458 71.24c-9.465 5.916-36.085 28.986-58.564 50.282-28.394 27.211-43.774 38.45-50.873 36.085-7.099-2.367-13.606 2.366-21.296 13.014-38.45 56.788-76.901 141.972-90.507 198.76-8.281 36.085-8.281 185.155 0 221.24 10.648 45.549 44.366 124.817 73.352 172.14 20.705 34.902 28.986 42.592 38.451 39.634 7.099-2.366 22.479 8.874 50.873 36.085C327.937 876.338 359.29 900 370.528 900c2.958 0 1.775-4.14-2.366-8.873-4.14-4.733-5.916-12.423-3.55-17.747 3.55-10.056 46.733-6.507 79.86 6.507 23.07 9.465 63.296 10.648 68.62 2.367 1.774-2.958-4.141-7.1-13.015-8.874-17.746-3.549-43.774-14.788-81.633-34.31-13.014-7.098-29.578-15.38-36.676-18.93-21.888-10.055-16.564-20.703 10.056-20.703 24.253 0 32.535-9.465 13.606-15.38-47.916-14.198-133.099-72.761-174.508-120.085-49.69-57.38-66.253-102.93-66.253-183.972s16.563-126.592 66.253-183.972c41.409-47.324 126.592-105.887 174.508-120.084 18.93-5.916 10.647-15.38-13.606-15.38-26.62 0-31.944-10.649-10.056-20.705 7.098-3.55 23.662-11.83 36.676-18.93 37.859-19.52 63.887-30.76 81.633-34.31 8.874-1.774 14.79-5.915 13.015-8.873-5.324-8.281-45.55-7.098-68.62 2.367-33.127 13.014-76.31 16.563-79.86 6.507-2.366-5.324-.59-13.014 3.55-17.747 10.056-12.422.591-11.24-20.704 2.366" style="stroke-width:.591549"/>
</svg>
