<svg xmlns="http://www.w3.org/2000/svg" width="1548" height="960">
    <path d="M1343.6 112.334c3.148-7.155 9.894-14.72 9.076-21.302-2.78-10.957-4.375-23.59-4.375-36.552 0-8.177.654-16.231 1.84-24.122l-.123.858 49.881 54.01-2.208-1.635c31.483 54.95 31.196 115.298 30.215 176.136-.654 50.413-20.81 95.96-53.233 129.609l.04-.041c-21.587 23.632-45.464 45.22-67.175 68.688-49.186 52.62-42.44 95.51 20.32 132.715 11.694 6.87 24.328 12.225 40.11 20.075 25.84 92.32 19.91 186.195 1.921 278.229-38.187 35.448-82.18 29.805-126.133 31.196-1.349.204-2.862.286-4.456.286-17.622 0-32.177-13.37-34.017-30.501v-.164c-3.557-18.562 10.589-28.456 26.535-34.753 11.734-3.189 22.037-7.604 31.482-13.247l-.573.327c23.918-18.398 45.22-38.882 41.213-73.921s-30.215-48.9-54.95-64.314c-4.048-1.717-8.75-2.78-13.656-3.025h-.082c-58.753-10.671-110.637-34.426-154.426-68.198l.818.613c-20.075 18.276-15.25 35.326-7.278 51.926 19.094 39.7 16.068 74.902-19.38 104.3-1.88 1.308-3.434 3.025-4.497 4.987l-.041.082c-40.396 93.302-114.849 66.93-190.733 56.627 18.685-24.858 44.647-43.38 74.658-52.497l1.022-.287c12.225-3.557 22.691-7.768 32.627-12.838l-1.022.491c31.032-17.172 39.7-41.213 23.754-73.513-11.284-22.12-26.126-42.317-42.726-68.688-34.63 6.051-70.2 10.426-104.422 19.789-11.325 6.5-18.971 18.317-19.503 31.932v.081c14.556 78.338-24.163 135.741-70.364 191.142-5.56 6.664-10.549 14.146-14.678 22.119l-.327.695c-25.268 48.49-54.95 86.433-118.978 84.92-22.814 0-46.16 16.763-68.688 25.431l-73.636-53.029c5.765-11.816 11.407-26.126 19.217-39.291 15.373-25.84 37.247-34.917 68.688-32.995 71.591 4.13 113.213-36.838 118.855-108.143 3.026-38.188-21.179-57.69-48.082-80.668-17.99 50.576-65.826 49.758-104.545 63.904-10.058 1.513-21.833 2.535-33.812 2.74h-.246c-31.605 6.46-39.291 20.075-39.577 57.28-2.045 19.626-5.56 37.452-10.549 54.665l.532-2.167c-45.465-25.144-47.387-33.117-35.734-132.879 34.057-32.708 87.945-46.446 108.96-95.1-13.737-41.213-45.874-40.518-73.921-30.787-44.934 15.659-87.537 37.778-130.794 57.853-24.164 11.121-47.837 23.755-71.182 35.326-34.058-50.004-34.058-50.004-1.922-82.426 27.639-10.63 48.204-33.936 54.828-62.597l.123-.613c-68.689 16.355-68.689 17.581-53.316 64.845h-48.899l-25.963 51.394c-56.054-53.03-60.715-68.689-36.143-132.062 34.63-88.763 82.426-167.754 170.78-213.383 8.423-5.887 15.783-12.388 22.283-19.666l.123-.123c-.736-5.356-1.145-11.53-1.145-17.826 0-33.813 11.939-64.804 31.85-89.05l-.204.246c9.322-14.474 15.618-31.768 17.54-50.33l.04-.491C386.912 83.305 432.5 22.426 490.762-31.707c11.407-11.898 25.104-21.465 40.436-28.007l.818-.286c-17.376 28.17-35.244 61.86-51.148 96.654l-2.453 6.01c-11.121 31.442-22.61 72.123-31.932 113.622l-1.472 7.81c43.42 0 65.008-21.016 86.146-44.525C597.8 45.77 688.363 9.669 776.431-32.525L652.75 99.537c80.095 35.856 96.164 34.058 152.668-22.937 41.131-39.496 92.034-69.138 148.66-85.002l2.495-.572C916.71 46.549 848.717 76.068 825.78 148.354l27.475 29.97c12.798-7.115 28.416-14.515 44.484-20.934l2.903-1.022c4.416-1.513 12.225 7.4 18.562 11.407l-14.433 13.738-10.998 4.252 6.174 4.824 3.025-10.712 13.738-13.737c39.455-30.092 79.4-58.958 141.383-65.418-41.213 44.934-91.788 73.227-113.621 130.14l28.702 5.928-1.513-2.044 16.886 28.702c33.935-24.613 56.054-67.053 108.143-67.339l-48.777 60.061 92.075 34.058c9.444-5.806 20.81-11.857 32.504-17.254l2.126-.858c10.794-3.762 24.94-7.769 39.332-10.998l2.862-.532-33.526 46.733c4.416 4.252 6.991 8.79 10.017 9.076 12.92 1.513 27.884 2.372 43.053 2.372 1.594 0 3.148 0 4.743-.041h-.246c93.588-3.026 178.63-99.19 103.728-206.924z" style="stroke-width:40.8859"/>
</svg>
