<svg xmlns="http://www.w3.org/2000/svg" width="1077" height="960">
    <path d="M793.847-29.996c-14.95-.055-29.451.49-37.756 1.712-6.141.93-16.936 2.604-24.194 3.72-14.143 2.048-45.966 11.911-52.48 16.005-2.232 1.49-8.002 6.701-13.027 11.54-5.397 5.397-15.632 12.096-25.309 16.934-29.59 14.702-42.432 32.197-42.99 58.25-.186 12.283.373 15.075 4.839 21.589 3.722 5.583 7.26 8.371 13.587 10.419 7.816 2.791 8.56 2.791 9.677 0 .745-1.675-.187-3.907-1.862-5.21-4.28-3.164-5.583-10.607-2.606-14.702 5.583-7.444 33.312-3.348 46.152 6.701 10.422 8.375 12.656 27.915 5.398 46.152-5.583 14.33-17.493 29.59-25.868 32.94-7.63 3.163-49.316 23.82-55.085 27.17-35.36 21.402-68.857 50.433-101.797 88.77-15.818 18.237-32.566 40.755-37.404 50.246-.745 1.489-2.98 5.21-5.027 8.374-2.047 2.978-4.839 8.003-6.327 11.166-1.49 2.978-5.397 9.677-8.375 14.888-3.164 5.024-6.512 10.98-7.442 13.027s-4.467 10.049-8.19 17.679c-5.582 12.283-8.56 19.168-16.563 39.08-.93 2.42-3.536 9.493-5.583 15.82-2.047 6.141-5.77 15.447-8.189 20.844s-5.397 11.538-6.327 13.957c-1.117 2.42-4.839 9.305-8.375 15.446s-7.257 13.212-8.374 15.631-10.606 17.494-21.4 33.498c-18.796 28.101-20.098 29.778-44.664 50.435-14.143 11.725-26.426 22.331-27.73 23.262-1.116 1.116-6.7 5.584-12.283 10.236s-10.607 8.746-11.166 9.304c-.558.559-10.979 9.119-23.261 18.982s-27.357 21.96-33.498 26.985c-6.142 5.025-16.562 12.84-23.262 17.679-16.19 11.538-21.776 17.681-18.984 20.473 2.978 2.977 23.078 2.603 36.663-.933 6.141-1.489 17.864-4.093 26.053-5.954 15.074-2.977 20.472-4.466 49.876-13.213 13.213-3.908 16.934-4.282 19.167-2.42 1.489 1.302 2.42 3.35 1.862 4.653-.372 1.116-12.097 17.121-25.682 35.545-23.077 30.893-37.033 50.433-41.5 57.877-1.116 1.675-7.817 11.91-14.89 22.703-7.257 10.794-13.398 20.286-13.957 21.402-3.35 6.514-10.542 13.876-14.887 21.403-20.042 34.721-47.362 73.113-50.934 109.544 16.485 3.434 100.205-16.524 144.916-38.454 24.85-12.189 49.502-36.476 66.251-50.062 19.54-16.004 49.128-40.57 50.059-41.501.558-.558 9.679-8.561 20.473-18.052 10.793-9.305 38.336-35.544 61.413-58.248 35.73-35.359 43.545-42.244 53.594-46.897 12.283-5.583 18.054-5.583 19.729 0 .93 3.164 5.396 51.923 7.815 86.351l1.303 18.238h-6.7c-7.072 0-16.564-3.91-28.474-11.54-9.491-6.141-18.61-8-25.868-5.21-7.072 2.606-19.54 14.703-19.54 18.797 0 1.675-1.302 6.14-2.977 10.048-3.35 8.003-2.232 15.445 3.165 21.215 5.955 6.327 9.49 5.212 8-2.604-1.302-7.258 2.792-13.957 8.375-13.957 1.675 0 5.026-2.234 7.445-4.84 2.606-2.605 5.954-4.28 7.442-3.908 35.36 10.793 48.572 12.841 89.328 13.772 34.8.93 47.83-.558 67.184-7.816 15.446-5.769 25.123-4.84 32.195 3.348 2.791 3.35 3.348 5.769 2.418 13.213-.558 5.025-1.86 10.05-2.977 11.166-2.047 2.047-2.606 10.422-.559 10.422 2.978 0 9.863-8.375 9.863-11.91 0-2.234 2.048-7.816 4.654-12.655 4.28-7.816 4.466-9.676 2.791-17.678-2.233-9.678-12.469-22.52-22.332-27.545-9.677-5.024-23.635-2.79-40.943 6.516-21.587 11.724-32.008 13.4-42.058 6.886-8.932-5.583-12.283-9.307-17.307-19.17-4.095-7.816-5.768-20.656-9.49-74.997-2.42-33.126-2.792-31.825 14.887-39.269 14.144-5.769 29.776-12.84 35.73-16.005 10.05-5.396 11.167-4.092 9.678 10.796-1.302 12.468-1.117 13.213 2.233 11.725 1.861-.745 6.327-1.863 9.863-2.421 6.327-.93 6.33-.93 5.027 5.397-2.606 12.283-3.538 25.868-1.677 25.868.93 0 5.398-1.676 9.678-3.91 5.21-2.418 8.746-3.163 9.863-2.046s2.979 8.002 4.468 15.26c1.302 7.444 2.975 13.958 3.347 14.516.559.373 5.583-4.28 11.166-10.421 13.4-14.33 17.68-15.633 22.891-6.886 2.42 3.908 14.144 27.916 18.052 37.221 1.303 2.978 7.259 15.26 13.028 27.171s10.422 23.447 10.422 25.494c0 10.05-9.306 22.334-30.521 40.758-5.77 5.024-6.142 11.164-1.303 20.655 1.86 3.722 4.094 9.863 4.838 13.399 1.675 8.188 16.191 23.634 24.38 25.867 7.258 2.047 15.631.559 15.631-2.791 0-1.303-2.42-3.72-5.583-5.395-6.886-3.536-10.05-9.121-7.63-13.401 1.116-2.047.746-5.025-1.3-9.12-2.606-5.582-2.607-6.884.185-14.142 4.28-11.166 15.447-25.122 25.682-32.38 9.491-6.7 26.983-16.377 32.566-18.052 1.86-.558 8.001-2.606 13.398-4.839 7.444-2.791 16.751-4.094 36.478-5.024l26.426-1.303 5.024 5.954c9.305 11.166 8.747 23.076-1.303 27.915-4.652 2.233-5.026 2.792-2.42 5.212 6.513 6.513 23.077-2.42 28.473-15.446 1.49-3.35 3.352-6.515 4.468-7.26.93-.558 1.86-3.72 1.86-6.698 0-4.28-2.418-8.004-11.537-16.937-11.166-10.793-18.796-15.63-21.773-13.769-2.606 1.675-30.336 4.466-33.127 3.536-4.28-1.675 2.233-7.446 12.469-10.796 7.63-2.605 10.608-2.605 21.402-.744 14.33 2.792 21.4 7.258 21.4 13.958 0 4.466 2.606 5.956 4.653 2.606 4.653-7.444-2.792-32.941-10.422-36.663-1.86-.744-5.396-5.208-7.815-9.675-2.978-5.955-6.7-9.68-12.655-12.657-10.235-5.21-15.26-5.21-25.867 0-6.514 3.164-9.492 6.141-13.028 13.213-3.35 6.7-8.376 12.098-18.611 19.914-15.446 11.724-26.797 16.564-38.708 16.564-10.98 0-14.143-2.234-18.981-12.47-2.233-5.024-6.516-13.957-9.307-20.099-5.955-12.654-10.607-23.076-17.679-39.08-7.63-17.494-10.05-22.891-13.027-29.218-11.725-24.938-22.703-53.038-21.4-55.271.744-1.49 8.931-6.513 17.864-11.352 22.518-11.724 34.058-18.24 40.757-22.52 3.164-1.86 6.886-4.094 8.375-4.839 8.188-3.908 40.94-27.728 60.48-44.105 32.196-26.984 69.043-68.67 85.792-96.958 8.561-14.702 9.492-16.376 13.772-25.123 2.234-4.653 4.838-9.862 5.769-11.537 4.652-8.747 12.656-37.593 17.866-64.763 4.653-24.007 4.468-110.73-.185-144.228-6.886-50.06-13.4-88.397-17.122-102.727-1.49-5.21-2.606-11.538-2.606-13.957 0-2.233-2.606-11.725-5.583-20.844-3.164-9.118-5.583-20.47-5.583-25.123 0-8.374-4.279-26.24-10.234-43.36C908.693 9.68 898.83-2.602 889.339-8.37c-10.422-6.514-33.313-15.262-47.83-18.611-8.478-1.885-28.44-2.945-47.662-3.015m-.793 43.328c16.214.07 32.358.536 37.475 1.374 20.471 2.977 40.386 10.048 50.435 17.678 8.933 6.886 19.353 17.867 19.353 20.658 0 1.117 1.302 3.163 2.791 4.466 1.489 1.302 2.792 4.652 2.792 7.63 0 2.791.931 5.769 1.862 6.327 1.116.558 1.86 2.976 1.673 5.21 0 3.908-.185 3.91-2.232-.556-1.117-2.606-3.163-5.398-4.466-6.142-1.302-.745-2.42-2.791-2.42-4.28 0-4.653-15.26-23.264-23.262-28.289-18.238-11.91-44.293-17.12-84.862-17.12-36.662 0-53.596 5.21-70.717 21.774q-8.654 8.374-10.049 6.142c-.744-1.117 0-3.538 1.489-5.213 1.303-1.675 3.163-4.467 3.72-6.141 2.606-7.817 24.752-20.657 38.523-22.518 5.397-.744 21.681-1.07 37.895-1M661.813 20.34c1.313-.074 2.646 1.017 3.274 3.11.558 1.862 1.861 4.654 2.791 6.143.931 1.489 2.608 5.024 3.724 7.815 1.117 2.978 2.79 5.213 3.721 5.213.93 0 1.674 1.302 1.674 2.977s7.26 10.234 16.378 18.981c16.935 16.935 29.032 24.38 48.759 29.777 13.957 3.908 70.16 5.21 90.63 2.047 12.655-1.86 16.749-1.861 23.262.186 12.469 3.908 16.376 7.258 16.376 13.027 0 10.236-18.238 24.193-47.456 36.29-2.977 1.303-8.002 3.348-11.166 4.65-15.632 6.514-48.386 14.331-65.507 15.82-8.188.558-22.33.559-31.263-.185-20.657-1.675-26.985-6.143-30.52-21.962-3.35-15.074-1.49-17.866 15.26-20.843 8.002-1.303 18.052-8.747 18.052-13.213 0-4.095-8.19-14.515-19.17-24.75-18.424-16.935-44.104-55.83-41.499-62.716.652-1.547 1.66-2.309 2.68-2.367m110.81 10.305c10.067.146 21.322 1.459 26.085 3.413 9.305 3.908 8.745 7.258-.932 6.327-7.072-.558-8.187-.185-14.329 7.445-14.701 17.866-30.707 22.145-43.734 11.352-4.28-3.536-6.886-7.258-6.886-9.863 0-6.142 13.773-15.631 26.056-17.864 2.559-.466 5.873-.723 9.52-.8 1.367-.027 2.78-.03 4.22-.01M642.57 37.038c5.397 0 6.327 3.163 1.488 5.024-3.164 1.116-10.235 7.07-17.493 14.328-2.792 2.792-4.094 3.166-5.768 1.491-1.675-1.675-.002-4.281 7.442-11.54 6.327-6.14 11.353-9.303 14.33-9.303m124.314 0c-9.677 0-10.235.186-9.304 4.094 1.489 5.955-5.026 14.516-8.19 11.166-1.302-1.116-3.72-2.235-5.209-2.235-1.86 0-1.49 1.303 1.674 4.653 2.42 2.606 5.955 4.654 7.816 4.654 7.63 0 27.17-16.564 24.564-20.659-.558-.93-5.582-1.673-11.351-1.673m108.17 731.355c3.06-.101 6.27.876 9.446 2.993 8.374 5.397 4.28 11.166-4.653 6.327-2.606-1.303-6.329-.186-15.82 4.839-6.885 3.536-13.025 5.956-13.584 5.397-1.302-1.116 5.212-8.374 7.445-8.374.93 0 3.907-2.606 6.513-5.583 3.035-3.56 6.72-5.47 10.653-5.6" style="stroke-width:1.39575"/>
</svg>
