<svg xmlns="http://www.w3.org/2000/svg" width="1290" height="960">
    <path d="M674.262-83v79.627c-4.369-.199-10.401-.233-17.911-.082-16.339.308-24.354-.154-25.896-1.387a5 5 0 0 0-.299-.213V-8.85h-3.853v3.37a6 6 0 0 0-.781.328c-6.937 3.545-10.942 3.393-15.566-.46l-2.252-1.877-.53-15.189-3.851.135.604 17.29-.137.41c-2.004 5.55-4.47 6.012-6.474 1.08-.082-.2-.152-.36-.226-.531l-1.222-34.989-3.85.134 1.33 38.106c-2.479 1.449-6.56 2.367-11.446 2.367-10.173 0-13.564 8.17-7.553 17.88 2.62 4.47 4.007 5.24 8.939 5.24h5.704l.155 8.476c.154 4.625.616 10.637 1.233 13.103.925 4.162.462 4.778-5.703 7.553-3.7 1.54-12.795 4.008-20.502 5.55-19.964 3.661-35.573 6.96-44.002 9.204l-7.96-31.926c1.172-.552 2.168-1.154 2.948-1.788 4.007-3.39 4.005-3.391 1.077-8.015-1.542-2.466-3.544-4.932-4.469-5.548-.925-.694-2.415-1.04-4.15-1.081-.18 0-.364-.01-.55 0-2.785.036-6.092.808-8.712 2.163-2.928 1.695-5.239 1.848-7.86.924-3.853-1.542-15.412 1.387-18.65 4.624-.924.77-2.62 1.388-3.854 1.388-1.387 0-4.47 1.08-6.936 2.312-2.312 1.233-5.086 2.312-5.857 2.312-1.541 0-35.453 15.877-48.246 22.505-11.653 6.116-18.501 9.786-23.457 12.642L347.414 6.345l-3.337 1.927 36.103 62.533a133 133 0 0 0-7.135 4.663c-4.162 3.082-7.861 6.628-8.17 8.015-.616 3.39 8.785 16.491 11.868 16.491 1.387 0 4.162-1.079 6.32-2.312s4.933-2.619 6.166-3.235c.62-.31 1.899-1.047 3.448-1.977l2.143 3.712a25 25 0 0 0-2.046 1.656c-1.85 1.696-7.862 5.856-13.102 9.093-5.395 3.39-13.717 8.94-18.804 12.64-4.147 3.11-8.285 5.668-10.142 6.407l-37.186-55.13-3.194 2.154 37.022 54.888a3 3 0 0 0-.219.466c-.462 1.079-4.932 5.241-9.865 9.095-19.884 15.413-67.975 65.662-78.457 82.155-3.545 5.395-6.319 8.325-8.322 8.325-4.47 0-3.854-2.005 2.928-9.558 3.391-3.699 10.173-11.869 15.105-18.343 12.023-15.876 36.53-41.925 45.933-49.17 16.03-12.177 23.582-20.5 24.353-26.512.77-5.087.31-6.318-3.698-9.709-2.62-2.158-6.011-3.854-7.553-3.854-6.474 0-56.722 47.166-75.373 70.595-3.853 4.933-10.02 12.64-13.565 17.11-3.7 4.47-6.627 9.402-6.627 11.098 0 1.541-.308 2.928-.616 2.928-2.158 0-14.183-7.552-19.27-12.177-3.236-3.082-9.248-8.015-13.255-10.943-14.952-10.944-16.802-12.95-14.952-16.494 1.85-3.237 1.08-5.085-2.156-5.085-2.004 0-8.325 9.094-8.325 12.177 0 .925.925 1.695 2.158 1.695s2.466 1.08 3.082 2.312c.463 1.233 1.85 2.312 2.929 2.312 2.312 0 15.724 12.178 14.49 13.257-.924 1.079-5.702-1.081-5.702-2.468 0-1.696-15.569-11.097-16.648-10.018-.462.462.155 1.695 1.542 2.774 1.387.925 2.773 3.699 3.39 6.01.616 2.467 2.004 4.318 3.39 4.318 3.546 0 18.037 10.017 25.59 17.724 12.176 12.177 12.176 12.333 9.864 14.799-1.233 1.233-3.546 4.624-5.087 7.552s-4.778 8.169-6.936 11.714-5.395 8.632-6.936 11.56c-1.542 2.93-4.162 7.093-5.704 9.405-1.281 1.993-1.87 3.722-1.772 5.006l-37.532-21.67-1.927 3.338 39.15 22.603c-1.489.521-2.888 1.584-3.622 3.053-2.312 5.24-5.395 10.48-7.4 12.484-.924.925-1.695 3.392-1.695 5.396 0 2.775.772 3.545 3.238 3.082 1.85-.308 4.007-1.542 4.624-2.775.77-1.233 3.39-6.01 6.01-10.481 1.787-3.048 3.142-6.093 3.678-7.968l31.142 17.979a2560 2560 0 0 1-9.54 20.663c-5.241 11.406-10.173 22.657-10.635 24.97-.616 2.312-2.774 8.17-4.624 12.949-4.008 9.865-7.554 11.867-12.333 6.626-1.541-1.695-3.698-3.081-4.777-3.081-2.929 0-6.783 6.318-6.783 11.25 0 2.313-.923 5.86-2.156 7.709-1.08 1.85-2.93 6.78-4.008 10.788-2.158 8.17-1.388 9.558 8.785 14.182 2.548 1.042 4.138 2.345 4.772 3.778l-40.97-14.912-1.318 3.621 24.879 9.055a10 10 0 0 0-.928 1.85c-2.158 5.394-4.776 20.962-5.085 28.977-.154 5.857.153 6.32 7.244 9.558 5.872 2.868 8.233 5.492 6.873 7.768l-40.61-5.707-.536 3.816 39.795 5.593c-.337 2.323-.652 5.792-.745 9.492-.308 6.011-1.233 15.567-2.312 21.116-1.85 11.406-1.077 76.76 1.389 104.043 2.004 22.35 4.779 40.231 7.399 47.784 1.233 3.545 2.156 9.557 2.156 13.719q.001.773.038 1.511l-10.372 2.586c-.417-1.612-.977-3.43-1.687-5.486-3.853-10.944-4.47-11.56-11.253-11.56-5.24 0-6.01.462-6.01 3.391 0 2.466-2.005 4.78-6.167 7.246-6.628 4.161-8.016 7.397-6.166 14.18 2.004 6.781 4.318 9.094 9.404 9.094 4.624 0 6.935-3.698 5.085-8.323-.462-1.387-.153-2.468.772-2.468s1.696.618 1.696 1.39c0 .77 1.386 2.002 3.235 2.465 2.313.77 2.776 1.541 1.542 2.775-.924.924-1.695 3.852-1.695 6.627 0 3.699-1.078 5.55-4.315 7.708-9.557 6.32-9.865 9.247-2.775 28.668 2.929 7.861 5.703 16.032 6.32 18.19 1.233 4.162 6.472 15.876 17.108 38.072 2.85 5.94 5.329 11.865 6.319 14.912l-39.498 21.002 1.809 3.402 38.689-20.57c1.089 2.727 3.653 7.207 5.899 10.456l-18.131 9.641 1.809 3.402 18.723-9.955c.204.216.394.399.566.54.616.462 3.546 4.779 6.629 9.711 3.691 5.763 7.067 9.42 9.973 10.822l1.314 2.103 2.86-1.787q.612-.263 1.173-.733l6.048-3.78c.402.568.84 1.095 1.29 1.544 1.85 1.542 4.316 5.242 5.55 7.862q.136.346.286.67l-6.434 4.34 2.154 3.194 6.548-4.416c2.186 1.807 5.257 1.933 9.313.373 2.38-.906 2.925-4.561 1.76-7.843l9.68-6.528c2.378 3.3 7.471 7.589 9.678 7.589 1.541 0 4.776-1.696 7.397-4.008 4.162-3.39 4.47-4.315 2.928-7.706-.925-2.004-1.232-4.162-.77-4.624 1.542-1.542 5.55 2.312 10.944 10.944 2.775 4.162 7.245 10.174 9.712 13.102 2.62 2.929 7.86 9.249 11.56 13.873 6.628 8.323 12.023 11.559 12.023 7.243 0-2.004-10.482-16.339-16.031-21.888-2.774-2.774-14.798-20.346-20.039-28.978a82 82 0 0 0-1.768-2.838l23.737-16.01-2.155-3.195-23.717 15.997a153 153 0 0 0-1.8-2.585c-1.541-2.004-2.929-4.161-2.929-4.932 0-.194-.198-.693-.551-1.401l19.983-12.487-2.042-3.268-19.85 12.404a65 65 0 0 0-2.164-3.263c-4.778-7.245-6.01-13.41-2.619-13.41 1.233 0 4.778-2.774 8.169-6.32 3.237-3.39 7.4-6.937 9.095-7.708s4.468-2.31 6.164-3.39c1.695-1.078 7.09-4.163 12.023-7.091 8.17-4.624 8.94-5.55 8.478-9.865-.616-7.245-4.47-6.936-18.343 1.08-6.628 3.853-16.03 9.249-20.962 11.87-4.778 2.62-9.558 5.855-10.637 7.242-2.466 3.391-6.627 1.234-7.706-4.16-.29-1.23-.817-2.593-1.454-3.839l22.36-11.889-1.809-3.402-22.738 12.09a5 5 0 0 0-.213-.206c-1.695-1.388-2.929-3.546-2.929-4.625s-1.385-4.47-3.235-7.552c-4.008-6.628-3.238-7.86 8.785-14.643 7.399-4.161 8.17-5.086 6.783-7.706-2.004-3.853-1.696-3.854-12.64.154-10.019 3.545-13.565 2.465-13.565-3.854-.154-1.696-1.08-4.932-2.312-7.09-1.233-2.158-2.158-6.165-2.312-8.94 0-4.624.618-5.24 8.325-8.631 9.248-4.162 11.252-6.322 8.632-9.404q-1.851-2.08-5.087-.924c-7.707 2.775-16.03 3.236-18.034.924-2.929-3.546-4.934-16.184-3.085-18.65.345-.39.43-.767.321-1.117l21.11-5.263c1.441 5.001 3.273 8.845 4.465 8.845.771 0 2.467-.924 4.008-2.003 2.466-1.695 2.466-2.312.153-7.552-1.233-3.237-2.312-7.245-2.312-9.095s-.923-6.935-2.156-11.251c-5.549-19.421-7.708-44.084-7.708-87.243 0-42.542 2.003-64.738 7.552-87.859 1.08-4.624 3.237-13.718 4.624-20.038 1.388-6.32 3.392-14.336 4.625-17.727 1.079-3.391 3.082-10.018 4.624-14.642 4.778-14.798 19.268-50.558 26.358-64.738 3.7-7.553 6.783-14.798 6.783-16.031 0-1.696-3.084-4.008-5.55-4.008-.308 0-4.007 6.782-8.169 14.951-6.628 13.565-12.639 27.284-19.73 45.935-1.232 3.39-3.237 8.477-4.47 11.098-2.004 4.932-4.933 6.474-7.399 3.854-.616-.617-4.007-1.85-7.553-2.775-6.165-1.542-6.473-1.85-6.32-7.4.155-3.082 1.388-8.478 2.929-11.869 2.312-4.778 2.467-6.472.926-8.013-1.542-1.388-2.621-1.08-4.934 1.849-1.541 2.004-2.928 4.623-2.928 6.01 0 3.392-6.164 15.722-7.86 15.722-.77 0-1.389 2.929-1.389 6.32 0 6.474-4.778 25.28-8.169 32.062-.924 2.004-1.54 5.395-1.232 7.552.396 3.83-3.053 22.804-5.213 29.526l-4.86-.683c.184-1.523.315-3.11.362-4.642.308-5.087 1.54-12.332 2.928-16.031 1.233-3.7 2.312-8.479 2.312-10.79 0-2.159 1.079-6.01 2.312-8.477 1.233-2.312 2.312-6.321 2.312-8.788 0-6.473 9.712-36.222 21.118-65.354 2.929-7.399 21.271-44.546 24.817-50.403 11.252-18.188 15.104-24.046 17.724-26.975 2.775-3.083 3.391-3.237 6.32-1.233 1.696 1.233 4.78 2.312 6.63 2.312 4.16 0 8.63 2.313 14.179 7.246 2.158 2.004 4.47 3.545 5.087 3.545.616 0 3.392 2.158 6.166 4.624 5.395 4.932 8.478 5.395 10.79 1.542 1.233-1.85-.462-4.471-6.936-11.253-4.778-4.779-9.25-8.786-10.02-8.786-.925 0-5.55-3.698-10.328-8.322-7.707-7.553-8.478-8.788-6.936-11.717 2.158-3.853 6.474-5.857 7.399-3.391 1.387 4.47 6.627.463 19.266-14.489 8.786-10.327 14.645-16.029 16.494-16.029 5.55 0 3.236 5.085-8.478 18.958-8.632 10.173-11.56 14.798-11.56 18.19 0 2.62.771 4.468 2.005 4.314.924 0 7.705-6.627 14.796-14.642s13.873-14.49 15.26-14.49 4.008 1.543 5.857 3.239c2.158 2.003 4.624 2.928 6.011 2.312 2.158-.771 2.005-1.543-1.386-6.013-2.158-2.929-4.008-6.319-4.008-7.706 0-1.233 4.316-6.166 9.711-10.944 8.478-7.707 10.019-8.477 14.643-7.706 4.316.77 6.012 0 13.102-5.86 20.346-17.11 42.85-32.83 61.193-42.387 7.245-3.853 13.872-7.552 14.643-8.169.925-.617 10.635-5.087 21.578-9.711 37.456-15.877 86.01-29.595 107.898-30.674l9.248-.463 1.233 10.638c1.233 11.868 2.929 14.795 8.17 14.795 4.47 0 5.703-3.853 4.47-14.488-2.004-15.568-4.008-14.797 34.681-14.797 25.587 0 33.755-.463 34.372-2.005.925-2.62-.615-12.33-2.156-14.18-.126-.124-.38-.241-.74-.349V46.368c2.89.168 6.16.318 9.525.429 22.813.77 49.942 5.704 78.457 14.028l1.601.468-9.144 36.675c-3.749-.415-5.56.212-5.56 1.853 0 2.312 5.395 6.01 10.019 7.09 2.62.616 7.092 1.85 10.02 2.928 2.929 1.233 9.249 3.239 13.873 4.78s9.247 3.391 10.172 4.008c.925.77 6.32 3.082 11.87 5.24 34.835 13.102 82.618 43.774 117.299 75.527 11.406 10.327 37.147 38.226 48.09 52.098 7.553 9.557 7.091 11.408-6.32 20.965-11.56 8.323-13.254 10.943-9.4 15.875 3.082 4.162 5.393 3.39 17.57-5.703 6.166-4.625 12.178-8.477 13.102-8.477 1.85 0 11.716 13.718 12.024 16.492.154 2.775 10.326 15.105 12.33 15.105 4.47 0 2.93-6.01-5.394-19.73-4.778-7.86-8.632-15.26-8.632-16.646 0-3.237 15.258-17.417 21.27-19.883 4.932-2.004 5.395-1.85 8.94 2.465 2.004 2.466 3.545 4.934 3.699 5.55 0 .617 2.929 5.394 6.32 10.635 6.474 9.71 24.663 45.164 26.821 52.254.617 2.158 1.696 4.47 2.312 5.394.617.77 2.62 6.012 4.625 11.56s4.007 10.636 4.624 11.56c2.158 3.084 6.164 17.572 6.164 22.042 0 .155 0 .311.012.469l-14.522 5.285c-2.013-5.987-4.502-12.308-5.527-13.613-1.85-2.158-6.166.77-6.166 4.161 0 1.696 1.696 8.786 3.854 15.568s3.852 12.793 3.852 13.563c0 .617-3.083 2.621-6.936 4.47-9.403 4.625-8.94 8.324 1.079 7.707 4.316-.308 7.554.31 8.325 1.389.616.925 2.003 6.626 3.082 12.483.808 4.379 1.263 7.02 1.287 8.929l-14.228 3.024.802 3.77 12.35-2.625a23 23 0 0 1-1.137 1.7c-2.775 3.7-2.928 5.087-1.386 13.41 2.62 15.568 4.162 61.963 2.775 88.63-1.85 38.225-6.32 64.276-18.96 110.209l-2.005 7.706-6.78-.154c-6.166-.154-13.41-2.002-20.193-5.394-7.09-3.545-13.718.615-10.943 6.78 1.233 2.621 5.085 4.625 15.258 8.016 14.49 4.624 16.185 5.858 14.952 9.865-2.929 9.403-23.736 51.021-33.755 67.823-5.395 8.94-9.865 17.108-9.865 18.187 0 2.466 7.553 8.169 10.944 8.169 1.85 0 6.165-5.703 13.872-18.497 6.012-10.173 11.25-18.496 11.405-18.496.616 0 7.4 3.7 11.253 6.166 1.85 1.233 3.391 3.236 3.391 4.315 0 2.003-8.17 17.881-10.79 21.118-.77 1.079-1.08 2.312-.463 2.775 2.004 2.003 6.784 1.079 7.709-1.696 2.774-7.399 11.25-18.497 14.95-19.422 1.09-.273 1.91-.604 2.514-1.047l4.067 2.163a159 159 0 0 0-3.344 7.979c-2.312 5.857-5.086 11.713-5.857 12.946-.925 1.08-2.466 3.239-3.391 4.78a1534 1534 0 0 0-4.852 8.611l-11.053-6.906-2.042 3.268 11.22 7.01c-6.158 11.14-7.916 15.06-7.916 16.841.154 2.775 19.73 18.804 24.817 20.037 1.695.462 3.698-1.233 6.01-5.24 1.646-2.659 5.057-7.597 8.359-12.098l62.084 38.795 2.042-3.268-61.82-38.63c3.663-4.91 8.013-11.52 9.68-14.703 1.696-3.391 3.7-6.474 4.472-6.936s1.386-2.467 1.386-4.625c0-2.466 1.695-5.393 4.624-7.86.432-.33.844-.682 1.236-1.043l8.212 4.366 1.81-3.402-7.445-3.958c.513-.799.811-1.501.811-1.975 0-1.079 1.387-4.316 2.929-6.936a20 20 0 0 0 1.555-3.212l7.406 3.938 1.81-3.403-8.409-4.47a9.7 9.7 0 0 0-.204-2.255c-.462-2.466-.155-6.01.77-7.86s3.238-7.245 4.934-11.87c1.85-4.624 4.317-10.788 5.55-13.563 2.774-6.628 2.772-13.257-.156-15.724-1.72-1.432-2.49-3.81-2.168-5.706l36.095 10.35 1.062-3.704-34.412-9.867c.215-.479-.234-1.159-1.347-2.17-.868-.76-1.658-2.13-2.05-3.467l27.56 7.903 1.063-3.704-30.181-8.655c-.662-.49-1.531-.735-2.502-.717l-8.729-2.503a23 23 0 0 1 .967-3.809c1.078-3.083 2.62-7.706 3.237-10.172.617-2.62 2.466-9.865 4.161-16.184 1.696-6.32 4.317-17.88 5.704-25.433 1.541-7.707 3.237-14.643 4.008-15.568s4.624-1.695 8.631-1.85c6.012 0 8.17.77 11.714 4.006 2.312 2.158 4.162 5.241 4.162 6.783 0 3.545 5.395 3.7 6.782.31.463-1.388.924-4.625.924-7.4s.77-7.244 1.696-10.018c1.233-3.545 1.233-5.395 0-6.936s-1.234-2.467.616-4.008c1.695-1.388 2.312-5.241 2.312-14.952 0-7.09 1.08-17.726 2.468-23.584 3.237-14.334 2.619-19.266-2.468-19.266h-3.852l-.926 22.348c-1.233 27.745-1.078 26.512-2.928 25.433-.77-.462-1.387-10.788-1.233-24.044l.307-22.967-4.931-4.315-4.778-4.164-.851-19.842 29.426-1.028-.135-3.851-29.453 1.028c-.484-11.062-1.327-21.124-1.762-23.009-.925-4.007 1.85-4.47 6.936-.925 1.85 1.233 3.545 1.85 3.545 1.079.72-4.313.693-12.163.139-16.17l49.726-3.478-.27-3.844-50.7 3.545c-.757-2.29-1.7-6.769-2.286-11.343-.925-6.782-3.236-14.027-6.01-18.96-2.313-4.47-6.628-17.11-9.249-28.054-2.774-11.098-6.013-21.888-7.092-24.2-2.928-5.703-2.774-7.09 1.08-8.169 2.085-.73 2.687-1.037 1.477-2.018l7.753-2.822c1.931.476 5.93-.697 6.028-2.193l5.446-1.983c2.518.467 6.306-.824 6.247-2.273l51.002-18.564-1.318-3.62-79.157 28.81c-2.262-1.684-4.317-4.412-4.722-6.434-.616-2.312-2.313-6.473-3.854-8.94-4.008-6.781-9.095-17.88-9.095-19.884 0-1.08-1.079-3.236-2.312-4.932-1.233-1.541-2.312-4.009-2.312-5.396s-1.387-4.16-2.928-6.164c-2.775-3.545-3.083-3.546-5.857-.926-1.696 1.387-3.7 2.621-4.624 2.621s-7.09-10.635-13.564-23.583c-6.628-12.793-14.951-27.9-18.496-33.448-3.7-5.55-6.938-11.098-7.092-12.33a3 3 0 0 1-.086-.802l31.857-26.731-2.477-2.952-16.03 13.45c-.82-.272-2.695.199-5.402 1.62-.826.45-1.613.615-2.288.58l31.847-26.723-2.477-2.952-28.813 24.177a.93.93 0 0 0-.272-.632c-.463-.617-2.16-.154-3.547 1.079-2.158 1.696-2.773 1.696-4.469-.616-2.312-3.237-4.78-3.39-6.012-.308-1.234 3.392-5.24 2.775-7.244-1.232-.338-.58-.842-1.34-1.451-2.188l8.88-7.451 2.024-1.698c.324.633.869 1.329 1.645 2.242 3.39 4.316 9.094 4.47 9.094.463 0-4.642-.713-8.111-1.854-10.161l24.514-20.57 35.423-29.723-2.477-2.952-35.423 29.723-25.629 21.506c-.952.285-1.966 1.105-2.99 2.509l-6.804 5.709-8.765 7.354a42 42 0 0 0-2.507-2.779c-3.853-4.007-4.471-5.395-3.7-10.327 1.079-6.32 1.388-5.55-17.571-26.666-1.92-2.15-4.185-4.761-6.318-7.22l18.91-21.001-2.865-2.579-18.591 20.649a303 303 0 0 0-3.006-3.415c-5.55-6.627-27.744-25.74-29.748-25.74-.616 0-1.232 3.237-1.232 7.09 0 3.854-.464 7.4-.926 7.862-.463.463-4.007-1.85-7.706-5.087-1.106-.928-2.357-1.988-3.644-3.075l26.973-32.146-2.952-2.476-26.968 32.138c-2.233-1.87-4.368-3.622-5.896-4.768-6.628-5.395-6.78-6.936-.77-9.248 2.62-.925 4.625-2.313 4.625-2.93 0-.616-2.62-2.93-5.704-5.395-3.237-2.313-8.016-6.011-10.79-8.323a151 151 0 0 1-1.107-.968l12.623-17.372-3.118-2.265-4.23 5.822c-1.108-.71-2.72-1.55-4.938-2.634-4.47-2.158-15.721-8.941-25.124-14.799a391 391 0 0 0-18.155-10.905l20.892-36.187-3.337-1.926-20.926 36.244c-9.865-5.383-17.552-8.804-20.247-8.804-1.695 0-4.777 2.004-7.09 4.624l-4.007 4.624-10.635-4.933c-5.703-2.62-11.098-5.394-12.023-6.164-2.62-2.313-8.787-1.234-13.103 2.465-4.162 3.391-4.776 3.546-12.02 1.542-4.317-1.079-9.25-2.62-10.945-3.544-1.695-.925-4.625-1.696-6.629-1.696s-5.086-1.08-6.936-2.312c-.738-.492-2.021-1.083-3.575-1.673l3.652-14.65c1.309.462 2.715.889 4.084 1.217 3.853 1.08 8.015 2.157 9.248 2.62s4.47-.925 6.937-2.929c5.24-4.47 4.471-5.703-6.165-8.785-3.39-.925-7.4-2.775-8.787-4.008a6.1 6.1 0 0 0-2.087-1.07l2.475-9.927-3.739-.932-2.72 10.913c-1.9.506-5.284-.11-7.955-1.296-2.775-1.233-14.334-4.161-25.74-6.474-16.03-3.236-21.735-3.854-24.972-2.62-3.546 1.232-4.933.923-8.17-1.543-2.774-2.158-7.243-3.235-15.874-3.852-6.474-.462-12.793-1.695-14.026-2.466-.43-.376-1.835-.676-4.132-.896v-79.883zm-26.254 97.135c7.109.02 13.967.52 19.131 1.522q.415.076.854.149v9.546a847 847 0 0 0-16.42-.29c-7.972-.13-15.408-.315-21.417-.52v-9.414c5.535-.673 11.783-1.01 17.851-.993m66.214.27c6.982-.035 25.19 2.409 28.292 4.027 3.391 1.696 22.041 6.013 26.203 6.013 1.85 0 4.47.924 5.703 2.003.382.296.979.64 1.716 1.002l-3.714 14.897a53 53 0 0 0-4.321-1.101c-15.722-3.237-20.655-4.317-33.602-7.246-7.245-1.695-20.346-3.852-29.132-4.777-8.785-.925-16.648-2.159-17.573-2.775-.423-.212-4.057-.487-9.678-.739v-8.962c11.43.506 25.894-.255 33.878-2.167.463-.115 1.231-.17 2.228-.176m-87.92 1.359V24.4c-5.992-.24-9.888-.495-10.313-.716l-.028-.789c.88-1.94 6.672-5.988 10.341-7.132m45.544.541q1.167.12 2.416.215v9.032q-1.17-.043-2.416-.084zm-75.302 9.68c.462 0 .772 5.55.772 12.332s-.463 12.33-1.08 12.33c-.77 0-1.233-4.006-1.078-8.938.154-11.715.461-15.724 1.386-15.724m-87.96 11.792 7.883 31.617c-.776.246-1.425.473-1.925.676-2.62 1.233-5.548 2.156-6.627 2.156a3 3 0 0 0-.529.066l-8.172-32.775a61 61 0 0 1 3.307-.43 40 40 0 0 0 6.063-1.31m-13.102 2.702 8.204 32.903c-10.132 3.424-34.35 13.49-38.931 16.418-2.929 1.85-9.401 5.393-14.18 7.706-8.94 4.007-11.098 7.398-7.399 11.097 1.233 1.233-2.003 4.163-10.48 9.558-8.26 5.436-12.973 7.893-16.162 7.903l-12.8-22.17c1.3-.847 2.46-1.69 3.219-2.38 4.778-4.162 28.516-16.647 49.17-25.587 10.173-4.316 19.267-9.094 20.192-10.481 1.08-1.85.618-3.24-2.002-5.86-3.237-3.236-3.7-3.389-5.088-.923-.924 1.542-2.465 2.775-3.698 2.775s-4.779 1.079-8.015 2.466-7.861 3.545-10.482 4.47c-7.552 3.237-17.88 8.324-27.744 13.873-5.087 2.774-12.332 6.782-16.031 8.785-1.696.814-3.54 1.867-5.245 2.948l-2.047-3.547a282 282 0 0 0 1.742-1.096c10.635-6.782 12.024-7.553 23.276-13.256 6.012-2.93 11.56-5.395 12.484-5.395s2.466-1.079 3.545-2.312 3.547-2.312 5.396-2.312c1.85 0 4.316-1.079 5.395-2.312s3.083-2.312 4.47-2.312 3.853-1.079 5.394-2.312c1.696-1.233 4.008-2.312 5.24-2.312 1.234 0 6.783-2.158 12.177-4.624 5.241-2.62 11.098-4.624 12.794-4.624 1.85 0 3.699-1.543 4.624-3.701.573-1.638 1.32-2.666 2.982-3.386m148.412 3.441c9.042.01 20.96.609 24.099 1.425v16.787h3.853V45.914q1.089.1 2.416.2v35.239c-2.177-.15-4.903-.177-7.74-.032-6.01.154-15.413-.154-20.808-.616l-9.865-1.08v-9.094c0-8.478.309-9.248 4.008-10.635 2.158-.925 7.246-1.542 11.253-1.542 7.09 0 12.331-2.773 9.865-5.085-.462-.617-6.474-1.08-13.102-1.08-10.482 0-12.486-.461-15.415-3.544l-2.302-2.202V45.04l4.153-.712c1.783-.29 5.371-.413 9.585-.408m-21.33.541c1.634.026 3.124.44 3.739 1.277v2.515c-.909 2.232-3.928 3.41-9.33 3.6l-.18-5.18c.696-1.388 3.091-2.154 5.34-2.21h.43zm-12.355 2.384c.72 0 1.616.292 2.675.874l.09.04.142 4.066c-3.307-.174-5.011-.77-5.011-1.794 0-2.124.73-3.186 2.104-3.186m9.823 13.142a.6.6 0 0 1 .134.01c.732.058 1.734.52 3.507 1.445 2.312 1.387 2.928 3.39 2.928 10.018 0 9.095-1.233 10.173-10.481 9.402-6.782-.616-7.706-1.85-8.323-10.944l-.462-7.706h4.933q.613-.035 1.208-.09l.478 13.7 3.851-.134-.497-14.226c.455-.146.796-.308.97-.483.65-.65 1.097-.995 1.754-.988zM771.4 62.373c6.285 1.827 13.737 3.965 18.589 5.385 6.32 1.85 17.88 6.165 25.433 9.402 7.706 3.39 16.955 7.553 20.808 9.095 3.854 1.695 8.786 4.007 11.098 5.24 2.158 1.233 4.778 2.312 5.857 2.312 1.07 0 4.423 1.976 7.639 4.57l-3.893 6.742a54 54 0 0 1-2.358-1.293c-3.699-2.158-7.861-4.162-9.094-4.778-1.234-.463-4.162-1.851-6.474-3.084-4.624-2.467-9.866-2.774-11.253-.77-.463.77 1.079 2.465 3.391 3.698 29.272 14.787 59.428 32.676 67.917 40.075l-5.843 8.042a34 34 0 0 0-2.423-1.566c-2.774-1.696-10.017-6.012-16.029-9.711-17.725-10.79-43.006-23.428-47.013-23.428-4.779 0-4.931 2.62-.307 4.624 1.85.925 4.47 2.158 5.703 2.929s3.391 1.85 4.624 2.312c1.233.616 5.085 2.62 8.476 4.777 3.391 2.004 7.245 3.7 8.632 3.854 1.388 0 2.929 1.08 3.545 2.312.463 1.234 1.85 2.313 2.929 2.313 2.483 0 19.639 10.656 27.723 17.281l-2.887 3.974c-2.748-1.732-6.955-4.486-11.58-7.539-15.26-10.481-39.612-23.273-59.959-31.597-7.244-3.082-14.336-6.165-15.877-6.936-1.696-.925-11.252-4.317-21.425-7.708-6.221-2.074-11.193-3.501-14.981-4.3zm-190.307 2.432c2.119.016 2.707.553 3.43 1.564.617 1.08 2.003 5.088 3.082 8.942 2.312 8.785 1.54 9.402-14.335 12.176-24.817 4.316-57.956 13.102-67.204 18.034-2.158 1.233-4.932 2.159-5.857 2.159-1.08 0-10.944 3.852-22.042 8.476-15.722 6.628-20.501 8.17-22.197 6.629-4.316-3.545-1.542-7.862 7.706-12.486 6.166-3.083 8.788-5.241 8.788-7.4 0-1.695-1.08-2.928-2.468-2.928-2.928 0-2.157-3.237 1.08-4.624l5.55-2.773c4.778-2.466 20.037-7.554 26.665-8.787a40 40 0 0 0 2.813-.707l3.703 14.852 3.74-.932-3.799-15.234a3 3 0 0 0 .48-.291c.751-.555 3.952-1.67 8.491-3.049l3.454 13.854 3.74-.932-3.496-14.019c13.609-3.95 34.68-9.242 43.147-10.497 8.246-1.31 12.599-1.965 15.084-2.023h.445zm297.064 2.953a.6.6 0 0 1 .294.087l-8.12 14.065c-.586-.278-1.035-.436-1.269-.436-.925 0-2.466-1.079-3.545-2.312-1.695-2.004-1.389-3.081 1.54-6.164 1.85-2.004 4.933-4.009 6.783-4.317 1.695-.308 3.7-.77 4.317-.923m2.546 3.893c1.221 1.607 4.167 3.842 7.319 5.355 3.699 2.004 8.014 4.779 9.402 6.32 2.312 2.62 2.157 3.082-1.696 6.627-4.779 4.47-7.4 4.779-10.174 1.542-1.08-1.233-2.621-2.312-3.392-2.312s-3.698-1.696-6.473-3.854a37 37 0 0 0-2.034-1.47zm48.852 25.343-2.602 3.58c-.355-.907.256-1.567 1.607-2.759.322-.29.657-.565.995-.82m-465.864 1.47c1.496 0 2.659.588 2.297 1.817-.462 1.079-2.003 2.31-3.698 2.619-1.541.308-3.545 1.388-4.161 2.621-1.542 2.775-9.25 2.928-8.479.154.463-.925 2.313-2.158 4.47-2.312 2.005-.309 4.316-1.542 4.932-2.775.77-1.31 2.698-2.041 4.335-2.118.103 0 .204-.01.304-.01zm400.264 2.196c2.022 1.4 3.71 2.395 4.335 2.395 1.387 0 6.476 3.083 31.292 19.267 2.525 1.634 5.326 3.439 7.889 5.068l-3.937 5.42a72 72 0 0 0-1.95-1.24c-20.037-12.022-35.451-21.732-35.76-22.811-.308-.617-1.386-1.08-2.465-1.08-.484 0-1.56-.342-2.93-.913zm-463.522 5.222 10.583 18.33c-2.431.538-7.158 3.397-15.93 9.208-15.054 10.18-22.785 15.447-26.888 18.437l-11.154-16.536c.515-.425.975-.808 1.356-1.13 6.936-5.857 33.757-24.046 40.385-27.437a44 44 0 0 0 1.648-.872m42.854 18.89c.135 0 .266 0 .391.01 1.756.101 2.58 1.028 2.58 2.782 0 3.545-1.232 4.47-14.488 11.56-10.635 5.857-14.18 5.703-12.946 0 .616-3.237 18.957-14.335 24.044-14.335q.216-.015.42-.016zm467.45 4.678c1.388.865 2.609 1.612 3.487 2.12 5.712 3.406 13.893 9.805 23.099 17.752l-4.657 5.55c-8.864-7.276-18.912-15-25.942-19.899zm-556.69 8.32 11.09 16.442c-.896.76-1.348 1.26-1.65 1.712-.77 1.079-4.931 4.933-9.555 8.478-19.422 15.106-50.097 47.013-70.135 72.754-3.853 4.932-7.09 7.706-9.248 7.706-3.083-.154-13.256-8.015-13.256-10.327 0-1.85 12.794-18.342 25.126-32.676 14.797-16.956 42.386-44.085 55.796-54.72a621 621 0 0 0 11.833-9.37m547.964 3.69c1.343.998 2.536 1.67 3.119 1.67 2.003 0 15.107 9.865 22.197 16.802q.281.281.6.589l-7.027 8.374c-3.165-2.597-6.176-4.94-8.371-6.498-4.778-3.39-10.482-7.86-12.64-10.018a65 65 0 0 0-3.59-3.058zm-493.05 3.239c1.663.01 3.243.29 3.85.897 2.62 2.62-2.927 7.4-28.822 25.28-.648.45-1.282.908-1.989 1.445l-4.612-6.839c2.46-2.089 9.053-6.88 14.923-10.944 6.012-4.008 11.252-7.862 11.714-8.632.463-.694 2.313-1.118 4.22-1.195q.359-.015.715-.013zm531.269 7.154c30.224 26.53 69.517 67.547 70.166 75.4l-5.115 4.292a52 52 0 0 0-3.351-4.1c-2.929-3.083-6.63-8.786-8.325-12.64-1.695-3.853-3.698-6.936-4.468-6.936s-4.625-3.237-8.632-7.4c-19.884-20.191-24.663-24.97-35.144-34.68-2.714-2.497-6.07-5.404-9.727-8.46zm-48.181 3.32c2.432 1.939 4.564 3.372 5.065 3.372 3.391 0 40.848 33.448 40.848 36.53 0 2.621-3.854.77-9.249-4.47-2.158-2.004-8.323-7.09-13.872-11.251-10.173-7.707-16.647-13.257-21.888-18.19-1.394-1.254-2.786-2.379-3.381-2.583zm38.705 7.973c3.28 2.954 7.516 6.538 10.906 9.272 6.936 5.549 8.633 7.705 8.325 10.788-.308 2.774-1.543 4.009-4.317 4.317-2.929.308-6.32-2.004-14.026-9.248-2.272-2.15-5.01-4.567-7.782-6.913zm-556.26 4.938 4.485 6.649c-3.312 2.74-8.55 7.293-18.883 16.335-6.474 5.703-13.409 12.023-15.413 14.335-3.853 4.162-10.944 5.548-10.944 2.003.155-2.466 16.03-19.266 24.66-25.74 5.953-4.568 8.595-6.816 16.096-13.582m584.067 25.88h.282c2.862.122 7.202 2.987 12.567 8.352 7.399 7.398 8.168 8.786 6.627 11.56-.925 1.85-2.927 3.238-4.468 3.238-3.854 0-19.27-17.726-18.036-20.809.53-1.445 1.465-2.211 2.756-2.33q.135-.014.272-.015zm-268.762 6.199c-.925 0-11.098 8.938-22.504 20.036-11.406 10.944-21.425 20.04-22.504 20.04s-10.944-9.096-22.042-20.04c-11.252-11.098-21.271-19.883-22.504-19.883-1.233.154-3.392.464-4.934.926-1.695.462-2.62 1.85-2.312 3.545.617 3.853 48.555 52.405 51.638 52.405 2.775 0 50.094-47.01 51.79-51.172.924-2.62-2.62-5.857-6.628-5.857m258.557 4.65c.05 0 .102 0 .155.01 1.408.138 3.902 1.87 7.177 5.05 6.936 6.782 13.256 16.185 11.56 17.264-2.003 1.233-20.038-17.572-20.038-20.809 0-1.03.4-1.525 1.146-1.515m-218.79 4.598c-2.313 0-16.337 12.947-43.312 40.075-21.887 22.042-40.693 40.076-41.463 40.076-.925 0-19.577-17.879-41.464-39.766-22.042-21.734-41.156-39.77-42.697-39.924-1.387-.309-3.853.31-5.24 1.235-1.542.77-2.775 2.465-2.775 3.698 0 2.775 89.4 91.713 92.329 91.713 2.158 0 90.326-86.935 91.713-90.48 1.08-2.62-3.238-6.627-7.092-6.627m-518.245.156q.338-.02.802.151c1.079.308 2.313 1.543 2.621 2.622.463 1.233-.155 1.848-1.388 1.386-1.08-.308-2.311-1.54-2.62-2.62-.346-.924-.086-1.503.585-1.54m832.463 9.165a1 1 0 0 1 .152.01q.178.016.381.075c.925.462 1.696 1.232 1.696 1.849-.154 1.85-2.312 1.387-2.928-.616-.38-.759-.034-1.31.7-1.314zm-54.108 4.303c1.36.021 2.233.527 2.233 1.635 0 .616 3.084 4.47 6.783 8.478l6.783 7.244-4.934 2.467c-2.774 1.234-5.857 4.315-6.936 6.78-3.083 7.091-6.01 5.86-15.875-6.626-3.237-3.854-5.857-7.553-5.857-8.016s2.62-3.236 5.857-6.32c3.603-3.39 8.954-5.689 11.946-5.642m-466.502.248c-.308.155-2.466 1.233-4.778 2.466-2.466 1.233-4.315 3.083-4.315 4.162s22.811 24.507 50.71 52.098c36.84 36.53 51.022 51.482 51.638 54.873 1.542 6.628 25.74 30.367 29.748 29.134 4.316-1.387 26.665-26.359 26.665-29.75 0-1.695 20.965-23.891 51.638-54.41 48.862-48.862 51.327-51.637 49.015-54.411-1.542-1.541-4.16-2.62-6.164-2.312-2.158.308-23.429 20.345-57.34 53.947-57.955 57.494-57.187 57.031-70.597 54.411-5.086-.925-13.256-8.323-60.73-55.643-30.211-30.057-55.182-54.565-55.49-54.565m-218.038.841h.222c.528.04.924.302 1.097.851.617 1.696-11.25 12.023-12.021 10.482-.617-.771.153-1.85 1.386-2.313 1.388-.462 2.466-1.541 2.466-2.312 0-2.79 4.488-6.631 6.85-6.712zm706.402 7.2c.177.292.366.548.564.745.925.925 1.234 2.467.772 3.391-1.541 2.313-5.55 2.157-5.55-.31q-.001-.106-.043-.253zm-780.884 1.649c3.389.12 7.25 3.913 10.756 10.656 2.774 5.55 7.552 8.477 10.634 6.627 2.775-1.695 3.239 3.083.773 8.632-1.388 2.775-6.938 12.178-12.333 20.655-5.549 8.478-10.789 17.109-11.868 19.267-.059.139-.181.413-.274.623l-33.325-19.24c2.686-.77 6.741-5.185 9.4-10.36 6.165-12.178 22.196-35.76 24.816-36.685a4.5 4.5 0 0 1 1.421-.175m256.143 8.807c-1.696 0-4.315 1.386-6.01 3.236-2.775 3.083-2.466 3.391 46.087 51.945 36.84 36.685 48.709 49.324 47.938 51.482-.617 2.004 7.86 11.253 33.602 36.686 18.959 18.65 35.297 33.909 36.376 33.909s17.264-15.106 35.914-33.448c26.204-26.05 33.757-34.373 33.449-36.994-.308-2.62 10.171-13.87 47.781-51.326 26.358-26.358 48.093-48.707 48.093-49.786 0-2.93-3.237-5.704-6.782-5.704-2.004 0-20.654 17.57-53.332 50.094-27.745 27.59-51.483 50.096-53.024 50.096-1.387 0-13.255 10.02-26.203 22.35-13.101 12.331-24.972 22.349-26.668 22.349-1.541 0-11.712-8.94-23.581-20.962-12.177-12.332-23.275-22.041-26.666-23.428-3.7-1.696-22.966-19.886-54.873-51.638-31.598-31.599-50.097-48.86-52.101-48.86m347.737 20.037c-1.233 0-23.583 21.426-49.633 47.783-36.685 36.994-48.4 47.784-51.328 47.784-5.087 0-65.662 60.729-65.045 65.199.462 2.62 4.778 4.934 15.568 8.325 3.853 1.233 65.817-60.269 65.817-65.201 0-2.313 14.335-17.727 46.242-49.633 25.433-25.433 46.241-46.858 46.241-47.628 0-2.158-5.241-6.63-7.862-6.63m-380.709.287c-1.46.03-3.23.62-4.175 1.564-.925.925-1.849 2.928-1.849 4.162 0 1.387 20.809 23.274 46.242 48.707 32.831 32.985 46.241 47.32 46.241 49.786 0 4.47 59.806 65.047 64.122 65.047 1.695 0 4.47-.925 6.166-2.158s4.777-2.467 6.78-2.775c8.632-1.079 5.705-5.395-26.356-37.61-23.275-23.275-32.37-31.443-34.99-31.443-2.775 0-15.569-11.868-51.329-47.474-26.203-26.05-48.862-47.476-50.25-47.784a5 5 0 0 0-.602-.023zm-28.166 22.849c-.033 0-.063 0-.091.01-.13.028-.232.111-.425.13-.616 0-2.467 1.232-3.854 2.773-1.541 1.542-2.775 3.546-2.775 4.47 0 .926 20.348 22.042 45.318 47.012 32.832 32.832 45.471 46.398 46.242 49.79.77 3.236 9.247 12.792 29.131 32.522 15.414 15.26 29.133 28.206 30.52 28.668 2.929.925 14.334-6.781 15.875-10.635 1.387-3.545-55.027-59.96-62.426-62.426-3.545-1.233-18.803-15.26-49.014-45.162-43.9-43.509-47.488-47.147-48.501-47.152m439.115 1.122c-1.637 0-3.517 1.542-8.045 5.492-4.007 3.545-24.97 24.044-46.395 45.469-27.436 27.437-40.23 39.152-43.313 39.768-2.928.617-13.564 10.019-34.065 30.673-24.045 24.2-29.438 30.212-28.668 32.833 1.387 4.007 12.484 11.253 15.413 10.174 1.387-.463 15.26-13.719 30.982-29.441 19.113-19.113 28.515-29.748 28.515-31.906s14.643-17.881 46.242-49.48c25.433-25.432 46.241-47.012 46.241-47.937 0-1.079-1.694-2.928-3.698-4.161-1.33-.925-2.226-1.483-3.209-1.484m120.167 2.195c-1.224-.011-2.876.85-3.82 2.064-2.312 2.774-1.697 4.162 7.86 20.192 8.323 13.873 22.043 41.463 26.821 53.794 2.158 5.857 4.931 13.256 6.164 16.185 1.08 2.928 3.239 9.248 4.78 13.872 1.388 4.624 3.39 10.944 4.469 13.873 1.233 2.928 3.236 10.635 4.624 16.954s3.547 15.877 4.78 21.118 2.156 12.485 2.156 16.185c0 3.545 1.079 10.48 2.312 15.105 1.387 5.24 2.312 15.568 2.312 27.129 0 14.643.463 19.111 2.312 20.652 3.237 2.62 6.63.926 7.862-4.16 1.233-4.779-2.004-51.175-4.007-58.266-1.234-4.161-2.468-11.713-6.167-33.909-1.233-8.015-7.86-29.904-11.714-38.998-1.233-2.774-2.158-5.702-2.158-6.627s-.923-3.853-2.156-6.473c-1.234-2.775-3.7-9.403-5.55-14.952-6.474-19.575-35.607-72.754-40.385-73.68a2.2 2.2 0 0 0-.495-.058m-585.847 22.872c-.925 0-2.774 1.232-4.161 2.773-1.542 1.542-2.622 3.701-2.622 4.78s21.116 22.966 47.012 48.86c33.14 33.295 46.55 47.631 45.934 49.327s8.015 11.406 28.978 32.369c16.493 16.493 30.674 29.9 31.753 29.9 2.62 0 11.25-11.56 11.25-15.104 0-4.316-56.258-60.421-60.574-60.421-2.312 0-18.035-14.644-49.633-46.242-25.433-25.433-47.166-46.242-47.937-46.242m491.084 0c-.77 0-22.042 20.81-47.475 46.242-33.602 33.756-47.012 46.242-49.633 46.242-4.932 0-60.114 54.871-60.114 59.958 0 3.853 8.48 15.568 11.254 15.568 1.079 0 15.106-13.255 31.136-29.285 22.196-22.196 29.133-30.058 28.824-32.525-.462-2.466 10.172-14.026 45.47-49.323 25.278-25.433 46.087-47.475 46.395-49.017.462-2.774-3.237-7.86-5.857-7.86m205.303 9.876c.385.017.82.336 1.244 1.069.77.924.923 2.928.46 4.16-.77 1.85-1.078 1.85-2.311-.308-1.272-2.313-.549-4.971.607-4.92m-720.587 19.41c-1.079 0-2.775 1.388-3.854 3.084-.925 1.695-1.85 3.852-1.85 4.93s20.501 22.505 45.626 47.475c28.978 28.824 46.704 47.63 48.4 51.329 2.928 6.474 61.963 67.36 65.354 67.36 1.234 0 2.775-.927 3.545-2.006 2.312-2.928 5.394-14.18 4.932-16.954-1.08-4.778-60.114-62.58-65.355-64.122-3.391-.925-18.497-14.951-49.787-46.242-24.816-24.662-45.932-44.855-47.011-44.855m540.256 0c-1.387 0-23.276 20.808-48.863 46.24-33.294 33.14-47.32 46.242-49.94 46.242-2.312 0-12.486 9.096-34.374 30.83-28.361 28.053-30.827 31.134-30.057 34.988 1.696 8.323 5.704 15.877 8.478 15.877 4.162 0 64.43-61.501 65.818-67.05.616-3.391 13.717-17.265 47.165-50.559 27.437-27.436 46.088-47.165 46.088-48.86 0-4.624-1.695-7.709-4.315-7.709m-561.374 32.368c-1.542 0-3.236 1.081-3.699 2.468s-.925 3.544-.925 4.932c0 1.54 21.58 24.199 47.937 50.402 38.072 38.072 48.708 49.326 51.482 55.646 2.775 5.857 8.632 12.638 25.28 28.206 12.022 11.406 21.734 21.425 21.734 22.35s-10.791 12.332-23.893 25.28c-16.801 16.492-23.736 24.354-23.428 26.512.154 2.158-13.874 17.262-49.48 53.022-44.546 44.7-49.785 50.405-49.323 54.412.308 3.237 1.387 4.47 4.161 4.778 2.929.463 11.715-7.553 50.25-46.088 30.365-30.365 48.244-47.166 51.019-47.937 5.857-1.541 69.978-65.51 69.978-69.825 0-4.162-64.736-68.59-69.052-68.59-2.004 0-20.04-16.956-51.175-47.784-27.437-27.436-49.17-47.784-50.866-47.784m581.257 0c-1.233 0-23.583 21.272-49.633 47.321-30.057 30.057-48.707 47.63-51.02 47.938-4.007.616-70.594 65.97-70.594 69.362 0 1.079 15.258 17.11 33.909 35.76 23.275 23.43 34.837 33.911 37.149 33.911s17.571 14.18 50.403 47.012c25.74 25.895 48.09 47.011 49.477 47.011 3.39 0 6.32-2.927 6.32-6.164 0-1.387-22.503-24.97-50.094-52.561-38.843-38.689-50.096-50.866-50.096-53.794s-5.703-9.558-23.12-26.822c-12.64-12.639-23.121-23.891-23.121-24.816 0-1.08 10.481-12.177 23.12-24.816 16.185-15.877 23.121-23.737 23.121-26.203s14.028-17.417 50.096-53.332c32.986-32.831 50.094-50.866 50.094-53.024 0-3.545-2.774-6.783-6.011-6.783m150.246 2.402c.399.959.898 1.76 1.426 2.222 1.233 1.08 2.312 3.084 2.312 4.471s.925 5.548 2.158 9.402c3.545 11.406 7.09 27.13 7.09 32.062 0 .697.089 1.57.24 2.525l-15.684 3.334c-.297-1.315-.6-2.43-.894-3.24-2.62-6.936-3.238-18.341-1.542-23.428.925-2.62.31-4.315-2.773-7.09-2.158-2.003-4.471-6.012-4.934-8.94-.248-1.448-.845-3.657-1.611-6.145zm-856.046 23.803c2.775 0 4.315.771 4.315 2.312 0 2.62-5.085 18.188-7.86 24.508-1.079 2.158-2.775 4.007-3.854 4.007-2.775 0-5.24-4.931-3.699-7.706.617-1.233 1.54-5.242 2.157-8.788 1.541-10.635 3.855-14.333 8.941-14.333m11.699 4.913h.162q.373.024.779.167c.925.309 1.54 3.393 1.233 6.63-.309 3.236-1.234 6.936-2.159 8.015s-2.157 4.47-2.62 7.553c-.462 3.083-1.542 5.549-2.467 5.703-2.62.308-2.62-9.866-.154-15.261 1.388-2.775 2.466-6.474 2.466-8.016 0-3.005 1.108-4.79 2.76-4.796zm95.58 4.336c-1.541 0-3.39 1.387-4.315 2.928-.77 1.696-1.542 3.853-1.542 4.932 0 .924 24.51 26.203 54.567 55.952 51.02 50.558 54.718 54.566 55.643 60.577.617 3.7.308 8.786-.617 11.56-1.233 3.546-18.496 21.888-55.643 59.035-29.595 29.595-53.95 55.029-53.95 56.416s1.389 3.699 3.084 5.24c3.854 3.391-2.466 9.094 57.956-51.328 36.222-36.223 49.17-48.091 51.945-48.091 4.778 0 31.29-26.668 29.44-29.596-.77-1.08-6.32-7.243-12.64-13.717-7.86-8.17-12.793-12.177-16.184-12.793-3.853-.77-16.184-12.179-55.027-51.022-27.59-27.59-51.33-50.093-52.717-50.093m615.785 0c-1.233 0-24.818 22.35-52.254 49.633-31.599 31.598-51.482 50.403-54.564 51.482-5.395 1.85-29.288 24.814-29.288 28.205 0 1.08 5.704 7.862 12.64 14.952 9.248 9.557 13.72 12.949 16.494 12.949 3.083 0 14.95 10.943 55.18 51.173 50.558 50.557 51.328 51.02 54.411 48.246 1.696-1.541 3.084-4.161 3.084-5.857 0-1.85-19.576-22.505-54.103-56.878-57.648-57.34-57.801-57.648-55.797-69.979.77-4.47 9.556-13.873 54.564-58.881 29.595-29.44 54.258-54.719 54.72-56.106 1.079-3.545-2.004-8.94-5.087-8.94m-769.258 7.77 2.466.898c-.312.598-.993.338-2.466-.898m-1.59 4.56c.77 0 1.234 2.62.926 5.704-.462 6.473-4.317 9.093-4.317 3.081 0-4.932 1.387-8.785 3.391-8.785m917.877 9.065c.365 1.344.797 2.651 1.25 3.728 1.388 3.237 2.313 10.329 2.313 16.494 0 1.827.072 3.695.202 5.464l-16.641 1.163c-.513-2.77-1.063-6.97-1.441-11.407a121 121 0 0 0-1.444-12.092zm-881.582 8.629c.666-.017 1.383.37 2.394 1.112 2.775 2.004 2.776 2.619.31 14.333-.68 3.239-1.33 6.926-1.946 10.949l-8.96-1.26c1.382-12.594 3.217-20.348 5.356-22.945 1.214-1.474 1.988-2.167 2.846-2.19m13.73 3.393c2.38-.047 2.307 8.276-.082 15.443-1.387 4.008-2.468 10.329-2.468 14.182-.154 3.854-.925 10.173-1.696 14.026-2.774 11.407-4.316 57.801-2.928 81.693 1.387 24.508 3.545 41.772 6.936 57.032 1.233 5.549 2.775 13.41 3.391 17.726.218 1.712.531 3.454.906 5.145l-27.931 6.964c-.487.077-.95.188-1.37.342l-3.81.95c-.794-1.136-1.646-3.95-3.246-9.549-7.86-27.745-13.101-116.218-8.785-147.2.77-6.012 1.385-14.182 1.54-18.19 0-4.162.772-8.938 1.851-10.788.4-.798.826-2.316 1.196-4.19l4.067.571a5.7 5.7 0 0 0 .594 2.693c.925 1.696.77 4.471-.463 7.862-1.387 3.7-1.85 20.19-1.85 59.342 0 50.095.153 54.566 2.774 57.032 2.312 2.466 2.93 2.467 4.317.463.77-1.233 1.232-4.78.77-7.709-3.237-23.429-1.85-87.703 2.312-109.59.585-2.927 1.17-6.157 1.56-8.685l8.883 1.248c-4.336 30.845-6.7 78.073-4.74 100.69 1.542 15.876 3.7 22.813 5.704 17.726.462-1.233.924-23.738 1.233-50.096.154-32.677.926-48.554 2.005-50.095.924-1.233 1.848-7.397 2.002-13.717.154-6.782 1.079-12.795 2.466-14.798 1.079-1.85 2.313-6.166 2.621-9.711s1.232-6.473 2.003-6.781q.123-.029.238-.031m91.322 3.576c-.309 0-1.543 1.387-2.622 3.082-4.162 6.782-2.62 8.94 36.686 48.09 21.271 21.118 38.533 39.615 38.533 41.002 0 1.541-17.262 20.037-38.533 41.154-25.741 25.587-38.535 39.46-38.535 41.618.154 3.236 4.007 9.558 5.24 8.325 15.877-14.798 90.325-90.325 90.325-91.404 0-1.542-89.399-91.867-91.094-91.867m644.537 2.086c-2.826.068-11.5 8.381-46.019 42.767-24.662 24.816-45.009 46.087-45.009 47.474 0 2.775 87.86 91.097 90.634 91.097 2.313 0 4.008-6.627 2.775-11.251-.462-1.85-17.88-20.346-38.689-41-20.808-20.656-37.763-38.381-37.763-39.306s17.416-19.114 38.533-40.231c40.076-40.076 41.62-42.235 36.533-49.017-.212-.308-.481-.503-.865-.53h-.13zm136.155 11.837c.322 2.33.754 4.179 1.253 5.034 1.233 2.158 2.003 11.715 2.312 24.817.063 2.648.123 4.956.188 7.019l-18.47.645c-.218-18.54-.694-33.36-1.28-36.396zm-954.099 19.99c-3.083 0-3.238 1.234-4.934 23.43-2.312 29.903-2.466 28.36 1.233 32.06 3.39 3.39 11.406 4.163 13.256 1.389.462-.925 1.234-8.017 1.542-15.878.308-7.707.924-18.65 1.386-24.354l.926-10.48-5.087-3.083c-2.774-1.695-6.473-3.084-8.322-3.084m164.464 9.248c-.616 0-1.85.773-2.928 1.852-1.08 1.079-1.85 3.853-1.85 6.473 0 3.7 3.082 7.551 16.955 21.732 9.402 9.403 16.957 17.882 16.957 18.653 0 .925-7.555 9.401-16.957 18.803-13.718 13.873-16.954 18.035-16.954 21.735 0 2.466 1.078 5.24 2.465 6.473 2.158 1.696 5.395-1.08 25.433-21.118 12.64-12.793 22.967-24.2 22.967-25.433 0-2.158-43.93-49.17-46.088-49.17m663.282 1.958c-3.038-.064-9.05 5.683-24.223 20.856-12.793 12.793-22.658 23.89-22.658 25.586 0 4.008 9.711 15.106 29.441 33.449 16.185 14.951 17.263 15.72 19.267 12.946 1.233-1.541 2.158-4.315 2.158-5.857 0-1.695-7.553-10.634-17.726-21.115-9.711-10.02-17.727-18.653-17.727-19.27 0-.77 7.244-8.477 16.184-17.263 17.418-17.263 19.884-20.654 18.497-24.97-.848-2.702-1.622-4.329-3.213-4.362m130.245 9.529c.414 9.682 1.113 11.727 3.37 14.102 3.083 3.237 3.238 4.624 2.159 20.962-1.08 20.038-3.083 32.83-6.32 43.004-1.233 3.853-2.93 11.408-3.701 16.957-.77 5.394-2.312 14.334-3.545 19.883-2.158 9.864-3.081 13.409-7.86 28.514-1.387 4.162-2.467 9.25-2.467 11.1s-.616 3.699-1.387 4.315c-.77.462-1.849 2.928-2.465 5.394-1.542 6.936-5.242 8.17-12.95 4.47-3.39-1.695-6.32-3.853-6.32-5.086 0-1.08 1.39-6.011 3.085-11.098 6.011-17.418 13.871-53.177 17.724-81.539 1.85-14.335 2.467-29.133 2.159-63.968-.013-2.157-.031-4.271-.052-6.362zm-579.427 59.418c-.463 0-14.643 14.026-31.753 31.29-20.654 20.808-31.291 32.678-32.062 35.606-.77 3.083-13.562 16.802-40.845 43.93-54.565 54.257-55.029 54.72-52.87 59.497.924 2.158 2.929 3.852 4.47 3.852s23.584-20.808 49.016-46.241c29.595-29.595 47.474-46.242 49.478-46.242 3.545 0 33.139-27.59 52.098-48.553l13.103-14.333-3.238-8.325c-2.775-7.245-4.931-10.481-7.397-10.481m232.131 0c-1.387 0-3.544 2.62-4.931 5.703-5.857 14.027-7.09 12.024 26.666 45.472 21.425 21.27 31.752 30.517 34.064 30.517 2.467 0 16.646 13.257 48.86 45.472 24.971 24.97 46.859 46.086 48.555 47.011 2.312 1.233 3.237.926 4.624-1.386.77-1.695 1.542-4.163 1.542-5.55 0-1.541-20.654-23.274-45.779-48.707-30.827-30.828-46.395-47.629-47.474-50.866-1.696-5.549-62.427-67.666-66.127-67.666m-612.093 12.69c-1.426-.017-2.534.247-2.92.873-.616.925.156 12.641 1.389 26.051 2.62 26.512 3.852 29.594 12.484 30.21 4.316.31 4.47.155 4.933-7.552.617-11.406-3.545-43.775-6.166-46.241-1.907-1.908-6.583-3.306-9.72-3.342m1004.53 16.597c.925 0 1.233 1.541.617 3.391-.463 2.004-.926 5.239-1.08 7.397q-.23 3.93-1.386-2.312c-1.233-6.474-.926-8.476 1.849-8.476m-607.304 5.394-30.213 30.057c-23.737 23.737-30.21 30.982-30.21 34.065s-3.545 7.553-15.106 18.496c-8.17 8.016-21.889 21.734-30.366 30.674s-22.504 22.813-31.29 30.982c-8.632 8.17-15.722 15.875-15.722 17.108 0 2.467 4.778 7.4 7.09 7.4.77 0 21.888-20.502 46.858-45.472 35.452-35.452 46.243-45.47 49.326-45.47 2.928 0 10.634-6.627 32.83-28.977 18.034-18.189 28.824-30.06 28.824-31.909 0-1.695-2.774-6.164-6.01-10.018zm198.838.616-5.55 5.704c-9.402 9.71-9.093 10.327 22.968 42.234 17.726 17.725 29.902 28.669 32.06 28.977 2.312.309 19.884 16.8 48.862 45.779 24.97 24.97 46.549 45.472 47.782 45.472 3.39 0 6.166-3.082 6.166-6.627 0-1.85-17.263-20.347-45.779-49.017-28.361-28.207-45.934-47.013-45.934-48.863 0-2.774-26.974-31.752-50.403-53.948zM718.161 622.5c-.771.154-3.083 1.542-5.241 3.238s-5.088 4.161-6.476 5.24c-1.541 1.233-2.772 3.391-2.772 4.624 0 3.391 57.492 60.884 61.037 60.884 4.316.154 5.55 1.233 53.178 48.554 24.2 24.2 45.01 43.93 45.935 43.93 3.39 0 7.86-3.236 7.86-5.548 0-1.388-20.654-23.275-46.086-48.554-31.29-31.444-46.242-47.474-46.858-50.403-.617-2.774-10.637-13.874-29.904-33.141-16.03-15.876-29.748-28.824-30.673-28.824m-147.203 1.542c-1.233 0-14.952 12.792-30.674 28.515-16.955 16.8-29.44 30.674-30.827 33.911-1.387 3.391-19.114 22.196-46.55 49.786-24.509 24.508-44.393 45.471-44.393 46.858s1.696 3.547 3.854 4.934l4.008 2.62 45.779-45.78c28.978-28.978 47.784-46.55 51.175-47.937 7.398-3.083 61.654-57.184 61.654-61.5 0-3.391-9.71-11.407-14.026-11.407m35.88 19.967c-.123 0-.248 0-.375.01-5.18.285-12.967 7.625-36.122 30.89-20.038 20.038-30.674 31.753-30.366 33.602.308 1.696-15.413 18.498-45.932 48.863-25.433 25.433-46.242 47.32-46.242 48.554 0 3.39 3.084 6.164 6.783 6.164 1.85 0 20.038-17.109 49.786-47.012 34.99-35.143 47.782-47.011 50.557-47.011 2.62 0 12.022-8.325 35.297-31.909 18.343-18.342 31.753-32.985 31.753-34.68 0-1.85-1.08-2.774-3.392-2.774-2.003 0-4.931-1.078-6.473-2.312-1.87-1.422-3.417-2.363-5.274-2.383zm76.542.03h-.246c-1.736.066-3.24.922-5.05 2.194-1.696 1.233-4.624 2.467-6.628 2.775-2.158.154-4.008 1.387-4.47 2.465-.309 1.08 13.874 16.495 31.445 34.221 25.587 25.587 32.984 32.37 36.221 32.37 3.083 0 6.937 3.08 15.568 11.867 6.32 6.628 27.592 27.899 47.168 47.32 32.06 31.753 35.913 35.143 39.459 34.219 8.785-2.158 5.702-6.165-42.08-53.948-35.452-35.452-45.78-46.705-45.163-49.017.463-2.158-6.628-10.173-29.903-33.602-23.67-23.783-31.125-30.847-36.321-30.87zm-38.899 12.372c-2.003 0-14.797 11.714-36.993 33.756-25.433 25.586-33.447 34.372-32.676 36.376s-10.791 14.337-47.63 51.022c-26.666 26.666-48.554 49.016-48.554 49.786 0 1.388 6.784 6.32 8.788 6.32.616 0 23.274-22.196 50.556-49.17 29.595-29.595 51.483-50.096 54.72-51.638 2.929-1.233 15.414-12.022 27.745-23.89 12.177-12.023 23.428-21.735 24.66-21.735 1.388 0 12.487 10.02 24.664 22.35 13.564 13.411 23.892 22.505 26.358 23.122 2.62.616 22.35 18.958 54.564 51.019 27.745 27.437 51.33 49.942 52.408 49.942.925 0 3.235-1.541 5.085-3.545l3.238-3.547-48.4-48.398c-36.84-36.839-48.554-49.48-48.554-52.254 0-4.778-65.046-69.516-69.979-69.516m-461.29 7.524c.405 1.934 1.032 3.42 1.803 4.19 1.233 1.387 2.312 4.163 2.312 6.166 0 6.012 10.79 38.073 24.817 73.833 2.382 6.24 4.51 12.052 5.47 15.122l-8.237 4.38c-1.42-1.153-4.2-1.777-8.021-1.777-3.854 0-9.405-4.007-9.405-6.627 0-.463-2.464-6.32-5.547-12.793-5.857-12.177-5.704-14.335 1.233-14.49 4.007 0 4.623-2.466 2.002-8.631-1.233-3.083-2.312-6.784-2.312-8.325 0-1.387-1.386-4.469-3.082-6.627s-3.082-6.165-3.082-9.248-.617-6.011-1.542-6.474c-.77-.462-1.542-3.083-1.542-5.55 0-2.928-1.541-6.011-4.008-8.631-2.774-2.775-3.39-4.47-2.312-5.548 1.314-1.314 1.78-3.326 1.375-6.457zm20.855.221c.861.07 2.452 1.238 3.915 3.352 2.775 3.853 3.238 11.406 1.08 12.793-.925.462-2.004-1.694-2.466-4.931s-1.543-7.09-2.468-8.632c-.944-1.686-.854-2.516-.223-2.58a.4.4 0 0 1 .162 0zm903.928 14.066 3.509 1.006c-2.27 2.112-2.491 1.977-3.353-.466a3 3 0 0 1-.156-.54m-40.562 3.016c.119 0 .237 0 .353.01 1.87.096 3.526 1.06 5.53 2.91 4.008 3.7 4.316 6.628 1.08 9.865-1.696 1.541-3.546 1.85-6.783.926-11.407-3.237-14.026-7.554-6.627-11.407 2.673-1.517 4.668-2.29 6.447-2.302zm-855.097 11.123c.367-.058 1.109 1.014 2.583 3.355 1.541 2.62 3.545 7.245 4.624 10.482 1.079 3.082 2.62 6.01 3.391 6.473 1.85 1.233 1.85 9.557-.153 10.79-.771.463-1.852-1.079-2.468-3.391-.617-2.312-2.003-5.704-3.082-7.4-1.233-1.695-2.159-5.24-2.159-8.015 0-2.62-.615-5.394-1.54-5.857-.77-.462-1.542-2.465-1.542-4.314 0-1.35.06-2.078.346-2.123m842.33 5.667c.617 0 3.853 1.697 7.552 3.855 6.474 3.853 6.474 3.852 4.778 9.555-.925 3.237-2.93 7.554-4.47 9.558 0 0-.01.01-.01.012l-15.593-8.29c.315-.802.496-1.463.496-1.897 0-2.62 5.859-12.793 7.246-12.793zm-410.317 10.945c-1.696 0-8.478 5.395-14.952 12.023-8.17 8.17-12.023 13.101-12.023 15.568 0 2.62-13.101 16.646-51.636 55.18-28.361 28.516-51.636 52.407-51.636 53.178 0 2.004 4.932 5.55 7.707 5.704 1.387 0 26.665-24.2 56.26-53.641 59.034-58.727 59.19-58.728 72.446-55.337 6.166 1.696 12.793 7.708 60.73 55.337 29.75 29.594 55.027 53.64 56.26 53.64 1.08 0 3.7-1.387 5.704-2.928l3.698-3.082-51.945-52.1c-33.756-33.757-52.098-53.177-52.098-55.181 0-4.162-24.508-28.516-28.515-28.361m435.44 6.01c2.62 0 2.93.772 2.159 4.317-.463 2.312-2.313 6.01-3.854 8.322q-.41.617-.793 1.247l-5.715-3.039c3.974-8.18 5.943-10.847 8.203-10.847m-34.559 1.198 15.35 8.162c-.511 1.172-.827 2.27-.827 2.972 0 6.782-8.016 7.4-16.031 1.08l-4.161-3.392 3.852-5.857a46 46 0 0 0 1.817-2.965m-819.367 11.904 3.854 4.625c2.004 2.466 3.852 5.703 3.852 6.936s1.079 3.699 2.312 5.24c1.455 2.001 2.266 5.182 2.243 7.454l-2.947 1.568c-2.525-2.79-6.232-9.9-6.232-12.72 0-1.542-.615-3.392-1.54-3.854-.771-.463-1.542-2.775-1.542-5.087zm844.132 1.264 5.518 2.934c-.22.557-.348 1.026-.348 1.352 0 .925-1.387 4.007-2.928 6.627-.537.912-1.28 2.354-2.117 4.091l-4.21-2.238c0-.103.01-.203.01-.31 0-1.824 1.765-7.063 4.079-12.456zM239.46 756.696c1.008.058 2.48 1.718 3.954 4.839 1.387 2.62 2.313 5.086 2.005 5.24-1.388 1.388-7.246-4.625-7.246-7.245 0-1.956.503-2.879 1.287-2.834m-20.75 10.322c.459.86 1.157 1.884 1.976 2.898l-7.533 4.006c-.084-.069-.165-.137-.257-.21-.857-.667-1.596-1.628-2.037-2.52zm425.772 1.916c-2.312 0-16.8 13.562-47.628 44.39-24.353 24.354-44.238 45.01-44.238 45.934 0 2.775 3.545 5.241 7.399 5.241 2.774 0 13.411-9.557 43.006-39.305 21.733-21.58 40.537-39.306 41.924-39.306s20.192 17.726 41.771 39.306c35.606 35.76 39.768 39.304 43.93 38.996 10.635-1.08 7.86-4.623-38.69-51.173-30.519-30.52-45.162-44.083-47.474-44.083m-421.251 3.994c1.316 1.792 2.038 3.507 1.686 4.328-1.233 3.391-7.861 6.013-12.177 4.934l-4.007-1.08 1.706-1.38zm30.065 8.492c1.039-.038 2.681 1.753 4.762 5.394 1.857 3.095 2.95 5.883 3.169 7.7l-2.461 1.538c-2.748-1.998-6.72-8.284-6.72-11.243 0-2.225.443-3.36 1.25-3.389m-25.633 11.77c3.595 0 9.778 4.678 12.669 10.579a103 103 0 0 0 1.593 2.806l-11.696 7.308a3.7 3.7 0 0 0-1.304-.25c-2.312 0-3.083-.926-2.929-2.621.309-1.542 0-5.393-.77-8.63-.616-3.083-.463-6.782.154-8.015.472-.81 1.276-1.176 2.283-1.176m35.386 7.492c1.662.032 4.77 3.375 5.69 6.224l-1.936 1.306a18 18 0 0 1-1.808-1.515c-2.313-2.158-3.546-4.47-2.776-5.55a.86.86 0 0 1 .646-.454q.089-.014.184-.01zm-19.116 9.182c1.097 1.73 2.177 3.323 3.028 4.386 1.54 1.895 2.803 3.877 3.307 5.115l-10.147 6.844c-1.544-1.715-3.969-5.053-5.34-7.642-.434-.791-.9-1.5-1.386-2.118zm-26.654 4.45c1.522.01 2.397 1.569 2.397 4.56 0 .455.083.95.226 1.463l-3.488 2.179c-.211-.44-.457-.928-.745-1.484-2.004-3.853-2.002-4.933-.46-6.012.78-.477 1.474-.71 2.07-.706m427.203 2.401c-.924 0-13.102 11.562-27.128 25.59-21.117 21.27-24.97 25.893-23.737 28.051.924 1.387 3.392 2.774 5.55 3.082 3.236.308 7.55-3.235 24.044-19.574 10.944-11.098 20.501-20.192 21.118-20.192s10.326 8.938 21.578 20.036c14.952 14.644 21.426 20.04 24.2 20.04 3.391 0 7.4-2.467 7.4-4.625 0-1.85-51.175-52.408-53.025-52.408m313.913 12.929h-.242c-2.92.167-8.332 4.36-18.188 13.579-8.323 7.86-19.575 17.725-24.97 22.041-10.79 8.632-43.774 31.445-53.33 36.994-10.02 5.857-42.697 22.041-49.325 24.353-3.39 1.233-15.876 5.858-27.745 10.174-11.868 4.316-22.659 7.862-24.046 7.862s-6.01.923-10.018 2.157c-20.655 6.011-49.787 10.637-73.833 11.716l-20.039.77v7.706l16.185-.307c31.752-.309 70.75-7.552 110.21-20.346 39.459-12.793 65.662-25.433 101.73-49.17 34.836-22.967 77.686-59.962 75.99-65.357-.452-1.4-1.194-2.15-2.379-2.177z"/>
</svg>
