<svg xmlns="http://www.w3.org/2000/svg" width="1570" height="960">
    <path d="M433.415 604.156c.89 5.344 2.672 12.024 4.23 15.141 1.56 3.117 4.009 9.352 5.345 13.805 2.671 8.239 2.449 8.907-8.462 25.606-6.234 9.352-11.356 18.259-11.356 19.817 0 1.56 6.903 3.118 18.927 4.231 15.809 1.336 20.262 2.45 25.606 7.125 3.785 3.118 6.68 6.68 6.68 8.016s1.559 4.23 3.563 6.457c5.343 5.79 4.453 18.704-2.45 33.845-3.117 7.125-5.344 14.473-4.453 16.255 1.113 3.34 2.45 3.34 33.622-.668 7.57-1.114 10.243-.223 16.032 4.676 6.457 5.343 7.348 10.91 2.672 14.473-3.785 2.672-25.384 21.598-28.724 24.715-2.004 2.004-20.04 16.923-40.302 33.4-64.572 52.548-102.202 79.713-125.804 89.956-10.465 4.676-12.247 4.898-14.696 2.004-6.903-8.462 14.25-50.99 70.584-141.169 11.356-18.48 9.13-20.04-6.012-4.23-36.74 38.298-75.483 92.627-92.182 128.699-13.583 29.169-2.895 53.662 23.38 53.662 9.129 0 32.508-5.122 39.633-8.684 2.227-1.114 10.91-5.121 19.372-9.352 43.197-20.485 124.914-75.928 185.924-126.027 8.46-7.126 16.031-11.579 18.258-11.134 7.793 2.004 30.728 18.481 31.84 22.712.669 2.45 2.005 12.024 2.896 21.153 2.004 20.708 4.007 21.376 22.934 8.684 15.14-10.465 23.825-11.801 36.294-5.79 3.785 2.005 8.461 4.009 10.465 4.454 1.781.668 5.121 6.903 7.348 14.028 5.79 18.48 9.797 27.61 12.246 27.61 1.114 0 8.462-6.68 16.255-14.696l14.028-14.696 15.14 1.114c16.7 1.113 20.931 3.785 27.834 16.922 8.906 16.7 12.691 22.49 15.14 22.49 1.337 0 6.68-7.571 11.802-16.478 5.121-9.13 10.91-17.813 12.692-19.372 1.78-1.336 10.242-3.117 18.926-3.785l15.809-1.113 14.25 15.364 14.25 15.363 4.454-5.344c2.45-2.894 4.453-6.902 4.453-8.906s2.004-9.13 4.231-15.81c3.34-9.574 5.567-12.468 10.243-13.804 3.117-.668 7.125-2.672 8.906-4.008 1.559-1.336 7.125-2.672 12.024-2.895 7.348-.223 11.578 1.559 22.266 9.13 17.813 12.468 21.376 12.246 23.38-.891.668-5.79 1.336-13.805 1.336-17.813s.668-8.907 1.336-10.911c1.558-3.563 30.282-23.38 33.845-23.38.89 0 8.015 5.122 16.031 11.356 58.115 44.978 144.954 106.656 150.075 106.656.668 0 8.461 4.23 17.368 9.574 43.865 25.607 72.143 33.4 91.515 25.161 12.914-5.344 15.363-10.242 14.473-27.387-1.114-18.481-3.563-24.27-21.153-54.107-14.919-25.161-44.088-63.237-71.253-93.074-23.157-25.383-24.715-21.598-4.007 9.575 24.047 35.849 59.228 100.644 64.794 118.902 2.672 9.13 2.672 10.465-.445 12.915-9.13 6.902-58.115-24.939-134.488-87.284-46.982-38.298-77.932-65.909-77.932-69.694 0-1.781 2.672-5.79 5.789-8.684 5.121-4.676 7.57-5.344 15.14-4.23 33.178 4.453 34.736 4.453 34.736-.668 0-2.45-2.449-10.243-5.566-17.145-7.57-17.146-7.348-25.83 1.558-37.408 10.466-13.582 11.356-14.028 31.841-15.809 10.465-.89 19.372-2.227 20.04-3.117.445-1.114-3.563-8.684-9.13-17.145-14.027-20.93-14.25-22.267-9.351-35.181 2.45-6.235 5.121-14.473 6.234-18.036.891-3.785 2.45-8.461 3.34-10.688.891-2.004.668-3.785-.222-3.785-4.676.223-8.239 4.453-9.797 12.47-4.676 22.934-29.17 75.26-47.428 100.866-16.254 22.934-39.856 50.099-44.755 50.99-4.23.89-14.696-7.571-14.696-12.024 0-1.336 4.676-7.57 10.243-13.36 14.473-15.587 31.618-38.966 44.978-61.678 6.457-10.91 11.578-20.262 11.578-20.93 0-.89 2.45-6.457 5.344-12.692 8.461-17.59 15.141-38.743 13.36-41.638-2.004-3.34-34.958-1.559-39.411 2.004-1.782 1.559-5.567 8.907-8.24 16.7-6.234 17.145-17.367 37.853-32.063 59.45-13.36 19.818-54.552 61.679-68.802 69.917-15.81 9.352-15.141 11.801 9.797 32.509 19.594 16.032 26.497 24.493 20.04 24.493-1.114 0-3.563 1.336-5.122 2.672-9.574 8.906-50.099 28.946-81.94 40.747-22.489 8.239-61.455 17.368-70.361 16.255-5.79-.668-6.458-1.56-7.126-9.798-.668-10.465 2.45-12.914 20.93-15.363 34.736-4.899 103.316-31.173 103.316-39.412 0-3.34-24.715-26.274-28.5-26.274-.891 0-11.579 3.785-23.825 8.684-32.51 12.469-61.455 19.594-94.632 22.934l-5.567.668-1.113 29.837c-1.113 27.165-1.559 29.837-5.567 31.395-2.449.891-6.457.891-8.906 0-4.008-1.335-4.453-4.007-5.567-31.395l-1.113-29.837-12.247-1.559c-33.622-4.453-57.224-10.242-83.276-20.262-9.797-3.785-19.594-6.68-21.82-6.68-4.008.446-30.728 22.267-30.728 25.161 0 2.227 20.04 12.692 36.294 18.927 18.926 6.902 50.767 15.809 65.018 17.813 16.922 2.449 19.371 4.23 18.48 15.14-.667 8.462-1.335 9.353-7.347 10.02-3.563.446-13.137-.89-21.153-2.894-36.517-9.13-41.638-10.465-47.427-13.583-3.563-1.78-7.794-3.117-9.798-3.117-1.781 0-6.012-1.336-9.129-3.117-3.34-1.781-16.254-8.239-28.946-14.473-26.497-13.137-42.974-24.048-41.415-28.056.668-1.336 7.793-8.016 15.809-14.696 26.942-22.043 28.278-23.156 26.051-26.942-1.113-2.004-8.46-8.461-16.254-14.25-39.189-29.392-79.045-81.05-93.741-121.574-7.57-20.485-9.797-22.267-30.728-23.603-10.02-.445-18.258 0-18.926 1.114-2.672 4.23 18.036 54.33 33.4 80.826 8.238 14.25 34.512 48.764 43.864 57.67 4.453 4.23 8.016 10.02 8.016 12.692 0 4.899-8.461 12.024-14.25 12.024-8.462 0-51.436-58.115-67.468-91.292-6.68-14.028-13.582-28.501-15.363-31.84-1.782-3.563-3.118-8.017-3.118-10.243 0-2.004-1.558-5.79-3.34-8.239-1.78-2.227-3.34-7.348-3.34-11.133 0-6.457-3.34-12.024-7.125-12.024-1.113 0-1.113 4.23-.445 9.352m338.003-156.31c-3.786 1.114-11.356 6.235-16.923 11.134-12.246 10.465-20.93 30.727-19.149 44.087 3.785 27.388 27.833 49.431 54.107 49.431 19.15 0 36.072-9.797 47.205-27.61 5.121-7.793 6.012-11.579 6.012-26.052 0-14.918-.89-18.258-6.68-27.833-10.243-16.477-21.821-23.38-41.638-24.492-8.684-.446-19.15.222-22.934 1.335M340.342 6.751c-7.125 6.457-7.348 6.902-7.348 25.383.223 20.263.89 22.712 18.48 59.452 20.709 43.419 60.788 102.647 116.676 173.009 10.91 13.805 19.595 25.829 19.15 26.72-.223 1.113-5.122 8.46-10.688 16.699-10.688 16.254-10.466 16.032-36.295 18.704-9.574.89-15.809 2.449-16.477 4.453-.667 1.781 2.45 7.793 6.68 13.582 12.915 18.036 15.141 23.603 12.247 32.064-6.457 19.817-9.352 22.712-27.61 28.946-24.27 8.239-24.939 10.02-8.016 25.384l13.805 12.692v17.59c0 14.696-.668 17.813-4.23 19.594-8.907 4.899-157.869-9.574-212.867-20.707-32.063-6.458-47.872-12.692-47.872-18.927 0-8.016 64.795-31.395 111.331-40.302 5.567-.89 12.915-2.894 16.255-4.23 3.562-1.336 8.906-2.45 12.024-2.45s8.683-1.336 12.469-3.117c4.008-1.781 10.02-3.785 13.582-4.676 3.34-.668 5.79-2.004 4.899-2.672-2.004-2.004-77.932 3.785-96.859 7.348-8.906 1.781-18.926 3.117-22.043 3.117-5.344 0-15.141 2.45-44.533 11.356-32.063 9.797-42.751 19.595-42.751 39.189 0 11.578.668 13.137 8.906 21.153 8.907 8.461 47.205 28.5 54.553 28.5 2.004 0 5.566 1.114 8.016 2.45 15.809 8.239 102.202 25.384 173.454 34.067 58.56 7.126 145.4 16.032 172.341 17.59 8.239.446 8.907.892 11.801 10.466 10.243 32.954 13.138 40.747 21.821 57.224 20.93 39.857 54.998 75.929 91.292 96.636 38.966 22.49 80.159 33.845 122.465 33.845 63.014 0 124.469-24.938 168.779-68.58 10.02-10.02 30.504-34.958 36.516-44.533 9.13-14.696 23.38-47.204 27.61-63.459 2.673-10.465 5.344-19.371 5.79-20.04.668-.667 9.574-1.78 20.262-2.449 108.214-8.238 227.562-24.047 285.454-37.63 61.455-14.696 93.296-26.942 110.218-42.528 9.798-9.13 10.02-9.575 10.02-23.38 0-12.915-.668-14.696-7.347-21.376-19.595-19.371-88.62-34.29-178.576-38.52-19.372-.891-22.935-.446-16.7 1.335 4.23 1.336 11.133 3.786 15.141 5.567s10.02 3.117 13.137 3.117 11.133 1.559 17.813 3.34c6.457 1.782 17.145 4.676 23.602 6.458 40.525 10.687 72.143 20.707 84.39 26.719 14.25 7.125 18.926 13.583 11.356 16.032-2.227.668-5.567 2.004-7.348 2.894-5.79 3.118-27.165 8.684-46.982 12.247-60.787 11.133-195.944 23.602-205.073 18.704-3.34-1.56-4.008-5.122-4.008-19.372V444.06l14.25-12.692c8.907-7.793 14.028-14.027 13.36-15.809s-9.797-5.789-20.04-9.129c-17.59-5.566-19.148-6.457-23.602-15.141-8.015-15.586-6.68-26.72 5.567-44.31 5.79-8.461 10.02-16.032 9.352-17.145s-9.575-2.45-20.04-3.34c-20.04-1.781-28.278-5.566-32.509-15.364-1.113-2.449-4.453-8.238-7.348-12.691l-5.343-7.794 7.125-9.352c65.24-86.393 87.061-116.675 100.42-138.941 34.291-57.67 40.08-69.026 46.983-94.855 4.008-14.918 4.008-20.485-.223-31.173-11.356-28.5-52.326-19.371-111.332 24.939-39.41 29.391-85.725 70.361-79.713 70.361 3.34 0 10.02-3.785 31.841-18.035 22.712-15.142 71.697-43.197 89.956-51.881 17.813-8.461 32.954-12.914 35.626-10.242 3.117 3.117-1.781 16.922-11.356 32.954-9.352 15.14-44.755 65.685-51.212 72.81-2.227 2.45-12.024 14.474-21.821 26.72-9.798 12.247-18.704 23.38-20.04 24.716-1.113 1.336-12.692 14.695-25.384 29.614-12.914 14.696-24.715 26.942-26.497 26.942-4.453 0-13.805-10.465-13.582-15.141 0-2.004.89-11.801 1.781-21.598 2.227-19.817.891-22.267-8.46-17.813-21.822 10.91-35.404 13.137-42.084 7.125-2.227-2.227-5.122-3.785-6.457-3.785-1.336 0-4.899-2.895-8.016-6.458-4.23-5.121-5.567-9.797-6.68-24.938-.89-10.02-2.45-19.372-3.34-20.262-1.114-1.114-9.575 3.117-19.15 9.574-15.808 10.465-18.035 11.356-26.273 10.02-4.899-.89-12.47-3.34-16.923-5.567-7.348-3.785-8.906-6.011-13.582-21.152-2.895-9.352-6.68-18.704-8.684-20.486-3.117-3.34-4.676-2.226-16.7 11.134l-13.137 14.695h-14.918c-18.704 0-21.599-2.004-34.068-23.38-5.121-9.128-10.688-16.699-11.801-16.699-1.336 0-5.79 6.68-10.02 14.696-12.469 23.602-14.696 25.383-33.845 25.383h-16.254l-12.915-14.473c-7.347-8.016-13.805-14.473-14.695-14.473-2.45 0-9.13 12.692-9.13 17.368 0 2.45-2.003 8.906-4.453 14.473-4.898 11.356-12.246 16.032-27.387 18.258-8.462 1.336-10.91.446-24.939-8.683-22.043-14.474-22.489-14.474-24.27 10.242-1.336 18.926-2.004 21.153-7.57 25.606-3.34 2.672-6.903 4.899-8.016 5.122-1.114 0-4.008 1.558-6.235 3.785-4.898 4.23-17.368 4.23-25.829 0-12.024-6.457-22.266-10.243-23.602-8.907-2.227 2.227-1.559 23.38.89 31.841 3.34 11.133-4.007 24.27-13.36 24.493-2.003 0-12.023-10.242-22.266-22.712-10.465-12.246-20.485-24.047-22.266-26.051s-11.356-13.583-21.153-25.83-19.149-23.824-20.93-25.605-11.356-14.25-21.598-27.833c-33.4-44.533-53.662-80.604-48.318-85.948 5.121-5.121 47.204 14.25 96.19 43.864 13.805 8.462 26.942 16.255 28.946 17.59 2.004 1.114 6.68 4.454 10.243 6.903 3.785 2.672 10.02 6.458 14.028 8.462l7.347 3.785-2.671-5.121c-7.348-14.25-78.378-70.14-114.45-90.179C380.867 2.298 375.3.294 360.605.294c-11.356 0-14.028.89-20.262 6.457M795.02 175.53c.668 16.031 1.781 29.836 2.45 30.727.89.668 12.468 2.895 25.605 4.676 80.827 11.356 150.075 51.212 196.835 113.335 6.457 8.462 12.914 16.255 14.473 17.368 3.562 2.004 6.012-.445 25.16-23.38 7.794-9.574 15.81-17.367 18.036-17.367 5.79 0 23.603 30.06 38.744 64.572 13.805 32.064 23.157 68.58 25.383 97.75 1.336 20.262.446 22.488-11.133 22.488-7.57 0-9.574-4.008-12.469-28.5-4.008-31.396-15.81-72.366-27.165-94.41-1.558-2.894-3.34-6.68-4.23-8.461-3.118-6.903-8.239-4.23-20.04 10.242l-11.801 14.696 5.12 13.583c14.251 38.298 24.271 89.956 18.26 93.74-1.114.669-12.692 1.337-25.83 1.56-17.59.445-24.493-.223-25.828-2.45-.891-1.558-2.45-9.797-3.118-18.258-2.45-24.716-14.918-59.897-30.282-85.948-15.586-26.497-49.654-62.791-72.365-77.487-46.314-30.06-95.078-43.197-149.185-40.302-86.17 4.899-159.872 52.549-200.397 129.145-11.355 21.598-22.488 56.556-24.492 77.932-1.114 10.465-2.672 15.586-5.344 16.922-2.004.89-13.805 1.336-26.497.668-17.368-.668-23.38-1.781-24.27-4.23-1.56-3.786 2.671-32.732 7.57-50.768 3.34-12.469 10.465-34.067 17.368-52.325 2.672-6.903 2.449-8.462-.891-14.028-4.899-7.57-20.04-23.825-22.489-23.825-5.344 0-23.602 43.42-32.063 75.928-2.895 11.356-6.68 29.837-8.016 40.97-1.336 10.91-3.563 21.153-4.899 22.712-2.894 3.562-13.36 3.785-16.922.222-3.118-3.117-3.563-29.391-.446-34.958 1.114-2.226 3.118-10.02 4.231-17.145 3.34-18.481 10.02-40.97 17.145-57.67 6.012-14.25 25.606-53.661 29.837-60.119 2.45-3.785 5.121-8.016 5.79-9.574.667-1.336 3.562-2.672 6.234-2.672 3.34 0 9.352 6.012 20.262 19.817 10.243 13.36 17.145 20.04 20.262 20.04 3.118.222 7.794-4.231 14.696-13.806 11.579-15.586 42.306-46.536 57.447-57.892 44.978-33.4 84.612-49.654 142.06-58.115 12.468-1.781 23.824-4.008 24.938-4.676 1.336-.89 2.226-13.582 2.226-30.06 0-30.727.223-31.172 12.247-30.504l6.68.445zm-49.654-25.607c2.45 4.23.668 16.032-2.895 18.704-1.781 1.336-8.46 3.34-14.918 4.008-14.473 2.004-38.966 8.461-54.998 14.696-6.68 2.672-14.028 5.344-16.254 6.012-10.91 3.34-64.795 33.399-68.358 38.298-.668.89-7.125 6.234-14.473 11.8s-16.254 13.36-19.817 17.146c-8.016 8.238-12.246 8.684-18.926 1.558s-5.122-11.578 9.352-23.824c14.027-12.024 45.868-36.295 50.544-38.299 1.781-.89 8.461-4.675 14.473-8.46 6.235-3.563 14.696-8.24 18.927-10.02 4.23-2.005 12.914-5.79 18.926-8.684 13.36-6.012 26.497-10.466 44.533-15.142 40.97-10.91 50.99-12.246 53.884-7.793m104.874.89c37.853 8.907 44.31 10.466 50.99 13.36 3.785 1.782 8.907 3.118 11.356 3.118 2.45 0 5.567 1.559 7.125 3.34 1.559 1.781 4.23 3.34 6.235 3.34 4.676 0 43.419 20.93 59.228 32.063 22.712 16.032 53.662 42.529 54.33 46.76.89 4.453-7.57 14.695-12.47 14.695-1.78 0-10.464-6.902-19.594-15.363-41.192-38.298-105.987-69.917-162.321-79.046-17.59-2.894-21.153-5.344-21.153-14.696 0-12.023 3.34-12.914 26.274-7.57m-52.103 148.072c65.018 11.801 116.676 50.099 144.954 107.769 12.024 24.493 16.7 44.087 16.7 70.139 0 31.84-8.684 60.787-26.275 86.616-14.027 20.707-46.314 48.763-50.767 44.087-.89-.668 2.672-5.79 7.793-10.91 12.024-12.47 22.267-28.279 30.06-46.092 32.286-76.373-1.782-164.77-79.936-207.076-67.467-36.74-150.298-22.267-208.636 36.516-8.238 8.461-17.813 19.15-21.153 24.27-3.34 5.122-6.68 9.575-7.347 10.243s-2.45 3.563-3.786 6.68l-2.672 5.567v-6.235c-.222-3.34.668-6.012 1.782-6.012s2.449-2.672 3.117-6.235c1.781-8.906 17.813-32.508 32.286-47.872 31.396-32.732 68.58-52.549 114.004-60.564 21.598-3.563 33.4-3.786 49.876-.891M683.688 403.759c-46.536 46.982-59.228 110.218-34.513 171.896 9.575 24.048 20.93 41.193 38.967 59.228 26.274 26.497 54.997 41.416 92.405 48.096 22.489 4.008 35.403 4.008 58.337 0 52.772-9.352 103.093-45.2 131.372-93.519 2.672-4.453 2.894-4.453 2.894 1.336 0 3.34-.89 6.68-2.226 7.348-1.114.668-2.227 2.672-2.227 4.453 0 6.68-17.59 32.064-34.29 49.432-22.934 24.047-39.634 35.626-69.47 47.65-70.808 28.723-148.295 9.797-204.851-49.654-32.732-34.513-49.877-76.82-49.877-122.688 0-42.083 13.806-75.705 42.974-105.097 17.145-17.145 27.61-24.715 34.736-25.383 1.558-.223-.223 3.117-4.23 6.902m136.493 17.368c23.602 8.906 42.528 27.833 51.88 52.326 3.118 8.46 4.23 16.477 4.008 33.4-.223 19.37-.89 23.824-6.234 34.957-11.579 23.825-27.833 38.298-53.662 47.65s-55.22 5.121-79.49-11.578c-12.247-8.684-26.72-27.165-31.842-41.638-3.34-8.684-4.453-16.923-4.23-32.732 0-18.703.89-22.934 6.68-35.626 7.347-15.586 24.27-34.735 36.739-41.415 23.825-12.47 51.658-14.473 76.15-5.344" style="stroke-width:.222663"/>
</svg>
