<svg xmlns="http://www.w3.org/2000/svg" width="1430" height="960">
    <path d="M414.032 634.626c-19.08 52.031 60.842 89.2 92.132 124.015 69.884 51.953 151.368 92.219 237.33 107.37 56.669-30.767-14.71-69.801-49.908-73.499-47.995-21.89-91.346-44.145-134.684-74.133-47.558-24.742-75.641-87.404-131.757-91.87l-6.779 3.004zM702.075 205.11c-49.509 25.527-101.76 50.82-116.846 109.887-26.464 65.717-77.182 118.481-98.96 186.162 6.23 41.61-7.813 82.849-9.195 121.156 32.587 40.827 75.42 75.03 118.046 102.29 51.595 27.452 109.264 67.713 166.25 70.773 25.881-47.01 59.65-98.145 114.692-113.374 47.307-34.513 112.199-38.361 150.38-85.902 27.332-47.93 69.71-115.011 29.603-165.906 2.09-51.666 46.005-134.239-21.01-159.946-43.677 10.84-19.078-68.514-75.168-49.04-36.597-5.335-67.774 24.84-86.67-15.057-41.962-20.12-84.7 11.331-116.027 26.023 2.283-29.95-33.948-32.88-55.095-27.066m31.124 89.412c-7.928 34.86-54.028 38.166-17.543-1.556 3.09-8.636 17.705-9.607 17.543 1.556m166.375 2.263c-27.854 36.963-57.596 85.016-96.203 112.049 16.616-33.447 45.562-129.41 96.203-112.049M719.052 2.517c-54.18 7.634-106.404 24.557-154.595 50.835-78.873 35.905-131.262 106.434-193.859 162.908-59.866 28.297-126.67 43.114-188.019 68.64-27.092 2.661-66.397 31.442-12.159 20.329 54.734-6.086 107.166-30.79 162.476-28.888 17.232 43.145-50.933 82.663-86.75 107.2-42.478 29.844-87.278 56.736-126.948 90.37 55.837-11.08 110.487-28.469 164.89-43.574 26 28.08-94.949 63.937-59.137 81.772 56.922-19.107 117.809-38.77 158.057-86.337 103.657-100.939 207.955-201.622 304.84-309.131-30.119-3.793-88.763 25.306-129.167 36.648-40.005 9.75-100.639 49.001-129.564 33.24C481.09 117.855 556.034 70.14 635.51 39.299c49.05-14.77 99.224-25.977 151.743-22.453 56.795-.465 114.864-.062 168.344 20.19 53.578 19.247 103.525 44.042 148.379 81.63 57.296 44.88 106.127 103.351 138.532 167.365 24.414 50.338 46.519 106.091 47.102 164.244-.123 57.957 10.452 118.295-4.66 174.73.39 27.28-30.47 95.673-42.426 35.099-34.397-125.765-73.725-250.147-108.574-375.756-32.687 21.466-22.582 90.841-27.88 131.81-10.36 141.782-35.364 282.667-36.397 425.013 11.309 46.49 25.883 105.262-39.2 117.016-27.089 14.176-31.148 41.379 4.703 18.666 31.284-35.834 70.735-19.844 81.065 21.009-2.783-27.352 4.39-126.6 37.703-61.117 9.621 21.692 18.033 98.887 38.764 80.428 5.274-54.68-10.233-110.798 1.176-164.517 12.977-31.43 64.713-105.11 72.84-31.93 15.293 16.607 19.74 79.985 39.155 72.303.633-52.783-29.143-101.117-37.154-152.784 10.961-51.868 38.014-99.905 40.249-154.089.345-70.945 9.053-144.622-14.846-212.782-10.268-50.555-34.229-95.986-61.24-139.874-25.493-43.015-61.817-80.95-102.216-113.63-43.766-39.717-94.656-70.918-148.478-91.323C933.337 7.548 878.2 1.422 824.47.738c-35.127-.976-70.39-1.486-105.42 1.779M421.955 262.83c-14.234 15.018-86.057 67.652-57.227 12.485 10.293-16.134 42.435-23.99 57.227-12.485m767.359 366.702c7.358 50.983 66.219 101.676 30.559 151.095-18.873 55.197-50.216 16.162-42.853-24.56 1.057-41.593-13.384-108.429 8.403-133.255zm-63.38 251.26c-24.096 23.113-9.81-54.854 0 0" style="stroke-width:.565899"/>
</svg>
