<svg xmlns="http://www.w3.org/2000/svg" width="1248" height="960">
    <path d="M962.162 431.95c-3.189 0-6.378-3.188-6.378-6.377s3.19-3.189 6.378-3.189c15.944-3.188 76.533-31.888 76.533-95.665V291.64c0-3.188 3.188-6.377 6.377-3.188 3.189 0 3.189 3.188 3.189 3.188v35.078c0 63.777 60.588 92.477 76.533 95.665 3.188 0 3.188 3.19 3.188 3.19 0 3.188-3.188 3.188-3.188 6.377-25.511 6.378-73.344 47.833-76.533 79.721 0 3.19-3.189 3.19-6.378 3.19s-3.189-3.19-3.189-3.19c-3.188-28.7-51.021-73.343-76.532-79.721M662.41 192.788c0-3.189 3.189-9.566 6.378-9.566l22.322-6.378c12.755-3.189 19.133-19.133 15.944-31.889s-19.133-19.133-31.889-15.944l-9.566 3.189h-6.378c-3.189 0-3.189-3.189-6.378-6.378C611.388 7.834 483.834-59.132 362.658-17.677 327.58-4.922 298.88 14.21 273.37 39.723c-6.378 3.188-9.566 6.377-12.755 12.755-3.19 3.188-9.567 6.377-15.945 3.188l-15.944-15.944c-9.566-9.566-25.51-6.378-31.888 3.189-9.567 9.567-9.567 22.322 0 31.889l25.51 22.322c3.19 3.188 3.19 6.377 3.19 12.755-9.567 19.133-12.756 38.266-15.945 60.588 0 6.378-6.378 9.567-9.567 9.567h-25.51c-12.756 0-22.322 9.566-22.322 22.322s9.566 22.322 22.322 22.322h25.51q9.567 0 9.567 9.566c3.189 22.322 12.755 47.833 22.322 66.966 3.189 3.189 0 9.567-3.189 12.755l-22.322 19.134c-9.566 9.566-9.566 22.322-3.189 31.888 9.567 9.567 22.322 9.567 31.889 3.189l63.777-54.21c3.189-3.19 3.189-9.567 0-12.756-54.21-70.155-44.644-175.387 25.51-232.786 70.155-57.4 172.199-47.833 229.598 22.322 41.455 51.021 47.833 117.987 22.322 175.387-3.189 6.377 0 9.566 3.189 12.755l89.288 44.644c12.755 6.378 28.7 0 31.888-12.755 3.19-9.567 3.19-22.322-6.377-28.7-3.19-3.189-3.19-3.189-31.889-15.944-3.189-3.19-6.378-6.378-6.378-12.756 6.378-19.133 9.567-41.455 6.378-60.588m220.03 191.331-3.188 3.189-3.189 28.7 6.378-19.133 12.755-12.756h3.189v6.378l-9.567 15.944c-3.188 25.511 6.378 70.155-9.566 89.288L697.487 703.003c-12.755 15.945-35.077 19.133-54.21 12.756-35.077-9.567-73.344-15.945-111.61-19.133-3.189 0-6.378 0-6.378 3.188-3.188 3.19-3.188 3.19-3.188 6.378v274.241q0 9.567-9.567 9.567H161.76c-3.189 0-6.377-3.189-9.566-6.378-12.756-31.888-22.322-66.966-28.7-102.043-6.378-31.888-3.189-63.777 3.189-95.666l63.777-290.185c3.189-19.133 15.944-38.266 31.888-51.022l60.589-47.832c6.377-6.378 12.755-12.756 19.133-22.322 0 0 31.888-66.966 31.888-86.1q0-14.349-9.566-28.699c-9.567-12.755-12.756-28.7-15.945-47.833 0-79.721 35.078-117.987 98.855-117.987 76.532 0 162.631 38.266 153.065 140.31l-6.378 15.943v3.19l9.567 63.776v3.19h-22.322l-25.511 60.587c0 3.19-6.378 6.378-9.567 6.378l-63.777-3.189c-3.189 0-9.566 3.189-9.566 6.378-9.567 28.7-15.945 41.455-19.133 47.833-3.19 3.188 0 9.566 3.188 12.755 25.511 19.133 47.833 41.455 66.966 63.777 9.567 12.755 22.322 22.322 35.078 28.7 35.077 15.944 76.532 38.266 130.743 66.966 3.188 3.188 6.377 6.377 6.377 9.566v35.078c0 3.188 0 3.188 3.19 6.377 3.188 0 3.188 0 6.377-3.189v-38.266c0-3.189 0-6.378 3.189-6.378l162.631-140.309c3.189-3.189 6.378-9.567 6.378-12.755l19.133-89.288c0-3.19 3.189-6.378 6.378-9.567l57.399-44.644h3.189s3.189 0 3.189 3.19v6.377l-9.567 12.755v3.19c0 6.377-3.189 9.566-6.378 12.755zM228.727 817.802q0-4.784 0 0l-28.7 28.7 25.511 82.91z" style="stroke-width:31.8885"/>
</svg>
