<svg xmlns="http://www.w3.org/2000/svg" width="1200" height="960">
    <path d="M597.176 0 395.294 1.412 258.353 141.176 120 279.53v400.94l139.765 139.765L399.529 960H800.47l139.765-139.765L1080 680.471V279.53L940.235 139.764 800.471 0zM440.471 56.47H759.53l131.294 132.706 132.705 131.295V639.53L890.824 770.823 759.529 903.529H440.47L309.177 770.824 176.471 639.529V320.47l132.705-131.294zm313.411 42.354-158.117 1.411-158.118 1.412-108.706 112.941-110.117 111.53v307.764l114.352 112.942 112.942 114.352h307.764l112.942-114.352 114.352-112.942V326.118L866.824 213.176zm-278.117 42.352h248.47L831.53 248.471l107.295 107.294v248.47L831.529 711.53 724.235 818.824h-248.47L368.47 711.529 261.176 604.235v-248.47L368.471 248.47zM600 183.53c-87.53 0-115.765 4.236-121.412 21.177-5.647 11.294-14.117 21.176-21.176 21.176-15.53 0-111.53 96-111.53 111.53 0 7.059-9.882 15.53-21.176 21.176-16.941 5.647-21.177 33.883-21.177 121.412s4.236 115.765 21.177 121.412c11.294 5.647 21.176 14.117 21.176 21.176 0 15.53 96 111.53 111.53 111.53 7.059 0 15.53 9.882 21.176 21.176 11.294 31.059 231.53 31.059 242.824 0 5.647-11.294 14.117-21.176 21.176-21.176 15.53 0 111.53-96 111.53-111.53 0-7.059 9.882-15.53 21.176-21.176 16.941-5.647 21.177-33.883 21.177-121.412s-4.236-115.765-21.177-121.412c-11.294-5.647-21.176-14.117-21.176-21.176 0-15.53-96-111.53-111.53-111.53-7.059 0-15.53-9.882-21.176-21.176-5.647-16.941-33.883-21.177-121.412-21.177m0 42.353c81.882 0 83.294 0 168 86.118 86.118 84.706 86.118 86.118 86.118 168s0 83.294-86.118 168c-84.706 86.118-86.118 86.118-168 86.118s-83.294 0-168-86.118c-86.118-84.706-86.118-86.118-86.118-168s0-83.294 86.118-168c84.706-86.118 86.118-86.118 168-86.118m0 42.353c-29.647 0-60.706 9.883-70.588 21.177-9.883 11.294-22.588 21.176-29.647 21.176-7.06 0-24 11.294-36.706 25.412-62.118 64.941-80.47 166.588-42.353 231.53 19.765 35.294 62.118 81.882 74.823 81.882 4.236 0 16.942 9.882 28.236 21.176 28.235 26.824 124.235 26.824 152.47 0 11.294-11.294 24-21.176 28.236-21.176 4.235 0 19.764-11.294 33.882-25.412 60.706-64.941 79.059-166.588 42.353-231.53-24-39.529-64.941-81.882-80.47-81.882-7.06 0-19.765-9.882-29.648-21.176s-40.94-21.177-70.588-21.177m0 42.353c42.353 0 70.588 5.647 70.588 15.53 0 21.176 59.294 83.294 81.883 83.294 11.294 0 16.94 24 16.94 70.588s-5.646 70.588-16.94 70.588c-22.589 0-81.883 62.118-81.883 83.294 0 9.883-28.235 15.53-70.588 15.53s-70.588-5.647-70.588-15.53c0-21.176-59.294-83.294-80.47-83.294-25.413 0-25.413-141.176 0-141.176 21.176 0 80.47-62.118 80.47-83.294 0-9.883 28.235-15.53 70.588-15.53" style="stroke-width:1.41176"/>
</svg>
