<svg xmlns="http://www.w3.org/2000/svg" width="1104" height="960">
    <path d="M983.975 462.961c-.62-13.127-.164-26.16-2.837-39.309-2.698-13.275-1.427-27.353-4.077-40.644-2.298-11.524-4.662-23.54-12.536-33.307a138 138 0 0 1-9.555-14.32 252.6 252.6 0 0 0-32.217-42.783c-9.446-9.836-19.837-18.74-19.851-34.931l-6.827 3.458c-5.698-11.178-10.823-22.808-11.816-35.83-.069-.91-1.138-1.745-2.369-3.517l-8.252-2.335-7.077-9.762a36 36 0 0 0-.65 7.468c.571 3.559 1.667 7.034 2.617 10.835l-12.913 17.424c-16.802-.874-27.775-9.94-39.968-18.996a108.44 108.44 0 0 1-7.632-50.427l-9.26-15.653c.055-29.022.055-29.022-7.035-34.819l1.77 21.576-4.143 4.635c-1.301 24.164-.415 48.283-4.609 71.483-2.848 15.754.426 28.62 5.821 42.194a25.5 25.5 0 0 1 1.504 4.406c1.862 9.499 7.932 15.788 15.667 20.858 9.193 6.025 18.435 11.911 29.296 14.636a30.5 30.5 0 0 1 5.486 2.565l1.25 10.232c6.582 8.778 15.135 10.982 24.343 10.574a24.3 24.3 0 0 1 16.184 5.19 223.5 223.5 0 0 1 22.807 19.657c9.262 9.302 17.083 19.681 19.535 33.225 1.198 6.615 4.063 12.986 4.786 19.618 1.566 14.36 7.345 28.469 3.561 43.132l-10.207 3.614 11.176 8.055c-1.092 3.877-2.345 7.241-2.969 10.718-4.041 22.536-11.1 43.562-28.298 59.93a37.8 37.8 0 0 0-7.432 10.056c-4.713 9.252-12.186 15.984-19.79 22.552-11.97 10.34-24.586 19.953-36.285 30.583a149.16 149.16 0 0 1-67.943 34.511c-1.215-14.94-2.132-29.043-3.582-43.09-1.018-9.867-2.304-19.752-4.27-29.467a129.8 129.8 0 0 0-34.662-64.049 62.6 62.6 0 0 1-6.39-8.9c-5.704-8.697-11.323-17.45-17.73-27.346 5.243-4.922 11.714-10.505 17.613-16.64 10.306-10.716 23.102-15.83 37.423-18.26a145 145 0 0 0 15.392-4.413c-4.669-27.298 8.378-53.335-.518-79.669.756-1.293 2.275-2.678 2.246-4.029-.399-18.916 3.569-38.002-2.502-56.71-3.28-10.108-1.871-21.099-4.096-31.126-3.914-17.644-7.343-35.863-16.924-48.328-1.94-16.513-3.53-30.025-5.355-45.546l-8.978 11.983a107.76 107.76 0 0 0-25.39-41.114 18.98 18.98 0 0 0-6.682-17.45l-9.71 6.643c-7.392-4.508-13.645-10.382-20.928-12.26-9.892-2.551-18.066-7.796-26.993-11.928a28.1 28.1 0 0 1-14.907-15.438 21.5 21.5 0 0 0-8.713-11.258l-6.731 16.373c-15.25-4.093-18.496-16.274-23.72-26.751.45-16.684 1.366-33.342-11.386-47.25l-8.427 53.33-11.515 7.99c-.85 6.813-2.66 13.269 4.583 17.922l6.292-8.58c7.242 23.165 20.65 41.23 41.228 51.133l5.735 14.36c19.379 4.952 37.325 11.789 52.839 23.977a32.5 32.5 0 0 0 6.887 3.74 75.7 75.7 0 0 1 29.36 24.072 244 244 0 0 1-3.924 28.054c-2.134 8.61-5.524 18.886-14.046 21.828-10.174 3.511-18.157 10.181-27.657 14.433-17.645 7.898-34.739 17.044-52.463 24.75a45.64 45.64 0 0 0-23.707 21.98 37 37 0 0 1-5.317 7.717c-12.902 14.54-25.92 28.975-39.628 44.256a77 77 0 0 0-11.387-12.075c-12.747-8.99-21.64-21.02-31.016-33.234a85.7 85.7 0 0 0-34.686-26.679c-10.572-4.453-20.87-9.584-31.55-13.743a241 241 0 0 0-29.549-9.706c-13.55-3.34-27.363-5.602-41.123-8.338-.888-1.395-2.61-2.845-2.438-4.02 1.733-11.864 3.434-24.181 10.119-34.144a182.6 182.6 0 0 1 40.052-42.83c10.749-8.296 22.896-14.759 33.877-22.783 17.401-12.716 34.943-25.357 51.307-39.34 13.983-11.947 28.35-23.875 39.456-38.706 7.821-10.444 13.525-22.46 21.187-33.042 14.754-20.377 18.867-53.067 18.518-77.493-.574-40.185-1.425-66.032-8.303-78.319 0 0-11.328 61.615-24.463 87.91-2.576 5.156-6.419 9.606-9.157 14.665a153.7 153.7 0 0 1-34.223 43.077 53.6 53.6 0 0 1-8.305 4.516l2.937-16.761-5.83 1.584V.776c-4.954 7.464-10.268 14.72-14.7 22.482-11.723 20.53-24.354 40.148-42.696 55.73-8.459 7.186-16.56 14.08-28.247 15.514l-10.256-8.5.447.423c-20.682 23.983-34.335 51.892-44.862 81.421-9.047 25.381-17.84 50.884-20.365 76.944-8.42 1.358-15.601 2.962-22.866 3.597-15.417 1.347-29.222 7.788-42.913 13.912-32.722 14.635-65.216 29.944-85.96 61.474-10.65 16.187-23.233 31.46-31.445 48.802-9.728 20.544-16.323 42.675-23.083 64.488-5.714 18.437-5.11 37.932-3.03 56.72 1.892 17.092 3.334 34.306 6.02 51.292 1.935 12.242 4.925 24.517 12.574 34.938 3.4 4.63 6.686 9.368 9.665 14.275a229.8 229.8 0 0 0 34.328 45.128c9.13 9.003 17.667 17.935 17.613 32.319l8.353-3.046 13.24 39.571 7.71 2.387 6.522 7.975 2.016-1.031-2.952-16.025 12.521-16.972c17.124.916 28.422 10.387 40.888 19.865a193 193 0 0 1 6.44 24.598 182 182 0 0 1 .25 24.982l9.373 15.49c-.064 28.827-.064 28.827 6.992 35.476l-1.752-22.065 4.814-5.501c0-9.423-1.855-19.95.378-29.525 4.961-21.275.155-43.155 6.16-61.146-4.031-10.702-7.626-18.317-9.725-26.323a32.8 32.8 0 0 0-15.623-20.92c-11.204-6.509-22.892-12.184-35.234-18.67l-.93-8.841c-8.585-11.638-20.635-10.571-32.632-11.147-17.895-11.699-35.04-24.697-47.336-46.6-6.246-22.201-13.247-47.233-12.19-72.975l10.25-5.134-10.395-7.968a94 94 0 0 0 2.998-9.815c4.12-22.479 10.957-43.591 28.112-60.023a135 135 0 0 0 8.53-11.247 219 219 0 0 1 18.775-21.282c11.664-10.667 24.535-20.015 36.213-30.668 19.33-17.637 41.899-28.4 68.137-34.705 1.185 14.228 2.163 27.78 3.48 41.298a236 236 0 0 0 8.553 46.027c5.326 17.53 15.851 31.727 27.027 45.666 3.611 4.505 7.356 8.933 10.59 13.701 5.564 8.203 10.776 16.645 17.02 26.363a158 158 0 0 0-12.973 11.814 66.3 66.3 0 0 1-45.106 23.084c-3.907.328-7.628 2.874-12.593 4.863 5.341 26.486-8.36 52.516.696 78.991-.677 1.184-2.153 2.561-2.138 3.922.206 18.915-3.574 37.963 2.374 56.699 3.204 10.095 1.971 21.08 4.14 31.121 3.816 17.664 7.253 35.895 16.921 48.493l5.343 45.349 8.943-11.423c6.148 15.915 13.949 29.452 23.042 38.348l7.427 21.385 11.16-8.27c7.468 4.551 13.714 10.277 20.994 12.322a168 168 0 0 1 27.011 11.873 28.67 28.67 0 0 1 14.94 15.418 21.54 21.54 0 0 0 8.834 11.373l6.592-16.303c15.274 3.92 18.522 16.125 23.596 26.16-.651 29.457 1.875 36.551 11.785 46.876l8.25-52.392 11.458-7.962c.944-6.773 2.733-13.19-4.498-17.985l-6.217 8.655c-7.381-23.051-20.603-41.272-41.415-51.244l-5.56-14.126c-19.218-5.44-37.344-11.87-52.856-24.093a40.7 40.7 0 0 0-9.556-5.423c-11.153-4.623-19.073-12.874-26.931-22.733 1.222-8.574 2.059-17.452 3.84-26.136 1.935-9.433 5.749-18.539 14.147-23.781a287 287 0 0 1 27.779-13.971c17.422-8.4 34.699-17.143 52.414-24.877a45.62 45.62 0 0 0 23.76-21.941 36.6 36.6 0 0 1 5.284-7.736c12.915-14.56 25.951-29.01 39.713-44.352a77.3 77.3 0 0 0 11.307 12.067c12.679 9.048 21.879 20.792 31.056 33.225a83.1 83.1 0 0 0 26.503 21.919c15.466 8.553 32.077 15.088 48.376 22.074 19.752 8.466 41.17 10.207 61.718 14.059 1.186 1.831 2.925 3.278 2.756 4.449-1.714 11.87-3.413 24.197-10.1 34.153a182.8 182.8 0 0 1-40.044 42.852c-10.75 8.296-22.904 14.754-33.886 22.778-17.404 12.717-35.005 25.302-51.29 39.371-13.103 11.32-27.224 22.017-37.345 36.307-10.592 14.954-20.207 30.62-29.858 46.216-10.805 17.461-13.441 37.101-14.062 57.137-.18 5.821-1.805 12.452.355 17.329 6.314 14.26 5.47 29.657 8.659 44.364 3.961 18.266 5.588 37.039 8.31 56.197 3.586-6.554 7-12.498 2.68-20.053a10.07 10.07 0 0 1-.69-7.671c4.482-11.323 2.01-23.066 2.662-34.595.98-17.334 6.727-33.67 10.306-50.454a29.7 29.7 0 0 1 4.49-8.264c5.699-9.422 11.822-18.609 17.093-28.262a93.5 93.5 0 0 1 22.9-28.053c12.1-9.892 24.491-19.427 37.985-30.085 0 8.498.026 15.88-.007 23.263-.033 7.403-.331 14.852 5.02 21.568 8.42-14.48 2.9-30.159 5.3-47.379 3.361-5.03 7.027-12.977 12.902-18.629 6.186-5.951 14.484-9.708 21.544-14.223l4.9 2.852 13.269-12.633c2.154-8.602 1.17-17.812 10.575-21.883l.327 28.44c13.16-29.311 22.091-56.475 39.11-79.949-1.458 9.056-2.165 17.567 4.162 26.107 7.103-31.987 9.729-64.127 18.8-95.188 6.864-.893 14.08-1.788 21.284-2.78 15.643-2.152 30.081-8.272 44.367-14.412 37.685-16.195 72.39-36.415 94.148-73.255 7.696-13.03 16.751-25.337 23.527-38.809A243.5 243.5 0 0 0 973.09 516.4c5.236-17.41 11.772-34.65 10.884-53.439zm-597.907-107.32c-5.987-18.677-10.97-37.677-16.665-57.446a48.13 48.13 0 0 1 35.49 5.954 278 278 0 0 0 26.872 12.461c24.91 11.514 45.16 29.124 62.563 49.853a140.8 140.8 0 0 1 24.581 39.975c.723 1.896 1.177 3.894 2.076 6.925-17.935 6.69-32.546 21.504-54.953 17.072l-4.562-11.826-9.022 3.57-6.543-5.98-7.05 2.974a107.9 107.9 0 0 1-52.787-63.531m129.097 201.125c-7.08 7.81-13.778 15.97-20.924 23.717a76 76 0 0 1-11.73 10.63c-26.087 18.446-52.442 36.512-78.452 55.064-8.139 5.806-15.454 12.76-23.222 19.096a60 60 0 0 1-6.462 3.835c-.775-16.95-8.914-30.996-7.36-47.27a247.2 247.2 0 0 1 10.26-51.88c1.412-4.426 2.202-9.095 4.003-13.346 4.732-11.168 10.228-21.77 19.527-30.202 11-9.977 21.308-20.718 32.414-31.618 10.096 5.649 19.768 11.804 31.395 13.143 7.759.893 15.483 2.13 23.188 3.418 6.65 1.112 13.25 2.51 20.203 3.846l15.55 20.916c.778 9.08-3.282 15.015-8.39 20.65m11.526-32.648-15.416-8.817h15.416zm-7.013-63.211h9.88c-1.064 4.837-1.064 4.837-9.88 0m67.855-85.298a328 328 0 0 1 26.465-29.415 266.6 266.6 0 0 1 31.513-23.44 900 900 0 0 0 79.623-59.126 20.3 20.3 0 0 1 5.306-1.94c.743 16.163 8.828 30.24 7.286 46.515a245 245 0 0 1-10.282 51.874c-1.415 4.425-2.196 9.096-3.994 13.347-4.728 11.172-10.25 21.76-19.545 30.19-10.997 9.976-21.302 20.713-32.411 31.614-10.079-5.764-19.795-11.81-31.412-13.17-7.757-.907-15.483-2.132-23.188-3.422-6.648-1.113-13.247-2.519-20.176-3.855l-15.355-20.671a21.75 21.75 0 0 1 6.17-18.5m-9.203 30.01 14.169 8.934h-14.17zm-5.233 57.139 11.39 5.286c-4.443 2.873-7.793 3.122-11.39-5.286m124.012 161.174c-7.555-5.235-17.074-7.578-25.58-11.506-24.42-11.276-44.191-28.631-61.16-49.027a141.4 141.4 0 0 1-24.61-39.963c-.718-1.898-1.107-3.92-1.916-6.859 17.893-6.747 32.569-21.527 54.97-16.873l4.425 11.69 8.868-3.54 6.833 5.945 7.034-2.997A108.44 108.44 0 0 1 718.7 574.49c5.94 18.671 10.966 37.633 16.797 57.836-15.59 1.563-27.234-.665-38.389-8.394m15.143 181.367-.017.174-.056-.051zl.524-5.294 2.169.739z"/>
</svg>
