<svg xmlns="http://www.w3.org/2000/svg" width="1200" height="960">
    <path d="M599.824 0 119.971 479.795 600.176 960l479.854-479.854zm.469 18.517 461.337 461.337-461.513 461.512L138.78 480.03zm-.586 140.985-24.2 22.911c3.12 3.39 5.749 6.796 9.2 9.376 2.64-2.43 5.05-4.676 8.32-7.676l-.059 406.314h13.42V184.17l8.437 7.618 9.258-9.2c-8.13-7.71-16.186-15.347-24.376-23.087m-48.519 110.925-24.259 22.97c3.09 3.27 5.995 6.342 8.965 9.493l8.907-8.087v295.8h13.185V295.155l8.496 7.734 8.966-9.55zm97.096 0-24.142 22.97 8.907 9.493 8.907-8.087v295.565h13.008V295.272c3.6 2.31 5.575 5.733 8.966 7.383l8.672-9.317zm117.136 24.61-37.736 62.524 11.192 6.739 26.486-43.773c8.91 14.761 17.575 29.012 26.486 43.773l11.309-6.74zm-336.055 5.684c-8.994.105-17.68 3.635-24.025 10.43-12.451 13.412-11.71 36.54 1.64 48.87 13.171 12.182 35.816 11.671 47.757-1.23-3-2.84-6.004-5.675-9.024-8.555-12.87 7.53-23.419 7.28-30.529-.82a22.34 22.34 0 0 1-5.45-14.65 22.42 22.42 0 0 1 4.22-13.067v-.058a18.42 18.42 0 0 1 10.43-7.208c8.1-2.01 15.12.6 21.27 4.981l9.435-8.672c-7.456-6.826-16.731-10.126-25.724-10.02M333.499 429.05v12.598c40.713.87 75.823 14.94 104.655 43.772s43.082 64.114 43.772 105.007h12.716c1.286-88.87-74.097-162.847-161.143-161.377m532.709.117c-91.236-1.83-164.36 78.543-160.85 161.318h12.364c.512-83.287 68.4-149.073 148.486-149.013zm-.059 48.343c-63.154-1.59-115.087 54.532-112.507 112.975h12.364c.78-55.325 44.268-99.56 100.202-100.67q.291-2.86.293-5.801c0-2.28-.112-4.554-.352-6.504m-532.767.175v12.364h.059c27.721.81 51.258 10.268 70.61 29.71 19.35 19.44 28.967 43.216 29.357 70.668h12.715c1.56-64.384-55.497-115.262-112.741-112.742m10.665 49.632c-3.637-.339-7.211-.102-10.665.82v13.36c13.65.63 25.183 5.317 34.514 14.767 9.33 9.451 13.729 21.026 14.239 33.987h14.005c1.076-29.48-26.639-60.56-52.093-62.934m522.102.47c-34.622-1.801-64.599 30.718-62.289 62.64h13.595c.45-13.231 4.876-24.68 14.356-34.28s21.137-14.078 34.338-14.708zm-161.318 95.278c-1.89 28.862-13.06 53.05-34.631 72.25-21.572 19.202-47.082 27.984-75.884 26.604h-.176c-23.701-.99-45.373-10.064-62.054-24.435-22.922-19.351-35.082-44.244-37.092-74.126h-13.302c2.79 40.263 20.21 71.992 54.202 93.053 40.983 25.412 83.786 26.032 125.399 1.64 35.522-20.82 53.898-53.104 56.898-94.927v-.059zm-270.544.235c.12 86.375 72.963 161.488 158.799 163.018V773.66c-40.263-2.52-74.731-17.87-102.663-46.702s-42-63.727-43.83-103.66zm318.652.058c-1.74 40.203-15.986 75.062-43.948 103.894-27.962 28.831-62.434 44.006-102.487 46.526v12.54c84.365-1.86 157.773-73.884 159.034-162.96z" style="stroke-width:30.0018"/>
</svg>
