<svg xmlns="http://www.w3.org/2000/svg" width="1707" height="960">
    <path d="M1178.857 901.794c-11.886 18.49 41.603 118.206 62.735 118.206 17.83 0 16.51-11.226-5.283-53.49-33.679-65.376-47.546-81.225-57.452-64.716m-178.96 1.32c-5.282 14.529 8.585 42.264 23.774 46.227 19.81 5.283 23.773-9.906 9.245-34.34-12.547-21.792-27.075-26.414-33.019-11.886m-719.14-209.336c-35 17.83-62.735 38.962-62.735 46.886 0 11.887 20.471 10.566 50.188-3.302 53.49-24.433 68.018-40.942 44.905-50.187-12.547-4.623-9.245-5.944-32.358 6.603M179.06 465.291c-48.867 5.283-68.678 13.868-53.49 23.113 11.887 7.264 200.092 3.962 207.356-3.302 3.962-3.962 2.641-9.906-2.642-16.51-9.245-11.225-63.395-11.886-151.224-3.301m128.112-132.074c-7.265 11.887 4.622 19.811 46.225 30.377 42.924 11.227 56.132 9.245 56.132-9.905 0-17.17-1.982-17.83-53.49-23.113-31.038-3.302-45.566-2.642-48.867 2.641m485.37-124.81c-12.547 7.925-26.415 19.151-30.377 24.434-6.604 9.246-7.924 8.585-11.887-3.301-8.584-27.076-51.508-25.755-85.847 3.301-11.227 8.585-26.415 18.49-35 21.793s-17.17 11.226-19.15 17.17c-1.982 6.603-8.585 22.452-14.529 34.999-5.283 12.547-13.867 31.697-18.49 42.924-9.906 23.773-36.32 75.942-56.792 112.262-12.547 22.453-14.528 35-13.207 81.886.66 43.584-1.32 58.112-9.245 67.357-10.566 11.227-9.245 13.868 13.868 33.679 13.867 11.887 31.037 27.075 37.64 33.018 6.604 6.604 16.51 11.887 21.793 11.887 4.622 0 11.886 3.962 14.528 9.245 2.641 5.283 11.226 9.906 17.83 11.227 7.264 1.32 13.867 6.603 15.849 10.565 3.301 11.227-23.113 11.227-29.717 0-2.641-5.283-9.906-11.226-15.188-13.867-27.076-12.547-62.735-40.283-85.188-65.377-5.283-5.943-14.528-11.226-20.471-11.226-11.227.66-39.622 22.452-39.622 31.037 0 11.887 83.866 85.188 128.771 112.263 54.81 33.018 172.356 74.621 210.658 74.621 25.094 0 35.66-25.094 20.471-48.206-10.566-15.85-9.905-17.83 2.642-30.377 7.924-7.925 13.867-17.17 13.867-21.132 0-13.868 60.754-78.584 73.961-78.584 7.265 0 24.434-8.585 37.641-18.49 13.208-9.906 38.962-25.094 56.792-33.679 56.792-27.075 73.301-49.528 98.395-134.715 11.887-38.962 9.245-64.056-5.943-64.056-6.604 0-7.925-14.528-5.283-68.678 3.302-62.735 2.641-69.339-9.906-81.886-7.264-7.264-21.792-14.528-32.358-15.849-13.207-1.32-19.15-5.943-20.471-17.17-1.321-9.244-9.245-17.829-19.811-21.791-19.811-7.925-71.32-1.981-77.924 7.924-2.641 3.962-9.905 1.32-19.15-7.264-22.453-21.132-60.754-23.773-89.15-5.943m95.093 86.509c-5.283 16.51-49.528 77.923-56.131 77.923-2.642 0-5.944 6.604-8.585 14.529-2.642 11.886-5.283 13.207-11.226 7.264-6.604-6.604-5.944-10.566 1.32-19.811 5.283-6.604 15.189-23.774 22.453-38.302 15.849-32.358 35.66-56.131 47.546-56.131 6.604 0 7.925 4.623 4.623 14.528M659.148 741.325c1.98 5.943-1.981 8.584-12.547 6.603-7.925-.66-15.85-5.943-17.83-10.566-1.981-5.943 1.98-8.584 12.547-6.603 7.924.66 15.849 5.943 17.83 10.566m46.225 19.81c1.981 6.604-2.641 8.586-15.848 6.604-9.906-1.32-19.151-5.943-21.132-10.565-1.981-6.604 2.641-8.585 15.849-6.604 9.905 1.32 19.15 5.943 21.131 10.566m62.735 17.83c-2.641 9.906-43.584 7.925-46.886-1.98-1.98-6.604 3.962-8.585 22.453-6.604 14.528 1.32 25.094 4.622 24.433 8.585M254.342-16.116c-4.622 7.264 27.075 40.282 72.64 76.602C478.208 179.352 475.566 175.39 446.51 230.86c-9.245 17.17-15.188 33.68-13.207 36.981s21.792-11.226 43.584-33.018c33.018-32.359 45.565-39.623 69.339-43.585 29.716-3.962 29.716-4.622 25.754-26.414-3.962-19.812-1.981-23.774 23.773-44.905 15.85-11.887 33.019-24.434 38.302-27.076s17.17-8.584 26.414-13.867c14.528-8.585 17.83-7.925 29.717 3.302 21.132 19.81 35 16.509 37.64-7.925 1.322-17.17 5.944-22.452 25.095-29.056C788.58 32.75 881.03 34.731 935.18 48.599c42.924 11.886 58.113 17.83 88.49 35 5.283 2.64 16.509 8.584 25.094 11.886 17.17 7.264 105.659 93.112 122.828 118.866 15.189 23.113 13.207 34.34-9.245 49.528-35.66 23.773-21.132 36.32 25.094 22.452 5.283-1.32 15.188 5.283 23.113 15.85l13.868 17.829-21.132 19.811c-25.755 23.113-27.736 35.66-3.962 31.037 25.754-4.622 36.32 11.227 34.339 50.188l-1.981 33.68-33.019 7.263c-41.603 8.585-45.565 25.094-6.603 29.717 24.433 3.301 26.414 5.283 28.395 25.094 1.321 11.886-2.641 30.377-7.924 42.263-5.943 11.227-10.566 24.434-10.566 28.396 0 15.849-27.075 42.924-42.924 42.924-22.452 0-56.131 44.245-51.509 67.358 2.642 12.547-.66 21.131-10.565 29.056-17.17 15.188-19.812 62.074-3.963 62.074 5.283 0 9.906-2.641 9.906-5.943 0-11.226 44.244-33.679 65.376-33.679 15.85 0 34.34 10.566 74.622 40.943 68.678 53.49 109.621 79.244 114.243 70.66 5.944-8.585-20.47-39.623-59.433-70.66-71.32-56.131-75.942-62.075-75.942-103.678 0-27.075 3.962-44.244 13.868-60.093 13.207-22.453 13.868-22.453 50.848-18.49 20.472 1.98 48.207 6.603 60.754 9.905 40.283 9.906 54.15 7.924 51.509-8.585-1.981-15.188-12.547-18.49-107.64-36.98-31.038-5.944-36.32-19.811-20.472-56.132l9.246-23.113 134.715-2.641c95.753-1.981 139.337-5.283 152.545-11.887 46.225-23.113 13.867-28.395-146.602-25.754l-136.036 2.641-5.283-55.47c-6.604-66.698-13.207-58.773 99.055-116.886 78.584-40.942 118.867-69.338 111.603-81.225-6.604-9.905-48.868 7.925-159.15 68.678-29.055 15.85-56.13 29.057-60.093 29.057-4.622.66-12.547-7.264-19.15-16.51-16.51-25.754-17.17-25.094 122.828-96.413 60.094-30.377 95.753-70.66 54.15-60.754-25.094 5.943-35.66 11.226-104.338 48.867-89.81 49.528-88.49 48.867-106.98 32.358-7.924-8.585-15.188-17.17-15.188-20.471 0-11.227-56.131-71.32-92.451-99.716-40.943-31.698-103.678-63.395-159.15-79.904-74.62-21.792-208.015-12.547-279.995 19.15-10.566 4.623-24.434 10.566-29.717 12.547-10.566 4.623-27.075 15.189-76.602 48.207-46.886 32.358-63.396 29.717-125.47-18.49C363.963 10.298 340.19-3.57 315.096-3.57c-11.887 0-27.735-4.623-35-9.906-15.188-11.226-20.47-11.886-25.754-2.641m199.431-42.264c-9.245 8.585-3.302 38.962 11.887 64.716 9.245 14.528 19.15 33.019 22.452 40.283 7.264 17.17 26.415 25.754 36.32 15.849 4.623-4.623-1.32-21.793-19.15-56.792-27.075-50.848-44.245-71.98-51.509-64.056" style="stroke-width:.660368"/>
</svg>
