<svg xmlns="http://www.w3.org/2000/svg" width="1320" height="960">
    <path d="M659.927-120S627.279 8.439 592.104 19.014C512.508 30.933 441.646 61.482 381.9 106.099c-32.437 17.287-146.191-50.391-146.191-50.391s67.603 113.754 50.39 146.191c-44.25 58.8-75.129 130.128-86.791 207.715l-.293 2.564C188.439 447.353 60 480 60 480s128.439 32.647 139.014 67.822c12 80.138 42.851 151.45 87.964 211.45l-.88-1.171c17.288 32.437-50.39 146.118-50.39 146.118s113.754-67.603 146.191-50.39c58.8 44.25 130.055 75.164 207.642 86.864l2.563.293C627.28 951.524 660 1080 660 1080s32.647-128.514 67.822-139.014c80.138-12 151.377-42.851 211.377-87.964l-1.172.88c32.438-17.288 146.192 50.39 146.192 50.39s-67.603-113.791-50.39-146.191c44.25-58.8 75.091-130.128 86.791-207.715l.366-2.564C1131.524 512.647 1260 480 1260 480s-128.514-32.647-139.014-67.822l-.073-.073c-11.919-79.597-42.468-150.46-87.085-210.206-17.287-32.437 50.39-146.191 50.39-146.191s-113.864 67.603-146.264 50.39c-58.8-44.25-130.092-75.129-207.642-86.791l-2.563-.293C692.574 8.439 659.927-120 659.927-120m0 192.48c89.114 0 171.446 28.655 238.403 77.271 35.738 12.337 143.408-51.563 143.408-51.563s-63.9 107.412-51.562 143.262c35.962 49.013 61.424 107.889 71.924 171.826l.293 2.344c17.7 33.75 137.548 64.16 137.548 64.16s-119.884 30.63-137.622 64.38h.073c-10.755 65.796-35.99 124.281-72.29 174.17-12.337 35.738 51.636 143.408 51.636 143.408s-107.67-63.9-143.408-51.562c-66.038 48.337-148.852 77.343-238.477 77.343-89.114 0-171.446-28.726-238.403-77.343-35.813-12.338-143.408 51.562-143.408 51.562s63.975-107.67 51.562-143.408c-35.925-49.012-61.35-107.889-71.85-171.826l-.293-2.344C239.723 510.41 119.912 480 119.912 480s119.774-30.558 137.549-64.233c10.755-65.797 35.953-124.282 72.217-174.17 12.337-35.738-51.636-143.409-51.636-143.409s107.67 63.975 143.408 51.563c66.038-48.338 148.852-77.27 238.477-77.27m-.073 14.869c-216.45 0-392.505 176.055-392.505 392.505s176.055 392.578 392.505 392.578 392.578-176.128 392.578-392.578S876.304 87.349 659.854 87.349m0 9.887c211.012 0 382.69 171.678 382.69 382.69s-171.678 382.691-382.69 382.691-382.618-171.678-382.618-382.69 171.605-382.69 382.618-382.69M459.097 252.07l-64.893 90.82v94.044l64.893 264.33 68.115-265.942v-92.431zm205.078 0-64.82 90.82v94.044l64.82 264.33 68.115-265.942v-92.431zm205.224 0-64.892 90.82v94.044l64.892 264.33 68.042-265.942v-92.431zM561.27 436.934l-72.949 269.97h140.186zm205.079 0-72.95 269.97h140.26z" style="stroke-width:37.5"/>
</svg>
