<svg xmlns="http://www.w3.org/2000/svg" width="1403" height="960">
    <path d="M315.425 689.436c-2.625 6.824 3.675 20.472 21.522 47.769 37.27 56.168 130.184 137.532 181.627 160.104 6.824 2.625 16.273 7.35 20.473 9.974 25.197 14.173 75.59 32.021 105.511 37.27 13.649 2.625 33.596 6.825 44.62 9.974 30.97 8.4 133.333 6.824 174.278-2.624 44.094-9.974 97.112-26.247 112.86-34.646 53.019-27.297 69.292-37.27 98.163-59.318 30.446-23.622 99.737-95.012 99.737-102.886 0-2.1 6.824-14.699 15.748-27.297 8.924-13.123 15.748-28.871 15.748-35.17 0-11.024-1.574-11.55-49.868-9.45l-49.344 1.575-22.572 21.523c-39.895 38.32-76.116 60.367-138.058 86.089-22.047 8.924-89.238 20.997-120.735 20.997-29.92 0-102.362-14.173-109.71-21.522-6.825-6.3-29.397-6.3-29.397.525 0 3.15 5.25 7.874 12.074 10.498 6.299 3.15 15.223 7.35 19.422 9.974 18.373 11.024 53.018 21.522 99.213 29.921 43.044 7.874 55.118 8.4 94.488 2.625 24.671-3.674 54.068-7.874 65.091-9.449 12.599-1.575 19.423-.525 19.423 3.15s-3.15 6.824-6.3 7.874c-3.674 1.05-15.222 4.724-25.196 7.874-30.971 11.023-95.013 21.522-133.858 21.522-106.037 0-221.522-46.194-288.714-114.96-15.748-16.798-24.671-21.523-38.32-21.523-9.449 0-24.147-3.674-32.02-7.874-8.4-4.2-16.274-6.299-17.848-4.2-3.675 3.676 22.572 53.02 37.795 71.917 3.674 4.2 5.774 11.023 4.724 14.173-2.1 6.3-61.942-56.168-61.942-64.567 0-6.299-21.522-36.22-34.12-47.244-5.775-4.724-17.323-9.974-26.247-11.548-45.67-7.35-55.643-7.35-58.268-1.05m710.235 140.157c-7.349 4.2-11.548 4.2-15.748 0s-1.575-5.774 9.974-5.774c13.123.525 14.173 1.05 5.774 5.774m84.514-235.17c-17.847 6.824-19.422 19.422-2.1 19.422 7.35 0 15.749-5.249 20.998-13.123 9.449-14.698 5.25-15.748-18.898-6.3m111.286-51.969c-7.349 4.2-19.422 9.974-27.821 14.174-14.173 6.299-35.17 35.695-35.17 48.818 0 7.874 63.516 17.323 72.965 11.024 6.824-3.674 21.522-52.493 21.522-69.291 0-14.173-11.023-15.748-31.496-4.725m-138.582-218.897c-4.724 4.725-3.675 45.144 1.575 53.018 5.774 9.974 11.023-4.199 11.023-30.446 0-19.422-5.25-29.396-12.598-22.572m52.493-58.267-25.721 28.346 7.874 19.947c15.748 37.27 22.572 77.69 22.572 129.659v52.493l18.372-1.574c17.323-1.575 46.194-3.675 80.315-5.25 13.648-1.05 14.173-2.624 14.173-26.771 0-70.341-60.367-228.346-86.089-225.722-3.15.525-17.323 13.124-31.496 28.872M890.752 57.416c0 2.625-2.1 5.25-5.25 5.25-2.624 0-9.448 3.149-14.172 7.348-50.394 40.42-71.391 56.693-88.714 68.242-18.373 12.073-48.294 35.17-77.165 58.792-5.25 4.2-22.048 16.798-36.746 27.297-15.223 10.498-28.346 20.472-29.92 22.572-1.576 1.575-118.11 89.764-259.843 195.8C237.735 548.754 121.2 638.517 120.15 642.192c-1.05 4.2 2.625 8.924 7.874 11.023 38.32 14.699 1170.077 14.174 1154.854-.525-2.1-2.624-103.412-9.448-219.948-15.748-53.018-2.624-67.191-4.724-67.191-10.498 0-4.2 4.2-8.924 9.449-10.499 12.598-3.674 25.722-9.974 144.356-64.567 17.848-8.399 37.27-16.798 42.52-18.372 7.874-2.625 8.924-4.725 4.2-9.45s-21.523-4.724-70.866.526c-35.171 3.674-94.488 8.924-132.284 11.023-37.27 2.625-86.614 7.35-109.71 10.499-22.573 3.15-44.62 4.724-49.345 2.625-5.774-2.1 20.998-32.021 100.263-111.811 198.425-200 266.141-269.291 266.141-274.54 0-7.35-22.572-5.25-33.596 3.15-5.774 4.199-14.698 7.873-19.422 7.873-5.25 0-15.748 3.15-24.147 7.35-7.874 4.199-25.197 11.548-38.32 16.272-43.045 16.273-65.617 24.672-85.04 32.021-11.023 4.2-29.92 11.024-41.994 15.748-12.599 4.725-31.496 11.549-41.995 15.748-11.024 4.2-29.396 11.024-40.945 15.223s-29.921 11.024-40.42 15.223c-19.947 7.35-42.52 15.748-85.564 32.021-13.123 4.725-30.446 12.074-38.32 16.273-17.848 8.924-29.921 9.449-29.921 1.575 0-4.724 28.346-42.52 45.67-61.417 3.674-3.675 17.847-21.522 31.495-39.37s26.247-33.596 28.346-35.17c3.675-2.625 15.223-17.324 87.664-109.712 21.523-27.821 29.922-42.52 24.672-42.52-4.2 0-7.874 2.1-7.874 5.25m73.49 251.968c0 5.774-96.062 111.286-176.377 194.225-26.771 27.297-61.417 63.517-76.64 80.315l-28.346 29.921H469.23c-182.152 0-213.648-1.05-213.648-7.349 0-4.2 4.2-8.924 9.449-10.498 4.724-1.575 15.223-8.4 22.572-14.698 7.874-6.825 25.196-20.473 38.845-30.447 59.842-44.619 85.039-63.517 154.33-117.06 40.42-30.97 76.116-56.168 79.265-56.168 2.625 0 5.25-2.624 5.25-6.299 0-3.15 1.574-4.724 3.15-3.15 4.199 4.725-6.825 23.623-34.122 59.318-36.22 46.194-49.343 66.142-46.194 68.766 2.1 2.1 33.596-9.973 85.04-32.02 8.923-3.675 34.645-14.699 57.742-23.623s49.344-19.422 57.743-23.622c8.924-3.674 26.246-10.498 39.37-15.748 26.771-10.498 47.244-18.897 73.49-29.92 9.974-4.725 28.872-12.074 41.995-17.324 13.124-5.249 30.971-12.073 39.37-15.748 8.924-3.674 26.247-11.023 39.37-15.748 13.124-4.724 27.297-11.023 31.496-13.123 10.499-6.3 10.499-6.3 10.499 0M990.49 587.6c0 3.15-4.2 6.824-8.924 8.399-5.25 1.574-17.323 6.824-27.297 11.548-19.422 9.449-103.412 12.599-123.884 4.2-10.499-4.2-10.499-4.2 0-8.4 5.774-2.624 20.997-4.724 34.12-5.249 13.124-.525 35.696-4.199 49.87-7.874 32.545-8.399 76.115-9.973 76.115-2.624M937.996 50.592c0 2.624-9.449 14.698-20.997 27.821-19.948 22.572-27.297 41.995-15.748 41.995 3.15 0 25.197 17.848 49.869 39.37 25.196 22.572 48.818 39.37 55.118 39.37 6.299 0 16.273-5.774 22.572-12.598 7.874-8.4 14.698-11.549 18.897-8.924 11.024 7.349 55.643-11.549 55.643-23.097 0-9.45-64.042-64.567-89.238-76.64-5.775-2.625-20.998-11.024-33.596-17.848-22.572-12.599-42.52-16.798-42.52-9.45M641.41 7.022c-14.173 4.2-33.071 8.924-41.47 10.499-26.772 6.3-4.724 13.648 40.42 13.648 39.895 0 91.338 9.45 129.658 24.147 58.793 21.522 54.069 22.047 86.615-2.624 30.446-23.098 34.12-33.596 12.598-36.22-6.824-1.05-26.772-4.725-44.62-8.925-39.37-9.973-146.98-9.973-183.201-.525" style="stroke-width:.524933"/>
</svg>
