<svg xmlns="http://www.w3.org/2000/svg" width="1720" height="960">
    <path d="M1030.62 278.749c-1.748 7.577-3.497 29.143-3.497 48.377 0 19.818-2.914 38.47-6.411 41.966-7.577 7.578-17.486 102.002-11.075 108.413 8.16 8.743 13.406-8.743 15.738-53.623 1.748-24.48 6.411-54.207 11.074-66.447 4.663-11.657 8.16-37.303 8.16-56.538 0-34.971-6.994-46.629-13.988-22.148m-353.215 18.068c0 22.15 4.08 48.378 8.743 60.618 4.663 11.075 8.743 34.39 8.743 51.292 0 41.384 5.828 67.03 14.571 67.03 9.91 0 5.83-60.618-6.411-100.253-4.663-15.154-8.16-42.55-8.16-61.2 0-21.567-3.497-39.053-8.743-46.047-7.577-9.909-8.16-7.577-8.743 28.56M457.082 660.525c-61.783 58.869-55.955 123.567 15.738 178.939 19.234 14.571 37.303 26.812 40.217 26.812s8.743 4.08 12.823 8.743c4.08 4.662 13.406 8.742 21.566 8.742 7.578 0 15.155 4.08 16.903 8.743 4.08 9.326 34.39 12.24 39.635 3.498 3.497-5.829-9.326-12.24-23.897-12.24-4.663 0-12.24-4.08-16.903-8.743-5.246-4.663-13.99-8.743-19.235-8.743-5.829 0-13.989-4.08-18.069-8.743s-10.491-8.743-14.571-8.743-8.743-4.08-11.075-8.743c-1.748-4.663-7.577-8.743-13.406-8.743-16.32 0-48.377-58.287-48.377-87.43 0-25.063 15.154-54.79 37.886-74.607 11.074-9.908 20.4-20.983 20.4-24.48 0-12.24-16.903-5.246-39.635 15.738m733.243 23.314c0 2.914 5.246 11.074 11.658 19.235s11.657 23.314 11.657 33.806c0 15.154 2.331 19.234 10.491 17.486 16.32-2.915 15.738-30.892-2.331-54.207-13.989-18.069-31.475-27.394-31.475-16.32M849.35 708.902c-17.486 6.412-33.806 27.395-30.31 37.886 5.247 13.406 76.939 12.823 82.185-1.165 2.914-6.412-.583-13.406-9.326-20.4-22.149-18.07-30.309-20.984-42.55-16.32M692.56 586.501c-20.4 1.748-35.555 5.828-37.304 10.491-3.497 10.492 68.778 8.16 72.858-2.914s4.08-11.074-35.555-7.577M313.114-107.108c-2.332 3.498 0 18.652 4.663 33.807 5.246 15.154 13.406 44.297 19.234 65.28 5.246 20.983 20.983 76.938 34.972 125.316 37.886 130.562 43.715 149.213 51.875 174.86a28958 28958 0 0 1 34.972 110.744c15.154 47.794 32.64 102.584 38.469 120.652 5.829 18.652 11.074 34.39 11.074 36.138 0 1.166-13.988 9.326-30.309 18.069-55.955 29.143-103.167 68.195-117.738 97.338-13.406 26.229-23.898 19.235-50.126-31.475-21.566-40.8-120.07-233.728-133.476-261.123-2.332-4.663-7.578-13.988-11.075-20.4-4.08-6.411-8.743-15.737-10.491-20.4-1.749-4.663-5.829-12.823-8.743-17.486s-6.995-13.406-8.743-19.235c-2.332-5.245-7.577-9.908-11.657-9.908-9.91 0-9.91 2.914-.583 22.149 4.663 8.743 12.24 25.063 16.903 36.137 8.743 20.983 20.4 46.046 48.377 107.83 8.743 19.234 47.212 98.504 85.099 176.025 38.469 77.52 69.36 143.967 69.36 147.465 0 13.405 37.304 61.783 64.115 84.515 35.555 29.143 118.905 72.858 139.888 72.858 8.743 0 19.234 4.08 23.314 8.743 4.663 5.828 18.07 8.743 39.052 8.743 26.812 0 30.892 1.748 29.726 9.909-1.748 9.325 4.08 10.491 61.784 8.16 46.046-1.166 62.366 0 59.452 4.663-2.331 3.497-9.326 6.411-15.154 6.411s-12.823 2.331-14.572 5.829c-2.331 3.497 12.24 5.828 39.052 5.828 23.314.583 67.03 1.749 97.338 4.08 56.538 2.915 132.893-2.331 125.899-8.743-2.332-2.331-13.406-6.994-25.063-10.491l-21.566-6.995 32.057-.582c17.486 0 41.966 2.331 54.207 5.828s30.308 4.08 39.634 2.332c13.99-3.497 16.903-6.412 13.406-15.738-2.914-9.325-1.166-11.074 7.577-8.16 34.972 10.492 41.967 9.909 53.624-1.748 6.411-6.412 15.737-10.492 19.817-8.743 4.663 1.748 31.475-9.326 60.035-23.898 60.035-31.474 118.322-84.515 136.973-125.315 6.412-14.572 36.72-76.356 66.447-136.974 86.847-176.607 113.076-233.728 139.304-300.175 1.749-4.662 5.83-12.823 8.743-17.485 19.818-34.972 24.48-48.378 19.235-53.624-6.995-6.994-15.737 7.577-76.355 129.396-68.195 135.807-132.31 258.209-139.888 266.952-9.908 10.491-17.486 8.743-23.314-6.412-13.989-37.303-111.91-114.824-144.55-114.824-3.498 0-13.406-5.829-21.567-13.406l-15.154-12.823 15.154-46.63c8.16-25.645 18.652-61.2 23.898-78.686 4.663-17.486 12.24-43.715 16.32-58.286 16.903-58.287 38.47-132.893 47.212-166.117a11400 11400 0 0 1 16.903-61.2c8.16-29.143 23.315-85.681 35.555-134.059 4.663-17.486 12.24-44.298 16.903-58.87 10.491-33.223 11.074-46.046 1.166-46.046-6.995 0-17.486 25.064-27.395 64.116-2.331 11.074-7.577 27.977-11.074 37.886-5.246 14.571-95.007 309.5-111.327 367.204-15.738 55.955-48.961 159.122-53.041 167.282-5.829 11.075-19.235 10.492-71.11-4.663-15.154-4.08-54.206-10.491-87.43-13.989-32.64-3.497-61.2-8.743-64.114-11.074-2.332-2.331-.583-56.538 4.663-120.653 10.491-141.053 11.657-287.352 2.331-278.026-4.08 4.08-8.743 48.378-11.657 110.744-2.331 57.12-7.577 129.979-10.492 162.036-3.497 32.058-6.994 74.024-8.16 93.259l-1.165 34.971-40.218-1.165c-22.149-.583-42.55-3.497-46.046-6.995-2.915-2.914-8.16-40.217-10.492-83.35-2.914-42.548-8.743-106.663-12.24-141.635-3.497-35.555-8.16-102.584-9.909-150.38-1.748-49.543-5.828-86.263-9.326-87.429-9.908-2.331-9.908 74.607-.582 185.351 9.908 117.739 15.154 272.78 9.325 282.106-1.748 3.497-25.646 9.326-53.04 12.24-52.458 6.412-123.567 20.4-156.79 31.475-11.075 3.497-22.732 6.412-25.064 6.412-4.663 0-94.424-264.038-157.956-466.292-15.154-48.377-31.475-96.172-36.137-106.664s-8.16-23.314-8.16-27.977c0-9.326-22.15-60.618-26.23-60.618-1.165 0-4.08 2.914-5.828 5.828m482.028 655.14c6.995 10.491 1.749 18.069-13.405 19.817-47.795 5.246-55.955 18.652-11.075 18.652 26.812 0 29.143 1.165 29.143 13.989 0 19.234-5.828 22.148-46.629 21.565-22.731 0-36.137 2.915-40.8 8.743-4.08 4.08-14.572 8.16-23.315 8.16s-19.234 4.08-23.314 8.744c-4.08 4.662-13.406 8.742-20.983 8.742-7.578 0-15.738 3.498-18.07 6.995-5.245 8.16-30.891 23.897-33.805 20.983-.583-1.166-5.829-9.909-10.492-19.817-9.326-17.486-8.743-18.07 7.577-30.892 9.326-6.412 22.15-12.24 28.56-12.24 15.155 0 29.727-5.829 29.727-12.24 0-8.743-39.052-5.83-46.63 3.497-9.908 12.24-25.645 11.074-38.468-3.498-13.406-14.571-5.829-29.143 18.651-36.137 9.326-2.914 28.56-8.743 43.132-12.823s40.8-9.326 58.287-11.075c17.485-2.331 43.714-5.828 58.286-8.742 28.56-5.246 47.212-2.915 53.623 7.577m97.922-4.08c7.577 6.411-12.24 22.731-31.475 25.063-24.48 3.497-26.229 15.154-2.331 13.406 18.068-1.749 45.463 6.994 45.463 15.154 0 9.326-32.64 18.652-58.87 16.903l-25.645-1.748-3.498-32.058c-4.662-46.046-4.08-46.629 37.304-42.549 19.817 1.749 37.303 4.663 39.052 5.829m75.19-6.412c26.228 5.246 22.148 12.24-9.327 15.738-28.56 3.497-41.383-1.75-34.389-12.824 4.663-6.994 16.903-8.16 43.715-2.914m113.658 17.486c14.571 5.829 4.662 13.989-16.32 13.989-11.075 0-22.732 4.08-26.812 8.743-9.326 11.074-29.143 11.074-29.143 0 0-15.738 49.543-31.475 72.275-22.732m50.126 22.732c0 5.246-5.246 8.743-14.572 8.743-17.486 0-18.651 6.994-3.497 18.069 11.074 8.16 11.074 8.743-1.749 46.046-12.823 39.052-24.48 48.96-38.469 32.057-4.08-4.663-10.491-8.743-14.571-8.743s-10.492-4.08-14.572-8.743c-8.743-10.491-36.72-11.657-33.806-1.748 1.749 4.08 8.16 8.16 15.155 9.326 6.994 1.165 21.566 9.908 33.223 20.4 16.903 15.154 20.4 21.566 20.4 41.966 0 13.406-4.08 29.143-8.743 35.555-4.663 5.828-8.743 16.32-8.743 22.149 0 26.811-46.046 51.875-54.789 29.726q-6.12-16.613-22.732 0c-5.245 5.246-23.314 8.743-48.377 9.908-36.138 1.749-40.218 2.915-41.967 14.572-1.748 11.074 1.749 12.823 31.475 16.903 34.972 4.08 75.772-2.914 74.024-12.823-.583-2.914 9.326-4.663 22.149-3.497 19.817 2.331 23.314 4.08 21.566 14.572-2.332 13.988-11.658 19.817-41.384 24.48-26.229 4.08-22.731 14.571 5.246 14.571 13.989 0 19.817 2.915 19.817 8.743 0 15.155-18.068 16.903-59.452 6.412-22.149-5.829-41.966-8.743-44.297-6.412-7.578 7.578 23.314 26.23 43.132 26.23 27.977 0 24.48 9.908-4.663 13.405-47.795 5.246-165.534 4.663-206.917-1.166-50.126-7.577-71.692-16.32-71.692-29.726 0-5.828-5.829-13.988-12.823-19.234-12.823-8.16-12.823-9.326-2.332-13.406 6.412-2.332 12.24-1.166 15.738 4.08 5.828 9.326 6.994 4.663 1.748-8.743-1.748-5.246-6.994-9.326-11.657-9.326-15.738 0-31.475-22.732-31.475-44.297 0-19.818.583-20.984 15.737-16.904 20.984 5.246 22.732 7.578 14.572 15.738-13.406 13.406-6.994 18.069 18.652 14.571 23.314-3.497 25.646-2.914 22.731 7.578-2.331 9.325 0 11.657 10.492 11.657 6.994 0 18.069-4.663 23.897-9.909 10.492-9.326 9.909-9.908-15.737-23.314-15.154-7.578-32.058-13.406-37.886-13.406-6.412 0-18.069-6.412-26.812-14.572s-21.566-16.32-29.143-18.069c-18.069-4.663-32.64-35.554-30.309-62.949 2.332-27.977 16.32-36.138 16.32-9.909 0 12.24 2.915 18.07 8.743 18.07 4.663 0 8.743-2.915 8.743-5.83 0-7.577 18.652-26.228 32.058-30.891 9.326-4.08 9.908-5.246.583-15.155-11.075-12.24-6.995-18.069 11.657-18.069 7.577 0 15.154-2.914 16.903-5.828 1.748-3.497 8.743-5.829 15.154-5.829 8.743 0 11.075 4.08 11.075 20.4 0 11.658 4.08 30.31 8.743 41.967 4.663 11.074 8.743 36.137 8.743 54.789 0 27.977 2.331 36.72 15.154 50.126l14.572 16.32-3.498-17.486c-2.331-9.908-6.411-32.64-8.742-50.709-2.915-18.651-6.995-36.72-9.326-40.8-7.578-12.24-12.823-71.11-6.995-78.687s43.715-3.497 55.955 5.829c5.246 4.08 9.326 4.08 13.989-.583 8.16-8.16 66.447-9.326 71.11-1.749 1.748 2.332 16.32 5.246 32.64 5.829 36.72.583 54.79 9.326 48.96 22.732-2.331 5.245-6.411 22.731-9.325 39.052-18.07 101.418-18.07 106.664-1.166 89.178 5.246-5.246 11.074-25.646 13.989-48.96 5.245-48.961 11.074-71.693 20.4-85.682 5.828-8.16 5.828-15.154 1.166-26.812-8.743-23.314-2.332-34.389 23.314-38.469 12.24-1.748 26.812-5.828 32.058-9.325 5.828-2.915 19.234-5.246 30.309-5.246 12.24 0 20.983-3.497 23.314-8.743 1.749-4.663 8.743-8.743 15.155-8.743s11.657 4.08 11.657 8.743m-148.048 6.411c-1.748 5.246-3.497 15.155-3.497 22.15s-4.08 18.068-8.743 24.48c-8.16 10.491-9.326 10.491-15.154.582-2.915-5.245-12.24-9.908-19.818-9.908-16.32 0-25.063-19.235-14.571-32.058 3.497-4.663 17.486-9.326 30.892-10.491 13.406-1.166 26.811-2.332 29.726-2.915 2.331-.583 2.914 2.915 1.165 8.16m212.163 11.075c4.08 4.663 11.074 8.743 15.737 8.743 23.898 0 95.007 54.789 120.07 93.258 23.898 34.972 5.246 99.087-40.8 139.887-29.143 25.646-102.584 64.115-122.402 64.115-6.411 0-15.154 3.498-18.651 8.16-4.08 4.663-18.07 9.91-31.475 11.658-13.406 2.331-34.389 5.246-46.046 6.994-12.24 1.749-22.15 1.166-22.15-1.166 0-12.823 24.481-43.132 34.39-43.132 6.411 0 15.154-3.497 19.234-7.577 4.08-4.663 15.155-9.908 23.898-12.24 8.743-1.748 15.737-6.411 15.737-9.326 0-8.743-20.983-6.994-29.143 2.915-10.492 12.823-34.972 11.657-34.972-1.749 0-12.823 8.743-25.063 43.132-61.784 21.566-22.731 26.812-32.64 26.812-48.96 0-11.657-4.08-25.646-9.909-31.475-8.743-9.909-8.743-13.406 2.332-49.543 9.908-33.806 13.988-39.635 26.228-41.384 8.16-1.165 18.07 2.332 22.15 6.995 4.08 5.245 10.49 9.326 14.57 9.326 4.081 0 19.818 12.823 35.556 28.56 50.126 50.71 51.292 100.835 4.08 148.63-25.646 26.23-41.967 37.886-72.858 50.71-9.326 3.497-16.32 8.742-16.32 11.074 0 2.914-8.744 5.828-18.652 6.994-10.492 1.166-19.235 4.08-19.235 7.577 0 2.915 8.743 6.412 19.235 7.578 13.989 1.165 18.651-.583 18.651-6.995 0-5.828 5.246-9.326 13.99-9.326 7.576 0 16.902-4.08 20.982-8.742s9.326-8.743 12.24-8.743c8.16 0 53.624-33.224 69.944-50.71 8.743-8.743 19.817-28.56 25.646-44.297 9.909-26.23 9.909-28.56 0-53.624-15.737-41.966-31.475-58.286-99.087-100.252-6.411-4.08-16.32-9.326-21.566-11.075-5.828-1.748-10.491-7.577-10.491-11.657 0-11.075 19.817-10.492 29.143.583M531.689 637.21c0 10.492-2.332 19.234-5.829 19.234-20.4 0-61.2 71.11-54.789 96.173 4.663 18.652 19.817 19.235 19.817.583 0-34.972 25.064-78.687 44.881-79.27 10.492 0 14.572 5.246 22.149 30.31 4.663 16.902 10.491 40.8 12.823 53.04 1.748 11.657 5.246 23.315 8.16 25.063 5.246 2.914 28.56 53.04 28.56 61.2 0 2.915-5.245 5.247-11.657 5.247-6.411 0-11.657-2.332-11.657-5.246 0-8.16-18.652-13.406-25.063-6.995q-6.12 6.12 5.245 10.492c5.829 2.331 14.572 7.577 18.652 11.657s12.24 7.578 18.069 7.578c11.074 0 23.897 22.148 23.897 40.8 0 9.909-4.08 11.657-25.646 11.657-15.154 0-27.977-3.497-32.64-8.743-4.08-4.663-12.823-8.743-19.818-8.743-13.988 0-78.686-30.891-106.664-50.709-20.983-15.154-54.206-64.698-64.698-96.172-6.411-18.652-5.828-24.48 5.246-47.795 15.155-32.64 60.035-74.607 100.836-93.841 27.394-12.823 30.309-13.406 39.634-4.663 6.412 5.246 10.492 17.486 10.492 29.143m113.658 40.218c7.578 2.914 8.16 4.662 1.75 8.743-11.075 7.577-16.321 6.411-16.321-3.498s1.166-10.491 14.571-5.245" style="stroke-width:.582864"/>
</svg>
