<svg xmlns="http://www.w3.org/2000/svg" width="1430" height="960">
    <path d="M500.708 482.712c-2.784 6.958-3.48 14.611-1.392 16.698 6.262 6.262 11.828-4.174 9.045-17.394-2.087-11.827-2.783-11.827-7.653.696M584.198 4.73c-2.783 2.087-4.87 89.752-4.87 194.115 0 136.368-2.087 191.333-8.35 194.812-4.174 2.783-28.525 4.174-54.268 3.478-51.486-1.391-83.49 4.175-83.49 14.611 0 4.87 26.438 6.262 70.966 4.87 64.01-2.783 71.663-1.391 73.75 9.741 2.783 12.524-22.96 71.663-34.092 78.62-12.523 7.654.696 14.611 36.875 20.177 35.484 4.87 36.18 5.566 16.003 11.828-27.135 7.653-91.84.696-96.014-11.132-2.784-6.958-13.916-8.35-39.659-5.566-37.57 3.479-84.882-13.22-104.363-36.875-12.523-15.307 4.175-45.224 25.047-45.224 20.177 0 37.571-6.958 37.571-14.611 0-18.785-97.405 8.35-112.712 31.309-9.74 13.915-5.566 31.309 9.045 45.224 17.394 16.002 87.665 42.441 113.408 42.441 22.96 0 29.917 16.002 18.785 44.528-4.87 11.828-11.132 30.614-13.915 42.441-5.566 23.656-16.698 25.743-21.568 3.48-5.566-22.96-14.611-18.09-34.788 18.089-16.002 29.917-21.569 34.788-49.399 39.658-16.698 3.479-33.396 9.045-36.875 12.523-4.174 3.48-18.785 6.262-32.7 6.262s-29.222 4.87-34.092 10.437S210.578 730.4 203.62 730.4c-6.957 0-16.002 4.87-20.872 10.436s-12.524 10.437-17.394 10.437-17.394 9.74-27.135 21.568c-41.05 48.703-15.306 82.795 102.276 134.28 14.611 6.262 31.31 11.133 38.267 11.133 6.262 0 25.743 4.174 43.137 9.74C404.693 954.434 473.573 960 715 960s310.307-5.566 393.102-32.005c17.393-5.566 36.875-9.74 43.136-9.74 6.958 0 23.656-4.87 38.267-11.132 117.582-51.486 143.325-85.578 102.276-134.281-9.74-11.828-22.264-21.568-27.135-21.568-4.87 0-12.523-4.87-17.393-10.437s-13.916-10.436-20.873-10.436-16.002-4.87-20.873-10.436c-4.87-5.566-20.177-10.437-34.092-10.437s-28.526-2.783-32.7-6.262c-3.48-3.478-20.177-9.044-36.875-12.523-27.83-4.87-33.396-9.74-49.399-39.658-20.177-36.18-29.222-41.05-34.788-18.09-4.87 20.873-16.698 18.09-22.264-4.87-2.087-10.436-8.349-29.222-13.22-41.05-10.435-27.134-4.174-44.528 16.003-44.528 18.786 0 82.795-23.656 107.147-38.962 18.785-12.524 22.264-38.267 6.261-51.486-32.7-27.134-107.842-47.311-107.842-28.526 0 7.653 17.394 14.61 37.571 14.61 18.786 0 33.396 26.44 24.352 43.138-11.828 20.872-61.227 41.05-97.406 39.658-18.09-1.392-37.571 1.391-42.441 5.566-13.22 11.132-68.184 16.698-96.014 10.436-24.352-6.262-24.352-6.262 16.002-11.828 38.962-4.87 53.573-12.523 40.354-20.177-11.132-6.957-36.875-66.096-34.092-78.62 2.087-11.132 9.74-12.524 70.271-9.74 41.745 1.391 67.488-.696 67.488-4.87 0-10.437-32.7-16.699-81.403-14.612-24.352.696-47.311-1.391-50.79-4.87-4.175-4.174-7.654-89.057-8.35-197.594C847.194 3.337 847.194 3.337 831.888 1.25c-8.35-1.392-25.047 4.87-36.875 13.22L774.14 30.472v172.547c0 164.198-.696 172.547-13.22 172.547-9.044 0-13.914-6.958-17.393-22.96-9.045-48.703-23.656-91.84-29.222-89.057-6.262 3.48-20.177 46.616-27.83 89.057-3.479 16.002-8.349 22.96-17.394 22.96-12.523 0-13.22-8.35-13.22-172.547V30.472l-20.872-15.307C614.811-.142 593.243-4.316 584.198 4.729m112.017 528.773c-6.958 1.392-18.09 1.392-24.352 0-6.957-2.087-1.391-3.478 11.828-3.478 13.22 0 18.785 1.391 12.524 3.478m62.618 0c-6.958 1.392-19.482 1.392-27.83 0-9.045-1.391-3.48-2.783 11.827-2.783 15.307-.695 22.264.696 16.003 2.783m30.613 169.764c73.054 7.654 116.887 21.569 116.887 37.571 0 22.96-93.927 45.224-191.333 45.224s-191.333-22.264-191.333-45.224c0-15.306 43.137-29.917 104.364-36.875 83.49-9.045 82.099-9.045 161.415-.696M287.11 747.1c0 45.224 82.099 90.448 194.811 108.538 20.873 3.479 57.052 9.045 80.012 13.22 54.269 9.74 251.863 9.74 306.132 0 22.96-4.175 59.14-9.741 80.012-13.22 112.712-18.09 194.811-63.314 194.811-108.538 0-13.915 3.479-16.698 20.177-16.698 11.132 0 23.656 4.87 28.526 10.436s12.524 10.437 18.09 10.437c13.915 0 30.613 28.526 30.613 51.485 0 34.788-63.314 84.187-121.757 95.319-32.7 6.262-86.274 18.09-125.236 27.83-15.307 3.479-84.186 9.74-152.37 13.915-129.41 6.958-347.182 0-404.234-13.915-38.266-9.74-91.84-21.568-125.236-27.83-58.443-11.132-121.757-60.53-121.757-95.319 0-22.96 16.698-51.485 30.613-51.485 5.566 0 13.22-4.87 18.09-10.437s17.394-10.436 28.526-10.436c16.698 0 20.177 2.783 20.177 16.698" style="stroke-width:.695754"/>
</svg>
