<svg xmlns="http://www.w3.org/2000/svg" width="1260" height="960">
    <path d="M134.688 632.126c0 4.005 2.503 9.011 5.006 10.513 3.004 1.502 5.006-1.502 5.006-7.009 0-6.007-2.002-10.513-5.006-10.513-2.503 0-5.006 3.004-5.006 7.009m994.732-58.573c-2.003 1.502-3.505 14.018-3.505 27.535 0 34.542 12.015 29.536 14.018-5.007 1.502-24.03-2.003-31.038-10.513-22.528M123.174 563.541c-4.506 4.005-4.506 38.047-.5 48.56 6.007 15.52 12.014 7.51 12.014-16.02 0-24.03-5.507-39.048-11.514-32.54m452.06-476.59c-48.06 6.007-87.108 15.52-112.64 27.033-58.572 26.533-63.579 29.537-114.141 67.584-74.092 55.068-132.164 144.68-159.197 245.804-12.015 45.056-13.016 169.21-2.003 200.248 4.005 11.014 7.51 24.03 7.51 28.536 0 15.018 30.037 81.1 54.567 119.147C277.865 820.36 361.469 901.96 395.01 916.98c4.005 2.002 17.522 9.01 29.537 16.02 16.52 9.511 24.03 11.013 31.038 7.509 6.508-4.005 17.522-2.003 40.55 6.007 27.034 9.512 44.556 11.515 125.156 13.016 94.116 2.003 127.157-2.002 163.202-20.024 9.01-4.506 14.017-4.506 21.526 0 8.01 5.506 14.018 4.005 38.548-9.512 15.52-8.51 32.04-19.024 36.545-22.528 4.005-4.005 10.013-7.009 13.016-7.009s6.508-1.502 7.51-4.005c1-2.002 14.518-14.518 30.538-28.034 63.078-52.566 112.639-133.666 141.174-230.786 12.516-41.552 13.016-180.724.5-209.76-4.505-10.513-8.009-23.529-8.009-28.035 0-5.006-3.004-15.519-7.009-23.529-32.04-65.58-47.058-93.616-58.072-107.633-28.535-37.046-79.598-86.607-110.136-106.632-34.042-22.528-105.63-57.571-117.145-57.571-3.504 0-14.518-3.004-23.53-7.009-9.51-3.504-35.042-8.51-57.07-10.012-22.027-2.003-45.556-4.005-52.565-5.007s-36.044 1.002-65.08 4.506m158.195 70.087c10.013 4.005 21.527 7.51 25.532 7.51 12.015 0 77.096 34.542 106.632 56.068 35.043 26.033 69.586 62.077 91.614 95.619 18.522 28.535 48.56 90.111 48.56 100.124 0 3.004 3.504 16.02 8.01 28.535 8.01 23.53 11.013 139.673 4.005 167.207-5.507 23.53-12.015 4.506-12.015-37.046 0-45.556-20.025-127.658-37.547-155.192-2.503-4.005-9.011-16.02-15.018-26.032-20.025-36.545-57.572-78.597-96.12-107.133-49.56-37.546-77.596-51.063-139.172-67.583-48.06-12.516-127.658-12.516-176.719.5-161.7 43.054-270.334 174.717-284.352 345.929-6.007 77.596-16.02 60.575-16.52-28.035-.5-117.646 40.05-210.761 127.658-292.863 18.022-17.02 38.047-33.04 44.054-35.544 5.507-2.503 17.522-9.01 25.532-14.518 8.51-5.507 18.523-11.013 22.528-13.016 4.005-1.502 14.518-5.507 22.528-9.011 53.066-23.029 88.109-28.035 171.212-25.031 39.549 1.001 68.084 4.506 79.598 9.512m2.504 157.695c14.518 14.518 15.018 15.52 13.516 58.573l-1.502 44.054H557.712v-46.558c0-45.055.5-47.558 14.017-59.073 13.517-11.514 17.522-12.015 81.601-12.015h68.085zM539.189 375.81l1.502 44.054h-35.544c-33.041 0-35.544.5-40.05 13.016-3.004 7.009-5.006 20.025-5.006 29.036 0 9.512-3.504 19.524-7.51 23.029-4.004 3.504-15.018 18.523-23.528 33.541-9.012 15.019-20.526 33.542-25.031 41.051-28.035 44.055-29.036 48.06-29.036 114.642 0 61.576.5 65.581 15.018 93.616 8.51 16.02 15.019 32.54 15.019 36.545 0 15.019-18.523 1.502-40.05-29.036l-22.528-32.54-1.502-72.59c-1.501-58.572 0-77.095 6.509-95.118 4.505-12.515 9.511-28.034 11.013-35.043s6.008-17.021 9.512-22.528c4.005-5.507 7.009-14.518 7.009-21.026 0-6.007 2.503-12.515 5.006-14.017 3.004-1.502 5.006-17.522 5.006-35.044v-31.539l41.551-43.554 42.053-43.053 34.542 1.502 34.543 1.502zm221.274 72.59c1.502 6.007 9.512 16.02 17.522 22.527 35.043 27.034 56.069 61.577 59.073 96.12l1 15.519-182.225 1.501c-104.129.501-184.728-1-187.231-3.504s-.501-16.52 5.006-33.541c7.008-23.53 15.519-36.045 40.55-60.575 17.021-17.522 31.038-33.041 31.038-35.544 0-14.518 14.518-16.02 112.14-15.019 98.12 1.502 100.123 1.502 103.127 12.515m97.12 164.703c12.015 4.506 12.015 114.642 0 119.148-10.012 4.005-399.494 4.005-409.507 0-6.508-2.503-8.01-12.516-8.01-59.574 0-40.55 2.003-57.571 6.508-59.073 9.011-4.005 401.497-4.005 411.01-.5m-21.526 145.18c5.006 6.508 4.505 12.516-3.004 36.045-12.015 35.544-23.029 51.063-51.063 71.088-60.575 43.554-183.728 46.557-248.809 6.007-31.038-19.023-47.558-41.05-58.572-76.094-9.512-30.538-9.512-32.54-1.001-38.548 6.508-5.006 50.062-6.508 182.225-6.508 151.688 0 174.216 1.002 180.224 8.01M537.687 7.352C474.609 22.371 413.533 45.9 372.483 70.932c-51.564 31.538-117.646 94.616-150.687 144.678-36.545 55.57-65.08 117.646-70.087 151.688-1.502 8.01-6.007 26.032-10.012 40.05-6.008 18.523-7.009 29.536-3.004 42.552l4.506 17.522 3.504-25.03c2.002-14.018 7.009-31.04 11.014-38.549 4.005-7.008 7.008-15.519 7.008-18.523 0-9.01 34.543-79.598 53.567-109.635 39.048-61.076 125.655-137.67 191.737-169.21 88.109-42.052 121.15-49.561 220.273-49.561 100.624 0 136.669 8.51 224.277 52.064 54.067 26.533 55.069 27.034 97.12 63.078 33.042 28.035 80.1 83.103 102.628 120.15 16.52 27.033 41.551 79.598 41.551 86.606 0 4.506 3.504 13.016 7.51 18.023 4.004 5.506 7.509 18.022 7.509 27.534 0 10.012 2.002 21.526 4.505 25.03 8.511 13.517 12.516-19.523 5.507-44.054-3.504-12.515-8.01-31.038-10.012-40.55-5.507-25.031-28.035-81.1-41.051-102.627-16.02-26.533-42.553-66.082-51.564-77.596-13.016-15.52-61.576-64.58-77.596-77.596-49.561-40.05-136.67-82.603-190.235-93.116-12.516-2.002-30.538-6.508-40.05-9.01-25.031-7.51-137.17-6.008-172.714 2.502" style="stroke-width:.50062"/>
</svg>
