<svg xmlns="http://www.w3.org/2000/svg" width="1212" height="960">
    <path d="M579.893 390.32c-6.887 2.835-14.99 8.102-18.23 10.938-3.24 3.24-14.179 12.153-24.306 20.255-39.7 31.193-160.422 127.608-169.74 135.305-5.266 4.456-16.204 13.369-23.496 19.85-44.967 38.486-37.675 107.354 13.774 133.685 11.343 5.672 39.295 6.482 250.355 6.482 257.648 0 244.684 1.215 267.37-21.876 23.091-23.496 29.168-62.386 14.584-91.148-7.292-13.774-14.584-21.471-45.372-46.993-9.317-7.697-130.039-104.112-169.74-135.305-10.127-8.102-21.065-17.015-24.306-20.255-16.204-15.8-48.612-20.66-70.893-10.938m1.62-213.491c-39.295 12.963-60.36 42.941-60.36 85.477 0 25.117 1.215 29.978 12.963 45.777 25.521 35.65 58.335 47.398 98.44 34.84 21.471-6.482 30.383-13.37 45.777-34.84 11.343-15.799 12.964-21.065 12.964-45.372 0-44.967-19.04-71.704-61.981-86.287-23.091-7.697-23.902-7.697-47.803.405M500.897 4.254c-5.671 2.43-17.42 5.671-26.332 7.697C377.34 32.61 262.29 116.873 198.283 214.504c-9.723 14.583-17.42 27.952-17.42 29.978s-2.43 6.886-5.266 10.127c-2.836 3.646-8.507 14.584-12.558 24.712s-9.723 23.496-12.559 30.383c-7.292 17.42-16.609 51.448-23.9 88.313-14.585 72.109-3.647 187.969 23.9 251.976 2.836 6.481 8.508 20.255 12.559 30.383 4.05 10.127 9.722 21.065 12.558 24.711 2.836 3.24 5.266 8.102 5.266 10.128 0 4.861 32.004 53.474 46.587 70.488 33.22 38.485 47.398 51.854 76.97 74.945 58.336 44.967 119.912 76.565 170.145 87.098 8.912 2.025 21.47 5.266 27.547 7.697 15.394 6.076 192.83 6.076 208.225 0 6.076-2.431 18.635-5.672 27.547-7.697 95.605-20.256 211.06-104.113 274.257-198.907 8.507-12.964 17.42-27.953 19.445-32.814 2.43-5.266 5.671-12.153 7.697-15.394 3.646-6.077 12.153-24.712 22.28-49.423 40.511-97.63 40.511-247.115-.404-343.53-14.179-32.814-18.635-42.941-21.876-48.613-2.026-3.24-5.266-10.127-7.697-15.394-17.015-39.7-74.134-106.137-123.557-144.623-58.336-44.966-119.912-76.565-170.145-87.097-8.912-2.026-21.47-5.267-27.547-7.697-14.584-5.672-195.666-5.672-209.44 0m189.59 74.944c14.989 3.646 33.218 9.318 40.51 12.153 7.292 3.241 15.394 5.672 17.825 5.672 4.456 0 48.208 21.065 70.083 33.624 40.106 22.686 115.86 95.2 128.014 122.342 2.025 4.456 7.292 13.368 11.748 20.255 4.456 6.482 9.317 14.989 10.533 18.23 1.62 3.24 7.697 17.42 14.178 31.598 6.482 13.774 11.748 27.952 11.748 31.598 0 3.241 2.026 9.723 4.457 14.179 5.671 10.938 15.799 81.021 15.799 111 0 29.977-10.128 100.06-15.8 110.998-2.43 4.456-4.456 10.938-4.456 14.179 0 3.646-5.266 17.825-11.748 31.598-6.481 14.179-12.558 28.358-14.178 31.598-1.216 3.241-6.077 11.343-10.533 18.23-4.456 6.482-9.723 15.8-11.748 20.256-12.153 27.142-87.908 99.656-128.014 122.342-21.875 12.558-65.627 33.623-70.083 33.623-2.43 0-10.533 2.43-17.825 5.672-59.145 25.521-189.184 25.521-249.545 0-7.292-3.241-15.394-5.672-17.825-5.672-4.456 0-48.207-21.065-70.083-33.623-40.106-22.686-115.86-95.2-128.014-122.342-2.025-4.457-7.291-13.774-11.748-20.256-4.456-6.887-9.317-14.989-10.532-18.23-1.62-3.24-7.697-17.42-14.18-31.598-6.48-13.773-11.747-27.547-11.747-29.978 0-2.835-2.43-12.153-5.672-21.47-23.09-66.438-18.23-168.93 11.748-249.14 8.913-23.902 10.128-26.332 13.774-32.409 2.026-3.24 4.861-8.912 6.077-12.153 1.62-3.241 6.076-11.748 10.532-18.23 4.457-6.887 9.723-15.8 11.748-20.255 12.154-27.142 87.908-99.656 128.014-122.342 35.244-20.256 83.047-40.106 109.379-46.182 8.912-1.62 21.875-5.267 28.357-7.292 21.065-6.482 129.229-5.267 159.207 2.025" style="stroke-width:.405106"/>
</svg>
