<svg xmlns="http://www.w3.org/2000/svg" width="1802" height="960">
    <path d="M1608.788 524.607c-34.113-55.722-68.812-111.079-103.108-166.691-9.214-14.918-18.062-30.092-26.691-45.411-12.797-22.706-50.969-86.91-50.969-86.91l-29.25-13.164-46.984 28.264-47.13-28.483-47.532 29.25c-15.356-9.725-30.64-19.341-46.837-29.542-15.54 9.506-32.285 19.195-48.483 29.25l-.438-16.417s34.15-21.572 48.921-31.334l46.837 30.493c16.893-10.64 32.212-19.963 47.825-29.799 16.234 11.408 31.92 19.05 46.545 29.25 15.758-10.968 31.042-18.866 45.777-29.25 6.69 3.657 17.404 9.945 22.669 12.724l-18.903-32.906c-15.576 9.616-34.114 20.621-48.995 29.798l-47.934-28.19-46.984 28.483-46.471-28.592-49.36 28.811c0-8.226-.183-16.05-.183-16.05s34.771-21.939 49.506-31.701c15.905 10.603 31.335 20.256 45.887 29.982l48.848-29.982 46.837 30.75c13.492-9.178 28.593-18.501 41.572-27.35l-8.665-13.894c-11.371 6.362-20.987 14.04-32.578 20.476-15.795-9.324-32.248-19.379-48.226-28.775-16.015 9.396-31.518 18.574-47.276 27.86l-47.13-27.605c-16.417 9.434-32.395 19.89-49.287 29.543-.549-6.215 0-11.883-.33-15.722l49.324-32.614c17.002 10.713 32.285 20.037 47.788 29.799 8.775-6.472 39.744-25.192 47.532-29.762l47.276 29.981 24.168-16.197C1312.445 51.298 1233.469-9.397 1143.78-60l-49.433 66.618c9.067 20.22 7.13 42.23 6.91 63.949a32.4 32.4 0 0 1-3.144 12.102c-8.593 20.073-25.046 32.322-43.291 42.56a69.47 69.47 0 0 0-37.038 60.548 383.6 383.6 0 0 1-4.498 54.04c-3.364 17.916-7.897 36.015-19.89 50.86-6.252-3.438-5.302-8.666-5.302-13.42 0-17.66-.256-35.32 0-53.016a228.5 228.5 0 0 0-6.289-48.226c-2.267-10.97-11.444-23.876-14.076-36.563 10.53-14.443 24.57-32.688 16.892-48.52a25.2 25.2 0 0 0-8.117-10.018c2.742 19.561-3.4 26.984-10.75 30.457a15.32 15.32 0 0 1-14.333-.914 28.7 28.7 0 0 1-9.762-10.42c5.887-10.567 13.09-21.097 15.54-30.42s2.851-14.626 0-20.55-7.094-11.992-17.185-12.321c5.119 8.117 10.53 17.33 6.581 23.4-7.312 11.298-20.365 15.796-34.479 4.68 14.808-32.906 13.529-44.241-8.3-54.113 5.777 7.313 8.812 15.43 4.644 21.353-6.618 9.433-17.697 9.397-28.958 6.252-6.399-1.755-12.65-4.168-19.123-5.411-14.625-2.779-29.25-7.496-44.533-1.28a19.12 19.12 0 0 1-19.415-2.413c-5.156-10.713-1.28-19.817 5.703-28.154 3.913-4.643 8.995-8.41 12.395-13.345a34.6 34.6 0 0 0 5.046-13.419 15.61 15.61 0 0 0-4.57-12.358c-8.3 7.312-15.393 13.492-22.633 19.561-6.472 5.485-14.113 9.909-19.415 16.27-7.312 8.849-13.492 18.94-10.969 31.555.549 2.888 1.353 5.74 2.413 10.164-11.554-7.312-12.724-16.051-8.153-24.936 5.52-10.676 12.87-20.402 19.195-30.676a83 83 0 0 0 4.644-10.42A156.8 156.8 0 0 1 747.654-.513c-11.37 7.496-23.656 16.161-21.06 31.737 1.572 9.47 6.216 18.025 10.128 26.764-13.053 16.929-32.504 27.422-33.748 50.165-1.096 20.146 2.34 38.756 16.71 55.575 4.753-21.572 12.833-44.79 36.124-42.925 6.581.549 11.298 4.059 17.44 6.545a40.2 40.2 0 0 1 9.434-6.581c4.9-1.646 10.64-.475 16.088-.695a82 82 0 0 1 8.007-6.654c17.33-5.302 19.963 0 30.53 10.31-8.446 1.463-15.137-3.656-23.364-1.755-9.323 2.158-22.632 11.664-30.932 17.734-6.216 4.57-19.16 9.14-16.124 24.46 10.018-4.058 18.72-8.226 27.86-10.969 9.69-3.108 19.525-7.312 28.922-7.312 5.704 0 10.165 1.462 14.881 1.791 11.737.878 30.092 14.223 40.622 26.91a44.83 44.83 0 0 1 5.448 52.176c-4.57 6.07-7.532 7.313-12.14 7.788-5.3.731-10.31-1.499-15.173-1.755 3.437 21.17 29.031 21.682 34.881 21.207-6.033 45.082-37.257 71.517-66.325 99.159a137.66 137.66 0 0 1-52.76-36.563c-9.397-10.494-19.635-20.037-34.48-24.169-6.544-.914-14.625-2.047-20.877.403-13.638 5.301-26.545 2.852-39.05-1.317-14.26-4.753-29.25-9.908-37.403-24.168-8.154-14.26-15.76-30.237-9.434-47.532-22.194-17.587-43.839-34.844-67.056-53.126A13520 13520 0 0 0 454.09 347.788l23.875 16.015 47.532-31.189 47.532 31.189 47.532-31.225c14.918 9.835 47.752 32.248 47.752 32.248l.219 15.43c-15.283-9.397-33.309-19.708-48.41-28.995l-47.166 29.068-47.788-29.25c-16.124 9.981-30.969 20.987-46.435 30.493-9.433-5.484-30.713-19.89-32.907-20.402-1.828 3.912-5.374 8.556-7.788 13.857 13.236 8.995 26.947 17.697 39.635 26.29l47.788-30.494 47.532 30.237 47.532-30.42 49.177 32.139v15.356c-17.038-9.799-34.37-19.634-49.762-28.482l-47.13 27.824-23.766-13.967-23.547-13.784-23.949 14.077-22.522 13.162-48.227-29.762s-19.452 32.175-19.561 32.249c-.11.073 13.747-7.642 20.877-10.787l47.532 30.055c15.393-11.334 29.25-23.108 47.276-30.347l46.033 29.433 48.3-30.493c16.819 11.663 32.614 21.682 48.556 32.906-.293 3.986.329 10.97 0 15.467l-49.324-29.25c-15.43 9.103-31.846 19.122-47.532 28.409l-47.532-28.117-46.654 27.86-47.971-27.787c-8.3 4.716-29.836 13.272-29.836 13.272s-59.122 91.664-78.756 123.62-39.342 63.693-58.83 95.905c-22.706 37.258-44.644 74.735-67.532 111.92-20.805 34.04-42.194 67.934-63.145 101.718-3.949 6.398-8.08 13.236-12.687 21.938 21.938.22 43.144 3.18 62.157-3.657 16.965-6.106 34.004-13.309 41.463-32.906-5.595-7.496-3.876-14.808-3.4-22.487 1.425-22.778 19.45-34.917 36.562-43.875a69.47 69.47 0 0 0 26.801-22.999q60.768-91.407 122.23-182.413c7.313-10.969 13.858-24.643 26.728-28.738a19 19 0 0 1 14.04 0c13.675 4.424 19.305 17.22 20.439 31.005l-13.82 7.313c-3.292-7.313-5.23-19.817-15.211-17.075-4.826 1.353-7.057 6.581-10.311 11.298-30.603 44.972-61.499 89.799-91.408 135.283-31.846 48.556-62.632 97.806-93.747 146.838-4.095 6.508-8.264 13.528-12.578 21.572 22.34 2.45 44.643 3.839 64.717-3.657 15.612-5.777 31.81-12.906 37.915-30.164-5.776-28.373 5.192-49.068 28.74-66.289 10.42-1.426 20-8.702 27.714-18.281 5.228-6.618 9.908-13.675 14.625-20.695q61.645-91.92 123.327-183.876a32.54 32.54 0 0 1 12.724-12.541 18.54 18.54 0 0 1 16.088-.914c17.99 6.764 19.16 15.722 21.938 32.468l-13.528 4.095c-3.657-6.07-1.61-13.93-10.494-14.625s-11.883 7.312-15.759 13.199c-19.415 29.25-38.464 58.684-57.77 87.97q-62.778 95.504-125.703 190.933c-4.534 6.91-8.556 14.15-14.077 23.364 21.938-.549 41.28 2.632 60.073-3.656 17.294-5.924 34.772-12.103 42.011-31.59-6.983-16.381 0-31.409 5.485-42.524 5.484-11.115 18.793-16.197 25.338-23.18 14.99-2.926 20.914-12.176 29.25-24.315q66.691-99.488 134.077-198.465c3.985-5.886 8.007-12.65 14.077-15.393a21.57 21.57 0 0 1 17.294.805c13.419 4.753 16.636 18.025 20.293 30.603l-15.064 8.337c-4.534-6.253-7.313-17.295-14.406-15.394s-10.64 10.311-15.21 17.295c-27.496 42.01-54.553 84.314-82.048 126.289-35.722 54.076-110.238 166.764-111.846 170.164 34.332 2.998 66.947 2.816 94.844-22.376 4.315-5.375 4.46-13.712 4.9-22.377 1.389-28.154 12.724-50.201 41.06-59.854 8.263-2.815 12.87-8.482 17.33-15.064Q644.438 720.548 681 666.581c20.293-30.091 40.22-60.365 60.731-90.347 5.046-7.313 9.945-15.978 17.221-19.452a19.56 19.56 0 0 1 16.6-.914c13.163 4.132 15.283 20.476 21.938 31.664l-14.15 7.788c-3.656-3.985-5.521-20.549-15.503-16.783a14.37 14.37 0 0 0-6.362 5.704c-30.603 46.472-61.023 93.053-91.736 139.452-25.595 38.83-51.883 77.367-77.587 116.197-11.737 17.733-22.816 35.869-35.21 55.466 13.455 0 24.387.403 35.32 0 26.398-1.206 49.725-9.25 66.142-31.663 1.938-16.088-2.67-32.907 7.313-47.97 9.981-15.065 24.095-23.365 40.548-27.935 44.607-61.17 89.653-121.353 134.625-181.609 14.26 10.97 17.514 15.43 22.816 31.518a597 597 0 0 1 19.707 69.47c3.364 16.672 11.225 39.853-5.448 48.957-5.85 3.218-20.914-1.864-20.914-1.864v41.499c22.596-.585 60.731-11.445 61.207-35.357 0-8.007-7.934-13.345-12.651-20.95 8.812-3.657 14.625 0 19.488 5.41 14.187 15.723 8.483 31.299-7.532 42.926a113.6 113.6 0 0 1-15.43 9.506c-43.875 22.377-84.35 49.909-125.374 76.783a217.3 217.3 0 0 0-43.254 39.854 100.6 100.6 0 0 0-21.573 42.961c-2.084 8.629-2.852 16.454 1.024 24.68 7.934 16.746 13.017 33.858 1.5 54.223 14.624-7.495 16.782-21.28 26.763-29.872 8.117 14.223 8.849 29.726 9.909 48.41 7.313-14.443 18.757-32.907 18.026-36.125-.732-3.217-10.97-13.126-15.905-19.195 7.678-13.273 4.278-25.594.512-36.929 2.047-9.177 3.656-17.294 5.667-25.411 0 0 29.58-1.5 33.967 2.45 11.261 10.164-2.45 22.486-2.377 34.698a23.7 23.7 0 0 0 7.313 15.1c6.18 4.717 10.567 7.532 18.83 4.205-.293-11.444-2.633-22.12-.256-31.627s14.625-20.402 14.223-25.594c-.585-5.996-27.97-28.044-21.353-46.143 3.364-9.323 9.47-14.04 19.488-16.343a20.73 20.73 0 0 0 14.187-10.275 49 49 0 0 1 8.702-9.323c16.27-16.198 34.369-17.221 48.775-4.644 8.592 7.532 7.898 13.236 2.303 23.364-5.265-5.667-8.226-11.261-14.26-14.625-10.785-5.887-21.571.548-27.348 8.994a90.17 90.17 0 0 0-16.637 48.922c-.694 21.499 3.913 41.974 8.849 62.523 3.656 14.625 6.874 29.25 6.106 44.643-.988 18.72 0 37.331-3.035 56.161a199.8 199.8 0 0 1-13.528 46.691c-1.719 4.168-3.291 10.201-4.827 14.15a28 28 0 0 0 2.852-.22 86 86 0 0 0 72.688-69.47 44.46 44.46 0 0 0-.988-23.363c-6.288-15.283-6.288-30.86-5.63-46.545.84-19.89 6.142-38.318 21.938-52.03 13.308-11.59 20.914-26.398 26.179-42.888 2.084-6.69 5.119-13.053 7.714-19.56 3.657 26.654-6.58 48.957-22.303 68.445a79.9 79.9 0 0 0-14.99 30.567 77.6 77.6 0 0 0-2.78 20.293 102.7 102.7 0 0 0 2.56 18.61c4.46 25.046 30.969 44.497 54.844 38.976 14.626-3.327 29.25-6.325 43.145-13.09 21.097-10.31 39.195-22.449 42.376-47.714.878-7.313-3.656-20.841-6.07-28.885-11.26 12.066-20.036 25.119-32.43 32.907a31 31 0 0 1-19.818 6.289 25.6 25.6 0 0 1-19.305-9.287c-3.29-4.315-3.656-10.97-4.278-16.929-1.28-15.027 7.313-26.764 15.21-37.989 8.41-11.773 18.501-22.377 29.25-34.99v-108.63c19.635-9.433 38.867-18.281 57.697-27.86 16.929-8.63 35.357-11.957 53.529-16.198a15.503 15.503 0 0 1 18.647 9.067c-5.85 15.357-24.497 13.821-34.406 25.265v88.812c23.144-19.195 23.364-19.817 17.294-53.82l11.956-23.255 12.176 14.918c12.03 11.59 28.19 8.994 33.711 21.645v21.243c-16.124 3.328-14.808 18.501-19.232 28.702s-14.881 23.474-4.351 36.052a30.7 30.7 0 0 0 8.19 7.312c3.181-12.98-1.865-25.594 6.106-35.356 7.02-8.593 13.675-18.282 26.618-19.196 5.119 39.561 5.704 40.549 25.594 44.534-2.194-6.106-4.278-12.468-6.764-18.61a40.22 40.22 0 0 1 4.314-38.209c7.02-10.53 10.97-21.572 6.509-33.272a40.95 40.95 0 0 0-17.66-20.915 34.37 34.37 0 0 1-17.002-22.851c-2.23-13.053-1.682-26.874-6.252-41.865a59.6 59.6 0 0 0-4.57-10.97c-8.227-14.88-18.465-19.085-34.845-13.564a169 169 0 0 0-19.562 9.068c-3.656 1.864-7.312 5.119-11.224 5.886-25.595 5.083-50.933 11.481-78.026 12.834v-32.907c-12.907 7.313-24.022 21.938-40.475 17.185-5.339-1.572-9.25-7.313-15.978-11.664.548-6.325-.805-11.407-.256-17.66 6.8 5.448 11.151 10.97 16.782 12.505 14.442 4.095 23.071-9.068 28.3-20.914 1.974-4.46 4.35-8.739 6.435-13.126q29.25-61.755 58.172-123.51a66.6 66.6 0 0 1 5.704-8.52c12.614 7.313 17.184 18.574 22.596 31.335v31.81c17.477 27.312 66.142 38.903 99.122 28.556a110.6 110.6 0 0 0-6.545-14.626c-24.095-37.696-48.19-75.393-72.687-112.797-23.876-36.563-48.263-72.504-72.468-108.702-7.313-10.969-13.748-27.678-28.117-24.79-7.02 1.426-8.117 7.606-10.969 12.907-5.082-2.194-12.03-5.85-15.759-7.312 4.57-14.626 11.737-27.605 25.302-31.993a19.38 19.38 0 0 1 14.845.914 25.6 25.6 0 0 1 10.237 8.921c9.653 13.894 19.05 27.935 28.52 41.975l78.866 117.184c3.364 5.01 7.313 9.58 10.31 13.42 17.003 5.776 31.628 11.736 39.964 28.19 8.044 15.831 9.031 32.394 8.995 47.97 18.976 31.7 71.261 36.965 98.354 28.958-1.937-3.876-3.656-7.751-5.667-11.262q-24.534-40.219-49.214-80.438c-15.576-25.229-30.896-50.604-47.056-75.43-18.282-27.86-36.93-55.283-55.796-82.632-4.35-6.253-8.702-13.821-14.625-13.565-6.728.292-9.616 8.336-13.675 15.137l-16.124-6.8c5.923-10.531 8.885-20.805 15.978-27.496 14.296-13.419 25.96-7.313 36.198 7.897 30.2 45.265 60.146 90.713 90.493 135.869 8.08 11.992 17.258 23.254 25.594 34.588 19.123 2.23 28.3 16.82 37.916 25.997 9.945 17.66 5.192 34.625 7.313 49.872 23.583 28.263 63.035 37.989 97.696 28.153.44-8.665-5.886-14.113-9.798-20.768-33.09-56.343-66.838-112.285-103.328-166.508-14.625-21.572-29.25-43.144-43.437-64.826-4.058-6.18-9.725-16.783-18.281-11.408-4.79 3.035-6.252 9.909-10.457 15.174-4.534-2.889-9.25-5.302-13.419-7.97 4.863-13.164 9.945-27.423 23.254-31.335a17.26 17.26 0 0 1 14.223.914c11.298 5.411 17.843 17.77 25.229 28.702 29.835 44.095 59.086 88.555 88.592 132.833 6.728 10.055 13.602 19.89 25.594 24.424 18.282 6.765 29.872 20.22 36.929 40.512v31.335c17.185 27.13 64.644 38.903 97.733 29.25a32.6 32.6 0 0 0-6.07-16.49c-3.656-5.557-7.897-10.75-11.188-16.526-23.437-40.95-48.19-81.06-74.698-120.11-21.426-31.517-42.523-63.254-64.059-94.735-4.68-6.874-6.983-15.685-16.855-15.1-8.812.512-8.592 7.788-13.053 14.625l-14.881-7.642c4.972-9.945 8.519-18.757 14.223-25.594 8.3-10.018 21.206-9.982 31.005-1.243a52.5 52.5 0 0 1 7.496 10.164c31.042 46.18 61.9 92.505 93.199 138.501 9.726 14.26 18.281 28.739 37.075 35.284 24.278 8.446 36.819 40.22 30.164 66.289 7.606 26.106 64.095 43.875 101.353 32.285-24.131-40.841-48.263-81.901-73.2-122.523M798.294 87.495a12.98 12.98 0 0 1-10.786-5.777c-4.022-6.544-2.705-14.99 3.657-22.23 11.992 2.23 12.797 12.468 17.915 21.28-3.51 2.194-6.142 6.581-10.786 6.727m122.011 453.383c-.731 0-2.56 0-5.52-.293-4.205-.256-8.154-.402-11.847-.402-6.289 0-12.285 0-17.953.402h-2.157c-2.157 0-3.254-.366-3.254-1.133 0-.768.585-1.353 1.755-1.353 5.704 0 8.556-1.755 8.556-5.302s-6.582-14.223-19.78-31.408a141 141 0 0 0-10.97 14.626q-8.592 12.577-8.629 15.795c0 1.536 1.097 2.888 3.255 4.022a20.55 20.55 0 0 0 8.3 2.157q2.522.22 2.522 1.316c0 .841-.804 1.243-2.376 1.243h-2.487l-13.71-.329c-8.081 0-13.639 0-16.637.476-1.901 0-2.815-.44-2.815-1.317s.694-1.243 2.084-1.243a20.1 20.1 0 0 0 8.373-1.682 18.6 18.6 0 0 0 6.398-4.607c1.719-1.937 5.558-7.312 11.481-15.502s10.018-14.37 12.285-17.99q-23.144-33.82-28.482-38.171a20.9 20.9 0 0 0-12.14-4.753c-1.243 0-1.828-.512-1.828-1.317s1.134-1.17 3.364-1.17h35.393a11 11 0 0 1 3.072.22 1.13 1.13 0 0 1 .511 1.06 1.06 1.06 0 0 1-.621.987 20.3 20.3 0 0 1-4.205.33 7.3 7.3 0 0 0-3.912 1.425 3.66 3.66 0 0 0-1.609 2.852 42.1 42.1 0 0 0 6.435 11.883 172 172 0 0 0 12.066 16.49c2.194-2.669 5.192-6.654 8.958-12.03a102 102 0 0 0 6.728-10.346 9.3 9.3 0 0 0 1.06-4.096 5.01 5.01 0 0 0-2.596-4.533 11.74 11.74 0 0 0-5.594-1.792c-1.938 0-2.925-.622-2.925-1.499s1.39-1.133 4.204-1.133h28.19a16 16 0 0 1 3.474.219.88.88 0 0 1 .622.987c0 .768-.841 1.207-2.56 1.28a20.48 20.48 0 0 0-11.48 4.168 88.2 88.2 0 0 0-14.626 16.746q-9.47 12.834-10.566 14.99a371 371 0 0 0 27.678 37.99q8.08 8.665 14.88 8.958c1.61 0 2.414.585 2.414 1.462 0 .878-1.097 1.317-2.779 1.317m30.786-25.12a111 111 0 0 0 1.207 15.613 7.9 7.9 0 0 0 2.56 4.168 14.04 14.04 0 0 0 7.02 2.304c1.096 0 1.681.548 1.681 1.28 0 .73-.548 1.206-1.572 1.206h-16.71l-14.222.22c-1.572 0-2.377-.44-2.377-1.353 0-.914.622-1.426 1.902-1.426 4.168 0 6.617-1.463 7.312-4.169a160 160 0 0 0 1.097-25.777c0-14.003 0-25.301-.366-33.967-.365-8.665-.987-13.967-2.193-15.905a9.29 9.29 0 0 0-6.874-3.656c-1.243-.22-1.902-.731-1.902-1.535s.476-1.207 1.426-1.207l12.286.256 18.793-.256c2.267 0 3.364.439 3.4 1.316.037.878-.621 1.097-1.828 1.28-4.972.658-8.08 2.45-9.323 5.411-1.243 2.962-1.865 13.894-1.865 32.907q0 10.42.548 23.474zm104.351-62.851a20.4 20.4 0 0 1 3.657.183.88.88 0 0 1 .658.95q0 1.207-2.633 1.646a11.74 11.74 0 0 0-7.568 3.656 44 44 0 0 0-4.863 7.166q-2.304 4.059-12.395 32.432-3.656 9.945-16.16 42.925h-3.986c-2.084-6.801-5.412-16.015-9.945-27.752l-12.724-32.906a162 162 0 0 0-8.227-18.977 15.7 15.7 0 0 0-4.57-5.118 14.4 14.4 0 0 0-6.253-1.682c-1.133 0-1.682-.476-1.682-1.207s.549-1.28 1.682-1.28h35.284c2.193 0 3.29.366 3.29 1.134s-.73 1.499-2.157 1.499c-5.923 0-8.885 2.523-8.885 7.605a34.3 34.3 0 0 0 .805 5.777 80 80 0 0 0 2.779 9.762c1.352 3.876 4.168 11.774 8.555 23.73 4.388 11.956 7.313 19.305 8.373 21.938l14.406-39.927a92.5 92.5 0 0 0 6.216-21.317c0-4.716-2.925-7.312-8.775-7.824-1.17 0-1.755-.512-1.755-1.28a.99.99 0 0 1 .658-.987 16 16 0 0 1 3.656-.22z" style="stroke-width:3.65631"/>
</svg>
