<svg xmlns="http://www.w3.org/2000/svg" width="1327" height="960">
    <path d="M573.657 729.315c-68.704 68.703-76.103 73.988-121.553 75.045-26.424 1.057-59.19 4.228-73.988 9.513l-26.424 7.399 31.709 8.456c96.185 23.253 116.267 28.538 140.578 38.05 34.88 13.741 17.969 31.71-36.994 40.166-38.051 6.342-33.824 8.456 60.247 30.652 122.61 28.539 109.926 28.539 232.536 0 94.07-22.196 98.298-24.31 60.247-30.652-54.963-8.456-71.874-26.425-36.994-40.165 24.31-9.513 44.393-14.798 140.578-38.051l31.71-8.456-26.425-7.4c-14.798-5.284-47.564-8.455-73.988-9.512-45.45-1.057-52.85-6.342-121.553-75.045-40.165-41.223-80.33-73.989-89.843-73.989s-49.678 32.766-89.843 73.989m61.305-376.284c-7.4 12.683-48.621 58.133-242.048 265.301-22.197 24.31-95.128 54.963-141.635 60.248-14.798 2.114-26.425 7.399-26.425 13.74s44.393 11.627 105.698 13.741l105.698 3.171 105.698-106.755C600.08 544.344 655.044 496.78 663.5 496.78s63.419 47.564 121.552 105.697L890.75 709.232l105.698-3.17c61.305-2.115 105.698-7.4 105.698-13.742 0-6.341-11.627-11.626-26.425-13.74-46.507-5.285-119.438-35.938-141.635-60.248C740.66 411.164 699.437 365.714 692.038 353.031c-4.228-8.456-17.968-14.798-28.538-14.798s-24.31 6.342-28.538 14.798M457.389 339.29C265.02 531.66 223.797 564.426 150.866 580.28c-56.02 12.684-33.823 27.482 46.507 30.653l79.273 3.171 193.427-193.427L663.5 227.25l193.427 193.427 193.427 193.427 79.273-3.17c80.33-3.172 102.527-17.97 46.507-30.653-72.931-15.855-114.153-48.621-306.523-240.991C759.685 228.307 666.67 137.407 663.5 137.407s-96.185 90.9-206.11 201.883M601.14 52.849c-45.45 43.336-61.305 52.849-94.072 53.906-35.937 0-97.242 17.968-68.703 19.025 6.342 1.057 25.367 6.342 40.165 11.627l28.538 10.57-41.222 42.279c-30.652 30.652-53.906 43.336-87.729 48.621-41.222 6.342-43.336 8.456-26.424 21.14 22.196 15.854 15.854 28.538-45.45 85.615-34.88 32.766-38.052 56.02-6.342 56.02 8.455 0 91.957-76.103 186.028-169.117C578.942 139.521 659.272 63.42 663.5 63.42s84.558 76.102 177.572 169.116c94.071 93.014 177.573 169.117 186.028 169.117 31.71 0 28.539-23.254-6.342-56.02-61.304-57.077-67.646-69.76-45.45-85.615 16.912-12.684 14.798-14.798-26.424-21.14-33.823-5.285-57.077-17.969-87.73-48.621l-41.221-42.28 28.538-10.569c14.798-5.285 33.823-10.57 40.165-11.627 28.539-1.057-32.766-19.025-68.703-19.025-32.767-1.057-48.621-10.57-94.071-53.906C696.266 23.254 667.728 0 663.5 0s-32.766 23.254-62.362 52.849" style="stroke-width:1.05698"/>
</svg>
