<svg xmlns="http://www.w3.org/2000/svg" width="1273" height="960">
    <path d="M985.34 1020c-17 0-22-2.5-34-18.5-32-43-28-41.5-93.5-41.5h-58.5l-40-27.5c-22-15-42.5-27.5-45.5-27.5s-17-10-30.5-22.5-33.5-24.5-44.5-27.5c-10.5-3-20-7-21.5-9.5-2.5-3.5-36.5-10.5-98-19-26.5-4-27.5-4.5-29-20-1.5-13.5 1-17.5 17.5-28.5 16.5-11.5 24-13 62-13 23.5 0 50.5 2.5 59.5 5.5 12 4.5 23 4.5 44.5-.5 39-8 63-25 75.5-53 11.5-25 11-28.5-13-130.5-3.5-17-7-36.5-7-44 0-12-10.5-34-44.5-92-7.5-12.5-15-26.5-17-30.5s-8-14.5-13-22.5c-13.5-21-12.5-31 3.5-39.5 10-5 16.5-5.5 23.5-2 12 6.5 77.5 73 77.5 79 0 2.5 9.5 18.5 21.5 36 30.5 46.5 33 50.5 38 61.5 6.5 15 20 25 25.5 19.5 3-3 2-29.5-2.5-72-8-71.5-19.5-125.5-30.5-143.5-9-14.5-9-19 1-28.5 13-13.5 31-9.5 50 10 9.5 10 17 22 17 26.5 0 4 3 16.5 7 28 4 11 11 33.5 15.5 50s10.5 36.5 13.5 45c2.5 8 7 23.5 9 34.5 3.5 17.5 11.5 27.5 21 28 2 0 5-8.5 6.5-19 2-10 6.5-27.5 10-38.5 4-11 6.5-34 6-51.5-1-36.5 5-44.5 27.5-33 19 10 31.5 34.5 31.5 64.5 0 23.5 1 25 13.5 26.5 17 2 34 23 34 42 0 8 3.5 22.5 7.5 32.5 4 9.5 8.5 34 10 53.5 11.5 153.5 15.5 171.5 54.5 229 6.5 10 8 18 5.5 30-12 55-119 154-166.5 154M669.028 733.87a27 27 0 0 1-4.188-.37c-15-2.5-43.5-12.5-58-20-5.5-3-16.5-7-25-9-17-4.5-87-29-127.5-44.5-15-6-34-12.5-42.5-15-8-2.5-27.5-9-42.5-15s-34.5-12.5-42.5-14.5c-8.5-2-20.5-7-27-10.5-10.5-5.5-13-5-18.5 2.5-6 8-8 7.5-29-7-38-26.5-44-18.5-14.5 20 10 13.5 20.5 24.5 22.5 24.5s4 2.5 4 5.5c0 3.5 4 9 8.5 12.5 5 3.5 7 8 5 10.5-2.5 2-7 0-10.5-5-3.5-4.5-8-8.5-10-8.5-4 0-100-71.5-116.5-87-6.5-6-11.5-14.5-11.5-20 0-5-2.5-18-6-28.5-14.5-50 20-104.5 73.5-116 23-5 56.5-3 62 3.5 3 4 12 8 19.5 9.5 16.5 3 44 12.5 62.5 21.5 8 4 19.5 7 26 7s13.5 2.5 15 5c5.5 9-12 11.5-40.5 6-15-3-30.5-4.5-34.5-3-10.5 4-9.5 16.5 1.5 20 23 7.5 57.5 25 62.5 32s98 64.5 123.5 76.5c4 2 14.5 8 22.5 13.5 8.5 5.5 19.5 12 25 15s17 9.5 25 15c8.5 5 20.5 12.5 27.5 16.5 7 3.5 35 19.5 62 36l49.5 29-14 12c-8.016 7.171-15.32 10.428-22.812 10.37m23.856-136.826c-3.56-.2-9.731-5.357-22.544-17.544-13-12.5-40.5-37-61-54.5s-39.5-34.5-42.5-37.5c-2.5-3-37.5-33.5-77.5-67.5-39.5-34.5-81.5-71-92.5-81.5s-35-29-53.5-41c-19-12.5-34-24.5-34-27 0-2-8-12.5-18-22.5-13.5-13.5-19.5-17-22.5-12.5-3.5 6 12 52.5 21 61.5 7 7.5 5.5 18-3 18-4 0-7.5-3.5-7.5-7.5s-2-7.5-4.5-7.5-9.5-8-15.5-17.5c-6-10-13.5-20.5-17-24-13.5-14.5-38-48-38-52.5 0-2.5-3.5-7.5-7.5-11-12-10-10-65.5 3-91.5 13-24.5 23-33 54-44.5 26-9.5 53.5-9.5 52-.5-1 3.5 2.5 11 7.5 16 4.5 5.5 12.5 15.5 17.5 22.5 10 15 17.5 16.5 22 5.5 3.5-10-12-27.5-24.5-27.5-10.5 0-12-9-2-13 6.5-2.5 16.5 3.5 75.5 45.5 14 10 30 21.5 36.5 26 21.5 15 6.5 23.5-16 9-14-9.5-48.5-12-51.5-4.5-1 3.5 8.5 12 21 19 17 10.5 22 16 20 22.5-3 9.5 3 18.5 50 73.5 16.5 19.5 39 46.5 50 59.5 11 13.5 28 33.5 37.5 45s26.5 31.5 37.5 44.5c10.5 13 24 29 30 35.5 30.5 34.5 53.5 63.5 62 78.5 12.5 21.5 23 65.5 18.5 76.5-1.125 3-2.32 4.664-4.456 4.544m-507.758-12.268c5.158-.074 9.589-1.432 11.214-4.276 1.5-2.5-5-9-15-15-20.5-12.5-37-13.5-37-3 0 4 3 7.5 7 7.5 3.5 0 9.5 3.5 13 7.5 4.156 4.75 13.247 7.384 20.786 7.276m76.662-137.639c5.788 0 6.177-4.81 1.552-14.638-4.5-9.5-9.5-12.499-22-12.499-24 0-24.5 7.5-1 19.5 10.125 5.063 17.224 7.633 21.448 7.637M786.84 405c-1 0-20.5-19-42.5-42-31-32-46.5-53.5-67-93.5-40.5-77.5-51.5-99.5-63.5-126-16-36-25.5-31.5-23.5 11.5 1 20.5-.5 35-3.5 35-2.5 0-5.5-5-6.5-11-1-6.5-4.5-18.5-8-26.5-10.5-23.5-19-48.5-21.5-65-1.5-8.5-6-17-9.5-19-10-5.5-8.5-46 2.5-73 5-12 16-29 25.5-38.5l16.5-17h51.5c28 0 52.5 2 54.5 5 1.5 2.5.5 8.5-2.5 13.5-4.5 7-3.5 14.5 5 33 6 13 12.5 22.5 15.5 21 8-5.5 5-30-5.5-39-11.5-9.5-13-18.5-3.5-18.5 6.5 0 88.5 106 88.5 114.5 0 2.5 3.5 5.5 7.5 7.5 7.5 2.5 10.5 13 4 13-2.5 0-14-9-26-20-28-25-54.5-41-58-35-1.5 3 4 15 12 27 17.5 25.5 18.5 28 8 28-9.5 0-9.5 16-.5 42.5 4 11 11 33.5 15.5 50 5 16.5 12 38 15.5 47.5 12.5 33.5 13.5 50 4 70.5-9 20.5-9 22 11 60.5 6.5 12.5 10 44 4.5 44M242.35 221.908c2.06-.01 3.677-.588 4.49-1.908 1.5-3-4.5-13-14-22.5s-19.5-17.5-23-17.5c-8 0-7 13.5 2 17 4 1.5 7.5 6 7.5 9.5 0 6.773 14.923 15.451 23.01 15.408m331-139.282c1.866-.102 2.818-1.845 3.99-5.126 2-4.5 0-11.5-4.5-16.5-4-4.5-8.5-13-9-18-3.5-19-14.5-15-14.5 5.5.5 14.5 3.5 21 12.5 28 6.11 4.25 9.396 6.242 11.51 6.126" style="stroke-width:.499999"/>
</svg>
