<svg xmlns="http://www.w3.org/2000/svg" width="1200" height="960">
    <path d="M319.483 846.26c2.087 6.262 8.348 10.436 13.565 10.436 5.218 0 11.479-4.174 13.566-10.435s-4.174-11.478-13.566-11.478-15.652 5.217-13.565 11.478m498.783-58.434c0 10.435 7.304 15.652 18.782 13.565 21.913-4.174 19.826-22.956-2.087-27.13-10.434-2.087-16.695 3.13-16.695 13.565m-339.13-6.26c-3.131 5.217 0 13.564 5.217 16.695 6.26 4.174 16.695 17.739 21.913 29.217C511.483 840 525.048 864 536.526 881.74c11.479 16.696 25.044 41.74 31.305 54.261 5.217 13.565 18.783 24 31.304 24s26.087-10.435 31.305-24c6.26-12.522 19.826-37.565 31.304-54.26 11.478-17.74 24-38.61 27.13-46.957 4.174-8.348 13.566-22.957 21.913-33.392 9.392-10.434 11.479-18.782 4.174-22.956-15.652-9.392-42.782 6.26-77.217 44.87-15.652 17.738-32.348 32.347-36.522 32.347-5.217 0-28.174-18.782-52.174-41.739-42.782-42.783-58.434-50.087-69.913-32.348M849.57 630.26c0 7.304-7.304 19.826-15.652 27.13-35.478 29.218-12.522 67.826 49.043 83.479 18.783 5.217 60.522 18.782 91.826 31.304 106.435 42.783 132.522 38.609 76.174-10.435-16.695-13.565-60.521-52.174-98.087-85.565-67.826-59.478-103.304-75.13-103.304-45.913m-584.348 29.217c-26.087 22.957-68.87 61.565-96 84.522-79.304 66.783-63.652 75.13 54.261 28.174 31.304-12.522 73.044-26.087 91.826-31.304 61.565-15.653 84.522-54.261 49.044-83.479-8.348-7.304-15.652-19.826-15.652-27.13 0-27.13-36.522-14.609-83.479 29.217m-41.739-58.435c0 9.392 7.304 14.61 17.74 12.522 26.086-5.217 29.217-29.217 4.173-29.217-12.522 0-21.913 6.26-21.913 16.695M432.18 432c0 14.609 37.565 89.74 74.087 147.13 10.435 16.696 24 40.696 30.26 52.174 28.175 54.261 50.088 83.479 62.61 83.479s34.434-29.218 62.608-83.479c6.26-11.478 19.826-35.478 30.26-52.174 36.523-57.39 74.088-132.521 74.088-147.13 0-11.478-30.261-14.609-166.957-14.609S432.18 420.521 432.18 432m350.608-130.435c-9.39 14.609 16.696 30.261 56.348 34.435l36.522 3.13-2.087 69.913c-1.043 39.653 2.087 70.957 7.304 70.957 9.392 0 46.957-54.26 66.783-93.913 4.174-8.348 13.565-27.13 21.913-41.74 24-41.738 4.174-52.173-94.956-52.173-46.957 0-88.696 4.174-91.827 9.391M225.57 305.74c-8.348 9.391-8.348 19.826 1.044 35.478 7.304 12.522 24 43.826 37.565 70.957 46.956 86.609 73.043 90.783 56.348 6.26-12.522-64.695-3.13-84.521 42.782-84.521 34.435 0 64.696-20.87 51.13-34.435-12.521-13.565-177.39-8.348-188.869 6.261m471.652-144c-7.304 31.304 2.087 61.565 16.696 52.174 13.565-8.348 13.565-64.696 0-73.043-5.217-3.13-12.522 6.26-16.696 20.87m-250.435-32.348c-8.347 21.913 3.13 51.13 16.696 42.783 5.218-3.13 10.435-15.652 10.435-26.087 0-26.087-18.783-37.565-27.13-16.696M574.092 22.957c-3.13 13.565-6.261 40.695-6.261 61.565s-7.304 60.521-15.652 87.652c-17.74 62.609-8.348 78.26 46.956 78.26s64.696-15.651 46.957-78.26c-8.348-27.13-15.652-66.783-15.652-87.652Q630.44 0 599.135 0c-10.434 0-20.87 10.435-25.043 22.957" style="stroke-width:1.04348"/>
</svg>
