<svg xmlns="http://www.w3.org/2000/svg" width="1164" height="960">
    <path d="M582 0c-27.57 0-120.771 51.887-177.404 95.688-64.208 49.661-87.066 86.314-96.73 149.818-3.611 23.734-13.135 59.951-18.96 90.077-14.682 75.938-38.352 148.457-58.643 217.212-16.05 54.382-36.179 106.446-66.547 146.304-8.674 11.383-37.455 38.565-43.879 44.99C132.927 787.223 202 883.703 251.223 916.81s76.939 28.77 132.441 37.197c55.293 8.396 132.198 5.515 198.336 5.515s143.043 2.881 198.335-5.515c55.503-8.428 83.22-4.09 132.442-37.197s118.295-129.587 131.385-172.723c-6.424-6.424-35.205-33.606-43.878-44.99-30.369-39.857-50.498-91.921-66.547-146.303-20.292-68.755-43.962-141.274-58.644-217.212-5.825-30.126-15.348-66.343-18.96-90.077-9.664-63.504-32.522-100.157-96.73-149.818C702.77 51.887 609.569 0 582 0M350.786 432.521s69.941 21.011 104.064 33.92c12.717 4.81 37.434 16.195 37.434 16.195l.556 40.532s-17.09 2.958-39.893 4.903c-32.247 2.75-42.672-.953-63.532-23.71-8.53-9.139-14.809-19.68-20.724-30.434-7.248-13.174-17.905-41.406-17.905-41.406m462.427 0s-10.656 28.232-17.904 41.406c-5.916 10.754-12.195 21.295-20.724 30.433-20.861 22.758-31.285 26.46-63.533 23.71-22.803-1.944-39.892-4.902-39.892-4.902l.555-40.532s24.717-11.385 37.434-16.195c34.123-12.909 104.064-33.92 104.064-33.92" style="stroke-width:9.48225"/>
</svg>
