<svg xmlns="http://www.w3.org/2000/svg" width="1410" height="960">
    <path d="M576.775-30c-4.073 0-7.035 1.11-7.59 2.777-1.851 4.628.74 8.33 5.554 8.33 2.406 0 4.813 1.296 5.553 2.777.556 1.481 2.962 2.777 5.554 2.777 2.407 0 4.813 1.296 5.554 2.777.555 1.48 2.962 2.777 5.553 2.777 2.407 0 4.814 1.296 5.554 2.777.556 1.85 3.517 2.777 8.33 2.777 4.629 0 7.59.925 8.331 2.776.74 2.037 3.888 2.777 11.108 2.777s10.181.74 11.107 2.777c.74 2.222 4.443 2.777 16.661 2.777 12.033 0 15.735.555 16.661 2.777.74 2.036 4.073 2.777 13.884 2.777 9.627 0 12.959.74 13.885 2.776.555 1.852 3.517 2.777 8.33 2.777 4.628 0 7.59.926 8.33 2.777.556 1.851 3.518 2.777 8.331 2.777 4.628 0 7.59.926 8.33 2.777.556 1.851 3.518 2.777 8.331 2.777 4.628 0 7.59.925 8.33 2.776.556 1.481 2.963 2.777 5.554 2.777 2.407 0 4.814 1.296 5.554 2.777.556 1.851 3.518 2.777 8.33 2.777 4.629 0 7.59.926 8.331 2.777.556 1.48 2.777 2.777 4.813 2.777 2.222 0 6.111 2.406 8.703 5.553 2.591 3.148 6.294 5.554 8.886 5.554 2.221 0 4.626 1.296 5.367 2.777.555 1.48 2.962 2.777 5.553 2.777 2.407 0 4.814 1.296 5.554 2.777.555 1.48 2.962 2.776 5.554 2.776 2.406 0 4.813 1.296 5.553 2.777.556 1.481 2.962 2.777 5.554 2.777 2.407 0 4.813 1.296 5.554 2.777.555 1.481 2.962 2.777 5.554 2.777 2.406 0 4.813 1.296 5.553 2.777.556 1.48 2.962 2.776 5.554 2.776 2.407 0 4.813 1.296 5.554 2.777.555 1.481 2.962 2.777 5.553 2.777 2.407 0 4.813 1.296 5.554 2.777.555 1.481 2.962 2.777 5.554 2.777 2.406 0 4.813 1.296 5.553 2.777.556 1.851 3.518 2.777 8.33 2.777 4.629 0 7.591.925 8.331 2.776.556 1.852 3.518 2.777 8.331 2.777 4.628 0 7.59.926 8.33 2.777.556 1.481 2.777 2.777 4.814 2.777 2.221 0 6.11 2.407 8.702 5.554 2.407 2.962 6.11 5.553 8.146 5.553 4.628 0 10.92 6.48 10.92 11.108 0 2.036 1.296 4.257 2.777 4.813 1.481.74 2.777 3.332 2.777 6.294s-1.296 5.554-2.777 6.294c-1.851.556-2.777 3.518-2.777 8.33 0 4.629-.925 7.59-2.777 8.331-1.48.556-2.777 2.777-2.777 4.814 0 5.183-6.478 11.107-12.031 11.107-4.258 0-4.63-.741-4.63-8.146 0-5.554.926-8.515 2.777-9.256 2.222-.74 2.777-4.259 2.777-15.551 0-12.774-.555-14.994-4.257-18.51-2.407-2.222-6.11-4.074-8.147-4.074-2.22 0-4.257-1.296-4.997-2.777-.555-1.666-3.331-2.777-7.219-2.777-5.183 0-7.775 1.664-13.884 8.144-4.258 4.628-9.441 8.516-11.848 8.886-2.592.37-4.443 2.038-4.813 4.445-.37 2.221-14.256 17.586-30.917 34.247l-30.545 30.173 4.073 4.26c2.221 2.407 5.74 4.258 8.146 4.258 2.221 0 4.442 1.296 5.182 2.777.556 1.851 3.517 2.777 8.33 2.777 4.629 0 7.59.925 8.331 2.777.556 1.85 3.518 2.776 8.33 2.776 4.629 0 7.59.926 8.331 2.777.556 1.852 3.518 2.777 8.33 2.777 4.629 0 7.59.926 8.331 2.777.556 1.851 3.518 2.777 8.33 2.777 4.629 0 7.591.925 8.331 2.777.556 1.666 3.334 2.776 7.222 2.776 5.183 0 8.328 2.037 18.51 12.404 6.85 6.665 12.404 13.883 12.404 15.734s1.296 3.89 2.777 4.444c1.85.741 2.776 3.703 2.776 8.331 0 4.813.926 7.775 2.777 8.33 1.852.741 2.777 3.702 2.777 9.256 0 7.405-.368 8.146-4.626 8.146-2.592 0-5.185 1.296-5.74 2.777-.926 2.036-3.888 2.777-11.108 2.777s-10.367.74-11.107 2.776c-.74 1.481-2.961 2.777-5.183 2.777s-7.035 3.147-10.923 7.035c-7.035 7.22-9.071 15.18-4.073 15.18 1.666 0 2.777 1.666 2.777 4.073 0 2.221 3.517 7.219 8.33 12.032 4.629 4.258 8.331 9.44 8.331 11.292 0 1.851 2.407 5.368 5.554 7.774 3.517 2.962 5.368 6.48 5.553 9.627 0 3.332.926 5.185 2.777 5.185 2.037 0 2.777 2.222 2.777 8.33 0 6.11.74 8.331 2.777 8.331s2.777 2.405 2.777 10.18c0 9.627-.37 10.367-9.255 19.438-5.184 4.999-10.182 9.258-11.108 9.258-3.887 0-1.482-4.073 6.479-11.663 7.775-7.59 8.33-8.7 8.33-17.586 0-7.405-.74-9.627-2.777-9.627s-2.777-2.221-2.777-8.33c0-6.11-.74-8.33-2.776-8.33-1.667 0-2.777-1.667-2.777-4.258 0-2.407-2.407-6.11-5.554-8.702-2.962-2.592-5.369-6.295-5.554-8.146 0-2.037-3.702-7.22-8.33-11.664-5.554-5.183-8.33-9.44-8.33-12.588 0-2.592-.926-4.626-2.037-4.626s-4.071-2.592-6.663-5.554c-2.407-3.147-6.11-5.553-8.146-5.553-1.851 0-6.85-3.703-11.108-8.331-4.257-4.628-9.256-8.33-11.107-8.33s-6.85-3.703-11.107-8.331c-4.814-5.184-9.256-8.33-11.848-8.33-2.406 0-4.629-1.296-5.37-2.777-.555-1.481-2.776-2.777-4.813-2.777-2.221 0-6.107-2.592-8.699-5.554-2.407-3.147-6.11-5.554-8.146-5.554-4.628 0-10.923-6.479-10.923-11.107 0-2.036-1.296-4.258-2.777-4.813-1.481-.74-2.777-3.147-2.777-5.554 0-2.592-1.296-4.998-2.777-5.554-1.85-.74-2.777-3.704-2.777-9.258 0-9.256-1.295-9.995-7.034-3.886-3.702 3.888-4.073 6.293-4.073 24.064 0 15.921.555 20.181 2.777 20.922 1.851.74 2.777 3.702 2.777 8.33 0 4.814.925 7.776 2.777 8.331 1.85.74 2.776 3.702 2.776 8.33 0 4.814.926 7.776 2.777 8.331 2.037.926 2.777 3.888 2.777 11.107s.74 10.367 2.777 11.108c1.851.74 2.777 3.702 2.777 8.33 0 4.814.925 7.776 2.777 8.33 1.48.741 2.777 3.148 2.777 5.555 0 2.591 1.295 4.998 2.776 5.553 2.037.926 2.777 4.258 2.777 13.885 0 9.811.74 13.143 2.777 13.884 2.036.925 2.777 4.258 2.777 13.884 0 9.812.74 13.144 2.777 13.884 2.221.926 2.777 4.998 2.777 20.178s-.556 19.253-2.777 20.179c-2.037.74-2.777 3.887-2.777 11.107s-.74 10.182-2.777 11.107c-1.666.556-2.777 3.518-2.777 7.59 0 5.184-1.296 7.774-5.553 11.477-2.962 2.406-5.554 6.11-5.554 7.961 0 1.667-7.405 10.552-16.661 19.623-11.478 11.107-16.661 17.587-16.661 20.55 0 3.147-1.11 4.257-4.258 4.257-4.998 0-23.51 17.955-23.51 22.768 0 1.851-2.407 5.554-5.554 8.146s-5.554 6.295-5.554 8.887c0 2.221-1.296 4.628-2.777 5.369-2.036.74-2.777 3.888-2.777 11.107s-.74 10.182-2.777 11.108c-2.221.74-2.777 5.368-2.777 25.176 0 20.178.37 24.066 2.777 24.066 2.037 0 2.777-2.037 2.777-7.22 0-4.073 1.11-8.145 2.777-9.44 1.481-1.296 2.777-4.26 2.777-6.482 0-2.406 1.296-4.626 2.777-5.366 1.48-.556 2.777-2.594 2.777-4.445s6.85-10.18 15.18-18.51c12.959-12.96 16.107-15.18 21.29-15.18 3.888 0 6.664-1.112 7.219-2.778 1.666-4.072 27.583-4.072 29.249 0 .555 1.481 2.962 2.777 5.554 2.777 2.406 0 4.813 1.296 5.553 2.777.556 1.48 2.594 2.777 4.445 2.777 2.036 0 11.846 8.33 22.583 19.438 17.772 17.957 19.809 19.438 26.288 19.438 7.405 0 8.886-1.852 4.258-5.554-1.481-1.296-2.777-3.702-2.777-5.554 0-1.851-2.407-5.555-5.554-7.961-2.962-2.592-5.554-6.478-5.554-8.7 0-2.036-1.295-4.258-2.776-4.813-1.481-.74-2.777-3.147-2.777-5.554 0-2.591-1.296-4.998-2.777-5.553-4.073-1.667-4.073-55.352 0-57.018 1.48-.555 2.777-2.593 2.777-4.63 0-2.035 4.998-8.33 11.107-14.255 6.11-5.738 11.107-11.846 11.107-13.512 0-4.073 62.944-66.83 66.832-66.83 1.851 0 5.368-2.406 7.775-5.553 2.591-2.962 6.477-5.554 8.699-5.554 2.036 0 4.258-1.295 4.813-2.776.741-1.852 3.703-2.777 8.331-2.777 4.813 0 7.775-.926 8.33-2.777.741-1.481 3.148-2.777 5.554-2.777 2.592 0 4.998-1.296 5.554-2.777.74-1.48 3.147-2.777 5.554-2.777 2.591 0 4.998-1.295 5.553-2.776.74-1.481 3.147-2.777 5.554-2.777 2.592 0 4.998-1.296 5.554-2.777.74-1.481 3.148-2.777 5.369-2.777 2.592 0 6.295-2.407 8.886-5.554 2.592-3.147 6.478-5.553 8.7-5.553 2.036 0 4.258-1.296 4.813-2.777.74-1.481 2.964-2.777 5.185-2.777s7.033-3.147 10.92-7.034l6.85-7.037v-17.03c0-24.807-.37-24.436 36.84-24.436 24.436 0 29.62.555 30.545 2.777.555 1.48 2.593 2.777 4.444 2.777 4.443 0 28.137 23.694 28.137 28.137 0 1.851 1.296 3.89 2.777 4.445 1.852.74 2.777 3.516 2.777 7.959 0 5.553 1.48 8.146 7.035 13.7l7.221 7.034 7.775-8.515c4.257-4.628 8.516-8.33 9.442-8.33 1.11 0 1.85 5.922 1.85 13.327 0 12.959-.186 13.7-5.554 17.218-7.035 4.628-7.22 8.33-.185 8.33 2.962 0 5.738 1.11 6.479 2.777.555 1.48 2.777 2.777 4.813 2.777s4.258-1.296 4.814-2.777c.74-1.851 3.702-2.777 8.33-2.777 4.813 0 7.775-.926 8.33-2.777.741-1.48 2.964-2.777 5.186-2.777 2.591 0 12.586-8.7 30.358-26.472l26.287-26.288v-18.141c0-14.81-.555-17.958-2.776-17.958-2.037 0-2.777 2.036-2.777 7.219 0 4.073-1.111 8.147-2.777 9.442-1.481 1.296-2.777 3.703-2.777 5.554 0 3.332-12.031 16.661-14.993 16.661-.926 0-1.668-3.333-1.668-7.405 0-4.999-.926-7.96-2.777-8.515-2.221-.926-2.777-4.445-2.777-16.293 0-13.699-.369-15.735-4.442-19.438-5.924-5.553-16.66-4.812-17.4 1.297-.371 2.406.554 4.63 2.22 5.184 2.221.926 2.961 3.703 2.961 11.108 0 7.22.74 10.367 2.777 11.107 1.851.74 2.777 3.702 2.777 9.255 0 5.924-.74 8.146-2.777 8.146-1.666 0-2.777-1.666-2.777-4.628 0-2.592-1.296-5.183-2.777-5.738-1.851-.741-2.777-3.703-2.777-8.331 0-4.813-.925-7.775-2.776-8.33-1.666-.741-2.777-3.52-2.777-6.482 0-5.924-2.037-6.847-5.554-2.59-1.296 1.481-3.7 2.777-5.366 2.777-3.888 0-22.402-17.959-22.402-21.661s-13.514-17.215-17.402-17.215c-3.332 0-10.367-6.296-10.367-9.257 0-2.962 4.999-2.22 6.294.927.556 1.48 2.777 2.777 4.814 2.777 2.221 0 9.258 5.552 17.588 14.253l13.697 14.256 3.705-4.63c3.147-3.702 3.7-7.218 3.885-19.806 0-16.846 1.298-18.328 8.703-9.627 2.406 2.962 5.924 5.554 7.59 5.554 3.702.185 11.476 6.294 11.476 9.07 0 1.112 1.296 2.037 2.777 2.037 1.48 0 2.777-1.296 2.777-2.777s-1.296-2.777-2.777-2.777c-1.666 0-2.777-1.665-2.777-4.257 0-4.813-34.432-40.172-39.245-40.172-3.887 0-16.292-12.404-16.292-16.477 0-1.666-12.403-15.55-27.769-30.73-15.18-15.18-27.768-28.879-27.768-30.545 0-2.777-23.695-27.768-26.472-27.768-2.407 0-1.296 8.7 1.48 11.107 2.037 1.666 2.777 6.109 2.777 16.846 0 12.218-.554 15.179-3.701 18.326-5.924 5.924-7.406 4.444-7.406-6.478 0-7.405-.74-10.552-2.777-11.292-1.481-.74-2.777-3.148-2.777-5.37 0-2.406-2.22-6.294-5.366-8.886-2.962-2.407-5.74-6.48-6.11-8.886-.37-3.333-1.668-4.442-5.185-4.442-4.443 0-4.626.555-5.182 12.403-.555 11.478-1.11 12.958-7.034 18.882s-7.776 6.666-16.477 6.666c-7.035 0-10.182-.74-10.923-2.777-.555-1.481-3.146-2.777-5.738-2.777-3.702 0-4.63-.926-4.63-4.629 0-2.592-1.295-5.183-2.776-5.738-2.036-.74-2.777-3.888-2.777-10.923 0-8.886.742-10.553 6.666-16.477 5.368-5.368 8.145-6.663 13.884-6.663 3.888 0 7.219-.925 7.219-2.036 0-3.147-7.959-8.886-12.217-9.071-2.221 0-4.444-1.296-5.185-2.777-.555-1.48-2.961-2.777-5.553-2.777-2.407 0-4.813-1.296-5.554-2.777-.555-1.48-2.962-2.776-5.554-2.776-2.406 0-4.813-1.296-5.553-2.777-.556-1.481-2.962-2.777-5.554-2.777-2.407 0-4.813-1.296-5.554-2.777-.555-1.48-2.962-2.777-5.553-2.777-2.407 0-4.814-1.296-5.554-2.777-.556-1.48-2.962-2.776-5.554-2.776-2.406 0-4.813-1.296-5.554-2.777-.555-1.851-3.517-2.777-8.33-2.777-4.628 0-7.59-.926-8.33-2.777-.556-1.48-2.963-2.777-5.554-2.777-2.407 0-4.813-1.296-5.554-2.777-.555-1.48-2.962-2.776-5.554-2.776-2.406 0-4.813-1.296-5.553-2.777-.556-1.852-3.518-2.777-8.33-2.777-4.629 0-7.59-.926-8.331-2.777-.556-1.481-2.962-2.777-5.554-2.777-2.407 0-4.813-1.296-5.554-2.777-.555-1.851-3.517-2.777-8.33-2.777-4.628 0-7.59-.925-8.33-2.776-.556-1.852-3.517-2.777-8.516-2.777-5.368 0-7.406-.74-7.406-2.777s-2.221-2.777-8.33-2.777c-6.11 0-8.33-.74-8.33-2.777s2.22-2.777 8.33-2.777 8.33.74 8.33 2.777c0 2.222 2.407 2.777 10.923 2.777 7.96 0 11.107.74 12.032 2.777.556 1.851 3.518 2.777 8.331 2.777 4.628 0 7.59.925 8.33 2.777.556 1.85 3.518 2.776 8.331 2.776 4.628 0 7.59.926 8.33 2.777.556 1.852 3.518 2.777 8.331 2.777 4.628 0 7.59.926 8.33 2.777.741 2.036 3.888 2.777 11.108 2.777s10.182.74 11.107 2.777c.74 2.036 3.888 2.777 11.108 2.777s10.182.74 11.107 2.776c.556 1.852 3.518 2.777 8.33 2.777 4.629 0 7.59.926 8.331 2.777.556 1.481 2.962 2.777 5.554 2.777 2.407 0 4.813 1.296 5.554 2.777.555 1.48 2.962 2.777 5.553 2.777 2.407 0 4.814 1.295 5.554 2.776.555 1.481 2.962 2.777 5.554 2.777 2.406 0 4.813 1.296 5.553 2.777.556 1.481 2.962 2.777 5.554 2.777 2.407 0 4.813 1.296 5.554 2.777.555 1.48 2.962 2.777 5.554 2.777 2.406 0 4.813 1.295 5.553 2.776.556 1.481 2.962 2.777 5.554 2.777 2.407 0 4.813 1.296 5.554 2.777.555 1.481 2.776 2.777 4.813 2.777 2.221 0 6.11 2.407 8.702 5.554s6.295 5.553 8.886 5.553c2.222 0 4.626 1.296 5.367 2.777.555 1.481 2.962 2.777 5.554 2.777 2.406 0 4.813 1.296 5.553 2.777.556 1.48 2.594 2.777 4.445 2.777 2.036 0 4.626 1.296 5.922 2.777 3.703 4.628 5.554 3.147 5.554-4.258 0-6.109-1.48-8.33-12.588-19.438-7.59-7.405-14.07-12.403-16.477-12.403-2.036 0-4.257-1.296-4.997-2.777-.556-1.481-2.962-2.777-5.554-2.777-2.406 0-4.813-1.296-5.554-2.777-.555-1.48-2.962-2.777-5.553-2.777-2.407 0-4.813-1.296-5.554-2.777-.555-1.48-2.962-2.776-5.554-2.776-2.406 0-4.813-1.296-5.553-2.777-.556-1.481-2.962-2.777-5.554-2.777-2.407 0-4.813-1.296-5.554-2.777-.555-1.851-3.517-2.777-8.33-2.777-4.628 0-7.59-.925-8.33-2.777-.556-1.48-2.963-2.776-5.555-2.776-2.406 0-4.813-1.296-5.553-2.777-.556-1.852-3.518-2.777-8.33-2.777-4.629 0-7.59-.926-8.331-2.777-.74-2.036-3.888-2.777-11.108-2.777s-10.182-.74-11.107-2.777c-.556-1.851-3.517-2.777-8.33-2.777-4.629 0-7.59-.925-8.331-2.776-.74-2.037-3.888-2.777-11.108-2.777s-10.181-.74-11.107-2.777c-.74-2.036-3.888-2.777-11.107-2.777s-10.182-.74-11.108-2.777c-.555-1.851-3.517-2.777-8.33-2.777-4.628 0-7.59-.925-8.33-2.776-.556-1.852-3.518-2.777-8.331-2.777-4.628 0-7.59-.926-8.33-2.777-.741-2.036-3.888-2.777-11.108-2.777s-10.182-.74-11.108-2.777c-.555-1.851-3.517-2.777-8.33-2.777-4.628 0-7.59-.925-8.33-2.777-.556-1.85-3.518-2.776-8.331-2.776-4.628 0-7.59-.926-8.33-2.777-.556-1.851-3.518-2.777-8.331-2.777-4.628 0-7.59-.926-8.33-2.777-.556-1.851-3.518-2.777-8.331-2.777-4.628 0-7.59-.925-8.33-2.777-.556-1.85-3.518-2.776-8.331-2.776-4.629 0-7.59-.926-8.33-2.777-.556-1.852-3.518-2.777-8.332-2.777-4.628 0-7.59-.926-8.33-2.777-.555-1.851-3.517-2.777-8.33-2.777-4.629 0-7.59-.925-8.331-2.777-.74-2.406-6.294-2.776-33.322-2.776-26.843 0-32.397-.37-33.322-2.777-.74-2.222-4.814-2.777-19.438-2.777s-18.513-.556-19.438-2.777c-.74-2.036-3.888-2.777-11.108-2.777s-10.181-.74-11.107-2.777c-.555-1.851-3.517-2.777-8.33-2.777-4.629 0-7.59-.925-8.331-2.776-.74-2.037-4.073-2.777-13.884-2.777-9.627 0-12.959-.74-13.885-2.777-.555-1.666-3.517-2.777-7.59-2.777m86.082 55.537c-16.476 0-20.734.555-21.474 2.777-.926 2.036-4.258 2.777-13.884 2.777-9.812 0-13.144.74-13.884 2.776-.926 2.037-3.888 2.777-11.108 2.777s-10.367.74-11.107 2.777c-.926 2.037-4.258 2.777-13.884 2.777-9.812 0-13.144.74-13.885 2.777-.74 1.851-3.702 2.777-8.33 2.777-4.813 0-7.775.925-8.33 2.776-.926 2.037-3.888 2.777-11.108 2.777s-10.367.74-11.108 2.777c-.74 1.851-3.702 2.777-8.33 2.777-4.813 0-7.775.926-8.33 2.777-.741 1.851-3.703 2.777-8.331 2.777-4.813 0-7.775.925-8.33 2.777-.741 1.85-3.703 2.776-8.331 2.776-4.813 0-7.775.926-8.33 2.777-.741 1.851-3.703 2.777-8.331 2.777-4.813 0-7.775.926-8.33 2.777-.741 1.481-3.148 2.777-5.555 2.777-2.591 0-4.998 1.296-5.553 2.777-.74 1.48-3.147 2.776-5.554 2.776-2.592 0-4.998 1.296-5.554 2.777-.74 1.481-3.147 2.777-5.553 2.777-2.592 0-4.999 1.296-5.554 2.777-.74 1.481-3.147 2.777-5.554 2.777-2.591 0-4.998 1.296-5.553 2.777-.74 1.48-3.147 2.777-5.554 2.777-2.592 0-4.998 1.295-5.554 2.776-.74 1.481-3.147 2.777-5.553 2.777-2.592 0-4.999 1.296-5.554 2.777-.74 1.481-3.145 2.777-5.367 2.777-2.592 0-6.294 2.407-8.886 5.554-2.592 2.962-6.48 5.553-8.33 5.553-2.037 0-5.925 2.407-8.331 5.554-2.592 2.962-6.48 5.554-8.33 5.554-2.037 0-5.925 2.406-8.331 5.553-2.592 2.962-6.48 5.554-8.33 5.554-2.037 0-5.925 2.407-8.331 5.554-2.592 2.962-6.295 5.553-8.146 5.553-2.037 0-11.849 8.516-22.771 19.438-10.367 10.738-20.362 19.438-22.028 19.438-3.887 0-22.402 18.512-22.402 22.4 0 1.666-7.405 10.366-16.66 19.437-9.072 8.886-16.662 17.771-16.662 19.623 0 1.666-3.702 6.665-8.33 10.923s-8.331 9.255-8.331 11.291c0 2.037-2.407 5.74-5.554 8.331-2.962 2.407-5.553 6.294-5.553 8.33 0 1.852-2.592 5.74-5.554 8.331-3.147 2.592-5.554 6.295-5.554 8.887 0 2.221-1.296 4.628-2.777 5.369-1.48.555-2.777 2.962-2.777 5.554 0 2.406-1.295 4.813-2.776 5.553-1.481.556-2.777 2.777-2.777 4.814 0 2.221-2.407 6.107-5.554 8.699s-5.554 6.295-5.554 8.886c0 2.222-1.295 4.63-2.776 5.37-1.481.555-2.777 2.962-2.777 5.553 0 2.407-1.296 4.814-2.777 5.554-1.481.556-2.777 2.962-2.777 5.554 0 2.406-1.296 4.813-2.777 5.554-1.48.555-2.777 2.962-2.777 5.553 0 2.407-1.296 4.813-2.777 5.554-1.48.555-2.776 2.962-2.776 5.554 0 2.406-1.296 4.813-2.777 5.553-1.481.556-2.777 3.147-2.777 5.738 0 3.518-.925 4.63-4.258 4.63-.957 0-2.85-1.13-5.87-3.549L698.83 990c-1.682-2.084-2.65-3.518-2.65-4.046 0-1.852-1.295-3.886-2.776-4.442-1.481-.74-2.777-2.963-2.777-5.37 0-2.59-3.147-7.034-8.33-11.847-4.629-4.258-8.331-9.256-8.331-11.107 0-1.852-3.703-6.85-8.331-11.108s-8.33-9.256-8.33-11.107-4.999-8.146-11.108-13.884c-6.109-5.924-11.107-12.033-11.107-13.885s-6.294-9.256-13.884-16.66c-7.59-7.406-13.885-14.995-13.885-16.846 0-1.666-4.998-7.961-11.107-13.7-6.11-5.924-11.107-12.217-11.107-14.069 0-1.85-2.407-5.555-5.554-7.961-3.147-2.592-5.554-6.48-5.554-8.33 0-2.037-2.406-5.925-5.553-8.331-3.148-2.592-5.554-6.48-5.554-8.33 0-2.037-2.407-5.925-5.554-8.332-2.962-2.591-5.554-6.479-5.554-8.33 0-2.036-2.406-5.924-5.553-8.33-2.962-2.592-5.554-6.48-5.554-8.331 0-2.036-2.407-5.924-5.554-8.33-2.962-2.592-5.553-6.48-5.553-8.331 0-2.037-2.407-5.924-5.554-8.33-2.962-2.592-5.554-6.48-5.554-8.331 0-2.037-2.406-5.924-5.553-8.33-2.962-2.593-5.554-6.295-5.554-8.331 0-2.037-3.703-7.034-8.33-11.292-4.629-4.258-8.331-9.256-8.331-11.107 0-2.037-2.407-5.74-5.554-8.147-2.962-2.591-5.554-6.294-5.554-8.33s-3.702-7.034-8.33-11.292-8.33-9.256-8.33-11.107c0-2.037-2.407-5.74-5.554-8.146-6.665-5.74-7.035-8.7-1.297-8.7 2.962 0 14.81 10.738 41.653 37.395 20.549 20.55 37.395 38.876 37.395 40.357 0 1.666 7.59 10.365 16.661 19.25 9.257 9.072 16.662 17.774 16.662 19.626 0 1.851 3.702 6.662 8.33 10.92s8.33 9.256 8.33 11.108c0 2.036 2.407 5.74 5.554 8.146 2.962 2.591 5.554 6.294 5.554 8.33s3.702 7.034 8.33 11.292 8.331 9.256 8.331 11.107 3.702 6.85 8.33 11.108 8.331 9.256 8.331 11.107 3.703 6.85 8.33 11.108c4.629 4.257 8.331 9.256 8.331 11.107s3.703 6.85 8.33 11.107c4.629 4.258 8.331 9.256 8.331 11.108 0 2.036 2.407 5.739 5.554 8.145 2.962 2.592 5.554 6.481 5.554 8.703 0 2.036 1.295 4.258 2.776 4.813 1.481.74 2.777 3.145 2.777 5.367 0 2.591 2.407 6.294 5.554 8.886s5.554 6.48 5.554 8.702c0 2.037 1.296 4.258 2.777 4.814 1.48.74 2.776 3.145 2.776 5.366 0 2.592 2.407 6.295 5.554 8.886 3.517 2.962 5.554 6.481 5.554 9.443s1.11 4.813 2.777 4.813 2.776-1.667 2.776-4.629c0-2.591-1.295-5.182-2.776-5.738-1.852-.74-2.777-3.702-2.777-8.33 0-4.813-.926-7.775-2.777-8.33-1.851-.741-2.777-3.703-2.777-8.331 0-4.813-.926-7.775-2.777-8.33-1.851-.741-2.777-3.705-2.777-9.26 0-5.923-.74-8.142-2.776-8.142-1.667 0-2.777-1.667-2.777-4.63 0-2.59-1.296-5.182-2.777-5.737-3.147-1.296-3.887-6.294-.925-6.294 3.518 0 9.255 7.404 9.255 12.032 0 2.962 1.111 4.629 2.777 4.629s2.777 1.665 2.777 4.442c0 2.776 2.222 6.293 5.554 9.07 3.147 2.592 5.553 6.296 5.553 7.962 0 3.332 6.85 11.848 9.627 11.848s1.666-14.81-1.296-15.92c-2.036-.926-2.777-3.888-2.777-11.108s-.74-10.367-2.777-11.108c-1.85-.74-2.777-3.702-2.777-8.33 0-4.813-.925-7.775-2.776-8.33-2.037-.926-2.777-3.888-2.777-11.108s-.74-10.367-2.777-11.107c-2.222-.926-2.777-4.814-2.777-19.438 0-14.625-.555-18.698-2.777-19.438-2.221-.926-2.777-6.11-2.777-30.546 0-24.62-.555-29.804-2.776-30.545-2.037-.925-2.777-3.887-2.777-11.107s-.74-10.367-2.777-11.108c-1.851-.74-2.777-3.702-2.777-8.33 0-4.813-.926-7.775-2.777-8.33-1.851-.741-2.777-3.703-2.777-8.331 0-4.813-.925-7.775-2.777-8.33-1.48-.741-2.776-3.148-2.776-5.554 0-2.592-1.296-4.999-2.777-5.554-1.851-.74-2.777-3.703-2.777-8.33 0-4.814-.926-7.776-2.777-8.331-1.851-.74-2.777-3.703-2.777-8.33 0-4.814-.925-7.776-2.777-8.331-1.48-.74-2.776-3.147-2.776-5.554 0-2.592-1.296-4.998-2.777-5.554-1.852-.74-2.777-3.702-2.777-8.33 0-4.813-.926-7.775-2.777-8.33-1.851-.741-2.777-3.703-2.777-8.331 0-4.813-.925-7.775-2.777-8.33-2.036-.926-2.777-3.888-2.777-11.108s-.74-10.367-2.776-11.108c-2.037-.925-2.777-4.257-2.777-13.884 0-9.811-.74-13.143-2.777-13.884-2.036-.926-2.777-3.888-2.777-11.107s-.74-10.367-2.777-11.108c-2.221-.925-2.777-4.628-2.777-16.66 0-12.219-.555-15.921-2.776-16.662-2.222-.925-2.777-4.813-2.777-19.438s-.556-18.697-2.777-19.438c-2.407-.925-2.777-8.33-2.777-50.723s.37-49.798 2.777-50.724c2.221-.74 2.777-4.443 2.777-16.661 0-12.033.555-15.736 2.777-16.661 1.85-.556 2.776-3.518 2.776-8.33 0-4.629.926-7.59 2.777-8.331 1.851-.556 2.777-3.518 2.777-8.33 0-4.629.926-7.59 2.777-8.331 1.481-.556 2.777-2.962 2.777-5.554 0-2.407 1.296-4.813 2.777-5.554 1.48-.555 2.776-2.962 2.776-5.553 0-2.407 1.296-4.814 2.777-5.554 1.481-.556 2.777-2.962 2.777-5.554 0-2.406 1.296-4.813 2.777-5.554 1.481-.555 2.777-2.962 2.777-5.553 0-2.407 1.296-4.813 2.777-5.554 1.48-.555 2.777-2.777 2.777-4.813 0-3.888 6.11-11.108 9.258-11.108s2.22 16.106-.928 17.402c-2.036.74-2.777 3.888-2.777 11.107s-.74 10.182-2.777 11.108c-1.85.555-2.776 3.517-2.776 8.33 0 4.628-.926 7.59-2.777 8.33-1.852.556-2.777 3.518-2.777 8.331 0 4.628-.926 7.59-2.777 8.331-2.036.74-2.777 4.073-2.777 13.144s.74 12.403 2.777 13.143c1.481.741 2.777 3.146 2.777 5.367 0 2.592 2.406 6.295 5.554 8.887 3.147 2.592 5.553 6.48 5.553 8.33 0 2.037 2.592 5.924 5.554 8.33 3.147 2.593 5.554 6.481 5.554 8.703 0 2.036 1.295 4.258 2.776 4.813 1.852.74 2.777 3.702 2.777 8.33 0 4.814.926 7.776 2.777 8.331 2.407.926 2.777 8.7 2.777 53.5s-.37 52.576-2.777 53.501c-1.48.555-2.777 2.406-2.777 4.257.185 3.332 6.11 11.664 8.33 11.664 2.593 0 8.146-8.517 8.331-12.22 0-2.22 1.296-4.441 2.777-5.182 1.481-.555 2.777-2.962 2.777-5.554 0-2.406 1.296-4.813 2.777-5.553 2.036-.74 2.777-3.888 2.777-11.108s.74-10.181 2.777-11.107c2.406-.926 2.776-7.775 2.776-46.466s-.37-45.54-2.776-46.466c-2.037-.925-2.777-3.887-2.777-11.107s-.74-10.367-2.777-11.108c-1.851-.74-2.777-3.702-2.777-8.33 0-4.813-.926-7.775-2.777-8.33-4.072-1.667-4.072-66.46 0-68.126 2.037-.74 2.777-4.073 2.777-13.884 0-9.626.74-12.959 2.777-13.884 2.221-.74 2.777-4.26 2.777-15.368 0-12.033-.556-14.808-4.073-18.51s-5.737-4.258-18.51-4.258c-14.07 0-14.81-.185-19.439-5.553-2.406-3.147-6.108-5.554-7.774-5.554-1.851 0-12.035-8.7-22.402-19.438-12.959-12.959-20.547-19.438-23.324-19.438-2.221 0-4.444-1.296-5.185-2.777-.555-1.48-2.962-2.777-5.553-2.777-2.407 0-4.814-1.295-5.554-2.776-.556-1.481-2.962-2.777-5.554-2.777-2.406 0-4.813-1.296-5.554-2.777-.555-1.481-2.961-2.777-5.553-2.777-2.407 0-4.813-1.296-5.554-2.777-.74-2.406-7.22-2.777-40.912-2.777s-40.172.37-40.913 2.777c-.925 2.222-5.183 2.777-22.214 2.777-17.217 0-21.475.555-22.215 2.777-.74 1.48-3.147 2.777-5.554 2.777-2.592 0-4.998 1.296-5.554 2.777-.74 1.85-3.702 2.776-8.33 2.776-4.813 0-7.775.926-8.33 2.777-.741 1.481-3.148 2.777-5.554 2.777-2.592 0-4.999 1.296-5.554 2.777-.74 1.481-3.147 2.777-5.554 2.777-2.591 0-4.998 1.296-5.553 2.777-.74 1.48-3.148 2.777-5.554 2.777-2.592 0-4.998 1.295-5.554 2.776-.74 1.481-3.147 2.777-5.553 2.777-2.592 0-4.999 1.296-5.554 2.777-.74 1.481-3.145 2.777-5.367 2.777-2.592 0-6.294 2.407-8.886 5.554-2.592 2.962-6.48 5.553-8.33 5.553-2.037 0-5.925 2.407-8.331 5.554-2.592 2.962-6.294 5.554-8.33 5.554-1.852 0-9.441 6.294-16.846 13.884s-14.995 13.884-16.661 13.884-20.551 17.587-41.84 38.876c-22.215 22.4-40.17 38.876-42.022 38.876s-3.889 1.296-4.444 2.777c-.74 1.48-2.22 2.776-3.702 2.776-3.517 0-3.333-8.145.184-11.107 1.481-1.296 2.777-4.26 2.777-6.481 0-2.407 1.296-4.626 2.777-5.367 1.481-.555 2.777-2.962 2.777-5.553 0-2.407 1.296-4.814 2.777-5.554 1.48-.556 2.777-2.777 2.777-4.813 0-2.222 2.591-6.11 5.553-8.702 3.147-2.407 5.554-6.11 5.554-8.147 0-1.85 3.703-6.85 8.33-11.107 4.629-4.258 8.331-9.256 8.331-11.108 0-4.442 6.481-10.92 10.739-10.92 1.851 0 9.44-6.294 16.845-13.884s14.994-13.884 16.846-13.884c1.666 0 6.665-3.702 10.923-8.33s9.256-8.331 11.107-8.331c2.036 0 5.74-2.592 8.146-5.554 2.592-3.147 6.48-5.553 8.33-5.553 2.037 0 5.925-2.592 8.331-5.554 2.592-3.147 6.294-5.554 8.33-5.554s7.035-3.702 11.293-8.33 9.257-8.33 11.479-8.33c2.036 0 4.07-1.297 4.626-2.778.74-1.851 3.702-2.777 8.33-2.777 4.814 0 7.776-.925 8.331-2.776.74-1.481 3.147-2.777 5.554-2.777 2.591 0 4.998-1.296 5.553-2.777.74-1.851 3.703-2.777 8.33-2.777 4.814 0 7.776-.926 8.331-2.777.741-1.48 3.148-2.777 5.554-2.777 2.592 0 4.998-1.296 5.554-2.777.74-1.85 3.702-2.776 8.33-2.776 4.814 0 7.776-.926 8.33-2.777.927-2.037 3.888-2.777 11.108-2.777s10.367-.74 11.108-2.777c.925-2.036 3.887-2.777 11.107-2.777s10.367-.74 11.107-2.777c.741-1.48 2.222-2.776 3.517-2.776 1.296 0 2.777 1.295 3.518 2.776.555 1.666 3.517 2.777 7.59 2.777s7.035-1.11 7.59-2.777c.74-1.48 2.963-2.776 5.37-2.776 2.591 0 7.034-3.148 11.847-8.331l7.59-8.33h14.996c11.478 0 14.994-.556 15.734-2.777.74-1.852 3.702-2.777 9.07-2.777 5.37 0 8.331.925 9.072 2.777.74 2.221 4.443 2.776 16.66 2.776 12.034 0 15.736.556 16.662 2.777.555 1.852 3.517 2.777 8.33 2.777 4.629 0 7.59.926 8.331 2.777.555 1.481 2.962 2.777 5.554 2.777 2.406 0 4.813 1.296 5.553 2.777.556 1.48 2.962 2.777 5.554 2.777 2.407 0 4.813 1.295 5.554 2.776.555 1.666 3.333 2.777 7.405 2.777 4.814 0 7.962 1.665 12.96 6.663 3.703 3.703 6.663 7.96 6.663 9.627s4.258 7.406 9.626 12.775c7.776 7.96 10.924 9.811 15.737 9.811 3.888 0 6.663-1.11 7.219-2.777.74-1.48 2.961-2.777 4.997-2.777 2.407 0 8.887-4.998 16.477-12.403l12.588-12.404V106.25c0-10.367-.556-11.663-6.85-18.142-5.554-5.739-8.145-7.034-13.884-7.034-4.998 0-7.034-.74-7.034-2.777 0-2.222 2.777-2.777 13.7-2.777 10.366 0 13.883.74 14.808 2.777.556 1.481 2.962 2.777 5.554 2.777 2.407 0 4.813 1.296 5.554 2.777.555 1.48 3.149 2.776 5.74 2.776 3.703 0 4.627.924 4.627 4.627 0 2.591 1.296 5.185 2.777 5.74 2.036.926 2.776 4.073 2.776 11.848s-.74 10.922-2.776 11.848c-1.481.555-2.777 2.59-2.777 4.626 0 4.998-23.881 27.956-29.065 27.956-2.592 0-4.257 1.11-4.257 2.777 0 2.221 2.407 2.776 10.182 2.776 7.405 0 10.552-.74 11.292-2.776.74-1.852 3.703-2.777 8.33-2.777 4.814 0 7.776-.926 8.331-2.777.74-1.666 3.517-2.777 7.775-2.777 7.775 0 15.18-5.925 15.18-12.22 0-2.22 1.296-4.441 2.777-5.182 2.036-.74 2.777-4.072 2.777-13.143s-.74-12.403-2.777-13.144c-1.48-.74-2.777-3.148-2.777-5.37 0-2.59-2.406-6.294-5.553-8.886-2.962-2.592-5.554-6.293-5.554-7.959 0-4.813-12.957-17.401-17.77-17.401-2.222 0-4.445-1.296-5.185-2.777-.555-1.481-2.962-2.777-5.554-2.777-2.406 0-4.813-1.296-5.553-2.777-.556-1.48-2.962-2.777-5.554-2.777-2.407 0-4.813-1.296-5.554-2.777-.555-1.48-2.962-2.776-5.554-2.776-2.406 0-4.813-1.296-5.553-2.777-.556-1.851-3.518-2.777-8.33-2.777-4.629 0-7.59-.926-8.331-2.777-.74-2.036-3.888-2.777-11.108-2.777s-10.181-.74-11.107-2.777c-.555-1.85-3.517-2.776-8.33-2.776-4.629 0-7.59-.926-8.331-2.777-.74-2.222-4.999-2.777-21.475-2.777m180.495 22.215c6.11 0 8.33.74 8.33 2.776 0 2.037-2.22 2.777-8.33 2.777s-8.33-.74-8.33-2.777 2.221-2.776 8.33-2.776M671.188 164.379c-1.481 0-2.777 1.296-2.777 2.777s1.111 2.777 2.592 2.777 2.962 1.296 3.702 2.777c.555 1.48 2.593 2.777 4.445 2.777 2.036 0 4.626 1.295 5.922 2.776s3.702 2.777 5.554 2.777c1.851 0 4.258 1.296 5.553 2.777 1.481 1.666 5.554 2.777 11.108 2.777s9.626 1.11 11.107 2.777 5.554 2.777 11.108 2.777 9.626-1.111 11.107-2.777c1.296-1.481 5.185-2.777 8.702-2.777 3.888 0 6.663-1.11 7.219-2.777.74-1.666 3.52-2.777 6.481-2.777 3.517 0 5.366-.925 5.366-2.777 0-1.666-1.664-2.776-4.626-2.776-2.592 0-5.185 1.295-5.74 2.776-.926 2.222-5.552 2.777-24.805 2.777-18.698 0-24.068-.555-25.92-2.777-1.295-1.48-4.998-2.776-8.33-2.776s-7.034-1.296-8.33-2.777c-1.296-1.666-5.367-2.777-9.44-2.777-5.183 0-7.221-.74-7.221-2.777 0-1.48-1.296-2.777-2.777-2.777m313.783 38.876q5.554 0 5.554 2.777c0 2.221 3.333 2.777 18.513 2.777 14.81 0 18.882-.556 19.623-2.777.925-2.037 4.444-2.777 14.811-2.777 10.923 0 13.697.555 13.697 2.777s-2.405 2.777-10.18 2.777c-7.405 0-10.554.74-11.294 2.777-.926 2.221-5.368 2.776-23.14 2.776-18.327 0-22.03-.555-22.03-2.776q0-2.778-5.554-2.777-5.553 0-5.553-2.777t5.553-2.777m83.306 0q5.553 0 5.553 2.777t-5.553 2.777c-5.553 0-5.554-.926-5.554-2.777q0-2.777 5.554-2.777m-333.27 16.901c-.605 0-1.174 0-1.709.01-6.421.087-8.054.956-10.83 4.011-4.073 4.258-4.072 5.182-3.702 44.058l.556 39.616 5.182.556c4.258.556 4.998 0 4.998-4.073 0-4.813 5.74-12.216 9.257-12.216 1.111 0 1.85 2.034 1.85 4.626 0 4.628-5.738 12.035-9.255 12.035-.926 0-1.852 2.034-1.852 4.626s-1.296 5.185-2.777 5.74c-1.481.741-2.777 2.222-2.777 3.518s1.296 2.777 2.777 3.517c1.666.555 2.777 3.517 2.777 7.59s1.11 7.035 2.776 7.59c1.481.741 2.777 3.148 2.777 5.554 0 2.592 1.296 4.999 2.777 5.554 1.851.74 2.777 3.702 2.777 8.33 0 4.814.926 7.776 2.777 8.331 1.851.74 2.777 3.702 2.777 8.33 0 4.814.925 7.776 2.776 8.331 2.037.926 2.777 3.888 2.777 11.107s.74 10.367 2.777 11.108c2.222.925 2.777 4.628 2.777 16.66 0 12.22.555 15.921 2.777 16.662 2.221.926 2.777 5.553 2.777 25.732s-.556 24.806-2.777 25.732c-2.222.74-2.777 4.813-2.777 19.438s-.555 18.512-2.777 19.438c-3.332 1.11-3.887 15.92-.74 15.92s8.886-7.961 9.07-12.219c0-2.221 1.297-4.442 2.778-5.182 1.48-.555 2.776-2.962 2.776-5.554 0-2.406 1.296-4.813 2.777-5.553 1.481-.556 2.777-2.962 2.777-5.554 0-2.407 1.296-4.813 2.777-5.554 1.851-.555 2.777-3.517 2.777-8.33 0-4.628.925-7.59 2.777-8.33 2.406-.926 2.776-8.147 2.776-49.244s-.37-48.317-2.776-49.243c-2.037-.925-2.777-3.887-2.777-11.107s-.74-10.367-2.777-11.107c-1.851-.74-2.777-3.703-2.777-8.33 0-4.814-.926-7.776-2.777-8.331-1.48-.74-2.777-3.148-2.777-5.554 0-2.592-1.295-4.998-2.776-5.554-1.852-.74-2.777-3.702-2.777-8.33 0-4.814-.926-7.776-2.777-8.33-1.481-.741-2.777-3.148-2.777-5.555 0-2.591-1.296-4.998-2.777-5.553-1.851-.74-2.777-3.703-2.777-8.146 0-5.554-1.11-8.147-5.553-11.664-5.924-5.183-7.59-13.142-2.777-14.993 2.221-.74 2.777-4.443 2.777-16.661 0-12.033.555-15.736 2.776-16.661 1.852-.556 2.777-3.518 2.777-8.33s.928-7.59 2.964-8.331c1.667-.556 2.591-2.779 2.221-5.185-.555-3.888-1.666-4.258-15.365-4.814a299 299 0 0 0-6.53-.128zm386.03 60.85c20.919 0 24.991.37 24.991 2.777s-4.072 2.777-24.991 2.777-24.992.37-24.992 2.777q0 2.777-5.554 2.777-5.553 0-5.553-2.777c0-2.777 1.85-2.777 5.553-2.777q5.554 0 5.554-2.777c0-2.406 4.073-2.776 24.992-2.776m36.099 5.554q5.553 0 5.553 2.777c0 2.777-1.85 2.777-5.553 2.777q-5.554 0-5.554-2.777c0-2.777 1.851-2.777 5.554-2.777m-62.572 105.52c-22.4 0-24.066.185-27.768 4.258-2.221 2.406-4.073 4.813-4.073 5.554 0 2.406 8.886 1.296 11.107-1.481 1.852-2.221 6.85-2.777 23.327-2.777 17.587 0 21.103-.555 21.103-2.777 0-2.406-3.887-2.777-23.696-2.777m32.026 5.554c-1.48 0-2.776 1.296-2.776 2.777s1.111 2.777 2.592 2.777c1.48 0 2.961 1.296 3.702 2.777.555 1.48 3.149 2.777 5.74 2.777 2.962 0 4.627 1.11 4.627 2.776 0 1.481 1.295 2.777 2.776 2.777s2.777-1.296 2.777-2.777-1.296-2.776-2.777-2.776-2.776-1.296-2.776-2.777q0-2.777-5.554-2.777c-5.554 0-5.554-.926-5.554-2.777 0-1.481-1.296-2.777-2.777-2.777m26.473 22.215c-.74 0-1.481 6.107-1.481 13.697 0 10.367-.74 13.886-2.777 14.812-1.48.555-2.777 2.962-2.777 5.554 0 2.406-1.296 4.813-2.777 5.553-1.48.556-2.776 2.59-2.776 4.442 0 2.036-1.296 4.63-2.777 5.925-2.962 2.407-4.073 22.215-1.297 22.215.926 0 3.888-2.592 6.85-5.554 2.962-3.147 6.667-5.554 8.518-5.554 1.666 0 5.368-2.591 7.775-5.553 2.591-3.147 5.552-5.554 6.663-5.554 1.11 0 2.036-1.296 2.036-2.777q0-2.776 5.554-2.777 5.553 0 5.553-2.776c0-1.481 1.296-2.777 2.777-2.777s2.777-1.296 2.777-2.777 1.296-2.777 2.777-2.777c1.48 0 2.777-1.296 2.777-2.777 0-1.48-1.296-2.777-2.777-2.777s-2.777 1.296-2.777 2.777-1.296 2.777-2.777 2.777c-1.48 0-2.777 1.296-2.777 2.777 0 1.666-1.664 2.777-4.626 2.777-2.592 0-5.185 1.296-5.74 2.777-.741 1.48-2.221 2.776-3.702 2.776s-2.593 1.296-2.593 2.777c0 1.666-1.664 2.777-4.626 2.777-2.592 0-5.185 1.296-5.74 2.777-.741 1.481-2.221 2.777-3.702 2.777s-2.593-1.296-2.593-2.777 1.296-2.777 2.777-2.777c1.851 0 2.777-1.852 2.777-5.37 0-2.961 1.11-5.737 2.777-6.478 1.48-.555 2.777-2.593 2.777-4.444 0-2.037 1.295-4.627 2.776-5.923 1.481-1.295 2.777-3.702 2.777-5.553 0-1.852 1.296-4.258 2.777-5.554 2.592-2.221 2.036-3.333-4.073-9.627-3.702-3.887-7.59-7.034-8.33-7.034m-209.744 49.983c-1.666 0-2.777 1.666-2.777 4.258 0 2.406-2.407 6.664-5.554 9.626-2.962 2.962-5.554 7.22-5.554 9.627 0 3.703-.925 4.258-7.034 4.258-6.48 0-8.7 1.85-33.322 26.472-17.402 17.401-26.288 27.584-26.288 30.36 0 2.037-1.296 4.258-2.777 4.999-1.851.555-2.777 3.517-2.777 8.33 0 4.628-.925 7.59-2.776 8.33-1.667.556-2.777 3.518-2.777 7.59s1.11 7.036 2.777 7.591c2.036.926 2.776 3.888 2.776 11.108s.741 10.367 2.777 11.107c1.481.74 2.777 3.147 2.777 5.554 0 2.591 1.296 4.998 2.777 5.553 1.48.74 2.777 2.96 2.777 5.182 0 4.814 45.542 51.095 50.355 51.095 1.666 0 3.888-1.295 4.629-2.776 1.11-1.852 5.921-2.778 17.214-3.149 15.55-.555 15.737-.555 16.292-5.738.555-4.073 1.48-4.998 5.923-4.998h5.553l.372 32.766.556 32.951 11.848.556 11.847.556 9.995-9.811c8.331-8.146 9.812-10.738 9.812-16.477 0-4.443.925-7.218 2.776-7.959 2.037-.74 2.777-4.072 2.777-13.884 0-9.626.74-12.958 2.777-13.884 2.037-.74 2.777-3.703 2.777-10.367 0-8.33.743-10.183 5.741-14.256 3.517-3.147 5.368-6.107 4.998-8.7-.556-3.702-1.853-3.889-19.07-4.444-13.884-.37-18.88-1.11-19.99-3.146-.741-1.666-4.073-2.776-7.59-2.776-4.999 0-7.962-1.853-15.737-9.443-5.184-5.368-9.442-11.106-9.442-12.772 0-1.851-1.296-4.258-2.777-5.554-1.666-1.48-2.777-5.554-2.777-11.107 0-5.554-1.11-9.627-2.777-11.108-2.221-1.851-2.777-8.516-2.777-37.21 0-29.805.37-34.988 2.777-34.988 1.48 0 2.777-1.296 2.777-2.776 0-1.481-1.296-2.777-2.777-2.777s-2.777 1.108-2.777 2.59c0 1.48-1.296 2.963-2.777 3.704-2.406.925-2.777 7.404-2.777 43.318 0 35.543.37 42.95 2.777 44.8 1.666 1.296 2.777 5.368 2.777 9.44 0 5.184.74 7.221 2.777 7.221s2.777 2.222 2.777 8.331-.74 8.33-2.777 8.33-2.777-2.221-2.777-8.33c0-6.11-.74-8.33-2.777-8.33-1.666 0-2.777-1.667-2.777-4.63 0-2.591-1.295-5.182-2.776-5.737-2.037-.926-2.777-4.258-2.777-13.885 0-9.811-.74-13.143-2.777-13.884-2.222-.925-2.777-4.998-2.777-20.178s.555-19.253 2.777-20.179c2.221-.74 2.777-5 2.777-21.105 0-15.736.555-20.732 2.777-22.584 1.666-1.296 2.776-5.37 2.776-9.442 0-5.184-.74-7.219-2.776-7.219m-22.215 33.322c1.48 0 2.777 1.296 2.777 2.777s-1.296 2.777-2.777 2.777-2.777-1.296-2.777-2.777c0-1.48 1.296-2.777 2.777-2.777m133.998 44.608c-.05 0-.102 0-.154.01-1.295.185-9.071 7.59-17.217 16.476-9.811 10.737-16.29 16.29-19.066 16.474-2.221 0-4.63 1.483-5.185 2.964-.74 1.481-3.147 2.777-5.554 2.777-2.221 0-4.997 1.109-5.738 2.59-.925 1.666-5.184 2.962-11.663 3.333-13.144.74-14.253 4.628-4.442 14.624l7.034 7.222h33.694l9.624-9.812c7.96-8.145 9.627-10.923 9.627-16.476 0-4.258.926-7.035 2.777-7.775 1.85-.555 2.777-3.517 2.777-8.33 0-4.629.925-7.59 2.776-8.331 3.463-1.276 3.876-15.647.71-15.743zM921.104 569.8q2.777 0 2.777 5.553 0 5.554-2.777 5.554c-2.777 0-2.777-1.851-2.777-5.554q0-5.553 2.777-5.553m5.554 22.214c1.48 0 2.776 1.296 2.776 2.777s-1.295 2.777-2.776 2.777-2.777-1.296-2.777-2.777 1.296-2.777 2.777-2.777m5.553 11.108c1.481 0 2.777 1.296 2.777 2.777s-1.296 2.776-2.777 2.776-2.777-1.295-2.777-2.776 1.296-2.777 2.777-2.777m5.554 16.66c1.481 0 2.777 1.297 2.777 2.778 0 1.48-1.296 2.776-2.777 2.776s-2.777-1.295-2.777-2.776 1.296-2.777 2.777-2.777m22.215 11.108q2.777 0 2.777 5.554 0 5.553-2.777 5.554-2.778 0-2.777-5.554t2.777-5.554m-416.527 5.554c1.48 0 2.777 1.296 2.777 2.777s-1.296 2.777-2.777 2.777-2.777-1.296-2.777-2.777 1.296-2.777 2.777-2.777m399.866 0q2.776 0 2.776 5.554 0 5.553-2.776 5.553-2.778 0-2.777-5.553 0-5.554 2.777-5.554M549.007 647.55q2.775 0 2.776 5.554 0 5.553 2.777 5.554 2.778 0 2.777 5.553 0 5.554-2.777 5.554-2.776 0-2.777-5.554 0-5.553-2.776-5.553-2.777 0-2.777-5.554t2.777-5.554m394.312 5.554q2.776 0 2.776 5.554 0 5.553-2.776 5.553-2.778 0-2.777-5.553 0-5.554 2.777-5.554m-383.205 22.215q2.777 0 2.777 5.553c0 5.553.925 5.554 2.777 5.554s2.777 1.851 2.777 5.554q0 5.553 2.776 5.553c2.776 0 2.777 1.852 2.777 5.554q0 5.554 2.777 5.554c2.777 0 2.777 1.851 2.777 5.554 0 2.962.927 5.553 1.852 5.553 3.147 0 9.255 7.22 9.255 11.108 0 2.036 1.296 4.258 2.777 4.813 1.481.74 2.777 3.147 2.777 5.554 0 2.592 1.296 4.998 2.777 5.554 1.48.74 2.777 3.145 2.777 5.366 0 2.592 2.406 6.295 5.553 8.887s5.554 6.48 5.554 8.701c0 2.037 1.296 4.259 2.777 4.814 1.48.74 2.777 3.145 2.777 5.366 0 2.592 2.406 6.295 5.553 8.887s5.554 6.48 5.554 8.33c0 2.037 2.592 5.925 5.554 8.331 3.147 2.592 5.553 6.48 5.553 8.702 0 2.036 1.296 4.258 2.777 4.814 1.666.74 2.777 3.516 2.777 6.478s.927 5.369 1.852 5.369c3.518 0 9.256 7.404 9.256 12.032 0 2.592.926 4.63 1.852 4.63 3.517 0 9.255 7.403 9.255 12.031 0 2.592.927 4.63 1.852 4.63 3.147 0 9.255 7.219 9.255 11.107 0 2.036 1.296 4.258 2.777 4.813 2.962 1.296 3.89 6.294.928 6.294-3.703 0-14.812-13.146-14.812-17.589 0-2.591-.739-4.626-1.85-4.626-3.517 0-9.257-7.407-9.257-12.035 0-2.591-.74-4.626-1.85-4.626-3.517 0-9.258-7.407-9.258-12.035 0-2.591-.739-4.626-1.85-4.626-3.146 0-9.257-7.22-9.257-10.923 0-2.036-2.407-5.74-5.554-8.146-2.962-2.592-5.554-6.48-5.554-8.33 0-2.037-2.406-5.925-5.553-8.331-2.962-2.592-5.554-6.478-5.554-8.7 0-2.036-1.296-4.257-2.777-4.813-1.48-.74-2.777-3.148-2.777-5.369 0-2.592-2.406-6.295-5.553-8.887-2.962-2.591-5.554-6.478-5.554-8.699 0-2.036-1.296-4.258-2.777-4.813-1.48-.74-2.777-3.147-2.777-5.554 0-2.592-1.296-4.998-2.777-5.554-1.48-.74-2.776-3.147-2.776-5.553 0-2.592-1.296-4.999-2.777-5.554-1.666-.74-2.777-3.52-2.777-6.481 0-3.517-.926-5.367-2.777-5.367s-2.777-1.851-2.777-5.554q0-5.553-2.777-5.553c-2.777 0-2.776-1.851-2.776-5.554q0-5.553-2.777-5.554c-2.777 0-2.777-1.85-2.777-5.553q0-5.554-2.777-5.554c-2.777 0-2.777-1.851-2.777-5.554s.926-5.553 2.777-5.553" style="stroke-width:.185123"/>
</svg>
