<svg xmlns="http://www.w3.org/2000/svg" width="1283" height="960">
    <path d="M119.749 313.032c0 5.086 15.258 28.667 55.023 85.077 12.484 17.57 36.99 53.173 54.098 78.604 17.57 25.43 40.689 58.259 51.323 72.593 11.097 14.333 19.882 28.205 19.882 30.979s1.388 5.086 3.7 5.086c6.01 0 20.806 30.98 17.57 36.528-2.312 3.236-23.119 5.086-55.485 5.086-55.486 0-81.379 3.236-81.379 9.71 0 6.473 63.346 67.969 159.52 155.358 40.69 36.528 94.787 79.529 108.658 86.002 3.7 1.85 13.41 7.398 20.807 12.022 12.947 8.323 35.141 19.882 69.357 35.14 17.57 7.86 51.324 18.495 90.626 28.205 43.463 10.635 144.26 7.86 163.68-4.623l12.947-8.786-15.72-12.946c-8.786-7.398-20.345-14.796-26.356-16.183-5.549-1.387-11.56-7.86-12.947-13.872C752.28 886.378 631.6 765.698 623.74 765.698c-6.936 0-5.549 7.398 2.312 13.87 3.699 3.238 6.935 8.324 6.935 11.56s3.237 8.323 7.398 11.56c7.86 6.935 6.936 32.828-1.387 35.603-6.473 2.312-27.743-18.958-34.216-33.291-17.108-38.378-90.625-126.691-160.907-193.736-13.409-12.946-30.054-28.667-36.99-35.14-6.473-6.474-48.55-46.238-92.937-87.852s-89.701-84.615-99.874-94.787c-93.4-90.626-94.324-91.55-94.324-80.453m479.946 571.496c-4.624.925-12.946.925-18.495 0-6.01-.924-2.312-1.85 7.86-1.85 10.173-.462 14.796.463 10.635 1.85m81.84 9.248c14.334 2.312 16.184 3.699 9.248 6.473-19.882 7.86-74.905 2.774-61.496-5.548 7.398-4.624 27.28-5.087 52.249-.925M290.829 122.533c0 2.774 2.312 5.086 4.624 5.086 2.774 0 4.623 2.774 4.623 6.473s9.248 18.957 20.807 34.678c11.56 15.72 20.807 29.592 20.807 30.98 0 1.387 8.785 14.333 19.882 28.667 11.097 14.333 26.356 35.603 33.754 47.162 7.86 11.56 24.506 35.14 36.528 53.173 52.248 74.905 71.668 105.884 70.28 110.508-.924 3.237-27.742 6.011-68.43 7.86-36.529 1.388-67.045 3.237-67.508 3.237-9.247 6.011 18.958 34.678 158.133 161.37 40.226 36.527 94.787 79.528 108.658 86.001 3.7 1.85 13.41 7.398 20.807 12.022 7.86 5.086 23.119 13.409 34.678 18.958s24.506 12.021 28.668 14.333c9.71 5.086 54.56 18.958 94.324 29.13 32.367 8.785 123.917 10.172 151.197 2.312 9.71-2.312 18.958-7.86 19.882-11.097 3.237-7.86-18.957-28.668-33.753-32.829-5.549-1.387-11.56-7.398-13.409-12.484-2.774-10.635-124.841-132.702-131.777-132.702-5.549 0-5.086 7.86 0 11.56 2.774 1.387 9.247 11.559 14.334 22.656 17.57 34.678 5.548 51.324-18.495 25.43-7.399-8.785-13.872-17.107-13.872-18.957 0-5.548-44.388-68.894-67.044-96.174-25.893-30.055-70.281-76.292-104.96-108.659-68.894-64.732-188.649-177.552-205.295-194.197C306.55 128.08 290.828 114.21 290.828 122.533m489.194 581.669c-4.624.924-12.947.924-18.495 0-6.011-.925-2.312-1.85 7.86-1.85 10.172-.462 14.796.462 10.635 1.85m81.84 9.247c14.334 2.312 16.183 3.7 9.248 6.473-19.882 7.86-74.905 2.775-61.496-5.548 7.398-4.624 27.28-5.086 52.248-.925M471.155-57.794c0 2.774 2.311 5.086 4.623 5.086 2.775 0 4.624 3.237 4.624 6.936s8.785 19.42 19.882 34.216c10.635 15.258 26.818 38.377 35.603 51.323 8.785 12.947 27.743 39.765 42.076 59.184 13.872 19.883 26.818 38.84 28.668 42.539s16.645 25.43 33.29 48.55c36.066 49.936 45.314 65.657 41.615 71.668-1.85 2.774-27.743 4.624-59.185 4.624-59.184 0-77.216 2.774-77.216 10.634 0 6.011 44.85 50.4 127.153 125.766 91.55 83.69 137.788 117.906 196.51 145.649 11.56 5.548 24.506 12.022 28.667 14.334 9.71 5.086 54.56 18.957 94.325 29.13 49.937 12.946 161.37 8.322 171.08-6.936 3.698-6.474-20.345-31.442-33.754-34.679-5.549-1.387-11.56-7.398-13.41-12.484-3.236-10.634-124.84-132.702-131.776-132.702-2.312 0-4.162 3.237-4.162 6.936s1.85 6.936 4.162 6.936 8.785 9.247 14.333 19.882c17.57 35.14 5.549 51.786-18.495 25.893-7.398-8.785-13.871-17.108-13.871-18.958 0-6.01-43.001-66.12-73.98-103.11-30.055-35.602-57.797-63.345-152.584-152.584-49.937-47.162-215.93-205.294-237.662-226.564s-30.516-27.28-30.516-21.27m489.193 581.669c-4.623.925-12.946.925-18.495 0-6.01-.925-2.312-1.85 7.86-1.85 10.173-.462 14.797.463 10.635 1.85m81.841 9.247c14.334 2.312 16.183 3.7 9.247 6.474-19.882 7.86-74.904 2.774-61.496-5.549 7.398-4.624 27.28-5.086 52.249-.925" style="stroke-width:.462376"/>
</svg>
