<svg xmlns="http://www.w3.org/2000/svg" width="1295" height="960">
    <path d="M622.127-9.701c-17.761 17.76-26.388 21.82-65.97 30.955-52.776 12.179-73.582 19.79-120.269 43.134-18.776 9.642-37.045 17.254-40.597 17.254s-20.806-15.224-38.06-34c-17.76-18.776-31.97-31.97-31.97-28.926 0 5.583 26.388 59.373 37.045 74.597 5.075 7.612 2.03 12.687-25.88 37.045-36.538 32.985-85.254 94.388-102.508 130.418-12.687 26.896-9.642 26.388-58.358 14.717-11.164-3.045-28.418-6.597-38.06-8.627l-17.761-3.553 17.761 11.672c27.91 18.269 37.045 23.85 49.731 29.433 16.747 7.612 18.269 16.239 8.12 52.269-4.567 17.76-9.642 40.09-11.164 49.73-1.523 12.18-10.15 25.882-27.403 44.658L131.41 477.97l11.672 13.702c6.597 7.612 18.269 20.298 25.373 28.925 7.612 8.12 14.717 23.343 16.239 32.985 1.015 9.642 6.09 32.985 11.164 51.761 10.15 38.568 9.135 41.612-21.313 57.344-10.657 5.582-27.403 15.73-37.045 22.328l-17.761 12.18 17.761-4.06c9.642-2.03 26.896-5.583 38.06-8.628 48.716-11.671 45.671-12.179 58.358 14.717 17.254 36.03 65.97 97.433 102.507 130.418 27.91 24.358 30.956 29.433 25.88 37.045-11.67 17.253-38.566 72.567-36.029 75.104 1.015 1.522 15.731-12.179 31.97-30.448 16.747-18.268 32.985-32.985 36.538-32.985 4.06 0 22.328 7.612 41.104 17.254C489.172 922 536.366 937.732 579.5 943.313c14.209 1.523 22.836 7.105 37.045 24.359C626.695 979.85 638.873 990 642.933 990c4.567 0 19.283-9.642 32.478-21.82 21.313-17.762 31.462-22.837 66.985-30.449 48.716-10.656 69.522-18.268 116.716-42.119 18.776-9.642 37.045-17.254 41.104-17.254 3.553 0 19.791 14.717 36.538 32.985 16.239 18.269 30.955 31.97 31.97 30.448 2.537-2.537-24.358-57.85-36.03-75.104-5.075-7.612-2.03-12.687 25.88-37.045 36.538-32.985 85.254-94.388 102.508-130.418 12.687-26.896 9.642-26.388 58.358-14.717 11.164 3.045 28.418 6.597 38.06 8.627l17.761 4.06-17.761-12.179c-9.642-6.597-26.388-16.746-37.045-22.328-30.448-15.732-31.462-18.777-21.313-57.344 5.074-18.776 10.15-42.12 11.164-52.268 2.03-13.702 8.627-24.866 24.866-40.597 12.179-12.18 22.328-24.866 22.328-28.926s-10.15-18.776-22.328-32.985c-13.702-16.746-22.836-32.985-24.358-44.15-1.523-9.64-6.598-31.97-11.165-49.73-10.149-36.03-8.627-44.657 8.12-52.27 12.686-5.581 21.82-11.163 49.731-29.432l17.761-11.672-17.761 3.553c-9.642 2.03-26.895 5.582-38.06 8.627-48.716 11.671-45.671 12.179-58.358-14.717-17.254-36.03-65.97-97.433-102.507-130.418-27.91-24.358-30.956-29.433-25.88-37.045C943.35 78.09 969.738 24.3 969.738 18.716c0-3.044-14.21 10.15-31.97 28.926-17.254 18.776-34.508 34-38.06 34s-21.821-7.612-40.597-17.254c-51.254-25.88-84.239-37.045-145.642-48.716-14.716-3.045-25.373-9.642-38.06-24.866C665.262-20.866 654.098-30 650.038-30c-4.567 0-16.746 9.134-27.91 20.299m0 91.343c10.657 11.164 22.328 20.298 25.373 20.298s14.716-9.134 25.373-20.298c17.254-17.761 22.836-20.299 43.134-20.299 21.821 0 55.314 8.627 88.806 23.344 54.806 23.343 63.433 28.925 63.433 38.06 0 5.074-10.149 24.357-22.836 42.626s-32.985 47.194-44.656 64.448c-62.418 89.82-79.672 115.701-79.672 120.776 0 7.104 19.284 1.522 30.955-8.12 4.06-4.06 10.15-7.104 13.194-7.104s18.269-18.776 34-42.12c32.478-46.686 54.806-78.656 85.254-121.283 19.791-27.403 21.314-28.418 31.463-21.313 36.03 24.865 82.209 80.179 110.627 132.955l9.134 16.239-23.85 11.164c-13.702 5.582-31.971 13.701-41.105 17.761-8.627 3.552-23.851 9.642-32.985 13.702-8.627 3.552-26.388 10.656-39.075 15.73-12.687 4.568-27.403 11.165-32.478 13.702-5.582 3.045-16.238 7.105-24.358 9.642-21.82 6.09-17.761-4.06 14.21-37.552 15.73-16.239 27.91-30.448 26.387-31.463-2.537-2.537-21.313 6.597-45.671 21.821-7.105 4.567-31.97 19.791-54.806 33.493-38.06 22.836-42.12 24.358-53.791 17.761-7.105-3.552-19.284-6.09-26.896-5.582-8.12.507-17.254-2.03-20.298-6.09-3.045-3.552-9.642-36.03-13.702-72.06-12.687-99.97-14.209-109.104-19.791-109.104s-7.104 9.135-19.791 109.105c-4.06 36.03-10.657 68.507-13.702 72.06-3.044 4.059-12.179 6.596-20.298 6.089-7.612-.508-19.791 2.03-26.896 5.582-11.671 6.597-15.73 5.075-53.79-17.761-22.836-13.702-47.702-28.926-54.807-33.493-24.358-15.224-43.134-24.358-45.671-21.82-1.523 1.014 10.656 15.223 26.388 31.462 31.97 33.493 36.03 43.642 14.209 37.552-8.12-2.537-18.776-6.597-24.358-9.642-5.075-2.537-19.791-9.134-32.478-13.701-12.687-5.075-30.955-12.18-40.597-16.746-9.642-4.06-24.358-10.15-32.985-13.702-8.12-3.045-25.88-11.164-39.582-16.746l-23.85-11.164 9.133-16.239c23.344-43.134 48.21-75.612 82.21-107.582l37.044-35.015 10.657 14.209c14.716 19.791 62.925 87.791 97.433 138.03 15.731 23.343 30.955 42.12 34 42.12 3.044 0 9.134 3.044 13.194 7.104 11.164 9.641 30.955 15.223 30.955 8.626 0-3.044-14.21-26.388-31.463-51.76-17.76-25.374-34-49.732-37.045-54.3-2.537-4.566-14.209-20.805-25.88-36.537-36.03-49.223-52.776-76.626-52.776-86.268 0-17.254 104.537-59.373 149.701-60.388 23.85-.508 27.403 1.015 45.672 19.79M268.425 342.478c7.612 4.06 23.851 11.164 36.538 15.73 21.313 8.628 32.477 12.688 72.567 29.941 8.627 3.552 34.507 14.21 56.836 23.344 22.328 8.626 44.656 18.268 49.224 20.806 13.194 6.597 19.283 5.582 19.283-3.045 0-6.597 3.045-5.582 14.717 3.045l15.223 11.164-2.537 57.85-2.03 58.359-49.224 50.746c-27.403 28.418-53.79 54.806-58.358 59.373-5.074 4.06-9.134 9.642-9.134 11.672 0 7.612 11.164 4.06 32.477-10.15 11.165-7.612 24.359-15.73 28.418-17.76 4.06-2.03 14.717-8.12 22.836-13.195 8.627-5.582 16.746-10.15 19.284-10.15 6.597-.507-9.134 25.374-43.134 72.06-17.254 24.359-43.135 60.389-56.836 79.672-23.344 33.493-25.374 35.015-35.523 27.91-36.03-25.372-82.209-80.686-110.627-133.462l-9.134-16.239 23.85-11.164c13.702-5.582 31.971-13.701 41.105-17.761 8.627-3.552 23.851-9.642 32.985-13.702 8.627-3.552 26.388-10.656 39.075-15.73 12.687-4.568 28.925-11.673 36.537-15.732 7.105-4.06 16.746-7.105 20.806-7.105 8.12 0 49.224-42.12 49.224-50.746 0-6.09-7.612-6.597-19.284-.508-4.567 2.538-26.895 12.18-49.223 20.806a29134 29134 0 0 0-56.836 23.344c-40.09 17.253-51.254 21.313-72.567 29.94-12.687 4.567-28.926 12.18-37.045 16.239-7.612 4.06-15.731 6.09-18.269 4.567-8.12-5.075-20.806-49.731-20.806-74.09 0-20.298 2.538-25.88 20.299-43.134 11.164-10.657 20.298-22.328 20.298-25.373-.507-2.537-9.641-14.209-20.806-25.373-19.79-19.791-20.298-20.806-18.268-50.746 1.522-28.926 14.209-68.508 21.313-68.508 2.03 0 9.642 3.045 16.746 7.105m787.582 16.238c5.582 13.194 10.15 34.508 10.15 48.21 0 22.328-1.523 25.373-22.836 43.134-12.687 10.149-22.836 21.82-22.836 26.388 0 4.06 10.15 18.776 22.836 31.97 19.791 21.313 22.836 27.403 22.836 47.194 0 21.313-16.24 69.015-23.343 69.015-1.523 0-9.135-3.045-16.24-7.105-7.611-4.06-23.85-11.164-36.537-15.73-21.313-8.628-32.477-12.688-72.06-29.941-9.134-3.552-35.014-14.21-57.343-23.344-22.328-8.626-44.656-18.268-49.224-20.806-11.671-6.089-19.283-5.582-19.283.508 0 8.627 41.104 50.746 49.224 50.746 4.06 0 13.701 3.045 20.806 7.105 7.612 4.06 23.85 11.164 36.537 15.731 36.537 14.209 74.597 29.94 113.164 47.194l23.85 11.164-9.133 16.239c-28.418 52.776-74.597 108.09-110.627 133.463-10.15 7.104-12.18 5.582-35.523-27.91-13.701-19.284-39.582-55.314-56.836-79.672-34-46.687-49.73-72.568-43.134-72.06 2.538 0 11.164 4.567 19.284 10.15 8.627 5.074 18.776 11.163 22.836 13.193s17.253 10.15 28.418 17.761c21.313 14.21 32.477 17.762 32.477 10.15 0-2.03-4.06-7.612-8.627-11.672-5.074-4.567-31.462-30.955-58.865-59.373l-49.224-50.746-2.03-58.359-2.537-57.85 15.223-11.164c11.672-8.627 14.717-9.642 14.717-3.045 0 8.627 6.09 9.642 19.283 3.045 4.568-2.538 26.896-12.18 49.224-20.806 22.329-9.135 48.21-19.792 57.344-23.344 39.582-17.253 50.746-21.313 72.06-29.94 12.686-4.567 28.417-11.672 35.522-15.731 18.268-9.642 18.776-9.642 30.447 16.238M615.53 625.134c2.537 6.597 6.597 27.91 9.642 47.702 8.627 64.955 17.253 107.582 22.328 109.612 4.567 2.03 11.164-29.94 22.328-109.612 7.105-48.717 11.165-58.358 30.448-66.478 14.209-6.09 16.746-6.09 19.284 2.03 2.03 4.567 17.253 28.925 34 53.284 17.253 24.865 33.492 48.716 36.03 53.283 3.044 4.567 14.209 20.806 25.88 36.538 36.03 49.223 52.776 76.626 52.776 86.268 0 10.657-43.642 32.478-104.537 52.269-45.164 14.716-60.388 12.179-84.239-14.21-11.671-12.686-24.358-22.835-27.91-22.835-4.06 0-19.284 10.15-33.493 22.836-29.94 25.88-44.656 28.418-87.283 14.716-59.373-19.283-104.03-42.12-104.03-52.776 0-9.642 16.746-37.045 52.776-86.268 11.671-15.732 23.343-31.97 25.88-36.538 3.045-4.567 18.777-28.418 36.03-53.283 16.747-24.359 31.97-48.717 34-53.284 2.538-8.12 5.075-8.12 19.284-2.03 9.134 4.06 18.776 12.18 20.806 18.776" style="stroke-width:.507462"/>
</svg>
