<svg xmlns="http://www.w3.org/2000/svg" width="1316" height="960">
    <path d="M722.329 876.399a82.2 82.2 0 0 0 11.693-19.77c3.195-10.483 1.598-21.904 1.598-32.85V632.804c-51.556-.598-101.965-.225-154.016-.265v174.765c0 16.71-1.5 34.171 3.194 50.463a65.4 65.4 0 0 0 8.515 18.64l-.15-.24c-19.97 26.375-40.264 53.184-62.766 82.905-20.88-26.764-41.191-52.794-62.617-80.257 11.974-24.55 8.96-51.14 9.03-77.414.118-44.704.03-89.408.03-134.113v-32.956H327.876c-.278.315-1.035 1.073-1.67 1.923-.613.818-1.576 1.733-1.576 2.604-.072 71.297-.067 142.593-.067 217.068l11.83 20.31-63.254 83.647-61.736-80.92c12.207-24.373 9.244-49.94 9.252-75.164q.093-308.14-.19-616.278c.401-14.757-1.419-29.49-5.398-43.706-10.154-32.053-38.359-43.471-67.06-53.165-8.856-2.99-18.02-5.072-28.003-7.835V0h1075.992v80.999c-5.807 2.406-13.342 5.557-20.897 8.655a413 413 0 0 0-43.74 18.238c-23.197 12.823-34.325 33.913-35.14 60.34-.263 8.507-.126 17.027-.126 25.543 0 204.361.06 408.723.193 613.086.024 14.517.516 28.986.655 44.689a68.4 68.4 0 0 0 8.932 32.671l-.179-.339c-16.085 21.53-40.388 47.641-61.663 76.118-21.425-27.982-41.746-49.729-63.15-77.68a128.7 128.7 0 0 0 9.049-24.697l.203-.931c3.174-12.968 1.598-26.683 1.598-40.017V633.34c-50.358-1.596-99.616-.602-152.022-.799v34.487c0 52.155-.452 104.315.252 156.46-.28 10.138.019 20.283.895 30.386a96 96 0 0 0 8.131 26.48c-16.922 22.164-38.896 50.451-60.45 78.683-21.549-27.56-43.728-53.886-66.209-82.637zM581.447 116.535v155.606h153.85l-.111-155.605zM475.281 271.997V116.811H325.205v155.186zm516.5.137-2.075-155.342H841.227v155.342zM581.393 529.38h153.774l-.69-150.781-153.083 1.045zm-256.693-.078 150.307-.35v-148.99s-149.803 1.923-150.307-.142zm516.447.078c27.381 0 150.187.473 150.187.473v-153.27c-50.612.093-99.695-.32-150.187.263z" style="stroke-width:6.13311"/>
</svg>
