<svg xmlns="http://www.w3.org/2000/svg" width="1070" height="960">
    <path d="M535.93-30a257.06 257.06 0 0 0-.665 514.083 255.08 255.08 0 0 0 254.548-255.34C790.381 86.004 676.841-29.847 536.226-30zm.253 589.929q-151.417-.023-302.833.466a108.24 108.24 0 0 0-107.433 88.588c-5.548 28.477-4.033 58.334-5.72 87.896C260.143 821.636 398.194 905.24 538.146 990L949.57 737.896c0-23.866.592-45.424-.112-66.946a112.69 112.69 0 0 0-110.443-110.457c-100.946-.356-201.887-.55-302.832-.564" style="stroke-width:8.03649"/>
</svg>
