<svg xmlns="http://www.w3.org/2000/svg" width="1260" height="960">
    <path d="M600.536 359.057c-48.086 8.743-81.6 55.372-94.714 132.6-8.743 55.372-5.829 65.572 33.514 103.457 55.371 56.829 107.829 68.486 167.571 40.8 53.915-26.228 112.2-97.628 112.2-139.885 0-39.343-56.828-132.6-80.142-132.6-10.2 0-36.429-2.915-59.743-5.829-23.315-2.914-58.286-2.914-78.686 1.457m103.457 62.657c32.057 17.486 39.343 113.657 10.2 142.8-32.057 32.057-93.257 20.4-120.943-20.4-23.314-36.428-23.314-42.257-1.457-87.428 24.772-52.457 58.286-62.657 112.2-34.972m-103.457-438.6c0 7.286-14.571 18.943-32.057 24.772-17.486 4.371-42.257 18.943-55.372 30.6-80.142 71.4-131.142 131.143-131.142 153 0 14.571-8.743 26.228-20.4 26.228-14.572 0-23.315-18.943-26.229-61.2-2.914-33.514-13.114-62.657-21.857-67.028-10.2-2.915-18.943 2.914-18.943 14.571 0 10.2-10.2 37.886-21.857 61.2-20.4 39.343-33.514 224.4-20.4 292.886 7.286 36.428-37.886 46.628-51 11.657-17.486-49.543-53.914-106.371-68.486-106.371-20.4 0-14.571 77.228 8.743 107.828 11.657 16.029 21.857 43.714 21.857 62.657s10.2 37.886 21.857 42.257C196.907 582 207.107 592.2 207.107 602.4c0 24.771 85.972 110.743 110.743 110.743 34.972 0 14.572 36.428-23.314 40.8-20.4 2.914-39.343-4.372-46.629-17.486-14.571-24.771-62.657-32.057-75.771-11.657-7.286 13.114 53.914 64.114 97.629 80.143 13.114 4.371 24.771 16.028 24.771 24.771 0 7.286 18.943 14.572 42.257 14.572s49.543 10.2 59.743 21.857C408.193 880.714 440.25 888 486.879 888c84.514 0 91.8 32.057 11.657 43.714-26.229 4.372-51 16.029-55.371 24.772-8.743 29.143 163.2 24.771 186.514-2.915 10.2-11.657 32.057-21.857 49.543-21.857s51-20.4 74.314-43.714c23.314-24.771 46.629-43.714 53.914-43.714 21.857 0 11.657 72.857-10.2 81.6-27.685 11.657-29.143 64.114 0 64.114 11.657 0 39.343-23.314 61.2-52.457s52.457-65.572 67.029-80.143c13.114-16.029 24.771-39.343 24.771-55.371 0-14.572 10.2-34.972 21.857-45.172 13.115-10.2 21.858-42.257 21.858-75.771 0-78.686 33.514-65.572 43.714 17.485 7.286 67.029 42.257 99.086 45.171 40.8 5.829-119.485-5.828-238.971-24.771-249.171-11.657-5.829-20.4-23.314-20.4-37.886 0-14.571-10.2-34.971-21.857-45.171s-21.857-23.314-21.857-30.6c0-24.772 53.914-13.114 80.142 16.028 30.6 33.515 65.572 37.886 65.572 10.2 0-51-193.8-214.2-255-214.2-58.286 0-37.886-34.971 26.228-45.171 72.858-11.657 81.6-23.314 30.6-42.257C918.193 93.857 887.593 79.286 874.48 72c-39.343-21.857-161.743-17.486-195.257 7.286-29.143 21.857-102 29.143-113.657 10.2-2.915-5.829 16.028-29.143 43.714-51C666.107-6.686 671.936-30 629.679-30c-16.029 0-29.143 5.829-29.143 13.114m34.971 257.915c7.286 17.485 20.4 20.4 64.115 13.114 51-8.743 59.743-4.372 91.8 36.428 18.943 24.772 52.457 55.372 75.771 67.029 40.8 21.857 55.372 81.6 24.772 100.543-11.658 7.286-11.658 16.028 0 29.143 8.742 11.657 14.571 48.085 11.657 83.057-2.915 52.457-10.2 64.114-36.429 67.028-20.4 2.915-36.428 17.486-42.257 37.886-10.2 39.343-65.571 69.943-94.714 52.457-13.115-8.743-29.143-2.914-46.629 16.029-29.143 30.6-71.4 26.228-109.286-10.2-10.2-11.657-37.885-20.4-58.285-20.4-23.315 0-46.629-11.657-58.286-29.143-10.2-16.029-27.686-29.143-39.343-29.143-18.943 0-18.943-4.371-4.371-27.686 14.571-23.314 13.114-33.514-4.372-55.371-40.8-46.629-42.257-58.286-13.114-91.8 21.857-24.771 29.143-55.371 29.143-112.2 0-77.229 8.743-91.8 40.8-59.743 13.114 13.114 29.143 4.372 68.486-36.428 56.828-58.286 85.971-67.029 100.542-30.6" style="stroke-width:1.45714"/>
</svg>
