<svg xmlns="http://www.w3.org/2000/svg" width="1348" height="960">
    <path d="M1192.337 640.048c-6.25 7.812-10.937 17.707-10.937 22.394 0 5.208-3.645 13.54-7.811 19.27-4.167 5.207-7.812 13.54-7.812 18.227s-3.646 11.457-7.812 15.103-7.812 9.895-7.812 13.54c0 12.5-63.537 100.513-98.43 136.969-45.309 46.35-92.7 81.764-144.78 107.283-22.915 11.458-37.497 26.04-31.248 31.768 4.688 4.688 86.973-33.33 103.117-47.913 4.167-4.166 9.895-7.29 12.5-7.29 13.019 0 101.033-84.89 134.885-130.199 27.08-36.455 30.206-41.663 51.558-85.93 29.685-61.975 34.893-75.515 34.893-91.139 0-19.27-6.25-19.79-20.31-2.083M135.13 661.4c0 29.165 2.604 40.101 15.623 61.454 8.333 14.061 17.187 30.727 19.79 36.455 5.73 12.5 26.561 35.414 29.686 32.29 1.041-1.042-3.646-13.541-10.416-28.123-7.291-14.062-16.665-38.018-21.873-53.121-4.688-14.582-10.416-28.123-13.02-29.685s-4.687-10.416-4.687-20.311c0-20.311-4.167-33.852-10.937-33.852-2.604 0-4.687 15.624-4.166 34.893m1067.103-330.182c0 3.646 2.604 9.374 5.729 12.499 5.208 5.208 8.333 188.006 3.645 217.691-1.041 6.25 2.084 10.937 7.812 11.978 8.333 1.563 8.854-6.25 8.854-108.324 0-94.785-1.042-112.492-8.854-125.511-9.374-16.145-17.186-19.79-17.186-8.333m-18.228-73.432c-5.207 13.54 1.042 28.644 8.854 20.832 4.166-4.166 4.166-9.374.52-17.707-5.207-10.937-6.249-10.937-9.373-3.125M903.819 604.113c-5.208 4.687-4.687 11.978 1.042 11.978 2.604 0 5.728-3.645 7.812-7.811 2.604-7.812-2.604-10.416-8.854-4.167m15.624-26.04c-6.25 5.73-4.166 11.979 4.166 11.979 4.167 0 7.812-3.646 7.812-7.812 0-8.333-6.25-10.416-11.978-4.166M775.182 233.83c0 2.083 7.812 10.936 17.187 20.31 26.04 26.04 37.497 40.623 48.954 63.017 23.436 44.267 29.164 63.536 24.998 83.326-2.604 14.583-4.687 17.707-8.333 11.979-2.604-4.167-4.687-14.583-4.687-23.436s-3.645-19.27-7.812-22.915-7.811-9.374-7.811-13.02c0-8.332-56.767-70.307-69.787-76.035-6.25-2.604-14.582-6.77-18.748-8.854-27.081-15.624-38.018-19.27-74.994-24.998-46.35-7.812-124.47-1.041-139.052 11.458-4.166 4.166-12.499 7.29-18.228 7.29-5.207 0-13.02 2.084-16.665 4.688-5.729 3.125-5.208 5.208 2.083 7.812 4.687 1.562 14.062 0 20.832-4.687 8.853-5.73 26.56-7.812 66.661-7.812 29.686 0 58.33 1.562 63.016 3.124 15.103 6.25-2.604 12.5-34.372 12.5-40.101 0-85.41 14.582-139.052 44.267-17.707 9.895-47.912 37.497-47.912 43.746 0 7.291 11.978 7.291 19.269 0 3.125-3.124 9.895-4.687 15.103-3.645 7.29 1.041 5.208 5.208-11.458 22.394-51.037 51.037-67.182 122.386-44.267 194.255 17.186 53.642 41.663 89.056 88.535 127.594 13.02 10.937 18.748 13.02 24.477 8.854 7.812-7.291 4.687-18.749-10.937-36.456-17.707-20.31-33.851-49.475-33.851-61.974 0-15.624 8.853-13.54 17.707 4.167 8.853 17.186 49.996 54.683 73.432 67.182 40.1 21.352 66.66 27.08 127.594 27.08 63.536 0 79.16-4.165 68.744-17.185-9.374-11.458-1.562-14.582 15.624-5.729 14.582 7.812 24.998 6.25 24.998-3.645 0-2.604-3.646-4.688-7.812-4.688-11.457 0-30.727-18.748-26.04-25.518 1.563-3.125 6.77-5.73 10.937-5.73 22.915 0 86.972-56.765 106.242-93.221 11.457-22.394 26.56-94.784 23.435-110.408-4.166-18.748-13.02-14.582-13.02 5.729 0 8.332-2.083 16.144-4.687 17.707-2.083 1.562-5.728-21.353-7.29-51.038-2.605-48.434-9.375-74.994-24.999-102.075-2.604-4.167-7.29-13.54-9.895-19.79-11.457-26.56-78.119-82.286-78.119-65.62M582.49 9.368c-65.62 10.416-131.76 35.414-178.631 67.183-10.937 7.29-21.353 13.54-23.957 13.54-8.853 0-71.87 67.182-82.806 88.535-6.25 13.02-13.54 27.081-16.144 31.247-16.145 29.165-21.353 41.664-21.353 50.517 0 5.208-2.083 13.02-5.208 17.186-3.645 5.73-5.729 4.688-9.895-6.77-5.729-15.624-16.144-14.582-16.144 1.042 0 4.687-2.604 11.457-6.25 15.103-7.291 7.29-17.186 34.372-30.727 84.368-13.02 51.038-14.582 182.798-2.083 218.212 4.166 12.499 7.812 27.602 8.333 33.851 0 5.73 8.853 27.082 19.27 47.393 18.748 34.893 61.973 77.598 92.18 91.659 5.728 2.604 14.06 6.77 18.227 9.374s20.832 10.416 36.456 17.707c27.602 12.5 28.122 13.54 14.582 16.666-7.812 2.083-26.04 1.041-40.622-2.604s-28.123-5.208-29.685-3.125c-4.167 3.645 73.952 80.202 89.055 86.972 5.729 2.604 18.228 9.374 26.56 15.103 8.854 5.729 19.27 11.978 23.436 13.54 4.167 1.563 15.103 6.25 23.436 9.896 65.62 28.123 168.737 36.976 273.416 23.435 76.036-9.895 101.554-22.394 168.737-85.41 14.061-13.02 27.08-22.394 28.643-20.831 1.563 2.083 0 4.687-3.125 5.729-3.645 1.562-6.77 6.77-6.77 12.499 0 5.208-2.083 9.895-5.208 9.895-2.604 0-5.208 3.645-5.208 7.812 0 10.415 26.04-5.208 62.495-37.498 28.123-25.518 88.535-100.512 88.535-110.407 0-3.125 3.125-13.02 7.291-22.395 14.582-34.372 22.915-70.307 29.685-122.386 5.729-48.433 5.208-64.578-3.645-132.802-4.167-28.643.52-47.392 8.332-35.414 3.125 4.167 5.208 13.54 5.208 20.832 0 7.812 3.125 16.665 6.25 19.79 3.646 3.646 9.374 15.624 12.499 26.04l6.25 19.269.52-23.436c.521-30.206-12.499-115.615-19.79-129.156-3.125-6.25-5.729-14.582-5.729-18.749 0-10.415-33.851-82.285-51.558-109.366-13.54-21.352-23.436-33.852-57.287-71.87-45.83-52.6-126.553-96.867-197.901-108.845-33.852-6.25-37.497-7.812-33.33-17.707 1.561-4.166 1.561-7.812 0-7.812-1.563 0-21.353-3.645-43.748-7.812-46.87-8.853-96.867-8.853-152.592 0m124.99 140.093c42.185 7.812 52.6 10.937 104.159 35.935 46.35 22.915 111.45 88.014 133.844 133.844 34.893 73.432 46.35 118.22 41.663 170.299-6.25 65.099-14.582 95.305-41.663 149.988-44.789 90.097-120.303 149.988-222.379 174.986-49.475 12.5-72.39 12.5-123.428 0-119.26-28.123-183.84-87.493-238.522-216.65-26.56-63.536-33.852-153.633-16.145-205.712 15.103-43.747 29.164-72.911 50.517-104.68 20.31-29.685 71.348-80.202 90.097-88.534 6.25-2.604 18.748-9.375 28.644-15.624 25.518-15.103 55.724-25.519 96.867-33.33 48.434-8.854 51.038-8.854 96.346-.522M514.786-58.335c-7.29 4.167-18.227 7.291-24.477 7.812-6.25 0-17.707 3.125-26.04 7.291-7.811 4.167-20.31 9.895-27.602 12.5-17.186 6.77-67.182 31.247-81.764 39.58-11.457 6.25-42.184 31.247-81.244 65.62-35.413 30.726-81.764 93.221-103.116 139.05-10.937 23.957-20.311 47.393-20.311 52.6 0 4.688-3.646 13.542-7.812 18.75-4.167 5.728-7.812 16.665-7.812 24.477 0 7.29-3.646 22.394-7.812 32.81-6.25 15.103-7.812 39.059-6.77 121.865 2.083 121.865 10.936 142.176 13.02 27.081 1.041-88.014 9.895-133.843 40.1-205.713 11.458-26.56 29.165-61.974 39.58-78.119 5.73-8.853 11.979-19.269 13.541-23.435 5.208-10.937 36.456-49.996 67.183-82.806 22.394-24.477 83.847-73.432 114.574-92.701C431.98-6.776 492.392-34.9 500.204-34.9c4.166 0 10.937-3.646 14.582-7.291 3.125-4.166 15.624-8.333 27.602-9.374 11.458-1.042 21.874-4.687 23.436-8.333 2.604-8.853-34.372-7.812-51.038 1.562m86.973-14.582c9.374 1.042 26.04 1.042 36.455 0C649.151-73.958 641.86-75 621.55-75c-19.79 0-28.644 1.042-19.79 2.083" style="stroke-width:.520792"/>
</svg>
