<svg xmlns="http://www.w3.org/2000/svg" width="1210" height="960">
    <path d="M840.688 858.037c-23.748 24.781-23.748 40.269 0 40.269s43.367-19.618 43.367-43.366-20.65-22.716-43.367 3.097m-514.202-3.097c0 23.748 19.618 43.366 43.366 43.366 24.781 0 23.748-15.488-2.065-41.301s-41.301-26.846-41.301-2.065m10.325-220.963c0 7.228 7.228 21.683 35.106 75.375 9.293 17.553 16.52 39.236 16.52 47.497 0 8.26 7.229 20.65 15.489 27.878s15.488 19.618 15.488 28.911c0 15.488 27.878 43.367 109.449 111.514 56.79 46.464 96.025 46.464 152.815 0C756.02 863.2 791.127 829.126 791.127 818.8c0-5.163 14.455-37.172 30.976-70.213 29.943-58.854 39.236-98.09 23.748-98.09-5.163 1.032-56.79 47.496-116.676 103.253-58.855 56.79-114.612 103.254-123.905 103.254-8.26 0-59.887-42.334-113.579-92.929-98.09-93.96-154.88-140.424-154.88-130.1m700.06-130.1c-38.205 30.976-90.864 112.547-90.864 140.425 0 18.586 35.106 1.033 74.343-39.236 38.204-38.204 80.537-123.904 67.115-136.295-1.033-2.065-23.749 13.423-50.595 35.106m-912.762-17.553c4.13 13.423 10.325 35.106 13.423 48.53 10.325 44.398 127.002 143.522 127.002 108.416 0-4.13-10.326-27.879-22.716-53.692-20.651-43.367-50.594-75.375-104.286-113.58-19.619-13.422-20.651-13.422-13.423 10.326M269.696 72.278c-3.097 5.162 1.033 22.715 9.293 38.203 34.074 65.05 202.377 411.982 202.377 420.242 0 16.52-21.683-1.032-112.546-90.863-74.343-72.277-94.994-87.765-100.156-74.342-4.13 10.325 1.032 24.78 12.39 36.138 24.781 23.749 59.887 64.018 111.514 130.1 44.399 54.724 71.245 86.733 105.319 123.904 12.39 13.423 38.203 45.432 56.789 71.245s41.301 47.497 50.594 47.497 32.009-21.684 50.595-47.497 44.399-57.822 56.789-71.245c34.074-37.171 60.92-69.18 105.319-123.904 51.626-66.082 86.733-106.351 111.513-130.1 12.39-11.358 16.521-24.78 12.39-36.138-6.194-15.488-24.78 0-104.285 78.472-53.692 53.692-100.156 93.961-104.286 89.83-5.163-5.162 137.327-309.76 198.247-423.339 8.26-15.488 12.39-33.04 9.292-38.203-8.26-13.423-25.813-3.098-25.813 16.52 0 8.26-8.26 23.748-17.553 34.074-29.944 32.008-44.4 51.627-44.4 56.79 0 3.097-35.105 56.789-77.44 120.806-42.333 62.985-77.44 116.676-77.44 119.774s-13.422 22.716-28.91 43.367c-16.521 20.65-33.042 45.431-36.14 54.724-8.26 23.748-47.496 23.748-55.756 0-3.098-9.293-19.618-34.074-36.139-54.724-15.488-20.651-28.91-40.27-28.91-43.367 0-9.293-198.248-301.5-207.54-304.598-5.163-2.065-9.293-12.39-9.293-22.716 0-22.716-16.521-36.139-25.814-20.65m239.548 8.26c-43.366 43.366-79.505 83.635-79.505 88.798s18.586 34.074 41.302 64.017c22.715 29.944 41.301 57.822 41.301 60.92 0 10.325 84.668 118.741 92.928 118.741s92.928-108.416 92.928-118.741c0-3.098 18.586-30.976 41.302-60.92 22.716-29.943 41.3-58.853 41.3-64.017C780.801 152.816 621.791 0 605.271 0c-9.294 0-51.627 36.139-96.027 80.538" style="stroke-width:1.03254"/>
</svg>
