<svg xmlns="http://www.w3.org/2000/svg" width="1256" height="960">
    <path d="m161.028 990-20.513-20.521-20.513-20.513 482.621-479.38c265.066-263.445 486.406-481.55 491.265-484.25 6.478-4.318 12.952-2.153 25.368 8.644 9.178 7.558 16.741 16.734 16.741 20.513s-45.89 52.36-102.573 108.505C977.279 179.142 930.85 228.811 930.85 233.669c0 4.32 36.71 44.808 80.977 89.075l80.977 80.978V544.08l-92.855 92.855c-72.34 71.8-97.166 92.856-109.042 94.476-12.957 1.08-16.742 4.86-20.521 17.816-5.939 24.833-186.783 202.443-205.678 202.443-8.637 0-16.196-4.318-19.975-10.256-3.24-6.479-5.401-56.691-5.401-125.792V701.18l110.671-110.672c61.003-61.003 110.672-112.828 110.672-115.527 0-9.717-77.739-84.757-86.916-84.757-17.275 0-25.916 21.053-21.597 52.904 5.399 37.79 1.08 85.843-8.098 93.4-4.318 3.24-7.56 8.631-7.56 11.87 0 8.098-27.527 36.171-35.625 36.171-3.239 0-9.182 3.78-12.96 8.098s-10.798 8.098-16.196 8.098-16.734 3.779-24.831 8.097c-19.975 10.258-35.09 10.258-48.587 0-16.195-12.416-48.042-10.258-57.76 4.318-7.557 11.337-6.478 13.498 26.453 48.049l34.55 35.633-1.084 126.321-1.62 125.784-15.65 1.62c-13.497 1.62-25.376-8.638-102.574-84.756-52.906-52.905-91.233-86.916-97.71-86.916s-51.292 40.488-116.074 105.27zm151.16-302.858c-2.699 0-44.808-39.405-92.854-87.992l-87.454-88V377.27l93.392-93.393c74.5-75.039 96.09-93.393 107.967-93.393 11.337 0 16.196-3.78 22.135-17.816 3.779-10.257 48.044-57.763 99.869-109.588 80.977-79.358 95.558-91.234 110.134-91.234h17.27l1.622 125.783 1.083 125.784-111.21 111.21-111.208 110.67 49.124 49.663 49.124 49.67-71.796 71.258c-39.949 39.409-74.498 71.258-77.198 71.258M625.24 600.02c7.965-.177 15.275-2.63 21.652-7.354 5.938-4.319 16.2-8.098 23.217-8.098 7.018 0 14.03-3.779 15.65-8.097 2.16-4.32 5.94-8.098 9.72-8.098 10.256-.54 38.33-44.805 42.109-67.479 4.319-25.912-.542-72.88-7.56-72.88-2.7 0-38.871 34.01-80.44 75.04l-75.038 75.038 17.279 11.34c11.843 7.288 23.17 10.816 33.41 10.588m-130.046-96.43c-7.558 0-12.959-4.319-15.658-11.877-2.16-7.018-3.772-29.689-3.772-51.283.54-35.09 2.153-41.026 19.968-67.478 19.974-30.771 44.27-46.429 88.537-58.305 19.434-4.859 28.61-4.316 52.904 3.242 16.195 4.859 30.773 10.794 31.853 12.953 1.08 1.62-3.782 9.719-11.34 17.817-12.416 13.496-16.191 14.577-41.564 11.877-23.213-2.699-31.849-1.083-49.124 9.174-33.47 19.434-43.191 37.252-43.731 76.121-.54 37.79-10.258 57.76-28.073 57.76m209.465-210.54c-4.858 0-25.377-16.734-45.352-36.708l-36.17-36.71 1.083-123.624 1.62-124.162 18.893-1.621c17.815-1.62 23.753 3.24 113.368 92.855l93.93 94.468-69.1 68.024c-38.328 37.25-73.413 67.478-78.272 67.478" style="stroke-width:.539847"/>
</svg>
