<svg xmlns="http://www.w3.org/2000/svg" width="1040" height="960">
    <path d="M503.564-60c-137.703 0-251.25 104.962-264.94 239.042H119.98v28.704h226.67v-27.367C359.13 105.085 424.623 47.37 503.407 47.37h32.767c78.783 0 144.275 57.714 156.757 133.008v27.367h226.695v-28.704h-118.25C787.554 44.962 674.009-60 536.306-60zM119.981 222.373l38.507 156.626 40.264-130.57h40.658v448.672l53.554 114.606h-67.762l121.185 208.162V464.508h42.676c.671 0 64.705-.817 97.855 31.797 13.02 12.75 19.582 29.264 19.582 48.993h.131v474.57h26.58V545.43h.132c0-19.73 6.589-36.243 19.607-48.993 33.151-32.614 97.159-31.797 97.83-31.797h42.675V1020l121.212-208.162H747.01l53.554-114.606V248.56h40.684l40.264 130.57 38.507-156.626H693.455v228.582h-42.544c-2.819 0-70.194-.803-107.371 35.703-15.569 15.3-23.484 35.025-23.619 58.378 0-23.353-7.915-43.077-23.618-58.378-37.177-36.506-104.552-35.703-107.371-35.703h-42.545V222.373z" style="stroke-width:13.4214"/>
</svg>
