<svg xmlns="http://www.w3.org/2000/svg" width="1368" height="960">
    <path d="M170.63 705.392c-2.151 3.226-1.614 9.677 1.074 14.516 4.301 7.527 5.377 7.527 8.065 1.075 3.763-10.215-4.301-23.655-9.14-15.59m-18.28-36.021c1.613 18.817 15.053 27.957 15.053 10.753 0-15.054-5.376-27.957-11.827-27.957-2.688 0-4.301 7.527-3.226 17.204m1059.66-32.795c-6.99 2.688-12.365 6.99-12.365 10.215 0 10.215-48.387 106.987-69.892 138.707-43.547 66.128-129.03 145.16-193.545 179.567C885.671 991.946 870.08 1007 892.66 1007c18.28 0 81.182-36.559 140.858-81.181 69.354-52.688 124.192-122.041 162.9-204.836 18.818-41.397 33.334-83.87 29.57-87.095-1.075-1.075-7.526 0-13.978 2.688M137.296 625.823c-1.612 3.226.538 9.678 5.377 14.516 8.064 8.065 8.602 7.527 8.602-5.914 0-14.515-6.99-19.354-13.979-8.602M1215.773 341.42c0 9.678 3.764 29.57 8.065 44.086 11.828 38.709 9.14 117.202-5.914 181.717-4.301 18.817 5.376 19.892 19.892 2.688 8.602-10.215 9.677-21.505 10.215-88.17 0-45.698-2.688-82.257-6.451-91.397-3.226-8.064-7.527-25.806-9.14-38.709-3.764-29.031-16.667-37.096-16.667-10.215m-647.3 396.23c-1.614 2.689.537 5.914 4.838 8.065 8.064 3.226 15.59-3.763 9.677-9.677-4.839-4.839-11.29-4.301-14.516 1.613m-143.01-147.847c0 6.99 3.764 15.592 8.065 19.355s8.065 10.215 8.065 14.516c0 17.204 69.353 93.01 84.944 93.01 3.764 0 8.065 3.763 9.678 8.064 2.15 4.3 6.451 8.064 10.752 8.064s7.527-3.763 7.527-8.064-2.688-8.065-5.914-8.065c-20.43 0-100.536-92.471-109.138-125.267-4.301-17.741-13.978-19.354-13.978-1.613m-12.365-68.816c-4.838 4.839-4.838 30.107-.537 41.935 5.376 14.516 12.903 9.677 12.365-9.14-.537-20.967-6.451-38.17-11.828-32.795m545.153-58.6c.537 11.29 2.15 33.87 4.3 49.998l3.764 29.57 4.301-44.085c2.15-24.731 2.688-46.774.538-50-6.99-11.827-13.44-4.3-12.903 14.516m-137.632-224.73c-1.613 2.688 2.15 6.451 8.064 8.602 12.365 3.763 64.515 54.3 64.515 61.827 0 3.225 2.688 5.376 5.376 5.376 3.226 0 8.065 5.376 10.753 11.828 3.226 6.989 10.215 19.354 16.129 28.494 10.752 16.129 13.978 23.118 18.817 37.634 1.075 4.3 4.838 8.064 8.064 8.064 8.064 0 6.451-19.355-2.688-26.881-4.301-3.764-8.065-10.753-8.065-16.13s-3.763-12.364-8.064-16.128-8.064-9.677-8.064-13.978c0-8.602-65.59-77.418-73.655-77.418-3.226 0-6.99-3.764-9.14-8.065-3.225-9.14-17.204-10.752-22.042-3.225m-198.922 5.376c-80.644 24.193-143.546 84.407-170.965 164.513-18.817 54.3-10.215 127.955 20.968 190.858 16.666 32.795 71.504 82.256 112.363 102.148 35.484 16.667 41.398 17.742 96.773 18.28 58.064.537 83.332-4.839 115.59-24.194 4.3-2.688 12.902-6.989 18.816-9.677 23.118-10.215 73.117-67.203 90.321-102.149 15.592-32.257 17.204-40.86 18.817-96.772 2.15-62.902 1.076-68.816-25.268-123.654-12.365-26.881-74.192-87.096-102.687-100.536-63.44-30.107-116.664-36.021-174.728-18.817m99.46 34.946c46.237 14.516 73.656 33.332 101.612 70.429 12.366 16.128 22.043 31.182 22.043 33.87 0 3.226 3.763 12.365 8.064 20.43 10.753 20.43 9.677 74.192-1.613 102.686-11.29 27.42-38.709 60.752-49.461 60.752-6.452-.538-6.452-1.613 1.613-7.527 4.838-3.763 9.14-9.677 9.14-13.44 0-3.226 3.763-12.366 9.139-19.893 13.978-21.505 12.365-100.536-2.688-129.03-20.43-38.171-46.774-63.44-83.87-81.719-29.57-14.516-41.397-17.204-73.655-17.204-20.967 0-45.698 3.226-54.837 7.527-9.678 4.3-20.968 9.14-25.269 10.752-12.365 5.377-30.107 16.13-39.784 24.194-4.839 4.3-10.753 5.913-12.903 3.225-4.301-4.3 41.397-45.698 50.537-45.698 2.688 0 8.602-3.226 11.827-6.451 18.28-18.28 90.322-25.269 130.106-12.903M552.344 415.612c-18.816 37.634-19.892 106.45-2.688 141.395 27.42 54.838 70.43 88.709 126.88 100.536 52.687 10.753 110.75-6.451 154.299-45.698 11.827-10.215 22.58-17.204 24.193-15.591 1.613 2.15 0 4.839-3.226 5.914-3.763 1.613-6.99 5.914-6.99 9.677 0 10.753-48.923 51.075-73.116 60.752-33.333 12.903-112.364 14.516-138.708 2.688-56.45-24.73-94.084-63.44-115.59-118.815-20.43-52.15-10.214-110.214 26.882-151.61 10.215-11.29 19.355-19.355 19.892-18.818 1.075 1.076-4.3 14.516-11.828 29.57m188.707-7.527c18.28 13.44 39.247 52.15 39.247 70.967 0 14.515-16.667 49.999-29.57 63.44-11.29 11.29-50.537 29.031-65.052 29.031-17.204 0-54.838-22.042-69.354-40.322-27.42-36.558-17.204-103.224 19.892-125.804 32.258-19.892 76.343-18.817 104.837 2.688m58.601-187.094c-1.613 3.226-.537 7.527 2.688 9.14 8.065 5.376 13.44-1.613 6.452-8.602-3.764-3.763-6.99-3.763-9.14-.538M613.633 6.48c-19.355 2.15-40.322 6.989-46.774 10.215-6.451 3.763-16.666 6.451-22.58 6.451-10.752 0-26.344 5.914-73.117 27.957-28.494 13.44-37.096 18.816-75.268 47.31-43.547 32.796-106.45 98.924-117.74 123.655-1.613 4.3-8.064 15.053-13.978 24.193-5.914 8.602-11.828 19.892-13.978 24.193-1.613 4.3-5.914 15.053-10.215 24.193-32.258 72.58-48.386 190.857-34.946 255.372 3.226 13.44 7.527 34.946 10.215 48.387 5.376 25.806 16.129 56.45 24.73 69.89 2.689 4.302 10.753 18.28 17.205 31.72 17.204 31.72 55.913 85.483 86.02 118.816 54.3 60.752 147.31 115.59 213.975 126.342 11.828 2.15 32.258 5.914 45.698 8.064 60.752 11.828 190.32-1.613 255.91-25.806 121.503-45.16 213.975-133.868 273.114-260.748 10.752-22.58 19.354-45.698 19.354-51.074 0-4.84 3.764-20.968 8.065-35.484 17.204-55.913 8.064-187.094-17.204-253.221-32.795-86.02-58.601-124.73-125.805-190.858-59.138-59.138-120.428-93.009-214.512-119.89C766.856 5.94 663.632.565 613.632 6.479m105.912 140.858C850.188 165.078 949.649 248.41 996.96 379.59c16.666 47.31 16.129 146.234-1.075 197.308-24.194 69.354-51.612 114.515-92.472 153.224-54.3 50.537-109.138 77.418-179.567 88.17-79.569 11.828-185.48-20.967-245.157-75.805-41.935-38.171-84.408-110.75-105.913-178.492-10.752-35.483-12.365-153.76-1.612-180.642 11.29-29.57 22.58-55.913 27.956-64.515 2.688-4.3 7.527-13.978 10.753-20.967 2.688-7.527 24.193-31.72 46.773-53.763 37.634-37.634 82.257-65.053 132.794-83.87 8.602-3.225 60.751-14.515 84.407-18.279 2.15 0 22.58 2.15 45.698 5.377M502.882-49.434c-5.376 4.3-14.516 8.064-19.355 8.064-7.526 0-27.956 8.602-52.687 22.58l-16.129 8.065C360.95 12.93 258.8 104.865 218.478 165.615c-26.344 40.323-66.666 120.429-67.203 133.332 0 5.376-2.688 15.054-5.914 21.505-12.366 22.58-26.882 128.493-25.269 181.18 1.076 27.956 3.764 54.3 5.914 58.063 9.677 14.516 14.516-1.612 14.516-47.31 0-217.201 118.278-416.123 307.522-518.272 19.892-10.752 39.784-19.354 43.548-19.354 4.3 0 10.752-3.764 14.516-8.065 3.763-4.3 12.365-8.064 18.817-8.064 16.128 0 29.569-5.376 29.569-11.29 0-8.065-40.322-5.376-51.612 3.226m63.977-20.43C551.806-63.95 560.945-57.5 583.526-57.5c30.107 0 44.623-4.838 34.408-11.29-7.527-4.839-40.322-5.914-51.075-1.075" style="stroke-width:.537626"/>
</svg>
