<svg xmlns="http://www.w3.org/2000/svg" width="1200" height="960">
    <g style="stroke-width:.455399">
        <path d="M707.474 772.376c-15.028 11.84-15.939 30.967-1.366 43.718 15.484 14.573 26.413 15.939 43.263 5.92 12.296-7.742 14.573-11.385 14.573-26.869 0-13.661-2.733-20.037-10.02-25.046-14.116-10.02-31.877-9.108-46.45 2.277m-262.765 0c-14.573 14.572-10.474 40.075 8.197 51.004 8.197 4.554 18.671 7.287 23.225 5.92 15.029-5.009 28.235-20.948 28.235-34.155 0-27.779-39.62-42.807-59.657-22.77M891.91 587.939c-20.038 25.502-6.376 56.47 24.591 56.47 13.207 0 17.761-2.733 25.047-15.029 11.84-18.671 11.385-22.314-2.732-39.164-15.028-18.216-33.7-19.127-46.906-2.277m-628.906-.911c-12.296 13.207-13.207 30.056-2.733 45.995 5.92 9.108 11.385 11.385 25.503 11.385 15.938 0 19.582-2.277 27.323-14.572 10.02-16.85 8.653-27.78-5.92-43.719-12.295-13.206-30.967-12.751-44.173.911m328.798-210.394c-2.277 3.187-5.465 16.85-6.376 30.056-1.366 13.207-3.188 25.047-4.554 25.958-.91 1.366-8.197-.456-16.394-3.188-18.216-6.831-22.315-2.732-15.484 15.483 2.733 8.198 4.554 15.029 3.643 16.395-1.366.91-10.93 2.732-21.859 3.643-34.61 4.099-40.075 5.92-40.075 15.484s5.465 11.385 40.075 15.483c10.93.91 20.493 2.733 21.86 3.643.91 1.367-.911 8.198-3.644 16.395-6.83 18.216-2.732 22.314 15.484 15.483 8.197-2.732 15.483-4.098 16.85-2.732s3.643 14.117 5.009 27.78c1.366 17.304 5.01 26.868 10.019 30.511 10.93 6.831 14.117 1.822 17.76-29.601 1.822-15.028 4.099-28.235 5.01-29.145.91-1.367 8.197.455 16.394 3.187 18.216 6.831 22.315 2.733 15.484-15.483-2.733-8.197-4.554-15.028-3.644-16.395 1.367-.91 10.93-2.732 21.86-3.643 34.155-4.098 40.075-5.92 40.075-15.028 0-10.019-8.653-14.117-28.69-14.117-24.592 0-35.977-5.01-32.334-13.207 1.366-4.099 4.099-12.296 5.465-18.216 1.822-9.563.91-10.474-8.653-8.652-5.92 1.366-14.572 4.098-18.67 5.92-6.376 2.277-8.198-.911-10.475-19.127-4.554-35.521-6.831-42.352-13.207-42.352-3.187 0-8.197 2.732-10.93 5.465m300.108-51.46c-12.296 12.295-12.296 32.333 0 47.816 11.84 15.029 31.878 15.94 44.629 1.822 14.117-15.028 15.484-25.047 6.376-41.441-10.93-18.672-36.432-22.77-51.005-8.198m-631.639 2.732c-10.474 15.939-9.563 32.789 2.733 45.995 13.206 13.662 31.878 14.118 44.173.456 14.573-15.484 15.94-26.414 5.92-43.263-7.741-12.296-11.385-14.573-27.323-14.573-14.118 0-19.583 2.277-25.503 11.385m462.686-194.911c-3.643 1.366-11.385 6.831-16.85 11.84-30.512 27.324 13.662 70.132 47.817 45.996 7.286-5.01 10.019-11.385 10.019-25.047 0-15.484-2.277-19.127-14.573-26.869-15.939-9.563-15.939-9.563-26.413-5.92m-269.597 4.099c-23.68 12.75-22.77 48.272 1.822 58.746 16.394 6.831 24.136 5.01 39.164-8.197 12.752-11.84 13.207-31.878 0-44.174-5.464-5.01-11.385-9.108-13.206-9.108s-5.92-.91-9.564-2.277c-3.187-.91-11.385.911-18.216 5.01M563.568 1.384c-8.653 1.822-27.78 10.475-42.352 19.127-14.573 8.653-31.878 18.672-38.254 21.86-16.394 9.108-39.62 3.187-53.281-13.207-15.484-18.216-27.324-15.939-29.146 5.01-2.732 40.075-4.554 44.173-25.047 52.37-10.474 4.099-28.235 9.564-39.62 11.385-39.164 7.287-56.47 15.94-79.239 39.165-23.225 22.77-31.423 39.62-39.164 79.239-4.554 24.136-13.207 50.55-18.672 56.47-1.821 2.277-16.394 5.464-32.333 6.83-34.155 3.188-39.62 12.296-17.76 30.512 16.394 13.662 22.314 36.888 13.206 53.737-3.188 6.376-14.117 24.592-23.68 40.076-17.761 28.69-17.761 28.69-17.761 76.507s0 47.817 17.76 76.507c9.564 15.483 20.493 33.7 23.68 40.075 9.109 16.85 3.189 40.075-13.206 53.737-21.859 18.216-16.394 27.324 17.76 30.512 15.94 1.366 30.513 4.554 32.334 6.83 5.465 5.92 14.118 32.334 18.672 56.47 7.741 39.62 15.939 56.47 39.164 79.24 22.77 23.225 39.62 31.422 79.24 39.164 24.136 4.554 50.549 13.207 56.469 18.671 2.277 1.822 5.01 15.029 6.83 29.601 3.644 34.155 13.207 40.986 30.057 20.949 14.118-16.85 36.888-22.77 54.193-13.662 6.375 3.187 24.591 14.117 40.075 23.68C552.183 960 552.183 960 600 960s47.817 0 76.507-17.76c15.484-9.564 33.7-20.494 40.075-23.681 17.305-9.108 40.075-3.188 54.193 13.662 16.85 20.037 26.413 13.206 30.056-20.949 1.822-14.572 4.554-27.78 6.831-29.6 5.92-5.465 32.789-14.118 56.47-18.672 53.737-10.019 83.793-31.878 104.286-75.141 7.742-16.394 14.117-34.61 14.117-40.986 0-5.92 4.099-22.314 9.564-35.976 10.018-26.869 11.84-27.78 54.192-30.968 20.949-1.821 23.226-13.661 5.01-29.145-16.395-13.662-22.315-36.887-13.207-53.737 3.188-6.376 14.117-24.592 23.68-40.075 17.761-28.69 17.761-28.69 17.761-76.507s0-47.817-17.76-76.507c-9.564-15.484-20.493-33.7-23.68-40.076-9.109-16.85-3.189-40.075 13.206-53.737 18.216-15.483 15.939-27.324-5.01-29.145-40.075-2.733-44.173-4.554-52.37-25.047-4.1-10.474-9.564-28.235-11.386-39.62-7.286-39.164-15.939-56.47-39.164-79.24-22.77-23.225-40.075-31.877-79.695-39.164-25.958-4.554-51.915-15.483-56.925-23.225-2.277-3.643-5.01-17.76-6.375-31.423-2.733-30.511-12.296-35.065-30.057-14.117-13.662 16.394-36.887 22.315-53.737 13.207-6.375-3.188-24.136-13.662-39.164-22.77C653.282 4.572 645.54 2.295 614.573.474c-19.127-.911-42.352-.456-51.005.91m-2.732 72.41c-1.367 17.304-5.465 42.351-9.108 56.469s-6.376 32.333-6.376 40.075c0 14.573-11.385 39.62-23.68 51.915-4.1 4.099-15.94 10.93-26.414 15.028-25.958 10.475-49.638 4.099-87.437-23.225-81.971-58.291-94.723-67.854-94.723-71.042 0-4.554 40.076-17.76 54.193-17.76 15.939-.456 71.953-15.484 91.535-25.503 8.653-4.099 22.315-12.296 30.512-18.216 7.742-5.92 15.939-10.93 18.216-10.93 1.822 0 10.93-6.375 19.582-13.662 8.653-7.286 20.493-13.662 26.413-13.662 10.02 0 10.02.911 7.287 30.512m128.878-6.376c19.582 13.661 42.807 27.779 51.46 32.333 19.126 9.563 75.14 25.047 91.535 25.502 14.117 0 54.192 13.207 54.192 17.76 0 3.189-13.662 13.207-94.267 71.043-36.432 25.958-60.113 33.244-82.427 25.047-32.334-11.385-55.56-39.62-55.56-67.854 0-7.742-2.732-26.414-6.375-42.353s-7.742-41.44-9.563-57.38c-2.733-25.958-2.277-28.235 6.375-28.235 5.01 0 25.047 10.93 44.63 24.137M289.418 226.352c13.206 18.216 33.244 45.995 44.173 61.934 27.324 37.798 33.7 61.479 23.226 87.437-4.099 10.474-10.93 22.314-15.028 26.413-12.296 12.296-37.343 23.68-51.916 23.68-7.742 0-25.958 2.733-40.075 6.376s-39.164 7.742-56.014 9.108c-28.69 2.733-30.967 2.277-30.967-5.92 0-5.01 10.93-25.047 24.136-44.63 13.662-19.581 27.78-42.807 32.333-51.46 9.564-19.126 25.047-75.14 25.503-91.534 0-14.118 13.206-54.193 17.76-54.193 1.822 0 14.118 15.028 26.869 32.789m658.507-11.385c4.099 11.84 7.286 26.413 7.286 32.789.456 16.394 15.94 72.408 25.503 91.535 4.554 8.652 18.671 31.878 32.333 51.46 13.207 19.582 24.136 39.62 24.136 44.629 0 8.197-2.277 8.653-30.512 5.92-17.305-1.366-42.352-5.465-56.469-9.108s-32.333-6.375-40.075-6.375c-15.028 0-39.62-11.385-52.371-24.136-4.554-4.1-10.93-16.85-15.028-28.69-9.108-26.414-3.188-46.907 24.591-86.071 51.005-71.953 66.944-93.357 70.132-93.357 1.821 0 6.375 9.564 10.474 21.404M668.31 324.263c39.164 20.493 65.122 45.54 86.07 83.338 3.643 6.375 8.653 25.047 11.84 41.896 20.95 117.949-78.328 218.137-195.82 197.188-56.926-10.474-94.724-39.62-127.057-97.91-12.752-23.226-12.752-113.395 0-136.62 28.69-51.916 67.854-85.16 113.394-96.09 24.592-6.375 94.268-.91 111.573 8.198M249.798 528.737c14.117 3.643 32.333 6.376 40.075 6.376 14.573 0 39.62 11.385 51.916 23.68 4.098 4.099 10.93 15.94 15.028 26.413 10.474 25.958 4.098 49.639-23.226 87.437-58.29 81.972-67.854 94.723-71.042 94.723-4.554 0-17.76-40.075-17.76-54.192-.456-15.94-15.484-71.953-25.503-91.536-4.098-8.652-12.296-22.314-18.216-30.511-5.92-7.742-10.93-15.94-10.93-17.306 0-1.821-5.92-10.93-13.661-20.493-7.287-9.563-13.662-21.403-13.662-26.868 0-9.563 1.366-9.563 30.967-6.831 16.85 1.366 41.897 5.465 56.014 9.108m787.385-3.188c0 5.01-10.93 25.047-24.136 44.63-13.662 19.581-27.78 42.807-32.333 51.46-9.564 19.126-25.047 75.14-25.503 91.535 0 14.117-13.206 54.192-17.76 54.192-3.188 0-19.127-21.404-70.132-93.357-26.413-37.342-33.244-59.657-25.957-82.427 10.93-33.7 39.164-56.47 69.676-56.47 7.741 0 21.859-2.276 30.511-5.009 14.573-4.098 61.024-11.385 85.615-12.751 7.287-.455 10.02 2.277 10.02 8.197M497.535 724.56c9.564 3.643 20.493 10.018 24.136 14.117 12.296 12.296 23.681 37.343 23.681 51.915 0 7.742 2.732 25.958 6.376 40.076 3.643 14.117 7.741 39.164 9.108 56.014 2.732 28.69 2.277 30.967-5.92 30.967-5.01 0-25.048-10.93-44.63-24.136-19.582-13.662-42.807-27.78-51.46-32.334-19.127-9.563-75.14-25.047-91.535-25.502-14.117 0-54.193-13.207-54.193-17.76 0-2.733 14.118-13.663 93.357-70.587 43.263-30.512 61.48-35.066 91.08-22.77m253.202-1.822c8.653 2.732 27.78 14.117 42.808 25.047 78.784 56.47 93.356 67.399 93.356 70.131 0 4.554-40.075 17.761-54.192 17.761-16.394.455-72.409 15.939-91.535 25.502-8.653 4.554-31.878 18.672-51.46 32.334-19.583 13.206-39.62 24.136-44.63 24.136-8.652 0-9.108-2.277-6.375-28.69 1.821-15.484 5.92-40.986 9.563-56.925s6.376-34.61 6.376-42.352c0-16.395 14.117-43.719 28.235-53.737 25.957-18.672 42.807-21.86 67.854-13.207"/>
        <path d="M707.474 772.376c-15.028 11.84-15.939 30.967-1.366 43.718 15.484 14.573 26.413 15.939 43.263 5.92 12.296-7.742 14.573-11.385 14.573-26.869 0-13.661-2.733-20.037-10.02-25.046-14.116-10.02-31.877-9.108-46.45 2.277m-262.765 0c-14.573 14.572-10.474 40.075 8.197 51.004 8.197 4.554 18.671 7.287 23.225 5.92 15.029-5.009 28.235-20.948 28.235-34.155 0-27.779-39.62-42.807-59.657-22.77M891.91 587.939c-20.038 25.502-6.376 56.47 24.591 56.47 13.207 0 17.761-2.733 25.047-15.029 11.84-18.671 11.385-22.314-2.732-39.164-15.028-18.216-33.7-19.127-46.906-2.277m-628.906-.911c-12.296 13.207-13.207 30.056-2.733 45.995 5.92 9.108 11.385 11.385 25.503 11.385 15.938 0 19.582-2.277 27.323-14.572 10.02-16.85 8.653-27.78-5.92-43.719-12.295-13.206-30.967-12.751-44.173.911m328.798-210.394c-2.277 3.187-5.465 16.85-6.376 30.056-1.366 13.207-3.188 25.047-4.554 25.958-.91 1.366-8.197-.456-16.394-3.188-18.216-6.831-22.315-2.732-15.484 15.483 2.733 8.198 4.554 15.029 3.643 16.395-1.366.91-10.93 2.732-21.859 3.643-34.61 4.099-40.075 5.92-40.075 15.484s5.465 11.385 40.075 15.483c10.93.91 20.493 2.733 21.86 3.643.91 1.367-.911 8.198-3.644 16.395-6.83 18.216-2.732 22.314 15.484 15.483 8.197-2.732 15.483-4.098 16.85-2.732s3.643 14.117 5.009 27.78c1.366 17.304 5.01 26.868 10.019 30.511 10.93 6.831 14.117 1.822 17.76-29.601 1.822-15.028 4.099-28.235 5.01-29.145.91-1.367 8.197.455 16.394 3.187 18.216 6.831 22.315 2.733 15.484-15.483-2.733-8.197-4.554-15.028-3.644-16.395 1.367-.91 10.93-2.732 21.86-3.643 34.155-4.098 40.075-5.92 40.075-15.028 0-10.019-8.653-14.117-28.69-14.117-24.592 0-35.977-5.01-32.334-13.207 1.366-4.099 4.099-12.296 5.465-18.216 1.822-9.563.91-10.474-8.653-8.652-5.92 1.366-14.572 4.098-18.67 5.92-6.376 2.277-8.198-.911-10.475-19.127-4.554-35.521-6.831-42.352-13.207-42.352-3.187 0-8.197 2.732-10.93 5.465m300.108-51.46c-12.296 12.295-12.296 32.333 0 47.816 11.84 15.029 31.878 15.94 44.629 1.822 14.117-15.028 15.484-25.047 6.376-41.441-10.93-18.672-36.432-22.77-51.005-8.198m-631.639 2.732c-10.474 15.939-9.563 32.789 2.733 45.995 13.206 13.662 31.878 14.118 44.173.456 14.573-15.484 15.94-26.414 5.92-43.263-7.741-12.296-11.385-14.573-27.323-14.573-14.118 0-19.583 2.277-25.503 11.385m462.686-194.911c-3.643 1.366-11.385 6.831-16.85 11.84-30.512 27.324 13.662 70.132 47.817 45.996 7.286-5.01 10.019-11.385 10.019-25.047 0-15.484-2.277-19.127-14.573-26.869-15.939-9.563-15.939-9.563-26.413-5.92m-269.597 4.099c-23.68 12.75-22.77 48.272 1.822 58.746 16.394 6.831 24.136 5.01 39.164-8.197 12.752-11.84 13.207-31.878 0-44.174-5.464-5.01-11.385-9.108-13.206-9.108s-5.92-.91-9.564-2.277c-3.187-.91-11.385.911-18.216 5.01M563.568 1.384c-8.653 1.822-27.78 10.475-42.352 19.127-14.573 8.653-31.878 18.672-38.254 21.86-16.394 9.108-39.62 3.187-53.281-13.207-15.484-18.216-27.324-15.939-29.146 5.01-2.732 40.075-4.554 44.173-25.047 52.37-10.474 4.099-28.235 9.564-39.62 11.385-39.164 7.287-56.47 15.94-79.239 39.165-23.225 22.77-31.423 39.62-39.164 79.239-4.554 24.136-13.207 50.55-18.672 56.47-1.821 2.277-16.394 5.464-32.333 6.83-34.155 3.188-39.62 12.296-17.76 30.512 16.394 13.662 22.314 36.888 13.206 53.737-3.188 6.376-14.117 24.592-23.68 40.076-17.761 28.69-17.761 28.69-17.761 76.507s0 47.817 17.76 76.507c9.564 15.483 20.493 33.7 23.68 40.075 9.109 16.85 3.189 40.075-13.206 53.737-21.859 18.216-16.394 27.324 17.76 30.512 15.94 1.366 30.513 4.554 32.334 6.83 5.465 5.92 14.118 32.334 18.672 56.47 7.741 39.62 15.939 56.47 39.164 79.24 22.77 23.225 39.62 31.422 79.24 39.164 24.136 4.554 50.549 13.207 56.469 18.671 2.277 1.822 5.01 15.029 6.83 29.601 3.644 34.155 13.207 40.986 30.057 20.949 14.118-16.85 36.888-22.77 54.193-13.662 6.375 3.187 24.591 14.117 40.075 23.68C552.183 960 552.183 960 600 960s47.817 0 76.507-17.76c15.484-9.564 33.7-20.494 40.075-23.681 17.305-9.108 40.075-3.188 54.193 13.662 16.85 20.037 26.413 13.206 30.056-20.949 1.822-14.572 4.554-27.78 6.831-29.6 5.92-5.465 32.789-14.118 56.47-18.672 53.737-10.019 83.793-31.878 104.286-75.141 7.742-16.394 14.117-34.61 14.117-40.986 0-5.92 4.099-22.314 9.564-35.976 10.018-26.869 11.84-27.78 54.192-30.968 20.949-1.821 23.226-13.661 5.01-29.145-16.395-13.662-22.315-36.887-13.207-53.737 3.188-6.376 14.117-24.592 23.68-40.075 17.761-28.69 17.761-28.69 17.761-76.507s0-47.817-17.76-76.507c-9.564-15.484-20.493-33.7-23.68-40.076-9.109-16.85-3.189-40.075 13.206-53.737 18.216-15.483 15.939-27.324-5.01-29.145-40.075-2.733-44.173-4.554-52.37-25.047-4.1-10.474-9.564-28.235-11.386-39.62-7.286-39.164-15.939-56.47-39.164-79.24-22.77-23.225-40.075-31.877-79.695-39.164-25.958-4.554-51.915-15.483-56.925-23.225-2.277-3.643-5.01-17.76-6.375-31.423-2.733-30.511-12.296-35.065-30.057-14.117-13.662 16.394-36.887 22.315-53.737 13.207-6.375-3.188-24.136-13.662-39.164-22.77C653.282 4.572 645.54 2.295 614.573.474c-19.127-.911-42.352-.456-51.005.91m-2.732 72.41c-1.367 17.304-5.465 42.351-9.108 56.469s-6.376 32.333-6.376 40.075c0 14.573-11.385 39.62-23.68 51.915-4.1 4.099-15.94 10.93-26.414 15.028-25.958 10.475-49.638 4.099-87.437-23.225-81.971-58.291-94.723-67.854-94.723-71.042 0-4.554 40.076-17.76 54.193-17.76 15.939-.456 71.953-15.484 91.535-25.503 8.653-4.099 22.315-12.296 30.512-18.216 7.742-5.92 15.939-10.93 18.216-10.93 1.822 0 10.93-6.375 19.582-13.662 8.653-7.286 20.493-13.662 26.413-13.662 10.02 0 10.02.911 7.287 30.512m128.878-6.376c19.582 13.661 42.807 27.779 51.46 32.333 19.126 9.563 75.14 25.047 91.535 25.502 14.117 0 54.192 13.207 54.192 17.76 0 3.189-13.662 13.207-94.267 71.043-36.432 25.958-60.113 33.244-82.427 25.047-32.334-11.385-55.56-39.62-55.56-67.854 0-7.742-2.732-26.414-6.375-42.353s-7.742-41.44-9.563-57.38c-2.733-25.958-2.277-28.235 6.375-28.235 5.01 0 25.047 10.93 44.63 24.137M289.418 226.352c13.206 18.216 33.244 45.995 44.173 61.934 27.324 37.798 33.7 61.479 23.226 87.437-4.099 10.474-10.93 22.314-15.028 26.413-12.296 12.296-37.343 23.68-51.916 23.68-7.742 0-25.958 2.733-40.075 6.376s-39.164 7.742-56.014 9.108c-28.69 2.733-30.967 2.277-30.967-5.92 0-5.01 10.93-25.047 24.136-44.63 13.662-19.581 27.78-42.807 32.333-51.46 9.564-19.126 25.047-75.14 25.503-91.534 0-14.118 13.206-54.193 17.76-54.193 1.822 0 14.118 15.028 26.869 32.789m658.507-11.385c4.099 11.84 7.286 26.413 7.286 32.789.456 16.394 15.94 72.408 25.503 91.535 4.554 8.652 18.671 31.878 32.333 51.46 13.207 19.582 24.136 39.62 24.136 44.629 0 8.197-2.277 8.653-30.512 5.92-17.305-1.366-42.352-5.465-56.469-9.108s-32.333-6.375-40.075-6.375c-15.028 0-39.62-11.385-52.371-24.136-4.554-4.1-10.93-16.85-15.028-28.69-9.108-26.414-3.188-46.907 24.591-86.071 51.005-71.953 66.944-93.357 70.132-93.357 1.821 0 6.375 9.564 10.474 21.404M668.31 324.263c39.164 20.493 65.122 45.54 86.07 83.338 3.643 6.375 8.653 25.047 11.84 41.896 20.95 117.949-78.328 218.137-195.82 197.188-56.926-10.474-94.724-39.62-127.057-97.91-12.752-23.226-12.752-113.395 0-136.62 28.69-51.916 67.854-85.16 113.394-96.09 24.592-6.375 94.268-.91 111.573 8.198M249.798 528.737c14.117 3.643 32.333 6.376 40.075 6.376 14.573 0 39.62 11.385 51.916 23.68 4.098 4.099 10.93 15.94 15.028 26.413 10.474 25.958 4.098 49.639-23.226 87.437-58.29 81.972-67.854 94.723-71.042 94.723-4.554 0-17.76-40.075-17.76-54.192-.456-15.94-15.484-71.953-25.503-91.536-4.098-8.652-12.296-22.314-18.216-30.511-5.92-7.742-10.93-15.94-10.93-17.306 0-1.821-5.92-10.93-13.661-20.493-7.287-9.563-13.662-21.403-13.662-26.868 0-9.563 1.366-9.563 30.967-6.831 16.85 1.366 41.897 5.465 56.014 9.108m787.385-3.188c0 5.01-10.93 25.047-24.136 44.63-13.662 19.581-27.78 42.807-32.333 51.46-9.564 19.126-25.047 75.14-25.503 91.535 0 14.117-13.206 54.192-17.76 54.192-3.188 0-19.127-21.404-70.132-93.357-26.413-37.342-33.244-59.657-25.957-82.427 10.93-33.7 39.164-56.47 69.676-56.47 7.741 0 21.859-2.276 30.511-5.009 14.573-4.098 61.024-11.385 85.615-12.751 7.287-.455 10.02 2.277 10.02 8.197M497.535 724.56c9.564 3.643 20.493 10.018 24.136 14.117 12.296 12.296 23.681 37.343 23.681 51.915 0 7.742 2.732 25.958 6.376 40.076 3.643 14.117 7.741 39.164 9.108 56.014 2.732 28.69 2.277 30.967-5.92 30.967-5.01 0-25.048-10.93-44.63-24.136-19.582-13.662-42.807-27.78-51.46-32.334-19.127-9.563-75.14-25.047-91.535-25.502-14.117 0-54.193-13.207-54.193-17.76 0-2.733 14.118-13.663 93.357-70.587 43.263-30.512 61.48-35.066 91.08-22.77m253.202-1.822c8.653 2.732 27.78 14.117 42.808 25.047 78.784 56.47 93.356 67.399 93.356 70.131 0 4.554-40.075 17.761-54.192 17.761-16.394.455-72.409 15.939-91.535 25.502-8.653 4.554-31.878 18.672-51.46 32.334-19.583 13.206-39.62 24.136-44.63 24.136-8.652 0-9.108-2.277-6.375-28.69 1.821-15.484 5.92-40.986 9.563-56.925s6.376-34.61 6.376-42.352c0-16.395 14.117-43.719 28.235-53.737 25.957-18.672 42.807-21.86 67.854-13.207"/>
    </g>
</svg>
