<svg xmlns="http://www.w3.org/2000/svg" width="970" height="960">
    <path d="M485.062-30 120.68 180.55v603.196l32.124 18.614C257.193 862.7 476.776 989.712 483.693 990c7.84.318 221.971-123.083 322.983-181.414 14.184-8.16 28.333-16.459 42.645-24.778V180.487zm0 31.626 342.532 197.973v565.097L485.062 962.669 142.095 764.51V199.85zm-10.77 32.31L161.581 214.729c-2.263 21.292-1.302 508.896 1.12 518.777l311.591-269.567zm20.046 1.308v426.079c40.513 39.015 302.51 267.23 311.404 271.31V215.102zM659.877 221.7c29.229-.223 60.987 29.241 59.33 61.945-.861 17.149-.493 58.5-.748 63.314v.062c-25.436 0-49.461.897-73.4-.186-31.874-1.658-57.648-30.533-57.648-62.568V221.95s49.675-.057 72.466-.249m-391.154 1.37h138.208c5.578 0 11.32-.505 17.058 6.412.447 30.027.187 65.597.187 99.672v.062a112 112 0 0 0-8.342-.311c-1.658 0-3.33-.001-4.732.062-7.235.797-14.43.638-21.665 1.308-28.75 2.773-46.545 21.797-47.5 50.676-.255 8.012-.16 16.05 0 24.03v.063c.058.46.124.943.124 1.432 0 4.558-2.557 8.511-6.35 10.583h-78.754c-5.45-2.71-6.6-7.006-6.6-12.202v-68.544c9.755-10.072 22.007-17.783 32.685-29.322l-32.435-.125c-.287-2.582-.311-7.036-.311-9.65v-58.893c0-4.877-.238-9.703 5.914-14.07a114 114 0 0 1 12.513-1.183m328.275 138.332c21.229 0 42.491-.255 63.688 0 25.196.318 42.928 13.13 54.785 34.428l.125.187c3.283 5.723 5.316 12.237 5.79 19.299.7 23.141.31 46.335.31 70.847-4.494.223-7.646.586-10.77.81-19.125 0-38.396-.351-57.649 0-35.54.669-65.764-34.145-63.5-63.502 0 0 .249-32.766.249-49.182v-12.638s5.06-.249 6.972-.249m-265.894 67.486.249.062c2.422.319 4.779.765 6.723 1.307 1.052 3.347 3.327 6.918 3.487 10.584.414 11.22.382 22.46 0 33.68-.32 8.351-5.426 12.78-13.012 12.078-5.706 0-10.397-4.597-10.397-10.335 0-.255.063-.524.063-.747a487 487 0 0 1 0-36.108c.126-3.209 2.298-6.384 3.673-9.836 4.249-.38 6.649-.844 9.214-.685m-76.45.435h13.073c5.387 2.71 6.6 7.007 6.6 12.203 0 10.805.254 21.692 0 32.497-.192 8.415-4.13 12.477-11.207 12.7-7.076.223-11.79-3.828-12.077-11.828-.479-11.603-.447-23.291 0-34.926.127-3.347 2.176-6.566 3.61-10.646m33.68 0 15.937.063c1.34 3.984 3.544 7.906 3.736 11.89.414 10.806.287 21.693 0 32.498-.192 8.83-4.616 13.206-12.202 12.887-7.14-.287-10.983-4.315-11.206-12.762-.383-10.838-.51-21.755 0-32.56.19-4.048 2.396-7.936 3.735-12.016m197.787 49.805s-212.673 184.895-317.318 275.42l315.014 181.974C589.1 875.672 693.36 815.592 798.77 754.423c-103.561-90.875-312.648-275.295-312.648-275.295m-64.373 162.488c11.38 4.048 19.66 13.002 28.14 21.354 5.45 5.45 4.494 13.557-1.308 20.793-8.032 10.04-16.367 19.753-24.59 29.634l-61.572 73.835-.124.187c-1.721 2.167-3.504 4.219-5.416 6.163a15.45 15.45 0 0 1-11.207 4.794c-3.633 0-6.973-1.26-9.587-3.3l-.498-.373c-5.674-4.24-11.15-8.762-16.186-13.447-8.83-8.001-9.549-15.749-1.93-25.152 10.359-12.782 21.075-25.229 31.626-37.851 18.466-22.143 36.9-44.305 55.345-66.49 4.176-5.036 8.478-9.733 17.307-10.147m90.084 0c11.539 3.73 20.5 13.167 29.074 22.474 4.526 4.686 3.946 11.2.249 16.747l-.25.311c-2.294 3.188-4.735 6.285-7.22 9.09-27.413 32.799-55.276 65.366-82.179 98.675-8.765 10.838-20.23 12.297-29.633 2.926-3.124-3.092-6.707-5.692-10.086-8.529-11.857-10.04-12.677-16.407-3.05-28.264 13.132-16.224 26.582-32.217 39.906-48.186 15.395-18.488 30.831-36.826 46.131-55.346 4.208-5.1 8.643-9.452 17.058-9.898m90.147 0h.062c11.507 3.538 20.214 13.08 29.011 22.1 4.208 4.367 3.61 10.52.996 15.876l-.124.187c-1.339 2.39-2.884 4.622-4.67 6.599-28.262 33.893-56.53 67.75-84.792 101.601l-.124.187c-1.467 1.849-3.074 3.572-4.732 5.23-2.837 3.028-6.836 4.918-11.33 4.918-3.57 0-6.82-1.137-9.401-3.113l-.498-.374c-5.387-3.952-10.534-8.27-15.315-12.638-10.232-8.988-10.939-16.409-2.428-26.832 10.391-12.75 21.013-25.291 31.564-37.914a25541 25541 0 0 0 54.723-65.555c4.175-5.036 8.42-9.794 17.058-10.272" style="stroke-width:31.875"/>
</svg>
