<svg xmlns="http://www.w3.org/2000/svg" width="1320" height="960">
    <path d="M857.143 788.571c0 4.572 3.428 8.572 8 8.572 4.571 0 9.143 4 11.428 8.571 3.429 9.715 14.858 12 14.858 2.857 0-7.428-21.143-28.571-28.572-28.571-2.857 0-5.714 4-5.714 8.571m188.571-21.714c0 7.429 26.857 30.286 30.286 26.286 2.286-1.714-2.286-9.143-9.143-16.572-12.571-13.714-21.143-17.142-21.143-9.714m-85.714-84c0 7.429 21.143 28.572 28.571 28.572 9.143 0 6.858-10.286-5.714-22.858C970.286 676 960 673.714 960 682.857m-411.429-3.428c0 4.571 29.143 37.714 65.143 73.142C765.143 902.286 846.857 980 852.571 980c3.429 0-5.142-11.429-20-25.714-14.857-13.715-26.857-26.286-26.857-27.429 0-5.143-248-255.428-252.571-255.428-2.286 0-4.572 4-4.572 8M582.857 648c0 9.714 300 304 305.143 299.429 1.714-1.715-9.143-15.429-24-30.858-14.857-14.857-80.571-82.285-146.857-150.285-108-111.429-134.286-134.857-134.286-118.286M620 609.714c-3.429 8.572 52 65.715 238.857 248.572 62.286 60.571 90.286 76 34.857 19.428-212-218.285-270.857-276-273.714-268m34.286-34.285c-2.286 6.285 22.285 34.857 77.143 89.714 74.857 74.857 91.428 88.571 91.428 76 0-2.857-37.143-42.857-82.857-89.714-59.429-60.572-83.429-82.286-85.714-76m-82.857-42.286C552 552.57 532 568.57 526.286 568.57s-14.857 9.143-22.286 21.143C485.143 624 428.571 676 408.571 678.286c-14.857 1.714-17.142 4.571-18.857 20.571-1.143 11.429-5.714 20.572-11.428 22.286-5.143 2.286-16 8.571-23.429 14.286s-18.286 10.285-23.428 10.285c-6.286 0-16 11.429-26.286 32.572-17.143 34.285-74.857 96-96 102.285-15.429 4.572-32 18.858-38.286 33.715-2.857 6.285-10.286 18.857-16 28.571-16.571 25.714-34.857 62.857-34.857 70.286 0 4 2.857 6.857 6.857 6.857 7.429 0 44.572-18.286 70.286-34.857 9.714-5.714 22.286-13.143 28.571-16 14.857-6.286 29.143-22.857 33.715-38.286 6.285-21.143 68-78.857 102.285-96 21.143-10.286 32.572-20 32.572-26.286 0-5.142 4.571-16 10.285-23.428s12-18.286 14.286-23.429c1.714-5.714 10.857-10.285 22.286-11.428 16-1.143 19.428-4 20.571-17.715C464 716 537.143 637.143 550.857 637.143c10.286 0 28-21.143 24-28-2.286-3.429 12-21.143 32-40l36-34.286L624.571 516l-18.857-18.286zM320 826.857c0 10.857-136 142.857-142.857 138.857-8-5.143 16.571-35.428 78.857-96 49.143-48 64-57.714 64-42.857M752.571 475.43c-4 4 160 167.428 168.572 167.428 2.286 0 4.571-2.286 4.571-5.143 0-6.285-158.857-166.285-165.143-166.285-2.285 0-6.285 1.714-8 4m30.286-34.286c0 4 234.286 236 238.286 236 1.143 0 13.143 11.428 26.286 25.714 13.714 14.286 26.285 24 28.571 22.286 3.429-3.429-34.857-44.572-186.286-197.143-79.428-79.429-106.857-102.286-106.857-86.857m40-30.857c0 6.857 225.714 232.571 232.572 232.571 1.142 0 13.142 12 27.428 26.857 14.286 14.286 27.429 25.143 29.143 22.857 5.143-4.571-273.714-289.714-284-289.714-2.857 0-5.143 3.429-5.143 7.429m28.572-36.572c0 4.572 250.285 252 254.857 252 1.143 0 14.285 12 28 26.857C1148.57 667.43 1160 676 1160 672.571c0-4-26.286-33.714-58.286-66.285-32.571-33.143-98.285-100-146.285-148.572-76.572-78.857-104-100.571-104-84m-457.143-51.428c0 9.143 160 166.285 169.143 166.285 4.571 0 8-1.714 8-3.428 0-5.714-166.858-168-172-168a5.12 5.12 0 0 0-5.143 5.143M160 287.429c0 6.285 85.143 95.428 227.429 238.857 57.714 58.285 81.142 75.428 81.142 60 0-2.286-56.571-59.429-126.285-126.857C273.143 392 203.429 324.57 188 309.143c-15.429-15.429-28-25.143-28-21.714m49.714-18.286c-4.571 5.143 272 288 282.286 288 16 0-5.714-24.572-110.286-127.429-63.428-61.714-116-112.571-117.143-112.571-1.142 0-13.142-11.429-26.285-25.714-13.715-14.286-26.286-24-28.572-22.286m116-14.857c0 3.428 4 7.428 8.572 9.143 4.571 2.285 8.571 6.857 8.571 11.428s4 8 8.572 8c12.571 0 10.285-10.857-4-23.428-14.858-12-21.715-13.715-21.715-5.143M244 234.857c-1.714 1.714 18.857 26.857 46.286 54.857 192 197.715 246.857 248.572 246.857 229.143 0-3.428-234.286-236-238.286-236-1.143 0-13.143-11.428-26.286-25.714-13.714-14.286-26.285-24-28.571-22.286m253.143-16c0 5.714 162.286 172.572 167.428 172.572 14.858 0-6.285-26.858-76.571-96.572-74.286-74.857-90.857-88.571-90.857-76M428.57 151.43c0 7.428 21.143 28.571 28.572 28.571 9.143 0 6.857-10.286-5.714-22.857s-22.858-14.857-22.858-5.714M346.857 64c-1.714 2.857 2.857 10.857 10.286 17.714s14.857 10.857 16 8.572c1.714-2.857-2.857-10.857-10.286-17.715-7.428-6.857-14.857-10.857-16-8.571m51.429-17.143C394.286 50.286 396 52 576 235.43c65.714 66.857 120.571 121.714 122.857 121.714 14.857 0-6.857-26.857-78.286-98.286-162.285-160.571-219.428-215.428-222.285-212M432 12.571c-1.714 1.715 9.143 15.429 24 30.858 14.857 14.857 80.571 82.285 146.857 150.285 108 111.429 134.286 134.857 134.286 118.286 0-9.714-300-304-305.143-299.429M480-4c0 2.286 7.429 10.857 17.143 18.286 9.143 8 16.571 16 17.143 17.714 0 5.714 247.428 256.571 252.571 256.571 14.857 0-2.857-24-60.571-81.142-143.429-141.715-220-216-223.429-216C481.143-8.571 480-6.286 480-4M120-52.571c0 4.571 6.286 19.428 13.714 33.142 8 13.715 19.429 35.429 26.286 48 16.571 30.858 28 42.286 48.571 50.858 25.715 10.857 78.286 65.714 94.286 98.857 10.286 21.143 20 32 34.286 38.285 40.571 18.858 48.571 25.715 51.428 44.572 2.286 15.428 5.715 19.428 18.858 20.571C424 284 502.857 357.143 502.857 370.857c0 9.714 21.143 28 27.429 24C536.57 391.43 748.57 602.286 748.57 612c0 4 6.858 12 15.429 17.714 8 5.715 32.571 26.857 53.714 46.857 29.715 27.429 39.429 40.572 40.572 54.286 1.714 15.429 4.571 18.286 20.571 20.572 18.857 2.857 25.714 10.857 44.572 51.428 6.285 14.286 17.142 24 38.285 34.286 31.429 15.428 92.572 73.143 98.857 93.714 4.572 15.429 18.858 32 33.715 38.286 6.285 2.857 19.428 10.286 28.571 16 25.714 16.571 62.857 34.857 70.286 34.857 4 0 6.857-2.857 6.857-6.857 0-7.429-18.286-44.572-34.857-70.286-5.714-9.714-13.143-22.286-16-28.571-6.286-14.857-22.857-29.143-38.286-33.715-20.571-6.285-78.286-67.428-93.714-98.857-10.286-21.143-20-32-34.286-38.285-40.571-18.858-48.571-25.715-51.428-44.572-2.286-15.428-5.715-19.428-18.858-20.571-16.571-2.286-95.428-76-95.428-89.715 0-9.142-16.572-22.857-28-22.857-10.857 0-88.572-79.428-85.714-87.428 5.714-15.429 80.571-86.857 90.857-86.857 7.428 0 14.857-7.429 22.285-21.715 17.143-32.571 74.286-85.714 94.858-88 14.857-1.714 17.142-4.571 18.857-20.571 1.143-11.429 5.714-20.572 11.428-22.286 5.143-2.286 16-8.571 23.429-14.286s18.286-10.285 23.428-10.285c6.286 0 16-11.429 26.286-32.572 18.286-36 70.286-90.857 96.572-102.285 20.571-8.572 32-20 48.571-50.858 6.857-12.571 18.286-34.285 26.286-48C1201.143-46.857 1203.429-60 1193.143-60c-7.429 0-44.572 18.286-70.286 34.857-9.143 5.714-22.286 13.143-28.571 16-14.857 6.286-29.143 22.857-33.715 38.286-6.285 21.143-68 78.857-102.285 96-17.715 8.571-32.572 20-32.572 24.571 0 5.143-6.857 20-15.428 33.143-12 18.857-20 25.143-33.143 26.857-13.714 1.143-17.714 4.572-18.857 17.715-2.286 16.571-76 95.428-89.715 95.428-9.142 0-22.857 16.572-22.857 28 0 10.857-79.428 88.572-87.428 85.714-12.572-4.571-86.857-80-86.857-87.428 0-4.572-6.858-13.143-15.429-18.857-8-5.715-32.571-26.857-53.714-46.857-29.715-27.429-39.429-40.572-40.572-54.286-1.714-14.857-4.571-17.714-18.857-19.429-13.143-1.714-20.571-8-32-25.714-8.571-13.143-17.143-29.143-18.857-35.429-2.286-6.285-17.143-17.714-33.714-25.714-30.857-14.857-92.572-73.143-98.857-93.714-4.572-15.429-18.858-32-33.715-38.286-6.285-2.857-18.857-10.286-28.571-16C171.429-41.714 134.286-60 126.857-60c-4 0-6.857 3.429-6.857 7.429M270.286 76c48 49.143 57.714 64 42.857 64C302.286 140 170.286 4 174.286-2.857c5.143-8 35.428 16.571 96 78.857M1132 18.857C1107.429 49.714 1013.714 140 1006.286 140c-3.429 0-6.286-3.429-6.286-7.429 0-10.285 136-142.285 142.857-138.285 3.429 2.285-.571 12-10.857 24.571m-68 850.857c62.286 60.572 86.857 90.857 78.857 96-6.857 4-142.857-128-142.857-138.857 0-14.857 14.857-5.143 64 42.857" style="stroke-width:.571429"/>
</svg>
