<svg xmlns="http://www.w3.org/2000/svg" width="1230" height="960">
    <path d="M709.907 0c-7.34 23.258-15.55 30.95-25.892 44.727-12.372 16.481-25.618 33.198-42.73 44.68-12.986 8.714-28.456 13.525-43.666 17.154-17.085 4.077-35.152 1.96-52.459 4.956-20.678 3.58-41.058 9.015-61.019 15.496-59.07 19.179-119.199 38.087-173.081 68.97-41.079 23.544-108.618 68.17-126.464 92.414l-.09 6.28c12.299-3.224 33.465-5.35 49.347-7.47 19.14-2.555 38.85-.672 57.74-4.677 10.058-2.132 19.77-5.9 29.11-10.197 28.01-12.885 53.626-30.452 80.02-46.385 8.704-5.255 16.108-13.233 25.824-16.223 13.97-4.298 29.282-3.075 43.822-1.581 11.724 1.205 23.061 5 34.335 8.435 22.026 6.71 42.642 17.73 64.874 23.719 10.654 2.869 21.65 7.22 32.59 5.784 6.928-.909 13.772-4.228 18.998-8.868 8.944-7.942 13.909-19.63 18.912-30.495 1.887-4.1 3.888-8.394 4.103-12.902.22-4.598-1.397-9.153-2.913-13.5-1.498-4.293-6.041-12.229-6.041-12.229 13.036 9.733 26.545 18.553 30.78 32.983 1.694 5.775-.623 12.342-3.233 17.764-3.918 8.14-10.18 13.954-17.815 20.429 0 0 14.216-16.401 11.62-30.52-1.743 4.258-7.548 11.588-11.6 17.19-3.589 4.963-6.6 10.542-11.247 14.534-8.18 7.026-17.61 14.13-28.277 15.712-11.077 1.642-21.958-4.445-32.838-7.096-10-2.437-19.82-5.565-29.797-8.092-9.275-2.35-18.512-4.946-27.941-6.57-9.042-1.557-20.207-4.03-27.356-3.025 34.645 33.262 26.794 93.964-5.93 112.143-40.773 22.652-119.223 8.86-122.539-67.553-8.743 2.17-19.81 6.784-29.594 10.505-8.924 3.394-17.208 8.756-26.54 10.777-6.972 1.51-14.262 1.32-21.382.874-6.543-.41-12.851-2.896-19.397-3.251-17.043-.925-34.438-.662-51.12 2.948-8.031 1.738-15.911 4.717-22.994 8.884-8.983 5.285-24.017 20.023-24.017 20.023 1.198-6.676 7.761-22.032 10.6-26.539-2.743 3.223-14.924 17.651-20.451 26.498-5.927 9.486-12.883 20.242-14.818 30.106 4.604 5.228 8.523 5.707 12.736 8.633 5.832 4.05 10.872 9.458 17.357 12.35 10.538 4.7 22.304 8.815 33.777 7.575 8.495-.917 15.653-6.89 23.239-10.824 16.738-8.68 31.822-20.52 49.065-28.148 14.734-6.518 29.898-15.417 45.999-14.842 10.244.367 19.076 7.512 28.516 11.51 18.987 8.04 36.8 19.136 56.543 25.083 27.218 8.198 55.692 12.84 84.084 14.224 28.618 1.396 57.345-9.834 85.742-6.022 27.516 3.694 56.416 10.85 78.604 27.538 12.027 9.045 20.695 22.775 26.162 36.795 4.616 11.84 5.228 25.123 4.772 37.822-.272 7.552-3.728 14.708-4.446 22.231-.752 7.88-1.54 16.02.168 23.75 4.352 19.693 4.669 25.877 25.111 55.05-16.861-5.764-22.761-5.395-34.352-5.396-12.872 0-24.997.447-38.15 5.983.419-3.662-1.708-10.964 20.206-25.71-13.284-5.047-26.128-7.095-39.435-6.493-20.722.937-41.559 6.586-60.237 15.608-5.446 2.63-12.819 5.113-14.485 10.926-1.443 5.032 1.707 11.188 5.619 14.667 6.62 5.887 18.008 2.256 25.759 6.546 5.558 3.077 11.425 7.263 13.789 13.16 1.88 4.695 1.602 10.654-.706 15.154-4.096 7.985-13.408 12.106-21.113 16.707-16.129 9.63-33.186 19.432-51.748 22.319-19.142 2.977-47.979-2.027-57.831-5.722 7.192 8.423 14.516 14.184 22.969 19.68 8.049 5.236 16.57 10.6 26.003 12.392 14.798 2.813 30.421.345 45.081-3.118 14.626-3.455 28.383-10.22 41.616-17.345 7.946-4.279 12.115-18.38 22.452-15.132 9.096 2.858-12.93 19.678-22.522 25.926-18.994 12.372-42.823 15.273-64.983 20.042-22.578 4.859-60.768 22.951-68.746 8.626-2.995 14.63 26.08 24.64 59.554 25.544.236 66.589-21.42 88.2-33.265 92.3 16.71 2.23 27.896-4.43 38.759-12.585 5.656-4.246 9.09-11.07 11.926-17.55 3.54-8.09 3.674-17.289 5.992-25.812 2.682-9.862 3.903-20.492 9.147-29.264 4.845-8.103 10.875-17.2 19.814-20.242 7.167-2.438 13.041.348 12.04.634.906.83-2.813 5.813-4.935 6.858-10.01 4.932-16.737 15.563-21.525 25.643-9.1 19.152-9.858 41.38-11.938 62.481-3.03 30.75-2.056 61.825-.715 92.694.616 14.177 5.188 28.239 4.02 42.382-1.025 12.406-2.729 27.409-8.994 36.646a546 546 0 0 0 23.19 1.497c77.23-92.622 102.167-257.514 102.167-257.514-.772 99.573-37.277 190.569-68.641 257.931a545.7 545.7 0 0 0 138.517-20.507c-7.805-19.541-28.656-46.712-43.693-64.548 32.917 16.634 54.357 32.733 75.295 54.566a545.7 545.7 0 0 0 169.488-96.105c-3.935-10.315-7.228-14.86-10.35-22.973-2.708-7.038-3.72-14.743-7.119-21.474-2.675-5.299-8.529-8.87-10.272-14.544-15.908-51.772-12.313-109.924 3.03-162.457-9.43 78.334-6.666 92.224 10.211 133.56 4.116 10.08 12.874 17.777 21.018 25.004 4.697 4.168 10.693 6.613 15.761 10.32 6.484 4.744 9.903 11.246 17.743 15.636a546 546 0 0 0 36.155-40.744c-44.95-73.783-39.15-164.398-23.677-228.21-4.504 138.99 14.662 170.069 43.49 201.906a545.7 545.7 0 0 0 81.104-172.185c-17.457-.801-33.485-13.921-44.252-27.424-13.938-17.479-16.087-41.942-20.498-63.858-2.488-12.36-.675-25.343-3.275-37.68-1.434-6.81-3.32-13.697-6.74-19.758-4.64-8.223-11.931-14.647-18.222-21.688-17.578-19.673-38.668-41.396-54.504-57.386-15.057-15.205-29.832-32.382-46.007-44.774-5.893-4.513-12.626-7.915-19.439-10.859-9.425-4.073-20.577-3.986-29.369-9.29-6.629-3.999-15.45-5.919-16.525-16.322 5.077.547 7.648 4.534 11.775 6.132 4.3 1.665 8.802 2.952 13.376 3.542 13.922 1.794 28.089-.72 42.112-.105 9.493.417 19.184.21 28.388 2.569 10.072 2.58 19.842 6.854 28.589 12.475 9.546 6.135 20.978 13.192 25.346 22.727-6.943-33.208-29.274-45.791-49.992-62.668-11.874-9.673-26.108-17.104-40.97-20.799-6.934-1.724-14.298.046-21.43-.38-6.468-.386-12.994-.648-19.336-1.972-16.163-3.375-31.818-9.04-47.173-15.112-17.414-6.885-34.841-14.215-50.758-24.08-8.15-5.05-23.11-7.598-22.601-17.784 6.32-3.639 14.509 4.039 21.476 6.858 18.508 7.489 34.907 19.778 53.676 26.583 23.284 8.442 47.764 21.124 72.242 17.361 24.914-3.829 50.907-16.054 64.825-38.933-12.788 3.411-29.059 7.524-43.933 9.04-18.222 1.86-37.242 4.7-54.95.02-12.702-3.358-23.078-12.586-34.257-19.488-10.566-6.524-16.095-10.585-30.435-20.305 11.16 4.67 56.754 15.315 83.108-3.935-45.663-11.884-39.957-13.64-56.893-25.74-9.147-6.537-14.298-17.585-23.109-24.567-6.194-4.91-13.17-8.974-20.523-11.87-6.14-2.418-12.708-3.979-19.29-4.439-8.72-.61-17.602.324-26.124 2.266-5.128 1.169-6.059 3.351-14.758 5.582C730.616 87.704 748.58 49.348 709.907 0M464.533 229.87c-7.814-.019-18.26 1.142-18.659 2.47 14.068 22.573 24.194 35.884 24.555 49.62-20.546-3.656-23.533 5.564-27.375 15.284-1.761 4.456 1.949 9.559 4.367 13.696 1.279 2.188 5.926 3.145 5.179 5.568-1.593 5.167-10.458 4.313-15.817 3.598-3.251-.434-5.408-4.57-8.687-4.62-2.714-.044-4.61 3.283-7.305 3.595-2.139.248-4.44-.358-6.293-1.453-1.798-1.063-3.405-2.728-4.182-4.667-1.182-2.95-1.587-6.62-.305-9.527 1.673-3.797 5.46-6.92 9.452-8.097 1.43 3.536 4.43 6.835 7.895 6.762 4.44-.093 8.885-4.73 9.744-9.087 1.693-8.596-5.632-16.944-10.99-23.877-6.129-7.93-23.26-19.052-23.26-19.052-16.14 6.207-22.674 16.81-34.329 17.986 15.645 144.917 203.754 56.04 103.844-37.35-1.274-.59-4.283-.842-7.834-.85M316.819 339.322c-14.282.116-27.334 9.389-40.323 15.535-13.42 6.35-25.27 15.657-38.482 22.431-11.513 5.905-20.455 14.755-35.446 15.827-1.397 7.366 4.662 5.891 3.959 9.134-.904 4.168-5.74 6.558-9.497 8.577-6.91 3.712-15.721 2.453-22.79 5.852-7.902 3.8-16.647 8.216-21.017 15.817-12.282 21.363-14.664 46.238-8.696 73.413-20.14-43.338-14.071-115.751-2.888-137.77-2.005-1.108-3.582-2.244-5.372-3.793-31.087 60.253-10.342 132.713 17.35 176.977 9.214-57.342 20.442-61.438 41.203-85.185 7.393-8.456 17.62-14.561 28.104-18.593 11.215-4.313 23.659-6.29 35.64-5.382 18.922 1.435 35.868 12.667 54.368 16.89 21.851 4.99 44.093 9.943 66.506 9.896 18.726-.04 37.525-3.367 55.533-8.5 31.266-8.913 58.062-30.821 89.703-38.295 19.062-4.503 39.687-8.436 58.653-3.547 14.077 3.63 29.602 10.74 36.833 23.351 6.403 11.17 7.344 27.199 1.364 38.6-7.65 14.586-26.188 20.873-41.618 26.637-15.946 5.957-33.622 5.409-50.526 7.413-13.658 1.618-27.846.021-41.094 3.719-13.715 3.828-26.128 11.496-38.388 18.74-15.116 8.93-29.131 19.64-43.076 30.309-13.24 10.13-23.549 24.53-38.476 31.951-28.236 14.039-75.822 24.304-92.114 21.55 9.924 26.298 39.574 34.167 64.124 38.119 26.925 4.333 54.546-7.574 79.897-17.63 34.05-13.506 62.606-38.065 94.363-56.324 14.669-8.434 28.449-18.973 44.415-24.578 20.671-7.257 42.875-11.469 64.78-11.104 19.507.325 48.49 10.192 57.326 11.803-5.2-12.76-7.119-24.723-7.722-37.457-.653-13.758 4.831-27.31 4.478-41.08-.251-9.79-1.017-19.921-4.676-29.005-4.454-11.058-11.067-21.941-20.37-29.394-20.111-16.112-46.215-24.786-71.618-29.108-16.514-2.81-33.48 1.33-50.193 2.46-14.026.947-27.967 4.102-42.016 3.623-23.47-.8-46.906-4.836-69.615-10.815-21.583-5.683-42.021-15.1-62.642-23.635-13.03-5.394-24.467-16.933-38.56-17.413a34 34 0 0 0-1.384-.016m245.698 75.383c-13.975-.234-27.932 3.973-41.26 8.263-15.424 4.965-29.015 14.494-43.984 20.698-17.055 7.07-34.139 14.531-52.104 18.787-16.325 3.867-33.199 5.76-49.974 5.983-9.07.12-18.038-2.01-27.093-2.518-7.23-.406-14.516-1.15-21.721-.424-16.051 1.618-31.97 5.34-47.226 10.585-10.234 3.518-20.95 7.053-29.347 13.88-9.56 7.771-17.07 18.324-22.294 29.482-4.308 9.2-2.61 20.475-6.903 29.68-4.333 9.293-10.468 18.19-18.476 24.593-18.713 14.962-27.97 27.65-65.556 29.473 13.285 9.232 30.537 9.79 46.005 8.04 10.731-1.215 20.766-6.745 29.86-12.57 15.373-9.845 26.346-25.323 40.41-36.962 13.885-11.492 27.686-23.392 43.313-32.373 15.523-8.921 32.185-16.216 49.443-20.985 11.28-3.117 23.097-4.076 34.776-4.823 21.046-1.345 42.176 1.093 63.26.643 10.722-.229 21.494-.33 32.132-1.698 7.19-.924 14.12-3.397 21.302-4.38 15.835-2.169 32.066-.71 47.834-3.323 16.398-2.719 33.948-4.22 48.196-12.778 9.216-5.536 20.037-13.06 21.94-23.64 2.05-11.393-4.735-24.273-13.274-32.089-9.396-8.6-23.747-10.665-36.462-11.434a65 65 0 0 0-2.797-.11" style="stroke-width:1.19235"/>
</svg>
