<svg xmlns="http://www.w3.org/2000/svg" width="1290" height="960">
    <path d="M624.324 15.222c-13.065.342-33.147 5.138-50.491 13.353L531.24 46.832l40.168 17.044c69.375 30.428 41.384 77.88-46.247 81.53-41.382 1.218-54.768 7.314-64.504 29.222-21.908 48.684-60.865 47.472-125.372-1.212-58.42-45.033-90.07-54.78-90.07-29.222 0 18.257 52.345 70.602 70.601 70.602 25.56 0 29.2 25.553 7.292 42.593-20.69 15.822-20.681 17.04-2.424 18.256 30.427 0 32.86 25.554 4.867 79.106-17.04 31.645-25.567 71.821-25.567 115.637v66.929l-53.539 6.097c-82.763 9.737-79.126 36.513 3.637 36.513 64.507 0 70.605 2.425 92.513 38.938 34.079 55.987 30.428 75.462-18.257 122.929-23.125 23.125-38.956 45.039-34.088 48.69 17.04 18.257 52.345 6.075 88.858-29.221 37.73-37.73 37.728-37.722 64.504-15.814 41.382 35.296 77.895 53.557 109.54 53.557 38.947 0 73.027 27.989 68.159 55.982-3.651 18.257-17.048 24.345-57.212 26.779-27.994 2.434-51.115 9.742-51.115 17.044 0 8.52 15.816 9.731 42.592 6.08 47.468-7.303 60.868 3.655 60.868 58.424 0 51.119 23.122 57.207 27.99 8.522 4.869-43.815 35.299-63.291 99.806-63.291 55.986 0 53.544-23.128-2.443-26.779-46.25-3.651-52.33-7.303-55.982-36.513-3.651-27.994 1.223-34.083 30.433-40.168 18.257-4.868 41.379-10.955 51.115-13.39 8.52-2.434 24.339 1.22 32.859 8.523 13.388 10.954 19.48 6.091 30.433-24.337 17.04-49.9 62.057-62.087 99.787-28.008 27.994 24.342 57.213 23.139 57.213-3.637 0-8.52-12.174-19.473-26.78-23.124-27.993-7.303-27.996-7.305-3.654-26.779 23.125-17.04 23.129-19.483 3.655-34.088-27.994-20.691-27.99-34.08 3.655-73.027 13.388-17.04 24.34-46.242 23.124-65.716-1.218-18.257-2.43-53.547-1.213-79.106l1.213-45.035h66.946c37.73 0 66.93-4.875 66.93-12.177 0-7.303 14.606-18.25 31.645-24.336 17.04-7.303 26.775-17.052 23.124-24.354-10.954-18.257-51.117-14.594-59.637 6.097-4.868 13.388-25.562 18.257-81.548 18.257-70.592 0-74.24-1.218-87.628-36.514-7.303-20.69-18.256-36.513-23.124-36.513-23.125 0-6.09-36.51 37.725-82.76 26.776-27.994 42.599-53.557 36.513-58.425-21.907-13.388-70.592 7.298-91.283 37.725-25.559 38.948-29.2 37.737-93.707-6.08-30.428-20.69-68.169-36.512-83.991-36.512s-40.151-7.308-53.54-17.044c-32.861-25.56-8.525-62.08 42.593-62.08 55.987 0 46.25-23.126-13.39-31.646-29.21-3.651-60.846-10.95-70.583-14.602-2.434-.912-6.021-1.29-10.376-1.176m-172.19 53.521c-18.256 0-24.354 8.508-24.354 30.416 0 34.08 29.21 41.392 41.38 10.965 12.172-31.645 8.534-41.38-17.026-41.38m354.007 1.248c-10.098.343-13.525 5.139-10.787 13.354 6.086 18.257 45.034 21.912 49.903 3.655 1.217-7.303-10.956-14.615-26.779-15.832-4.868-.913-8.971-1.29-12.337-1.177M636.679 179.96c25.407-.152 52.182 6.226 89.304 19.005 113.19 40.165 200.822 158.233 200.822 271.424 0 144.836-141.196 292.105-279.946 292.105-110.756 0-236.11-97.379-271.406-211.787-25.559-79.112-20.696-114.405 24.336-210.557 31.645-66.94 74.241-105.894 155.787-139.972 31.645-13.389 55.696-20.066 81.103-20.218m2.888 71.35c-51.118 0-82.767 7.297-108.327 24.336-19.473 13.388-51.115 43.813-69.371 69.372-29.21 37.73-34.089 55.988-34.089 122.928 0 90.066 23.125 138.753 91.283 191.088 36.513 26.777 55.988 32.859 122.93 32.859 91.282 0 119.284-14.595 185.007-98.575 34.08-45.033 38.938-62.079 38.938-121.717 0-58.42-6.072-79.11-35.283-119.274C778.32 279.3 724.765 251.31 639.567 251.31m6.08 73.026c35.296 1.218 65.73 8.506 80.336 21.894 45.033 37.73 66.929 80.333 66.929 131.45 0 41.382-7.305 57.213-45.035 93.726-40.165 40.165-51.106 45.036-108.31 45.036-59.638 0-66.938-3.654-101.017-45.036-30.428-36.513-37.743-57.214-37.743-102.247 0-47.467 6.088-62.057 45.035-99.787 37.73-38.948 52.338-45.036 99.805-45.036m-433.308 37.993c-14.05-.798-26.608.792-31.628 5.813-15.823 15.822 6.096 29.22 47.477 29.22 29.21 0 41.372-4.877 38.938-15.831-3.803-9.89-31.372-17.87-54.787-19.202m831.583 182.905c-11.696.35-22.183 3.195-25.834 9.128-8.52 15.822 20.679 29.21 48.672 23.124 10.954-1.217 19.487-9.729 19.487-15.814 0-10.65-22.832-17.02-42.325-16.438M846.469 825.5c-9.996-.574-20.076 4.384-24.336 16.099-4.868 12.171-1.215 25.56 8.522 31.646 24.342 14.605 41.38 6.077 41.38-20.7 0-16.43-12.713-26.307-25.566-27.045" style="stroke-width:9.12829"/>
</svg>
