<svg xmlns="http://www.w3.org/2000/svg" width="1145" height="960">
    <path d="M525.692-30c-8.994 0-29.576 10.55-27.5 13.837.519.864 6.399 1.556 13.317 1.556 10.897 0 12.8.519 17.123 4.67 3.113 2.94 4.843 6.4 4.843 9.513 0 10.204-11.761 25.424-26.463 34.245-8.129 4.843-11.76 2.768-7.09-4.15 2.075-3.46 2.42-5.19 1.037-6.573-2.594-2.594-6.4.865-14.355 12.453-3.287 4.843-6.919 8.648-8.13 8.648s-4.15-4.151-6.572-9.34c-8.129-17.123-19.544-23.35-36.32-19.544-6.4 1.556-10.378 3.978-17.47 11.069-8.301 8.475-11.934 16.085-7.264 16.085.865 0 6.054-2.421 11.242-5.189 7.957-4.497 10.032-5.015 13.318-3.286 16.258 8.475 12.453 24.906-9.858 42.72-24.56 19.545-44.97 43.413-54.655 64.168-9.34 20.236-7.956 31.997 4.67 39.434 4.15 2.248 7.437 4.843 7.437 5.535s-3.459 4.67-7.783 8.82-7.783 8.475-7.783 9.686c0 1.038-1.21 2.94-2.594 4.15-1.73 1.385-2.595 5.363-2.595 11.416 0 7.091-.864 10.205-3.459 12.799-1.902 1.902-4.15 3.459-5.189 3.459-2.767 0-1.902 6.4 1.038 7.61 8.475 3.286 26.636-1.21 43.412-10.377 13.145-7.437 18.334-11.934 32.343-28.538 13.491-15.566 16.431-17.296 22.658-12.799 3.113 2.594 3.113 2.94.519 11.761-5.88 18.852-8.302 28.365-8.302 31.997 0 4.843-5.362 7.437-12.453 6.054l-5.708-1.038 4.151 4.497c2.249 2.421 5.708 4.67 7.783 5.016 3.286.518 3.632 1.556 3.632 11.242 0 5.88.52 11.069 1.211 11.76 2.94 2.941 20.409-9.166 31.132-21.619 6.227-7.091 14.702-15.566 18.853-18.68 6.745-4.842 8.129-7.09 10.723-17.295 12.28-45.142 32.862-69.529 58.805-69.529 18.16 0 35.803 13.664 46.699 36.321 5.189 10.724 5.535 12.28 5.535 31.997 0 19.89-.173 21.274-5.708 32.516-9.167 19.026-30.268 38.05-51.368 46.526-14.356 5.707-47.39 13.49-57.076 13.49-6.746 0-31.824 4.497-44.104 8.13-8.13 2.248-17.469 6.399-38.224 17.295-6.745 3.286-31.305 25.77-40.645 36.84-20.409 24.387-26.29 31.997-30.094 39.434-2.076 3.978-4.497 7.783-5.362 8.302s-1.557 2.422-1.557 4.151-1.037 3.978-2.248 4.67c-1.038.692-3.805 5.016-6.053 9.513-2.249 4.497-4.67 8.648-5.708 9.166-.865.692-1.557 2.94-1.557 5.016 0 2.249-1.21 5.016-2.594 6.227s-2.594 3.978-2.594 6.053-1.211 4.843-2.595 6.054c-1.383 1.21-2.594 4.15-2.594 6.399 0 2.421-1.038 6.4-2.422 8.82-1.383 2.595-3.113 7.611-3.632 11.07-.518 3.632-1.73 6.573-2.594 6.573-2.767 0-1.903-11.589.865-14.529 1.383-1.384 2.594-4.843 2.594-7.437 0-2.767 1.21-6.572 2.595-8.475 1.383-1.73 2.594-5.016 2.594-7.091s1.21-4.843 2.594-6.4c1.384-1.383 2.595-3.805 2.595-5.188 0-3.114 6.572-16.258 8.82-17.642.865-.519 1.557-2.075 1.557-3.632s1.038-4.151 2.421-5.535c1.384-1.556 2.94-4.842 3.633-7.264 1.037-4.324.518-4.67-11.589-8.302-6.918-2.248-15.739-5.016-19.544-6.226-3.805-1.211-11.588-2.768-17.295-3.46-13.318-1.556-37.36-8.993-40.127-12.625-1.21-1.557-2.248-4.67-2.248-7.092-.173-5.188-2.94-9.34-7.61-11.069-3.632-1.383-17.123 4.497-23.176 10.205-4.324 4.15-3.978 4.842 4.324 6.572 6.053 1.384 10.031 5.189 8.302 7.956-1.557 2.594-5.535 2.076-6.746-.865-1.038-2.94-7.264-3.459-8.82-.864-.52.864-2.25 1.729-3.633 1.729-3.286 0-3.286-9.34.173-12.107 1.384-1.21 2.595-3.286 2.595-4.497 0-1.383.691-2.421 1.556-2.421s2.768-1.903 4.151-4.151c2.767-3.978 2.595-4.151-5.707-8.475-4.67-2.421-8.821-3.978-9.34-3.286-.519.519-1.038 20.236-1.038 43.758v42.72l4.843 3.114c2.594 1.73 7.437 3.459 10.723 4.15 7.092 1.038 8.821 5.535 4.151 10.55-2.94 3.287-2.94 3.633 0 6.4 2.249 2.249 6.746 3.114 20.582 3.46 20.063.691 23.35 2.248 19.371 8.474-1.556 2.249-2.248 4.843-1.73 5.535.52.865 6.746 2.075 14.01 2.767 12.8 1.211 12.972 1.384 15.912 7.61 2.768 5.708 3.632 6.227 9.513 5.88 5.88-.345 6.4 0 6.4 4.152 0 2.421-1.038 8.475-2.422 13.318s-3.632 13.49-5.016 19.198c-8.82 36.148-9.858 44.104-5.88 44.104 2.767 0 13.317-10.55 13.317-13.318 0-1.037 1.211-2.767 2.595-3.978 1.383-1.21 2.594-3.459 2.594-5.188 0-1.73 1.21-4.151 2.767-5.362 2.768-2.249 2.768-12.107-.345-26.981-.52-3.114-.52-7.784.345-10.378 1.211-4.15 1.557-3.113 2.595 6.4.692 6.226 2.248 14.528 3.459 18.506 1.903 6.226 1.903 7.783-.519 10.377-1.384 1.73-3.113 5.189-3.805 7.783-.519 2.768-1.902 4.843-2.767 4.843-1.038 0-1.73 1.038-1.73 2.249 0 1.383-1.556 4.15-3.286 6.226-1.903 2.249-3.632 4.497-3.978 5.016-.346.692-3.805 3.805-7.61 6.918-5.362 3.978-8.994 5.535-13.837 5.535-3.805 0-10.723 1.038-15.739 2.421-5.016 1.384-16.604 2.768-25.943 2.94l-16.95.692-3.978-7.264c-5.016-9.167-10.897-11.242-16.604-5.88-5.88 5.534-7.956 1.902-7.956-14.875 0-16.085-1.384-17.295-11.934-11.415-5.016 2.94-5.362 3.805-5.362 13.145 0 12.107-2.075 13.49-12.972 8.129-6.053-2.94-8.82-3.46-12.453-2.249-3.113 1.038-6.572 1.038-9.685-.173-6.054-2.248-12.453.865-17.988 9.167-6.918 10.205-4.497 17.469 3.632 11.415 4.67-3.632 9.167-3.286 11.416.865 1.037 1.903 3.459 3.46 5.361 3.46 6.227 0 10.205 3.285 10.205 8.474 0 6.054-3.286 7.61-8.994 4.67-3.805-2.076-5.189-1.73-13.145 3.113-10.377 6.4-13.663 12.107-10.55 18.853 2.421 5.534 5.016 6.053 6.226 1.21 1.038-4.15 4.324-4.324 10.032-.692 2.767 1.903 5.88 2.422 9.512 1.557 5.362-1.21 10.378 1.21 10.378 5.016 0 1.038-3.978 6.053-8.648 11.069-9.513 10.205-10.377 13.49-5.362 19.544 3.287 3.978 3.46 3.978 4.67.692 1.73-4.497 3.978-6.053 9.513-6.053 2.421 0 5.88-1.211 7.783-2.595 4.15-3.113 8.648-3.286 9.686-.519.345 1.21.864 17.469 1.037 35.975.173 18.507 1.21 51.888 2.422 74.026 1.902 38.57 1.902 40.645-1.211 46.698-5.016 9.686-14.01 20.064-21.62 25.425-3.805 2.595-6.918 5.708-6.918 6.918s2.248 5.19 4.843 8.821c9.34 13.145 17.641 32.516 28.192 66.416 4.843 15.22 8.648 24.214 10.377 24.214.865 0 1.903-2.076 2.422-4.67 1.037-4.843 10.55-34.764 15.566-48.774 4.15-11.242 12.107-27.846 16.95-34.937 7.264-10.724 7.264-12.626-.346-17.815-3.632-2.594-10.378-9.34-14.702-15.047-4.497-5.708-8.82-9.859-9.685-9.34-1.038.519-1.73 7.783-1.73 16.085 0 13.837-1.902 35.11-4.497 50.33-1.383 8.822-4.67 3.979-4.497-7.09 0-5.016 1.038-16.258 2.249-24.733 1.556-10.897 2.248-41.337 2.421-102.737v-87.343l12.453-.173c15.393-.346 17.642.692 14.529 6.572-2.94 5.535-1.211 8.129 5.015 8.129 5.88 0 22.485-4.15 27.5-6.745 5.016-2.768 12.28-2.422 12.28.519 0 1.383-.691 3.113-1.73 3.632-.864.519-1.729 1.73-1.729 2.767 0 2.076 27.155 2.076 28.365 0 .52-.865 3.114-2.075 5.708-2.767 2.594-.52 7.956-3.286 11.934-5.88 6.4-4.325 7.437-4.67 11.242-2.595 2.249 1.21 5.016 2.248 6.227 2.421 1.21 0 9.34-6.918 18.16-15.22 16.95-16.085 36.148-31.478 39.261-31.478 1.038 0 1.903-.692 1.903-1.557 0-1.73 1.384-2.594 18.16-11.415 4.843-2.421 11.07-6.053 13.837-7.783 10.031-6.227 18.16-10.377 18.16-8.994 0 1.557-6.918 7.956-10.377 9.513-1.384.692-4.843 2.767-7.783 4.67-2.767 1.902-6.4 3.805-7.783 4.497-1.384.518-3.805 1.73-5.189 2.594-1.383.865-3.805 2.075-5.189 2.767s-2.94 1.557-3.459 2.076c-1.556 1.902-11.934 8.82-12.971 8.82-2.249 0-22.139 16.258-32.516 26.636-15.394 15.393-23.869 20.755-30.96 19.371-3.978-.692-7.61 0-12.28 2.422-3.459 1.902-8.129 3.459-10.377 3.459s-4.67.691-5.708 1.73c-.865.864-4.67 2.248-8.475 3.112-6.918 1.384-6.918 1.384-8.129 10.724-2.94 25.77.173 84.23 5.362 97.375 1.038 2.767 1.903 7.09 1.903 10.031 0 2.768 2.42 10.032 5.188 15.912 2.94 6.054 5.189 11.934 5.189 12.972 0 2.767 12.972 31.132 19.717 42.72 5.189 9.167 18.16 27.155 27.5 38.051 12.8 15.047 22.83 24.56 38.397 36.321 12.626 9.686 44.45 26.808 49.811 26.808 1.73 0 4.67.865 6.573 1.903 11.415 6.053 60.189 8.648 81.982 4.324 17.295-3.46 46.698-14.356 52.924-19.544 1.384-1.211 3.114-2.249 3.633-2.249 2.594 0 20.236-12.799 27.5-19.89 8.475-8.302 15.22-19.717 21.1-36.32 3.114-8.476 3.806-14.183 3.806-31.133 0-25.425-3.114-34.937-18.853-61.4-10.204-16.95-18.16-35.283-19.717-45.834-3.632-22.484 7.783-46.871 27.5-58.978 9.167-5.535 10.724-5.88 25.252-5.88 13.837 0 16.777.518 25.77 5.188 21.793 10.897 31.479 23.522 32.863 42.894 1.21 14.874-2.249 22.484-11.935 26.116-8.129 2.94-15.739.865-25.77-7.264-7.783-6.227-10.205-5.189-4.843 2.248 6.745 9.513 16.777 14.529 28.884 14.702 9.34 0 11.415-.692 17.123-5.362 17.295-13.836 19.198-42.029 4.497-63.302-10.205-14.702-25.08-27.846-37.532-32.862-11.588-4.843-43.412-7.61-56.384-4.843-24.214 4.843-41.856 17.642-51.541 37.359-2.076 4.67-4.67 9.858-5.535 11.588-8.648 16.43-10.896 44.104-5.189 63.475 4.843 16.777 8.821 24.56 20.063 39.78 22.485 30.614 14.529 66.416-18.333 81.81-26.809 12.625-40.472 12.97-70.394 2.075-16.777-6.054-29.748-14.875-45.833-31.306-7.438-7.437-18.507-21.965-18.507-24.04 0-.52-2.248-5.708-5.189-11.589-7.956-16.95-10.377-29.23-10.377-51.541 0-42.893 16.604-90.803 47.39-136.982 15.048-22.312 60.016-63.994 78.869-72.815 1.383-.692 5.016-2.767 7.783-4.67 6.745-4.324 25.252-13.318 33.38-16.258 35.803-12.799 55-16.95 90.63-19.544 21.1-1.384 52.233 3.113 86.133 12.799 58.286 16.43 119.167 56.384 160.85 105.677 3.286 3.978 6.572 7.264 7.437 7.264 1.73 0 1.557-6.573-.346-7.61-4.324-2.768-13.145-37.36-13.145-51.369.173-17.987 7.438-27.673 27.328-35.975 13.836-5.707 41.682-7.264 54.308-2.94 4.497 1.557 9.513 2.767 11.242 2.767 3.978 0 4.151-3.286.173-4.67-7.956-2.767-39.088-31.305-49.638-45.487-10.205-13.837-13.145-19.544-13.145-26.809 0-21.792 37.186-42.201 76.62-42.374 14.701 0 20.236-2.421 10.377-4.324-2.767-.519-7.09-2.075-9.685-3.46-2.768-1.383-5.708-2.593-6.573-2.593-.864 0-6.745-2.422-13.144-5.362-49.293-22.485-58.287-33.208-41.51-48.947 7.091-6.572 9.858-8.302 25.425-15.22 5.534-2.422 18.333-6.227 31.997-9.34l5.188-1.21-4.324-1.211c-2.421-.865-8.474-1.384-13.663-1.557-23.695-.519-84.576-13.664-96.683-20.928-8.648-5.188-10.378-10.55-5.535-17.295 3.805-5.362 26.29-20.755 38.05-26.117 3.287-1.384 8.822-3.978 12.108-5.362 3.286-1.556 8.129-3.286 10.896-3.805 7.437-1.73 5.362-4.497-3.46-4.497-10.895 0-58.805 8.302-75.927 13.145-4.843 1.384-10.378 2.422-12.28 2.422-1.903 0-6.746 1.037-11.07 2.42-4.15 1.212-12.625 3.806-18.852 5.363-6.226 1.73-17.123 5.015-24.214 7.437-7.091 2.248-15.22 4.843-18.16 5.534-2.768.865-11.761 3.978-19.89 6.919-8.13 3.113-17.815 6.745-21.447 8.129-15.22 5.534-68.318 31.305-77.83 37.704-3.46 2.422-6.746 4.324-7.092 4.324s-4.67 2.768-9.686 6.054c-5.188 3.286-10.377 6.053-11.588 6.053-1.383 0-5.707-2.767-9.685-6.053-4.151-3.286-8.302-6.054-9.513-6.054-1.038 0-3.805-1.038-5.88-2.421-2.076-1.384-6.746-2.94-10.378-3.46-3.632-.691-6.053-1.902-5.535-2.94 1.903-2.94 13.664-1.383 21.62 2.768 4.324 2.248 9.513 5.015 11.761 5.88 2.076 1.038 3.805 2.595 3.805 3.632 0 6.746 19.89-7.264 35.63-25.424 21.1-24.041 33.726-46.526 44.795-79.56 4.151-12.626 4.324-45.315.346-62.784-4.497-19.025-8.129-31.132-11.588-38.05-14.182-27.5-24.387-41.337-44.277-61.227-5.708-5.535-9.34-10.378-8.475-10.724 1.038-.346 4.324-2.248 7.61-4.324 7.783-4.67 5.362-6.745-9.685-8.648-13.664-1.556-21.274-3.459-30.268-7.437-8.302-3.632-8.994-8.994-1.384-11.76 6.4-2.25 10.032-7.784 6.054-9.34-1.384-.692-5.535-.52-9.167.172-15.566 2.768-31.651 2.94-37.531.173-7.265-3.459-6.573-7.783 2.767-14.182 7.437-5.189 8.129-6.745 3.978-8.994-3.286-1.902-13.837.692-18.16 4.324-1.557 1.384-5.016 2.594-7.784 2.767-4.843.346-5.015.173-5.534-8.993-.346-5.708.519-11.589 1.902-14.702 4.67-9.858 6.227-20.409 4.497-29.057-2.248-9.858-13.145-23.003-23.176-27.5-3.805-1.73-9.167-3.113-12.107-3.113M186.665-2.321c-2.52.02-5.098 1.237-7.58 3.626-3.977 3.46-3.977 4.324-2.594 18.507 1.73 18.333 1.73 62.437.692 272.58l-.865 164.31 3.632.518c2.076.346 6.573-1.21 10.032-3.113l6.226-3.805v-223.46c0-214.467-.173-223.807-3.113-226.402-2.027-1.864-4.206-2.78-6.43-2.761m292.807 107.206c3.291-.02 5.575.422 5.575 1.405 0 .865-3.286 2.076-7.264 2.768-6.919 1.037-10.724 2.42-25.252 9.34-7.437 3.631-11.415 9.685-12.453 19.025-.519 4.323-1.73 7.956-2.767 8.301-2.94 1.038-6.4-8.993-5.016-15.047 2.421-10.723 8.648-15.566 30.267-23.003 5.135-1.746 12.099-2.76 16.91-2.79m-5.789 15.736c1.386-.01 2.457 2.878 1.678 6.251-1.556 7.091-9.685 23.003-12.28 24.041-1.21.519-3.632.346-5.188-.173-2.422-1.038-2.076-1.902 2.594-5.88 3.113-2.768 6.572-8.302 8.129-13.145 1.557-4.67 3.113-9.167 3.632-10.032.476-.735.973-1.059 1.435-1.062m-21.544 9.398c4.403.013 8.694 3.66 8.694 8.614 0 4.843-2.076 5.362-5.362 1.384-1.21-1.557-4.324-3.46-6.745-4.497-4.151-1.557-4.151-1.73-1.21-3.978a7.64 7.64 0 0 1 4.623-1.523m15.215 32.015c7.764.032 15.25 2.91 20.979 8.423 4.67 4.497 9.34 16.777 8.129 21.447-1.21 4.843-4.497 6.227-4.497 1.73 0-6.919-7.264-19.026-13.145-22.312-6.572-3.459-17.122-4.15-20.236-1.038-1.037 1.038-3.286 1.903-4.842 1.903-3.287 0-19.372 15.22-33.9 31.997-4.843 5.708-9.513 9.859-10.204 8.994-.692-.692 1.21-3.632 4.15-6.4 3.114-2.767 5.535-5.534 5.535-6.053 0-2.076 16.258-22.485 21.966-27.5 3.113-2.768 8.475-6.4 12.107-8.13 4.54-2.075 9.299-3.08 13.958-3.06m3.685 66.207c3.361-.045 4.56.881 5.014 2.924.692 3.632-5.362 5.189-13.145 3.632-7.61-1.556-7.264-4.496.865-5.707 3.151-.535 5.505-.825 7.266-.849M167.065 339.436c-1.124.043-2.68.779-5.448 2.249-6.226 3.286-13.145 12.626-11.415 15.393.692.865 3.113.865 6.226-.346 4.324-1.73 5.535-1.383 9.167 1.903l4.151 3.978 1.21-5.535c.52-2.94 1.038-7.091 1.038-9.167s-1.037-5.188-2.075-6.572c-1.038-1.297-1.73-1.946-2.854-1.903m-4.994 35.457c-1.319-.043-2.789.778-5.643 2.421-2.421 1.21-5.88 2.422-7.956 2.422-5.015 0-9.34 5.361-9.34 11.588 0 7.09 1.903 8.302 5.535 3.632l3.113-3.978 4.324 4.843c5.88 6.745 14.702 9.166 17.815 5.188 3.632-4.843 1.73-19.544-3.113-23.349-2.249-1.816-3.416-2.724-4.735-2.767m665.368 25.725c5.057 0 8.71.445 8.71 1.429 0 1.73-10.03 3.632-19.543 3.632-3.632 0-8.302.865-10.378 1.903-1.902 1.21-8.648 2.594-14.874 3.459-12.453 1.383-27.846 4.15-39.953 7.09-4.324 1.039-12.107 2.422-17.296 3.114s-11.76 2.249-14.355 3.286c-2.768 1.038-8.13 1.903-12.107 1.903-3.978.173-9.167 1.21-11.588 2.594-4.843 2.768-19.026 3.46-19.026 1.038 0-2.075 4.497-3.632 11.07-3.632 3.113 0 6.399-.865 7.437-1.903 1.037-1.037 6.053-2.421 11.069-3.286 5.189-.692 11.761-2.075 14.528-3.113 6.573-2.248 22.83-5.535 36.321-7.264 5.708-.692 12.626-2.249 15.22-3.286 2.768-1.038 8.476-1.903 12.972-1.903 4.497-.173 12.453-1.21 17.642-2.594 6.367-1.54 16.758-2.472 24.15-2.467m-659.735 12.37c-1.642 0-4.055 1.347-7.817 3.933-3.286 2.422-6.918 4.324-8.301 4.324-2.768 0-7.265 10.032-6.054 13.318.692 1.557 2.248 1.902 4.67 1.21 1.902-.691 7.091-1.383 11.415-1.383 6.745-.173 7.956-.692 9.34-4.67.864-2.421 1.037-7.264.346-10.723-.757-4.067-1.617-6.014-3.6-6.01m221.633 18.808c1.362 0 2.486.518 3.178 1.556 1.21 1.903-7.264 4.497-9.167 2.768-.519-.692 0-1.903 1.384-2.768 1.643-1.038 3.243-1.556 4.605-1.556m278.363 2.03c2.425.01 3.33.315 2.065.737-1.73.346-4.843.346-6.918 0-2.249-.346-.865-.692 2.94-.692a40 40 0 0 1 1.913-.045m-298.064 8.215c.774 0 1.26.43 1.26 1.343 0 .865-1.903 2.421-4.325 3.459-2.421 1.038-4.324 2.767-4.324 3.805 0 .865-.692 1.73-1.556 1.73-4.151 0-34.765 29.748-34.765 33.9 0 1.383-1.21 2.94-2.594 3.458-1.557.692-2.594 3.46-2.594 7.437 0 7.783-1.73 14.01-3.633 14.01-2.767 0-1.73-16.777 1.038-19.717 1.384-1.384 2.595-3.632 2.595-4.843 0-2.94 3.805-7.956 14.7-19.371 7.438-7.783 23.35-20.063 26.117-20.063.52 0 2.076-1.21 3.46-2.595 1.745-1.643 3.491-2.554 4.621-2.553m414.718 9.671c28.405-.043 56.044.85 62.346 2.395 5.016 1.21 3.978 1.384-6.226 1.73-82.328 1.73-126.95 3.632-138.366 5.361-10.031 1.557-17.123 1.73-25.079.52l-11.242-1.73 15.566-1.211c8.648-.692 19.544-2.076 24.214-3.286 4.843-1.038 23.522-2.422 41.51-3.113 11.296-.433 24.366-.646 37.277-.666M191.771 466.79c-1.756.019-4.083.634-6.807 1.844-7.091 3.114-10.723 7.438-8.129 10.032 2.422 2.421 18.507-5.362 18.507-8.994 0-1.946-1.314-2.906-3.571-2.882m.768 20.333c-1.914.03-4.786 1.256-9.304 3.823-6.919 3.978-9.513 8.82-6.4 11.934 1.038 1.038 4.497.173 9.686-2.248 7.61-3.805 11.07-8.302 8.82-11.934-.632-1.054-1.492-1.595-2.802-1.575m489.928 6.84c7.54-.036 18.115.874 24.482 2.518 5.535 1.383 13.664 2.594 18.16 2.594s11.934 1.21 16.604 2.594 11.415 2.595 14.875 2.595c3.632 0 9.858 1.21 13.836 2.594s10.032 2.594 13.318 2.594 7.61.865 9.685 2.076c2.076 1.21 7.784 2.594 12.453 3.286 4.843.519 11.07 1.903 13.837 3.113 2.94 1.038 8.129 2.249 11.761 2.768 3.46.518 6.4 1.73 6.4 2.594 0 2.594-15.913 1.902-20.755-.865-2.422-1.383-7.61-2.421-11.416-2.594-3.978 0-10.55-1.21-14.528-2.595s-9.859-2.594-12.799-2.594-9.167-1.21-13.836-2.594-11.588-2.595-15.22-2.595-9.513-1.21-12.972-2.594c-3.287-1.384-9.859-2.594-14.356-2.594s-11.588-1.211-15.566-2.595c-3.978-1.383-10.723-2.594-14.701-2.594-9.513 0-18.16-1.73-18.16-3.632 0-.984 3.739-1.454 8.898-1.48m-489.61 16.202c-1.391-.038-3.363.714-6.163 2.228-11.934 6.226-15.047 12.626-6.227 12.626 2.94 0 5.708-.865 6.227-1.903.692-.865 3.113-2.421 5.534-3.46 2.94-1.037 3.978-2.594 3.633-5.36-.39-2.725-1.217-4.081-3.005-4.13m653.668 16.929c3.287 0 4.67.346 3.114.865-1.73.346-4.497.346-6.054 0-1.73-.52-.346-.865 2.94-.865m-653.578 5.696c-1.534.01-3.794 1.006-7.118 2.952-8.302 4.67-11.07 7.61-9.513 10.031 3.114 5.016 20.41-3.113 19.545-9.166-.368-2.573-1.175-3.828-2.914-3.817" style="stroke-width:.172957"/>
</svg>
