<svg xmlns="http://www.w3.org/2000/svg" width="1200" height="960">
    <path d="M599.997 0C335.325 0 120 215.324 120 479.997S335.325 960 599.997 960C864.671 960 1080 744.67 1080 479.997S864.671 0 599.997 0m0 27.961c249.255 0 452.042 202.78 452.042 452.036 0 249.257-202.787 452.042-452.042 452.042S147.961 729.254 147.961 479.997c0-249.255 202.78-452.036 452.036-452.036m7.791 55.668c-8.747.027-17.502.185-26.244.14-31.134-.16-61.389 5.79-91.093 14.302a382.5 382.5 0 0 0-139.928 73.301 393.2 393.2 0 0 0-84.387 94.164 44 44 0 0 0-3.101 8.234c20.31 2.47 40.626 4.895 60.929 7.421 13.736 1.709 27.45 3.596 41.183 5.328 14.25 1.796 28.512 3.505 42.767 5.249 1.533.187 3.061.436 4.6.528 21.08 1.26 42.246 1.69 63.222 3.92 35.013 3.72 70.225.94 105.11 3.762 20.252 1.638 39.967-1.68 59.983-.947 20.121.736 40.338.354 60.455-.686 27.728-1.432 55.469-3.311 83.083-6.159 30.604-3.155 61.058-7.722 91.603-11.474 20.317-2.496 40.678-4.646 61.02-6.948a24.3 24.3 0 0 0-2.222-6.948c-10.788-15.093-20.766-30.934-32.943-44.836-47.452-54.177-104.365-94.805-173.156-117.877a374.6 374.6 0 0 0-94.685-19.825c-8.708-.57-17.448-.675-26.196-.649M936.99 273.764l.025.152.06.054.128-.23zm.085.206a165683 165683 0 0 0-98.338 175.123c-20.936 37.337-41.712 74.76-62.664 112.088a54113 54113 0 0 0-80.407 142.925c-21.184 37.79-42.158 75.698-63.283 113.52-10.288 18.42-20.706 36.764-32.021 56.84-5.003-8.092-9.437-14.695-13.307-21.615-21.146-37.81-42.04-75.762-63.235-113.544-26.241-46.778-52.728-93.418-79.035-140.159-15.938-28.316-31.71-56.727-47.604-85.067a71418 71418 0 0 1-83.29-148.405c-17.08-30.52-33.981-61.132-50.964-91.706a31.7 31.7 0 0 0-6.16 6.153c-4.764 8.56-8.992 17.417-13.531 26.105a350.5 350.5 0 0 0-38.793 132.367c-3.913 44.594-2.461 89.357 8.35 133.478 14.984 61.151 41.82 116.312 82.622 164.042a403.5 403.5 0 0 0 110.407 91.457 401.3 401.3 0 0 0 259.577 45.546 397.14 397.14 0 0 0 247.841-147.87 378.3 378.3 0 0 0 61.566-111.858 370.7 370.7 0 0 0 22.106-122.355c0-25.747.212-51.515-4.314-76.894a407.6 407.6 0 0 0-48.69-132.598 48 48 0 0 0-6.833-7.573m-674.148 0 .066-.054.043-.146-.237-.03zm587.006 35.565-112.386 10.728a108.8 108.8 0 0 1 3.726 64.855c27.508-15.754 101.084-66.89 108.66-75.583m-501.982.194c34.9 26.198 69.968 51.354 108.478 76.505-6.644-23.764-4.064-44.288 2.403-65.431zm367.576 11.863c-7.419.55-14.04 1.349-20.674 1.474-21.723.41-43.457.392-65.176.904-13.367.315-26.727 2-40.074 1.82-23.192-.309-46.366-1.738-69.557-2.396-12.294-.349-24.608-.06-38.362-.06a12.1 12.1 0 0 0-2.7 3.38c-11.104 24.161-9.003 47.76 2.943 71.055 5.461 10.65 14.857 16.627 24.393 22.944 21.014 13.917 41.636 28.427 62.707 42.894 20.792-15.637 41.365-15.48 61.845-.127 25.118-16.994 49.875-33.713 74.57-50.516a20.4 20.4 0 0 0 4.302-4.412c15.261-19.517 19.5-41.925 15.449-65.722-1.3-7.633-2.687-16.491-9.666-21.238m-388.886 5.582.904 3.168a55.5 55.5 0 0 0 2.773 7.1 16468 16468 0 0 0 38.38 68.926c4.437 7.924 9.065 15.744 14.266 24.751 16.003-14.67 32.936-24.389 54.557-28.089-3.834-3.36-5.945-5.61-8.428-7.318-16.997-11.69-33.963-23.434-51.153-34.836-16.264-10.787-32.79-21.182-49.2-31.748zm547.758 1.032-3.161.91a16.1 16.1 0 0 0-4.363 1.384 20679 20679 0 0 0-97.21 66.19 50 50 0 0 0-6.62 7.093c21.828 2.413 37.871 13.394 53.423 26.68a51 51 0 0 0 5.291-6.4c8.883-15.71 17.775-31.41 26.36-47.283 8.313-15.372 16.266-30.943 24.375-46.426zM751.6 422.52c-9.303-.158-18.447 1.423-26.578 6.9-27.347 18.418-54.427 37.232-81.42 55.752 3.017 24.614-3.245 36.026-30.31 54.824 0 15.84.386 32.359-.14 48.848a48.44 48.44 0 0 0 7.58 27.919c16.604 26.472 40.094 40.693 73.622 39.684 38.314-68.654 76.89-136.079 113.587-203.715-13.014-17.482-28.524-27.409-47.015-29.557-3.104-.36-6.225-.602-9.326-.655m-305.967.188c-20.458.608-40.546 11.45-53.49 30.382 37.48 67.74 75.426 135.994 113.582 203.042 42.482.744 76.399-25.76 82.3-64.29 2.013-13.149.684-26.822.68-40.256-.002-4.018-.692-8.036-.99-11.238-27.895-18.797-34.5-30.549-30.807-54.982-27.11-18.55-53.433-36.649-79.88-54.557a44 44 0 0 0-11.061-5.219 60.2 60.2 0 0 0-20.334-2.882m168.885 217.04-3.137 1.711c-.038 48.976-.008 97.95.078 146.925.002 1.228 1.107 2.453 2.385 5.097 9.745-13.276 16.129-27.084 23.477-40.316 7.245-13.045 15.294-25.668 21.99-38.98 6.783-13.483 16.681-25.544 21.178-41.585a110.02 110.02 0 0 1-65.971-32.852m-28.07.862c-10.057 6.997-19.408 15.076-30.104 20.51-11.156 5.667-23.61 8.781-36.445 13.35a106 106 0 0 0 4.648 11.019 21100 21100 0 0 0 58.884 105.006c.525.929 2.484 1.044 3.872 1.578 2.65-18.471 1.996-140.56-.856-151.463" style="stroke-width:3.10682"/>
</svg>
