<svg xmlns="http://www.w3.org/2000/svg" width="1210" height="960">
    <path d="M636.095 830.978c-.902 2.706-1.653 7.815-1.653 11.422 0 3.758-1.052 10.821-2.255 15.931-4.057 17.133-6.763 32.613-6.763 38.474 0 3.156-1.052 8.266-2.254 11.422-1.653 3.757-2.405 11.121-2.555 23.595l-.15 18.185 5.41 4.96c6.312 5.861 9.92 6.312 25.85 2.855 5.861-1.202 14.578-2.254 19.688-2.254 4.96 0 12.474-1.052 16.532-2.254s10.22-2.255 13.676-2.255c13.376 0 27.503-7.514 27.503-14.427 0-3.908-3.006-5.41-9.018-4.058-5.26.902-5.71-.752-1.953-6.463 2.254-3.607 2.254-4.057-.3-8.566-1.654-2.705-12.325-14.278-23.897-25.85-18.335-18.335-32.462-36.07-32.462-40.878 0-.752-1.203-2.405-2.555-3.758-1.503-1.352-5.711-6.612-9.468-11.572-7.665-10.22-10.971-11.422-13.376-4.509m-58.012-4.96c-2.404 1.804-14.427 18.036-23.595 32.012-4.659 7.064-11.572 16.382-15.33 20.89-3.757 4.51-6.913 8.567-6.913 9.168 0 .752-3.006 3.307-6.613 5.711-10.37 7.214-33.664 31.26-36.37 37.422-1.953 4.96-1.953 6.162-.15 10.22 2.555 5.26 8.567 7.514 23.746 9.168 5.26.45 12.173 1.803 15.48 3.005 6.161 2.104 13.225 2.555 14.878.902.601-.45 0-2.104-1.202-3.457-1.804-1.953-1.954-3.456-.902-6.462 3.307-8.717 7.665-6.162 7.665 4.509 0 5.56.45 6.462 3.156 6.462 1.803 0 10.07 1.052 18.636 2.555 14.728 2.405 15.48 2.254 19.087-.3 6.612-5.11 8.716-13.226 8.716-32.914 0-10.97-.901-20.89-2.104-25.549-2.705-9.318-6.913-33.214-6.913-38.624 0-2.255-1.052-6.463-2.254-9.318-1.203-3.006-2.255-8.416-2.405-11.873-.3-11.272-2.705-16.382-6.613-13.526m-30.058-44.936c-3.306 1.654-7.063 3.307-8.265 3.758-1.203.45-3.307 1.503-4.509 2.104-1.202.751-4.96 2.555-8.266 4.208-5.41 2.555-6.012 3.456-5.56 7.815.6 5.71-3.006 6.763-6.012 1.803-2.255-3.607-8.717-3.907-14.428-.901-2.254 1.202-8.717 3.607-14.578 5.41-5.711 1.803-11.121 3.757-12.023 4.358-.752.752-3.156 1.654-5.26 2.104s-7.515 2.255-12.023 4.058c-4.509 1.804-9.92 3.607-12.024 4.058s-4.659 1.653-5.86 2.555c-2.105 1.653-10.822 5.11-16.232 6.462-1.804.451-4.208 1.654-5.11 2.856s-2.705 2.104-3.907 2.104c-1.353 0-7.815 3.306-14.578 7.514-12.024 7.365-42.683 35.318-48.243 44.035-2.405 3.757-2.405 4.358-.15 6.913 1.352 1.503 7.664 5.26 14.127 8.417 6.312 3.156 15.33 7.664 19.988 9.919 4.66 2.404 9.468 4.358 10.821 4.358 1.202 0 3.006 1.052 4.058 2.254s3.156 2.255 4.809 2.255 4.81.901 6.913 2.104c7.815 3.907 15.48 6.913 18.035 6.913 1.503 0 4.058 1.052 5.711 2.254 4.058 3.006 23.595 3.156 26.15 0 1.052-1.202 2.705-2.254 3.607-2.254 1.052 0 4.058-2.405 6.913-5.26 4.81-4.96 4.96-5.41 2.555-7.965-1.352-1.503-2.555-4.058-2.555-5.41 0-2.105.752-2.556 3.758-1.804 6.462 1.653 21.942-9.92 43.433-32.312 18.937-19.989 29.307-34.567 29.457-41.63 0-1.954.902-5.26 2.104-7.515 2.855-5.56 4.659-21.341 2.405-21.341-.902 0-3.607 1.052-6.162 2.254-5.26 2.706-7.364 1.954-7.364-2.855 0-1.954-1.052-4.359-2.255-5.41s-2.254-3.157-2.254-4.66c0-4.208 5.41-3.606 8.416.902 1.954 2.856 3.006 3.457 5.11 2.255 1.503-.902 3.006-3.006 3.306-4.81.3-1.953 1.653-3.607 3.457-3.907 4.96-.902 5.711-2.705 3.006-6.914-3.156-4.658-2.856-4.658-10.52-1.052m-44.335 31.862c0 1.503-1.052 2.855-2.254 2.855-2.254 0-3.156-4.659-1.353-6.462 1.653-1.503 3.607.45 3.607 3.607m0 23.144c0 1.203-1.052 2.255-2.254 2.255s-2.254-1.052-2.254-2.255 1.052-2.254 2.254-2.254 2.254 1.052 2.254 2.254m-44.335 12.775c.751 1.202 1.653 1.052 3.156-.15 2.405-1.954 4.96-.451 9.769 6.312 2.404 3.456 2.555 4.809 1.202 7.965-1.052 2.104-2.705 3.908-3.757 3.908-4.058 0-6.613-1.954-6.613-4.96 0-1.653-2.104-4.81-4.81-7.064-2.855-2.404-4.207-4.659-3.606-5.71 1.353-2.255 3.457-2.255 4.659-.301m3.006 67.78c1.503 2.255-.15 3.457-3.006 2.255-1.353-.451-1.954-1.503-1.503-2.405 1.202-1.954 3.306-1.954 4.509.15m194.624-134.96c0 3.608.752 7.214 1.653 8.116.902.902 2.555 5.861 3.757 11.122 2.105 9.468 3.157 13.375 6.763 26.901 2.105 8.116 10.671 25.4 15.18 31.26 1.803 2.255 17.884 18.636 35.768 36.37 36.07 35.77 41.78 39.977 53.353 38.324 3.607-.6 7.515-1.954 8.416-3.156s3.006-2.104 4.66-2.104 5.11-.902 7.664-2.104c2.705-1.052 7.815-3.156 11.572-4.659 9.168-3.457 13.827-5.56 27.052-12.023 12.023-5.861 13.827-6.913 23.295-12.775 3.306-2.104 7.214-4.358 8.717-4.96 1.352-.45 3.006-1.953 3.457-3.155 1.352-3.457-12.775-21.04-24.047-29.758-16.381-12.924-27.052-20.439-28.855-20.59-.902-.15-2.555-1.201-3.607-2.404s-2.856-2.254-4.208-2.254c-1.203 0-3.457-.902-4.66-1.954-1.352-1.052-5.41-3.156-9.167-4.659s-8.566-3.607-10.82-4.809c-2.105-1.202-4.96-2.104-6.313-2.104-1.202 0-4.508-.902-7.214-2.104s-7.364-3.156-10.52-4.509c-3.006-1.352-6.613-2.404-7.965-2.404s-4.359-.902-6.463-2.104c-2.254-1.203-8.115-3.307-13.075-4.81s-10.37-3.607-12.023-4.659-4.659-1.953-6.763-1.953-5.11-.902-6.763-1.954-5.71-2.856-9.017-3.908c-7.214-2.404-16.532-6.462-28.104-12.323-4.81-2.405-9.318-4.359-10.22-4.359-.751 0-1.503 2.856-1.503 6.463m63.121 32.012c0 1.202-1.052 2.104-2.254 2.104-2.254 0-3.156-3.156-1.352-4.96 1.502-1.352 3.606.301 3.606 2.856m40.579 15.93c0 1.353-.602 2.856-1.353 3.307-1.653 1.052-7.965-9.318-6.763-11.271s8.116 4.809 8.116 7.965m-158.105-78.9c-1.502 1.502-5.56 5.109-9.318 7.964-7.213 5.711-17.433 21.191-17.433 26.602 0 1.803-.902 5.56-2.104 8.265-2.555 6.012-6.162 21.943-5.11 22.995.3.45 4.96-3.607 10.22-9.018 5.11-5.41 10.22-9.618 11.121-9.318 3.457 1.052 7.214 11.723 7.815 23.145.451 6.462 1.653 16.08 2.856 21.491s3.306 16.833 4.659 25.55c1.352 8.716 2.705 16.681 3.005 17.734 1.052 3.456 3.607.3 3.607-4.359 0-2.404.902-8.717 2.104-13.826 3.607-15.78 5.561-28.105 6.463-39.226.45-5.861 2.104-14.879 3.757-20.139 4.058-12.323 6.613-12.323 18.035 0 7.214 7.815 8.717 8.867 9.618 6.613.601-1.503 0-4.96-1.503-7.815-1.352-2.855-2.404-6.913-2.404-8.867s-.902-5.861-2.104-8.566-2.555-6.613-3.006-8.717c-1.353-6.613-9.468-17.133-19.387-25.249-10.52-8.416-16.382-9.919-20.89-5.26m-405.48-7.816c0 2.104 1.052 4.208 2.255 4.659 1.202.601 2.254 1.503 2.254 2.254 0 2.255 14.428 22.544 27.653 38.925 12.625 15.63 47.492 50.948 61.77 62.37 4.057 3.307 8.566 7.064 9.918 8.266s4.66 4.208 7.364 6.763c4.81 4.208 5.711 4.509 17.133 4.358 15.33-.3 18.786-2.254 39.977-21.942 8.567-8.115 16.231-14.728 16.983-14.728s3.907-1.804 6.913-4.208c6.463-4.96 10.67-7.515 13.677-8.717 1.202-.45 6.161-2.855 10.97-5.26 4.66-2.405 9.77-4.358 11.272-4.358s3.908-.902 5.561-1.954 7.064-3.307 12.023-4.81c4.96-1.653 10.37-3.757 12.023-4.809s4.81-1.953 7.064-1.953 4.358-.602 4.81-1.353c.6-.752 6.612-3.156 13.675-5.41s13.226-4.66 13.677-5.41c.45-.752 2.104-1.353 3.907-1.353 1.653 0 5.41-1.053 8.416-2.405 3.156-1.353 7.815-3.306 10.52-4.509s6.162-2.104 7.665-2.104 3.607-1.052 4.66-2.254 3.005-2.254 4.358-2.254 7.214-2.706 12.925-6.012c5.86-3.156 13.225-7.214 16.531-9.017 3.457-1.804 8.867-5.41 12.024-8.266 9.618-8.116 7.063-8.717-25.7-6.012-35.168 2.856-66.277 2.856-126.092 0-28.105-1.202-82.209-2.104-136.313-2.104l-89.873-.15zm291.26 11.572c1.053 1.052 1.804 5.711 1.804 10.37 0 7.815-.45 9.018-4.659 12.474-4.96 4.208-5.11 4.208-9.919 3.006-2.254-.601-3.457-2.104-3.457-4.358 0-1.804-1.052-4.208-2.254-5.26-3.757-3.157-2.555-6.463 4.66-12.474 7.363-5.862 10.82-6.764 13.826-3.758m-168.473 2.405c4.208 3.306 5.41 10.82 1.653 10.82-2.705 0-8.717-6.161-8.717-9.017 0-4.96 2.254-5.56 7.064-1.803m215.965.751c2.705 1.954 2.555 2.255-1.353 5.26-2.254 1.804-5.11 3.307-6.161 3.307-2.555 0-5.561-5.56-4.509-8.416 1.052-2.706 8.416-2.706 12.023-.15m-90.324 1.954c1.203 1.202-.45 5.11-2.104 5.11-.751 0-1.352-1.353-1.352-3.006 0-2.855 1.653-3.907 3.456-2.104m10.67 5.861c3.307 2.555 1.955 5.26-2.855 5.26-4.208 0-5.71-1.803-4.358-5.11 1.052-3.005 3.457-3.005 7.214-.15m-32.161 5.11c0 1.503-1.052 3.607-2.254 4.66-1.804 1.502-2.405 1.352-3.156-.602-.451-1.353-.602-3.457 0-4.659 1.202-3.156 5.41-2.855 5.41.601m29.306 15.93c0 3.758-4.96 4.66-9.017 1.654-3.006-2.104-3.006-2.254.751-3.757 5.26-2.104 8.266-1.353 8.266 2.104M315.83 801.072c0 4.358-1.954 8.717-3.757 8.717-2.555 0-4.058-4.208-3.006-7.665 1.052-3.156 6.763-3.908 6.763-1.052m650-64.775c-69.433 1.353-142.624 3.758-177.942 5.862-29.006 1.803-78.752 1.352-128.197-.902-10.82-.451-19.237-.3-19.237.45 0 1.353 9.77 10.972 11.122 10.972.6 0 3.757 1.803 7.364 4.058 9.167 5.86 28.404 15.179 43.133 20.74 3.757 1.502 8.867 3.606 11.572 4.658 2.555 1.203 5.861 2.105 7.515 2.105 1.502 0 4.208.901 5.86 2.104 1.654 1.202 8.567 2.554 15.33 3.156 10.07.901 12.324 1.653 13.075 3.907 1.203 3.908 3.607 3.607 5.11-.601 2.104-5.11 7.665-10.37 10.22-9.468 1.202.45 3.156.902 4.358.902 3.758 0 2.255 3.606-3.156 7.364-7.965 5.41-6.913 8.266 4.208 12.173 5.11 1.804 11.122 4.208 13.376 5.41 2.104 1.203 4.66 2.105 5.56 2.105 1.954 0 21.793 9.618 27.955 13.526 2.554 1.653 5.56 3.456 6.763 4.057 2.855 1.203 19.387 13.827 22.843 17.284 1.503 1.503 3.157 2.705 3.908 2.705.601 0 4.058 2.855 7.665 6.312 9.468 8.717 20.289 14.728 26.6 14.728 4.209 0 7.966-1.953 17.585-9.318 14.578-11.121 51.549-46.74 63.722-61.768 4.81-5.711 10.971-12.925 13.526-15.931 3.908-4.208 4.96-6.763 4.96-11.723 0-6.161 1.954-9.468 3.757-6.462.451.751 1.503 1.503 2.254 1.503 1.503 0 12.024-14.428 12.024-16.532 0-.902.6-1.503 1.503-1.503 1.953 0 6.462-10.82 4.959-11.873-.751-.45-22.844-.45-49.295 0m-188.613 25.4c0 1.652-.6 3.005-1.352 3.005-1.653 0-3.307-3.908-2.104-5.11 1.803-1.803 3.456-.751 3.456 2.104m-6.763 5.26c0 2.103-1.202 3.155-4.057 3.456-4.51.601-5.711-2.104-2.405-5.41 2.705-2.706 6.462-1.503 6.462 1.953m30.81 5.26c0 3.907-2.255 4.959-4.509 2.254-1.503-1.804-1.503-2.705 0-4.509 2.254-2.705 4.509-1.653 4.509 2.254m-1.654 18.635c3.908 4.81-2.855 9.468-9.768 6.914-4.058-1.654-4.208-2.105-2.104-6.162 1.953-3.307 9.317-3.908 11.872-.752m64.474 23.445c.602 3.758-7.664 12.625-10.82 11.573-3.758-1.203-2.706-7.365 2.104-11.873 5.41-4.96 7.965-4.81 8.716.3m-582.37-249.029c.601 4.208 5.711 14.428 13.526 27.353 5.711 9.468 22.093 28.855 30.96 36.971 11.572 10.22 30.81 23.896 33.965 23.896 1.052 0 2.705 1.052 3.757 2.254s2.405 2.255 3.156 2.255 5.561 1.953 10.821 4.358c12.775 5.861 19.688 8.266 35.619 12.324 3.757.902 10.22 2.555 14.277 3.757 4.208 1.052 15.63 3.006 25.55 4.358 9.918 1.203 22.392 3.006 27.803 3.908 5.41.902 13.526 2.104 18.035 2.705 4.508.601 10.67 1.804 13.526 2.705 9.017 3.006 23.896 6.463 27.352 6.463 1.954 0 4.81 1.052 6.312 2.254 1.653 1.202 5.11 2.254 7.815 2.254 2.555 0 7.365.902 10.52 2.104 3.307 1.052 11.122 2.555 17.584 3.006l11.573 1.203v-5.11c0-7.665-3.307-10.971-18.486-18.486-7.514-3.907-19.237-9.618-25.85-12.925-6.612-3.306-13.075-6.612-14.277-7.514-1.954-1.202-4.659-2.405-15.78-7.515-1.654-.751-4.058-1.953-5.26-2.705-5.26-3.156-22.694-10.67-24.648-10.67-1.052 0-2.855-.902-3.757-2.104-.902-1.203-3.607-2.405-5.861-2.856-2.255-.45-8.717-2.555-14.428-4.659s-11.873-3.907-13.677-3.907c-1.653 0-4.508-1.052-6.161-2.255-1.503-1.202-4.208-2.254-5.711-2.254-3.607 0-17.885-4.058-24.648-6.913-2.705-1.203-6.612-2.104-8.566-2.104s-5.862-.902-8.567-2.104-9.318-3.307-14.728-4.81c-5.41-1.352-11.272-3.456-13.075-4.659-1.804-1.052-4.208-1.953-5.41-1.953-2.105 0-22.544-8.717-26.602-11.272-1.202-.752-4.659-2.705-7.514-4.358-2.856-1.503-7.214-3.908-9.769-5.26-4.208-2.255-14.127-8.868-28.405-18.636-3.156-2.255-7.214-4.058-8.867-4.058-2.555 0-2.855.751-2.104 4.96m654.51-9.618c-1.353 3.607-31.26 24.196-47.041 32.462-4.058 2.104-8.567 4.359-9.769 5.11a320 320 0 0 1-8.266 3.908c-3.306 1.352-7.815 3.607-10.07 4.659-2.103 1.202-5.11 2.104-6.462 2.104s-4.358.901-6.462 2.104c-2.255 1.202-8.416 3.306-13.827 4.809-5.41 1.353-11.572 3.457-13.826 4.659-2.255 1.052-6.162 1.954-8.567 1.954-2.555 0-6.763.901-9.468 2.104s-9.318 3.306-14.728 4.659-12.024 3.456-14.729 4.659-6.011 2.104-7.214 2.104c-1.352 0-4.809 1.052-7.815 2.404-3.156 1.353-7.815 3.307-10.52 4.509s-6.162 2.104-7.514 2.104c-1.503 0-4.058 1.052-5.711 2.254-1.503 1.203-3.758 2.255-4.66 2.255-1.051 0-6.311 1.953-11.421 4.508-5.26 2.405-10.52 4.51-11.573 4.51s-3.156.9-4.358 1.953c-1.353 1.052-5.41 3.306-9.168 4.81s-7.815 3.756-9.167 4.808c-1.202 1.052-3.307 1.954-4.359 1.954s-5.56 1.954-10.069 4.509c-4.358 2.404-9.017 4.508-10.22 4.508-1.202 0-2.254.602-2.254 1.203 0 .751-5.26 3.907-11.572 7.063-6.463 3.156-13.526 7.364-15.78 9.468-5.11 4.66-5.712 11.422-1.203 13.827 3.457 1.954 18.035.601 26-2.405 3.006-1.202 7.515-2.104 9.769-2.104 2.405 0 5.56-1.052 7.214-2.254 1.503-1.202 4.358-2.254 6.312-2.254 3.757 0 18.335-3.457 28.855-6.914 3.758-1.202 9.92-2.104 13.827-2.104s8.867-.751 11.272-1.653c4.058-1.653 6.913-2.104 37.271-5.861 8.266-.902 17.284-2.705 19.989-3.908s7.063-2.104 9.769-2.104c4.809 0 15.179-2.855 24.797-6.913 2.706-1.202 6.162-2.104 7.665-2.104s3.607-1.052 4.66-2.254c1.051-1.203 2.704-2.255 3.756-2.255 1.954 0 12.775-4.809 18.035-7.965 1.653-.902 6.462-3.757 10.52-6.162 17.434-10.52 44.336-36.97 52.752-52 1.503-2.855 3.306-5.56 3.907-6.011 1.804-1.353 11.723-21.04 11.723-23.295 0-1.052 1.052-2.705 2.254-3.757 2.856-2.405 3.006-9.018.15-9.018-1.202 0-2.404.601-2.705 1.353m-58.313 72.289c0 1.653-.902 3.006-2.104 3.006-2.705 0-4.358-2.405-3.156-4.509 1.653-2.705 5.26-1.653 5.26 1.503M546.372 464.874c-9.919 11.873-12.925 30.058-7.364 44.786 3.306 8.867 6.012 9.619 18.486 5.11l9.468-3.456 8.416 2.705c4.66 1.653 11.723 3.306 15.78 3.757l7.214.902v-5.56c0-4.51-7.514-23.596-10.52-26.452-.45-.45-2.705-3.757-5.26-7.214-2.405-3.607-8.266-9.618-12.925-13.225-11.121-8.567-16.983-8.867-23.295-1.353m33.515 19.688c.601 1.804-5.11 9.619-7.064 9.619-.751 0-2.104-1.353-3.006-3.006-1.202-2.405-.901-3.607 1.503-6.012 3.307-3.306 7.515-3.607 8.567-.6m71.537-20.74c-10.37 7.815-18.034 16.532-24.346 27.804-3.908 7.364-9.168 21.942-9.168 25.85 0 1.502 10.22.6 17.133-1.504 9.769-3.005 22.092-2.855 31.11.301 8.716 3.156 10.22 2.254 14.127-8.566 4.058-10.821 4.208-14.428 1.503-22.844-5.56-16.532-11.272-24.648-18.035-26-3.607-.752-6.011.15-12.324 4.96m-71.237-14.878-3.456 2.855 4.96 5.711c2.855 3.156 7.514 8.266 10.37 11.422 5.11 5.56 7.664 9.318 10.52 15.48.901 1.653 2.855 4.208 4.508 5.71 2.856 2.556 3.006 2.556 6.312-3.756 4.208-8.116 10.52-16.382 19.838-26.15 7.665-7.966 8.266-11.573 2.255-13.226-1.804-.451-14.278-.902-27.503-.902-21.642 0-24.648.3-27.804 2.856m-41.93-16.983c-12.174 4.058-26.15 15.63-22.844 18.936 2.555 2.555 2.254 4.208-1.052 4.208-1.503 0-3.607.902-4.509 2.104-2.254 2.706-3.757 31.41-2.104 39.076 1.503 6.913 5.11 9.919 9.168 7.514 1.953-1.353 2.705-4.81 3.607-16.381.6-9.018 1.953-15.931 3.456-18.185 1.203-1.954 2.255-4.359 2.255-5.41 0-1.053 3.757-5.562 8.265-10.07 15.33-15.029 17.284-26 3.758-21.792m-16.532 30.81c0 3.306-.752 4.358-2.856 4.358-1.502 0-3.757-1.052-4.809-2.405-1.653-2.104-1.503-2.856 1.503-5.26 4.358-3.457 6.162-2.555 6.162 3.306m149.838-32.313c-3.306 3.457.902 11.272 12.925 23.896 9.468 9.92 13.075 19.237 13.075 33.965 0 13.075 1.202 16.382 6.012 16.382 1.352 0 3.757-1.353 5.41-3.156 4.208-4.66 4.058-34.416-.15-42.833-6.913-13.526-18.185-24.196-28.104-26.6-2.104-.602-4.81-1.353-6.012-1.804s-2.555-.3-3.156.15m-56.058-14.127c-1.352 2.254-1.803 8.416-.6 10.22 1.051 1.803 29.756 6.462 32.612 5.41 2.104-.902 1.653-1.804-1.954-5.56-6.613-6.914-16.08-11.874-22.994-11.874-3.306 0-6.463.752-7.064 1.804m-33.664 2.855c-8.567 4.66-13.526 9.018-13.526 12.023 0 1.804 4.809 1.503 25.248-1.653l12.474-1.953-.45-6.162-.452-6.162-7.514-.3c-6.012-.301-9.168.6-15.78 4.207m414.046-132.104c-.3 1.052-.902 12.023-1.202 24.497-.752 22.694-2.706 36.52-6.463 45.388-1.202 2.555-2.104 5.861-2.104 7.214s-.902 4.358-2.104 6.462c-1.202 2.254-4.659 9.318-7.815 15.78-8.867 17.734-25.098 37.573-44.936 55.156-12.174 10.671-17.133 16.081-16.532 17.735 1.202 3.156-.601 7.815-3.156 7.815-1.203 0-2.104-1.353-2.104-2.856 0-4.058-3.006-5.71-4.81-2.555-.75 1.353-2.104 2.405-3.005 2.405-.752 0-4.058 1.954-7.214 4.508-3.156 2.405-6.463 4.51-7.364 4.51s-2.706 1.652-4.058 3.756c-1.353 2.104-3.307 3.758-4.359 3.758-2.705 0-7.965 2.404-13.526 6.011-2.404 1.653-5.56 3.457-6.763 4.058-1.202.45-4.959 2.705-8.265 4.81-3.307 2.103-8.717 5.26-12.024 7.063-3.306 1.653-8.416 4.659-11.271 6.312-2.856 1.803-6.613 3.907-8.266 4.659s-5.56 3.156-8.717 5.26c-3.156 2.104-6.162 3.908-6.763 3.908s-5.71 3.005-11.272 6.763c-5.71 3.757-10.67 6.763-11.121 6.763-.45 0-3.757 1.953-7.514 4.508-3.607 2.405-6.914 4.509-7.214 4.509-.902 0-20.29 13.376-30.81 21.341-17.433 13.225-42.682 36.67-57.86 53.954-8.267 9.318-16.232 18.034-17.585 19.237-1.503 1.352-2.705 2.855-2.705 3.607 0 .751-2.855 5.11-6.462 9.768-13.677 18.035-13.977 21.041-1.654 14.428 10.07-5.41 45.388-22.994 50.948-25.399 10.52-4.358 16.833-7.214 20.59-9.167 2.104-1.203 5.26-2.104 6.913-2.104 1.804 0 3.457-.602 3.908-1.353.45-.601 5.71-2.855 11.722-4.659 6.012-1.954 12.324-4.358 13.977-5.56 1.653-1.053 4.81-1.954 7.214-1.954s6.162-.902 8.266-2.104c2.254-1.203 8.416-3.156 13.827-4.66 5.41-1.352 11.873-3.155 14.277-4.057 2.555-.752 7.214-1.954 10.52-2.555 7.214-1.353 30.058-8.717 35.619-11.572 2.104-1.203 4.659-2.104 5.56-2.104 1.654 0 19.688-7.966 24.197-10.52 1.202-.752 5.26-2.856 8.867-4.66 7.214-3.607 25.098-14.878 28.705-18.185 1.203-1.052 5.11-3.907 8.717-6.161 9.769-6.162 50.046-46.89 56.81-57.41 8.265-12.775 9.167-14.278 12.023-20.74 1.352-3.007 3.757-8.116 5.26-11.122 1.653-3.156 2.855-7.665 2.855-10.22s1.954-9.318 4.509-15.029c2.404-5.86 4.509-12.323 4.509-14.427 0-2.255 1.202-6.613 2.554-9.77 2.255-5.109 2.555-11.421 2.706-47.941 0-36.37-.3-42.532-2.405-45.839-1.353-2.104-2.855-6.011-3.457-8.716-.45-2.706-2.554-8.417-4.658-12.925-2.105-4.359-3.758-8.717-3.758-9.619 0-2.404-3.006-2.254-3.757 0M950.65 465.024c2.705 1.053 1.803 3.607-1.503 3.607-1.202 0-2.104-1.052-2.104-2.254 0-2.555.3-2.705 3.607-1.353M701.771 616.366c.601 4.659-1.803 5.26-6.462 1.653-3.006-2.255-3.006-2.255 0-4.509 3.907-2.855 5.861-1.954 6.462 2.856M217.54 291.74c-1.503 3.457-3.757 8.116-4.81 10.37-1.202 2.104-2.104 5.41-2.104 7.214 0 1.803-.75 4.659-1.803 6.462-7.364 13.827-7.514 79.954-.3 96.937 1.202 2.705 2.103 6.913 2.103 9.318s.902 6.613 2.105 9.318c2.705 6.462 6.913 21.04 6.913 24.196 0 1.203 1.202 4.509 2.555 7.364l4.358 8.717c4.96 9.92 7.515 14.428 9.318 15.48.902.601 1.804 1.954 1.804 2.705 0 2.705 13.676 19.387 23.745 28.856 5.26 5.11 13.827 13.225 18.937 18.185 15.029 14.277 36.82 30.358 52 38.023 3.757 1.954 7.815 4.058 9.017 4.81 5.41 3.155 22.694 10.67 24.497 10.67 1.052 0 3.306 1.052 4.96 2.254 1.503 1.202 4.358 2.254 6.162 2.254 1.803 0 5.56.902 8.265 2.104 7.515 3.156 16.382 5.862 22.995 7.064 3.306.601 8.115 1.803 10.52 2.705 2.555.902 8.566 2.705 13.526 4.058s10.67 3.156 12.774 3.907c2.105.902 6.162 2.104 9.018 2.856 4.96 1.052 25.098 8.116 33.063 11.422 2.104.902 9.168 3.757 15.78 6.462 6.613 2.555 13.076 5.41 14.278 6.162 1.203.752 3.307 1.804 4.509 2.255s13.977 6.612 28.104 13.676c14.277 7.063 26.601 12.474 27.503 12.173 4.208-1.352-26.3-41.029-48.544-63.121-13.526-13.376-37.872-34.567-46.138-40.278-2.856-2.104-5.862-4.208-6.763-4.809-8.867-7.063-27.804-19.537-44.035-29.006-1.353-.901-5.41-3.456-8.867-5.71-3.607-2.255-6.763-4.058-7.064-4.058-.45 0-3.306-1.804-6.462-3.908s-7.064-4.509-8.717-5.26c-1.653-.752-4.96-2.705-7.514-4.359-2.405-1.653-5.862-3.606-7.515-4.508s-4.96-2.856-7.514-4.509c-2.405-1.653-5.861-3.607-7.515-4.358-1.653-.752-5.56-3.156-8.716-5.26s-6.012-3.908-6.313-3.908-3.156-1.803-6.312-3.907-7.063-4.509-8.716-5.26c-1.654-.902-4.359-2.255-6.012-3.307s-5.711-3.607-9.017-5.56c-3.457-2.105-7.515-4.51-9.018-5.561-1.653-1.052-5.56-3.156-8.566-4.81-11.572-6.312-39.977-34.566-55.006-54.554-7.064-9.619-12.173-15.03-14.578-15.63-2.104-.451-3.757-1.353-3.908-1.954 0-.451-.3-4.96-.45-9.92s-1.353-12.473-2.706-16.531c-6.462-20.89-7.364-25.85-7.664-49.445-.15-13.977-.902-24.197-1.804-24.497-.902-.15-2.705 2.404-4.358 6.011m75.896 226.486c3.006 1.653 3.907 8.115 1.202 9.769-1.803 1.202-11.873-5.26-11.873-7.665 0-3.757 5.41-4.81 10.67-2.104m100.543 15.18c0 2.103-3.757 5.86-5.861 5.86-.902 0-1.653-1.653-1.653-3.757 0-3.006.751-3.757 3.757-3.757 2.104 0 3.757.751 3.757 1.653M787.737 93.058c-5.561 1.803-9.77 4.659-12.925 8.266-5.711 6.613-9.018 18.936-7.515 27.202 2.856 14.879 3.757 18.336 6.914 26 1.803 4.509 3.606 9.77 4.057 11.573s1.654 4.208 2.856 5.11 2.104 2.554 2.104 3.606c0 .902 1.653 4.81 3.757 8.416 1.954 3.607 4.359 7.966 5.26 9.619s2.856 4.96 4.509 7.514c1.653 2.405 3.457 5.41 4.058 6.613.45 1.202 6.913 11.122 14.277 22.093 7.214 11.121 13.226 20.439 13.226 20.74 0 .45 1.803 3.606 4.208 7.213 6.612 10.37 7.214 11.573 16.682 30.51 10.971 22.242 15.18 32.01 15.18 35.167 0 1.352.9 3.757 1.953 5.41s3.306 8.416 4.81 15.03 3.756 15.028 4.959 18.635c1.803 5.11 2.404 13.826 2.404 39.075.15 28.555-.15 32.913-2.404 36.22-1.503 1.953-2.706 4.659-2.706 6.011 0 1.203-3.005 7.515-6.763 14.127-7.063 12.324-8.115 15.931-4.659 15.931 3.607 0 40.729-25.549 58.763-40.578 6.914-5.861 29.307-28.705 29.307-30.058 0-.6 2.705-5.26 6.011-10.22 7.515-11.271 16.532-28.254 16.532-31.26 0-1.352.752-3.757 1.804-5.56 4.659-8.416 7.213-28.705 7.213-58.613 0-29.757-2.104-45.988-6.612-52.15-.902-1.203-3.006-4.66-4.509-7.515-3.006-5.41-6.613-10.52-20.74-29.306-14.428-19.087-67.179-69.584-83.41-79.954-2.255-1.353-7.966-5.26-12.474-8.717-4.509-3.306-10.67-7.364-13.526-9.017-2.856-1.503-7.966-4.358-11.272-6.312-10.971-6.162-24.046-12.023-28.555-12.925-2.705-.45-7.965.3-12.774 2.104m21.491 37.572c1.202 4.359-3.908 19.388-7.064 21.191-3.607 1.954-4.96.3-2.705-3.306 1.052-1.653 1.804-6.012 1.804-9.619 0-9.167 6.161-15.48 7.965-8.266m146.983 127.596c4.208 2.404 3.757 7.514-.752 7.514-1.954 0-4.659-.45-6.011-.902-2.104-.751-2.104-1.202.15-4.508 2.705-4.058 2.705-4.208 6.613-2.104m7.364 72.74c0 3.156-3.156 4.659-4.509 2.254-.751-1.052-.902-2.555-.601-3.156 1.353-2.104 5.11-1.353 5.11.902m-70.636 105.202c0 3.757-3.306 7.665-4.96 5.861-1.352-1.202-1.352-7.214 0-8.416 2.104-2.254 4.96-.902 4.96 2.555M406.002 94.862c-6.162 2.706-14.127 6.763-17.584 9.018-3.606 2.254-6.763 4.058-7.213 4.058-.3 0-5.862 3.607-12.024 7.815a1097 1097 0 0 1-13.976 9.468c-9.168 5.41-35.92 28.405-54.405 47.19-21.642 21.793-33.364 35.62-35.168 41.63-.45 1.654-3.005 4.51-5.41 6.313-2.555 1.954-4.509 4.058-4.509 4.96 0 1.352-1.052 3.005-6.011 8.566-3.006 3.306-6.763 11.422-9.619 20.289-1.954 5.71-2.404 14.578-2.404 42.983 0 36.52.6 41.78 7.514 61.768 6.012 17.284 23.746 45.087 37.422 58.613 18.486 18.185 68.682 55.607 74.694 55.607 2.404 0 2.855-3.156.751-5.41-2.855-3.006-12.173-21.792-12.173-24.197 0-1.503-.902-4.058-2.104-5.71-1.052-1.654-2.856-9.018-3.908-16.382-2.104-15.33.15-51.4 3.908-61.469 1.202-3.005 2.104-7.514 2.104-9.919 0-2.254 1.953-9.768 4.508-16.682s4.51-13.676 4.51-15.029c0-1.503 1.051-3.456 2.253-4.508s2.255-2.856 2.255-4.058c0-3.006 12.624-29.006 21.641-44.035 4.058-7.063 8.266-14.127 9.168-15.78 1.803-3.457 20.74-32.613 24.948-38.624 1.503-2.255 2.855-4.51 2.855-4.96 0-.601 1.654-3.156 3.607-5.711 2.104-2.705 4.51-6.462 5.41-8.566.903-2.105 4.209-8.868 7.515-15.03s6.012-12.173 6.012-13.375.902-3.306 1.954-4.509c4.208-4.96 7.815-21.641 7.815-35.468 0-13.075-.15-13.827-4.81-19.838-5.26-6.463-18.485-13.977-24.647-13.977-1.954 0-8.717 2.254-14.879 4.96M281.412 222.91c-.15 2.254-3.606 1.803-4.358-.451-.45-1.353.3-1.954 1.804-1.503 1.503.15 2.555 1.052 2.555 1.954m-18.335 6.613c2.856 1.803.602 4.658-3.757 4.658-2.555 0-3.607-.75-3.607-3.005 0-3.156 3.607-4.058 7.364-1.653m47.191 4.057c-.45 1.203-1.352 2.104-1.954 2.104-2.104 0-3.306-3.005-2.404-5.56.751-1.804 1.352-1.954 3.156-.451 1.052.902 1.653 2.705 1.202 3.907m-30.509 2.104c0 2.555-3.907 4.058-7.063 2.856-1.954-.752-3.457-1.653-3.457-2.104s1.503-1.353 3.457-2.104c3.457-1.353 7.063-.601 7.063 1.352m25.7 54.255c2.405 3.456 3.006 5.41 1.803 7.063-2.104 3.607-4.809 3.908-5.86.752-.452-1.503-1.504-3.908-2.255-5.26-4.058-7.815 1.052-9.77 6.312-2.555m-4.06 16.831c1.954 1.353 2.405 3.006 1.804 5.26-1.353 4.058-11.122 11.873-15.931 12.474-3.156.451-3.908-.15-4.208-3.607-.3-2.404-1.503-4.659-2.705-5.11-2.555-.901-2.856-7.364-.3-8.867.9-.6 3.305.902 5.56 3.758 2.104 2.555 4.508 4.659 5.11 4.659.6 0 2.254-2.405 3.456-5.26 2.405-5.862 3.307-6.162 7.214-3.307m-36.971 9.468c-.601 3.156-7.214 4.96-7.214 1.954 0-1.052 1.202-3.156 2.555-4.659 2.856-3.156 5.56-1.503 4.659 2.705m31.56 98.59c-.6 4.659-8.716 6.012-8.716 1.353 0-3.006 1.803-4.359 6.462-4.51 2.104-.15 2.706.752 2.255 3.157M559.298 47.071c-7.063 1.052-15.63 2.104-19.087 2.104-4.959.15-6.913 1.052-9.919 4.659-4.208 4.96-8.115 5.86-9.468 2.254-1.202-2.856-8.416-3.006-13.826-.15-2.255 1.052-6.463 2.404-9.318 3.005-14.278 2.555-20.29 5.11-24.497 10.37-6.012 7.214-7.515 14.879-7.816 37.873-.15 10.67-.75 22.844-1.352 27.052-1.653 10.07-6.913 27.653-8.567 28.705-.751.451-1.352 1.804-1.352 3.157 0 2.404-8.717 20.289-13.677 28.254-1.502 2.404-3.456 5.861-4.358 7.514-2.405 4.509-4.358 7.515-20.289 32.312-3.457 5.41-6.763 10.821-7.364 12.024-1.202 2.555-3.006 5.71-8.867 14.578-2.254 3.607-4.058 7.063-4.058 7.965 0 .751-.601 1.503-1.353 1.503-.75 0-2.705 2.555-4.208 5.56-13.826 26.902-20.289 40.579-21.942 46.29-.45 1.653-2.555 8.115-4.659 14.277-2.254 6.162-3.907 12.624-3.907 14.428 0 1.803-1.052 5.861-2.555 9.017-3.757 8.717-3.908 71.387-.15 78 1.352 2.405 3.907 7.515 5.71 11.272 12.024 24.948 33.966 49.746 48.544 55.006 1.352.45 2.555 1.503 2.555 2.104 0 .751 1.352 1.803 3.156 2.254 1.653.601 6.011 3.006 9.618 5.41s7.064 4.359 7.966 4.359 1.803.601 2.104 1.202c.3.601 3.757 3.156 7.815 5.56 19.237 11.874 24.948 15.631 43.734 29.758 23.445 17.584 22.844 17.133 51.85 46.139 21.641 21.792 36.82 39.977 43.734 52.601 1.202 2.104 2.705 4.208 3.306 4.659s2.705 3.757 4.66 7.514c1.953 3.607 4.508 6.763 5.86 7.064 2.856.601 3.908-21.341 4.359-85.815l.15-47.792-4.208-3.607c-7.515-5.861-36.82-6.763-45.387-1.202-4.509 3.006-7.665 1.653-17.434-6.914-7.214-6.312-9.468-7.364-16.983-8.416-13.075-1.653-18.936-6.011-24.647-18.636-5.861-12.924-3.457-39.826 5.26-56.96 3.457-6.912 15.48-18.635 21.792-21.49 13.676-6.313 16.983-7.365 21.491-7.365 6.914 0 29.457-7.514 34.266-11.572 1.203-1.052 3.457-1.954 4.96-1.954 1.352 0 4.659-1.202 7.364-2.555 6.913-3.607 35.017-3.607 40.277 0 1.954 1.353 5.26 2.555 7.515 2.555s4.81 1.052 5.861 2.255 2.856 2.254 4.058 2.254c2.555 0 15.33 3.908 22.694 6.913 2.705 1.203 7.213 2.104 10.22 2.104 2.855 0 9.618 2.104 15.028 4.81 30.208 14.728 44.035 56.057 28.856 86.416-4.058 8.115-9.92 11.873-20.74 13.225-9.318 1.203-12.023 2.555-19.989 9.468-8.867 7.665-12.173 8.717-17.133 5.411-3.456-2.405-6.913-2.856-20.138-2.705-14.428.15-16.382.6-22.093 4.208l-6.312 3.907V608.4c0 67.03.601 76.948 4.509 67.03.751-2.105 1.953-3.908 2.705-3.908.601 0 1.954-1.804 2.855-4.058 2.555-6.012 8.567-16.231 11.122-18.937 1.202-1.352 3.757-4.809 5.861-7.815 4.208-6.011 5.711-7.965 18.786-22.693 9.769-11.122 22.393-23.445 48.393-47.341 7.364-6.914 31.41-25.4 32.763-25.4.601 0 3.607-1.953 6.763-4.508s6.012-4.508 6.463-4.508 5.26-3.006 10.67-6.763c5.561-3.758 10.22-6.763 10.67-6.763.301 0 3.157-1.804 6.313-3.908s7.064-4.509 8.717-5.26c8.266-3.757 28.705-19.087 38.925-29.457 8.416-8.566 23.445-29.156 23.445-32.162 0-.901.901-3.456 2.104-5.56 6.462-12.324 9.017-24.948 8.867-44.636 0-12.925-2.555-34.717-4.66-39.827-.75-2.104-2.704-9.167-4.057-15.78-1.503-6.613-3.607-13.827-4.659-16.081-1.202-2.104-2.104-4.81-2.104-5.861 0-4.359-6.613-17.885-8.867-18.035-1.353-.15-3.757-.3-5.41-.45-3.758-.151-5.11-6.463-1.654-7.816 1.353-.45 2.405-1.954 2.405-3.156 0-2.856-9.017-20.139-18.035-34.266-2.104-3.306-4.358-7.064-4.96-8.266s-2.404-4.358-4.057-6.763c-1.653-2.555-3.457-5.56-4.058-6.763-2.104-4.358-20.289-30.81-23.896-34.717-1.954-2.104-3.607-4.809-3.607-6.161s-4.058-10.972-9.017-21.342c-4.96-10.52-9.017-19.838-9.017-20.89 0-.901-1.052-3.156-2.255-4.659-1.202-1.653-2.254-4.809-2.254-7.063 0-2.405-1.052-8.116-2.254-12.925-1.203-4.66-2.255-12.324-2.255-16.833 0-5.41-.751-9.017-2.404-10.82-2.255-2.555-2.255-3.006.751-6.914 3.757-4.659 3.306-12.323-1.353-21.49-4.057-7.816-7.364-10.22-19.687-13.677-6.162-1.653-14.128-4.058-17.885-5.26-3.757-1.203-9.318-2.104-12.324-2.104-3.156 0-8.265-.902-11.271-2.104-16.983-6.162-98.44-9.168-128.197-4.66m51.85 65.075c2.104 3.156 6.011 8.566 8.717 12.323 7.364 10.07 7.514 10.671.901 19.688-3.156 4.509-7.213 10.22-9.017 12.925-5.26 8.266-7.064 7.815-15.93-3.607-6.914-8.867-10.972-15.78-10.972-18.636 0-1.803 3.006-7.213 6.763-12.023 3.758-4.96 6.763-9.318 6.763-9.919 0-1.954 6.463-7.815 7.815-7.063.752.45 3.006 3.306 4.96 6.312m-64.174 56.96c.752 2.704-4.208 4.358-5.71 1.803-.752-1.052-.902-2.555-.451-3.307 1.052-1.803 5.26-.751 6.161 1.503m17.133 3.005c1.353 2.405 6.914 9.619 12.324 16.081s9.92 12.474 9.92 13.075c0 1.503-2.706 4.208-10.37 10.67-3.307 2.856-4.66 5.26-4.66 8.567 0 2.705-1.352 6.012-3.156 7.815-3.757 3.757-4.058 3.457-15.78-10.82-8.416-10.37-11.572-12.324-13.226-8.116-.45 1.202-2.554 2.254-4.659 2.254-2.705 0-3.757-.751-3.757-3.006 0-1.653.451-3.005 1.203-3.005 2.705-.15 6.612-4.51 6.913-7.966.3-1.954 2.254-6.011 4.358-8.867 2.255-2.855 4.058-6.763 4.058-8.566 0-1.954 1.353-3.758 3.457-4.509 1.803-.751 4.358-2.705 5.56-4.509 2.856-4.208 4.81-3.907 7.815.902m98.14 9.017c5.41 7.064 9.768 13.977 9.768 15.33 0 2.405-9.318 16.832-13.827 21.491-1.503 1.503-2.705 3.307-2.705 4.208 0 .752-1.202 2.104-2.705 2.856-2.405 1.202-4.208-.601-12.775-11.873-10.37-13.827-11.722-17.734-7.815-21.04 1.203-1.053 2.255-2.856 2.255-4.058 0-1.052.901-2.405 1.953-2.705.902-.451 4.209-4.51 7.064-9.018s6.162-8.115 7.064-8.266c1.052 0 6.312 5.862 11.722 13.075M762.939 193.3c-.601 3.156-.15 4.96 2.254 7.063 3.908 3.457 3.908 6.313 0 7.515-3.607 1.052-6.913-1.052-8.266-5.41-1.953-6.162-6.763-2.255-6.763 5.56 0 2.856-.751 3.607-3.456 3.607-4.509 0-7.515-5.71-5.11-9.919 3.156-5.71 13.376-12.474 18.786-12.624 3.156 0 3.457.6 2.555 4.208m-20.29 22.543c0 1.353 1.053 3.908 2.255 5.41 2.555 3.307 3.006 7.816.902 9.018-2.405 1.503-9.168-5.11-9.168-9.017 0-7.515 5.862-12.775 6.012-5.41m-217.467 27.503c5.56 7.515 10.069 14.578 10.069 15.63 0 3.457-19.838 29.156-21.942 28.255-1.052-.301-6.613-6.914-12.174-14.428l-10.37-13.827 5.11-7.514c2.856-4.058 5.56-7.815 6.162-8.266.45-.451 3.156-3.607 6.012-7.214 2.705-3.457 5.41-6.312 6.011-6.312s5.56 6.162 11.122 13.676m91.976.902c5.41 7.063 9.77 13.676 9.77 14.728 0 1.804-18.336 26.902-20.89 28.405-1.354.902-5.411-3.457-12.174-13.376-2.104-3.006-4.96-6.613-6.312-7.965-4.66-4.208-3.307-10.22 4.358-20.29 9.618-12.924 12.774-16.08 14.277-15.178.752.45 5.711 6.612 10.971 13.676m90.925-.601c10.22 13.676 11.873 16.832 9.318 17.884-1.653.601-14.578 18.035-15.78 21.04-.45 1.353-2.104 3.157-3.757 4.058-2.405 1.203-3.607.451-7.966-5.56-12.023-16.382-14.728-20.74-14.878-22.544 0-1.202 2.855-5.86 6.462-10.52s7.815-10.82 9.318-13.526c1.653-2.555 3.757-4.81 4.81-4.81s6.612 6.313 12.473 13.978m64.324 35.167c.3 2.255-.601 3.457-2.705 4.208-4.509 1.503-6.763-1.052-4.509-5.26 2.104-3.907 6.613-3.306 7.214 1.052m-34.717 5.561c-.6 1.353-1.653 2.405-2.555 2.405-1.653 0-2.104-4.96-.45-6.613 1.653-1.503 3.907 1.653 3.005 4.208m49.746.3c-.601 3.157-2.705 4.058-5.71 2.105-1.804-1.052-1.654-1.804.75-4.509 3.006-3.306 5.862-2.104 4.96 2.405m19.688 3.608c3.156 1.502 5.41 10.52 3.907 15.028-2.404 7.365-14.277.301-14.277-8.416 0-6.763 4.81-9.769 10.37-6.612m-150.59 9.167c.451 1.503 1.353 2.856 1.954 2.856.45 0 3.457 3.607 6.462 7.965 7.064 10.07 7.214 15.78 1.052 23.595-5.56 6.914-5.71 12.474-.751 18.336 4.208 5.11 4.659 7.965 1.653 11.121-3.006 2.856-4.96 2.705-6.162-.751-.45-1.503-3.456-4.66-6.763-6.914s-6.011-4.809-6.011-5.71c0-.752-3.006-5.11-6.763-9.469-3.758-4.208-6.763-8.566-6.763-9.318s-1.052-2.254-2.255-3.306c-3.907-3.307-2.555-7.214 7.815-21.04 8.867-11.723 10.37-13.076 12.925-11.723 1.653.751 3.307 2.855 3.607 4.358m-85.514 8.116c9.618 13.075 10.97 16.982 7.063 20.289-1.202 1.052-2.254 2.705-2.254 3.907 0 1.052-.902 2.555-1.954 3.156-1.052.602-3.006 2.856-4.358 4.96-1.353 2.104-4.208 5.711-6.162 8.266-4.358 5.11-4.058 5.26-15.93-10.37-9.168-12.023-9.77-16.682-3.157-24.948 2.555-3.156 4.509-6.463 4.509-7.364 0-.902.601-1.653 1.503-1.653.751 0 2.404-2.104 3.757-4.51 1.353-2.554 3.457-4.508 4.96-4.508 1.502.15 6.612 5.561 12.023 12.775m199.884-10.22c.3 1.202-.751 1.954-2.555 1.954-1.803 0-3.156-.902-3.156-2.405 0-2.705 4.66-2.254 5.711.451m19.087-.902c1.503 2.405-3.757 7.365-7.815 7.365-4.359 0-4.509-2.405 0-6.162 3.757-3.156 6.462-3.607 7.815-1.203m-277.734 11.422c1.052 2.706-4.96 8.567-7.214 7.064-2.255-1.353-1.503-5.41 1.352-7.515 3.457-2.705 4.66-2.554 5.862.451m-17.133 1.503c1.803 1.653-2.255 4.96-6.012 4.96-4.358 0-9.468-2.555-9.468-4.509 0-1.653 13.977-2.104 15.48-.45m8.566 38.174c0 3.757-4.96 3.306-5.71-.601-.301-1.804.45-2.555 2.554-2.555 2.254 0 3.156.901 3.156 3.156m244.971 23.144c1.503 1.804 1.503 3.156.301 6.012-2.104 4.508-4.96 4.81-7.514.751-1.503-2.404-1.503-3.607 0-6.011 2.254-3.607 4.658-3.758 7.213-.752M570.57 1.533c-4.058.751-14.578 1.954-23.295 2.705s-18.486 1.954-21.792 2.856S513.76 9.649 506.696 11c-7.064 1.353-14.728 3.156-17.283 4.058-2.405.902-7.515 2.104-11.272 2.705s-8.416 1.804-10.52 2.555c-2.104.902-7.815 2.856-12.775 4.208s-10.97 3.457-13.225 4.66c-2.405 1.201-5.26 2.103-6.312 2.103-1.203 0-4.66 1.052-7.815 2.405s-7.665 3.456-10.22 4.358c-2.405 1.052-8.416 3.757-13.075 5.861-4.66 2.105-10.07 4.66-12.023 5.41-1.954.752-4.509 2.105-5.711 2.856a169 169 0 0 0-7.515 4.058c-2.855 1.503-7.965 4.208-11.271 6.162-3.307 1.804-7.365 4.058-9.018 4.96-1.653.901-4.96 2.855-7.514 4.508-2.405 1.653-5.56 3.457-6.763 4.058-1.203.451-4.66 2.856-7.665 5.26-3.006 2.255-6.312 4.208-7.214 4.208s-1.653.752-1.653 1.503c0 .902-1.503 2.104-3.306 2.856-1.954.751-6.463 3.907-10.22 7.214-3.757 3.156-11.121 9.167-16.532 13.225-12.173 9.318-52.15 48.844-64.324 63.873-5.11 6.162-10.069 12.324-11.12 13.526-11.122 13.225-12.475 15.78-12.475 22.543 0 5.711-.45 6.763-3.006 6.763-1.653 0-3.907.601-4.96 1.203-2.855 1.803-13.525 18.485-20.439 31.86-3.907 7.215-5.26 9.77-8.416 15.33-.902 1.503-2.254 4.208-3.006 6.162s-3.306 7.364-5.41 12.023c-2.104 4.66-4.81 10.52-5.861 13.075a1767 1767 0 0 0-4.359 10.07c-1.352 3.006-2.404 6.763-2.404 8.416s-1.052 3.757-2.255 4.81c-1.202 1.051-2.254 2.855-2.254 4.207 0 3.006-4.208 17.734-6.913 24.047-1.203 2.705-2.104 6.913-2.104 9.318s-.902 7.063-2.104 10.069c-1.203 3.156-3.307 11.722-4.66 19.237-1.352 7.364-3.456 16.983-4.658 21.19s-2.104 11.723-2.104 16.683c0 5.11-1.052 14.578-2.255 21.04-3.005 15.63-3.005 54.705 0 68.833 1.203 5.86 2.255 16.381 2.255 23.445 0 7.063 1.052 16.231 2.254 20.289s2.254 9.318 2.254 11.873c0 6.011 4.208 25.7 6.914 32.011 1.202 2.705 2.104 6.913 2.104 9.318s.901 6.613 2.104 9.318c3.156 7.665 6.913 19.688 6.913 22.393 0 1.353 1.052 3.306 2.254 4.358 1.203 1.052 2.255 3.157 2.255 4.66s1.052 5.26 2.404 8.416c1.353 3.156 3.457 7.664 4.51 10.22 1.051 2.404 3.606 8.415 5.86 13.074 2.104 4.66 4.509 10.07 5.26 12.024.752 1.953 2.104 4.658 3.006 6.011.752 1.503 2.255 3.908 3.006 5.26.902 1.503 2.254 4.359 3.006 6.312.902 1.954 3.006 5.561 4.659 7.815l3.006 4.359h57.71c40.729 0 58.914-.451 61.62-1.804 2.855-1.202 10.97-1.202 34.265.15 34.566 1.954 188.012 3.006 189.815 1.203.752-.601.451-2.405-.45-3.908-2.105-3.306-1.203-4.659 3.456-4.659 3.757 0 6.011 2.255 3.607 3.758-.752.45-1.503 1.953-1.503 3.156 0 1.803 3.306 2.104 20.289 1.803 12.474-.3 20.139-1.052 19.988-1.954-.3-1.653-9.468-4.508-20.74-6.462-3.757-.751-8.115-1.954-9.768-2.855-1.653-.902-6.763-2.405-11.272-3.307s-10.971-2.404-14.277-3.306c-13.827-3.607-14.278-3.607-14.278.601 0 10.82-5.71 11.572-12.173 1.503-4.509-7.364-10.07-10.67-18.035-10.82-2.254-.151-4.81.9-5.861 2.103-2.405 3.006-3.908 2.856-7.214-.45-1.503-1.504-7.064-3.608-12.474-4.66-5.26-.901-12.624-2.555-16.382-3.456-3.757-.902-10.52-2.104-15.029-2.706-4.508-.6-9.919-1.653-12.023-2.555-2.104-.901-8.266-3.156-13.977-4.809-5.56-1.653-11.271-3.757-12.774-4.358-1.353-.752-9.168-4.509-17.283-8.416-14.128-6.914-14.879-7.064-16.833-4.509-1.052 1.653-2.555 2.254-3.306 1.653-.601-.751 0-2.254 1.653-3.306 2.705-1.954 2.254-5.26-.751-5.26-2.706 0-19.688-13.677-30.66-24.798-15.63-15.48-38.323-46.59-38.323-52.45 0-1.053-.902-2.856-2.104-3.758s-2.405-3.306-2.856-5.11-2.254-7.064-4.057-11.572c-1.804-4.509-3.607-10.37-4.058-12.775-1.353-8.416-6.613-16.982-17.885-29.607-13.075-14.427-20.439-25.098-27.052-38.774-6.913-14.128-14.127-32.463-14.127-35.619 0-1.653-.751-3.607-1.653-4.509-1.954-1.953-5.26-18.335-7.214-35.768-.751-6.613-2.104-16.833-3.006-22.544-3.005-20.439-1.202-42.682 5.26-64.474 1.052-3.907 2.104-8.867 2.104-10.82 0-1.804.602-3.908 1.503-4.359.752-.45 2.255-3.757 3.156-7.214 1.503-5.71 16.833-38.323 21.191-45.387 1.052-1.653 4.96-7.064 8.567-11.873 5.861-7.965 6.312-9.168 4.057-10.67-2.705-2.104-3.456-14.879-.901-16.532.751-.451 3.456.15 5.861 1.503 7.064 3.607 7.064 3.456 15.48-6.914 23.445-28.855 51.549-57.71 72.289-74.092 14.277-11.122 47.491-34.116 55.907-38.474a891 891 0 0 0 15.03-8.416c4.959-2.706 10.069-5.41 11.271-6.012 1.202-.45 6.613-3.006 12.023-5.41 10.971-5.11 15.78-7.214 25.55-10.971 3.756-1.353 9.017-3.457 11.722-4.66 2.705-1.202 6.312-2.103 7.965-2.103 1.804 0 4.96-.902 7.064-2.104 3.907-1.954 13.375-4.66 24.347-6.763 2.855-.602 6.763-1.954 8.566-2.856 1.803-1.052 5.56-1.803 8.266-1.803s9.318-1.052 14.728-2.255c19.989-4.508 41.18-6.011 83.41-5.861 41.33.15 61.62 1.954 73.342 6.462 2.404.902 6.763 1.654 9.769 1.654s8.115.901 11.572 2.104c3.306 1.202 11.722 3.306 18.786 4.659s15.029 3.456 17.734 4.659 6.162 2.104 7.665 2.104c2.705 0 9.769 2.855 30.208 12.323 15.18 6.914 21.642 9.92 24.046 10.821 1.202.601 6.312 3.306 11.272 6.162s10.52 5.861 12.474 6.613c5.41 2.555 28.254 17.884 44.636 30.057 36.37 27.053 65.977 56.96 96.185 96.937 4.96 6.462 9.919 12.173 10.97 12.624 1.053.3 2.706 2.104 3.457 3.908.752 1.653 2.856 5.56 4.51 8.416 3.606 5.861 10.52 18.485 15.178 27.803 1.654 3.307 3.607 7.064 4.359 8.266 1.503 2.405 1.803 3.006 5.41 12.775 1.203 3.306 3.156 7.965 4.359 10.22 1.202 2.404 2.104 6.312 2.104 8.716 0 2.555.751 6.012 1.803 7.815 2.856 5.26 5.711 27.503 5.56 43.885 0 17.734-3.155 49.295-5.71 55.306-.902 2.405-1.653 9.168-1.503 15.03.15 18.935 0 19.837-2.705 21.34-4.359 2.555-9.468 8.717-10.52 12.474-.752 3.006.15 4.66 4.809 8.567 3.456 2.855 5.26 5.41 4.659 6.462-1.353 2.254-8.717 2.405-10.821.3-2.254-2.254-6.312-.3-7.515 3.307-1.653 5.56-15.33 24.196-26.15 35.769-5.71 6.162-10.52 12.023-10.52 12.925 0 .901-1.052 2.555-2.255 3.607s-2.254 3.757-2.254 6.011-1.803 8.717-3.907 14.428c-2.104 5.71-4.208 11.572-4.66 13.225-1.502 4.96-11.12 22.393-17.583 31.711-8.867 12.925-11.723 16.232-28.705 33.064-12.925 13.075-21.943 20.139-36.07 28.855-6.162 3.758-24.948 12.474-26.902 12.474-1.202 0-2.855 1.052-3.907 2.255s-3.006 2.254-4.358 2.254-7.064 1.804-12.925 3.908c-5.711 2.254-14.278 4.508-18.786 5.11-4.509.6-9.92 1.803-12.024 2.705-4.809 1.953-22.543 4.508-40.728 6.161-7.815.602-15.63 1.954-17.433 2.856-1.804 1.052-5.711 1.803-8.867 1.803-4.96 0-12.324 1.654-27.353 6.313-2.856.751-8.567 2.104-12.775 2.705-4.358.601-9.768 1.954-12.323 2.705-2.405.902-8.867 2.705-14.278 4.208-14.878 3.757-14.277 3.457-12.324 5.41 2.405 2.405 186.66 2.105 227.99-.15 15.78-.902 56.959-1.954 91.675-2.555 34.717-.45 63.573-1.052 64.024-1.503.6-.3 2.104-2.705 3.456-5.41s3.156-6.012 3.757-7.214c.752-1.202 3.607-7.064 6.313-12.774 2.705-5.862 5.41-11.573 6.161-12.775.602-1.202 1.654-3.306 2.105-4.509 1.352-3.607 5.26-12.474 7.514-16.982 1.202-2.405 2.104-5.711 2.104-7.515s1.052-4.659 2.254-6.162c3.307-4.208 2.856-10.97-.6-11.873-2.405-.6-2.706-1.803-1.955-8.716.602-8.266 5.561-18.636 7.966-16.983.751.45 1.352 3.156 1.352 6.012 0 7.664 3.607 5.71 4.66-2.555.45-3.607 1.502-9.018 2.404-11.873 3.457-10.52 5.26-18.636 6.462-29.908.752-6.312 2.104-14.127 2.856-17.433 4.81-19.388 7.665-80.405 4.659-100.544-1.052-6.763-2.405-18.485-3.006-26.3-.902-12.023-1.503-14.578-4.358-16.833-1.804-1.502-2.555-3.005-1.653-3.607 2.254-1.352 1.803-18.185-.752-24.346-1.202-2.856-2.254-6.914-2.254-8.717s-1.052-5.861-2.255-8.717c-1.202-3.006-2.254-7.214-2.254-9.168 0-2.104-.902-6.011-2.104-8.716-1.202-2.706-3.607-9.92-5.56-15.93-1.804-6.013-3.908-11.273-4.51-11.723-.75-.451-1.352-2.405-1.352-4.359s-.902-5.41-2.104-7.815c-1.202-2.254-3.156-6.613-4.358-9.468-5.561-12.474-16.232-35.468-17.584-37.572-.752-1.203-3.156-5.711-5.26-9.77-4.51-8.716-5.26-10.069-13.827-22.993-3.607-5.26-6.462-9.92-6.462-10.37s-1.954-3.307-4.208-6.313c-2.405-3.005-4.81-6.612-5.26-8.115-1.353-3.607-5.411-4.96-8.868-2.705-3.607 2.254-4.96-.752-3.607-8.266 1.052-4.81.451-6.162-6.162-13.827-9.317-11.121-53.352-55.156-62.069-62.22-12.925-10.52-31.41-24.497-39.075-29.757-4.208-2.855-8.717-6.162-9.769-7.214-1.052-.901-2.555-1.803-3.006-1.803-.6 0-3.907-1.954-7.364-4.208-3.306-2.255-7.214-4.66-8.416-5.26-1.202-.601-4.96-2.705-8.266-4.509-3.306-1.954-8.416-4.659-11.272-6.162a169 169 0 0 0-7.514-4.058c-1.202-.751-3.757-2.104-5.711-2.855-1.954-.752-7.364-3.306-12.023-5.41-4.66-2.105-10.52-4.81-13.075-5.862-2.405-.902-7.064-3.006-10.22-4.358s-6.913-2.405-8.416-2.405-3.607-1.052-4.66-2.254c-1.051-1.202-3.005-2.254-4.508-2.254-1.352 0-8.566-1.954-15.93-4.51-7.365-2.404-14.879-4.508-16.683-4.508-1.803 0-5.56-.902-8.265-2.104S712.592 12.353 704.326 11s-18.485-3.456-22.694-4.659-12.323-2.104-18.034-2.104-17.133-1.052-25.399-2.254c-16.532-2.405-55.757-2.705-67.63-.451M302.153 140.099c1.352 1.654 1.352 2.856-.15 5.26-2.105 3.457-3.908 3.457-6.313-.15-1.052-1.803-.902-3.156.451-4.809 2.555-3.006 3.757-3.006 6.012-.3m761.514 250.232c-1.653 2.705-5.41 1.954-5.41-1.052 0-1.503.45-3.307 1.052-3.908 1.503-1.503 5.56 3.006 4.358 4.96m12.625 31.56c0 1.654-.601 3.307-1.353 3.758-1.803 1.202-5.11-3.156-3.907-5.11 1.653-2.555 5.26-1.653 5.26 1.353M231.366 575.638c-1.052 2.856-5.71 3.307-5.71.601 0-1.502 1.352-2.404 3.155-2.404s2.856.751 2.555 1.803m784.81 8.266c0 2.856-7.214 4.058-9.919 1.804-2.104-1.654-1.954-2.255 1.052-4.509 2.705-1.954 4.058-2.104 6.162-.902 1.503 1.052 2.705 2.555 2.705 3.607m-773.538 25.249c1.202 2.705-1.653 4.659-3.757 2.555-1.653-1.654-.451-4.81 1.803-4.81.601 0 1.503 1.052 1.954 2.255m-23.295 7.664c2.705 1.203 4.81 3.157 4.81 4.359 0 2.104-9.318 9.769-11.873 9.769-1.052 0-1.654-3.457-1.654-8.266 0-9.168.902-9.769 8.717-5.862m-4.508 32.613c.3 2.856-.15 4.058-1.804 4.058-2.555 0-4.659-5.11-3.156-7.514 1.653-2.706 4.509-.752 4.96 3.456m506.023 62.07c2.104 1.352 3.306 3.005 2.855 3.757-1.052 1.803-8.115 1.803-8.115 0 0-.752-.451-2.405-.902-3.757-1.202-3.156 1.503-3.006 6.162 0m-199.133 2.705c0 2.705-5.861 4.659-7.815 2.705-2.254-2.254 0-4.81 4.208-4.81 2.104 0 3.607.902 3.607 2.105" style="stroke-width:.150289"/>
</svg>
