<svg xmlns="http://www.w3.org/2000/svg" width="780" height="960">
    <path d="M280.386-90a172 172 0 0 0-24.17 2.271h-.074a15.68 15.68 0 0 0-13.77 12.818l-.074.22a34.23 34.23 0 0 1-8.79 15.748 9.238 9.238 0 0 1 .953 13.99 9.44 9.44 0 0 0-1.392 7.691A100.3 100.3 0 0 0 245.082-7.01v.073a107 107 0 0 0 11.06.586 106 106 0 0 0 30.47-4.395 434.5 434.5 0 0 1 89.947-14.21 18.96 18.96 0 0 1 14.65 3.516c5.512.3 7.577-4.47 10.84-7.47v-.294a5.21 5.21 0 0 1 3.662-4.98c5.476-6.038 9.83-13.331 20.143-13.331 6.638-.075 7.467-7.9 9.23-13.038 1.574-4.65-1.848-7.106-5.86-8.643a102 102 0 0 1-21.389-13.478 144.4 144.4 0 0 1-43.288-4.395l-.147-.073h-.073a39.8 39.8 0 0 0-13.844-2.417c-.525 0-1.088-.038-1.538 0a660 660 0 0 1-68.339-.44zM400.145 38.33a9.47 9.47 0 0 0-7.032 3.15v-.074a29.33 29.33 0 0 1-17.652 6.519 232.3 232.3 0 0 0-57.426 9.23l-.44.292c-.262.863-.576 1.125-.951 0l-1.978-.879c-17.214 1.538-34.538 2.925-51.639 4.688a122.2 122.2 0 0 0-45.34 8.57c-5.55 2.737-10.737 5.557-12.012 12.232s-7.193 8.754-12.818 10.254c-6.113 1.65-11.775 2.914-10.987 11.427.337 3.863-3.556 4.307-6.52 4.907l-1.684 3.736c1.538 2.588.383 4.183-1.904 5.42-2.925 3.3-1.205 5.45 1.758 7.325a6.6 6.6 0 0 1 1.684-.22 6.32 6.32 0 0 1 4.761 2.124c1.163 3.6-1.6 4.506-3.662 6.007-1.05 6.037-8.769 5.606-11.207 11.719 8.862-.897 16.644 2.656 24.904 2.417a9.95 9.95 0 0 1 5.2-1.465 9.1 9.1 0 0 1 2.71.44 53.45 53.45 0 0 0 30.398-2.93 200.5 200.5 0 0 1 35.891-5.42 240 240 0 0 0 37.722-6.007h-.22a24.2 24.2 0 0 1 8.277-1.391 23 23 0 0 1 4.395.366h5.493a63.5 63.5 0 0 1 20.73-2.417c38.552-2.438 77.035-4.867 115.363-9.742h-.44a92 92 0 0 1 12.086-.732 88.7 88.7 0 0 1 32.302 5.932 24.39 24.39 0 0 0 22.633-3.589 12.3 12.3 0 0 1 5.713-2.636l.146-.22c1.8-6.788 3.511-13.665 13.112-11.94 3.637-.974 8.344-.118 8.57-6.006a4.08 4.08 0 0 1 2.563-2.27c14.52-3.49 28.345-9.168 43.142-11.646a69 69 0 0 1 10.84-2.418 10.158 10.158 0 0 0 10.768-11.206v-.074a5 5 0 0 1-.44-.879 4 4 0 0 0 .44.88h.073l.367-.66a13 13 0 0 0-1.099-.952c-7.238.563-13.27 5.41-20.582 5.86a111.7 111.7 0 0 1-43.948 4.395l.073.073c-1.163 1.387-2.214 1.54-3.076-.147l-16.774-.952a6.5 6.5 0 0 1-3.223.952 6.65 6.65 0 0 1-3.955-1.318l-7.325-.366c-12.488-2.325-24.98-4.334-37.355-6.959a385.7 385.7 0 0 1-69.292-27.54h-.073a11.6 11.6 0 0 1-3.662-2.418 9.47 9.47 0 0 0-7.398-3.442m-83.208 18.678a.73.73 0 0 0-.367.146c.375 1.163.69.938.953 0a.73.73 0 0 0-.586-.146m102.032 110.016c-14.55 9.113-6.018 25.182-13.33 36.77-6.751-9.038-13.897-15.297-24.172-7.984-3.188-.675-4.285-3.072-5.86-4.834-3.525-3.9-6.928-5.828-11.353-.953a6.92 6.92 0 0 1-10.548.147 18 18 0 0 0-8.57-5.347c-4.2 13.313-16.407 12.7-27.32 14.65l-3.37.365a82.9 82.9 0 0 1-30.617 5.787c-1.2 0-2.357-.036-3.37-.073a52.4 52.4 0 0 0-18.604 5.2c-9.675 3.075-19.987 4.99-29.738 7.764l-.806 1.685c5.1 14.926-9.48 17.805-15.967 25.343.375 6.338 4.855 5.337 8.643 5.787a13.78 13.78 0 0 1 9.448 6.885c-1.162 6.338-6.55 7.82-11.426 8.57h-.073a22.54 22.54 0 0 0-15.162 8.936 358.7 358.7 0 0 0-39.334 44.314 65.2 65.2 0 0 0-8.203 18.165c-2.176 10.763-11.29 17.054-17.14 25.417a48.9 48.9 0 0 0-9.376 19.557 372 372 0 0 0-9.888 70.463v.22a91 91 0 0 0 2.637 19.63 422.6 422.6 0 0 1 8.496 63.431 86.8 86.8 0 0 0 12.892 35.305c7.575 13.388 17.645 24.57 25.783 37.283 3.6 5.55-.576 12.315 3.662 18.165l.586-.147a11.914 11.914 0 0 1 14.063 9.376v.073a10.81 10.81 0 0 0 8.643 7.178l.147.074a16.4 16.4 0 0 1 9.083 5.64 454 454 0 0 0 51.419 37.429 9.24 9.24 0 0 0 4.175 1.758 67.66 67.66 0 0 1 32.448 20.216 17.25 17.25 0 0 0 9.375 5.2c10.051.338 19.788 10.026 30.251 1.026 1.838-1.5 4.671.09 6.959.952a33.78 33.78 0 0 0 29.811-.952 20.2 20.2 0 0 1 9.01-2.125h.805a61.4 61.4 0 0 0 16.554-4.541c12.75-3.713 21.032-14 33.107-18.238 10.989-3.826 16.39-.82 15.602 10.694-.15 2.212-.45 5.3 1.538 5.713 8.85 1.875 13.513 9.44 21.388 16.04-1.312-8.062-8.487-11.492-7.325-18.018.713-1.237 1.841-2.206 3.004-1.83a88.3 88.3 0 0 1 35.231 19.556 54 54 0 0 0 11.866 8.35 133.3 133.3 0 0 1 31.496 21.461c2.1.15 3.785 3.395 6.373.733-.825-5.176-6.572-5.41-9.01-9.01l-.146-.073a29.1 29.1 0 0 1-11.207-7.984 1.32 1.32 0 0 1-.879-.586 352 352 0 0 1-31.496-21.388 9.23 9.23 0 0 1-3.37-8.57v-.146c8.782 3.097 13.12 12.634 23.073 16.847-1.387-7.95-7.656-9.705-10.694-14.43-3.037-4.725-7.794-8.56-8.057-15.235a13.76 13.76 0 0 1 15.236 2.49 143.6 143.6 0 0 0 36.843 17.36c-.263-3.188-3.478-3.69-5.128-5.64-7.388-5.288-16.931-5.943-24.244-11.793a22.85 22.85 0 0 1-9.303-12.965c5.926-1.95 4.411 5.207 8.424 6.52a14.53 14.53 0 0 1 15.528.878c7.538 4.088 15.167 8.138 22.78 0 .45-.487 2.28.216 3.442.366 2.363-2.362 1.615-5.317 1.465-8.13l-6.006-4.248c-11.85 7.425-16.246 6.093-19.996-5.42 9.338-1.35 19.55-6.953 26.076 5.273 5.325.375 8.236 6.243 14.649 7.105-2.513-6.263-7.615-8.875-10.84-13.038-5.251-1.762-8.251-7.162-14.064-7.837-.15-2.888-.29-5.245-.44-8.057-8.85-.638-18.217 2.603-25.343-5.347 3.6-.6 7.051 2.902 10.914.952 2.663-2.1-.967-6.016 2.783-8.716 8.438 1.2 17.806-3.11 26.882 3.003 2.1-6.263-4.607-11.95 1.318-14.65 1.163-9.6-13.781-8.793-10.181-19.556 12-1.126 20.37-9.854 30.983-12.892-.6-7.425-6.547-4.324-10.035-7.325l.513-1.098a187 187 0 0 1 10.182-18.092v-.073a31.7 31.7 0 0 0 6.592-19.338 30 30 0 0 0-.586-6.299 39.95 39.95 0 0 1 5.86-32.96c1.912-1.013 3.037 1.16 4.687 1.61 5.513 1.613 7.477-.296 7.252-6.372l.073-.732a12.2 12.2 0 0 0-4.029-9.01l-.366-.293a15.99 15.99 0 0 1-3.809-22.266c-3.3-6.75-11.285-7.091-15.748-12.38l4.615-11.352c3.45-1.8 8.678 2.427 10.328-4.249-7.838-5.138-18.024-1.683-25.637-6.445-1.537-5.288 5.508-5.787 4.908-10.475-1.013-3.45-6.305-1.879-7.618-6.08 4.125-3.224 11.922-.277 14.21-8.715-11.626-.676-25.08 4.534-33.18-7.691.674-4.538 5.25-5.063 6.225-9.376-.487-3.675-7.626-4.892-5.713-10.254 2.288-4.163 5.9.804 8.863-2.271 1.575-9.413-8.07-16.747-5.933-27.248a13.85 13.85 0 0 1-14.576-7.105c2.512-7.425 10.117-7.377 15.968-9.815 1.575-2.587 9.018-.506 5.493-7.031a17.5 17.5 0 0 1-8.497 2.197 18.4 18.4 0 0 1-3.369-.293 18.29 18.29 0 0 1-.66-19.337c-7.875-5.325-7.822-5.333-3.735-15.309-1.237-2.887-4.06.196-5.86-1.904-.974-2.738 3.116-3.923 3.004-6.885-.188-.338-.358-1.054-.733-1.392-8.25-7.5-18.545-13.023-22.633-24.61v-.074a21.1 21.1 0 0 0-6.812-8.204c-7.125-5.888-11.124-14.824-19.337-19.85a15.3 15.3 0 0 1 3.662-8.936l1.832-5.273c-1.988-1.8-2.577.355-3.59.805l-8.35 13.038c-6.3.375-9.774-4.65-14.649-6.226-.675-6.038 8.109-12.329-1.904-17.579 3.712-.225 6.234 2.04 9.009.952 1.388-4.5 7.098-8.147 2.71-13.697-2.963-1.837-5.183-.07-7.471 1.392-1.125 1.762-1.418 4.113-3.443 5.2-9.3 4.988-9.466 5.34-4.028 13.478a22.44 22.44 0 0 1-20.216-5.933c-5.513-7.126 1.398-12.163 4.248-18.239-6.788-3-11.848 2.412-17.286 2.637-2.963-3.188-.592-6.867-1.905-10.767-5.812 3.975-5.914-3.777-9.815-5.127-6 4.425 1.58 10.8-3.296 15.674-1.95-.637-.635-4.571-3.223-4.834-2.812-.937-3.934 2.68-6.372 2.417-8.25-10.425 4.92-20.347 1.245-31.935m-72.66 3.662a3 3 0 0 0-.66 1.905 2.88 2.88 0 0 0 1.026 2.197c1.762-2.175 1.771-2.19-.367-4.102m252.188 62.48a4.69 4.69 0 0 0-3.81 2.05v.074a13.647 13.647 0 0 1-19.556 5.64l-.073-.074a15.74 15.74 0 0 0-14.284 0c8.288 6.413 7.542 17.743 15.455 23.293h.147a21.22 21.22 0 0 0 12.745-11.134 33.8 33.8 0 0 1 8.863-12.452c.937-2.137 4.4-3.283 2.637-6.958a5 5 0 0 0-1.978-.44zm-60.942 18.311c-5.25.188-7.332 3.405-8.57 8.13 4.688.826 5.533-3.716 8.57-4.54zm11.94 5.054c-.68-.126-1.664.192-2.564.586-.863 2.325-3.183 4.362-1.758 7.325h.073a6.95 6.95 0 0 0 4.98-5.713c.357-1.5-.052-2.071-.732-2.198m37.355 7.618-.146.073a13.8 13.8 0 0 0-9.449 9.962c2.663 1.2 3.986-.806 5.786-.806l3.81-9.156zM353.926 295.13a150 150 0 0 1 37.502 3.956l1.319.22a194.8 194.8 0 0 1 53.25 20.142 95.5 95.5 0 0 1 15.528 13.331c.263 4.05-4.044 5.865-3.369 10.328 2.475 3.337 5.822 2.212 9.01 0a21.229 21.229 0 0 1 33.546 16.48 93.8 93.8 0 0 0 9.742 27.102 398 398 0 0 1 23.805 57.205c2.1 8.738 1.939 9.414-7.324 10.914a5.48 5.48 0 0 0-5.054 3.589c2.587 6.825 8.33 1.837 12.305 3.15 1.388 3.112-2.567 3.992-2.417 7.104h.073a14.3 14.3 0 0 1 6.52 10.548c-8.064-1.575-12.046 2.248-12.233 9.449a96.95 96.95 0 0 1-22.633 55.52 19.7 19.7 0 0 0-3.663 7.325c-1.35 5.85-3.718 9.95-10.694 7.325-7.238 7.425-19.62 7.968-24.684 18.019a8.84 8.84 0 0 1-7.105 6.006 9.76 9.76 0 0 0-7.324 3.443c-6.9 10.313-16.856 5.235-25.856 6.885-1.238-6.826 2.972-11.843 1.172-17.506-5.288.975-4.6 5.27-5.274 8.57-.825 4.2-2.378 7.566-7.178 8.203s-6.618 4.728-8.643 7.691a8.7 8.7 0 0 1-1.758.22 7.44 7.44 0 0 1-4.908-1.905 15.2 15.2 0 0 0-9.595-3.442 14.8 14.8 0 0 0-6.006 1.245 47.04 47.04 0 0 1-40.872-6.739c-4.125-1.987-7.534-7.944-12.672-3.369a18.92 18.92 0 0 0-7.544 16.627c.15 1.763 1.271 3.474.146 5.274a36.39 36.39 0 0 1-31.13-17.067c1.388-3.525 5.986-.316 8.424-5.566-12 4.2-20.03-3.162-29.518-7.325.562-2.813 3.585-1.505 3.735-2.93-9.675-18.264-29.91-24.89-42.922-39.553 5.625-7.613 15.074-11.211 14.136-21.974a58.7 58.7 0 0 1-23.292-22.194h.073a13.3 13.3 0 0 1-2.49-5.786 223.5 223.5 0 0 1 7.105-106.72 123.48 123.48 0 0 1 72.148-71.343 149.9 149.9 0 0 1 56.62-12.452m243.545 2.93c-1.66-.337-3.594.316-5.713 1.685-1.05 6.375 4.38 5.336 6.592 5.786 6.375 6.713-5.49 9.212-.952 16.188 3.863-7.913 12.03-8.606 17.506-13.331 1.237-8.626-.541-9.492-13.404-6.08-.994-2.606-2.37-3.91-4.029-4.248m24.83 14.796c-1.678-.502-3.645.025-5.932 1.318-1.763 3.563-6.014 4.854-7.252 8.717-.187 3.337 2.593 4.352 4.468 6.152h.074a18.6 18.6 0 0 0 7.837-2.124c3.563-2.1 6.784-4.198 4.834-9.449-.975-2.625-2.35-4.112-4.028-4.614m-3.369 32.668c-1.204.76-2.181 2.254-2.856 3.736.225 2.587 2.201 3.123 3.589 4.248l2.93-.66c1.687-2.212 4.18-4.858.805-6.958-1.819-1.181-3.263-1.126-4.468-.366m-4.028 10.108-2.124.586c.075 1.387-1.5 2.74 0 4.614 3.825-.3 4.299-2.087 2.124-5.2m-19.118.073c-3.15 8.588-12.454-1.215-15.455 6.885a19.87 19.87 0 0 1 12.379 2.784 11.21 11.21 0 0 0 13.33-3.15c-2.924-2.775-7.666-1.531-10.254-6.519m-177.403.733a8.44 8.44 0 0 0-6.885 7.324c.337 2.7 2.057 4.59 4.907 4.102 3.863-.675 7.15-2.567 6.812-7.105a4.353 4.353 0 0 0-4.321-4.321zm209.925 8.716a7.3 7.3 0 0 0-2.784.366v.074c-1.35 2.587-5.772 4.717-1.684 8.13 3.318 2.796 6.033.372 8.35-2.051a15 15 0 0 0 1.831-3.15 7.3 7.3 0 0 0-5.713-3.369m-223.036 6.226c-4.313.675-5.898 2.793-4.248 8.643 5.175-1.687 8.786-2.943 4.248-8.643m179.82 8.204c-1.71-.132-3.456.073-5.2.073-7.388 6.825-7.066 8.952 2.197 12.965 2.025-2.063 2.82-5.394 5.933-6.52 1.275-1.274 2.806-2.289 1.831-4.614-1.425-1.312-3.05-1.773-4.76-1.904m-162.24 2.27a1.505 1.505 0 0 0-1.466 1.538v.293a2.433 2.433 0 0 0 2.417 2.418h.074c.45-.638 1.355-1.301 1.318-2.051v-.147a2.017 2.017 0 0 0-2.05-2.05zm3.368 9.522c-1.668.024-3.592.975-5.786 2.344 1.838 4.388 2.987 8.539 8.35 6.739a3.89 3.89 0 0 0 2.637-3.662 3.93 3.93 0 0 0-.879-2.418c-1.256-2.137-2.653-3.026-4.322-3.003m212.196 1.539c-3.966.525-7.615 5-11.646 13.55h.073c.563 6.075 7.389 5.997 10.914 9.522-5.663 3.75-14.555.295-15.455 9.596a25.78 25.78 0 0 0 29.152-10.694c-6.563-4.2 2.082-7.48.732-11.793-5.494-7.276-9.804-10.707-13.77-10.181m-152.353 14.722c-2.925 2.475-6.086 4.579-4.248 9.23 3.675 2.474 7.645 2.67 9.595-1.905 1.725-4.276-1.222-6.575-5.347-7.325m24.098 16.993c-6.375 2.325-7.39 5.358-1.465 9.596 3.488-2.738 8.065-5.283 1.465-9.596m10.474 3.443c-2.287.187-2.937 1.97-2.637 3.882a2.5 2.5 0 0 0 2.49 2.05 2.8 2.8 0 0 0 .953-.146 3.02 3.02 0 0 0 2.417-3.003v-.293a3.3 3.3 0 0 0-3.15-2.49zm125.252 5.42a12.3 12.3 0 0 0-5.2 1.172c-4.276 1.725-10.774 2.204-8.937 9.742 11.889 4.8 19.08 3.947 25.417-3.516l-.146-.366a12.28 12.28 0 0 0-11.134-7.032m-44.17 21.097a3.38 3.38 0 0 0-3.296 2.784v.073a2.6 2.6 0 0 0-.146.659 2.93 2.93 0 0 0 2.93 2.93h.586a3.31 3.31 0 0 0 3.222-2.784h-.073c.222-2.364-1.023-3.345-2.564-3.589zm32.888 16.554c-6.938 1.087-15.958-3.139-19.484 7.325 3.15 4.837 8.29 5.294 12.452 7.544l.806.073a10.72 10.72 0 0 0 11.353-10.035c-.75-2.812-3.14-3.67-5.127-4.907m-112.653 1.978a13.35 13.35 0 0 0-11.866 7.983c9.825 2.476 11.511 1.651 14.136-7.837a13.4 13.4 0 0 0-2.27-.146m-113.9 106.718a3.666 3.666 0 0 0-3.442 4.028 4.56 4.56 0 0 0 4.614 4.542h.073l.586.073a3.345 3.345 0 0 0 3.297-3.37l-.074-.659a4.75 4.75 0 0 0-4.468-4.614h-.073a4 4 0 0 0-.513 0m65.117 145.321c-.6 1.8.518 2.405 1.83 2.93.488.6.973 1.343 1.685.293l-.952-1.026h.073c-.375-1.312-.686-2.722-2.636-2.197m6.226 6.885c-1.126 1.238-.2 1.989.512 3.077.713 1.087 1.225 2.938 3.663 1.025-1.5-1.388-1.738-3.502-4.175-4.102M243.324 742.96a290 290 0 0 0-43.729 2.71c-2.325 1.163 2.04 3.876-.585 5.713-6.226 1.163-13.828-2.039-17.653 5.274.938 4.575 5.368 4.575 7.618 7.837-3.45 4.426-3.748 8.993 3.003 12.819-4.8 2.662-10.255 3.441-10.255 9.741 4.688 1.988 10.703.611 15.016 4.249-2.738 4.275-5.18 8.332-7.618 12.232h.074c3.637 7.313 8.22 11.295 16.846 9.082a9.132 9.132 0 0 1 12.306 6.3v.073a4.264 4.264 0 0 0 3.808 3.443c15.264.787 25.344 13.045 39.407 17.432a56.8 56.8 0 0 0 50.76-2.49h.073a5.1 5.1 0 0 1 2.564-.66l.879.074c7.5 1.5 15.474.43 22.487 2.417a26.27 26.27 0 0 0 27.174-10.474 14.05 14.05 0 0 1 14.283-4.981A61.7 61.7 0 0 1 395.53 828l.074.074a16.19 16.19 0 0 0 16.26-1.026 55.3 55.3 0 0 1 28.273-7.764l1.612.073c9.45.225 18.896.032 28.346.22 7.276.112 14.69 1.437 19.191-6.739 1.125-2.1 4.155-2.11 6.592-2.71a19.57 19.57 0 0 0 10.035-4.175 31.63 31.63 0 0 1 22.267-10.987 48.3 48.3 0 0 1 .22-15.309c2.175-7.612-.185-10.972-7.911-11.572-34.052-2.588-67.977-6.163-102.179-7.325-38.177-1.275-75.914-5.713-113.679-10.401a290 290 0 0 0-61.307-7.398zm128.474 126.717a19.03 19.03 0 0 0-10.474 3.515v-.073a27.14 27.14 0 0 1-13.624 6.592c-2.175.488-4.484.755-5.347 2.93-2.7 6.788-8.368 5.86-13.843 5.86-3.226-.037-6.662-1.457-9.962 1.318a15.58 15.58 0 0 1-8.716 12.965h-.074c-.9 4.125 2.287 8.214-1.538 10.914-3.45 2.438-2.862 6.479-4.175 9.742-2.925 7.425.468 14.371.806 21.534a17.566 17.566 0 0 0 15.089 17.653 252 252 0 0 0 27.98 4.468 90.06 90.06 0 0 0 49.368-1.685 32.95 32.95 0 0 1 22.34-.952l-.586-.073a86 86 0 0 0 10.401 1.83h.66a247 247 0 0 1 53.69 9.01l.439.147a58.9 58.9 0 0 0 18.75 3.076h.22c6.113-.3 12.945-.68 15.382-7.618a15.665 15.665 0 0 0-4.834-18.897c-5.363-4.275-11.637-8.732-7.325-17.433l.074-.806a5.03 5.03 0 0 0-1.319-3.442 96.1 96.1 0 0 0-26.735-24.391l-.44-.147a76.3 76.3 0 0 1-19.043-13.038c-5.738-5.55-10.038-12.743-17.726-15.968a87.05 87.05 0 0 1-36.257-1.025c-7.8-2.85-14.147-8.758-23.073-3.882-.862.487-2.712-1.13-4.175-1.392a19 19 0 0 0-5.933-.732m89.508 138.509a9.4 9.4 0 0 0-4.542 1.245 70.8 70.8 0 0 1-34.206 2.637c-13.576-1.425-28.704-7.485-38.454 8.716a4.6 4.6 0 0 1-2.417 1.465c-5.386 1.881-6.098 5.647-4.908 10.694a51.4 51.4 0 0 1 2.124 14.796 45 45 0 0 1-.22 4.688c-5.1 1.5-8.116-7.576-13.404-1.538 2.025 5.4 9.49 6.946 9.303 13.697-.225 3.563-4.783 3.506-5.42 7.032.112 2.062 2.085 3.084 3.735 4.321l.66.147a95.4 95.4 0 0 1 40.138 21.68l.074.074a10.6 10.6 0 0 1 1.465 3.003l5.2 2.71c3.188.375 4.371 4.355 8.497 4.468a13.53 13.53 0 0 1 20.655 1.978 51.8 51.8 0 0 0 26.442-11.793 45.1 45.1 0 0 0 1.758-19.044c.188-8.1 1.43-9.182 9.156-8.057 3.113.45 6.066 1.343 8.204-2.857-7.126-13.276-18.957-25.397-14.87-43.435-6.3-.825-7.866-5.1-9.741-9.376a9.41 9.41 0 0 0-9.23-7.251z" style="stroke-width:37.5022"/>
</svg>
