<svg xmlns="http://www.w3.org/2000/svg" width="949" height="960">
    <path d="M120.554 0v38.788h707.394V0zm-.623 78.945V747.24c0 40.165 18.658 67.725 46.072 92.207 85.367 76.537 185.821 128.574 289.134 176.07 5.579 2.837 12.133 4.483 19.114 4.483 7.932 0 15.42-2.182 21.79-5.915l.188-.062c100.987-46.074 199.16-98.365 283.966-172.085 29.964-24.705 48.874-61.784 48.874-103.351 0-2.319-.07-4.651-.187-6.911v-.312c-1.527-231.633-1.12-438.922-1.12-652.419zm113.686 212.68H357.39v42.149h-35.364v252.587h36.235v42.586H233.617v-42.212h36.485V334.148h-36.485zm166.67 0H535.95v42.149h-37.916l58.96 86.167 58.462-86.167h-39.41v-42.15h129.749v42.15h-41.963L581.15 455.367l89.903 131.368h43.706v42.15H576.606v-42.15h38.912l-61.761-90.961-61.887 90.961h41.03v42.15H397.796v-42.15h45.699l85.98-126.263-85.856-126.324h-43.333z" style="stroke-width:31.8769"/>
</svg>
