<svg xmlns="http://www.w3.org/2000/svg" width="1200" height="960">
    <path d="M776.42 880.9c-53.062 19.212-72.732 24.243-118.475 31.562-50.317 8.234-78.22 7.777-130.825-2.287-34.765-6.861-73.19-17.84-87.827-25.616-17.383-9.149-38.882-7.776-49.86 3.202q-17.154 17.154 8.233 27.446c6.862 2.744 18.298 7.776 25.16 11.436 6.403 3.66 15.094 6.404 19.211 6.404 3.66 0 13.723 2.744 21.957 6.404 47.573 20.127 153.24 26.988 217.28 13.723 59.466-11.894 119.847-32.478 134.028-45.286 8.69-7.776 8.69-8.691 1.372-17.383-13.723-14.637-21.042-16.467-40.254-9.606m177.484-276.747c-5.947 2.287-10.521 6.862-10.521 10.064 0 3.66-5.032 15.552-11.436 26.53s-12.808 23.33-14.638 26.99c-5.947 13.722-42.084 57.636-64.04 78.22-32.936 31.105-54.892 46.658-93.774 65.87-29.733 14.18-35.68 18.755-35.68 27.904 0 15.095 9.149 14.18 47.573-5.032 39.797-20.127 46.2-23.787 69.53-42.084 48.03-37.51 89.2-87.827 116.188-142.719 19.212-38.881 18.297-53.977-3.202-45.743m-720.913-1.83c-5.947 5.49-3.202 16.01 13.265 48.488 40.254 80.966 102.923 143.176 183.43 183.43 34.765 17.383 45.286 19.67 48.488 10.521 2.745-8.691-1.83-21.499-8.233-21.499-5.947 0-48.946-21.957-76.391-39.34-22.872-14.637-82.796-75.018-97.89-98.804-6.405-10.064-18.756-32.02-27.447-48.488-16.925-33.393-26.988-42.999-35.222-34.308m773.517-332.095c-10.063 10.52-10.52 23.786-1.83 39.796 9.15 18.298 16.926 41.627 21.5 64.956 2.287 11.436 5.947 28.818 8.234 38.881 7.319 27.446 5.946 103.838-1.83 140.89-9.606 42.998-25.159 94.23-30.19 97.432-14.638 8.692 8.233 51.233 24.243 45.286 10.064-4.117 32.02-62.21 47.116-123.964 5.946-26.53 7.319-46.658 5.489-105.21-2.745-88.284-12.35-129.91-44.371-198.525-4.574-10.063-19.212-10.063-28.36.458m-835.27-3.66c-5.49 5.947-10.064 13.266-10.064 16.468s-2.744 11.436-6.404 17.84c-18.755 36.594-34.765 118.017-34.765 176.569 0 47.572 9.606 112.528 21.042 139.059 3.66 8.234 6.404 17.84 6.404 21.042 0 10.978 22.872 58.093 29.276 60.38 10.063 3.66 25.616-14.637 25.616-29.732 0-7.32-2.745-19.213-6.404-26.531-11.436-22.872-16.925-43.914-26.531-95.146-12.808-70.445-7.319-134.028 18.297-205.845 16.925-48.03 17.84-61.753 4.575-74.561L181.3 256.047zM574.693 407c-36.595 16.925-51.69 47.115-45.744 88.742 3.66 24.244 26.074 48.945 53.52 57.636 15.095 5.032 22.414 5.032 39.796.458 49.403-13.266 74.104-65.413 51.69-109.327-10.978-21.041-20.584-29.275-45.285-38.881-24.244-9.606-30.648-9.606-53.977 1.372m-70.445-13.723c0 2.287-2.287 4.574-5.49 4.574-8.233 0-30.647 27.904-40.71 49.86-11.436 26.532-11.894 79.136-.458 103.838 15.095 33.392 32.02 55.349 56.264 73.189 36.595 26.53 50.775 31.105 100.178 31.562 38.881 0 46.2-1.372 69.53-13.265 35.222-17.84 81.422-66.785 63.125-66.785-2.287 0-10.978 6.861-19.67 15.553-8.233 8.233-26.53 21.041-40.254 27.903-21.499 10.978-30.19 12.808-63.583 12.35-47.573 0-74.104-10.52-105.209-42.083-31.105-30.648-42.084-57.637-42.084-103.38 0-37.967 4.117-49.86 27.446-83.252 5.947-7.777 8.691-14.638 5.947-14.638s-5.032 1.83-5.032 4.574m59.466-91.944c-37.51 6.404-73.646 27.446-98.348 57.637-9.606 11.435-16.01 22.414-14.18 24.244s5.947 0 8.691-3.66c6.862-8.691 37.052-31.563 58.094-43.456 13.265-7.319 24.244-9.149 61.753-9.149 52.605 0 71.817 7.32 104.752 40.254 32.02 32.02 40.712 53.977 40.712 99.263 0 38.424-3.66 51.69-25.617 83.253-10.978 16.467 2.288 13.723 17.383-3.202 26.074-29.276 34.307-50.775 34.307-91.03 0-30.19-1.83-39.338-14.18-63.582-14.638-29.733-35.222-54.435-54.435-64.956-46.2-24.7-78.678-32.02-118.932-25.616M414.591 205.73c-35.222 17.382-65.412 49.403-86.912 91.486l-16.467 32.935 10.063 19.213 10.521 18.754-10.063 37.51c-11.436 45.285-12.808 106.124-2.745 135.857 9.606 28.36 9.606 48.945 0 63.583-9.148 14.18-7.319 25.159 9.606 61.296 11.893 25.159 49.86 67.242 67.243 74.561 5.489 2.745 13.265 6.404 16.925 8.692 3.66 2.287 15.552 7.776 26.073 11.893 18.755 7.776 19.212 7.776 31.563-1.83 15.095-11.893 19.212-11.893 61.753-.457 44.829 11.893 95.146 11.893 142.72-.458l37.509-10.063 18.754 10.063 18.755 10.064 30.19-14.638c43.457-21.042 75.934-51.69 93.774-88.285 16.01-32.477 17.84-50.317 7.776-64.04-8.69-11.436-8.69-28.36 0-53.062 9.606-26.989 9.606-117.56 0-140.432s-10.063-49.86-.915-59.923c4.575-4.575 7.777-11.894 7.777-16.01 0-12.808-26.989-64.498-42.541-81.423-17.84-18.755-50.775-45.286-57.18-45.286-2.286 0-10.52-3.202-17.382-6.861-16.925-8.692-40.254-8.692-47.573 0-3.202 3.659-11.435 6.861-18.297 6.861-6.861 0-21.5-3.202-32.02-6.861-13.266-4.575-37.052-6.862-74.104-6.862-37.967 0-59.009 2.287-70.902 6.862-20.127 8.69-37.51 8.69-48.945 0-13.266-10.064-33.85-7.777-64.956 6.861m274.917 84.625c43.456 20.584 80.05 57.636 101.55 102.922 15.552 32.478 16.467 37.052 16.467 83.253.458 49.402-1.372 57.179-23.786 103.837-10.978 23.329-59.009 70.902-82.795 81.423-51.233 23.329-54.892 24.243-97.433 24.243-120.762 0-209.047-87.826-209.047-208.131 0-41.169 5.032-61.753 25.617-102.922 12.35-24.702 60.838-69.53 91.029-84.168 53.062-25.616 123.964-26.073 178.398-.457M426.485 124.307c-42.542 23.787-70.445 43.456-98.806 71.36-26.988 26.53-52.604 56.721-58.093 69.53-1.83 3.659-7.32 12.807-12.351 20.584-5.032 7.318-10.064 16.924-11.436 20.584s-5.947 12.808-9.606 19.67c-10.064 20.127-8.234 30.648 5.032 30.648 8.69 0 12.808-4.117 18.754-17.383 16.01-37.052 18.298-41.626 40.254-71.817 20.127-27.446 52.148-60.38 80.508-81.88 29.276-22.872 74.104-48.488 84.625-48.488 7.32 0 16.925-17.382 12.808-24.244-4.116-6.861-27.446-1.83-51.69 11.436m300.075-15.553c-1.372 1.373-2.745 6.862-2.745 11.894 0 7.318 8.692 13.723 38.425 27.446 46.2 21.499 86.912 53.519 122.591 96.06 22.872 26.989 51.69 77.306 60.381 104.752 4.117 12.35 28.361 9.149 26.531-3.66-1.83-12.807-27.445-64.04-43.913-89.199-18.297-26.988-77.764-86.912-103.837-103.38-43.456-28.36-91.944-49.86-97.433-43.913M508.822 7.204c-11.435 3.202-25.158 6.405-30.648 6.405s-16.925 2.744-25.158 6.404-26.989 11.435-42.084 17.382c-14.638 5.49-27.903 13.266-28.818 16.468-3.66 9.606 16.925 28.36 31.105 28.36 6.862 0 13.723-1.83 15.095-4.116 3.202-4.575 51.233-20.128 94.689-30.191 33.85-7.776 115.73-9.149 143.633-1.83 10.064 2.287 27.446 5.947 38.882 8.234 23.33 4.574 46.658 12.35 64.955 21.5 16.925 9.148 29.733 7.776 40.712-3.203 10.063-10.063 10.063-21.956-.458-26.988-3.66-1.83-13.723-6.404-21.956-10.521-8.692-4.117-18.298-7.776-21.5-7.776-3.66 0-13.265-2.745-21.499-6.405-8.234-3.659-29.733-9.606-47.573-13.723-42.541-9.606-159.644-9.606-189.377 0"/>
</svg>
