<svg xmlns="http://www.w3.org/2000/svg" width="1692" height="960">
    <path d="M1281.963 342.067c-2.513 8.166-4.397 72.87-4.397 143.855 0 128.15 3.77 167.727 15.076 150.138 3.141-5.026 5.654-19.474 5.654-32.666 0-25.756 13.192-36.435 30.781-24.5 19.474 13.82 89.832 45.858 92.972 42.717 1.885-1.884-.628-6.91-5.025-11.935-26.384-26.384-65.332-76.011-65.332-82.293 0-8.167 103.651-27.64 157.048-28.897 20.73-.628 44.601-3.14 53.396-5.654 15.076-4.397 14.448-5.025-9.423-12.563-27.012-7.539-81.037-16.333-150.766-23.871-36.435-4.398-43.973-6.91-46.486-16.962-1.256-6.91 1.885-15.076 6.282-18.845 11.308-8.795 55.91-64.076 55.91-69.101 0-8.167-20.103-2.513-48.371 13.82-50.884 29.525-62.82 33.294-67.217 22.615-1.884-5.654-3.769-17.59-3.769-26.384 0-9.423-2.513-20.73-5.654-25.756-4.397-6.91-6.91-5.025-10.679 6.282m-883.862-9.423c-2.513 2.513-4.397 13.82-4.397 25.128s-1.885 24.5-3.77 30.153c-4.397 10.679-16.332 6.91-67.216-22.615-28.896-16.961-48.37-21.987-48.37-13.82 0 5.653 43.973 60.306 55.28 69.1 5.026 3.77 8.167 11.936 6.91 18.846-2.512 10.051-10.05 12.564-46.485 16.961-69.73 7.539-123.754 16.333-150.766 23.872-23.871 7.538-24.5 8.166-9.423 12.563 8.795 2.513 32.666 5.026 53.396 5.654 53.396 1.257 157.048 20.73 157.048 28.897 0 6.282-38.948 55.909-65.332 82.293-4.397 5.025-6.91 10.05-5.025 11.935 3.14 3.141 73.498-28.897 92.972-42.717 17.589-11.935 30.78-1.256 30.78 24.5 0 13.192 2.514 27.64 5.654 32.666 11.308 18.217 15.705-23.243 15.077-158.304 0-125.638-3.77-157.676-16.333-145.112M840.975 12.896c-3.141 9.423-8.795 31.41-11.308 48.999-5.025 27.64-7.538 31.409-21.986 33.294-15.077 1.884-18.218-1.885-27.64-26.384-15.706-40.833-23.872-37.064-29.526 15.076-1.884 13.192-12.564 20.73-64.703 46.486-50.884 25.128-70.986 39.576-109.933 78.524-44.602 45.858-62.82 74.126-96.741 153.278-13.192 30.781-20.103 145.74-11.308 192.854 11.308 61.563 31.41 108.049 72.87 163.957 47.743 64.076 118.728 114.331 200.392 140.087 6.91 2.512 10.68 10.05 10.68 23.87 0 11.308 3.14 25.129 6.282 30.154 5.653 8.166 6.91 8.166 12.563 0 3.141-5.025 6.282-12.564 6.282-16.333 0-12.564 23.871-28.897 36.435-25.128 12.564 4.398 19.474 20.73 20.102 47.743.628 20.102 15.705 47.742 21.359 38.948 1.884-3.77 5.653-23.872 7.538-44.602 3.14-28.897 6.91-38.948 15.705-41.46 18.845-6.282 34.55 6.91 42.717 34.55 9.422 31.41 14.448 28.269 19.473-10.68 3.141-31.409 1.885-30.152 65.96-59.049 82.921-37.691 144.484-96.741 184.688-177.777 25.756-51.512 44.601-126.895 44.601-176.522 0-47.742-22.615-136.317-45.23-179.034-35.178-66.588-113.702-142.599-174.636-170.239-73.498-32.666-72.242-31.41-75.383-66.588-4.397-42.717-10.05-46.486-19.473-13.192-10.68 35.807-16.962 43.973-36.435 41.46-15.077-1.884-16.333-5.025-21.359-45.857-5.654-50.255-12.564-61.563-21.986-36.435m-201.65 266.352c-44.6 55.28-58.42 96.113-57.793 174.637 0 51.511-1.884 63.447-8.794 63.447-5.026 0-9.423-4.398-9.423-9.423s-4.397-9.423-10.051-9.423c-11.308 0-10.051 11.307 5.025 50.255 53.397 140.715 198.508 226.776 339.223 201.02 25.127-4.397 52.14-11.935 59.678-16.332 7.538-5.026 16.96-8.795 20.102-8.795 11.307 0 65.96-38.948 87.318-62.19 54.024-59.05 101.766-163.958 74.126-163.958-5.654 0-10.05 4.397-10.05 9.423s-3.77 9.423-8.796 9.423c-7.538 0-8.794-8.167-5.653-42.717 6.282-79.152-11.936-138.202-65.96-206.674-22.615-29.525-16.961-43.345 8.795-19.474 27.012 24.5 68.472 82.292 81.036 111.817 15.705 37.064 19.474 41.46 30.781 32.038 11.936-10.05 13.192-6.282 22.615 52.768 6.91 43.973 6.91 58.422-1.885 105.536-14.448 77.267-41.46 130.035-95.484 183.431-70.986 70.985-147.625 103.651-245.622 103.651-70.986 0-117.472-13.192-189.085-52.768-40.832-22.615-133.804-132.548-133.804-157.675 0-4.397-5.026-16.961-10.68-28.897-8.166-16.333-10.679-38.32-11.307-96.741 0-90.46 4.397-112.446 21.987-106.792 10.679 3.14 15.076-1.257 27.012-26.384 28.896-61.563 57.165-99.254 91.715-122.497 28.269-18.846 25.756-5.026-5.025 33.294m261.956 62.819c119.984 54.024 129.407 206.046 16.333 275.775-28.897 18.218-104.28 18.846-138.202 1.256-70.357-36.435-103.023-124.381-70.985-193.482 24.499-54.024 84.805-95.485 139.458-96.113 13.192-.628 37.063 5.026 53.396 12.564" style="stroke-width:.628189"/>
</svg>
