<svg xmlns="http://www.w3.org/2000/svg" width="1250" height="960">
    <path d="M735.678.015c-4.204.154-9.996 1.46-18.098 3.775-9.772 2.572-12.853 6.682-12.853 18.512 0 13.374 2.054 15.436 18 18.008 9.772 2.057 23.144 6.166 29.316 9.252 6.173 3.6 15.944 6.179 21.602 6.179 5.143 0 16.46 3.08 24.69 7.195 7.716 4.115 23.66 11.832 34.976 16.975S855.944 92.256 858 95.342c2.058 3.6 9.777 6.69 16.463 6.69 13.374 0 23.146-12.864 23.146-31.38 0-9.259-1.543-9.77-7.715-4.627-6.172 5.144-10.293 3.087-23.666-9.772-10.801-10.801-19.03-15.431-25.203-13.374-6.687 2.058-11.31-.516-14.91-7.203-4.116-7.2-10.808-9.772-21.61-9.772-9.773.514-19.025-3.086-22.626-7.715-6.687-9.773-18.007-11.832-18.007-3.602 0 9.773-14.396 5.149-16.968-5.138-1.608-6.751-4.22-9.69-11.227-9.434m-218.32.43c-9.086-.281-12.463 1.803-14.263 9.004-2.572 10.287-16.975 14.91-16.975 5.138 0-8.23-11.313-6.171-18 3.602-3.6 4.629-12.86 8.23-22.634 7.715-10.801 0-17.486 2.571-21.601 9.772-3.6 6.687-8.232 9.26-14.919 7.203-6.172-2.057-14.401 2.573-25.203 13.374-13.373 12.859-17.486 14.916-23.658 9.772-6.172-5.143-7.715-4.632-7.715 4.626 0 18.517 9.77 31.382 23.658 31.382 6.687 0 13.888-3.6 15.43-7.716 2.058-4.114 7.206-7.715 12.35-7.715s11.83-3.6 15.43-7.715c3.601-4.115 10.282-7.716 14.911-7.716 5.144 0 13.375-3.6 19.033-7.715 5.143-4.115 14.914-7.715 21.601-7.715s16.974-2.578 23.146-6.179c6.172-3.086 19.552-7.197 29.324-8.74 13.888-2.571 18.516-6.172 19.545-15.43C549.39 9.96 542.19 3.272 521.615.7a82 82 0 0 0-4.257-.256M183.73 11.076c-1.136.124-2.17.943-3.134 2.486-3.6 5.658 4.627 19.546 56.577 92.585 12.344 18.002 22.634 34.462 22.634 36.52 0 5.143-18.518 24.686-26.748 27.772-5.144 2.057-5.146 3.6.512 7.715 7.716 5.658 3.606 16.463-7.195 16.463-3.6 0-7.715 3.6-9.772 7.715-1.543 4.115-6.178 7.716-10.293 7.716s-9.253 4.626-10.797 10.284c-1.543 5.658-5.661 10.285-8.747 10.285s-2.57 3.606 1.544 8.235c5.658 7.201 4.628 9.768-7.203 18.512-8.23 6.173-13.886 14.92-13.886 22.122 0 7.2-5.144 16.968-11.317 22.626-8.23 8.23-9.26 12.344-5.146 17.488 4.63 5.143 2.578 10.287-7.195 21.089-11.316 11.316-12.349 14.922-6.69 21.609 5.657 6.686 4.632 9.766-4.627 16.967l-11.83 8.748 15.432 11.317c8.744 6.172 16.456 11.317 18 11.317 4.114 0 23.658-46.812 23.658-56.584 0-8.23 7.721-26.742 21.609-51.431 2.057-4.115 5.14-10.806 6.683-14.406 9.773-24.69 17.485-37.035 45.26-73.04 15.43-19.545 27.776-30.861 34.463-30.861 5.658 0 10.292 2.056 10.292 4.114 0 2.571 9.253 16.975 20.57 32.406 11.315 15.43 24.175 32.924 28.804 39.096 8.23 11.316 8.23 11.311 46.292-25.723 33.947-33.433 47.32-55.032 32.918-55.032-2.572 0-23.14-13.377-45.772-29.836-22.117-15.945-56.067-39.604-74.584-52.463-19.031-12.86-48.865-33.95-67.382-47.837-18.002-13.373-34.462-24.17-36.52-24.17s-6.171-3.605-9.772-8.748c-2.571-3.536-4.744-5.262-6.638-5.056m884.131 2.102c-3.857-.257-10.29 2.958-18.52 9.644-8.744 7.201-31.37 23.657-51.43 37.545-19.546 13.373-51.955 36.008-72.015 49.381-19.546 13.888-52.98 36.518-73.04 50.406-20.574 13.888-37.544 26.747-37.544 28.805s13.37 17.483 29.829 33.943c15.945 16.973 34.463 37.55 40.121 45.78 6.172 8.229 13.377 13.374 16.463 11.316 2.572-1.543 18.518-22.63 34.463-46.804 16.46-24.175 32.405-43.723 36.52-43.723 6.686 0 53.487 57.092 53.487 65.837 0 2.571 3.6 7.716 7.716 11.316s7.715 10.29 7.715 14.919 2.578 11.31 6.178 14.91c5.658 5.659 9.768 15.952 30.342 75.617 5.658 16.974 12.347 32.916 14.918 35.488 2.058 2.057 11.313-1.03 20.057-7.716l16.463-11.829-11.83-9.26c-9.258-6.687-10.287-9.775-5.658-14.918 5.144-5.144 4.117-9.767-6.17-22.626-9.259-12.86-10.808-18.005-6.179-22.634 4.63-5.144 4.118-7.718-2.569-12.862-4.63-3.6-10.286-12.857-11.83-21.601-2.056-8.23-9.773-20.063-16.974-26.235-11.83-9.773-12.345-12.342-5.659-20.057 6.687-8.23 6.178-8.745-5.138-5.658-8.744 2.057-10.806 1.545-6.69-2.57 6.686-6.686 2.055-19.544-7.204-19.544-3.6 0-8.74-3.09-10.797-6.691-2.057-4.115-8.232-8.227-12.861-10.285-9.773-3.6-12.858-13.886-4.114-13.886 9.258 0 5.655-9.26-5.146-12.861-18.003-5.658-11.827-26.233 24.178-80.755 18.517-29.318 34.979-56.581 36.008-61.21 2.057-7.202.768-10.925-3.09-11.182m-435.21 50.594c-3.022-.835-6.878 5.337-12.793 18.196-5.658 12.345-10.292 27.777-10.292 34.463 0 6.173-3.601 20.062-7.716 30.35-4.115 9.772-7.715 23.146-7.715 28.804 0 6.172-3.08 20.056-7.196 31.886-7.715 23.146-16.979 56.584-23.666 87.446-10.801 47.835-19.543 69.952-33.43 84.868-16.46 17.489-23.145 19.54-160.478 53.488-62.237 15.43-97.73 24.693-122.933 31.894-14.402 4.114-31.89 7.203-38.577 7.203s-15.942 2.566-20.057 5.138c-6.687 4.115-6.175 5.663 2.57 12.35 5.657 4.114 17.485 9.253 25.715 10.796 8.744 1.543 27.266 6.177 41.153 10.292 30.347 8.23 74.067 20.57 112.129 30.342 133.733 35.49 142.473 38.581 160.99 58.641 9.773 10.802 17.488 24.175 17.488 30.861 0 6.173 3.6 20.062 7.715 30.35 4.115 9.772 7.715 22.626 7.715 28.284s3.6 21.608 7.716 35.495c4.115 13.888 11.316 36.519 15.43 50.406 4.115 13.888 7.716 29.83 7.716 35.488s3.6 18.52 7.715 28.292c4.115 10.287 7.716 25.203 7.716 32.918 0 27.775 8.234 30.862 20.064 7.716 6.172-11.83 10.797-25.206 10.797-30.35 0-5.143 3.088-19.547 7.203-32.405 4.115-12.86 10.801-36 15.43-51.431 15.946-59.666 25.208-90.532 31.894-110.592 4.115-11.83 7.196-24.69 7.196-28.804 0-15.431 33.436-41.66 64.812-50.919 36.519-10.801 69.435-19.543 97.21-25.715 30.347-6.687 63.783-15.436 90.015-23.666 12.859-4.115 28.289-7.195 34.975-7.195 6.687 0 16.976-2.573 22.634-5.659s20.572-7.202 33.43-9.26c47.321-6.686 30.348-14.402-117.787-54.007-34.976-9.259-76.636-20.574-112.64-30.862-15.946-4.629-32.41-8.227-37.553-8.227-27.26 0-75.096-41.152-75.096-64.812 0-7.201-3.6-21.087-7.716-31.374-4.114-9.773-7.715-23.146-7.715-28.804s-3.08-22.118-7.195-36.52-10.804-40.123-14.919-57.097-10.8-42.689-13.886-56.577c-3.6-14.402-8.235-35.492-10.292-47.836-2.572-15.174-4.754-23.019-7.776-23.855m463.501 485.751c-1.543 0-7.201 10.8-13.373 23.658-5.658 13.374-10.292 28.29-10.292 32.919 0 8.23-7.714 26.749-21.602 51.438-2.057 4.115-5.14 10.8-6.683 13.886-9.773 25.204-17.492 37.547-45.267 73.552-13.374 16.974-27.26 30.861-31.374 30.861-6.172 0-49.381-51.436-49.381-59.665 0-5.658-31.888-43.722-35.488-42.179-1.543 1.03-21.086 20.065-43.203 43.21l-40.121 41.66 56.576 40.633c30.862 22.117 71.498 50.92 90.015 63.78 19.032 12.859 48.865 33.949 67.382 47.836 18.002 13.374 35.49 24.179 38.576 24.179 2.572 0 5.139 2.052 5.139 5.138 0 2.572 3.6 5.146 7.715 5.146 11.316 0 9.778-4.632-12.854-36.007-58.636-81.783-61.724-87.44-55.552-100.3 3.086-7.2 9.773-13.887 15.43-15.43 9.774-3.601 12.859-12.854 4.115-12.854-9.259 0-5.147-11.322 4.626-13.894 5.658-1.543 11.318-5.658 12.861-9.772 1.544-4.115 6.176-7.196 10.805-7.196 6.687 0 9.77-6.174 8.228-16.975 0-2.058 3.086-3.602 7.715-3.602 7.201 0 7.203-1.026 1.545-8.227s-4.635-9.776 7.195-18.52c8.23-6.172 13.894-14.913 13.894-22.114s5.144-16.976 11.317-22.634c8.23-8.23 9.253-12.344 5.138-17.487-4.63-5.144-2.57-10.288 7.203-21.09 11.316-11.315 12.341-14.914 6.683-21.6-5.658-6.688-4.625-9.775 4.634-16.976l11.83-8.748-15.432-11.31c-8.744-6.171-16.457-11.316-18-11.316m-943.201 1.929c-3.847.288-11.385 4.562-18.136 10.413l-14.398 11.829 11.83 7.715c9.258 6.687 10.801 9.775 5.658 14.919-5.144 5.143-4.117 9.774 6.17 22.633 9.259 12.86 10.8 17.997 6.171 22.626-4.63 5.144-4.11 7.718 2.577 12.862 4.63 3.6 10.286 12.857 11.83 21.601 2.057 8.23 9.766 20.063 16.967 26.235 11.83 9.773 12.345 12.342 5.658 20.057-6.686 8.23-6.17 8.745 5.146 5.659 8.744-2.058 10.806-1.538 6.691 2.577-6.687 6.686-2.063 19.544 7.195 19.544 4.115 0 8.75 3.6 10.293 7.715 2.057 4.115 6.171 7.716 9.772 7.716 10.801 0 14.91 10.797 7.195 16.455-5.658 4.115-5.656 5.658-.512 7.716 8.23 3.086 26.748 22.636 26.748 27.78 0 3.6-24.69 40.114-61.723 92.064-22.632 31.375-24.178 36.007-12.862 36.007 4.115 0 7.716-2.574 7.716-5.146 0-3.086 2.574-5.138 5.146-5.138 3.086 0 20.574-10.805 38.576-24.179 18.517-13.887 48.35-34.977 67.382-47.836 18.517-12.86 36.515-25.719 39.601-28.805 3.6-3.086 13.38-9.767 21.61-14.91 51.95-32.92 88.977-69.439 70.974-69.439-2.571 0-19.545-14.921-38.576-33.438-19.032-18.517-36.518-33.43-39.09-33.43-4.114 0-31.89 39.093-57.608 80.242-4.115 6.687-11.827 12.341-16.456 12.341-9.258 0-52.468-50.41-60.698-70.47-2.572-5.658-7.2-12.341-9.772-14.398-3.086-1.543-5.659-7.198-5.659-12.342 0-5.143-3.08-12.344-7.195-15.43s-8.23-11.316-9.772-17.488c-5.658-25.204-32.41-93.1-37.04-94.129-.386-.129-.86-.17-1.409-.128m720.993 306.685c-6.686 0-13.887 3.6-15.43 7.715-2.058 4.115-7.198 7.716-12.342 7.716-5.143 0-11.83 3.6-15.43 7.715-3.601 4.115-10.29 7.715-14.919 7.715-5.144 0-13.374 3.6-19.032 7.716-5.144 4.115-14.915 7.715-21.602 7.715-6.686 0-16.973 2.57-23.146 6.17-6.172 3.087-19.544 7.198-29.316 8.741-13.888 2.572-18.516 6.172-19.545 15.43-2.572 15.431 4.629 22.12 25.203 24.691 12.345 1.029 16.462-.51 18.52-8.74 2.572-10.287 16.968-14.919 16.968-5.146 0 8.23 11.32 6.171 18.007-3.601 3.6-4.63 12.853-8.23 22.626-7.716 10.802 0 17.494-2.571 21.61-9.772 3.6-6.687 8.223-9.26 14.91-7.203 6.172 2.057 14.402-2.572 25.203-13.374 13.373-12.859 17.494-14.916 23.666-9.772s7.715 4.632 7.715-4.626c0-18.517-9.778-31.374-23.666-31.374m-496.532.09c-7.887.136-16.404 3.606-19.876 9.682-2.572 5.658-5.146 15.43-5.146 21.602 0 9.258 1.543 9.77 7.715 4.626s10.285-3.087 23.658 9.772c10.802 10.802 19.031 15.431 25.203 13.374 6.687-2.057 11.318.516 14.919 7.203 4.115 7.201 10.8 9.772 21.601 9.772 9.773-.514 19.033 3.086 22.634 7.716 6.687 9.772 18 11.83 18 3.601 0-9.773 14.403-5.143 16.975 5.659 2.572 9.258 5.148 10.289 20.065 7.203 21.603-4.63 25.715-8.75 23.658-23.666-1.029-9.259-5.657-12.86-19.545-15.431-9.772-1.543-23.152-5.654-29.324-8.74-6.172-3.6-15.943-6.17-21.601-6.17-5.144 0-16.461-3.089-24.691-7.204-7.715-4.115-23.66-11.832-34.975-16.975s-22.626-12.343-24.683-15.943c-2.7-4.276-8.453-6.186-14.587-6.08" style="stroke-width:3.85767"/>
</svg>
