<svg xmlns="http://www.w3.org/2000/svg" width="1430" height="960">
    <path d="M716.758 646.495c-1.69.725-4.67 2.738-4.67 2.738s-.11 4.285 2.236 5.241c4.328 1.623 2.164 5.95-5.003 9.601-6.492 3.381-13.118 7.709-18.662 12.442-10.548 9.195-16.363 13.252-22.178 16.092-3.786 1.758-7.843 3.787-8.925 4.463-1.082.811-4.328 2.434-7.168 3.651-6.896 2.975-24.07 19.338-27.451 25.829-2.975 5.815-12.577 16.633-14.876 16.633-.811 0-2.299.812-3.11 1.894-1.893 2.299-18.391 10.277-21.367 10.277-5.814 0-22.854 14.064-30.156 24.883a673 673 0 0 1-9.06 12.576c-3.246 4.192-5.815 8.25-5.815 9.06s-1.488 3.787-3.381 6.492-3.38 5.814-3.38 6.896c0 .947-1.488 3.787-3.382 6.356-4.462 6.086-4.327 10.413.812 18.121 4.057 5.95 18.256 17.04 22.042 17.04 3.652 0 25.559 17.444 44.897 35.835 3.651 3.516 8.925 7.979 11.9 10.007 10.143 6.762 11.09 7.573 16.904 12.982 3.11 2.976 8.25 7.032 11.36 9.061 8.654 5.544 20.149 14.74 29.345 23.26 11.765 10.818 14.875 12.306 25.288 12.306 8.114 0 10.142.405 12.847 2.975 1.893 1.758 3.921 3.11 4.733 3.11s6.761 5.544 13.252 12.306c10.954 11.495 11.9 12.306 15.01 10.818.805-.37 2.732-1.506 2.732-1.506s.514-1.485.514-2.145c0-1.217 3.381-5.274 7.438-9.06 5.274-4.869 7.438-7.708 7.438-10.278 0-5.815 1.893-7.302 7.032-6.356 3.516.677 6.22 0 11.089-2.569 3.516-1.893 7.437-3.38 8.79-3.38 3.38 0 15.822-10.278 17.85-14.74 2.705-5.816 31.915-31.645 41.245-36.378 5.545-2.84 10.954-8.384 19.474-19.879 7.032-9.737 22.042-24.477 30.02-29.615 4.058-2.435 9.197-6.356 11.63-8.655 2.435-2.299 5.68-4.598 7.033-5.004s4.327-4.327 6.356-8.52c3.516-7.302 3.786-8.924 4.192-29.074l.54-21.231-4.191-6.22c-4.463-6.897-19.474-17.04-28.67-19.474-2.84-.811-5.273-1.893-5.273-2.434s-3.516-2.705-7.708-4.733c-7.573-3.516-10.819-6.356-38-34.078-5.274-5.41-9.06-7.979-13.93-9.331-3.65-1.082-7.978-2.975-9.6-4.057-1.623-1.217-4.057-2.164-5.274-2.164s-3.246-1.217-4.598-2.704c-1.353-1.488-5.274-4.328-8.655-6.356-3.38-1.893-7.708-5.004-9.601-6.897-6.627-6.491-20.555-16.498-22.854-16.498-1.353 0-4.193-1.623-6.221-3.516q-3.854-3.449-6.897-2.84c-2.163.406-4.192-.54-6.085-2.57-1.758-1.757-3.787-3.245-4.733-3.245-.812 0-2.57-1.487-3.787-3.38-1.622-2.57-3.38-3.381-6.896-3.381-2.435 0-5.004-.677-5.41-1.353-1.082-1.758-1.758-1.623-7.032.676m9.06-247.742c-10.412 5.544-15.957 10.548-25.152 23.26-2.705 3.65-7.708 8.925-11.09 11.494-9.465 7.438-11.494 9.466-20.825 21.096-10.412 12.982-18.526 20.69-21.501 20.826-1.217 0-2.975.946-4.057 2.163-.947 1.082-3.922 3.246-6.491 4.598-2.705 1.352-12.171 9.737-21.096 18.527-14.605 14.334-19.744 18.526-36.918 29.345-2.434 1.623-5.815 5.274-7.303 8.249s-8.655 11.224-15.957 18.256c-7.167 7.032-15.687 16.363-18.797 20.555-6.356 8.384-19.473 20.014-22.854 20.014-2.705 0-4.057 1.217-17.174 14.74-25.559 26.37-31.644 32.997-32.32 34.89-.541 1.082-2.029 3.651-3.516 5.68-1.623 1.893-5.274 6.761-8.25 10.683-4.868 6.49-11.494 11.765-20.149 16.092-7.032 3.651-12.712 8.79-17.31 15.417-6.355 9.466-8.248 11.765-15.01 17.985-11.765 10.954-19.068 19.068-19.068 21.367 0 2.84 5.41 7.843 15.958 14.875 8.52 5.68 10.683 6.085 14.605 3.11 4.462-3.38 9.871-2.434 14.875 2.57 5.274 5.274 5.68 7.573 1.893 10.953-1.487 1.353-2.704 3.787-2.704 5.41 0 3.245 2.299 4.733 7.437 4.733 6.627 0 8.52 12.17 2.705 17.58-2.164 2.028-3.38 4.598-3.38 7.167 0 2.434-1.488 5.68-4.058 8.655-2.163 2.434-4.057 5.95-4.057 7.708 0 2.164-.946 3.516-2.84 3.922-2.298.676-2.704 1.622-2.298 5.95.27 4.057.946 5.138 3.11 5.138s2.84-1.081 3.11-5.814c.406-5.004.812-5.68 3.787-5.68 1.758 0 4.192-1.082 5.274-2.434 6.761-7.708 9.871-12.036 10.277-14.47.406-1.488 1.758-2.84 3.246-3.11 3.786-.676 8.79-5.68 8.79-8.52 0-1.352 1.622-3.38 3.786-4.462 2.029-1.218 5.139-4.193 7.032-6.762 2.029-2.975 4.598-4.868 6.356-4.868 1.487 0 5.41-2.164 8.52-4.733 9.871-8.25 25.829-25.153 26.37-27.858.27-1.352 4.597-7.167 9.6-12.576 5.004-5.545 10.82-12.712 12.983-15.958 4.733-7.032 27.993-27.992 30.968-28.128 3.38 0 14.2-9.33 19.473-16.633 2.434-3.651 7.843-9.06 11.765-11.9 7.438-5.545 17.174-15.822 17.31-18.121 0-1.758 15.416-18.256 17.039-18.256.676 0 6.626-5.545 12.982-12.171 6.491-6.762 12.441-12.17 13.388-12.17s4.598-3.111 7.978-6.762c5.274-5.68 7.032-6.762 11.09-6.762 3.65 0 5.408-.811 7.031-3.38 1.217-1.894 3.11-3.381 4.192-3.381s2.57-1.217 3.381-2.705 2.3-2.705 3.516-2.705c1.082 0 9.331-7.573 18.391-16.903 9.005-9.363 14.118-14.597 18.25-16.363 1.098-.47 3.228-1.37 3.228-1.37s1.99.949 3.066 1.439c2.852 1.3 6.017 4.247 10.616 8.585 5.41 5.004 13.93 12.712 19.068 17.04 5.004 4.327 11.9 11.494 15.281 15.957 3.922 5.003 8.384 9.06 11.9 10.683 10.413 5.003 13.659 7.032 21.096 13.253 14.335 11.9 23.801 20.825 29.751 28.263 4.733 5.815 32.32 34.619 55.85 58.42 15.011 15.145 20.961 20.284 23.395 20.284 4.057 0 12.441 8.25 22.99 22.584 10.142 13.793 29.615 27.722 34.483 24.611 1.082-.676 3.516-1.217 5.68-1.217 3.922 0 4.868 2.705 2.299 6.762-.811 1.217-.676 2.299.406 2.975 2.569 1.623 7.437 1.217 8.654-.676.541-1.082 3.246-3.787 5.95-6.22 5.275-4.463 8.655-4.463 10.008 0 1.217 3.786 4.192 3.11 6.085-1.353 1.893-4.733 20.42-23.395 27.181-27.452 2.57-1.487 7.168-4.868 10.413-7.438 8.925-7.302 8.25-9.466-7.708-24.747-7.303-7.032-15.822-16.768-18.932-21.501-3.787-5.95-7.573-9.872-12.577-12.983-3.922-2.569-8.79-5.815-10.818-7.302-1.893-1.623-4.057-2.84-4.733-2.84-3.787-.135-15.281-14.064-15.281-18.662 0-3.786-1.623-5.815-17.85-20.69-5.004-4.598-11.901-12.17-15.417-16.769-4.733-6.49-7.573-9.06-12.17-10.818-6.222-2.299-20.556-16.498-24.613-24.342-2.434-5.003-3.786-5.95-15.822-12.306-15.01-7.843-24.341-15.957-29.074-25.017-1.353-2.705-4.869-6.897-7.709-9.331s-11.63-10.683-19.473-18.392-14.875-14.064-15.687-14.064c-.81 0-3.65-1.893-6.49-4.056-2.84-2.3-5.816-4.057-6.627-4.057-2.299 0-12.847-10.548-21.772-21.637-8.114-10.278-10.007-12.036-20.826-20.961-3.245-2.705-8.113-7.708-10.683-11.224-7.573-10.278-14.064-16.363-21.366-20.69-4.45-2.532-8.879-4.422-8.879-4.422s-3.137 1.204-5.185 2.258m5.137-221.153s-4.923 1.75-8.112 4.107c-2.704 2.028-8.924 8.656-13.793 14.742s-12.44 13.791-16.903 17.172c-4.463 3.516-9.466 8.25-11.09 10.683-8.383 11.9-23.395 27.86-26.506 27.995-.811 0-3.379 1.486-5.542 3.38-2.164 1.892-5.275 3.786-6.898 4.462-1.623.541-9.872 7.708-18.256 15.822-8.384 8.249-16.903 16.363-18.932 18.256-3.65 3.11-6.762 7.167-13.117 17.31-1.623 2.433-4.328 4.734-6.492 5.14-1.893.405-4.463 1.352-5.544 2.028-1.082.676-3.786 2.299-5.814 3.65-2.029 1.218-6.223 4.598-9.198 7.303-2.975 2.84-5.95 5.138-6.626 5.138s-4.057 3.787-7.573 8.385c-3.516 4.733-7.978 9.737-9.87 11.224-4.599 3.651-19.07 18.527-19.07 19.61 0 2.84-14.874 17.58-19.878 19.743-2.434 1.082-4.463 2.569-4.463 3.245 0 .811-.946 1.353-2.028 1.353-2.975 0-15.956 12.17-33.807 31.643-4.462 5.004-10.818 10.279-14.199 11.901s-7.573 4.328-9.467 6.086-3.787 3.11-4.328 3.11c-.676 0-1.081.676-1.081 1.487 0 1.758-11.224 15.01-20.96 24.883-3.787 3.651-9.06 9.465-11.765 12.846-8.925 11.224-20.015 21.5-25.695 24.07-7.437 3.246-19.338 14.201-27.317 24.884-3.38 4.733-9.194 11.089-12.98 14.334-3.652 3.246-9.603 10.277-12.983 15.55-3.516 5.41-7.573 11.225-9.196 12.983-3.38 3.787-15.956 13.388-19.472 14.74-5.815 2.3-13.524 9.332-17.175 15.687-2.299 3.787-10.549 13.254-18.527 21.097-17.58 17.174-18.12 18.797-7.708 27.046 3.786 2.975 7.438 5.41 8.114 5.41 1.893 0 20.284 17.174 23.8 22.313 2.976 4.327 3.787 4.731 8.655 4.46 6.626-.27 9.332 1.895 6.898 5.682-4.328 6.897.405 7.302 7.707.675 6.356-5.815 11.494-7.438 22.448-7.438 6.491 0 8.52-.54 9.736-2.57.812-1.352 3.246-2.838 5.139-3.379 4.327-1.082 11.63-8.115 20.015-19.34 3.516-4.732 10.817-12.845 16.497-18.119 5.545-5.274 10.142-10.143 10.142-10.82s2.029-3.921 4.598-7.167c4.057-5.409 7.843-8.924 22.854-22.041 2.164-1.893 6.087-4.328 8.791-5.41 5.274-2.164 19.88-16.498 21.232-20.826.54-1.352 2.568-3.515 4.732-4.597 3.651-1.893 12.17-10.007 25.964-25.017 4.192-4.463 7.438-6.763 9.602-6.763 3.245 0 15.821-8.52 15.821-10.683 0-1.758 12.037-16.363 20.962-25.423 12.712-12.847 26.37-28.668 26.37-30.697 0-.383.605-2.127.605-2.127s-2.045-.881-2.77-1.525c-2.84-2.3-1.488-12.441 2.57-18.391 1.622-2.3 9.195-8.25 17.174-13.118 7.843-5.003 18.527-12.036 23.666-15.687 5.274-3.651 13.658-9.601 18.932-13.117 5.138-3.652 14.334-11.36 20.284-17.31 10.548-10.412 21.773-19.066 31.24-24.07 2.569-1.217 5.408-3.516 6.22-5.138 2.704-4.192 10.006-8.25 13.252-7.304 2.163.676 4.327-.675 9.195-5.273 8.114-7.844 16.094-14.065 19.34-15.012 1.352-.54 2.569-1.216 2.569-1.757s1.623-2.84 3.516-5.003c7.937-9.35 12.288-13.718 14.885-15.071.633-.33 1.612-.783 1.612-.783s.785.463 1.345.759c2.011 1.062 5.325 3.868 8.391 7.252 3.922 4.327 9.332 8.79 12.036 10.142 8.655 4.328 14.471 8.384 20.556 14.334 3.246 3.246 8.52 7.303 11.63 9.196s7.167 5.544 9.196 8.114c2.028 2.569 5.002 5.409 6.49 6.085 2.84 1.217 5.544 2.974 19.743 12.44 2.975 2.029 5.545 4.328 5.545 5.004s1.893 3.382 4.057 5.816c2.299 2.57 4.057 5.274 4.057 6.085 0 1.353 14.199 16.228 24.341 25.423 6.762 6.086 9.873 9.601 12.308 14.334 4.868 9.331 24.61 29.751 37.728 39.082 5.545 3.922 12.982 9.602 16.362 12.577 3.516 3.11 9.603 8.249 13.524 11.63 3.922 3.38 10.142 8.924 13.928 12.305 3.787 3.38 8.927 7.573 11.226 9.196 2.434 1.622 7.708 7.437 11.765 12.711 4.057 5.41 9.601 11.902 12.17 14.336 2.705 2.57 4.868 5.41 4.868 6.085.135 2.3 22.72 21.636 27.047 23.124 5.815 2.028 22.177 15.957 29.75 25.423 11.224 14.064 12.576 15.417 21.366 24.207 4.733 4.733 10.685 11.63 13.254 15.552 6.626 9.872 14.47 16.634 19.338 16.634 5.544 0 14.468 7.573 15.55 13.117.544 2.644 4.19 7.013 4.19 7.013s2.59.154 4.601.154c1.623 0 4.056 1.893 5.814 4.598 12.306 18.256 22.585 21.772 22.585 21.772s1.622-9.467-1.894-12.848c-1.893-1.758-3.382-4.596-3.382-6.49 0-1.758-1.216-4.735-2.703-6.628-1.894-2.434-2.704-5.543-2.704-9.87 0-3.517-.947-9.06-2.029-12.306-2.028-5.545-1.895-6.087.404-9.332 2.3-2.84 3.787-3.38 9.602-3.38 2.319 0 6.057 1.373 6.057 1.373s1.998-3.259 3.544-5.836c2.975-4.868 8.114-5.816 12.712-2.3 3.786 2.84 9.332 2.57 13.389-.675 1.893-1.488 3.921-2.704 4.598-2.704 1.893 0 9.87-7.845 9.87-9.738 0-.947-6.626-8.113-14.74-15.956-7.978-7.844-16.632-17.31-18.931-21.232-3.922-6.22-16.364-17.985-19.069-17.985-2.299 0-14.604-9.06-18.39-13.523-2.164-2.57-6.355-8.384-9.33-12.847-2.976-4.462-10.684-13.523-17.175-20.15-6.626-6.49-11.901-12.577-11.901-13.523 0-1.758-10.142-11.63-22.989-22.448-4.868-4.057-9.601-8.655-10.683-10.142-4.733-6.897-18.12-18.257-22.989-19.61-6.22-1.622-7.708-2.975-20.15-17.174-5.409-6.085-12.981-14.2-16.903-18.256-3.921-3.922-10.142-10.682-13.658-15.01-3.651-4.192-7.304-7.707-8.25-7.707-1.083 0-2.975-1.352-4.327-3.11-2.299-2.975-6.085-5.546-13.252-8.792-4.328-2.028-11.766-9.6-20.016-20.419-4.192-5.544-10.952-12.847-15.009-16.228-4.057-3.38-9.197-8.655-11.36-11.63-8.52-11.359-11.765-14.604-15.822-16.362-2.3-.947-6.897-4.192-10.142-7.167-3.381-3.11-7.302-5.545-8.79-5.545-3.651 0-8.791-3.652-8.791-6.222 0-1.082-.54-1.891-1.351-1.891-.676 0-2.3-1.895-3.381-4.194-2.57-4.868-41.652-43.408-45.573-44.896-1.488-.54-4.598-2.435-6.761-4.328s-4.599-3.38-5.41-3.38c-2.57 0-11.63-8.926-22.179-21.908-5.95-7.168-14.74-16.227-19.878-20.014-5.004-3.786-9.06-7.437-9.06-8.113 0-2.3-13.252-17.715-18.12-20.96-3.098-2.11-7.847-3.703-7.847-3.703m-438.91 527.204c-1.12-.043-2.334 1.098-2.965 2.066-.643.984-1.307 2.792-.375 3.508 1.422 1.092 4.258-.309 5.018-1.931.53-1.132-.036-3.107-1.204-3.548a1.5 1.5 0 0 0-.474-.095M729.065-30s-4.49 1.722-6.491 2.371c-2.029.676-4.87 2.163-6.222 3.38-2.57 2.299-8.113 5.544-15.55 9.195-2.164 1.082-10.685 8.656-18.934 17.04-8.114 8.249-15.416 15.011-16.228 15.011-1.352 0-10.142 9.872-10.142 11.63 0 .406-1.893 3.11-4.057 5.814-2.299 2.705-4.733 5.68-5.544 6.492-.677.946-2.705 1.757-4.598 1.757-1.758 0-4.597 1.218-6.355 2.706-1.623 1.487-7.033 5.272-11.901 8.518-4.733 3.11-12.982 10.279-18.256 15.823-28.399 30.157-51.659 53.01-64.911 63.693-8.114 6.761-26.505 23.53-40.704 37.459s-31.51 29.481-38.406 34.755c-17.715 13.388-21.502 16.769-23.8 21.232-1.218 2.298-8.25 10.277-15.822 17.85-7.573 7.573-16.499 16.903-19.744 20.825s-6.491 7.032-7.167 7.032c-2.57 0-25.287 20.014-42.326 37.188-9.737 9.872-19.204 18.39-20.962 18.932-4.598 1.487-10.412 6.492-16.091 13.93-2.57 3.515-9.739 11.494-15.824 17.85-6.085 6.355-14.333 15.416-18.526 20.284-9.601 11.36-16.363 17.58-19.068 17.58-1.082 0-4.192 1.894-6.626 4.058-2.57 2.163-5.274 4.057-6.086 4.057s-5.274 4.732-10.007 10.411c-4.598 5.815-13.252 15.146-18.932 20.826-5.815 5.68-10.548 10.819-10.548 11.495 0 1.352-5.273 9.196-11.359 17.04-3.38 4.598-18.256 15.956-20.69 15.956-3.11 0-12.305 8.656-18.526 17.58-4.057 5.68-10.82 13.389-15.011 17.175-6.356 5.68-7.437 7.303-6.761 10.143.54 2.299 0 3.921-1.894 5.679-1.758 1.623-2.84 4.327-2.84 6.76 0 2.57-1.082 5.14-2.705 6.627-2.163 1.758-2.704 3.787-2.569 10.008.27 6.761-.136 7.979-3.381 10.548-2.164 1.758-3.516 4.191-3.516 6.355 0 2.477 1.097 5.162 1.097 5.162s3.195-.983 4.988-3.134c1.758-1.893 4.464-3.652 6.222-3.922 2.299-.27 4.056-2.162 5.949-5.949 3.516-7.302 5.68-9.736 11.901-13.658 7.708-4.868 10.548-2.435 14.334 12.44 1.893 7.438 6.76 12.307 13.387 13.39 3.922.54 7.44 2.704 12.848 7.572 4.057 3.651 7.843 6.761 8.249 6.761 0 0 .812-1.216.812-2.704 0-3.516 1.892-4.193 12.44-4.463l8.52-.271.676-5.949c.54-5.139 1.218-6.221 4.734-7.438 6.491-2.3 12.305-7.302 17.038-14.875 2.434-3.787 9.873-12.442 16.499-19.068 6.626-6.762 12.982-13.66 14.2-15.553 5.544-8.52 11.088-14.605 22.312-23.8 6.627-5.545 12.983-10.006 14.065-10.006 2.84 0 10.682-7.033 16.903-15.417 2.84-3.787 8.384-9.33 12.305-12.306 7.032-5.274 14.065-12.577 16.634-17.04 2.434-4.462 12.983-12.034 16.634-12.034 2.705 0 5.95-2.299 12.44-8.654 4.733-4.734 10.82-9.602 13.39-10.684 5.273-2.298 13.52-9.736 13.52-12.17 0-2.57 11.226-13.118 13.93-13.118 2.84 0 41.11-37.73 48.006-47.467 2.435-3.245 8.926-9.87 14.47-14.468s11.09-10.143 12.443-12.171c4.598-7.438 11.629-13.794 16.497-14.605 6.626-1.353 12.712-6.357 19.338-16.093 8.384-12.171 29.752-32.862 35.161-33.809 3.11-.54 6.085-2.84 9.871-7.167 5.68-6.896 13.118-12.44 16.634-12.44 1.893 0 24.61-22.313 24.61-24.207 0-.54 3.653-4.868 8.251-9.601 4.598-4.868 9.33-10.955 10.547-13.524 5.544-11.765 16.498-24.475 29.886-35.294 3.38-2.705 9.602-10.143 13.93-16.499 6.761-10.007 17.31-20.285 23.26-22.72 3.786-1.622 15.55-9.735 15.55-10.817 0-.694 1.046-1.44 1.046-1.44s6.004.994 7.068 2.928c.811 1.487 2.164 2.704 2.975 2.704s3.38 1.488 5.68 3.246c2.298 1.758 5.545 3.516 7.168 4.057 3.11.947 20.689 17.985 20.689 20.014 0 2.84 11.765 16.498 19.744 22.719 9.33 7.302 24.882 26.911 24.882 31.239 0 1.623 1.895 4.461 4.194 6.355 2.299 2.028 6.896 7.032 10.277 11.089 11.9 14.605 26.64 29.751 29.074 29.751 3.245 0 10.278 5.003 17.04 12.306 3.245 3.516 7.436 6.626 9.464 7.032 3.516.676 31.374 25.964 31.374 28.398 0 1.623 9.06 12.847 13.659 16.903 2.569 2.164 6.762 4.329 9.466 4.87 4.869.811 11.36 6.626 17.31 15.28 1.622 2.435 7.437 8.115 12.846 12.577 5.544 4.598 11.631 10.818 13.795 13.928 5.68 8.79 17.984 19.743 26.233 23.395 4.057 1.893 8.927 4.868 10.82 6.626s6.625 4.463 10.546 5.95c3.787 1.623 10.008 4.058 13.659 5.545 14.605 5.815 41.246 21.637 41.787 24.882.125.563.271 1.516.271 1.516s-1.833 3.21-2.705 4.3c-4.733 6.086-3.381 8.655 16.227 29.074 4.057 4.193 9.602 10.684 12.171 14.2 5.95 8.113 8.925 10.819 14.875 13.523 6.626 2.975 24.748 18.256 31.78 27.046 4.462 5.41 6.085 8.654 6.085 11.764 0 5.14 2.03 7.574 6.357 7.574 2.164 0 4.056 1.622 6.355 5.138 1.758 2.975 5.003 5.951 7.167 6.898 2.163.946 6.085 5.003 9.195 9.736 2.975 4.598 8.385 11.09 11.901 14.605 3.652 3.38 8.519 8.113 10.953 10.412 2.299 2.163 8.25 6.762 12.983 10.007s10.683 7.98 13.252 10.414c2.434 2.434 6.762 5.95 9.467 7.708s6.356 4.733 7.98 6.491c1.622 1.623 4.731 5.138 6.895 7.437 3.516 3.786 9.736 6.086 9.736 3.787 0-1.623-4.732-8.25-7.302-10.413l-2.84-2.298 3.11-3.112c2.975-3.381 3.922-6.49 1.759-6.49-1.623 0-10.955-9.06-10.955-10.548 0-.676-1.216-2.84-2.704-4.733-3.11-3.921-2.3-7.71 1.623-7.71 1.622 0 8.519-5.407 16.362-12.98 7.573-7.168 17.04-15.146 21.232-17.716 9.195-5.95 13.523-14.199 13.523-14.199 0-1.758-5.138-7.844-13.927-16.499-7.709-7.438-16.5-17.444-19.61-21.907-5.409-8.114-7.978-10.277-25.423-20.825-5.68-3.381-10.007-7.708-15.687-15.416-4.327-5.95-7.844-11.495-7.844-12.442 0-.811-3.921-5.138-8.79-9.33-4.868-4.328-11.089-10.954-14.064-14.74-6.085-8.114-15.145-17.446-22.448-23.125-5.274-4.057-11.9-10.55-20.96-20.556-7.573-8.114-19.067-17.174-24.341-18.932-2.57-.947-5.951-3.245-7.439-5.139-1.487-2.028-7.301-8.383-12.846-14.333-5.544-5.95-12.847-13.929-16.228-17.85-3.38-3.787-7.573-8.385-9.466-10.143-5.14-4.868-23.125-19.203-28.399-22.584-2.57-1.758-6.49-5.409-8.79-8.249-2.163-2.704-9.872-10.954-17.04-18.121-7.166-7.303-15.415-16.498-18.39-20.42-3.38-4.462-11.495-11.9-20.69-18.796-8.385-6.356-25.288-21.502-37.73-33.537-12.305-12.171-26.37-25.56-31.238-29.752-4.868-4.327-9.061-7.98-9.467-8.385s-4.057-3.245-8.114-6.355c-6.761-5.274-33.942-32.186-59.635-59.503-5.68-6.085-13.93-13.25-18.257-16.09-4.462-2.84-9.736-6.628-11.764-8.251-2.164-1.758-5.274-3.11-7.032-3.11-2.164 0-4.87-2.027-7.98-5.949-2.704-3.11-4.869-6.356-4.869-7.032s-2.568-3.787-5.814-6.898c-30.427-29.886-37.324-36.242-40.84-37.865-5.68-2.705-13.522-7.573-16.497-10.142-1.867-1.704-9.33-4.804-9.33-4.804m530.607 592.792c-1.128.029-2.578 2.315-2.6 3.444-.023 1.195 1.064 3.58 2.238 3.808 1.163.227 3.088-2.334 3.262-3.506.233-1.563-1.32-3.787-2.9-3.746" style="stroke-width:.135231"/>
</svg>
