<svg xmlns="http://www.w3.org/2000/svg" width="1350" height="960">
    <path d="M1380.48 992.011a10.27 10.27 0 0 0-2.521 7.564q-10.086-7.564-27.737-22.693a315 315 0 0 0-25.214-20.17 98.6 98.6 0 0 0-16.39-17.65q-11.345-10.086-16.388-15.13-10.086-7.563-30.257-26.474-20.17-18.91-30.257-28.996v17.65a41.26 41.26 0 0 1-5.043-22.693q-20.171-17.65-32.778-27.736v7.564a106.2 106.2 0 0 1-25.214-20.171 275 275 0 0 1-35.3-35.3l-60.515-60.511-32.778-35.3q-7.564-7.564-20.171-18.91t-17.65-16.39q0-2.52-7.564-10.085a54 54 0 0 0-12.607-10.086 49.88 49.88 0 0 0-35.3-2.521q-2.521 0-10.086-7.565a201.5 201.5 0 0 0-37.82-37.82q-10.086-15.129-20.172-15.13a16.5 16.5 0 0 1-7.564 7.565 22.4 22.4 0 0 1-10.086-2.521H843.42a35.1 35.1 0 0 0-15.129 2.521 191 191 0 0 1-32.778-5.043l22.693 22.693q20.171 22.693 32.778 35.3a7.26 7.26 0 0 1 5.043 2.521l2.521 2.521 5.043 2.522 2.522 5.043a2.228 2.228 0 0 1 2.52 2.521v1.26l2.522 3.783h2.522a2.228 2.228 0 0 0 2.521 2.521l2.522 5.043h2.52a7.26 7.26 0 0 1 2.523 5.043l2.52 2.521a29.3 29.3 0 0 0 7.565 5.043l2.522 5.043a2.228 2.228 0 0 1 2.52 2.521l7.565 10.086a2.228 2.228 0 0 1-2.521 2.522 7.27 7.27 0 0 0-5.043 2.52q0 2.523-5.043 0v32.78q-5.043 5.042-7.564 0v-2.522a88.5 88.5 0 0 0-2.521-25.214l-6.304-6.304-6.303-3.784a275 275 0 0 1-20.171-22.692l-2.521-2.522v2.522h-5.044v-5.043h2.521l-16.389-16.39-13.868-11.346-6.303-6.303-6.304-5.043q-6.303-5.043-3.782-5.043t-2.521-5.043q-5.043-5.042-3.782-2.521 1.26 2.521-5.044-3.782-5.044-5.043-5.043-7.564a33.6 33.6 0 0 1-15.129-12.607q-7.564-10.086-7.564 0l10.086 10.085-2.522 10.086 5.043 5.043v2.52a16.5 16.5 0 0 0 7.564 7.564l2.522-2.522 3.782-2.52q3.782-2.523 1.26 2.52a4.455 4.455 0 0 1 5.043 5.043h-2.52l-5.044-2.521v10.086a48.8 48.8 0 0 1 6.304 8.823 48.8 48.8 0 0 0 6.303 8.823 41.3 41.3 0 0 1 10.086-2.521l-5.043-5.043a19.35 19.35 0 0 1-2.521-7.564 54 54 0 0 1 10.085 12.607 10.27 10.27 0 0 1 2.522 7.564 62.6 62.6 0 0 0 7.564 17.65 41.1 41.1 0 0 0 15.128 12.607 5.14 5.14 0 0 1 3.783 1.26 3.63 3.63 0 0 1 1.26 2.522v8.823a2.228 2.228 0 0 1 2.522 2.522 7.27 7.27 0 0 0 2.52 5.042 2.228 2.228 0 0 0 2.523 2.521 14.6 14.6 0 0 1 10.085 2.522l10.086 12.607a10.27 10.27 0 0 1 2.521 7.565l5.043-2.522 2.521 10.085a16 16 0 0 0 7.564 3.783 12.24 12.24 0 0 1 7.565 5.042 61 61 0 0 0 7.564 8.824 29.4 29.4 0 0 1 7.564 5.042 29.3 29.3 0 0 0 5.043 7.565 7.27 7.27 0 0 0 5.043 2.521l2.521 2.521h-5.043a29.3 29.3 0 0 1-7.564-5.042 44.2 44.2 0 0 1 5.043 12.607 31.07 31.07 0 0 1 17.65-5.043 17.33 17.33 0 0 1 3.782 8.823 17.33 17.33 0 0 0 3.782 8.823l5.043 5.043-5.043 5.043q-2.522 5.043 2.521 5.043a3.152 3.152 0 0 1 0-5.043l5.043 5.043a2.228 2.228 0 0 1 2.521 2.521l-2.521 2.521v5.044h5.043v-7.565l5.042 5.043h7.565l2.521-2.522-5.042-5.042a29.3 29.3 0 0 1-7.565-5.043l-2.521-2.521-2.522-5.043-7.564-7.564a7.27 7.27 0 0 1 5.043 2.52q5.043 0 5.043 2.522h2.521l5.043 2.522v2.532a2.228 2.228 0 0 1 2.522 2.522l2.52 2.521a29.3 29.3 0 0 0 7.565 5.043h2.521l3.782 3.782-1.26 3.782q0 5.043-2.522 5.043v-2.521h-7.564a7.27 7.27 0 0 1 5.043 2.521v7.564q2.521 5.044 0 5.043a7.26 7.26 0 0 1-5.043-2.521h-5.042l2.52 7.564a2.228 2.228 0 0 1 2.522 2.522v2.52a5.14 5.14 0 0 1-1.26 3.783 5.14 5.14 0 0 0-1.261 3.782h-2.521q-2.522 0-2.522-5.043a110.6 110.6 0 0 0-20.171-20.171 75 75 0 0 1-7.564-10.086 5.14 5.14 0 0 0 3.782-1.26l1.26-1.261-10.085-10.086-12.607-10.085q-2.522 0-12.607-10.086v2.521l2.52 2.522v5.043q-2.52 0-2.52-5.043a123 123 0 0 1-7.565-12.607q0-5.043-7.564-10.086v-5.043l-2.521 2.522q-10.086-12.607-15.129-12.607-10.085-2.522-12.607-17.65l-5.043 7.564a10.27 10.27 0 0 1 2.522-7.564q-12.607-12.607-15.129-12.607-15.128-10.086-20.17-12.607-2.522-5.043-10.086-18.91a52.84 52.84 0 0 0-15.13-18.911h-2.52v5.042q2.52 2.522 0 2.522-2.522 2.522-2.522 0l-5.043-5.043a7.26 7.26 0 0 1-5.042 2.521l-1.261-1.26-1.26-3.782v-5.043l-17.65-17.65q0-2.521-5.042-3.782-5.043-1.26-5.043-3.782-2.522 0-2.521-5.043a7.26 7.26 0 0 0-2.521-5.042 54.1 54.1 0 0 1-12.607-10.086 54 54 0 0 0-12.608-10.086v70.6q0 5.043-2.521 5.042h-5.043a7.27 7.27 0 0 1-2.521-5.042q0-10.085 1.26-32.778t1.261-35.3a21.9 21.9 0 0 0-3.782-8.823 21.9 21.9 0 0 1-3.782-8.824q0-5.042-17.65-12.607a28.9 28.9 0 0 1-8.823-2.521 28.9 28.9 0 0 0-8.823-2.521h-2.522q-2.521 32.778-2.521 47.906-2.521 25.214-2.521 30.257a19.4 19.4 0 0 1 2.52 7.564 7.27 7.27 0 0 1-2.52 5.043h2.52a2.228 2.228 0 0 1 2.522 2.522h-5.047a24.6 24.6 0 0 0 5.043 17.65 2.228 2.228 0 0 0 2.521 2.52q2.522 0 1.261 1.262a5.14 5.14 0 0 1-3.782 1.26h-5.043v5.04h5.043q2.521 10.086 0 12.607a19.35 19.35 0 0 1 2.521 7.565l2.522 2.521v2.522q-10.086 17.649-12.607 17.65a41.3 41.3 0 0 1-2.521 10.085v2.523q-5.043 2.521-5.044-5.043a27.4 27.4 0 0 1-5.042-10.086 20.7 20.7 0 0 1 1.26-6.303l2.522-7.565 1.26-6.303v-30.257l2.522-60.514v-27.736l2.522-22.693h-30.257a19.35 19.35 0 0 0-7.565 2.522 7.27 7.27 0 0 1-5.043 2.521q0 15.128-1.26 42.864t-1.261 37.821v10.086l-1.26 3.782-1.261 6.304h-5.043a7.26 7.26 0 0 1-2.522-5.044 28.06 28.06 0 0 0-2.521-12.606H593.8l-2.522-2.522 2.522-2.521 2.52 2.521h5.044V578.5q-12.607 0-47.907-2.521 0 17.65-2.521 60.513v7.564l-2.522 2.522-2.521-1.261-2.522-3.782v-2.522a375.5 375.5 0 0 0 0-63.035h-30.256q-2.521 7.564-5.043 5.043-2.52 0-5.042-5.043a258.7 258.7 0 0 1-57.993-17.65l-2.521 2.521a69 69 0 0 0 2.521 15.13 107 107 0 0 0-10.085 15.127 70.9 70.9 0 0 0-2.522 21.432v21.432a79 79 0 0 1-1.26 12.608 77 77 0 0 0-1.261 10.085q0 2.522-1.261 20.171t1.26 17.65a99.5 99.5 0 0 1 1.262 28.997q-1.261 18.91-1.261 26.474a77 77 0 0 0 1.26 10.086 20.36 20.36 0 0 1-1.26 12.606q0 5.043 1.262 21.432a66.2 66.2 0 0 1-1.261 23.953v20.172a4.04 4.04 0 0 1-2.521 3.782l-2.522 1.26-1.26-1.26-1.262-3.78q-2.522-2.523-1.261-16.39t1.26-17.65v-40.342l-2.52-18.913q0-2.521 1.26-13.868a177 177 0 0 0 1.26-18.91q0-5.043-1.26-16.39a177 177 0 0 1-1.26-18.91 23 23 0 0 0 2.52-13.864v-16.39a39.1 39.1 0 0 0 2.522-16.389v-16.388a84 84 0 0 0-2.521-30.257 16.768 16.768 0 0 1 2.52-25.215H303.839a86.3 86.3 0 0 0-16.389 2.522 86.3 86.3 0 0 1-16.39 2.521 63.8 63.8 0 0 0-30.256 10.086l-8.823 5.043-13.868 10.085-2.521 5.043a7.26 7.26 0 0 0-2.522 5.043 19.8 19.8 0 0 0-3.782 5.043 14.7 14.7 0 0 1-2.521 3.782 13.7 13.7 0 0 0-2.522 5.043 20.7 20.7 0 0 0-1.26 6.303l-5.043 7.564-2.522-2.52a4.04 4.04 0 0 0 3.783-2.523 9.7 9.7 0 0 0 1.26-3.782 9.7 9.7 0 0 1 1.261-3.781 9.7 9.7 0 0 0 1.26-3.783v-1.26l2.522-2.522v-2.523l-5.043 5.043a98.4 98.4 0 0 1-10.085 17.65 139.9 139.9 0 0 0-17.65 52.95 106 106 0 0 0-2.521 17.649v15.129a197.4 197.4 0 0 1 5.043 27.736 53.05 53.05 0 0 1-27.736-22.693l-12.607-22.692a5.71 5.71 0 0 1-1.261-6.304 20.7 20.7 0 0 0 1.26-6.303q0-2.522-5.042-5.043h-5.045l-2.521-2.522v-5.043a22.4 22.4 0 0 0 2.521-10.085 28.1 28.1 0 0 0-2.521-12.607 20.7 20.7 0 0 0-1.26-6.304 20.8 20.8 0 0 1-1.261-6.303 7.27 7.27 0 0 1 2.52-5.043q0-2.521 5.044-1.26a5.96 5.96 0 0 1 5.043 6.303 7.26 7.26 0 0 1 5.042 2.521V616.32l-2.521-5.043a2.228 2.228 0 0 0-2.521-2.522l-7.565-5.041q-2.52-7.564 0-7.564 2.521-5.043 5.043 0l2.522 7.564h5.042q7.565 2.521 7.565 5.043l-2.522 5.043a3.152 3.152 0 0 1 0 5.043v16.39l-1.26 10.086a66 66 0 0 1-1.261 8.823q0-1.261 1.26 6.303 1.262 7.565 1.261 6.304h5.043a112.9 112.9 0 0 1 2.521-32.779V613.8a53 53 0 0 1 1.261-8.824 58.4 58.4 0 0 0 1.26-11.346 24.5 24.5 0 0 1-5.042-12.607q-15.128-2.522-12.607-12.608a43.9 43.9 0 0 1 7.564-17.65 2.228 2.228 0 0 1 2.523-2.522 58.7 58.7 0 0 1 10.086-15.129 2.228 2.228 0 0 1 2.52-2.52l-2.52 2.52v2.522a29.3 29.3 0 0 0-5.043 7.564v5.043h-2.523q0 5.042 2.521 5.043v-2.522q2.522-2.52 2.522-3.782v-3.781a19.35 19.35 0 0 0 2.521-7.564l3.782-7.564 3.783-5.043a57 57 0 0 0 5.042-7.565q2.521 0 7.565-5.043 17.65-7.564 25.213-10.086a20.7 20.7 0 0 0 6.304-1.26 20.7 20.7 0 0 1 6.304-1.261 19.35 19.35 0 0 0 7.564-2.521h83.209l5.042 5.042 3.783 3.783 1.26 2.52v3.783q2.521 0 2.522 1.26t2.517 3.783l2.522 5.042 2.52 2.522v5.043l2.522 2.521a19.35 19.35 0 0 0 2.522 7.564v-3.782l-2.522-3.782v-2.521l-2.521-2.522a7.27 7.27 0 0 0-2.521-5.043 7.26 7.26 0 0 0-2.522-5.042 7.27 7.27 0 0 0-2.521-5.043 5.14 5.14 0 0 0-1.261-3.782l-1.26-1.26a7.27 7.27 0 0 1-2.522-5.044l-2.522-2.521 2.522-2.521h22.694l5.043-2.522h3.782l6.304-2.522a40.24 40.24 0 0 0 22.692-17.65v-12.608a5.14 5.14 0 0 0-3.782 1.26l-1.26 1.261a7.27 7.27 0 0 1-5.043-2.52q-2.521 0-2.522-1.262v-1.26l-5.043-5.043v-2.522a2.228 2.228 0 0 0-2.52-2.521l-2.522-2.522-5.043-2.517-2.522-2.522h-2.52v-5.043a2.228 2.228 0 0 1-2.522-2.521h-2.522l-2.521-2.521v-2.524l-7.565-7.564a230 230 0 0 0-15.128-22.693 3.152 3.152 0 0 0-5.043 0h-2.52a7.26 7.26 0 0 1 2.522-5.042l2.521-2.522h-5.042a41.3 41.3 0 0 1-10.086 2.522 2.228 2.228 0 0 1 2.521-2.522l5.043-5.043a2.228 2.228 0 0 1 2.522-2.52l5.042-2.523-2.52-2.52 10.085-10.087h-2.523a7.26 7.26 0 0 1-5.043 2.522l2.521-2.522v-2.52a2.228 2.228 0 0 0 2.522-2.522h-5.043a7.26 7.26 0 0 1-5.043 2.521v-2.521l-5.043-2.522h-2.522l-5.042 2.521v-2.52h5.042a2.228 2.228 0 0 1 2.522-2.523h2.522a7.27 7.27 0 0 1 5.042-2.521 10.28 10.28 0 0 0 7.565-2.521 7.27 7.27 0 0 0-2.522-5.043l-2.521 2.521h-7.564a7.26 7.26 0 0 0 2.523-5.042h-5.045a7.26 7.26 0 0 1-5.043 2.521q-2.52 2.522-2.521 0l2.521-2.521a2.228 2.228 0 0 0 2.521-2.521v-2.522q2.523-2.521 0-2.522h-2.52a2.228 2.228 0 0 1 2.52-2.52 7.26 7.26 0 0 0 2.522-5.043v-2.522h-2.522a2.228 2.228 0 0 0 2.522-2.521 7.27 7.27 0 0 0 5.045-2.522l-2.522-2.521h-2.523l-2.522-2.522h-5.042l-2.521 1.261-5.043 1.26v-2.52a19.35 19.35 0 0 0 7.564-2.522q0-2.521 5.042-2.521l5.044-2.522h5.042a7.26 7.26 0 0 1-2.52-5.044l-5.042-5.043-5.043-2.522-2.522-2.52h-2.522q-2.522-2.523 0-2.523h5.042l2.521-2.52h20.172a7.27 7.27 0 0 1 5.043 2.52h12.607a27.4 27.4 0 0 0 5.043 10.086 8.49 8.49 0 0 0 3.782 7.564 22.5 22.5 0 0 1 6.303 6.304 41.3 41.3 0 0 0 5.043 6.303 62.05 62.05 0 0 1 12.607 22.693q0 2.522 27.737 15.129v7.564h2.52l2.522 2.521a14.53 14.53 0 0 1 10.086 5.043q5.043 5.043 7.564 5.043h5.043q-2.521-2.521-1.26-3.782a5.14 5.14 0 0 1 3.782-1.261v5.043h-2.523q-2.521 2.521 0 2.521l3.782 2.522 6.305 2.523 2.521 2.521h2.522a7.26 7.26 0 0 0 5.043 2.522 2.228 2.228 0 0 0 2.521 2.522h2.522a77 77 0 0 1 10.085 1.26 79 79 0 0 0 12.607 1.26 21.21 21.21 0 0 1 17.65 2.522h2.522q0-5.043 5.042-2.521h12.608a512 512 0 0 1 50.426-47.907 43.3 43.3 0 0 1 12.607-12.608 114 114 0 0 1 15.129-10.085q5.042-2.521 2.521-12.607a7.27 7.27 0 0 0 2.522-5.043h-2.52l-2.522 2.522h-2.521a7.27 7.27 0 0 1-2.522-5.043 2.228 2.228 0 0 1 2.522-2.522h7.564v-10.085a2.228 2.228 0 0 1-2.522-2.522 10.27 10.27 0 0 1-2.521-7.564v-2.521l-7.564-5.043a22.97 22.97 0 0 0-2.523-17.649 29.3 29.3 0 0 1-5.043-7.564 22.4 22.4 0 0 1-2.521-10.086l-5.043-7.564a69.5 69.5 0 0 0-7.564-20.172 78.5 78.5 0 0 0-27.736-20.17h-5.043l-2.52-2.522q-2.523 0 0-2.521h-5.044l-2.521-2.523h-2.522l2.522 2.522a7.27 7.27 0 0 1 5.043 2.52h-7.565l-2.52-2.52a2.228 2.228 0 0 1-2.523-2.522l-2.52-2.522a79 79 0 0 1-12.608-1.26 42 42 0 0 1-10.086-2.521 15.77 15.77 0 0 0-10.085 1.26h-12.607a132.4 132.4 0 0 0-30.257 7.565l-15.128 10.085a58.3 58.3 0 0 0-12.608 7.565 83.8 83.8 0 0 1-20.171 5.042h-27.736a29.3 29.3 0 0 1-5.043 7.564 2.228 2.228 0 0 0-2.522 2.522h2.523a7.27 7.27 0 0 1 2.521 5.043 10.27 10.27 0 0 1-7.564 2.521 7.26 7.26 0 0 0-2.521 5.043v2.521a9.98 9.98 0 0 1-1.261 6.304 5.14 5.14 0 0 1-3.782 1.26q-2.521 0-5.043 5.043h-2.522l-2.52-2.521v-2.522q-7.565 0-20.172 1.261a49.8 49.8 0 0 1-20.171-1.26l10.085-52.95a114 114 0 0 1 10.088-15.13 114 114 0 0 0 10.086-15.128v-5.042l2.52-2.521h12.608a7.26 7.26 0 0 0-2.524-5.045h-3.781l-6.304 2.522q0-2.522 12.607-5.043l-2.522-2.522h-2.52a7.27 7.27 0 0 0-5.043-2.52h2.519l-2.521-2.522a3.152 3.152 0 0 1-5.043 0h-2.52l-2.521-2.522h12.605a7.26 7.26 0 0 1 2.523-5.04 29.4 29.4 0 0 0-7.564-5.042h-5.043v-5.045q0-2.52 2.522 0h2.52a2.228 2.228 0 0 1 2.523 2.522v2.521a19.95 19.95 0 0 1 12.607 2.522 75 75 0 0 0 7.564 10.085 5.14 5.14 0 0 0 3.782-1.26l1.26-1.261v-2.521a19.35 19.35 0 0 0-7.564-2.52h-2.521v-2.523a7.27 7.27 0 0 1-2.52-5.043q-2.521-5.043-5.042-5.043h10.083a7.27 7.27 0 0 1 5.043 2.521 8.08 8.08 0 0 0 7.564 5.043 29.3 29.3 0 0 0-5.043-7.564 38.07 38.07 0 0 1-15.128-12.607l-10.085-7.564a12.25 12.25 0 0 1-6.304-2.522 12.25 12.25 0 0 0-6.304-2.521v-2.522h5.043v-2.52l2.522-2.522h5.043l10.085 10.085q2.521 2.522 3.782 2.522a1.114 1.114 0 0 1 1.26 1.26q0 1.26 2.522 3.783a83 83 0 0 0 25.214 5.042v-2.52h-10.085l-2.523-3.783-5.043-3.782h-5.041l-2.522-2.522a147.5 147.5 0 0 0-15.13-12.607 19.35 19.35 0 0 1-7.564-2.521 19.35 19.35 0 0 0-7.564-2.522 2.228 2.228 0 0 1-2.518-2.52h-2.523v-2.522h-5.044v-2.522a7.27 7.27 0 0 1 5.044 2.522 7.26 7.26 0 0 1-2.522-5.043Q286.19 59.09 286.19 56.568a2.228 2.228 0 0 1-2.522-2.521v-5.043l5.043 2.522q0 2.52 5.042 5.042l5.044 5.043a30.6 30.6 0 0 0 15.128 7.564A70.5 70.5 0 0 1 326.53 78a70.5 70.5 0 0 0 12.607 8.823 88.5 88.5 0 0 1 25.214 2.521q0-2.521 1.26-2.521a3.63 3.63 0 0 0 2.522-1.261 5.14 5.14 0 0 1 3.782-1.26 2.228 2.228 0 0 1 2.522 2.52 7.27 7.27 0 0 0 5.043 2.522v-5.04l-2.522-2.52a26 26 0 0 0-10.085-5.044h-5.043L363.09 78l2.522 3.782q2.521 3.782 1.26 5.043 0-2.521-5.042-5.043v-2.521l-5.043-5.043a10.27 10.27 0 0 1-7.564-2.521v-5.043l2.521-5.043q5.043 0 5.043 2.521 2.521 2.522 0 2.522v5.043a10.27 10.27 0 0 1 7.564 2.521h7.564a2.228 2.228 0 0 0 2.522 2.521h1.26l1.261 2.522a27.4 27.4 0 0 1 5.043-10.086h2.521a2.228 2.228 0 0 1 2.522 2.522l2.521 2.521v7.564a10.27 10.27 0 0 0 7.564-2.521 61.2 61.2 0 0 0-15.128-20.172 7.26 7.26 0 0 1 5.043 2.522 38.7 38.7 0 0 0 17.65 10.086v-2.522l-7.565-7.564a31 31 0 0 1-11.346-6.304 114 114 0 0 0-13.868-8.823L356.788 36.4a92.4 92.4 0 0 1 16.39 7.564q8.822 5.043 13.867 7.564a27.4 27.4 0 0 1 10.085 5.043 29.3 29.3 0 0 0 7.565 5.043 29.3 29.3 0 0 1 7.564 5.043h5.043a10.27 10.27 0 0 1 7.564 2.521 19.4 19.4 0 0 0 7.564-2.521 82 82 0 0 0-5.043-8.824 82 82 0 0 1-5.042-8.823 29.4 29.4 0 0 0-5.043-7.564 153 153 0 0 1 10.085 12.607q7.564 10.086 12.608 10.085v-2.526h1.26l1.26 2.521a11.2 11.2 0 0 1 5.043 1.261l7.565 3.782 7.564 2.522h7.564v-7.565q-2.521 0-2.521-7.564a29.3 29.3 0 0 1 5.043 7.564 19.35 19.35 0 0 1 2.521 7.565h2.521l5.044 2.521v-5.043l-5.044-5.043-2.523-5.043h2.522l7.564 7.565 2.522-2.522v-2.52q5.042 5.042 5.042 7.563a10.72 10.72 0 0 1 0 10.086v10.085a2.228 2.228 0 0 1 2.521 2.522 2.228 2.228 0 0 0 2.522 2.521l2.522 2.522-2.522 2.52h1.26l1.262-2.52 2.522-2.522 5.042 2.522a7.26 7.26 0 0 0 2.523 5.043q0 5.043 2.521 5.043 2.522-2.521 0-7.564a38.7 38.7 0 0 1 5.043-15.128q0-5.043 2.521-5.043t2.522 5.043a14.53 14.53 0 0 1-5.043 10.085l-2.521 2.522v7.564a20.55 20.55 0 0 0 5.042 15.128h2.522a9.886 9.886 0 0 0 7.564-10.085v-5.044a2.228 2.228 0 0 0 2.522-2.521 19.4 19.4 0 0 1-2.522-7.565 7.26 7.26 0 0 1 5.043 2.522v7.564q0-2.522 1.26-2.521a1.114 1.114 0 0 0 1.261-1.261 3.63 3.63 0 0 1 1.26-2.522 3.63 3.63 0 0 0 1.262-2.52 1.26 1.26 0 1 1 2.521 0v3.78a2.228 2.228 0 0 0-2.521 2.523v10.085a2.228 2.228 0 0 1 2.521-2.521q10.086-7.564 15.129-2.522a2.228 2.228 0 0 1-2.522 2.522l-2.521 2.521v10.086l-3.782 3.782-3.782 6.304v2.52h5.042v-2.52q0-5.044 2.522-5.043a28.1 28.1 0 0 0 2.521-12.607v-2.522h1.26l3.783-2.521q2.522 0 1.26 2.521l-1.26 2.522a7.27 7.27 0 0 1-2.521 5.042 47.6 47.6 0 0 0 2.52 15.129v-8.824l5.044 1.261h5.043a14.6 14.6 0 0 1 10.085-2.521 62.6 62.6 0 0 1 17.65-7.564q10.085-10.086 12.607-10.086a4.04 4.04 0 0 1 3.783 2.522l1.26 2.52 2.522-2.52a4.983 4.983 0 0 1 7.564-2.522v2.522h2.521l-2.521-2.522q0-2.521 2.521 0h8.823l3.783-2.521a34.5 34.5 0 0 0 7.563-1.261l5.044-1.26h5.043a10.27 10.27 0 0 0 7.564-2.522h5.043l5.043-2.521a76 76 0 0 0 12.607-2.522 10.27 10.27 0 0 0 7.564-2.521 55.9 55.9 0 0 1 17.65-2.522 75 75 0 0 0 10.086-7.564q2.521-5.042 5.043-5.043l1.26 1.261 6.304 1.26 5.043 2.522h7.564q10.086-2.521 35.3-7.564a303 303 0 0 0 50.428-10.086 344 344 0 0 0 37.82-7.564q-7.564-5.043-7.563-7.564v-2.524a16.5 16.5 0 0 0 7.564 7.564h2.521a89.5 89.5 0 0 0 32.779-5.042 91.6 91.6 0 0 1 42.864-5.043 206.8 206.8 0 0 1 42.864 7.564 41.3 41.3 0 0 0 10.085-2.521h7.564a14.6 14.6 0 0 0 10.086-2.522 5.14 5.14 0 0 0 3.782-1.26 7.3 7.3 0 0 1 5.043-1.261q3.782 0 3.782-2.522a19.35 19.35 0 0 0 7.564-2.521v2.521q5.044 7.565 12.607 17.65h32.779l2.521-2.521v-2.521l2.521-2.521h2.522v5.042a219 219 0 0 1 30.257 2.521 80 80 0 0 1 22.692 5.043l2.522 2.522h7.564a2.228 2.228 0 0 0 2.522 2.521h2.52l2.522 1.261 3.783 1.26a49 49 0 0 1 6.303 2.522h21.432l3.782 2.521q2.521-2.52 3.782-1.26t-1.26 6.303v2.522a19.35 19.35 0 0 1 7.564 2.521v2.521l2.521 2.522v2.521a2.228 2.228 0 0 0-2.521 2.522l5.043 5.043v1.26l1.26 3.782 1.261 2.522v5.043a29.3 29.3 0 0 1-5.043-7.565 29.3 29.3 0 0 0-5.043-7.564 2.228 2.228 0 0 1-2.521 2.522 19.35 19.35 0 0 0 2.521 7.564v2.521q5.044 0 10.086 7.564v-2.521l2.522-2.521 5.042 5.042a2.228 2.228 0 0 1-2.521 2.522 2.228 2.228 0 0 0-2.521 2.521v7.565a10.27 10.27 0 0 1 2.52 7.564v5.043q0 2.52-6.303 1.26l-6.3-1.26-2.521 15.128q0 7.564 1.26 113.463a1158 1158 0 0 1-1.26 115.985v5.043l-2.522 2.521v5.043l2.522-2.521h2.52v2.521a19.35 19.35 0 0 1-2.52 7.564 2.228 2.228 0 0 1-2.522 2.522v7.564h2.522v2.522l2.52 5.042h-2.52v5.043l-2.522 5.043v7.564h2.522v2.522l2.52 2.52v5.044l2.522 2.521h2.522v10.086l-2.522 2.521h-2.521v-7.564h-7.564a7.26 7.26 0 0 0-5.043 2.522v5.042l-2.522 5.043v2.522l-7.564 2.52-5.043 2.522-2.52 2.522a10.27 10.27 0 0 0-7.565 2.521v12.607a36.8 36.8 0 0 0-5.043-15.128 79 79 0 0 0 1.26 12.607q1.261 7.564 2.522 12.607a41.4 41.4 0 0 1 1.26 10.085v20.172l-2.52 20.17a73.8 73.8 0 0 1-2.522 25.215q-5.043-5.043-5.043-7.564 0-7.565 1.26-31.518a157.2 157.2 0 0 0-1.26-36.56 12.25 12.25 0 0 0-2.521-6.303 13 13 0 0 1-2.522-5.043 52.7 52.7 0 0 0-2.521-8.823q-7.564 2.522-10.086-7.564V344.01a92 92 0 0 1 1.261-15.128q1.26-7.565 2.521-16.39t2.522-15.128a95 95 0 0 0 1.26-17.65v-104.64q-10.085-10.086-15.128-7.564a46.07 46.07 0 0 0-32.778-12.607 7.26 7.26 0 0 0-5.043 2.521v5.044a7.27 7.27 0 0 1-2.521-5.042v-2.522l-2.522-2.521h-2.522q-2.52-2.522-10.085 0h-7.564l-2.522 2.521-2.521-5.043a502 502 0 0 0-52.95-7.564 55.9 55.9 0 0 1-17.65-2.521 19.35 19.35 0 0 0 2.522 7.564 111.4 111.4 0 0 1-20.171-7.564q-17.65-2.522-32.779-5.043-2.522 0-27.736-3.782a280 280 0 0 0-37.82-3.782q-52.95 5.043-75.643 7.564l-22.693 5.043-5.043 5.043H767.78v-2.522h5.043l5.043-2.521h-5.043q-30.257-2.522-37.82-2.522h-47.91q-22.692 2.521-27.736 2.522a160.6 160.6 0 0 0-27.736 17.65 7.27 7.27 0 0 1-2.521 5.042l-7.564 5.043a7.27 7.27 0 0 1-5.043 2.522v2.521q-2.521 0 0 2.522v3.782l2.521 3.781a14.6 14.6 0 0 1 10.086 2.522h5.043l-3.783 3.782-1.26 3.782h-2.522l5.043-2.521h2.522v2.521l-2.522 5.043v2.521a19.4 19.4 0 0 0 2.522 7.565l5.042 5.042v10.086a2.228 2.228 0 0 1 2.522 2.522 42.1 42.1 0 0 1 17.65 12.607 154.7 154.7 0 0 0 17.65 35.3 100 100 0 0 1 12.607 15.128 41.5 41.5 0 0 0 12.606-2.522l-5.042 2.522-2.521 2.521a7.27 7.27 0 0 0 5.042 2.522l-2.521 7.564v2.52q2.522 2.52 2.521 3.782v3.782l-2.521 2.521v7.564a29.3 29.3 0 0 0 7.564 5.043 5.14 5.14 0 0 1-1.26 3.782l-1.262 1.26a7.26 7.26 0 0 1-5.042 2.523l-12.607 12.607 5.043 2.52a22.4 22.4 0 0 0-10.086 2.522 14.6 14.6 0 0 0 10.086 2.522 7.27 7.27 0 0 0 5.043-2.522v2.522h-2.522q-12.607 10.085-17.65 15.128l5.043 5.043v8.823l-2.521 8.823q2.52 0 7.564 5.043l3.782 3.782v2.522q0 2.521-3.782-1.261-5.043 0-15.129-10.086v6.304l-1.26 6.303q-1.26 6.304 3.782 5.043l2.521 2.522H664.4a7.26 7.26 0 0 0-5.043 2.521 7.26 7.26 0 0 0 5.043 2.522 15.3 15.3 0 0 1 7.564 3.782 15.3 15.3 0 0 0 7.564 3.781 76 76 0 0 0 12.607 2.522v2.522a77 77 0 0 1-10.086-1.261 77 77 0 0 0-10.085-1.26h-30.257v2.52l2.521 2.522H629.1v3.782l2.521 1.26a10.27 10.27 0 0 1 7.564 2.522H629.1a5.14 5.14 0 0 1 3.782 1.26l1.26 1.262a9.97 9.97 0 0 1 6.304 1.26q1.261 1.26-1.26 3.783h5.042l5.043 5.042-2.521-1.26h-5.043l-2.522 1.26v5.043a7.27 7.27 0 0 0 5.043 2.522 106 106 0 0 1-17.65-2.522h-2.52l-2.522 2.522a22.4 22.4 0 0 0-10.086-2.522q10.086 10.086 12.607 10.086v-7.56h2.521l2.522 2.52 7.564 5.043 7.564 5.043 12.607-2.521q7.565 5.042 7.565 7.564h-5.043l-5.042-5.043a5.14 5.14 0 0 0-3.783 1.26 5.14 5.14 0 0 1-3.782 1.261 39.7 39.7 0 0 0 15.128 10.086 54 54 0 0 1 12.608-10.086 41.3 41.3 0 0 0-5.043 6.304q-2.521 3.782-5.043 3.782a62.53 62.53 0 0 0 32.778 2.521h3.782l1.26 2.522h40.346a386 386 0 0 1-22.693-40.343 21.65 21.65 0 0 1-3.782-11.346 80.7 80.7 0 0 0-2.521-12.607 80.4 80.4 0 0 1-2.522-11.347 19.3 19.3 0 0 0-3.782-10.085v-40.34l1.26-6.305 1.261-11.346a209 209 0 0 0 5.043-22.692 108 108 0 0 0 7.565-25.214 189.7 189.7 0 0 1 42.864-55.473 62 62 0 0 1 27.736-20.17h2.521l2.522-2.523h7.564a78 78 0 0 1 15.128-5.042 7.26 7.26 0 0 0 5.043-2.522h2.522a126 126 0 0 1 22.692-10.085 106 106 0 0 1 2.522 17.65q-2.521 0-1.26 10.085t1.26 12.607l5.043 5.043v2.523q5.042 7.564 0 10.085l-2.524-2.52q-2.521 0-10.086-10.086v20.171a29.3 29.3 0 0 0-7.564 5.043l-10.086 5.043-2.52 2.522q0-2.522 5.042-2.522a19.35 19.35 0 0 1 7.564-2.521v2.521l-5.043 2.522-6.303 2.52h-2.522l-1.26-2.52q-2.522 5.043-5.043 5.042a111.05 111.05 0 0 0-40.343 73.12 144.3 144.3 0 0 0 2.522 50.428 121.67 121.67 0 0 0 68.078 75.642 31.54 31.54 0 0 0 20.17 2.522 141.7 141.7 0 0 1 27.737-2.522 49.88 49.88 0 0 0 35.3 2.522 119.87 119.87 0 0 0 57.992-44.125 112.43 112.43 0 0 0 22.693-66.817 121.35 121.35 0 0 0-32.778-80.685l-2.522-2.522v-2.52q-2.521 0 0-2.522a2.228 2.228 0 0 1 2.522-2.522q2.52-2.52 0-2.521a3.152 3.152 0 0 0 0-5.043 2.228 2.228 0 0 1-2.522 2.522q0-2.522 5.043-5.043l-2.521-2.522a2.228 2.228 0 0 1 2.52-2.521h-5.042v-2.521a10.27 10.27 0 0 1 7.564-2.522h-5.042v-2.521l1.26-1.261 1.26-3.781v-7.565l2.522-2.522a2.228 2.228 0 0 1-2.522-2.521v-5.043l2.522-10.086a2.228 2.228 0 0 0-2.522-2.52l-1.26-1.262-1.26-3.782a7.26 7.26 0 0 1-2.522-5.043 41.3 41.3 0 0 1 10.085 2.522l2.522-2.522q0-2.521 1.26-1.26a29.2 29.2 0 0 1 3.782 6.303v2.522a7.26 7.26 0 0 1 5.043 2.521 78 78 0 0 1 15.129 5.043 209.4 209.4 0 0 1 50.428 70.598 180 180 0 0 1 15.129 45.385 77 77 0 0 0 1.26 10.086 77 77 0 0 1 1.26 10.085v16.39l-2.52 13.867a212.9 212.9 0 0 1-20.172 65.557 195.6 195.6 0 0 0-17.65 30.257 165.4 165.4 0 0 1-42.864 37.82 65.8 65.8 0 0 1-13.867 10.086 34.2 34.2 0 0 1-11.347 5.043l5.043 5.043H969.49v5.043h-20.17q7.564 10.085 45.384 50.428a98.7 98.7 0 0 1 17.65 16.39q10.086 11.346 15.129 16.388a4.04 4.04 0 0 1 3.782 2.522l1.26 2.521 118.507 118.506q0 2.522 5.043 5.043 5.042 2.522 5.042 5.043l22.693 22.693 5.043 2.521 7.564 5.043a20.8 20.8 0 0 0 1.26 6.304 15.8 15.8 0 0 0 3.783 6.303l25.214 25.214v2.521l2.521 2.522 5.044 2.521 7.563 7.564 7.565 5.043v1.262l2.521 1.26v5.043h2.522a29.3 29.3 0 0 1 7.564 5.043h2.521v5.043l2.522 2.522 2.521-2.522 2.521 2.522h2.522v2.521l2.521 2.521 2.522 7.565h2.52q0 2.52 5.044 5.042a7.26 7.26 0 0 1 5.043 2.522h2.52l10.087 10.086v2.52h5.043v2.522l5.042 7.565h2.522l5.043 5.042v2.522h2.52a7.27 7.27 0 0 1 5.044 2.521 2.228 2.228 0 0 0-2.522 2.522l10.086 5.042v2.522h2.523l7.564 7.564a7.26 7.26 0 0 1 5.043 2.522v2.52l5.043 2.522v5.043a2.228 2.228 0 0 1 2.52 2.521 10.27 10.27 0 0 1 7.565 2.522l2.522 2.521v2.522l7.564 5.042 2.521 5.043zM684.57 321.316v2.522h5.044a7.27 7.27 0 0 0-2.521-5.043zm-30.256 100.855a10.27 10.27 0 0 0 7.564 2.521h12.607q-15.129-7.562-20.17-2.52zm-37.82 25.214v-2.521q2.52 0 10.085 7.564-2.522 5.043-2.522 2.521-2.521-2.52-3.782-2.52h-3.782zm393.339-393.34v-2.52h5.043l5.043-2.521a19.4 19.4 0 0 1 7.565-2.522h2.522l2.521-2.521a5.14 5.14 0 0 0 3.782-1.26l1.26-1.262h2.522q2.522 0 12.607 17.65a129 129 0 0 1-21.432-2.521 129 129 0 0 0-21.433-2.521zM745.085 94.388l-5.043-2.521zM361.83 117.08h-5.043q-2.522-2.52-3.782-2.52h-2.522l-1.26 1.26v6.304l-7.565-7.565a29.3 29.3 0 0 0-5.042-7.564h2.521l2.521 2.522v5.042a10.27 10.27 0 0 0 7.565-2.521 3.152 3.152 0 0 1 5.042 0zm2.521-10.085q-2.522 5.043 2.522 2.522a2.228 2.228 0 0 0-2.522-2.52zm2.522-15.128 2.521 2.52zM487.9 76.738h-2.521v2.522a7.26 7.26 0 0 0 5.043-2.522zm60.514 40.343-2.521-5.043 2.52-2.521q2.523 5.044 0 7.565zm0 52.95-2.521-2.522v-2.52a10.28 10.28 0 0 0-7.565-2.522v2.522l2.522 1.26 2.521 3.783zm-244.577 141.2v2.52l-7.564 2.522a29.3 29.3 0 0 1 7.564-5.042m279.877 17.65v7.563h-2.522l-2.521 2.522v5.043h5.043l-5.043 7.564-2.521 2.521a2.228 2.228 0 0 0 2.52 2.522v2.521l-7.563 2.521-15.129 17.65a106.8 106.8 0 0 1-30.257 10.086 78 78 0 0 1-15.128 5.043 196.1 196.1 0 0 1 50.428-47.907q22.693-15.13 22.693-17.65m37.82-173.978h2.522l2.522-2.521v-2.522h-5.043l-1.26 1.26zm5.044 7.564a7.27 7.27 0 0 0-5.043 2.522 7.27 7.27 0 0 1 5.043-2.522m15.128-20.171a2.228 2.228 0 0 0-2.521-2.521 7.26 7.26 0 0 0-2.521 5.043h2.52zm-52.95 2.522 5.043 2.52zm15.129-10.086h-5.043a55.9 55.9 0 0 0-17.65 2.521q-5.042 0-5.042-2.521h-2.522a2.228 2.228 0 0 0-2.521 2.521 58 58 0 0 1-15.129 7.565l-5.043-5.043a31 31 0 0 0 11.347-2.522 27.1 27.1 0 0 0 8.823-5.042h7.564l5.043-2.522a37.4 37.4 0 0 1 17.65-10.086v5.043l12.607-7.564 1.26 1.26 3.783 1.261a36.88 36.88 0 0 1 22.693-7.564 19.35 19.35 0 0 0 7.563-2.521 19.35 19.35 0 0 1 7.565-2.522l40.342-10.085q2.522 0 35.3-2.522a346 346 0 0 1-45.385 27.736 35.1 35.1 0 0 1-15.128 2.522h-15.13a21.64 21.64 0 0 1-11.345 3.782 108 108 0 0 1-11.347 1.26q-10.086 2.522-22.692 5.043h-5.043q2.521 0 5.043-5.043 2.521-5.042 0-7.564l-2.522 2.522q-2.521 0-5.043 5.042-2.521 5.043.002 5.043zm2.522 7.564h2.52l-2.52-2.521h-2.522zm2.52 22.693a5.14 5.14 0 0 0 3.783-1.261q1.26-1.26-1.26-1.26v-2.522q-2.522-5.043-5.043 0v2.521zm10.087 302.569a22.4 22.4 0 0 1-10.086 2.521q2.521-2.521 0-10.085 7.564 7.564 10.086 7.564m7.564-2.521h-2.522v2.52h2.522zm12.607 10.085a2.228 2.228 0 0 0-2.521-2.521v2.521zm317.697 350.476v-2.521a3.152 3.152 0 0 0 0 5.042zm-5.043 0 2.522 2.521zm-50.428-40.342-2.52-5.044a5.14 5.14 0 0 1 3.783 1.261q1.259 1.261-1.263 3.783m45.386-587.489a16.5 16.5 0 0 1-7.565-7.564q7.565 2.521 7.565 7.564m90.77 10.086 5.043 5.042zM215.59 3.619a8.08 8.08 0 0 1 7.564 5.043 16.5 16.5 0 0 1 7.564 7.564 19.35 19.35 0 0 0 2.522 7.564l5.043 5.043-5.043 5.043v-2.522l-5.043-10.085q0-2.522-5.043-7.565l-3.782-3.781zm0 7.564q0 5.042 2.521 2.521t-2.52-2.521M92.04 18.746q0 5.043 12.607 7.564a14.82 14.82 0 0 0-12.607-7.564m209.279 15.13 2.521 2.52a2.228 2.228 0 0 0 2.521 2.522l2.522 2.522q2.521 2.522 2.522 0l-2.522-2.522a2.228 2.228 0 0 0-2.522-2.521l-2.52-2.521zm12.607 5.042q2.52-5.043-2.521-2.521a2.228 2.228 0 0 0 2.519 2.521zm-141.199-2.521v2.521a7.27 7.27 0 0 0 5.043 2.522h2.522l-5.043-5.043zm12.607 7.564 10.086 10.086h7.564a60.5 60.5 0 0 0-22.692-15.129 2.228 2.228 0 0 0-2.522-2.521h-2.523q5.042 7.564 10.085 7.564zm20.171 5.043a8.08 8.08 0 0 0 7.565 5.043q2.521-2.521-5.043-7.565a10.27 10.27 0 0 0-7.564-2.52 7.26 7.26 0 0 0 2.521 5.042zm287.441 15.128a19.35 19.35 0 0 1 2.521-7.564h2.522q2.521 2.521 2.522 1.26v-3.781q-2.522-2.521-2.522-3.782t-2.522-1.261v2.522h-2.523v-2.522h-2.522v5.043q-2.52 7.564 2.522 10.085zm-252.14-10.085q0 2.521 5.042 5.042a12.26 12.26 0 0 0 2.521 6.304 19.04 19.04 0 0 0 7.565 6.304h2.52v2.521h2.523a22.73 22.73 0 0 0 20.171 15.128 43.9 43.9 0 0 0 17.65 7.565 52 52 0 0 0-20.172-15.129q-2.52-10.085-5.042-10.085h-7.567q-2.521 0-7.564-5.043a54.7 54.7 0 0 0-17.65-15.128zm93.292 2.521q0-2.521-5.043-2.521v5.042zM185.334 71.697l2.522-2.522a29.3 29.3 0 0 0-7.564-5.043 11.2 11.2 0 0 1-5.043-1.26q-2.522-1.26-2.522 1.26a31.65 31.65 0 0 0 12.605 7.565zM306.362 61.61a5.14 5.14 0 0 0 1.26 3.782q1.261 1.26 1.261-1.26 2.52-2.522-2.523-2.522zm32.778 10.086a2.228 2.228 0 0 0 2.521 2.521l2.522-2.521v-5.043h-5.045zm-113.465-2.522a2.228 2.228 0 0 0 2.521 2.522l2.521 2.521a19.35 19.35 0 0 0 7.565 2.521 15.16 15.16 0 0 0-10.086-10.085 2.228 2.228 0 0 0-2.521 2.521m-45.386 10.086q0-5.043-7.564-7.564l-2.522 2.521 2.522 2.521zm70.6 2.521-2.522-2.521a7.26 7.26 0 0 0-5.043-2.522 29.3 29.3 0 0 0 7.565 5.043m365.604 17.65q0-2.521 12.607-10.086a50.32 50.32 0 0 1 35.3-7.564 76.5 76.5 0 0 1 22.693-2.521h17.65q-7.565 0-40.343-2.522a228.4 228.4 0 0 0-40.343 12.607 41.3 41.3 0 0 1-6.303 5.043l-7.564 5.043-6.304 2.522zm-42.864 0v-5.043l-1.26 2.522zm-295.005 0q2.521-5.042-2.521-2.521a2.228 2.228 0 0 0 2.521 2.52m297.527 22.693q5.043 2.521 7.564-5.043 2.521-2.521-2.522-7.564 0-2.522-2.521 5.043v2.52a7.27 7.27 0 0 0-2.521 5.044m-5.043 0 1.26-2.522 1.261-3.782q1.26-3.782-1.26-1.26-2.522 2.52-2.522 1.26t-1.26 3.782v2.522zm50.428 10.086q7.564-2.522 2.521-10.086h-2.521q-7.562 7.566 0 10.086m-375.69-2.52a2.228 2.228 0 0 0-2.522-2.522q-5.042-2.521-5.042 2.522l2.52 2.521h5.044zm234.491 52.947a2.228 2.228 0 0 0-2.522-2.52h-7.564a2.228 2.228 0 0 0-2.521 2.52l7.564 2.522h5.043l2.522-2.522zM414.78 220.46l2.522 2.521v2.522h2.521a2.228 2.228 0 0 0 2.522 2.521 7.26 7.26 0 0 0-2.522-5.043v-2.521a3.152 3.152 0 0 0-5.043 0m479.068 20.171a16.25 16.25 0 0 0 12.607 0l5.043-5.043q5.043-2.521 2.522-5.043a14.6 14.6 0 0 0-10.086 2.522 26 26 0 0 1-10.086 5.043zm-370.647 7.564h2.521q0 2.522 2.522 0t0-7.564l-2.522-2.521q0-2.522-2.521 0-2.521 2.52 0 7.564zm423.597-10.085a17.1 17.1 0 0 0 12.607 5.042v-2.52l-5.043-2.522h-2.522l-3.782-1.26-1.26-1.262h-5.043q0 2.522 5.043 2.522m-85.728 35.3h-2.522a7.27 7.27 0 0 1-5.042 2.521 19.35 19.35 0 0 1-7.565 2.521q-5.043 0-3.782 2.522a4.04 4.04 0 0 0 3.782 2.52h5.043a27.4 27.4 0 0 1 10.086-5.042l2.521-2.521zm-310.134 17.65h7.565v-6.304l-5.043-1.261h-2.521l-2.522 2.521a2.228 2.228 0 0 0 2.522 2.522zm-40.342-2.522h5.043l3.782-3.782 3.782-1.261a19.4 19.4 0 0 0-7.564 2.521q-5.043.002-5.043 2.522m25.214 37.82 2.521-2.52a5.14 5.14 0 0 0 3.782-1.261l2.522-2.521 1.26-3.783q5.044-5.042 7.565-5.042a48.87 48.87 0 0 1 22.693-17.65h2.52a7.26 7.26 0 0 1 5.044-2.522 2.228 2.228 0 0 1-2.522 2.522 7.27 7.27 0 0 0-5.042 2.521v2.522a29.3 29.3 0 0 0-7.565 5.042 29.3 29.3 0 0 1-7.564 5.043 28.55 28.55 0 0 0-10.086 10.086l-5.042 5.043q-5.043 5.042-7.565 5.043a7.27 7.27 0 0 1-5.042 2.52 7.27 7.27 0 0 0 2.521-5.042m-242.056-5.042a5.14 5.14 0 0 0-3.781 1.262 3.63 3.63 0 0 1-2.522 1.26h-3.782l-2.521-2.52h-3.782l-1.261 2.52q-5.043 5.043-5.043 7.565a41.3 41.3 0 0 0 10.086-2.522l10.085-2.521a7.27 7.27 0 0 0 2.521-5.044m65.557 0-2.521 2.522h5.043v-2.522zm88.25 7.565a11.29 11.29 0 0 1 6.303 7.563 6.127 6.127 0 0 1-3.782 7.565l-6.303-6.304-2.522-3.782-1.26-2.522q0-2.521 3.782-2.521zm47.906 42.863a165 165 0 0 1 17.65-15.128 29.3 29.3 0 0 1 5.043-7.564l12.607-12.608h2.522l-8.824 8.824-8.823 10.086q-8.823 10.085-5.043 6.303a22.4 22.4 0 0 0-2.521 10.085 36.9 36.9 0 0 1-7.564 12.608h-7.568a12.56 12.56 0 0 1 2.521-12.606m206.756-12.607-5.043-2.522zm-400.902 12.607h5.042v-5.043h-2.523l-5.042 5.043v2.522zm-15.129 7.564h2.521l3.783-3.782-1.26-3.782-2.523 2.522v2.521h-2.522zm7.564 0 5.043-2.52v-2.522h-2.523l-2.522 2.521zm171.455 7.565q-2.522 5.043 2.52 2.521 2.523-5.042-2.52-2.52m-163.89 37.82h2.521q5.043 0 5.043-7.563h-2.523l-1.261 2.521zm37.82 17.651q-2.521-2.522-5.042 2.521a2.228 2.228 0 0 0 2.521 2.522h2.522q2.521 0 0-2.522l2.521-2.521zm2.522 5.043h2.52l2.521-2.522h-2.521zm315.176 17.65 2.522 2.52 5.043 2.522 2.52 2.522v-2.522a7.26 7.26 0 0 0-2.52-5.042zm-22.692 118.506q0-2.522-1.26-2.522h-3.783a14.53 14.53 0 0 0-10.086 5.043v3.782l2.522 1.26a8.236 8.236 0 0 0 10.085-2.52q5.043-2.522 5.043-5.043zm2.521 40.342a41.3 41.3 0 0 0 10.086-2.521V613.8h-7.565a10.27 10.27 0 0 0-2.52 7.564zm7.564 37.821a3.152 3.152 0 0 1 0 5.043q-2.521 2.522-3.782 2.522h-3.782q-2.522 2.52-3.782 1.26l-1.26-1.26a7.27 7.27 0 0 1 2.52-5.043 16.5 16.5 0 0 1 7.565-7.565h2.521zm95.814-2.52q2.521 0 5.043 7.563v12.607a7.27 7.27 0 0 0-2.522-5.043 19.35 19.35 0 0 1-2.521-7.564zm15.129 7.563h-1.261l-1.261 1.261q-1.26 1.26 2.522 3.782 0 2.521 1.26 1.26a5.14 5.14 0 0 0 1.26-3.781v-2.522zm88.247 5.043a2.228 2.228 0 0 0-2.522-2.521 7.27 7.27 0 0 0-5.042-2.522q-7.564 2.522-5.043 7.564-2.522 2.522 5.043 7.565 10.085 2.52 10.085-5.043a7.27 7.27 0 0 0-2.52-5.043M775.342 684.4a7.27 7.27 0 0 1-2.521-5.043l-2.522-2.521v5.043q2.521 0 2.522 1.26v1.261zm-27.736 7.564h-2.522l-2.521 2.522v2.52a7.26 7.26 0 0 0 5.043 2.523q2.52 0 0-2.522zm105.899 7.565q5.043 0 2.52-5.043l-2.52-2.522-5.043 2.522zm-70.6 17.65v-2.522a10.27 10.27 0 0 0-2.521-7.564v-2.522l-2.521-6.303-2.522-3.782-2.521-2.522H770.3l2.522 7.565 3.782 3.782 2.521 3.782q2.521 3.782 1.26 5.043a26.2 26.2 0 0 0 1.262 10.085 19.8 19.8 0 0 0 3.781 5.043q0 7.565 2.522 7.564a2.228 2.228 0 0 0 2.522-2.52 7.27 7.27 0 0 0-2.525-5.042zm-17.65-10.086q2.522-7.564 5.043-5.043v7.564a2.228 2.228 0 0 0-2.521 2.522 41.3 41.3 0 0 1-2.522 10.085l-2.521 2.522q-7.565 20.17-10.086 27.736v7.564a19.4 19.4 0 0 0-2.521 7.565v5.04q-5.043 0-5.043-2.521a5.14 5.14 0 0 1 1.261-3.783l1.26-1.26q7.564-20.172 15.129-42.864v-10.086a7.26 7.26 0 0 1 2.522-5.041zm-57.992 2.521a2.228 2.228 0 0 0 2.521 2.522q2.522-2.522 1.26-3.783-1.26-1.26-3.78 1.261zm229.446 20.171a2.228 2.228 0 0 0-2.521 2.522 4.983 4.983 0 0 0 2.521 7.564h5.043v-5.043q-2.518-5.043-5.04-5.043zm-784.158 22.693v-5.043l-2.519-2.523-5.041-2.52v-5.042q2.521-2.522 2.521-3.782t-2.521-3.783q-7.565-5.043-7.564-7.564-2.521-2.521-2.522-3.782t-2.521-1.26a10.27 10.27 0 0 0-2.522-7.565h-2.522v10.086a40.14 40.14 0 0 0 12.607 22.693 2.228 2.228 0 0 0 2.521 2.52v2.522l2.523 2.522 5.043 2.521a2.228 2.228 0 0 1 2.52 2.522zm110.942 83.207v2.521a19.4 19.4 0 0 1-7.564-2.521l-2.522-2.522h-2.518l-5.043-2.521h-5.043a2.228 2.228 0 0 0-2.521-2.522h-5.043a2.228 2.228 0 0 0-2.522-2.52h-2.52l-5.044-5.044-5.043-2.521a54.1 54.1 0 0 1-12.607-10.086 107 107 0 0 1-15.129-10.086q-2.52-5.042-8.823-15.128a88.7 88.7 0 0 0-8.823-12.607q-10.09-20.171-7.567-25.216a29.3 29.3 0 0 0 7.564 5.043 29.3 29.3 0 0 1 7.564 5.043 134 134 0 0 0 30.257 42.864 170 170 0 0 0 27.737 20.171 41.3 41.3 0 0 1 10.085 2.522l2.522 2.52v5.046a11.2 11.2 0 0 1 5.042 1.26l2.522 1.261q5.042 2.521 5.042 5.043zm424.857-84.467q-1.26 1.26 1.261 3.782 2.522-2.522 1.261-3.782a1.576 1.576 0 0 0-2.519 0zm-23.953 31.517q0-10.085 5.043-12.607 2.524 5.043-5.04 12.607zm191.627-5.043q2.522 5.043 0 5.043a3.152 3.152 0 0 1-5.043 0h-2.52a10.27 10.27 0 0 1-2.522-7.564v-2.523q0-2.522 2.521 0h2.521zM283.667 301.145a29.3 29.3 0 0 0 7.564-5.043h-10.085q-2.522-2.521-7.565 0l-2.521 2.522q-5.042 2.52-2.521 5.042 0 2.521 5.042 2.522l3.783-3.782 3.782-1.261zm36.56 119.768-3.783 3.782-2.521 5.043 5.042-2.523q0-2.52 5.043-5.042v-2.522h-1.26zm200.452-308.874a2.228 2.228 0 0 0 2.522 2.522l2.521-5.043a3.15 3.15 0 0 0 0-5.043h-2.521zM707.264 346.53h-5.043v2.522h5.043zm-418.554 2.522q-2.521-2.522-2.521 0a2.522 2.522 0 1 0 5.042 0zM876.198 792.82h-2.521a2.228 2.228 0 0 0 2.521 2.521zm-199.191 30.257q-5.043-17.65 5.043-25.215 7.564 10.086-5.043 25.215m204.234-17.65q2.522 2.52 3.782 1.26t-1.26-3.781h-2.522zm-141.199 22.692q7.564-12.607 2.522-20.17-7.565 5.042-2.522 20.17zm181.541 6.304q0-1.26-2.52-1.261l-2.522 2.522v2.521a7.27 7.27 0 0 0 5.042 2.521zm146.242 195.409 2.522 2.522 3.782 8.823q3.782 8.823 1.26 8.823a38.7 38.7 0 0 1-10.085-17.65zM671.965 704.57h2.52l3.783-1.26q3.782-1.26-1.261-3.782 0-5.043-5.043-2.522zm5.042 27.737q0-2.522-1.261-2.522a4.455 4.455 0 0 0-3.782 3.782v1.26q5.043 2.521 5.043-2.52zm47.907-42.865v-2.521l-2.522-2.521q0-2.522-2.521 0v2.52l2.521 5.044q2.521 5.043 3.782 1.26 1.261-3.782-1.26-3.782zm7.564-40.342h-2.521l-2.522-5.043a2.228 2.228 0 0 0-2.521-2.521q-2.522-2.522-2.522-3.783v-3.782l-2.521-2.52q0-5.044 2.521-5.044 5.043 0 5.043 10.086v5.043q5.043 5.042 5.043 7.564zm57.993 32.778v2.522a3.15 3.15 0 0 0 0 5.042 2.228 2.228 0 0 0 2.52-2.521zm242.055 244.577a4.04 4.04 0 0 0-2.522-3.782 11.2 11.2 0 0 0-5.043-1.26l2.522 2.52v2.522a2.228 2.228 0 0 0 2.521 2.521q0 5.043 2.522 2.522a3.152 3.152 0 0 0 0-5.044zm-2.522 37.82v5.044h2.522v-2.522zm-25.214 25.215v5.043h1.261l1.26-2.521q2.522-2.522-2.521-2.522zm-8.823 34.04a5.14 5.14 0 0 0-1.26 3.781h2.52v-2.522zm182.802-485.372v-2.522a2.228 2.228 0 0 1-2.521-2.521v-7.565l2.521-2.521 2.522 7.564v2.521a7.27 7.27 0 0 1 2.52 5.043 2.228 2.228 0 0 1 2.523 2.522v5.043h-2.523V543.2zM301.32 51.526h5.042l2.522 2.52a2.228 2.228 0 0 0 2.522-2.52q0-2.522-3.783-2.522t-3.784-2.522h-5.042a7.27 7.27 0 0 0 2.523 5.044m930.4 35.3h2.521a3.152 3.152 0 0 0 5.043 0v-2.522q-2.522-7.564-7.564-5.043a7.27 7.27 0 0 0-2.522 5.043q-2.523 2.52 2.52 2.521zM977.056 41.44h1.26l1.262-2.522q1.26-2.521-2.522-2.521-2.52-2.521-2.521 0-2.521 0 0 2.521zM220.632 56.568q2.521 2.521 2.521-1.26 0-3.783-2.521-1.261zm5.043 15.129q-2.522-5.043-5.043-2.522-2.522 0 0 2.522a3.15 3.15 0 0 0 5.043 0m0 45.385q0 2.522 5.042 2.521 2.522 0 2.522-1.26a3.63 3.63 0 0 0-1.261-2.522q-1.26-1.26-6.303 1.26m40.342-73.119h2.522a7.26 7.26 0 0 0-2.522-5.043 7.26 7.26 0 0 0-5.043-2.521q0 2.519 5.043 7.562zm0-17.65q2.522 0 0-2.521a2.228 2.228 0 0 0-2.521-2.522h-2.522a4.455 4.455 0 0 0 5.043 5.043M152.554 79.261q-7.565-2.522-8.824-1.26-1.258 1.26 1.261 3.781l5.043 5.043h5.043v-2.521l-1.263-2.522zM122.297-1.424a75 75 0 0 1-10.086-7.564 7.26 7.26 0 0 0-2.521-5.043 7.26 7.26 0 0 0-5.043-2.522 7.27 7.27 0 0 1-2.521-5.042 26 26 0 0 1 10.085 5.042 12.25 12.25 0 0 1 6.304 2.522 62 62 0 0 0 6.303 3.782 27 27 0 0 1 6.304 5.043 10.33 10.33 0 0 0 6.303 3.782 7.26 7.26 0 0 1 2.522 5.043q0 2.52-5.043 2.52a36.9 36.9 0 0 1-12.607-7.563m7.564 10.086h-2.521v2.52l7.564 7.565a16.5 16.5 0 0 0 7.564 7.564q10.086 7.565 12.607 2.522a7.26 7.26 0 0 0-2.521-5.043l-10.086-5.044q0-2.521-3.782-3.782a15.8 15.8 0 0 1-6.303-3.781zm272.312 27.736h2.522l5.043 2.521q2.52 0 0-2.521a7.27 7.27 0 0 1-5.043-2.521 7.26 7.26 0 0 0-5.043-2.522l2.521 2.522zm12.607 27.736h2.522v-2.523a2.228 2.228 0 0 0-2.522-2.522q-2.52 0-2.521 1.261 0 1.262 2.521 1.261zm-126.07 60.512q2.521 0 0-1.26l-5.043-2.522-5.043 1.261q-2.52 5.042 5.043 7.564l2.522-2.521zM172.727-24.117q2.521 0 2.522-1.26t-3.785-3.783q-3.782-2.521-3.782 2.523 0 2.52 5.045 2.52M341.66 79.261a3.152 3.152 0 0 0 5.043 0v-2.522h-5.043zm700.952 922.836v2.52a19.4 19.4 0 0 1 2.522 7.565 7.27 7.27 0 0 1-5.043-2.521q-5.043-5.043-5.043-7.564-5.043-5.043-5.043-7.565a22.4 22.4 0 0 1-2.521-10.085v-2.522h2.521l7.565 10.086a26 26 0 0 1 5.042 10.086m15.128-20.172q5.043 5.043 5.044 7.565v5.042q-2.522 0-5.043-5.042a14.53 14.53 0 0 1-5.043-10.086 3.15 3.15 0 0 1 5.043 0zm-45.385-25.214h-5.042l2.52 2.521v2.522h3.783l-1.26-2.522zm-25.214-17.65q0-2.522-5.043-5.043v3.782l2.522 3.782 2.521 2.522zm27.736-25.214h2.522v7.564q-5.044 2.521-6.304 0a17.56 17.56 0 0 1-1.26-7.564v-8.823l2.52-1.26v6.303zm40.343 15.128-2.522-2.52v-1.262l-2.52-1.26zm-20.172 10.086a75 75 0 0 1 7.565 10.086 39.7 39.7 0 0 1 5.043 13.867q0 3.783-5.043 1.26a26.56 26.56 0 0 1-10.086-22.692zm-70.6 60.514q2.522-2.521 5.044 2.521a27.1 27.1 0 0 1 5.042 15.129q-2.52 0-5.042-5.043a24.5 24.5 0 0 1-5.044-12.607zm-12.606-136.156 5.043 2.521v2.522a7.26 7.26 0 0 1 2.521 5.042q0 2.522-1.26 2.522h-1.261l-5.043-5.043-5.043-10.086q5.042 0 5.042 2.522zm17.65 25.214v-5.04l-7.564-7.565v3.782l1.26 2.522a9.7 9.7 0 0 1 1.26 3.782l2.523 2.52zM931.67 830.64a19.4 19.4 0 0 0 2.521 7.565h2.522l1.26-1.261v-2.521l-2.521-2.522zm-27.736-10.085h-5.041v2.521l2.521 2.522v2.522q2.521 2.521 3.782 2.521t1.26-2.521q2.522 0 0-5.043zm-12.607-12.607v2.521a2.228 2.228 0 0 0 2.521 2.522v-2.522zM613.974 649.1v5.042l2.521 2.521v2.522l-5.042-5.043v-2.521zm234.491 30.256 2.521 5.043 2.522 2.521a11.2 11.2 0 0 0-1.26-5.042q-1.262-2.521-6.305-2.522zm5.043 2.522a7.26 7.26 0 0 0-2.522-5.043l-2.521-2.522a7.26 7.26 0 0 0 2.521 5.043zm60.514 25.214q0 5.043 2.52 5.043a7.27 7.27 0 0 0-2.522-5.043zm12.607-5.043q0 5.042 2.521 5.043a7.26 7.26 0 0 0-2.521-5.043m-695.912 105.9a4.04 4.04 0 0 0 2.522 3.781 9.7 9.7 0 0 0 3.782 1.261h3.782l2.522 2.521h2.521a2.228 2.228 0 0 0-2.521-2.521 2.228 2.228 0 0 0-2.522-2.522h-5.043a19.35 19.35 0 0 0-7.564-2.52zm-47.906-12.608a5.14 5.14 0 0 1-3.783-1.26 9.97 9.97 0 0 0-6.303-1.261 7.26 7.26 0 0 0 5.043 2.521q2.521 2.521 3.782 2.521h1.26zm-63.035-85.728q-2.522 0-3.783-3.782-1.26-3.782-3.782-3.782-2.521-2.522-2.521 0v7.564a19.35 19.35 0 0 1 7.564 2.522l5.043 2.52h2.521zM291.23 434.78h-2.521v2.52l2.521-1.26zm-7.564 2.52 3.782-3.78-1.26-1.262-2.522 2.522zm7.564-27.735q0-2.522-2.521 0a2.228 2.228 0 0 1-2.521 2.521h2.52a7.27 7.27 0 0 0 5.043-2.521zm-5.042-80.684a2.228 2.228 0 0 0-2.522 2.52v-2.52a7.26 7.26 0 0 0-2.521 5.042 7.26 7.26 0 0 1 5.043-2.522zm-15.13-35.3a2.228 2.228 0 0 0-2.52 2.521zm22.693 70.6a2.228 2.228 0 0 0-2.52 2.52h-2.522l7.564-2.52zm12.608 45.384a3.15 3.15 0 0 0 0-5.042q-2.522 0-2.522 5.042zm-12.608 10.086-5.042 2.522h2.521zm-12.606-42.864q2.521-2.522 0-2.521zm10.085-45.386a5.14 5.14 0 0 0 3.783-1.26q1.26-1.261-1.262-3.783zm80.685 7.564v-2.52a2.228 2.228 0 0 0-2.52 2.521zm143.72-57.991q-2.52-2.522-2.52 0zm45.386-20.172q5.043 0 5.043-2.52zm-22.693 47.907-2.52 2.522a2.228 2.228 0 0 0-2.522 2.52h2.521a7.26 7.26 0 0 0 2.521-5.042m-60.514 73.121h-2.522l2.52 2.521a2.228 2.228 0 0 0 2.522-2.52zm-27.736-30.257v2.521a2.228 2.228 0 0 0 2.522-2.52zm93.292-50.428v-2.521h-2.521zm-73.119-110.942h2.522v-2.521zm-133.635 52.95q0 2.521 2.521 0zm-103.378 2.521 3.784-3.782-1.263-1.26q-1.26-1.262-7.564 2.52 0 2.522 5.043 2.522m-47.907-75.642 2.521-2.522h-2.52zm716.08 42.863q2.522 2.522 7.565 0l2.52-2.52v-1.262l-2.52-1.26-2.522 2.521a7.27 7.27 0 0 0-5.043 2.521m-15.128 32.779q-2.521 0-7.564 7.564a5.14 5.14 0 0 0 3.782-1.26l3.782-3.783zm42.864-50.428h-2.52a4.04 4.04 0 0 0-3.781 2.521q-1.261 2.521 2.52 1.26 3.783-1.26 3.78-3.781m98.335-40.343a8.914 8.914 0 0 0-7.564-7.566v2.522l2.52 2.521zm-2.522 10.086 2.522 2.521v-5.043h-2.522zm95.814 0-2.521-2.522v2.522q-2.522 2.521 0 2.521 0 2.521 2.521 0h2.521zm98.335 312.655v-2.522l-5.043 10.086a75 75 0 0 1-7.564 10.086l-2.521 2.52a5.14 5.14 0 0 0-3.783 1.261l-3.782 3.783h-2.521a7.27 7.27 0 0 0 5.043-2.522l5.043-7.564q7.564-7.564 10.085-7.564a29.3 29.3 0 0 1 5.043-7.564m22.693-378.212a2.228 2.228 0 0 0 2.521-2.521q0-2.522-1.26-1.26a5.13 5.13 0 0 0-1.261 3.78m0 10.086a2.228 2.228 0 0 0-2.522 2.521l-2.521 2.522a4.455 4.455 0 0 0 5.043-5.043m-935.443-5.043-2.522 2.521zm5.043 7.564 5.043 2.522a5.14 5.14 0 0 0-1.261-3.783 9.97 9.97 0 0 0-6.304-1.261zm10.085 5.043 2.521 2.521v-2.521l-2.52-2.521q-2.522 0 0 2.52m-20.17 5.043-3.783-3.782-3.783-1.261h-2.52l5.042 2.521h2.522a2.228 2.228 0 0 0 2.523 2.522m-5.042-7.564q-2.521 2.52 0 2.52h5.043v-2.52zm0 17.65v2.52h2.521q2.522-2.52 0-2.52zm-10.086 7.564-2.521-2.522a2.522 2.522 0 0 0 0 5.043v-2.521zm-10.087-30.257a7.27 7.27 0 0 0 2.521 5.043v-2.522a2.228 2.228 0 0 0-2.521-2.521M210.546 1.099h2.522a7.27 7.27 0 0 1 5.042-2.523 7.26 7.26 0 0 1 5.043-2.522h-7.564q-5.043 0-5.043 2.522zm-45.385 12.607-2.521-2.523a2.228 2.228 0 0 0 2.52 2.521zm-55.471-2.523v2.521h5.043l-2.522-2.521q0-2.521-2.521 0m50.428-25.214q-2.521-5.043-2.522-2.522zm78.164 37.82a11.2 11.2 0 0 0-1.26-5.043q-1.26-2.521-3.781 0l2.52 2.521zm52.95 10.087a19.35 19.35 0 0 0-7.565-2.522v2.522a10.28 10.28 0 0 0 7.564 2.52zm15.128-5.043V26.31l-2.522 2.522zm-55.473 65.556a5.14 5.14 0 0 0-1.26-3.782q-1.261-1.26-1.261 1.261a2.228 2.228 0 0 0 2.523 2.521zm-75.64-47.907h2.52a7.27 7.27 0 0 0-5.04-2.52zm143.718 60.514 2.522 2.522h2.52q.003-5.043-5.042-2.522m-52.948 2.522V99.432a10.27 10.27 0 0 0-2.521-7.564 2.228 2.228 0 0 0-2.522 2.521v5.043l5.043 7.564zM223.153 41.44q2.522-2.522-2.521-2.522zm-52.95 27.736q2.522 0 0-2.522h-2.52v2.522zm12.608-10.086 2.521 5.043-2.521-2.521zm-73.12-27.736a2.228 2.228 0 0 0-2.52-2.522q-2.522 0 0 2.522zm128.592 52.95q0-2.522-1.26-1.261a1.575 1.575 0 0 0 0 2.52q1.26 1.261 1.26-1.26m10.086-10.086h-2.523a3.152 3.152 0 0 0 5.043 0zm63.035 30.257h-5.044a2.228 2.228 0 0 0 2.521 2.52h5.043zm-15.13-2.52h-2.522v2.521a2.228 2.228 0 0 0 2.522-2.522m289.962-10.086v-2.523q2.521 0 0-2.52-2.521-2.522-2.521 2.52zm-73.119-20.172h3.782l-1.26-2.52-2.524 5.041zm-2.52 20.172h2.52v-2.523a2.228 2.228 0 0 0-2.52-2.52q-2.525 0-.003 5.042zm-10.086-5.043h2.518v5.043h-2.52q7.563 2.521 7.563 0l-2.52-2.522v-1.261l-2.523-3.782h-2.52zm100.855 40.343a2.228 2.228 0 0 0-2.522 2.52q-2.521 2.522-1.26 3.783l1.26 1.26a5.14 5.14 0 0 1 1.26-3.781l1.262-1.261q2.52-2.522-.001-2.522zm237.012-95.814a5.14 5.14 0 0 1 3.782 1.26 5.14 5.14 0 0 0 3.782 1.262l-2.522-1.262zm22.693 12.607v2.52h2.521l-5.043-5.043v2.522zm118.506 161.37v-3.783l-2.522-1.26v2.52zm7.564 12.607q0 2.522 1.261 1.261a5.14 5.14 0 0 0 1.26-3.782l-5.042-5.043q-5.043-2.522-5.043 0v2.521l2.521 5.043zm-7.564 17.65h2.521l-2.522-5.043q-2.522 0-2.521 5.042zm-176.499-17.65a179 179 0 0 0 22.693-7.564q7.564-5.043 7.564-7.564t-2.521-1.26l-20.172 10.085-3.782 2.521-1.26 1.26h-2.522zm37.821-20.17a4.455 4.455 0 0 0-5.042 5.042h5.042l2.521-2.523v-5.042zm-115.985 79.423q0-1.261-2.522 1.26a4.455 4.455 0 0 0-5.043 5.043v2.523q2.522 2.521 7.565-5.043zm-15.129 28.996a10.28 10.28 0 0 0 7.564-2.522q5.043-2.52 5.043-5.042a7.26 7.26 0 0 1-5.043-2.522l-2.52-2.521a12.56 12.56 0 0 0-12.607 2.521 19.4 19.4 0 0 0-2.521 7.564 8.24 8.24 0 0 0 10.084 2.522m15.129-15.129a3.152 3.152 0 0 0-5.043 0 4.12 4.12 0 0 0-1.26 5.043q1.26 2.522 3.781 0a7.27 7.27 0 0 0 2.522-5.043m-10.086 0 2.521-2.52a3.15 3.15 0 0 0-5.042 0l-2.522 2.52 2.522 2.522zm-10.086 2.522q2.522-2.522 0-2.522l-2.521 2.522zm-12.607 90.77v2.522h2.522l1.26-1.26v-1.262zm0 17.65 1.26-2.521-1.26-2.522q-1.26-2.52-2.52 2.522-1.261 5.043 2.52 2.521m-2.52 15.129-2.522 2.521a20.7 20.7 0 0 1 6.303 1.261 20.7 20.7 0 0 0 6.304 1.26q5.042 2.522 5.042 1.261t-5.042-3.782a14.6 14.6 0 0 0-10.086-2.521m-30.258 37.82a5.14 5.14 0 0 0 3.782-1.26 1.576 1.576 0 0 0 0-2.521q-1.26-1.261-3.782 1.26zm-2.521-7.563h-2.522l-2.521 2.52 2.521 2.523zm-393.34-320.22v2.524l2.521-2.522zm-40.343-20.17v2.52l2.522-2.52zm7.564-52.95-2.52-2.521q-2.523 2.52 0 2.52zm5.043-5.043-2.521 2.522h2.521zm2.522-25.214q0 2.522 1.26 2.521h1.26a2.228 2.228 0 0 1-2.52-2.521M200.46 38.918h2.522a2.228 2.228 0 0 0-2.522-2.521zm1021.172 73.12h2.52v-2.52q0-2.522-5.042-2.522a7.26 7.26 0 0 0 2.522 5.043zm5.042 2.52v-2.519a2.228 2.228 0 0 0-2.521 2.522zM160.118 744.912l-2.522-2.521a2.228 2.228 0 0 1-2.52-2.522v-2.52a3.15 3.15 0 0 0-5.044 0v5.042a2.228 2.228 0 0 0 2.522 2.521h2.521a5.14 5.14 0 0 1 3.782 1.261 3.63 3.63 0 0 0 2.522 1.26q1.26 0 1.26-2.521zm-70.6-57.99 2.522 2.521v2.521l2.521-2.521zm90.771 126.07a2.228 2.228 0 0 0 2.522 2.521v-2.521zm7.564 17.65q-2.52-2.521-2.52 0t2.52 0m5.044-15.129h-2.523a2.228 2.228 0 0 0 2.521 2.522zm10.085 5.043q-2.522-2.522-2.522 0zm-20.171-2.521v2.521h2.521zm10.086 12.607 5.042 2.521a2.228 2.228 0 0 0-2.521-2.521zm15.128-5.043v-2.521l-2.522 2.521zm968.22-242.055h-2.52l2.52 5.043zm-10.085 10.085v2.522h2.522zm-433.682 73.12-2.521-2.522v5.042h2.52zm2.521 10.085-2.521 2.52h2.521zm47.907 15.128 2.521 2.522q0 2.52 2.522 0h-2.522v-2.52l-2.52-2.521zM770.3 669.268v2.524q2.521-5.043-2.522-5.043zm15.128-52.948-2.52-2.521zm-10.085 0 2.521 2.521a2.228 2.228 0 0 0 2.522-2.521 3.152 3.152 0 0 0-5.043 0m272.312 17.65q0 2.52-2.521 1.26a11.2 11.2 0 0 0-5.043-1.26h2.521l2.522 2.521h5.043zm-98.335 115.985 2.521 2.52v-2.52zm-2.521 103.377h-2.523v2.524h2.521z" style="stroke-width:43.6791"/>
</svg>
