<svg xmlns="http://www.w3.org/2000/svg" width="1090" height="960">
    <path d="M531.834-30 120.929 372.765l410.905 404.847-.43-138.936L261.87 372.765 531.834 103.51zm26.332 0v133.51L828.13 372.766l-269.534 265.91-.43 138.936 410.905-404.847zm-26.332 170.258L307.647 372.765l224.187 226.843V475.389L430.2 369.936l101.634-105.46zm26.332 0v124.218L659.8 369.936 558.166 475.389v124.219L782.36 372.765zM120.433 417.103V990l94.156-94.15V511.146zm849.134 0-94.156 94.043V895.85L969.567 990zM247.08 543.434v341.38l94.12-97.193V638.276zm595.84 0-94.12 94.842v149.345l94.12 97.194z" style="stroke-width:3.05577"/>
</svg>
