<svg xmlns="http://www.w3.org/2000/svg" width="1200" height="960">
    <path d="M574.081 932.598c-70.215 2.357-103.674 6.598-129.593 16.965-17.907 7.069 26.39 9.896 161.167 10.368 110.272.47 156.925-1.414 195.568-7.07 56.55-8.481 72.1-13.665 53.25-17.906-17.436-4.242-188.97-5.655-280.392-2.357m291.703-123.466-19.322 18.378-105.56 2.828c-57.962 1.413-154.097 3.298-213.474 4.24l-108.387 1.886-19.792-18.379c-15.08-14.137-22.62-17.907-30.16-15.551-17.436 5.655-11.781 24.034 15.08 49.481l24.505 23.562h52.78c50.894 0 292.173-7.068 382.652-11.31 43.355-1.885 44.297-2.356 60.32-18.85 8.953-8.953 16.022-19.32 16.022-23.09 0-7.07-24.033-31.574-31.102-31.574-2.356 0-12.724 8.482-23.562 18.379m-131.478-147.5c-50.424 41.469-135.248 56.549-196.982 34.871-15.08-5.183-31.573-12.252-36.757-15.55-8.483-5.184-14.138-.472-59.377 45.239l-50.424 50.895 19.793 19.32 19.32 19.793 69.745-1.413c38.171-.472 110.272-2.828 159.282-5.184 49.48-2.828 111.214-4.713 137.133-4.713h48.067l14.609-16.493c8.01-9.425 14.608-18.379 14.608-19.793 0-5.183-114.984-119.225-119.696-119.225-2.828.47-11.31 5.655-19.321 12.252m-47.125-27.333c-32.988 16.965-80.583 19.32-114.513 6.126-29.689-11.781-42.884-12.724-46.183-2.827-4.712 11.31 6.127 19.792 37.229 30.16 34.401 11.78 64.09 12.723 95.663 2.356 39.585-12.253 75.4-35.815 69.745-44.769-3.77-6.597-16.494-3.77-41.941 8.954m-319.977 38.17c-42.884 43.356-50.895 53.252-48.539 62.205 2.357 9.425-8.482 22.15-72.1 86.71-77.756 78.227-85.767 90.48-65.504 101.318 8.954 4.713 17.436-2.356 88.595-72.572 49.01-48.067 82.468-78.227 88.594-78.227 10.368 0 105.088-94.25 105.088-105.088 0-6.598-35.343-45.711-41.47-45.711-1.884 0-26.39 23.091-54.664 51.366m388.308-87.18c0 3.77-3.3 8.011-7.54 9.425-3.77 1.414-5.655 5.184-4.242 8.011 2.357 3.299 7.54 1.414 14.61-5.655q19.791-18.378 4.24-18.378c-3.77 0-7.068 2.827-7.068 6.597m-292.174-11.31c-4.24 7.54-2.356 13.195 10.368 30.16 18.85 25.919 26.39 29.217 37.7 18.379 8.482-8.483 8.01-9.425-8.954-33.459-18.85-25.919-31.102-30.631-39.114-15.08m278.507-153.626c-3.77 4.24-4.712 15.08-2.356 30.16 3.299 24.504-7.068 70.686-19.321 85.766-10.839 13.195-12.252 23.563-3.299 23.563 17.908 0 58.435-90.008 50.895-113.57-.942-3.77-3.299-12.253-4.712-19.793-3.3-13.666-12.724-16.494-21.207-6.126m-164.465-14.61c-8.954 2.828-23.091 13.667-32.045 24.506-14.608 17.907-16.022 22.62-16.022 49.01 0 18.85 2.827 34.4 7.54 42.412 18.85 32.045 67.86 46.653 100.847 30.16 25.918-13.195 47.125-45.24 47.125-70.216 0-58.435-50.895-94.25-107.445-75.871m-104.617-.47c-32.045 34.4-45.71 106.03-26.86 142.316 4.24 8.954 5.183 8.954 15.55-3.298 8.954-10.368 10.368-15.08 6.598-24.977-9.425-24.504-.943-77.284 16.493-101.789 14.61-21.206 5.655-30.631-11.78-12.252m-26.86-43.355c-1.415 5.184-4.242 9.425-6.598 9.425s-4.241 4.712-4.241 10.367c.47 10.368.47 10.368 5.654 1.414 2.828-5.184 8.012-11.31 11.782-13.195 7.54-4.712 8.482-17.436.942-17.436-2.827 0-6.126 4.241-7.54 9.425m248.347-21.206c-4.713 5.655-2.828 11.781 11.31 32.987 17.907 26.39 25.918 31.102 35.343 19.321 6.597-8.011.942-24.033-16.022-44.297-13.667-16.494-21.678-18.85-30.631-8.011m373.227-10.368c-11.78 28.746-15.08 78.699-14.608 229.498 0 147.971 3.298 195.567 10.838 164.936 1.414-6.597 5.184-21.206 8.011-32.987 7.07-27.332 11.31-335.528 5.184-358.148l-4.241-16.494zM545.335 290.76c-28.746 8.953-73.985 37.228-70.215 43.354 4.24 6.598 11.31 5.184 39.584-8.482 44.769-21.206 90.009-20.264 139.96 4.241 11.31 5.184 30.16-1.885 30.16-11.781 0-12.724-64.09-36.757-95.663-35.815-10.838.471-30.63 4.241-43.826 8.483m299.714 26.39-49.481 49.48 8.01 15.08c36.287 72.101 28.747 162.11-18.378 228.555-6.126 8.011-10.838 16.494-10.838 18.85.47 6.598 112.156 119.226 118.754 119.226 3.77 0 12.252-6.127 19.32-13.195 12.725-13.195 12.725-13.666 16.966-114.042 2.827-55.607 6.126-150.328 7.54-209.705l2.827-108.387-16.493-17.907c-8.954-9.425-19.321-17.437-22.62-17.437s-28.275 22.149-55.607 49.481m85.767-82.469c-5.655 5.655-10.368 11.781-10.368 14.138 0 2.827 8.483 13.666 18.85 24.033l18.85 19.793-2.356 179.545c-1.414 98.49-3.77 196.981-5.184 217.716-2.356 37.229-3.299 39.114-21.206 56.55-9.896 9.896-18.379 20.263-18.379 23.562 0 7.069 26.861 30.16 34.401 29.689 3.299 0 13.195-8.954 22.149-19.322 16.022-18.85 16.494-20.263 19.792-71.63 1.414-28.745 4.713-137.132 6.598-240.806l3.298-188.97-25.918-26.862c-14.138-14.608-26.861-26.86-27.804-26.86-1.413 0-7.068 4.24-12.723 9.424m-794.523 0c-1.414 6.598-5.184 21.206-8.011 32.987-7.07 27.333-11.31 335.528-5.184 358.148l4.241 16.494 5.184-13.195c11.78-28.746 15.08-78.698 14.608-229.497 0-147.972-3.298-195.568-10.838-164.937m162.58-11.781c-6.126 6.597-12.724 19.792-15.08 29.217-1.885 9.896-5.184 105.56-7.069 212.533l-3.298 194.625 15.55 16.022c8.955 8.954 19.793 16.494 24.034 16.494s26.862-20.264 49.481-45.711c33.459-36.286 41.47-47.596 40.528-57.492-.943-6.598-3.77-14.609-6.127-17.908-9.896-11.78-24.033-82.94-20.734-105.088 7.54-49.48 21.206-86.71 42.883-116.398 6.126-8.011 11.31-18.378 11.31-22.62 0-9.896-103.674-115.455-113.1-115.455-3.77 0-12.252 5.655-18.378 11.78m-53.25-45.24-21.207 23.563-3.299 76.813c-1.413 42.412-3.298 150.328-3.77 240.336l-1.413 163.994 26.39 26.39c26.39 25.918 26.86 26.39 36.757 17.907 14.137-12.252 12.723-17.907-9.425-41.94l-19.321-20.736 5.183-156.925c2.828-86.238 5.184-183.786 5.184-216.774 0-42.883 1.885-60.79 6.126-63.618 2.828-2.356 12.724-11.31 20.735-20.735l15.551-16.494-18.378-17.907-17.908-17.436zm441.558-32.516c-43.826 1.885-134.306 5.184-200.28 7.069l-120.168 3.299-15.08 16.964c-18.379 19.793-22.149 12.724 47.596 84.354l50.894 52.308 16.494-9.896c36.286-22.62 45.24-27.332 71.158-36.286 35.815-12.724 89.066-12.724 128.65 0 16.495 5.655 32.046 11.781 34.402 14.137 12.252 12.253 26.39 3.3 70.687-43.354 24.976-25.919 45.24-49.01 45.24-50.895 0-8.011-40.527-43.826-47.125-41.47-1.414.471-38.171 2.356-82.468 3.77m-61.262-57.963c-20.735.47-97.077 3.298-169.65 6.126L324.32 98.49l-17.436 16.965c-20.735 20.263-22.148 28.274-6.597 42.412 14.608 14.137 24.976 13.666 36.757-.943 16.494-21.206 30.16-24.976 92.836-25.447 32.516-.471 59.848-1.885 61.733-2.828s70.687-2.356 152.684-2.827l149.857-.471 19.792 18.85c18.379 17.907 19.793 18.378 30.16 11.78 15.551-10.838 13.195-18.849-15.08-46.653L803.58 83.882l-69.745.943c-38.642.47-87.18 1.413-107.915 2.356m317.149 30.16c-64.09 65.974-75.87 75.87-85.296 73.043-9.896-2.356-18.85 4.712-62.676 49.48-28.274 28.276-52.308 54.194-53.25 56.55-1.414 5.184 39.113 46.654 46.182 46.654 7.54 0 108.858-108.858 108.858-116.87 0-4.24 34.872-42.883 77.284-85.295 76.814-76.813 77.285-77.285 69.745-88.123-4.241-6.127-12.252-10.839-17.436-10.839-6.126-.471-36.286 27.332-83.411 75.4M397.835 6.126c-104.617 16.494-78.698 21.206 113.57 21.206 147.5 0 186.143-1.885 227.613-12.252C788.498 3.299 755.04 0 588.218 0 487.844 0 424.226 2.356 397.836 6.126" style="stroke-width:.471247"/>
</svg>
