<svg xmlns="http://www.w3.org/2000/svg" width="1475" height="960">
    <path d="M692.946-27.401c-1.902 2.377-11.887 5.705-22.822 7.607-26.15 4.755-49.447 14.74-52.775 23.297-2.377 5.23-6.656 5.706-23.297 1.902-25.199-5.705-58.48-2.377-69.415 7.132-8.559 7.131-59.907 7.607-87.483.95-10.935-2.852-13.313-1.901-15.215 7.608-1.426 6.18-2.377 14.739-1.901 18.542 0 3.804-2.853 14.264-6.181 22.822-5.706 13.788-5.23 16.165 3.328 25.199l9.984 9.984 19.494-9.984C459.5 81 475.19 77.673 491.355 77.673c20.92 0 27.1 2.378 37.085 12.837l11.886 12.362-16.64-2.377c-18.543-2.853-60.382 4.279-70.842 12.362-3.804 2.852-19.494 7.607-34.708 10.935-24.248 4.754-30.429 4.754-44.692-1.902-11.887-6.18-15.69-9.984-13.313-16.64 1.426-4.755-.95-11.887-4.754-16.166-4.28-3.804-7.608-13.313-7.608-20.92 0-19.018-8.558-22.346-14.739-6.18-6.656 17.591-1.901 51.823 8.559 62.759 21.87 22.346 55.152 29.953 77.498 17.116 6.656-3.804 16.64-6.656 22.346-7.132 5.705 0 10.935-2.377 11.886-5.23 2.853-8.082 49.447-14.263 64.661-8.558 9.985 3.804 10.936 5.706 5.706 9.034-3.804 2.852-11.411 4.754-16.641 4.754s-15.214 2.853-21.87 6.657c-6.657 3.328-19.97 7.607-29.479 9.509-14.263 2.852-17.591 5.23-17.591 13.788 0 6.18 4.279 14.738 9.984 19.018 6.656 5.705 8.558 11.41 6.656 16.64-11.886 28.052-2.852 44.693 12.838 24.248 4.754-6.18 10.935-13.788 13.788-16.165 2.852-2.853 10.935-9.985 17.591-16.64 26.625-25.2 58.005-37.561 58.005-22.822-.475 23.772-21.395 70.842-48.971 108.878-30.904 42.315-54.201 53.725-73.695 36.134-4.279-3.804-15.69-10.936-24.723-16.166-37.085-20.444-46.594-27.576-57.054-42.315-5.706-8.558-21.395-26.625-34.233-39.462-19.968-19.969-23.297-25.674-20.444-34.708 1.902-6.18 4.755-23.772 5.706-39.462 1.426-23.297 0-30.429-8.083-39.938-12.837-14.739-22.822-10.46-19.969 8.558 2.853 19.494-8.558 23.773-31.38 11.411-13.788-7.607-19.969-8.558-28.051-4.754-6.181 2.377-10.936 7.607-10.936 10.935s4.755 6.656 10.46 7.607c7.132.951 10.936 4.755 10.936 10.935 0 6.657-7.132 12.838-25.2 20.92-19.493 9.034-24.722 13.788-24.722 22.822 0 12.362 1.426 12.837 14.738 6.18 7.132-3.803 9.985-3.327 11.887 1.902 1.426 4.28 10.46 11.887 19.969 17.592 25.198 15.214 29.002 20.92 26.15 43.741-3.329 24.248-8.083 30.43-18.068 22.347-11.41-9.51-9.509 6.18 1.902 16.165 8.083 7.607 11.886 7.607 27.576 2.853 9.985-3.329 22.822-8.559 28.527-12.362 9.509-6.181 11.41-4.755 27.1 16.165 28.052 37.085 61.81 79.4 73.22 91.286 13.788 14.74 11.41 20.445-9.034 24.248-9.033 1.902-22.346 5.706-30.428 8.083-31.856 11.41-49.447 13.313-77.499 9.984-35.183-3.803-41.84-8.558-48.971-34.232-5.705-20.92-35.183-55.627-47.07-55.627-12.361 0-14.738 5.705-6.656 14.738 3.804 4.28 6.657 13.313 5.706 19.494-.951 9.033-4.755 10.935-20.92 12.362-21.87 1.426-38.036 14.739-33.282 27.1 2.378 6.181 4.28 6.181 12.362 1.427 8.083-5.23 10.46-4.755 14.264.95 8.082 12.362 5.23 21.396-11.887 38.036-9.033 9.034-16.64 19.018-16.64 21.871 0 11.41 9.509 11.886 22.346 1.902 11.41-9.034 12.837-9.034 20.92-1.902 5.705 5.23 13.312 7.132 22.346 5.23 24.248-4.754 39.462 2.377 46.118 21.87 5.23 14.74 4.755 18.543-.95 23.298-6.182 4.754-6.182 6.656.95 11.41 15.215 10.936 41.364-8.558 47.545-35.183 3.804-17.591-.475-17.116 100.795-10.935l63.235 4.279 36.134 24.723c37.085 25.2 52.775 37.56 72.269 56.103l10.935 10.46-16.165 15.69c-9.034 8.558-23.297 29.478-31.38 47.07-8.558 17.591-19.018 32.806-23.297 34.707-4.754 1.427-24.723-1.901-44.217-7.131-19.018-5.23-40.413-9.51-46.118-9.51-10.936 0-32.806-9.984-48.496-21.87-3.804-2.853-18.543-6.656-32.33-8.083-20.445-2.377-29.479-6.656-44.218-19.968-10.46-9.51-26.625-20.445-35.658-24.724-14.74-7.607-17.116-7.607-23.773-.475-8.558 8.558-5.23 18.067 5.706 18.067 9.033 0 8.558 21.87-.951 25.674-4.28 1.426-10.936 2.853-15.69 2.853-12.362 0-30.904 21.395-27.1 31.38 2.377 6.18 4.278 7.131 8.557 2.852 3.329-3.328 10.46-5.705 16.641-5.705 15.69 0 19.494 19.969 6.656 36.134-5.705 7.132-9.984 15.69-9.984 19.018 0 8.558 9.034 12.837 15.69 7.607 3.328-2.853 16.64-5.705 29.478-7.132 13.312-1.426 30.904-4.279 38.987-5.705 13.788-2.853 16.165-1.902 19.968 8.558 2.378 6.656 7.132 13.313 9.51 15.214 2.852 1.427 5.23 9.034 5.23 17.117 0 23.772 19.017 16.64 33.28-12.838 5.706-11.41 11.887-20.92 13.789-20.92s13.312 5.23 24.723 11.887c11.411 6.18 32.33 17.116 45.643 23.772 13.788 7.132 26.15 14.264 27.576 17.117 1.902 2.377 16.166 4.279 32.331 4.279 29.953-.476 50.873-9.985 50.873-24.248 0-7.132 23.297-32.806 29.953-32.806 2.853 0 16.641-5.706 31.38-12.362s33.282-15.69 41.84-19.493l15.214-7.132 29.003 28.051c16.165 15.215 31.38 31.38 33.756 36.135 8.083 13.788.476 26.15-23.297 37.56-12.361 5.705-31.855 19.018-43.265 28.527-22.347 19.493-44.217 27.576-73.695 27.576-9.985 0-26.15 2.377-36.134 5.23-14.264 4.28-20.445 3.804-32.33-2.377-8.559-4.28-26.15-7.607-43.742-7.607-24.724 0-28.527.95-28.527 9.033 0 5.706 4.279 9.985 11.41 11.886 18.543 4.755 19.97 17.592 3.329 31.855-10.46 8.559-14.74 16.166-14.74 26.626 0 19.018 5.23 22.821 14.74 10.46 5.23-7.132 10.46-9.034 17.591-7.132 8.558 2.852 10.46 7.607 11.411 29.953 1.426 28.527 10.935 39.462 16.165 18.543 1.902-8.083 7.132-12.837 16.166-14.74 7.131-1.426 19.018-9.033 26.15-16.64 13.787-14.739 36.609-19.493 42.79-9.034 1.902 2.378 8.558 6.657 14.739 9.51 9.984 3.803 10.935 5.705 6.656 14.263-4.754 8.558-4.279 9.509 2.853 8.083 9.509-1.902 12.837-8.083 21.395-38.512 7.132-25.674.475-21.87 92.237-50.398 45.168-14.263 67.99-27.576 86.532-51.824 11.41-15.214 15.69-25.674 15.69-38.986 0-9.985-1.902-19.494-4.28-21.396-10.459-6.18-19.493-34.232-19.493-60.382 0-32.33 6.657-38.036 30.43-26.625 48.02 23.773 96.99 37.085 135.978 37.085 23.772.476 38.511 2.853 44.692 7.132 12.362 9.509 38.511 9.033 67.038-1.426 33.282-11.411 48.972-23.773 91.287-71.318 26.625-29.953 34.708-41.84 29.002-42.79-11.886-2.378-33.281 10.46-64.186 38.036-26.15 24.248-48.495 39.462-51.348 36.134-.476-.951 4.279-9.985 10.935-20.445 15.69-24.247 29.478-61.808 29.478-80.826 0-23.772-19.018-55.628-40.413-67.99-39.938-22.82-108.403-2.852-141.684 41.365-9.51 13.312-17.592 27.1-17.592 31.38 0 10.46-3.803 9.033-23.297-10.936-23.297-23.297-73.694-54.201-100.32-60.857-11.886-2.853-30.904-9.985-42.79-15.215-11.886-5.705-27.1-10.46-34.232-10.46-7.608 0-13.313-2.852-13.313-6.18 0-6.657 29.478-19.018 66.563-27.577 16.165-3.803 32.33-11.886 43.266-20.92 19.018-16.64 55.627-28.05 76.072-23.772 11.41 2.853 14.263.951 21.395-12.837 16.64-32.806 38.036-46.119 82.728-50.873l25.675-2.853 9.984-26.15c11.41-30.428 38.511-54.2 67.514-58.955 33.757-6.181 43.741-12.362 48.971-30.904 5.23-19.97 29.003-48.02 49.922-58.956 33.757-18.067 51.824-22.346 95.566-22.346 41.364 0 61.333-6.181 41.364-12.362-4.755-1.426-12.362-4.754-16.64-7.132-16.642-8.558-89.86-33.281-129.799-43.741-134.076-34.708-283.843-28.527-400.804 17.116-13.788 5.706-28.527 13.788-32.806 19.018-8.082 8.558-7.131 9.51 13.788 28.527 29.954 27.576 39.938 61.333 26.626 92.237-9.034 21.871-23.298 34.708-38.036 34.708-28.052 0-69.416 32.33-107.452 84.155-11.886 16.165-24.248 30.428-27.576 31.855-7.607 2.852-16.64-7.607-16.64-19.494 0-19.969 13.787-72.268 20.919-79.875 4.279-4.28 8.083-11.411 8.083-15.69s3.328-12.362 7.131-17.116c3.804-5.23 7.132-15.215 7.132-22.346 0-6.657 2.853-15.215 6.18-18.067 8.559-7.132 19.019-53.25 15.215-68.465-1.902-6.656-.95-13.313 1.902-14.74 7.607-4.754 6.18-27.575-1.902-39.461-7.131-9.985-6.18-11.887 13.788-32.33 29.003-30.43 32.806-50.874 7.608-42.791-13.313 4.279-17.117-9.034-7.608-23.773 4.28-6.18 7.608-14.739 7.608-18.542 0-8.559-8.083-14.264-11.411-8.083m356.111 597.64c20.92 13.788 12.362 37.56-19.969 55.152-15.214 9.034-37.56 10.936-47.069 4.755-8.558-5.23 12.362-44.217 30.904-56.579 19.018-12.837 21.395-13.312 36.134-3.328" style="stroke-width:1.33333"/>
</svg>
