<svg xmlns="http://www.w3.org/2000/svg" width="1592" height="960">
    <path d="M1204.501 660.795c-2.442 2.443 3.664 11.602 14.045 20.762 20.762 19.54 22.594 29.922 8.549 51.905-14.656 21.983-14.045 91.596 1.221 119.075 29.922 52.516 86.712 79.384 140.448 65.95 76.941-18.93 121.518-95.26 96.482-164.874-21.983-61.064-78.773-97.703-138.006-87.933-14.655 1.832-36.638 3.664-48.851 4.275-15.266 0-23.204 3.053-23.204 7.938 0 17.098-12.824 15.266-29.312-3.053-9.77-10.38-18.93-16.487-21.372-14.045m188.69 65.95c61.674 47.02 26.257 149.608-51.295 149.608-47.02 0-92.207-50.684-84.269-94.65 6.107-32.364 19.54-31.143 50.684 3.053 31.142 34.807 52.515 39.081 55.568 12.213 1.221-10.992-6.106-24.426-25.647-46.41-15.266-17.097-25.647-32.974-23.815-35.416 1.832-1.832 16.487-3.664 31.143-3.664 20.151 0 32.975 4.274 47.63 15.266M491.88 190.599c-18.93 19.541-45.799 53.737-60.454 76.33-14.656 23.205-28.7 41.525-31.143 41.525-8.549 0-22.594 58.01-36.639 150.829-6.106 40.913-2.442 89.154 9.77 131.288 4.275 14.656 16.488 14.045 29.922-1.221 9.16-9.77 10.381-18.93 7.328-53.126-4.275-50.073 2.443-127.014 10.991-126.403 7.328 0 75.11 78.773 117.244 135.563 28.09 37.249 29.922 38.47 53.126 36.638 21.373-1.832 25.037-4.274 29.311-20.151 4.885-19.54 18.93-148.387 18.93-174.034-.61-29.921-10.992-75.109-18.32-77.551-12.823-4.275-20.15 20.15-26.257 90.985-6.717 77.552-12.824 105.642-23.204 105.642-3.664 0-17.098-14.045-29.922-30.532-12.824-17.098-29.31-37.86-36.028-45.799-62.286-71.445-64.118-75.109-60.454-90.985 6.717-26.258 39.081-74.499 75.72-112.359 18.93-19.54 35.417-38.47 36.639-41.524 2.442-7.328-17.098-29.921-26.258-29.921-3.053 0-21.372 15.876-40.302 34.806M661.639 83.737c-39.082 13.434-47.63 25.647-30.533 43.355 10.381 9.77 15.266 10.992 32.365 4.886 11.602-3.054 28.09-7.939 36.638-9.77 12.213-1.833 17.098-7.94 20.151-21.984 6.717-33.585-1.22-36.028-58.621-16.487m156.324-12.824c-1.831 3.664 1.222 12.213 7.328 19.54 6.717 7.329 12.213 14.656 12.824 15.267.61 1.221 19.54 7.328 42.745 14.045 51.904 14.044 83.658 25.036 94.039 33.585 4.885 3.664 12.823 8.55 17.709 10.992 25.647 11.602 42.134 24.425 75.109 56.79 35.417 35.417 77.552 96.481 77.552 112.969 0 4.885 3.053 11.602 6.717 15.266 10.38 10.38 23.815 87.322 23.815 138.005 0 38.471-1.832 48.241-10.381 51.294-9.77 3.664-16.488-2.442-62.286-58.01-11.602-14.046-23.204-23.816-26.868-21.373-10.992 6.717 4.885 73.888 20.762 87.322 1.832 1.832 15.266 15.877 28.7 31.753 21.373 25.647 24.426 31.143 19.54 47.02-6.717 24.426-25.036 51.294-31.142 45.188-29.311-29.311-60.454-142.28-60.454-220.443 0-25.647-3.664-53.737-9.16-66.56-4.885-11.602-9.16-34.807-9.16-50.073 0-31.143-14.655-51.905-39.691-56.79-9.77-1.221-12.824-7.938-15.266-32.975-3.054-32.364-29.311-75.72-45.188-75.72-19.54 0-26.868 20.762-26.868 75.11 0 40.913-2.443 59.232-10.992 75.109-12.823 23.204-23.204 24.426-25.647 1.832-1.221-14.656-12.213-59.233-28.7-118.465-4.885-17.098-9.77-36.028-11.602-42.745-15.877-64.728-56.79-106.252-81.827-81.216-9.77 9.77-9.16 26.869 1.222 46.41 20.15 39.691 37.86 213.725 22.593 228.99-7.327 7.328-30.532-17.097-31.142-33.585 0-5.496-2.443-11.602-5.496-14.045-3.664-1.832-13.434-17.708-21.983-35.417-29.922-58.622-34.196-64.728-73.888-106.252-32.364-33.585-41.524-40.302-49.462-34.807-18.93 11.603-22.594 23.815-12.824 42.745 40.303 78.163 53.737 106.252 53.737 114.19 0 4.886 4.274 12.214 9.16 16.488 4.884 4.275 9.159 13.434 9.159 20.151s3.664 26.258 8.549 43.356c40.913 148.387 37.25 189.91-18.93 223.496-21.372 12.213-42.745 14.045-155.714 12.823-49.462-.61-62.897 1.222-79.995 11.603-26.257 15.266-31.753 33.585-15.876 49.462 9.77 9.77 20.15 11.602 64.117 11.602 32.975 0 58.622 3.053 68.392 8.549 9.16 4.885 28.09 13.434 42.135 18.93 14.045 6.106 34.196 20.151 44.577 31.143 10.38 11.602 21.372 20.762 24.426 20.762 3.664 0 27.479 13.434 53.126 30.532l47.02 30.532h62.896c60.453 0 62.896.61 78.162 16.488 32.975 36.028 13.434 46.409-85.49 47.02-59.233 0-80.605-2.443-110.527-13.435-86.1-29.922-148.997-76.33-198.459-144.723-17.098-23.815-22.594-28.09-38.47-26.257-9.77 1.22-18.93 4.885-20.152 8.549-3.664 11.602 36.639 65.95 79.995 108.084 43.355 42.134 48.24 45.187 99.535 70.834L640.266 902c12.213 6.106 46.409 13.434 109.305 24.425 40.913 6.717 62.897 4.886 139.227-13.434 106.252-25.647 226.55-123.35 281.507-228.991 7.328-13.434 16.487-26.869 21.372-29.311s8.55-9.77 8.55-15.877c0-6.106 4.274-14.655 9.16-18.93 6.716-5.496 7.327-9.77 2.442-15.877-4.275-5.495-4.275-14.655 0-31.143 10.38-36.638 8.549-156.935-3.053-196.627-43.356-145.944-145.334-249.143-292.499-295.552-39.692-12.212-93.428-17.708-98.314-9.77m-603.926-38.47c-45.188 15.876-68.393 40.913-86.101 91.596-10.992 30.532-10.992 32.364.61 66.56 16.488 47.63 42.745 76.33 85.49 90.376 32.975 11.602 34.197 11.602 67.171 0 32.975-10.992 34.196-10.992 42.135.61 8.549 10.992 9.16 10.992 15.266-4.885 3.053-8.549 9.16-17.709 12.213-20.151 3.664-1.832 6.717-9.77 6.717-16.487 0-7.328 4.274-17.71 9.77-23.816 7.328-7.938 9.77-23.204 9.77-56.79 0-53.126-10.991-76.33-50.072-107.473-19.54-15.266-30.533-18.93-62.286-21.372-21.373-1.222-43.966-.611-50.683 1.832m79.383 51.294c21.373 14.655 45.799 54.958 45.799 76.33 0 7.328-5.496 18.93-11.603 26.869l-12.213 14.655-18.93-23.205c-28.7-33.585-40.913-39.08-50.072-20.15-5.496 13.433-4.275 18.93 7.938 37.249 7.938 11.602 16.487 21.372 19.54 21.372 11.603 0 2.443 17.709-10.991 20.762-39.081 9.77-85.49-23.815-91.597-65.95-4.885-37.249 3.664-59.232 32.975-81.826 31.143-23.815 58.622-25.647 89.154-6.106" style="stroke-width:.610644"/>
</svg>
