<svg xmlns="http://www.w3.org/2000/svg" width="1292" height="960">
    <path d="M623.518 489.657c0 27.687 8.231 37.415 29.932 37.415 34.422 0 35.919-5.986 14.218-45.646-21.701-40.409-44.15-36.667-44.15 8.231m-163.88-344.97L274.808 329.52l71.089 81.566c38.912 45.647 91.293 97.28 116.736 116.736l46.395 34.422-95.784 26.939c-206.532 58.368-362.928-84.559-169.117-154.9 50.885-18.707 61.361-32.925 35.17-49.388-22.449-14.218-118.98 37.415-145.17 77.824-34.423 52.381-5.987 104.015 79.32 141.43 50.136 22.45 64.354 35.17 52.381 47.143-52.381 52.382 14.218 130.954 128.709 151.907 50.885 9.728 51.633 10.476 25.442 39.66-35.918 39.66-17.21 70.34 69.593 114.49 155.648 80.07 455.719.75 407.079-107.007-15.715-33.674-11.973-37.415 49.388-60.613 87.552-33.674 118.98-76.327 89.797-121.226-20.205-31.429-17.96-34.422 38.912-60.613 78.572-35.17 112.246-84.558 91.293-131.701-17.211-37.416-134.695-103.267-157.893-88.3-8.231 5.237 11.973 20.204 44.899 32.925 204.287 80.817 51.633 236.465-169.118 172.11l-84.558-23.945 113.742-114.491 113.743-113.743L851.751 161.15C755.22 61.626 668.416-23.68 660.185-29.668c-8.98-5.986-95.784 69.593-200.546 174.356m228.234-10.476c22.45 25.443 20.204 26.94-34.422 26.94s-56.871-1.497-34.422-26.94c13.47-14.217 28.435-26.19 34.422-26.19s20.953 11.973 34.422 26.19m-19.456 80.07c0-17.212 6.735-31.43 14.966-31.43 8.232 0 14.966 18.708 14.966 41.157l.749 41.157 30.68-37.415 29.933-37.416-9.728 50.137c-8.98 47.143-8.232 48.64 23.197 32.177 29.932-15.714 30.68-14.966 15.714 13.47-8.98 17.21-13.47 31.428-9.728 31.428s17.212 3.742 29.933 8.98c16.463 5.987 23.946.748 23.946-17.21 0-24.695 1.496-24.695 29.932.747 29.184 26.191 29.184 28.436 3.741 56.123-22.449 25.443-26.939 26.191-30.68 5.239-3.742-17.96-14.966-21.701-44.899-14.218-55.374 12.721-57.62 17.21-16.462 33.674 36.667 14.966 17.959 23.197-38.912 16.462-29.184-2.993-29.184-2.993-1.497 28.436 31.429 35.17 23.198 40.409-23.946 14.966-26.939-14.966-29.932-13.47-23.197 11.225 3.741 14.966 9.728 36.667 13.47 47.891 2.993 11.225-6.735 27.688-20.953 37.416-32.926 21.7-77.076-2.994-79.32-44.15-5.239-90.546-4.49-89.797-29.933-57.62-22.45 27.687-23.198 27.687-14.966-11.973 8.98-43.402-3.742-53.13-33.674-23.197-27.687 27.687-21.7-4.49 6.735-35.17 23.197-26.192 22.449-27.688-13.47-27.688-23.946 0-41.157 9.728-44.15 23.946-3.741 20.952-8.231 20.204-30.68-5.239-25.443-27.687-25.443-29.932 3.741-56.123 26.94-23.945 29.932-24.694 29.932-2.245 0 30.681 15.715 31.43 53.13 2.994 25.443-19.456 26.19-22.45 3.742-22.45-13.47-.748-29.933-8.23-35.92-17.959-6.734-11.224 4.49-14.966 36.668-9.728 50.136 7.483 58.368-.748 29.184-29.932-22.45-22.45-4.49-23.198 35.17-1.497 27.688 14.218 29.184 12.722 20.953-18.707l-9.728-35.17 30.68 35.17c29.933 34.422 30.681 35.17 30.681 3.741M556.918 623.603c26.94 20.204 23.198 22.45-48.64 22.45-87.551.747-121.225-23.947-45.646-33.675 26.939-2.993 52.381-6.734 56.871-8.231s21.7 7.483 37.415 19.456m349.46 2.993c3.741 2.993-14.218 5.238-38.912 5.238-25.443 0-68.096 4.49-95.784 9.728-46.395 9.728-49.388 8.232-29.932-14.966 18.708-23.197 139.185-23.197 164.628 0m-402.59 45.647c45.647 4.49 97.28 17.21 115.24 28.435s36.667 14.967 41.157 7.484c4.49-6.735 53.13-17.211 109.253-23.198 55.374-5.986 127.212-17.21 158.64-25.442 47.144-11.973 62.858-10.477 85.308 10.476 83.062 74.83-90.546 135.443-279.119 97.28-77.076-15.715-104.763-14.966-184.832 5.238-96.531 24.694-174.355 16.463-242.451-25.442-63.606-39.66-11.973-107.757 69.592-92.042 24.695 4.49 82.314 11.973 127.213 17.21m362.181 181.09c57.62 57.62-70.34 114.491-235.717 104.015-165.375-10.477-252.927-58.368-200.546-110.75 20.205-20.204 415.31-14.218 436.263 6.735" style="stroke-width:.748307"/>
</svg>
