<svg xmlns="http://www.w3.org/2000/svg" width="1200" height="960">
    <path d="M529.305 273.697c-19.39 27.505-53.207 63.577-82.064 87.926-42.836 35.62-61.323 63.577-73.046 111.372-12.175 50.05-5.411 107.315 18.486 155.11 13.978 27.956 46.894 64.93 68.087 76.202 64.027 34.269 110.47 43.287 167.284 32.465 35.621-7.214 50.5-12.174 73.497-25.25 3.607-2.255 10.821-5.862 15.781-8.116 13.978-6.313 63.577-59.52 74.399-79.359 4.96-9.92 11.272-21.192 13.076-24.8 18.487-32.464 31.112-95.14 34.72-172.695 2.705-60.871 2.705-61.773-6.764-61.773-4.96 0-9.469 2.254-9.469 4.509 0 2.705-4.96 6.763-10.822 9.018s-28.406 20.741-50.05 41.483-41.032 37.876-43.286 38.777c-9.469 3.608-3.607-30.21 16.683-94.238 10.37-33.818 7.215-50.952-6.763-37.876-8.567 7.666-41.483 13.076-47.796 8.117-5.41-4.51-15.781-30.662-18.938-47.796-2.705-14.88-7.665-15.33-26.603-.902-8.116 6.313-16.232 11.273-17.585 11.273-1.804 0-10.822 5.861-20.29 13.527-9.47 7.214-18.487 13.527-20.291 13.527s-10.822 5.862-20.29 13.527c-22.095 17.585-33.367 18.036-30.211.902.902-6.764 6.764-23.447 12.174-36.974 5.411-13.527 10.822-29.309 12.175-35.17 3.607-15.782-8.567-11.724-22.095 7.214M491.88 6.764c-58.617 13.977-93.788 27.504-153.307 59.068-18.938 10.37-65.38 58.617-88.376 92.434-25.25 36.974-36.072 59.97-55.461 119.038-11.273 33.367-10.822 139.329.45 170.892 13.528 36.974 35.622 72.595 56.363 88.827 20.742 16.683 55.461 32.465 62.676 28.407 2.254-1.804-3.608-12.174-13.527-23.898-18.036-22.094-25.702-35.17-38.778-67.635-11.723-27.054-11.723-110.922-.45-145.19 20.29-61.774 51.402-111.373 98.296-156.012 23.897-22.996 68.086-54.108 89.278-62.675 3.607-1.804 10.37-4.96 14.429-7.215 13.076-6.763 44.188-17.585 79.81-27.054 35.17-9.469 122.645-12.174 160.52-4.96 14.88 3.157 9.018 4.059-33.817 7.215-103.708 6.312-181.714 41.032-243.487 107.765-20.29 21.643-49.599 70.792-49.599 82.515 0 9.92 7.214 7.215 15.781-5.862 4.51-6.763 21.193-24.8 36.523-39.679 54.109-52.304 142.034-85.671 222.295-84.318 44.188.45 119.488 16.683 148.346 32.465 4.058 2.254 10.822 4.96 14.429 6.312 3.607 1.804 13.076 6.764 20.29 11.724 7.666 4.96 16.684 10.37 20.291 12.174 26.152 11.723 85.22 69.439 112.274 110.02 37.876 56.362 68.537 137.525 55.01 145.64-2.705 1.804-5.861-2.254-7.214-9.468-1.804-6.764-4.509-15.782-7.214-19.389-2.255-3.607-5.411-9.92-6.764-13.527s-4.058-9.92-6.313-13.527-8.567-15.782-14.428-26.603c-13.077-24.8-55.912-71.693-88.828-96.944-28.858-22.094-74.85-47.795-85.671-47.795-4.51 0-11.723-3.157-16.683-6.764-9.92-7.214-31.563-9.018-35.622-2.254-1.352 2.254 3.157 5.41 9.92 7.214 16.233 3.156 18.938 4.509 35.17 15.33 7.666 4.96 18.037 10.822 23.898 13.528 12.175 4.96 71.243 63.126 84.77 83.416 54.108 78.457 74.85 173.597 56.813 259.268-14.429 68.537-38.326 123.998-75.3 173.597-19.84 27.054-32.465 39.229-35.621 34.269-1.804-2.255-.451-5.862 2.705-8.116 3.156-1.804 10.822-13.527 17.134-25.25 6.313-12.175 13.978-27.506 17.585-33.818 28.858-54.109 47.796-155.561 38.327-203.808-4.058-18.036-10.822-9.469-10.822 13.978 0 9.018-3.156 26.153-6.763 38.327s-6.764 25.701-6.764 30.21c0 13.978-22.094 61.774-44.639 97.846-18.487 29.308-70.34 82.064-101.904 104.158-35.17 24.349-93.336 50.5-139.779 63.126-28.858 7.665-96.944 10.822-96.944 4.509 0-2.254 7.666-5.862 17.135-7.214 9.018-1.353 26.152-5.411 37.424-9.018 11.724-3.608 23.447-6.764 25.702-6.764 4.509 0 56.362-24.349 81.162-38.326 13.527-7.215 46.443-34.72 44.188-36.974-.902-.902-12.174 3.607-25.701 10.37-79.359 38.778-146.994 51.403-228.607 42.385-68.988-7.665-142.485-27.956-181.262-50.05-3.607-2.254-11.273-5.862-16.684-8.567-26.152-11.273-77.554-49.6-112.274-83.868-21.192-20.741-39.228-37.875-40.13-37.875-5.862 0-.902 15.33 11.272 36.072 7.215 12.625 13.527 23.897 13.527 25.25s12.175 18.487 27.055 37.876c23.897 31.563 91.082 97.845 105.06 103.707 3.156 1.353 13.527 7.215 23.446 13.527 59.068 37.425 108.668 57.265 185.32 73.948 46.894 10.37 133.918 9.469 187.125-1.804 103.256-22.094 161.422-50.05 249.348-121.743 12.174-9.92 70.791-78.006 73.948-85.671 1.352-3.607 7.665-13.978 13.527-22.545 13.527-19.84 41.483-79.359 41.483-87.926 0-3.607 2.705-13.076 6.312-21.192 18.036-42.385 27.054-162.776 15.782-203.808-2.706-9.468-6.313-26.603-8.567-38.326-6.764-38.778-34.72-102.355-66.734-151.503-24.8-37.876-93.787-107.765-128.957-130.31C807.96 47.345 747.09 22.996 669.986 6.764c-42.385-9.019-139.78-9.019-178.106 0" style="stroke-width:.450901"/>
</svg>
