<svg xmlns="http://www.w3.org/2000/svg" width="1148" height="960">
    <path d="M240.96 193.956c-6.851 6.396-14.16 11.42-16.901 11.42a4.094 4.094 0 0 0-4.111 4.112c0 2.284-9.137 13.704-20.557 26.038-11.42 11.877-20.556 23.297-20.556 25.124s-2.74 6.395-5.938 9.593c-7.766 7.309-48.879 92.275-48.879 100.498 0 3.197-3.197 14.16-6.852 24.21-10.506 29.236-9.136 155.314 2.284 196.427 9.593 34.717 20.556 66.237 26.952 79.028 2.284 4.11 8.222 15.988 12.79 26.038 15.532 32.89 51.163 82.682 82.682 114.658 32.89 33.804 70.349 65.78 76.287 65.78 2.284 0 7.309 2.741 10.963 6.395 10.05 9.137 87.25 48.422 94.56 48.422 3.197 0 12.79 2.74 21.012 6.395 46.595 19.643 158.97 28.78 200.082 15.988 8.679-2.284 25.124-6.395 36.544-8.679 90.448-17.358 195.97-88.62 265.405-179.068 39.742-51.62 33.347-56.187-13.248-9.593-55.73 55.274-120.597 97.757-188.66 122.424-65.324 23.754-155.315 31.52-216.527 18.272-44.31-9.592-93.189-25.124-96.386-30.149-1.37-2.284-5.482-4.111-8.68-4.111-18.272 0-112.83-69.435-141.61-103.695-20.556-24.21-42.94-53.903-51.162-67.607-13.247-21.47-37.915-74.003-37.915-80.398 0-3.655-1.827-8.68-4.111-10.964-7.309-8.222-20.1-63.039-23.754-105.065-4.111-44.31.914-123.338 9.136-138.413 2.741-5.481 5.025-13.704 5.025-18.729 0-18.272 31.063-82.225 56.187-115.115 6.852-9.136 12.334-18.272 12.334-20.556 0-1.828 3.198-7.31 7.766-11.877 10.963-12.334 0-10.05-14.161 3.197m332.1 267.69c-22.384 8.678-16.446 45.223 7.308 45.223 15.988 0 24.21-9.136 22.383-25.581-1.827-15.532-15.988-25.125-29.692-19.643m-17.36-42.94c-27.865 14.617-43.396 37.914-43.396 64.409 0 16.902 16.445 47.508 30.606 58.014 17.358 12.334 58.471 12.334 74.916.457 21.927-16.902 28.322-30.149 28.779-58.014.457-31.063-8.68-46.138-36.545-62.126-21.013-12.334-35.63-12.79-54.36-2.74m44.767 19.185c13.248 5.025 30.606 31.52 30.606 46.138 0 23.297-27.408 50.248-52.075 50.248-6.396 0-18.73-6.395-27.866-14.16-14.617-12.791-15.988-16.446-15.988-37.916 0-19.186 2.284-26.038 10.507-33.347 16.445-15.074 34.26-18.729 54.816-10.963M487.18 105.336c-17.358 4.568-32.433 10.963-33.346 13.247-.914 2.741-7.31 4.568-14.618 4.568-6.852 0-15.075 3.198-18.273 6.852-3.197 3.655-7.765 6.853-10.05 6.853-14.16 0-101.867 70.348-96.842 78.113 1.37 2.285 7.765 4.112 14.618 4.112 25.124.457 101.41 24.21 101.41 31.976 0 5.939-41.569 32.89-47.05 30.606-3.198-1.37-20.557-13.704-39.286-27.865S307.198 228.217 304 228.217c-23.754 0-75.373 104.152-90.905 182.722-8.222 42.027-7.765 110.09.457 112.832 2.741.913 12.79-5.939 22.84-15.532 20.1-19.186 72.633-56.187 79.485-56.187 2.74 0 9.593-2.74 15.075-6.395s16.445-7.766 24.667-9.593c16.902-3.198 18.272 0 15.075 40.199l-2.284 27.865L341 510.067c-15.074 3.197-34.717 6.852-43.396 8.679-8.68 1.37-23.754 5.482-33.347 9.136-9.136 3.654-24.668 6.395-33.347 6.395h-16.445l3.198 26.038c3.654 29.693 10.05 47.965 32.89 96.386 8.679 18.73 17.358 31.977 19.186 29.693 1.827-1.827 6.852-12.79 11.42-24.21s11.877-27.866 15.988-36.545c14.161-30.15 60.755-91.362 69.891-91.362 1.828 0 3.655 19.186 3.655 42.94v42.94l-14.618 11.42c-18.272 13.704-29.236 23.297-58.928 51.162l-22.84 21.013 19.642 21.014c37.002 39.285 60.756 61.212 74.003 68.52l13.247 6.853-3.654-15.075c-2.284-8.68-4.111-23.754-4.111-33.804 0-21.926 10.506-61.669 16.445-61.669 8.222 0 44.767 28.78 44.767 35.175 0 3.197-1.828 9.593-4.112 14.16-4.568 9.594-15.531 35.175-22.84 52.533-2.74 6.852-8.222 13.705-11.877 15.075-3.654 1.827-6.852 5.938-6.852 9.593 0 4.568 2.74 5.938 7.309 4.111 4.111-1.37 15.988.914 26.495 5.939 37.458 16.901 87.25 32.433 105.522 32.433 8.68 0 8.68-15.532 0-22.84-3.654-3.198-6.852-8.68-6.852-12.334 0-3.198-3.198-10.964-6.852-16.445-3.655-5.482-7.309-17.359-7.766-26.038-1.37-15.532-.914-15.988 16.445-17.359 9.593-.913 19.186 0 21.47 2.284 1.827 1.827 4.111 23.754 4.568 48.422.914 42.94 1.37 44.767 11.877 47.05 14.618 3.655 69.435-.913 104.152-8.679 35.174-7.765 36.544-15.531 8.222-36.544-26.951-20.1-49.791-43.397-45.68-47.051 1.37-1.827 8.222-3.655 14.618-4.568 6.395-.457 14.617-3.198 17.815-5.939 10.507-8.679 18.272-1.37 33.347 30.606 24.668 51.62 22.84 50.25 54.36 32.89 41.57-23.297 89.077-60.298 87.707-68.52-.914-4.569-10.964-8.223-33.347-11.878-17.816-2.74-37.001-7.308-43.397-10.05-6.395-2.74-15.074-5.938-20.1-7.308-8.222-2.741-8.222-3.198 0-12.334 5.026-5.482 12.791-11.42 17.816-13.704s12.334-6.395 16.445-9.136c5.939-4.568 13.248-1.37 38.829 17.815 17.359 13.248 34.26 26.038 37.458 28.779 4.568 3.654 8.223 1.827 15.075-6.852 33.803-42.94 71.718-115.115 64.41-122.424-2.285-2.284-9.594-1.37-17.36 2.74-21.47 10.964-75.83 21.927-100.04 20.1l-22.84-1.37-1.37-30.15c-1.371-35.63 1.827-38.828 31.976-29.692 16.902 5.482 72.175 17.815 102.324 23.754 5.482.913 12.334-1.37 15.532-5.025 12.334-14.618 24.21-139.783 14.16-146.178-2.283-1.37-18.271 10.05-35.63 25.124-16.902 15.075-39.285 31.977-49.335 37.002-10.05 5.024-21.47 10.963-25.125 12.79-47.964 26.038-54.816 24.211-54.816-11.877 0-14.618 1.827-28.779 3.654-31.52 5.482-8.679 24.21-16.444 48.422-20.099 27.865-4.111 61.669-12.334 88.62-21.47 17.816-6.395 19.186-7.766 19.186-23.297 0-16.445-8.68-48.421-20.556-76.287-15.989-36.544-26.038-57.1-28.78-57.1-1.826 0-6.851 8.679-11.42 19.642-21.012 47.965-43.396 87.707-60.298 108.263s-28.779 30.15-32.433 26.038c-.914-.913-1.827-18.729-2.284-39.742-.457-38.372-.457-38.372 14.618-51.619 34.26-29.692 81.768-76.287 81.768-79.941 0-6.852-59.385-68.521-81.768-85.423-24.21-17.815-40.2-21.47-34.26-8.222 5.481 12.79 7.765 75.373 3.197 92.731-5.025 19.643-14.618 21.927-33.347 8.68-15.531-11.877-17.359-23.754-5.938-46.138 4.11-8.222 9.136-18.729 11.42-22.84 5.025-10.507 17.358-46.138 17.358-50.249 0-4.568-55.73-30.15-84.052-38.828-15.531-5.025-47.051-7.766-91.818-8.68-56.644-.913-74.003.457-100.498 7.766m154.858 42.94c9.136 19.186 16.445 39.742 16.445 45.68 0 10.05-1.827 11.42-16.445 11.42-30.606 0-33.804-4.568-33.804-50.248 0-37.458.914-41.113 8.68-41.113 6.395 0 13.247 9.136 25.124 34.26m-121.054 28.779c12.334 11.42 18.73 21.013 15.988 23.297-2.284 2.284-15.074 5.025-28.322 5.938-22.383 2.284-24.667 1.37-28.322-7.766-2.284-5.938-6.395-11.877-8.679-13.704-2.74-1.37-5.025-6.395-5.025-10.963s-3.198-10.963-6.852-14.161c-6.852-5.939-9.136-23.297-4.111-28.779 3.654-3.654 38.828 21.013 65.323 46.138m92.275 59.384c37.001 3.655 48.422 9.593 115.115 59.385l26.038 19.643v169.932c0 93.645-1.827 171.76-3.654 174.5-3.655 5.025-26.952 21.47-37.458 26.952-7.766 3.654-17.816 9.593-44.31 26.951-19.186 11.877-21.014 12.334-89.078 12.334H510.02l-48.879-32.433c-26.951-17.359-50.705-35.631-52.532-39.742-5.939-12.791 0-344.89 5.938-346.717 4.568-1.37 59.385-40.655 77.2-54.816 23.298-18.73 50.25-22.384 121.511-15.989M370.694 362.061c1.37 14.618.913 29.236-.914 32.89-4.111 6.852-26.038 5.025-55.73-5.481-9.593-3.198-24.211-5.939-31.977-6.396-7.765 0-21.47-2.74-30.149-5.938-18.272-6.852-24.668-21.013-9.136-21.013 5.482 0 13.704-2.284 18.729-5.025 12.334-6.395 71.262-16.902 90.904-15.988l15.989.456zM500.884 7.58c-32.434 7.766-81.312 22.384-92.732 27.866-40.656 20.1-71.262 36.544-92.275 50.248-33.347 21.927-101.868 88.62-120.14 117.4-18.73 29.692-18.73 29.692-10.507 29.692 4.112 0 7.31-1.827 7.31-4.111 0-9.136 88.62-91.818 98.213-91.818 1.37 0 9.593-5.025 17.358-10.964 30.15-22.383 92.275-47.508 156.685-63.953 36.544-9.593 124.708-9.593 155.314-.457 12.334 3.655 26.952 6.853 32.433 6.853 10.05 0 30.606 7.765 57.558 21.013 7.309 3.654 15.075 6.395 17.359 6.395 13.247 0 84.966 50.249 119.226 84.052 121.054 119.684 164.45 280.023 117.4 435.337-11.878 39.285-40.656 97.757-58.015 117.856-5.025 5.939-11.42 15.075-14.618 20.1-15.531 29.692 36.088-15.075 67.608-58.015 67.15-91.818 92.274-197.797 72.175-306.974-10.507-57.557-30.15-110.09-58.014-153.03-4.568-7.766-10.05-16.902-11.42-20.556-5.939-13.248-35.632-48.422-67.608-79.941-32.433-31.977-77.2-64.41-116.942-84.51-11.42-5.481-26.038-13.247-32.89-16.445-6.396-3.654-15.075-6.395-19.186-6.395-3.655 0-13.705-2.74-21.927-6.395C653-.186 557.984-6.582 500.884 7.579" style="stroke-width:.456807"/>
</svg>
