<svg xmlns="http://www.w3.org/2000/svg" width="1190" height="960">
    <path d="M605.058 596.8c-11.176 8.94-34.644 16.763-51.407 16.763s-52.524 14.528-79.345 33.526c-27.939 17.881-55.877 33.527-62.582 33.527-17.88 0-56.995 35.76-56.995 52.524 0 7.823 3.353 14.528 8.94 14.528 8.941 0 109.52 96.108 173.22 165.395C560.355 938.767 584.941 960 590.528 960c6.706 0 40.232-29.056 73.758-64.817 58.112-61.465 60.347-65.935 54.76-112.871-3.353-26.821-6.706-83.816-6.706-125.165v-77.11h-42.466c-23.468 0-52.524 7.823-64.817 16.763M399.43 563.274c-7.823 8.94-23.468 16.763-34.644 16.763-22.35 0-65.934 36.879-65.934 55.877 0 5.588 16.763 11.175 36.878 11.175 25.704 0 49.172-12.292 83.816-43.584 25.703-23.468 46.936-45.819 46.936-49.171 0-14.528-53.642-7.823-67.052 8.94m430.252-53.642c-24.586 2.235-49.172 10.058-55.877 15.646-13.41 13.41-16.763 254.798-3.353 262.621 5.588 3.353 50.29-33.526 99.461-82.698 86.05-86.05 107.284-126.281 72.64-139.692-8.94-3.352-17.88-17.88-20.115-32.408-3.353-27.939-16.763-31.291-92.756-23.469M667.64 462.696c-7.823 8.94-24.586 16.763-37.996 16.763-12.293 0-35.762 13.41-51.407 30.173l-27.938 29.056 33.526-6.705c18.998-4.47 56.994-11.175 87.168-14.528 49.171-6.705 52.524-10.058 52.524-39.114 0-24.586-5.588-32.408-21.233-32.408-11.176 0-26.821 7.822-34.644 16.763m223.508-135.222c0 10.058 4.47 17.88 11.175 17.88 5.588 0 15.645 20.116 22.35 44.702 6.706 23.468 16.764 46.936 22.351 50.289 6.706 3.353 11.176 17.88 11.176 31.291 1.117 25.703 35.761 74.875 52.524 74.875s59.23-50.29 59.23-69.287c0-20.116-137.458-157.573-163.16-163.16-8.941-2.236-15.646 4.47-15.646 13.41m-673.876 35.76c-53.642 52.525-97.226 103.932-97.226 112.872 0 10.058 18.999 36.879 43.584 60.347 45.82 46.937 88.286 55.877 112.872 26.821 7.823-8.94 32.408-16.763 54.76-16.763 65.934 0 121.81-55.877 73.757-73.757-10.058-4.47-16.763-21.234-16.763-43.584 0-20.116-7.823-42.467-15.646-50.29-8.94-6.705-17.88-33.526-20.116-59.23-2.235-31.29-8.94-48.053-21.233-50.288-8.94-1.118-59.23 39.114-113.989 93.873M402.784 229.13c-3.353 8.94-1.118 22.351 6.705 30.174 6.705 6.705 12.293 25.703 12.293 42.466s7.822 35.762 16.763 43.584c8.94 7.823 16.763 30.174 16.763 50.29s7.823 42.466 16.763 50.289c8.94 7.822 16.763 21.233 16.763 29.056 0 24.585 23.468 17.88 94.99-27.939 99.462-64.817 106.167-72.64 106.167-127.4 0-61.464-14.528-74.874-83.816-74.874-31.29 0-64.817-7.823-77.11-16.763-30.173-23.468-117.341-22.35-126.281 1.117m336.378 17.881c3.353 32.409 6.706 88.285 6.706 124.047 0 74.875 15.645 88.285 71.522 61.464 18.998-10.058 43.584-21.233 54.76-24.586 23.468-7.822 25.703-49.171 2.234-58.112-8.94-4.47-16.763-20.115-16.763-36.878 0-33.526-78.227-124.047-107.283-124.047-15.646 0-17.88 8.94-11.176 58.112M507.832 65.97c-56.994 58.112-62.582 67.052-46.937 81.58 8.94 10.058 45.82 20.116 80.463 24.586 35.761 3.353 81.58 11.175 102.814 17.88 43.584 14.529 56.994 2.236 56.994-48.054C701.166 102.85 613.998-2.2 583.825.035c-5.588 1.118-40.232 30.174-75.993 65.935" style="stroke-width:1.11754"/>
</svg>
