<svg xmlns="http://www.w3.org/2000/svg" width="1210" height="960">
    <path d="M607.725 0a118.075 118.075 0 0 0-93.482 190.518l-41.172 42.417H334.15a120.02 120.02 0 0 1-79.264-39.632c20.157 79.083 60.31 79.264 60.485 79.264h579.197s40.37-.01 60.662-79.264a120.13 120.13 0 0 1-79.264 39.691H736.93l-38.447-39.691A118.075 118.075 0 0 0 607.725 0m-.71 44.55h.355a73.584 73.584 0 1 1-73.577 73.576 73.58 73.58 0 0 1 73.221-73.577m-324.759 67.89a301.8 301.8 0 0 1 52.606 70.377c7.431 27.056 50.947 26.7 50.947-1.6s-33.154-53.43-103.553-68.778m645.37 0c-70.37 15.347-103.554 40.418-103.554 68.778s43.606 28.655 51.007 1.6a301.8 301.8 0 0 1 52.546-70.379m-400.29 92.415a117.43 117.43 0 0 0 51.835 27.902l.83.178h-79.976zm157.58 2.31 24.94 25.77h-75.058a118.1 118.1 0 0 0 50.118-25.77m286.37 147.154-732.63.119a122.845 122.845 0 0 0-.178 245.553h.236v.118l732.63-.119a122.845 122.845 0 0 0 .178-245.552h-.236zm-638.201 38.862h543.771a122.3 122.3 0 0 0-30.272 56.753l-.119.83h-482.93a122.8 122.8 0 0 0-30.45-57.583m-91.705 9.656a74.403 74.403 0 0 1 76.42 74.347 74.393 74.393 0 0 1-74.405 74.407 74.403 74.403 0 0 1-2.015-148.754m723.093 0a74.403 74.403 0 0 1 76.42 74.347 74.393 74.393 0 0 1-74.347 74.407 74.403 74.403 0 0 1-2.073-148.754M363.535 503.784h482.93a122.8 122.8 0 0 0 30.39 57.582l-269.545-.06H333.085a122.37 122.37 0 0 0 30.272-56.693zM315.372 687.43s-40.342.009-60.603 79.264a120.02 120.02 0 0 1 79.264-39.632h138.92l38.447 39.691a118.062 118.062 0 1 0 184.238 2.725l41.173-42.416h138.978a120.13 120.13 0 0 1 79.265 39.632c-20.14-79.256-60.485-79.264-60.485-79.264zm184.653 39.632h75.118a118.3 118.3 0 0 0-50.059 25.77zm129.915.06h79.975l-27.31 28.08a117.43 117.43 0 0 0-51.835-27.903zm-266.82 30.153c-11.822-.235-24.557 6.436-28.258 19.964a302.1 302.1 0 0 1-52.546 70.378c70.368-15.378 103.552-40.389 103.552-68.779 0-14.195-10.926-21.328-22.748-21.563m483.7 0c-11.817.246-22.689 7.414-22.689 21.563 0 28.3 33.154 53.4 103.553 68.779a302.1 302.1 0 0 1-52.605-70.378c-3.716-13.528-16.44-20.21-28.258-19.964m-245.019 11.078a73.584 73.584 0 0 1 74.347 73.577 73.58 73.58 0 0 1-73.577 73.577 73.584 73.584 0 0 1-.77-147.154" style="stroke-width:30.3313"/>
</svg>
