<svg xmlns="http://www.w3.org/2000/svg" width="1282" height="960">
    <path d="M686.947-30c-4.303.047-11.407 5.284-22.422 16.299-9.395 9.725-13.845 17.636-18.46 33.295-2.967 9.89-3.626 21.262-1.319 21.262 1.813 0 3.462-4.12 3.462-8.57 0-1.814.989-5.275 2.307-7.583 7.747-15.164 9.23-17.636 11.208-17.636 3.627 0 1.978 24.23-2.966 42.855-2.308 9.065-4.945 20.603-5.605 25.548-1.648 11.208-4.615 23.405-8.076 32.8-2.802 7.747-15.164 22.582-20.603 25.054-1.978.824-4.615 2.143-5.934 2.967-13.351 7.747-33.79 11.373-49.613 8.406-11.538-1.978-22.91-7.088-22.91-10.054 0-.825 3.955-1.484 8.735-1.484 15.659 0 32.965-6.593 44.833-17.142 10.054-8.9 11.373-8.076 4.945 3.297-4.945 8.9-5.11 10.549-.99 10.549 4.945 0 14.011-12.033 19.945-26.043 2.802-6.923 6.263-15.164 7.582-18.13 1.318-2.968 2.307-6.594 2.307-7.913 0-1.483.99-4.944 2.143-7.746 3.626-8.571 7.747-21.593 7.747-24.724 0-4.45-3.132-3.297-4.286 1.648-1.153 5.934-1.648 6.923-5.604 12.856-1.813 2.638-3.79 6.099-4.45 7.418-1.648 3.79-25.548 35.108-28.35 37.415-2.637 2.143-20.439 11.044-31.976 15.988-8.736 3.791-21.098 3.297-38.24-1.648-23.405-6.593-36.921-8.241-42.855-5.44-2.637 1.32-5.11 3.627-5.44 5.11-.494 2.967 3.792 5.44 21.099 12.033 11.208 4.45 23.24 18.625 35.767 42.03 7.747 14.835 9.725 25.713 7.252 41.701-1.154 7.418-3.132 17.637-4.45 22.746s-2.308 14.505-2.308 20.769c0 7.746-.989 13.02-2.967 16.812-3.626 6.593-7.252 7.912-51.755 19.285-67.414 16.977-105.489 34.778-157.904 73.842-25.383 18.955-63.128 55.546-78.787 76.314-9.724 12.692-11.537 16.648-9.23 19.12.66.495 5.44-2.307 10.714-6.263 10.22-8.077 15.329-9.23 17.801-4.286 3.461 6.428 6.428 5.934 21.263-3.626 9.724-6.263 20.768-7.417 27.855-2.967 4.945 3.132 5.44 4.12 5.44 11.538 0 11.703-5.11 21.592-18.79 36.262-19.615 20.933-21.593 26.207-9.066 24.23 7.088-1.155 8.9.494 8.406 7.746-.33 4.45-4.12 12.197-15.164 30.823-5.11 8.735-6.758 14.999-4.12 15.988.988.33 9.23-6.923 18.13-16.153 27.691-28.186 40.218-36.262 59.503-38.405 14.67-1.813 16.317.165 16.317 17.637 0 7.747.33 14.34.825 14.834.494.33 3.46 1.319 6.593 2.143 5.274 1.483 5.933 2.307 7.252 9.395 2.308 11.373 5.44 10.22 16.812-6.428 17.966-25.878 27.032-44.009 27.032-53.899 0-7.746 6.593-29.833 9.724-33.13 3.132-3.131 3.462-3.131 6.594-.33 1.648 1.484 3.626 5.44 4.12 8.572 1.484 7.252 4.286 7.087 10.879-.33 5.604-6.428 10.878-17.472 15.493-32.8 5.604-17.966 13.187-37.251 16.978-43.185 5.604-8.406 7.087-2.472 3.131 11.703-2.307 7.911-4.12 15.658-10.219 42.195-1.319 5.934-3.626 14.505-4.945 19.12-1.318 4.615-2.307 9.725-2.307 11.373s-.99 6.758-2.308 11.373c-5.44 19.45-7.582 30.988-7.582 39.888 0 5.11-1.154 19.45-2.637 31.812-2.473 20.108-3.132 22.91-7.088 27.36-5.769 6.264-14.175 17.308-15.658 20.604-.495 1.319-3.626 6.923-6.593 12.362-8.406 15-22.087 42.855-23.24 47.305-.825 3.297 0 4.78 4.614 7.912 7.582 5.11 10.055 13.186 10.384 32.8.165 11.044.825 15.824 2.143 16.318 1.154.33 6.264-3.461 11.538-8.406 5.11-5.11 12.197-10.549 15.823-12.032 3.462-1.484 7.253-3.791 8.406-5.275 3.132-4.285 5.275-.824 6.594 10.879.494 6.098 1.813 12.856 2.637 15.164s2.142 7.087 2.967 10.713c4.285 20.604 27.855 71.04 44.997 96.424 2.802 4.12 7.747 11.538 11.044 16.482 8.735 12.857 45.162 49.448 56.865 57.03 14.01 8.9 36.097 19.45 47.8 22.582 29.173 7.746 29.998 7.911 59.831 7.911 16.318 0 32.636-.66 36.262-1.648 3.626-.99 9.89-2.472 13.68-3.297 3.956-.824 11.374-3.131 16.318-5.11 20.604-7.91 36.097-13.185 46.976-15.658 16.812-3.79 46.81-23.24 84.061-54.228 18.79-15.658 30.823-23.9 56.041-38.569 22.252-12.856 31.482-15.823 44.009-14.505 8.57.824 9.725.66 9.23-1.813-.33-1.648-2.802-3.296-5.44-3.956-7.746-1.977-17.306-5.768-19.284-7.746-1.154-1.154-2.802-1.978-3.79-1.978-.99 0-3.957-2.638-6.594-5.77-4.45-5.603-4.945-5.933-12.197-4.78-4.12.66-9.066 1.814-10.714 2.803-3.956 1.978-20.273 5.934-25.053 6.098-1.978 0-6.264-1.813-9.725-4.12l-6.099-4.286-12.032 5.11c-10.054 4.12-14.34 4.945-25.054 4.945h-12.856l-8.077 9.065c-4.285 4.945-9.395 10.879-11.208 13.186s-4.285 4.12-5.439 4.12c-2.802 0-18.13-20.273-24.065-31.316-2.142-4.12-5.769-10.054-8.24-13.186-2.309-3.132-4.78-7.088-5.275-8.736-.825-2.308-3.132-2.802-11.703-2.802-7.747 0-12.692-.989-17.472-3.461-6.428-3.462-7.087-3.462-13.68-.825-9.23 3.462-12.857 3.297-21.757-.824l-7.582-3.461-3.627 4.12c-2.142 2.308-7.582 5.11-12.691 6.594-11.208 3.296-14.175 7.747-15.823 23.075-.99 9.066-.66 11.044 1.318 11.044 1.319 0 3.462-2.308 4.78-5.275 3.626-8.076 10.055-11.867 20.109-11.867 13.68 0 24.724 7.582 39.064 27.031 12.197 16.483 16.318 25.548 17.471 38.9.99 10.054.495 13.35-3.461 24.723-7.747 22.087-25.878 37.58-53.733 45.822-7.253 2.143-10.879 2.143-31.647 0-34.614-3.626-40.712-5.769-53.898-18.79-6.099-5.934-12.033-12.692-13.351-15.164-11.208-21.428-19.614-39.888-19.614-43.35 0-1.318-.99-4.78-2.308-7.746-5.11-12.198-8.571-30.328-11.373-61.48-1.978-20.934-2.143-21.428-6.428-23.57-6.099-2.968-5.77-5.275.824-5.605 13.35-.66 19.45 1.484 34.449 12.857 7.087 5.274 7.911 5.604 9.23 2.802.989-1.813.989-6.099.165-11.209-3.956-22.416-3.956-25.053.824-31.152 6.593-8.57 5.604-13.845-5.77-31.482-1.647-2.802-3.79-6.428-4.78-8.24-2.471-4.616-5.109-8.901-10.713-16.978-4.285-6.593-4.45-7.417-1.978-8.9 2.637-1.32 15.33-26.208 18.296-35.438.989-2.967 1.978-3.462 5.934-2.637 3.461.659 6.098-.165 9.23-2.638 2.472-1.813 5.274-3.461 6.428-3.461 5.275 0 15.164 15.164 22.417 34.119.824 2.472 2.142 3.626 2.966 2.802 2.967-3.296 6.758-22.251 6.758-34.284 0-18.79 8.077-31.976 15.824-25.548 1.978 1.648 2.967 1.484 5.11-.66 2.142-2.142 2.966-7.746 3.955-25.382.824-16.153 2.143-26.043 4.615-34.284 1.978-6.428 4.286-14.67 5.11-18.626.824-3.79 2.472-8.57 3.626-10.713 2.637-4.945 2.802-41.537.165-44.174-1.484-1.483-2.637-.165-5.275 5.275-1.977 3.79-3.46 8.24-3.46 9.89 0 1.483-1.155 3.625-2.473 4.78-1.319 1.153-2.473 3.46-2.473 5.109 0 1.483-.989 3.956-2.142 5.11-1.319 1.153-2.802 4.285-3.462 6.922-.824 3.461-1.648 4.286-2.967 2.967s-.989-2.967.99-5.934c1.483-2.307 2.637-5.604 2.637-7.252 0-1.813 1.153-4.12 2.472-5.275 1.319-1.153 2.472-3.79 2.472-5.768s.99-4.616 2.308-5.605 2.637-3.955 3.132-6.428 2.142-7.911 3.626-12.197c2.472-6.593 2.637-9.89 1.154-19.78-1.649-12.031-3.791-19.778-7.912-28.02-1.319-2.307-2.308-5.439-2.308-6.757 0-1.32-1.153-3.297-2.472-4.45s-2.472-3.297-2.472-4.946-1.154-3.79-2.473-4.944-2.472-2.967-2.472-4.286c0-2.307-6.758-13.021-15.988-25.218-7.253-9.725-4.78-13.186 3.79-4.945 6.429 6.263 6.264 5.769 18.461 30.658 4.78 9.89 9.725 19.944 11.043 22.416 1.32 2.637 2.473 6.428 2.473 8.406s1.154 5.11 2.472 6.923c1.319 1.648 2.473 5.11 2.473 7.417 0 2.472 1.153 7.582 2.472 11.538 2.143 5.934 2.472 13.68 1.813 45.986-.494 21.263-.494 43.35.165 48.954.824 9.065 1.319 10.384 4.45 10.384 2.143 0 4.615-1.978 6.264-4.945 3.626-6.263 11.538-6.923 16.317-1.318 2.638 3.296 2.967 6.757 3.132 23.57 0 20.108 1.154 25.548 9.23 44.503l2.802 6.593 5.77-6.923c3.296-3.956 7.087-10.22 8.57-14.01 1.978-5.77 3.462-7.252 7.088-7.582 6.098-.66 8.736 2.637 20.933 26.867 10.549 20.768 19.944 34.943 24.064 36.59 1.32.495 4.121-.658 6.264-2.636 5.604-5.275 8.57-4.286 15.329 4.78 3.296 4.45 6.263 7.911 6.593 7.582.33-.33.824-4.945 1.154-10.22.824-15.658 11.043-46.316 15.658-47.14 3.461-.824 19.45 4.12 21.922 6.593 1.154 1.154 2.802 1.978 3.791 1.978.824 0 6.263 4.45 11.867 9.89 6.923 6.922 10.879 9.56 12.857 8.9 1.483-.659 2.307-1.978 1.813-3.296-.494-1.154-1.319-4.945-1.813-8.406-1.484-8.736-5.769-22.417-13.186-41.701-1.484-4.121-3.791-10.055-4.945-13.186-4.45-11.868-13.021-32.142-14.34-33.79-2.143-2.307-1.483-7.417.824-7.417 1.154 0 3.956 1.319 6.099 2.802 3.626 2.637 7.582 2.967 30.493 2.472 14.504-.164 26.866-.989 27.69-1.813.66-.659-2.472-4.944-7.252-9.395-24.064-22.91-32.8-32.635-50.931-56.7-10.879-14.505-19.78-26.702-19.78-27.196 0-.66-15.163-21.593-22.58-31.317-.825-.99-3.956-4.945-7.088-9.066-10.384-13.516-31.976-33.954-46.976-44.173-20.768-14.175-43.843-31.977-45.821-35.273-1.319-1.813-.99-5.934.989-14.175 3.626-15.164 3.626-38.24-.495-84.391-5.11-58.349-10.219-73.842-30.657-93.292-5.77-5.604-10.55-11.538-10.55-13.021s-.988-4.78-2.307-7.088c-1.319-2.472-3.956-8.241-6.098-12.691-1.978-4.615-6.594-12.362-10.385-17.307l-6.757-9.065V11.188c0-20.439-.66-38.075-1.319-39.23-.876-1.312-2.065-1.974-3.621-1.958M676.6 58.036c.475 0 .652 1.652.946 5.566.33 4.45-.495 8.736-1.978 11.044s-2.637 7.087-2.637 10.878c0 3.626-.99 8.736-2.308 11.044-1.319 2.472-2.967 7.252-3.461 10.549-.495 3.46-1.649 6.263-2.473 6.263-2.472 0-1.813-11.868.824-16.483 1.319-2.307 2.473-6.758 2.473-9.89s1.154-7.581 2.472-9.889 2.308-6.263 2.473-8.736c0-2.637.989-6.263 2.142-8.241.737-1.34 1.201-2.107 1.527-2.105m-15.614 57.94c.242 0 .49.124.736.37 1.813 1.814.165 8.572-2.142 8.572-.824 0-1.484 1.318-1.484 2.802 0 4.45-12.691 18.296-19.944 21.922-10.384 5.274-23.075 3.79-18.13-2.308.988-1.154 6.922-4.12 13.185-6.758 12.692-5.11 24.065-14.504 25.878-21.262.495-2.225 1.175-3.338 1.9-3.338m57.87 2.617c1.58.069 3.564 2.142 7.478 6.984 7.582 9.066 8.242 16.648.99 10.054-2.308-2.142-3.297-1.977-8.737 1.978-3.296 2.308-6.593 5.77-7.087 7.747-1.154 3.297-1.154 3.297-2.308.33-1.153-3.461 3.791-21.428 6.923-25.219.989-1.236 1.793-1.916 2.74-1.874m16.975 40.334c2.056-.144-1.554 6.863-9.991 16.922-7.417 8.736-10.55 8.736-14.01-.33-2.802-7.252-3.627-13.186-1.32-10.219.66.99 3.297 3.132 5.77 4.78l4.78 2.967 6.758-7.417c4.306-4.59 6.937-6.627 8.013-6.703m-139.974 3.322c2.12.038 2.902.883 2.902 2.722 0 3.131-9.395 6.593-15.329 5.604q-16.318-2.72-17.307-5.934c-.66-1.813 1.319-2.143 9.725-1.484 5.769.495 12.856.33 15.494-.33 1.926-.396 3.404-.598 4.515-.578m-29.377 21.502c.72.048 1.93.628 3.27 1.658 3.625 2.637 6.098 6.099 13.35 18.46 3.626 6.1 14.01 19.285 18.46 23.406 5.77 5.274 17.967 13.35 24.395 16.153 7.747 3.461 29.01 8.406 36.262 8.406 6.098.165 6.428.33 3.461 2.472-2.143 1.649-7.252 2.473-14.834 2.473-33.625-.165-60.491-20.439-80.106-60.656-2.637-5.604-4.945-11.044-4.945-11.868 0-.37.255-.533.687-.504m547.176 6.77c-.626.504-1.675.782-3.276 1.151-8.901 1.978-17.967 6.429-25.219 12.198-13.68 11.208-18.13 13.186-30.658 13.35-18.625 0-25.383 3.462-40.712 20.11-13.68 15.163-19.779 18.954-40.712 26.042-10.878 3.626-28.185 13.845-28.185 16.647 0 .824-7.582 7.088-16.812 14.01-9.395 6.923-21.922 17.307-28.02 23.076-5.935 5.934-13.352 11.703-16.483 12.857-2.967 1.318-12.362 9.065-20.933 17.306l-15.33 15 5.11 6.922c2.802 3.956 7.418 9.725 10.055 12.857s9.395 12.691 14.834 20.933c5.604 8.57 11.208 15.329 12.692 15.329s7.582-3.956 13.516-8.736c16.812-13.68 62.304-47.47 74.336-55.217 16.153-10.384 21.098-12.692 35.438-15.823 14.505-3.297 21.922-6.264 30.493-12.527 14.67-10.55 18.955-11.373 39.228-7.912 10.55 1.813 12.033 1.648 24.56-2.472 15.164-5.11 30.822-5.77 41.7-1.978 3.792 1.318 9.066 2.472 11.703 2.472q.746 0 1.44.13a542 542 0 0 0-19.062-60.743c-2.108.294-4.964.452-8.255.452-9.23 0-12.692.824-18.79 4.45-11.539 6.758-25.714 10.714-42.855 11.867-18.956 1.319-23.406 2.638-38.57 11.538-6.428 3.791-12.856 7.417-14.175 8.077-1.319.659-5.44 2.967-9.065 5.274-3.627 2.143-7.747 3.956-9.23 4.12-5.605 0-20.604 5.77-26.373 9.726-13.68 9.724-53.568 40.382-55.217 42.36-.989 1.319-2.307 2.308-2.802 2.308s-3.296 2.142-6.263 4.78c-6.099 5.604-24.394 15.658-25.878 14.175-1.319-1.154 8.077-8.901 10.879-9.066 1.153 0 2.472-1.154 2.967-2.472.659-1.319 1.813-2.473 2.637-2.473 1.648 0 13.021-8.241 17.966-13.021 1.483-1.483 4.78-4.45 7.417-6.758 23.735-20.438 31.317-27.031 31.976-27.855.495-.66 3.791-3.297 7.417-6.1 7.253-5.438 14.505-8.57 29.504-13.02 5.275-1.484 15.164-6.099 21.922-10.055s12.527-7.252 12.857-7.252 4.285-2.143 8.9-4.78c6.923-4.12 11.373-5.274 31.647-7.582 21.757-2.472 24.724-3.132 36.921-9.395 7.253-3.791 16.977-7.747 21.428-8.9 3.609-.903 6.89-1.697 8.476-2.004a542 542 0 0 0-25.144-53.376M749.31 251.613c.718.015 1.089.468 1.089 1.375 0 .824-2.308 3.79-4.945 6.758-2.637 3.131-7.582 9.23-11.043 13.68-4.45 5.77-7.253 8.077-9.56 7.747-5.77-.824-2.967-6.593 9.23-18.296 7.788-7.417 13.073-11.31 15.229-11.264m-69.319 25.142c.874-.038 1.346.38 1.84 1.122.824 1.483-7.582 8.57-10.054 8.57-.66 0-3.791 2.308-6.923 4.945-2.967 2.638-6.098 4.45-6.923 3.956-2.637-1.648 3.956-9.065 12.362-14.01 5.666-3.194 8.242-4.52 9.698-4.583m-148.125 18.482c.372.014.797.276 1.292.77 1.319 1.319 1.319 3.627-.33 8.901-1.154 3.956-2.802 10.384-3.461 14.505-3.132 17.471-9.89 42.855-14.34 52.744-2.637 5.934-3.461 6.758-4.45 4.45-1.649-3.79-1.154-6.593 7.417-41.536 1.154-4.615 3.132-10.713 4.285-13.68 1.319-2.967 2.308-6.758 2.308-8.571 0-1.649 1.154-5.11 2.307-7.747 1.32-2.473 2.967-6.099 3.462-7.747.412-1.442.888-2.112 1.51-2.09m177.568 2.017c.949-.033 2.457.484 4.044 1.39 2.143 1.484 4.78 2.638 5.769 2.638 1.813 0 13.845 9.065 19.944 15.164 2.307 2.307 2.472 2.967.659 2.967-1.319 0-2.637-.495-2.967-1.319-.165-.66-4.12-2.967-8.406-5.274-15.823-8.077-21.592-12.527-19.944-15.164.155-.258.47-.387.901-.402m-17.693 5.738c1.628-.021 4.1.597 7.067 1.916 6.758 2.967 21.922 14.834 28.35 22.087 7.418 8.57 24.89 31.482 24.89 32.8 0 .66 1.153 2.143 2.472 3.462 1.318 1.483 2.472 3.296 2.472 4.12 0 3.297-2.967 1.154-8.241-6.263-9.56-13.351-34.45-37.91-46.646-46.152-6.264-4.285-11.868-8.9-12.362-10.054-.412-1.236.37-1.895 1.998-1.916m-31.502 4.883c1.813 0 1.319 6.263-.66 7.582-.988.494-1.318 2.802-.823 4.945.824 2.802.33 3.956-1.484 3.956-2.967 0-3.296-5.934-.33-12.033.99-2.472 2.473-4.45 3.297-4.45m-156.626 3.42c3.832-.041 6.14.7 6.14 2.184 0 2.308-4.616 4.12-26.702 9.89-13.68 3.46-29.34 7.746-39.229 10.548-8.406 2.308-11.373 3.627-23.405 9.56-2.308 1.319-5.44 2.308-6.758 2.308s-3.297 1.154-4.45 2.472-3.297 2.473-4.945 2.473-3.791 1.154-4.945 2.472-3.132 2.473-4.45 2.473-3.462 1.153-4.78 2.472c-2.802 2.802-7.253 3.296-7.253.824 0-.824 1.813-1.978 4.12-2.637 2.309-.495 4.122-1.648 4.122-2.308s1.978-2.142 4.615-3.131c2.472-.99 6.758-3.297 9.395-5.11 4.78-3.132 5.604-3.626 10.714-5.604 1.318-.495 3.626-1.648 4.944-2.473 1.319-.824 3.627-1.977 4.945-2.472s3.626-1.648 4.945-2.307c4.945-2.967 14.175-6.429 23.9-9.396 5.439-1.483 13.186-3.79 17.307-5.11 4.12-1.153 11.537-3.296 16.482-4.614 6.099-1.649 11.456-2.473 15.288-2.514m180.855 4.821c2.308 0 23.076 20.604 23.076 22.911 0 .989.824 1.813 1.648 1.813.99 0 2.473 1.648 3.297 3.626.989 2.143 3.132 5.934 4.78 8.736 1.813 2.637 3.296 6.099 3.296 7.417 0 1.649-.494 1.484-1.813-.824-.989-1.813-2.802-4.12-3.79-4.945-.99-.989-4.451-4.944-7.418-9.065-8.076-10.714-16.812-19.78-19.12-19.78-2.802 0-7.747-6.098-6.428-8.076.494-.989 1.648-1.813 2.472-1.813m77.304 16.483c1.319 0 4.78 1.813 7.747 4.12s5.934 4.121 6.428 4.121c.989 0 13.35 9.066 15.658 11.538.495.495 4.616 3.791 9.066 7.252 8.241 6.429 42.36 40.053 50.272 49.613 11.373 13.516 28.02 37.086 28.02 39.723 0 1.978-25.877-26.207-38.074-41.371-9.23-11.703-45.328-46.316-59.173-56.865-4.12-3.132-9.23-7.417-11.538-9.395s-5.604-4.78-7.417-6.099c-2.308-1.813-2.473-2.472-.99-2.637m-260.011 3.338c.945-.021 1.399.412 1.399 1.277 0 2.637-9.066 9.89-27.197 21.922-18.79 12.362-34.943 24.23-42.03 30.658-6.1 5.439-15 13.515-23.736 21.757-4.285 3.955-8.24 6.758-8.735 6.098-1.319-1.154 33.46-35.273 47.964-47.14 6.099-4.945 19.45-14.67 29.504-21.592 12.733-8.777 19.996-12.919 22.831-12.98m-122.056 24.682c1.648 0 1.978 2.308.494 3.791-1.648 1.484-4.12-.494-3.132-2.307.66-.824 1.649-1.484 2.638-1.484m295.469 7.97c.126.065.296 1.425.559 4.227.494 3.462 0 7.088-.99 8.077-.988.989-1.812 4.45-1.812 7.582-.165 3.297-1.154 7.747-2.473 10.054s-2.307 6.099-2.472 8.407c0 2.307-1.154 5.604-2.473 7.417-1.318 1.648-2.472 4.45-2.472 5.933 0 1.649-.989 5.275-2.308 8.242s-3.461 8.406-4.78 12.032c-1.318 3.626-3.79 9.89-5.274 14.01s-3.956 10.384-5.274 14.01c-1.484 3.627-3.462 8.736-4.616 11.538-5.274 12.527-7.911 18.46-10.054 22.746-1.319 2.638-2.308 5.77-2.308 6.923s-.988 4.286-2.307 6.923c-2.637 4.945-11.538 24.559-15 32.635-3.955 9.396-7.416 21.428-7.416 26.043 0 2.472-.99 6.593-2.308 9.065-1.154 2.473-2.802 9.23-3.626 15.164l-1.319 10.714-1.154-7.417c-1.318-8.406 2.473-34.449 6.099-41.701 1.319-2.637 2.308-5.934 2.308-7.582 0-1.484 1.153-4.286 2.472-6.099 1.319-1.648 2.472-4.12 2.472-5.11 0-1.153 2.308-7.087 5.11-13.185 7.747-17.142 9.065-20.604 12.197-28.515 1.484-4.121 3.791-9.725 4.945-12.362 1.154-2.802 3.296-8.242 4.945-12.362 1.483-4.121 3.79-9.56 5.11-12.033 1.318-2.637 2.307-5.933 2.307-7.417s1.154-4.285 2.472-5.934c1.319-1.813 2.473-4.615 2.473-6.098 0-1.648.989-4.945 2.307-7.582 1.319-2.472 3.626-7.912 5.11-12.032 1.483-4.121 3.79-9.89 5.11-12.857s2.307-6.758 2.307-8.241c0-1.648 1.154-4.45 2.472-6.264 1.319-1.648 2.473-4.944 2.473-7.252s1.483-6.428 3.296-9.065c1.813-2.802 3.462-7.253 3.626-9.89.077-1.854.155-2.803.266-2.745m82.874 2c.177 0 .376.023.592.084 1.978.825 2.473 3.132.495 3.297-.66 0-1.484-.824-1.813-1.978-.402-.803-.042-1.39.726-1.404zm-24.485 13.426c1.231-.037 2.97 1.431 3.485 3.8.33 1.649 1.483 4.121 2.802 5.44 1.319 1.154 2.308 3.956 2.308 6.263 0 2.143.659 3.956 1.648 3.956.824 0 2.143 1.978 2.637 4.45.66 2.638 1.978 6.099 2.967 7.912 4.12 7.582 12.856 42.196 11.703 46.646-1.154 4.78-3.462 3.461-4.616-2.472-.33-2.638-1.483-6.923-2.472-9.56-.989-2.802-2.967-9.395-4.45-14.835-1.484-5.439-3.462-12.197-4.45-14.834-.99-2.802-2.143-7.252-2.638-9.89-.33-2.802-1.813-6.428-2.967-8.241-1.318-1.813-2.307-4.615-2.307-6.263s-1.154-4.121-2.473-5.44c-1.318-1.483-2.472-3.626-2.472-5.11 0-1.235.556-1.8 1.295-1.822m59.25 42.49c1.01-.015 2.393 1.523 3.078 4.166.494 2.307 1.648 4.12 2.308 4.12.824 0 4.12 5.769 7.417 12.692 3.296 7.087 7.087 14.999 8.406 17.471 1.154 2.638 2.307 5.934 2.307 7.582 0 1.484 1.154 4.45 2.638 6.429 1.318 1.978 1.978 4.45 1.318 5.439-1.318 2.307-8.736-6.264-8.9-10.22 0-1.483-1.154-3.626-2.473-4.78s-2.472-3.46-2.472-4.944c0-1.648-1.154-5.275-2.473-8.077s-3.626-7.417-4.944-10.219-2.473-6.098-2.473-7.582c0-1.318-1.154-3.461-2.472-4.78-1.319-1.483-2.473-3.626-2.473-4.945 0-1.607.517-2.343 1.208-2.353M691.06 495.774c2.473 0 1.978 5.934-.824 8.241-1.318 1.154-2.472 3.297-2.472 4.945s-1.154 3.79-2.472 4.945-2.473 3.461-2.473 5.11c0 1.648-.824 3.46-1.813 3.955-.824.66-2.472 2.802-3.296 4.615-.825 1.978-3.462 6.923-5.605 10.879-2.307 3.956-4.12 8.9-4.12 10.878s-2.143 5.605-4.945 8.242c-2.637 2.637-4.945 5.933-4.945 7.417s-.824 3.461-1.813 4.45c-2.307 2.308-5.769 8.242-8.241 14.01-.99 2.638-2.473 4.616-3.297 4.616s-1.483 1.318-1.483 3.131c0 1.649-1.154 3.956-2.473 5.11s-2.472 2.967-2.472 4.285c0 1.154-.989 3.132-2.308 4.286-1.318 1.318-2.472 3.79-2.802 5.44-.824 3.79-4.78 5.274-4.78 1.812 0-2.472 2.308-7.087 12.692-25.383 2.967-5.274 6.099-11.373 7.252-14.01.99-2.473 2.473-4.45 3.297-4.45s1.483-1.484 1.483-3.132c0-1.813.66-3.791 1.649-4.286.824-.494 3.626-5.11 5.933-10.054 2.308-4.945 4.945-8.9 5.77-8.9s1.483-1.65 1.483-3.792.824-4.615 1.813-5.604c2.307-2.307 5.769-8.241 8.241-14.175.99-2.472 2.473-4.45 3.297-4.45s1.483-1.319 1.483-3.132c0-1.648.99-3.956 2.308-4.945 1.318-1.153 2.802-3.79 3.296-5.933.66-2.308 1.813-4.121 2.637-4.121m141.403 19.758c1.106-.01 2.666 1.432 3.645 3.977.824 2.143 2.307 4.45 3.131 5.11.99.494 1.813 4.12 1.813 7.911-.164 6.428-.33 6.758-2.472 3.791-1.319-1.813-2.472-4.78-2.472-6.593 0-1.978-1.154-4.945-2.473-6.593-1.318-1.813-2.472-4.285-2.472-5.44 0-1.472.544-2.157 1.3-2.163M716.044 530.64c-1.46-.053-2.73 2.014-5.04 6.835-2.802 5.934-3.461 10.22-3.461 25.054 0 12.856-.824 20.108-2.802 25.218-2.637 7.087-2.802 7.087-9.065 6.099-9.396-1.649-12.362 2.802-13.681 20.603-2.143 31.482-6.099 42.195-13.845 37.91-5.77-2.967-6.099-2.308-12.527 20.603-6.264 22.91-10.22 44.009-12.527 65.93-.824 9.066-2.802 27.527-4.12 41.207-4.286 41.372-4.451 44.833-2.308 81.59 2.307 39.887 1.813 38.898 15.823 45.491 9.23 4.45 13.846 4.945 13.846 1.813-.495-45.162 3.131-89.5 9.889-124.773 3.791-19.12 7.088-33.954 9.066-40.383 1.153-3.626 3.296-11.043 4.615-16.482 7.252-28.68 8.57-32.965 21.097-70.051 3.791-11.373 22.252-50.272 31.153-65.93 4.285-7.253 4.285-8.077 3.79-31.977-.494-20.768-.988-24.889-3.296-26.702-3.296-2.308-7.252-.33-11.373 5.769-2.967 4.285-6.923 4.45-8.406.494-.495-1.483-2.143-4.12-3.461-5.769-1.417-1.61-2.431-2.515-3.367-2.549M119.58 612.215a542 542 0 0 0 22.65 59.08c2.637-.222 6.959 1.213 13.148 4.307 19.614 9.89 24.724 11.373 41.042 11.373 17.471 0 27.855 2.308 40.712 9.23 22.251 12.033 36.756 18.626 42.69 19.615 15 2.472 23.9 7.252 40.547 21.427 7.582 6.429 12.032 10.055 22.087 18.131 4.615 3.626 9.065 7.417 9.89 8.406 3.46 3.627 18.625 14.175 24.723 17.142 5.77 2.638 11.538 7.912 10.22 9.23-1.649 1.814-11.703-3.626-26.867-14.669-35.603-25.878-40.218-29.174-41.042-29.174-.494 0-2.637-1.484-4.615-3.462-8.736-8.076-22.087-15.328-33.954-18.295-11.043-2.802-33.625-13.186-51.261-23.406-4.45-2.472-10.22-3.626-25.548-4.45-21.263-1.319-32.141-3.79-45.492-10.384-4.615-2.308-9.395-4.285-10.55-4.285q-.375 0-.77-.07a542 542 0 0 0 34.734 61.858c1.587-.651 4.263-1.165 8.232-1.627 5.44-.659 12.033-1.813 14.34-2.472 2.473-.824 4.615-1.483 4.615-1.483.99-.66 15.164 5.439 19.285 8.406 2.802 2.142 7.088 4.78 9.395 6.098 5.11 2.802 25.713 8.406 30.988 8.406 4.45 0 13.02 3.791 22.58 9.725 10.055 6.428 13.022 8.241 15.66 9.56 4.614 2.143 38.569 25.713 54.392 37.58 13.845 10.384 39.723 27.197 42.03 27.197.825 0 11.703 8.241 28.516 21.757 12.856 10.549 28.844 25.053 38.734 35.108 18.955 19.614 29.339 30.658 36.097 38.734 5.283 6.266 20.817 28.368 28.388 39.903a542 542 0 0 0 63.184 8.193c-4.716-9.837-25.426-45.554-34.213-58.975-45.327-68.567-106.313-135.652-150.816-165.815-3.626-2.472-7.582-6.098-8.736-8.076-1.153-1.813-6.263-5.275-11.373-7.582-5.274-2.473-14.175-8.9-20.933-15.33-6.428-5.933-16.482-13.844-22.251-17.47-5.934-3.462-14.834-10.22-19.78-14.835-9.23-8.406-26.042-17.472-36.096-19.285-11.868-2.307-23.24-9.56-37.745-24.064-15.659-15.659-17.637-16.648-36.592-16.648-12.527 0-21.098-2.967-31.482-10.714-4.944-3.79-10.549-7.746-12.526-8.735-6.594-3.462-26.537-7.417-43.185-8.406zm480.664 31.906c1.813 0 4.12 6.428 2.967 7.746-1.648 1.484-4.45-1.318-4.45-4.615 0-1.648.659-3.131 1.483-3.131m-136.771 11.537c1.104.01 1.773 1.355 1.449 3.627-.66 4.45-4.615 5.933-4.615 1.648 0-1.648.494-3.626 1.153-4.12.737-.794 1.435-1.159 2.013-1.155m112.48 8.417c.559-.02 1.319 2.091 3.688 8.066.66 1.319 2.472 4.615 4.12 7.417 1.814 2.637 4.945 8.241 6.923 12.362s4.615 8.571 5.934 10.22c1.648 1.812 1.813 2.966.494 3.79-.988.66-2.142.825-2.307.66-10.549-14.175-15.823-23.406-15.823-27.361 0-1.32-1.154-4.121-2.638-6.264-1.648-2.472-2.142-5.274-1.483-6.923.494-1.174.757-1.954 1.092-1.967m-5.126 46.885c.791.01 1.927 1.852 4.199 6.179 3.79 7.746 5.439 20.933 2.472 20.933-1.813 0-3.461-4.121-3.461-9.066 0-2.143-1.319-5.934-2.802-8.736-1.649-2.802-2.308-5.933-1.484-7.911.34-.907.66-1.404 1.076-1.4m-4.856 36.009c1.535.014 2.833 5.422 3.121 13.354 0 4.45 1.154 13.021 2.472 18.955 2.802 12.362 3.297 29.669.825 29.669-.825 0-1.978-1.978-2.473-4.615-.66-2.473-2.143-9.066-3.461-14.67-2.308-10.549-3.297-40.217-1.154-42.36.227-.227.45-.335.67-.333m207.054 38.91c1.43-.07 3.954 1.465 6.55 4.278 5.934 6.428 12.032 16.647 12.032 20.273 0 1.648 1.154 5.77 2.473 8.9 3.956 9.56 2.637 62.14-1.484 55.877-.659-1.319-1.318-11.868-1.153-23.405.164-15.164-.495-23.24-2.308-28.35-1.319-3.956-2.472-8.407-2.472-9.89 0-3.132-10.55-21.922-13.186-23.57-.99-.495-1.649-1.648-1.649-2.637 0-.964.448-1.44 1.197-1.476m128.959 26.695c.846-.082.402 1.72-1.262 5.438-1.483 3.132-3.296 5.77-3.955 5.77s-1.319.823-1.319 1.812c0 3.297-20.768 27.856-23.405 27.856-.99 0 .659-2.967 3.461-6.428 2.802-3.462 5.11-7.088 5.11-7.747 0-.824 2.307-3.626 4.944-6.264 2.803-2.637 4.945-5.768 4.945-7.087 0-1.154 1.154-2.637 2.473-3.132 1.318-.66 2.472-1.813 2.472-2.802s1.319-2.967 2.967-4.615c1.808-1.808 2.99-2.745 3.569-2.801m-38.147 10.609c.232 0 .443.089.624.269 1.648 1.648 0 6.922-2.143 6.922-.824 0-1.483 1.154-1.483 2.637 0 2.143-6.594 12.198-13.187 19.944-.824 1.154-1.648 2.638-1.648 3.297 0 .824-1.318 2.637-2.802 4.12-1.648 1.484-5.44 5.275-8.57 8.572-2.968 3.296-6.264 5.439-7.088 4.944-.825-.494 1.648-4.12 5.604-7.911 7.417-7.417 10.219-11.044 12.856-17.142.824-1.978 2.308-3.626 3.132-3.626s1.813-1.32 2.472-2.967c.495-1.484 2.473-5.11 4.286-7.747 1.813-2.802 4.12-6.593 5.274-8.736.773-1.545 1.847-2.587 2.673-2.576m-49.437 5.543c1.499.062 1.931 3.832 1.437 11.867-.66 12.527-5.44 28.35-7.912 26.702-2.307-1.318-1.648-10.878.99-15.493 1.318-2.308 2.307-7.912 2.472-12.527 0-4.615.494-8.9 1.153-9.395.742-.783 1.36-1.175 1.86-1.154m-24.276 54.393c1.978 0 1.978 11.043 0 12.362-2.472 1.483-3.791-2.143-2.637-7.418.66-2.802 1.813-4.944 2.637-4.944m45.371 2.405c.307-.01.574.067.78.232 2.143 1.154.165 3.956-2.802 3.956-1.318 0-2.307.659-2.307 1.483 0 1.648-9.23 6.758-12.197 6.758-.99 0 .33-1.813 2.967-4.12s5.439-4.121 6.263-4.121 2.637-1.154 4.12-2.473c.99-.989 2.257-1.7 3.176-1.715M648.572 944.09c-1.939.01-3.423.27-3.99.837-.33.495.165 5.11 1.319 10.22 4.109 19.084 6.297 30.383 6.57 34.852a542 542 0 0 0 25.49-1.358c-2.176-5.982-5.255-17.6-7.006-27.231-1.978-10.714-2.473-11.703-7.912-14.34-3.74-1.813-10.206-3.003-14.471-2.98" style="stroke-width:.164826"/>
</svg>
