<svg xmlns="http://www.w3.org/2000/svg" width="810" height="960">
    <path d="M404.429-30A575.5 575.5 0 0 0 238.703-5.447C210.216 97.341 149.385 257.55 126.278 312.194c-6.146 14.532-8.857 33.091-.963 47.109 94.576 167.946 124.911 308.9 131.718 440.336C264.045 935.058 349.7 990 405 990s140.955-54.942 147.967-190.36c6.807-131.438 37.142-272.39 131.718-440.337 7.894-14.018 5.183-32.577-.963-47.109-23.107-54.645-83.945-214.853-112.432-317.64A575.5 575.5 0 0 0 405-30zM405 158.46l111.803 170.99L405 500.443 293.197 329.45z" style="stroke-width:1.19886"/>
</svg>
