<svg xmlns="http://www.w3.org/2000/svg" width="1551" height="960">
    <path d="M1211.431 941.969c-2.349 6.458-.587 8.22 6.458 7.045 5.284-1.174 10.568-5.284 12.33-9.394 3.522-10.568-14.678-8.806-18.788 2.349m88.654-46.97c-5.871 6.459-5.284 59.886 1.174 63.996 12.917 7.632 33.465-29.943 28.769-54.014-1.762-10.568-22.31-17.614-29.943-9.981m-17.613-175.546c-6.459 5.871-4.697 36.401 1.76 49.318 7.633 13.503 29.357 15.264 29.357 2.348 0-8.807-21.724-55.776-25.833-55.776-.588 0-3.523 1.762-5.285 4.11m-164.392 1.761c-28.181 29.943-54.014 58.712-56.95 65.17-5.871 9.98-4.11 11.155 18.788 10.568 14.09 0 50.491-3.523 81.021-7.633 61.647-7.632 60.473-6.458 47.556-50.491-12.329-43.446-23.484-67.518-31.117-69.28-4.696-.587-31.116 22.31-59.298 51.666m125.055-95.112c0 8.807 2.936 19.375 6.458 22.898s8.22 14.677 10.568 25.245c4.11 21.724 14.678 24.072 17.027 2.936 2.348-16.44-19.962-67.518-28.769-67.518-2.935 0-5.284 7.633-5.284 16.44m-328.196-154.41c-48.143 61.06-42.272 63.408 49.318 23.484 9.98-4.697 23.484-9.394 31.117-11.742 7.045-1.761 12.916-6.458 12.916-9.394 0-7.045-46.382-40.51-56.363-40.51-4.11 0-20.549 17.026-36.988 38.162m-241.303-89.828c-86.305 5.87-157.933 31.117-237.78 83.957C371.86 508.68 298.47 592.05 266.767 659.568c-5.87 12.916-14.678 30.53-19.374 39.336-4.697 8.22-8.22 19.375-8.22 25.246 0 5.284-3.523 16.44-8.22 25.246-4.11 8.807-9.98 32.291-12.329 52.253-3.523 30.53-2.348 36.988 4.697 36.988 4.697 0 11.742-4.11 16.44-9.394 4.109-4.697 40.51-34.64 81.02-65.17 40.511-31.116 75.15-58.123 76.912-60.472 1.762-1.761 19.962-16.439 41.098-32.291s49.905-39.924 64.583-54.014 28.768-25.246 31.704-25.246c4.11 0 102.157-73.39 109.202-82.196 2.936-3.523 62.234-49.905 124.468-97.46 12.917-9.982 24.072-20.55 24.659-23.485 1.174-8.22-57.537-11.742-119.771-7.045m22.31-98.048c-1.174 1.761-26.42 5.284-55.188 8.22-70.454 7.632-95.112 14.09-163.805 45.794-27.007 12.33-92.176 49.318-96.873 54.602-1.761 1.761-20.549 17.026-42.272 34.052s-53.427 48.73-70.454 70.454-32.878 41.097-35.814 42.859c-6.458 4.697-12.916 16.439-41.684 73.976-49.905 100.983-55.776 122.706-65.757 244.239l-4.11 52.253 14.09-2.349c12.917-1.761 14.092-4.697 17.614-48.73 1.762-25.833 6.458-54.602 9.981-63.408 4.11-9.394 7.045-24.072 7.045-32.879s4.11-21.136 8.807-27.594c4.697-5.87 8.807-17.613 8.807-25.833s4.11-19.962 8.807-25.833c4.696-6.458 8.806-15.852 8.806-21.723 0-5.284 4.11-12.916 8.807-17.026s8.807-11.155 8.807-15.265c0-9.98 50.491-84.544 84.544-124.468 48.143-56.363 130.926-119.184 194.334-147.365 16.439-7.633 36.988-17.026 45.795-21.723 9.394-4.697 22.31-8.22 29.355-8.22 7.046-.587 19.375-4.11 27.595-8.806 8.22-4.697 27.007-8.22 41.685-8.807 54.014 0 81.608-6.458 81.608-18.2 0-7.633-4.11-11.156-13.503-11.156-7.633 0-15.265 1.174-17.027 2.936m288.86 9.394c-36.988 28.768-120.358 92.176-184.354 141.494-64.582 48.73-121.532 92.176-126.229 96.286-5.284 4.11-18.787 15.265-31.117 24.072-11.742 8.806-89.24 68.692-173.198 132.1-83.37 63.995-189.637 145.017-236.02 180.83-46.38 35.227-88.066 69.28-92.176 75.738-7.632 9.981-4.11 10.568 63.996 14.09 39.336 1.762 257.742 2.35 485.541 1.175 425.07-2.349 427.418-2.349 467.929-25.246 7.045-4.11 16.439-7.045 21.136-7.045s11.742-4.11 15.852-8.807 10.568-8.807 15.265-8.807c4.11 0 21.136-7.632 37.575-17.613 16.44-9.394 34.64-17.613 41.098-17.613 5.871 0 22.897-8.22 36.988-17.614 14.678-9.98 29.943-17.613 34.053-17.613 4.696 0 13.503-4.11 19.374-8.807 6.459-4.697 16.44-8.806 22.31-8.806 9.982 0 21.137-14.678 15.266-20.55-3.523-3.522-339.939 21.137-403.347 29.943-22.31 2.936-31.117 2.349-29.355-2.348 2.348-6.458 91.59-99.222 314.692-324.673 72.215-72.802 130.926-135.623 130.926-139.146 0-7.632-33.465-3.522-45.208 5.871-3.522 2.936-14.09 7.633-23.484 10.568-8.807 2.936-31.117 10.568-48.73 17.614-17.614 7.045-38.75 14.678-46.97 17.613-8.22 2.936-29.355 10.568-46.968 17.613-17.614 7.046-38.75 14.678-46.97 17.614s-29.355 10.568-46.968 17.613c-17.614 7.046-45.208 16.44-61.647 20.55-55.776 14.677-72.802 21.135-76.325 26.42-2.348 3.522-9.394 5.87-17.026 5.87-7.045 0-18.2 4.11-24.659 8.807-5.871 4.697-14.09 8.807-18.2 8.807-3.523 0-32.291 12.329-63.996 27.007-34.052 15.852-58.71 24.659-62.233 21.136-2.936-2.936 4.696-17.614 19.961-36.401 38.163-47.556 81.022-100.983 112.726-142.081 15.852-20.55 31.704-39.924 35.227-42.86 4.11-3.522 19.374-21.723 34.64-41.097 14.677-19.375 35.226-44.62 44.62-55.776 9.98-11.155 18.2-22.31 18.2-25.246 0-11.155-19.962.587-82.195 49.318m163.217 251.284c-.587 3.522-34.64 40.51-75.15 82.782C887.344 822.198 882.647 825.72 874.427 804.584c-8.806-23.484-70.453-81.608-96.286-91.002-15.852-5.871-12.33-21.136 5.871-28.181 8.807-3.523 24.072-9.981 33.466-14.091 9.98-4.11 29.355-11.742 44.033-17.613 14.678-5.284 33.465-13.504 42.272-18.2 8.22-4.698 20.549-8.22 26.42-8.22 6.458 0 16.44-4.11 22.898-8.807 5.87-4.697 15.852-8.807 21.136-8.807s17.613-4.11 27.594-8.807 26.42-12.916 36.4-17.613 21.137-8.807 25.247-8.807 21.723-7.632 39.336-17.613c32.291-17.613 48.73-22.31 45.208-12.33M669.526 622.58c-36.988 49.904-45.207 57.537-58.124 57.537-19.962 0-17.613-7.633 8.22-27.008 11.742-8.806 22.897-18.787 23.484-21.136 1.174-2.348 5.871-4.697 10.568-4.697s8.22-2.935 8.22-5.87c0-3.523 2.935-5.872 6.458-5.872 4.697 0 4.697 2.349 1.174 7.046m99.222 125.642c25.246 15.852 69.28 59.298 69.28 68.105s-8.807 4.11-25.833-12.917c-24.072-24.659-76.912-48.143-116.836-52.253-36.988-4.11-46.382-12.916-18.787-19.375 29.355-6.458 65.756 0 92.176 16.44m-196.095 14.09c3.522 9.394-2.349 18.788-28.182 45.795-21.723 21.723-36.988 44.62-44.62 65.757-18.2 47.556-50.492 49.904-35.814 2.935 12.33-39.923 31.117-69.866 62.234-98.635 32.878-30.53 39.924-32.878 46.382-15.852m-165.566 78.086c-4.11 7.046-9.394 21.723-11.742 32.879-5.871 30.53-12.917 35.813-51.079 35.813-19.375 0-34.64-2.348-34.64-4.697 0-2.935 12.33-13.503 27.008-24.071s36.4-28.182 48.143-38.75c22.897-21.723 35.227-21.723 22.31-1.174m299.427 28.182c25.246 15.265 36.401 34.052 25.246 41.097-9.98 5.872-25.833 6.459-100.396 1.175-65.17-4.11-69.28-8.22-35.227-36.401 18.788-15.265 26.42-17.614 56.363-18.2 24.659 0 39.924 3.522 54.014 12.329m99.81 3.522c4.11 5.871 8.219 15.852 8.219 22.31 0 10.569-1.761 9.394-14.678-5.283-8.22-9.394-14.678-19.375-14.678-22.31 0-8.22 12.917-5.285 21.136 5.283" style="stroke-width:.587112"/>
</svg>
