<svg xmlns="http://www.w3.org/2000/svg" width="1315" height="960">
    <path d="M640.229 204.836c-11.184 17.397-19.882 48.463-19.882 68.345 0 80.77-84.499 162.784-166.512 162.784-23.61 0-49.705 9.941-60.889 22.367-34.794 38.522-26.095 52.19 33.551 52.19s156.571 52.191 156.571 83.257c0 9.94 8.698 19.882 18.64 23.61 12.426 4.97 18.639 24.852 18.639 62.131 0 38.522 7.456 62.131 24.852 79.528 36.037 36.036 49.706 21.125 49.706-54.675 0-63.374 2.485-69.588 63.373-130.476 62.132-60.889 67.102-63.374 130.476-63.374 58.404 0 67.102-3.728 67.102-24.853 0-31.065-36.036-49.705-98.167-49.705-28.58 0-50.948-6.213-50.948-12.426 0-7.456-13.669-18.64-31.066-24.853s-34.793-22.367-39.764-33.55c-3.728-12.427-14.911-31.066-23.61-41.007S694.905 278.15 692.42 244.6c-3.728-70.83-22.367-84.5-52.19-39.765m-1.243-227.4c-31.065 45.977-91.954 85.74-132.96 85.74-17.398 0-38.522 8.7-47.22 18.64-8.7 9.941-22.368 18.64-32.309 18.64-21.125 0-141.66 120.535-141.66 141.66 0 9.94-8.698 23.61-18.639 32.308s-18.64 29.823-18.64 45.977c0 44.734-36.036 98.167-89.469 135.446-52.19 37.279-50.947 54.676 3.728 54.676 27.338 0 39.764 7.456 48.463 29.823 6.213 16.154 17.397 33.55 23.61 38.521 7.456 3.728 13.669 21.125 13.669 37.28 0 47.219 38.521 106.865 121.777 188.878 49.705 48.463 89.47 78.286 106.866 78.286 14.912 0 38.522 8.698 52.19 18.64 12.427 9.94 36.037 18.639 49.706 18.639 17.396 0 38.521 18.64 59.646 49.705C655.14 997.633 675.022 1020 682.478 1020c6.213 0 12.427-21.125 14.912-47.22 3.728-39.764 8.698-45.977 37.279-49.705 17.396-2.485 39.764-12.426 47.22-22.367 8.698-9.941 29.822-17.397 48.462-17.397 39.764-1.243 183.909-113.08 200.063-156.571 6.213-16.154 17.397-29.823 24.852-29.823 6.214 0 12.427-16.154 12.427-36.036s7.455-42.25 17.397-50.948c9.94-7.456 19.882-32.308 22.367-53.433 3.728-33.551 8.698-39.764 41.006-43.492 59.646-7.456 62.132-22.367 7.456-58.403-34.793-23.61-50.948-43.492-50.948-62.132 0-14.911-8.698-34.793-18.639-43.492s-18.64-28.58-18.64-45.977c0-33.55-6.212-43.492-94.439-134.204-33.55-36.036-74.558-69.587-89.47-73.315-14.91-4.97-27.337-14.911-27.337-21.124 0-6.214-18.64-11.184-42.25-11.184s-47.22-6.213-50.947-13.669c-4.97-6.213-22.367-17.397-38.521-23.61-22.368-8.698-29.823-21.125-29.823-49.705 0-48.462-23.61-48.462-55.919 1.243m49.705 147.872c3.728 6.213 29.823 12.427 55.919 12.427 68.344 0 89.469 9.94 74.557 37.278s-4.97 37.28 41.007 37.28c42.25 0 99.41 52.19 88.226 80.77-3.727 9.941 12.427 42.25 39.765 74.558 43.492 53.433 44.734 57.16 23.61 73.315-18.64 12.426-21.125 26.095-13.67 67.102 6.214 43.491 3.728 55.918-17.396 73.315-14.912 12.426-24.853 37.278-24.853 59.646 0 23.61-8.698 43.492-24.852 53.433-13.67 8.698-24.853 26.095-24.853 39.764 0 22.367-2.485 23.61-24.852 9.94-17.397-11.183-28.58-12.426-34.794-2.485-42.25 62.132-94.44 100.653-108.109 79.529-11.183-18.64-70.83-13.67-98.167 6.213-28.58 22.367-77.043 24.852-89.47 4.97-4.97-8.698 1.243-19.882 13.67-26.095 32.308-18.64 0-34.793-73.315-34.793-57.161 0-59.647-1.243-52.19-29.824 6.212-23.61-1.243-34.793-36.037-58.403-50.948-34.794-73.315-75.8-52.19-96.925 11.183-12.426 9.94-18.64-6.213-31.066-12.427-8.698-22.368-27.337-22.368-39.764 0-13.669-8.698-37.279-19.882-52.19-11.183-17.397-16.154-37.279-9.94-54.676l7.455-26.095 21.125 27.338c26.095 34.794 38.521 22.367 38.521-37.279 0-60.889 19.882-110.594 43.492-110.594 11.184 0 24.853-13.669 31.066-31.065s19.882-31.066 31.065-31.066 18.64-11.184 19.882-28.58c0-14.912 3.728-19.883 7.456-12.427 8.699 22.368 47.22 19.882 65.86-2.485 8.698-9.941 26.095-18.64 38.52-18.64 12.427 0 26.096-6.213 29.824-12.426 3.728-7.455 18.64-12.426 31.066-12.426s27.337 4.97 31.065 12.426" style="stroke-width:1.24262"/>
</svg>
