<svg xmlns="http://www.w3.org/2000/svg" width="1206" height="960">
    <path d="M754.556 492.406c-1.272 4.24-4.663 16.956-7.63 28.824-2.967 11.445-9.75 28.4-15.26 37.302-13.988 22.466-39.42 49.595-46.203 49.595-3.39 0-5.934 2.967-5.934 6.358 0 5.51 11.445 6.358 75.875 6.358 48.323 0 77.147-1.695 78.842-4.239 1.696-2.543-.424-9.749-4.662-16.107-4.24-6.359-10.174-15.26-12.717-19.923s-9.75-18.227-16.108-29.672c-36.454-66.126-42.388-73.755-46.203-58.496m-319.608 6.359c-4.239 7.63-9.325 17.379-11.869 21.194-2.12 3.815-9.75 17.38-16.531 29.672s-14.412 26.28-16.956 30.943-8.477 13.564-12.716 19.923-6.358 13.564-4.663 16.107c1.696 2.544 30.52 4.24 78.843 4.24 64.43 0 75.875-.849 75.875-6.36 0-3.39-2.544-6.357-5.935-6.357-6.782 0-32.215-27.129-46.203-49.595-5.51-8.901-12.293-25.857-15.26-37.302-2.967-11.868-6.358-24.585-7.63-28.824-2.967-11.02-8.901-8.901-16.955 6.359m149.63-108.515c-1.27 3.815-2.542 19.5-2.542 35.183 0 16.531-2.12 30.52-5.087 33.487s-17.803 5.086-37.726 5.086c-34.758 0-37.725 1.696-37.725 23.314 0 14.836 8.053 18.65 44.507 19.922l33.911 1.272 2.12 36.03 2.119 36.03h38.149l2.12-36.03 2.12-36.03 33.91-1.272c36.454-1.271 44.508-5.086 44.508-19.922 0-21.618-2.967-23.314-37.726-23.314-19.922 0-34.758-2.12-37.726-5.086s-5.086-16.956-5.086-33.487c0-38.574-1.696-41.965-21.194-41.965-10.597 0-16.956 2.12-18.651 6.782m5.935-162.77c-2.543 5.51-8.477 16.53-13.14 24.584-5.087 8.054-13.988 24.162-20.347 35.183-19.074 35.182-20.346 37.301-25.433 42.388-11.02 11.021-1.271 26.705 10.597 16.532 19.075-16.956 103.004-16.956 122.503 0 11.445 10.173 21.194-5.51 10.173-16.532-5.087-5.087-6.358-7.206-25.433-42.388-6.358-11.021-15.26-27.129-20.346-35.183-4.663-8.053-10.597-19.074-13.14-24.585-2.12-5.086-7.63-9.325-12.717-9.325s-10.597 4.239-12.717 9.325M567.2-12.864c-16.108 10.597-33.487 20.77-38.15 23.314-4.663 2.543-13.564 7.63-19.922 11.869-6.359 3.815-28.4 17.379-48.747 30.095-51.29 31.792-56.377 36.03-65.702 56.377-5.087 10.173-17.38 36.454-27.976 58.496-10.174 22.042-24.162 51.714-30.52 65.702s-20.77 44.507-31.791 67.821-25.433 53.833-31.791 67.821c-6.359 13.989-20.77 44.508-31.792 67.822-11.02 23.313-25.433 53.833-31.79 67.821-6.36 13.988-20.771 44.084-31.792 66.55-11.869 24.585-18.651 44.084-17.38 48.746 1.696 4.24 13.141 15.26 25.857 24.586 12.717 9.325 22.89 19.074 23.314 22.042 0 4.662-64.854 50.442-81.81 57.224-3.814 1.695-7.205 5.086-7.205 7.206 0 5.934 12.292 17.38 19.074 17.38 3.391 0 13.14 2.966 22.042 6.781s22.042 9.75 28.824 12.293c7.206 2.967 19.499 8.478 27.553 11.869 8.053 3.815 24.585 11.02 36.03 16.107 56.8 24.585 137.762 64.007 176.76 85.625 13.14 7.63 32.214 18.227 42.388 23.737 30.943 16.955 98.34 62.735 108.938 74.18 9.749 10.597 31.791 15.26 35.182 7.63.848-1.696 14.412-14.412 30.943-27.977 33.487-28.4 94.527-69.093 144.12-95.797 18.652-10.174 36.879-19.923 40.27-21.618 11.445-6.359 77.994-36.454 101.732-46.204 12.716-5.086 29.248-11.868 36.03-14.836 23.737-10.173 71.636-27.128 90.287-31.79 23.738-5.935 33.487-18.652 19.075-24.586-16.955-6.782-81.81-52.562-81.81-57.224.424-2.968 10.598-12.717 23.314-22.042 12.717-9.326 24.161-20.347 25.857-24.586 2.12-6.782-13.14-44.083-28.4-70.788-2.12-3.391-5.087-9.326-6.358-12.717-1.272-3.39-8.478-18.65-15.26-33.91-7.206-15.26-18.651-39.845-25.857-55.105-6.782-15.26-14.412-30.52-16.108-33.91-2.12-3.392-5.086-9.326-6.358-12.717s-8.054-18.227-14.836-33.063c-6.782-14.412-17.803-38.15-24.585-52.986-6.782-14.412-21.194-45.355-32.215-68.669-11.021-23.313-25.857-54.68-32.64-69.94-38.149-82.234-50.442-101.309-66.125-101.733-2.967 0-6.359-2.967-7.63-6.358-1.696-3.39-5.087-6.358-8.054-6.358-2.543 0-12.716-5.51-21.618-11.869-8.902-6.782-19.499-13.14-22.89-14.836-3.39-1.695-11.868-6.782-19.075-11.445-6.782-4.662-16.53-10.173-21.194-12.716-4.662-2.543-13.988-8.054-21.194-12.717-6.782-4.662-15.684-9.749-19.075-11.445s-8.053-5.086-10.597-8.053c-2.12-2.967-9.749-6.359-16.955-7.63-10.173-2.12-18.227.848-42.388 16.531m57.224 2.544c0 2.119 4.239 5.934 9.75 8.053 5.086 2.544 15.26 8.054 22.041 12.717 7.206 4.663 15.684 9.75 19.075 11.445 3.391 1.271 13.14 7.63 21.194 13.988s17.803 12.716 21.194 13.988c8.478 3.815 20.347 11.445 38.15 24.585 8.054 5.935 18.227 12.293 22.042 13.565 9.75 3.39 5.934 14.412-11.021 30.095-29.672 27.129-27.129 27.129-73.332 0-22.89-13.564-46.203-27.128-52.138-30.095-38.15-21.195-36.03-17.38-37.302-58.496-.847-20.77-.423-39.845.848-42.813 2.12-5.934 19.499-2.967 19.499 2.968m-6.358 127.165c1.695 2.119 7.206 6.358 11.868 8.477 5.087 2.12 15.26 7.63 22.042 12.293 7.206 4.663 16.532 10.173 21.194 12.716 4.663 2.544 14.413 8.054 21.195 12.717 7.206 4.663 16.531 10.173 21.194 12.716 30.52 15.684 34.334 19.923 56.8 65.702 23.738 49.17 52.986 110.21 72.484 152.598 6.359 13.989 20.77 44.508 31.792 67.822 11.02 23.313 25.856 54.68 32.639 69.94 6.782 15.26 15.26 32.64 18.65 38.998 10.174 18.65 7.63 31.367-8.901 44.508-8.054 6.358-14.836 14.836-14.836 19.074 0 5.935 32.64 30.096 52.138 38.15 3.815 1.695 7.206 5.086 7.206 7.206 0 5.934-17.38 17.38-26.281 17.38-3.815 0-13.564 2.542-21.194 5.933s-29.248 12.293-47.899 19.5c-88.592 35.605-193.715 95.373-239.494 136.49-15.684 14.412-38.15 21.618-38.15 12.716 0-2.967-39.845-34.758-44.084-34.758-.847 0-11.868-6.782-24.161-14.836s-33.91-20.77-48.323-27.553c-13.988-7.206-28.4-14.836-31.791-16.955-3.391-2.12-9.325-4.663-12.717-5.934-3.39-1.272-9.325-4.24-12.716-6.359-8.054-5.086-73.756-35.182-110.21-50.442-8.054-3.39-19.922-8.901-26.28-12.292-5.935-2.968-13.989-5.51-17.38-5.51-7.206 0-19.922-11.022-19.922-17.38 0-2.12 3.39-5.51 7.63-7.206 15.26-6.782 34.758-20.347 36.877-25.857 1.272-3.391-4.662-11.445-13.564-19.499l-16.107-13.988 7.206-14.412c3.815-7.63 15.683-32.639 26.28-55.105 10.598-22.89 28.4-60.191 38.998-82.657 11.02-22.89 25.009-52.985 31.367-66.974 11.445-24.585 38.997-83.08 64.007-135.642 6.782-13.988 12.292-27.129 12.292-28.824s4.663-10.174 10.173-19.075c6.782-11.021 22.89-24.162 51.29-41.117 22.466-13.988 46.204-28.824 52.138-32.639 6.358-4.239 15.684-9.325 20.77-11.445 4.663-2.12 10.173-6.358 11.869-8.477 1.272-2.544 8.902-4.663 16.955-4.663 8.054 0 15.684 2.12 16.956 4.663m186.932 12.292c1.696 6.782 5.51 14.836 8.478 17.38 3.391 2.543 5.934 6.782 5.934 9.749 0 2.543 5.935 16.955 13.14 32.215 7.207 15.26 18.652 38.997 25.01 52.985 6.782 13.988 21.194 44.508 32.215 67.822 10.597 23.313 25.433 54.68 32.215 69.94 7.206 15.26 18.227 38.574 25.01 52.138 6.781 13.14 12.292 26.705 12.292 30.096 0 2.967 2.967 8.054 6.358 11.02 3.391 2.968 6.358 8.902 6.358 13.565s2.968 11.021 6.359 14.836c7.206 6.782 6.782 13.988 0 15.26-2.544.424-4.663-3.391-5.51-8.902-.849-5.086-3.392-9.325-5.511-9.325s-5.935-4.239-8.054-9.75c-2.543-5.086-8.054-15.26-12.293-22.041-11.868-18.651-49.594-91.56-114.024-218.724-49.17-97.917-55.953-114.025-52.138-122.079 7.63-13.564 21.194-11.445 24.161 3.815" style="stroke-width:.423884"/>
</svg>
