<svg xmlns="http://www.w3.org/2000/svg" width="1040" height="960">
    <path d="M519.186-150c-8.251 11.74-18.705 18.062-31.72 17.874v50.327l13.7.806c.378 1.705.663 3.392.805 5.274 0 30.418 1.283 60.9-3.443 91.13-1.2 7.69-.846 16.346-6.96 22.197h-49.374c-2.325-3.076-4.424-5.914-6.3-8.352h-30.84V86.47h30.767l8.864-11.135h28.204l10.548 7.399v102.338c12.217-2.235 24.778-3.443 37.654-3.443 12.752 0 25.202 1.089 36.042 3.077v-101.9L569 75.554h28.057l9.157 10.988h29.229c2.325-17.965 2.005-46.96-.733-57.725h-28.57l-7.179 8.498h-49.227c-9.152-22.392-9.178-59.564-8.278-115.525 0-.825.977-1.63 1.465-2.417l10.769-2.124v-49.228c-13.71-2.16-13.844-2.38-25.2-12.747a50 50 0 0 0-9.304-5.274m82.193 258.519c-1.275-.338-2.858.613-4.395 1.026v12.746c25.654 10.202 50.588 19.946 75.38 30.035 4.013 1.725 9.096 2.175 10.109 7.838-17.628 9.114-20.371 14.41-16.995 34.064-23.367-6.976-44.494-18.735-68.348-25.786v16.116c20.329 8.214 39.862 16.491 59.703 23.955 6.79 2.625 14.136 5.221 22.05 1.245 4.539-2.288 9.63-1.017 14.505 1.758 12.302 6.977 25.006 13.32 37.946 20.146v.146c.638 13.203 5.782 25.202 13.846 34.504 13.277 16.615 26.843 33.112 39.558 50.253l.146.146c6.526 9.527 16.64 16.393 28.643 18.68 8.364 20.517 16.73 40.96 24.907 60.876-7.839 12.527-10.758 24.283-6.52 38.386 5.851 19.241 10.013 39.022 14.139 58.75 2.85 13.803 7.087 26.478 18.826 34.504-5.288 22.917-10.39 45.006-15.603 67.322-14.028 4.276-21.43 14.956-27.544 26.958-7.911 15.188-15.45 30.784-24.76 45.126l-.147.22c-6.96 10.049-10.988 22.236-10.988 35.382 0 3.788.278 7.579.879 10.842 0 1.012-.14 1.994-.44 2.857l-37.727 55.454c-12.264-2.063-21.23 2.644-29.595 10.183-9.79 8.814-20.65 16.568-30.4 25.42-14.479 13.127-32.64 22.763-38.753 42.341l-53.403 11.501c-.001 7.429-.111 13.598-.074 20.512.038 6.939.293 13.9.293 22.49l70.326-14.652c17.215 9.114 33.265 4.976 48.568-8.864 16.166-14.702 33.23-28.353 50.034-42.268 9.057-7.523 15-16.455 14.578-28.643v-.073c-.033-.46 0-.929 0-1.392 0-5.889 1.866-11.364 5.054-15.677 13.015-18.79 25.775-37.72 38.752-56.773 15.303-1.238 24.563-10.506 31.427-23.295 10.092-19.137 20.59-38.264 31.427-57.066a47.6 47.6 0 0 0 7.032-24.98c0-5.134-.85-10.09-2.27-14.432a28 28 0 0 1-1.32-8.57c0-1.239.07-2.467.22-3.517.938-6.489 3.083-12.78 4.396-19.193 3.938-19.091 11.03-37.726 10.768-58.092 14.501-11.571 17.787-26.115 12.747-43.953-5.891-19.243-10.79-39.074-15.018-62.34l-.073-.22c-2.063-14.89-11.127-27.596-23.954-34.797l-29.376-73.402c6.376-15.078 2.585-28.131-7.692-40.584a1287 1287 0 0 1-43-55.234l-.074-.147c-6.676-9.79-17.76-16.256-30.474-16.556h-.147c-5.138-.412-10.048-1.82-14.211-3.882-6.864-3.188-13.285-7.425-20-10.988-9.788-5.214-19.676-10.256-28.715-14.945-4.989-19.053-9.823-24.56-26.739-31.5-18.716-7.8-37.322-15.574-56.113-23.075-6.864-2.776-14.19-4.786-21.391-6.886m316.977 374.556c.33 1.076.617 2.224.952 3.296l-1.025-3.882c.059.203.016.384.073.586M443.733 111.889c-21.417 6.751-41.666 14.231-62.707 19.632-18.603 4.689-32.724 13.165-36.774 32.819l-68.421 32.159c-12.865-5.101-24.307-1.469-34.284 8.058v.073c-3.263 3.076-6.269 6.432-9.157 10.183-14.252 19.128-28.383 38.34-42.561 57.506h.073c-3.863 4.725-6.226 10.76-6.226 17.361v.952c.45 6.977 1.267 13.974 1.904 21.025-9.189 23.78-18.355 47.784-27.544 71.864-14.778 9.564-19.114 15.318-22.49 30.62-5.046 23.105-10.156 46.16-14.944 69.3-.787 3.113-1.172 6.368-1.172 9.743 0 9.49 3.244 18.227 8.645 25.054 2.137 2.813 4.598 5.322 6.886 7.985l-1.905.586c4.688 26.292 9.371 52.684 14.285 80.214-10.615 14.44-6.703 29.53 1.099 44.833 9.939 19.39 19.966 38.765 29.155 58.531l.074.293c4.95 11.665 15.554 20.382 28.57 22.783 13.314 18.866 26.296 37.186 38.898 55.527 2.85 4.051 6.08 8.979 6.08 13.48-.075 15.865 7.898 26.775 19.413 36.114a12148 12148 0 0 1 50.84 41.243c13.764 11.215 28.404 15.314 44.832 5.788.637-.488 1.972-.372.66-.147l76.771 13.992v-43.44l-60.143-11.21c-3.413-12.752-13.038-20.477-22.49-28.203-13.727-11.29-28.183-21.703-41.535-33.405-10.877-9.377-22.036-16.376-36.701-14.651-13.24-18.79-26.005-36.944-38.533-54.722 6.451-13.727 4.502-25.801-1.611-37.653-9.152-18.079-18.478-36.088-27.105-54.43-6.151-13.164-13.136-25.237-27.764-29.887-4.238-22.242-8.285-43.493-12.673-66.297l.073-.073c8.927-7.426 15.662-15.878 17.875-27.617 3.788-20.854 7.64-41.789 12.966-62.268 4.088-15.678 4.316-29.927-6.373-42.341 8.364-21.492 16.235-42.108 23.661-61.462 18.491-7.164 18.558-6.894 30.035-22.196 11.027-14.59 21.306-29.776 32.745-43.954 8.14-10.09 14.695-20.59 15.97-34.43l57.652-27.031c11.927.712 21.414 3.231 29.815 1.318 18.341-4.425 36.412-10.853 55.015-16.629-.3-5.888-.543-10.756-.806-15.97l-61.754 18.534c3.863-17.628.042-30.02-18.973-35.309 26.93-14.102 54.887-17.771 80.654-28.423zm-175.594 98.455 16.849 25.786.146-.073v.073a15.9 15.9 0 0 1-1.83 6.74c-16.504 22.429-33.305 44.64-50.108 66.882-.225.45-.977.44-1.465.44-13.052-17.704-13.033-17.713-33.624-19.926 4.013-6.489 7.23-12.543 11.281-18.094 12.227-16.953 24.764-33.641 37.14-50.107 6.302-8.401 7.471-8.983 21.611-11.72m251.633 8.058c-23.404 0-46.019 3.378-65.71 9.304l-1.538.366c-50.41 14.703-93.312 46.997-122.118 90.617-6.863 10.39-12.72 20.35-24.76 25.713h-.073c-6.301 3.188-10.757 9.567-11.282 17.069-1.275 11.064-2.224 22.156-2.637 33.258-.45 12.264.198 24.547-.44 36.774v.22c-.337 9.489-1.676 18.787-3.589 26.738-2.663 10.727-6.916 21.07-10.329 31.646-4.426 13.69-6.931 27.838-3.443 41.903 5.476 21.941 21.63 34.837 41.096 44.026 2.25 1.088 5.66-.293 7.985-.293 3.526-6.751-.976-10.706-3.076-14.944-3.113-6.301-7.175-12.42-10.476-18.534-6.001-11.327-3.674-21.578 4.615-30.767a113 113 0 0 1 11.355-9.523c6.601 1.2 14.031 1.216 20.145 4.029l.806.293a134 134 0 0 1 26.445 16.116c15.115 11.89 23.426 27.59 22.563 47.543-.488 9.677-.525 19.406 0 29.083.45 7.276 1.989 14.723 3.077 22.562h17.215c5.513-6.076 9.07-13.93 9.67-22.782 3.346-28 20.49-43.956 45.271-52.89 15.656-5.696 32.497-8.865 50.107-8.865 16.353 0 32.095 2.675 45.785 7.326 27.08 8.551 45.88 24.929 49.594 55.235.9 7.688 2.66 16.168 9.523 21.756h17.289c.975-8.289 2.37-15.758 2.783-23.222.413-9.189.375-18.281 0-27.47-.862-23.067 9.716-39.885 28.057-52.525 12.94-8.964 25.991-18.255 43.807-14.504l.22.146a71 71 0 0 1 6.666 5.055c11.44 10.727 13.462 21.5 6.373 35.602-2.813 5.439-6.154 10.497-9.23 15.823-2.427 4.294-6.029 8.252-4.322 14.578v.073c1.59.803 3.247 1.353 5.128 1.685h.366c1.988 0 3.919-.529 5.494-1.391 26.593-14.178 44.093-32.79 39.705-65.271l-.147-1.246c-2.335-12.807-5.91-25.136-10.036-35.675-.052-.144-.094-.296-.146-.44-.062-.156-.085-.356-.147-.512-5.115-14.404-7.984-29.887-8.131-46.078.075-22.354-1.013-44.615-1.538-64.831l.073-.074c-6.189-10.502-10.465-17.246-18.754-20.584-6.376-2.588-10.139-7.512-13.552-13.626l-.513-.952c-12.002-20.817-27.724-39.271-46.59-54.649-33.978-27.474-72.19-45.226-116.257-50.693a242 242 0 0 0-32.379-2.197m257.42.074c5.476.787 8.642 5.724 11.868 9.962 16.315 21.53 34.657 41.685 49.96 66.59h-.073c-17.516-1.5-29.593 2.36-31.28 20.438-11.44-8.214-53.19-61.403-57.653-73.255 5.889-2.213 12.75-3.132 17.289-7.033 4.538-3.9 6.514-10.589 9.89-16.702M581.38 319.349c3.23-.652 6.38-.03 9.23.44 25.805 4.125 51.537 8.736 76.48 17.287 14.59 4.989 25.173 14.441 35.675 24.98 11.327 11.215 8.388 42.75 2.124 51.939v.073c-3.563 5.401-9.726 9.01-16.702 9.01-1.088 0-2.14-.07-3.077-.22-28.018-3.187-55.981-6.236-83.511-13.625-14.103-3.75-24.836-14.099-26.3-32.965-1.35-17.14-2.608-34.286-3.808-49.814 3.381-4.54 6.67-6.456 9.89-7.105m-124.461.293h.146c3.901.375 7.58 1.287 10.769 2.637l.073.073c.549 6.284.88 12.702.88 19.12 0 14.628-1.517 28.864-4.03 41.316-2.438 12.415-9.496 22.49-23.149 25.566-12.264 2.813-24.323 6.322-36.7 8.498-14.928 2.588-29.94 4.433-44.98 5.934-16.765 1.687-25.713-3.715-28.789-23.369-4.163-27.755 9.983-51.084 38.825-60.949 20.404-6.976 41.848-11.02 62.927-15.896 7.724-1.651 15.671-2.677 24.028-2.93m63.586 36.481c6.03-.07 12.016 3.376 17.361 10.476l.074.073c12.52 16.516 21.142 36.017 24.833 58.091 1.8 10.877 2.159 22.422-2.417 33.112-1.988 4.538-4.168 8.989-6.08 13.04-13.765 4.5-22.064-1.063-30.841-8.865-3.376 1.238-7.059 2.492-10.622 4.03-2.326.975-4.378 2.575-6.666 3.662-11.968 5.535-20.76 2.032-25.347-10.109-2.525-6.97-3.882-14.478-3.882-22.343 0-4.838.491-9.573 1.392-13.699l.146-.806c3.563-19.766 11.605-38.029 22.783-53.256.637-.788.938-1.85 1.538-2.638 5.55-7.107 11.67-10.698 17.728-10.768m-357.488 42.049.074.073c4.2 4.876 10.35 7.912 17.288 7.912 2.625 0 5.15-.422 7.326-1.173 6.826 6.414 6.336 14.256 4.761 21.757-4.688 22.692-9.882 45.18-14.87 67.835v.147c-1.051 6.976-4.997 12.985-10.623 16.848-6.564-.975-13.766-5.597-21.83.367l-10.256-11.428v-.293c.263-5.251.826-10.485 1.539-14.798a4697 4697 0 0 1 14.211-66.516v-.22c1.275-8.289 5.818-15.487 12.307-20.438zm712.558 4.248c10.764 4.501 11.888 14.882 14.138 23.809 5.176 20.478 8.214 41.5 14.065 61.754 3.413 11.852.127 19.46-8.424 26.812h-21.171c-7.014-4.426-9.592-11.136-11.355-18.9-5.476-24.53-11.571-48.933-17.947-75.6l4.322-10.11c5.213 0 10.371-.564 14.797-1.465l.367-.146c4.05-1.688 7.87-3.753 11.208-6.154M675.733 560.653c-4.263.235-6.79 3.117-8.717 7.325a67.7 67.7 0 0 0-6.007 27.984v.22c.05 19.83-.046 39.678-.22 59.483v.147c.032.776.074 1.567.074 2.344 0 10.577-3.067 20.395-8.205 28.496l-16.043-.732c-5.214-12.565-9.793-23.337-18.607-32.526-12.227-12.715-27.198-20.392-43.514-27.031-44.033-17.703-86.58-12.167-127.538 8.424-20.366 10.24-36.326 26.052-41.39 49.081-8.663 4.089-8.636 4.082-18.313 1.832-4.452-9.01-7.14-19.065-7.399-29.815-.187-20.441.427-40.84-.586-61.169v-.366c-.9-9.827-3.148-19.258-6.373-27.397-2.026-5.927-7.259-8.145-14.798-4.469-1.326 7.026-2.24 14.249-2.564 21.903.3 15.716 1.739 31.426 2.564 47.104 1.125 21.829 1.191 43.702 3.516 65.344l.147 1.172c1.988 14.89 5.431 29.309 9.67 41.536 4.538 14.552 24.16 30.085 43.513 26.372l.587-.073a75 75 0 0 0 20.145-8.718c15.927-8.484 31.294-18.018 47.47-25.932 10.689-5.664 22.917-8.864 35.895-8.864 5.85 0 11.531.633 16.482 1.758l1.319.293c13.69 3.75 26.84 9.016 38.093 15.017 11.777 5.776 22.48 13.578 33.844 20.292 23.442 13.953 52.063 4.234 60.802-21.684 4.599-13.385 7.814-27.478 9.377-42.854 2.325-25.28 2.571-50.72 3.809-76.113.225-4.5 1.276-8.94 1.538-13.479.75-15.002 3.5-30.22-3.59-44.173-1.884-.581-3.528-.813-4.98-.732m-484.439 50.839c2.85 4.576 5.16 7.757 6.886 11.208 10.262 20.3 20.323 40.686 30.548 60.949l.073.073c2.444 3.958 3.81 8.634 3.81 13.626 0 2.55-.315 4.967-.953 7.105h-.073c-10.727-.225-18.465 5.026-24.541 12.527h-.073c-5.851-.788-10.713-4.528-13.113-9.816-12.118-24.386-24.219-48.796-36.188-73.183v-.073l-.074-.146c-.712-2.488-1.172-5.105-1.245-7.839 16.203 6.001 27.554 1.734 34.943-14.431m653.587 1.245c7.087 17.172 17.52 22.74 33.99 17.875v.146a37.4 37.4 0 0 1-1.831 9.743c-11.927 22.392-24.186 44.566-36.189 66.883l-.073.146c-2.85 6.226-8.516 10.88-15.53 12.38-6.226-6.038-11.718-14.84-22.782-13.04-1.35-7.2-1.611-13.012 1.465-18.826 13.165-23.93 26.097-48.002 40.95-75.307M520.724 762.398c-12.245.132-24.59 3.727-37.287 10.403h.147c0 40.732.155 80.494-.22 120.139-.3 32.03.364 63.946 6.74 95.452 4.2 20.891 9.762 41.421 23.002 58.824.938 1.05 1.95 1.921 3.15 2.784h9.743c2.223-2.776 4.355-5.679 6.446-9.01 3.35-5.934 6.392-12.136 9.377-19.486 9.468-25.622 14.832-53.224 15.09-82.193 1.051-51.047.66-101.986.66-152.958v-13.772c-12.396-7.014-24.602-10.314-36.848-10.183m21.098 259.106c-.13.352-.161.747-.293 1.098l.586-1.685c-.09.225-.202.364-.293.587M296.49 785.4c23.892 18.528 48.27 37.966 70.399 57.432a47239 47239 0 0 1-11.575 30.328h-.073c-7.126 5.326-14.17 1.48-20.658-3.81-15.078-12.002-30.164-24.034-44.979-36.26-6.901-5.777-15.385-9.913-19.999-18.315 6.376-3.45 13.34-5.233 17.728-10.109s6.082-12.215 9.157-19.266m442.903 1.904c2.36 21.016 3.908 22.841 26.519 28.936-23.817 23.18-48.263 42.766-72.23 62.194a60 60 0 0 1-6.74.367h-1.538l-.366-.073c-2.7-.488-5.261-1.12-7.399-1.832-.563-4.726-1.12-9.187-1.758-14.138l-9.523-12.234.146-.22c1.988-3.338 4.332-6.418 7.033-9.156 21.979-17.516 41.927-37.603 65.856-53.843z" style="stroke-width:37.5069"/>
</svg>
