<svg xmlns="http://www.w3.org/2000/svg" width="1023" height="960">
    <path d="M467.992 798.362c-15.651 15.65 5.217 31.301 44.344 31.301 24.78 0 37.822-6.52 37.822-19.563 0-19.564-65.211-28.693-82.166-11.738m-24.78-436.917c-43.04 35.214-49.561 46.952-49.561 96.513 0 49.56 6.52 61.299 48.256 96.513 56.082 46.952 76.95 49.56 133.032 16.955 46.952-24.78 58.69-58.69 54.777-148.682-1.304-27.389-14.346-44.344-53.473-69.124-65.212-41.735-74.341-40.431-133.032 7.825m-138.249-1.304c-23.476 31.301-28.693 54.778-28.693 133.031 1.304 82.167 5.217 101.73 36.519 146.074 48.256 69.124 131.727 112.164 219.11 112.164 79.558 0 161.724-40.431 161.724-79.558 0-20.868-3.912-22.172-35.214-9.13-20.868 9.13-41.735 19.563-48.256 26.085-19.564 15.65-122.598 11.738-155.204-6.522-59.994-32.605-91.296-62.602-114.772-106.946-29.997-56.082-33.91-165.637-5.217-189.113 20.868-16.955 27.39-65.212 9.13-65.212-6.521 0-23.476 16.955-39.127 39.127m422.57-149.986c22.172 35.214 57.386 44.343 57.386 15.65 0-10.433-14.346-24.78-32.605-32.605-46.953-22.172-49.561-19.564-24.78 16.955m-273.888-49.561c-20.867 3.913-45.648 14.347-56.082 24.78s-26.084 18.26-35.214 18.26c-10.434 0-24.78 9.13-33.91 19.563-24.78 29.997-43.04 23.476-36.518-11.738 5.217-28.693 3.913-29.997-24.78-16.955-36.519 15.65-39.127 43.04-5.217 52.17 18.259 3.912 23.476 14.346 18.259 33.91-9.13 35.213 1.304 35.213 53.473-5.218 23.476-18.259 52.17-32.606 63.907-32.606s24.78-6.52 28.693-13.042c13.043-20.868 78.254-15.65 142.161 11.738 86.08 37.823 138.249 114.772 138.249 203.46 0 45.648-6.522 74.34-19.564 84.775-22.172 18.259-26.084 46.952-6.521 58.69 7.825 3.913 16.955-2.608 22.172-15.65 3.913-13.043 16.955-33.91 26.084-45.649 11.739-13.042 19.564-53.473 20.868-99.121 2.609-100.426-28.693-160.42-114.772-216.502-69.124-45.648-118.685-59.995-181.288-50.865m13.043-172.158C452.34-1.13 428.865 7.999 413.214 7.999s-32.606 5.217-39.127 11.738c-7.825 6.521-33.91 18.26-58.69 24.78-58.69 16.956-129.119 41.736-165.637 58.691-26.085 11.738-29.997 23.476-29.997 82.166 0 37.823 6.52 97.818 14.346 133.032 6.521 35.214 18.26 116.076 24.78 179.983 22.172 226.936 49.561 275.192 250.412 431.7 87.384 69.124 113.468 74.341 147.378 36.518 7.826-9.13 50.865-44.343 97.817-79.558C816.221 765.756 843.61 716.195 864.477 498.39c5.217-63.907 16.955-144.77 23.476-179.983 32.606-151.29 13.043-230.849-58.69-232.153-14.346 0-37.823-9.13-52.17-19.563-13.041-10.434-36.517-19.564-50.864-19.564s-41.735-7.825-61.299-18.259c-19.563-10.434-52.169-22.172-74.34-27.389-22.173-5.217-43.04-14.346-46.953-20.868-11.738-16.954-48.256-13.042-76.95 7.826m101.73 78.254c14.346 10.433 37.822 19.563 53.473 19.563s39.127 9.13 53.473 19.563c13.042 10.434 39.127 19.564 57.386 19.564s46.952 9.13 62.603 20.868c23.476 16.954 28.693 31.301 28.693 93.904-1.304 40.431-6.521 114.772-14.346 165.637-6.521 49.56-16.955 126.51-23.476 169.55-14.347 103.034-49.561 159.116-148.683 236.065-44.343 33.91-86.079 70.428-91.296 79.558-16.954 27.389-46.952 19.563-105.642-24.78-148.682-113.468-195.634-185.2-208.677-310.407-3.912-39.127-13.042-113.468-20.867-163.028-20.868-157.812-16.955-224.328 15.65-246.5 15.651-11.738 41.736-20.867 57.387-20.867 15.65 0 45.648-9.13 65.211-19.564 20.868-10.433 49.56-19.563 63.907-19.563s37.823-9.13 50.865-19.563c32.606-24.78 71.733-24.78 104.338 0" style="stroke-width:1.30423"/>
</svg>
