<svg xmlns="http://www.w3.org/2000/svg" width="1358" height="960">
    <path d="M676.903 595.324c-12.865 12.865-13.784 14.703-7.81 23.433 3.675 5.054 10.567 11.946 15.621 15.621 8.73 5.973 10.568 5.054 23.432-7.81 12.865-12.865 13.784-14.703 7.811-23.433-3.675-5.054-10.567-11.946-15.621-15.621-8.73-5.973-10.568-5.054-23.433 7.81M572.606 338.027c-4.595 5.054-18.378 16.54-29.865 25.27-11.946 8.73-23.432 21.595-26.19 28.487-2.296 6.892-17.918 23.892-34.459 37.675-35.837 29.865-36.756 33.541-33.54 105.676 3.216 68 3.216 85.46 0 135.081-4.135 65.703-5.514 62.487 77.649 155.297l28.027 31.244h272.919l22.972-26.649c12.865-14.243 36.757-42.27 53.298-61.567l30.324-34.92v-48.243c0-33.54-1.838-51.918-6.892-61.108-8.73-17-8.73-26.648 0-34 5.514-4.594 6.892-18.378 6.892-68v-62.486l-14.703-13.324c-8.27-6.892-23.892-19.298-34.46-27.109-13.323-9.648-19.756-17.919-19.756-24.81 0-6.433-6.892-15.622-19.297-25.27-11.027-8.73-20.676-16.541-22.054-17.92-1.379-1.378-8.27-7.351-15.622-12.864-12.865-9.65-17-10.109-119.919-10.109-102 0-107.054.46-115.324 9.649m5.973 137.838c11.946 12.865 33.081 34.919 45.946 49.162 14.703 15.622 25.73 23.892 28.027 21.595 2.297-2.757 7.81-17 12.405-32.163 11.946-39.513 21.595-57.432 30.784-57.432 6.892 0 8.27 4.135 8.27 27.568 0 35.837-2.756 35.837 66.162-1.838 30.784-17 76.27-27.568 76.27-17.92 0 2.758-20.675 23.893-45.945 47.325-25.27 23.892-45.946 46.865-45.946 51.46 0 5.054 4.594 9.189 12.865 10.567 22.513 5.054 62.486 21.135 70.756 28.487 12.406 11.027 5.973 15.162-23.891 15.162-14.703 0-28.027 1.838-29.865 4.135-1.838 3.676 11.946 31.703 29.865 60.19 12.864 20.215 22.973 49.161 22.973 64.783 0 21.594-4.595 22.513-20.676 2.757-27.568-33.081-80.865-85.92-84.54-83.622-2.298.919-5.055 7.81-6.433 14.703-2.757 15.621-11.027 39.973-20.676 60.189-10.567 22.054-21.594 17.919-22.513-8.27-.46-11.487-.92-23.433-.92-26.649-.459-6.432-17-7.81-20.675-1.378-1.378 2.297-12.865 9.189-24.81 15.621-11.947 6.433-29.866 16.081-39.514 21.135-19.757 11.487-55.135 17.46-59.73 10.568-1.378-2.297 20.216-25.73 47.784-51.46s49.162-48.702 47.784-51c-3.217-5.972-33.081-17.918-43.649-17.918-12.865 0-39.973-15.163-42.27-23.892-3.216-11.027 0-12.865 27.108-12.865 16.54 0 24.81-1.838 26.19-6.892 1.837-3.676.918-7.81-.92-9.19-3.676-1.837-14.243-20.675-40.432-71.215-10.568-20.676-14.244-55.136-5.973-55.136 2.297 0 14.243 10.568 26.189 23.433m35.838-279.81c-1.379 5.972-2.298 28.026-1.379 49.62l1.379 39.055h170l1.378-39.054c2.297-64.784 9.649-59.73-86.378-59.73-81.784 0-82.703 0-85 10.108m-132.325 5.972c-11.486 8.73-21.594 17.919-22.513 20.676-.46 2.297-.46 25.73.919 51.46l2.297 47.324 27.568 1.378c28.027 1.378 28.027 1.378 35.838-15.162 5.972-12.865 10.108-16.081 21.135-16.081 17 0 18.837-5.514 18.837-52.838 0-52.838 0-52.838-34.459-52.838-25.73 0-30.784 1.838-49.622 16.081M823.471-25.405c0 2.756 3.216 5.973 6.892 7.351 3.675 1.838 6.892 5.513 6.892 9.19 0 3.675 2.297 6.432 5.054 6.432 7.81 0 56.513 52.378 75.81 81.783 9.65 14.244 18.379 27.109 19.757 28.487 8.27 7.351 24.352 34.919 42.73 73.513 24.81 52.379 31.243 69.379 35.838 95.568 4.135 23.892 7.351 27.568 17 17.919 5.513-5.054 8.27-19.298 10.108-50.081 1.378-23.433 4.595-42.73 6.432-42.73 11.027 0 33.54 99.243 39.514 172.297 4.135 51.46-2.297 170-10.108 182.406-1.838 2.756-5.514 15.162-7.811 27.567-2.297 11.946-5.973 27.108-7.351 33.54l-3.217 11.487 11.027-11.486c11.946-11.946 34.46-41.352 44.108-57.433 17.92-28.946 49.163-101.08 54.217-123.135 5.054-25.27 11.486-6.432 11.486 34.46 0 55.135-13.324 132.783-33.08 189.756-2.298 7.352-5.974 20.217-7.812 27.568-1.838 7.81-5.513 17.919-8.27 22.973s-12.405 24.81-21.595 43.649c-20.216 41.81-22.513 45.027-48.243 80.405-42.27 57.432-113.486 121.757-155.297 140.135C894.687 981.73 893.768 990 905.255 990c14.702 0 86.378-39.514 123.594-68 19.757-15.162 50.081-42.27 67.54-60.19 32.622-34 42.73-39.972 37.676-22.513-1.378 5.973-4.135 22.514-5.973 36.757-3.216 29.405 2.757 35.378 13.784 13.784 19.757-36.298 39.973-79.946 39.973-85 0-3.216 2.757-9.649 6.433-14.703 3.216-5.054 7.351-14.243 8.73-20.676 1.378-6.432 4.594-17.919 6.891-25.27 6.892-19.297 17.46-62.486 26.649-107.513 10.568-54.676 10.568-223.298-.46-282.108-8.27-46.406-18.837-90.055-25.73-111.19-2.756-7.81-6.891-20.216-8.729-27.567-6.892-24.811-17.919-51.92-26.649-66.162l-8.73-14.244-2.756 88.217c-3.216 87.756-5.054 102.918-15.622 120.837-7.351 12.865-10.108 7.811-13.324-25.73-1.378-16.08-5.514-39.972-9.19-52.378-25.729-89.594-27.107-93.73-57.891-156.216-26.19-53.757-27.108-55.135-55.595-93.73-22.973-31.243-44.567-51-38.594-35.378 1.837 4.595 4.594 13.784 5.973 20.216 1.378 6.892 5.513 20.676 8.73 30.784 15.161 45.027 10.107 71.676-8.73 45.486-18.838-26.648-65.244-72.135-90.973-89.135-22.054-14.702-27.109-16.54-31.703-11.027-6.892 8.27-13.324 8.27-13.324-.46 0-3.675-3.217-6.891-6.892-6.891s-6.892 2.297-6.892 4.595m-303.243 2.297c0 8.27-2.298 8.73-12.865 1.838-6.892-4.595-12.865-2.757-33.54 10.567-24.352 15.622-70.758 61.108-89.595 88.217-12.406 17-20.217 12.405-17.46-10.109 2.297-15.621 5.054-25.27 19.757-71.216 11.027-33.08-1.379-25.73-36.757 22.054-24.351 33.54-28.027 39.514-43.19 68.92-6.432 12.405-13.323 26.188-15.62 29.864-25.73 47.324-56.514 149.784-62.487 207.676-1.838 14.702-4.595 26.648-5.973 26.648-14.243 0-23.433-62.946-23.892-163.108v-55.135l-9.19 15.162c-9.648 15.622-20.215 42.27-27.567 67.54-1.838 7.352-5.973 19.758-8.73 27.568-23.432 68.92-33.54 146.568-33.54 256.838 0 96.487 3.676 132.784 20.216 193.433 2.757 10.108 6.433 25.73 8.73 34.46 6.892 34 37.216 106.134 67.54 163.567 10.568 19.756 16.081 13.324 13.325-15.622-1.838-14.243-4.595-30.784-5.973-36.297-5.054-18.379 5.973-11.946 38.135 22.054 17.46 17.919 47.324 45.027 67.081 60.189 37.216 28.487 108.892 68 123.595 68 10.567 0 11.027-8.27.459-12.405-37.216-14.244-111.649-79.946-152.54-134.622-31.244-42.27-32.622-44.568-53.757-87.297-9.19-18.838-18.838-38.595-21.595-43.649s-6.432-15.162-8.27-22.973c-1.838-7.351-5.514-20.216-7.81-27.567-19.758-56.973-33.082-134.622-33.082-189.757 0-40.892 6.432-59.73 11.486-34.46 5.055 22.054 35.379 91.433 54.217 123.135 9.189 15.622 32.162 45.487 44.108 57.433l11.027 11.486-3.216-11.486c-1.379-6.433-5.054-21.595-7.352-33.54-2.297-12.406-5.973-24.811-7.81-27.568-1.379-2.757-5.514-34-8.73-69.379-7.811-94.189.919-182.405 25.27-257.756 11.486-36.298 16.081-32.163 19.297 15.162 1.838 30.784 4.595 45.027 10.108 50.08 9.649 9.65 12.865 5.974 17.46-17.918 7.351-43.19 57.432-150.703 78.108-169.081 1.378-1.378 10.108-13.784 19.297-28.027 18.838-28.487 68.92-82.243 76.27-82.243 2.757 0 5.055-2.757 5.055-6.433s3.216-7.351 6.891-9.189c3.676-1.378 6.892-4.595 6.892-7.351 0-2.298-3.216-4.595-6.892-4.595-3.675 0-6.891 3.216-6.891 6.892" style="stroke-width:.459459"/>
</svg>
