<svg xmlns="http://www.w3.org/2000/svg" width="2060" height="960">
    <path d="M950.038-24.4c-54.084 9.886-89.848 21.517-135.209 44.197-32.275 15.992-35.183 17.737-53.793 29.95-31.112 20.644-61.643 45.65-90.139 74.146-32.857 32.566-38.09 38.382-57.863 64.551-13.957 18.61-10.759 17.447-65.715 22.68-56.99 4.944-111.656 13.376-155.562 23.844-7.27 1.744-17.737 4.07-23.262 5.234-42.162 9.304-102.06 32.275-136.081 52.048-22.39 13.084-52.63 39.254-49.431 42.452 1.163 1.163 10.758-3.198 21.226-9.886 21.808-13.666 50.304-28.786 61.934-32.276 4.362-1.453 15.12-5.233 23.844-8.432 48.559-18.61 180.86-41.871 251.517-44.488 32.857-1.163 35.765.582 27.333 14.539-14.83 25.006-28.787 53.21-38.964 77.636-5.815 14.247-12.794 31.112-15.41 37.218-5.525 13.667-7.27 14.539-39.836 22.099-30.822 7.27-50.595 13.085-78.509 22.68-11.05 4.07-22.97 7.85-26.17 8.723-34.02 9.305-115.726 47.978-150.328 71.24-49.722 33.729-75.891 63.097-92.465 103.805-8.433 20.354-8.723 23.261-8.723 64.55 0 36.347.872 46.524 6.106 61.644 17.155 52.049 52.339 104.969 104.096 156.145 30.822 30.53 92.756 81.997 100.607 83.742 7.27 1.745 4.943-5.234-6.688-20.936-20.936-27.914-47.396-71.53-66.005-108.167-24.425-47.686-24.425-52.92-.582-36.346 79.963 54.956 204.994 109.04 353.87 153.236 8.722 2.617 18.9 5.816 22.098 6.979 11.63 4.362 138.989 35.183 185.221 44.779 95.373 19.481 104.969 21.226 204.122 33.439 90.139 11.34 136.372 13.375 308.218 13.375 197.724 0 202.086-.29 334.387-24.716 53.792-9.886 136.662-40.998 172.427-65.132 20.645-13.667 43.616-35.474 40.708-38.382-1.163-.873-9.595 3.489-18.9 9.886-22.68 15.41-66.877 36.056-95.373 45.07-34.892 10.758-125.613 31.112-138.116 31.112-4.071 0-19.773 1.745-34.893 4.362-50.303 7.85-122.415 11.63-218.079 11.63-116.017 0-204.412-5.815-312.579-20.644-84.324-11.34-194.235-31.113-244.248-43.616-9.595-2.326-25.297-6.397-34.892-8.723-19.482-4.943-43.035-11.34-62.516-17.156-7.27-2.035-20.936-6.106-30.531-8.723-9.596-2.617-22.68-6.687-29.077-8.723-6.397-2.326-15.12-4.652-19.482-5.525-4.653-1.163-8.142-3.198-8.142-4.943 0-3.78 17.156-2.617 98.863 6.979 114.854 13.666 189.292 17.155 327.408 15.702 68.622-.582 143.06-2.908 165.45-4.653 77.344-6.106 182.894-18.61 225.347-26.75 65.133-12.213 82.87-15.993 117.762-25.007 17.447-4.362 22.39-5.525 72.693-19.482 14.539-4.07 37.22-11.34 50.885-16.283 13.667-4.943 27.914-10.177 31.985-11.63 21.226-6.98 71.24-31.113 101.77-49.141 57.573-34.311 91.884-70.658 111.075-117.472 7.56-18.9 8.142-22.68 8.142-61.934 0-30.822-1.164-44.78-4.362-52.63-2.326-5.525-4.362-12.212-4.362-14.538 0-4.653-18.61-43.616-29.077-60.772-15.702-25.588-43.325-59.608-72.402-88.685-31.113-30.822-98.571-86.94-104.678-86.94-5.524 0-3.78 5.815 5.234 17.155 31.113 39.545 88.685 140.733 86.94 153.236-.871 6.107-3.198 4.944-32.856-13.666-59.608-37.219-137.535-73.856-236.688-110.493l-18.319-6.978-20.935-40.708c-11.34-22.39-29.659-54.375-41-70.949-25.006-36.928-67.749-87.522-93.628-109.911a13759 13759 0 0 0-28.204-25.007c-11.631-10.758-67.46-47.686-91.884-60.77-41.29-22.39-91.884-38.964-148.294-49.141-40.417-7.27-117.18-6.979-157.016.29m165.449 36.346c51.176 11.05 63.97 15.702 112.238 38.963 19.19 9.596 46.523 25.297 61.062 35.474 26.169 18.9 75.89 65.715 94.791 89.849 11.922 14.83 43.325 60.48 43.325 62.225 0 .872 3.78 7.85 8.142 15.41 13.957 23.553 37.51 81.708 44.197 108.459 1.454 5.524 3.78 15.41 5.525 21.807 11.63 46.524 12.793 58.736 12.793 121.543 0 67.75-2.326 79.38-11.049 58.445-2.617-6.397-5.815-16.574-7.27-22.971-7.85-35.183-25.296-82.288-45.36-122.706-56.7-113.982-146.839-202.667-248.318-244.538-35.184-14.539-44.197-17.447-76.764-24.425-35.183-7.56-118.053-8.142-148.584-.872-36.056 8.432-54.956 13.375-63.97 17.446-4.652 2.035-20.354 8.723-34.602 14.538-81.125 34.893-157.307 102.933-209.064 186.676-18.028 29.658-36.637 65.132-45.942 88.103-7.851 19.773-25.879 74.729-25.879 78.8 0 1.744-2.908 12.503-6.106 23.552-4.652 14.83-6.979 19.19-8.723 16.283-4.071-7.27-6.106-91.884-3.199-122.996 4.071-40.127 7.851-57.573 22.971-104.678 11.05-34.311 31.694-81.707 45.36-104.678 25.007-40.998 49.723-72.983 81.707-104.677 44.488-44.488 69.786-62.807 121.543-88.104C874.147 29.392 886.65 24.74 932.59 13.4 984.35.606 1059.369.024 1115.488 11.946m-626.031 433.25c2.035 4.943-5.815 18.609-11.34 20.063-52.34 12.503-134.337 50.885-175.917 82.288-11.63 8.723-22.68 15.12-24.715 14.539-4.653-1.454 30.53-36.056 50.303-48.85 36.637-24.134 60.771-36.056 113.4-56.7 43.907-16.865 45.943-17.447 48.269-11.34m677.207 26.169c136.08 18.318 233.78 58.736 254.425 105.259 6.978 15.993 7.269 22.39.581 36.056-9.305 19.19-30.53 39.254-54.374 50.594-6.397 3.198-13.666 7.27-15.993 9.305-2.326 1.744-7.56 3.78-11.34 4.361-9.595 1.163-11.63 8.142-2.617 8.142 9.887 0 51.176-12.794 89.849-27.914 32.275-12.503 50.303-22.39 73.856-41.29 10.468-8.141 19.481-15.12 20.063-15.12s3.198 4.362 5.815 9.886c18.61 39.255-22.97 86.941-105.84 121.834-25.297 10.467-51.467 19.481-64.26 22.098-5.526 1.163-11.922 3.199-13.667 4.362-1.745.872-8.723 2.908-15.702 4.361-6.978 1.454-25.588 5.234-41.58 8.724-183.477 37.8-449.824 27.623-603.35-23.262-35.766-11.922-43.326-15.12-74.148-30.24-38.09-18.9-67.168-44.198-75.6-66.296-6.106-15.702-4.943-40.708 2.326-47.687 4.07-4.07 6.397-2.908 23.843 11.922 22.39 18.9 59.027 37.51 101.77 51.176 15.993 5.233 34.311 11.049 40.708 13.375 13.957 4.652 27.624 5.234 27.624 1.163 0-1.744-2.327-3.78-4.944-4.652-22.389-7.27-61.643-32.567-72.402-46.524-16.283-21.226-19.19-35.474-11.34-54.374 21.517-51.466 151.492-98.862 300.658-109.912 48.85-3.489 185.803-.581 225.639 4.653m429.76 18.318c13.957 7.56 42.743 28.205 54.665 38.964 15.992 14.538 27.042 31.112 33.148 49.43 5.524 16.575 5.524 17.156 0 33.44-5.525 17.155-19.191 37.218-34.602 50.303-15.702 13.666-49.722 35.183-54.083 34.311-3.78-.872-4.362-9.305-4.944-54.665-.29-47.105-5.524-112.238-11.34-146.258-2.326-12.503 1.745-13.957 17.156-5.525m-1125.576 67.46c.581 1.453-.291 18.609-1.745 38.09-4.362 56.7 1.745 76.183 34.31 108.749 28.787 28.786 57.574 46.814 107.005 68.04 32.275 13.667 129.102 43.907 140.442 43.907 2.908 0 11.922 1.745 20.064 4.07 27.332 7.56 80.253 16.284 142.187 23.553 141.896 16.283 335.84 13.085 471.631-7.56 101.48-15.41 203.25-41.29 270.418-68.622 41.58-17.155 97.699-49.431 117.18-67.75 3.49-3.489 8.142-5.815 10.178-4.943 5.815 2.036-35.765 40.999-61.935 57.864-34.602 22.68-49.14 29.659-111.947 54.665-85.196 33.73-208.483 58.736-366.372 74.437-70.657 7.27-263.148 7.27-328.572 0-120.379-12.794-241.921-34.02-300.948-52.63-79.671-25.296-136.953-49.721-175.335-75.31-22.68-15.12-51.176-43.615-60.19-59.898-5.815-10.759-6.978-17.156-6.978-36.346 0-27.042 4.652-36.638 30.53-61.353 15.412-14.539 41.29-33.148 45.943-33.148 1.453 0 4.07-2.036 6.106-4.362 4.07-4.943 16.574-5.815 18.028-1.454" style="stroke-width:.290771"/>
</svg>
