<svg xmlns="http://www.w3.org/2000/svg" width="1062" height="960">
    <path d="M597.793 848.106c-.742 3.544-1.552 7.02-2.43 11.104l5.13 9.551-2.599 2.397-23.862-21.162c-7.661 20.42-7.661 20.42 11.104 64.667-5.366-2.295-10.125-2.802-11.576-5.265-6.852-11.408-14.108-22.107-26.225-28.621l-9.788 2.869c-7.999-11.273-16.166-22.715-24.773-34.832l-34.088 17.416c1.147 7.155 2.16 13.264 3.577 22.107l-19.238 6.109c-7.729-23.66-11.88-47.184-29.566-66.253-15.728-4.422-25.82-16.876-32.704-33.346-6.11-14.648-19.576-23.12-32.368-36.52V913.38c-55.351 37.194-112.56 71.856-171.489 105.607 1.587-2.734 3.207-5.096 4.995-7.324l-.067.102c23.085-24.638 46.745-48.635 69.29-73.881 10.193-11.442 19.644-24.03 28.014-37.396l.675-1.182c6.548-9.889 10.43-22.005 10.43-35.033 0-.878-.035-1.721-.068-2.565v.135c-.338-7.324-2.6-16.066.438-21.837 12.117-23.22 3.375-46.982 4.422-70.472.675-17.45 2.734-34.899 4.016-52.348.304-4.422 0-8.573 0-13.264-7.02 2.396-50.626 34.122-58.322 39.995-19.136 14.546-39.05 28.148-58.389 42.458s-38.409 28.857-58.187 43.775a109.5 109.5 0 0 1-24.436-48.298l-.135-.742 166.09-128.22 6.952-20.96 30.376 1.418c-.405-20.926 3.173-42.358-2.531-65.309 1.451-4.42 3.409-10.732 5.535-17.314-1.148-5.906-2.396-12.251-3.544-18.225l-7.661-5.907c-1.52-17.685-3.14-35.37-4.422-53.056s-14.58-33.245-12.825-52.18c31.152 0 67.907 46.24 72.16 88.934l37.227-45.395-1.991-8.302 2.7-2.127c.708-11.711 1.282-21.5 1.89-31.253h1.822l-4.961-35.945c-14.378 15.255-17.686 35.911-9.248 51.166l-15.56 20.015c-8.842 0-10.563-8.843-12.386-14.817s.236-13.804.709-22.782l-178.88-138.818c6.412-12.521 12.217-23.794 18.968-37.058C227.24 256.28 243.238 266 258.359 276.97c15.12 10.969 29.667 23.693 44.821 35.37 4.422 3.376 11.003 4.05 15.39 7.527 17.686 13.94 34.663 28.486 53.327 43.91 7.83-4.421 5.3-14.276 3.814-21.735-1.586-8.236-7.087-15.695-11.678-25.145l10.598-5.974v-55.082c.844-11.171 1.755-22.714 2.802-36.214 20.655-35.642 42.762-72.531 62.81-110.603 7.155-12.758 11.442-27.946 11.712-44.146v-.068c0-18.158 5.704-36.856 2.97-54.372-1.89-15.695-3.004-33.886-3.038-52.348v-.068c.17-2.531.44-4.894.912-7.189l-.068.338 8.573-10.024c14.277 4.151 14.445 13.264 12.184 20.689-5.029 16.74-3.679 32.705 0 49.513 2.43 11.273.878 23.524.54 35.37-1.013 32.942-2.329 65.815-3.375 93.728l-39.793 77.357 13.265 5.738-8.404 8.235c2.16.675 4.421 2.227 5.569 1.586 4.792-2.801 8.91-5.569 12.791-8.64l-.236.169c13.737-10.43 31.152-16.673 49.985-16.673 1.485 0 2.937.033 4.422.1h-.203v53.733l-14.074 4.42c-1.013 2.6-2.565 6.582-4.421 11.578-16.505 7.863-27.103 22.68-37.262 39.252v31.928l-6.885 8.843c-2.092 17.315 17.213 22.107 21.162 38.341l30.95-42.627 6.379 3.814-28.014 56.229c11.037 4.725 22.512 10.294 34.426 14.547 26.056 9.247 46.78.54 67.739-16.538 13.264-10.666 17.955-26.259 30.106-36.688 2.227-1.89 1.856-6.851 3.172-12.454-1.789-1.282-3.206-2.97-4.084-4.961l-.033-.068a16.4 16.4 0 0 1-.743-4.927c0-2.093.371-4.118 1.08-5.974l-.034.1c8.843-18.663-1.046-32.704-11.576-46.036-7.594-8.842-15.256-16.875-23.322-24.47l-.169-.134-20.993-5.974c-13.264-41.919 1.687-82.319-1.62-123.023 5.704 5.536 6.109 12.86 11.036 18.935 7.02 9.281 11.273 21.027 11.273 33.75 0 3.106-.236 6.143-.742 9.114l.033-.338c35.642 11.712 61.9 34.899 81.476 67.738 2.025-5.704 3.813-10.665 6.243-17.685-5.805-12.387-12.251-26.022-17.685-38.071l-21.533-19.812c-5.603-15.424-8.843-26.528-13.602-36.856-5.603-12.252-5.839-25.145-5.569-37.801.27-10.97-.742-21.534-1.552-32.3-.574-9.316-.912-20.217-.912-31.22 0-16.032.71-31.895 2.06-47.589l-.136 2.025c1.519-21.263 3.139-42.222-1.62-64.464L608.763-60l10.8 7.56v37.059l15.457 7.526v60.38l-9.247 6.852c-6.717 16.302 12.15 27.676 7.459 43.134l12.96 14.783c-2.025 16.437 7.594 30.005 15.12 44.214 9.282 17.314 20.656 33.684 29.263 51.335 4.421 8.843 4.421 19.644 7.29 34.055l7.223 6.177c-1.958 9.146-3.713 20.723-4.894 32.468l-.102 1.418a255 255 0 0 0 2.6 34.392l-.17-1.384-7.83 11.307c1.688 9.956 3.544 21.297 5.603 33.548l94.47-70.168 3.813-16.437c22.107 2.565 27.98-20.42 47.251-27.54l-11.981-10.7c2.835-7.83 9.889-6.244 19.407-6.716l13.703 16.74q2.868 16.876 6.446 38.409c-11.442 8.843-22.816 16.437-33.211 25.415s-18.53 18.225-29.97 29.633l-9.552 1.384-26.866 29.296-16.876 11.036a2417 2417 0 0 1-5.872 16.842l-5.4-7.729c-14.075 8.404-27.98 17.213-42.46 25.077-5.096 2.295-11.07 4.253-17.28 5.603l-.608.101-15.356-30.95-2.7 10.328c-16.842 1.114-21.128 16.538-30.95 29.532l22.512 18.8c.304 6.379.675 13.669 1.114 23.558l21.364 17.415 11.51 28.689c2.092-3.713 4.117-8.1 5.77-12.657l.203-.607c6.683-27.237 14.648-53.833 38.038-72.194 6.75-5.299 14.209-9.72 21.735-14.85l11.003 8.235c0 3.139.743 5.704 0 7.425-12.555 24.233-16.943 51.032-24.672 76.75-.709 2.498-1.114 5.333-1.114 8.27v.573-.034 110.872l13.5-2.734 15.02 12.657 14.243 2.329c1.417 1.451 2.329 1.957 2.396 2.531 1.89 17.146 17.686 22.107 28.115 31.76 12.454 11.239 25.786 21.533 39.354 32.705 6.108 15.154 6.108 15.154 44.213 44.787l4.152-5.602c12.319 10.159 24.706 20.25 36.923 30.274 3.544 20.42-6.041 34.359-19.103 47.792l-172.4-136.388c-4.151 12.387-1.62 21.668 6.514 28.722 1.384 22.107-9.957 42.931 0 64.87-10.868 12.454-8.843 26.157-3.375 40.67 2.295 5.872 3.611 12.656 3.611 19.744 0 .506 0 1.046-.034 1.552v-.067a130 130 0 0 0-.067 3.814c0 27.102 10.8 51.706 28.317 69.73l-.034-.034c29.566 31.624 58.963 63.384 89.846 96.629-4.422-.304-8.843.709-11.273-.945-32.806-20.453-65.376-41.345-97.98-62.17-20.284-12.96-40.5-26.09-60.616-39.083-8.843-15.29-7.29-31.861-7.46-48.095v-80.598c-9.18-6.818-10.732 4.691-16.571 6.143l-5.907-2.43c-26.224 17.888-31.22 22.815-40.5 40.265l37.227 30.95-4.05 4.32-52.416-24.706c-.709-.945-1.384-1.823 0 0-1.991-1.047-.945-.473 0 0-4.151 8.37-11.745 3.24-17.685 4.421l-3.106-1.89zM381.955 637.904c1.283 6.514 2.43 12.893 3.814 19.272 8.843 40.4 24.875 76.581 61.528 99.532 18.428 12.488 40.4 21.23 64.127 24.57l.81.102c53.057 5.839 119.378-28.621 138.92-80.361 6.108-16.235 11.981-32.503 18.259-49.547l-18.698-27v-23.39c-10.294-40.974-45.227-63.115-70.067-91.904l-28.52-5.434c-.473 2.7-.945 5.13-1.755 9.855-30.444-10.463-60.955-2.734-91.6 0-39.05 27.136-39.05 27.136-44.653 50.357l-7.864 2.733c-16.673 22.344-18.563 47.556-24.267 71.249zm240.24-632.9-.709 1.114h1.148zM480.441 855.599l.708-1.113h-1.113z" style="stroke-width:1.05882"/>
</svg>
