<svg xmlns="http://www.w3.org/2000/svg" width="1544" height="960">
    <path d="M1220.109 680.532c-16.428 2.347-23.703 21.356-13.612 36.141 4.46 7.275 29.57 29.57 32.621 29.57 1.173 0 4.928 2.816 8.449 6.102 3.52 3.285 13.377 11.265 22.06 17.836 8.448 6.57 15.958 12.673 16.662 13.611 3.051 4.225 22.295 16.428 26.285 16.428 5.163 0 19.713-8.918 31.917-19.478 4.693-4.225 19.713-15.959 33.324-26.05 32.387-24.407 41.07-32.856 44.59-43.651 3.286-10.092 2.112-18.07-3.99-25.58-4.224-4.929-5.162-4.929-96.923-5.633-50.926-.235-96.69 0-101.383.704m-996.462-.235c-2.817.704-7.98 4.225-11.735 7.51-3.52 3.286-9.387 7.98-13.376 10.326-3.755 2.347-7.98 5.633-9.388 7.04-1.173 1.409-11.265 9.388-22.295 17.602-43.181 32.151-52.569 45.998-44.355 64.303 5.867 12.673 10.092 13.142 108.893 13.142 62.426 0 92.23-.704 95.75-2.581 11.03-5.867 15.724-11.97 15.724-21.356 0-11.97-7.51-21.826-30.508-39.662-9.622-7.51-22.295-17.601-28.162-22.295-5.633-4.459-14.081-11.03-18.54-14.55s-11.265-9.153-15.255-12.438c-7.979-6.571-18.305-9.387-26.753-7.04M739.244-23.28c-13.142 9.387-16.193 13.142-16.193 20.887 0 4.693-3.05 8.918-11.734 16.193-17.132 14.55-19.713 19.01-16.662 30.04 1.408 5.162 5.163 11.733 8.448 14.784 5.632 5.398 5.867 6.571 5.867 34.733v29.1l-11.03 14.317c-6.102 7.979-11.734 15.02-12.438 15.723s-6.806 7.98-13.846 16.428c-23 27.458-65.712 68.058-71.813 68.058-.939 0-4.694 2.112-8.449 4.694-5.867 4.459-6.57 6.336-7.275 20.652l-.704 15.723-59.844.705-59.61.469-6.805 6.336c-7.745 7.51-13.377 18.07-13.377 25.346 0 2.582-1.643 7.04-3.52 9.622-4.46 6.102-4.46 26.52.234 33.325 1.878 2.816 5.398 5.163 7.51 5.163 10.091 0 18.305 34.498 12.204 50.691-1.878 4.46-1.878 7.04 0 8.918 1.173 1.174 2.346 8.918 2.346 17.132 0 11.734-1.173 16.897-5.867 24.172l-5.867 9.388h-27.692c-38.488.234-38.958.47-39.896 35.906-.704 20.652 0 27.223 2.347 29.336 2.112 1.642 14.785 2.816 32.62 3.285l29.101.704.704 199.95.47 200.184-7.98 3.285c-4.224 1.643-10.56 6.102-13.846 9.622-6.571 7.276-14.55 29.805-12.438 35.203 1.173 3.05 44.59 3.52 358.595 3.05l357.421-.703-.704-9.622c-1.173-19.01-13.377-36.376-27.458-38.958-4.693-.704-4.693-2.816-5.163-199.01-.469-109.128.235-199.715 1.409-201.593 1.408-2.347 8.683-3.05 29.57-2.816 17.835.235 28.63-.47 30.743-2.347 2.347-1.877 3.286-9.387 3.286-28.396 0-23.938-.235-25.815-5.868-31.213-5.397-5.633-7.04-5.867-32.62-5.867h-27.224l-7.275-10.092c-6.806-9.152-7.04-10.795-5.867-25.11 1.643-19.245 1.643-21.357 0-38.958-1.173-12.907-.704-15.489 4.929-24.407 3.52-5.632 9.387-11.03 13.142-12.438 6.57-2.582 6.806-3.051 6.806-19.713 0-9.388-.94-17.132-2.113-17.132s-2.816-3.52-3.754-7.745c-2.582-12.673-7.98-22.295-16.194-28.631-7.51-5.867-7.744-5.867-66.18-6.336l-58.436-.705-.704-15.958c-.704-14.316-1.174-16.193-7.04-19.713-20.418-12.438-27.458-18.07-49.519-40.366-22.294-22.53-35.671-38.018-59.374-68.527l-8.918-11.265V93.356c.234-28.631.234-28.866 6.806-35.437q21.825-21.473-10.561-45.763c-8.214-6.102-10.326-9.153-10.326-14.785 0-7.51-6.337-14.785-20.418-23.468-12.203-7.51-14.785-4.928-14.785 14.315V4.646h-27.927l-.704-16.897c-.939-20.417-3.285-21.825-18.54-11.03m-101.148 616.98c.235 21.357 0 41.07-.704 44.12l-1.173 5.164-53.508-.47-53.273-.704-.704-44.12-.47-43.886 54.447.47 54.681.704zm189.389 44.59v83.313h-110.3l-.705-80.966c-.235-44.59 0-82.374.704-84.016.704-2.347 13.142-2.817 55.62-2.347l54.68.704zm188.92 42.008c0 113.117-.47 126.494-3.756 127.902-7.275 2.817-100.678 1.643-103.73-1.408-2.111-2.112-2.815-33.325-2.815-126.259 0-68.058.704-124.382 1.642-125.086.704-.938 25.58-1.643 55.15-1.643h53.508zm-380.186.235c1.642 3.05 2.112 45.528 1.877 128.371l-.704 123.913H529.438l-.704-125.32c-.235-90.588.235-126.26 2.112-128.372 2.112-2.582 13.377-3.286 52.804-3.286 47.17 0 50.222.235 52.569 4.694m190.092 82.139c1.643 2.816 2.113 32.856 1.878 87.302l-.704 82.843h-110.3l-.705-82.843c-.235-54.446.235-84.486 1.877-87.302 2.347-4.459 5.163-4.694 53.977-4.694s51.63.235 53.977 4.694m188.92 125.555v44.59H907.277l-.704-42.243c-.235-22.999 0-43.416.704-45.06.704-2.58 12.203-3.05 54.446-2.58l53.508.703z" style="stroke-width:.234683"/>
</svg>
