<svg xmlns="http://www.w3.org/2000/svg" width="1200" height="960">
    <path d="M600 0C334.89 0 120 214.89 120 480s214.89 480 480 480 480-214.89 480-480C1079.97 214.92 865.08.03 600 0m0 94.863C812.7 94.863 985.137 267.3 985.137 480c-.24 212.61-172.498 384.867-385.078 385.137H600C387.3 865.137 214.863 692.7 214.863 480S387.3 94.863 600 94.863m0 13.711c-205.2 0-371.543 166.402-371.543 371.602S394.8 851.719 600 851.719s371.543-166.343 371.543-371.543v-.235c-.36-205.02-166.464-371.097-371.484-371.367zm-2.52 74.063c2.374-.604 4.988-.006 8.438 2.754a109654 109654 0 0 0 310.078 247.03 27.3 27.3 0 0 1 3.34 4.923l.059.176h-77.051c-23.52 0-47.027-.27-70.547 0h-.82c-7.5 0-14.35-2.735-19.57-7.325-47.31-37.98-95.02-75.452-142.15-113.672-7.86-6.39-12.62-5.915-20.39.235-47.19 38.16-94.805 75.696-142.265 113.496-4.8 3.84-9.272 7.178-16.172 7.148-49.86-.27-99.726 0-149.766 0-.72-6.03 4.416-7.125 7.266-9.375h.058c100.72-80.36 201.521-160.696 302.461-240.996 2.505-1.995 4.658-3.79 7.031-4.394m3.282 317.168c44.34 0 80.273 35.933 80.273 80.273s-35.933 80.274-80.273 80.274h-.293v-.059c-44.19-.18-79.922-36.112-79.922-80.332v-1.055c.66-43.83 36.325-79.101 80.215-79.101m193.008 1.523c43.86 0 79.394 35.535 79.394 79.395s-35.534 79.394-79.394 79.394h-.41v.176c-43.68-.21-78.985-35.715-78.985-79.395v-1.523c.75-43.29 35.985-78.047 79.395-78.047m-387.188.645c43.92 0 79.512 35.65 79.512 79.57 0 43.35-34.703 78.523-77.813 79.453h-.058v.117h-1.641c-43.35 0-78.612-34.644-79.512-77.754v-3.515c.93-43.2 36.192-77.871 79.512-77.871" style="stroke-width:30"/>
</svg>
