<svg xmlns="http://www.w3.org/2000/svg" width="1560" height="960">
    <path d="M962.033 447.277c0 3.703 11.724 18.512 26.533 33.322 18.512 18.511 43.195 33.32 82.07 49.364 30.236 12.342 64.174 26.534 75.281 31.47 122.795 53.068 132.05 56.77 177.096 70.962 20.363 6.171 49.982 16.044 65.409 20.98 56.77 17.895 70.345 6.788 22.214-18.511-51.833-27.768-128.966-66.026-150.563-75.282-11.107-4.32-29.619-11.724-40.109-16.66-11.107-4.937-52.45-21.598-91.325-37.641-80.218-33.321-107.368-44.428-130.817-56.77-19.746-9.873-35.789-10.49-35.789-1.234m-401.09 2.469c-20.363 9.872-43.81 20.362-129.582 55.535-38.875 16.043-80.218 32.704-91.325 37.64-10.49 4.937-29.002 12.342-40.11 16.661-21.596 9.256-98.729 47.514-150.562 75.282-48.13 25.3-34.555 36.406 22.214 18.512 15.427-4.937 45.046-14.81 65.409-20.98 38.257-12.342 56.77-19.747 95.644-36.407 11.724-4.937 30.853-12.958 41.96-17.895 10.49-4.32 29.002-11.724 40.11-16.66 10.49-4.937 44.427-19.13 74.663-31.47 40.11-16.661 62.94-30.854 84.538-52.45 16.66-16.044 28.385-30.854 25.916-32.705-5.553-6.17-21.597-4.32-38.875 4.937m820.691-333.213c-11.724 4.32-37.024 12.341-55.535 18.512-18.512 5.553-43.812 14.809-55.536 19.746-11.724 5.553-31.47 13.575-43.194 18.511-11.724 4.937-29.619 12.959-40.109 17.278-9.873 4.32-30.853 12.341-46.28 18.512-34.555 13.575-66.025 27.15-87.622 38.258-8.639 4.319-19.746 8.021-24.682 8.021-4.32 0-22.832 15.427-41.344 33.939-27.15 27.767-30.853 34.555-22.83 37.64 6.17 2.469 19.128 0 30.235-5.553 24.683-11.724 62.94-28.385 89.474-39.492 10.49-4.32 29.002-11.724 40.109-16.66 10.49-4.32 41.96-17.278 69.11-28.385 72.197-29.002 81.453-33.322 134.52-59.238 96.878-48.13 108.603-54.919 109.22-62.94 0-9.256-27.151-8.64-55.536 1.85m-1258.804-1.85c.617 8.021 12.342 14.81 109.22 62.94 53.067 25.916 62.323 30.236 134.52 59.238 27.15 11.107 59.237 24.065 70.961 29.618 11.724 4.937 31.47 12.959 43.195 17.895 11.724 4.937 30.236 12.959 40.109 17.278 59.854 25.3 70.344 29.002 76.515 24.682 8.639-4.936-53.067-70.962-66.025-70.962-4.937 0-16.044-3.702-24.683-8.021-21.597-11.107-53.067-24.683-87.622-38.258-28.385-11.107-45.663-18.512-89.474-37.024-53.067-23.448-62.94-27.15-95.645-37.023-18.511-6.171-45.045-14.81-58.62-19.13-31.47-10.49-52.45-11.106-52.45-1.233M830.6 926.116c-9.256 8.64-3.702 14.193 14.192 14.193q18.512 0 18.512-9.256c0-9.256-24.682-12.959-32.704-4.937m-133.902 4.32c0 6.787 6.17 9.873 19.129 9.873 23.448 0 21.597-14.81-2.469-17.278-11.724-1.234-16.66.617-16.66 7.405m352.959-19.746c3.085 9.256 48.13 14.81 48.13 6.17 0-8.021-15.426-13.575-35.172-13.575-9.256 0-14.193 3.085-12.958 7.405m-89.474-40.11c-8.64 8.023-3.703 14.193 11.107 14.193 17.277 0 20.98-9.256 5.553-14.81-11.724-4.319-11.724-4.319-16.66.618m82.686 1.235c-7.405 7.405-20.98 12.958-31.47 12.958-9.873 0-18.512 2.468-18.512 6.17 0 3.086-9.256 8.023-19.746 11.108-23.448 6.17-24.683 16.043-1.851 18.512 9.873 1.234 16.66-1.234 19.129-7.405 2.468-6.17 11.107-9.873 24.065-9.873 11.107 0 23.448-3.702 27.768-8.639 3.702-4.936 14.81-9.873 23.448-11.107 9.873-1.234 16.66-5.553 16.66-11.107 0-14.192-25.299-14.81-39.491-.617m64.791-18.512c-7.405 11.107 83.303 18.512 99.964 7.405 6.17-3.702 4.937-6.17-6.17-8.639-21.598-6.17-90.091-4.936-93.794 1.234m-151.797-18.512c-14.192 4.32-12.958 4.937 9.256 8.64 35.173 6.17 89.474 5.553 89.474-1.235 0-11.724-66.642-16.66-98.73-7.405m21.597-74.047c-1.85 3.085-.617 7.405 2.469 9.256 8.022 4.936 25.916-2.468 21.597-9.256-4.32-7.405-19.13-7.405-24.066 0m127.732-38.258c-13.575 5.554-1.234 14.193 20.363 14.193 25.3 0 41.343-5.554 36.407-12.959-3.086-5.553-43.195-6.787-56.77-1.234m-114.156 0c-5.554 5.554 7.404 20.363 17.895 20.363 8.638 0 13.575 1.851 50.599 20.363 25.299 12.959 38.257 13.576 38.257 1.851 0-13.575-24.682-28.384-46.896-28.384-11.724 0-20.98-3.703-23.449-9.256-3.085-9.256-29.002-12.959-36.406-4.937m-520.8 185.119c-16.66 6.17-6.787 14.809 14.81 12.958 27.15-2.469 36.407-17.278 9.873-16.66-9.256 0-20.98 1.85-24.682 3.702m111.071-37.024c-13.575 4.936-8.638 14.192 8.022 14.192 9.256 0 14.81-3.085 13.576-7.404-3.086-8.64-11.108-11.108-21.598-6.788m-103.666-4.32c-6.17 9.873 2.469 18.512 17.895 18.512 8.022 0 17.895 4.32 22.214 9.256 4.32 4.937 16.66 9.256 27.768 9.256 12.958 0 21.597 3.702 24.065 9.873s9.256 8.639 19.13 7.405c21.596-2.469 20.362-12.958-2.469-19.13-10.49-2.467-19.129-7.404-19.129-10.49 0-3.702-8.022-6.17-18.512-6.17s-24.065-5.553-30.853-12.341c-12.958-12.958-33.938-16.044-40.109-6.17m-122.795-12.958c-11.107 4.32-11.107 4.937-1.234 8.639 24.065 9.256 105.517 1.851 98.73-8.639-3.703-6.788-80.835-6.788-97.496 0M519.6 833.557c-8.021 1.234-14.192 5.554-14.192 8.639 0 6.17 53.684 7.405 89.474 1.234 22.214-3.702 23.448-4.32 9.256-8.639-16.66-4.936-62.94-5.553-84.538-1.234m38.875-72.813c-4.32 6.788 13.576 14.192 21.597 9.256 3.086-1.851 4.32-6.17 2.469-9.256-4.937-7.405-19.746-7.405-24.066 0m-25.916-33.938c-2.469 6.17-11.107 9.873-23.449 9.873-22.214 0-46.896 14.81-46.896 28.384 0 11.108 12.341 11.108 35.172 0 9.256-4.936 25.917-12.34 35.79-16.043 30.853-12.341 35.79-15.427 35.172-21.597-1.234-10.49-32.087-11.107-35.79-.617m-134.52-3.086c-4.936 7.405 11.108 12.959 36.407 12.959 22.831 0 33.321-8.64 17.895-14.81-14.81-5.553-50.6-4.32-54.302 1.851m485.627-29.001c1.234 4.319 6.17 8.021 10.49 8.021s9.256-3.702 11.107-8.021c1.234-4.32-3.085-7.405-11.107-7.405s-12.341 3.085-10.49 7.405m-228.312 0c1.234 4.319 6.17 8.021 10.49 8.021s9.256-3.702 11.107-8.021c1.234-4.32-3.085-7.405-11.107-7.405s-12.341 3.085-10.49 7.405m119.71-680.001c-11.725 56.77-16.661 107.368-16.661 177.713 0 106.135-5.554 120.327-30.236 78.367-13.575-23.448-16.66-24.683-40.726-15.427-14.192 5.554-15.427 7.405-8.639 19.746 4.32 8.022 9.256 15.427 11.107 17.278s7.405 9.256 11.724 16.66c9.873 18.512.617 18.512-39.492 1.852-30.236-12.958-38.257-12.958-29.618 1.234 3.085 4.32 4.319 13.575 3.702 20.98-1.851 12.341 1.234 14.192 54.301 39.492 4.937 2.468 9.256 8.022 9.256 12.341 0 4.32-4.32 9.873-9.256 12.341-54.918 25.917-54.301 25.3-57.386 48.748-3.086 25.917-1.852 28.385 9.255 21.597 11.108-7.404 49.365-20.98 58.621-20.98 4.32 0 0 12.341-10.49 29.002-19.129 30.236-18.512 34.555 4.32 41.343 13.575 4.32 27.15-4.936 43.194-30.853 6.17-9.873 8.022-10.49 13.575-2.468 8.022 11.724 8.639 86.388.617 107.368-5.553 16.044-6.17 16.044-78.983 16.044-47.514 0-83.92 3.085-103.667 9.256-16.66 4.936-39.492 9.256-50.599 9.256s-30.236 4.32-42.577 9.256c-11.724 4.936-27.15 9.256-33.321 9.256-27.768 0-131.434 53.067-161.67 82.686-53.684 52.45-51.833 103.666 6.788 162.287 17.894 17.894 35.79 32.704 39.492 32.704s11.724 3.702 16.66 8.022c15.427 12.958 91.942 41.96 145.626 55.535 100.581 25.917 151.797 30.853 290.019 30.853s189.438-4.936 290.018-30.853c119.71-30.236 220.908-96.261 243.122-158.585 17.278-49.364-21.597-106.751-98.112-143.158-61.09-29.618-85.772-39.491-98.113-39.491-6.17 0-21.597-4.32-33.321-9.256-12.341-4.937-32.087-9.256-43.812-9.256s-29.001-3.086-38.874-7.405c-9.256-3.702-56.153-8.639-103.667-10.49l-86.388-3.702-1.851-63.558c-1.851-66.642 2.468-75.898 20.98-44.428 13.575 22.214 22.831 25.917 42.577 18.512s19.129-10.49-3.702-41.96c-11.724-16.044-16.044-25.917-10.49-25.917 9.873 0 48.13 13.576 59.237 20.98 11.108 6.788 12.342 4.32 9.256-21.597-3.085-23.448-2.468-22.831-57.386-48.748-4.937-2.468-9.256-8.021-9.256-12.34 0-4.32 4.32-9.874 9.256-12.342 54.918-25.917 54.301-25.3 57.386-48.748 1.234-12.341 1.852-22.831 1.234-24.065-.616-.617-14.192 4.32-30.235 11.107-45.663 19.129-50.6 16.66-27.768-15.427 21.597-29.619 20.363-36.406-8.022-43.194-14.81-3.702-18.512-1.234-30.236 17.895-6.788 12.341-15.426 22.214-18.512 22.214-3.085 0-5.553-36.407-5.553-80.835 0-73.43-11.107-164.138-24.683-199.928-4.32-11.724-4.936-11.107-8.022 3.086M706.57 685.463c16.66 33.32 33.938 65.408 38.875 70.962 7.404 9.256 7.404 11.107-1.852 14.81-5.553 2.467-15.426-.618-21.597-6.172-6.17-5.553-13.575-9.872-17.277-9.872s-9.873-4.32-14.193-9.256c-4.32-4.937-12.958-9.256-19.746-9.256-6.17 0-12.958-4.32-14.81-9.256-2.467-4.937-8.638-9.256-14.809-9.256s-14.192-4.32-18.511-9.256c-4.32-4.936-12.959-9.256-19.13-9.256s-12.958-2.468-14.809-6.17c-1.851-3.086-19.129-13.576-37.64-22.215-18.512-8.639-32.705-17.277-30.854-19.129 6.171-6.17 100.581-25.3 127.732-25.916l29.002-.617zm48.13-52.45c15.427 56.152 14.193 114.773-1.85 75.28-3.703-9.872-13.576-29-22.215-42.576-19.746-32.704-19.129-40.11 3.085-40.11 10.49 0 19.746 3.703 20.98 7.406m90.091 0c-.617 4.319-7.404 19.128-15.426 32.704-8.639 13.575-17.895 30.853-21.597 38.258-9.873 24.065-14.193 15.426-9.873-21.598 6.787-53.067 8.639-56.77 29.002-56.77 10.49 0 17.894 3.086 17.894 7.406m140.69 4.319c28.385 6.788 53.067 12.958 54.919 14.81 1.85 1.85-11.725 10.49-30.236 19.745-17.895 8.64-45.046 22.832-59.855 31.47-14.81 8.022-30.853 14.81-35.79 14.81-4.32 0-8.022 2.468-8.022 5.553s-12.958 11.725-29.001 19.746c-16.661 7.405-34.556 17.895-40.11 22.832-6.17 4.936-15.426 7.404-20.98 4.936-9.255-3.702-9.255-5.553-1.85-14.81 4.936-5.553 22.214-37.64 38.874-70.961l29.62-59.855h25.916c13.575 0 48.13 5.553 76.515 11.724m-476.988 30.853c1.852 3.702 17.895 12.958 35.79 22.214 17.278 8.639 48.748 25.3 69.11 37.024 20.364 11.107 51.217 27.768 67.877 35.79 17.278 8.638 34.556 22.213 38.875 29.618 8.022 12.341 7.405 12.959-6.17 9.256-23.449-6.17-208.567-12.341-246.208-7.405-30.236 3.703-34.555 6.17-32.087 16.044 1.851 6.788 6.788 14.81 11.724 19.129 11.107 9.256 39.492 1.851 39.492-9.873 0-11.107-1.851-11.107 82.686-9.873 45.046.617 72.196 3.702 84.538 9.873 9.256 4.936 31.47 9.256 48.747 9.256 32.088 0 40.726 9.256 20.363 22.214-6.17 3.702-40.109 30.853-75.281 60.472l-64.174 53.067-31.47-3.702c-49.365-5.554-74.665-13.576-87.006-27.151-8.022-9.256-19.129-12.341-40.726-12.341-33.321 0-75.898-18.512-93.793-41.343-6.17-8.022-15.427-14.193-19.746-14.193-4.937 0-16.044-7.404-24.683-17.277-11.724-12.341-15.426-22.215-14.192-38.258 1.851-18.512 4.32-22.214 20.363-25.3l18.512-4.319-16.66-.617c-20.364-.617-22.832-14.192-6.171-30.853 23.448-24.683 65.408-49.982 76.515-46.28 7.405 1.852 11.107 0 11.107-6.17 0-5.554 9.256-11.724 23.449-16.044 12.34-3.085 27.15-8.639 32.087-12.341 11.724-7.405 72.196-8.022 77.132-.617m626.317 3.702c8.639 4.937 22.214 8.64 29.619 9.256 9.256 0 16.043 4.32 17.895 12.341 2.468 8.64 6.787 11.725 13.575 9.256 6.17-1.85 22.831 5.554 40.109 17.895 47.513 33.321 58.003 58.004 26.533 59.855-9.873.617-8.639 1.851 4.937 4.936 15.426 3.086 19.129 6.788 20.363 24.683 1.851 16.044-1.851 24.682-14.81 38.258-9.255 9.873-20.363 17.894-24.682 17.894-4.32 0-12.958 6.171-19.129 14.193-17.895 22.831-60.472 41.343-93.793 41.343-20.98 0-32.704 3.085-40.109 11.724-11.107 12.341-43.194 22.214-90.708 28.385-27.768 3.702-28.385 3.085-92.56-49.982-35.172-29.62-69.11-56.77-74.663-60.472-20.363-12.341-12.959-22.214 16.66-22.214 15.427 0 38.258-4.32 50.6-9.256 14.192-6.17 44.428-9.256 87.622-9.873 82.069-1.234 80.835-1.234 80.835 9.873 0 12.341 28.385 18.512 40.109 9.256 4.936-4.32 9.256-12.959 9.256-19.13 0-8.638-6.788-11.723-29.002-15.426-32.087-4.936-224.61 1.234-247.442 7.405-13.575 3.703-14.192 3.085-6.17-9.256 4.32-7.405 22.214-20.98 38.875-29.619 17.277-8.021 47.513-24.682 67.876-35.79 20.363-11.723 51.833-28.384 69.111-37.023 17.895-9.256 33.939-18.512 35.79-22.214 5.553-8.639 66.025-6.17 83.303 3.702M801.597 803.938c3.085 6.788 6.17 12.959 6.17 14.193s-12.34 1.85-27.767 1.85-27.768-.616-27.768-1.85c0-11.107 16.044-25.917 27.768-25.917 8.639 0 17.895 4.937 21.597 11.724m-30.853 74.048c0 12.958-1.851 40.726-3.702 61.706l-4.32 37.64H696.08c-36.407 0-67.877-2.468-69.728-4.936-1.851-3.085 5.553-14.193 16.66-24.683 37.024-35.79 118.476-98.73 122.796-96.261 3.085 1.851 4.936 13.575 4.936 26.534m95.644 25.916c53.068 42.577 71.58 61.706 66.643 68.494-1.234 3.085-32.704 4.936-69.11 4.936h-66.643l-4.32-32.704c-4.936-41.96-4.936-87.622.617-92.559 1.851-2.468 8.022-.617 13.576 3.702 5.553 4.32 32.087 25.917 59.237 48.131m295.573-1094.665c-12.959 15.426-35.173 40.726-48.748 56.152-13.576 14.81-33.321 40.109-43.194 56.153-10.49 15.426-34.556 49.982-53.068 76.515s-37.64 54.919-42.577 62.94c-17.278 26.534-67.26 98.73-82.686 119.71-8.639 11.724-16.044 25.3-16.044 29.619 0 9.873 19.746 10.49 29.002 1.234 3.703-3.702 13.576-10.49 21.597-14.192 7.405-3.703 25.3-23.449 39.492-43.812 23.449-35.172 41.96-61.089 116.008-168.457 17.277-24.683 35.79-52.45 41.96-61.706 11.724-19.746 72.813-136.988 72.813-140.69 0-8.639-12.958 1.234-34.555 26.534m-792.306-21.598c0 4.937 9.873 27.151 21.597 48.748s24.065 45.663 27.768 53.685c7.404 17.277 37.64 62.94 85.771 130.816 20.98 29.002 40.726 58.004 43.811 64.792 16.044 31.47 73.43 105.517 89.474 115.39 29.002 17.278 33.321 19.129 43.194 14.81 9.873-3.703 10.49-2.469-91.942-150.563-17.277-25.3-33.938-49.982-37.64-55.536-3.086-5.553-17.895-25.916-32.088-45.662-14.809-19.13-26.533-37.024-26.533-40.11 0-2.467-21.597-30.235-48.13-60.471-69.112-81.452-75.282-87.006-75.282-75.899" style="stroke-width:.61706"/>
</svg>
