<svg xmlns="http://www.w3.org/2000/svg" width="1440" height="960">
    <path d="M775.073 496.47c-32.52 23.077-40.387 37.24-41.96 75.004-1.574 41.436-1.574 41.96 15.735 41.96 29.372 0 73.431-32.519 73.431-54.548 0-4.196 7.343-15.211 15.735-24.128 17.31-17.309 20.456-38.813 7.344-44.059-16.785-6.294-57.696-3.147-70.285 5.77m-185.151-5.246c-2.098 1.573-3.672 11.54-3.672 20.98 0 37.24 50.353 91.265 92.838 99.132 28.324 5.246 33.044 1.05 33.044-33.044 0-36.715-11.539-57.171-47.205-81.823-12.589-8.917-67.662-12.588-75.005-5.245m123.26-31.47c-3.672 1.573-8.917 7.343-12.064 13.112-4.196 7.868-3.672 12.588 3.671 20.456 4.72 5.245 11.54 9.966 15.211 9.966s10.49-4.72 15.21-9.966c7.344-7.868 7.868-12.588 3.672-20.456-6.294-11.539-15.735-16.26-25.7-13.113M672.794 359.57c-38.814 10.49-48.255 16.784-68.71 47.73-13.638 20.456-17.834 32.52-16.785 45.108 1.574 15.211 3.147 16.785 22.554 18.358 31.47 2.623 51.402-2.622 68.71-18.882 24.128-22.03 33.57-38.29 33.57-58.745 0-21.505-5.246-42.486-9.966-41.436-1.574.524-14.687 4.196-29.373 7.867m58.745-9.966c-2.098 1.574-3.671 15.736-3.671 30.422 0 22.03 3.147 31.47 15.735 49.304 22.554 30.421 44.059 42.485 77.627 42.485 33.569 0 36.716-5.245 22.03-38.289-20.98-46.681-93.888-101.755-111.72-83.922M688.53-101.47c-5.245 11.014-12.063 26.75-15.735 35.666-12.588 30.422-39.338 134.8-39.338 154.206 0 16.784-16.26 52.975-23.603 52.975-3.147 0-16.26 7.344-28.323 15.736-18.358 13.637-23.079 14.686-31.47 9.44-11.54-7.342-29.898 0-52.976 20.981-7.344 6.294-16.785 13.113-21.505 14.162-8.917 3.147-39.863-15.21-79.726-46.157-11.014-8.392-21.505-14.162-23.078-12.064-2.623 2.623 20.456 37.24 29.897 45.108s31.47 41.436 31.47 48.255c0 4.196-7.867 18.358-16.784 30.946-20.98 28.324-29.372 41.436-33.568 51.926-3.672 8.917-17.31 40.388-23.079 52.451-2.098 4.721-18.358 11.015-37.24 14.687-56.122 11.539-102.804 25.7-150.534 46.156-9.441 4.196-19.931 7.344-23.603 7.344-3.671.524-11.539 4.72-18.358 10.49-12.588 10.49-11.539 20.98 1.574 20.98 13.637 0 13.637 10.49.524 15.735-18.357 6.819-17.308 12.589 4.721 22.554 49.304 23.603 82.348 34.093 152.108 48.255 73.43 15.21 67.137 11.015 83.921 55.074 4.72 13.112 11.015 27.274 13.637 31.47 2.623 4.196 6.294 11.54 7.868 15.735 2.098 4.196 13.113 19.407 24.652 33.044 24.127 29.897 23.603 32.52-14.686 82.348-13.113 16.785-23.603 33.044-23.603 35.667 0 2.622-3.672 6.819-8.393 8.392-4.196 1.574-6.294 5.245-4.72 8.392 2.622 4.196 73.431-44.583 95.985-66.612 9.966-9.966 12.588-8.917 46.681 13.112 37.765 24.652 72.907 43.01 82.873 43.01 15.735 0 26.75 19.407 33.568 58.22 6.819 38.29 15.736 72.383 29.897 110.672 34.093 93.887 44.06 108.049 54.55 80.774 6.293-16.784 9.44-17.308 15.735-.524 8.392 22.554 14.161 16.784 38.289-39.338 13.112-30.946 40.387-136.897 40.387-157.353 0-17.833 15.735-46.681 27.274-50.353 13.113-4.196 56.123-32.52 68.711-45.108 5.245-5.245 15.21-13.112 22.03-17.833 12.588-8.392 14.161-7.868 43.534 11.54 16.26 11.538 42.485 29.896 57.696 40.911s28.848 18.882 30.946 17.309c1.573-2.098-11.015-22.03-28.324-44.059-17.308-22.554-37.24-50.353-44.583-61.892-11.54-18.882-12.064-22.554-5.77-35.667 4.196-7.867 9.442-14.161 12.064-14.161 2.623 0 5.245-5.246 6.294-11.54 1.05-6.294 4.72-12.063 8.392-13.637 9.966-3.147 7.868 23.603-2.098 29.373-5.245 2.622-7.343 7.867-5.245 11.014 8.392 13.113 30.946-20.98 53.5-78.676l9.441-24.652 45.108-8.392c63.466-12.588 109.623-26.226 161.549-48.255 9.441-4.196 19.931-7.343 23.603-7.343 3.671-.525 11.539-4.72 18.358-10.49 12.588-10.49 11.539-20.98-1.574-20.98-13.637 0-13.637-10.49-.524-15.736 18.357-6.819 17.308-12.588-4.721-23.078-47.206-22.554-79.2-33.044-152.108-47.73-89.166-18.883-86.02-17.31-100.705-46.682-7.343-14.686-24.652-42.485-38.814-61.892l-26.225-34.618 9.44-15.735c18.359-31.47 56.648-84.97 60.844-84.97 2.098 0 3.671-3.672 3.671-7.868s-1.049-7.868-2.622-7.868-23.079 15.211-48.255 34.093c-24.652 18.883-47.206 34.094-49.828 34.094-2.623 0-14.687-7.868-26.75-17.31-34.618-26.225-49.304-34.617-87.593-48.254-17.31-6.294-18.883-8.392-27.8-47.73C798.677 20.74 790.81-7.583 775.074-47.446c-6.294-15.735-13.112-33.568-14.686-39.338-9.441-28.323-32.52-43.01-32.52-20.98 0 13.637-10.49 13.637-15.735.524-6.818-18.358-12.588-17.309-23.603 5.77m94.412 314.705c77.627 25.701 105.426 46.157 148.436 111.72 43.01 63.99 44.059 66.613 51.402 114.344 5.245 35.142 5.245 50.352-.525 83.921-7.867 44.059-18.882 78.676-27.274 84.446-3.147 1.573-7.343 8.392-8.917 15.21-3.147 9.442-5.77 11.015-11.014 6.295-7.343-6.294-18.358-3.147-18.358 5.245 0 11.54-59.794 73.431-88.118 90.74-40.387 25.176-106.475 37.765-120.637 23.603-3.671-3.672-22.554-6.819-44.583-7.343-43.534-.525-65.04-9.441-120.113-50.353-40.911-30.422-60.843-53.5-82.872-97.559-17.309-35.666-21.505-74.48-7.868-74.48 9.966 0 9.966-19.407 0-36.716-4.196-7.867-7.343-27.799-7.867-48.779 0-30.946 2.622-41.436 19.407-76.054 28.848-59.27 96.51-123.26 120.112-114.343 4.196 1.574 15.21-1.573 24.652-7.343 8.917-5.77 20.456-12.064 24.652-13.637s15.21-6.294 23.603-10.49c22.03-9.966 93.887-9.442 125.882 1.573" style="stroke-width:.524509"/>
</svg>
