<svg xmlns="http://www.w3.org/2000/svg" width="1690" height="960">
    <path d="M119.764 0c4.805 5.077 8.886 9.64 13.192 13.9 34.119 33.665 68.144 67.35 102.081 101.196 2.81 3.082 6.845 5.046 11.333 5.046h.53c90.842-.06 181.67-.088 272.512-.088H687.54c3.31 0 6.134-.29 8.854-3.01 37.714-37.807 75.403-75.61 113.148-113.414.997-1.133 1.838-2.27 2.744-3.63zm758.304 0c-.363.544-.613 1.134-.885 1.86l.177.088a52 52 0 0 1 4.869 3.807c36.415 36.264 72.723 72.658 108.987 109.164 2.9 3.218 7.106 5.312 11.775 5.312h.708c137.048-.09 274.051-.177 411.069-.177 10.29 0 20.609-.136 30.899 0h.53c2.54 0 4.744-1.022 6.376-2.745L1567.314 3.72c.997-1.179 1.97-2.314 2.922-3.719zm-43.825 10.978L344.733 500.49 834.242 990v-6.197c0-52.508-.004-104.996.177-157.504v-.532c0-4.306-1.878-8.215-4.87-10.89-103.14-103.02-206.23-206.084-309.341-309.164-1.768-1.813-3.666-3.62-5.932-5.932 2.266-1.995 4.255-3.458 5.932-5.135C623.41 391.384 726.67 288.12 829.993 184.95a13.06 13.06 0 0 0 4.339-9.739v-.443c-.091-52.99-.089-105.93-.089-158.92zm21.337.089c0 53.807.004 107.811-.177 161.754v.797c0 4.895 2.135 9.312 5.489 12.394a495716 495716 0 0 1 308.81 308.634c1.814 1.768 3.448 3.665 5.578 5.932-2.22 2.04-4.077 3.546-5.754 5.223-103.05 103.08-206.113 206.175-309.254 309.165a14.5 14.5 0 0 0-4.78 10.801v.62c.135 52.99.088 105.975.088 158.92v3.896l489.068-489.068zm163.082 130.766-.088.089c1.36 1.496 1.89 2.155 2.479 2.745 37.321 37.23 74.589 74.556 111.82 111.908 1.722 1.722 4.188 2.833 6.817 2.833.317 0 .57-.088.797-.088 54.698-.091 109.357-.091 164.055 0h.531c2.947 0 5.622-1.236 7.526-3.276 36.838-36.536 73.626-73.043 110.403-109.518 1.27-1.27 2.393-2.743 4.161-4.693zm-754.674.266c9.383 9.791 18.635 19.697 28.154 29.217 27.878 27.787 55.922 55.433 83.755 83.311 2.538 2.856 6.233 4.693 10.358 4.693h.354c53.852-.136 107.725-.09 161.577-.09h5.843l-.974-1.327 115.716-115.804zm570.255 69.943L545.53 500.932l285.526 285.614c.634.59 1.268 1.138 1.947 1.682.136.091.439-.043.62-.088h.089c.226-.09.438-.175.62-.266v-5.932c0-51.222-.093-102.385.088-153.608v-.531c0-4.08-1.793-7.732-4.604-10.27a98513 98513 0 0 1-112.44-112.351c-1.631-1.632-3.181-3.312-5.311-5.578 2.085-1.768 3.859-3.063 5.4-4.604 37.382-37.503 74.935-74.91 112.528-112.263 2.72-2.493 4.339-6.104 4.339-10.093v-.796c-.227-22.076-.089-44.192-.089-66.313zm21.337.531c.09 53.157.063 106.293-.089 159.54v.62c0 4.08 1.75 7.732 4.516 10.27l111.908 111.643.089.088a97 97 0 0 0 7.437 5.932l-.266.177a65 65 0 0 0-6.817 5.047c-37.231 37.382-74.555 74.59-111.997 111.731-3.037 2.81-4.87 6.802-4.87 11.244v.797c.136 50.996.089 101.992.089 152.989v5.223l287.65-287.739c-95.45-95.48-191.354-191.296-287.65-287.562" style="stroke-width:45.33"/>
</svg>
