<svg xmlns="http://www.w3.org/2000/svg" width="1080" height="960">
    <path d="M924.713 0H155.287L120 167.64 201.17 58.21h113.682v742.944C314.852 904.385 468.4 960 468.4 960c-90.001-90-90.001-145.581-90.001-145.581V252.775c17.332 75.051 84.043 128.3 161.07 128.567 77.025.266 144.103-52.52 161.954-127.45l.216-1.117v561.644s0 55.58-90.001 145.58c0 0 153.547-55.579 153.547-158.844V58.21H878.83L960 167.64zM378.362 177.803V58.211h108.133c-53.797 18.523-94.465 63.156-107.916 118.44l-.216 1.117zm161.62 143.383c-42.831 0-81.445-25.8-97.835-65.37s-7.328-85.117 22.958-115.403 75.832-39.349 115.402-22.959 65.372 55.004 65.372 97.836c-.003 58.484-47.413 105.893-105.897 105.896m53.525-262.94h108.095v119.557c-13.017-55.354-53.318-100.274-106.941-119.197z" style="stroke-width:40.1813"/>
</svg>
