<svg xmlns="http://www.w3.org/2000/svg" width="1426" height="960">
    <path d="M697.653 923.297c-4.165 4.686-5.727 31.237-4.686 81.735L694.53 1080h36.442l1.562-71.844c.521-43.21-1.04-75.488-4.165-81.735-6.247-11.974-21.865-13.536-30.715-3.124m111.41-162.95c-5.206 7.81 1.561 13.015 8.33 6.247 3.644-3.644 3.644-6.768.52-8.85-3.124-1.562-7.289-.52-8.85 2.603m-502.387-171.28c0 6.247 5.207 26.03 10.933 44.252 11.454 33.84 22.386 41.649 35.922 25.51 4.686-6.248 3.124-12.495-8.85-31.757-7.81-13.016-17.7-29.675-21.345-36.964-8.33-15.618-16.66-16.138-16.66-1.04m915.749-127.028-71.323 1.562-2.603 13.536c-5.206 27.071-3.124 27.592 80.173 27.592h77.57v-17.7c0-9.372-3.123-19.263-6.247-21.866-3.644-2.603-38.524-4.165-77.57-3.124M121.34 465.163c-1.562 4.164-2.082 14.056-1.041 22.386l1.562 14.577h78.091c76.53 0 78.091 0 79.653-11.454 1.041-6.247-1.041-16.138-4.165-21.865-5.206-10.412-10.412-10.933-78.612-10.933-57.787 0-73.405 1.562-75.488 7.289m896.486-242.083c-13.015 14.577-6.768 79.653 9.892 102.04 17.7 23.947 44.251 76.008 44.251 86.42 0 12.495-9.37 13.015-14.056.52-6.247-15.618-33.84-55.184-45.293-64.555-7.809-6.247-12.494-7.288-17.18-3.123-10.412 8.33-8.33 19.262 11.453 58.828 19.263 38.525 22.387 54.144 11.974 55.185-3.644.52-22.386 0-41.128-.52-38.525-1.042-48.416 5.205-45.292 29.674l1.561 14.577 52.061 2.603 52.06 2.603 1.563 23.427c1.561 22.386-8.85 79.132-20.825 111.93-13.535 36.443-31.236 70.283-35.922 67.68-6.767-4.165-5.726-21.866 1.562-35.402 8.85-17.18 19.783-80.694 19.263-112.971-.52-28.113-.52-28.113-5.727-10.413-2.603 9.892-8.33 26.03-12.495 35.402-4.164 9.37-7.288 21.345-7.288 27.071 0 13.536-25.51 62.473-34.36 66.117-4.165 1.562-10.412.521-14.056-2.603-8.85-7.288-28.113 1.562-32.278 15.098-2.603 7.81-1.041 13.015 4.685 16.139 14.577 8.33 8.85 23.427-18.22 47.896-27.073 24.468-33.84 28.633-73.407 47.896-46.334 22.386-61.431 27.592-69.24 24.989-10.933-4.165-1.562-20.304 16.66-27.592 24.988-10.413 43.21-21.866 43.21-27.072 0-7.809-23.948-5.206-31.237 3.124-10.412 12.494-30.716 9.891-37.484-5.206-4.165-9.371-9.891-13.016-20.303-13.016-11.974 0-14.577 2.603-18.742 19.263l-4.686 19.783-52.06 2.603c-51.54 2.603-52.061 2.603-84.339 26.03-17.7 13.016-32.277 26.03-32.277 29.154 0 5.727 19.262 15.098 67.678 31.237 39.567 13.536 189.502 13.536 220.738.52 10.933-5.206 24.469-8.85 29.154-8.85 5.206 0 16.139-3.644 24.469-7.809 7.809-3.644 24.989-11.974 38.004-18.221 29.154-13.536 39.045-19.783 62.993-38.005 20.304-15.097 38.005-18.22 44.773-7.288 7.288 10.933 98.394 92.147 104.121 92.147 7.81 0 22.386-17.7 22.386-27.071 0-4.165-8.85-15.618-20.303-25.51-66.118-58.308-89.024-80.694-89.024-86.42 0-3.645 2.082-6.769 4.685-6.769 9.892 0 56.226-77.57 78.612-132.755 33.319-81.214 33.84-190.542 1.041-275.921-19.783-52.061-67.679-132.755-79.132-132.755-2.083 0-7.81 4.685-12.495 9.891m64.555 220.217c-.52 14.577-1.04 15.618-5.726 7.81-3.124-5.207-4.165-13.016-2.603-17.18 4.685-12.495 8.33-8.33 8.33 9.37m-388.373 394.1c4.686 6.768-21.865 11.974-40.607 7.81-14.056-3.125-15.098-4.166-5.727-7.81 14.577-5.727 43.21-5.727 46.334 0M299.908 76.79c-14.576 16.138-10.412 24.468 26.552 56.225 58.828 51.02 79.132 71.323 79.132 79.132 0 4.165-4.165 16.14-9.892 26.551-28.112 54.144-39.566 108.807-34.36 162.95 1.562 20.825 4.165 49.458 5.206 64.035 1.042 14.057 2.083 29.154 2.083 32.278.52 3.644 4.685 6.768 9.891 6.768 4.686 0 20.304 10.412 34.36 23.427 35.402 32.278 69.241 31.237 38.525-1.041-14.056-15.098-8.85-21.345 19.263-23.427 19.783-1.562 20.824-2.083 20.824-19.783v-18.222l-31.236-2.603c-17.18-1.562-34.36-4.685-37.484-6.768-20.304-13.015 5.727-137.44 36.442-177.006 8.85-10.933 14.057-10.933 21.345-1.041 6.248 8.85 21.866 11.453 34.881 5.726 6.247-2.603 9.371-.52 11.453 7.289 2.603 10.412 6.248 7.809 38.525-23.948 46.855-46.334 89.545-67.159 127.55-62.473 21.344 3.124 28.112 2.082 36.442-5.727 8.85-7.809 18.742-9.37 63.514-7.809l52.581 1.562 27.072-36.443L900.169 120l-11.453-10.933c-6.248-5.726-14.577-10.412-18.222-10.412-3.644 0-14.056-3.124-23.427-7.288-61.432-25.51-173.883-32.278-241.041-13.536-44.252 11.974-73.927 22.906-79.133 28.113-2.603 2.082-11.974 7.288-20.824 10.932-9.37 4.165-28.633 18.222-43.21 31.757-28.113 26.551-25.51 26.551-56.747-2.603-52.06-47.896-88.503-78.611-92.668-78.611-2.603 0-8.85 4.164-13.535 9.37m394.621 57.787c3.124 5.206-23.948 26.551-33.84 26.551-21.344 0-119.74 85.38-119.74 103.6 0 9.892-10.411 11.454-14.056 2.083-2.082-5.206-8.85-13.536-15.618-18.742s-11.974-13.015-11.974-16.659c0-15.098 107.245-85.38 131.193-85.9 3.645-.52 12.495-3.645 19.783-7.81 14.577-8.33 39.567-10.412 44.252-3.123m433.666-212.408c-5.206 2.603-9.371 8.85-9.371 12.495q0 7.809-15.618 7.809c-8.85 0-20.304 3.124-26.03 6.247-7.81 5.206-11.454 5.206-16.66 0-9.891-9.891-19.783-7.288-19.783 5.727 0 6.768-5.727 17.7-13.015 24.468-10.412 9.892-12.495 15.619-10.412 26.551 4.685 19.783-3.645 32.799-46.855 74.968-41.128 40.087-66.117 71.844-119.22 152.017-47.895 72.365-71.322 89.024-135.878 97.354-14.056 2.082-24.989 7.288-33.319 17.18-6.767 7.809-19.783 22.906-28.633 32.798-90.586 100.477-194.187 241.041-232.19 313.926-27.072 51.54-52.062 69.762-52.062 36.964 0-14.578 9.371-32.799 40.608-79.133 23.427-35.401 24.468-53.622 1.562-28.113-32.799 36.964-41.128 46.855-67.68 79.133-15.097 18.742-29.153 34.88-31.236 36.442-2.082 1.562-32.798 36.443-68.2 78.091-35.4 41.649-66.117 76.53-67.678 78.091-9.892 8.33-52.061 64.556-52.061 68.72 0 3.124 5.206 4.165 11.974 2.083 6.247-1.562 24.468-4.165 40.087-6.247 43.73-4.165 132.755-26.03 169.197-41.128 27.072-11.454 93.189-44.252 109.328-54.664 8.85-5.727 19.262-11.974 23.427-14.057 27.592-12.494 123.904-93.709 190.542-159.826 84.86-85.38 108.287-110.89 145.77-160.347 14.057-18.221 33.84-43.21 45.293-56.226 27.592-31.757 36.443-50.499 37.484-76.529.52-27.592 14.577-43.21 42.17-47.896 15.617-2.603 23.947-8.33 37.483-26.03 18.742-24.469 19.262-33.84 5.726-66.638-8.33-20.304-3.123-32.278 30.196-69.24 26.03-28.634 56.746-41.65 77.05-32.278 7.288 3.644 25.51 6.247 40.086 6.247 23.428 0 28.113-2.082 46.334-20.304s20.304-22.386 20.304-47.896c0-18.22 3.124-30.715 8.85-36.963 7.289-8.33 7.81-11.974 2.603-19.783-7.288-11.974-8.33-29.154-1.561-33.319 2.603-1.561 5.726-7.288 7.288-13.015 2.083-8.85 1.041-9.37-9.891-5.727-15.619 6.248-26.551 2.083-30.716-10.932-2.083-5.206-5.206-9.892-7.81-9.892-9.37 0-20.824-17.18-20.824-31.757 0-16.139-2.603-17.7-16.659-9.37M1143.293 51.8c25.51 8.85 35.4 43.731 19.783 66.118-20.304 28.633-67.68 21.344-77.57-12.495-6.248-22.386 4.164-46.334 22.385-53.102s17.7-6.768 35.402-.52M961.6 271.497c9.37 19.783 2.603 39.566-16.14 48.937-13.014 6.768-17.7 7.288-28.112 1.562-39.046-20.825-27.072-69.241 16.139-66.118 17.18 1.042 22.386 4.165 28.113 15.619m-355.575 309.24c16.66 10.933 17.18 35.922 1.562 52.582-13.536 14.577-23.428 15.098-40.087 2.082-24.469-18.742-13.015-62.473 16.66-62.993 5.205 0 15.097 3.644 21.865 8.33m91.106-690.845c-2.603 5.726-5.206 41.648-5.206 80.173 0 76.53 3.124 85.9 28.633 79.653l13.016-3.124v-77.05c0-79.652-2.604-89.544-21.866-89.544-4.685 0-11.453 4.685-14.577 9.892" style="stroke-width:.520607"/>
</svg>
