<svg xmlns="http://www.w3.org/2000/svg" width="1648" height="960">
    <path d="M1340.283 654.795c-6.086 6.085-4.868 38.34 1.217 38.34 6.695 0 12.78-15.214 12.78-31.037 0-11.563-6.694-15.215-13.997-7.303m17.649-61.466c-5.477 14.605-4.26 45.034 1.826 45.034 6.694 0 12.78-15.214 12.78-33.472 0-17.648-9.737-24.951-14.606-11.562m22.517-70.595c0 15.214 1.217 21.3 2.434 13.388 1.218-7.302 1.218-19.474 0-27.385-1.217-7.303-2.434-1.218-2.434 13.997M193.727 446.662c0 13.389 1.217 18.257 2.434 10.346 1.217-7.303 1.217-18.258 0-24.343-1.825-5.478-3.043.608-2.434 13.997m32.863-175.27c-7.911 7.303-4.26 26.169 4.869 26.169 5.477 0 9.128-5.477 9.128-15.215 0-14.605-6.085-19.474-13.997-10.954m1136.819-9.737c-6.694 3.043-20.083 10.954-30.429 17.649-9.737 6.694-24.343 14.605-31.646 18.257-19.474 7.911-18.257 23.734 1.218 20.083 7.911-1.826 18.257-6.695 21.908-11.563 3.652-4.869 12.172-8.52 18.257-8.52 6.695 0 11.563-2.434 11.563-5.477s8.52-8.52 18.866-12.172c10.346-3.651 17.649-9.737 16.432-13.997-3.652-9.737-11.563-10.954-26.169-4.26M417.683 16.399c-7.912 5.477-31.038 26.169-51.73 45.035-33.47 32.254-52.337 43.208-52.337 30.428 0-4.868-74.246-61.466-96.155-73.637-37.123-20.083-20.691 10.954 18.866 35.297 12.172 7.303 22.518 16.432 22.518 19.474s4.26 5.478 9.128 5.478 9.129 3.043 9.129 6.085c0 3.652 6.694 9.13 14.606 12.172 23.734 8.52 24.951 26.169 3.651 49.295-9.737 11.562-18.257 24.951-18.257 30.428s-4.26 11.563-9.129 13.998c-4.868 1.825-9.128 9.737-9.128 18.257 0 7.911-4.26 15.823-9.13 18.257-10.953 4.26-12.78 36.515-1.216 32.863 3.651-1.826 8.52-9.129 9.128-17.649 1.218-7.911 6.086-17.04 10.955-19.474s8.52-9.737 8.52-15.214c0-6.086 3.043-13.998 6.694-17.649 8.52-8.52 21.909-31.646 27.386-46.252 2.434-6.086 10.346-10.346 18.257-10.346 17.04 0 75.464 41.384 75.464 52.947 0 3.651-7.912 18.865-17.04 33.471-51.12 76.68-74.247 148.493-74.247 228.216 0 54.772 0 55.38-21.908 80.332l-21.91 24.952h-52.945c-60.25 0-93.112 6.085-96.764 17.648-2.434 6.695 3.652 7.303 29.82 4.26 18.258-1.825 59.641-4.26 92.504-4.868 59.64-1.826 59.64-1.217 73.638 16.431 8.52 10.346 16.431 24.952 17.648 33.472 4.869 24.343 18.258 55.38 39.558 91.895 20.691 37.123 20.691 51.12-1.217 60.857-26.17 12.172-42.6 23.126-48.078 32.863-3.043 5.478-4.26 10.955-3.043 11.563 2.435 2.435 35.298-12.78 56.598-26.777 10.346-6.694 21.3-13.389 24.951-15.214 3.652-2.435 25.56 14.605 48.078 36.514 42.6 42.6 83.983 71.203 130.844 92.504 15.214 6.694 37.731 16.431 50.511 21.908s27.995 10.346 34.69 10.346c6.085 0 27.385 4.26 46.86 9.129 18.865 4.868 52.945 9.128 74.854 9.128s55.99-4.26 74.855-9.128c19.474-4.869 40.775-9.129 46.86-9.129 11.563 0 31.038-7.303 81.55-30.429 27.385-12.78 41.991-7.911 52.337 18.258 3.043 8.52 11.563 23.125 17.649 33.471 6.694 9.737 12.171 23.126 12.171 28.603.609 6.086 5.477 13.389 11.563 16.432 5.477 3.043 15.823 18.257 22.517 33.471 10.955 25.56 24.952 38.95 32.255 31.646 1.217-1.825-5.477-20.691-16.432-41.383-10.345-21.3-18.865-41.992-18.865-45.643 0-4.26-4.26-9.737-9.738-12.78-9.737-5.477-20.691-21.909-32.863-49.903-3.651-7.912-9.737-16.432-13.388-18.866-9.13-5.477 0-28.603 12.78-32.863 6.085-1.826 27.386-18.866 47.469-38.34 57.814-55.99 53.554-53.555 77.289-35.298 11.563 8.52 23.734 15.823 26.777 15.823 2.434 0 11.563 6.695 18.866 14.606l13.997 15.214-55.989 55.38c-30.429 30.43-54.163 57.207-52.337 59.033 3.651 3.651 21.3-11.563 80.94-69.987 21.909-20.691 41.992-37.731 45.643-37.731s16.432 7.303 28.603 16.431c40.775 31.038 60.25 41.992 65.726 35.906 5.478-4.868-22.517-34.08-32.863-34.08-4.26 0-7.911-2.434-7.911-5.477 0-3.652-7.303-9.737-16.432-13.997-20.083-9.129-25.56-35.298-11.563-47.47 5.478-4.26 9.738-10.954 9.738-15.214s4.26-10.954 9.128-15.214 9.129-12.172 9.129-18.257 4.26-12.172 9.129-14.606c10.954-4.26 12.78-36.515 1.825-32.863-4.26 1.826-9.128 9.128-9.737 17.648-1.217 7.912-6.086 17.04-10.954 19.475-4.869 2.434-8.52 10.346-8.52 17.04s-4.26 13.389-9.129 15.214c-4.869 2.435-9.129 7.303-9.129 11.563 0 9.129-19.474 27.386-29.82 27.386-4.26 0-18.257-7.911-30.429-17.04-12.171-9.737-26.777-19.474-32.254-21.3-6.086-2.434-10.954-6.086-10.954-8.52 0-9.129 54.771-99.198 60.249-99.198 3.042 0 8.52 4.26 12.78 9.129s15.214 9.128 24.951 9.128c11.563 0 17.649-3.042 17.649-9.128 0-5.477-5.477-9.129-13.389-9.129-7.303 0-19.474-5.477-26.777-12.78-13.997-12.78-13.389-27.386 3.043-68.16 3.651-9.738 6.694-38.95 6.694-65.118 0-65.118 6.086-69.378 101.024-71.203 71.812-1.826 152.144-14.606 163.098-26.778 4.868-5.477-3.652-6.085-32.863-2.434-21.909 2.434-63.292 5.477-92.504 6.086-29.211 1.217-65.117 3.651-79.723 5.477-34.08 5.477-59.032-3.651-59.032-21.3 0-15.215-15.823-71.812-27.386-99.806-49.903-116.238-126.583-199.613-231.867-252.56C924.017 14.574 896.023 8.489 788.305 8.489c-105.892 0-133.886 5.477-209.958 42.6-45.643 22.517-109.544 67.552-136.321 96.763-8.52 8.52-17.649 15.823-20.692 15.823-12.171 0-71.203-49.294-71.203-59.64s33.472-47.469 69.986-77.29C440.809 9.705 438.374.577 417.683 16.4m452.78 74.246c54.163 11.563 109.543 37.123 158.23 73.03 17.04 12.17 37.731 24.342 46.251 26.168 11.563 3.043 17.04 9.129 20.083 23.126 1.826 10.346 10.955 28.603 20.083 40.774 15.823 20.692 26.778 41.992 47.47 89.461 13.388 31.037 23.125 88.852 16.43 95.546-12.17 12.172-25.56 0-25.56-21.908 0-20.692-6.694-42.6-29.211-97.981-11.563-28.603-48.686-82.158-56.598-82.158s-78.506 69.986-78.506 77.898c0 8.52-115.63 125.975-128.41 130.844-6.085 1.825-15.214-1.826-23.125-10.346-13.389-13.997-17.04-27.995-7.303-27.995 2.434 0 29.82-24.951 60.249-54.771 30.429-30.43 58.423-54.772 63.292-54.772 9.737 0 90.069-74.855 90.069-83.984 0-9.737-50.512-51.728-79.723-65.726-48.687-24.343-68.77-31.646-105.893-38.949-67.552-13.388-85.809-13.997-120.498-3.651-18.257 5.477-40.166 9.737-48.686 9.737s-23.125 4.26-32.863 8.52c-9.128 4.869-21.3 10.955-26.168 12.78-23.126 9.129-66.335 38.95-94.33 65.118-26.777 25.56-39.557 29.212-39.557 11.563 0-11.563 67.552-66.335 97.98-79.115 7.912-3.651 18.866-9.129 23.735-11.563 30.429-17.04 51.12-25.56 62.683-25.56 7.303-.609 27.386-4.26 43.818-9.129 34.08-9.737 89.46-8.52 146.058 3.043m69.377 149.71c18.258 18.866 13.998 37.123-6.694 25.56-7.303-4.26-16.431-11.563-20.083-15.823-4.868-6.086-30.429-6.694-117.455-3.651-60.857 2.434-110.76 6.694-110.76 9.737 0 2.434 50.511 4.868 111.977 4.868h111.978l9.737 15.215c9.738 14.606 9.129 15.214-48.077 73.637-53.555 54.772-59.032 58.424-84.592 60.25-14.606 1.216-32.255 4.868-38.949 8.52-7.303 3.65-17.649 6.694-23.734 6.694-13.389 0-135.713-121.107-135.713-134.495 0-5.478 5.477-11.563 12.172-13.39 6.694-1.825 12.171-6.085 12.171-9.736 0-10.346-18.866-7.912-27.386 3.043-9.128 12.78-33.471 6.085-33.471-9.13 0-6.085 6.086-16.43 13.997-23.733 13.389-12.78 19.474-13.39 174.661-14.606 88.852-1.217 166.75-.609 173.444.608 6.695 1.217 18.866 8.52 26.777 16.432m-453.997 6.694c2.435 1.826-1.826 12.172-9.737 22.517-39.557 54.164-70.595 167.967-63.9 234.91 2.434 24.952-15.215 34.08-21.91 10.955-8.52-34.08 3.652-125.975 24.344-172.227 38.34-88.852 55.989-111.978 71.203-96.155m65.118 47.469c0 8.52-4.26 17.04-9.129 18.866-6.694 3.043-9.128 13.997-9.128 46.252 0 26.168 2.434 40.774 6.085 38.34 3.652-1.826 6.086-12.78 6.086-23.735 0-38.34 6.694-58.423 19.474-58.423 7.303 0 37.124 24.952 73.03 60.858 60.857 60.857 60.857 61.466 56.597 83.983-3.043 12.172-4.869 33.472-4.869 46.86-.608 22.518-4.26 27.995-57.814 80.332-32.255 31.038-62.684 56.598-67.552 56.598-23.126 0-31.037-21.909-31.037-85.2 0-36.515-2.435-60.858-6.086-60.858-9.737 0-7.912 127.8 2.434 139.364 4.26 5.477 10.346 15.822 12.172 23.125 6.085 20.083-10.346 18.258-29.82-2.434l-15.215-17.04V476.482c0-157.621.609-165.533 12.78-181.355 17.04-21.3 41.992-21.91 41.992-.609m497.206 58.423c10.346 13.389 10.954 24.952 6.086 175.879-4.26 139.972-6.695 163.098-15.823 176.486-15.823 21.91-34.69 20.692-32.863-2.434.608-10.346 5.477-20.692 10.954-23.126 13.389-7.911 13.997-320.11 0-324.979-9.129-3.652-12.171-21.3-5.477-28.603 5.477-4.869 23.734 7.911 37.123 26.777m-41.383 12.78c2.434 7.912 3.651 80.332 1.826 161.881l-3.043 148.493-14.606 6.694c-13.389 6.086-18.866 1.826-77.898-56.597-59.64-59.64-72.42-79.115-57.815-88.244 3.652-1.826 6.086-17.649 6.086-35.297v-31.038l54.772-53.554c30.429-29.212 54.772-56.598 54.772-59.64 0-3.652 6.694-6.086 15.214-6.086 10.346 0 17.04 4.26 20.692 13.388m-197.179 91.287c9.129 8.52 17.04 23.125 18.866 35.906 3.043 17.04.609 24.951-12.78 40.774S795 553.163 775.525 553.163c-40.166 0-68.16-40.166-51.12-73.03 18.866-37.123 57.206-47.468 85.2-23.125m377.926 31.037c4.26 12.172-19.475 116.238-27.386 118.672-3.652 1.217-10.955.609-16.432-1.217-7.911-3.043-7.911-5.477-.608-20.083 4.868-9.737 10.954-39.557 13.388-66.943 4.26-47.47 4.869-49.903 16.432-43.818 6.086 3.652 12.78 9.738 14.606 13.389m-469.82 79.723c9.737 15.215 9.128 15.823-46.86 69.378-30.43 30.429-69.378 65.726-86.419 79.115-16.431 13.388-45.643 39.557-63.9 58.423-21.3 21.909-38.34 34.08-46.86 34.08-7.912 0-13.998-1.826-13.998-4.868 0-2.435 24.343-29.212 54.772-59.032 29.82-29.82 54.772-59.032 55.99-65.726 3.042-17.65 108.934-124.758 124.149-125.367 7.911-.608 17.04 5.477 23.125 13.997m183.18 68.16c35.298 35.907 63.901 66.944 63.901 69.987s-5.477 10.954-12.171 17.649c-11.563 11.563-20.083 12.171-158.23 12.171s-146.667-.608-158.23-12.171c-6.694-6.695-12.171-13.389-12.171-14.606 0-1.826 26.169-29.212 58.423-60.858 54.772-54.771 59.64-58.423 83.375-58.423 13.997-.609 32.254-4.26 40.774-9.129s18.258-8.52 22.518-9.128c4.26 0 36.514 29.211 71.812 64.509m249.517-4.26c5.477 9.738-38.95 79.724-48.078 76.073-15.823-6.086-13.997-17.04 6.695-49.904 19.474-29.82 33.471-38.948 41.383-26.168M989.135 756.428c-15.214 13.997-17.04 14.606-185.615 18.257l-171.01 4.26-17.04-18.257c-16.432-17.04-17.04-31.038-1.826-31.038 4.26 0 12.78 6.086 18.866 13.389 10.954 12.78 12.78 12.78 161.272 8.52 144.841-4.26 150.318-4.868 167.967-18.866 18.257-13.997 18.257-13.997 30.429-2.434 11.563 11.563 11.563 11.563-3.043 26.169m93.112-21.909c-3.043 24.952-75.463 82.158-88.243 69.378-5.477-5.478 3.043-17.04 32.254-45.644 40.166-40.166 58.424-47.468 55.99-23.734M444.46-6.118c-6.086 9.128 1.826 15.214 9.737 7.303 4.26-4.26 4.26-7.912.609-10.346-3.652-1.826-8.52-.609-10.346 3.043" style="stroke-width:.608576"/>
</svg>
