<svg xmlns="http://www.w3.org/2000/svg" width="1200" height="960">
    <path d="M614.07 0c.87 263.409 225.712 468.226 465.11 465.344.51-102.56-48.065-244.748-158.398-342.296C833.409 45.791 730.976 5.133 614.069 0m-27.964.938C337.406 4.69 125.815 213.38 121.583 466.224 396.517 460.19 586.797 231.87 586.106.938M119.766 495.3c11.045 154.096 74.623 278.226 197.322 371.842 67.623 51.595 225.526 105.207 270.308 89.81C573.77 679.106 356.461 501.574 119.766 495.3m960.469.118C807.49 502.23 615.63 723.274 614.069 960c138.728-8.194 255.622-60.698 346.986-164.729 74.887-85.362 113.657-186.008 119.18-299.853" style="stroke-width:30.0147"/>
</svg>
