<svg xmlns="http://www.w3.org/2000/svg" width="1134" height="960">
    <path d="M132.881-119.996c-.989-.052-1.777.466-1.899 1.625-.278 2.37-.14 3.206 2.23 32.48 1.255 13.802 2.788 33.177 3.625 43.214.697 9.898 1.95 20.353 2.787 23.002.697 2.648 1.814 16.172 2.232 29.973.558 16.31 1.394 26.765 2.649 29.832 1.115 2.509 1.95 6.69 1.95 9.06s.976 5.716 2.09 7.388c2.928 4.043 4.324 15.196 2.233 17.566-.837 1.115-2.927 1.671-4.74 1.393-2.648-.558-3.625.418-6.134 6.134-1.673 3.624-5.298 14.22-8.086 23.42s-5.994 19.795-7.109 23.698c-3.067 10.037-4.6 18.54-4.6 26.207-.14 7.528-1.673 5.578 21.467 26.767 27.881 25.511 50.186 46.28 52.138 48.51.975 1.395 2.927 2.372 4.32 2.372 5.02 0 19.516-25.37 19.516-34.153 0-2.51.976-5.298 2.091-6.273 1.394-1.116 2.091-4.182 2.091-8.922 0-4.043.837-8.505 2.091-10.178 1.116-1.533 2.371-5.576 2.929-8.921s1.533-7.248 2.23-8.642 1.812-5.716 2.51-9.76c.557-4.042 1.533-8.92 2.09-11.012.697-2.927.28-4.183-2.648-5.995-5.158-3.346-22.584-7.666-31.646-7.666-5.855 0-8.782-.698-11.57-2.928-4.6-3.625-4.6-7.388-.139-15.891 5.716-10.456 9.06-21.61 9.06-29.416S188.417 31.207 181.168 9.6c-2.37-7.249-4.88-15.194-5.438-17.424-.697-2.37-3.763-11.432-6.969-20.214-13.522-37.36-17.008-46.979-18.123-50.882-1.952-6.97-12.266-35.13-13.939-38.196-.941-1.804-2.545-2.813-3.817-2.88m866.522 4.053c-.663.04-1.327.464-1.893 1.335-.418.837-2.23 5.995-4.182 11.57-1.812 5.577-4.6 13.244-5.993 17.148-10.037 25.929-19.238 51.3-28.16 77.368-2.23 6.552-5.02 14.358-6.134 17.425-3.346 9.061-14.916 41.403-16.31 46.003-.697 2.37-.976 9.76-.419 17.008 1.115 16.031-.418 19.515-17.286 39.589-6.83 8.085-12.685 15.614-13.242 17.008-.558 1.673.975 4.461 5.297 9.34 3.485 3.904 10.036 12.825 14.776 19.935 4.74 6.97 11.57 16.588 15.195 21.188 9.619 12.407 9.758 12.964 8.783 25.65-1.255 16.589 0 16.45 22.166-3.484 10.176-9.2 23.836-21.748 30.249-27.882l11.71-11.429-1.114-8.086c-.558-4.461-1.813-9.34-2.929-10.874s-1.952-4.042-1.952-5.436c0-1.534-.835-4.6-1.95-6.97-3.067-6.97-8.225-24.536-9.898-33.597-1.115-7.11-2.091-8.643-5.576-10.594l-4.183-2.371.42-13.104c.138-7.249 1.253-16.868 2.368-21.468.976-4.6 2.23-13.104 2.648-18.82.419-5.715 1.813-18.678 2.929-28.575 6.273-55.483 7.667-70.122 8.225-88.523.279-11.152.277-22.303-.141-24.813-.48-2.875-1.945-4.63-3.404-4.541M716.844-90.728c-.928.06-1.712.812-2.183 2.328-.418 1.394-2.369 10.037-4.32 19.238-2.092 9.2-4.601 20.212-5.577 24.394s-2.788 12.686-4.182 18.82c-1.255 6.133-3.206 14.777-4.321 19.099-1.116 4.46-1.952 12.686-1.952 18.262 0 7.806-1.813 17.425-7.807 40.844-4.182 16.729-8.225 33.317-8.922 36.802-.557 3.485-2.51 11.293-4.182 17.427-1.673 6.133-3.485 14.217-4.182 18.12-.558 3.765-1.951 10.038-3.206 13.942-1.115 3.764-3.485 13.243-5.297 20.91-3.764 16.729-8.225 25.372-13.522 26.626-2.091.558-5.855 2.23-8.365 3.625-3.763 2.37-6.968 2.787-18.12 2.787-7.389-.14-38.338-.138-68.589-.277-49.348 0-55.62-.28-59.941-2.51-5.855-2.788-8.366-7.807-12.269-23.978-6.134-25.092-15.891-65.241-17.982-74.581-1.255-5.437-3.068-12.964-4.043-16.728-.976-3.904-3.485-14.22-5.436-23.002-2.091-8.782-4.601-19.237-5.577-23.001-1.115-3.904-3.206-12.685-4.879-19.516-1.672-6.97-3.765-16.032-4.88-20.214-.976-4.182-2.787-12.128-4.041-17.425-1.255-5.437-3.347-15.055-4.88-21.607-1.534-6.552-3.206-14.36-3.764-17.426-1.952-11.85-6.133-13.103-8.085-2.37-3.485 18.402-3.067 130.9.558 140.24.697 1.951 1.951 12.546 2.648 23.559.837 10.873 2.369 24.117 3.484 29.554 3.206 14.637 2.93 40.984-.416 47.675-1.394 2.928-3.067 9.34-3.625 14.358-.836 8.225-4.322 21.469-7.668 28.578-.697 1.534-2.928 6.832-5.02 11.85-4.46 11.153-21.885 45.724-27.183 54.367-4.46 7.25-6.272 13.242-4.32 14.497 3.624 2.23 13.243-4.46 31.365-21.746 9.2-8.782 12.408-10.177 13.941-6.134.418.976 7.527 10.734 15.891 21.886 8.225 11.013 18.82 25.372 23.42 31.785 4.6 6.412 9.898 13.66 11.85 16.03s4.74 6.135 6.273 8.505c4.461 6.97 16.31 18.82 18.959 18.82 3.066 0 11.71-9.76 22.025-25.234 11.85-17.426 10.873-17.006 41.263-17.703 14.08-.418 30.251-.14 35.967.278 9.619.976 10.454 1.254 12.824 5.436 1.394 2.51 5.158 7.389 8.225 10.874 3.206 3.485 7.528 9.897 9.759 14.219 5.297 10.315 11.013 15.752 14.637 14.08 1.534-.698 12.407-14.498 24.117-30.53 23.001-31.504 38.196-51.16 49.07-63.845 7.946-9.062 10.594-8.782 10.594.976 0 5.576.557 6.412 8.921 13.103 4.88 4.043 9.341 7.25 9.76 7.25.557 0 4.32 2.648 8.502 5.715 12.128 9.2 15.474 4.322 7.807-11.012-2.23-4.461-4.74-10.596-5.577-13.802-.836-3.067-2.51-6.133-3.624-6.551-1.255-.419-2.091-2.51-2.091-4.74s-.976-4.88-2.091-5.856-2.091-2.787-2.091-4.042-.976-4.042-2.091-6.273c-2.928-5.576-8.084-21.748-10.872-33.597-4.182-18.402-6.832-94.793-7.11-206.315-.28-77.23-.559-86.989-2.51-91.729-1.569-3.398-3.519-5.216-5.067-5.115m146.698 3.196c-.52-.044-.947.352-1.252 1.223-.278.976-1.255 5.297-1.952 9.48-1.254 7.109-1.952 10.594-5.995 26.486a5349 5349 0 0 1-4.041 16.729c-1.255 5.715-3.068 13.243-3.905 16.728-3.903 15.613-7.248 30.25-10.594 45.305-.976 4.6-3.484 15.614-5.436 24.396-2.509 10.455-3.486 17.983-2.928 21.468.697 4.6-.14 11.85-2.928 25.511-.837 4.043-4.74 4.181-4.74.278 0-1.673-1.114-3.207-2.787-3.625-2.37-.697-2.788-1.95-2.788-8.78 0-8.504-2.091-12.547-6.691-12.547-1.255 0-4.182-.976-6.412-2.091-2.091-1.115-6.831-2.091-10.456-2.091-4.74 0-7.109-.698-8.921-2.79-3.067-3.624-3.485-3.624-10.455 1.534-6.134 4.461-7.39 8.365-3.766 11.85 1.394 1.394 2.091 4.879 2.091 9.48q0 7.527 2.091 9.2c1.255.976 3.764 5.157 5.716 9.2 1.951 4.182 4.044 7.807 4.88 8.225.697.418 2.927-1.812 4.879-5.158 4.042-6.552 12.406-12.824 15.333-11.709 2.788 1.115 2.371 5.436-.835 9.618-2.788 3.485-3.905 10.735-1.674 10.735 2.788 0 9.898-9.48 10.735-14.36.557-2.788 1.533-5.436 2.09-5.854 2.092-1.255 5.576 6.273 6.413 14.219.557 4.46 1.952 9.2 3.067 10.594 2.927 3.345 4.043 23.56 1.395 25.652-.976.836-10.874 4.738-22.026 8.642-11.152 4.042-22.305 8.225-24.815 9.34s-5.158 1.952-5.715 1.952c-.697 0-6.273 1.951-12.547 4.321-12.267 4.6-13.8 6.552-11.43 14.08.836 2.51 2.928 10.177 4.88 17.147 1.812 6.83 5.156 16.866 7.108 22.303 2.09 5.297 4.741 13.523 5.856 18.123 2.091 8.922 21.886 50.882 26.347 56.04 1.394 1.672 7.806 5.576 14.08 8.782 8.782 4.183 13.103 5.577 18.4 5.577 6.413 0 7.249-.42 11.71-5.995 2.648-3.206 6.274-8.503 8.086-11.71 5.715-9.897 19.935-33.874 22.444-37.777 1.394-2.09 2.928-4.741 3.486-5.856.697-1.255 6.132-10.455 12.266-20.631s12.128-20.214 13.243-22.305c4.182-7.667 6.692-10.455 9.062-9.48 1.394.419 1.952 1.813 1.534 3.207-1.812 6.412-2.37 18.262-.976 19.099.836.557 1.533 2.09 1.533 3.345 0 1.394 1.254 4.74 2.788 7.667 1.533 2.788 2.787 5.994 2.787 7.109 0 2.37 6.553 6.83 7.668 5.158.418-.836 1.394-5.577 2.091-10.874.697-5.158 1.812-11.709 2.649-14.357.836-2.65 1.533-9.899 1.533-16.032 0-10.456-.278-11.709-4.878-18.679-2.649-4.043-4.88-7.669-4.88-7.948 0-.418-3.484-6.69-7.667-13.939-4.182-7.388-7.667-13.8-7.667-14.218 0-.558-3.764-6.972-8.365-14.22-13.382-21.19-16.728-29.413-16.728-40.147-.14-5.158-.698-13.802-1.395-19.1-1.533-10.734-2.508-42.935-3.344-111.521-.558-36.524-.976-45.587-2.788-49.769-1.725-3.93-3.32-6.145-4.464-6.24m-593.5 1.527c-.528.079-1.156.707-1.47 1.648-.418 1.255-.837 25.649-.837 54.226 0 41.96.42 54.09 2.232 62.315 2.928 13.662 2.928 39.172 0 46.003-1.254 2.928-2.232 6.412-2.232 7.946s-.834 4.879-1.95 7.388c-.976 2.51-3.206 8.084-4.74 12.266-4.46 12.407-14.359 37.918-16.45 42.936-1.115 2.51-1.952 5.995-1.952 7.668s-.976 4.322-2.091 5.716c-1.115 1.533-2.091 3.903-2.091 5.297 0 1.254-3.484 12.825-7.666 25.51-4.182 12.826-7.668 23.977-7.668 24.814 0 .975 6.971 10.178 15.475 20.494s17.982 22.024 21.188 25.927c24.814 30.25 42.937 51.858 44.749 53.391 2.23 1.813 11.152 1.116 14.08-1.253 1.673-1.255 33.456-15.334 34.71-15.334.558 0 2.79-1.394 5.02-3.067 2.927-2.091 7.526-9.76 15.054-25.373 16.728-34.432 19.517-40.566 20.632-44.888.558-2.23 3.068-8.502 5.577-13.8 2.51-5.436 5.017-12.266 5.575-15.333.418-3.067 1.952-7.25 3.067-9.34 1.812-2.928 1.813-4.182.419-5.855-2.091-2.37-15.614-6.553-32.203-9.759-26.487-5.158-37.5-8.363-48.652-13.8-17.983-8.922-20.77-15.754-11.57-28.997 7.807-11.431 10.873-18.68 8.922-22.583-.837-1.673-1.812-7.109-2.23-12.127-.279-5.019-1.672-11.015-2.788-13.245-1.254-2.37-2.231-5.018-2.231-5.994 0-1.115-.835-3.625-1.95-5.576-1.952-4.043-3.208-7.388-9.202-25.79-2.23-6.83-4.462-14.636-5.02-17.424s-1.393-5.855-2.09-6.692c-1.534-1.951-6.831-18.402-6.831-21.051 0-1.255-.835-5.017-1.95-8.642-1.115-3.485-2.928-10.873-4.182-16.17-7.667-35.549-14.22-60.083-16.171-61.337a.63.63 0 0 0-.482-.115M601.45 25.162c-4.757.087-10.019.54-13.085 1.307-2.649.697-13.663 1.95-24.397 2.787l-19.515 1.395-7.25 7.108c-7.388 7.249-11.57 8.225-11.57 2.648 0-1.533-.977-3.762-2.232-5.017-2.788-2.788-4.6-1.395-9.618 7.109-1.951 3.345-4.181 6.134-4.878 6.134-2.23 0-13.662-5.297-14.499-6.83-.557-.837-3.345-1.534-6.412-1.534-4.6 0-5.715.697-8.364 5.158-5.994 10.037-5.018 22.723 3.625 43.354 1.115 2.51 1.95 5.298 1.95 6.273 0 2.788 25.093 26.765 31.366 29.971 3.067 1.534 7.11 4.46 9.062 6.412 4.88 5.298 12.964 8.783 25.232 11.013 11.849 2.23 12.824 1.953 21.188-5.575 5.715-5.158 7.111-5.437 12.13-2.51 5.297 3.067 16.727 2.51 29.552-1.533 13.8-4.182 20.352-7.25 22.025-10.316 2.37-4.461 23.7-70.258 23.7-73.046 0-1.673-1.534-5.298-3.486-8.225-3.624-5.158-3.625-5.158-13.383-5.158-7.807 0-10.593-.558-13.94-3.068-3.484-2.648-4.74-2.927-8.224-1.533-3.764 1.394-4.321 1.256-5.855-1.393-.836-1.673-2.23-3.485-3.067-4.043-1.046-.697-5.298-.975-10.055-.888m-216.264 45.96c-2.893-.065-4.585 1.018-7.878 4.556-5.158 5.715-7.668 6.133-11.292 2.23-5.716-6.274-8.365-2.093-6.274 10.175 1.255 7.946 6.136 18.681 12.13 26.906 1.812 2.37 3.206 5.576 3.206 7.249 0 1.533.556 3.345 1.393 3.763 1.394.837 12.408-4.46 14.36-6.969.557-.836.695-5.437.277-10.455-.418-5.019-.697-10.595-.557-12.546.139-1.952.279-8.226.418-13.941l.14-10.456-4.6-.418q-.704-.08-1.323-.094M198.35 277.34c-2.474.017-6.03 2.352-10.351 7.022-9.619 10.316-8.922 12.965 3.763 14.08 4.183.418 4.183.558 5.02 10.874.836 9.2.557 10.874-1.952 13.522-2.51 2.788-2.65 4.32-1.814 16.17.558 9.34.28 16.311-1.254 24.118-3.206 16.867-2.09 33.176 2.929 44.747 1.115 2.37 1.95 4.74 1.95 5.297 0 .558 2.091 5.436 4.6 11.013 2.51 5.436 6.413 15.473 8.365 22.444 2.09 6.83 4.74 15.196 5.854 18.541 3.207 9.62.28 12.685-6.83 7.109-2.091-1.673-4.739-2.51-5.994-2.091-2.788 1.115-1.952 6.971 3.903 26.348 9.618 32.202 11.57 43.773 9.479 58.968-1.952 15.474-.418 22.444 7.668 31.923 8.364 9.898 9.898 14.776 6.553 22.164-2.65 5.855-9.76 13.8-17.985 20.073-6.691 5.019-10.454 18.542-9.757 34.852.419 10.873.836 12.825 4.879 18.82 2.37 3.763 4.878 8.781 5.436 11.15.418 2.51 2.65 6.694 4.88 9.482s4.041 6.132 4.041 7.247c0 2.788 9.202 9.62 12.269 9.063 1.394-.28 2.509-1.951 2.787-4.321.28-2.649 1.255-3.766 3.206-3.766 1.394 0 2.649.837 2.649 1.952 0 1.116 1.395 4.323 2.928 7.11 2.51 4.183 2.788 6.273 2.091 13.243-1.115 9.201.837 15.614 6.134 20.215 3.346 3.066 9.757 14.776 9.757 17.843 0 1.115.837 2.787 1.953 3.763 1.115.837 2.23 3.624 2.51 5.994.557 5.576 5.296 6.691 11.012 2.51 2.09-1.673 4.6-2.927 5.436-2.927 1.254 0 7.947 3.067 15.335 7.25 6.413 3.624 10.176 4.04 24.395 3.622 9.897-.279 16.869-1.255 19.517-2.649 3.904-1.812 4.183-2.648 4.183-9.479 0-4.321.697-7.805 1.533-8.084 2.23-.697 6.132 3.345 6.132 6.412 0 1.394.976 3.345 2.091 4.32 1.116.977 2.091 3.487 2.091 5.578 0 2.09.976 4.6 2.091 5.576s2.091 2.508 2.091 3.484c0 1.115 1.255 4.601 2.649 8.087 2.091 4.879 3.764 6.551 8.364 8.364 7.528 3.067 16.032 4.32 18.68 2.926 4.183-2.51 23.421-24.813 25.373-29.414 2.51-5.854 5.017-5.436 7.108 1.115.697 2.65 2.092 6.274 2.929 8.226 2.23 5.436.836 7.248-3.764 4.878-3.903-2.09-4.042-1.95-8.922 4.88-2.788 3.904-5.019 7.527-5.019 8.085 0 1.952 5.436 12.547 6.97 13.522.697.419 1.394 1.813 1.394 3.068 0 1.115 1.116 3.764 2.51 5.715 3.346 4.88 5.855 19.238 5.855 33.457 0 6.412.697 11.71 1.533 12.128 4.043 2.509 15.335-5.02 12.965-8.644-1.812-2.928 2.23-15.753 5.017-15.753 1.813 0 8.364 8.226 8.364 10.735 0 .419.837 1.952 1.953 3.068 1.115 1.254 2.37 3.902 2.928 5.993.836 3.346.417 3.903-2.928 4.74-2.091.557-4.88.279-6.274-.697-6.551-4.043-9.478.837-5.854 9.759 2.37 6.273 6.134 7.945 10.455 4.878 4.6-3.206 9.898-2.788 13.661 1.254l3.345 3.486-5.993 6.134c-6.691 6.831-6.97 10.037-1.254 13.243 4.043 2.37 4.32 2.23 17.006-3.206l5.297-2.371-.835 7.668c-.558 4.321-.419 7.807.139 7.807 3.346 0 6.412-4.322 7.527-10.456 1.533-7.945 4.044-11.292 9.62-12.407 5.576-.976 15.333-7.388 15.333-9.898 0-2.927-4.6-4.878-12.127-5.017-14.08-.279-17.705-4.182-10.874-11.57 2.788-2.928 4.46-3.766 7.388-3.208 5.019.976 10.037-1.254 10.037-4.46 0-3.067 3.485-6.274 5.576-5.02 1.813 1.116 1.813 7.25 0 8.365-3.066 1.951-1.254 7.39 3.625 11.153 4.322 3.346 4.88 4.32 4.182 8.085-.976 5.018-7.109 14.637-14.218 22.583-9.201 10.455-12.686 15.334-11.99 17.286.28.975 3.765 3.345 7.807 5.158 10.177 4.74 23.28 4.601 32.481-.278 6.97-3.625 8.922-3.764 25.093-1.115 6.83 1.115 12.266-1.673 14.357-7.25 1.673-4.042 4.323-5.296 9.063-4.181 4.6 1.115 4.46 3.624-.699 8.503-2.23 2.23-4.182 5.157-4.182 6.412 0 2.23.976 2.37 7.388 1.813 14.777-1.533 13.523.557 13.523-20.771 0-18.402.976-22.583 4.6-18.959.837.837 1.952 6.83 2.51 13.104 1.255 15.613 1.812 17.006 8.364 19.655 17.426 6.97 36.384 4.043 68.167-10.594 5.019-2.37 11.851-5.437 15.336-6.97 10.595-4.6 10.455-4.462 10.594-11.711.14-13.522.557-15.89 3.345-18.679 4.74-4.74 6.972-2.23 6.972 7.527 0 4.88.835 9.758 1.81 11.152 1.674 2.37 2.092 2.23 6.274-1.115 8.085-6.97 14.219-16.727 14.219-22.86 0-5.856-4.6-15.476-7.388-15.755-.976-.14-3.903-.277-6.551-.416-3.904-.14-5.02-.838-6.135-3.905-1.533-4.46.001-8.084 7.11-16.448 2.51-2.928 4.6-5.717 4.6-6.135 0-.557-3.764-5.018-8.504-10.036-11.849-12.825-9.48-18.263 4.321-9.62 3.067 1.951 5.857 3.485 6.414 3.485.419 0 3.207-2.51 6.274-5.576 3.066-3.067 8.78-7.667 12.824-10.176 3.903-2.649 8.503-6.134 10.036-7.807 1.534-1.812 4.74-4.043 7.11-5.019s7.946-5.018 12.267-8.922c8.504-7.806 9.48-8.084 11.989-5.017.976 1.115 2.65 2.091 3.904 2.091 2.091 0 11.291-9.06 15.891-15.752 1.394-1.952 5.717-5.159 9.76-7.11 4.042-1.813 8.642-5.018 10.036-6.97 3.067-4.182 5.854-4.601 7.527-1.256 1.673 3.207 0 19.379-2.23 21.61-3.903 3.902-1.952 7.944 5.716 11.847 14.497 7.388 27.881 4.043 34.712-8.922l3.206-5.854-3.347-9.48c-2.51-7.527-2.926-10.456-1.95-14.359 1.115-4.46 1.811-5.019 7.527-5.716 11.71-1.533 18.68-7.805 13.243-11.709-3.485-2.648-2.648-5.855 3.346-12.407 6.134-6.552 6.831-9.758 3.206-13.661-1.951-2.23-2.09-2.788-.138-4.321 2.509-2.091 6.69-8.782 6.69-10.594 0-2.649-12.965.14-20.354 4.182-7.806 4.46-10.314 3.624-10.314-3.067 0-5.298 5.296-9.061 14.358-10.037 4.182-.558 9.758-1.952 12.546-3.067 3.067-1.255 9.479-2.091 16.31-2.091 11.012 0 11.293-.14 12.687-3.904.836-2.092 1.253-8.504.974-14.22-.697-12.685-4.32-19.098-15.473-28.159-4.182-3.346-9.2-8.503-11.151-11.57-3.207-5.297-3.487-6.97-4.323-32.062-1.534-41.682-3.485-66.077-5.855-71.653-4.182-9.758-8.783-23.28-11.85-34.99-4.74-17.426-4.46-48.234.558-72.49 3.485-16.45 8.226-31.087 11.153-34.154.837-.836.977 2.648.419 9.757-.558 6.134-1.535 20.911-2.232 32.76-2.51 41.682-1.81 50.046 3.766 44.47 2.927-2.927 5.993-.28 5.993 4.878 0 3.625.836 5.299 3.206 6.553 1.673.976 3.486 2.37 4.043 3.206 1.812 2.51 1.255 8.504-.976 11.432-2.23 3.067-2.787 7.527-.696 7.527.697 0 1.951-2.37 2.648-5.297.837-2.788 2.369-6.551 3.484-8.085 1.255-1.673 2.789-5.437 3.486-8.364.836-3.067 2.648-9.897 4.32-15.195 10.595-35.408 18.124-83.503 18.124-115.287 0-17.286-3.346-49.906-5.855-57.573-1.254-3.903-2.65-5.715-4.88-5.994-3.206-.418-3.902 1.394-9.338 24.813-3.764 15.892-3.625 15.474-6.831 15.056-2.649-.418-3.208-1.534-3.766-8.783-.697-8.224-.696-8.364-5.297-8.782-2.927-.28-5.297-1.673-6.691-3.764-3.067-4.74-5.577-5.157-11.99-1.811l-5.713 3.065-3.067-3.902c-2.23-2.788-3.905-3.625-5.856-3.068-3.067.976-19.935 19.378-19.935 21.748 0 .976-.976 3.346-2.09 5.297-1.116 2.091-2.648 6.274-3.485 9.34-1.533 6.413-9.48 16.729-16.869 22.026-5.158 3.764-5.157 3.764-8.503.976-4.043-3.067-19.655-6.693-34.71-7.948-9.898-.697-10.734-.556-14.22 2.79-3.345 3.067-5.159 3.485-14.22 3.624-5.715.14-14.497-.418-19.516-1.115-13.94-1.951-20.212 1.673-15.333 9.06 3.067 4.601 2.647 6.135-1.675 6.135-7.249 0-14.357-1.813-14.357-3.486 0-.975 1.534-4.042 3.486-6.83 1.951-2.788 3.483-5.995 3.483-7.11 0-3.904-6.83-4.042-16.448-.278-28.857 11.152-35.27 13.522-36.943 13.522-3.206 0-13.104 11.012-17.147 18.958-4.321 8.365-4.74 8.784-11.57 11.293-5.855 1.951-10.455.416-15.752-5.3-2.091-2.23-4.6-4.04-5.716-4.04-1.115 0-5.297 1.812-9.479 4.182-4.182 2.23-8.92 4.182-10.733 4.182-1.812 0-6.135 2.23-9.62 4.878s-7.528 4.879-8.783 4.879-3.065 1.674-4.041 3.765c-1.673 3.764-1.814 3.764-3.765 1.115-1.116-1.394-1.95-3.067-1.95-3.625s-1.813-1.673-4.183-2.37c-3.764-1.394-26.626-19.377-28.578-22.583-1.812-2.928-6.691-1.115-17.843 6.273-6.273 4.182-12.407 7.668-13.523 7.668-1.254 0-4.6 1.254-7.668 2.787-3.066 1.534-6.551 2.787-7.945 2.787-1.255 0-2.788.559-3.206 1.395-1.255 1.952-5.855 1.673-9.48-.557-16.728-10.456-25.231-16.31-31.922-22.583-6.692-5.994-9.063-7.389-13.802-7.807-3.486-.279-6.273-1.255-6.831-2.51-6.134-13.243-9.618-18.958-14.776-23.697l-5.994-5.577-10.455.976c-8.922.697-11.152.419-16.17-2.23-8.226-4.321-10.179-3.904-26.768 4.878-1.951 1.116-4.598 1.953-5.713 1.953-1.255 0-3.904.975-6.135 2.09-2.09 1.116-6.134 2.927-8.782 4.042-13.383 5.437-21.609 9.48-28.579 14.08l-7.666 5.158-9.479-9.48c-5.158-5.157-10.596-11.43-12.13-13.94-5.854-9.48-44.886-51.3-48.371-51.858-2.23-.418-2.51.698-2.51 7.668s.558 8.783 4.182 12.965c2.23 2.649 3.903 5.437 3.764 6.273-1.115 3.067-4.6 1.115-7.527-4.182-6.413-11.57-7.39-12.964-9.202-13.661-1.115-.418-2.787-.14-3.902.557-5.297 3.346-11.013-.419-8.922-5.995.419-1.115-.14-2.927-1.394-3.902-1.115-.976-2.091-2.928-2.091-4.183 0-4.6-1.393-6.9-3.868-6.883m170.96 232.861c3.339-.035 4.983 1.196 6.464 3.897 2.091 4.182 7.11 6.134 50.185 19.238 3.904 1.254 9.061 3.067 11.57 4.043 2.51 1.115 5.438 1.952 6.554 1.952 3.763 0 31.923 11.57 37.638 15.472 11.153 7.389 20.213 19.657 23.698 31.646 1.394 4.879-7.248 32.758-15.333 49.487-5.437 11.012-19.24 28.02-22.167 27.044-.836-.279-2.09-2.37-2.926-4.74-.697-2.23-1.953-4.18-2.79-4.32-.696 0-8.223 5.157-16.587 11.709-8.225 6.412-15.893 11.71-16.87 11.71-.836 0-2.369-1.533-3.205-3.485-.837-1.952-2.51-3.486-3.625-3.486-2.37 0-5.017 7.111-5.017 13.802 0 7.528-3.207 11.29-9.759 11.29-5.297 0-5.577-.278-9.759-8.92-5.158-10.317-8.363-12.407-20.212-13.104-23.838-1.116-28.717.278-35.409 11.012-2.648 4.322-5.158 6.83-6.83 6.83-1.813 0-5.298-3.622-9.898-9.756-6.83-9.48-7.388-9.899-11.71-9.063-5.575 1.116-6.97-.277-9.897-10.175-1.115-4.182-5.02-11.572-8.505-16.45-6.83-9.48-7.247-11.291-10.314-36.384-1.534-12.267-4.184-18.68-11.154-27.463-5.018-6.413-5.296-10.037-1.393-20.353 1.534-4.182 3.484-9.617 4.46-11.848 2.928-8.085 10.595-19.796 16.729-25.372 8.921-8.225 14.916-9.898 40.706-10.874 12.267-.418 24.534-1.393 27.183-1.95 3.555-.889 6.169-1.367 8.172-1.389m404.835 11.573c6.247-.027 17.12.655 28.621 1.805 9.34.836 12.824 2.926 12.824 7.665 0 4.183 4.043 8.087 8.225 8.087 1.952 0 8.087-2.232 13.384-4.88 11.431-5.577 14.775-5.993 22.303-1.95 7.249 3.903 12.407 8.78 17.704 17.005l4.321 6.692-.835 23.978c-.976 26.486-6.413 67.75-9.759 74.162-6.412 12.547-23.837 18.959-37.777 14.22-6.413-2.231-6.553-2.091-15.475 1.951-4.879 2.37-12.685 4.74-17.425 5.436-9.758 1.394-11.849 2.788-14.637 9.34-1.115 2.51-2.648 4.601-3.345 4.601-.836 0-3.625-3.345-6.134-7.388-2.649-3.903-7.388-10.595-10.594-14.637-5.855-7.25-5.855-7.25-9.898-5.158-5.855 3.066-6.412 2.787-13.104-4.462-5.297-5.576-6.831-6.552-11.292-6.412-2.788.14-6.133 1.114-7.527 2.368-5.297 4.88-13.522.978-16.17-7.665-1.116-3.625-4.603-3.347-10.597.696-10.037 6.83-16.03 5.994-24.952-3.486-12.406-13.382-16.868-31.366-11.292-45.445 4.321-10.874 17.146-29.554 26.207-38.197 9.62-9.2 17.844-14.218 29.275-17.843 4.74-1.533 11.292-4.46 14.637-6.55 12.547-8.225 17.983-10.037 38.754-13.662.906-.174 2.476-.263 4.558-.271m-193.77 164.16c1.074.099 2.16 1.069 3.808 2.837 1.533 1.673 2.787 4.6 2.787 6.551s1.254 5.159 2.787 7.11c1.534 1.952 2.79 4.181 2.79 5.018s.976 2.37 2.09 3.347c1.116.975 2.37 3.763 2.927 6.412.418 2.648 1.394 5.158 2.091 5.576 1.673.976 8.225 14.916 8.225 17.425 0 1.115-1.254 3.903-2.648 6.412-4.6 7.388-.279 8.224 9.898 1.673 5.994-3.904 7.109-4.182 11.012-2.788 2.51.837 6.135 1.534 8.226 1.534 6.273 0 19.794 11.29 24.674 20.492 8.782 16.588 8.643 29.972-.14 42.1-8.224 11.292-10.595 17.425-11.292 28.856-.836 15.613-5.995 19.237-11.292 8.085-3.067-6.413-9.478-9.34-21.327-9.48-10.455-.278-12.687-2.37-12.687-11.57 0-6.273 0-6.411-8.365-6.55-3.206-.14-5.158-.977-6.273-2.929-8.364-15.892-14.636-21.747-20.212-18.82-1.533.837-5.576 5.717-8.921 10.875-14.08 21.468-29.973 29.413-56.181 28.298-7.249-.279-7.945-3.067-5.993-25.092.836-10.316 2.229-19.935 2.926-21.33.697-1.254 3.345-2.508 5.854-2.787 4.322-.418 4.463-.558 5.3-8.783.975-11.71 6.41-22.024 17.144-33.177 5.158-5.158 9.76-9.34 10.317-9.34.697 0 2.928 2.788 5.158 6.273 4.74 7.667 8.364 7.946 8.364.558 0-2.788.697-5.857 1.534-6.972 2.509-3.206 6.133-11.152 9.06-19.934 3.625-10.734 8.504-20.213 13.104-25.789 2.51-2.901 3.872-4.216 5.254-4.09m283.997.417a.4.4 0 0 1 .15.05c.696.557 1.253 2.51 1.253 4.461 0 2.091-.976 4.74-2.09 5.994-1.116 1.254-2.091 5.437-2.23 10.316-.28 6.691.14 8.642 2.37 10.176 4.182 3.066 6.83 1.673 6.83-3.764 0-3.346.697-5.018 2.23-5.297 1.813-.279 2.37 1.534 3.207 9.898.557 5.715.557 11.291 0 12.546-1.116 3.206-5.159 2.927-8.226-.419-1.394-1.533-3.344-2.787-4.46-2.787-1.812 0-2.091.556-2.51 7.108-.417 6.134-1.81 8.226-5.435 8.226-4.182 0-6.414-3.485-6.414-10.456 0-6.273-3.484-13.242-6.69-13.242-3.346.14-9.76 6.133-11.572 10.733-.837 2.09-2.091 7.668-2.649 12.268-1.115 6.831-1.952 8.782-5.158 11.152-2.09 1.394-6.412 5.297-9.479 8.503s-8.363 7.25-11.848 9.063c-3.485 1.812-6.413 3.763-6.692 4.32-.836 1.952-4.461 1.115-4.461-.837 0-3.764 7.248-10.593 15.194-14.357 4.322-1.952 8.364-4.322 8.922-5.158.697-.837.838-6.414.56-12.27-.697-11.43.974-16.17 5.017-14.636 2.788.975 4.182-.836 9.479-11.71 2.37-4.879 5.018-9.34 5.854-9.897.976-.558 4.183-.696 7.25-.278 5.158.697 5.716.557 8.225-3.904 4.051-7.158 11.636-16.015 13.373-15.802m-101.178 76.111c1.119.024 2.28.541 3.326 1.587 2.51 2.51 2.092 5.156-1.811 9.757-1.952 2.23-3.486 5.297-3.486 6.83 0 3.067-6.133 7.389-9.06 6.273-3.067-1.115-2.51-5.297 1.533-11.43 2.091-2.928 4.322-7.11 5.02-9.2.87-2.527 2.612-3.856 4.478-3.817m31.945 40.249c-2.914-.027-7.124 1.223-10.496 3.575-7.667 5.158-11.153 13.383-5.577 13.104 3.346 0 18.96-11.43 19.518-14.219.305-1.646-1.178-2.44-3.445-2.46m-362.906 11.243c.836 0 1.394.976 1.394 2.091s-.558 2.091-1.394 2.091c-.697 0-1.395-.976-1.395-2.09s.698-2.092 1.395-2.092m-27.803 20.913c-.653-.037-1.263.311-1.89.974-1.952 1.812-.837 11.013 1.533 15.056 3.624 5.855 11.431 13.38 12.965 12.405 2.23-1.394 1.393-5.018-3.905-15.752-4.39-8.992-6.742-12.572-8.703-12.683m4.348 75.31c-.697-.07-1.43.244-2.057.941-1.533 1.394-1.114 15.473.42 16.449.836.557 3.065 3.346 4.878 6.134 2.09 3.485 4.6 5.577 7.249 6.134 2.927.558 5.159 2.788 8.644 8.504 2.509 4.32 5.157 7.387 5.854 6.969s1.254-6.272 1.254-12.963c0-10.734-.417-12.547-2.926-14.917-1.673-1.394-4.88-2.648-7.25-2.648-4.042 0-4.461-.418-5.576-5.994-.976-4.879-1.672-5.856-4.46-5.856-1.812 0-3.764-.696-4.182-1.393-.488-.836-1.151-1.29-1.848-1.36m339.703 2.085c-.928.085-1.894.737-2.312 1.783-.697 1.254-1.674 4.043-2.232 6.134-.976 4.182-3.485 4.879-7.945 2.09-2.37-1.393-3.067-1.253-4.74.977-1.533 1.952-1.673 3.345-.557 5.436.836 1.533 1.671 5.994 1.81 9.898.14 6.273.56 7.109 2.93 6.83 1.533-.14 3.484-1.394 4.181-2.648.837-1.394 2.928-4.043 4.6-5.855 6.274-6.552 9.62-22.723 5.16-24.535a2.04 2.04 0 0 0-.895-.11zm-31.125 16.18c-1.921-.08-2.136 1.096-2.136 7.073 0 4.042-.417 10.734-.835 14.637-.837 6.133-.558 7.526 1.533 8.223 1.534.697 3.625-.418 6.273-3.067 5.437-5.576 6.412-15.611 2.23-21.885-1.672-2.509-4.461-4.601-6.134-4.88a9 9 0 0 0-.931-.1zm-269.833 6.915c-.653-.01-1.245.227-1.768.715-1.812 1.812-1.115 25.51.976 30.39 1.115 2.509 4.322 6.411 7.25 8.641 2.787 2.23 9.338 8.226 14.496 13.384 9.34 9.619 14.497 11.848 15.752 6.97 3.485-12.547 4.184-21.468 2.232-29.833l-1.952-8.783-5.994-.835c-3.206-.418-7.667-2.09-9.759-3.624-2.09-1.534-5.157-3.206-6.83-3.764-1.812-.557-4.88-3.624-7.11-6.83-2.823-4.182-5.332-6.405-7.293-6.43m243.303 1.689c-.697-.14-5.019 2.788-9.34 6.692l-8.087 7.11v10.317c0 7.945-.418 10.593-2.091 11.151-4.043 1.533-6.69-2.37-5.854-8.503.975-6.691.278-7.946-5.716-11.013-6.134-3.067-11.85-3.207-16.171-.28-6.134 3.904-8.225 8.366-7.25 15.475.419 3.485 1.257 9.2 1.675 12.824.418 3.764 1.672 8.644 2.788 11.154 1.812 3.903 1.812 5.157-.14 9.618-2.648 6.412-2.789 6.134 1.95 6.134 3.904 0 10.595-5.996 17.287-15.893 3.624-5.298 7.668-4.74 8.644 1.115.557 2.648 2.23 6.134 3.763 7.668l2.649 2.928 4.043-2.79c5.715-4.042 11.989-12.545 16.17-21.606 3.207-6.831 3.626-9.201 3.068-19.238-.558-11.153-4.043-21.748-7.388-22.863m-78.663 17.807a.9.9 0 0 0-.38.039c-.28 0-1.951.557-3.903 1.115-12.128 3.763-20.77 12.546-21.049 21.467-.418 10.595.28 36.523.976 38.893 1.255 4.322 7.11 4.602 16.31.698 19.516-7.945 24.952-10.455 26.346-11.85.976-.975.837-3.345-.696-7.806-1.534-4.322-1.813-7.667-.976-10.455 1.533-5.437-1.393-17.843-5.436-23.698-2.353-3.398-8.993-8.267-11.192-8.403zm-59.783.455c-2.274-.026-3.92.732-6.116 2.51-2.091 1.812-5.436 4.462-7.527 5.995-3.485 2.788-3.626 3.484-4.88 24.394-.697 11.85-1.532 23.282-1.95 25.234-1.255 5.855 1.81 7.248 14.914 6.273 12.268-.837 22.027-1.952 27.464-3.067l3.345-.699-.836-17.006c-.836-17.983-3.904-32.063-7.667-36.385-3.207-3.346-8.364-5.993-14.22-6.97-.94-.174-1.77-.27-2.527-.28m-54.455.886c-.945.058-1.646.587-1.707 1.624-.279 2.37-.556 7.945-1.95 27.74-.976 14.499-.837 16.59 1.533 20.633 2.928 5.019 19.238 14.079 21.468 11.848 1.534-1.533 4.739-29.414 4.46-39.172-.279-12.268-5.157-18.54-13.939-18.54-2.23 0-4.88-.976-5.857-2.09-1.176-1.412-2.793-2.117-4.008-2.043" style="stroke-width:1.04552"/>
</svg>
