<svg xmlns="http://www.w3.org/2000/svg" width="1976" height="960">
    <path d="M391.522 150.008c-.435 0-.84.106-1.167.106-87.38.108-174.8.106-262.145.106-2.822 0-5.71-.832-8.586.742l.106.106c.434 3.31 2.98 4.985 4.77 7.102l129.006 152.008C393.242 474.771 532.874 639.45 672.429 804.152c2.768 3.582 7.094 5.83 11.979 5.83h.954a76296 76296 0 0 1 257.269 0c.345.04.714 0 1.06 0 5.102 0 9.683-2.35 12.614-6.148 182.649-215.358 365.317-430.697 547.93-645.982 1.736-2.117 4.671-3.624 4.345-7.314-1.41-.109-2.725-.318-4.028-.318-89.768.072-179.515.075-269.247-.106-4.668 0-7.357 1.992-10.07 5.194-61.836 72.943-123.634 145.882-185.506 218.79a115395 115395 0 0 0-219.85 259.177c-4.287 5.047-6.356 6.125-11.024.318-12.754-15.794-26.245-31.013-39.433-46.535C647.524 443.486 525.747 299.8 404.03 156.156c-2.93-3.745-7.407-6.148-12.508-6.148m1189.564.106c-4.342 0-6.777 1.836-9.328 4.876-10.855 12.863-21.846 25.722-32.755 38.585-172.336 203.019-344.676 406.037-516.976 609.093-1.574 1.9-4.366 3.303-3.498 7.102h9.646c84.938 0 169.893-.277 254.831.212 10.53.054 17.072-3.37 23.639-11.13 170.274-200.849 340.551-401.71 510.934-602.521 12.591-14.817 25.229-29.622 38.797-45.687-3.094-.272-4.163-.533-5.194-.424-90.022.072-180.038.038-270.096-.106m-1116.21.636c1.194 4.939 5.295 6.555 7.738 9.54 13.242 16.065 26.666 32.28 39.963 48.02 13.297 15.739 27.09 30.956 40.387 46.64 16.5 19.485 32.526 39.348 49.08 58.832s33.691 38.551 50.245 58.09c16.553 19.538 32.526 39.505 49.08 59.043 13.459 15.957 27.562 31.321 41.022 47.278 22.307 26.377 44.323 53.014 66.358 79.608 3.256 3.962 5.64 4.554 9.222.212 10.91-13.134 22.213-25.984 33.285-39.01 27.86-32.997 55.737-66.008 83.742-99.006a48464 48464 0 0 0 78.973-92.752c28.33-33.36 56.613-66.67 84.908-100.067 21.275-25.129 42.575-50.431 64.556-76.428z" style="stroke-width:54.2735"/>
</svg>
