<svg xmlns="http://www.w3.org/2000/svg" width="1456" height="960">
    <path d="M516.224 876.81c-11.679 4.063-7.617 25.898 5.078 29.452 6.093 2.031 18.28 6.094 26.405 9.648 86.323 38.084 216.315 43.67 317.364 14.726 57.888-16.757 81.246-27.928 81.246-40.115 0-6.093-3.047-12.187-7.11-13.71-8.124-3.047-30.466 2.031-46.715 10.663-17.773 9.14-64.997 20.312-115.267 26.913-39.1 5.078-59.41 5.078-99.018 0-49.763-6.094-94.448-16.757-117.806-28.436-16.756-8.125-36.56-12.187-44.177-9.14m557.546-254.399c-6.093 9.648-10.663 20.82-10.663 24.374 0 4.062-3.555 9.648-7.617 13.202s-7.617 8.633-7.617 11.172c0 8.632-22.85 37.068-58.395 73.12-41.638 41.639-58.903 53.825-112.728 80.23-19.803 9.14-26.912 15.741-26.912 22.85 0 6.094 3.554 10.664 7.617 10.664 7.109 0 41.638-15.741 86.323-39.1 19.803-10.663 110.189-101.048 120.852-120.852 26.913-51.286 39.607-83.784 36.053-89.877-5.586-9.14-16.757-3.047-26.913 14.217m-718.513-14.217c-5.078 8.124 15.741 55.856 43.162 97.494 19.803 30.467 90.893 100.541 114.25 113.236 39.608 21.326 78.707 39.099 85.816 39.099 4.062 0 7.617-4.57 7.617-10.664 0-7.109-7.11-13.71-26.405-22.85-55.348-26.912-82.769-46.208-118.313-83.784-35.037-36.56-43.162-48.747-69.059-98.51-16.757-33.006-29.96-45.193-37.068-34.021m923.15-356.972c-2.031 5.078 0 27.928 4.57 50.27 9.648 45.193 12.187 182.802 4.062 188.388-3.047 1.523-8.632-2.539-13.202-8.632-22.343-31.483-75.66-102.572-83.277-110.19-4.57-5.077-19.295-20.818-32.498-35.036-13.202-14.726-26.405-26.405-28.943-26.405-7.11 0-6.094 12.187 2.03 28.944 25.39 51.286 38.084 150.304 28.944 232.057-6.093 57.887-16.249 104.603-28.943 134.054-4.063 9.14-7.11 18.788-7.11 21.327 0 5.078-31.482 71.598-42.145 88.862-46.209 75.66-135.578 162.999-204.637 199.56-6.601 3.554-12.187 8.631-12.187 11.678 0 2.54-5.585 4.57-12.187 4.57-7.108 0-14.217 2.54-15.74 5.078-5.079 8.125 13.202 12.695 22.342 6.093 4.57-3.554 11.679-7.616 15.74-9.14 45.701-17.772 103.08-58.903 157.414-113.235 50.27-50.27 56.871-57.888 85.307-98.002 17.265-25.39 67.028-121.36 67.028-130.5 0-3.047 3.046-12.695 7.109-21.835 12.186-29.96 23.358-67.028 23.358-80.23 0-7.11 2.03-15.741 4.57-19.804 9.648-14.725 34.021 53.317 50.27 138.117 5.078 27.42 11.172 49.763 13.71 49.763 7.11 0 27.42-61.95 41.13-124.915 4.063-19.803 9.14-72.105 10.664-117.298 3.047-96.986-6.093-152.335-40.622-246.782-8.633-24.374-12.695-27.928-16.757-16.757m-570.749-55.348c-7.108 1.523-28.943 6.093-48.747 10.155-33.006 7.11-38.083 7.11-55.856-.508-16.757-7.108-22.85-7.108-40.115-2.03-45.192 14.217-84.292 49.762-109.173 98.001-17.265 34.022-18.788 44.685-7.617 53.826 4.062 3.554 7.617 13.71 7.617 22.85s-3.555 26.404-7.617 38.084c-5.078 13.71-7.617 40.622-7.617 74.644 0 35.037 2.54 58.395 7.617 71.09 9.648 22.342 9.648 36.56 0 49.254-14.218 19.296-5.585 51.286 25.39 91.91 21.326 27.927 36.56 41.13 65.503 56.363 30.467 15.741 54.84 17.772 69.059 4.57 9.648-9.14 10.663-9.14 31.482.508 31.483 14.218 149.289 14.218 180.771 0 20.82-9.648 21.835-9.648 31.483-.508 14.218 13.202 38.591 11.171 69.058-4.57 28.944-15.234 44.177-28.436 65.504-56.364 30.975-40.623 39.607-72.613 25.39-91.909-9.14-12.187-9.14-24.881 0-50.27 9.647-27.928 10.155-116.283 0-144.718-4.063-11.68-7.617-28.944-7.617-38.084s3.554-19.296 7.616-22.85c11.172-9.14 9.648-19.804-7.616-53.826-24.374-47.731-62.458-82.26-108.158-97.494-16.25-6.093-22.343-5.585-41.13 1.523-20.312 7.617-24.882 7.617-52.81.508-35.545-9.14-74.644-13.202-92.417-10.155m91.91 223.932 19.803 21.327v94.955l-20.312 19.804-20.819 20.311H677.7l-20.82-20.311-20.311-19.804v-47.223c0-45.7.508-47.224 16.249-65.505 21.835-24.88 29.96-27.42 81.753-25.896l44.685 1.015zm52.3-305.686c-4.57 11.172 2.032 17.773 27.929 29.452 81.245 35.545 153.858 108.666 188.387 189.91 7.617 18.281 14.219 26.913 20.82 26.913 16.757 0 15.74-10.155-5.078-52.301-39.607-78.707-102.572-141.672-181.279-181.279-46.208-22.85-47.224-23.358-50.778-12.695m-299.083 12.695c-78.707 39.607-141.672 103.08-180.771 181.279-20.82 42.146-21.835 52.301-5.078 52.301 6.601 0 13.202-8.632 20.819-26.912 35.037-80.738 93.432-142.18 178.232-185.341 26.912-13.202 37.576-21.327 37.576-28.436 0-15.741-7.617-14.218-50.778 7.11M651.802 22.72c-65.504 10.663-136.086 34.529-144.718 48.239-2.031 3.047-.508 9.14 3.047 13.202 7.109 9.14 27.42 7.11 52.81-5.078C605.085 59.28 643.17 53.187 727.97 53.187S850.853 59.28 893 79.083c25.389 12.187 45.7 14.218 52.809 5.078 9.14-10.663 3.554-17.264-24.374-29.451C887.414 39.984 853.9 31.352 799.06 22.72c-56.363-8.633-94.955-8.633-147.257 0m-60.934-81.246c-3.554 4.063-10.155 7.617-15.233 7.617s-11.68 3.555-15.234 7.617-8.632 7.617-11.17 7.617c-13.203 0-83.277 53.317-125.931 95.97-50.27 50.271-57.38 58.396-84.292 96.987-39.607 56.364-98.51 196.004-98.51 233.58 0 7.11-2.031 15.742-4.57 19.804-9.648 14.726-34.022-53.317-50.27-138.117-5.079-27.42-11.172-49.763-13.71-49.763-7.11 0-27.421 61.95-41.131 124.915-12.695 58.395-15.234 187.88-4.063 243.228 11.68 62.457 38.592 143.703 46.209 141.671 7.616-2.03 7.616-21.834-.508-57.379-8.632-38.084-11.68-180.263-3.555-184.833 2.54-1.523 21.327 20.311 42.654 49.255 20.82 28.436 44.177 58.395 51.794 67.027 47.224 51.794 59.41 63.473 63.473 63.473 7.109 0 6.093-12.187-2.031-28.944-43.67-88.354-42.146-253.891 4.062-380.837 8.125-22.342 34.53-78.199 45.193-95.463C420.253 89.239 509.623 1.9 578.682-34.66c6.6-3.554 12.186-8.632 12.186-11.171s5.586-5.078 12.695-6.094c7.109-1.015 13.71-4.062 14.218-6.6 1.523-8.633-19.804-8.633-26.913 0" style="stroke-width:.507783"/>
</svg>
