<svg xmlns="http://www.w3.org/2000/svg" width="804" height="960">
    <path d="M459.408-29.994a264 264 0 0 0-4.004.004c-7.213.061-14.92.411-23.17 1.05-51.879 3.911-79.945 12.246-97.465 28.915-5.613 5.273-12.927 10.718-16.158 12.079-18.03 7.144-35.04 21.26-42.014 34.868-5.953 11.396-6.633 32.658-1.36 41.333 3.912 6.464 12.244 12.247 17.687 12.247 4.422 0 4.595-2.893.173-8.506-1.871-2.381-3.405-5.612-3.405-7.143 0-3.062 6.126-6.973 13.95-8.845 8.505-2.04 30.957 8.332 36.91 17.007 8.845 12.927 1.021 43.206-15.478 60.045-14.118 14.458-26.876 20.41-50.69 23.302-16.158 1.87-26.535 10.206-44.564 35.55-13.608 19.22-17.519 32.146-20.07 68.547-4.933 69.228 9.016 177.068 34.87 269.089 1.19 4.252 3.402 12.588 5.103 18.712 5.103 19.22 10.885 39.122 15.308 53.58 1.19 3.742 3.401 11.055 4.762 16.158 8.335 28.235 12.077 37.76 15.649 40.142 2.21 1.36 10.035 3.23 17.35 3.911 7.313.85 14.627 2.042 16.328 2.722 1.531.68 6.973 1.701 11.906 2.382 6.293.68 8.846 1.701 8.846 3.572 0 2.041-2.042 2.38-10.206 1.87-5.613-.34-12.078-1.36-14.46-2.21-2.381-1.021-10.713-2.382-18.707-3.062-7.995-.85-22.794-2.211-33.17-3.402-41.672-4.252-71.437-6.975-105.456-9.356a3907 3907 0 0 0-37.705-2.411 564 564 0 0 0 36.287 36.284c7.074-1.385 17.587-.457 42.24 1.848 38.441 3.572 83.346 10.375 102.056 15.478 6.804 1.87 10.035 4.083 15.988 10.886 14.118 16.67 18.878 29.938 21.43 58.684 1.02 13.777 4.425 32.145 8.507 47.624 2.212 8.844 5.444 26.367 10.207 56.984.592 3.836 1.101 7.088 1.645 10.571A563.7 563.7 0 0 0 438.018 990a563.7 563.7 0 0 0 93.043-65.04c1.463-8.427 3.236-18.548 4.419-24.168 1.19-6.633 3.572-22.283 5.103-34.87s3.911-29.085 5.272-36.569c1.36-7.484 2.383-16.84 2.383-20.752s.509-8.164 1.02-9.695c1.36-3.572.338-3.574 20.24 3.4 9.355 3.232 22.452 7.657 28.916 9.868 6.633 2.21 13.779 4.762 16.16 5.783 2.028.724 6.129 2.416 9.935 3.853a564 564 0 0 0 30.898-49.2c-11.715-5.12-17.123-7.29-33.178-13.846-22.622-9.185-35.893-13.777-46.268-16.328-4.763-1.191-1.53-6.124 11.398-16.67 7.484-6.294 15.477-14.117 17.518-17.689 5.103-8.164 14.8-28.576 14.8-31.297 0-1.191 1.019-5.103 2.38-9.015 3.061-9.015 10.546-35.72 15.139-54.43 1.53-5.614 3.91-14.97 5.271-20.923 11.226-44.225 12.76-52.217 20.584-103.756 6.463-43.884 7.652-51.709 10.034-70.93 6.123-48.136 7.823-64.976 9.695-99.846 4.762-85.217-6.123-119.744-43.374-137.263-38.271-18.2-38.612-18.372-47.967-27.557-10.886-10.715-17.687-25.854-17.687-39.461 0-5.954-1.19-18.372-2.551-27.727-1.361-9.185-2.552-20.75-2.552-25.683 0-20.24-9.697-49.158-20.242-60.555-5.103-5.443-19.732-15.477-24.835-17.008-1.87-.51-8.674-2.893-15.307-5.274-13.156-4.784-29.087-7.213-48.857-7.346M450.6 8.82c27.726-.17 50.18 4.083 71.271 13.609 7.654 3.401 26.367 20.75 26.367 24.322 0 1.36 1.191 3.233 2.552 4.423 2.891 2.382 3.57 11.908.848 11.908-1.02 0-2.211-1.19-2.551-2.552-3.913-12.417-17.009-26.706-30.106-32.83-29.256-13.607-91.512-15.48-116.346-3.573-5.613 2.722-13.775 8.336-18.198 12.588-9.695 9.695-12.247 7.146-4.423-4.25 8.675-12.587 19.222-18.37 40.653-22.112 4.253-.68 17.687-1.363 29.933-1.533m-120.965 8.497c1.565-.18 3.678 2.601 6.835 8.682 2.551 4.933 5.782 11.229 7.143 14.12 3.402 6.294 22.793 25.684 32.148 31.978 7.825 5.273 20.242 10.204 36.23 14.116 8.675 2.211 16.158 2.551 39.121 1.701 15.479-.51 33.85-1.532 40.483-2.042 6.804-.51 14.117-.679 16.329-.169 5.273 1.361 19.903 11.226 19.903 13.607 0 1.02 1.018 3.062 2.209 4.423 1.36 1.531 3.743 6.465 5.444 11.057 3.912 10.716 4.251 40.821.339 47.965-1.36 2.722-4.252 8.675-6.463 13.268-5.273 10.886-27.554 33.85-36.399 37.592-56.641 23.643-101.036 8.334-128.421-44.565-4.933-9.355-5.104-10.886-5.104-30.617 0-18.71.341-21.261 3.403-24.323 1.87-1.87 4.762-3.404 6.463-3.404 3.062 0 13.948-8.845 13.948-11.567 0-3.231-10.375-17.008-19.22-25.173-18.2-17.18-38.613-48.137-36.232-54.6.532-1.276 1.13-1.968 1.841-2.05m98.515 6.767c4.507 0 9.864.81 15.987 2.427 5.273 1.36 11.908 2.892 14.46 3.402 6.973 1.36 3.914 4.25-4.76 4.25-6.634 0-7.997.68-13.1 7.144-10.035 12.927-19.22 17.86-29.596 15.99-7.484-1.531-15.988-8.675-15.988-13.778 0-4.252 10.715-14.459 15.308-14.459 1.36-.17 4.42-1.189 6.802-2.55 2.722-1.615 6.38-2.426 10.887-2.426m-111.577 6.921c1.41.1.92 1.374-2.047 3.67-2.721 2.041-8.504 6.972-12.926 10.884-9.525 8.675-13.098 9.528-9.356 2.384 2.551-5.103 10.037-11.397 17.861-14.969 3.126-1.414 5.371-2.046 6.468-1.969M554.7 64.781c2.552 0 3.573 4.253 1.872 6.975-.85 1.53-1.533 1.532-1.533.34 0-1.02-.508-3.064-1.019-4.595s-.34-2.72.68-2.72M336.81 211.064c2.551 0 3.063 6.122.512 7.652-3.402 2.212-20.071 38.952-23.643 52.73-.85 2.721-2.211 6.974-3.232 9.356-2.21 5.273-5.954 23.813-9.526 47.626-2.211 13.778-2.72 29.595-2.72 69.226.17 28.236.849 53.919 1.87 56.98 2.55 8.675 4.083 37.083 2.041 37.083-2.21 0-3.911-9.865-3.911-23.813 0-6.293-.854-12.079-2.045-13.27-2.721-2.721-5.102-64.124-3.911-98.993 1.53-43.884 8.336-79.093 21.943-112.261 5.273-13.267 9.185-19.73 16.159-27.725 2.38-2.551 5.272-4.591 6.463-4.591m223.07 11.851c1.394-.023 3.454 1.266 4.517 3.286 10.206 20.24 14.457 29.766 16.668 37.59 5.613 20.411 7.996 32.49 7.996 41.674 0 5.273 1.19 14.798 2.72 21.262 2.211 9.865 2.552 20.579 1.872 63.273-.34 30.446-1.531 54.262-2.552 58.344-1.19 3.742-2.722 12.586-3.573 19.56-1.19 9.696-1.529 4.253-.848-23.813 1.36-62.765 1.018-111.07-1.023-117.364-.85-3.232-1.7-10.545-1.7-16.158 0-5.784-1.19-14.8-2.551-20.072-1.36-5.443-2.552-11.908-2.552-14.46-.17-2.551-1.188-6.463-2.55-8.844-1.36-2.381-2.38-5.613-2.55-7.314 0-1.7-3.403-10.036-7.656-18.541-4.252-8.505-7.654-16.158-7.654-16.838 0-1.085.598-1.57 1.435-1.585m-58.419 51.25c11.056-.51 38.1 16.672 30.786 19.563-1.87.68-5.101 0-8.503-2.042-3.912-2.381-8.675-3.06-19.731-3.06-12.587-.171-15.478.508-22.621 4.59-4.423 2.552-8.507 4.595-8.847 4.595-.51 0-.848-1.703-.848-3.914 0-6.124 10.545-14.797 21.941-18.369 2.381-.68 5.952-1.362 7.823-1.362m-109.111.182c2.11-.032 4.676.032 7.907.16 13.438.34 14.967.681 22.451 6.124 8.675 6.124 11.056 9.867 8.165 12.758-1.191 1.191-2.72 1.188-5.101-.343-14.288-8.845-39.635-9.356-49.5-1.02-3.062 2.72-7.652 3.063-9.013.852-1.36-2.041 5.1-9.866 12.415-14.798 4.082-2.68 6.345-3.637 12.676-3.733m53.32 55.78c10.717 0 15.82.85 20.582 3.232 7.144 3.571 15.649 11.057 15.649 13.608 0 3.062-3.233 3.741-7.145 1.19-2.212-1.191-9.525-3.742-16.159-5.443-13.607-3.401-20.92-2.382-35.889 4.592-3.912 2.041-8.334 3.062-9.865 2.552-2.211-.85-2.212-1.532.51-5.103 1.7-2.212 6.463-6.465 10.715-9.356 6.974-4.933 8.676-5.272 21.603-5.272m-71.842 29.13c5.55.043 11.288.552 14.69 1.487 6.804 1.871 20.243 12.59 20.243 16.331 0 2.552-5.104 3.23-7.655.849-3.572-3.062-18.88-6.973-27.895-6.973-6.974 0-12.247 1.359-19.731 5.1-14.969 7.315-18.03 6.466-10.887-3.57 3.402-4.762 10.547-9.696 17.691-11.907 2.636-.936 7.995-1.36 13.544-1.317m146.794 6.33c9.292.255 18.728 3.566 26.764 9.785 6.634 4.933 7.993 10.886 2.72 10.886-1.87 0-3.738-.68-4.418-1.53-1.361-2.381-18.204-6.973-25.007-6.973-7.484 0-21.77 3.91-27.043 7.312-2.721 1.87-4.933 2.212-6.634 1.191-3.742-2.38 2.551-9.863 12.927-15.646 6.325-3.572 13.465-5.224 20.691-5.026m-73.483 41.147c6.782.064 13.755 1.126 18.263 3.167 9.695 4.422 17.858 13.098 15.137 15.82-1.701 1.7-3.233 1.53-7.655-.68-15.819-8.165-32.317-8.336-46.605-1.022-4.763 2.552-9.015 4.083-9.695 3.573-3.742-3.742 2.892-12.587 13.438-18.03 3.742-1.956 10.334-2.892 17.117-2.828m56.067 47.754c4.04.02 8.036.745 10.843 2.19 5.273 2.722 14.289 13.607 12.588 15.308-2.041 1.871-6.125 1.02-9.527-2.042-2.381-2.211-6.295-2.89-15.48-2.89-8.845 0-13.437.85-16.838 2.89-5.784 3.912-7.992 3.912-7.992-.17 0-3.402 7.143-9.526 15.308-13.268 2.976-1.36 7.058-2.04 11.098-2.018m-108.89.084c8.02-.085 16.475 2.957 22.439 8.57 7.143 6.804 3.911 13.436-3.403 6.802-5.273-4.592-26.023-4.082-32.487.85-2.721 2.212-5.952 3.915-7.143 3.915-6.463 0 1.53-14.288 10.205-18.03 3.189-1.382 6.745-2.069 10.39-2.107m-88.67 44.062c.79.124 1.01 3.003.89 9.58l-.173 9.868-1.53-8.335c-.68-4.763-1.02-9.017-.51-9.868.468-.722.849-1.147 1.157-1.232a.4.4 0 0 1 .166-.013m76.068 173.381c6.123 0 10.546 6.296 15.82 22.114 2.04 6.634 4.762 12.928 5.782 13.948 1.191 1.19 2.045 3.4 2.045 4.93 0 1.532 1.188 3.743 2.55 4.933 1.36 1.191 2.55 2.891 2.55 3.912s1.19 3.234 2.891 4.935c2.892 3.232 3.572 14.799 1.36 21.602-1.53 4.933-5.61 4.421-7.991-.682-1.02-2.381-2.723-4.081-3.744-3.74-1.87.68-2.04 5.1 0 14.286.85 4.422.51 5.445-2.551 6.465-4.423 1.36-8.676-1.702-8.676-6.124 0-1.701-.849-5.104-1.7-7.655-2.38-6.294-5.953-2.892-5.953 5.783 0 5.103-.679 6.464-3.57 6.805-4.423.68-9.019-4.592-11.06-12.756-2.551-9.866-3.23-54.603-1.19-63.448 1.021-4.252 3.404-9.353 5.275-11.564 2.04-2.042 5.44-3.744 8.162-3.744m127.57 20.668c2.51-.127 5.191 1.36 8.338 4.508 5.953 6.123 6.972 13.778 6.122 47.116-.51 27.045-3.231 38.27-9.695 41.673-4.933 2.721-5.443 2.04-4.253-6.975 1.19-8.165 1.02-8.507-2.722-7.996-2.891.34-4.08 2.043-5.272 7.486-1.53 8.675-5.784 12.757-11.227 11.396-3.232-.85-3.742-1.872-3.061-6.295.34-2.891 2.38-9.524 4.42-14.627 1.872-5.103 3.574-10.206 3.574-11.396 0-4.083-6.634-2.212-8.845 2.38-3.061 6.294-7.822 9.018-9.863 5.616-2.211-3.572-2.044-10.376.507-14.798 7.144-12.587 13.61-25.857 14.8-30.279 2.722-9.525 5.952-17.008 9.864-22.621 2.466-3.317 4.805-5.06 7.314-5.188" style="stroke-width:1.10528"/>
</svg>
