<svg xmlns="http://www.w3.org/2000/svg" width="908" height="960">
    <path d="M265.56 229.17c-21.363 33.57-42.726 61.037-47.813 61.037-4.069 0-8.138 5.087-8.138 11.19 0 6.104-20.346 37.64-45.778 70.193-54.933 71.21-56.968 99.694-15.26 152.593 16.277 21.363 30.52 41.709 30.52 45.778s14.241 24.415 30.518 45.778c17.294 21.363 30.518 41.708 30.518 45.777s14.242 24.415 30.52 45.778c17.293 21.363 30.518 40.692 30.518 43.744 0 4.069 129.195 199.388 137.333 208.543 5.087 5.087 45.778-37.64 45.778-47.812 0-5.087 7.121-14.242 15.26-21.363 12.207-10.173 15.259-49.847 15.259-236.01V430.592L479.19 378.71c-19.329-29.501-52.9-73.245-76.297-98.677-22.38-25.432-40.691-50.864-40.691-55.95 0-10.173-43.744-55.951-52.9-55.951-2.034 0-22.38 27.467-43.742 61.037m286.874-105.798c-4.069 4.07-7.12 93.59-7.12 198.371 0 140.385 3.051 194.302 13.224 204.474 7.12 7.121 28.484 33.57 46.795 59.003 57.985 76.296 76.296 85.452 92.573 47.812 6.104-12.207 28.484-47.812 50.864-78.33 41.71-59.003 50.865-100.712 25.432-122.075-8.138-7.12-15.259-17.294-15.259-22.38 0-6.104-13.225-27.467-30.518-48.83-16.277-21.363-30.519-41.709-30.519-45.778s-13.225-24.415-30.519-45.778c-16.276-21.363-30.518-41.708-30.518-45.777s-14.242-26.45-32.553-49.847c-45.778-59.003-44.76-57.986-51.882-50.865m145.472 350.964c0 63.072-39.674 80.365-66.124 29.501-16.276-31.536-28.484-136.316-16.276-147.506 3.052-4.07 23.397 13.224 43.743 37.64 29.502 32.552 38.657 52.898 38.657 80.365" style="stroke-width:1.01729"/>
</svg>
