<svg xmlns="http://www.w3.org/2000/svg" width="1455" height="960">
    <path d="M711.263 929.715c-7.108 8.124-8.123 19.293-7.108 79.712l1.523 70.573h40.618l1.523-70.065c.508-42.141-1.015-73.62-4.062-79.712-6.6-12.693-21.324-13.201-32.494-.508m462.533-468.625c-2.031 2.03-3.554 12.693-3.554 23.355v19.293l82.758-1.015 82.25-1.523v-40.618l-79.204-1.523c-43.156-.508-80.22.508-82.25 2.03m-1052.503 4.062c-1.523 4.061-2.03 13.708-1.015 21.832L121.8 501.2h162.47v-40.618l-80.22-1.523c-66.003-1.015-80.22 0-82.758 6.093m586.924-23.863c-13.2 5.585-24.878 23.863-24.878 39.602 0 21.324 15.739 38.587 39.094 41.633 26.401 3.554 51.787-16.755 51.787-41.633 0-28.94-36.555-50.772-66.003-39.602m32.494 27.924c6.6 9.647 7.108 12.693 1.523 21.325-9.139 13.708-16.247 15.231-25.894 5.585-10.154-10.663-10.154-19.802 0-29.956 10.663-10.662 15.232-10.154 24.37 3.046m-91.897-191.918c-11.678 6.6-34.017 20.817-49.757 30.971l-27.924 18.786v148.254c0 111.19 1.523 150.285 6.6 156.378 5.585 6.6 39.602 30.97 78.697 55.849 10.662 6.6 26.909 8.631 72.603 8.631 57.88.508 59.404 0 81.236-15.232 12.185-8.123 33.001-22.34 45.694-30.463 13.201-8.123 24.879-19.8 26.91-26.401 1.523-6.093 3.046-74.635 3.046-151.808 0-139.623 0-140.639-11.17-151.808-6.6-5.585-16.247-12.693-21.832-15.232-10.154-5.077-15.232-8.123-48.233-28.94-15.74-9.647-24.879-11.17-76.158-11.17-52.295 0-60.419 1.523-79.712 12.185m124.391 169.071c21.832 24.878 21.832 44.172-1.015 70.573-16.247 18.786-18.278 19.293-46.203 19.293-27.417-.507-30.97-2.03-43.664-17.77-50.772-60.926 37.571-130.991 90.882-72.096M667.599 62.53c-82.25 6.093-160.947 41.125-208.165 91.897l-12.693 14.216-22.847-21.831c-53.31-50.265-95.959-84.79-105.606-84.79-5.585 0-13.2 5.078-17.77 11.678-9.647 14.724-7.616 17.262 47.218 64.48 23.863 20.31 49.249 43.664 56.357 51.788l13.2 14.216-17.77 36.556c-17.77 36.048-20.816 46.71-32.494 109.16-4.061 24.37-4.061 38.586 1.016 60.926 3.554 16.247 6.6 43.156 7.108 59.91.508 27.417 1.523 30.464 12.185 31.987 6.093 1.015 21.832 11.677 34.525 24.37 16.755 16.247 27.417 22.34 38.079 22.34 17.263 0 18.786-5.077 4.57-17.77-5.585-5.077-10.155-13.2-10.155-18.786 0-7.615 4.062-9.139 22.34-9.139 24.878 0 29.955-6.092 23.863-28.94-3.554-13.2-5.585-14.216-34.018-15.739-20.816-1.015-31.986-4.062-36.048-9.647-7.615-10.154-8.123-47.218-1.523-74.127 3.047-10.154 7.108-26.401 9.14-35.54 6.6-24.878 32.493-74.635 39.094-74.635 3.046 0 10.662 4.57 17.262 10.662 9.647 9.14 13.2 9.647 25.894 4.57 11.17-4.57 16.754-4.57 25.386 1.015 9.646 5.585 11.677 5.585 13.708 0 5.077-13.708 49.757-51.787 79.712-67.527 27.417-14.723 35.033-16.754 67.527-16.247 26.401 1.016 38.079-1.015 42.14-6.6 9.647-11.17 79.712-9.647 122.36 3.554 19.294 6.093 36.557 12.693 38.08 15.232s7.108 4.57 12.185 4.57c5.585 0 12.185 5.076 15.74 11.169 5.077 9.139 4.061 12.185-6.093 19.801-6.6 5.077-16.247 10.662-20.817 12.693-5.077 1.523-9.139 5.077-9.139 7.616s4.062 6.6 9.14 8.123c18.785 7.108 66.003 47.726 85.296 73.62 21.324 27.924 30.463 44.171 44.68 76.665 14.216 33.002 13.2 33.51-38.587 35.033l-47.218 1.523-1.523 15.74c-2.539 23.355 7.108 27.924 57.88 27.924 48.233 0 52.803 2.03 52.803 26.401 0 52.803-39.095 169.579-61.434 181.764-12.186 6.6-12.186 4.062 3.046-38.587 15.74-42.648 23.863-116.775 12.185-113.221-4.062 1.015-9.647 14.724-13.2 29.955-6.6 30.464-15.232 54.834-28.94 79.712-8.124 15.74-9.647 16.755-17.77 9.14-11.678-10.663-20.817-10.155-34.526 1.522-14.216 12.186-14.216 14.724-1.015 28.94 15.231 16.247 9.647 26.91-31.479 57.373-47.218 35.54-130.484 74.635-139.115 65.496-7.108-6.6 6.093-20.31 30.97-31.987 15.233-7.108 27.418-15.231 27.418-17.77s5.077-5.077 11.17-6.093c6.092-1.015 11.677-4.569 13.2-8.123 2.539-8.631-16.754-7.616-24.37 1.523-3.554 4.062-11.678 7.616-18.278 7.616-6.093 0-13.2 2.03-14.724 5.077-1.523 2.539-8.631 5.077-15.232 5.077-8.63 0-12.693-3.046-13.708-11.677-1.015-9.14-4.57-11.17-18.786-11.17-14.723 0-17.77 2.03-22.847 17.77-5.077 16.755-7.108 17.77-30.97 19.293-30.972 2.539-103.068-6.6-135.054-16.754-13.201-4.062-27.417-7.616-31.987-7.616s-13.2-5.077-18.785-10.662l-10.662-10.662 12.693-11.17c43.664-36.556 54.326-46.203 54.326-51.788 0-3.046-8.124-9.646-17.263-14.723l-17.77-9.647-27.417 25.386c-29.955 26.909-33.002 34.525-20.816 51.787 7.108 10.155 7.108 11.17 0 11.17-4.57 0-8.124-2.538-8.124-5.077 0-3.046-3.046-5.077-7.108-5.077-11.17 0-65.496-38.587-97.99-69.05-26.401-25.386-29.447-27.417-30.97-17.263-1.016 6.093 2.03 15.232 6.092 19.801 4.57 5.078 8.123 10.663 8.123 12.693 0 5.078 42.141 59.911 52.803 68.543 14.216 11.677 9.14 22.847-24.37 50.264-17.77 14.724-40.618 34.525-50.772 44.68-17.77 17.262-17.77 18.277-10.155 29.955 4.57 7.108 12.693 12.693 18.278 12.693 8.124 0 63.973-43.157 87.836-68.035 23.863-25.386 24.37-25.386 56.357-4.062 16.754 10.663 41.633 24.879 55.341 31.48 14.216 6.092 31.479 14.723 39.095 18.277 7.108 4.062 17.262 7.108 22.847 7.108 5.077 0 19.293 4.062 31.986 8.631 33.002 11.678 169.07 11.17 211.212-1.015 64.988-19.294 104.082-36.556 152.823-69.05l36.556-24.37 23.863 21.324c13.708 11.677 30.463 26.909 37.571 33.51 33.51 30.97 58.895 49.248 67.019 47.725 4.57-1.523 12.185-7.616 16.247-14.216 8.124-12.186 7.108-12.693-34.017-49.25-66.004-58.387-74.635-66.51-74.635-71.08 0-2.539 9.647-17.77 21.832-33.51 38.587-52.295 57.88-91.897 77.173-160.947 10.662-38.586 8.124-162.977-4.061-204.61-12.186-40.618-42.141-97.99-70.066-135.054-13.708-18.278-24.878-35.033-24.878-37.571 0-4.57 8.631-13.2 74.635-71.08 41.125-36.557 42.14-37.064 34.017-49.25-15.74-24.37-20.817-21.832-92.405 42.141-56.357 50.772-48.741 48.741-85.805 23.355-18.277-12.185-45.694-28.432-61.434-35.54s-35.54-16.247-43.156-20.309c-8.123-4.062-18.278-7.108-23.355-7.108s-18.786-3.046-31.478-7.108c-25.894-8.631-96.975-12.185-151.809-7.616m124.392 55.342c-14.216 6.092-43.157 6.092-43.157 0 0-3.047 12.186-5.078 26.91-4.57 19.293 0 23.862 1.523 16.247 4.57m-86.82 9.646c4.061 6.093-10.662 17.263-40.11 30.971-42.649 19.801-99.513 69.05-107.13 92.405-4.06 13.708-18.785 10.662-34.016-6.6-7.616-8.632-13.709-17.77-13.709-19.801 0-14.724 108.652-85.805 131.5-86.313 4.57-.507 13.708-3.554 20.816-7.616 14.216-8.123 38.587-10.154 42.649-3.046m318.34 162.47c29.955 32.494 57.372 75.65 66.511 102.56 3.046 9.646 8.631 23.863 12.693 31.478 7.616 14.724 5.585 31.987-3.554 26.402-2.539-1.523-5.077-9.647-5.077-18.278 0-8.124-2.031-14.724-4.57-14.724-5.077 0-14.216-14.724-25.386-39.602-6.092-13.2-61.941-70.573-83.773-85.805-11.17-7.615-13.709-12.185-11.17-20.816 6.6-20.309 24.878-13.709 54.326 18.785M687.908 843.91c0 2.54-9.647 4.57-21.324 4.57l-21.832-1.016 20.309-3.554c11.17-2.03 20.816-4.061 21.832-4.569.507 0 1.015 1.523 1.015 4.57m22.848-958.574c-1.524 4.062-2.031 38.587-1.524 77.173 1.524 60.419 2.539 71.081 10.662 76.158 6.093 4.062 11.17 4.062 17.77 0 7.616-5.077 8.632-14.724 8.632-81.235v-75.65l-16.755-1.523c-10.154-1.016-17.262 1.015-18.785 5.077" style="stroke-width:.50772"/>
</svg>
