<svg xmlns="http://www.w3.org/2000/svg" width="1200" height="960">
    <path d="M558.578 0a385.4 385.4 0 0 0-45.3 181.292c0 212.867 172.563 385.43 385.43 385.43A385.4 385.4 0 0 0 1080 521.404a481.8 481.8 0 0 1-20.645 103.866 472.2 472.2 0 0 1-160.647 28.174 472.1 472.1 0 0 1-149.598-24.316 472.2 472.2 0 0 1 24.334 149.58 472.2 472.2 0 0 1-28.174 160.647A481.8 481.8 0 0 1 641.422 960a385.4 385.4 0 0 0 45.3-181.291c0-212.581-172.116-385.026-384.697-385.43h-.733A385.4 385.4 0 0 0 120 438.595a481.8 481.8 0 0 1 20.645-103.866 472.2 472.2 0 0 1 160.647-28.174 472.1 472.1 0 0 1 149.598 24.316 472.2 472.2 0 0 1-24.334-149.58A472.2 472.2 0 0 1 454.73 20.645 481.8 481.8 0 0 1 558.578 0m101.27 1.957a482 482 0 0 1 75.504 15.658 231.26 231.26 0 0 0-67.902 163.677c0 127.72 103.538 231.258 231.258 231.258a231.26 231.26 0 0 0 163.677-67.883 482 482 0 0 1 15.658 75.486A298.7 298.7 0 0 1 898.708 480C733.736 480 600 346.264 600 181.292A298.7 298.7 0 0 1 659.847 1.957m147.678 43.248a481.8 481.8 0 0 1 108.102 70.8 67.5 67.5 0 0 0-16.016-2.164 68 68 0 0 0-.904 0c-37.251 0-67.45 30.199-67.45 67.45s30.199 67.45 67.45 67.45 67.45-30.198 67.45-67.45a67.5 67.5 0 0 0-2.145-16.9 481.8 481.8 0 0 1 70.782 108.064c-30.408 45.395-81.448 72.641-136.087 72.644-90.468 0-163.807-73.339-163.807-163.807a163.81 163.81 0 0 1 72.625-136.087M362.89 60.6a549.2 549.2 0 0 0-13.419 120.692c.002 16.864.781 33.72 2.334 50.512a549 549 0 0 0-50.513-2.334c-40.596 0-81.068 4.5-120.672 13.419a482 482 0 0 1 2.315-4.065q1.259-2.18 2.54-4.348l.358-.602q.262-.443.527-.884a482 482 0 0 1 2.428-4.028l.545-.884a482 482 0 0 1 2.466-3.99l.545-.866a482 482 0 0 1 2.522-3.97l.565-.867a482 482 0 0 1 2.578-3.933l.565-.866a482 482 0 0 1 2.616-3.895l.583-.847a482 482 0 0 1 3.256-4.724 482 482 0 0 1 3.293-4.667 482 482 0 0 1 2.767-3.82l.602-.829q1.394-1.889 2.804-3.764a470 470 0 0 1 3.463-4.573l.621-.81a481 481 0 0 1 3.538-4.516 481 481 0 0 1 2.917-3.67l.66-.809a482 482 0 0 1 2.973-3.632l.658-.79a482 482 0 0 1 3.012-3.595q.337-.396.677-.79 1.516-1.787 3.049-3.558l.696-.79a482 482 0 0 1 3.087-3.52l.696-.771a482 482 0 0 1 3.143-3.5l.696-.753a482 482 0 0 1 7.83-8.375 482 482 0 0 1 3.274-3.369l.715-.734a482 482 0 0 1 3.313-3.331l.734-.734a481 481 0 0 1 4.083-4.027l.565-.546a482 482 0 0 1 7.754-7.34q1.714-1.59 3.444-3.162l.771-.696a482 482 0 0 1 3.5-3.143l.773-.677a482 482 0 0 1 3.538-3.087l.79-.677a482 482 0 0 1 3.557-3.05 482 482 0 0 1 4.404-3.669l.79-.659a481 481 0 0 1 3.651-2.973l.81-.64q1.827-1.467 3.67-2.917.413-.32.828-.64a482 482 0 0 1 4.516-3.5 481 481 0 0 1 3.745-2.824l.847-.62a482 482 0 0 1 4.611-3.407 482 482 0 0 1 4.649-3.331q1.913-1.355 3.839-2.691.432-.302.866-.603a482 482 0 0 1 4.723-3.218q1.95-1.308 3.915-2.597a482 482 0 0 1 9.636-6.192l.884-.546q1.989-1.242 3.99-2.465l.885-.546a482 482 0 0 1 4.027-2.409l.885-.527q.751-.435 1.505-.865a482 482 0 0 1 3.463-2.014q.602-.35 1.204-.696.762-.434 1.525-.866M301.329 480C466.287 480.021 600 613.751 600 778.709a298.7 298.7 0 0 1-59.847 179.334 482 482 0 0 1-75.505-15.658 231.26 231.26 0 0 0 67.902-163.676c.005-126.924-102.289-230.133-229.207-231.259h-.02q-1.015-.005-2.032 0a231.26 231.26 0 0 0-163.676 67.883 482 482 0 0 1-15.658-75.486A298.7 298.7 0 0 1 301.291 480zm.038 134.9c90.439.042 163.732 73.37 163.732 163.809.005 54.631-27.225 105.67-72.607 136.086a481.8 481.8 0 0 1-108.138-70.8 67.5 67.5 0 0 0 16.938 2.164c37.251 0 67.45-30.199 67.45-67.45.003-36.902-29.649-66.957-66.547-67.45a68 68 0 0 0-.903 0c-37.252 0-67.45 30.198-67.45 67.45a67.5 67.5 0 0 0 2.145 16.9 481.8 481.8 0 0 1-70.763-108.083 163.81 163.81 0 0 1 136.068-72.625zm718.014 102.211a486 486 0 0 1-2.314 4.065 480 480 0 0 1-2.541 4.348 464 464 0 0 1-1.694 2.823 482 482 0 0 1-2.127 3.519l-.207.339a482 482 0 0 1-2.634 4.253 484 484 0 0 1-2.654 4.16l-.075.13q-.731 1.132-1.468 2.26a482 482 0 0 1-2.24 3.406 483 483 0 0 1-2.615 3.895l-.584.847a482 482 0 0 1-3.256 4.724 482 482 0 0 1-2.917 4.122 477 477 0 0 1-5.721 7.847l-1.016 1.337-.433.602a482 482 0 0 1-2.842 3.726 482 482 0 0 1-4.16 5.345 482 482 0 0 1-3.443 4.329l-.866 1.035a481 481 0 0 1-2.748 3.35l-.696.847q-1.227 1.472-2.465 2.935l-.678.79a482 482 0 0 1-3.049 3.558q-.347.396-.696.79a482 482 0 0 1-10.37 11.518l-.545.583a482 482 0 0 1-3.106 3.313l-.884.94q-.817.85-1.638 1.695a483 483 0 0 1-6.944 7.038 482 482 0 0 1-7.83 7.622q-.947.897-1.9 1.788-1.173 1.105-2.352 2.202-.78.717-1.562 1.43-1.332 1.23-2.673 2.447l-.301.282a482 482 0 0 1-3.5 3.124 483 483 0 0 1-3.106 2.73l-1.204 1.053-.79.678a482 482 0 0 1-3.558 3.048 482 482 0 0 1-4.403 3.67l-.79.659q-1.82 1.486-3.652 2.955a485 485 0 0 1-4.48 3.575q-.412.32-.827.64a482 482 0 0 1-6.305 4.837q-.976.746-1.957 1.487l-.847.62q-2.006 1.498-4.027 2.974-1.614 1.174-3.237 2.334-.742.538-1.487 1.073a483 483 0 0 1-3.011 2.108l-1.6 1.11a480 480 0 0 1-4.93 3.388q-1.175.784-2.353 1.562-1.118.746-2.24 1.486l-.583.396a482 482 0 0 1-3.934 2.54 483 483 0 0 1-4.836 3.068l-.885.546q-2.007 1.251-4.027 2.484-2.205 1.349-4.423 2.672l-.565.32-.771.47q-2.027 1.188-4.065 2.353l-.904.527q-1.361.777-2.729 1.543a549.2 549.2 0 0 0 13.419-120.673 549 549 0 0 0-2.334-50.512 549 549 0 0 0 50.513 2.334c40.596 0 81.068-4.5 120.672-13.419z" style="stroke-width:.96"/>
</svg>
