<svg xmlns="http://www.w3.org/2000/svg" width="1200" height="960">
    <path d="M396.474 0c-24.092 1.81-38.674 12.858-43.227 37.16-5.01 24.711-8.39 50.013-9.776 77.032-1.9 50.958-1.477 102.158-2.532 153.237 0 2.533-3.994 5.044-6.95 8.422l-22.378-3.77c-3.71-77.492-7.422-153.948-11.131-230.385-.633-13.418-1.251-26.715-1.885-38.987H117.561c3.618 23.368 5.324 43.823 10.6 63.603 21.168 88.59 84.586 145.184 153.002 198.585 10.795 8.442 20.862 17.936 26.56 22.79 6.333 58.769 11.505 110.51 16.903 163.368h4.417l16.372-146.936c69.562 35.52 138.619 61.086 214.544 56.654 2.321 26.836 2.41 26.813-9.953 37.396-52.104 44.626-46.847 95.138-13.015 130.446l.058.06c7.247 6.587 12.84 14.934 16.431 24.675 4.209 13.28 6.596 27.387 6.596 42.05 0 14.955-2.377 29.387-6.478 41.93-9.83 27.59-11.543 58.035-22.85 84.57-19.117 45.47-2.529 77.335 33.745 108.302v.059c-16.825 17.67-29.07 40.513-47.585 48.232l6.773-2.532c-50.235 20.956-102.458 38.034-163.367 52.296-22.102 4.855-36.785 10.606-46.524 31.743h586.683c-20.806-13.87-33.065-29.21-45.76-29.21-36.243-.845-66.295-18.7-99.704-26.207-44.294-10.071-83.711-27.909-110.246-67.137-1.688-2.654-3.082-5.523-4.77-8.599 35.942-29.278 49.925-63.418 31.743-110.246-12.916-33.202-17.24-69.666-27.68-103.944-2.17-7.629-3.298-15.706-3.298-24.028 0-21.53 7.74-41.223 20.495-56.36 42.063-56.054 41.433-91.67-11.425-137.984-12.664-11.126-17.629-21.218-5.477-34.334 25.268-1.689 50.51.045 73.968-5.654 121.667-29.7 226.476-89.104 305.356-187.1 38.053-47.883 65.381-101.716 57.36-167.901C1070.876.783 1063.998 0 1057.244 0H412.316zm-70.847 496.931c-8.141 29.7-23.876 54.123-10.247 82.98h25.205a103.5 103.5 0 0 0 3.004-24.794c0-21.71-6.686-41.903-17.903-58.186z" style="stroke-width:30.1528"/>
</svg>
