<svg xmlns="http://www.w3.org/2000/svg" width="1176" height="960">
    <path d="M584.915.024c-73.672.99-149.702 32.162-220.345 91.03-48.398 40.953-67.757 70.001-100.52 154.14-16.38 43.186-32.014 80.414-45.416 106.475-5.957 11.913-10.428 24.57-10.428 28.293s-9.671 27.55-21.585 52.866c-11.913 26.06-32.017 69.248-44.675 97.542-43.93 95.308-33.51 119.136 134.768 295.604L404.032 960h367.831l127.329-134.026c167.532-175.723 178.695-200.302 135.51-294.12-11.914-26.806-32.018-69.985-44.676-96.79-11.914-26.805-22.338-51.38-22.338-55.102 0-3.723-4.46-16.38-10.416-28.293-13.403-26.061-29.047-63.29-45.428-106.475-32.017-81.905-52.117-113.182-96.048-149.667-50.632-43.186-87.859-64.04-145.937-82.654C642.217 3.868 613.743-.363 584.915.024m2.705 45.472c67.733.654 137.244 13.448 158.185 34.39 5.213 5.212 12.654 8.944 17.866 8.944 15.637 0 80.42 70.73 96.8 104.98 22.338 46.91 40.204 104.244 40.204 128.071 0 11.17 10.424 34.258 22.338 51.384 20.104 27.55 22.338 35.74 22.338 89.35 0 32.018-5.205 79.665-10.417 104.981-5.957 25.316-13.407 58.826-15.64 74.463-5.957 38.718-21.591 42.438-53.609 11.91-35.74-34.995-55.1-74.461-49.889-102.755 5.212-25.316 17.866-31.271 17.866-8.933 0 8.19 3.727 17.126 7.45 19.36 4.467 2.978 7.45-5.952 7.45-20.844 0-14.147 2.226-36.489 4.46-49.147 4.468-20.848 2.976-23.08-13.405-23.08-23.082 0-29.034-5.959-20.843-21.595 13.402-25.316 29.787-62.548 29.787-69.25s-75.948 30.533-100.52 49.148c-14.891 11.169-14.155 11.907 13.394 37.967 24.572 22.338 28.297 29.786 24.574 46.912-2.978 11.169-14.15 27.549-24.574 36.484-19.359 15.636-19.349 16.38-8.18 44.675 5.957 15.637 17.117 48.397 24.563 72.969 6.701 24.571 17.133 58.081 23.09 74.462 11.913 34.996 13.399 63.294 3.72 63.294-3.724 0-37.226-35.742-73.71-80.418-36.486-43.93-77.443-91.586-90.846-105.733-34.995-37.974-44.675-66.268-44.675-134.026 0-34.996-2.982-59.564-7.45-59.564-4.467 0-7.438 24.568-7.438 59.564 0 67.758-9.68 96.052-44.676 134.026-13.402 14.147-54.36 61.802-90.845 105.733-36.485 44.676-69.987 80.418-73.71 80.418-9.68 0-8.194-28.298 3.72-63.294 5.956-16.38 16.378-49.89 23.079-74.462 7.446-24.572 18.617-57.332 24.574-72.969 11.168-28.294 11.168-29.039-8.192-44.675-10.424-8.935-21.595-25.315-24.573-36.484-3.723-17.126.002-24.574 24.573-46.912 27.55-26.06 28.297-26.798 13.405-37.967-24.571-18.615-100.52-55.849-100.52-49.147s16.385 43.933 29.788 69.249c8.19 15.636 2.228 21.596-20.855 21.596-16.38 0-17.872 2.23-13.404 23.08 2.233 12.657 4.472 35 4.472 49.146 0 14.892 2.982 23.822 7.449 20.844 4.468-2.234 7.439-11.17 7.439-19.36 0-22.338 12.664-16.383 17.876 8.933 5.213 28.294-14.148 67.76-49.889 102.755-32.017 30.528-47.651 26.808-53.608-11.91-2.978-15.637-9.684-48.405-15.64-73.721-5.957-24.572-10.428-71.474-10.428-104.98 0-54.356 2.234-62.544 22.338-90.093 12.658-17.126 22.338-40.215 22.338-51.384 0-23.827 17.876-81.161 40.214-128.07 16.381-34.252 81.153-104.981 96.79-104.981 5.212 0 12.664-3.732 17.876-8.944s26.802-14.884 48.395-21.585c28.48-9.214 68.485-13.198 109.125-12.805m.327 28.435c-8.935 0-14.891 14.147-33.506 78.182-14.892 52.121-31.273 106.483-44.676 148.925-5.212 16.38-14.891 49.88-22.337 74.452s-17.868 55.846-23.08 69.249c-11.913 27.55-13.407 50.629-4.472 56.586 3.723 2.233 26.063-16.377 49.89-40.204 40.952-41.697 46.909-44.675 78.181-44.675 31.273 0 37.23 2.978 78.182 44.675 23.827 23.827 46.166 42.437 49.89 40.204 8.934-5.957 7.452-29.036-4.462-56.586-5.212-13.403-15.644-44.678-23.09-69.25-7.446-24.57-17.126-58.07-22.338-74.451-13.402-42.442-29.783-96.804-44.675-148.925-7.446-24.572-15.637-52.12-19.36-61.8-3.723-8.935-9.68-16.382-14.147-16.382m0 565.892c52.866 0 65.533 12.658 75.957 78.182 2.234 12.658-3.733 14.892-36.495 19.36-21.593 2.978-57.333 2.978-78.182 0-42.441-5.212-40.942-2.237-30.518-55.103 2.234-11.169 11.159-25.314 19.35-31.27 8.934-5.957 31.274-11.17 49.888-11.17m78.051 120.174c5.517-.39 17.259 6.457 58.211 29.493 29.04 16.38 59.568 32.014 67.014 34.248 24.571 7.446 13.403 28.291-36.485 67.755-31.272 23.827-68.5 31.272-72.968 14.146-4.467-14.892-11.164-30.526-17.866-42.44-22.337-39.463-24.58-46.903-17.135-54.35 4.468-4.467 8.191-15.64 8.191-23.831 0-8.935 2.236-18.61 5.214-20.844 2.094-2.327 3.317-4 5.824-4.177m-157.192 1.821q.611-.021.96.12c4.467.745 8.94 9.678 9.685 20.102 1.49 9.68 5.952 21.59 9.674 26.057 4.468 5.212.745 21.593-11.168 44.676-9.68 20.103-20.104 42.445-22.338 49.147-6.701 20.848-40.2 15.633-74.452-10.427-49.887-39.464-61.058-60.31-35.742-67.755 6.701-2.234 36.482-17.867 64.777-34.248 27.224-15.358 52.485-27.448 58.604-27.672" style="stroke-width:.96"/>
</svg>
