<svg xmlns="http://www.w3.org/2000/svg" width="1480" height="960">
    <path d="M216.85 125.106c-1.532 3.064 3.575 11.234 12.256 18.383s15.83 17.362 15.83 22.468c0 8.17-2.554 8.17-36.767-3.063-39.319-12.766-65.361-15.83-65.361-7.15 0 3.064 4.085 6.639 9.191 8.17 28.596 8.682 149.107 68.426 149.107 74.043 0 2.554 4.595 4.596 9.702 4.596 10.723 0 18.893 8.681 13.276 14.298-1.532 2.043-10.212-.51-18.383-5.617-8.68-4.596-19.915-8.68-25.02-8.68-5.107 0-10.724-2.043-12.767-5.107-1.532-2.553-10.213-7.15-19.404-9.702-9.192-2.554-32.17-10.724-51.575-17.873-19.404-7.149-39.319-13.276-44.425-13.276-10.213 0-13.277 12.255-4.596 17.872 9.702 6.128 5.617 13.277-4.596 7.66-14.297-7.66-28.595-6.639-22.468 1.02 2.554 3.575 8.681 18.895 13.788 33.703 9.191 27.064 9.191 66.894 0 167.49-3.064 35.234 4.085 48 27.574 48 13.277 0 132.255 13.276 169.532 18.893 33.191 5.106 1.532 10.213-84.255 13.787-44.937 1.532-86.809 4.596-92.937 6.128-13.787 4.085-18.893 16.851-12.255 33.702 4.596 11.745 6.128 12.255 29.617 8.68 13.277-2.042 46.468-7.659 73.021-11.744s63.32-10.213 81.703-13.787c43.404-7.66 58.212-8.17 61.276-2.042 1.532 2.553-3.574 5.616-11.234 6.638-7.149 1.021-16.34 5.106-19.404 9.191-3.575 4.085-9.192 7.15-13.277 7.15-3.574 0-15.319 3.574-26.042 8.17-10.724 4.595-26.043 11.744-34.724 15.319-36.255 15.319-88.85 42.383-113.361 57.702-24 14.808-27.064 18.893-27.064 34.212 0 15.83-9.702 49.022-20.936 69.958-5.617 10.213-1.022 11.234 17.872 3.574 14.808-5.617 17.362-1.532 4.596 7.66-4.596 3.574-6.639 8.68-4.085 12.255 4.085 7.15 19.914 5.617 48.51-4.596 9.702-3.574 27.064-9.702 38.298-13.787s27.064-10.723 34.723-14.808c8.17-4.085 18.383-7.15 22.98-7.15 4.084 0 11.744-3.574 16.85-8.17 5.107-4.595 12.766-7.148 17.362-5.106 10.213 3.575 5.106 13.277-7.66 13.277-5.106 0-10.212 3.574-12.255 7.66-1.532 4.084-7.149 7.659-12.766 7.659s-11.234 2.043-13.276 4.596c-1.532 3.064-15.83 11.234-32.17 18.383-15.83 7.66-39.32 18.893-52.086 25.02-12.766 6.64-29.106 13.278-36.766 14.81-8.17 2.042-14.298 6.127-14.298 9.19 0 9.193 61.277-1.53 104.17-18.893 8.681-3.574 8.681-2.553 1.022 12.256-4.596 8.68-12.766 18.383-18.383 21.447s-10.213 8.68-10.213 12.765c0 6.128 9.192 7.66 48 7.66 26.553 0 49.532-2.043 51.575-4.596 1.532-3.064 14.808-10.723 29.617-18.383 14.297-7.149 33.702-17.872 41.872-22.978 8.68-5.617 18.893-11.745 22.979-13.788 42.893-20.425 163.914-115.915 233.872-184.85 26.553-26.554 42.893-31.15 30.638-9.192-3.064 6.127-7.66 17.872-9.702 26.553-7.66 30.128-17.872 51.574-41.362 86.808-33.191 49.532-81.702 111.32-89.872 113.873-8.68 2.553-7.66-14.809 1.532-26.553 7.149-9.703 10.723-33.703 5.106-33.703-1.532 0-27.063 12.256-57.702 27.575-50.042 25.021-80.17 38.298-104.68 45.957-34.213 10.724 22.467 12.766 364.084 12.766s398.298-2.042 364.085-12.766c-24.51-7.66-54.638-20.936-104.68-45.957-30.639-15.32-56.17-27.575-57.702-27.575-5.617 0-2.043 24 5.106 33.703 9.191 11.744 10.213 29.106 1.532 26.553-8.17-2.553-56.681-64.34-89.872-113.873-23.49-35.234-33.703-56.68-41.362-86.808-2.043-8.68-6.638-20.426-9.702-26.553-12.256-21.958 4.085-17.362 30.638 9.191 69.957 68.936 190.979 164.426 233.872 184.851 4.085 2.043 14.809 8.17 22.979 13.788 8.68 5.106 27.574 15.83 41.872 22.978 14.809 7.66 28.085 15.32 29.617 18.383 2.043 2.553 25.022 4.596 51.575 4.596 38.808 0 48-1.532 48-7.66 0-4.085-4.596-9.702-10.213-12.765s-13.787-12.766-18.383-21.447c-7.66-14.809-7.66-15.83 1.021-12.256 42.894 17.362 104.17 28.086 104.17 18.894 0-3.064-6.127-7.149-13.787-9.191-8.17-1.532-24.51-8.17-37.277-14.81-12.765-6.127-36.255-17.36-52.084-25.02-16.34-7.15-30.639-15.32-32.17-18.383-2.043-2.553-7.66-4.596-12.767-4.596s-11.744-3.064-13.787-7.149-8.68-7.66-13.787-8.68c-5.617-1.022-10.724-5.107-12.255-8.682-2.554-8.68 16.85-7.66 24.51 1.532 3.575 4.085 10.723 7.66 15.32 7.66 5.106 0 15.83 3.064 24 7.149 7.659 4.085 23.489 10.723 34.723 14.808s28.596 10.213 38.298 13.787c28.595 10.213 44.425 11.745 48.51 4.596 2.553-3.574.51-8.68-5.106-12.766-12.255-9.191-6.638-14.808 6.638-7.66 15.83 8.682 22.468 7.15 16.851-3.063-12.766-24-20.936-55.149-20.936-80.17 0-35.234 2.043-33.702-91.915-79.66-66.383-32.68-102.127-48-133.787-58.213-15.83-5.106-9.702-13.276 9.191-13.276 10.213 0 37.277 3.574 60.256 7.66 158.298 28.595 157.787 28.595 160.34 6.127 3.064-24-6.128-29.106-49.532-29.617-131.234-1.021-161.872-20.426-46.468-29.617 102.638-8.17 108.255-11.745 98.043-60.766-12.766-61.277-6.639-130.723 14.808-171.064 5.617-10.213-5.106-12.255-21.447-3.574-10.212 5.617-14.297-1.532-4.595-7.66 8.68-5.617 5.617-17.872-4.596-17.872-5.106 0-25.021 6.127-44.426 13.276-19.404 7.15-42.383 15.32-51.574 17.873-9.192 2.553-17.872 7.149-19.404 9.702-2.043 3.064-7.66 5.106-12.766 5.106s-16.34 4.085-25.022 8.681c-8.17 5.106-16.85 7.66-18.383 5.617-5.617-5.617 2.554-14.298 13.277-14.298 5.106 0 9.702-2.042 9.702-4.596 0-5.617 120.51-65.361 149.617-74.042 4.596-1.532 8.681-5.107 8.681-8.17 0-8.681-26.043-5.617-65.362 7.149-34.212 11.234-36.766 11.234-36.766 3.063 0-5.106 7.15-15.319 15.83-22.468s13.787-15.319 12.255-18.383c-1.531-2.553-21.957-5.106-45.446-5.106-35.234 0-45.958 2.042-64.851 12.255-12.256 7.15-33.703 18.894-47.49 26.043-28.085 15.319-121.531 76.085-131.744 85.787-3.575 3.575-22.468 18.894-42.383 34.724-19.404 15.83-55.15 46.978-79.15 69.957-24 22.468-44.425 38.808-45.446 35.745-4.085-11.745 20.426-78.639 40.34-108.766 31.15-47.49 61.277-89.873 71.49-100.596 6.127-6.638 14.808-16.851 18.893-23.49 4.596-6.127 9.703-11.234 12.256-11.234 7.149 0 5.106 19.915-3.575 33.192-4.085 6.638-7.149 16.851-6.128 22.468 1.533 9.192 7.66 6.638 67.916-22.979 36.765-17.872 72.51-34.212 80.68-36.766 7.66-2.042 13.787-6.127 13.787-8.68 0-7.15-126.638-9.702-135.319-2.554-4.595 4.085-7.66 4.085-10.212 0-2.043-3.574-73.532-5.106-217.022-5.106-143.489 0-214.978 1.532-217.02 5.106-2.554 4.085-5.618 4.085-10.214 0-8.68-7.148-135.319-4.595-135.319 2.554 0 2.553 5.107 6.638 11.745 8.17 6.128 1.532 24 8.68 39.32 15.83 15.318 7.148 31.659 14.297 35.744 16.34s22.468 11.234 40.85 20.936c31.15 16.34 33.192 16.34 34.724 7.15 1.022-5.618-2.042-15.83-6.127-22.469-8.681-13.277-10.724-33.192-3.575-33.192 2.553 0 8.17 5.107 12.255 11.235 4.596 6.638 14.809 19.914 23.49 29.617 23.49 26.553 79.149 111.83 88.34 135.319 12.256 31.149 20.936 62.298 18.894 67.915-1.021 3.063-21.447-13.277-45.447-35.745-24-22.979-59.234-54.128-79.149-69.957-19.404-15.83-38.808-31.15-42.383-34.724-10.213-9.702-103.66-70.468-131.745-85.787-13.787-7.15-35.233-18.894-47.489-26.043C308.255 122.042 297.531 120 262.298 120c-23.49 0-43.916 2.553-45.448 5.106" style="stroke-width:1.14285"/>
</svg>
