<svg xmlns="http://www.w3.org/2000/svg" width="1200" height="960">
    <path d="M380.854 512.267c-6.573 7.45-7.45 16.215-6.135 66.176.876 45.14 2.63 58.288 7.888 61.356 3.945 2.63 92.472 3.944 225.702 3.068l219.127-.877V506.131l-219.565-1.315c-212.116-.876-219.566-.876-227.017 7.45m112.194-191.518c-2.192 3.068-5.26 10.518-6.136 16.654-.876 6.574-6.135 13.147-13.148 16.653-15.777 7.45-46.016 42.073-55.658 64.862-4.82 10.08-9.203 28.925-9.642 41.634l-1.753 23.666h394.43l1.315-15.339c2.63-35.06-28.487-88.527-64.424-111.317-10.956-7.012-17.968-15.777-20.598-25.418l-4.382-14.463-107.811-1.315c-82.392-.876-108.687.439-112.193 4.383m-9.642-313.79C422.05 23.173 388.743 36.32 338.344 63.93c-29.802 15.778-89.404 85.46-112.632 131.039-35.06 69.244-41.196 94.225-41.196 168.29.438 53.029 1.315 63.109 11.395 89.842 13.147 36.375 28.486 60.041 53.905 84.145l18.845 18.407v92.91l25.419 37.252c18.845 28.048 27.172 37.251 35.06 37.251 5.26 0 9.642-1.753 9.642-3.944s-7.012-20.16-15.34-39.881c-13.585-31.116-15.338-40.32-15.338-71.874 0-22.351 2.191-38.128 5.259-41.196 4.383-4.383 4.383-7.45 0-14.024-2.63-4.821-5.26-17.092-5.26-27.61 0-16.216 5.698-28.487 35.061-77.133 19.284-31.993 39.005-63.109 43.826-69.245 6.135-7.888 8.765-17.968 8.765-34.183 0-17.969 2.191-24.543 10.518-32.431 10.08-9.642 11.833-9.642 154.266-10.518l144.186-.877 1.315-49.085 1.314-49.084-14.024-15.339-13.586-15.777H530.738l-14.901 14.024c-8.327 7.889-14.9 16.654-14.9 19.721 0 7.89-8.766 11.833-14.463 6.136-2.63-2.63-11.833-4.82-20.16-4.82h-14.9l9.203-10.08c10.956-11.395 54.782-33.746 86.336-43.826 12.271-3.506 40.32-9.204 62.67-11.833 66.177-8.327 151.199 6.574 202.474 35.499 3.507 2.19 10.519 5.697 15.778 7.888 39.443 17.53 111.755 82.392 141.118 127.532 20.16 30.24 42.51 76.695 46.455 95.102 1.753 7.888 5.259 15.339 7.45 16.653 6.136 4.383 4.821 33.746-1.315 31.993-3.067-1.315-6.135-6.135-7.012-11.395-3.944-26.733-57.411-109.563-91.595-141.556-39.005-37.252-110.002-78.448-134.106-78.448-6.574 0-16.654-3.067-21.913-6.573-6.574-3.945-11.833-4.821-16.215-2.192-5.26 3.068-3.506 4.821 7.888 7.012 7.45 1.753 14.025 4.383 14.025 6.574 0 1.753 4.382 4.821 10.08 6.136 21.912 7.012 60.04 34.184 92.033 66.176 18.407 18.845 33.746 35.499 33.746 37.252 0 2.191 5.697 11.833 12.709 22.351 27.61 41.634 49.961 120.52 49.961 178.37.438 74.942-31.116 167.852-78.01 230.522-25.856 34.622-42.072 44.264-24.542 14.9 13.148-21.912 34.184-65.737 42.073-87.65 15.339-42.95 25.857-148.569 15.777-154.704-3.944-2.63-11.395 23.227-17.968 63.108-3.507 20.16-15.778 54.782-26.734 75.38-3.506 6.136-10.956 20.598-17.092 31.993-16.654 31.993-80.639 95.101-120.52 119.205-31.993 19.284-89.404 44.264-124.903 53.906-26.733 7.45-100.799 10.956-100.799 4.82 0-2.19 7.45-5.697 16.654-7.012 56.973-8.765 125.341-36.813 167.852-68.806 8.765-7.012 18.407-12.27 21.036-12.27s17.092-12.272 32.431-27.173c30.678-30.24 48.646-68.367 46.017-95.977l-1.315-14.901-195.9-1.315c-184.944-.876-196.338-.438-196.777 6.574-6.135 75.38 51.714 136.297 142.872 149.883 19.283 3.068 41.634 6.136 49.522 7.45 7.45 1.315 14.025 3.945 14.025 6.136 0 8.327-25.42 10.957-98.608 10.957-76.695-.439-101.237-3.945-166.537-24.981C281.37 796.694 203.8 747.61 151.647 694.142c-14.9-15.338-28.049-28.048-29.363-28.048-5.698 0-1.315 16.654 8.327 32.87 6.135 9.64 12.27 20.597 14.024 24.103 1.314 3.506 14.024 21.475 28.048 39.443 42.073 55.22 88.09 95.54 155.142 134.545 8.765 5.259 37.69 19.283 61.356 29.363 14.024 6.135 45.14 15.777 88.09 26.733 36.813 9.204 162.154 9.204 202.473-.438 41.635-9.642 81.954-22.351 107.811-34.184 12.271-5.697 25.419-11.394 28.925-13.148 3.506-1.314 12.71-6.573 19.721-11.394 7.45-4.821 16.216-10.08 19.722-11.833 14.9-6.574 60.917-43.826 87.651-70.997 63.985-64.424 101.675-134.106 128.847-239.726 14.9-56.097 7.45-185.382-13.148-233.152-3.506-7.888-6.135-17.092-6.135-20.16 0-10.518-44.264-92.033-66.615-121.834C946.642 141.94 878.274 85.406 814.289 53.413 770.9 31.94 734.526 19.23 679.744 6.52c-39.004-8.765-162.154-8.765-196.338.438m223.51 61.793c25.857 3.945 3.068 9.204-43.825 10.08-26.296 0-52.591 3.506-72.313 8.765-83.706 23.228-110.878 41.196-206.856 138.927l-66.615 67.491-1.753 35.937c-.876 19.722-4.82 43.826-8.765 53.468-17.53 43.387-25.857 66.614-28.925 78.447-4.382 18.407-12.71 18.845-20.16.877-9.203-21.475-8.764-97.293.439-129.286 7.012-23.227 16.215-47.331 24.104-61.794 2.191-3.506 8.327-15.338 13.586-26.295 11.833-23.227 80.639-94.225 108.687-111.755 60.041-38.566 127.094-62.232 188.45-67.491 34.622-3.068 88.09-1.753 113.946 2.63" style="stroke-width:.438255"/>
</svg>
