<svg xmlns="http://www.w3.org/2000/svg" width="1733" height="960">
    <path d="M617.125 688.996c-25.977 19.282-44.456 29.459-63.739 34.547-6.427 1.875-11.516 4.285-11.516 5.624 0 10.713 96.948 1.875 151.046-13.658 24.37-7.23 36.422-9.106 36.422-5.624 0 3.214-70.434 55.705-103.107 76.862-37.494 24.103-50.08 32.137-59.454 37.761-10.98 6.16-11.516 11.784-.804 11.784 14.194 0 70.703-11.784 92.395-19.015 4.553-1.607 11.784-3.75 16.069-4.82 28.12-7.231 87.842-36.155 121.586-58.919 38.03-25.442 38.565-23.3 5.089 21.693-24.64 33.208-28.12 37.493-65.079 81.147-13.39 15.8-19.014 24.37-16.604 24.906 5.356 1.071 42.047-18.747 67.489-36.422 35.35-24.639 54.9-41.243 81.95-69.631 14.194-14.998 26.513-26.513 27.317-25.71 1.606 1.875-22.764 58.383-43.118 99.894-8.838 17.943-14.73 32.405-12.855 32.405 4.017 0 53.83-51.152 68.827-70.97 6.696-8.838 18.747-26.781 26.514-39.636 8.034-13.123 15.265-24.103 16.604-24.907 5.892-3.75 1.607 25.71-9.909 67.22-2.142 7.232-4.553 18.48-5.624 24.907-1.607 9.641-1.071 10.98 2.41 9.641 6.696-2.41 34.548-51.955 47.67-84.896 7.232-17.675 21.158-65.346 21.158-71.773 0-6.695-2.678-6.428-19.55 1.34-26.514 11.783-34.816 14.193-76.862 20.62-30.799 4.553-83.29-1.874-115.962-14.194-7.5-2.945-16.07-5.891-18.747-6.695-2.946-.803-14.194-6.16-25.442-11.783l-20.354-10.445h-88.913zm609.003-111.41c-2.946 2.143-6.428 9.91-8.302 17.944-6.428 28.388-8.838 35.083-21.96 62.132-25.979 52.759-67.49 97.75-120.784 130.424l-14.461 8.838 2.142 43.653c3.214 77.13.268 197.912-5.356 225.229-1.34 6.427.803 14.194 4.017 14.194 2.678 0 22.228-32.673 33.744-56.24 12.32-24.907 20.89-46.064 29.192-72.31 4.017-12.586 8.837-27.584 10.98-33.476 2.142-6.16 3.75-13.926 3.75-17.675s1.606-12.052 3.749-18.747c4.017-12.855 9.64-62.4 9.64-85.432 0-16.336 2.143-26.781 5.357-26.781 2.946 0 36.958 104.179 49.813 152.652 9.373 35.62 13.658 48.474 16.069 48.474 1.338 0 4.552-9.909 7.23-22.228 4.018-17.676 5.089-35.351 5.357-87.842.535-58.383-.268-69.095-5.624-97.216-3.482-17.14-9.106-40.44-12.588-51.687-7.498-22.228-7.766-25.174-4.017-25.174 4.553 0 45.26 57.847 77.665 110.338 10.98 17.943 21.693 33.208 23.568 33.744 6.963 2.143-2.678-47.135-18.48-96.948-7.498-23.567-34.279-81.682-41.242-89.984-5.088-6.16-7.499-16.069-4.017-16.069 2.946 0 73.38 62.936 89.449 80.076 17.943 19.014 16.336 6.16-3.482-29.727-19.282-34.548-40.172-64.81-60.525-87.307l-15.265-16.604h-15.266c-8.837 0-17.407 1.607-20.353 3.75m57.58-2.41c0 2.143 1.338 4.017 2.945 4.017 1.34 0 10.98 5.356 20.89 11.784 31.333 20.621 45.527 28.12 47.134 25.71 2.143-3.214-1.339-8.035-20.086-28.924l-14.73-16.604h-17.943c-14.461 0-18.21.803-18.21 4.017m209.428-106.321c-2.41 6.963-1.875 39.636.803 53.027.803 3.481 5.892 7.23 15.265 10.98 7.767 2.946 31.066 12.587 51.688 20.89 40.44 16.603 52.223 19.817 52.223 14.997 0-4.553-65.078-69.364-87.039-86.503-27.584-21.425-29.727-22.497-32.94-13.391m-19.283-123.193c0 2.678 1.875 11.248 4.017 18.747 4.82 15.8 1.072 14.194 51.956 19.282 19.818 2.143 31.066 2.41 32.94.536 3.75-3.75-74.719-43.118-86.77-43.386-1.34 0-2.143 2.143-2.143 4.82m-67.756-53.295c-4.285 1.072-8.838 4.285-10.713 8.303-3.213 6.427-4.552 6.695-35.35 8.034-27.585 1.339-33.745 2.41-44.19 8.034l-12.051 6.696-301.287-1.072-301.02-1.071-14.73-7.499c-12.32-6.427-18.211-7.766-34.547-7.766-16.873 0-20.89-1.072-28.388-6.696l-8.838-6.695H432.336l-16.872 14.73c-17.676 15.533-20.354 19.55-20.622 31.334-.268 5.088-3.481 9.64-11.248 15.8l-11.248 8.838-9.91-5.624c-11.783-6.963-52.758-13.39-57.043-9.105-2.946 2.946-3.75 2.678 18.747 9.909 16.069 5.088 19.282 8.034 21.157 20.353 1.071 6.428 0 10.713-4.017 15.801-4.553 5.892-7.499 6.963-21.425 6.963-17.943.268-32.137 6.963-39.904 19.283-2.41 3.75-9.641 12.32-16.069 18.747-13.39 14.194-14.997 18.746-11.515 35.886 3.749 19.818-2.679 46.064-17.408 70.435-6.428 11.248-11.784 20.889-11.784 21.692 0 1.875-22.764 31.066-39.368 50.884-13.658 16.337-14.998 19.015-17.943 38.297-.804 5.089-3.214 18.48-5.089 29.46-2.142 10.98-7.23 38.029-11.248 60.257-4.82 27.049-9.373 43.653-13.658 51.152-4.82 8.302-7.231 17.676-9.106 37.494-1.339 14.461-3.75 33.208-5.356 41.242-2.41 12.855-2.143 15.534 2.142 21.158 9.106 12.051 17.676 16.068 47.403 21.692 53.562 9.91 72.041 13.659 85.7 16.605 23.3 5.356 66.417 1.07 74.987-7.5 7.23-7.23 4.82-17.942-5.357-24.906-10.712-7.23-11.515-11.248-4.285-18.21 2.679-2.679 6.16-7.232 7.767-10.445 4.285-8.303 6.695-43.654 3.75-56.509-3.482-15.265 1.606-38.564 12.319-55.704 4.552-7.499 9.64-19.55 11.516-26.781 1.606-7.5 4.017-15.266 5.356-17.408s3.481-6.695 5.088-9.91c4.285-10.176 30.53-35.618 36.69-35.618 5.624 0 10.713 3.75 17.408 12.855 1.875 2.41 8.57 9.105 14.997 14.73l11.516 10.176 42.047-1.607c27.852-1.07 45.528-3.213 52.758-5.891 5.892-2.143 15.533-5.892 21.425-8.303 5.892-2.41 17.676-9.909 26.246-16.604s21.693-16.336 29.191-21.692l13.39-9.91 102.037-1.07c64.81-.804 104.982-2.411 109.267-4.286 12.587-5.088 21.96-16.336 34.547-41.243 13.927-28.12 14.194-28.388 46.867-28.655 11.784 0 43.654-1.875 70.97-4.017 53.027-4.285 110.339-8.303 175.417-12.32 22.228-1.339 68.56-4.285 103.107-6.427 34.548-2.41 84.628-5.357 111.142-7.231 26.513-1.607 54.9-3.75 62.935-4.82 14.194-1.608 14.73-1.875 18.211-12.32 2.946-9.106 2.946-12.855-.803-25.978-3.482-12.587-3.75-17.407-1.071-26.78 4.284-15.266 3.213-62.4-1.607-71.506-1.875-4.018-5.892-16.605-9.106-28.388-9.909-39.369-13.39-50.081-21.157-63.74-8.302-14.461-14.73-17.943-28.12-15.533m-792.453 25.71c6.963 5.892 10.444 6.696 29.459 6.696 18.211 0 23.835 1.07 38.833 8.034l17.407 8.302 302.36 1.607 302.358 1.607 13.39-6.696c12.052-6.16 18.48-6.963 53.563-8.837 46.867-2.143 43.92-3.75 57.043 29.191 13.927 35.083 11.248 39.368-11.783 19.015-9.106-8.035-17.408-13.659-18.48-12.855-.803.803-1.606 10.98-1.606 22.496s-1.071 21.425-2.41 22.496c-2.679 1.34-36.69-24.639-48.206-37.226-12.052-12.855-16.337-7.498-16.337 20.354 0 12.32-.803 15.533-4.285 15.533-2.41 0-15.533-9.641-29.46-21.693-13.657-11.783-26.245-20.889-27.851-19.818-1.34.804-2.679 10.177-2.679 20.354 0 13.926-1.07 19.014-4.017 20.086-3.75 1.607-17.407-8.57-43.385-31.602-17.14-15.265-19.55-13.926-19.55 9.91 0 27.048-2.946 27.851-25.71 7.766-28.656-25.443-36.69-31.067-39.1-27.317-1.072 1.874-2.143 12.051-2.143 22.496s-.804 19.55-1.607 20.621c-.803.804-13.658-8.837-28.388-21.157-14.73-12.587-28.12-22.228-29.995-21.692-1.607.535-3.214 9.105-3.75 21.425-.535 14.73-1.874 20.621-4.284 20.621-1.875 0-14.73-9.641-28.656-21.425-13.658-11.784-26.245-21.157-27.852-20.621-1.34.535-3.214 9.909-4.017 20.621-.804 10.713-2.679 20.086-4.285 20.622-2.41.803-32.138-20.622-35.887-25.71-.804-1.072-5.892-5.357-11.516-9.642-12.855-9.64-15.265-6.963-15.265 17.944 0 25.174-1.607 24.906-38.03-8.302-14.461-12.855-20.62-16.872-23.567-14.998-1.607.804-2.678 10.177-2.678 20.354 0 13.926-1.071 19.014-4.017 20.086-2.41 1.071-13.658-6.696-29.727-20.622-24.371-20.889-25.978-21.96-29.46-17.14-2.142 2.946-3.749 11.784-3.749 21.96 0 12.32-1.071 16.873-3.481 16.873-2.143 0-14.194-9.106-27.05-20.086-12.854-10.98-25.71-20.086-28.655-20.086-4.553 0-5.088 2.143-5.088 18.747 0 13.926-1.072 19.282-3.75 20.354-2.41 1.071-14.194-6.963-29.727-20.086-13.926-12.052-26.513-21.693-27.852-21.693-4.017 0-5.624 7.499-5.624 25.442 0 9.374-1.071 17.676-2.143 18.48-1.07.535-14.73-9.374-29.994-22.497-15.266-13.123-28.924-23.032-29.995-22.496-1.072.803-2.143 10.98-2.143 22.496s-1.339 21.96-2.678 22.764c-1.607.803-15.265-9.373-30.798-22.764-18.211-15.8-28.656-23.3-29.46-20.89-.535 1.875-1.606 12.32-1.874 23.3-.536 10.98-1.875 20.354-3.482 20.89-1.339.267-14.73-9.374-29.459-21.96-14.462-12.588-27.852-22.497-29.46-21.961-1.338.535-2.945 10.176-3.48 21.425-.536 16.336-1.608 20.621-4.821 20.621-2.41 0-16.069-9.909-30.53-22.228l-26.514-21.96.536-11.785.535-12.051 21.96-11.516 21.961-11.516 53.027-2.41c92.395-3.75 90.252-3.75 99.358 3.75m-203.001 66.685c0 11.516-1.34 20.89-2.946 21.693-3.482 2.142-27.852-17.943-27.852-23.032 0-4.285 19.818-18.211 26.245-18.479 4.017 0 4.553 2.678 4.553 19.818m177.559 208.625c6.16 2.678 10.98 7.499 14.194 13.926 5.088 10.98 5.356 9.374-12.052 40.172-6.695 11.784-10.444 14.73-29.995 24.639-12.051 6.427-27.852 12.319-34.815 13.122-11.516 1.607-13.123 1.072-20.086-6.695-23.567-26.245-22.496-44.189 5.356-88.378 3.214-5.088 63.472-2.41 77.398 3.214m-133.906 10.98c8.302 7.5 10.445 11.784 12.587 23.3 4.82 28.656 10.177 40.707 21.693 50.08 12.855 10.445 10.445 13.927-9.91 13.927-34.011 0-55.168-19.55-55.436-51.42-.268-15.8 12.32-45.26 19.282-44.992.804.268 6.16 4.285 11.784 9.105m25.978-444.298c0 7.498 41.243 81.682 55.972 100.429 4.82 6.16 7.231 6.695 31.066 7.499 28.12 1.07 50.349-1.072 49.01-4.821-.536-1.34-16.604-14.194-35.619-28.656-31.87-23.835-72.577-56.776-89.717-72.309-7.766-7.23-10.712-7.766-10.712-2.142m763.262-9.91c-50.885 23.568-74.988 37.494-104.982 59.99-20.354 15.533-29.727 25.443-27.585 28.924.803 1.071 6.963 2.946 13.926 4.017 28.656 4.285 70.702 23.032 99.626 44.725l17.14 12.855h22.496c18.747 0 27.585-1.607 51.152-9.374 15.8-5.356 34.012-11.248 40.707-13.39 16.337-5.089 71.238-19.015 83.557-21.157 10.445-1.875 15.266-8.035 8.302-10.98-20.889-7.767-134.44-8.035-170.863 0-20.89 4.552-37.226 5.356-35.083 1.606 2.41-3.75 36.154-23.3 83.289-48.474 25.978-13.658 31.334-17.407 28.924-19.55-2.946-3.214-12.588-2.142-47.403 4.82-40.707 8.035-78.469 20.087-108.464 34.816-7.766 3.75-14.997 6.428-15.8 5.356-2.41-2.41 13.926-18.21 49.009-47.67 17.676-14.73 32.673-27.852 32.94-29.191 1.608-3.482-10.712-2.143-20.888 2.678M550.976.99c3.482 47.403 21.157 122.122 38.297 160.419 18.747 42.582 48.206 94.27 62.936 110.338 7.766 8.838 10.444 10.177 23.3 10.712 13.39.804 14.729.268 16.336-5.891 11.248-37.494 14.73-47.939 17.407-53.563 8.302-16.872 8.302-16.336-20.621-52.758-25.174-31.066-53.295-68.828-77.398-103.911-5.088-7.231-19.282-29.995-31.87-50.616-12.586-20.622-24.638-38.03-26.512-38.565-3.214-1.071-3.482 3.214-1.875 23.835m519.554-93.466c-37.494 38.565-65.882 76.862-88.646 119.98-9.373 18.21-14.73 30.262-32.405 73.647-2.946 7.231-6.428 13.123-7.767 12.855-3.749-1.339-4.017-50.616-.535-102.571 4.285-63.74 4.285-72.042 1.071-72.577-4.553-.536-19.55 32.405-40.172 88.645-5.624 15.265-9.105 31.602-14.997 66.953-8.838 51.688-7.767 47.67-11.516 42.314-3.481-4.82-12.855-47.135-21.96-98.554-2.41-13.926-4.821-27.05-5.357-28.924-1.607-5.624-6.427-.803-6.427 6.695 0 3.75-1.875 14.194-4.553 23.3-3.481 13.123-4.285 29.191-4.553 81.415 0 36.154-1.071 64.542-2.41 64.006-2.678-.803-15.533-29.994-29.995-68.291-10.177-27.05-14.462-33.21-14.997-21.425-1.072 19.55 1.07 48.741 4.553 63.739 13.658 58.383 28.923 105.517 34.28 103.643 1.606-.536 9.64-10.98 17.943-23.568 31.601-47.135 69.095-77.933 122.925-100.965 38.565-16.336 96.948-25.442 141.672-21.96 16.872 1.339 20.89.803 26.246-3.482 3.213-2.678 6.16-5.891 6.16-6.963 0-2.946 45.527-71.237 65.613-98.286 18.747-25.442 43.118-55.437 71.506-88.378 31.869-37.494 28.923-38.833-25.71-12.052-38.03 18.747-79.005 44.19-106.054 66.418-36.957 29.994-95.34 92.93-102.036 110.338-1.874 4.82-3.481 5.624-5.624 3.481-4.017-4.017 25.442-102.84 43.118-143.814 1.339-2.946 4.553-10.713 6.963-17.408 2.678-6.695 7.767-18.211 11.248-25.978 12.855-28.388 5.892-26.513-27.585 7.767" style="stroke-width:.267811"/>
</svg>
