<svg xmlns="http://www.w3.org/2000/svg" width="1200" height="960">
    <path d="m516.95-120-4.943 2.045c-17.208 7.12-49.296 34.41-59.148 49.603-8.386 12.932-9.975 20.119-8.693 40.397.593 9.381.303 34.6-.852 55.91-3.106 57.27-8.523 87.443-16.705 91.193-3.068 1.363-4.717 1.147-7.33-1.364-17.178-16.514-28.546-36.018-35.965-61.364-4.039-13.796-2.106-28.905 0-43.125.793-5.358 2.03-10.812 4.708-15.553-6.043 5.676-9.998 11.297-13.401 17.94-8.531 16.648-14.074 35.176-16.875 53.522-3.347 21.914-1.476 34.085 1.875 66.478 3.296 31.869.278 57.58-8.864 75-3.472 6.615-14.179 20.761-19.602 25.738-9.066 8.319-23 14.552-39.716 17.728-17.375 3.3-22.06 7.037-31.843 13.02-2.792 1.707-7.449 6.396-7.449 6.396s-4.09-5.288-5.367-8.337c-4.026-9.888-3.922-23.432-4.432-34.943.09-5.966 1.68-17.82 1.68-17.82s-6.65 6.142-10.885 11.854c-15.898 21.444-22.159 49.091-18.409 80.625 1.676 13.856 6.006 32.949 10.91 48.92.367 1.197 1.38 3.493 1.38 3.493s-6.508 1.219-9.733 1.962c-8.79 2.027-16.878 3.524-26.19 6.805-9.978 3.515-19.774 7.884-26.651 12.116-13.125 8.011-32.045 25.568-35.114 32.727-.852 1.875-3.068 5.795-4.943 8.523-5.113 7.84-5.625 9.545-3.75 11.42 1.193 1.193 3.239.852 6.648-1.534 11.932-8.182 41.932-11.08 67.67-6.477 16.023 2.897 17.557 3.92 14.148 10.568-3.238 6.307-6.307 15.17-7.84 22.67-.683 3.239-2.217 7.67-3.24 9.716-1.193 2.046-2.045 5.966-2.045 8.693 0 2.557-1.023 8.182-2.386 12.444-4.602 14.659-6.818 54.034-4.602 81.477.732 8.374 1.245 15.122 2.5 22.596 2.203 13.123 5.196 26.129 8.809 38.935 2.525 8.953 5.789 18.296 8.975 26.424 6.524 16.646 14.216 32.948 23.604 48.164 3.05 4.944 5.897 9.192 10.545 13.875 0 0-4.797-22.202-6.536-33.744-1.196-7.94-2.853-15.812-3.776-23.79-1.979-17.102-1.963-49.265.045-62.816 1.076-7.264 3.535-16.37 8.897-22.509.807-.923 4.173-2.316 4.173-2.316s1.037 1.794 1.571 2.681c1.449 2.404 2.557 4.432 4.432 7.159 1.875 2.898 3.92 6.136 4.432 7.33.682 1.363 3.409 4.772 5.966 7.67 4.773 5.284 4.943 5.796 4.943 24.205 0 10.227.852 21.647 1.875 25.397 1.023 3.58 2.386 10.057 3.239 14.489 1.363 7.5 2.556 11.42 8.181 26.59 2.898 7.671 6.989 17.558 9.035 21.308.852 1.363 3.409 6.477 5.795 11.08 4.773 9.374 5.284 10.227 16.193 27.272 7.67 12.102 23.012 32.727 32.216 43.466 6.136 6.989 6.477 11.25 2.727 32.386-3.409 19.603-3.409 69.034 0 81.818 1.364 5.114 2.557 11.762 2.557 14.83 0 2.898.682 5.796 1.534 6.477.852.512 2.216 3.41 2.728 6.478 1.193 5.113 2.215 7.5 8.863 20.454 3.58 6.818 9.375 13.125 11.08 12.102.852-.511.511-2.556-.682-4.602-1.023-2.045-2.216-12.954-2.727-24.204-.682-16.364-.17-21.819 2.045-27.103 1.534-3.58 2.727-7.84 2.727-9.375 0-4.772 13.466-18.75 21.648-22.33 10.057-4.431 28.466-4.772 34.602-.51 5.625 3.92 7.841 6.818 11.932 15.681 3.068 6.648 3.41 11.08 3.41 46.023 0 38.352 1.022 48.068 7.84 78.58 1.364 6.136 2.387 12.613 2.387 14.488.17 1.875 1.193 4.943 2.556 6.648 1.364 1.875 2.557 4.602 2.557 6.136 0 1.364 3.41 6.477 7.5 11.08 6.989 8.182 16.875 14.318 32.557 20.284 3.75 1.363 8.352 2.386 10.227 2.216 3.75-.341 3.75-.682 1.023-19.091-.852-5.625-2.216-16.023-3.239-23.012-2.386-16.534-5.454-52.84-5.454-64.772 0-13.466 3.409-50.796 5.454-58.807.853-3.75 2.216-9.886 3.069-13.636 1.534-6.99 5.625-19.091 8.352-24.375.852-1.535 2.045-4.091 2.557-5.455 2.556-6.818 14.318-22.16 21.477-28.295 9.375-7.841 16.704-12.614 19.261-12.614 1.193 0 5.114-2.898 8.693-6.307 5.285-5.284 6.137-7.33 5.796-12.443-.511-5.796-.682-5.966-8.182-6.477-7.5-.341-26.59-3.92-40.057-7.33-3.75-1.023-9.545-2.386-12.784-3.239-7.84-1.875-16.704-4.943-22.67-7.84-2.728-1.364-5.625-2.387-6.478-2.387-2.215 0-34.943-16.193-41.59-20.454-2.728-1.875-6.648-4.091-8.523-5.114-28.977-14.66-85.057-70.739-99.716-99.716-1.023-1.875-3.239-5.625-4.943-8.523-3.58-5.625-14.66-27.613-18.068-35.795-1.194-2.727-3.41-8.012-4.944-11.591-1.534-3.58-2.727-7.5-2.727-8.693 0-1.364-1.193-4.602-2.557-7.16-1.363-2.727-2.557-6.306-2.557-8.181 0-1.705-1.193-6.648-2.386-11.08-7.16-22.33-8.352-34.432-8.352-74.488 0-38.864.852-46.875 7.5-73.125.852-3.75 2.386-10.228 3.409-14.489.852-4.09 2.386-8.352 3.238-9.205 1.023-1.022 1.705-3.068 1.705-4.772 0-2.728 1.023-5.455 7.67-20.966 4.091-9.546 14.83-30.682 18.069-35.796 1.704-2.727 3.75-6.306 4.432-7.84 4.602-9.205 30.34-41.421 44.488-55.569 15.682-15.682 47.216-40.909 56.591-45.34 1.364-.683 4.943-2.728 7.67-4.433 9.035-5.795 34.944-18.238 47.728-22.84 15.17-5.455 18.92-6.648 24.716-8.012 3.238-.852 9.034-2.216 12.784-3.238 17.727-4.432 26.59-5.966 38.352-6.819l12.784-1.022.512-5.625c.574-6.318-3.92-22.67-8.012-29.319-4.09-6.647-12.274-13.461-20.113-17.045-4.093-1.871-10.907-5.12-15.341-7.16-10.395-4.778-24.38-18.577-28.978-28.635-9.038-19.771-9.746-24.887-9.545-74.148.14-34.432.857-49.431 2.898-59.66 4.558-22.85 5.183-48.797 10.397-72.102zm181.995 2.82c-2.538-.028-2.613 1.313-2.165 9.964.34 5.625 1.704 14.489 3.068 19.773s2.386 12.954 2.386 17.045.852 10.568 1.875 14.318c2.387 9.546 5.625 53.864 5.625 79.262.17 26.08-1.704 43.807-5.795 56.25-7.67 22.67-15.341 31.363-37.16 42.102-26.76 12.955-32.897 19.091-37.329 37.16-2.898 11.931-2.727 19.09.512 20.283 1.534.512 5.795 1.023 9.715 1.023 9.035 0 43.978 7.33 58.296 12.102 2.898 1.023 7.67 2.557 10.909 3.239 3.068.852 6.477 2.216 7.5 3.238 1.023 1.023 3.068 1.875 4.432 1.875 2.386 0 20.795 8.182 27.443 12.103 1.364.852 5.966 3.238 10.227 5.454 41.762 21.307 91.364 69.716 118.466 115.739 2.727 4.602 14.66 28.807 17.557 35.454 1.364 3.24 3.41 7.5 4.261 9.375 1.023 1.875 2.387 5.625 3.069 8.523.681 2.727 2.045 7.5 2.897 10.227 15 43.637 19.262 106.364 10.228 148.296-1.023 4.773-2.387 11.932-3.24 16.193-1.874 10.398-6.306 25.228-13.124 43.466-3.75 10.227-17.386 38.352-22.33 46.023-2.386 3.75-5.113 8.182-6.136 9.716-11.25 18.58-18.068 26.761-42.614 51.818-20.966 21.136-44.83 40.057-64.772 51.136-21.99 12.103-43.637 21.648-62.216 27.273-5.114 1.534-12.784 3.75-17.046 5.114s-9.716 2.386-12.272 2.386-6.648.852-9.376 1.875c-2.556 1.023-10.568 2.386-17.556 3.068l-12.784 1.023-.512 5.284c-.682 7.16 5.966 14.83 18.068 20.796 10.057 4.772 28.807 21.647 32.898 29.659 8.523 16.193 15.17 31.534 15.17 34.772 0 1.364 1.023 6.137 2.387 10.568 8.523 28.126 8.864 89.66.852 138.41-3.068 18.238-4.602 33.238-3.75 34.602.341.682 1.534 1.193 2.387 1.193 2.727 0 20.625-6.307 27.102-9.545 8.693-4.432 20.966-17.728 24.034-26.42 5.114-13.808 8.352-26.421 8.352-32.387 0-3.239.852-8.523 2.046-11.762 1.193-3.75 2.386-23.863 2.897-53.181.682-34.432 1.535-47.728 3.239-49.432 1.023-1.023 2.046-3.239 2.046-4.773 0-3.409 5.284-9.886 11.59-13.977 7.33-4.773 25.057-4.262 35.966 1.193 9.716 4.943 15.17 11.25 20.625 24.205 3.41 8.181 3.75 11.08 3.239 34.602-.34 13.977-.34 25.568.17 25.568 5.966-.17 15.512-21.307 23.012-50.625 3.92-15.341 3.75-79.432-.341-98.693l-2.898-13.977 5.796-7.33c3.068-4.091 6.477-8.182 7.67-9.205 5.114-4.772 30.17-40.568 33.75-48.58.682-1.363 2.727-4.772 4.432-7.67 9.375-14.659 23.182-47.897 25.739-62.216.852-4.26 2.215-9.886 3.238-12.443 1.023-2.727 1.875-14.318 1.875-25.738v-20.966l8.693-12.102c4.944-6.648 9.375-11.762 10.228-11.421.681.511 2.386 4.432 3.92 8.864 3.75 10.738 3.75 61.534.17 76.363-1.363 5.625-2.386 13.125-2.556 16.705 0 3.58-1.193 9.204-2.557 12.614-2.727 6.647-3.41 17.556-1.023 17.556.852 0 4.091-4.431 7.33-9.716 33.75-56.931 49.261-122.045 44.147-184.431-1.193-13.637-3.238-29.148-4.602-34.432-1.363-5.114-2.386-11.08-2.386-13.125s-1.023-6.137-2.387-9.205c-1.363-3.068-3.58-12.443-5.113-20.795-2.216-12.443-2.387-15.682-.682-17.557 3.58-3.41 26.42-6.136 42.273-4.943 16.704 1.193 27.954 3.92 34.772 8.352 3.24 2.216 5.284 2.727 6.478 1.534 2.216-2.216 1.875-3.068-9.546-20.795-14.318-22.16-35.625-36.137-75-48.75l-10.057-3.239-3.068-10.227c-2.557-8.012-2.897-11.25-1.363-15.341 1.022-2.728 2.897-13.466 4.261-23.864 4.602-33.75-1.364-62.045-17.727-84.375-3.239-4.261-6.648-7.67-7.67-7.67-1.194 0-1.876 6.477-2.046 18.75-.17 13.465-1.023 20.454-3.068 25.057l-2.898 6.306-7.16-4.772c-5.283-3.239-12.272-5.626-24.374-7.841-19.432-3.58-31.534-9.716-42.784-21.648-12.614-13.466-16.534-20.114-22.841-39.034-2.727-8.182-3.41-14.489-3.41-35.114.171-15.34 1.023-29.488 2.557-36.307 3.24-14.83 3.24-41.08-.17-57.443-2.727-13.636-8.011-32.216-10.739-37.67-5.454-11.25-7.67-15-9.375-16.534-1.193-.853-2.556-3.239-3.238-4.944-2.387-6.136-3.239-1.193-1.364 7.5 2.386 10.91 2.386 32.728 0 41.762-1.023 3.75-2.386 9.545-3.068 12.784-2.898 12.273-8.352 20.966-23.182 36.818-4.261 4.432-7.67 9.034-7.67 10.398 0 1.193-1.875 3.238-4.262 4.261-3.58 1.534-4.943 1.534-7.159-.682-3.409-3.58-9.034-19.431-9.034-26.08 0-2.726-1.193-11.59-2.727-19.601-1.705-10.228-2.727-30.17-3.239-69.035-.511-49.431-.852-55.227-3.92-62.215-4.603-10.739-17.216-25.569-29.83-35.285-5.795-4.431-11.25-8.693-12.273-9.375-10.738-8.522-18.409-13.295-21.647-13.806a16 16 0 0 0-1.244-.079m-77.802 413.764c-.016 0-.033 0-.046.013-2.045.852-2.386 8.863-2.045 51.647l.511 50.796 6.818 3.239c3.75 1.874 9.375 4.602 12.443 5.965 10.057 4.773 26.591 21.307 32.387 32.387 3.068 5.795 5.454 11.59 5.454 12.784 0 1.364 1.194 3.75 2.728 5.114 2.216 2.386 9.545 2.727 53.522 2.727 36.819 0 51.307-.512 52.16-2.046 1.697-2.717-159.472-162.551-163.933-162.62zm-42.02.17c-4.294.07-165.803 159.904-164.275 162.45.852 1.535 14.83 2.046 52.159 2.046 43.977 0 51.307-.34 53.523-2.727 1.534-1.364 2.727-3.92 2.727-5.455.17-1.534 2.045-5.966 4.261-9.716 2.387-3.75 4.943-8.352 5.796-10.397 2.216-4.773 20.795-21.307 27.784-24.716 3.068-1.364 8.693-4.091 12.443-5.966l6.818-3.239.512-50.795c.34-39.716 0-50.966-1.705-51.478-.013 0-.026-.012-.044-.012zm19.44 138.95c-5.78-.045-10.943.777-13.26 2.535-1.705 1.363-4.432 2.556-6.137 2.556-4.432 0-18.068 16.535-20.284 24.375-2.557 9.035-2.557 18.92 0 27.785 2.386 9.034 13.807 21.988 22.84 26.079 13.467 6.136 34.433 3.75 45.512-5.284 14.83-11.932 20.284-38.182 11.591-54.716-3.58-6.989-14.148-16.704-21.477-19.943-4.89-2.173-12.233-3.336-18.784-3.387m-131.556 61.341c-36.136 0-51.307.512-52.16 1.875-.681 1.194 30.683 33.92 79.603 82.67 45.17 45.171 81.989 80.626 83.352 80.285 2.216-.34 2.557-7.33 2.557-51.477V559.26l-6.818-3.238c-3.75-1.875-9.375-4.602-12.443-5.966-6.989-3.41-25.568-19.943-27.784-24.716-.853-2.046-3.41-6.648-5.796-10.398-2.216-3.75-4.09-8.182-4.261-9.716 0-1.534-1.193-4.09-2.727-5.454-2.216-2.387-9.546-2.728-53.523-2.728m265.909 0c-43.977 0-51.307.341-53.523 2.728-1.534 1.363-2.727 3.75-2.727 5.113 0 1.194-2.386 6.989-5.454 12.784-5.796 11.08-22.33 27.614-32.387 32.387-3.068 1.534-8.693 4.261-12.443 6.136l-6.818 3.239-.512 49.261c-.17 27.273 0 50.284.512 51.478.34 1.193 1.704 2.215 2.898 2.215 3.579-.17 163.977-161.25 162.613-163.466-.852-1.363-16.363-1.875-52.159-1.875" style="stroke-width:1.09091"/>
</svg>
