<svg xmlns="http://www.w3.org/2000/svg" width="812" height="960">
    <path d="M332.764 499.37c-38.193 28.644-40.103 33.418-41.058 79.249 0 44.876 3.82 53.47 34.374 84.024s39.147 34.373 85.933 34.373c28.645 0 51.56-3.82 51.56-7.638 0-4.774 12.413-21.006 28.645-36.283 37.238-36.283 40.102-95.482 5.729-131.765-12.413-14.322-26.735-24.825-31.51-24.825-5.728 0-15.276-6.684-21.96-14.323-19.096-23.87-67.792-16.231-111.713 17.187m38.192-484.093c-3.819 9.548.955 21.006 10.503 28.645 31.51 22.915 46.786 144.177 21.006 165.183-19.096 16.232-34.373-13.368-34.373-64.928 0-42.012-1.91-43.921-29.6-29.599-15.277 8.593-18.141 21.006-18.141 67.792 0 42.012-2.864 57.289-11.458 54.425-6.684-2.865-13.367-13.368-15.277-23.87-4.774-29.6-46.786-66.838-61.108-52.516-8.594 8.594-6.684 17.187 8.593 38.193 22.916 30.554 36.283 114.578 22.916 135.584-14.322 21.96-27.69.955-31.51-46.786-2.864-44.877-26.734-67.792-26.734-25.78 0 34.373-42.967 111.713-55.38 99.3-16.231-16.231-30.554.956-30.554 35.329 0 19.096 5.73 33.419 14.323 37.238 18.141 6.684 18.141 30.554 0 38.192-18.142 6.684-18.142 21.961 0 40.103 8.593 9.548 14.322 32.464 14.322 61.108 0 25.78 4.774 49.65 9.548 52.515 5.729 2.864 9.548 16.232 9.548 28.644 0 31.51 66.837 127.946 92.618 134.63 11.457 2.864 25.78 11.457 32.463 19.096 5.73 7.639 22.916 13.367 38.193 13.367 14.322 0 29.6 3.82 32.464 9.548 7.638 12.413 68.747 12.413 76.385 0 2.865-4.774 20.051-9.548 37.238-9.548 24.825 0 41.057-10.503 83.069-51.56 85.933-84.978 84.979-83.069 84.979-147.042 0-57.289 7.638-82.114 38.192-119.352 12.413-16.231 12.413-19.096-2.864-30.554-20.051-14.322-21.006-32.464-2.865-58.244 13.368-18.141 10.503-22.915-28.644-63.972-33.419-35.328-42.012-50.606-42.012-78.295 0-53.47-22.916-36.283-26.735 20.05-3.82 55.38-15.277 71.612-30.554 42.013-15.277-29.6-3.82-110.759 19.096-141.313 19.097-22.916 18.142-40.102-1.91-40.102-12.412 0-33.418 25.78-45.83 54.424-4.775 12.413-13.368 21.961-19.097 21.961-10.503 0-11.458-10.503-9.548-82.114.955-36.283-2.864-50.606-13.367-54.425-8.594-3.82-15.278-11.458-15.278-18.141C463.573 59.199 403.42 0 388.143 0c-6.684 0-13.367 6.684-17.187 15.277m134.63 377.153c5.728 4.774 24.825 19.096 42.011 33.418 16.232 13.368 30.554 30.554 30.554 37.238s6.684 17.187 14.323 23.87c10.503 8.594 14.322 31.51 14.322 85.934 0 60.153-3.82 77.34-19.096 95.482-10.503 12.412-19.097 25.78-19.097 30.554 0 12.412-34.373 42.967-55.38 49.65-10.502 3.82-21.96 12.413-24.824 20.051-7.639 21.006-150.861 20.052-168.048 0-6.684-7.638-17.187-14.322-22.916-14.322-14.322 0-63.018-49.65-63.018-63.973 0-5.728-6.683-15.277-14.322-21.96-10.503-8.594-14.322-32.464-14.322-92.618 0-77.34 1.91-83.069 30.554-121.261 17.187-21.006 34.374-41.057 39.148-42.012 3.819-1.91 12.412-9.548 20.05-16.232 6.684-7.639 29.6-15.277 49.651-17.187 48.696-5.729 147.042 2.865 160.41 13.368" style="stroke-width:.954817"/>
</svg>
