<svg xmlns="http://www.w3.org/2000/svg" width="1200" height="960">
    <path d="M470.718 575.675v30.376c-8.51 0-18.296 3.92-25.053.765-90.173-42.584-180.026-85.933-269.88-129.282-24.734-11.251-41.691-35.54-42.138-63.876v-.064c-4.78-91.702-8.829-183.404-13.291-277.72C187.674 73.368 268.57 30.784 345.484-30c5.004 46.95 29.834 81.566 27.22 122.302l-60.88 16.447c-10.9 27.443 0 45.835 12.75 63.589q68.084 96.26 136.359 192.33 41.819 58.903 83.415 117.839c1.976 2.836 1.848 8.701 4.143 9.69 34.648 14.693 45.102 42.583 43.572 77.422 0 1.402 5.546 3.06 12.08 6.534 2.837-5.546 8.702-11.666 7.746-16.543-5.004-26.901 7.618-43.572 27.54-59.668 15.076-12.08 28.08-25.85 39.014-41.182l.414-.637q101.838-144.423 201.7-290.024c10.901-16.129 20.464-33.978 9.595-59.127l-60.434-16.543c-3.697-40.83 21.77-75.255 26.456-121.313l223.47 157.586c-1.848 54.441-10.9 230.355-10.136 268.445.765 40.194-14.821 67.86-52.37 85.073-84.084 38.759-167.052 79.622-251.137 118.7-11.634 4.175-25.308 7.522-39.428 9.466l-1.084.128 6.311-34.839c30.376-22.663 39.97-60.657 64.259-88.005 2.613-2.932-3.379-13.515-7.395-27.54-19.89 29.612-39.078 55.048-59.51 79.368l1.148-1.403c-14.598 15.778-3.379 25.5 1.403 37.899-17.213 3.251-22.312 30.822-45.294 21.77l-39.205 49.118a414263 414263 0 0 0 187.962 267.043c.989 1.402 2.295 2.837 3.156 4.367 18.2 29.197 19.06 49.022 2.932 63.047-12.303 10.901-45.102 8.16-63.812-8.702a45.63 45.63 0 0 1-13.196-32.16v-.543.032c1.626-21.77-8.925-33.755-24.607-44.56-38.759-26.583-38.759-26.583-41.723-73.63-7.65-5.546-16.352-10.518-25.595-14.47l-.893-.351c-16.16-3.602-28.05-17.818-28.05-34.807 0-2.104.192-4.143.543-6.152l-.032.224c1.307-15.46 0-32.672-16.447-35.827-6.184-.765-13.387-1.18-20.655-1.18a180 180 0 0 0-38.472 4.144l1.18-.223c-6.12 3.283-10.328 9.435-10.902 16.607v.063c6.311 41.596-17.85 58.808-55.015 69.71 4.016 37.452-6.853 66.33-45.42 80.705-15.906 5.992-20.05 21.77-20.368 40.608 0 28.209-34.648 52.497-63.048 48.8-14.375-2.582-25.18-14.982-25.18-29.93 0-2.04.191-4.049.573-5.993l-.031.191c3.474-14.694 9.402-27.635 17.34-39.014l-.256.383c62.283-89.63 125.362-178.72 187.102-266.501-11.443-16.129-20.049-41.277-34.743-45.517-19.698-5.673-32.67-19.284-49.214-26.678 3.156-8.065 10.901-19.284 8.702-23.747-18.583-33.69-40.927-62.569-67.063-87.558l-.128-.128c-4.144 28.75-3.92 28.655 2.072 37.357 11.857 17.53 22.981 35.603 35.508 52.72a169.4 169.4 0 0 0 20.941 20.24l.319.255zM226.019 225.76c28.974 53.039 61.964 92.244 98.013 142.223 2.295-18.296 6.853-28.655 3.602-33.531-24.288-34.967-49.883-69.04-76.243-102.795-2.39-3.602-11.22-2.837-25.372-5.865zm753.731 1.403c-17.084 3.155-27.54 2.072-30.918 6.31q-38.663 50.649-74.618 103.56c-2.836 4.016 2.71 13.834 6.439 29.42z" style="stroke-width:31.8743"/>
</svg>
