<svg xmlns="http://www.w3.org/2000/svg" width="986" height="960">
    <path d="M755.672 287.307c-70.528-26.076-138.85-18.27-205.774 12.986-6.3 2.94-12.005 7.525-22.19 8.015 25.13-66.398 40.496-134.336 92.158-188.308H367.471c21.666 30.241 42.772 57.752 54.917 90.374s23.556 64.437 35.737 98.074c-10.536-1.015-16.031-5.285-21.841-8.015-51.453-23.626-104.62-34.967-161.462-25.202-81.203 13.931-140.496 62.828-152.956 140.251-5.496 33.917.525 66.398 12.495 98.074 24.046 64.088 65.768 115.4 115.435 161.252 76.023 70.528 143.82 147.916 203.113 231.745l3.115 4.62c11.27 16.03 36.052 48.827 36.052 48.827l22.086-30.591c32.796-51.137 73.398-99.16 112.88-144.591 38.606-44.417 81.588-85.719 125.06-126.076 50.717-47.042 89.008-103.009 107.42-170.632 24.01-88.028-18.307-169.232-103.85-200.838z" style="stroke-width:35.0015"/>
</svg>
