<svg xmlns="http://www.w3.org/2000/svg" width="1004" height="960">
    <path d="M492.991-59.988c-14.77.121-29.536 1.14-44.306 2.616-70.897 9.453-132.339 42.538-170.15 108.708-18.906 37.812-28.363 80.347-14.184 122.885 18.906 75.623 66.17 127.613 127.613 170.15 42.538 33.086 89.802 61.445 132.34 89.804 33.085 23.632 56.72 47.267 70.899 75.626v66.17c28.358 23.632 56.718 47.26 89.803 70.892 9.453 0 18.905-4.724 18.905-14.177 14.179-28.359 28.359-51.99 23.632-85.075-4.726-23.633 4.724-51.994-9.455-75.627-4.727-9.452-9.451-23.629-14.177-33.081-33.085-51.991-80.35-89.807-132.341-122.892-37.812-23.632-80.346-51.987-118.157-75.62s-70.897-51.994-89.803-99.258V108.05c23.632-70.897 75.618-89.802 137.062-85.075 37.811 0 75.624 4.727 113.436 23.632h14.183c33.085 33.085 66.168 66.17 122.885 66.17a73.4 73.4 0 0 1 21.373 25.409c7.114 14.503 45.631 28.448 45.631 28.448-28.997-16.777-35.576-27.453-35.576-27.453 4.908 4.786 25.988 16.31 42.746 16.713-19.933-6.576-38.28-16.686-60.501-47.844 9.453-4.727 28.036-5.187 33.593-14.177 9.939-16.082-9.452-33.085-18.905-42.538A259.8 259.8 0 0 1 746.448 8.8c-8.417-18.933-41.486-39.015-51.986-37.817-54.148 6.179-37.22 16.06-103.987-14.177-32.494-12.997-64.99-17.06-97.484-16.793M694.657 11.16c6.617 6.617 21.085 29.142 34.319 42.376-11.036-1.885-10.373-7.241-16.437-5.595-7.655 2.078-11.383 2.15-18.38-3.464-5.16-4.14.18-13.972 1.742-17.553 1.46-3.348.47-8.78-1.244-15.764M471.59 102.146c-20.087 0-40.173 1.178-61.442 5.905-9.453 0-14.18 4.73-23.633 9.456-4.726 33.085 9.45 56.715 33.082 80.347a159.34 159.34 0 0 1 80.347-23.633c23.633-4.726 47.265-9.454 66.17-4.728a364.3 364.3 0 0 1 170.158 56.722 141.5 141.5 0 0 0 37.81 18.904c-9.453-28.358-28.36-47.264-47.266-66.17a386.8 386.8 0 0 0-132.34-66.17c-18.906-4.727-42.537-9.456-61.443-9.456-21.269 0-41.355-1.177-61.443-1.177m-232.816 77.395c-7.68.075-15.36 7.754-23.041 15.434-33.085 42.538-61.442 85.078-80.348 137.07-9.453 37.81-18.903 80.345-14.177 118.156 14.18 89.802 42.533 170.15 113.43 231.593 47.264 37.811 99.256 66.173 155.973 75.626a279 279 0 0 0 66.17 9.456c28.359 0 61.445-9.457 89.803-14.184 4.727-4.726 4.728-4.722 4.728-9.449-14.179-9.453-28.358-23.635-42.537-33.088-42.538-28.36-85.075-51.988-127.613-75.62-37.812-23.632-70.9-47.269-99.259-80.354a155.72 155.72 0 0 1-37.81-103.98v-51.993c0-47.265 18.906-85.074 42.538-122.885-14.18-28.359-28.358-61.446-42.538-94.531-1.772-.886-3.547-1.268-5.32-1.251m308.436 13.585c-28.359 0-61.445 9.45-89.803 14.177-4.727 4.726-4.721 4.73-4.721 9.456 14.179 9.453 28.358 23.635 42.537 33.088 42.538 28.359 85.075 51.988 127.613 75.62 37.812 23.632 70.894 47.262 99.252 80.347a155.72 155.72 0 0 1 37.817 103.987v51.986c0 47.265-18.906 85.08-42.538 122.892 14.18 28.359 28.358 61.44 42.538 94.524 9.453 4.727 18.9-4.724 28.354-14.177 33.085-42.537 61.448-85.077 80.354-137.068 9.452-37.812 18.903-80.346 14.177-118.157-14.18-89.802-42.54-170.156-113.436-231.6-47.265-37.811-99.257-66.166-155.974-75.62a279 279 0 0 0-66.17-9.455M319.714 313.133c-9.453 0-18.905 4.73-18.905 14.183-14.18 28.359-28.36 51.99-23.633 85.075 4.727 23.633-4.723 51.988 9.456 75.62 4.726 9.453 9.45 23.635 14.177 33.088 33.085 51.991 80.35 89.8 132.34 122.885 37.812 23.632 80.353 51.994 118.164 75.626s70.898 51.988 89.803 99.253v33.088c-23.632 70.897-75.624 89.802-137.068 85.075-37.812 0-75.624-4.727-113.436-23.632h-14.177c-33.085-33.086-66.174-66.17-122.892-66.17a73.4 73.4 0 0 1-21.366-25.416c-7.114-14.503-45.638-28.448-45.638-28.448 28.997 16.777 35.584 27.46 35.584 27.46-4.908-4.786-25.989-16.318-42.746-16.72 19.932 6.576 38.273 16.693 60.494 47.851-9.453 4.727-28.03 5.187-33.586 14.177-9.94 16.082 9.452 33.085 18.904 42.538a259.8 259.8 0 0 1 33.082 42.537c8.418 18.933 41.493 39.008 51.994 37.81 54.148-6.179 37.212-16.052 103.98 14.184 47.264 18.905 94.532 18.903 141.796 14.177 70.897-9.453 132.34-42.538 170.15-108.708 18.906-37.812 28.357-80.347 14.178-122.885-18.906-75.623-66.17-127.613-127.613-170.15-42.538-33.086-89.803-61.445-132.34-89.804-33.086-23.632-56.72-47.267-70.9-75.626v-66.17c-28.358-23.632-56.717-47.266-89.802-70.898m-89.797 401.75c9.453 28.358 28.353 47.264 47.26 66.17a386.8 386.8 0 0 0 132.34 66.17c18.906 4.727 42.543 9.45 61.449 9.45 42.538 0 80.347 4.731 122.885-4.722 9.453 0 14.18-4.73 23.633-9.456 4.726-33.085-9.457-56.715-33.089-80.347a159.34 159.34 0 0 1-80.347 23.633c-23.632 4.726-47.265 9.454-66.17 4.728a364.3 364.3 0 0 1-170.15-56.722 141.5 141.5 0 0 0-37.81-18.905m45.827 191.583c11.036 1.886 10.379 7.236 16.443 5.59 7.655-2.08 11.377-2.145 18.374 3.47 5.16 4.14-.18 13.966-1.742 17.546-1.46 3.348-.47 8.78 1.244 15.764-6.617-6.617-21.085-29.135-34.32-42.37" style="stroke-width:3.44336"/>
</svg>
