<svg xmlns="http://www.w3.org/2000/svg" width="985" height="960">
    <path d="M454.26 921.21c-.997 1.123-1.371 7.484-1.122 20.206l.374 18.584h66.105v-39.912l-31.93-.374c-26.192-.25-32.18 0-33.426 1.496m16.34-22.7c-.749.998-.873 3.742-.375 6.61l.749 4.99h29.934l.624-5.114c.374-2.869.498-5.737.25-6.61-.625-1.996-29.436-1.871-31.182.124m-.125-14.094c-.873 1.622-.748 2.869.25 4.366 1.371 1.87 3.741 2.12 14.592 2.12 7.234 0 13.72 0 14.468-.125 1.747 0 3.119-4.49 2.12-6.984-.498-1.372-3.866-1.747-15.465-1.747-13.096 0-14.843.25-15.965 2.37m14.343-17.586c-14.717.374-17.71 1.372-15.59 5.363 1.122 2.245 2.494 2.37 17.087 2.12 15.217-.374 15.84-.499 16.214-3.118.624-3.99-2.494-4.74-17.71-4.365m37.044-13.845c-6.361 1.248-2.245 2.869 6.985 2.869 10.975 0 17.586-.998 17.586-2.62 0-1.122-19.208-1.247-24.571-.249m-77.704.125c0 1.497 6.111 2.744 12.722 2.744 3.367 0 4.74-.499 4.49-1.621-.624-1.747-17.212-2.87-17.212-1.123m26.94-2.869c-1.122 1.123-1.995 2.495-1.995 3.118s.873 1.996 1.996 3.119c1.621 1.621 4.49 1.87 15.964 1.621l13.845-.374v-8.731l-13.845-.374c-11.474-.25-14.343 0-15.964 1.621m-.623-15.091c-1.123 1.371-1.247 2.494-.125 4.365 1.247 2.37 2.495 2.62 15.59 2.62 12.848 0 14.344-.25 15.592-2.37.623-1.373.873-3.368.498-4.366-1.122-2.744-29.31-2.993-31.555-.25m0-18.71c-1.746 2.121.125 6.985 2.744 6.985 6.984.25 27.44.125 27.689-.25.499-.498.998-3.74.748-6.36-.124-1.871-1.746-2.12-14.967-2.12-11.35 0-15.092.374-16.214 1.746m.374-17.46c-.374.997-.499 2.868-.25 4.115.375 1.996 2.121 2.245 15.716 2.62l15.217.373v-8.855h-14.967c-11.974 0-15.217.374-15.716 1.746m-33.551-98.659c-.499 1.621-.624 5.862-.374 9.604l.374 6.86 6.86 3.243c6.61 3.118 19.956 15.59 19.956 18.46 0 .747.499 1.371 1.122 1.371 2.744 0 4.49 9.105 5.114 28.063l.624 19.956h29.934l.624-20.58.623-20.579 4.615-6.86c6.236-9.604 14.219-16.713 21.952-20.08l6.61-2.87-.374-9.479-.374-9.354-48.269-.374-48.394-.25zM606.3 687.6c-2.868 3.617-5.862 7.484-6.735 8.73-1.372 2.121-3.991 2.37-27.065 2.62l-25.445.374-.374 9.854c-.374 9.728-.499 9.978-4.864 13.844-2.744 2.37-4.24 4.49-3.617 5.363.624 1.123 9.105 1.497 30.807 1.497 31.68 0 31.805 0 39.912 6.361 4.241 3.368 5.364 3.617 15.965 3.617h11.35l-.249-29.061-.374-28.936-12.099-.375-12.098-.374zm-264.793-5.488c-.498.374-.873 13.595-.873 29.31v28.438h10.103c9.23 0 10.477-.25 14.718-3.617 8.107-6.361 8.232-6.361 38.79-6.361 24.196 0 28.936-.25 29.435-1.87.499-1.123-.749-3.119-3.118-5.115-3.617-2.993-3.867-3.741-3.867-11.724 0-12.722.624-12.472-27.19-12.472-25.818 0-23.698.623-30.059-8.731-5.363-7.733-7.234-8.731-17.711-8.731-5.238 0-9.853.374-10.228.873M172.256 594.43c0 4.365.623 7.484 1.87 8.73 1.123.999 1.871 4.117 1.871 7.36 0 3.367.749 6.111 1.871 7.109.998.873 1.871 3.617 1.871 6.236 0 2.62.873 5.363 1.871 6.237s1.871 3.367 1.871 5.612.873 4.74 1.87 5.613c.999.873 1.872 3.243 1.872 5.238s.748 3.867 1.87 4.24c.998.5 1.872 2.246 1.872 4.242 0 1.87.873 4.116 1.87 4.989s1.871 2.868 1.871 4.365.873 3.492 1.871 4.365 1.871 2.495 1.871 3.742c0 1.248.873 2.869 1.871 3.742s1.87 2.495 1.87 3.617c0 1.123.624 2.744 1.373 3.492 1.497 1.497 4.116 5.738 5.987 9.978.623 1.372 1.87 2.994 2.494 3.493.749.374 1.372 1.87 1.372 3.243 0 1.247.624 2.37 1.247 2.37.749 0 1.871 1.247 2.495 2.743 1.87 4.241 4.116 7.733 5.987 8.856.748.499 1.496 1.621 1.496 2.37 0 1.247 6.736 10.601 9.355 12.846.748.624 2.494 2.87 3.742 4.865 3.617 5.488 7.608 9.853 23.199 25.569 16.09 16.09 21.328 20.829 29.31 26.566 2.994 2.12 5.488 4.366 5.488 4.99 0 .498.749.997 1.746.997s1.996.873 2.495 1.87c.374.999 1.247 1.872 2.12 1.872.749 0 3.492 1.621 6.112 3.742 2.619 1.995 5.113 3.741 5.612 3.741s2.994 1.622 5.613 3.742c2.62 1.996 5.613 3.742 6.61 3.742s2.12.873 2.62 1.87c.374.999 1.746 1.872 2.993 1.872 1.372 0 3.118.873 3.991 1.87s2.245 1.871 3.119 1.871 2.245.873 3.118 1.871 2.494 1.871 3.741 1.871 2.87.873 3.742 1.871c.873.998 2.869 1.87 4.366 1.87 1.621 0 3.118.874 3.617 1.872.374.998 1.995 1.87 3.617 1.87 1.746 0 3.741.874 4.615 1.872s3.118 1.87 4.989 1.87 4.116.874 4.989 1.871c.873.998 3.118 1.871 4.989 1.871s4.116.873 4.989 1.871 3.367 1.87 5.612 1.87 4.74.874 5.613 1.872 3.617 1.87 6.112 1.87 5.612.874 6.86 1.872c1.371.997 4.988 1.87 7.982 1.87 3.118 0 6.236.749 7.234 1.871 1.372 1.248 4.49 1.871 10.228 1.871 7.608-.124 8.107-.25 5.986-1.87-1.496-1.123-5.238-1.871-9.354-1.871-4.116-.125-7.983-.874-9.355-1.871-1.371-.998-4.864-1.871-7.733-1.871-3.118 0-5.862-.749-6.735-1.871-.873-.998-3.617-1.871-6.236-1.871-2.62 0-5.363-.873-6.236-1.87-.873-.999-3.368-1.872-5.613-1.872s-4.74-.873-5.613-1.87-2.868-1.872-4.614-1.872c-1.622 0-3.867-.873-4.865-1.87-1.122-.998-3.243-1.871-4.74-1.871-1.62 0-3.616-.873-4.49-1.871s-2.868-1.871-4.365-1.871-3.492-.873-4.365-1.871-2.495-1.87-3.742-1.87-2.869-.874-3.742-1.872-2.619-1.87-3.866-1.87c-1.248 0-2.62-.624-2.994-1.373-.499-.623-2.12-1.87-3.492-2.494-1.497-.624-4.365-2.245-6.486-3.617-1.995-1.372-4.864-2.994-6.236-3.742s-4.116-2.37-6.236-3.742c-1.996-1.372-4.74-2.868-5.862-3.243-1.123-.374-2.37-1.496-2.744-2.494s-1.497-1.746-2.495-1.746c-.873 0-1.996-.873-2.494-1.871-.375-.998-1.372-1.871-2.245-1.871-.998 0-3.493-1.621-5.738-3.742-2.245-1.995-4.615-3.742-5.363-3.742-.624 0-1.123-.498-1.123-.997 0-.624-2.494-2.87-5.612-5.114-6.985-4.99-31.93-29.685-38.665-38.166-2.62-3.493-5.488-6.86-6.237-7.484-2.868-2.619-13.096-16.713-13.096-17.96 0-.749-.623-1.372-1.247-1.372-.748 0-1.87-1.248-2.495-2.869-1.62-3.617-4.115-7.483-5.363-8.481-1.247-.873-3.741-5.114-5.737-9.48-.624-1.371-1.87-2.993-2.495-3.492-.748-.374-1.372-1.87-1.372-3.243s-.873-2.744-1.87-3.118c-.998-.499-1.871-1.995-1.871-3.617s-.873-3.118-1.871-3.617c-.998-.374-1.871-1.995-1.871-3.742 0-1.621-.873-3.243-1.871-3.741-.998-.375-1.87-1.996-1.87-3.617 0-1.747-.874-3.742-1.872-4.615s-1.87-2.869-1.87-4.615c0-1.622-.874-3.243-1.872-3.617-.997-.5-1.87-2.245-1.87-4.24s-.874-4.366-1.871-5.489c-.998-.998-1.871-3.492-1.871-5.488s-.873-4.365-1.871-5.238-1.87-3.368-1.87-5.738c0-2.245-.874-4.864-1.872-5.986-.998-.998-1.87-3.992-1.87-6.61 0-2.745-.874-5.988-1.872-7.36-.997-1.247-1.87-4.615-1.87-7.359s-.375-6.236-.749-7.857c-1.372-4.99-2.993-2.869-2.993 3.99m644.333-11.475c-.374 1.622-.749 5.613-.749 9.105s-.873 7.359-1.87 8.606c-.998 1.372-1.871 4.865-1.871 7.733 0 3.118-.749 5.862-1.871 6.735-.998.873-1.871 3.617-1.871 6.237s-.873 5.363-1.871 6.236-1.871 3.368-1.871 5.613-.873 4.74-1.87 5.612c-.999.873-1.872 3.118-1.872 4.99s-.873 4.115-1.87 4.988-1.871 2.869-1.871 4.366-.874 3.492-1.871 4.365c-.998.873-1.871 2.495-1.871 3.742s-.873 2.869-1.871 3.742-1.871 2.868-1.871 4.49-.499 2.993-1.123 2.993c-.623 0-1.746 1.497-2.494 3.368-.748 1.995-1.871 4.49-2.62 5.613-2.868 5.113-3.866 6.735-4.988 9.104-.749 1.372-2.37 4.116-3.742 6.237-1.372 1.995-2.993 4.989-3.742 6.486-.623 1.62-1.746 2.868-2.37 2.868s-1.496.998-1.87 2.12c-1.622 4.366-4.615 9.106-5.863 9.106-.623 0-1.122.748-1.122 1.746s-.873 1.995-1.871 2.494c-.998.374-1.871 1.372-1.871 2.245s-1.87 3.742-4.116 6.237c-2.12 2.494-7.11 8.107-10.851 12.472-8.481 9.853-23.573 24.945-31.805 31.805a2754 2754 0 0 0-11.225 9.604c-2.744 2.495-5.738 4.49-6.61 4.49s-1.872.873-2.246 1.871c-.499.998-1.497 1.87-2.494 1.87s-1.747.5-1.747 1.123c0 1.248-4.74 4.241-8.98 5.863-1.247.374-2.245 1.247-2.245 1.87 0 .624-1.247 1.747-2.744 2.37-1.621.749-4.49 2.37-6.61 3.742-1.996 1.372-4.865 2.993-6.237 3.742-1.372.623-3.367 1.746-4.365 2.37-.998.623-2.744 1.496-3.742 1.87-.998.5-3.492 1.871-5.612 3.243-1.996 1.372-4.615 2.744-5.613 3.119-.998.374-3.492 1.62-5.363 2.619-1.996.873-4.241 1.746-5.239 1.746-.873 0-2.245.873-3.118 1.87s-2.869 1.872-4.365 1.872-3.493.873-4.366 1.87-3.118 1.871-4.989 1.871-4.116.874-4.989 1.871c-.873.998-3.367 1.871-5.612 1.871s-4.74.873-5.613 1.871-3.617 1.87-6.236 1.87c-2.62 0-5.364.874-6.237 1.872-.873 1.122-3.617 1.87-6.735 1.87-2.869 0-6.36.874-7.733 1.872s-5.238 1.746-9.354 1.87c-4.116 0-7.858.749-9.355 1.871-2.12 1.622-1.621 1.747 5.987 1.871 5.737 0 8.856-.623 10.228-1.87.997-1.123 4.116-1.871 7.234-1.871 2.993 0 6.61-.874 7.982-1.871 1.247-.998 4.366-1.871 6.86-1.871s5.239-.873 6.112-1.871 3.367-1.871 5.612-1.871 4.74-.873 5.613-1.87c.873-.999 3.118-1.872 4.989-1.872s4.116-.873 4.989-1.87 3.118-1.872 4.989-1.872 4.116-.873 4.989-1.87 2.869-1.871 4.365-1.871c1.622 0 3.119-.873 3.618-1.871.374-.998 2.12-1.871 3.866-1.871s3.492-.873 3.866-1.871c.5-.998 2.12-1.87 3.742-1.87 1.746 0 3.368-.874 3.742-1.872.499-.998 1.996-1.87 3.617-1.87 1.622 0 3.118-.874 3.617-1.872.374-.997 1.746-1.87 2.994-1.87 1.372 0 3.118-.873 3.99-1.871.874-.998 2.37-1.871 3.244-1.871.997 0 1.746-.5 1.746-1.247 0-.624 1.372-1.497 3.118-1.996 1.746-.374 3.118-1.247 3.118-1.871s1.247-1.746 2.869-2.37c3.742-1.621 6.735-3.741 11.35-7.857 2.12-1.871 4.49-3.368 5.488-3.368.873 0 1.87-.873 2.245-1.871.499-.998 1.497-1.87 2.494-1.87s1.746-.375 1.746-.999c0-.499 3.493-3.617 7.858-7.109 10.103-8.107 36.794-34.923 42.033-42.282 2.37-3.118 4.615-5.737 5.238-5.737.5 0 .998-.749.998-1.747s.873-1.995 1.87-2.494c.999-.374 1.872-1.372 1.872-2.245 0-.998 1.497-3.368 3.492-5.488 3.991-4.615 6.112-7.608 7.733-11.475.624-1.497 1.746-2.744 2.37-2.744s1.497-1.372 1.87-3.118c.5-1.746 1.373-3.118 1.996-3.118.749 0 1.248-.748 1.248-1.746 0-.873.873-2.37 1.87-3.243s1.871-2.62 1.871-3.991c0-1.248.874-2.62 1.871-2.994.998-.499 1.871-1.995 1.871-3.617s.873-3.118 1.871-3.617c.998-.374 1.871-1.746 1.871-2.993 0-1.372.873-3.118 1.87-3.991s1.872-2.87 1.872-4.366.873-3.492 1.87-4.365 1.872-2.495 1.872-3.742.873-2.869 1.87-3.742 1.871-3.118 1.871-4.989.873-4.116 1.871-4.989 1.871-3.118 1.871-4.989.873-4.116 1.87-4.989 1.872-3.368 1.872-5.613.873-4.74 1.87-5.612c1.123-.873 1.872-3.617 1.872-6.486 0-2.744.873-5.737 1.87-6.735 1.123-1.123 1.871-4.24 1.871-7.733 0-3.243.873-6.985 1.871-8.232 1.123-1.497 1.871-5.239 1.871-9.729 0-7.234-1.621-9.604-2.993-4.49m-648.075-10.976c0 9.604.748 13.221 2.62 13.221 1.246 0 1.496-12.722.373-18.584-1.372-6.985-2.993-4.116-2.993 5.363m652.939-24.196c-1.746 2.743-2.494 31.805-.873 30.682 2.12-1.247 2.869-7.733 2.494-20.704-.249-8.108-.748-11.226-1.62-9.979m1.87-20.705c0 1.746.625 3.243 1.248 3.243.749 0 1.247-1.123 1.247-2.37 0-1.372-.498-2.869-1.247-3.243-.748-.499-1.247.624-1.247 2.37m-657.802-23.324c-.998 6.237-.998 39.538 0 47.022 1.87 13.096 2.993 4.116 2.993-22.95 0-26.566-1.123-35.297-2.993-24.072m654.061-16.838c0 12.847 1.123 22.201 2.744 22.201 1.871 0 .748-29.435-1.122-31.43-1.248-1.248-1.622.623-1.622 9.23m-650.32-14.468c-.374 1.123-.748 6.486-.748 12.099 0 7.733.374 9.728 1.497 8.606 1.87-1.871 3.118-22.7 1.247-22.7-.624 0-1.622.873-1.996 1.995m386.4-265.79c1.373 1.122 5.239 1.87 8.731 1.87 3.617 0 7.36.874 8.731 1.871s4.49 1.871 7.11 1.871c2.494 0 5.238.873 6.111 1.871s3.492 1.871 5.862 1.871 5.114.873 6.112 1.871c1.122.998 3.742 1.87 6.111 1.87 2.495 0 4.366.75 4.865 1.872.374 1.122 2.245 1.87 4.24 1.87s4.366.874 5.239 1.871 2.868 1.871 4.365 1.871 3.492.873 4.366 1.871 2.868 1.871 4.365 1.871c1.621 0 3.118.873 3.617 1.871.374.998 1.996 1.87 3.742 1.87 1.621 0 3.243.874 3.742 1.872.374.998 1.746 1.87 2.993 1.87 1.372 0 3.118.874 3.991 1.872.873.997 2.62 1.87 3.991 1.87 1.248 0 2.62.874 2.994 1.871.499.998 1.87 1.871 3.118 1.871s2.37.5 2.37 1.248c0 .623 1.372 1.496 3.118 1.995 1.746.374 3.118 1.247 3.118 1.871 0 .998 3.867 3.368 9.729 5.987 1.496.748 2.744 1.87 2.744 2.62 0 .623.623 1.246 1.247 1.246 1.746 0 13.72 8.98 13.72 10.228 0 .499.873.998 1.87.998s1.871.499 1.871.998c0 .623 2.495 2.868 5.488 4.988 7.484 5.364 30.932 28.812 39.414 39.29 3.742 4.739 8.73 10.6 10.85 13.095 2.246 2.62 4.117 5.114 4.117 5.738 0 .499 1.746 3.118 3.742 5.737 2.12 2.62 3.741 5.114 3.741 5.613s1.497 2.993 3.493 5.488c4.24 5.612 6.111 8.73 7.608 12.223.748 1.372 1.87 2.993 2.494 3.492.749.374 1.372 1.746 1.372 2.993 0 1.248.874 2.994 1.871 3.867s1.871 2.494 1.871 3.742.873 2.868 1.871 3.742c.998.873 1.871 2.494 1.871 3.741 0 1.248.873 2.869 1.87 3.742s1.872 2.62 1.872 3.867c0 1.122.873 2.993 1.87 4.115.998.998 1.872 3.243 1.872 5.114 0 1.746.873 3.493 1.87 3.867.998.499 1.871 2.245 1.871 4.24s.873 4.366 1.871 5.488c.998.998 1.871 3.493 1.871 5.488s.873 4.366 1.871 5.239 1.87 3.617 1.87 6.236.874 5.363 1.872 6.236c1.247.998 1.87 3.742 1.87 7.609 0 3.617.749 6.61 1.872 7.857 1.122 1.123 1.87 4.116 1.87 7.858 0 6.985 1.123 11.6 2.62 11.6 1.87 0 1.247-14.22-.749-16.963-.998-1.247-1.87-4.99-1.87-8.232 0-3.492-.749-6.61-1.871-7.733-.998-.998-1.871-3.991-1.871-6.735 0-2.869-.749-5.613-1.871-6.486-.998-.873-1.871-3.368-1.871-5.613s-.873-4.74-1.871-5.612c-.998-.873-1.87-3.118-1.87-4.99s-.874-4.115-1.872-4.988-1.87-3.243-1.87-5.239-.749-3.866-1.872-4.24c-.997-.5-1.87-1.996-1.87-3.618 0-1.496-.874-3.492-1.871-4.365s-1.871-2.869-1.871-4.615c0-1.621-.873-3.243-1.871-3.617-.998-.499-1.87-1.746-1.87-2.993 0-1.248-.874-2.869-1.872-3.742s-1.87-2.495-1.87-3.742-.874-2.869-1.872-3.742c-.997-.873-1.87-2.494-1.87-3.741 0-1.248-.874-2.495-1.871-2.994-.998-.374-1.871-1.621-1.871-2.744s-1.622-4.116-3.742-6.735c-1.996-2.62-3.742-5.114-3.742-5.613s-1.621-2.993-3.742-5.612c-1.995-2.62-3.741-5.239-3.741-5.987 0-.624-.873-1.497-1.871-1.996-.998-.374-1.871-1.496-1.871-2.619 0-.998-.499-1.87-.998-1.87-.624 0-2.869-2.495-4.989-5.489-9.23-12.846-35.921-39.787-50.14-50.638-3.118-2.37-7.234-5.862-9.23-7.733-2.12-1.871-4.24-3.493-4.739-3.493-.998 0-9.105-5.612-14.094-9.728-.624-.5-2.12-1.372-3.118-1.871s-3.492-1.996-5.613-3.368c-1.995-1.372-4.864-2.993-6.236-3.742-1.372-.623-3.492-1.746-4.615-2.494-1.247-.624-3.243-1.87-4.365-2.495-1.248-.748-3.493-1.746-4.99-2.37-1.371-.748-2.993-1.87-3.492-2.494-.374-.748-2.12-1.372-3.617-1.372-1.621 0-3.617-.873-4.49-1.87-.873-.999-2.494-1.872-3.742-1.872s-2.868-.873-3.741-1.87-2.87-1.871-4.615-1.871c-1.622 0-3.867-.874-4.865-1.871-1.122-.998-3.242-1.871-4.74-1.871-1.62 0-3.616-.873-4.49-1.871-.872-.998-3.367-1.87-5.612-1.87s-4.74-.874-5.613-1.872c-.873-1.122-3.617-1.87-6.485-1.87-2.744 0-5.738-.874-6.736-1.872-1.122-.997-4.115-1.87-6.86-1.87-2.868 0-5.862-.874-6.86-1.871-1.371-1.248-4.365-1.871-9.603-1.871-7.11.124-7.484.25-5.363 1.87m-14.218-44.153c-.873 1.372-1.746 6.86-2.12 11.973-.624 7.11-1.372 9.978-3.243 11.6-2.37 2.245-2.245 2.37 5.986 4.864 4.615 1.497 10.477 2.62 12.972 2.62 2.494.124 6.735.872 9.48 1.87 2.743.998 6.11 1.871 7.483 1.871s4.989.749 8.107 1.746c3.118.998 8.98 2.744 13.096 3.867 4.116 1.247 9.729 2.993 12.473 3.991s7.234 2.744 9.978 3.742 6.735 2.62 8.73 3.492c6.61 2.744 37.293 18.21 41.16 20.58 2.12 1.372 4.864 2.993 6.236 3.742 4.116 2.12 9.978 6.111 26.816 18.21 4.615 3.367 13.346 10.352 15.466 12.472.749.624 5.862 5.239 11.475 10.103 10.227 8.98 28.936 29.685 39.413 43.405 6.112 8.107 17.212 24.196 17.212 24.945 0 .25 1.497 2.868 3.493 5.862 1.87 2.993 3.991 6.486 4.864 7.857 1.746 2.87 13.346 26.442 16.34 33.053.997 2.37 2.618 5.862 3.616 7.733.873 1.746 1.622 4.116 1.622 5.238s.499 2.994 1.247 4.241c1.746 2.993 4.989 12.597 6.111 17.836.5 2.37 1.497 5.238 1.996 6.111.624.998 1.497 3.992 1.996 6.86.499 2.744 1.496 7.484 2.245 10.602.748 3.118 1.995 8.107 2.744 11.225.748 3.118 1.87 9.854 2.37 14.967.498 5.114 1.62 14.843 2.494 21.578 1.746 13.72 1.123 51.387-.998 65.107-4.864 31.056-5.862 36.544-7.608 42.157-.624 2.12-1.746 6.486-2.62 9.604-2.494 9.853-3.492 13.22-8.106 26.192-6.86 18.959-21.703 49.392-30.683 62.862-2.62 3.991-4.864 7.484-4.864 7.858s-6.112 8.98-9.729 13.47c-.499.624-3.742 4.865-7.11 9.355-8.356 11.1-10.227 13.096-28.187 31.181-8.606 8.606-20.33 19.333-26.193 23.698-5.737 4.365-10.726 8.232-11.1 8.606-1.622 1.746-22.451 15.84-28.687 19.457-10.727 5.987-14.718 8.107-19.956 10.602-3.118 1.497-6.486 3.243-7.484 3.866s-2.744 1.497-3.742 1.871-3.866 1.622-6.236 2.744c-2.37.998-5.987 2.62-8.107 3.493-1.996.748-5.862 2.37-8.481 3.492-2.62 1.122-5.738 1.996-6.86 1.996-1.248 0-3.368.873-4.74 1.87-1.247.998-3.368 1.871-4.74 1.871-1.247 0-5.113.873-8.73 1.996-13.845 4.365-14.22 4.49-33.801 7.982-23.698 4.366-28.188 4.99-35.547 4.99-9.978 0-13.47 1.746-8.107 3.741 5.114 1.996 5.613 2.994 5.613 14.468 0 10.727 1.621 14.094 5.737 12.473 1.746-.624 1.87-2.744 1.497-13.595l-.374-12.722h13.72l1.122 5.238c.748 2.994 1.996 5.363 2.869 5.363 1.621 0 5.363-6.236 5.363-9.105 0-1.746 3.742-5.862 5.363-5.862 1.87 0 4.74 7.983 5.488 15.217.748 8.606 1.996 10.976 5.488 10.976 1.996 0 2.37-.998 2.37-5.363 0-2.994-.873-8.357-1.996-11.974-2.37-8.232-1.497-11.1 3.867-12.098 6.485-1.248 8.48-.25 9.479 4.24.499 2.37 1.496 4.864 2.12 5.488 2.12 2.12 5.239.125 5.239-3.367 0-1.747.873-4.99 1.995-6.985 2.495-4.99 6.86-4.615 8.357.748.623 1.996 1.621 5.363 2.37 7.484.623 1.995 1.496 5.114 1.995 6.86.749 3.741 2.245 4.864 5.363 4.116 2.87-.749 2.994-4.615.5-9.105-.998-1.746-1.872-4.49-1.872-6.237s-.873-4.24-1.87-5.488c-2.62-3.492-2.37-3.99 2.37-6.86 6.485-4.115 8.98-3.492 11.848 2.994 3.368 7.608 5.862 7.359 6.86-.998 1.497-10.976 6.361-14.094 9.729-6.236 6.86 16.713 9.479 19.956 12.847 16.464 1.746-1.746.498-5.239-6.61-19.582-2.121-3.991-2.121-4.116.997-6.61 5.862-4.49 12.472-4.117 12.472.748 0 2.37 4.865 6.236 6.237 4.864.623-.624 1.247-4.49 1.496-8.606.375-6.486.749-7.484 2.994-7.858 2.744-.374 4.864 1.996 10.352 12.223 3.118 5.862 4.615 7.484 7.359 7.484 3.742 0 2.993-5.114-2.12-13.096-1.372-2.12-3.617-5.863-4.99-8.482l-2.619-4.74 2.994-1.122c1.621-.623 3.367-1.746 3.866-2.37 1.622-2.619 6.361-1.372 9.105 2.37 4.615 6.112 6.361 4.99 6.735-4.74.375-7.358.749-8.356 2.869-8.73 1.87-.25 4.116 1.746 8.481 7.608 7.609 10.477 8.731 11.35 11.974 9.604 2.62-1.372 2.495-1.497-2.245-8.481-2.62-3.867-5.987-8.232-7.484-9.48-3.367-2.993-3.242-5.737.25-8.98 4.864-4.49 6.61-4.49 12.223.25 6.735 5.612 8.357 4.24 5.488-4.366-2.495-7.483-1.87-10.103 2.37-10.103 2.12 0 4.989 2.245 9.604 7.484 4.49 4.864 7.733 7.484 9.604 7.484 5.113 0 3.367-5.114-4.74-13.097-4.116-4.116-7.484-8.356-7.484-9.354 0-2.245 4.366-6.735 7.733-7.858 1.372-.499 3.617.374 5.863 2.245 2.12 1.871 4.49 2.869 5.612 2.37 2.245-.873 2.62-3.118.873-4.864-2.12-2.37-2.744-9.978-.998-12.348 1.622-2.12 2.246-1.746 10.602 5.363 8.98 7.733 13.346 9.354 14.843 5.488.623-1.497-.5-2.993-3.368-5.238-2.37-1.747-6.236-5.114-8.606-7.235-2.495-2.245-4.864-4.116-5.363-4.116-1.871 0-.998-3.866 1.746-7.483 2.993-4.116 8.356-4.99 10.976-1.871 1.621 1.996 5.737 2.495 6.735.873.25-.499-.749-3.742-2.37-6.985-2.245-4.614-2.62-6.735-1.746-8.48.624-1.248 1.87-2.246 2.494-2.246 1.372 0 8.232 4.365 15.965 10.103 3.243 2.37 4.241 2.619 7.11 1.247 3.118-1.372 3.243-1.497 1.122-3.866-1.247-1.372-5.987-4.865-10.726-7.733-9.854-6.237-10.602-8.482-4.865-14.718 3.493-3.742 3.992-3.867 5.987-2.245 2.87 2.62 6.736 3.617 8.731 2.494 1.247-.873 1.123-1.87-.374-4.989-1.123-2.12-2.495-4.24-3.243-4.614-.624-.5-1.122-2.495-1.122-4.49 0-4.366 2.868-5.987 5.986-3.493 1.123.998 5.987 3.742 10.602 6.112 7.234 3.741 8.606 4.116 9.604 2.494 2.245-3.492.624-5.363-8.73-10.227-12.224-6.361-13.222-7.36-10.977-11.101 4.116-7.483 7.858-9.354 10.976-5.488 1.746 2.12 5.738 2.495 6.86.624.374-.624-1.247-4.116-3.742-7.608-2.37-3.493-4.365-7.11-4.365-8.108 0-2.868 7.608-2.619 12.098.25 1.497.998 3.617 1.746 4.74 1.746s3.367.873 4.989 1.996c3.866 2.494 6.86 1.496 6.86-2.245 0-2.246-1.247-3.368-5.987-5.114-17.337-6.86-17.087-6.61-16.713-11.1.374-4.366 3.367-8.482 6.111-8.482.873 0 2.744.623 3.992 1.497 2.494 1.496 6.36.623 6.36-1.497 0-.624-1.995-3.368-4.365-6.112-2.37-2.619-4.365-5.987-4.365-7.483 0-2.12.748-2.62 4.24-2.62 2.37 0 5.863.624 7.858 1.372 6.486 2.62 12.722 3.368 14.094 1.747 1.996-2.37.125-5.613-3.617-6.361-1.746-.375-6.86-1.622-11.35-2.87-7.733-2.244-8.107-2.494-7.733-5.861.873-9.48 3.118-11.724 9.604-9.23 7.483 2.869 7.483-1.996 0-8.232-5.613-4.615-6.985-7.483-3.991-8.73.873-.25 6.61 0 12.722.623 9.354 1.123 11.474.998 12.971-.499 3.368-3.367-.873-5.862-11.35-6.61-4.989-.25-10.103-1.123-11.225-1.747-2.495-1.247-2.869-5.363-.998-10.227.998-2.869 1.87-3.243 7.484-3.243 5.488 0 6.36-.374 5.986-2.245-.249-1.122-2.993-3.866-6.236-5.862-4.116-2.62-5.987-4.615-5.987-6.486 0-3.617 3.118-4.49 14.718-3.866 9.48.374 9.604.374 9.604-2.744 0-2.994-.25-3.118-11.6-3.867-12.722-.748-14.094-1.621-13.345-7.733.623-4.864 2.744-7.11 6.86-7.11 9.23 0 9.853-3.616 1.247-7.358-3.368-1.497-6.735-3.742-7.484-5.114-1.247-2.245-.873-2.744 2.994-4.365 2.494-.998 7.733-1.871 11.724-1.871 8.232 0 12.098-1.996 10.726-5.488-.748-1.996-1.87-2.12-10.352-1.372-16.464 1.497-15.466 1.746-16.588-3.118-1.622-7.234-.5-9.354 5.488-10.726 4.115-.874 5.363-1.747 5.363-3.617 0-1.747-1.248-2.744-4.366-3.493-2.37-.499-5.737-2.12-7.483-3.367-2.495-1.996-2.869-2.744-1.746-4.615.748-1.248 3.242-2.37 5.612-2.62 5.738-.623 17.587-3.741 18.834-4.989.623-.623.748-2.12.25-3.242-.624-1.747-1.747-2.12-4.74-1.497-23.823 4.116-24.447 3.991-24.447-4.365 0-5.239 1.372-6.736 7.235-7.983 2.744-.499 3.99-1.497 3.741-2.744-.374-1.87-8.356-5.363-12.472-5.363-2.12 0-4.366-4.49-2.994-5.987 1.248-1.122 9.604-4.116 14.718-5.114 5.737-1.247 8.481-3.367 8.481-6.61 0-2.245-.499-2.495-5.862-1.622-3.243.5-7.359 1.622-9.105 2.495-4.365 2.12-10.477 3.118-12.348 1.996-.873-.624-1.87-3.243-2.245-5.987-.499-4.241-.249-5.364 2.245-7.11 1.622-1.122 3.867-1.995 5.114-1.995 2.495 0 2.994-3.118.749-4.49-.749-.5-4.615-1.622-8.357-2.37-5.488-1.123-6.985-1.871-6.985-3.742 0-2.37 3.493-4.49 16.464-10.227 3.867-1.622 5.363-2.994 5.363-4.99 0-4.49-2.245-4.49-10.976-.374a679 679 0 0 1-11.35 5.364c-2.494 1.247-3.243.997-5.238-1.497-1.247-1.622-2.37-4.615-2.37-6.86 0-3.118.998-4.49 4.49-6.735 3.617-2.37 4.116-3.243 2.994-4.615-1.123-1.247-2.994-1.622-6.736-1.123-4.49.624-5.737.375-8.107-2.12-2.494-2.744-2.619-2.993-.499-4.99 1.248-1.246 4.74-3.491 7.858-5.113 9.23-4.989 11.225-6.486 11.225-8.855 0-4.241-3.741-3.617-13.969 2.245-11.225 6.485-12.348 6.485-16.464-.5-2.619-4.49-1.746-6.36 4.49-9.603 5.863-2.993 3.618-4.864-5.986-4.864-8.232 0-8.606-.125-8.98-3.118-.25-2.62 1.371-4.241 9.104-9.979 9.355-6.735 10.727-9.105 6.736-11.6-1.622-.997-4.116.375-11.974 6.362l-9.978 7.608-3.991-4.116c-4.865-4.989-4.865-6.984 0-11.225 1.995-1.871 3.492-4.116 3.242-4.864-.498-1.497-6.735-1.746-12.098-.25-1.996.5-3.991.125-5.613-1.122-2.37-1.871-2.12-2.245 7.234-11.475 7.858-7.608 9.48-9.729 8.232-11.225-2.619-3.119-5.488-1.871-13.595 6.36-4.365 4.49-8.73 8.108-9.479 8.108-.873 0-3.243-1.996-5.363-4.366-4.24-4.864-3.991-6.61.998-11.1 4.989-4.615 2.494-8.232-3.493-5.114-4.24 2.12-12.098 2.495-13.22.624-.998-1.622 1.247-4.99 6.86-11.226 5.862-6.36 7.857-9.728 6.984-11.849-1.122-3.118-5.114-2.12-8.481 2.12-1.871 2.246-5.488 6.611-8.232 9.605l-4.865 5.488-4.49-3.368c-5.862-4.49-6.111-5.737-2.619-10.103 3.368-4.24 3.867-8.107 1.123-8.107-1.871 0-2.869.374-10.103 4.116-3.742 1.996-3.991 1.87-6.112-.374-2.12-2.37-2.12-2.62 1.123-6.735 1.746-2.37 3.243-4.74 3.243-5.114 0-.5 1.746-3.118 3.866-5.738 3.742-4.74 3.867-5.113 1.746-7.358-1.247-1.372-2.619-2.495-3.118-2.495s-3.991 4.74-7.608 10.602c-3.742 5.737-7.359 10.477-8.107 10.602-2.744 0-9.105-3.992-9.854-6.237-.374-1.247.125-4.116 1.123-6.111 2.869-5.488 2.62-7.983-.748-6.985-1.622.499-4.49 1.996-6.361 3.243-4.366 3.243-10.353 2.744-9.854-.624.624-3.118 1.996-6.36 6.61-14.343 3.368-5.987 3.618-6.985 1.872-8.606-2.994-2.994-5.114-.998-10.727 9.978-2.868 5.612-5.363 10.477-5.488 10.726-.748.624-9.105-3.492-10.601-5.238-1.248-1.497-1.248-2.744 0-6.112.873-2.37 1.122-5.238.748-6.486-.748-1.746-1.621-1.496-7.11 2.495-3.367 2.494-7.233 4.365-8.356 4.116-2.993-.5-3.492-4.49-1.247-9.105 4.116-8.357 6.111-14.219 5.612-16.34-.499-3.242-5.737-3.866-6.735-.872-1.247 3.99-4.365 12.098-6.735 17.461-2.37 5.114-2.37 5.114-6.486 3.617-6.984-2.37-7.359-2.868-6.485-9.354.997-8.107-.998-9.105-6.736-3.492-9.105 8.73-14.343 5.737-9.728-5.488.873-2.37 2.12-6.86 2.494-10.228.873-5.612.749-5.862-2.12-5.862-3.243 0-5.862 4.116-5.862 9.355 0 2.993-3.243 12.722-4.865 14.592-.873 1.123-9.603-1.746-11.599-3.741-1.123-1.123-1.123-2.62 0-5.987 2.62-8.606-1.247-9.105-7.733-1.123-2.869 3.368-5.737 5.613-7.234 5.613-2.495 0-2.62-.374-1.87-13.096.747-12.348.623-13.096-1.622-13.096-1.372 0-2.994 1.122-3.742 2.619m-116.743-.749c-.5 1.123-.25 4.99.498 8.482 1.747 8.107 2.246 16.09.998 18.085-.998 1.621-7.857 1.996-11.225.748-1.123-.499-2.37-2.868-2.744-5.612-1.372-8.232-6.236-4.99-7.858 5.113-.623 3.493-1.372 4.49-3.991 4.74-2.869.374-3.617-.374-5.363-4.74-1.123-2.744-1.996-6.236-1.996-7.857 0-1.497-1.122-4.49-2.37-6.736-1.87-2.993-3.118-3.741-5.113-3.242-2.12.499-2.495 1.372-1.871 3.367.499 1.372 1.247 4.615 1.746 6.985s1.621 5.612 2.37 7.11c2.744 4.988 1.87 8.855-2.37 11.1-5.363 2.744-9.729 1.372-10.726-3.243-1.747-8.856-7.858-7.359-7.858 1.996 0 5.238-2.62 9.853-5.239 8.98-1.372-.5-4.864-6.86-8.232-15.341-2.744-6.61-6.984-9.105-8.606-4.865-.748 1.871 0 3.742 5.239 14.219 3.617 7.234 3.367 9.604-1.123 12.348-2.245 1.497-4.864 2.62-5.737 2.62-1.871 0-4.615-3.12-6.236-7.235-1.372-3.243-4.366-3.617-5.488-.748-.374 1.122-.749 4.24-.749 7.109 0 6.236-1.372 8.73-4.365 8.107-2.37-.374-4.615-3.617-9.978-14.468-3.492-6.985-3.991-7.359-7.484-4.74-2.37 1.747-2.37 1.871.624 7.609 4.74 8.73 5.862 10.726 7.359 12.223 2.494 2.494 1.372 5.612-3.118 8.232-4.99 2.993-8.731 2.494-9.854-1.248-.997-2.868-5.113-5.363-6.984-4.116-.873.5-1.123 3.119-.749 7.11.749 5.987-.499 10.851-2.868 10.851-.624 0-4.615-4.49-8.731-9.978-7.733-10.228-10.477-11.849-11.85-7.484-.872 2.87-.747 3.368 6.487 12.722 2.993 3.867 5.363 8.108 5.363 9.355 0 2.37-6.112 7.858-8.731 7.858-.748 0-2.869-1.747-4.864-3.992-4.366-4.864-8.232-4.24-6.735 1.123.498 1.995.997 5.737.997 8.481 0 6.735-3.243 7.359-8.356 1.622-12.348-13.72-12.223-13.595-14.718-12.224-1.372.749-2.494 1.871-2.494 2.62 0 .748 3.617 5.238 7.982 10.103 8.606 9.479 8.856 10.726 3.492 15.59-4.116 3.742-4.989 3.617-9.728-.998-5.114-4.989-7.234-3.866-6.112 3.119.499 2.744 1.497 6.111 2.12 7.483.874 1.622.749 2.869-.748 4.24-2.494 2.62-5.114 1.248-13.844-7.109-6.361-6.111-7.234-6.61-10.103-5.363-1.622.873-2.994 1.996-2.994 2.62 0 .997 11.101 11.1 16.34 14.842q5.05 3.555-1.123 9.354c-4.24 3.991-6.361 4.241-9.978.873-1.497-1.372-3.617-2.494-4.74-2.494-1.621 0-1.87.748-1.122 4.49.374 2.62 1.621 5.987 2.744 7.608 1.496 2.245 1.621 3.243.374 4.74-2.62 3.118-5.488 2.245-14.094-4.366-4.49-3.492-8.856-6.236-9.48-6.236-1.122 0-3.866 3.867-3.866 5.363 0 .374 4.74 3.867 10.602 7.858 5.862 3.867 10.477 7.484 10.352 7.858-3.492 6.86-5.612 8.855-9.23 8.855-2.12 0-4.614-.873-5.487-1.87-1.747-2.12-4.49-2.495-5.613-.624-.374.748.748 3.991 2.494 7.359 4.241 7.608 3.867 10.85-1.247 10.352-1.995-.25-4.365-.998-5.114-1.622-.748-.623-4.49-2.744-8.231-4.864-6.237-3.243-7.235-3.492-8.607-1.746-2.494 2.993-.124 5.363 10.602 11.1 5.363 2.744 9.729 5.364 9.729 5.613-.125 3.118-2.12 7.733-3.992 9.355-1.995 1.746-2.993 1.87-7.358.498-7.983-2.37-8.98-.249-3.493 7.36 4.241 5.612 4.366 6.236 2.62 8.73l-1.747 2.62-8.107-3.618c-4.49-1.995-10.103-3.99-12.472-4.49-3.742-.623-4.366-.499-4.366 1.622 0 2.868 3.742 6.61 6.486 6.61 1.123 0 3.617.748 5.613 1.746 1.87.998 4.989 2.37 6.984 3.118 3.992 1.497 4.615 6.486 1.372 11.226-1.87 2.619-2.744 2.868-8.107 2.12s-6.111-.624-6.111 1.497c0 1.247 1.995 4.116 4.365 6.485 4.74 4.615 5.238 6.361 2.494 8.731-1.87 1.497-2.37 1.372-16.588-3.118-7.11-2.12-10.228-1.247-10.228 2.994 0 1.995 3.618 3.367 17.213 6.36 7.608 1.747 8.107 2.12 7.358 7.858-.873 5.987-2.245 7.11-9.853 7.11s-7.608 1.621-.25 8.107c3.992 3.492 5.489 5.612 4.865 7.11-1.247 3.242-4.116 3.616-12.098 1.496-4.116-.998-9.23-1.746-11.475-1.497-3.243.25-3.867.873-3.867 3.493 0 2.993.5 3.118 8.606 4.115 15.217 1.622 16.34 2.12 16.714 7.858.499 6.361-1.996 8.606-8.98 8.606-7.235 0-7.484 3.118-.375 7.234 5.488 3.243 7.733 6.237 6.361 8.482-.374.623-6.486 1.122-13.72 1.122h-13.096l.374 3.368.375 3.492 12.472.624 12.473.623v13.72l-5.488.624c-8.606.998-8.232 3.742 1.122 8.606 2.994 1.621 4.49 3.243 4.74 5.488.499 3.991-1.123 4.49-15.341 4.864-9.73.374-9.978.5-9.978 3.492 0 3.119 0 3.119 12.472 3.243 6.86 0 13.096.125 13.845.25.873.125 1.746 2.37 1.995 4.864.624 5.239-2.245 9.105-6.86 9.105-1.621 0-3.99.748-5.238 1.746-2.245 1.622-2.12 1.871 3.118 4.241 3.118 1.497 6.486 2.869 7.608 3.118 1.123.374 2.37 1.871 2.744 3.368.873 3.243-2.12 4.615-14.717 6.735-7.484 1.372-8.731 1.87-9.105 4.24-.624 4.116 2.494 4.615 12.846 2.12 12.099-2.743 13.47-2.369 14.843 3.992 1.247 6.112-.374 9.105-4.865 9.105-1.496 0-3.492.873-4.365 1.871-2.245 2.744.499 5.613 5.488 5.613 4.365 0 9.48 2.993 9.48 5.488 0 1.621-7.11 5.737-9.605 5.737-.499 0-4.24.998-8.107 2.12-7.359 2.245-9.105 4.74-5.488 7.733 1.622 1.372 6.735.125 18.584-4.615 6.112-2.494 8.606-1.122 9.854 5.364 1.122 5.363 0 7.483-4.615 8.606-1.622.374-3.617 1.87-4.366 3.243-1.621 2.993-.997 3.242 7.983 4.115 5.737.624 8.107 2.12 8.232 5.364 0 1.247-4.615 3.866-13.72 7.733-7.608 3.243-8.107 3.617-8.481 6.36-.375 2.121.249 2.62 3.242 2.62 2.12 0 5.613-.998 7.983-2.12 2.245-1.123 5.612-2.744 7.483-3.742 5.613-2.869 8.357-2.12 10.477 2.869 2.37 5.612 1.372 8.73-3.367 10.352-2.994.998-3.742 1.995-3.368 4.116.374 2.619 1.123 2.868 7.858 3.243 8.232.374 10.227 1.496 8.481 4.614-1.247 2.12-3.367 3.493-13.72 8.731-5.238 2.62-6.61 3.867-6.61 6.361s.624 2.994 3.617 2.994c2.12 0 4.116-.624 4.49-1.372.499-.624 2.12-1.871 3.492-2.495 3.867-1.746 7.733-4.116 10.103-5.987 2.744-2.245 4.865-1.122 8.107 4.241l2.62 4.615-4.99 4.615c-7.234 6.61-6.61 7.608 4.366 7.608 8.357 0 9.354.25 9.354 2.37 0 1.372-3.492 4.989-9.479 9.354-6.236 4.74-9.23 7.858-8.98 9.23.748 4.116 5.363 2.869 14.593-3.991 9.978-7.484 11.475-7.609 15.715-.5 2.245 3.867 1.747 5.24-3.741 9.979-2.245 1.87-2.37 2.245-.5 4.116 1.497 1.496 2.62 1.621 5.738.499 5.363-1.746 10.851-.998 11.35 1.621.499 2.245-1.372 4.366-11.35 13.096-4.74 4.116-5.862 5.738-5.238 7.733 1.247 4.241 4.614 2.994 11.849-4.24 10.102-10.103 10.726-10.353 15.715-5.488 5.114 4.989 5.238 6.111.998 10.227-4.366 4.49-3.243 7.608 2.245 6.486 2.245-.374 5.363-1.372 6.984-2.12 2.246-1.248 3.243-.998 4.865.623 2.619 2.62 1.372 5.239-7.36 14.468-4.988 5.364-6.11 7.235-5.113 8.731 2.245 3.617 5.862 2.994 8.856-1.496 4.864-7.235 10.85-13.346 12.971-13.346 3.118 0 8.482 5.488 8.482 8.606 0 1.372-1.123 3.742-2.62 5.238-2.619 2.62-2.494 6.112.374 6.112.749 0 3.867-1.123 6.86-2.62 10.602-5.113 12.224.624 3.368 12.598-5.862 7.982-6.61 11.475-2.495 12.223 2.12.5 8.108-5.114 8.232-7.608 0-.499 1.871-3.492 4.116-6.486 3.992-5.488 6.237-6.735 7.733-4.24.5.623 2.245 1.746 3.867 2.37 3.492 1.371 3.991 5.612 1.122 9.479-.997 1.247-1.87 3.367-1.87 4.739 0 1.87.623 2.12 3.492 1.372 1.87-.374 4.24-1.621 5.238-2.494s3.493-1.871 5.613-2.12c6.36-.625 5.862 1.995-3.368 19.332-2.744 5.238-2.744 6.735.125 7.483 2.62.624 4.989-1.372 7.733-6.86.998-1.87 3.118-5.862 4.615-8.98 1.621-3.118 3.368-5.737 3.991-5.737 2.869 0 9.729 3.99 10.228 5.986.374 1.372-.125 4.241-1.123 6.486-1.372 3.368-1.372 4.366-.125 5.239 2.37 1.496 2.62 1.372 8.856-3.368 5.114-3.991 5.862-4.116 7.608-2.37 2.245 2.245 2.495 3.368.873 6.486-3.243 5.987-6.485 15.715-6.111 18.085.623 4.74 4.49 3.991 6.735-1.247 1.122-2.62 2.744-6.361 3.742-8.232.997-1.996 1.746-4.615 1.746-5.862 0-3.492 3.118-5.239 7.982-4.365 6.86 1.372 8.107 4.116 5.613 13.096-.998 3.492 4.365 2.744 8.232-1.247 3.492-3.742 8.481-4.99 9.978-2.495.374.748.25 3.118-.374 5.363-.749 2.12-2.245 7.234-3.493 11.226-1.122 3.866-1.87 7.358-1.621 7.733.374.249 1.87.748 3.492.873 2.245.374 3.118-.749 5.114-6.486 1.372-3.742 2.37-8.357 2.495-10.228 0-5.113 3.118-7.483 8.48-6.485 6.487 1.122 6.487 1.122 6.487 8.73 0 8.482 1.746 8.731 7.982 1.123 4.864-5.862 6.985-6.735 9.48-3.867 1.122 1.497.997 4.116-.75 12.473-2.12 9.978-2.12 10.851-.249 12.722 3.493 3.617 5.613 1.372 6.486-7.234.374-4.24 1.372-9.978 2.12-12.722l1.372-4.74 5.613.749c7.359.998 9.48 2.744 8.606 7.234-.623 2.993.998 5.862 2.495 4.49 1.496-1.622 2.494-12.223 1.247-13.221-.748-.624-6.985-2.12-13.845-3.243-6.86-1.247-15.59-2.744-19.332-3.492-3.742-.624-9.853-1.746-13.595-2.245-3.617-.624-7.234-1.622-7.983-2.37s-3.118-1.372-5.113-1.372c-2.12 0-5.488-.873-7.484-1.87-1.87-.999-4.615-1.872-5.862-1.872s-4.116-.748-6.361-1.746-6.61-2.744-9.729-3.866c-3.118-1.123-7.234-2.87-9.105-3.867-1.995-.998-4.116-1.746-4.864-1.746-.624 0-8.606-3.617-17.711-8.107-16.713-8.357-17.462-8.731-26.691-14.718-2.994-1.87-5.613-3.368-5.862-3.368-.873 0-14.843-9.728-21.952-15.216-26.816-20.705-47.146-40.536-63.111-61.49-10.103-13.22-21.578-29.56-23.2-33.052-.498-.998-1.995-3.617-3.367-5.613-2.494-3.991-17.96-34.798-20.58-41.16-.873-2.12-2.494-5.861-3.617-8.48s-1.995-5.738-1.995-6.86c0-1.248-.5-2.745-1.123-3.368-1.621-1.996-7.982-22.576-10.227-33.676-.5-2.744-1.497-7.484-2.245-10.602-5.613-25.943-7.484-54.63-5.613-88.306 1.247-22.7 2.37-31.306 5.613-46.398.748-3.118 1.746-7.857 2.245-10.601s1.496-6.985 2.245-9.355c.748-2.37 2.37-7.733 3.492-11.849 1.247-4.116 2.869-9.479 3.742-11.849 3.118-8.48 5.862-15.59 7.733-19.956.998-2.37 2.744-6.36 3.742-8.73s2.37-5.239 2.993-6.237c.499-.998 3.243-6.36 6.112-11.849 2.744-5.488 6.236-11.724 7.483-13.72 1.372-2.12 2.869-4.614 3.368-5.612 1.122-2.62 16.214-24.696 17.835-26.193.375-.374 3.742-4.614 7.484-9.354 14.094-18.21 37.044-40.66 56.75-55.628 12.099-9.105 29.061-21.078 29.934-21.078.25 0 4.49-2.37 9.604-5.364 9.854-5.862 29.31-15.466 38.416-18.958 3.118-1.122 7.11-2.869 8.98-3.866 1.746-.998 4.365-1.747 5.613-1.747 1.247 0 2.868-.498 3.617-1.122.623-.748 3.367-1.746 6.111-2.495 2.744-.623 6.735-1.746 8.731-2.37 12.473-4.24 14.094-4.614 31.182-7.732 13.72-2.62 14.967-2.994 15.34-5.862.375-2.12-.373-2.744-3.117-3.119-3.118-.374-3.617-.997-4.366-6.61-1.496-11.35-3.991-18.709-6.36-19.083-1.123-.25-2.495.499-2.87 1.621m55.128-271.777c-4.49 9.604-6.36 13.72-9.853 22.076-.873 2.12-2.62 5.987-3.617 8.357-1.87 4.365-4.49 10.851-8.107 20.58-1.123 2.744-2.744 7.234-3.742 9.978-6.61 17.586-8.856 25.32-9.853 33.925-.624 6.61-.375 8.357 1.87 12.223 3.119 5.239 3.368 9.23.749 12.598-1.497 1.995-1.746 15.715-1.87 96.787v94.292l-3.743.874c-1.995.498-3.991 1.372-4.365 1.995-.5.624-4.116 1.123-8.107 1.123-4.865 0-7.983.623-9.23 1.87-.998.998-3.991 1.871-6.86 1.871-2.744 0-5.737.874-6.86 1.871-.998.998-3.991 1.871-6.735 1.871-2.869 0-5.613.749-6.486 1.871-.873.998-3.118 1.871-4.864 1.871-1.87 0-4.49.873-5.862 1.871-1.247.998-3.617 1.87-4.99 1.87-1.496 0-3.367.874-4.24 1.872-.873.997-3.118 1.87-4.989 1.87s-4.116.874-4.989 1.871-2.494 1.871-3.742 1.871-2.868.873-3.741 1.871-2.87 1.871-4.366 1.871c-1.497 0-3.492.873-4.365 1.871s-2.495 1.87-3.742 1.87-2.495.874-2.993 1.872c-.375.998-1.747 1.87-3.119 1.87s-2.868.624-3.242 1.373c-.5.623-2.12 1.87-3.493 2.494-1.497.624-4.365 2.245-6.486 3.617-1.995 1.372-4.614 2.869-5.612 3.368-.998.374-3.867 2.245-6.236 4.116-2.37 1.87-5.364 3.742-6.486 4.116-1.247.499-2.245 1.372-2.245 2.12 0 .624-.873 1.247-1.871 1.247s-1.871.5-1.871 1.123-2.12 2.494-4.615 3.991c-2.62 1.621-6.111 4.116-7.858 5.613-22.2 19.956-24.57 22.2-38.29 37.168-4.99 5.363-9.105 10.227-9.105 10.851s-.5 1.123-1.248 1.123c-.623 0-1.995 1.496-2.993 3.367-.998 1.996-3.742 5.738-6.236 8.482-2.495 2.744-4.49 5.488-4.49 6.111 0 .5-1.622 3.118-3.493 5.613-1.995 2.494-3.991 5.363-4.365 6.36-.5.999-1.996 3.493-3.368 5.613-1.372 1.996-2.993 4.99-3.617 6.486-.623 1.372-1.87 2.994-2.494 3.493-.749.374-1.372 1.87-1.372 3.242s-.873 2.744-1.871 3.119c-.998.498-1.871 1.995-1.871 3.617s-.873 3.118-1.871 3.617c-.998.374-1.87 1.995-1.87 3.741 0 1.622-.874 3.243-1.872 3.742-.998.374-1.87 1.996-1.87 3.617 0 1.746-.874 3.742-1.872 4.615s-1.87 2.869-1.87 4.365-.874 3.493-1.871 4.366-1.871 3.118-1.871 4.989-.873 4.116-1.871 4.989-1.871 3.368-1.871 5.613-.873 4.74-1.87 5.612-1.872 3.617-1.872 6.237-.873 5.363-1.87 6.236c-1.123.998-1.872 3.742-1.872 7.11 0 3.242-.748 6.36-1.87 7.358-1.996 2.12-2.744 15.466-.749 15.466 1.746 0 2.62-3.368 2.62-9.729 0-3.242.873-6.984 1.87-8.232.998-1.371 1.871-4.614 1.871-7.358 0-2.62.873-5.613 1.871-6.61.998-1.123 1.871-3.743 1.871-5.988 0-2.37.873-4.864 1.87-5.737.999-.873 1.872-3.243 1.872-5.238s.873-4.49 1.87-5.488c.998-1.123 1.872-3.243 1.872-4.74 0-1.621.873-3.617 1.87-4.49s1.871-2.869 1.871-4.365.873-3.493 1.871-4.366 1.871-2.12 1.871-2.869c0-1.87 4.99-11.973 6.361-12.846.624-.375 1.123-1.622 1.123-2.869s.873-2.993 1.87-3.866 1.871-2.62 1.871-3.992c0-1.247.873-2.619 1.871-2.993.998-.5 1.871-1.622 1.871-2.62s1.497-3.99 3.493-6.485c4.49-5.987 6.36-8.98 7.234-11.724.498-1.123 1.247-2.12 1.87-2.12.749 0 1.622-.999 1.996-2.246 4.116-10.976 55.503-65.231 65.356-69.098 1.372-.499 2.37-1.496 2.37-2.245 0-.623.5-1.247 1.123-1.247.748 0 3.118-1.746 5.363-3.742 2.245-2.12 4.74-3.742 5.613-3.742.748 0 1.995-.748 2.494-1.621.998-1.497 4.49-3.991 7.858-5.488.998-.374 3.866-2.37 6.36-4.365 2.495-1.871 5.489-3.493 6.611-3.493s2.37-.873 2.744-1.87c.5-.998 1.746-1.872 2.994-1.872s2.868-.873 3.741-1.87 2.495-1.871 3.742-1.871 2.869-.873 3.742-1.871 2.494-1.871 3.742-1.871 2.868-.873 3.742-1.87c.873-.999 2.494-1.872 3.741-1.872 1.248 0 2.869-.873 3.742-1.87s2.869-1.872 4.365-1.872 3.493-.873 4.366-1.87 3.118-1.871 4.989-1.871 4.116-.874 4.989-1.871c.873-.998 3.118-1.871 4.989-1.871s4.116-.873 4.989-1.871 3.368-1.87 5.488-1.87c2.245 0 5.114-.874 6.486-1.872 1.247-.998 4.365-1.87 6.86-1.87 2.37 0 5.487-.874 6.86-1.872 1.247-.997 5.113-1.87 8.606-1.87 3.617 0 7.483-.874 9.105-1.996 1.496-.998 4.365-1.746 6.236-1.497l3.367.374.624 238.85.624 238.85 16.214.374c8.98.125 16.963-.25 17.836-.748 1.372-.873 1.746-66.105 2.494-357.714.624-236.604 1.248-356.466 2.12-356.341.749.125 1.747 2.37 2.37 4.989.5 2.62 1.372 163.266 1.871 357.09l.749 352.35 15.59.374c8.606.125 16.838 0 18.335-.374l2.869-.624.25-239.224.373-239.099 13.097.374c11.973.374 12.846.25 10.726-1.621-1.746-1.247-5.239-1.871-12.098-1.871-6.361 0-10.103-.499-10.727-1.621-.499-.749-1.372-43.654-1.746-95.041-.499-51.512-1.247-95.915-1.746-98.908-.624-3.991-.374-5.987 1.122-8.357 2.245-3.367 2.62-12.098.749-15.715-.749-1.247-1.746-4.74-2.37-7.608-1.372-6.237-3.492-12.722-5.862-17.462-.998-1.746-1.746-4.116-1.746-5.114 0-1.122-.749-3.492-1.746-5.488-.998-1.87-2.744-5.986-3.867-9.105-2.245-5.612-3.492-8.73-7.484-18.085-1.247-2.744-2.993-6.984-4.115-9.354-.998-2.37-2.62-5.862-3.493-7.733-.998-1.746-1.746-4.116-1.746-5.114s-.873-2.494-1.87-3.368-1.872-2.494-1.872-3.617-1.372-3.617-2.993-5.612L484.444-120z" style="stroke-width:.124726"/>
</svg>
