<svg xmlns="http://www.w3.org/2000/svg" width="1000" height="960">
    <path d="M499.782 0c-3.795 0-7.59.08-10.481.24-94.452 5.243-170.116 80.908-175.359 175.36-.32 5.781-.321 15.18.006 20.962.197 3.487 5.16 6.477 10.925 7.021a203.2 203.2 0 0 1 63.231 16.525c6.617 2.932 9.549.246 7.713-6.752a107.5 107.5 0 0 1-3.007-16.806c-.564-5.762-.564-15.178-.007-20.94 4.925-50.951 45.426-91.504 96.37-96.496 5.762-.564 10.532-.517 10.61-.517 61.473 5.434 102.05 46.01 106.98 97.013.557 5.762.555 15.178-.01 20.94a107.5 107.5 0 0 1-3.085 17.108c-1.856 6.993 1.052 9.655 7.66 6.702a203.2 203.2 0 0 1 63.366-16.736c5.764-.556 10.914-5.414 11.11-11.201.12-3.501.14-11.042-.182-16.823C680.38 81.148 604.716 5.483 510.264.24c-2.89-.16-6.686-.24-10.48-.24zM305.787 219.773c-3.795 0-7.59.08-10.48.241-94.453 5.243-170.117 80.907-175.36 175.359-.32 5.782-.319 15.18-.008 20.962 2.672 49.792 24.341 97.44 62.42 129.274 4.442 3.713 12.035 9.25 16.857 12.457 8.842 5.882 18.415 11.451 27.418 15.955 5.18 2.59 13.803 6.332 19.264 8.255 15.868 5.586 32.566 8.579 49.409 9.442 5.783.296 15.18.297 20.962-.03 2.5-.14 4.524-5.005 4.524-10.796v-59.869c0-4.826-3.875-8.155-8.692-7.872-3.482.205-11.022.24-16.784-.317-51.003-4.93-91.579-45.506-96.51-96.51-.556-5.761-.556-15.179 0-20.94 4.926-50.952 45.427-91.504 96.372-96.496 5.761-.565 10.532-.518 10.609-.518 61.473 5.434 102.05 46.01 106.98 97.013.557 5.762.498 15.166.491 20.957l-.263 229.925a16.08 16.08 0 0 0 9.579 14.728l18.815 8.32c5.296 2.342 13.928 6.089 18.903 9.046a87.2 87.2 0 0 1 16.737 12.926c9.583 9.465 14.796 8.434 14.8-5.079l.084-269.866c.002-5.791.035-15.185-.286-20.967-5.243-94.452-80.907-170.116-175.36-175.359-2.89-.16-6.685-.24-10.48-.24zm388.427 0c-3.795 0-7.59.08-10.481.241-94.452 5.243-170.117 80.907-175.36 175.359-.32 5.782-.602 10.48-.987 10.48V686.66c0 13.513 5.233 14.556 14.836 5.111a87.2 87.2 0 0 1 16.598-12.794c4.976-2.956 13.608-6.703 18.904-9.045l18.91-8.363a16.14 16.14 0 0 0 9.611-14.728l.465-230.5c.011-5.791-.033-15.195.524-20.957 4.925-50.951 45.426-91.503 96.37-96.496 5.762-.564 10.532-.517 10.61-.517 61.473 5.434 102.05 46.01 106.98 97.013.557 5.762.557 15.18 0 20.942-4.93 51.003-45.506 91.579-96.51 96.509-5.762.557-15.178.555-20.94-.009-2.95-.289-5.328 4.04-5.328 9.83v58.17c0 5.791 4.68 10.916 10.468 11.082 2.942.084 10.03.109 15.81-.263 17.746-1.142 35.233-5.087 52.019-10.753 5.487-1.851 14.255-5.246 19.416-7.87 8.457-4.298 17.388-9.873 23.94-14.273 4.807-3.228 12.259-8.953 16.607-12.778 37.585-33.066 60.541-79.683 63.37-129.635.328-5.782.329-15.18.009-20.963-5.245-94.452-80.909-170.116-175.36-175.359-2.892-.16-6.687-.24-10.482-.24zM177.28 565.154c-2.963-.1-5.77 2.228-5.77 5.576v46.403c0 33.998 20.054 64.796 51.147 78.546l195.22 86.33c33.037 14.61 54.345 47.332 54.345 83.454v29.832h.493c9.646 0 17.46-7.83 17.441-17.477l-.222-111.383c-.07-34.541-20.472-65.803-52.062-79.773l-209.475-92.635a245 245 0 0 1-38.08-21.07l-10.12-6.84a5.5 5.5 0 0 0-2.917-.963m644.555.618a5.5 5.5 0 0 0-2.918.96l-10.121 6.841a245 245 0 0 1-38.08 21.07L561.243 687.28c-31.59 13.97-51.992 45.23-52.061 79.771l-.224 111.385a17.4 17.4 0 0 0 .629 4.614 88 88 0 0 0-.405 8.088l-.224 111.385c-.019 9.647 7.795 17.477 17.442 17.477h.493v-29.832c0-36.123 21.31-68.847 54.346-83.456l195.218-86.33c31.093-13.75 51.148-44.547 51.148-78.545v-46.402c0-4.465-4.989-7.115-8.687-4.615l-10.121 6.84a245 245 0 0 1-38.08 21.07l-209.474 92.637a87.3 87.3 0 0 0-26.878 18.574c8.942-20.718 25.433-37.834 46.874-47.316l195.218-86.33c31.093-13.75 51.15-44.547 51.15-78.544v-46.403c0-3.348-2.807-5.676-5.77-5.576" style="stroke-width:.87385"/>
</svg>
