<svg xmlns="http://www.w3.org/2000/svg" width="1280" height="960">
    <path d="M618.917 717.908c-3.295 18.67-6.59 63.699-6.59 98.843s-5.49 75.78-12.08 90.056c-9.885 21.965-8.786 32.948 6.59 56.011 24.16 36.243 52.715 36.243 76.877 0 15.375-23.063 16.473-34.046 6.59-56.01-6.59-14.278-12.082-58.208-12.082-96.647 0-79.074-14.277-126.298-37.34-126.298-7.688 0-17.572 15.375-21.965 34.045M766.083 616.87c0 6.59 17.572 29.653 38.438 52.716s40.636 49.422 43.93 60.404c9.885 27.456 41.734 35.144 57.11 13.18 19.768-26.359 18.67-31.85-9.885-51.619-14.277-8.786-41.733-31.849-62.6-50.52-37.34-34.045-66.993-43.93-66.993-24.16m-308.609 24.162c-20.867 18.67-48.323 41.733-61.502 50.52-29.653 19.768-30.75 25.26-10.982 51.617 15.375 21.965 47.224 14.277 57.109-13.179 3.294-10.982 23.063-37.34 43.93-60.404 62.6-68.091 40.635-90.056-28.555-28.554m539.241-196.587c-20.867 6.59-69.19 14.277-106.53 16.474-50.52 3.295-69.19 9.884-69.19 20.867 0 10.982 14.277 15.375 50.52 15.375 27.456 0 59.305 5.491 71.386 12.08 12.08 5.492 56.01 14.278 98.842 17.573 68.092 5.491 79.074 4.393 97.745-16.474 26.358-28.554 26.358-29.653 3.294-57.109-20.866-24.161-79.074-27.456-146.067-8.786m-853.34 10.983-23.064 26.358 26.358 25.26c25.26 24.16 34.046 25.26 103.236 19.768 41.733-3.295 85.663-12.08 97.744-17.572 12.08-6.59 43.93-12.08 71.386-12.08 37.34 0 50.52-4.394 50.52-16.475 0-13.179-14.277-16.473-61.502-16.473-32.948 0-70.288-5.492-82.369-10.983-10.982-6.59-51.618-14.277-90.056-17.572-61.502-5.491-70.288-3.295-92.253 19.769m429.415-65.895c-66.993 76.877-69.19 97.744-19.768 159.246 36.242 43.93 42.832 47.225 90.056 47.225 50.52-1.099 101.04-27.457 101.04-52.716 0-5.492 7.687-16.474 16.473-24.162 26.358-21.965 19.769-54.912-23.063-105.432-36.242-45.028-42.832-48.323-91.155-48.323-40.635 0-57.109 5.491-73.583 24.162m128.496 154.853c-1.098 13.179-16.474 9.884-20.867-4.393-3.295-6.59 1.098-10.983 8.786-8.786 6.59 3.295 12.08 8.786 12.08 13.179m139.478-297.626c-19.769 26.358-41.734 51.618-48.323 58.207-6.59 5.492-15.376 19.769-18.67 29.653-10.983 32.948 18.67 23.063 70.287-21.965 26.358-23.063 57.11-45.028 68.092-49.421 18.67-6.59 18.67-8.786 1.098-35.144-9.884-15.376-21.965-27.456-26.358-27.456-5.491 0-25.26 20.866-46.126 46.126M378.4 226.991c-16.474 25.26-15.375 26.358 41.734 68.091 32.947 24.162 60.403 46.127 60.403 50.52 0 5.49 7.688 8.786 16.474 8.786 19.769 0 21.965-26.358 2.197-46.127-7.688-7.688-29.653-35.144-49.422-61.502-20.866-25.26-40.635-46.126-46.126-46.126-4.393 0-16.474 12.08-25.26 26.358M606.836-1.446c-15.375 23.064-16.474 34.046-6.59 56.011 6.59 14.278 12.081 54.913 12.081 90.057 0 92.253 9.885 132.888 32.948 132.888s32.948-40.635 32.948-132.888c0-35.144 5.49-75.78 12.08-90.057 9.884-21.965 8.786-32.947-6.59-56.01C672.732-16.822 656.258-30 645.276-30S617.82-16.821 606.837-1.446" style="stroke-width:1.09825"/>
</svg>
