<svg xmlns="http://www.w3.org/2000/svg" width="787" height="960">
    <path d="M133.968 0a13.77 13.77 0 0 0-9.825 4.043 13.87 13.87 0 0 0-4.062 9.825v109.438c5.733-5.994 13.19-8.531 22.051-8.184h92.29V18.243c1.259-7.797 4.48-13.584 9.062-17.95zm519.064 0L543.516.293c4.582 4.366 7.783 10.153 9.043 17.95v96.88h92.309c8.86-.348 16.318 2.189 22.051 8.183V13.868c0-3.692-1.456-7.218-4.062-9.825A13.77 13.77 0 0 0 653.032 0M238.699 18.243v101.235h-99.79c-2.408-.094-4.703.002-6.914.312v33.79h518.947v-33.966c-.96-.028-1.858-.175-2.852-.136h-99.789V18.243zM131.976 176.375v609.34h518.946v-609.34zm144.107 62.19h232.021c13.878 0 25.157 11.28 25.157 25.157v427.497c0 13.878-11.28 25.138-25.157 25.138h-232.02c-13.879 0-25.158-11.26-25.158-25.138V263.722c0-13.878 11.28-25.157 25.157-25.157m117.485 79.3c-34.474.067-52.623 47.764-51.994 84.866H442.77c.235-36.732-14.738-84.934-49.202-84.866m-51.994 101.781V614.38H442.77V419.646zm.527 211.669a.63.63 0 0 0-.37.136.5.5 0 0 0-.157.332v24.923c0 5.005 4.468 8.477 9.903 8.477h81.273c5.434 0 10.02-3.472 10.02-8.477l.41-25.391zM131.995 806.439v33.79c2.21.31 4.506.407 6.915.313h99.789v101.215H548.3V840.542h99.79c.993.039 1.89-.109 2.851-.137V806.44zm-11.914 30.275v109.438c0 3.692 1.456 7.198 4.062 9.805a13.77 13.77 0 0 0 9.825 4.043c32.251-.087 109.516-.274 109.516-.274-4.582-4.365-7.803-10.172-9.063-17.97v-96.859h-92.289c-8.86.348-16.318-2.19-22.051-8.183m546.838 0c-5.733 5.994-13.19 8.531-22.051 8.183h-92.309v96.86c-1.26 7.797-4.46 13.604-9.043 17.97 0 0 77.265.186 109.516.273a13.77 13.77 0 0 0 9.825-4.043 13.83 13.83 0 0 0 4.062-9.805z" style="stroke-width:10.0004"/>
</svg>
