<svg xmlns="http://www.w3.org/2000/svg" width="1343" height="960">
    <path d="M622.96 193.008c-9.033 9.033-5.559 349.533 3.475 365.515 4.864 8.34 10.423 47.948 13.203 88.252 2.78 50.728 8.338 82.693 18.067 103.54l13.203 31.27 15.288-15.288c9.033-9.033 15.288-23.626 15.288-36.829 0-11.813 2.78-27.101 6.948-34.05 3.475-6.949 8.34-38.914 9.73-71.574 1.389-32.66 6.253-65.32 10.422-72.965 11.814-21.541 11.119-349.533-.694-356.482-11.119-6.949-98.676-8.338-104.93-1.39m176.504 30.575c-10.423 31.27-14.593 61.151-14.593 103.54 0 38.219-2.78 62.54-8.339 68.1-6.949 6.949-9.033 54.896-9.033 191.096v182.063l48.642 2.085c27.101.695 53.508-1.39 59.067-5.56 15.287-9.728 19.457-327.296 4.17-350.227-6.255-9.729-11.814-41.694-13.899-81.303-4.864-75.744-24.321-147.318-40.304-150.793-7.644-1.39-15.288 9.729-25.711 41M615.316 10.945c-10.423 5.559-25.016 10.423-31.27 10.423-25.016 0-136.895 66.71-149.403 88.252-4.17 8.339 4.864 21.542 36.83 53.507 40.304 39.61 43.083 41.694 58.371 32.66 77.134-48.643 141.759-69.49 213.333-69.49 194.571-.694 354.398 159.132 354.398 353.703 0 193.876-160.521 354.397-355.787 354.397-125.082 0-253.638-77.828-309.23-188.317-12.508-24.321-25.016-54.896-27.1-67.405-2.78-12.508-7.644-24.321-10.424-26.406-3.474-2.084-6.254-52.117-6.254-111.183V334.072h66.015c54.202 0 67.405-2.085 70.88-11.119 2.78-7.644-21.542-36.83-81.998-97.98-47.253-47.253-95.201-93.116-106.32-101.455l-20.151-14.593-100.066 103.54c-54.896 56.286-98.675 106.319-97.285 110.488 2.78 6.95 25.016 9.729 107.709 10.424l36.135.695v120.217c0 120.217 4.169 148.013 34.05 216.808 3.474 7.644 8.338 18.762 10.423 24.321 15.288 35.44 57.676 93.811 95.2 129.946 56.982 54.202 149.404 113.268 179.284 113.268 6.95 0 22.237 4.864 32.66 10.423 28.491 14.593 227.232 14.593 255.722 0 10.424-5.559 25.712-10.423 32.66-10.423 45.864 0 218.198-129.946 232.791-175.114 2.085-6.95 6.254-12.508 9.728-12.508 7.644 0 55.592-95.201 55.592-111.184 0-6.949 4.865-21.541 10.424-31.965 14.593-28.49 14.593-227.231 0-255.722-5.56-10.423-10.424-25.016-10.424-32.66 0-13.203-38.914-93.116-53.507-110.489-4.864-5.559-20.152-24.321-34.05-41.694s-39.609-43.083-57.676-57.676c-17.373-13.898-36.83-29.88-42.389-34.745-17.372-14.593-97.285-53.507-110.489-53.507-7.643 0-22.236-4.864-32.66-10.423-28.49-14.593-227.23-14.593-255.722 0" style="stroke-width:.694897"/>
</svg>
