<svg xmlns="http://www.w3.org/2000/svg" width="910" height="960">
    <path d="M254.552 30c-89.292.175-136.283 123.707-134.654 219.804h262.127C382.636 154.667 343.814 29.826 254.552 30m407.11.504c-89.292.175-136.283 123.707-134.654 219.804h262.127c.611-95.137-38.211-219.978-127.474-219.804M119.897 293.639v504.353h262.127V293.639zm407.11.504V798.37h262.127V294.143zM121.284 841.827c-.35 0-.745.162-1.008.377a1.3 1.3 0 0 0-.378.882v64.619c0 12.962 11.62 21.917 25.696 21.917h210.483c14.076 0 25.822-8.955 25.822-21.917l1.134-65.879zm407.11.503c-.351 0-.745.037-1.008.252-.234.243-.378.685-.378 1.008v64.493c0 12.962 11.494 21.917 25.57 21.917h210.609c14.076 0 25.822-8.955 25.822-21.917l1.134-65.753z" style="stroke-width:64.4926"/>
</svg>
