<svg xmlns="http://www.w3.org/2000/svg" width="1052" height="960">
    <path d="M190.67 0h374.45c46.405 0 80.202 43.99 68.131 89.053L487.334 637.854c-1.878 7.51.804 15.29 7.51 19.313 26.555 16.63 124.46 68.935 218.609 155.038 3.218 2.95 78.323-.805 82.883-.269 61.962 5.365 106.488-2.146 135.457 126.069C934.207 949.271 926.16 960 914.626 960H159.018c-9.12 0-16.898-6.974-17.703-16.362-4.023-48.818-10.73-193.931 46.672-249.992 4.56-4.291 6.706-9.924 5.365-16.094-10.461-46.672-56.06-263.671-73.495-602.984C117.979 34.334 149.899 0 190.67 0" style="stroke-width:26.8231"/>
</svg>
