<svg xmlns="http://www.w3.org/2000/svg" width="1320" height="960">
    <path d="M660-60a279.31 279.31 0 0 0-278.728 261.279A279.31 279.31 0 0 0 120 480a279.31 279.31 0 0 0 260.617 278.685v-52.29A227.17 227.17 0 0 1 172.137 480 227.17 227.17 0 0 1 380.69 253.599V325.2A156.414 156.414 0 0 0 246.62 480a156.414 156.414 0 0 0 133.997 154.799v-52.967A104.276 104.276 0 0 1 298.759 480a104.276 104.276 0 0 1 81.93-101.84v362.53A279.31 279.31 0 0 0 660 1020a279.31 279.31 0 0 0 278.728-261.272h-.087A279.31 279.31 0 0 0 1200 480a279.31 279.31 0 0 0-261.272-278.728v.087A279.31 279.31 0 0 0 660-60m0 52.138A227.17 227.17 0 0 1 887.172 219.31v364.966h-70.758V223.034A156.414 156.414 0 0 0 660 66.621h-.124a156.414 156.414 0 0 0-156.29 156.413v513.932A156.414 156.414 0 0 0 660 893.379 156.414 156.414 0 0 0 814.799 759.31h71.602A227.17 227.17 0 0 1 660 967.862 227.17 227.17 0 0 1 432.828 740.69V219.31A227.17 227.17 0 0 1 660-7.862m0 126.62a104.276 104.276 0 0 1 101.846 81.932h-203.7A104.276 104.276 0 0 1 660 118.759m-104.276 134.07h208.552v70.758H555.724zm383.586.77A227.17 227.17 0 0 1 1147.862 480 227.17 227.17 0 0 1 920.69 707.172H555.724v-70.758h361.242A156.414 156.414 0 0 0 1073.379 480v-.124A156.414 156.414 0 0 0 939.31 325.194zM555.724 375.725h208.552v208.552H555.724zm383.586 2.43A104.276 104.276 0 0 1 1021.241 480a104.276 104.276 0 0 1-81.93 101.84zM558.16 759.31h203.686A104.276 104.276 0 0 1 660 841.241a104.276 104.276 0 0 1-101.84-81.93" style="stroke-width:3.72413"/>
</svg>
