<svg xmlns="http://www.w3.org/2000/svg" width="2364" height="960">
    <path d="M642.836 812.997c-9.001-1.8-15.302-.9-20.703-3.6-11.701-4.501-23.403-11.702-35.104-16.203-27.903-11.701-55.807-21.602-82.81-33.304-30.603-13.501-60.307-27.003-90.91-40.504a42 42 0 0 1-9.002-4.5c-29.703-10.802-60.307-21.603-89.11-34.205-27.004-11.701-52.207-26.103-78.31-38.705-10.801-4.5-21.602-8.1-31.504-13.501-15.301-7.201-30.603-13.502-43.205-24.303-18.002-15.302-27.903-36.004-21.602-61.207v-9.002c-.9-.9-.9-2.7-2.7-3.6-13.502-18.002-18.003-38.705-18.003-61.207.9-90.911 0-182.722 0-273.633 0-6.3.9-13.501 1.8-23.403l15.302-14.401h31.504c77.41.9 154.819.9 232.228.9a525 525 0 0 0 53.106-2.7c11.702-.9 21.603 3.6 28.804 12.6 8.1 11.702 18.002 18.003 32.403 18.903 8.101.9 16.202 8.101 24.303 11.702l1.8 36.904h18.903v-16.202c-3.6-20.702 6.3-32.404 27.903-33.304h115.214c9.901 0 18.902 1.8 27.903 7.2 9.001 5.402 14.402 14.403 15.302 25.204 1.8 18.002 12.602 28.803 30.604 28.803 44.105 0 88.21-1.8 132.315-1.8 28.804-.9 56.707-.9 84.61.9 18.003 1.8 33.304-1.8 49.506-9 0-9.002-3.6-11.702-11.7-13.502-10.802-2.7-17.103-9.002-15.303-22.503 21.603-20.703 43.205-44.105 67.508-63.908 18.903-16.202 42.305-19.802 69.309-17.102 29.703 3.6 61.207 1.8 91.81.9 16.202-.9 31.504-.9 45.906 5.401 16.202 6.3 32.404 8.1 50.406 8.1 28.803-.9 58.507 0 87.31 0h815.498s-66.608 92.712-73.81 98.113c-15.3.9-27.002 0-36.903 9-15.302 14.402-27.904 30.604-31.504 52.207-.9 11.701-2.7 22.503-3.6 34.204 0 13.502-9.002 21.603-19.803 28.803h-18.902c-5.401-3.6-11.702-7.2-15.302-11.7-12.602-16.203-29.704-18.903-47.706-16.203-7.2.9-472.556 0-483.357-.9-11.702-1.8-23.403-2.7-32.404 6.3-3.6 8.102-.9 14.402 3.6 21.603 9.901 17.102 8.101 34.204 0 51.306-3.6 6.301-7.2 12.602-.9 21.603 9.001 1.8 20.702 3.6 31.504 3.6 81.01.9 477.957.9 492.359.9 16.201-.9 30.603-3.6 39.604-18.902 3.6-5.4 9.001-10.801 10.802-13.501 27.003-.9 42.305 11.701 43.205 33.304 1.8 21.602 7.2 39.604 23.402 54.006 4.501 4.5 8.101 10.801 11.702 16.202 5.4 10.801 13.501 14.402 25.203 14.402 8.1.9 17.102 1.8 25.203 4.5l57.607 89.11h-576.97c-117.013.901-233.127 2.701-349.24 2.701a242.4 242.4 0 0 1-36.005-2.7c-17.102-1.8-32.404 2.7-46.806 12.601-7.2 11.702-7.2 23.403-3.6 36.905a104.4 104.4 0 0 1 2.7 33.304c-2.7 33.304-3.6 65.708.9 98.112 2.7 17.102 0 33.304-18.902 42.305-4.5 1.8-10.801 3.6-16.202 3.6H965.074c-27.903-3.6-39.605-16.202-36.004-44.105 5.4-44.106.9-89.11 2.7-134.116.9-20.703-15.302-42.305-43.205-38.705-9.901 1.8-20.702 3.6-30.604 4.5-8.1 0-15.301-.9-19.802-9-3.6-6.301-1.8-13.502 2.7-19.803 17.102-19.802 31.504-41.405 56.707-50.406 12.602-4.5 20.703-13.501 25.203-25.203 5.4-13.501 15.302-18.002 28.804-20.702 7.2-.9 15.301-6.301 21.602-10.802 2.7-2.7 3.6-8.1 4.5-11.7-15.301-18.903-45.905-18.903-61.207 0-2.7 2.7-5.4 7.2-7.2 10.8-9.902 17.102-24.303 25.203-42.306 26.103-9 0-18.002 0-27.903-.9a106.1 106.1 0 0 0-36.904 6.301c-9.901 3.6-18.002 9.001-24.303 18.002-3.6 4.5-8.101 9.001-11.702 13.502-18.002-1.8-36.004-9.001-50.406 8.1l13.502 27.004c-4.5 8.101-8.101 14.402-12.602 21.603-10.8 16.202-23.402 30.603-31.503 48.605-12.602 27.004-26.103 53.107-40.505 79.21-9.001 17.102-8.101 35.104-3.6 54.006.9 5.401.9 10.802 1.8 20.703m-34.204-263.732c-8.101-16.202-18.003-26.103-32.404-29.703-9.901-2.7-19.803-2.7-30.604-2.7-74.709-.9-148.518 0-223.227-.9-31.503-.9-50.406 15.301-62.107 39.604-11.701 26.103-5.4 37.805 16.202 47.706 12.601 6.3 25.203 13.501 38.705 18.902a662 662 0 0 1 69.308 28.803c27.003 13.502 56.707 24.303 84.61 36.005 9.001 4.5 18.002 8.1 26.103 12.601 15.302 8.101 27.903 8.101 36.004-1.8 9.001-10.801 18.903-20.702 25.203-32.404 9.902-19.802 18.903-40.505 30.604-59.407 9.001-12.601 13.502-27.903 21.603-45.905zM2082.107 244.13c-12.601-2.7-18.002-2.7-24.303 2.7-8.1 6.301-9.9 16.202-3.6 23.403s17.102 8.101 24.303 0c6.3-7.2 9.001-15.302 3.6-26.103m-30.603 262.831c5.4 10.802 14.401 12.602 21.602 11.702 4.5 0 10.802-3.6 13.502-7.201 4.5-5.4.9-10.801-3.6-15.302-7.201-8.101-16.202-9.901-27.004-4.5zm-635.476-176.42c12.601-10.802 19.802-21.603 10.801-39.605-2.7 0-9-.9-10.801-.9-2.7 0-8.101 1.8-9.001 1.8-6.3 19.802-5.4 30.603 9 38.704m.9 151.217c11.701-4.5 15.302-17.102 14.402-25.203 0-8.1-10.802-17.102-18.002-18.002-13.502 12.602-9.902 30.604 3.6 43.205" style="stroke-width:.900107"/>
</svg>
