<svg xmlns="http://www.w3.org/2000/svg" width="1222" height="960">
    <path d="M683 0a419 419 0 0 0-87.54 9.25 279.27 279.27 0 0 1 238.186 276.234 279.27 279.27 0 0 1-202.319 268.459 144 144 0 0 0-109.78 139.876 144 144 0 0 0 144 144 144 144 0 0 0 6.44-.144 419 419 0 0 0 11.013.144 418.91 418.91 0 0 0 418.908-418.908A418.91 418.91 0 0 0 683 0M539 122.181A418.91 418.91 0 0 0 120.092 541.09 418.91 418.91 0 0 0 539 960a419 419 0 0 0 87.54-9.25 279.27 279.27 0 0 1-238.186-276.234 279.27 279.27 0 0 1 202.319-268.459 144 144 0 0 0 109.78-139.876 144 144 0 0 0-144-144 144 144 0 0 0-6.44.144 419 419 0 0 0-11.013-.144m-87.62 45.535a144 144 0 0 0-1.47 1.594 144 144 0 0 0-1.447 1.615 144 144 0 0 1 1.447-1.615 144 144 0 0 1 1.47-1.594m-24.48 35.601-.416.868zm-9.475 25.353a144 144 0 0 0-.811 3.15 144 144 0 0 1 .811-3.15m-4.663 46.924a144 144 0 0 0 .151 2.088 144 144 0 0 1-.15-2.088m2.361 18.193a144 144 0 0 0 .433 2.124 144 144 0 0 1-.433-2.124m14.042 39.726a144 144 0 0 0 1.028 1.907 144 144 0 0 1-1.028-1.907m19.025 27.616a144 144 0 0 0 1.443 1.62 144 144 0 0 0 1.466 1.596 144 144 0 0 1-1.466-1.597 144 144 0 0 1-1.443-1.619m124.082 48.18a144 144 0 0 1-1.078.115 144 144 0 0 0 1.078-.115M787.41 617.105a144 144 0 0 1 1.14 1.842 144 144 0 0 0-1.14-1.842m4.397 7.475a144 144 0 0 1 1.028 1.907 144 144 0 0 0-1.028-1.907m2.517 4.8a144 144 0 0 1 .956 1.947 144 144 0 0 0-.956-1.946" style="stroke-width:.981817"/>
</svg>
