<svg xmlns="http://www.w3.org/2000/svg" width="1270" height="960">
    <path d="M648.783 102.642h-26.164L340.86 62.39 445.511 0h382.39l104.654 62.39zM119.78 441.003l183.145 237.485L415.629 954.21l-106.667-64.402L119.78 555.72zm533.333-301.886 14.088-16.1 289.812-40.253 189.182 328.05L955 654.338 653.113 481.255zm313.962 543.396 183.145-239.497v116.73L961.038 891.82l-108.68 66.415zm-344.15-199.245L321.038 656.349 129.843 412.827l191.195-328.05 287.798 40.252 14.089 16.1zm9.757 25.914L932.556 678.24 821.865 960H441.487l-108.68-281.761z" style="stroke-width:2.78837"/>
</svg>
