<svg xmlns="http://www.w3.org/2000/svg" width="1378" height="960">
    <path d="M1197.325 430.844c-.442 15.042.885 18.582 4.867 14.6 3.54-3.54 3.54-8.849.442-19.467l-4.866-14.6zM912.41 164.067c-1.77 1.77-3.096 27.873-3.096 57.514 0 38.49-1.77 55.302-5.31 57.957-3.096 1.77-31.411 4.424-63.265 5.751l-57.514 2.212v97.332l57.072 1.327c32.296.442 59.726 3.097 63.265 5.751 3.982 3.54 5.752 22.121 6.636 62.823l1.328 58.4 46.01 1.327c34.067.884 47.34-.443 49.994-4.425 1.77-3.096 3.54-30.969 3.54-61.938 0-66.362-7.08-60.61 72.998-62.38l53.09-.885 1.327-39.818c2.212-63.707 6.194-59.726-60.611-59.726-41.587 0-57.957-1.77-61.496-5.751-3.097-3.54-5.751-29.642-6.194-61.054l-1.327-54.86-46.896-1.326c-25.66-.443-47.78.442-49.55 1.77m-181.39-88.04c7.963.884 22.12.884 30.969 0 9.29-.885 3.097-1.77-14.157-1.77-16.812 0-24.333.885-16.812 1.77M458.933 259.629c1.327 3.097 6.636 6.636 11.945 7.079 7.079 1.327 9.734-.443 8.406-4.424-1.327-3.097-6.636-6.637-11.945-7.079-7.079-1.327-9.733.442-8.406 4.424m324.733-376.938c-11.945 2.212-23.89 6.194-26.102 8.406-2.655 2.654-7.521 4.866-11.06 4.866-8.849 0-50.878 28.757-73 49.993-31.853 30.527-55.301 68.575-85.385 139.804-6.637 15.927-12.388 21.678-30.527 30.084-49.55 24.333-71.23 39.817-116.798 84.059-26.987 26.545-28.757 27.43-39.817 21.678-19.909-10.175-65.035-29.2-91.138-38.932-40.702-15.485-50.435-18.14-87.156-24.333-48.223-8.406-73.44-3.54-89.368 18.139-14.6 19.466-16.37 31.854-8.848 55.302 15.484 47.78 49.993 98.659 111.046 163.694 15.042 15.927 27.872 31.411 27.872 34.066s-10.618 15.927-23.448 28.757c-24.333 24.775-57.956 69.902-71.229 96.889-18.581 36.72-25.217 94.677-15.042 130.07 17.254 59.284 79.193 110.604 158.385 130.513 11.06 3.097 51.32 8.848 89.81 13.272 47.781 5.752 71.672 10.176 75.211 14.6 5.31 6.636 49.993 40.26 67.247 50.878 35.394 21.678 80.963 40.26 134.937 55.302 45.57 12.83 173.87 13.715 214.572 1.77 33.624-10.176 58.399-19.467 74.326-27.43 7.078-3.54 15.042-6.194 18.581-6.194 3.097 0 7.964-3.097 11.503-7.079 6.194-7.52 21.236-6.636 46.011 1.77 37.163 12.83 61.496 18.581 102.64 23.448 56.63 6.636 79.193 1.77 98.66-22.12 19.023-23.006 16.369-47.782-10.176-91.138-6.636-11.061-41.145-53.975-54.86-68.133-13.272-13.714-13.272-11.945 3.54-45.126 7.52-15.042 17.254-47.338 26.545-89.81 8.406-40.26 12.83-129.186 6.636-147.767-6.194-19.467-11.503-9.291-11.503 23.005 0 23.89-1.77 34.066-6.636 38.048-6.194 4.867-6.194 6.636 0 13.273 5.309 5.751 5.751 10.175 1.77 22.563-2.213 8.406-6.194 23.89-7.964 34.95-7.079 35.836-38.933 110.605-47.338 110.605-3.097 0-18.14-11.503-33.624-25.66s-33.181-29.2-38.933-33.182l-10.618-7.52 10.618-11.061c5.752-6.194 12.388-11.06 14.6-11.06s11.503-6.194 20.794-13.273c9.29-7.079 17.696-13.273 19.466-13.273 4.424 0 39.375-35.393 37.163-37.605-1.327-1.327-5.751.443-9.29 4.424-3.983 3.54-8.85 6.637-11.504 6.637s-4.866 2.212-4.866 4.424c0 2.654-4.424 6.636-9.733 8.848-5.752 2.654-15.927 8.406-23.448 12.83-27.43 17.697-46.896 26.987-57.072 26.987-5.31 0-13.715 3.982-18.581 9.291-13.273 14.6-99.102 51.763-176.524 76.096-49.109 15.484-51.32 15.484-73.884-11.06-42.472-49.994-80.962-120.78-111.931-207.051-15.927-45.127-30.084-110.162-36.72-170.33-3.54-33.182-3.098-35.836 6.193-45.127 5.752-5.751 13.715-10.175 18.582-10.175 4.424 0 9.733-1.77 12.387-3.982 2.212-2.212 26.103-11.503 52.648-19.909 72.998-23.89 85.386-27.43 124.761-36.278 30.084-7.079 36.72-9.733 36.72-16.812 0-7.52-2.654-7.963-29.641-5.309-42.03 3.982-120.337 20.794-169.446 35.836-35.393 10.618-51.762 12.388-54.417 5.751-3.539-10.175 8.406-96.889 15.927-115.47 5.752-13.273 9.291-16.37 19.467-16.37 16.811 0 32.296-4.424 32.296-9.29 0-2.212-7.964-3.982-17.697-3.982-11.945 0-19.024-2.212-20.793-6.636-1.328-3.982 6.194-24.333 16.812-45.57 13.714-27.429 26.987-46.453 46.896-66.361 15.484-15.043 30.526-27.43 33.623-27.43s7.964-2.212 10.618-4.867c19.909-19.909 95.562-27.872 136.264-14.6 60.169 19.467 95.12 42.472 151.307 98.66 15.484 15.484 29.641 26.987 31.411 25.217s-.442-5.752-4.866-8.848c-3.982-3.097-7.522-7.964-7.522-11.06 0-2.655-1.77-4.867-3.539-4.867s-10.618-9.734-19.466-21.236c-29.2-38.933-82.29-76.98-146.882-104.41-19.909-8.849-88.041-12.83-119.453-7.08m-212.36 265.007c-.884 3.982-4.423 26.987-7.078 51.32-7.078 60.611-7.963 64.15-16.812 66.805-3.981 1.327-11.945 4.424-17.254 7.079s-16.812 3.539-25.218 1.77c-15.484-3.098-21.678 2.211-11.06 8.405 3.982 2.655-76.538 46.454-85.829 46.454-4.424 0 .885-21.236 9.734-37.606 13.714-24.775 23.448-37.605 29.641-37.605 3.54 0 6.194-4.424 6.194-10.618 0-14.157 32.739-49.993 74.768-81.847 32.297-24.775 47.339-29.642 42.915-14.157m-299.072 47.338c41.587 11.06 72.556 20.794 86.27 26.545 7.522 3.097 18.582 6.637 25.661 7.964 16.812 3.982 15.485 13.715-7.964 53.09-11.06 18.581-19.908 36.278-19.908 39.375s-3.097 9.29-6.636 13.715c-3.54 4.866-6.637 12.387-6.637 17.254 0 12.387-16.812 34.066-26.987 34.066-20.794 0-126.973-111.489-152.191-160.155-11.945-23.005-4.867-37.605 18.581-39.817 27.43-2.212 63.708.885 89.81 7.963M559.362 325.99c2.212 5.752 4.866 23.89 6.636 41.145 6.636 71.23 30.084 147.767 70.786 232.268 9.291 19.024 14.158 33.624 11.503 34.509s-11.503-3.54-19.909-9.733c-7.963-6.194-16.369-11.503-17.696-11.503-1.77 0-10.618-6.194-19.909-13.273-9.29-7.52-18.139-13.272-19.466-13.272-8.406 0-188.027-134.494-190.681-142.9-4.425-12.83 1.327-22.564 23.005-38.933 38.048-27.872 138.919-88.04 148.652-88.04 1.77 0 4.867 4.424 7.079 9.732M316.475 503.4c0 23.005 11.503 90.694 20.351 120.336 14.158 46.012 38.933 99.986 54.418 119.01 11.06 12.83 3.096 19.024-20.352 15.927-50.435-6.636-106.18-33.623-131.397-63.265-17.254-20.794-17.697-22.563-17.697-53.533 0-35.393 6.637-55.744 31.854-92.907 20.351-30.084 54.86-69.017 59.284-66.362 1.77 1.327 3.54 10.618 3.54 20.793m108.392 63.265c14.6 16.812 209.263 150.863 238.905 165.02 11.503 4.867 22.12 17.255 18.581 21.237-1.77 1.327-18.581 3.981-37.163 5.751-19.024 1.77-56.629 5.752-84.059 8.848-44.241 5.31-50.435 4.867-60.61-1.327-16.37-11.06-60.612-72.114-77.424-107.064-8.405-17.255-17.696-36.278-20.793-42.915-3.54-6.194-6.194-15.042-6.194-19.466s-3.097-16.37-7.078-26.987c-3.982-10.176-6.194-22.121-4.425-26.103 2.212-6.194 4.867-5.309 19.467 5.31 8.848 6.635 18.581 14.599 20.793 17.696m664.066 121.664c19.467 19.466 36.72 38.49 38.933 42.472 6.636 11.503-44.242 56.63-81.405 71.671-8.406 3.54-34.508 7.079-57.956 7.964l-42.914 1.77-43.357-23.006c-24.333-12.388-46.454-24.775-49.108-26.987-7.521-6.194-7.079-16.812.442-16.812 11.503 0 135.822-58.842 172.985-81.847 9.733-5.752 19.908-11.06 22.563-11.06 3.097 0 20.794 15.926 39.817 35.835m88.041 97.774c7.521 10.175 17.697 26.103 22.563 35.393 5.31 9.29 11.503 19.024 14.158 22.121 2.212 3.097 5.75 14.157 7.52 23.89 2.655 16.37 1.328 19.467-7.52 25.66-5.31 3.982-15.043 7.08-21.236 7.08-14.158 0-65.035-10.619-79.635-16.812-6.194-2.655-16.812-5.752-23.448-7.522-20.351-3.981-19.466-13.714 3.982-36.72 11.945-11.945 26.102-27.43 31.411-34.509 5.752-7.078 14.157-18.139 19.466-25.217 4.867-6.636 11.503-11.946 14.158-11.946 3.097 0 11.503 8.406 18.581 18.582m-399.944 9.733c10.618 6.194 40.26 21.236 65.92 33.624 25.66 12.83 51.763 25.66 58.399 29.2 6.194 3.539 14.6 6.193 18.139 6.193 10.618 0 13.715 8.848 6.636 16.37-14.6 14.6-126.088 21.235-187.142 11.502-46.01-7.52-72.998-16.37-119.894-38.932-49.108-23.89-49.55-28.315-3.097-37.163 34.95-6.194 75.653-15.927 100.87-24.333 26.546-8.848 38.49-7.964 60.17 3.54" style="stroke-width:.442416"/>
</svg>
