<svg xmlns="http://www.w3.org/2000/svg" width="1130" height="960">
    <path d="M1006.672 169.219C979.116 129.965 901.39 37.942 759.195.509c-9.098-2.34-18.717 3.639-20.276 12.997-9.099 53.03-46.272 210.043-173.91 210.043S400.198 66.537 391.1 13.506C389.54 4.148 379.923-1.831 370.824.508c-142.195 37.434-219.921 129.457-247.476 168.71-6.24 8.84-2.34 20.797 7.798 24.436 52.251 18.197 190.807 76.427 190.807 182.228 0 110.221-116.2 179.109-152.594 197.826-6.498 3.38-9.878 10.398-8.578 17.417C198.213 789.21 357.046 931.405 386.16 956.1c2.86 2.6 6.5 3.899 10.399 3.899h336.38c3.9 0 7.54-1.3 10.399-3.9 29.115-24.695 187.947-166.89 225.38-364.975 1.3-7.02-2.08-14.038-8.578-17.417-36.394-18.717-152.593-87.605-152.593-197.826 0-106.061 138.555-164.29 190.806-182.228 10.658-3.639 14.558-15.857 8.319-24.435" style="stroke-width:25.9954"/>
</svg>
