<svg xmlns="http://www.w3.org/2000/svg" width="1200" height="960">
    <path d="M120.024 0v960h959.952V0zm70.462 70.752h818.786V889.54H190.486zm116.11 64.259v76.13h76.18v-76.13zm101.961 0v76.13h76.18v-76.13zm102.01 0v76.13h76.13v-76.13zm102.202 0v279.858h280.15zM306.597 236.97v76.18h76.18v-76.18zm101.96 0v76.18h76.18v-76.18zm102.01 0v76.18h76.13v-76.18zm-203.97 101.96v76.18h76.18v-76.18zm101.96 0v76.18h76.18v-76.18zm102.01 0v76.18h76.13v-76.18zm-203.97 102.01v76.131h76.18V440.94zm101.96 0v76.131h76.18V440.94zm102.01 0v76.131h76.13V440.94zm102.202 0v76.131h76.18V440.94zm101.96 0v76.131h76.18V440.94zm102.01 0v76.131h76.18V440.94zM306.597 542.9v76.18h76.18V542.9zm101.96 0v76.18h76.18V542.9zm102.01 0v76.18h76.13V542.9zm102.202 0v76.18h76.18V542.9zm101.96 0v76.18h76.18V542.9zm102.01 0v76.18h76.18V542.9zM306.597 644.863v76.18h76.18v-76.18zm101.96 0v76.18h76.18v-76.18zm102.01 0v76.18h76.13v-76.18zm102.202 0v76.18h76.18v-76.18zm101.96 0v76.18h76.18v-76.18zm102.01 0v76.18h76.18v-76.18zm-510.142 102.01v76.13h76.18v-76.13zm101.96 0v76.13h76.18v-76.13zm102.01 0v76.13h76.13v-76.13zm102.202 0v76.13h76.18v-76.13zm101.96 0v76.13h76.18v-76.13zm102.01 0v76.13h76.18v-76.13z" style="stroke-width:24.8117"/>
</svg>
