<svg xmlns="http://www.w3.org/2000/svg" width="3170" height="960">
    <path d="M169.07 602.902c43.346 20.146 90.964 31.135 99.511 22.588 3.053-3.052 2.442-18.315-2.442-34.188-8.547-32.966 1.832-49.45 20.146-31.135 21.978 21.978 47.62 24.42 65.323 6.716 44.567-44.567 329.057-34.799 366.298 12.21 7.936 10.378 9.768 28.082 4.884 47.618-7.937 28.693-9.768 30.525-39.072 40.293-16.484 5.494-56.166 13.43-87.301 17.704-64.712 8.547-71.428 22.588-26.862 54.945 12.82 10.378 43.345 37.24 65.934 59.828 39.071 39.072 43.955 41.514 79.364 40.293 32.356-1.832 42.124-6.716 72.039-36.63 25.03-25.03 45.176-36.63 76.311-45.787 23.2-6.105 48.23-14.041 55.556-16.483 6.715-3.053 40.903-9.158 74.48-13.431 33.577-4.274 62.881-10.379 64.712-12.21 2.442-2.442 22.589-6.716 45.788-9.158 22.588-3.052 43.345-6.715 45.787-9.157s21.977-7.326 43.345-10.378c21.978-2.442 47.618-7.326 58.607-9.768 10.99-2.442 50.061-12.21 87.301-21.368 67.765-16.483 231.988-23.198 583.023-23.809 177.654.61 264.345 3.052 536.625 12.82 79.975 3.053 154.456 5.495 165.445 5.495 39.071 1.22 106.226 12.21 123.93 21.367 17.094 9.768 29.914 6.716 124.541-31.746 34.188-13.43 97.069-70.207 88.522-78.753-3.052-3.053-2.442-14.652.61-26.252 4.274-11.6 9.769-34.188 13.431-51.281 3.053-16.484 9.158-38.462 12.21-48.84s8.547-31.746 12.21-48.84c3.053-16.483 9.158-38.46 12.21-48.84 3.053-10.378 8.547-31.745 12.21-48.839 3.052-16.483 8.547-36.63 10.989-43.955 2.442-8.547 7.936-34.799 12.21-58.608 6.105-34.188 3.663-47.619-9.158-57.997-12.21-9.768-21.978-9.768-34.187 0-9.768 7.326-33.578 11.6-52.503 9.768l-36.02-3.053-67.154 69.597c-64.712 67.154-67.765 68.986-96.458 68.375-16.483-.61-38.461-6.715-50.06-13.43-16.484-10.379-20.147-18.926-17.094-48.84 1.831-22.589-1.221-37.85-9.768-41.514-17.094-7.326-31.746 7.326-57.997 57.997-11.6 22.588-26.862 43.956-33.578 47.008-17.704 7.937-40.292-15.873-41.513-41.513-1.832-34.799-20.757-30.525-55.555 11.599-38.462 48.23-51.282 51.282-78.144 18.315l-21.978-25.64-48.84 42.734-48.839 42.734-24.42-18.314c-21.367-16.484-26.25-16.484-45.787.61-40.292 36.63-101.952 49.45-249.692 51.892-53.113.61-156.287 4.884-229.546 8.547-73.26 3.663-156.287 7.326-183.149 7.326-28.083 0-64.102 1.831-79.975 3.052-19.536 1.221-36.02-4.273-47.619-15.872-19.535-19.536-47.008-20.147-67.154-1.221-9.157 9.157-18.315 8.547-34.188-2.442-33.577-23.81-64.712-26.862-83.638-7.937-15.872 15.873-18.925 15.263-43.345-9.157s-29.304-25.641-63.491-15.873c-65.323 17.704-114.163-3.053-124.541-54.945-4.274-21.367-.61-29.914 22.588-53.113 44.566-44.566 29.304-52.502-89.132-50.06-57.997.61-119.657 6.105-136.751 10.989-29.914 9.157-31.135 10.378-40.293 40.292-5.494 17.705-9.768 56.166-9.768 85.47 0 47.618-3.052 56.776-27.472 82.416-25.64 25.641-32.967 28.083-85.47 26.862-31.135-.61-79.364-3.663-106.836-7.936-67.765-9.158-165.444 9.157-192.306 36.019-17.704 17.704-37.85 9.768-66.544-27.472-32.356-40.903-45.787-38.461-76.312 11.6-10.378 16.482-31.746 43.955-47.619 59.828-20.146 20.146-30.524 39.071-33.577 60.439-5.494 36.019-4.273 37.24 47.008 60.439m695.965-30.525c23.199-15.873 42.124-20.146 89.132-18.315 33.577.61 62.27 3.663 64.713 6.105 6.715 6.716-16.484 40.903-32.967 47.619-7.326 3.663-42.124 7.936-76.312 9.157-75.09 1.832-89.132-12.21-44.566-44.566m4.273-182.538c8.547-18.315 14.652-21.978 37.851-23.199 32.356-.61 60.855 24.42 61.05 52.503.077 11.166-.69 24.924-.69 24.924s-15.48 1.825-31.056.716c-54.928-3.907-80.586-24.42-67.155-54.944M1080.54 602.29c-6.716-15.262 10.378-37.24 26.251-33.577 14.652 3.663 15.873 32.967 2.442 46.398-12.21 12.21-18.925 9.157-28.693-12.82m-22.589-145.908c-1.831-42.124 50.672-62.881 82.417-31.135 29.915 29.914 12.21 68.375-34.187 73.259-28.083 3.663-47.009-12.82-48.23-42.124m256.408 32.967c11.287-36.119 42.044-54.161 69.597-41.514 19.51 8.956 35.932 33.267 35.932 33.267s-2.72 25.46-10.902 41.824c-14.652 29.304-18.925 32.356-39.682 33.577-14.041.61-31.135-6.715-43.345-18.925-9.752-9.752-19.042-26.416-19.042-26.416s4.572-12.627 7.442-21.813m1040.895-14.042c6.715-29.914 25.64-40.292 50.06-25.64 26.252 15.262 25.641 28.082-1.831 55.554-20.757 20.757-25.64 21.978-38.461 9.158-8.547-8.547-12.21-24.42-9.768-39.072m181.317 20.147c-.61-3.053 14.041-10.379 30.525-15.873 21.367-7.937 42.734-7.326 68.986 3.052 48.174 19.046 66.457 43.701 96.742 69.329 8.122 6.873 22.134 21.99 22.63 22.512 0 0-25.685-2.416-38.507-3.814-20.874-2.275-31.545-2.79-62.55-7.441-74.48-10.99-84.86-15.263-100.732-37.24-9.158-14.042-17.094-28.083-17.094-30.525" style="stroke-width:.813964"/>
</svg>
