<svg xmlns="http://www.w3.org/2000/svg" width="1082" height="960">
    <path d="M122.65 833.156c-6.469 16.531 23 38.094 51.75 38.094 17.97 0 25.157 3.594 28.75 14.375 3.594 11.5 10.782 14.375 40.25 14.375 27.314 0 37.376-2.875 43.845-14.375 8.625-13.656 17.25-14.375 253.72-14.375s245.097.719 253.722 14.375c6.468 11.5 16.53 14.375 43.844 14.375 29.469 0 36.656-2.875 40.25-14.375 3.594-10.063 10.781-14.375 27.313-14.375 28.75-.719 58.938-22.282 53.188-38.813-4.313-10.063-42.407-11.5-418.316-11.5-378.785 0-414.004.719-418.316 12.219m.719-764.757c-1.438 5.032-2.157 51.032-1.438 102.782l2.156 92.72 149.502 2.156 149.5 1.438-2.155 23.719-2.157 23-140.157.719c-76.907.718-144.47 1.437-148.783 2.156-11.5.719-13.656 467.91-2.156 467.91H954.25c11.5 0 9.344-467.191-1.437-467.91-5.031-.719-71.157-.719-145.908.719-116.438 1.437-138.72 0-146.626-10.063-5.031-5.75-7.906-16.531-6.469-23.719 2.157-11.5 15.094-12.937 153.095-16.531l150.94-3.594V62.649l-415.442-2.156c-337.096-1.437-416.16 0-419.034 7.906m515.348 127.22c10.062 5.75 13.656 15.094 13.656 36.657v28.75l-112.845-2.156c-103.5-2.157-113.563-3.594-115.72-15.094-4.312-21.563 5.032-46.72 18.688-50.313 25.157-6.469 182.564-5.031 196.22 2.156m12.218 152.376-2.156 30.907H425.965l-2.156-30.907-2.157-30.187h231.44zM192.37 368.121c2.156 84.094-.719 368.721-3.594 373.753-2.156 4.312-9.344 7.187-15.094 7.187-8.625 0-10.062-30.187-10.062-194.064 0-189.033 0-194.064 14.375-194.064 7.906 0 14.375 2.875 14.375 7.188m724.506 184.72C914.72 739.717 914 745.468 900.344 745.468s-14.375-5.75-16.532-183.283c-.718-100.626 0-186.877 2.157-191.908 1.437-5.031 10.062-9.344 17.968-9.344 14.376 0 14.376 2.875 12.938 191.908" style="stroke-width:.718756"/>
</svg>
