<svg xmlns="http://www.w3.org/2000/svg" width="1200" height="960">
    <path d="M727.107 0 482.603 250.53l4.688 37.437-128.647 120.745-19.89 3.013-52.704 44.936 52.704 55.116 52.772-47.95v-21.564l124.629-119.138 29.198 3.148L798.965 68.24l-14.332-14.398-71.924 71.992-12.055-12.189 69.581-74.134-31.14-28.73zm254.08 221.734-90.944 4.755-9.576 28.797 14.331 23.975-28.73 24.778-302.096 289.239-18.685-21.698 196.085-187.245 33.552-13.997 14.398-14.8 34.087-38.306-19.019-19.22-27.055-25.984-33.619 33.685-16.742 17.345-14.465 30.471L516.222 538.7l-38.373 4.017-33.552 33.686 19.153 19.22-287.63 278.054 19.153 19.22 287.631-278.055 28.797 28.73-294.864 278.055 16.809 16.742 86.256-83.845 9.644 9.576-71.925 74.269 19.153 19.22 280.466-272.43 23.975 25.516 21.63-21.564-23.907-26.721 239.548-229.77h28.797l75.607-76.68-13.125-14.8 23.774-23.573 19.153 9.643h28.796zm-747.842 47.548L123.047 377.17l-2.41 9.51 11.987 11.987h14.398l9.577 9.041-4.755 5.76 19.153 19.019 91.078-81.368v-19.555l-7.166-14.331 9.577-16.81zm697.482 203.92L738.693 661.119l52.637 54.311-45.07 48.017L870.89 891.29l31.207-32.011-35.962-38.374 19.822-22.97 13.73 13.394 115.052-119.808 64.625-67.102zm-278.055 283.95-119.674 127.91-12.39-11.987-38.372 41.387L530.486 960l33.552-37.503 12.054 11.251 124.63-127.174z" style="stroke-width:34.2881"/>
</svg>
