<svg xmlns="http://www.w3.org/2000/svg" width="867" height="960">
    <path d="M570.415 91.68c-2.915 2.186-5.1 75.776-5.1 162.482v157.383l42.988 65.575c23.316 35.703 48.09 69.22 54.647 75.048 10.2 8.744 11.658 32.788 11.658 198.186 0 202.556 1.457 210.571 38.617 210.571 35.702 0 34.973.729 32.788-216.4l-2.186-204.014-34.974-51.733c-18.944-28.416-37.888-53.918-41.531-56.103-2.915-2.186-13.116-18.216-21.86-35.703-12.386-25.502-14.572-42.989-13.114-85.977 2.186-52.46 2.186-53.19 21.858-53.19 22.588-.728 49.547-21.858 49.547-39.345 0-10.93-114.394-131.88-124.595-131.88-2.186 0-6.557 2.185-8.743 5.1m-343.91 41.531c-34.245 33.517-61.932 64.119-61.932 68.49 0 13.844 39.345 45.904 53.918 43.718 13.844-2.186 15.3 2.186 17.487 50.275 2.186 60.475-2.915 73.59-69.22 169.769l-42.26 61.932-2.185 201.828-2.186 201.829 17.487 4.371c10.2 2.915 26.23 3.643 34.974 2.186l17.487-2.186 2.185-187.984c2.186-209.843-2.914-186.527 59.747-271.047 51.004-67.762 51.004-67.762 51.004-239.717 0-91.806-2.915-158.11-7.286-161.025-3.644-2.186-34.974 23.316-69.22 57.561M377.33 15.903c-24.773 24.773-45.174 48.818-45.174 53.19 0 11.658 30.602 37.16 47.36 40.802 12.387 2.186 13.844 7.287 11.658 34.974-1.457 17.487-5.829 40.803-9.472 51.004-3.643 10.2-8.015 58.29-9.472 107.107-2.186 66.305-5.83 93.264-13.844 105.65-10.2 13.844-11.658 53.19-11.658 289.991 0 203.286 2.186 276.148 8.744 282.705 10.929 10.93 120.222 11.658 147.181 1.458l18.944-7.286V701.536c0-265.947-.728-274.69-15.3-295.092-10.93-16.03-13.845-26.959-10.202-43.717 5.1-22.587-13.843-188.713-26.23-229.516-9.472-32.06-8.743-44.446 2.186-33.516 5.1 5.1 13.844 8.743 20.401 8.743 13.116 0 43.718-29.145 43.718-40.803S445.82-30 433.434-30c-5.829 0-31.33 20.401-56.104 45.903" style="stroke-width:.728621"/>
</svg>
