<svg xmlns="http://www.w3.org/2000/svg" width="1260" height="960">
    <path d="M625.691-29.998c-21.64.048-43.02 1.06-54.371 3.083-34.813 5.974-58.085 11.754-74.735 18.884-4.73 2.12-14.569 10.599-25.542 22.16-20.434 21.196-27.243 25.048-46.163 25.048-9.27 0-13.055.966-16.84 3.856l-4.919 4.045 5.486 9.056c3.217 5.01 7.19 10.791 9.083 12.91 3.784 4.625 18.35 16.38 20.054 16.38 3.027 0 12.489 8.673 12.489 11.37.189 4.625 3.973 9.056 14.757 16.378 21.38 14.645 48.624 24.28 68.301 24.28 12.865 0 50.136 5.01 64.894 8.864 6.054 1.542 14.757 2.697 19.487 2.697 4.92 0 12.298 1.734 16.65 3.66 14.758 6.937 34.056 27.363 44.84 47.788 2.27 4.047 4.732 8.672 5.678 10.214s5.863 9.828 10.782 18.306c13.433 23.124 59.599 86.326 82.492 113.11 16.46 19.077 94.789 99.236 103.681 106.173 3.784 2.89 8.136 5.204 9.839 5.204 3.405 0 2.46-2.12-6.811-16.764-2.838-4.625-5.11-8.863-5.11-9.634 0-.578-1.133-2.699-2.458-4.24-3.405-4.047-8.892-19.463-8.892-24.28.189-5.781 6.811-12.717 14.757-15.414 10.785-3.854 10.215-8.48-2.84-19.464-24.785-21.389-28.569-30.059-15.514-35.454 6.433-2.89 6.244-6.36-1.892-17.344-12.865-17.535-17.027-33.913-13.622-52.218 2.081-10.213 3.785-13.489 10.028-19.847 5.866-5.781 8.514-7.132 10.595-5.59 5.108 3.083 4.73 6.167-.946 7.516-11.163 2.698-15.514 12.138-8.513 18.305 1.703 1.541 10.405 9.249 19.298 16.957 53.732 47.017 91.194 85.364 114.465 116.966 8.893 11.946 16.081 22.159 16.081 22.737s2.461 4.625 5.488 9.25c5.487 8.671 20.245 38.922 25.543 52.989 18.541 49.329 20.054 55.497 20.054 78.234 0 15.416-.758 20.04-4.164 26.784-5.297 10.599-19.676 24.858-42.948 42.971-26.11 20.04-35.757 33.143-51.46 69.37-10.975 25.82-9.271 30.83 5.108 15.223 6.433-7.13 8.892-8.672 12.487-7.9 3.594.963 6.243-.58 12.486-7.13 8.703-9.25 14.19-11.755 17.406-7.901 3.217 4.047-.567 10.212-17.595 29.481-17.028 19.077-21.379 27.94-18.163 36.804 3.595 9.25 2.46 16.38-3.783 23.51-4.92 5.396-5.865 7.9-5.865 16.571 0 10.02-.19 10.406-13.623 24.28-7.568 7.9-17.595 17.341-22.325 21.195-4.54 3.661-7.947 7.516-7.19 8.286.757.771 6.055 1.157 11.92.964 30.272-.578 74.922-40.851 106.14-95.576 6.81-11.947 24.596-50.1 29.705-63.588 18.541-50.1 22.137-63.974 40.3-157.044 4.92-25.05 4.917-100.586.187-125.25-1.703-9.057-4.539-23.316-6.052-31.795-4.92-25.82-6.624-32.374-10.408-40.66-2.081-4.24-3.784-9.25-3.784-10.983 0-1.735-.756-3.274-1.891-3.274-.946 0-1.892-1.928-1.892-4.434.189-4.046.19-4.045 2.271-.383 1.135 2.12 3.216 4.623 4.73 5.394 1.324.77 2.458 2.313 2.458 3.276s3.974 7.13 9.082 13.874c8.325 11.369 10.217 14.836 16.46 29.48 6.433 14.838 14.191 44.899 14.191 54.919 0 9.056 1.893 15.609 3.974 14.26 2.838-1.734 1.891-44.897-1.136-57.615-1.513-6.359-2.648-15.031-2.838-19.27 0-9.828-6.812-48.944-10.407-60.505-11.352-36.997-18.73-54.532-25.163-60.505-6.054-5.588-8.704-13.684-6.055-18.693 1.892-3.662 3.217-4.047 9.082-2.89 3.595.77 9.46 3.275 12.677 5.973 3.405 2.505 7.38 4.626 9.082 4.626 3.405 0 3.027-1.542-4.92-19.27-4.54-10.405-29.894-36.61-51.463-53.375-19.677-15.03-30.27-25.822-40.298-40.08-4.351-6.36-10.406-13.298-13.622-15.417-6.243-4.24-8.893-10.02-6.055-12.91 2.081-2.12 24.407-1.156 32.354 1.349 7.946 2.698 3.782-5.01-8.326-15.03-17.785-14.645-37.271-22.546-75.679-31.024-49.76-10.791-74.356-14.065-84.573-11.175-4.352 1.156-7.567 1.347-8.324.191-1.892-3.276-30.65-15.223-50.894-21.004-3.028-.77-10.407-3.467-16.084-5.587C754.842-11.693 720.03-21.328 681.623-27.3c-12.393-1.83-34.292-2.745-55.932-2.697m46.907 16.13c1.377-.096 2.78 1.381 2.78 3.91 0 3.083-8.892 10.597-12.486 10.597-4.352 0-3.028-5.78 1.891-7.514 2.46-.963 4.92-3.275 5.676-5.01.497-1.3 1.313-1.925 2.14-1.983m28.702 1.14c1.371-.12 2.458 1.035 2.458 3.54 0 4.625-24.216 29.098-28.757 29.098-5.486 0-.568-7.517 10.595-16.38 5.298-4.432 10.406-9.828 11.54-12.14 1.136-2.602 2.792-3.998 4.164-4.118m-124.163 48.24c2.583.008 3.489.558 1.75 1.739-1.513.963-4.352 1.926-6.055 1.926-4.54 0-6.62 7.71-2.648 10.6 1.703 1.349 3.028 3.083 3.028 3.854s2.08 3.854 4.73 7.13c7.567 9.056 5.674 13.103-6.435 13.103-7.757 0-8.513-2.12-2.648-6.937 4.54-3.854 4.919-4.82 2.838-7.902-1.325-1.927-2.837-4.817-3.405-6.551s-4.54-4.24-8.703-5.396c-6.243-1.927-8.135-1.926-10.594.386-1.892 1.541-4.732 3.275-6.434 3.853-5.298 1.927-4.35 11.949 1.514 16.574 4.73 3.853 4.92 4.044.946 4.044-2.08 0-3.973-.577-3.973-1.54 0-.771-3.027-3.47-6.811-5.974-8.514-5.974-7.946-10.791 2.081-15.994 4.163-2.12 9.27-4.817 11.351-5.973s7.946-3.082 13.243-4.43c6.812-1.627 12.905-2.52 16.225-2.512m48.705 5.042c2.469-.265 9.634 7.676 9.805 11.343 0 1.156 1.324 3.275 2.838 4.624s2.838 4.238 2.838 6.55c0 2.12 1.324 5.783 2.837 7.71 4.352 5.78 3.975 40.078-.376 47.978-4.352 7.708-8.326 11.756-14.948 15.417-7.946 4.432-23.65 9.249-25.732 7.9-2.46-1.541 7.758-10.214 11.92-10.406 4.73 0 17.785-10.598 22.325-17.92 3.217-5.396 3.974-9.634 3.974-23.122 0-10.598-.946-18.306-2.648-21.967-1.514-2.89-3.406-6.745-3.974-8.287-1.513-4.046-5.299-10.598-8.326-14.067-1.324-1.734-1.89-4.045-1.133-5.394a.78.78 0 0 1 .6-.36m262.575 4.406c1.892 0 12.487 6.55 15.893 9.634 1.703 1.542 7.189 6.358 12.297 10.597 24.407 20.618 59.598 56.075 59.598 60.315 0 1.156.569 2.311 1.515 2.697 2.459 1.156 10.215 13.294 9.08 14.45-1.325 1.35-7.568-5.01-16.27-16.764-8.515-11.368-26.299-29.48-45.597-46.438-8.514-7.322-16.651-14.645-18.165-16.187-1.324-1.541-6.43-5.587-10.971-8.863-4.73-3.469-8.516-6.937-8.516-7.9 0-.771.568-1.54 1.136-1.54M706.029 75.79c1.703 0 3.406.77 3.784 1.541.946 2.505 23.838 19.654 25.92 19.654 1.134 0 2.08.773 2.08 1.736 0 1.735 5.488 5.395 14.758 9.634 2.27 1.156 4.163 2.89 4.163 4.047 0 2.89-4.918 2.312-7.567-.963-1.324-1.542-3.974-2.89-6.055-2.89-1.892 0-3.972-1.35-4.54-2.89-.756-1.542-2.46-2.89-3.973-2.89-3.973 0-25.165-17.152-25.165-20.428 0-.77-1.512-2.504-3.215-3.853-3.027-2.312-3.028-2.504-.19-2.697m-251.096 4.092c1.308.004 4.428 1.568 11.76 5.543 5.865 3.083 11.919 5.78 13.622 5.78 1.892 0 4.92 1.349 7 2.89 1.892 1.542 7.378 2.89 12.108 2.89s10.218 1.158 12.3 2.7c2.08 1.541 8.134 3.082 13.242 3.66 16.082 1.542 31.03 9.442 37.652 19.847 4.92 7.323 2.836 7.323-7.57 0-12.676-9.056-22.893-14.065-32.353-15.607-4.54-.77-8.134-2.12-8.134-3.083s-3.974-1.734-8.893-1.734c-7.19 0-23.65-3.661-31.786-7.13-6.244-2.505-19.865-12.333-19.865-14.26 0-.94.132-1.499.917-1.496m-124.41 28.894c-10.456.05-29.085 8.251-45.84 20.776-27.435 20.618-55.246 57.422-75.869 100.2-5.865 12.332-11.54 24.087-12.676 26.014-.946 2.12-2.46 5.972-3.217 8.67-.946 2.698-3.405 9.827-5.676 15.607-11.73 31.024-23.081 74.188-31.028 116.58-1.513 8.479-4.352 23.7-6.244 33.72-2.649 14.26-3.407 27.363-3.217 59.736 0 41.236 1.704 57.038 9.461 91.915 1.514 6.552 2.648 13.68 2.648 15.607 0 5.01 7.19 27.749 9.46 30.061 1.135 1.156 1.891 3.854 1.891 6.167 0 2.505.946 5.009 1.892 5.587 1.135.578 1.892 2.699 1.892 4.433 0 2.312-1.324 1.733-4.73-2.506-2.46-3.276-4.54-6.55-4.73-7.514 0-.964-3.026-5.011-6.81-9.25-6.055-6.937-17.028-28.52-23.271-45.861-2.46-6.552-8.704-36.42-10.785-50.678-.567-3.854-1.702-7.13-2.648-7.13-2.838 0-2.27 42.777.946 60.505 1.514 8.478 3.973 25.63 5.676 37.77 3.216 23.508 7.189 41.236 11.54 51.641 1.514 3.469 2.648 7.707 2.648 9.634 0 1.734 1.325 5.01 2.838 6.937 1.514 2.12 2.838 5.396 2.838 7.323 0 5.395 6.054 17.34 12.676 25.048 3.406 4.047 6.623 9.25 7.38 11.947 1.135 5.01-1.892 12.72-5.109 12.72-3.027 0-18.352-7.517-19.677-9.637-.567-.963-2.838-1.926-4.919-1.926-3.027 0-3.404.964-2.458 5.203 3.784 16.186 20.623 37.189 44.273 55.495 6.811 5.203 14.378 11.37 17.027 13.683 2.648 2.312 9.082 7.899 14.19 12.33 5.298 4.625 12.487 12.718 16.081 17.921 3.595 5.395 11.541 14.646 17.406 20.427 7.38 7.322 10.408 11.56 9.462 13.294-2.649 4.047-13.812 4.82-25.542 1.736-17.974-4.817-16.271.962 5.109 18.111 6.432 5.203 21.188 12.332 34.242 16.764 16.46 5.588 28.759 8.479 81.167 18.884 8.514 1.542 22.705 2.7 32.733 2.506 14.19-.385 18.161.192 21 2.697 1.891 1.735 4.162 3.277 5.108 3.277s7.19 2.312 14.002 5.01c6.811 2.89 15.135 5.78 18.162 6.744 3.216.77 10.407 3.277 16.083 5.59 5.676 2.311 16.46 6.165 23.65 8.67 7.38 2.505 15.324 5.394 17.973 6.357 5.297 2.12 20.244 6.361 36.893 10.793 68.68 17.728 153.253 15.03 219.473-6.937 10.216-3.468 29.326-15.417 29.326-18.5.189-2.312 19.677-22.738 24.596-26.014 2.649-1.734 12.485-4.045 21.756-5.394 26.677-3.468 28.758-5.203 22.515-17.343-5.676-11.176-28.379-32.565-34.622-32.565-2.46 0-7.191-6.36-8.326-11.563-1.514-5.973-20.812-19.267-41.056-28.131-12.11-5.395-18.73-6.745-43.515-9.443-29.326-3.083-60.545-7.514-74.735-10.597-4.162-.964-11.163-2.12-15.704-2.89-10.216-1.35-19.297-7.131-31.974-20.427-9.838-10.406-17.217-21.002-26.298-38.152-16.65-31.409-61.11-94.034-93.464-132.187-24.596-28.71-103.872-108.68-109.17-110.029-6.432-1.734-7.566.387-3.214 6.553 2.081 2.89 4.35 6.55 5.106 8.091.757 1.542 3.028 5.397 5.11 8.673 2.08 3.083 4.162 7.13 4.919 8.67.567 1.542 2.27 5.782 3.783 9.25 1.514 3.47 2.65 8.48 2.65 10.984 0 6.552-7.38 14.45-15.136 16.185-11.352 2.312-9.648 6.745 9.272 25.243 10.027 9.635 17.216 18.305 17.216 20.425 0 1.926-3.027 6.36-6.811 9.443l-6.811 5.78 6.431 8.67c8.514 11.947 10.785 16.382 14.002 26.787 5.487 18.691 2.082 37.574-8.324 46.438-3.784 3.083-6.433 5.972-5.865 6.358 4.162 3.275 11.162 6.746 15.135 7.71 5.487 1.348 16.84 11.175 16.84 14.643 0 1.156-1.325 2.12-2.839 2.12-1.513 0-2.837-.77-2.837-1.734 0-1.734-5.487-5.397-14.569-9.636-2.46-1.156-4.352-2.697-4.352-3.66s-3.783-3.662-8.513-5.974-8.516-5.01-8.516-5.973c0-.771 3.786-3.084 8.516-5.204 7-2.89 8.513-4.43 8.513-8.284 0-5.588-6.81-12.72-38.785-40.66-27.056-23.508-75.113-72.066-89.114-90.18-14.19-18.112-31.408-44.318-38.597-58.384-3.028-5.974-6.243-12.527-7.378-14.454-1.703-3.468-11.352-27.555-16.65-42.007-1.513-4.24-3.783-9.827-4.73-12.524-9.46-24.087-12.107-59.735-5.485-72.839 5.487-10.983 19.865-26.397 36.893-39.308 17.217-13.295 38.975-34.108 38.975-37.383 0-1.157 1.134-3.082 2.458-4.238 2.65-2.312 11.732-20.812 19.11-38.54 4.541-11.562 6.244-19.654 3.784-19.654-2.838 0-8.326 4.238-8.326 6.55 0 4.818-11.54 13.103-16.27 11.947-3.405-.963-6.243.772-12.676 7.517-10.028 10.405-16.46 11.562-16.46 3.083 0-4.24 3.594-9.443 15.324-22.16 17.028-18.884 24.03-31.986 20.813-39.309-3.973-8.67-2.46-18.5 3.594-24.473 4.919-4.817 5.675-6.936 5.675-16.377v-10.984l13.812-14.067c7.379-7.708 16.84-16.186 20.623-18.69 7.757-5.396 10.406-10.022 6.811-12.527-1.419-.903-3.397-1.325-5.81-1.313m172.004 7.643c3.603.035 6.357.752 6.357 1.763 0 2.313-7.001 2.313-12.299 0-2.838-1.349-1.891-1.733 4.353-1.733a30 30 0 0 1 1.589-.03m15.437 3.69c7.19 0 13.435 2.697 11.354 4.817-1.703 1.734-18.542-1.156-18.542-3.083 0-.964 3.215-1.734 7.188-1.734m163.025 4.753c15.699-.258 30.764 4.906 37.717 13.168 5.486 6.744-.38 6.744-10.408 0-9.27-6.36-11.54-6.938-24.027-7.13-11.73-.193-14.568.385-19.298 4.24-3.027 2.504-6.622 6.936-7.757 9.633l-2.081 5.203-1.326-4.623c-1.324-3.854-.19-5.781 6.622-11.947 4.54-4.24 10.595-7.708 13.812-8.094a67 67 0 0 1 6.746-.45m133.605 18.378c2.17.084 4.978 1.149 6.468 2.883 1.324 1.541 3.783 2.89 5.675 2.89s4.351 1.349 5.676 2.89c1.324 1.542 3.973 2.89 5.865 2.89s3.786.77 4.542 1.734c.568 1.156 5.488 4.049 10.974 6.94 5.298 2.697 12.487 6.55 15.515 8.67 3.216 2.12 7.378 4.624 9.459 5.78 5.487 2.89 10.594 6.166 18.162 11.947 3.784 3.083 7.569 5.397 8.326 5.397 1.324 0 23.46 16.762 26.488 20.23 1.135 1.157 6.243 5.59 11.351 9.637 13.622 10.983 27.622 25.243 26.109 26.784-.757.578-3.404-1.157-6.053-4.24-5.865-6.359-50.327-40.85-52.976-40.85-.946 0-2.082-.58-2.46-1.544-.568-1.541-10.407-8.67-14.759-10.597-1.513-.77-5.296-3.084-8.513-5.203-3.027-2.12-7.378-4.624-9.459-5.78s-6.243-3.661-9.46-5.78c-3.026-2.12-7.38-4.625-9.46-5.781-2.082-1.156-6.244-3.66-9.46-5.78-3.027-2.12-7.378-4.627-9.46-5.783-2.08-1.156-6.244-3.661-9.46-5.78-3.028-2.12-7.947-4.818-10.785-5.974-3.027-1.156-5.296-2.89-5.296-3.854 0-1.264 1.303-1.791 2.991-1.726m-96.834 13.48c1.702 0 3.027.77 3.027 1.927 0 .963 1.324 1.927 2.838 1.927 1.703 0 3.406 1.35 3.973 2.892.757 1.542 2.27 2.89 3.594 2.89 1.325 0 3.405 1.35 4.73 2.89 1.324 1.542 4.35 2.89 6.621 2.89s5.3 1.156 6.434 2.698c1.514 1.734 7.946 2.891 20.054 3.47 10.406.385 18.922 1.734 20.246 3.083s7.947 2.31 16.65 2.31c9.271 0 15.703.963 18.162 2.697 2.081 1.542 5.864 3.085 8.324 3.47 3.216.385 4.92 1.927 5.298 5.01.568 4.047.38 4.24-3.783 1.927-2.46-1.349-5.677-3.468-7.19-4.624-1.514-1.349-9.46-2.698-17.596-3.083-8.136-.578-15.702-1.928-17.027-3.277-1.135-1.156-8.324-2.12-17.406-2.12-15.514 0-35.002-5.008-36.516-9.44-.378-1.156-1.513-2.12-2.648-2.12s-6.245-3.468-11.354-7.707c-5.486-4.432-8.323-7.71-6.431-7.71m-30.479 13.505c1.391-.2 3.553 1.609 4.936 5.186 1.136 3.083 5.487 11.95 9.65 19.85 4.162 7.9 7.567 15.414 7.567 16.763s.756 2.504 1.892 2.504c.946 0 2.46 2.313 3.027 5.204.757 2.89 2.46 6.55 3.973 7.9 1.325 1.349 2.461 3.47 2.461 4.433 0 3.276-3.218 1.732-5.488-2.7-1.135-2.312-3.784-6.937-5.865-10.02-2.081-3.276-4.54-7.514-5.676-9.634s-3.594-6.55-5.486-9.634c-5.108-8.093-10.974-20.427-12.11-25.63-.579-2.697.038-4.067 1.12-4.222m29.811 8.64c1.93.235 6.792 5.65 17.884 19.476 4.162 5.01 9.082 10.793 10.974 12.72 1.703 1.927 3.217 3.853 3.217 4.43 0 .579 3.405 4.241 7.567 8.48 4.163 4.047 7.568 8.478 7.568 9.827 0 3.276-29.516-27.169-40.3-41.62-4.73-6.552-8.135-12.334-7.568-13.104.166-.169.383-.242.658-.208m118.514 32.027c1.017.12 2.767 1.324 5.7 3.636 2.648 2.12 6.055 3.854 7.38 3.854 1.513 0 2.648.77 2.648 1.927 0 .963 2.839 3.084 6.244 4.626 4.92 2.12 5.487 2.89 2.838 4.047-5.865 2.312-26.109-9.443-26.109-15.224 0-2.023.282-2.986 1.299-2.866m-113.117 24.833c2.081 0 4.541 5.973 3.028 7.514-1.135 1.156-4.73-3.466-4.73-6.164 0-.77.756-1.35 1.702-1.35m6.158 10.597c.673.074 1.456.796 2.166 2.12 1.135 2.12 3.029 4.433 4.542 5.204 1.325.77 2.459 2.31 2.459 3.467 0 1.927 1.892 4.626 8.136 11.563 1.703 1.927 3.217 4.046 3.217 4.624s1.324 2.505 2.838 4.24c7 8.093 36.893 50.87 36.893 52.604 0 1.157 1.324 2.506 2.838 3.084 1.514.77 2.838 2.312 2.838 3.853s.945 2.697 1.891 2.697c1.136 0 1.892 1.542 1.892 3.277 0 2.505-1.513 1.54-5.865-3.277-3.216-3.66-7.755-8.863-10.026-11.56-7.757-9.057-27.623-36.42-27.623-38.154 0-1.157-1.324-2.313-2.838-3.084-1.514-.578-2.838-1.925-2.838-3.274 0-1.156-2.46-5.396-5.298-9.25-3.028-3.854-6.054-8.285-6.622-9.827-1.703-4.046-5.486-9.828-8.513-13.103-1.325-1.35-1.703-3.468-1.136-4.624.284-.434.646-.624 1.05-.58m68.764 18.307c1.325 0 12.11 7.708 17.03 12.14 2.08 2.12 5.676 4.43 8.136 5.394 2.27.964 4.16 3.085 4.16 4.627 0 2.505-.755 2.697-4.16.77-2.46-1.35-5.3-3.277-6.434-4.433-1.136-1.156-5.866-5.203-10.785-8.864-4.73-3.661-8.893-7.323-8.893-8.286 0-.771.379-1.348.946-1.348m14.285 94.813c.435-.187 2.318 1.268 4.636 3.46 2.649 2.505 4.73 5.396 4.73 6.36 0 1.156-2.081-.386-4.73-3.277s-4.73-5.782-4.73-6.36q0-.143.094-.183m245.546 28.547c1.137-.031 2.601 1.807 3.346 5.167.757 3.083 2.46 7.128 3.784 9.247 1.514 2.12 2.648 5.59 2.648 7.71s1.324 5.587 2.838 7.514c1.513 2.12 2.84 5.973 2.84 8.67s1.324 6.746 2.838 8.673c1.513 2.12 2.838 7.513 2.838 12.138 0 4.624.756 8.286 1.891 8.286 2.838 0 4.35 13.103 2.459 19.848-1.703 5.78-1.89 5.59-3.405-6.358-.756-6.937-2.27-13.105-3.217-13.683-.946-.578-2.27-5.01-2.837-9.634s-2.27-10.213-3.594-12.333c-1.514-2.12-2.65-6.358-2.65-9.634 0-3.083-1.325-7.514-2.839-9.44-1.513-2.12-2.837-5.975-2.837-8.48s-1.325-5.782-2.838-7.323c-1.514-1.735-2.838-4.625-2.838-6.744 0-2.445.688-3.6 1.573-3.624M174 422.637c1.135 0 1.892 8.286 1.892 21.197s-.757 21.194-1.892 21.194-1.892-8.284-1.892-21.194.757-21.197 1.892-21.197m4.105 57.478c.713-.158 1.348 2.509 2.519 9 1.135 6.36 3.026 14.067 4.35 16.957 1.325 3.083 2.271 7.71 2.271 10.6s1.324 6.937 2.838 8.864c1.514 2.12 2.838 5.972 2.838 8.67s1.324 6.744 2.838 8.67c1.513 2.12 2.837 6.36 2.837 9.444 0 2.89 1.325 6.742 2.838 8.284 3.216 3.276 3.784 10.406.946 10.406-.946 0-2.46-2.313-3.027-5.396-.757-2.89-2.46-6.937-3.784-9.057-1.514-2.12-2.648-5.588-2.648-7.9s-1.324-5.202-2.838-6.55c-1.514-1.35-2.838-5.202-2.838-8.478s-1.324-7.71-2.837-9.636c-1.514-2.12-2.838-7.515-2.838-11.947 0-4.625-.759-8.672-1.705-9.25-2.649-1.734-4.54-15.8-2.838-20.81.414-1.145.755-1.8 1.078-1.871m907.646 11.89c2.27 0 3.973 23.702 2.648 36.805-1.892 19.462-4.35 12.525-4.35-12.717 0-13.296.756-24.088 1.702-24.088m-879.587 82.859c1.135 0 1.894 1.928 1.894 4.24 0 3.661-.38 3.853-1.894 1.54-.946-1.541-1.892-3.467-1.892-4.43 0-.77.946-1.35 1.892-1.35m233.075 14.947c1.01.127 4.015 2.456 7.397 6.057 4.352 4.432 7.38 8.48 6.624 9.25-1.325 1.541-14.38-11.947-14.38-15.03 0-.217.126-.306.36-.277m21.624 23.657c1.04-.03 2.624 1.066 3.369 3.017.757 1.927.189 2.699-1.136 2.313-1.135-.385-2.646-1.927-3.025-3.083-.497-1.517-.017-2.223.792-2.247m5.08 7.6c1.162-.127 4.107 2.403 9.073 7.75 6.622 6.938 26.49 33.337 31.03 40.852 1.136 1.734 6.432 9.827 11.918 17.92 5.298 7.9 9.839 15.03 9.839 15.607 0 .578 1.324 2.312 2.838 3.854 3.405 3.468 3.785 6.553.758 6.553-1.135 0-2.46-1.736-3.027-3.663-.568-2.12-2.083-4.239-3.597-4.817s-2.648-2.312-2.648-4.047c0-1.541-.946-2.89-1.892-2.89-1.135 0-2.46-1.349-3.217-3.083-.567-1.734-3.593-5.781-6.431-9.057-3.028-3.276-5.489-7.128-5.489-8.477s-.946-2.506-1.892-2.506c-1.135 0-2.647-1.54-3.214-3.468-.757-1.734-8.704-13.488-17.975-25.82-9.082-12.333-16.65-23.123-16.65-23.701 0-.626.19-.965.576-1.008m-32.93 48.215c.947 0 2.65 1.349 3.974 2.89s3.406 2.89 4.73 2.89c1.135 0 6.244 3.856 11.164 8.673 5.108 4.818 9.46 8.67 9.838 8.67.19 0 2.838 2.12 5.676 4.818s4.162 4.817 3.027 4.817c-2.081 0-8.325-4.816-15.893-12.138-1.892-1.734-3.783-3.276-4.35-3.276-1.703 0-13.245-8.48-13.812-10.214-.379-.77-1.893-1.35-3.407-1.35s-2.648-1.348-2.648-2.89c0-1.541.756-2.89 1.702-2.89M295.69 711.93c1.717-.036 7.002 4.143 14.534 11.502 5.109 4.817 33.678 26.784 35.002 26.784.757 0 4.542 2.504 8.326 5.394 3.784 3.083 8.135 6.166 9.649 6.937 3.594 1.734 7.568 4.24 21.569 13.297 6.054 4.046 12.864 8.286 15.134 9.25 2.27.963 6.622 3.467 9.65 5.587 3.216 2.12 7.38 4.624 9.46 5.78 2.082 1.156 6.433 3.663 9.46 5.783 3.216 2.12 7 4.43 8.513 5.2 6.622 3.276 15.515 10.214 12.866 10.214-2.46 0-40.866-19.076-51.65-25.628-1.893-1.348-7-4.432-11.352-7.13-4.162-2.505-10.596-6.36-14.191-8.286-3.595-2.12-9.649-6.165-13.433-9.248s-7.757-5.59-8.703-5.59-4.352-2.504-7.38-5.78c-3.027-3.083-6.431-5.78-7.377-5.78-1.136 0-3.406-1.543-4.92-3.47-1.702-1.734-7-6.744-12.11-10.983-10.784-9.25-23.65-21.773-23.65-23.122 0-.47.207-.703.603-.711m238.962 3.665c1.04-.03 2.624 1.069 3.369 3.02.756 1.927.188 2.696-1.136 2.31-1.135-.385-2.649-1.927-3.027-3.083-.497-1.517-.015-2.223.794-2.247m6.888 9.967c.291-.012.738.519 1.4 1.53 2.46 3.661 2.46 5.78 0 5.78-.946 0-1.892-1.925-1.892-4.43 0-1.951.118-2.865.492-2.88m-41.354 3.648c2.01-.187 8.655 6.993 27.427 28.52 5.865 6.744 12.11 13.876 14.191 15.61 1.892 1.927 2.839 4.624 2.082 5.78-.946 1.349-3.216 0-6.811-4.24-3.027-3.468-8.703-9.828-12.677-14.067-3.784-4.239-10.027-11.56-13.622-16.377-3.595-4.818-7.568-9.443-8.892-10.214-1.325-.77-2.461-2.313-2.461-3.276 0-1.054.2-1.684.763-1.736m46.28 5.6c1.22.03 2.87 1.52 4.041 4.23 1.136 2.504 3.595 6.937 5.676 10.213 2.08 3.083 4.54 7.514 5.675 9.633s3.975 7.516 6.434 11.947c5.676 10.02 7.19 17.92 3.594 17.92-1.324 0-3.026-1.54-3.594-3.466-1.702-5.396-2.46-6.744-7.38-14.837-2.46-4.24-4.54-9.059-4.73-10.793 0-1.735-1.323-4.239-2.837-5.587-1.514-1.35-2.838-3.662-2.838-5.204s-1.324-4.045-2.838-5.587c-1.513-1.734-2.837-4.239-2.837-5.78 0-1.855.686-2.714 1.635-2.69m-122.911 27.086c1.04.024 2.46.94 3.973 2.77 1.324 1.542 4.92 2.89 7.947 2.89s8.513 1.352 12.297 2.894c3.595 1.541 12.487 2.89 19.487 2.89 14.569 0 24.596 1.734 24.596 4.046 0 2.89-31.596 1.927-39.164-1.156-3.595-1.542-10.217-2.89-14.568-2.89-8.325 0-16.27-4.24-16.27-8.864 0-1.734.661-2.604 1.702-2.58m78.182 17.153q.736-.015 1.513 0c5.313.103 11.712 1.227 13.202 2.961 1.324 1.542 3.405 2.89 4.73 2.89 1.134 0 4.35 1.735 6.81 4.047a401 401 0 0 0 9.272 7.707c3.406 2.505 3.973 3.468 1.703 3.66-1.703 0-5.109-1.925-7.757-4.43-7.19-6.359-16.273-10.984-21.949-10.984-7 0-13.622-2.12-13.622-4.046 0-1.18 2.664-1.738 6.098-1.805M269.02 808.475c.882-.082 3.614 3.57 12.07 14.962 14 19.077 55.812 60.314 83.624 82.859 5.676 4.432 9.46 8.672 8.703 9.25-.757.77-1.703.192-2.081-1.157-.568-1.156-2.27-2.313-3.784-2.313-2.649 0-12.865-7.322-23.271-16.764-34.056-30.638-60.544-58-60.544-62.238 0-.771-1.324-1.93-2.837-2.7-1.514-.578-2.838-2.312-2.838-4.047 0-1.541-.757-2.89-1.892-2.89-.946 0-2.27-2.119-3.027-4.817-.568-2.697-1.892-4.817-2.838-4.817s-1.702-1.542-1.702-3.276c0-1.204.017-2.014.417-2.052m336.337 2.546a.62.62 0 0 1 .396.085c8.325 5.203-14.946 25.821-29.136 25.821-9.838-.193-25.92-6.745-32.164-13.103-7.946-7.9-5.106-11.562 3.597-4.817 3.784 2.89 9.838 6.552 13.622 8.093 8.703 3.469 26.675 5.008 26.675 2.31 0-.963 2.272-3.08 5.299-4.43 2.838-1.349 6.243-5.204 7.757-8.673 1.324-3.035 2.938-5.183 3.954-5.286m43.534 9.142c9.27.386 10.786 3.467 2.46 5.394-13.243 3.083-23.838 10.792-29.135 21.39-4.541 9.057-5.109 35.07-.946 43.355 1.513 2.89 3.406 6.745 3.973 8.287 1.514 4.046 5.486 10.596 8.324 14.257 2.08 2.505 2.082 3.856.379 5.59s-2.46 1.349-3.217-1.927c-.568-2.312-2.27-4.625-3.784-5.203s-2.65-2.312-2.65-3.66c0-1.542-1.324-3.855-2.838-5.204s-2.838-4.24-2.838-6.553c0-2.12-1.324-5.78-2.838-7.707-2.08-2.698-2.837-9.056-2.837-22.737 0-16.572.566-19.848 4.54-26.207 4.919-8.093 7.947-10.983 16.839-15.8 3.595-2.12 9.46-3.275 14.568-3.275m48.52 11.253c1.243.092 3.664 1.826 8.24 5.511 3.973 3.083 7.947 5.78 9.082 5.78.946 0 2.839 1.35 4.163 2.89 1.325 1.542 4.352 2.89 6.811 2.89 2.27 0 5.487 1.158 6.812 2.507 1.324 1.541 7.946 3.083 14.568 3.854 6.622.578 12.864 1.927 13.999 3.083s5.487 2.117 9.838 2.117c4.352 0 9.462 1.351 11.543 2.893 1.892 1.542 5.107 2.89 6.999 2.89s3.785 1.155 4.352 2.697 3.027 3.276 5.676 3.854c2.46.77 4.542 2.12 4.542 3.083 0 2.89-6.813 2.312-9.461-.963-1.325-1.542-4.162-2.89-6.432-2.89-2.081 0-5.675-1.35-7.567-2.89-2.082-1.542-5.867-2.89-8.516-2.89s-7.378-1.35-10.405-2.891c-2.838-1.542-9.272-2.893-14.191-2.893-4.73-.192-10.784-1.348-13.433-2.89-2.649-1.541-6.622-2.697-8.893-2.89-9.081 0-28.946-14.065-28.946-20.231 0-1.77.253-2.693 1.22-2.621m34.049 1.821c3.603.035 6.355.752 6.355 1.763 0 2.313-4.54 2.313-11.351 0-3.974-1.349-3.596-1.543 3.404-1.736a30 30 0 0 1 1.592-.027m12.669 3.761c1.774-.072 4.565.315 8.633 1.086 6.811 1.348 7.946 4.623 1.702 4.623-6.433 0-12.866-2.12-12.866-4.046 0-1.06.757-1.59 2.53-1.663M511.39 848.586c1.419 0 3.167.673 4.492 2.022 2.27 2.312 8.704 6.36 14.947 9.25 5.865 2.697 24.598 20.81 23.084 22.35-.757.771-8.138-3.852-16.462-10.403s-16.081-11.757-17.217-11.757-2.46-1.155-3.027-2.697c-.568-1.541-2.648-3.082-4.73-3.66-1.892-.578-3.594-1.927-3.594-3.083 0-1.35 1.088-2.022 2.507-2.022m295.63 29.001c.276-.015.607.047.985.191 1.325.385 2.839 1.925 3.217 3.274.568 1.542-.188 2.314-1.702 1.736-1.324-.385-2.839-1.927-3.217-3.276-.426-1.156-.107-1.88.718-1.925M698.463 885.1l-5.865 6.166c-3.217 3.276-5.865 6.553-5.865 7.324 0 .578 2.458 3.852 5.485 7.32 4.73 5.01 7 6.167 13.623 6.167 4.73 0 9.46-1.347 11.54-3.274 4.163-3.854 4.543-13.298.57-14.84-1.514-.578-2.838-1.927-2.838-3.083 0-3.854 5.107-1.732 11.35 4.82 7.569 7.9 6.812 10.788-3.973 17.147-11.73 6.744-38.596 12.526-41.812 9.25-1.703-1.734-.757-2.313 3.783-2.313 7.38 0 9.837-4.43 5.297-9.44-1.703-1.927-3.025-4.24-3.025-5.204s-2.273-3.852-4.732-6.357c-5.866-5.588-6.053-8.672-.377-11.37 2.27-1.156 7-2.12 10.594-2.12zm-111.376 53.11c3.91-.05-2.446 10.63-11.226 16.645-3.595 2.312-8.702 7.71-11.351 11.563-4.92 6.937-8.326 8.092-8.326 2.504 0-2.89 21.758-26.013 27.623-29.481 1.479-.843 2.556-1.22 3.28-1.23m11.43 20.247c1.845-.078 3.076.685 3.076 2.371 0 1.542-2.27 3.855-4.92 5.204-2.648 1.541-5.675 4.24-6.621 6.166-1.135 1.927-2.65 3.082-3.786 2.504-3.216-2.12-1.702-7.515 3.407-11.947 3.086-2.71 6.473-4.199 8.844-4.298" style="stroke-width:1.24051"/>
</svg>
