<svg xmlns="http://www.w3.org/2000/svg" width="1154" height="960">
    <path d="M481.678 398.768c-10.318 9.336-26.041 31.447-35.377 49.627-20.145 39.307-22.602 75.176-6.878 104.165 5.404 10.319 9.826 21.128 9.826 24.568 0 8.353 48.153 55.522 56.506 55.522 3.439 0 8.844 3.44 12.283 7.37 4.914 5.897 18.18 7.37 58.962 7.37s54.048-1.473 58.962-7.37c3.44-3.93 8.844-7.37 12.284-7.37 8.352 0 56.505-47.17 56.505-55.522 0-3.44 4.422-14.25 9.827-24.568 15.723-28.99 13.266-64.858-6.88-104.165-17.196-33.903-49.134-67.315-61.91-65.35-3.93.983-7.86 7.37-8.843 14.25-1.475 11.792 6.878 24.567 33.411 53.065 3.931 4.422 10.319 19.163 13.758 32.92C701.31 550.104 647.263 617.91 577 617.91s-124.802-68.298-107.114-135.612c3.44-13.267 9.827-27.516 13.758-31.938 3.93-4.913 12.775-14.25 19.162-21.128 13.267-14.74 16.706-43.73 5.405-45.695-3.93-.983-15.723 5.896-26.533 15.231m-4.422-225.037c-13.266 3.44-26.532 8.353-29.48 10.81-3.44 2.456-11.302 5.896-18.18 7.37-28.499 6.879-106.132 66.823-123.82 95.813-5.405 9.335-15.723 22.602-22.11 29.48-6.388 6.88-16.215 22.603-21.62 34.886-5.896 12.284-13.758 28.499-17.197 35.869-3.931 6.879-6.88 18.18-6.88 24.567 0 5.896-3.93 22.11-8.844 35.869l-8.844 24.567-47.66 1.474c-53.558 1.474-55.032 2.948-51.592 43.239l1.474 19.162 49.135 2.457 49.135 2.457 3.93 14.74c2.457 7.862 6.388 18.671 8.845 23.094 2.456 4.913 4.422 14.74 4.422 22.602 0 7.37 2.948 17.688 6.879 23.093 3.439 5.405 7.861 15.723 9.335 22.602 4.422 16.706 41.765 72.72 67.315 99.744 49.626 53.065 153.792 106.131 207.84 106.131h18.18V902.4c0 54.049 2.457 58.47 29.481 57.488 28.007-.982 29.48-3.44 29.48-57.488v-48.643h18.672c51.592 0 144.948-46.187 201.944-100.235 23.585-22.602 67.806-86.969 72.72-106.131 1.474-6.88 5.896-16.706 9.335-22.111 3.931-5.405 6.88-15.723 6.88-23.093 0-7.862 1.965-17.689 4.421-22.602 2.457-4.423 6.388-15.232 8.845-23.094l3.93-14.74 49.135-2.457 49.135-2.457 1.474-19.162c3.44-40.29 1.966-41.765-51.591-43.239l-48.152-1.474-3.931-14.74c-2.457-8.353-6.388-18.672-8.845-23.094-2.456-4.913-4.422-14.249-4.422-21.62 0-6.878-2.948-18.67-6.387-25.55-3.931-7.37-10.81-22.11-16.215-32.92-15.231-32.429-40.782-67.314-70.262-95.321-30.955-29.481-80.09-63.384-98.761-67.806-6.88-1.474-14.741-4.914-17.69-7.37-3.438-1.966-18.67-7.37-34.393-11.793-35.377-8.844-36.36-7.861-36.36 45.204 0 43.73 4.422 51.592 30.955 57.98 21.128 4.913 52.083 25.55 84.02 56.504 30.464 29.481 61.91 73.211 61.91 86.97 0 4.421 3.44 15.23 7.862 24.566 11.792 24.568 6.879 31.447-22.11 31.447-22.112 0-25.06 1.474-28.008 11.3-1.474 6.388-1.965 20.146-.982 30.956l1.474 19.162 26.041 1.474c30.464 1.966 35.377 8.353 23.585 32.43-4.422 9.335-7.862 20.636-7.862 25.058 0 9.827-42.256 74.685-56.505 86.969-30.955 26.533-45.204 35.868-75.176 51.1-21.62 10.81-39.8 16.706-53.557 16.706h-20.637l-1.474-28.498-1.474-28.007h-54.048l-1.474 28.007-1.474 28.498H526.39c-13.758 0-31.937-5.896-53.557-16.706-29.972-15.232-44.221-24.567-75.176-51.1-14.25-12.284-56.505-77.142-56.505-86.969 0-4.422-3.44-15.723-7.862-25.059-11.792-24.076-6.879-30.463 23.585-32.429l26.041-1.474 1.475-19.162c.982-10.81.49-24.568-.983-30.955-2.948-10.319-5.896-11.301-29.972-11.301-30.464 0-33.903-5.896-19.654-32.43 3.93-7.86 7.37-18.18 7.37-23.093 0-34.394 99.744-133.155 145.439-143.965 27.024-6.387 31.446-14.74 31.446-56.505 0-57.487.492-56.996-40.782-45.695m82.056-220.615c-9.336 13.757-16.215 27.024-58.471 109.079l-23.585 46.187 11.793 8.844c6.387 4.913 19.654 9.335 28.99 10.318l17.196 1.474 1.474 195.557c1.475 222.58 0 214.72 40.291 214.72s38.817 7.86 40.29-214.72l1.475-195.557 17.197-1.474c9.335-.983 22.602-5.405 28.99-10.318l11.3-8.844-15.723-28.99c-8.844-15.723-23.093-42.256-32.429-58.47-8.844-16.215-22.11-41.274-28.99-55.523-14.248-29.48-26.04-32.92-39.798-12.283" style="stroke-width:.491348"/>
</svg>
