<svg xmlns="http://www.w3.org/2000/svg" width="995" height="960">
    <path d="M485.06-19.84 420.683 296.2a16.202 16.202 0 0 1-22.88 11.376L86.961 158.572a19.043 19.043 0 0 0-22.02 30.308L284.96 419.83a87.23 87.23 0 0 1 0 120.332L64.94 771.12a19.044 19.044 0 0 0 22.02 30.308l310.843-149.004a16.202 16.202 0 0 1 22.88 11.377l64.377 316.04a12.695 12.695 0 0 0 24.88 0l64.377-316.04a16.202 16.202 0 0 1 22.88-11.377l310.842 149.004a19.044 19.044 0 0 0 22.02-30.308L710.042 540.162a87.23 87.23 0 0 1 0-120.332L930.06 188.88a19.043 19.043 0 0 0-22.02-30.308L597.197 307.576a16.202 16.202 0 0 1-22.88-11.377L509.94-19.84a12.695 12.695 0 0 0-24.88 0m16.587 295.833 15.8 77.56a48.607 48.607 0 0 0 68.64 34.128l56.896-27.273a11.426 11.426 0 0 1 13.211 18.184 149.86 149.86 0 0 0 3.7 206.699 11.258 11.258 0 0 1-16.911 14.302l-56.896-27.274a48.607 48.607 0 0 0-68.64 34.129l-15.8 77.56a4.232 4.232 0 0 1-8.294 0l-15.8-77.56a48.607 48.607 0 0 0-68.64-34.13l-56.896 27.275a11.426 11.426 0 0 1-13.211-18.185 149.86 149.86 0 0 0-3.7-206.699 11.258 11.258 0 0 1 16.911-14.301l56.896 27.273a48.607 48.607 0 0 0 68.64-34.129l15.8-77.56a4.232 4.232 0 0 1 8.294 0" style="stroke-width:.94444758249"/>
</svg>
