<svg xmlns="http://www.w3.org/2000/svg" width="1024" height="960">
    <path d="M891.57 597.824c10.133-12.211 15.33-28.839 10.913-46.766-4.677-19.745-21.045-36.113-41.05-40.27-21.045-4.417-40.011 3.637-52.222 17.667s-.78 1.039-1.3 1.818l-3.117 3.897c-12.211 15.849-50.663 61.576-85.478 63.654-42.09 2.598 65.213-419.334 65.213-419.334h-.26c1.04-3.897 1.819-8.054 1.819-12.471 0-25.461-20.525-45.987-45.987-45.987-21.045 0-38.712 14.29-43.908 33.516h-.26s-.26.78-.26 1.3l-.779 3.896c-6.235 31.437-43.648 213.045-73.007 230.972-32.216 19.486-31.697-343.73-31.697-343.73C590.19 20.525 569.665 0 544.204 0c-25.462 0-45.987 20.525-45.987 45.986 0 0-9.093 333.857-44.947 330.74-35.594-3.118-64.173-277.219-64.173-277.219 0-25.461-20.525-45.986-45.986-45.986-25.462 0-45.987 20.525-45.987 45.986 0 3.898.52 7.275 1.559 10.912 7.015 53.521 35.334 288.91-1.559 288.91-41.57 0-95.61-164.98-95.61-164.98-5.976-16.108-21.305-27.54-39.491-27.54-23.383 0-42.09 18.966-42.09 42.09 0 2.338.26 4.416.78 6.495l-.78.26s.52 1.818 1.819 4.936c.52 2.338 1.299 4.417 2.338 6.495 25.721 70.409 163.161 453.63 188.623 681.483.78 6.496 6.235 11.432 12.73 11.432h316.71c6.755 0 12.21-4.936 12.99-11.691 2.598-27.02 13.51-95.61 54.3-143.936 46.766-55.599 157.446-179.009 178.23-202.392.52-.52.78-1.04 1.3-1.559 1.818-1.559 2.857-2.598 2.598-2.598" style="stroke-width:25.9811"/>
</svg>
