<svg xmlns="http://www.w3.org/2000/svg" width="1200" height="960">
    <path d="M694.137 698.545c0 26.61 5.322 34.594 23.95 30.603 11.975-2.662 22.62-15.967 22.62-30.603s-10.645-27.942-22.62-30.603c-18.628-3.992-23.95 3.991-23.95 30.603m-239.5-678.587c-9.315 10.645-30.604 19.959-49.232 19.959-17.297 0-34.594 9.314-38.586 19.958-5.322 10.645-15.967 19.959-25.28 19.959-23.95 0-139.71 114.428-139.71 138.378 0 9.314-9.313 21.289-19.958 26.611-10.644 3.992-19.958 21.29-19.958 38.587 0 18.627-9.314 39.916-19.959 49.23-29.272 23.95-29.272 290.063 0 300.707 10.645 5.322 19.959 22.62 19.959 39.917 0 18.628 9.314 35.925 19.958 39.917 10.645 5.322 19.959 18.628 19.959 31.933 0 26.612 101.122 133.056 126.403 133.056 9.314 0 23.95 9.314 33.264 19.959s30.603 19.958 46.57 19.958c17.297 0 33.264 9.314 38.586 19.959 10.644 29.272 290.062 29.272 314.012 0 9.314-10.645 27.942-19.959 42.578-19.959 13.306 0 27.942-9.314 31.934-19.958 5.322-10.645 18.628-19.959 31.933-19.959 26.611 0 133.056-101.122 133.056-126.403 0-9.314 9.314-23.95 19.959-33.264s19.958-30.603 19.958-46.57c0-17.297 9.314-33.264 19.959-38.586 15.966-5.322 19.958-35.925 19.958-153.014 0-115.76-3.992-146.362-19.958-153.015-10.645-3.992-19.959-21.289-19.959-38.586 0-18.628-9.314-39.917-19.958-49.231-10.645-9.314-19.959-23.95-19.959-33.264 0-22.62-114.428-126.403-138.378-126.403-9.314 0-21.289-9.314-26.611-19.959-3.992-10.644-21.29-19.958-38.587-19.958-18.627 0-39.916-9.314-49.23-19.959C734.054 5.322 700.79 0 600.998 0S467.942 5.322 454.636 19.958m-9.315 98.462c22.62 9.314 34.595 26.611 41.248 59.875 5.322 26.611 14.636 47.9 21.289 47.9 6.652 0 27.941 26.612 47.9 59.876 18.628 33.264 38.586 59.875 43.908 59.875s22.62-17.297 38.587-39.917c25.28-33.264 26.61-43.908 13.305-66.528-13.305-21.289-13.305-29.272 0-42.578 14.636-14.636 19.959-13.306 30.603 6.653 19.959 34.594 41.248 13.306 31.934-31.934-7.984-33.264-3.992-39.916 26.61-51.891 54.554-19.959 127.735-2.662 176.966 43.908 38.586 37.256 42.577 47.9 42.577 119.75 0 70.52-3.991 81.165-42.577 117.09-25.281 22.62-58.545 38.586-78.504 38.586-53.222 0-78.503 13.306-78.503 39.917 0 14.636-5.322 29.272-13.305 33.264-22.62 14.636-14.637 33.264 18.628 46.57 47.9 17.297 105.114 79.833 125.072 134.386 13.306 39.917 13.306 55.884-3.991 93.14-50.562 114.428-90.479 119.75-91.81 11.975-1.33-90.478-31.933-106.445-61.205-33.264-15.967 39.917-23.95 46.57-53.222 43.908-30.603-3.991-34.595-10.644-45.24-94.47-7.983-62.536-17.297-89.147-30.602-89.147-19.959 0-82.495 63.867-83.826 85.156 0 6.653-10.644 23.95-22.62 38.586-22.619 23.95-22.619 25.28 0 42.578 30.604 21.289 29.273 35.925-7.983 71.85-29.272 25.281-33.264 26.612-49.23 7.984-14.637-18.628-13.306-22.62 10.644-29.273 35.925-9.314 38.586-43.908 5.322-43.908-13.305 0-35.925 7.983-49.23 18.628-19.959 14.636-31.934 14.636-75.842-3.992-51.892-22.62-65.198-46.57-30.603-59.875 10.644-3.992 19.958-13.306 19.958-21.29 0-6.652-9.314-13.305-19.958-13.305s-19.959-9.314-19.959-19.958 9.314-19.959 19.959-19.959 19.958 5.323 19.958 13.306c0 6.653 9.314 13.306 21.289 13.306 14.636 0 17.297-7.984 11.975-25.281-5.322-18.628 5.322-35.925 41.247-66.528 42.578-33.264 46.57-41.248 26.612-49.231-13.306-5.322-31.934 0-46.57 13.306-13.306 11.975-39.917 21.289-58.545 21.289-50.561 0-46.57-38.587 3.992-47.9 22.62-5.323 39.917-13.306 39.917-19.959s23.95-11.975 53.222-11.975c45.24 0 53.223-3.992 53.223-27.942 0-21.289-5.322-25.28-26.611-18.628-43.909 13.306-61.206-7.983-26.612-33.264l29.273-22.62-57.214-46.569c-31.934-25.28-69.19-50.561-81.165-54.553-18.628-6.653-23.95-23.95-23.95-75.842 0-73.18 26.611-113.098 82.495-123.742 17.297-2.661 34.595-6.653 39.917-7.984 5.322 0 23.95 3.992 41.247 10.645M239.085 295.385c-6.653 42.578-37.255 46.57-37.255 5.322 0-22.62 6.652-34.595 21.288-34.595 13.306 0 18.628 9.314 15.967 29.273m800.998 109.106c0 69.189-17.297 86.486-54.553 53.222-31.933-29.272-31.933-35.925 5.322-77.172 41.248-47.9 49.231-43.909 49.231 23.95M309.605 379.21c0 6.653-15.967 14.636-34.595 17.297-23.95 2.661-33.264-1.33-33.264-17.297s9.314-19.958 33.264-17.297c18.628 2.66 34.595 9.314 34.595 17.297m687.9 163.659c2.661 9.314-3.991 15.967-15.967 15.967s-21.289-9.314-21.289-21.29c0-22.619 29.273-18.627 37.256 5.323M201.83 578.794c0 10.645-5.323 19.959-11.976 19.959-17.297 0-29.272-21.29-18.627-31.934 14.636-14.636 30.603-7.983 30.603 11.975m757.089 49.231c6.653 18.628 6.653 37.256-2.661 47.9-10.645 13.306-19.959 9.314-43.909-19.958-33.264-41.248-30.603-57.214 9.314-57.214 14.636 0 30.603 13.305 37.256 29.272M561.08 899.46c0 10.644-9.314 18.627-19.958 18.627-19.959 0-27.942-27.941-11.975-43.908 13.305-11.975 31.933 2.66 31.933 25.28" style="stroke-width:1.33056"/>
</svg>
