<svg xmlns="http://www.w3.org/2000/svg" width="1229" height="960">
    <path d="M148.91.05c-7.677-.475-15.152 4.2-16.907 12.389-9.358 38.733-22.62 114.883 2.335 152.316 2.34 3.38 5.742 5.46 9.901 6.499 31.974 7.799 191.322 42.902 470.252 42.902s438.278-35.103 470.252-42.902c3.9-1.04 7.561-3.12 9.9-6.499 24.956-37.433 11.688-113.583 2.59-152.316-2.6-10.919-15.108-15.614-24.726-10.155-107.36 60.57-458.016 49.401-458.016 49.401s-350.655 11.168-458.016-49.4A17.5 17.5 0 0 0 148.91.05m43.41 209.182v344.692h.254s-.012 60.825 58.997 60.825 59.048-60.825 59.048-60.825V226.139c-50.17-5.72-89.704-11.708-118.299-16.907m843.834 0c-28.335 5.199-67.868 11.448-118.3 16.907v327.785h.255s-.012 60.825 58.997 60.825 59.048-60.825 59.048-60.825zM375.05 232.384v489.494h.305s-.012 60.825 58.997 60.825 58.998-60.825 58.998-60.825V239.39c-43.153-1.56-82.686-4.147-118.3-7.006m478.325 0c-35.353 2.86-74.836 5.447-118.248 7.006v482.488h.254s-.013 60.825 58.997 60.825 58.997-60.825 58.997-60.825zm-297.88 8.834v657.906S555.482 960 614.49 960s58.997-60.876 58.997-60.876V241.218c-19.236.26-38.72.508-58.997.508-20.276.26-40.02.012-58.997-.508" style="stroke-width:25.9954"/>
</svg>
