<svg xmlns="http://www.w3.org/2000/svg" width="1238" height="960">
    <path d="M619.882 0 204.17 240.077v111.99h-84.466l84.466 118.12 60.515 84.685 63.692-88.964 81.51-113.842h-81.51v-40.402l291.506-168.27 291.55 168.27v106.828l61.884-86.274 62.324 87.377V240.077zm0 282.068c-107.043 0-193.72 86.72-193.72 193.764s86.677 193.764 193.72 193.764 193.764-86.72 193.764-193.764-86.72-193.764-193.764-193.764M597.3 376.017h45.166v77.232h77.277v45.166h-77.277v77.232H597.3v-77.232h-77.232v-45.166H597.3zm376.017 22.142-61.883 86.274-83.32 116.488h83.32v47.46l-291.55 168.225L328.375 648.38V532.73l-63.692 89.01-60.515-84.466v182.913L619.882 960l415.758-239.813V600.921h82.657l-82.657-115.606z" style="stroke-width:22.583"/>
</svg>
