<svg xmlns="http://www.w3.org/2000/svg" width="1214" height="960">
    <path d="M532.436 563.698c-3.334 3.75-4.168 60.008-3.751 200.86L529.935 960h154.187l1.25-195.442c.417-140.852-.416-197.11-3.75-200.86-3.75-4.584-20.836-5.834-74.593-5.834s-70.843 1.25-74.593 5.834m49.59-101.68c-12.502 1.25-27.088 4.584-32.088 7.5-5 2.918-12.919 5.001-17.502 5.001-18.753 0-28.754 37.505-13.752 51.257 6.667 6.251 19.169 7.084 89.178 7.084 73.343 0 81.678-.833 87.928-7.5 7.085-7.918 8.752-20.837 4.584-36.672-4.584-17.502-69.592-32.088-118.349-26.67M413.67 47.797c-1.25 3.75-2.5 97.096-2.5 207.944v201.693l9.167 5c12.085 6.668 73.76 2.5 89.179-5.834 36.255-18.752 48.756-21.67 99.596-21.67s54.174.834 100.013 20.837c35.422 15.835 87.929 20.42 97.513 8.751 3.334-3.75 4.167-62.925 3.75-211.278l-1.25-205.86h-40.005c-28.753 0-43.755 2.084-54.173 7.084-48.757 23.337-94.18 31.671-135.435 24.587-27.087-5-54.59-13.335-68.342-21.67-20.836-12.085-37.088-16.252-64.592-16.252-23.753 0-30.837 1.25-32.921 6.668M847.477 2.374c-1.667 1.25-2.917 42.922-2.917 92.512l.417 90.012 17.502 8.751 17.502 9.168v86.262l-16.669 8.75-16.668 8.335V497.44l119.182 1.25c97.096.833 120.016 0 124.183-4.585 3.334-4.584 4.167-71.259 3.75-249.2l-1.25-243.364L971.243.29c-66.675-.417-122.1.416-123.766 2.083M546.187 5.29c-1.25 2.917-1.667 13.752-.833 23.753l1.25 17.92 30.42 5.417c25.004 4.584 35.839 4.584 60.425.416l30.004-5.417V1.54L607.863.29c-47.924-.833-59.592 0-61.676 5.001m-424.639-.833c-1.25 2.917-1.667 115.015-1.25 249.199l1.25 243.782h245.866l1.25-92.512.833-92.095-18.752-9.168-18.753-9.168v-40.839c0-41.672 4.168-54.174 18.336-54.174 2.917 0 8.335-3.333 12.502-7.917 5.834-6.668 6.667-18.336 5.834-98.763l-1.25-91.262-122.1-1.25c-95.429-.834-122.516 0-123.766 4.167" style="stroke-width:.416721"/>
</svg>
