<svg xmlns="http://www.w3.org/2000/svg" width="1078" height="960">
    <path d="M482.452 25.954c-25.28 13.971-53.222 29.938-61.206 34.595-7.318 4.657-29.937 17.297-49.895 27.941-48.565 26.611-65.197 35.925-88.482 50.561-18.627 11.975-59.875 34.594-104.448 57.879-10.644 5.322-18.628 12.64-18.628 15.967s-3.991 5.987-9.313 5.987-14.636 4.657-19.959 10.644c-9.314 8.649-10.644 40.582-10.644 248.813s1.33 240.164 10.644 248.813c5.323 5.987 14.636 10.644 19.959 10.644 5.322 0 9.313 2.661 9.313 5.988 0 3.326 7.984 10.644 18.628 15.966 45.239 23.285 85.82 45.904 104.448 57.88 11.31 6.652 33.264 19.292 49.896 27.94 16.632 7.984 41.912 22.62 56.548 31.934 44.574 27.276 47.235 29.272 99.126 55.883L539 960l50.56-26.611c51.892-26.611 54.553-28.607 99.127-55.883 14.636-9.314 39.916-23.95 56.548-31.933 16.632-8.649 39.251-21.289 49.896-27.942 11.31-7.318 33.263-19.958 49.895-28.607 16.632-8.648 40.582-22.619 53.222-29.937 12.64-7.983 29.938-17.297 37.256-20.623 7.983-3.327 15.966-11.31 18.627-17.298 5.323-14.636 5.323-471.014 0-485.65-2.66-5.988-10.644-13.97-18.627-17.297-7.318-3.327-24.616-12.64-37.256-20.624-12.64-7.318-36.59-21.289-53.222-29.937s-38.586-21.289-49.895-28.607c-23.285-14.636-41.247-25.28-86.486-49.23-17.962-9.98-41.912-23.285-53.222-30.603C620.163 37.264 544.987-.657 537.004.008c-4.657 0-28.607 11.976-54.552 25.946m135.716 123.741c47.234 13.971 109.77 45.24 142.368 71.185 29.273 22.62 68.524 75.176 86.486 114.427 6.653 14.636 16.632 35.26 21.954 45.239 13.306 27.276 12.64 175.632-.665 193.595-5.322 7.318-9.98 17.297-9.98 21.954 0 17.962-62.535 109.77-90.477 133.72-38.585 31.933-108.44 69.189-125.736 66.527-11.31-1.995-13.306-7.318-15.302-46.569L624.82 705.2l31.934-25.28c75.84-59.875 84.49-71.185 109.105-141.039 15.966-45.238 15.966-75.841 0-121.08-18.628-51.891-30.603-73.18-55.218-95.8-63.201-58.544-94.47-71.85-171.641-71.85s-108.44 13.306-171.64 71.85c-24.616 22.62-36.591 43.909-55.219 95.8-15.966 45.239-15.966 75.842 0 121.08 24.615 69.854 33.264 81.164 109.105 141.038l31.934 25.28-1.996 44.574c-1.996 39.251-3.992 44.574-15.302 46.57-17.297 2.66-87.15-34.595-125.737-66.528-27.941-23.95-90.477-115.758-90.477-133.72 0-4.657-4.657-14.636-9.979-21.954-7.318-9.314-9.314-33.264-9.314-95.8s1.996-86.486 9.314-95.8c5.322-7.317 9.98-17.297 9.98-21.953 0-17.298 61.87-109.105 90.476-133.72 85.156-72.516 213.554-104.449 308.023-77.173m-69.189 187.608c3.992 2.661 16.632 19.293 29.272 37.92 12.64 17.963 27.276 37.921 31.933 43.243 5.323 5.323 22.62 28.607 39.252 51.892 33.263 46.57 33.263 46.57-27.277 49.23l-39.916 1.996-1.996 147.691-1.33 148.356h-79.834l-1.33-148.356-1.996-147.691-39.916-1.996c-60.54-2.66-60.54-2.66-27.277-49.23 16.632-23.285 33.93-46.57 39.252-51.892 4.656-5.322 19.293-25.28 31.933-43.242C521.038 343.29 531.682 331.98 539 331.98c1.996 0 6.653 2.66 9.98 5.322m104.448 42.578c-5.987 5.987-7.983.665-7.318-21.955l.665-29.272 7.318 21.954c4.657 15.967 4.657 23.95-.665 29.273" style="stroke-width:.665275"/>
</svg>
