<svg xmlns="http://www.w3.org/2000/svg" width="1320" height="960">
    <path d="m130.683 32.598 344.51 18.73 57.258-20.639-4.86 26.279L772.857 60.8S904.839-.461 906.158.019c-1.319-.48 15.056 8.33 15.056 8.33l-97.219 49.99s353.239-7.61 375.371 43.768-214.25 318.375-214.25 318.375l117.94-47.028-.834 14.535-141.194 60.3L804.31 640.958l20.752 25.342-43.485 10.402L568.157 960c-62.325-30.49-134.38-82.92-145.493-137.208 32.57-52.754 75.94-107.404 122.47-119.163l-174.92-59.06-40.991 18.02 7.296-48.334-89.036-183.522-40.858-23.46 40.731-28.112 60.008-159.363c-59.827 31.53-113.127 18.517-172.126 4.712-23.322-46.706-18-124.74-4.556-191.912zM481.1 294.15s185.528-12.22 167.028-90.372C629.618 125.622 481.1 294.15 481.1 294.15m104.326 231.537s132.829-130.107 178.725-64.193c45.896 65.915-178.725 64.193-178.725 64.193m199.262-231.435c45.745 88.254 385.711-134.619 370.493-174.006-15.213-39.397-416.226 85.755-370.493 174.006M277.152 116.88c5.275-2.25 13.065 4.12 17.404 14.227 4.323 10.114 3.568 20.159-1.707 22.41-5.27 2.264-13.07-4.11-17.393-14.224-4.339-10.106-3.572-20.147 1.696-22.412zm300.77 645.826c5.269-2.265 13.069 4.11 17.393 14.223 4.338 10.106 3.572 20.147-1.693 22.402-5.28 2.26-13.069-4.11-17.403-14.227-4.328-10.103-3.572-20.148 1.703-22.398z" style="stroke-width:11.698"/>
</svg>
