<svg xmlns="http://www.w3.org/2000/svg" width="986" height="960">
    <path d="M279.3 0a62.8 62.8 0 0 0-43.327 17.382l-98.057 93.902c-11.417 11.157-17.889 26.234-17.889 42.06v233.767c73.687-63.827 73.936-105.334 73.936-162.415s62.534-69.274 62.534-69.274h468.547s45.963-7.775 45.963-76.013S721.699 0 721.699 0zm68.26 209.392s-97.043.004-97.043 146.858h-.253s-118.328 83.795-118.328 268.53h734.037c-.26-196.93-118.581-268.53-118.581-268.53h.507c0-146.854-97.044-146.858-97.044-146.858zm-16.62 143.716h67.195v67.196H330.94zm134.138 0h67.196v67.196h-67.196zm134.392 0h67.196v67.196H599.47zM330.94 487.247h67.195v67.196H330.94zm134.138 0h67.196v67.196h-67.196zm134.392 0h67.196v67.196H599.47zM131.936 718.429C160.996 870.472 275.146 960 275.146 960h447.567s114.2-89.528 143.26-241.571z" style="stroke-width:25.9459"/>
</svg>
