<svg xmlns="http://www.w3.org/2000/svg" width="1370" height="960">
    <path d="M250.504 0s44.62 17.494 44.62 74.343V697.61c0 41.418 215.236 256.816 389.958 256.816s389.956-215.398 389.956-256.816V74.343c0-56.849 44.62-74.343 44.62-74.343zm111.91 69.772h645.334v617.745c0 50.955-215.118 216.095-322.666 216.095s-322.668-165.14-322.668-216.095zm26.754 30.745v471.216l295.914-296.54 295.912 296.54V100.516zM194.09 182.236c-2.334.002-4.67.116-7.001.351-23.111 2.32-60.608 29.307-67.314 65.969 16.985-26.986 52.393-44.412 69.61-44.946 13.342-.418 27.73 3.898 35.967 13.782-58.356 9.003-57.661 48.056-47.591 56.34 2.692 2.204 13.76 9.953 19.074 1.832 6.705-10.233-12.694-11.417-7.24-24.527 5.15-12.367 24.41-24.641 39.492-25.453 3.016 7.61 4.733 17.705 4.733 30.954l1.903 280.435c.534 26.359-7.588 40.769-22.391 45.92 21.857 3.55 52.742-8.932 52.742-31.069l-1.208-312.04c-1.457-31.977-35.769-57.571-70.776-57.548m981.842 0c-35.008-.023-69.319 25.571-70.798 57.548l-1.208 312.04c0 22.137 30.883 34.619 52.764 31.069-14.827-5.151-22.947-19.561-22.413-45.92l1.901-280.435c0-13.25 1.719-23.343 4.735-30.954 15.106.812 34.342 13.086 39.493 25.453 5.453 13.11-13.946 14.294-7.24 24.527 5.336 8.121 16.382.372 19.073-1.833 10.07-8.283 10.79-47.336-47.567-56.339 8.214-9.884 22.599-14.2 35.941-13.782 17.217.534 52.65 17.96 69.612 44.946-6.706-36.662-44.202-63.648-67.29-65.969-2.33-.235-4.67-.35-7.003-.351m-490.85 363.786S473.281 760.911 476.019 758.173c-2.738 2.738 138.942 105.041 209.063 104.971 70.12.07 211.801-102.233 209.063-104.971 2.738 2.738-209.063-212.15-209.063-212.15M389.168 847.736C430.84 917.184 586.444 1020 685.082 1020S939.32 917.184 980.994 847.736c-93.974 77.825-215.907 144.395-295.912 144.395s-201.94-66.57-295.914-144.395" style="stroke-width:1.10396"/>
</svg>
