<svg xmlns="http://www.w3.org/2000/svg" width="1050" height="960">
    <path d="M421.523 918.21c-2.133 4.975-2.843 23.455-1.422 40.515L422.234 990h206.132v-78.188l-101.645-2.133c-81.742-1.421-101.644 0-105.198 8.53m36.25-402.314c-15.637 1.421-30.564 6.397-33.407 10.662-2.843 4.975-5.686 86.007-5.686 179.832 0 149.98 1.421 172.725 11.372 176.279 14.216 5.686 176.28 5.686 190.495 0 9.951-3.554 11.373-26.3 11.373-176.279 0-93.825-2.843-175.568-5.686-179.832-5.687-9.24-108.753-15.638-168.46-10.662M481.23 324.69c-26.3 21.324-64.683 104.488-61.129 134.341l2.133 19.192h206.132l-1.422-30.564c-.71-17.06-4.264-34.83-7.818-39.094-3.554-4.976-8.53-17.06-11.373-27.722-2.133-10.662-16.349-30.564-30.565-44.78-29.853-29.143-66.815-33.408-95.958-11.373M142.178 208.119c-12.084 14.216-22.035 31.986-22.035 40.515 0 16.349 22.035 56.864 46.202 83.875 9.24 9.95 31.275 39.805 49.756 66.815l33.408 49.756 3.554 106.62c3.554 112.307-.71 131.499-23.457 121.547-7.818-3.554-18.48-4.975-24.167-4.264-12.794 2.132-49.756 41.226-49.756 52.599 0 10.662 163.484 178.411 179.122 184.097 7.819 3.554 12.084 0 14.216-10.662 2.133-8.53 2.843-113.017 1.422-232.432-1.422-247.359 1.421-233.143-67.526-332.655-23.457-34.118-53.31-78.188-66.816-97.38-44.78-63.972-42.648-63.26-73.923-28.432m688.766 15.637c-64.682 86.718-104.487 147.136-117.993 178.411-9.95 22.035-11.372 58.997-11.372 250.202 0 267.973-1.422 242.384 14.216 236.697 16.348-5.686 179.122-173.435 179.122-184.097 0-12.084-36.251-51.178-49.757-53.31-5.686-.711-16.348.71-24.167 4.264-23.456 9.952-27.01-9.24-22.745-122.257l4.264-107.331 44.78-66.105c24.168-36.25 52.6-75.345 63.973-87.429 25.589-28.432 24.878-54.02-2.843-86.007-12.084-13.505-24.167-24.878-27.01-24.878s-25.59 27.722-50.468 61.84M446.401 39.66c-36.962 37.672-69.659 74.634-72.502 81.03-5.686 16.35 49.756 71.792 67.526 67.527 15.638-4.265 27.01 14.216 27.01 42.648v19.903H525.3c56.864 0 61.129-2.133 57.575-26.3 0-2.843 2.132-12.794 6.397-22.746 4.265-12.083 9.951-16.348 19.902-14.216 17.77 4.976 73.213-50.467 67.527-66.815C669.593 102.92 535.25-30 523.878-30c-4.975.71-39.805 31.986-77.477 69.659" style="stroke-width:.710801"/>
</svg>
