<svg xmlns="http://www.w3.org/2000/svg" width="1320" height="960">
    <path d="M439.19 14.79c-2.623 9.62-6.121 64.712-7.433 130.737-2.186 105.813-1.749 115.87 6.559 146.477 12.243 43.288 26.235 78.267 41.538 102.753 12.243 19.676 45.474 62.09 56.842 72.583 10.932 10.057 12.243 13.992 10.932 32.794l-1.312 21.425-31.045 2.623c-17.49 1.75-38.04 4.81-45.91 7.434-8.308 2.623-25.798 5.684-39.353 7.433-24.049 2.623-24.049 2.623-31.044-11.806-15.304-31.482-20.551-63.4-23.175-136.858-3.498-102.753-11.805-208.567-16.178-204.195-1.749 1.75-5.247 86.138-6.996 186.705l-3.06 183.644-20.988 10.056c-11.806 5.247-22.737 8.745-25.36 7.434-2.187-1.75-3.936-32.794-4.373-69.086 0-36.728-1.312-74.331-3.498-83.95l-3.06-17.49-3.061 21.424c-1.75 11.806-3.061 46.349-3.061 76.956 0 77.83-.875 80.453-27.984 94.008C172.907 637.867 120.437 699.518 120 757.235c0 20.113 7.87 50.283 16.178 59.903 3.06 3.498 5.684 8.745 5.684 11.368 0 13.992 90.948 86.138 135.547 107.126 56.842 27.11 81.328 36.291 126.802 46.785 8.307 2.186 24.048 5.684 34.98 8.308 139.481 34.105 295.578 34.105 445.991.437 10.931-2.623 27.547-6.121 37.166-8.307 28.858-5.685 73.458-22.3 113.684-42.414 41.102-19.676 68.21-37.603 90.51-57.716 27.547-25.798 51.596-51.158 51.596-54.656 0-2.186 2.623-7.433 5.684-10.931 8.308-9.62 16.178-39.79 16.178-59.903 0-40.227-28.421-86.575-74.77-122.43-26.671-20.112-96.63-58.153-108-58.59-3.497 0-11.368-2.624-17.49-6.122-38.04-19.238-158.283-43.724-241.36-48.534-55.093-3.498-94.882-11.806-105.376-22.737-6.996-6.559-8.308-18.802-10.494-80.016-1.312-39.79-3.935-88.761-5.247-109.312-3.06-36.729-3.06-36.729-6.121-15.304-1.75 11.806-3.498 59.903-3.498 105.814-.438 95.757 0 94.446-33.231 69.96l-19.239-13.992-.437-54.656c0-84.389-5.247-193.7-8.745-187.142-3.06 4.81-11.368 115.434-14.43 184.519-.436 11.805-3.06 22.3-5.683 23.174-5.685 1.749-39.353-43.288-47.66-64.276-1.75-3.498-4.81-10.056-6.996-13.992-21.863-41.1-33.668-118.056-36.292-236.113-2.186-99.692-6.121-124.178-15.74-92.696m109.312 605.15c0 28.858-1.749 52.906-3.935 54.655-14.43 8.745-109.75-66.898-109.75-87.012q0-6.558 20.989-9.182c11.368-1.312 34.542-4.81 51.158-7.87 17.052-3.061 33.23-4.81 36.291-3.936 3.935 1.312 5.247 16.178 5.247 53.345m74.77 8.744c-1.75 74.332-4.373 80.454-28.422 68.648l-15.303-6.996-1.312-58.154c-.875-31.919-.437-60.777.437-63.838.875-3.935 8.308-5.247 24.049-4.372l22.3 1.312zm189.764-58.59c48.972 6.995 84.826 14.866 120.68 25.797 11.369 3.498 23.612 6.559 27.547 6.559 6.122 0 13.992 3.06 55.093 20.55 29.733 13.118 50.721 24.923 77.393 43.725 30.607 21.425 40.227 33.668 29.296 38.04-3.936 1.312-110.624 2.624-237.426 2.624H654.753l-2.624-29.733c-1.748-16.178-3.06-48.534-3.06-72.146v-42.413h58.154c31.481 0 79.579 3.061 105.813 6.996M413.83 605.51c35.854 40.227 69.522 70.397 98.818 87.887l31.481 18.802v24.923c0 30.17-7.87 80.453-13.117 85.7-2.623 2.624-7.433 1.312-12.243-3.06-4.372-3.936-10.056-7.434-12.243-7.434-6.558 0-57.716-52.907-72.145-74.332-20.551-30.17-38.915-73.457-48.098-112.372-4.372-18.365-4.372-24.049 0-29.296 8.308-10.057 11.806-8.745 27.547 9.182m-66.899 85.263c-.437 111.061 3.935 142.106 29.733 198.948 5.684 12.243 10.057 24.048 10.057 25.36 0 7.87-60.34-7.87-69.523-17.927-2.186-2.186-6.558-63.4-9.62-135.984-5.683-141.23-5.683-142.98 14.867-146.915 26.672-5.247 24.923-10.494 24.486 76.518m-67.773-31.481c-3.498 121.554-7.87 214.688-10.057 216.437-4.372 2.623-42.85-22.737-62.963-40.664-29.733-27.547-38.915-46.348-38.915-77.83 0-25.36 1.749-29.733 17.052-49.846 20.114-26.235 73.458-66.462 86.138-64.713 7.433.875 9.182 4.373 8.745 16.616m130.737 86.575c13.117 27.109 58.154 74.332 87.886 92.696 27.984 17.49 29.296 22.737 13.555 52.47-5.684 10.93-12.243 23.611-14.43 28.42-6.995 14.867-21.424 24.924-31.044 21.863-11.368-3.498-37.166-36.729-48.971-63.4-19.24-42.851-34.106-108.438-34.543-154.786 0-12.68 0-12.68 8.745-4.81 4.81 4.373 13.118 17.053 18.802 27.547m200.259-12.243c7.433 4.372 8.308 9.62 8.308 58.154 0 29.295-1.75 55.53-3.498 58.59-3.936 6.122-34.543 3.061-38.478-3.935-2.624-3.935 5.684-99.255 9.62-111.935 1.748-6.558 12.68-6.996 24.048-.874m486.656 10.93c32.793 1.313 53.781 3.936 55.53 7.434 4.81 7.87-.874 34.98-11.368 51.595-13.555 21.425-44.162 48.535-61.652 54.656-10.494 3.498-75.644 4.81-219.06 4.81l-204.632-.437-1.312-62.527-1.312-62.089 195.887 2.186c108 1.312 219.498 3.061 247.919 4.373m-498.462 139.92c18.802 7.87 20.55 20.55 6.996 52.47-8.745 20.55-9.182 20.55-25.36 17.927-8.745-1.312-21.863-2.624-28.421-2.624-18.365 0-18.802-10.056-2.624-43.724s20.55-35.855 49.41-24.05m364.664 17.927c13.117 2.624 12.243 9.62-2.186 13.117-6.996 1.312-21.862 5.247-34.105 8.308-91.822 24.486-271.093 42.85-279.838 28.858-2.187-3.935 2.623-31.919 9.182-52.032 1.311-4.81 27.984-5.684 149.538-3.06 80.89 1.311 151.725 3.497 157.41 4.809" style="stroke-width:.437247"/>
</svg>
