<svg xmlns="http://www.w3.org/2000/svg" width="1200" height="960">
    <path d="m599.493 0-212.23 212.483 53.413 53.716 158.817-158.767L758.26 266.2l53.716-53.716zm0 132.821c-11.935 42.81-26.992 180.065-34.257 272.432-.259 0-.506.304-.506.304-65.644-47.74-160.638-111.83-195.406-127.398 19.72 32.432 95.737 118.011 151.52 176.909-2.594 7.783-4.155 15.857-4.155 24.679 0 7.524 1.326 14.537 3.142 21.283-58.378 56.563-137.801 139.079-158.818 170.473 35.287-14.01 132.856-74.246 200.575-119.392 1.038.52 2.357 1.306 3.395 1.825 7.005 92.108 22.03 229.621 33.446 272.432 11.676-42.81 26.992-180.577 34.257-272.686h.253c65.643 47.741 160.891 112.085 195.659 127.652-19.978-32.432-96.288-118.822-152.331-177.72 2.335-7.523 3.902-15.565 3.902-23.867 0-7.265-1.281-14.031-2.838-20.777 58.897-56.303 138.555-139.067 159.831-170.98C801.616 302 703.8 362.445 636.081 407.33c-1.038-.519-1.85-1.001-2.888-1.52-7.006-92.108-22.024-230.18-33.7-272.99M298.226 301.216 120.506 479.24l175.136 175.388 53.716-53.716L227.686 479.24l124.257-124.308zm606.132 3.395-53.716 53.717L972.314 480 848.057 604.257l53.717 53.463L1079.494 480zm-463.682 389.19-53.413 53.716L599.493 960l212.483-212.483L758.26 693.8 599.493 852.568z" style="stroke-width:25.946"/>
</svg>
