<svg xmlns="http://www.w3.org/2000/svg" width="1200" height="960">
    <path d="M599.523 0A480 480.117 0 0 0 120 480.117a480 480.117 0 0 0 430 477.506v-78.596l-8.28 17.131-5.41-31.183A390 390.095 0 0 0 550 866.99v-45.43a345 345.084 0 0 1-295-341.442 345 345.084 0 0 1 345-345.084 345 345.084 0 0 1 345 345.084 345 345.084 0 0 1-275 337.904v45.854a390 390.095 0 0 0 7.398-1.422l-4.293 31.356-3.105-5.881v67.17a480 480.117 0 0 0 410-474.98A480 480.117 0 0 0 600 0a480 480.117 0 0 0-.477 0m-7.029 60.078 10.223 29.953a390 390.095 0 0 0-2.717-.01 390 390.095 0 0 0-16.648.356zm21.988.184 8.64 30.447a390 390.095 0 0 0-19.356-.668zm-43.955.787 11.776 29.375a390 390.095 0 0 0-19.323 1.36zm65.905.547 7.035 30.86a390 390.095 0 0 0-19.297-1.685zm-87.791 1.57 13.295 28.719a390 390.095 0 0 0-19.223 2.369zm109.638.91 5.41 31.184a390 390.095 0 0 0-19.181-2.688zm-131.384 2.35 14.779 27.984a390 390.095 0 0 0-19.072 3.371zm153.074 1.271 3.771 31.424a390 390.095 0 0 0-19.015-3.69zm-174.62 3.123 16.223 27.17a390 390.095 0 0 0-18.869 4.367zm196.089 1.63 2.123 31.575a390 390.095 0 0 0-18.795-4.677zm-217.375 3.884 17.623 26.287a390 390.095 0 0 0-18.616 5.348zm238.566 1.984.467 31.647a390 390.095 0 0 0-18.524-5.658zm-259.533 4.639 18.974 25.326a390 390.095 0 0 0-18.312 6.317zm280.388 2.332-1.19 31.627a390 390.095 0 0 0-18.202-6.62zm-300.982 5.379 20.271 24.299a390 390.095 0 0 0-17.953 7.265zm321.445 2.674-2.843 31.52a390 390.095 0 0 0-17.833-7.561zM422.34 99.447l21.517 23.203a390 390.095 0 0 0-17.55 8.198zm361.619 3.006-4.488 31.328a390 390.095 0 0 0-17.412-8.484zm-381.293 6.817 22.701 22.044a390 390.095 0 0 0-17.097 9.106zm400.8 3.33-6.12 31.05a390 390.095 0 0 0-16.942-9.384zm-419.933 7.507 23.824 20.83a390 390.095 0 0 0-16.597 9.983zm438.885 3.647-7.736 30.687a390 390.095 0 0 0-16.43-10.257zm-457.426 8.178 24.883 19.554a390 390.095 0 0 0-16.055 10.838zm475.768 3.955-9.332 30.242a390 390.095 0 0 0-15.871-11.106zm-493.664 8.826 25.87 18.22a390 390.095 0 0 0-15.462 11.669zm511.345 4.25-10.902 29.71a390 390.095 0 0 0-15.268-11.921zm-528.546 9.45 26.787 16.843a390 390.095 0 0 0-14.832 12.457zm545.52 4.532-12.442 29.1a390 390.095 0 0 0-14.623-12.705zm-561.983 10.047 27.632 15.418a390 390.095 0 0 0-14.16 13.217zm578.199 4.805-13.945 28.41a390 390.095 0 0 0-13.94-13.453zm-593.877 10.619 28.402 13.947a390 390.095 0 0 0-13.449 13.944zm609.297 5.063-15.414 27.64a390 390.095 0 0 0-13.215-14.164zm-624.145 11.158 29.092 12.443a390 390.095 0 0 0-12.701 14.627zm638.72 5.308-16.839 26.795a390 390.095 0 0 0-12.455-14.836zm-652.7 11.668 29.705 10.905a390 390.095 0 0 0-11.92 15.271zm666.396 5.537-18.217 25.88a390 390.095 0 0 0-11.664-15.468zM255.854 239.3l30.234 9.334a390 390.095 0 0 0-11.102 15.875zm692.246 5.754-19.55 24.888a390 390.095 0 0 0-10.835-16.058zm-704.375 12.592 30.68 7.738a390 390.095 0 0 0-10.257 16.433zm716.197 5.953-20.824 23.83a390 390.095 0 0 0-9.98-16.602zm-727.35 13.004 31.043 6.12a390 390.095 0 0 0-9.383 16.946zm738.186 6.132-22.041 22.707a390 390.095 0 0 0-9.102-17.101zm-748.33 13.38 31.32 4.49a390 390.095 0 0 0-8.482 17.416zm758.148 6.3-23.197 21.522a390 390.095 0 0 0-8.195-17.555zM213.318 316.13l31.512 2.846a390 390.095 0 0 0-7.559 17.836zm776.036 6.451-24.295 20.28a390 390.095 0 0 0-7.262-17.96zm-784.086 14.018 31.619 1.19a390 390.095 0 0 0-6.617 18.206zm791.795 6.582-25.32 18.978a390 390.095 0 0 0-6.315-18.316zm-767.125 13.812a390 390.095 0 0 0-5.657 18.528L198.3 357.459zm742.119 6.166 31.627.992-26.28 17.63a390 390.095 0 0 0-5.347-18.622M224 376.531a390 390.095 0 0 0-4.676 18.8l-26.892-16.677zm753.668 6.266 31.53 2.646-27.165 16.227a390 390.095 0 0 0-4.365-18.873m-758.57 13.558a390 390.095 0 0 0-3.69 19.022l-27.726-15.248zm763.144 6.344 31.348 4.295-27.977 14.783a390 390.095 0 0 0-3.37-19.078m-767.006 13.713a390 390.095 0 0 0-2.687 19.186l-28.488-13.774zm770.534 6.404 31.08 5.93-28.713 13.297a390 390.095 0 0 0-2.367-19.227m-773.34 13.825a390 390.095 0 0 0-1.68 19.3l-29.17-12.265zm775.808 6.447 30.729 7.549-29.37 11.779a390 390.095 0 0 0-1.359-19.328m-777.55 13.902a390 390.095 0 0 0-.668 19.36l-29.772-10.72zm778.957 6.475 30.29 9.144-29.945 10.225a390 390.095 0 0 0 .01-2.717 390 390.095 0 0 0-.355-16.652M210.01 477.4a390 390.095 0 0 0-.01 2.717 390 390.095 0 0 0 .355 16.653l-30.29-9.145zm779.97 6.483 29.772 10.72-30.44 8.641a390 390.095 0 0 0 .668-19.361m-779.578 13.935a390 390.095 0 0 0 1.36 19.328l-30.729-7.548zm778.848 6.475 29.17 12.266-30.852 7.035a390 390.095 0 0 0 1.682-19.301m-777.387 13.898a390 390.095 0 0 0 2.367 19.227l-31.08-5.93zm775.588 6.446 28.488 13.773-31.175 5.412a390 390.095 0 0 0 2.687-19.185m-773.064 13.82a390 390.095 0 0 0 3.37 19.078l-31.347-4.295zm770.205 6.4 27.726 15.248-31.416 3.772a390 390.095 0 0 0 3.69-19.02m-766.625 13.707a390 390.095 0 0 0 4.365 18.874l-31.53-2.647zm762.709 6.34 26.892 16.676L976 583.703a390 390.095 0 0 0 4.676-18.799m-758.08 13.551a390 390.095 0 0 0 5.347 18.621l-31.627-.994zm753.123 6.26 25.982 18.06-31.639.467a390 390.095 0 0 0 5.657-18.527m-747.461 13.361a390 390.095 0 0 0 6.314 18.317l-31.635.662zm741.472 6.162 25.002 19.399-31.619-1.188a390 390.095 0 0 0 6.617-18.21m-734.79 13.139a390 390.095 0 0 0 7.263 17.957l-31.557 2.32zm727.789 6.049 23.953 20.678-31.512-2.844a390 390.095 0 0 0 7.559-17.834m-720.108 12.87a390 390.095 0 0 0 8.195 17.558l-31.392 3.966zm712.113 5.919 22.838 21.906-31.32-4.49a390 390.095 0 0 0 8.482-17.416m-703.45 12.578a390 390.095 0 0 0 9.1 17.102l-31.142 5.605zm694.484 5.773 21.66 23.067-31.043-6.121a390 390.095 0 0 0 9.383-16.946m-684.866 12.24a390 390.095 0 0 0 9.98 16.602l-30.804 7.229zm674.95 5.612 20.423 24.172-30.68-7.738a390 390.095 0 0 0 10.257-16.434m-664.403 11.875a390 390.095 0 0 0 10.836 16.059l-30.385 8.83zm653.565 5.434 19.132 25.209-30.234-9.334a390 390.095 0 0 0 11.102-15.875m-642.12 11.478a390 390.095 0 0 0 11.665 15.467l-29.881 10.412zm630.395 5.24 17.785 26.176-29.705-10.904a390 390.095 0 0 0 11.92-15.272m-618.076 11.05a390 390.095 0 0 0 12.455 14.835l-29.295 11.96zm605.49 5.032 16.39 27.07-29.091-12.443a390 390.095 0 0 0 12.701-14.627m-592.34 10.588a390 390.095 0 0 0 13.215 14.164l-28.629 13.477zm578.93 4.813 14.953 27.89-28.402-13.947a390 390.095 0 0 0 13.449-13.943m-564.979 10.1a390 390.095 0 0 0 13.94 13.452l-27.885 14.957zm550.782 4.58 13.472 28.634-27.632-15.418a390 390.095 0 0 0 14.16-13.217m-536.069 9.581a390 390.095 0 0 0 14.623 12.706l-27.064 16.394zm521.123 4.33 11.955 29.303-26.787-16.843a390 390.095 0 0 0 14.832-12.46m-505.69 9.042a390 390.095 0 0 0 15.269 11.921l-26.17 17.79zm490.036 4.072 10.408 29.888-25.87-18.22a390 390.095 0 0 0 15.462-11.668m-473.924 8.472a390 390.095 0 0 0 15.871 11.106l-25.203 19.137zm457.608 3.805 8.828 30.39-24.883-19.552a390 390.095 0 0 0 16.055-10.838m-440.862 7.883a390 390.095 0 0 0 16.43 10.258l-24.166 20.428zm423.922 3.521 7.227 30.813-23.824-20.83a390 390.095 0 0 0 16.597-9.983m-406.586 7.27a390 390.095 0 0 0 16.942 9.385l-23.063 21.666zm389.076 3.23 5.604 31.15-22.701-22.044a390 390.095 0 0 0 17.097-9.106m-131.73.127a345 345.084 0 0 1-.102.018 345 345.084 0 0 1-1.437.25 345 345.084 0 0 1-.047.01 345 345.084 0 0 1-1.492.254 345 345.084 0 0 1-.121.02 345 345.084 0 0 1-1.42.234 345 345.084 0 0 1-.996.16 345 345.084 0 0 1-.01.002 345 345.084 0 0 1-1.074.17 345 345.084 0 0 1-1.006.156 345 345.084 0 0 1-.996.15 345 345.084 0 0 1-.549.082 345 345.084 0 0 1-.062.01 345 345.084 0 0 1-4.577.648 345 345.084 0 0 1-.998.133 345 345.084 0 0 1-.55.073 345 345.084 0 0 1-.346.044 345 345.084 0 0 1-2.217.28v135.758a480 480.117 0 0 0 .318-.028 480 480.117 0 0 0 .028-.002 480 480.117 0 0 0 1.806-.164 480 480.117 0 0 0 .028-.002 480 480.117 0 0 0 1.806-.172 480 480.117 0 0 0 .028-.002 480 480.117 0 0 0 1.806-.177 480 480.117 0 0 0 .028-.002 480 480.117 0 0 0 .693-.07 480 480.117 0 0 0 4.803-.514 480 480.117 0 0 0 1.802-.203 480 480.117 0 0 0 .028-.004 480 480.117 0 0 0 1.803-.213 480 480.117 0 0 0 .027-.004 480 480.117 0 0 0 1.803-.217 480 480.117 0 0 0 .025-.006 480 480.117 0 0 0 1.084-.136 480 480.117 0 0 0 .084-.012zm-100 2.93v135.693a480 480.117 0 0 0 .625.051 480 480.117 0 0 0 .38.031 480 480.117 0 0 0 1.63.131 480 480.117 0 0 0 .26.02 480 480.117 0 0 0 1.138.088 480 480.117 0 0 0 1.018.074 480 480.117 0 0 0 .935.068 480 480.117 0 0 0 .805.057 480 480.117 0 0 0 1.113.076 480 480.117 0 0 0 .928.06 480 480.117 0 0 0 .543.036 480 480.117 0 0 0 1.406.088 480 480.117 0 0 0 .48.029 480 480.117 0 0 0 1.268.074 480 480.117 0 0 0 .678.04 480 480.117 0 0 0 1.496.08 480 480.117 0 0 0 1.818.091 480 480.117 0 0 0 .063.004 480 480.117 0 0 0 1.291.063 480 480.117 0 0 0 .125.005V824.496a345 345.084 0 0 1-.797-.05 345 345.084 0 0 1-14.004-1.216 345 345.084 0 0 1-3.199-.359m-139.47 3.582a390 390.095 0 0 0 17.411 8.485l-21.9 22.843zm353.163 2.934 3.967 31.4-21.517-23.203a390 390.095 0 0 0 17.55-8.197m-334.797 5.986a390 390.095 0 0 0 17.83 7.56l-20.673 23.96zm316.284 2.629 2.318 31.564-20.273-24.3a390 390.095 0 0 0 17.955-7.264m-297.477 5.316a390 390.095 0 0 0 18.205 6.62l-19.392 25.007zm278.54 2.317.661 31.642-18.974-25.328a390 390.095 0 0 0 18.312-6.314m-259.339 4.635a390 390.095 0 0 0 18.524 5.658l-18.057 25.988zm240.026 1.994-.992 31.634-17.624-26.285a390 390.095 0 0 0 18.616-5.35m-220.49 3.945a390 390.095 0 0 0 18.794 4.678l-16.672 26.898zm200.857 1.668-2.647 31.537-16.222-27.17a390 390.095 0 0 0 18.869-4.367m-181.037 3.236a390 390.095 0 0 0 19.015 3.69l-15.244 27.732z"/>
</svg>
