<svg xmlns="http://www.w3.org/2000/svg" width="1286" height="960">
    <path d="m350.878 0 1.778 370.863-183.336 108.53 125.27 74.193L160 640.656l122.326 70.002 30.045 17.169 21.461 12.243 29.391 16.841 18.211 10.363 29.514 16.841 17.577 10.056 28.676 16.433 188.466 107.672 186.484-109.143 28.471-16.638 17.373-10.158 29.187-17.046 18.007-10.587 28.982-16.944 21.236-12.447 29.616-17.27 116.276-68.021-122.449-86.027 127.048-74.602-179.882-108.53L944.217 0h-40.285l1.779 482.52s-38.716 110.104-260.044 110.104-253.135-106.956-253.135-106.956L390.754 0zm208.558 105.056L446.205 227.402v86.13l190.571-208.476zm98.27 0 190.551 208.476v-86.13l-113.21-122.346zm-10.465 44.597-62.38 68.96H709.6zm-87.805 101.908L446.205 373.908v86.13L636.776 251.56zm98.27 0 190.551 208.476v-86.129l-113.21-122.347zm301.697 325.57 84.76 59.64-74.826 43.74c-31.185-25.534-52.419-48.453-55.349-64.464l-25.426 14.982-1.9 1.042c8.58 20.092 28.585 42.473 54.224 65.077l-21.359 12.468c-28.673-25.325-47.507-48.88-49.81-67.612l-25.63 15.064-2.31 1.471c7.43 21.453 25.632 44.47 50.015 67.387l-18.824 11.098c-28.988-25.847-47.717-49.28-49.81-67.489l-25.65 15.064-2.412 1.471c7.43 21.034 25.444 43.946 49.932 67.387l-18.314 10.465C797.937 737.55 779.61 714 777.62 696.106l-25.528 14.961-2.412 1.37c7.326 20.615 25.223 43.527 49.606 67.386L645.36 869.938l-155.09-88.745c25.324-24.488 43.749-48.047 51.179-69.186l-2.514-1.45-25.426-15.064c-1.675 18.313-20.734 42.588-50.872 69.9l-18.211-10.464c25.533-24.174 44.38-47.93 51.914-69.697l-2.514-1.471-25.528-15.166c-1.779 18.627-21.457 43.106-52.119 70.105l-19.049-10.873c25.743-23.964 44.993-47.938 52.528-70.228l-2.616-1.574-25.63-15.165c-1.675 19.464-21.867 44.26-52.528 70.84l-21.461-12.242c27.417-23.65 48.77-47.29 57.351-68.43l-2.105-1.267-25.426-15.063c-2.198 16.534-25.109 41.017-58.7 68.225l-78.179-44.68 94.285-60.907 43.125 25.528 30.352 18.006 13.592 8.053 30.556 18.11 16.228 9.626 30.556 18.109 14.757 8.686 30.454 18.089 101.193 59.967 101.295-59.538 30.454-17.905 14.756-8.686 30.556-17.884 16.331-9.525 30.454-17.884 13.919-8.175 30.127-17.68zm52.528 137.492-4.088 2.412-25.732 15.084c68.648 50.544 150.907 95.843 176.755 109.552l7.42 3.986V809.97c-49.499-26.79-106.531-61.442-154.355-95.348m-741.623 2.617c-47.091 33.068-102.456 66.673-150.593 92.73v35.687l7.44-3.986c25.324-13.5 105.362-57.558 173.382-107.16L274.6 719.65zm690.567 27.224-3.986 2.29-25.426 14.858c87.904 67.393 207.199 127.158 227.71 137.308l6.908 3.352V867.2c-62.998-31.394-143.36-77.527-205.206-122.735m-639.082 2.187c-61.218 44.58-140.023 89.695-202.078 120.67v35.054l6.908-3.455c20.302-9.941 137.401-68.647 224.99-135.203l-25.63-14.654zm591.868 25.426-3.76 2.207-25.733 15.064c96.17 75.555 235.553 147.756 275.004 167.64l7.011 3.555V925.39c-78.067-39.766-179.583-98.582-252.522-153.312m-544.163 1.9c-72.625 54.208-172.659 112.17-249.783 151.412v35.154l7.01-3.556c39.138-19.674 176.754-90.934 272.716-165.861l-25.958-14.86zm497.4 25.529-3.66 2.085-25.016 14.654c113.541 91.88 292.175 185.219 320.848 199.974l7.215 3.679v-35.38c-93.24-48.347-216.298-120.759-299.388-185.012m-449.88 1.574c-83.194 63.834-204.9 135.507-297.303 183.54V1020l7.215-3.679c28.568-14.65 205.424-107.145 319.07-198.502l-25.221-14.45z" style="stroke-width:10.4647"/>
</svg>
