<svg xmlns="http://www.w3.org/2000/svg" width="1184" height="960">
    <path d="M528.57 880.404c-4.883 3.256.543 16.277 18.99 47.202 14.648 23.873 27.67 47.745 29.84 52.628 1.628 5.426 8.68 9.766 14.649 9.766s13.021-4.34 14.649-9.766c2.17-4.883 15.191-28.755 29.84-52.085 20.075-32.553 24.958-43.947 19.532-47.202-8.68-5.968-118.82-5.968-127.5-.543m391.724-672.766c-7.596 8.139-15.192 18.99-16.82 24.958-2.17 5.425-17.904 34.18-35.266 62.936-17.361 29.298-32.01 54.798-32.01 56.968s-7.053 14.649-16.277 28.213c-8.68 13.021-16.276 26.042-16.276 28.213s-5.968 7.053-13.564 10.308c-16.277 7.596-16.82 5.426-21.16-69.447-2.713-49.915-14.106-96.032-22.787-93.861-2.17.542-9.223 16.276-15.734 35.266s-14.65 41.234-18.447 50.457c-32.553 74.33-33.096 76.5-33.096 208.883 0 103.628-1.085 124.245-8.68 135.096-7.596 10.308-8.139 16.819-3.256 42.861 3.256 17.362 7.053 42.32 8.681 55.883s5.426 31.468 8.68 39.607c4.884 12.478 7.054 14.106 13.565 8.68 4.34-3.797 8.138-8.68 8.138-11.393s7.596-15.191 16.277-27.67c9.223-11.936 16.276-24.415 16.276-27.128 0-3.255 10.851-21.702 24.415-41.776s24.415-37.98 24.415-40.692c0-2.17 10.309-20.074 23.33-40.149 12.479-20.074 28.213-46.117 33.638-58.053 5.968-11.936 12.479-22.787 15.192-23.33 2.17-1.085 3.797-4.34 3.797-7.596 0-3.255 10.852-22.244 24.415-42.319s24.415-39.064 24.415-41.776 6.51-13.564 14.107-23.873c7.595-10.308 18.989-29.298 26.042-42.861 7.053-13.564 19.532-35.809 28.213-48.83 8.68-13.564 18.447-29.84 21.702-36.351 21.702-40.15 28.213-50.458 44.49-75.415 29.297-45.032 26.042-48.287-49.373-49.373-62.936-.542-64.021-.542-77.042 13.564m-796.469-11.393c-7.595 7.053-3.255 22.244 11.394 42.861 8.138 11.394 20.617 32.011 27.67 45.575 18.447 34.18 23.33 42.862 40.15 69.447 8.138 12.478 20.074 33.638 26.584 46.117s21.16 36.35 32.554 53.17c11.393 16.819 20.617 33.096 20.617 35.808s8.68 17.362 18.989 32.011c10.308 14.649 18.99 29.298 18.99 33.096 0 3.255 1.627 7.053 4.34 8.138 2.17.543 8.68 11.394 14.649 23.33 5.425 11.936 21.16 37.979 33.638 58.053 13.021 20.074 23.33 37.979 23.33 40.149 0 2.713 10.85 20.617 24.415 40.691 13.563 20.075 24.415 38.522 24.415 41.777 0 2.713 7.053 14.649 15.734 26.585 8.68 11.936 17.361 26.585 18.989 33.096 8.68 26.585 22.245 7.596 30.383-40.692 2.713-17.361 7.596-44.489 11.394-60.766 5.968-26.585 5.968-29.84-3.798-36.893s-10.309-16.82-11.937-138.894c-1.085-73.244-3.797-133.468-7.053-136.723-2.712-2.713-4.883-8.138-4.883-12.479 0-7.053-3.255-15.734-21.702-58.053-4.34-9.224-12.479-31.468-18.447-49.372-6.51-18.447-13.563-34.181-16.819-34.724-9.223-1.628-23.872 65.107-23.872 111.224-.543 23.872-2.713 46.117-4.883 49.914-5.426 8.681-23.33-7.053-36.351-33.638-5.426-11.936-21.16-37.979-33.638-58.053-13.022-20.075-23.33-38.521-23.33-41.234s-8.681-16.82-18.99-31.468c-10.308-14.65-18.989-29.298-18.989-32.553s-5.426-10.851-11.936-16.82c-10.851-10.308-19.532-11.393-75.415-11.936-34.18-.542-64.564 1.085-66.192 3.256m431.33-123.16c-9.766 5.968-19.532 16.277-22.244 23.33-2.17 6.51-4.883 135.638-5.426 286.468-1.085 268.021-.543 274.532 10.309 288.096 9.766 13.021 10.308 17.904 5.425 59.68-2.713 24.416-8.138 55.341-11.936 68.362-10.851 37.979-5.426 41.777 60.766 40.692 40.149-.543 56.968-2.713 60.766-8.139 4.883-7.595.542-52.627-6.51-61.308-2.171-3.255-5.426-22.787-7.054-43.947-2.713-32.01-1.085-40.691 7.596-54.255 9.766-15.192 10.308-27.128 9.766-292.436-.543-219.192-2.17-278.873-8.139-287.011-20.617-29.84-61.85-38.521-93.319-19.532m83.01 92.234c0 6.51-9.223 8.681-42.86 9.766-42.32 1.628-56.969-2.713-49.373-15.191 2.17-3.798 19.532-5.426 47.745-4.34 35.265 1.084 44.489 3.255 44.489 9.765M581.199-23.489c0 3.798-3.798 14.106-8.138 22.787-11.937 22.787-7.054 30.383 18.989 30.383s30.925-7.596 18.99-30.383c-4.341-8.681-8.14-18.99-8.14-22.787 0-3.256-4.882-6.511-10.85-6.511s-10.851 3.255-10.851 6.51" style="stroke-width:.542553"/>
</svg>
