<svg xmlns="http://www.w3.org/2000/svg" width="1238" height="960">
    <path d="M569.327-60 542.36-34.677H119.913l44.291 55.954h23.688c108.565 0 217.238.37 325.75-.372 19.392 0 35.605 3.124 47.686 19.072a57 57 0 0 0 6.933 6.416l19.031 3.073a31 31 0 0 1 2.701 2.598 3.9 3.9 0 0 1 1.004 1.904c.37 322.675.686 583.516 1.004 906.032h54.309c-1.43-329.139-.683-895.435 2.39-910.006l20.18-3.756a22.5 22.5 0 0 0 3.446-2.443c28.293-26.492 18.966-22.568 57.061-22.621h344.243l44.457-55.427H695.963L668.88-60zM207.13-13.535h283.673V3.85H207.13zm539.902 0h283.787V3.85H747.032zm-259.779 71.27a365.22 365.22 0 0 1-272.6 1.687c-1.907 2.967-3.13 4.08-3.343 5.298a52.6 52.6 0 0 0-.579 8.641l.631 790.16c0 .583.642 1.219 1.066 1.749l1.376 1.262h273.45zm263.442.052c-4.504 90.073-2.393 791.739 2.111 808.694h272.662c3.71-31.791 2.54-790.104-1.645-807.535-90.71 35.005-181.748 34.623-273.128-1.16" style="stroke-width:5.29843"/>
</svg>
