<svg xmlns="http://www.w3.org/2000/svg" width="1071" height="960">
    <path d="M535.5 0 119.703 239.893v480L535.5 960l415.797-240.107v-480zm0 126.86 305.857 176.592v353.096L535.5 833.14 229.643 656.55V303.451zm0 100.707c-83.554 32.982-199.868 64.676-199.868 64.676v262.31C385.985 720.563 535.5 754.85 535.5 754.85s149.515-34.287 199.868-200.297v-262.31S618.835 260.549 535.5 227.567m0 47.498c14.292 5.277 29.244 10.795 43.976 15.632 42.217 14.292 84.21 26.822 111.916 34.957V547.94c-24.847 75.858-73.657 118.298-111.916 140.946 0 0-33.642 18.04-43.976 21.559z" style="stroke-width:21.988"/>
</svg>
