<svg xmlns="http://www.w3.org/2000/svg" width="2050" height="960">
    <path d="M707.162 616.706c-11.53 1.647-57.647 7.412-102.942 11.53-45.294 4.94-98.823 11.529-119.411 14-79.883 10.705 6.588 17.293 231.411 18.117 220.706.824 228.118 0 249.53-16.47 17.294-14 20.588-19.765 11.53-24.706-9.883-6.589-226.471-8.236-270.118-2.471m275.882-242.118c-9.059 5.765-60.941 12.353-115.294 15.647s-109.53 9.883-121.883 14.824c-13.176 4.941-51.882 9.059-86.47 9.059-34.588.823-79.882 4.117-100.47 9.059-20.589 4.94-84 11.529-140.824 15.647-57.647 3.294-112 10.705-121.06 15.647s-49.41 9.058-89.764 9.058c-85.647 0-112.823 10.706-62.588 23.883 66.706 18.117 121.882 25.53 188.588 25.53 37.06 0 78.236 4.117 90.588 8.235 12.353 4.94 65.883 10.705 117.765 13.176 52.706 2.47 124.353 9.882 160.588 16.47 35.412 6.589 93.06 11.53 127.647 12.354 34.589 0 88.942 4.94 120.236 10.705 32.117 5.765 63.412 9.06 70.823 6.589 7.412-1.647 34.589-23.883 60.942-48.589 36.235-35.411 46.117-49.411 42-63.411-2.471-9.06-4.942-19.765-4.942-23.883 0-3.294-4.117-5.764-8.235-5.764-4.941 0-18.118-9.883-29.647-22.236-23.882-25.53-60.941-51.882-73.294-51.882-4.118.823-15.647 4.941-24.706 9.882m-359.882-59.294c-103.765 3.294-189.412 7.412-191.883 9.883-7.412 7.411 111.177 14 329.412 19.764 214.118 4.941 247.882.824 214.118-24.706-18.118-14-34.589-14-351.647-4.94m602.823-.823c-11.53 22.235-10.706 25.529 6.588 25.529 14 0 81.53 70.824 98 102.941 17.294 32.941 7.412 60.941-38.706 116.118-24.705 28.823-48.588 52.706-53.529 52.706s-13.176 8.235-19.765 17.294c-15.647 25.53-.823 32.118 74.942 32.118 65.058 0 87.294-9.883 61.764-28.824-22.235-16.47-16.47-28.824 33.765-78.235 59.294-59.295 68.353-73.295 56-93.883-4.941-9.058-30.47-37.058-56.823-63.411-43.648-42.824-47.765-50.236-42.824-72.471l5.765-25.53h-58.471c-48.588 0-59.294 2.471-66.706 15.648m-181.176-67.53c-59.294 53.53-60.118 50.235 36.235 144.118l85.647 84.823-85.647 84c-46.941 46.118-85.647 86.47-85.647 88.942 0 7.411 60.118 70.823 74.941 78.235 12.353 6.588 34.588-11.53 130.118-107.882 153.176-152.353 153.176-134.236 0-287.412-63.412-63.412-116.941-115.294-119.412-115.294-1.647 0-18.118 13.176-36.235 30.47m268.47-164.706c3.294 12.353 23.883 58.47 46.942 102.941 33.764 68.353 43.647 80.706 60.117 80.706 10.706 0 19.765 3.294 19.765 6.589 0 7.411 79.882 92.235 86.47 92.235 5.765 0 37.06 32.117 37.06 37.882 0 3.294 6.588 10.706 14 16.47 8.235 5.765 12.352 13.177 9.058 16.471-3.294 2.471-37.882-26.353-77.412-65.882-38.706-38.706-76.588-70.824-84-70.824-15.647.824-59.294 36.236-59.294 48.589 0 4.94 27.177 35.411 60.941 68.353l60.942 60.117L1426.926 536c-33.764 32.941-60.94 62.588-60.94 66.706 0 14 41.176 50.235 56.823 50.235 9.059 0 46.117-30.47 85.647-70 38.706-38.706 72.47-70 74.94-70s4.942 5.765 4.942 12.353-5.765 12.353-12.353 12.353-12.353 3.294-12.353 8.235c0 8.236-29.647 41.177-37.059 41.177-6.588 0-86.47 84.823-86.47 92.235 0 3.294-9.059 6.588-19.765 6.588-18.118 0-26.353 12.353-65.882 93.06-42 83.176-54.353 121.058-42 121.058 11.53 0 53.53-25.53 53.53-32.118 0-4.117 10.705-10.705 23.058-15.647 13.176-4.117 33.765-18.117 46.941-29.647 12.353-11.53 26.353-21.411 31.294-21.411s28-14.824 51.883-32.942c23.882-18.117 47.764-32.94 51.882-32.94 4.941 0 11.53-4.942 14.823-10.707s79.06-57.647 167.177-116.117c166.353-109.53 182.823-123.53 176.235-140-2.47-5.765-79.059-60.118-170.47-120.236-91.412-60.94-168.824-113.647-171.294-117.764-2.471-3.295-18.118-13.177-33.765-22.236-16.47-8.235-39.53-24.706-51.882-36.235-12.353-11.53-28-21.412-34.589-21.412-5.764 0-17.294-7.411-24.706-16.47-8.235-9.06-18.117-16.47-23.882-16.47-4.941 0-15.647-8.236-24.706-17.295C1379.162 83.059 1334.691 60 1316.573 60c-4.94 0-6.588 9.059-3.294 22.235" style="stroke-width:.823529"/>
</svg>
