<svg xmlns="http://www.w3.org/2000/svg" width="1175" height="960">
    <path d="M120.132 697.31c-3.555 5.688 35.55 67.545 56.169 89.586 4.266 4.266 17.775 20.62 29.151 35.55 12.087 14.931 45.504 52.614 76.077 83.187 61.146 63.279 81.765 69.678 92.43 27.729l6.399-23.463 36.971 4.266c20.62 2.133 58.302 7.82 83.898 12.087 26.307 4.266 64.701 5.688 85.32 3.555 93.852-9.954 140.067-17.775 153.576-25.596 8.532-4.266 20.618-7.821 27.728-7.821 19.197 0 115.893-49.059 171.35-87.453 51.904-35.55 113.76-95.274 106.65-102.384-4.976-4.266-54.746 24.885-54.746 32.706 0 2.844-31.284 20.62-68.967 39.105-38.394 18.486-78.92 38.394-89.586 44.082-11.376 5.688-29.15 9.954-39.105 9.954-10.665 0-28.44 4.977-39.816 10.665-29.15 15.642-249.56 14.931-286.532 0-13.509-5.688-32.706-10.665-41.238-10.665-22.04 0-30.573-12.798-33.417-49.77l-2.132-31.995-35.55-4.266c-19.197-2.844-46.926-8.532-60.435-12.798s-34.84-7.82-46.926-7.82c-12.798 0-31.995-4.978-42.66-10.666-11.376-5.688-27.729-10.665-36.26-10.665-8.533 0-17.776-3.555-19.909-7.11-5.688-9.243-22.752-9.243-28.44 0m515.474-506.94c-5.688 2.133-39.816 17.775-76.077 34.839-35.55 17.775-80.343 34.839-99.54 39.105-68.966 14.93-77.498 17.775-111.626 38.394-56.88 34.838-93.141 67.544-95.985 88.163-4.977 31.284-3.555 215.433 2.133 250.983 4.266 29.15 7.82 34.839 24.174 37.683 10.665 2.844 34.839 9.242 54.036 14.93 18.486 4.977 46.215 9.954 60.434 9.954 14.22 0 29.151 2.844 33.417 7.11 3.555 3.555 22.752 8.532 41.95 11.376 19.907 2.133 47.636 8.532 62.567 14.22 14.22 5.688 37.683 9.954 50.48 9.954 12.799 0 35.55 4.977 49.77 10.665 17.776 7.821 29.863 9.243 38.395 4.266 7.11-4.266 16.353-4.266 24.885 0 13.509 7.821 33.417-2.133 95.984-45.504 26.307-19.197 29.862-24.885 29.862-49.058 0-14.931 2.844-27.018 6.4-27.018 16.352 0 29.15-24.174 29.15-54.036 0-25.596 3.555-34.128 22.041-50.481 22.041-19.908 23.463-29.151 12.087-90.297-1.422-9.954 2.844-14.93 15.642-18.486 14.931-3.555 17.775-8.532 19.908-34.839 2.844-41.949-6.399-50.48-56.169-50.48-22.752 0-62.568-4.978-88.875-11.377-26.307-5.687-52.613-8.531-59.012-5.687-6.4 2.843-27.018 5.687-46.926 6.398-19.197.711-40.527 2.844-46.215 4.266s-11.376-.71-12.798-4.266c-1.422-4.266 2.844-8.531 9.243-9.242 6.399-1.422 24.174-15.642 39.816-31.995 29.15-31.284 34.128-51.903 20.619-86.031-6.4-18.486-24.174-22.752-49.77-13.51m53.325 457.883c-4.977 14.22-5.688 14.93-12.087 3.555-3.555-6.4-4.977-17.064-2.844-23.463 7.11-18.486 20.619.71 14.93 19.908M801.979 12.619c-9.243 31.284-13.509 33.417-60.434 31.284-24.885-.71-56.17-4.977-68.967-8.532-35.55-11.376-229.653 5.688-246.006 22.041-3.555 3.555-12.798 7.11-19.908 7.11-19.196 0-115.892 47.637-164.951 80.343-44.082 30.573-118.026 96.696-118.026 105.939 0 10.665 12.798 5.688 36.261-14.931 12.798-11.376 54.036-35.55 91.008-54.036 100.962-49.059 108.072-51.903 140.777-56.88 17.064-2.844 31.995-7.821 34.84-11.376 2.132-3.555 59.723-6.399 127.979-6.399 94.563 0 130.113 2.844 150.02 10.665 13.51 5.688 32.707 10.665 41.239 10.665 22.04 0 30.572 12.798 33.416 49.77l2.133 31.995 39.105 4.266c21.33 2.844 48.348 8.532 59.013 12.798 11.376 4.266 31.995 7.82 46.215 7.82s32.706 4.978 39.816 10.666c7.82 5.688 22.752 10.665 33.417 10.665s22.04 2.844 24.174 7.11c5.688 9.243 31.995 9.243 31.995 0 0-19.197-83.898-125.136-164.24-207.612C836.817-.179 809.8-12.977 801.978 12.62" style="stroke-width:.710998"/>
</svg>
