<svg xmlns="http://www.w3.org/2000/svg" width="1053" height="960">
    <path d="M527.974.004C458.361-.504 392.362 43.8 368.644 114.59c-14.086 42.047-10.143 87.343 11.332 130.12 10.04 19.998 12.126 26.878 13.01 42.905.594 10.787.215 16.368-1.637 24.05-7.149 29.647-26.812 51.607-55.699 62.202-9.523 3.493-12.552 3.866-39.852 4.9-39.337 1.491-58.11 5.646-83.828 18.552-71.843 36.051-107.758 117.566-85.647 194.387 9.219 32.031 32.775 65.621 60.67 86.512 18.859 14.123 47.623 26.59 71.147 30.839 8.404 1.517 26.592 1.988 80.387 2.084l69.526.124 58.938-99.634c32.415-54.798 59.258-99.615 59.651-99.595s27.105 44.698 59.36 99.287l58.647 99.254 67.785.389c56.091.32 69.965.02 80.426-1.736 33.553-5.635 63.883-20.845 88.786-44.523 46.875-44.57 63.324-110.41 42.86-171.563-5.926-17.71-12.546-30.559-23.205-45.042-25.026-34.003-62.692-57.873-104.161-66.01-6.563-1.287-23.709-2.691-40.285-3.298-24.474-.897-30.215-1.523-37.79-4.126-13.865-4.764-23.142-10.68-34.481-21.987-16.895-16.845-24.613-35.834-24.613-60.56 0-17.234 2.35-25.824 12.97-47.411 17.954-36.498 23.324-67.248 17.957-102.85-8.888-58.972-48.47-108.42-104.448-130.484C567.24 3.804 547.466.147 527.974.005m-1.32 716.78c-.675-.023-83.812 240.288-83.812 242.26 0 .527 37.788.956 83.975.956 66.59 0 83.85-.355 83.364-1.717-.336-.945-19.109-55.664-41.717-121.597-22.61-65.934-41.423-119.89-41.81-119.902" style="fill:#cd7c2b;stroke-width:.961968"/>
</svg>
