<svg xmlns="http://www.w3.org/2000/svg" width="1056" height="960">
    <path d="M169.26 886.953c0 5.771 17.312 28.853 21.433 28.853 5.771 0 3.71-12.365-2.473-14.838-3.297-1.237-6.595-5.77-7.831-10.305-2.061-8.244-11.13-11.129-11.13-3.71m582.42-1.236c-1.237 4.122-5.36 10.717-8.657 14.839-4.946 5.358-5.358 8.243-1.649 11.953 3.298 3.297 5.359 2.885 7.832-3.298 1.649-4.121 5.358-10.304 8.244-13.19 6.595-6.594 7.007-17.311 1.236-17.311-2.473 0-5.358 3.297-7.007 7.007m-582.42-36.685c0 4.122 4.946 12.778 11.541 19.785 6.183 6.595 17.312 20.197 24.731 29.678 14.427 18.136 23.083 21.433 27.204 11.129 3.298-9.068-.824-18.137-21.845-44.104-14.84-18.549-21.434-23.907-30.09-23.907-8.244 0-11.541 2.06-11.541 7.42m570.054-9.068c-2.886 1.237-14.427 14.839-25.968 30.502-18.96 25.555-20.61 29.265-15.663 36.685 2.885 4.946 6.595 8.655 8.243 8.655 2.061 0 11.954-11.54 23.083-25.555 10.717-14.014 22.67-28.853 26.792-32.975 7.42-8.244 9.48-15.663 3.297-15.663-2.06 0-6.182-.824-9.48-1.649-2.885-1.236-7.42-.824-10.304 0m62.652-166.523c-4.122 10.304-.412 71.308 4.122 70.484 5.358-1.65 7.831-67.187 2.473-72.545-2.885-2.885-4.946-2.061-6.595 2.06m-680.108 0c-4.122 10.304-.412 71.308 4.122 70.484 5.359-1.65 7.832-67.187 2.473-72.545-2.885-2.885-4.946-2.061-6.595 2.06M338.668 891.9c-13.602 4.946-9.48 18.96 8.656 29.677 11.954 6.595 16.9 7.832 22.67 4.122 23.495-14.427-4.121-44.104-31.326-33.8m-1.236-40.807c-22.67 13.19-19.373 35.448 3.297 23.083 7.832-4.122 11.13-4.122 14.839-.413 2.885 2.886 8.244 4.947 12.366 4.947 3.71 0 11.953 6.182 18.548 14.014 9.068 11.541 12.366 13.602 18.548 10.305 14.84-7.832 4.534-29.678-23.082-49.463-18.96-14.014-24.32-14.426-44.516-2.473m227.527 41.219c-14.839 7.42-14.427 28.028.412 33.387 8.656 2.885 13.19 1.649 23.907-5.77 14.426-11.13 16.487-22.259 4.946-28.854-10.305-5.358-16.488-5.358-29.265 1.237m-8.244-44.516c-2.885 3.297-7.42 6.182-9.893 6.182-9.892 0-32.15 27.617-30.501 37.51 1.648 13.602 20.197 16.075 25.967 3.297 2.474-5.358 12.366-13.602 21.846-19.373 16.076-8.656 18.549-9.068 25.144-3.297 9.892 8.656 19.372 2.473 13.19-9.068-10.305-19.373-35.448-27.617-45.753-15.251m159.104-148.387c-1.237 3.71-2.473 15.25-2.473 25.143 0 13.19 1.649 18.136 6.183 18.136 17.724 0 25.143-46.165 7.831-48.638-5.358-.824-9.892 1.649-11.541 5.359m-18.96-32.151c-3.298 1.649-12.366 7.007-19.373 12.778-12.366 9.068-13.603 11.953-13.603 32.975 0 20.197 1.65 24.73 11.13 32.562 18.548 16.488 23.906 11.13 23.906-23.906 0-21.022 1.65-29.678 7.832-36.273 4.122-4.534 6.595-11.129 5.358-14.838-2.885-6.595-4.946-7.008-15.25-3.298M454.492 694.05c-9.48 4.534-15.663 19.785-11.954 29.265.825 2.886 7.007 7.832 12.778 11.13 9.893 4.946 12.366 4.946 22.258-.825 15.251-9.068 17.312-28.853 4.122-37.921-10.717-7.42-14.014-7.832-27.204-1.649m48.638-1.236c2.06 4.534 4.534 13.19 4.534 19.785.412 9.48 1.236 8.243 3.71-4.947 3.71-18.548 2.473-22.67-6.596-22.67-4.534 0-4.946 1.649-1.648 7.832m-84.91 1.648c-3.298 14.84-.413 41.219 5.77 43.28 3.71 1.236 4.946-5.77 4.946-25.556 0-26.792-5.77-36.272-10.717-17.724m60.179-19.785c0 4.122 2.885 6.183 7.419 5.359 8.656-1.649 7.831-9.068-.824-10.717-4.122-.824-6.595 1.237-6.595 5.358m-37.097 0c0 3.298 2.885 6.183 6.183 6.183s6.182-2.885 6.182-6.183-2.885-6.182-6.182-6.182-6.183 2.885-6.183 6.182m-244.427 21.434c-1.649 1.237-2.885 9.48-2.885 18.136 0 11.954 2.06 16.9 8.656 20.61 7.007 3.71 9.48 3.297 12.365-.825 10.717-16.9-5.77-50.699-18.136-37.92m27.204-21.021c-1.236 3.71-.412 10.304 2.061 14.426 6.183 9.48 6.595 51.523.825 55.233-6.595 4.122-.412 10.305 9.892 10.305 4.946 0 14.015-5.359 20.197-11.541 9.068-9.069 11.13-15.664 11.13-30.914 0-16.488-2.062-21.846-12.366-31.739-14.015-13.602-27.617-16.075-31.739-5.77m-54.82-60.18c-7.832 4.534-16.9 9.893-19.373 12.366-7.007 5.77-7.832 171.057-.824 175.18 2.06 1.648 5.77 7.419 7.831 12.365 3.298 8.243 5.77 9.48 17.312 7.831 11.129-2.06 16.075 0 28.44 11.542 32.976 30.501 50.7 61.827 45.753 79.552-4.534 15.663-2.473 22.258 9.069 27.204 4.534 2.06 14.426 7.42 21.021 11.953 7.007 4.534 15.251 9.48 18.548 11.13s14.84 7.83 25.144 14.426L341.14 990h247.724l32.563-18.548c17.724-10.305 35.036-20.61 38.334-22.67 3.297-2.474 10.304-5.771 15.663-8.244 9.068-4.122 12.365-18.137 4.946-22.67-9.068-5.771-3.298-24.32 15.25-48.639 30.915-40.394 45.341-52.347 62.653-52.347 26.38 0 28.853-9.893 28.441-103.46-.412-44.103-2.06-82.024-4.122-84.91-2.06-2.473-11.129-8.655-20.197-13.19-16.075-8.655-21.022-8.655-297.599-8.243-267.92 0-281.935.412-295.537 7.831m70.896 34.212c2.885 2.885 13.19 11.129 23.082 18.548l17.312 14.015v29.677c0 28.44-.412 30.502-13.602 42.043-28.44 24.731-25.968 23.907-44.928 14.839-9.893-4.534-22.67-14.015-28.854-20.61-9.892-10.716-11.54-16.075-11.54-37.096v-24.32l23.494-21.433c25.968-23.083 26.792-23.495 35.036-15.663m251.846 5.77c9.48 6.183 21.021 13.19 25.555 15.664 7.007 3.71 8.244 9.068 9.48 34.21 1.65 37.922-3.71 46.166-39.157 62.241-4.534 2.061-9.893 6.183-11.541 8.244-6.183 10.717-23.495 4.122-56.47-21.434-15.663-11.953-15.663-11.953-15.663-42.043 0-33.387-.412-32.563 30.914-53.584 25.143-17.312 34.211-17.724 56.882-3.298m237.007 11.13c21.021 21.845 21.434 22.67 21.434 46.577 0 20.197-1.65 25.967-9.069 32.562-30.09 26.38-51.523 30.09-74.605 12.366l-15.251-11.541v-64.713l23.907-18.55c12.777-10.304 25.555-18.547 28.028-18.96 2.061 0 14.015 9.893 25.556 22.258M592.987 834.193c35.036 24.73 36.273 26.38 30.09 41.63-5.358 13.603-6.183 16.9-10.305 36.273-2.885 12.778-25.967 28.44-42.455 28.44-9.068 0-21.021-4.946-42.455-16.9-3.298-2.06-10.305-5.357-15.251-7.83-8.244-3.298-9.48-7.008-9.48-24.732 0-18.96 1.648-22.258 15.663-35.036 8.244-7.831 17.312-14.426 19.373-14.426 2.473-.412 9.892-4.946 16.487-10.305 7.007-5.77 14.014-10.304 15.663-10.304 2.061 0 12.366 6.182 22.67 13.19m-213.512 1.236c2.885 3.298 7.42 6.183 10.304 6.183 7.832 0 34.624 28.029 37.51 38.745 4.533 18.549.412 33.388-9.893 34.624-5.358.824-10.717 4.122-11.953 7.42-1.237 3.297-5.359 5.77-9.48 5.77-4.123 0-9.481 2.885-12.366 6.183-5.77 7.007-35.036 8.244-39.158 1.649-1.649-2.061-7.42-5.771-12.778-7.832-5.77-2.473-10.717-6.183-11.541-9.068s-4.534-16.075-8.656-29.265c-9.068-28.029-7.42-32.15 16.9-49.05 18.136-12.778 42.867-15.251 51.11-5.359m334.283-282.76c-2.473 4.534-4.534 12.778-4.534 18.549 0 9.892 1.236 10.716 18.548 10.716 21.022 0 26.38-6.182 20.197-24.319-4.946-14.014-27.616-17.724-34.211-4.946m-406.828-2.06c-1.237 3.297-1.649 11.128-.824 17.723l1.236 11.541 157.868 1.237 157.455.824v-13.602c0-7.419-2.061-15.663-4.946-18.548-3.71-3.71-44.104-4.946-156.631-4.946-127.366 0-152.51.824-154.158 5.77m-121.183-3.298c-2.473 6.183-4.122 16.075-3.297 21.846 1.236 9.068 3.71 10.716 17.724 11.953 20.609 1.649 28.028-6.183 21.433-23.907-2.473-6.595-7.419-12.778-10.716-13.602-3.71-1.236-9.893-3.297-13.603-4.946-5.358-2.061-8.243 0-11.54 8.656m46.577-24.32-9.48 1.65 10.717 20.609c5.77 11.541 9.48 23.082 8.656 25.555-4.534 11.954 5.358 19.373 25.967 19.373 22.67 0 23.495-1.236 25.556-37.097l1.237-18.548 164.874-1.237 164.875-.824 7.007 9.068c4.122 5.359 7.42 16.075 7.42 24.32 0 19.784 7.419 25.143 29.677 22.67 9.892-1.237 18.136-2.062 18.96-2.062.412-.412.825-4.534.825-9.892 0-4.946 3.297-15.663 7.419-23.495 8.656-17.724 7.42-27.204-4.534-30.501-10.305-2.474-445.161-2.474-459.176.412m577.061-148.386c-21.021 22.258-38.745 43.28-39.57 46.989-.824 3.71 11.13 23.907 27.617 46.577 16.075 21.846 37.097 50.699 46.165 63.889l17.312 23.907 6.595 77.903c8.243 96.04 8.243 142.204.824 166.523-16.9 53.172-19.373 65.126-18.136 76.255.824 10.717 3.297 12.365 14.426 13.602 11.541 1.236 14.427-.824 23.495-15.251 6.183-9.068 10.717-18.136 10.717-20.197 0-1.649 8.243-19.785 18.548-39.982 18.136-36.273 18.548-37.921 18.548-76.255 0-61.003-11.54-197.437-18.96-222.58-6.595-21.434-9.48-30.502-22.258-65.95-2.473-7.832-6.595-21.022-8.244-28.853-3.297-13.602-6.595-23.495-18.96-57.706-2.886-7.832-6.183-17.724-7.42-21.846-1.236-3.71-4.534-7.007-7.42-7.007s-22.257 18.136-43.279 39.982m-292.24 72.957c-5.358 14.426 0 21.021 16.9 21.021 14.014 0 16.487-1.236 17.724-9.48 1.236-9.068-.412-10.305-21.022-14.839-7.831-2.06-11.953-.824-13.602 3.298m.412-55.233c-3.71 11.953.825 16.487 16.488 16.487 14.838 0 21.846-9.48 14.014-18.96-7.42-9.069-27.204-7.42-30.502 2.473m-136.433 59.767c-4.122 10.304 1.648 19.372 11.54 17.724 7.008-.825 9.893-4.534 10.718-12.778 1.236-9.48 0-11.13-9.48-11.13-5.771 0-11.542 2.886-12.778 6.184m2.473-62.24c-7.42 9.068-2.061 18.96 10.304 18.96 9.48 0 10.717-1.649 9.48-11.129-1.236-13.19-11.953-16.9-19.784-7.831m71.72 53.584c-4.534 11.953.412 21.021 10.717 21.021 12.778 0 16.487-13.602 5.77-21.433-9.48-7.008-13.602-6.595-16.487.412m-.824-48.226c.824 9.068 3.297 11.541 11.541 11.541s10.305-2.06 10.305-10.304-2.474-10.717-11.542-11.542c-10.716-1.236-11.54-.412-10.304 10.305m-87.384-91.505c-12.365 3.297-27.616 5.77-33.387 6.182-10.717 0-48.226 18.137-82.025 39.158-20.61 12.778-28.853 23.083-45.34 53.584-2.474 4.534-7.832 13.602-12.366 20.61-21.846 33.387-25.144 43.28-23.907 69.247 1.237 23.082 2.061 25.556 10.717 26.792 5.358.824 18.136-1.649 28.44-4.946 16.488-5.77 51.112-6.595 255.144-6.595 204.445 0 236.183.824 240.717 6.183 2.885 3.297 11.13 6.182 18.96 6.182 7.42 0 14.84 2.061 16.076 4.535 2.06 2.885 6.595.824 13.19-4.947 9.068-8.656 9.48-11.54 7.007-32.15-2.885-23.083-8.656-39.158-21.434-58.53-3.71-6.184-13.602-21.847-21.433-35.037-14.839-25.143-29.266-41.218-43.28-47.401-4.534-2.06-13.602-7.42-20.61-11.541-24.318-15.663-46.164-25.144-58.118-25.144-6.595 0-21.021-2.885-32.15-6.182-26.792-8.244-163.226-8.244-196.2 0m119.946 70.483c3.71 2.061 4.534 16.488 3.71 79.965-.412 24.73-5.358 29.677-28.44 28.028-18.55-1.236-18.961-1.648-22.671-18.548-2.885-13.602-2.06-19.785 2.885-27.204 4.122-6.183 4.947-11.542 2.473-14.015-2.06-2.06-5.358-12.778-7.419-23.907-3.297-16.9-2.473-21.021 2.885-25.555 7.008-5.359 37.51-4.534 46.577 1.236m-71.308 2.474c6.183 6.182 6.183 23.494.825 38.745-3.298 8.656-2.886 12.778 2.06 18.136 8.244 9.068 7.832 28.853-1.236 40.395-6.183 8.243-10.717 9.48-28.029 8.243l-20.197-1.236-.824-49.463c-.412-27.204 0-51.935.824-54.82 2.473-6.595 39.982-6.595 46.577 0m147.15 19.785v22.258l-16.487 4.946-16.487 4.534 16.487 3.71c15.663 3.71 16.488 4.946 17.724 21.845 1.65 24.32-3.71 29.266-32.975 29.266-26.38 0-25.967.412-29.677-28.029-2.473-16.075-1.649-17.724 7.832-21.434 11.129-4.122 10.716-12.365-.413-12.365-7.419 0-8.243-37.097-.824-44.516 3.297-3.298 14.426-4.947 30.09-4.122l24.73 1.236zM549.297 275.68c-8.656 3.297-1.237 9.48 11.953 9.48 12.778 0 16.075-5.77 5.358-9.892-7.419-2.886-9.48-2.886-17.311.412m-178.065 1.236c-4.946 3.298-4.946 4.122 1.237 6.595 9.068 3.298 20.609-1.236 17.311-6.595-3.297-4.946-10.304-5.358-18.548 0m504.928-40.806c-1.236 3.297-1.648 23.907-1.236 45.34 1.236 32.151 2.473 38.746 8.244 39.983 11.54 2.06 16.487-13.19 13.19-44.929-2.886-30.09-14.84-53.996-20.198-40.394M665.944 185c-4.534 1.236-12.365 6.595-17.724 11.541-7.831 7.832-9.48 13.19-8.243 27.617l1.236 17.724 19.373-1.237c18.548-1.649 40.394 7.42 40.394 16.075 0 1.65 5.77 11.542 12.366 21.434 11.541 17.312 12.365 21.021 12.365 55.645 0 22.67 1.65 38.334 4.534 40.394 2.474 1.237 13.603-7.007 24.732-18.96l20.197-21.434v-44.928c0-49.463-3.298-59.767-28.441-88.62-13.19-14.839-14.839-15.251-43.28-16.488-16.075-.824-32.975 0-37.509 1.237m.825-82.85c-7.42 7.42 7.007 9.893 60.179 9.893h58.53l22.67 22.67c11.954 12.366 24.32 22.67 26.793 22.67 2.06 0 .824-2.885-2.886-5.77-4.121-2.886-7.419-7.007-7.419-9.068s-7.831-12.778-17.312-23.495L789.6 99.677h-60.179c-32.975 0-61.416 1.237-62.652 2.473M550.944 67.527c1.65 11.953 5.359 27.616 8.656 35.036 2.886 7.419 5.359 19.372 5.359 26.792.412 7.42 2.885 18.136 6.182 23.906 3.298 5.771 5.771 14.015 6.183 18.549 0 4.946 8.244 25.143 18.549 45.34 11.953 23.907 18.548 42.456 18.548 52.348 0 16.488 6.183 24.731 9.48 12.778 1.237-4.122 2.061-23.495 2.061-43.28 0-41.63 8.656-61.416 30.502-68.835 16.9-6.183 68.835-5.358 80.376.825 4.947 2.885 18.549 17.724 30.914 33.799l21.846 28.853 1.237 44.516c.824 24.731.412 49.05-.825 53.996s-13.602 21.846-27.616 36.685c-24.731 27.204-28.853 39.982-13.602 39.982 3.297 0 25.968-19.373 49.462-42.867 23.907-23.907 47.402-43.692 52.348-44.516 8.656-1.237 9.068-3.298 9.892-56.882l1.237-55.645-19.785-21.022c-10.717-11.541-30.09-30.502-43.28-42.043l-23.494-21.434H714.17c-47.813 0-62.652-1.236-69.66-6.182-5.358-3.71-21.02-7.42-35.86-9.068l-26.38-2.474-9.892-29.265c-6.595-19.785-11.953-29.677-16.9-30.502-6.595-1.236-7.007.825-4.534 20.61m-186.308-6.595c-6.595 16.075-15.25 44.104-22.258 71.72-1.649 7.832-5.358 20.61-7.832 27.617-20.609 61.415-25.967 80.788-28.028 103.458-2.473 25.556 0 34.624 9.068 31.327 4.122-1.65 6.183-8.244 6.183-21.846 0-17.312 6.595-42.455 16.075-61.416 9.892-20.197 16.487-37.097 18.136-46.165 1.237-5.77 4.122-16.075 6.183-22.67 14.014-40.807 20.61-86.972 13.602-93.979-2.885-2.885-6.183 0-11.129 11.954m35.448-9.893c-5.358 8.656-8.244 21.022-8.244 34.212 0 11.129-2.885 25.967-6.182 32.562-3.298 6.183-6.183 17.312-6.183 24.732 0 7.007-2.886 16.487-6.183 20.609-3.298 4.534-6.183 13.19-6.183 19.373s-1.649 12.365-3.71 13.602c-5.77 3.71-22.258 59.355-19.372 66.362 1.648 4.946 4.122 5.77 10.304 2.06 4.534-2.06 16.076-4.121 25.968-4.121 15.663 0 19.785 2.061 27.204 12.366l9.48 12.365h45.341c44.929 0 46.165-.412 61.828-12.778 14.015-11.129 18.549-12.365 35.86-10.716 10.717.824 23.907 3.297 29.266 4.946 8.656 2.885 9.48 2.473 6.595-6.595-1.237-5.359-8.656-23.083-16.076-38.746-18.136-39.157-23.494-54.408-26.792-76.254-1.648-10.305-5.358-22.67-7.831-27.617-2.886-4.946-4.947-14.426-4.947-21.433 0-15.664-11.54-46.165-19.784-53.172-4.535-3.298-23.083-4.947-59.355-4.947h-52.76zm41.631-77.49c-13.19 3.709-22.67 10.304-34.212 23.494-8.655 9.892-15.663 20.197-15.663 22.67 0 3.298 21.434 4.946 74.194 4.946 61.004 0 74.193-.824 74.193-5.77 0-3.298-1.648-5.77-3.297-5.77-2.06 0-9.068-8.245-16.075-17.725-12.366-18.136-15.251-19.373-50.7-25.143-5.77-.825-18.548.412-28.44 3.297" style="stroke-width:.412186"/>
</svg>
