<svg xmlns="http://www.w3.org/2000/svg" width="1200" height="960">
    <path d="m312.73 0 149.064 248.805c-241.898 83.71-275.398 335.78-279.78 392.204h-61.847L242.91 853.57l122.74-212.56h-60.67c4.885-64.17 48.146-255.786 190.994-335.16L600.31 480 467.581 701.538 312.73 960h619.408L777.285 701.538 644.552 480l117.223-195.656c298.304 68.52 318.032 377.774 318.058 392.58 0-3.747-.13-346.283-292.84-434.667L932.137 0zm147.482 135.386H784.66l-81.116 135.386-81.11 135.38-81.111-135.38zm162.221 435.691 53.094 88.612 53.088 88.618H516.247l53.093-88.618z" style="stroke-width:2.59684"/>
</svg>
