<svg xmlns="http://www.w3.org/2000/svg" width="1154" height="960">
    <path d="M602.443 243.31c-4.93 3.943-17.252 7.393-26.618 7.393s-23.66 3.45-31.547 7.394c-7.394 3.944-19.224 7.394-25.632 7.394-6.901 0-20.21 3.45-30.069 7.394-9.366 3.943-23.66 7.394-31.547 7.394-31.055 0-32.534 11.83-29.576 197.17.986 70.49 2.958 91.685 11.337 116.825 16.76 51.264 71.968 104.993 145.907 143.442l30.561 15.773 18.239-9.858c10.351-5.423 20.21-9.859 22.181-9.859 11.338 0 69.996-41.899 100.065-71.474 48.8-47.814 55.208-66.546 59.15-176.468 3.451-102.036-.985-188.792-10.843-198.65-3.944-3.943-13.31-6.901-20.703-6.901-7.887 0-22.182-3.45-31.548-7.394-9.858-3.943-24.153-7.394-31.547-7.394s-18.238-3.45-23.168-7.394c-5.422-3.943-14.788-7.394-20.703-7.394s-18.73-3.45-28.097-7.394c-22.674-9.365-33.519-9.365-45.842 0m36.477 30.56c.986 4.437-3.944 6.409-15.774 6.409-16.76 0-21.689-3.943-14.295-11.83 5.422-5.422 27.604-.986 30.069 5.422m-45.842 13.803c0 2.465-9.366 5.422-20.703 6.408-19.717 1.479-26.125-2.465-17.746-10.844 5.422-4.93 38.449-1.48 38.449 4.436m100.064.986c.986 4.436-4.436 6.408-18.238 6.408-19.225 0-28.097-4.93-21.69-11.83 5.916-5.423 37.463-.986 39.928 5.422M538.856 302.46c0 5.915-29.576 9.365-40.913 4.929-6.901-2.465-6.901-3.45-.986-7.887 9.365-5.915 41.899-3.45 41.899 2.958m206.043 0c-1.971 7.394-37.462 5.915-39.927-1.48-1.479-4.928 3.45-5.914 19.224-4.928 11.83.985 21.196 3.45 20.703 6.408m-261.251 14.788c-1.48 6.408-26.125 9.858-26.125 3.45 0-7.394 6.408-11.337 17.252-9.859 5.422.986 9.366 3.45 8.873 6.409m296.742-2.465c1.479 2.957-.493 6.408-4.436 7.887-10.352 3.943-24.154-1.48-20.21-7.887 3.943-6.408 20.703-6.408 24.646 0M471.325 563.712c-1.48 15.774-10.352 19.717-12.817 5.422-.985-4.929-.492-16.76 1.48-26.618 3.45-17.745 3.943-17.745 8.379-5.915 2.465 6.408 3.943 18.731 2.958 27.111m311.037-1.479c.493 7.394-1.972 14.788-4.437 16.267-7.886 4.93-11.337-10.351-7.394-31.054 2.958-15.281 4.437-16.76 7.394-8.38 2.465 5.422 4.437 15.774 4.437 23.167m-295.264 40.42c0 3.944-1.971 8.38-4.436 10.352-5.915 3.45-11.83-5.915-7.887-12.323 4.436-7.394 12.323-5.915 12.323 1.971m278.504 1.972c0 8.873-9.858 7.394-11.337-1.972-1.479-4.929.493-7.393 4.93-5.915 3.45 1.48 6.407 4.93 6.407 7.887m-249.914 37.956c12.323 12.323 25.14 22.181 28.59 22.181s8.38 2.958 10.351 6.408c1.972 3.944 7.887 7.887 12.816 9.859 4.437 1.479 8.38 5.422 8.38 8.38 0 7.887-14.788 5.915-17.745-2.465-1.972-3.943-5.915-7.394-9.859-7.394-6.408 0-61.123-49.786-61.123-55.7 0-6.902 6.901-2.465 28.59 18.73m237.591-19.225c0 5.423-37.955 41.406-43.87 41.406-2.958 0-5.423 1.972-5.423 4.437 0 6.9-15.773 11.337-21.196 5.915-3.45-3.45-.985-6.901 6.901-10.352 18.239-7.887 30.069-15.773 43.378-31.054 11.83-12.816 20.21-16.76 20.21-10.352m-74.925 62.11c-1.479 3.45-6.408 7.393-11.83 8.379-4.93.986-11.338 4.436-13.31 8.38-4.436 7.887-21.195 9.365-25.631 1.972-1.972-2.958 3.45-6.409 11.83-7.887 7.887-1.972 15.773-5.915 17.252-9.859 3.45-8.873 24.154-9.366 21.689-.986m-73.94 17.745c1.48 4.436-1.478 6.408-9.365 4.929-5.915-.493-11.83-4.436-13.309-7.887-1.478-4.436 1.479-6.408 9.366-4.93 5.915.494 11.83 4.437 13.309 7.888m15.775 9.858c0 6.408-5.916 10.845-10.845 7.887s-.493-11.83 6.408-11.83c2.465 0 4.437 1.971 4.437 3.943M227.325 208.804c-7.886 3.45-16.266 9.859-18.238 14.788-3.943 10.845-3.45 37.956.986 44.857 6.901 9.858 28.097 21.689 38.448 21.689 13.31 0 41.406-32.04 41.406-46.829-.493-26.125-35.49-45.842-62.602-34.505m104.501-61.615c-18.731 5.915-27.11 17.252-27.11 37.955 0 20.21 13.308 34.505 35.983 38.448 22.674 4.437 36.476-3.943 41.899-23.66 3.943-15.281 0-40.913-7.394-48.307-6.901-6.901-28.59-8.873-43.378-4.436m99.079-62.11c-37.956 17.253-34.505 67.039 5.422 78.87 16.266 4.928 44.856-8.874 48.8-23.661 5.422-22.182-1.972-44.364-17.253-53.73-16.76-9.858-17.745-9.858-36.97-1.478m83.797-40.912c-16.266 19.224-16.266 26.125 2.465 49.292 10.351 13.31 19.224 19.225 27.604 19.225 16.76 0 39.434-14.295 42.884-26.618 9.366-34.505-6.408-57.18-39.927-57.18-16.76 0-22.674 2.958-33.026 15.28M623.64 2.76c-1.972 1.479-3.45 23.66-3.45 48.8v45.842l27.11 12.816c14.788 7.394 37.463 20.21 50.28 29.083 21.688 14.295 41.405 25.632 82.811 46.335 8.38 4.436 21.689 12.323 29.576 18.238 8.38 5.915 23.66 15.28 34.505 20.703 38.448 19.717 54.222 28.59 57.18 32.533 1.478 1.972 12.322 8.873 24.646 15.281l21.688 11.83v391.385l-21.688 11.83c-12.324 6.408-23.168 13.309-24.647 15.28-2.957 3.944-18.731 12.817-57.18 32.534-10.844 5.422-26.125 14.788-34.504 20.703-13.31 9.365-32.04 19.717-73.94 40.913-7.886 4.436-24.646 14.295-36.969 22.675s-34.998 21.688-49.786 29.575l-27.604 13.802-27.604-12.816c-14.787-7.394-35.49-18.731-45.842-26.125-24.153-16.267-73.939-44.364-91.684-51.265-7.887-2.957-13.802-7.394-13.802-9.858 0-1.972-11.83-9.859-26.618-16.76-14.788-6.9-34.012-17.745-42.885-23.66-9.366-6.408-31.547-19.717-49.786-29.576l-33.519-18.731v-83.305c0-55.7 1.972-84.29 5.422-86.755 2.958-1.479 19.225-3.45 36.477-3.45 38.448 0 44.857-2.958 36.97-18.239-4.93-9.365-29.083-40.42-54.222-70.488-2.958-3.451-16.76-20.21-30.562-37.956-38.941-49.293-38.448-49.293-66.545-15.28-59.151 72.953-97.6 125.203-97.6 132.597 0 6.9 6.408 8.38 43.378 9.858l42.885 1.48v107.95c0 121.753-.986 118.303 38.94 136.048 10.845 4.93 20.21 10.352 20.21 12.323 0 2.958 20.21 14.788 56.688 33.027 8.38 3.943 18.238 9.858 22.181 13.309s20.703 13.309 36.97 22.181 38.448 22.182 49.293 29.083 34.012 20.21 51.757 29.083c17.745 9.365 35.49 19.717 39.434 23.167s20.703 13.31 36.97 22.182 34.012 19.224 39.434 22.675c14.788 10.351 31.054 8.38 57.672-7.887 12.817-7.887 25.633-14.788 28.097-14.788 1.972 0 13.31-6.9 25.14-15.28s36.476-23.661 55.207-33.52c37.956-19.717 41.9-21.689 71.475-41.406 11.83-7.394 23.167-13.309 25.14-13.309 2.464 0 13.308-6.408 23.66-13.802 10.351-7.886 26.125-17.252 34.012-21.195 49.785-25.14 105.486-59.645 111.894-69.996 5.422-8.38 4.93-475.675-.493-485.534-2.464-4.436-15.28-13.802-28.59-20.703-12.816-6.9-25.139-14.294-26.618-16.266-2.957-3.944-8.38-7.394-48.8-28.097-12.323-6.408-28.59-16.267-36.969-22.182-7.887-5.915-24.153-15.28-35.49-21.196s-30.562-16.76-41.9-24.153C799.614 96.91 776.447 83.6 760.18 75.22c-16.76-8.873-39.927-22.674-51.264-31.054-11.83-8.38-23.168-15.281-25.14-15.281-2.464 0-15.28-6.901-28.097-14.788-26.125-15.774-27.11-16.266-32.04-11.337" style="stroke-width:.492927"/>
</svg>
