<svg xmlns="http://www.w3.org/2000/svg" width="1200" height="960">
    <path d="M939.485 16.59c-7.658 9.188-49.008 53.602-91.38 98.016S748.046 220.28 719.458 249.889c-28.078 29.61-66.366 70.96-84.233 91.38-54.114 61.772-161.83 178.677-217.985 235.853l-52.072 53.603-71.47-71.47c-39.309-39.31-71.47-75.044-71.47-79.128 0-9.7 367.562-377.773 377.772-377.773 4.084 0 25.015 17.357 45.945 38.288 35.225 35.224 39.31 37.777 48.498 31.65 8.679-6.636 6.637-10.21-38.288-56.665-26.035-27.057-51.05-49.008-55.644-49.008-10.21 0-414.019 403.298-414.019 413.508S589.79 893.635 600 893.635s413.508-403.809 413.508-413.508c0-12.763-82.702-91.891-95.975-91.891-18.888 0-13.273 11.231 24.504 48.498 19.91 19.399 35.736 38.798 35.736 43.393 0 10.21-367.563 377.772-377.773 377.772-9.7 0-122.52-112.31-122.52-122.01 0-3.574 8.678-16.336 18.888-28.078 17.357-19.399 147.025-157.235 175.103-186.334 7.147-7.147 47.476-50.029 89.338-94.953 41.86-44.925 94.953-100.57 117.416-124.053 47.476-49.519 52.07-56.666 56.155-87.806 3.573-30.63 16.336-110.27 26.036-161.83 10.21-56.155 4.594-66.365-20.931-36.246m-60.75 173.06c-1.531 8.679-3.063 19.4-3.063 22.973 0 11.741-13.273 8.168-20.42-5.616-6.126-11.23-5.616-13.783 2.552-22.972 14.805-16.337 25.015-13.274 20.931 5.615m-33.693 94.443c0 2.042-23.994 27.057-53.603 56.666-29.61 29.099-53.603 55.134-53.603 57.687 0 3.063-3.573 5.105-7.658 5.105-4.084 0-7.657 2.042-7.657 4.595s-10.72 16.336-23.994 30.12c-13.783 13.783-40.33 42.882-60.24 65.344-58.707 65.855-92.4 99.037-96.484 95.464-1.532-2.042 3.573-9.7 12.252-17.357 8.168-7.658 15.315-15.315 15.315-16.847s14.294-16.846 32.162-34.714c17.357-17.868 47.987-50.54 67.386-73.002 19.91-22.462 63.813-68.918 98.527-103.632 34.204-34.715 62.282-65.345 62.282-67.897s3.573-4.595 7.657-4.595 7.658 1.532 7.658 3.063M492.794 656.25c0 4.084-3.573 7.658-7.657 7.658s-7.658 2.042-7.658 5.105c0 7.147-19.91 26.546-25.525 24.504-5.105-1.531 30.12-44.924 36.756-44.924 2.042 0 4.084 3.573 4.084 7.657M355.98 236.616c-129.668 129.668-235.852 239.427-235.852 243.51C120.127 490.337 589.79 960 600 960s479.873-469.663 479.873-479.873c0-11.742-120.478-130.179-125.073-123.032-2.042 3.574 17.868 27.567 50.54 59.73 30.63 30.119 54.113 57.686 54.113 63.302 0 12.762-446.69 459.453-459.453 459.453S140.547 492.89 140.547 480.127 587.237 20.673 600 20.673c5.616 0 32.672 22.973 62.281 52.582 47.477 47.988 70.45 65.855 70.45 55.645C732.73 121.753 607.658.253 600 .253c-4.084 0-113.842 106.185-244.02 236.363" style="stroke-width:.510504"/>
</svg>
