<svg xmlns="http://www.w3.org/2000/svg" width="1200" height="960">
    <path d="M120 0v960h960V0zm102.035 89.302h65.232L252.471 124.1l-32.616-32.616zm130.421 0h65.233l-99.986 100.03-32.616-32.617zm130.465 0h65.233L382.892 254.52l-32.616-32.616zm130.466 0h65.145l-230.407 230.45-32.616-32.615zm130.378 0h65.232l-295.64 295.683-32.616-32.616zm130.465 0h65.232L578.547 450.174l-32.617-32.616zm116.468 13.954v759.07l-20.843-20.843-29.215 29.215h-65.233l61.831-61.832-32.616-32.616-94.448 94.448H745.03l127.02-127.02-32.616-32.617-159.636 159.637h-65.233l192.253-192.253-32.616-32.617-224.87 224.87H484.1l257.485-257.486-32.616-32.616-290.102 290.102h-65.145l322.674-322.675-32.616-32.616-355.29 355.29h-65.233l387.907-387.906z" style="stroke-width:22.3256"/>
</svg>
