<svg xmlns="http://www.w3.org/2000/svg" width="1252" height="960">
    <path d="M546.903 840h-427.24a288.1 288.1 0 0 1 87.03-211.642 288.1 288.1 0 0 1 211.643-87.03 290.35 290.35 0 0 1 207.686 83.074zM419.325 120.022a172.48 172.48 0 0 1 126.59 52.416 172.48 172.48 0 0 1 52.416 126.59 172.48 172.48 0 0 1-52.416 126.589 172.48 172.48 0 0 1-126.59 52.416 172.48 172.48 0 0 1-126.59-52.416 172.48 172.48 0 0 1-52.416-126.59 172.48 172.48 0 0 1 52.416-126.59 172.48 172.48 0 0 1 126.59-52.415m414.383 0a180.2 180.2 0 0 1 90.987 23.735 172.4 172.4 0 0 1 65.273 65.275 180.2 180.2 0 0 1 23.733 90.983 171.34 171.34 0 0 1-52.415 125.602 179.07 179.07 0 0 1-253.179 0 172.48 172.48 0 0 1-52.415-126.59 172.48 172.48 0 0 1 52.415-126.59 171.34 171.34 0 0 1 125.601-52.415M1132.381 840H535.036a297.153 297.153 0 0 1 298.672-298.672A297.153 297.153 0 0 1 1132.381 840" style="stroke-width:34.2648"/>
</svg>
