<svg xmlns="http://www.w3.org/2000/svg" width="1770" height="960">
    <path d="m183.842 807.035-33.396-10.64 33.485-34.926-20.233-1.157-40.968 19.18-3.309-5.391 40.725-24.673 28.387-79.87-14.893-8.523 17.972-56.473s-37.39-55.925 55.897-74.519c92.918-18.52 82.48 44.185 92.427 40.797 14.301-4.861 60.37-29.445 70.675-27.328 10.134 2.1-20.655 22.564-12.596 28.408 8.05 5.825 41.09 11.526 60.928 6.63 32.208-7.966 79.725-29.35 132.369-54.42 30.365-13.507 18.008-43.276-15.985-53.866-20.092-6.274 40.564-226.649 57.244-261.261 16.694-34.607 51.033-46.548 86.316-42.318s225.885 79.008 279.575 72.239c53.707-6.778 386.017-113.698 404.702-132.97 18.703-19.28 39.398-77.242 51.78-86.663C1479.82.387 1509.108 0 1509.108 0l51.014 90.165c-247.635 111.087-523.192 236.391-726.855 338.85 75.302-9.608 243.284-90.933 274.106-87.866l-12.409 39.804 36.045 16.579C1113.55 423.1 943.27 499.522 887.512 551.016c209.4-90.155 482.522-220.682 726.788-338.994l36.279 97.036s-19.123 22.187-49.594 29.092c-15.176 3.43-72.88-17.974-99.671-16.04-26.78 1.94-322.29 187.776-361.986 224.553-39.714 36.786-104.934 230.867-124.368 260.6-19.44 29.748-50.677 48.387-87.914 38.917-37.242-9.457-245.042-104.66-236.92-124.08 13.72-32.838-1.137-61.453-31.001-46.874-53.037 24.23-99.97 46.867-126.78 66.433-16.496 12.037-33.367 41.011-34.07 50.94-.712 9.912 34.768-.514 29.849 8.593-5.002 9.256-53.447 28.744-66.368 36.587-8.99 5.444 45.755 37.753-28.159 97.028-74.206 59.51-93.014-5.08-93.014-5.08l-54.809-22.547 3.033-16.876-79.43-29.593-45.078 15.338-1.998-6.013 41.021-19.042 12.123-16.256-48.277 3.202zM355.737 925.62c-1.377-23.59 31.464-10.894 36.846-43.59 5.62-34.169 8.9-54.475 42.325-38.82 22.793 10.686 20.073 23.297 4.576 53.1-15.07 28.962-82.386 52.895-83.75 29.31zM574.1 697.598c-57.697 28.428-88.94 52.217-81.517 69.232-29.474 31.619-67.06 47.709-109.836 53.906-15.332 5.615-35.964-18.39.56-37.599 67.696-37.707 130.954-65.462 190.793-85.54zm-54.578-122.716c-58.865 25.925-97.17 34.566-105.438 17.957-43.162 2.24-79.652 20.704-111.878 49.48-14.174 8.145-9.043 39.367 29.15 23.735 72.399-27.62 134.323-58.238 188.166-91.172M204.48 595.599c17.203 16.21 28.574-17.113 57.094-.215 29.787 17.657 47.432 28.207 56.93-7.475 6.473-24.311-4.944-30.352-37.733-37.64-31.873-7.071-93.477 29.112-76.291 45.33m670.016 72.358c-22.358 17.86-47.132 24.45-74.339 19.773l16.338-37.424zm-105.464-77.51c3.684 8.111-7.834 16.466-21.075 21.105-13.231 4.657-28.19 5.612-31.383-1.075-6.398-13.345 45.085-36.286 52.458-20.03m14.463-94.81 22.964 51.58-41.596 23.108-26.487-58.787zm-56.583-1.19c-3.859-8.04-17.662-4.586-29.722 2.559-12.077 7.156-22.41 18.005-19.355 24.744 6.11 13.48 56.794-11.221 49.077-27.304zm8.407-130.63c-28.041 5.651-49.03 20.403-62.932 44.237l39.171 11.54z" style="stroke-width:13.9525"/>
</svg>
