<svg xmlns="http://www.w3.org/2000/svg" width="1213" height="960">
    <path d="M588.561 906.91c-28.939 17.914-13.78 63.39 22.049 67.524 37.207 5.512 55.121-30.317 30.317-59.256-19.293-23.427-27.561-24.805-52.366-8.268m319.706-115.756c-11.025 26.183 4.134 48.232 35.829 48.232 26.182 0 46.853-34.451 33.073-56.5-11.025-19.293-60.634-13.78-68.902 8.268m-647.68 0c-11.024 27.56 5.512 48.232 37.207 48.232 19.293 0 26.183-9.647 26.183-34.451s-6.89-34.452-27.56-34.452c-15.16 0-31.696 9.647-35.83 20.671m-137.804-316.95c-5.512 12.403-2.756 28.94 5.512 37.208 22.049 22.048 64.768 6.89 64.768-23.427 0-35.829-57.878-46.853-70.28-13.78m912.263-24.804c-4.134 4.134-8.268 23.427-8.268 41.341 0 27.56 6.89 33.073 30.317 28.939 39.963-5.512 48.232-46.853 13.78-64.768-15.158-8.268-30.316-9.646-35.829-5.512M912.401 146.23c-5.512 4.135-9.647 20.671-9.647 34.452 0 30.317 44.098 33.073 67.524 5.512 13.78-16.536 11.025-23.427-11.024-34.451-31.695-17.915-35.829-17.915-46.853-5.512m-639.411 0c-27.561 9.647-20.671 42.72 9.646 59.257 22.049 12.402 30.317 11.024 35.829-6.89 9.646-23.427-1.378-62.012-17.915-60.634-5.512 0-19.292 4.134-27.56 8.268m183.28 137.805c-4.135 4.134-8.27 19.293-8.27 31.695s-17.914 39.963-41.34 62.012c-37.208 35.829-41.342 48.231-41.342 121.267 0 67.524 5.513 85.439 31.695 107.488 37.207 31.695 73.036 33.073 89.573 4.134 16.536-30.317 44.097-12.403 44.097 27.56 0 38.586 52.366 77.17 103.353 77.17 46.854 0 103.353-38.584 103.353-68.901 0-13.78 9.647-27.561 20.671-33.073 11.024-4.134 20.67-17.915 20.67-28.94 0-37.206-53.743-140.56-77.17-150.206-13.78-5.512-19.292-16.536-13.78-30.316 26.183-68.903-28.939-92.33-121.268-53.744-59.255 24.805-77.17 17.914-77.17-27.56 0-34.452-16.536-53.745-33.073-38.586m-5.513 224.62c6.89 46.854-6.89 77.171-28.939 63.39-16.536-11.024-20.67-79.926-5.512-95.084 17.914-19.293 28.939-8.269 34.45 31.695m74.414 8.269c-6.89 17.914-13.78 19.292-24.805 8.268-8.268-8.268-11.024-24.805-5.512-38.585 6.89-17.915 13.78-19.293 24.805-8.268 8.268 8.268 11.024 24.804 5.512 38.585M416.306 35.988c-5.512 4.134-9.646 48.231-9.646 96.462 0 119.89-20.671 137.805-161.231 150.207-59.256 4.134-108.865 9.646-111.622 12.402-2.756 2.756 30.317 37.207 71.659 77.17 66.146 62.012 77.17 79.927 77.17 121.268-1.378 42.72-11.024 57.878-75.792 110.244-41.342 33.072-71.659 64.767-67.524 71.658 4.134 6.89 56.5 12.402 117.133 12.402 88.195 0 108.865 4.134 108.865 20.67 0 11.025 9.647 20.671 20.671 20.671 16.536 0 20.67 20.67 20.67 108.866 0 60.633 5.513 112.999 12.403 117.133s45.475-26.183 85.439-67.524c95.084-99.219 121.267-99.219 219.108 0 39.963 41.341 78.548 71.658 85.439 67.524 5.512-4.134 11.024-56.5 11.024-117.133 0-84.061 4.134-108.866 19.293-108.866 11.024 0 22.048-9.646 27.56-20.67 5.513-15.159 31.695-20.671 110.244-20.671 56.5 0 106.109-5.512 110.243-12.402s-26.183-38.586-67.524-71.658c-64.768-52.366-74.414-67.525-75.792-110.244 0-41.341 11.024-59.256 77.17-121.267 41.341-39.964 74.414-74.415 71.658-77.17-2.756-2.757-52.365-8.269-111.621-12.403-140.56-12.402-161.231-30.317-161.231-151.585 0-125.401-28.939-135.048-101.975-35.829-37.207 50.988-46.854 55.122-106.11 55.122-50.987 0-68.901-6.89-85.438-31.695-28.939-42.72-77.17-92.329-90.95-92.329-5.513 0-15.159 4.134-19.293 9.647m100.597 114.377c27.56 34.451 42.72 41.341 96.463 41.341s68.902-6.89 96.463-41.341c49.61-59.256 68.902-52.366 68.902 22.049 0 50.987 6.89 70.28 39.963 103.353s52.365 39.963 103.353 39.963c34.451 0 63.39 5.512 63.39 12.402 0 8.269-17.915 34.451-41.341 59.256-57.878 63.39-57.878 143.316 0 190.17 57.877 49.61 52.365 68.902-20.671 68.902-34.451 0-62.012 5.512-62.012 13.78 0 6.89-9.646 13.78-23.427 13.78-20.67 0-20.67-1.377 0-24.804 16.537-17.915 23.427-49.61 23.427-100.597 0-62.012-6.89-84.06-37.207-121.268-22.049-24.805-41.341-57.878-45.475-73.036-11.025-42.72-34.451-35.829-38.585 11.024-2.757 26.183 4.134 49.61 16.536 60.634 12.402 9.646 22.049 27.561 22.049 41.341s9.646 31.695 20.67 41.342c23.427 19.292 27.561 90.95 5.512 104.73-9.646 5.513-12.402 28.94-6.89 62.013 4.134 28.939 2.756 55.121-5.512 60.633-6.89 4.135-13.78 33.073-13.78 62.012 0 68.902-13.78 75.793-59.256 28.94-63.39-68.903-155.719-66.147-217.73 4.133C463.158 875.215 448 865.568 448 800.8c-1.378-49.61-38.585-112.999-66.146-112.999-6.89 0-16.537-9.646-22.049-20.67-4.134-13.781-26.183-20.671-63.39-20.671-30.317 0-55.121-5.512-55.121-13.78 0-6.89 17.914-31.696 41.34-55.122 50.988-52.366 53.744-110.244 11.025-175.012-17.914-24.804-35.829-45.475-41.341-45.475-6.89 0-11.024-9.646-11.024-20.67 0-15.159 16.536-20.671 60.633-20.671 49.61 0 68.903-8.268 103.354-42.72S448 219.268 448 169.659c0-71.659 19.292-77.17 68.902-19.293M576.159 7.049c-4.134 11.024 2.756 31.695 15.158 44.097 20.67 20.67 23.427 20.67 44.097 0C664.354 22.207 650.573-15 613.366-15c-15.159 0-31.695 9.646-37.207 22.049" style="stroke-width:1.37804"/>
</svg>
