<svg xmlns="http://www.w3.org/2000/svg" width="1026" height="960">
    <path d="M494.045.449c-211.62 9.867-374.423 192.404-374.423 404.283V821.74c0 5.972 3.375 11.425 8.828 13.762L396.674 957.02c20.253 9.088 43.103-5.713 43.103-27.783V646.212c0-10.126-4.933-19.474-13.502-25.187L286.32 526.511c-22.59-13.502-37.131-38.948-34.794-67.77 3.375-37.91 37.91-65.433 76.079-65.433h113.21c16.877 0 30.38 13.761 30.38 30.38v174.228s0 15.84 41.804 15.84 41.804-15.84 41.804-15.84V423.687a30.253 30.253 0 0 1 30.38-30.38h113.21c38.17 0 72.704 27.524 76.079 65.434 2.597 28.822-12.204 54.268-34.794 67.77l-139.954 94.514c-8.31 5.713-13.502 15.06-13.502 25.187v283.284c0 22.071 22.85 36.871 43.103 27.783L897.55 835.761c5.453-2.597 8.828-7.79 8.828-13.762V393.567C906.638 170.004 719.945-10.197 494.045.45" style="stroke-width:25.9656"/>
</svg>
