<svg xmlns="http://www.w3.org/2000/svg" width="1260" height="960">
    <path d="m439.707 795.378-151.389 2.073-1.659 10.37c-1.659 14.101 6.636 52.26 16.59 73.412 16.591 34.426 60.141 72.999 99.129 87.93 48.112 17.42 131.065 26.13 172.126 17.42 9.125-2.074 26.13-5.807 38.158-8.295 12.029-2.489 24.886-5.807 29.034-7.88 4.148-2.49 16.176-7.881 26.96-12.858 42.72-19.909 76.316-62.63 88.759-112.401 7.465-31.107 7.465-48.112-.83-51.43-6.636-2.49-41.061-2.49-316.878 1.659m638.32-145.997c-3.734 3.733-22.813 22.397-42.307 41.062-19.908 18.664-36.084 34.84-36.084 36.084 0 4.977 12.858 2.489 24.056-4.562 14.517-9.125 54.749-47.698 54.749-52.675 0-2.074 3.318-7.466 7.05-11.614 4.563-4.977 5.393-9.124 2.904-11.613s-6.221-1.66-10.369 3.318M327.72 608.734l-76.731 2.074-1.245 75.902c-.83 75.072-.83 75.487 8.296 79.634 6.221 2.903 100.372 3.318 272.913 1.244l263.374-3.318V606.661H599.39c-107.009-.415-229.364.829-271.67 2.073m466.607-37.743c-1.244 2.074-.414 4.977 1.66 6.221 5.391 3.319 17.42-1.659 14.516-6.221-2.903-4.977-12.857-4.977-16.176 0m232.268-4.977c-8.71 2.488-19.08 11.613-115.72 102.446-34.01 32.352-66.361 62.63-71.753 68.021-6.222 5.807-9.125 12.028-7.88 15.761 2.073 5.392 9.124 6.222 41.476 4.977l39.402-1.244 34.425-33.181c54.75-52.675 148.9-140.604 153.463-143.508 2.488-1.659 3.318-5.806 2.073-9.54-2.073-5.391-8.71-6.635-34.84-6.22-17.834.414-36.084 1.658-40.646 2.488m-123.185.83c-31.937 2.488-31.937 2.488-55.163 24.47l-22.812 21.568v35.255c0 27.374 1.244 36.084 6.221 37.743 3.733 1.66 20.738-12.028 46.454-36.914 22.397-21.982 49.356-47.697 60.555-57.652 15.346-14.102 18.25-19.493 14.517-23.226-2.904-2.904-7.88-4.563-11.199-4.148-3.733.415-21.153 1.659-38.573 2.903m216.091-95.81c-5.806 6.22-20.323 19.908-31.936 31.106-11.614 10.784-23.227 23.227-25.716 28.204-4.562 7.88-3.732 8.296 36.085 7.051l40.647-1.244 1.244-38.573c1.244-42.306-1.66-46.039-20.324-26.545m-432.182-87.93c-4.148 4.562 1.244 9.954 9.954 9.954 4.148 0 7.88-2.903 7.88-6.222 0-6.221-12.857-8.71-17.834-3.732m380.337 2.488c-6.636 5.392-15.76 13.273-20.323 18.25-4.563 4.562-35.255 33.18-68.436 63.873-60.556 55.993-66.362 61.8-66.362 67.192 0 2.073 18.664 3.318 41.476 3.318h41.476l34.01-32.352c101.203-94.98 111.572-106.179 110.328-116.963-1.244-9.954-2.489-10.369-30.693-11.613-25.3-.83-30.692 0-41.476 8.295m-138.945-5.807c-3.733 1.66-34.426 29.034-68.021 60.97-33.596 31.937-64.703 60.556-68.851 63.46-8.71 5.806-10.784 27.374-3.733 31.936 4.148 2.489 26.545 3.318 52.26 2.489 9.54-.415 12.028-2.49 96.225-82.538 34.425-32.766 65.533-62.215 69.68-64.703 13.687-10.37 2.489-14.932-34.84-14.517-19.908 0-38.988 1.244-42.72 2.903m-157.195-.414c-10.37 3.733-41.477 35.67-41.477 42.72 0 3.318 5.807 11.614 12.443 18.25s13.273 15.346 14.517 19.494c5.392 17.005 15.346 12.028 60.555-30.278 24.886-23.227 44.795-44.38 43.965-46.453-1.659-4.563-77.975-7.466-90.003-3.733m-257.983 0-127.747 1.244v13.687c0 16.176-2.073 18.664-23.226 32.766-26.13 17.006-41.062 32.352-54.334 57.238-14.517 26.13-29.034 77.975-24.886 88.344 2.489 6.636 21.153 7.051 236 7.051 128.576 0 236-1.66 238.488-3.318 4.148-2.489 4.148-9.954-.414-34.01-6.637-36.5-13.688-53.505-32.352-77.561-14.102-17.835-49.357-46.868-56.822-46.868-5.807 0-9.955-7.88-12.858-24.886-1.244-8.71-4.562-14.517-8.295-14.517-3.318 0-63.459.415-133.554.83m503.107-86.271c-32.351 30.278-50.6 50.601-48.527 53.504 3.318 5.392 35.67 6.637 66.777 2.074 16.59-2.074 23.227-5.806 41.89-24.885 12.444-12.029 22.398-23.227 22.398-24.886-.415-12.443-21.153-55.164-26.545-55.164-2.488.415-27.789 22.398-55.993 49.357m-751.964-34.01c-9.955 8.71-34.01 31.522-53.92 50.6l-36.498 35.255v41.477c0 44.794-2.49 58.066-16.591 93.736-4.977 12.443-10.37 28.204-12.443 35.255-2.074 6.636-7.88 22.812-12.858 35.255-9.124 21.567-9.954 29.033-11.198 124.014l-1.244 101.616 15.76 22.812c36.5 54.749 53.09 75.072 60.141 75.072 10.784 0 13.273-9.954 6.222-23.641-3.733-6.221-12.029-24.056-19.08-39.817l-12.857-27.79V600.44l37.328-62.63c20.324-34.424 37.33-63.458 37.33-64.702s6.635-10.37 14.516-20.323c13.272-16.176 14.516-19.909 14.516-43.965 0-21.153 1.66-28.619 8.296-35.67 10.784-11.198 18.25-12.857 62.214-14.102l35.255-1.244V245.817l-48.527-1.244-48.527-1.244zm239.318-58.067c-31.937.83-62.215 2.074-67.607 3.318s-15.76 9.125-23.641 17.005l-14.517 14.932v59.725c0 52.675.83 59.726 7.466 62.63 3.733 1.659 58.482 2.488 121.11 1.244l114.06-2.074 1.245-60.97 1.244-60.97-14.932-14.517c-19.493-19.908-27.374-23.227-48.527-22.397-9.954.415-43.965 1.659-75.901 2.074m457.068-4.148c-16.59 15.346-44.794 42.306-63.044 59.726s-45.624 43.965-60.97 58.896c-15.76 14.517-28.204 28.619-28.204 31.522 0 7.051 87.1 5.807 96.225-1.244 4.148-2.903 37.329-34.01 73.828-68.85l66.777-63.46-9.125-9.954c-5.392-4.977-11.613-9.54-14.517-9.54-3.318 0-9.54-5.806-14.931-12.442-4.977-7.051-10.784-12.443-12.443-12.443-2.074 0-17.005 12.443-33.596 27.79m-228.12-45.624c-1.658 1.245-2.903 7.466-2.903 13.687 0 13.273-5.392 19.909-28.204 35.255-9.954 6.636-21.567 16.59-26.13 21.983-10.783 14.102-10.369 50.6.83 50.6 2.074 0 21.153-16.59 42.306-36.913 20.738-20.324 46.868-45.21 57.237-55.164 34.425-32.766 34.84-32.351-5.392-32.351-19.494 0-36.499 1.244-37.743 2.903m134.798-1.244c-7.465 3.733-19.908 15.346-118.207 108.253-34.01 31.937-63.044 58.896-64.288 60.14-9.954 7.466-17.42 20.324-14.932 26.545 2.074 5.392 8.71 6.637 37.33 6.637h34.424l34.426-31.937C894.7 210.562 954.842 152.08 952.354 149.592c-3.319-3.733-78.391-2.903-84.613.415m92.078-91.663c-7.051 7.051-25.3 25.3-40.232 39.403-15.346 14.517-26.96 28.204-25.3 30.278 1.244 2.073 20.737 3.732 43.135 3.732 49.771 0 50.6-.83 48.942-50.6-1.245-40.233-6.222-44.38-26.545-22.813m-269.181-26.13c-10.784 9.125-34.84 31.522-53.09 49.357-18.664 18.25-46.038 44.38-60.97 58.067-31.107 29.033-29.863 34.01 7.88 30.692 30.693-2.488 33.596-3.732 33.596-12.857 0-14.517 17.42-25.716 39.818-25.716 19.493 0 21.982-1.244 43.135-22.811l22.812-22.812 1.244-30.693c1.66-27.789.83-31.107-6.636-35.255-7.466-3.733-11.613-2.074-27.79 12.028m-69.265-13.272c-3.733 1.659-28.204 23.227-54.75 47.698-34.84 32.766-48.112 47.697-48.112 54.748 0 5.392 1.66 10.784 4.148 12.443 2.074 1.245 21.153-14.102 42.306-34.425s48.112-45.624 59.31-55.993c17.006-16.176 19.495-20.323 14.518-23.641-7.051-4.563-7.88-4.563-17.42-.83M868.57 2.352c-18.664 17.42-54.749 51.845-80.05 75.901s-46.038 46.039-46.038 48.942 13.273 4.562 43.135 4.562h43.136l36.499-34.01c20.323-18.664 41.891-38.988 47.698-44.794 5.806-5.807 20.323-19.08 31.522-29.863 26.96-24.886 28.618-29.863 14.516-42.72C949.864-27.927 943.643-30 924.98-30c-22.812.415-22.812.415-56.408 32.351M761.147-12.996c-18.664 17.006-18.664 17.42-18.664 45.624 0 15.346 1.66 29.034 3.318 30.278 4.563 2.903 97.47-86.27 93.737-90.004-1.66-1.659-15.761-2.903-31.522-2.903-27.375 0-29.034.415-46.869 17.005" style="stroke-width:.414763"/>
</svg>
