<svg xmlns="http://www.w3.org/2000/svg" width="1200" height="960">
    <path d="M433.95 764.272c-60.786 2.026-175.062 18.64-222.88 32.419-54.301 15.398-79.83 29.176-87.53 48.222-12.562 30.393 10.13 54.707 67.269 71.322 54.301 16.21 130.89 31.608 158.446 31.608 9.726 0 39.713 2.837 66.459 6.078 68.484 8.105 299.063 8.105 364.71 0 26.746-3.241 56.733-6.078 66.864-6.078 30.393 0 124.002-18.236 166.146-32.419 40.929-13.778 57.544-25.124 64.027-44.17 7.7-22.288-3.242-39.308-35.66-55.923-14.589-7.294-29.988-12.967-34.04-13.372-4.458 0-17.02-2.432-28.366-5.674-56.733-16.209-150.342-29.987-213.154-31.608l-42.55-1.216v36.471l38.498 2.432c47.412 3.242 124.407 14.588 134.133 19.856 4.052 2.432 10.94 4.053 15.804 4.053 4.863 0 13.778 2.431 19.45 5.673 6.08 3.242 14.184 6.889 18.236 8.105 3.648 1.215 6.89 5.673 6.89 10.536 0 8.51-17.83 18.235-44.576 24.719-7.7 1.621-21.478 4.863-30.393 7.294-54.706 13.373-186.002 24.72-285.69 24.72-87.936 0-234.63-14.184-276.37-26.746-10.536-3.242-21.477-5.673-24.314-5.673-10.941 0-43.765-18.236-43.765-24.72 0-15.804 123.596-46.196 202.617-49.438 21.072-.81 22.288-1.216 25.935-13.778 3.647-13.778-2.026-26.34-11.347-24.72-2.431.406-18.235 1.216-34.85 2.027m142.642-155.205c-5.268 2.837-12.968 10.536-17.425 17.02-6.89 10.536-7.7 19.451-7.7 80.236 0 79.021 3.647 89.557 32.419 101.309 14.994 5.673 17.425 5.673 32.419 0 28.771-11.752 32.418-22.693 32.418-100.903 0-62.407-.81-69.296-8.51-81.858-12.967-20.667-41.739-27.96-63.621-15.804M383.7 530.047c-20.261 13.372-22.288 21.477-22.693 85.504v58.759l12.562 15.399c11.347 13.778 14.184 14.993 33.635 14.993 18.64 0 22.693-1.62 34.04-13.372l12.967-13.373V551.119l-14.994-14.589c-17.02-16.614-36.47-19.046-55.517-6.484M400.72 348.5c-4.052 2.027-7.294 6.484-7.294 9.32 0 5.674-23.504 28.772-33.23 32.014-3.646 1.216-8.51 6.079-10.94 10.536-3.648 6.484-2.432 9.32 7.294 16.21 6.483 4.863 13.372 8.51 15.398 8.51 4.458 0 18.641 18.64 22.694 29.177 4.457 12.967 21.477 8.915 31.203-7.295 5.268-7.699 16.209-18.64 25.124-24.314 19.046-12.157 19.857-24.719 2.026-33.229-6.078-2.837-17.83-14.588-25.935-25.53-16.614-21.477-16.21-21.477-26.34-15.399m379.3-23.098c-6.89 3.242-16.615 10.941-21.478 17.83-8.105 11.752-8.51 15.4-8.51 145.48.405 143.858.405 145.073 22.693 159.662 14.589 9.725 32.824 9.725 47.413.405 23.503-15.804 22.693-11.347 22.693-160.878 0-136.159 0-137.78-8.916-148.316-4.862-5.673-14.993-12.562-22.693-15.399-16.614-5.268-15.804-5.268-31.203 1.216m8.914-185.597c-3.647 3.242-6.483 7.7-6.483 9.32 0 5.268-29.582 32.824-34.85 32.824-6.484 0-13.373 12.157-10.942 19.046 1.216 2.837 3.647 5.268 6.079 5.268 7.294 0 35.255 24.72 40.523 35.66 8.105 17.02 19.857 15.805 30.798-3.241 4.863-8.915 16.21-20.262 25.125-25.125 21.882-12.562 21.882-23.908 0-36.065-9.726-5.268-20.667-16.615-26.746-26.746-10.941-19.046-14.183-20.667-23.504-10.941m-402.397-30.798c-5.268 2.026-12.968 9.726-17.425 17.02-6.89 11.752-8.105 20.667-8.105 69.295 0 62.406 3.647 75.373 24.314 85.91 14.994 7.699 29.582 7.699 44.576 0 22.693-11.752 24.314-18.236 24.314-87.126-.405-59.975-.81-63.216-9.726-74.563-7.7-9.32-13.372-11.752-29.177-12.967-10.94-.81-23.908 0-28.771 2.431M573.755 6.889c-23.503 19.451-22.288 6.484-22.288 258.134 0 219.637.405 231.389 7.7 242.735 9.725 14.589 27.96 26.746 40.928 26.746s31.203-12.157 40.929-26.746c7.294-11.346 7.7-23.098 7.7-242.735 0-211.937-.406-232.199-6.89-241.114C629.272 5.673 619.141 0 600.095 0c-11.346 0-21.477 2.431-26.34 6.889" style="stroke-width:.405234"/>
</svg>
