<svg xmlns="http://www.w3.org/2000/svg" width="1200" height="960">
    <path d="M546.374 0 381.099 249.846l130.696 130.696 82.637-107.663V23.62zm107.018 0L606.33 23.62v249.26l82.637 107.662 130.52-130.696zm-284.25 260.22L120.47 427.077l23.795 46.124h249.904l105.67-82.637zm461.715.586L700.161 392.088l105.67 82.637h249.905l23.795-48.058zM600.41 382.066c-57.734 0-104.557 46.823-104.557 104.557s46.823 104.556 104.557 104.556c57.704-.09 104.378-46.852 104.498-104.556 0-57.734-46.764-104.557-104.498-104.557m0 19.223c47.142 0 85.334 38.192 85.334 85.334s-38.192 85.333-85.334 85.333-85.333-38.192-85.333-85.333 38.192-85.334 85.333-85.334m-10.198 49.817-34.637 26.315v14.945l34.637 26.374v-18.872l-15.12-14.945 15.12-15.004zm18.814 0v18.813l15.12 15.004-15.12 14.945v18.872l34.578-26.374v-14.945zm-9.436 26.257c-5.222 0-9.378 4.244-9.378 9.436 0 5.22 4.156 9.435 9.378 9.435s9.436-4.244 9.436-9.435a9.423 9.423 0 0 0-9.436-9.436m207.414 8.146-105.67 82.638 129.699 131.282 249.084-165.92-23.619-48zm-663.502 1.524-23.62 46.124 249.085 166.799 129.7-130.286-105.67-82.637zm368.293 93.421L381.099 711.092 546.374 960l48.058-23.62V688.06zm177.172 0L606.33 688.06v248.32L653.392 960l166.095-248.908z" style="stroke-width:30.0073"/>
</svg>
