<svg xmlns="http://www.w3.org/2000/svg" width="1200" height="960">
    <path d="m418.388 297.843-79.909 79.91v203.405l79.91 79.909 79.908 79.91h203.406l79.909-79.91 79.909-79.91V377.754l-79.91-79.91-79.908-79.909H498.297zm265.88 0c-4.359 4.359-18.888 2.906-31.964-1.453-20.34-7.264-21.793-13.076-5.811-21.793 18.887-11.623 52.304 8.717 37.775 23.246m90.08 82.815c0 21.794-40.682 11.623-49.4-14.529-4.358-13.076-13.075-34.87-17.434-46.492-5.811-11.623 7.265-5.812 29.058 13.076 20.34 20.34 37.775 40.68 37.775 47.945m-104.609 29.058c23.246 23.247 23.246 116.232 0 139.478-24.7 24.7-98.797 21.794-130.76-7.264-31.964-29.058-33.417-88.627-1.453-123.496 26.152-29.058 106.06-34.87 132.213-8.718M475.051 591.328c4.359 14.529 13.076 36.322 17.435 47.946 5.811 11.623-7.265 5.811-29.058-13.077-20.34-20.34-37.775-40.68-37.775-47.945 0-21.793 40.68-11.623 49.398 13.076m87.174 75.55c4.358 7.265 0 15.982-11.623 20.341-21.794 8.717-37.776-1.453-37.776-21.793 0-15.982 39.229-14.53 49.399 1.453M448.899 21.794c-11.623 11.624-34.87 21.794-50.851 21.794-40.681 0-233.916 193.235-233.916 233.916 0 15.982-10.17 39.228-21.794 50.851-30.51 30.51-30.51 264.427 0 305.108 11.623 14.529 21.794 39.228 21.794 52.304 0 37.775 196.14 229.558 233.916 229.558 15.982 0 39.228 10.17 50.851 21.793 31.964 30.51 270.238 30.51 302.202 0 11.623-11.623 34.87-21.793 50.851-21.793 40.681 0 233.916-193.235 233.916-233.917 0-15.981 10.17-39.228 21.794-50.85 30.51-30.512 30.51-264.428 0-305.109-11.623-14.529-21.794-39.228-21.794-52.304 0-37.775-196.14-229.557-233.916-229.557-15.981 0-39.228-10.17-50.851-21.794C733.666 5.812 694.438 0 600 0S466.334 5.812 448.899 21.793m84.268 30.511c13.076 4.359 23.246 20.34 23.246 34.87 0 56.663 58.116 50.851 84.268-8.718 13.076-26.152 27.605-34.87 65.38-34.87 61.022 0 91.533 46.493 75.55 114.78-7.264 36.322-4.358 45.04 15.983 45.04 14.529 0 36.322-8.718 47.945-20.341 27.605-24.7 103.156-14.53 103.156 13.076 0 10.17 10.17 26.152 21.793 36.322 30.51 24.7 27.605 45.04-14.529 90.08-49.398 53.757-46.492 74.097 8.718 62.474 55.21-13.076 71.191 5.812 71.191 87.174 0 77.003-17.434 98.797-71.191 97.344-55.21-1.453-56.663 18.887-8.718 63.927 42.134 37.775 46.493 66.833 14.53 92.985-11.624 10.17-21.794 27.605-21.794 37.775 0 27.605-68.286 26.153-95.891-1.452-13.076-11.624-29.058-21.794-36.323-21.794-24.699 0-33.416 46.493-14.529 75.55 14.53 24.7 11.624 33.417-20.34 63.928-53.757 49.398-138.025 45.04-138.025-8.717 0-56.663-58.116-50.852-84.268 8.717-13.076 26.152-27.605 34.87-65.38 34.87-61.022 0-91.533-46.493-75.55-114.78 7.264-36.322 4.358-45.039-15.983-45.039-14.529 0-36.322 8.717-47.945 20.34-27.605 24.7-103.156 14.53-103.156-13.075 0-10.17-10.17-26.153-21.793-36.323-30.51-24.699-27.605-45.04 14.529-90.08 49.398-53.756 45.04-69.738-17.435-65.38l-55.21 2.906-4.359-72.644c-4.358-90.08 10.17-113.326 68.287-111.873 55.21 1.453 56.662-18.888 8.717-63.928-42.134-37.775-46.493-66.833-14.53-92.985 11.624-10.17 21.794-27.605 21.794-37.775 0-27.605 68.286-26.152 95.891 1.453 13.076 11.623 29.058 21.793 36.323 21.793 24.699 0 33.416-46.492 14.529-77.003-15.982-24.7-13.076-33.417 23.246-62.475 42.134-34.87 71.192-42.134 111.873-26.152" style="stroke-width:1.45289"/>
</svg>
