<svg xmlns="http://www.w3.org/2000/svg" width="1200" height="960">
    <path d="M506.422 9.179c-82.174 18.477-135.174 42.788-196.926 89.467-40.844 31.12-60.78 51.541-92.87 95.788-31.12 43.275-35.01 49.597-47.166 74.88-52.513 110.376-63.21 223.183-32.091 337.935 35.009 129.338 131.283 247.98 245.063 301.466 12.156 5.835 27.715 13.615 35.009 17.504 6.807 3.89 16.045 6.808 20.908 6.808 4.376 0 13.614 2.917 20.908 6.807 7.293 3.404 23.34 7.78 35.495 9.725 21.88 3.403 22.853 2.917 33.064-14.101 14.101-24.312 13.128-32.578-2.917-31.12-25.285 1.946-30.633 0-30.633-11.183 0-15.56 19.936-53.486 33.55-64.669 6.807-5.349 22.367-18.963 34.523-30.633l21.88-20.422-25.77-24.312c-28.688-27.229-35.009-29.66-35.009-12.642 0 6.321-2.917 17.991-6.807 25.77-8.266 16.533-17.505 43.276-20.908 59.808-6.321 30.146-43.275 47.65-67.587 31.605-6.808-4.376-15.56-15.073-19.45-23.34-3.89-8.751-8.752-18.962-11.183-22.852-19.45-33.064-29.174-106.486-18.963-137.119 4.862-13.614 26.256-23.825 45.22-21.88 8.266.972 9.724-2.918 13.128-28.202 1.945-16.046 6.321-33.55 9.239-39.385 2.917-5.349 4.376-18.477 3.403-29.174-1.459-17.991-2.431-18.963-17.99-18.963-10.698 0-17.991-2.918-20.422-8.753-2.432-4.376-6.322-12.156-8.266-17.018-2.432-4.376-9.725-10.697-16.046-14.1-26.257-13.13-48.138-48.138-48.138-78.285 0-25.77 12.156-51.54 35.496-74.88 22.366-22.367 24.311-23.34 51.054-23.34 39.385 0 83.633 24.312 83.633 45.22 0 11.184 34.523 47.165 45.22 47.165 4.376 0 10.21-4.376 13.128-9.724 3.89-7.294 10.211-9.725 23.826-9.725 10.697 0 21.394-2.917 24.798-7.294 3.403-3.89 8.752-7.293 11.67-7.293 2.917-.486 9.724-3.89 15.073-8.752 13.614-11.184 55.917-67.1 55.917-73.422 0-2.917 3.404-15.56 7.78-28.202 7.293-21.88 7.293-26.256-.487-68.559-6.32-34.036-10.697-46.679-17.99-51.055-11.184-6.807-28.202-37.926-28.202-51.054 0-4.863 3.404-13.129 7.294-18.477 4.376-5.835 5.834-15.074 4.376-24.312-1.459-8.752-.973-16.532 1.945-18.477 2.43-1.459 18.477-.486 35.495 2.431 45.22 7.294 59.32 21.88 61.752 66.128.972 17.99 4.376 35.982 7.78 39.871 2.917 3.89 8.266 34.523 11.67 68.073s7.293 70.99 8.751 82.174c3.89 27.23-7.78 54.459-35.495 83.147-11.67 11.67-20.908 23.825-20.908 26.256 0 2.918-3.404 8.753-7.78 13.615-12.156 13.128-9.724 34.036 7.294 58.348 8.266 12.642 15.073 26.743 15.073 32.092 0 4.862 2.918 13.128 6.807 18.477 3.404 5.348 7.78 16.046 9.239 24.312 1.459 7.78 8.266 31.119 15.073 51.054s12.642 40.358 12.642 46.193c0 9.238 8.266 37.926 21.881 75.366 3.89 9.239 7.78 20.908 9.238 25.285 1.945 6.32 7.78 8.752 21.881 8.752 28.688 0 37.44 15.073 35.982 61.752-1.46 47.165 4.376 46.678 54.458-4.863 82.66-84.605 124.476-173.586 133.715-287.851 10.21-119.614-14.101-217.834-77.312-313.622C960.566 152.618 876.933 78.71 817.613 51.48c-10.698-4.862-23.34-11.183-28.688-14.1-14.587-7.78-50.569-18.478-97.247-28.689-54.945-11.67-131.284-11.67-185.256.487" style="stroke-width:.486236"/>
</svg>
