<svg xmlns="http://www.w3.org/2000/svg" width="1200" height="960">
    <path d="M448.333 280.256c-3.965 11.895-2.478 60.964 3.47 96.65 3.965 25.278 6.939 61.956 6.939 81.781 0 41.139 3.965 50.06 20.32 48.573 21.314-1.982 24.288 0 24.288 14.374s24.286 67.408 39.651 87.233c14.87 18.835 69.886 71.869 74.842 71.869 2.974 0 12.391 5.452 20.817 11.4 25.774 19.33 58.486 33.703 67.903 30.73 8.922-2.974 24.783-30.235 24.783-43.122 0-3.965-8.922-10.904-19.33-15.364-38.165-16.852-76.825-65.425-95.66-119.946-10.904-30.73-11.4-80.79-1.487-99.625 3.966-7.93 7.435-18.338 7.435-23.295 0-6.939 4.46-8.426 22.8-8.426s24.782-2.478 35.686-13.878c7.435-7.93 16.852-15.86 21.313-17.347s12.39-12.392 18.338-24.287c10.905-22.304 33.209-48.573 53.53-61.46 6.443-4.46 10.409-9.913 8.922-12.39-1.983-3.966-333.073-6.94-334.56-3.47M280.31 239.613c-9.417 1.982-23.791 6.443-31.721 9.417l-14.374 5.948 23.295 21.808c12.391 12.391 22.8 24.782 22.8 28.252s-34.695 41.138-77.32 83.268c-42.13 42.13-79.304 80.79-82.278 86.242-4.46 7.93 25.278 39.651 229.484 244.352 129.363 129.363 238.9 237.414 243.856 240.388 7.93 3.965 21.313-6.94 90.703-75.834 44.608-44.608 81.286-83.268 81.286-86.242 0-8.426-31.226-42.13-39.156-42.13-3.47 0-33.208 26.765-65.92 59.478-32.218 32.712-59.974 59.477-60.965 59.477-1.983 0-394.037-391.559-394.037-393.541 0-2.974 123.416-126.885 126.39-126.885 1.486 0 12.39 10.408 24.286 22.8 13.878 14.373 25.278 22.303 31.226 20.817 7.93-1.487 8.921-8.922 11.4-79.8 1.982-62.946.99-78.31-4.461-80.293-9.418-3.47-93.181-1.487-114.494 2.478M515.245 76.546c-44.608 44.608-81.286 83.268-81.286 86.242 0 8.426 31.722 42.13 39.156 42.13 3.965 0 33.208-26.765 65.425-59.477 32.217-32.713 59.973-59.478 60.964-59.478 2.974 0 394.533 391.559 394.533 394.037s-123.911 126.39-126.39 126.39c-1.486 0-12.39-10.41-24.286-22.8-13.878-14.374-25.278-22.304-31.225-20.818-8.426 1.487-8.922 7.93-8.922 80.79v79.303l44.112 1.487c43.617 1.487 75.834-2.974 104.085-13.878l14.374-5.452-23.295-21.808c-12.391-12.391-22.8-24.782-22.8-28.252s34.695-41.138 77.32-83.268c42.13-42.13 79.304-80.79 82.278-86.242 4.46-7.93-25.278-39.651-229.483-244.352C720.44 111.737 610.905 3.686 605.948.712c-7.93-3.965-21.313 6.94-90.703 75.834" style="stroke-width:.495644"/>
</svg>
