<svg xmlns="http://www.w3.org/2000/svg" width="1357" height="960">
    <path d="M119.955-30c12.427 70.307 23.014 131.02 34.5 196.09l408.34 408.887 14.455-14.932a550 550 0 0 1-59.386-63.477l-.819-1.09 14.728-7.5c24.82 15.115 36.788 44.241 64.227 53.317l47.523-47.659zm1117.09 0-554.59 554.795c-12.323 12.219-23.966 25.097-37.091 36.478-3.908 3.419-11.336 8.1-41.796 40.909-.85 1.222-2.04 2.863-3.818 4.704-3.293 3.432-6.654 6.801-9.955 10.228-13.565 15.038-30.017 33.519-51.818 58.84 28.497-33.937 37.344-43.407 47.046-54-30.097 31.166-60.514 62.087-92.114 91.705-18.362 17.734-37.151 37.301-43.295 60.341l-.069.477c-4.887 20.701-18.717 37.955-37.568 47.66-46.813 22.027-70.878 65.744-108.545 97.022l28.84 28.364 148.705-148.228c51.002-9.39 84.137 30.872 133.568 34.432l-66.954-66.954L601.864 702c20.381-14.35 45.19-22.773 72-22.773 5.236 0 10.395.328 14.863.887l513.819-514.023c11.485-65.07 22.072-125.784 34.5-196.091M585.023 621.955c1.574-1.63 3.2-3.21 4.772-4.841 5.716-6.336 9.253-10.064 13.773-14.932 1.764-2.538-7.65 7.877-18.545 19.773M191.545 103.432c9.6 9.6 18.564 18.46 27.955 27.954l-22.295 21.955c-3.655-17.052-6.632-29.405-8.932-41.864.025-2.085 1.817-4.51 3.272-8.045m974.114.136c1.466 3.56 3.273 6.02 3.273 8.114-2.304 12.183-5.198 24.622-8.864 41.727l-22.363-21.886zm-937.5 80.387 264.068 264.068-12.204 12.204c-88.355-88.25-176.026-175.994-264.137-264zm900.887 0 12.272 12.272-264.136 264-12.205-12.204zM825.5 488.25l14.66 7.5c-21.47 30.161-49.145 51.462-75.955 81.205l-11.66-33.273c33.949-5.062 45.64-38.757 72.955-55.432m-98.795 53.114 11.181.954v1.364h-.272v-.068c-3.369 1.45-7.005 2.351-10.91 2.454zm23.318 2.25c.872 0 1.721.033 2.454.068h-3c.189-.002.357-.068.546-.068m41.25 98.045-.614.614c5.197 6.02 12.143 14.34 18.75 22.159L790.25 642.34l-50.455 50.59c5.411 2.724 10.444 5.723 15.75 8.864l54.682 64.705-66.954 67.023c49.431-3.561 82.566-43.823 133.568-34.432l148.023 148.432 28.909-28.432c-37.667-31.279-61.723-74.927-108.955-96.955v.069c-18.85-9.705-32.68-27.027-37.568-47.728l-.136-.477c-5.725-23.04-24.106-42.748-42.887-60.273-24.925-23.459-49.181-47.632-72.954-72.068m-151.841 1.296h4.636l-.954 11.181h-2.796a16.8 16.8 0 0 1 3.75 10.432h-4.704l.954-11.182h2.796c-2.304-2.851-3.648-6.485-3.682-10.431m-37.091 20.863 7.432 7.432-2.387 2.523-7.431-7.432zm-26.864.205 12.205 12.204-3.137 4.16-15-9.682zm206.25 0 6 6.682-15.068 9.681-3.136-4.159zm-243.818 12c-26.787 36.933-41.497 58.752-52.09 75.409l12.954 13.023-3.341 4.227-13.841-10.432c-15.56 25.593-14.444 30.752-9.818 33.34l-17.318 21.615c-.485-9.929 1.545-19.377 25.84-55.91l-6.818-5.113 5.932-7.16 5.318 5.387c12.321-18.094 28.369-40.683 53.182-74.386m-53.182 74.386c-1.882 2.764-2.784 4.408-4.432 6.886l1.296.955a386 386 0 0 1 4.227-6.818zm340.705-65.795c19.777 26.968 36.375 49.788 47.182 65.659l5.318-5.25 5.932 7.159-6.682 4.909c26.391 39.203 26.087 45.92 25.773 56.114l-17.387-21.614c4.57-2.721 8.179-4.912-9.613-33.546l1.159-.954-4.569-6.818-.954.954 4.364 6.75-14.319 10.432-3.34-4.159 13.227-13.227c-9.22-14.646-25.732-37.927-46.091-66.41m-282 8.727 7.295 7.432-2.386 2.386-7.432-7.295zm270.34 0 2.523 2.523-7.431 7.295-2.387-2.386zm-284.931 30.75h4.568l-.818 11.182h-2.932c2.304 2.817 3.75 6.417 3.75 10.363v.069h-4.568l.818-11.182h2.864c-2.304-2.749-3.682-6.385-3.682-10.296zm294.954.545h4.569v.137c0 3.944-1.411 7.537-3.75 10.295h2.931c0 3.77.677 7.412.887 11.182h-4.637c0-3.946 1.446-7.615 3.75-10.432h-2.931zm-267.954 5.66 2.386 2.386-7.363 7.432-2.455-2.523zm245.659 0 7.364 7.295-2.387 2.454-7.432-7.363zm-274.773 29.522 2.046 2.387-7.296 7.431-2.522-2.522zm304.296 0 7.363 7.296-2.454 2.522-7.296-7.431zm-536.591 169.16-27 27L301.455 990h.068c7.75-.21 15.257-1.386 21.75-3.34 5.62-2.27 9.457-8.913 14.659-14.115zm768.545 0-43.5 43.567c5.202 5.202 9.039 11.845 14.66 14.114 6.423 1.92 13.832 3.132 21.477 3.341h.136l34.227-34.023z" style="stroke-width:34.9091"/>
</svg>
