<svg xmlns="http://www.w3.org/2000/svg" width="1048" height="960">
    <path d="M521.006.003a403.864 380.691 0 0 0-400.88 380.694 403.864 380.691 0 0 0 .514 18.885 105 105 0 0 0-.514 10.06V676.13A105.104 105.104 0 0 0 225.23 781.234h40.578v108.697A70.07 70.07 0 0 0 335.877 960h22.615V834.197h33.085V960h66.203V834.197h33.118V960h66.204V834.197h33.118V960h66.203V834.197h33.085V960h22.615a70.07 70.07 0 0 0 70.07-70.07V781.235h40.577A105.104 105.104 0 0 0 927.874 676.13V409.641a105 105 0 0 0-.514-10.195 403.864 380.691 0 0 0 .514-18.75A403.864 380.691 0 0 0 524.017.004a403.864 380.691 0 0 0-3.01 0" style="stroke-width:10.6667"/>
</svg>
