<svg xmlns="http://www.w3.org/2000/svg" width="1200" height="960">
    <path d="M555.29 902.413C387.933 687.23 176.27 414.573 169.651 405.648c-36.81-49.647-55.41-118.963-48.993-182.59 10.18-100.956 72.71-184.944 158.818-213.323C302.959 1.995 312.056.67 341.858.65c23.58-.016 29.128.406 41.366 3.146 43.608 9.764 82.007 31.834 112.662 64.751 5.9 6.335 31.559 38.491 57.02 71.458 25.463 32.966 46.7 59.823 47.195 59.68.495-.142 22.527-28.138 48.959-62.212 30.244-38.989 52.622-66.499 60.372-74.216 34.24-34.1 75.838-55.288 121.71-61.995C848.963-1.344 884.436.26 902.31 4.48c94.306 22.268 165.12 108.386 176.773 214.975 6.703 61.315-9.195 127.634-42.527 177.403-5.195 7.756-313.52 405.57-434.041 560.018L600.078 960z" style="fill:#36a288;stroke-width:.9628"/>
</svg>
