<svg xmlns="http://www.w3.org/2000/svg" width="1190" height="960">
    <path d="M172.997 0a53.48 53.48 0 0 0-53.35 53.35v218.102c1.57 0 2.923-.485 4.712-.485a63.686 63.686 0 0 1 0 127.334 31.5 31.5 0 0 1-4.712-.434V906.65a53.48 53.48 0 0 0 53.35 53.35h91.91v-19.28h.213a37.077 37.077 0 0 1 74.155 0V960h40.57v-19.28a37.077 37.077 0 0 1 74.155 0h-1.312V960h40.57v-19.28a37.077 37.077 0 0 1 74.155 0V960h42.573v-19.28a37.077 37.077 0 0 1 74.155 0h.221V960h42.573v-19.28h.213a37.077 37.077 0 0 1 74.155 0h.221V960h43.62v-19.28h.214a37.077 37.077 0 0 1 74.155 0h.221V960h97.277a53.48 53.48 0 0 0 53.341-53.35V397.645a50 50 0 0 1-8.502.869 63.642 63.642 0 0 1 0-127.283 43.4 43.4 0 0 1 7.855.826V53.35A53.48 53.48 0 0 0 1016.219 0zM233.3 54.006a59.586 59.586 0 0 1 59.518 59.407 59.54 59.54 0 0 1-59.756 59.757 59.586 59.586 0 0 1 .238-119.164m722.328 0a59.586 59.586 0 0 1 .358 119.164 59.54 59.54 0 0 1-59.586-59.757l-.307.17a59.586 59.586 0 0 1 59.535-59.577M532.16 185.489a13.09 13.09 0 0 1 12.047 8.452l12.038 30.534a254.2 254.2 0 0 1 55.446-2.488c8.724.611 17.441 1.656 26.47 3.008a4 4 0 0 1 0-.741l13.657-30.799a13.086 13.086 0 0 1 17.449-6.756l85.58 37.776a13.086 13.086 0 0 1 6.764 17.227l-13.35 30.227a257.8 257.8 0 0 1 57.32 58.326c.261 0 .48-.007.74-.443l31.404-12.209a13.086 13.086 0 0 1 17.056 7.54l33.943 87.241a13.086 13.086 0 0 1-7.549 17.014l-30.534 12.038a256.7 256.7 0 0 1 2.096 55.36h-.264c-.611 8.725-1.7 17.442-3.008 26.428h.741l30.927 13.657a13.086 13.086 0 0 1 6.756 17.448L850.12 639.96a13.086 13.086 0 0 1-17.448 6.714l-30.236-13.35a257.4 257.4 0 0 1-58.36 57.32c.262.261.216.522.478.783l12.217 31.412a13.086 13.086 0 0 1-7.549 17.005l-87.24 33.942a13.086 13.086 0 0 1-17.014-7.548l-12.039-30.534a254 254 0 0 1-55.437 2.488c-8.724-.568-17.45-1.664-26.479-3.016a4 4 0 0 1 0 .75l-13.657 30.926a13.086 13.086 0 0 1-17.226 6.756l-85.589-37.776a13.086 13.086 0 0 1-6.756-17.449l13.393-30.185a258 258 0 0 1-57.32-58.36c-.262 0-.522-.001-.784.435l-31.412 12.209a13.086 13.086 0 0 1-17.013-7.54l-33.934-87.24a13.086 13.086 0 0 1 7.548-17.014l30.535-12.039a254 254 0 0 1-2.445-55.445c.567-8.725 1.656-17.443 2.965-26.428h-.742l-30.313-13.657a13.086 13.086 0 0 1-6.722-17.448l37.777-85.58a13.086 13.086 0 0 1 17.448-6.765l30.185 13.35a257.4 257.4 0 0 1 58.146-57.15c-.262-.26.002-.521-.434-.783l-12.26-31.403a13.086 13.086 0 0 1 7.548-17.014l87.241-33.934a13.1 13.1 0 0 1 4.967-.903m62.245 161.745a132.8 132.8 0 0 0-30.083 3.545 132.78 132.78 0 0 0-98.726 159.734 132.78 132.78 0 0 0 159.726 98.725 132.78 132.78 0 0 0 98.734-159.725 132.78 132.78 0 0 0-129.651-102.279" style="stroke-width:4.36205"/>
</svg>
