<svg xmlns="http://www.w3.org/2000/svg" width="1252" height="960">
    <path d="M806.709 749.055c0 2.41 2.81 10.04 6.425 16.465 4.417 9.236 6.023 21.283 4.819 46.18-.803 22.489.401 33.733 3.212 33.733 11.244 0 57.426-75.094 51.803-84.33-1.204-2.008-6.826-4.016-12.448-4.016s-16.465-2.811-24.496-6.024c-16.465-6.827-29.315-7.63-29.315-2.008m-391.536 2.008c-6.425 3.213-16.866 5.622-22.89 6.024-6.023 0-12.047 2.007-13.252 4.015-5.622 9.237 40.56 84.331 51.804 84.331 2.81 0 4.015-11.244 3.212-33.732-1.205-24.898.402-36.945 4.82-46.181 3.613-6.426 6.424-14.055 6.424-16.465 0-5.622-15.661-4.417-30.118 2.008m257.008-54.213c-12.047 13.252-11.244 75.497 1.205 116.457 26.905 88.346 30.118 114.85 18.874 146.575-6.425 18.07-7.63 30.118-2.811 30.118 2.008 0 11.645-11.244 21.283-24.898 46.181-63.448 60.236-111.236 50.197-169.866-5.622-30.118-13.653-57.023-22.087-73.488-2.007-3.614-4.818-10.04-6.023-14.055-2.41-7.63-15.26-13.654-37.748-17.268-12.047-2.008-16.465-.803-22.89 6.425m-132.118-2.81c-8.433 2.81-16.866 7.63-18.472 10.842s-4.82 10.04-7.229 14.858c-10.04 18.874-17.67 44.575-23.291 75.496-10.04 58.63 4.016 106.417 50.197 169.465C550.905 978.756 560.543 990 562.55 990c4.82 0 3.614-12.047-2.81-30.118-11.245-31.724-8.032-58.228 18.873-146.575 12.449-40.559 13.252-103.205 1.606-116.055-8.433-9.236-17.267-10.04-40.157-3.213m188.339-81.922c-6.426 2.008-17.67 6.425-24.898 10.04-15.662 8.433-54.614 42.968-51.402 45.779 1.205 1.205 18.071 2.811 37.347 2.811 37.748.803 34.937 0 125.291 46.583 26.906 13.653 33.33 15.26 59.433 15.661 26.103 0 32.93-1.606 58.229-14.457 16.063-8.031 29.716-15.661 30.92-17.267 1.206-1.607 8.032-6.827 15.26-12.047 21.284-14.859 16.867-18.473-20.078-17.268-32.126 1.606-37.347.401-77.504-17.268-6.425-2.811-14.858-6.425-18.07-7.63s-8.836-4.016-12.048-6.023-8.835-4.82-12.047-6.024c-3.213-1.205-8.835-4.016-12.048-6.024-26.504-15.661-73.89-23.693-98.385-16.866m-261.024.402c-22.89 6.425-42.567 14.858-46.984 19.275-2.811 2.811-8.032 4.82-11.646 4.82s-8.835 2.81-11.646 6.023-7.228 6.023-10.039 6.023c-3.213 0-10.441 2.41-16.866 5.623-31.725 15.66-42.969 18.472-75.496 18.472-18.874 0-34.134 1.606-34.134 3.614s6.024 8.032 13.252 12.85c6.827 5.22 13.653 10.441 14.858 12.048s14.858 9.236 30.921 17.267c25.3 12.85 32.126 14.457 58.229 14.457 26.102-.401 32.527-2.008 59.433-15.661 90.354-46.583 87.543-45.78 125.291-46.583 19.276 0 36.142-1.606 37.347-2.811 3.614-3.213-35.74-37.346-54.615-46.984-18.472-9.638-59.031-14.055-77.905-8.433m384.307-90.756c-7.228 3.614-14.055 8.834-15.26 12.449-3.614 9.236 7.228 46.984 14.457 50.196 3.212 1.607 10.04 4.82 14.858 7.229 18.071 9.236 43.772 17.67 73.488 23.291 24.095 4.418 36.142 4.819 60.237 1.205 16.464-2.811 34.535-6.827 40.157-9.638 34.937-17.268 48.992-25.3 71.48-41.764 29.717-21.283 28.11-29.315-3.614-19.275-36.142 11.645-65.858 8.031-154.205-19.677-28.913-9.237-85.133-11.245-101.598-4.016m-527.268-3.614c-1.204.803-11.645 4.417-23.693 7.63-12.047 3.614-38.15 10.842-58.228 16.464-42.165 11.646-69.472 12.449-97.984 3.213-31.725-10.04-33.33-2.008-3.614 19.275 22.488 16.465 36.543 24.496 71.48 41.764 5.622 2.811 23.693 6.827 40.157 9.638 24.095 3.614 36.142 3.213 60.237-1.205 29.716-5.622 55.417-14.055 73.488-23.291 4.819-2.41 11.645-5.622 14.858-7.229 7.228-3.212 18.071-40.96 14.457-50.196-4.016-10.843-28.512-18.071-59.835-18.071-16.464 0-30.52.803-31.323 2.008m468.236 6.826c-10.44 11.646-20.48 24.898-22.488 29.315s-5.622 10.843-8.433 14.457c-7.63 10.843-1.204 19.677 14.859 19.677 8.031 0 20.078 2.811 26.503 6.425 16.867 8.434 25.701 4.82 19.276-7.228-2.81-5.22-5.22-24.898-5.622-44.575-.402-19.275-1.606-36.141-2.811-37.346-1.205-.803-10.843 7.63-21.284 19.275m-355.795-20.881c0 1.204-.803 18.07-1.205 38.15-.401 19.676-3.212 40.157-6.023 45.377-6.425 12.047 2.41 15.662 19.275 7.228 6.426-3.614 18.473-6.425 26.504-6.425 16.063 0 22.489-8.834 14.859-19.677-2.811-3.614-6.426-10.04-8.433-14.858-4.016-8.835-43.772-53.41-44.977-49.795M802.693 365.55c-5.622 3.213-16.866 5.622-25.3 6.024-16.865 0-23.29 8.433-15.66 19.677 2.81 3.614 6.424 10.04 8.432 14.457 5.22 12.449 40.961 50.598 44.575 48.189 2.008-1.205 2.811-10.843 1.205-21.284-1.606-16.063 1.205-41.764 7.228-64.653 2.008-8.032-8.433-9.237-20.48-2.41m-374.67-3.614c-1.204 1.606-.401 6.425 2.008 11.244 2.41 4.417 4.82 24.095 5.221 43.772.401 19.275 1.606 36.142 2.811 37.346 2.811 2.41 38.953-37.748 43.772-48.59 2.007-4.418 5.622-10.843 8.433-14.457 7.63-11.244 1.204-19.677-15.662-19.677-8.433-.402-19.677-2.811-25.299-6.024-11.244-6.425-17.268-7.228-21.283-3.614m507.19-16.063c-26.103 4.819-52.205 13.252-69.473 22.488-4.819 2.41-11.646 5.622-14.858 7.229-7.229 3.212-18.071 40.96-14.457 50.196 7.63 19.678 69.874 22.89 124.89 6.426 87.945-26.906 110.032-29.717 146.173-17.67 31.725 10.04 33.33 2.008 3.614-19.275-41.763-30.52-75.496-45.78-112.039-51.803-30.118-4.418-28.913-4.82-63.85 2.409m-690.71-.803c-14.456 2.81-29.716 6.827-34.133 9.236s-16.063 8.433-26.102 13.252c-10.04 5.22-29.315 17.67-43.37 27.709-29.717 21.283-28.11 29.315 3.614 19.275 36.142-11.645 65.457-8.031 154.204 19.678 30.52 9.637 81.52 11.645 99.591 4.015 8.433-3.212 16.063-8.834 17.268-12.449 3.614-9.236-7.229-46.984-14.457-50.196-3.213-1.607-10.04-4.82-14.858-7.229-18.071-9.236-43.772-17.67-73.488-22.89-34.536-6.826-33.733-6.826-68.268-.401M814.74 242.669c-90.354 46.583-87.543 45.78-125.291 46.583-19.276 0-36.142 1.606-37.347 2.811-3.614 3.213 35.74 37.346 55.016 47.787 30.118 16.063 85.134 12.048 119.67-8.834 3.212-2.008 8.834-4.82 12.047-6.024 3.212-1.205 8.834-4.016 12.047-6.023s8.834-4.82 12.047-6.024 11.646-4.819 18.071-7.63c6.827-2.811 18.874-8.031 27.307-11.646 10.04-4.015 26.906-6.425 48.992-6.425 18.874 0 34.134-1.606 34.134-3.614s-6.024-8.032-12.85-12.85c-7.229-5.22-14.055-10.441-15.26-12.048s-14.858-9.236-30.921-17.267c-25.3-12.85-32.126-14.457-58.229-14.457-26.102.401-32.527 2.008-59.433 15.661m-495.945-1.204c-15.26 8.031-28.913 15.661-30.118 17.267-1.205 1.607-8.031 6.827-14.858 12.048-7.228 4.818-13.252 10.842-13.252 12.85s15.26 3.614 34.134 3.614c22.086 0 38.952 2.41 48.992 6.425 8.433 3.615 20.882 8.835 27.307 11.646 6.827 2.811 14.858 6.425 18.07 7.63s8.835 4.016 12.048 6.024 8.835 4.818 12.047 6.023c3.213 1.205 8.835 4.016 12.048 6.024 34.535 20.882 89.55 24.897 119.669 8.834 19.275-10.44 58.63-44.574 55.016-47.787-1.205-1.205-18.071-2.811-37.347-2.811-37.748-.803-34.937 0-125.291-46.583-26.906-13.653-33.33-15.26-60.236-15.26-26.504 0-33.331 1.607-58.229 14.056m499.96-91.961c-.4 22.89-2.409 38.953-6.023 45.378-11.645 20.882-4.016 25.3 23.292 14.055 8.031-3.213 18.874-6.024 24.496-6.024s11.244-2.007 12.448-4.015c5.221-8.835-40.157-84.331-51-84.331-1.606 0-3.212 15.661-3.212 34.937m-405.59-18.472c-16.464 20.48-37.346 62.244-34.134 67.866 1.205 2.008 6.827 4.015 12.45 4.015 5.621 0 16.464 2.811 24.495 6.024 27.307 11.244 34.937 6.827 23.292-14.055-3.615-6.425-5.622-22.488-6.024-45.378 0-19.276-1.606-34.937-3.213-34.937-2.007 0-9.637 7.228-16.866 16.465M686.236-23.173c0 4.016 2.811 14.456 6.024 23.291 11.244 31.725 8.031 58.229-18.874 146.575-6.827 22.488-9.236 40.157-9.236 69.07 0 35.34.803 40.158 8.834 48.19 8.835 8.834 9.638 8.834 31.725 3.212 12.85-3.212 24.094-8.834 25.7-12.047s4.82-10.04 7.229-14.858c10.04-18.874 17.67-44.575 23.291-75.496 10.04-58.63-4.016-106.417-50.197-169.866-18.472-25.701-24.496-30.118-24.496-18.071M541.268-5.103c-46.181 63.45-60.237 111.237-50.197 169.867 5.622 30.921 13.252 56.622 23.291 75.496 2.41 4.819 5.622 11.646 7.229 14.858s12.85 8.835 25.7 12.047c22.087 5.622 22.89 5.622 31.725-3.212 8.031-8.032 8.834-12.85 8.834-48.19 0-28.913-2.41-46.582-9.236-69.07C551.71 58.347 548.496 31.843 559.74.118 566.165-17.952 567.37-30 562.551-30c-2.008 0-11.646 11.244-21.283 24.898" style="stroke-width:.401575"/>
</svg>
