<svg xmlns="http://www.w3.org/2000/svg" width="1190" height="960">
    <path d="M263.855 801.754C185.288 880.32 120.43 947.816 120.43 950.98c0 9.491 34.274 39.02 46.402 39.02 15.82 0 285.797-271.56 285.797-287.379 0-11.073-30.056-44.82-40.075-44.82-2.636 0-69.604 64.858-148.699 143.953M473.194 560.25c-30.057 30.584-55.894 58.003-56.422 61.167-1.054 2.637 15.292 22.674 36.384 44.293l37.966 39.548 35.856-34.275c19.51-18.983 37.439-34.274 40.075-34.274 3.164 0 12.655 8.437 22.147 18.455 8.964 10.019 18.982 18.456 22.146 18.456 6.855 0 46.93-38.493 46.93-44.82S540.688 504.883 533.833 504.883c-3.164 0-30.583 24.783-60.64 55.366m391.784-90.695c-24.256 24.783-32.693 43.238-32.693 69.603 0 35.33-35.329 198.265-55.894 258.377-4.218 12.128-7.382 24.784-7.382 28.475s-3.164 14.237-6.855 23.2c-12.128 29.002-20.565 53.258-23.201 68.023-1.582 7.91-5.8 17.4-10.019 20.564-8.964 7.382-10.018 27.42-.527 24.783 3.164-1.582 7.382-6.855 8.437-12.655 1.054-5.273 4.745-12.128 8.964-14.237s7.382-8.437 7.382-13.71 3.691-12.655 7.91-16.346c4.218-3.691 7.91-10.019 7.91-14.237s3.163-14.237 7.381-21.62c11.074-21.619 45.348-112.842 55.894-151.335 2.637-8.964 9.491-32.692 15.82-52.73 10.545-36.383 17.4-62.748 34.274-137.098 12.655-54.312 14.764-74.876 9.491-78.04-2.636-1.582-14.764 6.855-26.892 18.983m171.9-184.028c-3.691 6.855-11.074 20.037-16.347 29.529-6.855 12.128-10.546 31.638-12.128 68.021-2.636 62.222-15.819 166.627-26.365 207.23-4.218 16.873-7.382 35.329-7.382 41.656s-3.69 24.783-8.437 41.13c-4.218 16.346-11.6 42.71-16.346 58.53-4.218 15.819-11.073 38.493-15.292 50.093-4.218 12.128-7.382 27.947-7.382 35.857s-2.109 14.237-5.273 14.237c-2.636 0-5.273 6.328-5.273 14.237.527 14.764.527 14.764 10.546-3.691 5.273-10.019 11.6-22.147 13.183-26.365 2.109-4.218 6.855-15.292 10.546-23.729 41.13-93.86 70.658-222.52 94.914-411.294 8.964-72.767 10.019-100.714 3.164-105.46-3.164-1.582-8.437 2.637-12.128 10.019M676.73 223.305c-20.037 4.219-54.839 11.074-76.458 15.82-21.62 4.218-51.148 11.073-65.913 15.291-14.237 4.218-32.165 8.437-39.547 10.019-7.382 1.054-20.037 4.745-29.002 7.382-8.436 3.164-31.11 10.546-50.093 16.346-54.312 16.874-97.023 31.638-129.189 45.348-8.436 3.691-26.365 11.073-39.547 16.346-13.183 5.273-27.42 12.656-32.166 16.347-4.218 3.69-12.127 6.855-16.873 6.855s-10.019 2.636-11.6 5.8c-2.11 2.636-9.492 7.382-16.347 10.019-6.855 2.636-12.655 7.382-12.655 10.546 0 7.91 13.71 6.327 23.2-2.637 4.22-4.218 13.183-7.91 20.038-7.91s15.292-2.636 18.456-5.8 13.71-7.382 23.201-10.018c16.874-4.219 29.002-7.91 73.295-23.729 10.019-3.691 32.692-10.546 50.093-14.764 17.401-4.746 42.184-11.074 55.367-14.765 13.182-3.69 34.274-8.436 47.457-10.546s39.02-6.327 58.003-10.018c18.983-3.164 53.257-9.492 76.458-13.71 23.202-4.219 50.621-7.382 61.167-7.382s26.365-1.582 35.33-3.164c17.928-3.691 71.185-47.985 66.44-55.367-4.22-6.855-46.403-4.745-89.115 3.691m123.916-152.39c-96.496 3.692-336.417 48.512-394.42 73.295-9.492 4.219-20.565 7.383-24.256 7.383-4.219 0-14.237 3.69-22.147 7.909-8.437 4.218-18.983 7.91-23.728 7.91s-11.601 3.163-15.292 7.382c-3.164 4.218-11.073 8.437-16.874 9.491-6.327 1.055-12.128 4.746-13.71 8.964-2.636 7.91 14.238 6.328 43.766-3.69 58.003-20.566 177.7-48.512 258.377-61.168 59.585-8.964 228.849-24.256 268.924-24.256 21.092 0 29.001-2.636 38.493-12.655 23.728-25.31 20.564-25.837-99.133-20.564M772.7 256.526c-123.915 124.97-225.157 229.376-225.157 232.012 0 5.8 62.221 69.077 68.022 69.077 2.109 0 68.549-65.913 148.698-146.062 133.935-135.517 178.755-184.028 178.755-194.574 0-2.11 3.164-7.91 6.855-12.128 6.328-7.91 16.874-31.638 32.693-74.35 8.436-22.673 21.092-93.859 17.4-97.55-1.581-1.582-103.878 99.132-227.266 223.575M1041.096-11.87l-18.983 21.092V60.37c0 56.42-8.437 91.75-32.692 141.316-22.674 44.82-28.475 51.148-196.156 221.466-82.786 83.84-150.808 155.554-150.808 159.245 0 10.546 20.037 27.947 31.638 27.947 14.764 0 322.708-312.162 345.909-350.655 10.019-16.346 17.928-32.693 17.928-36.384 0-3.163 2.11-8.436 4.746-11.6 2.636-2.637 9.491-24.256 15.819-47.985 8.437-34.274 11.073-59.585 11.073-117.06 0-40.602-2.109-74.877-4.745-76.459s-13.183 6.328-23.729 17.928" style="stroke-width:.5273"/>
</svg>
