<svg xmlns="http://www.w3.org/2000/svg" width="1100" height="960">
    <path d="M40.217-29.78C38.583-6.279 46.333 13.198 55.05 32.342c18.21 39.924 46.812 72.097 75.451 104.472l343.187 343.187-162.619 162.62c-11.79 8.832-21.072 1.735-29.127-5.697-12.608-11.752-24.542-24.542-34.931-34.932l-1.29-29.557-.108-.108c-1.82-3.35-4.064-6.428-6.878-9.243-4.67-4.67-10.187-8.03-15.907-9.78-9.579 7.492-18.8 15.682-27.623 24.505-9.157 9.157-17.6 18.703-24.398 27.515v.108c1.914 5.328 4.943 10.21 9.243 14.51 2.996 2.996 6.297 5.489 9.566 7.2l30.632 3.225c12.335 12.335 23.704 25.913 36.973 37.081 21.791 18.211 19.483 35.456 3.762 56.858-36.538 50.002-83.585 89.852-126.505 133.706v-.107l.43-.753c-4.592 6.771-9.915 13.14-15.907 19.132-5.137 5.137-10.486 9.925-15.585 13.543-10.04 1.867-13.258-12.109-21.819-8.061l-41.595 41.702.215.43c9.806 15.565 13.778 33.73 11.716 51.591h.215c.78-.116 1.58.088 2.364 0-.093.784.116 1.585 0 2.365v.215c17.86-2.063 36.026 1.909 51.591 11.715l.43.215 41.703-41.595c4.047-8.561-9.93-11.78-8.061-21.819 3.617-5.099 8.406-10.448 13.542-15.585 5.993-5.992 12.361-11.315 19.132-15.907l-.753.43h-.107c43.854-42.92 83.704-89.966 133.706-126.505 21.402-15.72 38.647-18.029 56.858 3.762 11.168 13.269 24.746 24.638 37.08 36.973l3.225 30.632c1.712 3.27 4.205 6.57 7.202 9.566 4.3 4.3 9.181 7.33 14.51 9.244h.107c8.812-6.8 18.359-15.242 27.515-24.399 8.823-8.823 17.013-18.044 24.506-27.622-1.751-5.72-5.111-11.238-9.781-15.908-2.814-2.814-5.893-5.058-9.243-6.878l-.108-.108-29.557-1.29c-10.39-10.39-23.18-22.323-34.931-34.93-7.433-8.056-14.53-17.338-5.697-29.128L550 556.313l162.619 162.62c8.833 11.79 1.736 21.072-5.697 29.127-11.751 12.608-24.541 24.542-34.931 34.931l-29.557 1.29-.108.108c-3.35 1.82-6.429 4.064-9.243 6.878-4.67 4.67-8.03 10.188-9.78 15.908 7.492 9.578 15.682 18.8 24.505 27.622 9.156 9.157 18.703 17.6 27.515 24.399h.107c5.328-1.914 10.21-4.944 14.51-9.244 2.997-2.996 5.49-6.297 7.202-9.566l3.224-30.632c12.335-12.335 25.913-23.704 37.081-36.973 18.211-21.791 35.456-19.483 56.857-3.762 50.003 36.539 89.853 83.585 133.707 126.505h-.107l-.753-.43c6.77 4.592 13.14 9.915 19.132 15.907 5.136 5.137 9.925 10.486 13.542 15.585 1.868 10.04-12.108 13.258-8.06 21.819L993.466 990l.43-.215c15.565-9.806 33.73-13.778 51.59-11.715v-.215c-.115-.78.089-1.58 0-2.365.785.094 1.586-.116 2.365 0h.215c-2.062-17.86 1.91-36.026 11.716-51.59l.215-.43-41.595-41.703c-8.561-4.047-11.78 9.928-21.82 8.06-5.098-3.616-10.447-8.406-15.584-13.542-5.992-5.992-11.315-12.36-15.907-19.132l.43.753v.107c-42.92-43.854-89.967-83.704-126.505-133.706-15.72-21.402-18.03-38.647 3.761-56.858 13.27-11.168 24.639-24.746 36.974-37.08l30.632-3.225c3.269-1.712 6.57-4.205 9.566-7.201 4.3-4.3 7.33-9.182 9.243-14.51v-.108c-6.799-8.812-15.241-18.358-24.398-27.515-8.823-8.823-18.044-17.013-27.623-24.506-5.72 1.751-11.237 5.112-15.907 9.781-2.814 2.814-5.058 5.894-6.879 9.243l-.107.108-1.29 29.557c-10.39 10.39-22.324 23.18-34.931 34.932-8.055 7.432-17.337 14.53-29.128 5.696L626.312 480.002l343.187-343.187c28.64-32.375 57.24-64.548 75.452-104.472 8.716-19.144 16.466-38.62 14.832-62.124-23.503-1.634-42.98 6.116-62.124 14.833-39.924 18.21-72.097 46.812-104.472 75.451L550 403.691 206.813 60.503c-32.375-28.639-64.548-57.24-104.472-75.451-19.145-8.717-38.62-16.467-62.124-14.833"/>
</svg>
