<svg xmlns="http://www.w3.org/2000/svg" width="918" height="960">
    <path d="M207.33-23.333c-3.889 3.889-6.666 16.111-6.666 27.222 0 11.667-2.778 21.667-6.111 22.778-3.334 1.111-7.223 18.334-8.89 37.779-1.666 20-6.11 46.667-10.555 60-4.445 12.778-7.778 36.667-7.778 52.779s-2.778 32.222-5.556 35c-3.333 3.333-8.333 24.445-11.11 47.223-2.779 22.778-7.223 50-10.557 60.556s-6.11 30.556-6.11 44.445c0 13.89-2.779 28.334-6.668 32.223-3.888 3.889-6.666 23.889-6.666 46.667l-.556 40.556 125.002 1.667c68.89.555 128.334 2.222 132.223 3.888 5.556 2.223 5 6.112-1.666 18.89-4.445 9.444-8.334 22.222-8.334 29.444s-3.889 17.778-8.333 23.334c-4.445 6.111-8.334 17.222-8.334 25s-3.888 19.445-8.333 25c-4.444 6.112-8.333 19.445-8.333 29.445s-2.223 18.334-5.556 18.334c-2.778 0-6.667 9.444-8.333 20.556-1.667 11.666-7.223 27.778-11.667 36.111-4.445 7.778-7.778 20.556-7.778 27.778 0 6.667-3.89 17.778-8.334 23.334-4.444 6.111-8.333 17.222-8.333 25s-3.889 19.445-8.333 25c-4.445 6.112-8.334 15-8.334 20.556 0 5-3.889 16.667-8.333 25-4.445 8.89-8.334 22.223-8.334 30.001s-3.889 18.89-8.333 24.445c-4.445 6.11-8.334 16.666-8.334 23.889s-3.888 19.444-8.889 27.222c-7.222 10-7.777 15.556-3.333 20 7.778 7.779 15-.555 82.223-98.334 28.89-42.778 66.668-97.779 83.89-122.224 88.334-125.557 117.78-171.668 111.113-176.113-3.89-2.222-16.112-4.444-27.779-4.444h-21.111l1.667-51.112c1.666-43.334 3.333-51.667 11.11-53.334 8.334-1.667 9.446 3.334 8.334 41.667l-1.11 43.334 65.556 1.667 65 1.667v60c0 66.668 1.667 70.001 35 72.223 38.89 1.667 42.223-3.333 43.89-70.556l1.667-59.445 58.334-2.778 58.334-2.778v-72.223l-47.223-1.667c-77.223-2.222-72.223 2.223-72.223-62.223v-55l-18.334-3.334c-10-2.222-27.222-2.777-37.778-1.666l-18.889 1.666-1.667 55.557c-1.666 57.778-6.11 70.556-20 58.89-6.111-5.556-7.222-10-3.333-17.223 3.333-5.556 5.555-34.445 5.555-63.334v-53.334h41.668c38.333 0 43.333-1.111 55.556-14.445 7.778-8.333 13.889-17.222 13.889-19.444 0-2.778 5.556-9.445 11.667-15.556 7.222-6.667 10.555-14.445 8.889-19.445-3.334-7.778-23.334-8.889-159.447-8.889-137.223 0-156.113-1.111-159.446-8.889-2.778-8.333 25-67.778 56.667-121.668 7.223-12.222 13.334-25.556 13.89-29.445 0-3.889 6.11-15.555 13.333-25 20-26.667 55-103.335 51.112-112.224C529.556-28.889 504-30 371.22-30c-115.001 0-158.89 1.667-163.89 6.667" style="stroke-width:.555562"/>
</svg>
