<svg xmlns="http://www.w3.org/2000/svg" width="1456" height="960">
    <path d="M701.854 281.146c-9.604 13.34-25.612 33.083-35.75 43.754s-18.142 21.344-18.142 22.944c0 1.601-18.675 18.676-41.086 37.885-54.426 45.888-70.967 61.362-70.967 66.698 0 2.134 16.541 17.608 36.284 33.616 45.355 37.35 88.042 81.105 118.456 122.19 32.015 42.688 42.687 43.221 72.034 2.669 26.68-37.351 69.366-81.639 114.72-119.523 19.21-15.474 36.818-30.415 39.486-32.549 7.47-6.403-2.134-17.608-52.291-59.761-47.49-40.553-78.97-74.702-110.452-118.99-9.605-12.806-21.344-23.478-26.146-23.478s-16.541 11.206-26.146 24.545m60.295 133.397c16.542 16.007 29.881 32.015 29.881 35.216s-8.004 13.34-17.075 22.944c-9.604 9.605-22.944 23.478-29.347 31.482-6.936 7.47-14.407 13.873-17.608 13.873s-10.672-6.403-17.608-13.873c-6.403-8.004-19.743-21.877-28.814-31.482-9.604-9.604-17.608-19.742-17.608-22.944 0-7.47 54.425-64.03 62.43-64.564 3.2-.533 19.742 12.806 35.75 29.348M170.403 6.883c-1.067 3.736-2.667 13.874-3.735 22.945-1.6 14.406-3.735 16.54-22.944 18.675l-21.343 2.668-1.6 431.137-1.068 430.603h250.785c239.046 0 251.852.534 270.528 10.672 10.671 5.336 20.81 12.272 22.41 14.407 21.877 29.347 107.25 29.347 129.128 0 1.6-2.135 11.739-9.071 22.41-14.407 18.676-10.138 31.482-10.672 270.528-10.672h250.785l-1.067-431.137-1.6-430.603-21.344-2.668c-20.276-2.668-21.344-3.735-24.012-24.011l-2.667-21.344-148.87-1.6c-99.248-.534-151.005.533-155.274 4.268-4.802 4.269-8.004 4.269-10.672 0-4.268-7.47-110.986-6.936-118.456.534-4.268 4.269-6.936 4.269-9.07 0-7.47-11.739-36.284-5.87-67.766 13.34l-31.481 19.742V91.19c0 56.56 1.067 58.694 32.015 58.694 25.078 0 32.015-4.802 32.015-24.011 0-21.877 4.802-35.75 11.205-31.482 7.47 4.27 5.336 30.415-3.201 43.22-8.004 11.206-7.47 12.273 12.806 25.613 12.272 7.47 26.145 13.34 30.947 13.34 12.807-.534 26.68-11.74 28.814-23.478 1.067-5.87 5.336-11.205 9.071-12.806 9.605-3.202 8.004 19.742-1.6 23.478-13.874 5.869-9.072 26.145 11.205 43.754 10.671 9.604 22.944 17.074 27.746 17.074 4.269 0 18.142-10.138 30.414-22.944 32.015-32.549 45.355-43.754 45.355-36.817 0 3.201-13.34 19.209-29.347 35.75-19.21 19.743-29.347 34.683-29.347 43.22 0 6.937 1.6 12.806 4.268 12.806 2.135 0 8.004 7.47 12.806 16.008 10.139 17.608 21.877 20.276 34.15 8.004 4.802-4.269 12.806-8.004 18.142-8.004s10.672-3.735 12.806-8.004c3.201-9.07 19.209-11.205 19.209-2.668 0 3.202-5.87 8.004-12.806 10.672-6.937 2.668-14.407 7.47-16.541 10.138-1.601 3.202-7.47 5.87-13.34 5.87-20.81 0-17.608 36.817 5.87 69.9 8.537 11.738 9.604 17.607 4.802 25.611-4.269 8.004-2.668 17.609 5.87 40.553 8.537 23.477 9.604 31.481 4.802 37.35-3.736 4.27-6.937 20.277-7.47 35.75-.534 24.012 1.067 28.28 10.138 29.882 27.212 4.268 34.683 6.936 31.481 12.272-1.6 3.202-12.806 4.802-24.545 3.735-18.142-1.067-23.478.534-32.549 12.806-20.276 27.213-10.138 53.359 27.213 68.3 6.403 2.667 11.74 7.47 11.74 10.67 0 8.538-16.008 6.404-19.21-2.667-2.134-4.269-9.07-8.004-16.007-8.004s-12.807-2.668-12.807-5.336c0-3.201-4.268-5.336-10.138-5.336-10.671 0-37.884 32.016-37.884 44.822 0 6.936 20.276 32.548 49.623 63.496 5.336 5.336 8.538 11.739 6.403 13.34-1.6 2.134-4.802 1.067-6.936-2.135s-18.676-18.675-37.351-33.615l-33.616-27.747-20.81 17.609c-21.877 19.209-26.146 30.947-13.34 41.62 4.269 3.734 8.004 10.67 8.004 16.007 0 5.336 3.735 12.272 8.004 16.007 9.07 7.47 10.672 21.344 2.668 21.344-3.202 0-8.004-5.336-10.672-12.273-6.937-15.474-16.541-29.88-28.814-42.687-10.138-10.671-10.138-10.671-34.683 2.668-14.94 8.004-23.477 16.008-22.41 20.81 5.336 17.075 6.936 42.687 3.735 51.224-5.87 13.874-13.873-1.6-13.873-26.145 0-22.411-9.605-27.747-43.22-24.545l-18.143 1.6-1.6 66.165c-.534 36.284.533 68.299 3.201 70.967 3.202 3.201 11.205-.534 19.743-8.537s22.41-16.008 31.481-18.142c11.206-3.202 19.21-10.138 25.079-22.411l8.537-17.608 5.87 16.54 5.87 17.076h49.623c29.347 0 52.824-2.668 56.026-5.87 4.269-4.269 9.071-4.269 16.541 0 6.937 3.735 63.497 5.336 164.344 4.269l154.207-1.067 2.667-394.853 2.668-394.853h26.68v827.057l-247.05 1.6-247.05 1.068-36.818 24.01c-49.623 32.55-67.765 32.55-117.388 0l-36.818-24.01-247.05-1.068-247.05-1.6V67.179h26.68l2.668 394.853 2.667 394.853 154.207 1.067c100.847 1.067 157.407-.534 164.344-4.269 7.47-4.269 12.272-4.269 16.541 0 3.201 3.202 26.68 5.87 56.026 5.87h49.624l5.87-17.075 5.869-16.541 8.537 17.608c5.87 12.273 13.873 19.21 25.079 22.41 9.07 2.135 22.944 10.139 31.481 18.143 8.537 8.003 16.541 11.738 19.743 8.537 2.668-2.668 3.735-34.683 3.201-70.967l-1.6-66.165-18.142-1.6c-33.616-3.202-43.22 2.134-43.22 24.545 0 10.671-2.135 23.477-5.337 27.746-10.138 16.541-13.873-21.877-4.802-52.825 1.067-4.802-7.47-12.806-22.41-20.81-24.545-13.34-24.545-13.34-34.684-2.668-12.272 12.806-21.877 27.213-28.813 42.687-2.668 6.937-7.47 12.273-10.672 12.273-8.004 0-6.403-13.874 2.668-21.344 4.269-3.735 8.004-10.671 8.004-16.007s3.735-12.273 8.004-16.008c12.806-10.672 8.537-22.41-13.34-41.62l-20.81-17.608-33.616 27.747c-18.675 14.94-35.216 30.414-37.35 33.615s-5.336 4.27-6.937 2.135c-2.668-2.668 18.142-28.814 46.955-58.695 12.273-13.34 11.74-22.944-4.802-44.82-13.34-17.075-34.15-25.08-34.15-12.807 0 2.668-5.869 5.336-12.805 5.336-6.937 0-13.874 3.735-16.008 8.004-3.202 9.07-19.21 11.205-19.21 2.668 0-3.202 5.337-8.004 12.273-10.672 36.818-14.94 46.956-41.086 26.68-68.299-9.071-12.272-14.407-13.873-32.55-12.806-11.738 1.067-22.943-.533-24.544-3.735-3.202-5.336 4.269-8.004 31.482-12.272 9.07-1.601 10.671-5.87 10.138-29.881-.534-15.474-3.735-31.482-7.47-35.75-4.803-5.87-3.736-13.874 4.802-37.351 8.537-22.944 10.138-32.55 5.87-40.553-4.803-8.004-3.736-13.873 4.801-25.612 23.478-33.082 26.68-69.9 5.87-69.9-5.87 0-11.739-2.667-13.34-5.869-2.134-2.668-9.604-7.47-16.54-10.138-6.938-2.668-12.807-7.47-12.807-10.672 0-8.537 16.008-6.403 19.21 2.668 2.133 4.269 7.47 8.004 12.805 8.004 5.336 0 12.273 3.735 16.008 8.004 10.671 12.806 26.145 9.604 36.283-8.004 4.803-8.537 10.672-16.008 13.34-16.008 2.134 0 3.735-5.87 3.735-12.806 0-8.537-10.138-23.477-29.347-43.22-16.008-16.541-29.347-32.549-29.347-35.75 0-6.937 13.34 4.268 45.355 36.817 12.272 12.806 26.145 22.944 30.414 22.944 4.802 0 17.075-7.47 27.746-17.074 20.277-17.609 25.079-37.885 11.206-43.754-9.605-3.736-11.206-26.68-1.068-23.478 3.202 1.6 7.47 6.936 8.538 12.806 2.134 11.739 16.007 22.944 28.813 23.478 4.803 0 18.676-5.87 30.948-13.34 20.277-13.34 20.81-14.407 12.806-25.612-8.537-12.806-10.671-38.952-3.201-43.22 6.403-4.27 11.205 9.604 11.205 31.481 0 19.209 6.937 24.011 32.015 24.011 30.948 0 32.015-2.134 32.015-58.694V39.432L680.511 19.69C649.029.48 623.417-4.855 612.212 6.35c-4.269 4.269-6.937 4.269-9.07 0-4.803-8.004-110.987-8.004-118.99 0-4.27 4.269-6.937 4.269-9.071 0-5.87-9.071-301.476-8.004-304.678.534m331.89 39.486c-4.802 4.802-14.94-3.202-11.205-9.605 2.134-3.201 5.336-3.201 9.071.534 3.202 3.201 4.269 6.936 2.134 9.07m128.594 1.6c1.068 6.404.534 16.008-1.6 20.81-2.668 7.47-3.735 7.47-8.004 1.068-8.004-12.273-6.403-38.419 1.6-36.284 3.202 1.6 6.937 8.004 8.004 14.407m209.166-2.667c0 17.608-5.336 30.414-11.205 26.679-5.336-3.202-6.403-30.414-1.068-35.75 6.937-7.47 12.273-3.202 12.273 9.07m123.258-.534c-6.937 6.937-13.873 1.6-8.537-6.403 1.6-3.201 5.87-4.269 9.07-2.668 3.202 2.134 3.202 5.336-.533 9.071m-427.402 58.16c0 2.669-2.134 4.27-5.336 4.27-2.667 0-5.335-5.336-5.335-12.273 0-9.604 1.067-10.138 5.335-3.735 2.668 4.269 5.336 9.605 5.336 11.739m392.719 2.669c-5.87 5.87-9.07-2.135-4.802-12.273 3.735-9.604 4.268-9.604 5.87-.533 1.066 5.336.533 11.205-1.068 12.806M550.85 125.339c1.6 6.403-.534 9.071-5.336 7.47-3.735-1.6-8.004-6.936-8.538-11.738-1.6-6.403.534-9.071 5.336-7.47 3.735 1.6 8.004 6.936 8.538 11.738m369.24-5.335c0 8.537-9.604 16.54-14.406 11.738-4.269-4.268 2.668-19.209 9.07-19.209 2.669 0 5.337 3.202 5.337 7.47M391.309 245.396c4.802 3.202 5.336 5.87 1.067 8.004-6.937 4.269-16.541-.534-16.541-8.004 0-5.87 5.87-5.87 15.474 0m688.858 0c0 7.47-9.604 12.273-16.54 8.004-4.27-2.134-3.736-4.802 1.066-8.004 9.605-5.87 15.474-5.87 15.474 0m-726.21 96.045c10.139 6.403-2.134 12.806-16.007 8.538-9.07-3.202-10.138-4.802-4.268-8.538 9.07-5.87 11.205-5.87 20.276 0m768.363 0c5.87 3.736 4.803 5.336-4.268 8.538-13.873 4.268-26.146-2.135-16.008-8.538 9.071-5.87 11.206-5.87 20.276 0m-707 14.407c12.806 4.802 10.138 12.806-4.269 12.806-16.54 0-29.88-5.336-29.88-11.205 0-5.336 21.343-6.403 34.15-1.6m659.511 1.6c0 5.87-13.34 11.206-29.88 11.206-13.34 0-17.609-8.004-5.87-12.272 11.205-4.802 35.75-3.735 35.75 1.067M367.296 549.54c4.27 6.936-12.272 12.272-25.612 8.003-11.205-3.735-11.205-3.735-.533-8.003 14.94-5.87 22.944-5.87 26.145 0m749.688 0c5.869 3.735 5.335 5.335-3.202 8.003-12.806 4.269-29.347-1.067-25.078-8.003 3.735-5.87 18.675-5.87 28.28 0m-714.471 96.045c0 5.336-16.008 12.806-19.743 9.07-1.6-1.6-1.067-4.801 1.068-8.003 4.268-6.936 18.675-8.004 18.675-1.067m669.65 1.067c2.134 3.202 2.667 6.403 1.067 8.004-3.735 3.735-19.743-3.735-19.743-9.071 0-6.937 14.407-5.87 18.675 1.067M533.774 805.661c-6.403 10.138-12.806 6.403-10.138-5.336 2.134-6.937 4.802-9.071 8.004-5.87s3.735 8.004 2.134 11.206m400.189 4.802c-5.336 5.336-15.474-8.004-11.205-14.94 3.201-4.803 5.335-4.27 9.07 2.134 3.202 5.336 3.736 10.671 2.135 12.806" style="stroke-width:.533585"/>
</svg>
