<svg xmlns="http://www.w3.org/2000/svg" width="1250" height="960">
    <path d="M626.868-30c-6.088 4.653-7.012 10.618-9.338 15.75-26.391 58.455-52.633 117.036-79.247 175.364-12.972 28.367-22.836 31.435-49.864 16.932-.542-.286-.954-.709-1.432-.996-106.01-59.411-215.845-111.168-325.33-163.536-3.824-1.88-7.532-5.908-12.823-3.486-1.466 4.558 2.202 7.519 3.86 10.77 24.52 47.873 49.199 95.622 74.017 143.304 31.459 60.527 63.091 121.015 96.367 180.904 13.96 24.925 10.53 35.28-15.128 47.997-2.581 1.115-5.292 2.243-7.906 3.486a28353 28353 0 0 0-167.582 79.434c-4.399 2.103-10.412 2.327-12.388 9.275 42.964 19.793 85.925 39.885 128.986 59.264 19.57 8.829 39.57 16.42 59.14 25.025 21.1 9.307 26.61 24.38 17.368 45.258-1.18 2.645-2.612 5.2-4.047 7.719-60.782 105.277-111.07 215.801-162.29 325.827-1.403 3.124-6.16 6.347-2.304 10.458.318.032.677 0 .996 0 2.837 0 5.462-.957 7.47-2.614 105.66-55.262 211.587-110.333 316.552-167.271 5.354-3.22 10.922-6.186 17.68-9.214 14.662-5.82 24.063-2.638 32.433 10.583l.062.062a128 128 0 0 1 8.093 15.314c20.292 43.496 40.588 86.986 60.945 130.418 8.382 17.977 17.07 35.773 25.772 53.973 5.45-3.41 6.214-8.403 8.03-12.45 23.714-52.718 47.07-105.527 70.656-158.245l.748-1.805c3.824-8.925 8.123-17.67 12.139-24.715 9.88-17.084 18.04-19.568 35.857-12.014l.747.249a98 98 0 0 1 10.21 5.042C869.954 845.57 979.16 895.94 1087.72 947.67c3.952 1.848 7.638 5.53 15.065 3.299l-.062-.062c-55.715-109.994-109.953-219.86-170.385-326.7-18.613-32.892-15.382-42.65 19.423-58.205 54.854-24.542 109.805-48.942 164.595-73.644 4.749-2.104 11.212-2.338 13.57-8.84l-9.586-4.98c-58.041-28.622-115.933-57.701-174.866-84.538-27.57-12.526-30.212-22.13-16.124-48.744.223-.51.647-.921.934-1.431 59.22-105.34 109.86-215.193 160.984-324.645 1.785-3.793 5.75-7.443 3.424-12.575-3.952-.637-6.624 2.02-9.525 3.486-107.253 54.408-214.805 108.24-319.54 167.396-28.526 16.064-39.178 12.51-52.852-16.621a227 227 0 0 1-2.863-6.35C693.21 117.032 676.4 79.59 659.55 42.15 648.809 18.213 637.928-5.649 626.868-30m-.436 219.999 58.081 128.737c68.623-38.088 137.6-72.796 208.295-106.326a2775 2775 0 0 1-104.085 209.54l121.391 59.824c-10.167 7.81-19.986 10.579-29.134 14.754-26.295 11.92-52.793 23.473-79.184 35.235-13.674 6.151-13.672 6.239-6.723 18.924 33.972 61.61 65.344 124.678 96.802 187.752.559 1.879 1.056 3.82 1.431 6.039-71.172-32.256-140.144-65.013-208.544-102.592L627.988 768.01l-59.45-125.687c-67.603 35.57-134.577 70.703-201.51 105.891l-2.989-2.49c30.726-69.706 62.918-138.78 100.911-206.988-40.734-18.55-81.879-36.314-123.633-58.02 42.105-20.08 82.47-39.327 122.948-58.578-30.821-59.22-61.601-117.951-92.008-177.107-4.463-8.574-10.485-16.7-12.015-26.644-1.562-.255-2.986-1.18-1.743-2.615 1.243-1.434 2.478-.1 2.988 1.494 8.322.562 15.069 5.471 22.286 8.778 61.675 29.004 123.32 58.282 184.515 92.195 19.252-42.487 38.255-84.35 58.144-128.24m.498 187.378c-56.065 0-101.529 45.314-101.72 101.347 0 56 45.408 101.408 101.409 101.408 56 0 101.346-45.407 101.346-101.408 0-55.81-45.07-101.06-100.848-101.347zm.249 72.898c15.437 0 27.972 12.399 28.387 27.764-.033 15.217-11.868 27.649-26.893 28.76-.43.028-.912.063-1.37.063-15.394 0-27.906-12.217-28.511-27.516v-.684c0-15.682 12.705-28.387 28.387-28.387" style="stroke-width:31.8731"/>
</svg>
