<svg xmlns="http://www.w3.org/2000/svg" width="1230" height="960">
    <path d="M698.262 495H630v60.762c72.45 5.64 133.783 71.23 135.088 143.835 3.45 71.67-51.466 142.448-123.257 152.553-14.98-.36-11.79 13.266-11.831 23.449V900h480V495H996.738c-5.491 65.912-59.708 123.487-125.127 133.037-66.234 12-137.06-27.102-162.216-89.531-5.87-13.828-9.67-28.552-11.133-43.506M630 60v45.762c65.912 5.491 123.487 59.708 133.037 125.127 12 66.234-27.102 137.06-89.531 162.216-12.71 7.924-33.8 6.79-43.506 13.645V465h68.262c5.64-72.45 71.23-133.783 143.835-135.088 71.67-3.45 142.448 51.466 152.553 123.257-.36 14.98 13.266 11.79 23.449 11.831H1110V60zM233.262 495H120v405h480v-45.762c-72.45-5.64-133.783-71.23-135.088-143.835-3.45-71.67 51.466-142.448 123.257-152.553 14.98.36 11.79-13.266 11.831-23.449V495h-68.262c-5.491 65.912-59.708 123.487-125.127 133.037-66.234 12-137.06-27.102-162.216-89.531-5.87-13.828-9.67-28.552-11.133-43.506M120 60v405h113.262c5.491-65.912 59.708-123.487 125.127-133.037 66.234-12 137.06 27.102 162.216 89.531 7.924 12.71 6.79 33.8 13.645 43.506H600v-60.762c-65.912-5.491-123.487-59.708-133.037-125.127-12-66.234 27.102-137.06 89.531-162.216 12.71-7.924 33.8-6.79 43.506-13.645V60z" style="stroke-width:15"/>
</svg>
